<?xml version="1.0" encoding="utf-8"?>
<svg xmlns="http://www.w3.org/2000/svg" xmlns:xlink="http://www.w3.org/1999/xlink" width="600" height="400" viewBox="0 0 2400 1600">
<defs>
  <clipPath id="clip230">
    <rect x="0" y="0" width="2400" height="1600"/>
  </clipPath>
</defs>
<path clip-path="url(#clip230)" d="
M0 1600 L2400 1600 L2400 0 L0 0  Z
  " fill="#ffffff" fill-rule="evenodd" fill-opacity="1"/>
<defs>
  <clipPath id="clip231">
    <rect x="480" y="0" width="1681" height="1600"/>
  </clipPath>
</defs>
<path clip-path="url(#clip230)" d="
M229.192 1444.78 L2352.76 1444.78 L2352.76 106.192 L229.192 106.192  Z
  " fill="#eaeaea" fill-rule="evenodd" fill-opacity="1"/>
<defs>
  <clipPath id="clip232">
    <rect x="229" y="106" width="2125" height="1340"/>
  </clipPath>
</defs>
<polyline clip-path="url(#clip232)" style="stroke:#ffffff; stroke-linecap:butt; stroke-linejoin:round; stroke-width:4; stroke-opacity:1; fill:none" points="
  289.293,1444.78 289.293,106.192 
  "/>
<polyline clip-path="url(#clip232)" style="stroke:#ffffff; stroke-linecap:butt; stroke-linejoin:round; stroke-width:4; stroke-opacity:1; fill:none" points="
  489.629,1444.78 489.629,106.192 
  "/>
<polyline clip-path="url(#clip232)" style="stroke:#ffffff; stroke-linecap:butt; stroke-linejoin:round; stroke-width:4; stroke-opacity:1; fill:none" points="
  689.965,1444.78 689.965,106.192 
  "/>
<polyline clip-path="url(#clip232)" style="stroke:#ffffff; stroke-linecap:butt; stroke-linejoin:round; stroke-width:4; stroke-opacity:1; fill:none" points="
  890.302,1444.78 890.302,106.192 
  "/>
<polyline clip-path="url(#clip232)" style="stroke:#ffffff; stroke-linecap:butt; stroke-linejoin:round; stroke-width:4; stroke-opacity:1; fill:none" points="
  1090.64,1444.78 1090.64,106.192 
  "/>
<polyline clip-path="url(#clip232)" style="stroke:#ffffff; stroke-linecap:butt; stroke-linejoin:round; stroke-width:4; stroke-opacity:1; fill:none" points="
  1290.97,1444.78 1290.97,106.192 
  "/>
<polyline clip-path="url(#clip232)" style="stroke:#ffffff; stroke-linecap:butt; stroke-linejoin:round; stroke-width:4; stroke-opacity:1; fill:none" points="
  1491.31,1444.78 1491.31,106.192 
  "/>
<polyline clip-path="url(#clip232)" style="stroke:#ffffff; stroke-linecap:butt; stroke-linejoin:round; stroke-width:4; stroke-opacity:1; fill:none" points="
  1691.65,1444.78 1691.65,106.192 
  "/>
<polyline clip-path="url(#clip232)" style="stroke:#ffffff; stroke-linecap:butt; stroke-linejoin:round; stroke-width:4; stroke-opacity:1; fill:none" points="
  1891.98,1444.78 1891.98,106.192 
  "/>
<polyline clip-path="url(#clip232)" style="stroke:#ffffff; stroke-linecap:butt; stroke-linejoin:round; stroke-width:4; stroke-opacity:1; fill:none" points="
  2092.32,1444.78 2092.32,106.192 
  "/>
<polyline clip-path="url(#clip232)" style="stroke:#ffffff; stroke-linecap:butt; stroke-linejoin:round; stroke-width:4; stroke-opacity:1; fill:none" points="
  2292.66,1444.78 2292.66,106.192 
  "/>
<polyline clip-path="url(#clip232)" style="stroke:#ffffff; stroke-linecap:butt; stroke-linejoin:round; stroke-width:2; stroke-opacity:1; fill:none" points="
  389.461,1444.78 389.461,106.192 
  "/>
<polyline clip-path="url(#clip232)" style="stroke:#ffffff; stroke-linecap:butt; stroke-linejoin:round; stroke-width:2; stroke-opacity:1; fill:none" points="
  589.797,1444.78 589.797,106.192 
  "/>
<polyline clip-path="url(#clip232)" style="stroke:#ffffff; stroke-linecap:butt; stroke-linejoin:round; stroke-width:2; stroke-opacity:1; fill:none" points="
  790.133,1444.78 790.133,106.192 
  "/>
<polyline clip-path="url(#clip232)" style="stroke:#ffffff; stroke-linecap:butt; stroke-linejoin:round; stroke-width:2; stroke-opacity:1; fill:none" points="
  990.47,1444.78 990.47,106.192 
  "/>
<polyline clip-path="url(#clip232)" style="stroke:#ffffff; stroke-linecap:butt; stroke-linejoin:round; stroke-width:2; stroke-opacity:1; fill:none" points="
  1190.81,1444.78 1190.81,106.192 
  "/>
<polyline clip-path="url(#clip232)" style="stroke:#ffffff; stroke-linecap:butt; stroke-linejoin:round; stroke-width:2; stroke-opacity:1; fill:none" points="
  1391.14,1444.78 1391.14,106.192 
  "/>
<polyline clip-path="url(#clip232)" style="stroke:#ffffff; stroke-linecap:butt; stroke-linejoin:round; stroke-width:2; stroke-opacity:1; fill:none" points="
  1591.48,1444.78 1591.48,106.192 
  "/>
<polyline clip-path="url(#clip232)" style="stroke:#ffffff; stroke-linecap:butt; stroke-linejoin:round; stroke-width:2; stroke-opacity:1; fill:none" points="
  1791.81,1444.78 1791.81,106.192 
  "/>
<polyline clip-path="url(#clip232)" style="stroke:#ffffff; stroke-linecap:butt; stroke-linejoin:round; stroke-width:2; stroke-opacity:1; fill:none" points="
  1992.15,1444.78 1992.15,106.192 
  "/>
<polyline clip-path="url(#clip232)" style="stroke:#ffffff; stroke-linecap:butt; stroke-linejoin:round; stroke-width:2; stroke-opacity:1; fill:none" points="
  2192.49,1444.78 2192.49,106.192 
  "/>
<polyline clip-path="url(#clip230)" style="stroke:#ffffff; stroke-linecap:butt; stroke-linejoin:round; stroke-width:4; stroke-opacity:1; fill:none" points="
  229.192,1444.78 2352.76,1444.78 
  "/>
<polyline clip-path="url(#clip230)" style="stroke:#333333; stroke-linecap:butt; stroke-linejoin:round; stroke-width:4; stroke-opacity:1; fill:none" points="
  289.293,1444.78 289.293,1463.68 
  "/>
<polyline clip-path="url(#clip230)" style="stroke:#333333; stroke-linecap:butt; stroke-linejoin:round; stroke-width:4; stroke-opacity:1; fill:none" points="
  489.629,1444.78 489.629,1463.68 
  "/>
<polyline clip-path="url(#clip230)" style="stroke:#333333; stroke-linecap:butt; stroke-linejoin:round; stroke-width:4; stroke-opacity:1; fill:none" points="
  689.965,1444.78 689.965,1463.68 
  "/>
<polyline clip-path="url(#clip230)" style="stroke:#333333; stroke-linecap:butt; stroke-linejoin:round; stroke-width:4; stroke-opacity:1; fill:none" points="
  890.302,1444.78 890.302,1463.68 
  "/>
<polyline clip-path="url(#clip230)" style="stroke:#333333; stroke-linecap:butt; stroke-linejoin:round; stroke-width:4; stroke-opacity:1; fill:none" points="
  1090.64,1444.78 1090.64,1463.68 
  "/>
<polyline clip-path="url(#clip230)" style="stroke:#333333; stroke-linecap:butt; stroke-linejoin:round; stroke-width:4; stroke-opacity:1; fill:none" points="
  1290.97,1444.78 1290.97,1463.68 
  "/>
<polyline clip-path="url(#clip230)" style="stroke:#333333; stroke-linecap:butt; stroke-linejoin:round; stroke-width:4; stroke-opacity:1; fill:none" points="
  1491.31,1444.78 1491.31,1463.68 
  "/>
<polyline clip-path="url(#clip230)" style="stroke:#333333; stroke-linecap:butt; stroke-linejoin:round; stroke-width:4; stroke-opacity:1; fill:none" points="
  1691.65,1444.78 1691.65,1463.68 
  "/>
<polyline clip-path="url(#clip230)" style="stroke:#333333; stroke-linecap:butt; stroke-linejoin:round; stroke-width:4; stroke-opacity:1; fill:none" points="
  1891.98,1444.78 1891.98,1463.68 
  "/>
<polyline clip-path="url(#clip230)" style="stroke:#333333; stroke-linecap:butt; stroke-linejoin:round; stroke-width:4; stroke-opacity:1; fill:none" points="
  2092.32,1444.78 2092.32,1463.68 
  "/>
<polyline clip-path="url(#clip230)" style="stroke:#333333; stroke-linecap:butt; stroke-linejoin:round; stroke-width:4; stroke-opacity:1; fill:none" points="
  2292.66,1444.78 2292.66,1463.68 
  "/>
<polyline clip-path="url(#clip230)" style="stroke:#333333; stroke-linecap:butt; stroke-linejoin:round; stroke-width:4; stroke-opacity:1; fill:none" points="
  389.461,1444.78 389.461,1454.23 
  "/>
<polyline clip-path="url(#clip230)" style="stroke:#333333; stroke-linecap:butt; stroke-linejoin:round; stroke-width:4; stroke-opacity:1; fill:none" points="
  589.797,1444.78 589.797,1454.23 
  "/>
<polyline clip-path="url(#clip230)" style="stroke:#333333; stroke-linecap:butt; stroke-linejoin:round; stroke-width:4; stroke-opacity:1; fill:none" points="
  790.133,1444.78 790.133,1454.23 
  "/>
<polyline clip-path="url(#clip230)" style="stroke:#333333; stroke-linecap:butt; stroke-linejoin:round; stroke-width:4; stroke-opacity:1; fill:none" points="
  990.47,1444.78 990.47,1454.23 
  "/>
<polyline clip-path="url(#clip230)" style="stroke:#333333; stroke-linecap:butt; stroke-linejoin:round; stroke-width:4; stroke-opacity:1; fill:none" points="
  1190.81,1444.78 1190.81,1454.23 
  "/>
<polyline clip-path="url(#clip230)" style="stroke:#333333; stroke-linecap:butt; stroke-linejoin:round; stroke-width:4; stroke-opacity:1; fill:none" points="
  1391.14,1444.78 1391.14,1454.23 
  "/>
<polyline clip-path="url(#clip230)" style="stroke:#333333; stroke-linecap:butt; stroke-linejoin:round; stroke-width:4; stroke-opacity:1; fill:none" points="
  1591.48,1444.78 1591.48,1454.23 
  "/>
<polyline clip-path="url(#clip230)" style="stroke:#333333; stroke-linecap:butt; stroke-linejoin:round; stroke-width:4; stroke-opacity:1; fill:none" points="
  1791.81,1444.78 1791.81,1454.23 
  "/>
<polyline clip-path="url(#clip230)" style="stroke:#333333; stroke-linecap:butt; stroke-linejoin:round; stroke-width:4; stroke-opacity:1; fill:none" points="
  1992.15,1444.78 1992.15,1454.23 
  "/>
<polyline clip-path="url(#clip230)" style="stroke:#333333; stroke-linecap:butt; stroke-linejoin:round; stroke-width:4; stroke-opacity:1; fill:none" points="
  2192.49,1444.78 2192.49,1454.23 
  "/>
<path clip-path="url(#clip230)" d="M289.293 1482.37 Q286.585 1482.37 285.213 1485.04 Q283.859 1487.7 283.859 1493.05 Q283.859 1498.38 285.213 1501.05 Q286.585 1503.71 289.293 1503.71 Q292.019 1503.71 293.373 1501.05 Q294.744 1498.38 294.744 1493.05 Q294.744 1487.7 293.373 1485.04 Q292.019 1482.37 289.293 1482.37 M289.293 1479.59 Q293.651 1479.59 295.942 1483.05 Q298.251 1486.48 298.251 1493.05 Q298.251 1499.59 295.942 1503.05 Q293.651 1506.48 289.293 1506.48 Q284.935 1506.48 282.626 1503.05 Q280.335 1499.59 280.335 1493.05 Q280.335 1486.48 282.626 1483.05 Q284.935 1479.59 289.293 1479.59 Z" fill="#4c4c4c" fill-rule="evenodd" fill-opacity="1" /><path clip-path="url(#clip230)" d="M470.645 1503.03 L476.374 1503.03 L476.374 1483.25 L470.141 1484.5 L470.141 1481.31 L476.339 1480.06 L479.846 1480.06 L479.846 1503.03 L485.575 1503.03 L485.575 1505.98 L470.645 1505.98 L470.645 1503.03 Z" fill="#4c4c4c" fill-rule="evenodd" fill-opacity="1" /><path clip-path="url(#clip230)" d="M500.159 1482.37 Q497.45 1482.37 496.079 1485.04 Q494.725 1487.7 494.725 1493.05 Q494.725 1498.38 496.079 1501.05 Q497.45 1503.71 500.159 1503.71 Q502.884 1503.71 504.238 1501.05 Q505.61 1498.38 505.61 1493.05 Q505.61 1487.7 504.238 1485.04 Q502.884 1482.37 500.159 1482.37 M500.159 1479.59 Q504.516 1479.59 506.808 1483.05 Q509.117 1486.48 509.117 1493.05 Q509.117 1499.59 506.808 1503.05 Q504.516 1506.48 500.159 1506.48 Q495.801 1506.48 493.492 1503.05 Q491.2 1499.59 491.2 1493.05 Q491.2 1486.48 493.492 1483.05 Q495.801 1479.59 500.159 1479.59 Z" fill="#4c4c4c" fill-rule="evenodd" fill-opacity="1" /><path clip-path="url(#clip230)" d="M674.045 1503.03 L686.285 1503.03 L686.285 1505.98 L669.827 1505.98 L669.827 1503.03 Q671.823 1500.96 675.261 1497.49 Q678.715 1494 679.601 1492.99 Q681.285 1491.1 681.945 1489.8 Q682.622 1488.48 682.622 1487.21 Q682.622 1485.15 681.163 1483.84 Q679.722 1482.54 677.396 1482.54 Q675.747 1482.54 673.906 1483.12 Q672.083 1483.69 670 1484.85 L670 1481.31 Q672.118 1480.46 673.958 1480.03 Q675.799 1479.59 677.326 1479.59 Q681.354 1479.59 683.75 1481.6 Q686.146 1483.62 686.146 1486.99 Q686.146 1488.58 685.538 1490.03 Q684.948 1491.45 683.368 1493.39 Q682.934 1493.9 680.608 1496.31 Q678.281 1498.71 674.045 1503.03 Z" fill="#4c4c4c" fill-rule="evenodd" fill-opacity="1" /><path clip-path="url(#clip230)" d="M701.146 1482.37 Q698.437 1482.37 697.066 1485.04 Q695.712 1487.7 695.712 1493.05 Q695.712 1498.38 697.066 1501.05 Q698.437 1503.71 701.146 1503.71 Q703.871 1503.71 705.226 1501.05 Q706.597 1498.38 706.597 1493.05 Q706.597 1487.7 705.226 1485.04 Q703.871 1482.37 701.146 1482.37 M701.146 1479.59 Q705.503 1479.59 707.795 1483.05 Q710.104 1486.48 710.104 1493.05 Q710.104 1499.59 707.795 1503.05 Q705.503 1506.48 701.146 1506.48 Q696.788 1506.48 694.479 1503.05 Q692.188 1499.59 692.188 1493.05 Q692.188 1486.48 694.479 1483.05 Q696.788 1479.59 701.146 1479.59 Z" fill="#4c4c4c" fill-rule="evenodd" fill-opacity="1" /><path clip-path="url(#clip230)" d="M881.934 1492 Q884.451 1492.54 885.857 1494.24 Q887.281 1495.95 887.281 1498.45 Q887.281 1502.28 884.642 1504.38 Q882.003 1506.48 877.142 1506.48 Q875.51 1506.48 873.774 1506.15 Q872.055 1505.84 870.215 1505.2 L870.215 1501.81 Q871.673 1502.66 873.409 1503.1 Q875.145 1503.53 877.038 1503.53 Q880.336 1503.53 882.055 1502.23 Q883.791 1500.93 883.791 1498.45 Q883.791 1496.15 882.177 1494.87 Q880.579 1493.57 877.715 1493.57 L874.694 1493.57 L874.694 1490.68 L877.854 1490.68 Q880.44 1490.68 881.812 1489.66 Q883.184 1488.62 883.184 1486.67 Q883.184 1484.68 881.76 1483.62 Q880.354 1482.54 877.715 1482.54 Q876.274 1482.54 874.625 1482.85 Q872.975 1483.17 870.996 1483.83 L870.996 1480.7 Q872.993 1480.15 874.729 1479.87 Q876.482 1479.59 878.027 1479.59 Q882.02 1479.59 884.347 1481.41 Q886.673 1483.22 886.673 1486.31 Q886.673 1488.46 885.44 1489.96 Q884.208 1491.43 881.934 1492 Z" fill="#4c4c4c" fill-rule="evenodd" fill-opacity="1" /><path clip-path="url(#clip230)" d="M901.43 1482.37 Q898.722 1482.37 897.35 1485.04 Q895.996 1487.7 895.996 1493.05 Q895.996 1498.38 897.35 1501.05 Q898.722 1503.71 901.43 1503.71 Q904.156 1503.71 905.51 1501.05 Q906.881 1498.38 906.881 1493.05 Q906.881 1487.7 905.51 1485.04 Q904.156 1482.37 901.43 1482.37 M901.43 1479.59 Q905.788 1479.59 908.079 1483.05 Q910.388 1486.48 910.388 1493.05 Q910.388 1499.59 908.079 1503.05 Q905.788 1506.48 901.43 1506.48 Q897.072 1506.48 894.763 1503.05 Q892.472 1499.59 892.472 1493.05 Q892.472 1486.48 894.763 1483.05 Q897.072 1479.59 901.43 1479.59 Z" fill="#4c4c4c" fill-rule="evenodd" fill-opacity="1" /><path clip-path="url(#clip230)" d="M1081.77 1483.12 L1072.91 1496.95 L1081.77 1496.95 L1081.77 1483.12 M1080.85 1480.06 L1085.26 1480.06 L1085.26 1496.95 L1088.95 1496.95 L1088.95 1499.87 L1085.26 1499.87 L1085.26 1505.98 L1081.77 1505.98 L1081.77 1499.87 L1070.06 1499.87 L1070.06 1496.48 L1080.85 1480.06 Z" fill="#4c4c4c" fill-rule="evenodd" fill-opacity="1" /><path clip-path="url(#clip230)" d="M1102.25 1482.37 Q1099.54 1482.37 1098.17 1485.04 Q1096.82 1487.7 1096.82 1493.05 Q1096.82 1498.38 1098.17 1501.05 Q1099.54 1503.71 1102.25 1503.71 Q1104.98 1503.71 1106.33 1501.05 Q1107.7 1498.38 1107.7 1493.05 Q1107.7 1487.7 1106.33 1485.04 Q1104.98 1482.37 1102.25 1482.37 M1102.25 1479.59 Q1106.61 1479.59 1108.9 1483.05 Q1111.21 1486.48 1111.21 1493.05 Q1111.21 1499.59 1108.9 1503.05 Q1106.61 1506.48 1102.25 1506.48 Q1097.89 1506.48 1095.59 1503.05 Q1093.29 1499.59 1093.29 1493.05 Q1093.29 1486.48 1095.59 1483.05 Q1097.89 1479.59 1102.25 1479.59 Z" fill="#4c4c4c" fill-rule="evenodd" fill-opacity="1" /><path clip-path="url(#clip230)" d="M1272 1480.06 L1285.77 1480.06 L1285.77 1483.01 L1275.21 1483.01 L1275.21 1489.37 Q1275.97 1489.1 1276.74 1488.98 Q1277.5 1488.84 1278.27 1488.84 Q1282.61 1488.84 1285.14 1491.22 Q1287.68 1493.6 1287.68 1497.66 Q1287.68 1501.85 1285.07 1504.17 Q1282.47 1506.48 1277.73 1506.48 Q1276.1 1506.48 1274.39 1506.21 Q1272.71 1505.93 1270.9 1505.37 L1270.9 1501.85 Q1272.47 1502.7 1274.13 1503.12 Q1275.8 1503.53 1277.66 1503.53 Q1280.66 1503.53 1282.41 1501.95 Q1284.17 1500.37 1284.17 1497.66 Q1284.17 1494.96 1282.41 1493.38 Q1280.66 1491.8 1277.66 1491.8 Q1276.25 1491.8 1274.85 1492.11 Q1273.46 1492.42 1272 1493.08 L1272 1480.06 Z" fill="#4c4c4c" fill-rule="evenodd" fill-opacity="1" /><path clip-path="url(#clip230)" d="M1302.09 1482.37 Q1299.38 1482.37 1298.01 1485.04 Q1296.65 1487.7 1296.65 1493.05 Q1296.65 1498.38 1298.01 1501.05 Q1299.38 1503.71 1302.09 1503.71 Q1304.81 1503.71 1306.16 1501.05 Q1307.54 1498.38 1307.54 1493.05 Q1307.54 1487.7 1306.16 1485.04 Q1304.81 1482.37 1302.09 1482.37 M1302.09 1479.59 Q1306.44 1479.59 1308.73 1483.05 Q1311.04 1486.48 1311.04 1493.05 Q1311.04 1499.59 1308.73 1503.05 Q1306.44 1506.48 1302.09 1506.48 Q1297.73 1506.48 1295.42 1503.05 Q1293.13 1499.59 1293.13 1493.05 Q1293.13 1486.48 1295.42 1483.05 Q1297.73 1479.59 1302.09 1479.59 Z" fill="#4c4c4c" fill-rule="evenodd" fill-opacity="1" /><path clip-path="url(#clip230)" d="M1480.36 1491.62 Q1478 1491.62 1476.61 1493.24 Q1475.24 1494.85 1475.24 1497.66 Q1475.24 1500.46 1476.61 1502.09 Q1478 1503.71 1480.36 1503.71 Q1482.73 1503.71 1484.1 1502.09 Q1485.49 1500.46 1485.49 1497.66 Q1485.49 1494.85 1484.1 1493.24 Q1482.73 1491.62 1480.36 1491.62 M1487.33 1480.63 L1487.33 1483.83 Q1486.01 1483.2 1484.65 1482.87 Q1483.32 1482.54 1482 1482.54 Q1478.52 1482.54 1476.68 1484.89 Q1474.86 1487.23 1474.6 1491.97 Q1475.62 1490.46 1477.17 1489.66 Q1478.71 1488.84 1480.57 1488.84 Q1484.48 1488.84 1486.74 1491.22 Q1489.01 1493.58 1489.01 1497.66 Q1489.01 1501.66 1486.65 1504.07 Q1484.29 1506.48 1480.36 1506.48 Q1475.87 1506.48 1473.49 1503.05 Q1471.11 1499.59 1471.11 1493.05 Q1471.11 1486.9 1474.03 1483.25 Q1476.94 1479.59 1481.86 1479.59 Q1483.18 1479.59 1484.51 1479.85 Q1485.87 1480.11 1487.33 1480.63 Z" fill="#4c4c4c" fill-rule="evenodd" fill-opacity="1" /><path clip-path="url(#clip230)" d="M1502.55 1482.37 Q1499.84 1482.37 1498.47 1485.04 Q1497.12 1487.7 1497.12 1493.05 Q1497.12 1498.38 1498.47 1501.05 Q1499.84 1503.71 1502.55 1503.71 Q1505.28 1503.71 1506.63 1501.05 Q1508 1498.38 1508 1493.05 Q1508 1487.7 1506.63 1485.04 Q1505.28 1482.37 1502.55 1482.37 M1502.55 1479.59 Q1506.91 1479.59 1509.2 1483.05 Q1511.51 1486.48 1511.51 1493.05 Q1511.51 1499.59 1509.2 1503.05 Q1506.91 1506.48 1502.55 1506.48 Q1498.19 1506.48 1495.88 1503.05 Q1493.59 1499.59 1493.59 1493.05 Q1493.59 1486.48 1495.88 1483.05 Q1498.19 1479.59 1502.55 1479.59 Z" fill="#4c4c4c" fill-rule="evenodd" fill-opacity="1" /><path clip-path="url(#clip230)" d="M1671.66 1480.06 L1688.33 1480.06 L1688.33 1481.55 L1678.92 1505.98 L1675.26 1505.98 L1684.11 1483.01 L1671.66 1483.01 L1671.66 1480.06 Z" fill="#4c4c4c" fill-rule="evenodd" fill-opacity="1" /><path clip-path="url(#clip230)" d="M1702.67 1482.37 Q1699.96 1482.37 1698.59 1485.04 Q1697.24 1487.7 1697.24 1493.05 Q1697.24 1498.38 1698.59 1501.05 Q1699.96 1503.71 1702.67 1503.71 Q1705.4 1503.71 1706.75 1501.05 Q1708.12 1498.38 1708.12 1493.05 Q1708.12 1487.7 1706.75 1485.04 Q1705.4 1482.37 1702.67 1482.37 M1702.67 1479.59 Q1707.03 1479.59 1709.32 1483.05 Q1711.63 1486.48 1711.63 1493.05 Q1711.63 1499.59 1709.32 1503.05 Q1707.03 1506.48 1702.67 1506.48 Q1698.31 1506.48 1696 1503.05 Q1693.71 1499.59 1693.71 1493.05 Q1693.71 1486.48 1696 1483.05 Q1698.31 1479.59 1702.67 1479.59 Z" fill="#4c4c4c" fill-rule="evenodd" fill-opacity="1" /><path clip-path="url(#clip230)" d="M1880.64 1493.67 Q1878.14 1493.67 1876.7 1495.01 Q1875.27 1496.34 1875.27 1498.69 Q1875.27 1501.03 1876.7 1502.37 Q1878.14 1503.71 1880.64 1503.71 Q1883.14 1503.71 1884.58 1502.37 Q1886.02 1501.01 1886.02 1498.69 Q1886.02 1496.34 1884.58 1495.01 Q1883.15 1493.67 1880.64 1493.67 M1877.13 1492.18 Q1874.87 1491.62 1873.61 1490.08 Q1872.36 1488.53 1872.36 1486.31 Q1872.36 1483.2 1874.56 1481.4 Q1876.78 1479.59 1880.64 1479.59 Q1884.51 1479.59 1886.71 1481.4 Q1888.92 1483.2 1888.92 1486.31 Q1888.92 1488.53 1887.65 1490.08 Q1886.4 1491.62 1884.16 1492.18 Q1886.7 1492.77 1888.1 1494.49 Q1889.53 1496.21 1889.53 1498.69 Q1889.53 1502.46 1887.22 1504.47 Q1884.93 1506.48 1880.64 1506.48 Q1876.35 1506.48 1874.04 1504.47 Q1871.75 1502.46 1871.75 1498.69 Q1871.75 1496.21 1873.17 1494.49 Q1874.6 1492.77 1877.13 1492.18 M1875.85 1486.64 Q1875.85 1488.65 1877.1 1489.78 Q1878.36 1490.91 1880.64 1490.91 Q1882.89 1490.91 1884.16 1489.78 Q1885.45 1488.65 1885.45 1486.64 Q1885.45 1484.63 1884.16 1483.5 Q1882.89 1482.37 1880.64 1482.37 Q1878.36 1482.37 1877.1 1483.5 Q1875.85 1484.63 1875.85 1486.64 Z" fill="#4c4c4c" fill-rule="evenodd" fill-opacity="1" /><path clip-path="url(#clip230)" d="M1903.26 1482.37 Q1900.55 1482.37 1899.18 1485.04 Q1897.82 1487.7 1897.82 1493.05 Q1897.82 1498.38 1899.18 1501.05 Q1900.55 1503.71 1903.26 1503.71 Q1905.98 1503.71 1907.34 1501.05 Q1908.71 1498.38 1908.71 1493.05 Q1908.71 1487.7 1907.34 1485.04 Q1905.98 1482.37 1903.26 1482.37 M1903.26 1479.59 Q1907.62 1479.59 1909.91 1483.05 Q1912.22 1486.48 1912.22 1493.05 Q1912.22 1499.59 1909.91 1503.05 Q1907.62 1506.48 1903.26 1506.48 Q1898.9 1506.48 1896.59 1503.05 Q1894.3 1499.59 1894.3 1493.05 Q1894.3 1486.48 1896.59 1483.05 Q1898.9 1479.59 1903.26 1479.59 Z" fill="#4c4c4c" fill-rule="evenodd" fill-opacity="1" /><path clip-path="url(#clip230)" d="M2073.66 1505.44 L2073.66 1502.25 Q2074.98 1502.87 2076.34 1503.2 Q2077.69 1503.53 2078.99 1503.53 Q2082.47 1503.53 2084.29 1501.21 Q2086.13 1498.86 2086.39 1494.1 Q2085.38 1495.6 2083.84 1496.4 Q2082.29 1497.2 2080.42 1497.2 Q2076.53 1497.2 2074.25 1494.85 Q2072 1492.49 2072 1488.41 Q2072 1484.42 2074.36 1482 Q2076.72 1479.59 2080.64 1479.59 Q2085.14 1479.59 2087.5 1483.05 Q2089.88 1486.48 2089.88 1493.05 Q2089.88 1499.17 2086.96 1502.84 Q2084.06 1506.48 2079.15 1506.48 Q2077.83 1506.48 2076.48 1506.22 Q2075.12 1505.96 2073.66 1505.44 M2080.64 1494.45 Q2083 1494.45 2084.38 1492.84 Q2085.77 1491.22 2085.77 1488.41 Q2085.77 1485.62 2084.38 1484 Q2083 1482.37 2080.64 1482.37 Q2078.28 1482.37 2076.89 1484 Q2075.52 1485.62 2075.52 1488.41 Q2075.52 1491.22 2076.89 1492.84 Q2078.28 1494.45 2080.64 1494.45 Z" fill="#4c4c4c" fill-rule="evenodd" fill-opacity="1" /><path clip-path="url(#clip230)" d="M2103.68 1482.37 Q2100.97 1482.37 2099.6 1485.04 Q2098.25 1487.7 2098.25 1493.05 Q2098.25 1498.38 2099.6 1501.05 Q2100.97 1503.71 2103.68 1503.71 Q2106.41 1503.71 2107.76 1501.05 Q2109.13 1498.38 2109.13 1493.05 Q2109.13 1487.7 2107.76 1485.04 Q2106.41 1482.37 2103.68 1482.37 M2103.68 1479.59 Q2108.04 1479.59 2110.33 1483.05 Q2112.64 1486.48 2112.64 1493.05 Q2112.64 1499.59 2110.33 1503.05 Q2108.04 1506.48 2103.68 1506.48 Q2099.32 1506.48 2097.01 1503.05 Q2094.72 1499.59 2094.72 1493.05 Q2094.72 1486.48 2097.01 1483.05 Q2099.32 1479.59 2103.68 1479.59 Z" fill="#4c4c4c" fill-rule="evenodd" fill-opacity="1" /><path clip-path="url(#clip230)" d="M2262.36 1503.03 L2268.09 1503.03 L2268.09 1483.25 L2261.86 1484.5 L2261.86 1481.31 L2268.05 1480.06 L2271.56 1480.06 L2271.56 1503.03 L2277.29 1503.03 L2277.29 1505.98 L2262.36 1505.98 L2262.36 1503.03 Z" fill="#4c4c4c" fill-rule="evenodd" fill-opacity="1" /><path clip-path="url(#clip230)" d="M2291.87 1482.37 Q2289.17 1482.37 2287.79 1485.04 Q2286.44 1487.7 2286.44 1493.05 Q2286.44 1498.38 2287.79 1501.05 Q2289.17 1503.71 2291.87 1503.71 Q2294.6 1503.71 2295.95 1501.05 Q2297.33 1498.38 2297.33 1493.05 Q2297.33 1487.7 2295.95 1485.04 Q2294.6 1482.37 2291.87 1482.37 M2291.87 1479.59 Q2296.23 1479.59 2298.52 1483.05 Q2300.83 1486.48 2300.83 1493.05 Q2300.83 1499.59 2298.52 1503.05 Q2296.23 1506.48 2291.87 1506.48 Q2287.52 1506.48 2285.21 1503.05 Q2282.92 1499.59 2282.92 1493.05 Q2282.92 1486.48 2285.21 1483.05 Q2287.52 1479.59 2291.87 1479.59 Z" fill="#4c4c4c" fill-rule="evenodd" fill-opacity="1" /><path clip-path="url(#clip230)" d="M2314.5 1482.37 Q2311.79 1482.37 2310.42 1485.04 Q2309.06 1487.7 2309.06 1493.05 Q2309.06 1498.38 2310.42 1501.05 Q2311.79 1503.71 2314.5 1503.71 Q2317.22 1503.71 2318.58 1501.05 Q2319.95 1498.38 2319.95 1493.05 Q2319.95 1487.7 2318.58 1485.04 Q2317.22 1482.37 2314.5 1482.37 M2314.5 1479.59 Q2318.85 1479.59 2321.14 1483.05 Q2323.45 1486.48 2323.45 1493.05 Q2323.45 1499.59 2321.14 1503.05 Q2318.85 1506.48 2314.5 1506.48 Q2310.14 1506.48 2307.83 1503.05 Q2305.54 1499.59 2305.54 1493.05 Q2305.54 1486.48 2307.83 1483.05 Q2310.14 1479.59 2314.5 1479.59 Z" fill="#4c4c4c" fill-rule="evenodd" fill-opacity="1" /><path clip-path="url(#clip230)" d="M1181.56 1526.57 L1186.24 1526.57 L1186.24 1561.13 L1181.56 1561.13 L1181.56 1526.57 Z" fill="#000000" fill-rule="evenodd" fill-opacity="1" /><path clip-path="url(#clip230)" d="M1199.57 1527.84 L1199.57 1535.21 L1208.35 1535.21 L1208.35 1538.52 L1199.57 1538.52 L1199.57 1552.59 Q1199.57 1555.76 1200.43 1556.66 Q1201.31 1557.57 1203.97 1557.57 L1208.35 1557.57 L1208.35 1561.13 L1203.97 1561.13 Q1199.04 1561.13 1197.17 1559.3 Q1195.29 1557.45 1195.29 1552.59 L1195.29 1538.52 L1192.17 1538.52 L1192.17 1535.21 L1195.29 1535.21 L1195.29 1527.84 L1199.57 1527.84 Z" fill="#000000" fill-rule="evenodd" fill-opacity="1" /><path clip-path="url(#clip230)" d="M1236.12 1547.1 L1236.12 1549.19 L1216.54 1549.19 Q1216.82 1553.59 1219.18 1555.9 Q1221.56 1558.19 1225.8 1558.19 Q1228.25 1558.19 1230.55 1557.59 Q1232.86 1556.99 1235.13 1555.78 L1235.13 1559.81 Q1232.84 1560.78 1230.43 1561.29 Q1228.02 1561.8 1225.55 1561.8 Q1219.34 1561.8 1215.71 1558.19 Q1212.1 1554.58 1212.1 1548.42 Q1212.1 1542.06 1215.52 1538.33 Q1218.97 1534.58 1224.81 1534.58 Q1230.04 1534.58 1233.07 1537.96 Q1236.12 1541.32 1236.12 1547.1 M1231.87 1545.85 Q1231.82 1542.36 1229.9 1540.28 Q1228 1538.19 1224.85 1538.19 Q1221.29 1538.19 1219.13 1540.21 Q1217 1542.22 1216.68 1545.88 L1231.87 1545.85 Z" fill="#000000" fill-rule="evenodd" fill-opacity="1" /><path clip-path="url(#clip230)" d="M1258.14 1539.19 Q1257.42 1538.77 1256.56 1538.59 Q1255.73 1538.38 1254.71 1538.38 Q1251.1 1538.38 1249.16 1540.74 Q1247.24 1543.08 1247.24 1547.47 L1247.24 1561.13 L1242.95 1561.13 L1242.95 1535.21 L1247.24 1535.21 L1247.24 1539.23 Q1248.58 1536.87 1250.73 1535.74 Q1252.88 1534.58 1255.96 1534.58 Q1256.4 1534.58 1256.93 1534.65 Q1257.47 1534.7 1258.12 1534.81 L1258.14 1539.19 Z" fill="#000000" fill-rule="evenodd" fill-opacity="1" /><path clip-path="url(#clip230)" d="M1274.39 1548.1 Q1269.23 1548.1 1267.24 1549.28 Q1265.24 1550.46 1265.24 1553.31 Q1265.24 1555.58 1266.73 1556.92 Q1268.23 1558.24 1270.8 1558.24 Q1274.34 1558.24 1276.47 1555.74 Q1278.62 1553.22 1278.62 1549.05 L1278.62 1548.1 L1274.39 1548.1 M1282.88 1546.34 L1282.88 1561.13 L1278.62 1561.13 L1278.62 1557.2 Q1277.17 1559.56 1274.99 1560.69 Q1272.81 1561.8 1269.67 1561.8 Q1265.68 1561.8 1263.32 1559.58 Q1260.99 1557.34 1260.99 1553.59 Q1260.99 1549.21 1263.9 1546.99 Q1266.84 1544.77 1272.65 1544.77 L1278.62 1544.77 L1278.62 1544.35 Q1278.62 1541.41 1276.68 1539.81 Q1274.76 1538.19 1271.26 1538.19 Q1269.04 1538.19 1266.93 1538.72 Q1264.83 1539.26 1262.88 1540.32 L1262.88 1536.39 Q1265.22 1535.48 1267.42 1535.04 Q1269.62 1534.58 1271.7 1534.58 Q1277.33 1534.58 1280.11 1537.5 Q1282.88 1540.41 1282.88 1546.34 Z" fill="#000000" fill-rule="evenodd" fill-opacity="1" /><path clip-path="url(#clip230)" d="M1295.87 1527.84 L1295.87 1535.21 L1304.64 1535.21 L1304.64 1538.52 L1295.87 1538.52 L1295.87 1552.59 Q1295.87 1555.76 1296.73 1556.66 Q1297.61 1557.57 1300.27 1557.57 L1304.64 1557.57 L1304.64 1561.13 L1300.27 1561.13 Q1295.34 1561.13 1293.46 1559.3 Q1291.59 1557.45 1291.59 1552.59 L1291.59 1538.52 L1288.46 1538.52 L1288.46 1535.21 L1291.59 1535.21 L1291.59 1527.84 L1295.87 1527.84 Z" fill="#000000" fill-rule="evenodd" fill-opacity="1" /><path clip-path="url(#clip230)" d="M1310.24 1535.21 L1314.5 1535.21 L1314.5 1561.13 L1310.24 1561.13 L1310.24 1535.21 M1310.24 1525.11 L1314.5 1525.11 L1314.5 1530.51 L1310.24 1530.51 L1310.24 1525.11 Z" fill="#000000" fill-rule="evenodd" fill-opacity="1" /><path clip-path="url(#clip230)" d="M1333.46 1538.19 Q1330.04 1538.19 1328.05 1540.88 Q1326.05 1543.54 1326.05 1548.19 Q1326.05 1552.84 1328.02 1555.53 Q1330.01 1558.19 1333.46 1558.19 Q1336.86 1558.19 1338.86 1555.51 Q1340.85 1552.82 1340.85 1548.19 Q1340.85 1543.59 1338.86 1540.9 Q1336.86 1538.19 1333.46 1538.19 M1333.46 1534.58 Q1339.02 1534.58 1342.19 1538.19 Q1345.36 1541.8 1345.36 1548.19 Q1345.36 1554.56 1342.19 1558.19 Q1339.02 1561.8 1333.46 1561.8 Q1327.88 1561.8 1324.71 1558.19 Q1321.56 1554.56 1321.56 1548.19 Q1321.56 1541.8 1324.71 1538.19 Q1327.88 1534.58 1333.46 1534.58 Z" fill="#000000" fill-rule="evenodd" fill-opacity="1" /><path clip-path="url(#clip230)" d="M1373.97 1545.48 L1373.97 1561.13 L1369.71 1561.13 L1369.71 1545.62 Q1369.71 1541.94 1368.28 1540.11 Q1366.84 1538.28 1363.97 1538.28 Q1360.52 1538.28 1358.53 1540.48 Q1356.54 1542.68 1356.54 1546.48 L1356.54 1561.13 L1352.26 1561.13 L1352.26 1535.21 L1356.54 1535.21 L1356.54 1539.23 Q1358.07 1536.9 1360.13 1535.74 Q1362.21 1534.58 1364.92 1534.58 Q1369.39 1534.58 1371.68 1537.36 Q1373.97 1540.11 1373.97 1545.48 Z" fill="#000000" fill-rule="evenodd" fill-opacity="1" /><path clip-path="url(#clip230)" d="M1398.99 1535.97 L1398.99 1540 Q1397.19 1539.07 1395.24 1538.61 Q1393.3 1538.15 1391.22 1538.15 Q1388.05 1538.15 1386.45 1539.12 Q1384.87 1540.09 1384.87 1542.03 Q1384.87 1543.52 1386.01 1544.37 Q1387.14 1545.21 1390.57 1545.97 L1392.03 1546.29 Q1396.56 1547.27 1398.46 1549.05 Q1400.38 1550.81 1400.38 1553.98 Q1400.38 1557.59 1397.51 1559.7 Q1394.67 1561.8 1389.67 1561.8 Q1387.58 1561.8 1385.31 1561.39 Q1383.07 1560.99 1380.57 1560.18 L1380.57 1555.78 Q1382.93 1557.01 1385.22 1557.64 Q1387.51 1558.24 1389.76 1558.24 Q1392.77 1558.24 1394.39 1557.22 Q1396.01 1556.18 1396.01 1554.3 Q1396.01 1552.57 1394.83 1551.64 Q1393.67 1550.72 1389.71 1549.86 L1388.23 1549.51 Q1384.27 1548.68 1382.51 1546.97 Q1380.75 1545.23 1380.75 1542.22 Q1380.75 1538.56 1383.35 1536.57 Q1385.94 1534.58 1390.71 1534.58 Q1393.07 1534.58 1395.15 1534.93 Q1397.23 1535.28 1398.99 1535.97 Z" fill="#000000" fill-rule="evenodd" fill-opacity="1" /><polyline clip-path="url(#clip232)" style="stroke:#ffffff; stroke-linecap:butt; stroke-linejoin:round; stroke-width:4; stroke-opacity:1; fill:none" points="
  229.192,1279.55 2352.76,1279.55 
  "/>
<polyline clip-path="url(#clip232)" style="stroke:#ffffff; stroke-linecap:butt; stroke-linejoin:round; stroke-width:4; stroke-opacity:1; fill:none" points="
  229.192,1078.01 2352.76,1078.01 
  "/>
<polyline clip-path="url(#clip232)" style="stroke:#ffffff; stroke-linecap:butt; stroke-linejoin:round; stroke-width:4; stroke-opacity:1; fill:none" points="
  229.192,876.476 2352.76,876.476 
  "/>
<polyline clip-path="url(#clip232)" style="stroke:#ffffff; stroke-linecap:butt; stroke-linejoin:round; stroke-width:4; stroke-opacity:1; fill:none" points="
  229.192,674.94 2352.76,674.94 
  "/>
<polyline clip-path="url(#clip232)" style="stroke:#ffffff; stroke-linecap:butt; stroke-linejoin:round; stroke-width:4; stroke-opacity:1; fill:none" points="
  229.192,473.403 2352.76,473.403 
  "/>
<polyline clip-path="url(#clip232)" style="stroke:#ffffff; stroke-linecap:butt; stroke-linejoin:round; stroke-width:4; stroke-opacity:1; fill:none" points="
  229.192,271.867 2352.76,271.867 
  "/>
<polyline clip-path="url(#clip232)" style="stroke:#ffffff; stroke-linecap:butt; stroke-linejoin:round; stroke-width:2; stroke-opacity:1; fill:none" points="
  229.192,1380.32 2352.76,1380.32 
  "/>
<polyline clip-path="url(#clip232)" style="stroke:#ffffff; stroke-linecap:butt; stroke-linejoin:round; stroke-width:2; stroke-opacity:1; fill:none" points="
  229.192,1178.78 2352.76,1178.78 
  "/>
<polyline clip-path="url(#clip232)" style="stroke:#ffffff; stroke-linecap:butt; stroke-linejoin:round; stroke-width:2; stroke-opacity:1; fill:none" points="
  229.192,977.244 2352.76,977.244 
  "/>
<polyline clip-path="url(#clip232)" style="stroke:#ffffff; stroke-linecap:butt; stroke-linejoin:round; stroke-width:2; stroke-opacity:1; fill:none" points="
  229.192,775.708 2352.76,775.708 
  "/>
<polyline clip-path="url(#clip232)" style="stroke:#ffffff; stroke-linecap:butt; stroke-linejoin:round; stroke-width:2; stroke-opacity:1; fill:none" points="
  229.192,574.171 2352.76,574.171 
  "/>
<polyline clip-path="url(#clip232)" style="stroke:#ffffff; stroke-linecap:butt; stroke-linejoin:round; stroke-width:2; stroke-opacity:1; fill:none" points="
  229.192,372.635 2352.76,372.635 
  "/>
<polyline clip-path="url(#clip232)" style="stroke:#ffffff; stroke-linecap:butt; stroke-linejoin:round; stroke-width:2; stroke-opacity:1; fill:none" points="
  229.192,171.099 2352.76,171.099 
  "/>
<polyline clip-path="url(#clip230)" style="stroke:#ffffff; stroke-linecap:butt; stroke-linejoin:round; stroke-width:4; stroke-opacity:1; fill:none" points="
  229.192,1444.78 229.192,106.192 
  "/>
<polyline clip-path="url(#clip230)" style="stroke:#333333; stroke-linecap:butt; stroke-linejoin:round; stroke-width:4; stroke-opacity:1; fill:none" points="
  229.192,1279.55 210.294,1279.55 
  "/>
<polyline clip-path="url(#clip230)" style="stroke:#333333; stroke-linecap:butt; stroke-linejoin:round; stroke-width:4; stroke-opacity:1; fill:none" points="
  229.192,1078.01 210.294,1078.01 
  "/>
<polyline clip-path="url(#clip230)" style="stroke:#333333; stroke-linecap:butt; stroke-linejoin:round; stroke-width:4; stroke-opacity:1; fill:none" points="
  229.192,876.476 210.294,876.476 
  "/>
<polyline clip-path="url(#clip230)" style="stroke:#333333; stroke-linecap:butt; stroke-linejoin:round; stroke-width:4; stroke-opacity:1; fill:none" points="
  229.192,674.94 210.294,674.94 
  "/>
<polyline clip-path="url(#clip230)" style="stroke:#333333; stroke-linecap:butt; stroke-linejoin:round; stroke-width:4; stroke-opacity:1; fill:none" points="
  229.192,473.403 210.294,473.403 
  "/>
<polyline clip-path="url(#clip230)" style="stroke:#333333; stroke-linecap:butt; stroke-linejoin:round; stroke-width:4; stroke-opacity:1; fill:none" points="
  229.192,271.867 210.294,271.867 
  "/>
<polyline clip-path="url(#clip230)" style="stroke:#333333; stroke-linecap:butt; stroke-linejoin:round; stroke-width:4; stroke-opacity:1; fill:none" points="
  229.192,1380.32 219.743,1380.32 
  "/>
<polyline clip-path="url(#clip230)" style="stroke:#333333; stroke-linecap:butt; stroke-linejoin:round; stroke-width:4; stroke-opacity:1; fill:none" points="
  229.192,1178.78 219.743,1178.78 
  "/>
<polyline clip-path="url(#clip230)" style="stroke:#333333; stroke-linecap:butt; stroke-linejoin:round; stroke-width:4; stroke-opacity:1; fill:none" points="
  229.192,977.244 219.743,977.244 
  "/>
<polyline clip-path="url(#clip230)" style="stroke:#333333; stroke-linecap:butt; stroke-linejoin:round; stroke-width:4; stroke-opacity:1; fill:none" points="
  229.192,775.708 219.743,775.708 
  "/>
<polyline clip-path="url(#clip230)" style="stroke:#333333; stroke-linecap:butt; stroke-linejoin:round; stroke-width:4; stroke-opacity:1; fill:none" points="
  229.192,574.171 219.743,574.171 
  "/>
<polyline clip-path="url(#clip230)" style="stroke:#333333; stroke-linecap:butt; stroke-linejoin:round; stroke-width:4; stroke-opacity:1; fill:none" points="
  229.192,372.635 219.743,372.635 
  "/>
<polyline clip-path="url(#clip230)" style="stroke:#333333; stroke-linecap:butt; stroke-linejoin:round; stroke-width:4; stroke-opacity:1; fill:none" points="
  229.192,171.099 219.743,171.099 
  "/>
<path clip-path="url(#clip230)" d="M83.3002 1279.89 L105.557 1279.89 L105.557 1282.84 L83.3002 1282.84 L83.3002 1279.89 Z" fill="#4c4c4c" fill-rule="evenodd" fill-opacity="1" /><path clip-path="url(#clip230)" d="M113.734 1289.56 L119.463 1289.56 L119.463 1269.78 L113.231 1271.03 L113.231 1267.84 L119.428 1266.59 L122.935 1266.59 L122.935 1289.56 L128.664 1289.56 L128.664 1292.51 L113.734 1292.51 L113.734 1289.56 Z" fill="#4c4c4c" fill-rule="evenodd" fill-opacity="1" /><path clip-path="url(#clip230)" d="M143.682 1278.15 Q141.321 1278.15 139.932 1279.77 Q138.56 1281.38 138.56 1284.19 Q138.56 1286.99 139.932 1288.62 Q141.321 1290.23 143.682 1290.23 Q146.043 1290.23 147.414 1288.62 Q148.803 1286.99 148.803 1284.19 Q148.803 1281.38 147.414 1279.77 Q146.043 1278.15 143.682 1278.15 M150.644 1267.16 L150.644 1270.36 Q149.324 1269.73 147.97 1269.4 Q146.633 1269.07 145.314 1269.07 Q141.842 1269.07 140.001 1271.42 Q138.178 1273.76 137.918 1278.5 Q138.942 1276.99 140.487 1276.19 Q142.032 1275.37 143.89 1275.37 Q147.796 1275.37 150.053 1277.75 Q152.328 1280.11 152.328 1284.19 Q152.328 1288.19 149.966 1290.6 Q147.605 1293.01 143.682 1293.01 Q139.185 1293.01 136.807 1289.57 Q134.428 1286.12 134.428 1279.57 Q134.428 1273.43 137.345 1269.78 Q140.262 1266.12 145.175 1266.12 Q146.494 1266.12 147.831 1266.38 Q149.185 1266.64 150.644 1267.16 Z" fill="#4c4c4c" fill-rule="evenodd" fill-opacity="1" /><path clip-path="url(#clip230)" d="M168.005 1269.64 L159.15 1283.48 L168.005 1283.48 L168.005 1269.64 M167.084 1266.59 L171.494 1266.59 L171.494 1283.48 L175.192 1283.48 L175.192 1286.4 L171.494 1286.4 L171.494 1292.51 L168.005 1292.51 L168.005 1286.4 L156.303 1286.4 L156.303 1283.01 L167.084 1266.59 Z" fill="#4c4c4c" fill-rule="evenodd" fill-opacity="1" /><path clip-path="url(#clip230)" d="M84.8626 1078.35 L107.119 1078.35 L107.119 1081.3 L84.8626 1081.3 L84.8626 1078.35 Z" fill="#4c4c4c" fill-rule="evenodd" fill-opacity="1" /><path clip-path="url(#clip230)" d="M115.297 1088.02 L121.026 1088.02 L121.026 1068.25 L114.793 1069.5 L114.793 1066.3 L120.991 1065.05 L124.498 1065.05 L124.498 1088.02 L130.227 1088.02 L130.227 1090.97 L115.297 1090.97 L115.297 1088.02 Z" fill="#4c4c4c" fill-rule="evenodd" fill-opacity="1" /><path clip-path="url(#clip230)" d="M145.244 1076.61 Q142.883 1076.61 141.494 1078.23 Q140.123 1079.84 140.123 1082.66 Q140.123 1085.45 141.494 1087.08 Q142.883 1088.7 145.244 1088.7 Q147.605 1088.7 148.977 1087.08 Q150.366 1085.45 150.366 1082.66 Q150.366 1079.84 148.977 1078.23 Q147.605 1076.61 145.244 1076.61 M152.206 1065.63 L152.206 1068.82 Q150.887 1068.19 149.532 1067.86 Q148.196 1067.54 146.876 1067.54 Q143.404 1067.54 141.564 1069.88 Q139.741 1072.22 139.48 1076.96 Q140.505 1075.45 142.05 1074.65 Q143.595 1073.84 145.453 1073.84 Q149.359 1073.84 151.616 1076.22 Q153.89 1078.58 153.89 1082.66 Q153.89 1086.65 151.529 1089.06 Q149.168 1091.48 145.244 1091.48 Q140.748 1091.48 138.369 1088.04 Q135.991 1084.58 135.991 1078.04 Q135.991 1071.89 138.907 1068.25 Q141.824 1064.58 146.737 1064.58 Q148.057 1064.58 149.394 1064.84 Q150.748 1065.1 152.206 1065.63 Z" fill="#4c4c4c" fill-rule="evenodd" fill-opacity="1" /><path clip-path="url(#clip230)" d="M162.953 1088.02 L175.192 1088.02 L175.192 1090.97 L158.734 1090.97 L158.734 1088.02 Q160.73 1085.96 164.168 1082.48 Q167.623 1078.99 168.508 1077.99 Q170.192 1076.09 170.852 1074.79 Q171.529 1073.47 171.529 1072.21 Q171.529 1070.14 170.071 1068.84 Q168.63 1067.54 166.303 1067.54 Q164.654 1067.54 162.814 1068.11 Q160.991 1068.68 158.907 1069.84 L158.907 1066.3 Q161.025 1065.45 162.866 1065.02 Q164.706 1064.58 166.234 1064.58 Q170.261 1064.58 172.657 1066.6 Q175.053 1068.61 175.053 1071.98 Q175.053 1073.58 174.446 1075.02 Q173.855 1076.44 172.275 1078.39 Q171.841 1078.89 169.515 1081.3 Q167.189 1083.7 162.953 1088.02 Z" fill="#4c4c4c" fill-rule="evenodd" fill-opacity="1" /><path clip-path="url(#clip230)" d="M83.6647 876.815 L105.922 876.815 L105.922 879.766 L83.6647 879.766 L83.6647 876.815 Z" fill="#4c4c4c" fill-rule="evenodd" fill-opacity="1" /><path clip-path="url(#clip230)" d="M114.099 886.485 L119.828 886.485 L119.828 866.71 L113.595 867.96 L113.595 864.766 L119.793 863.516 L123.3 863.516 L123.3 886.485 L129.029 886.485 L129.029 889.436 L114.099 889.436 L114.099 886.485 Z" fill="#4c4c4c" fill-rule="evenodd" fill-opacity="1" /><path clip-path="url(#clip230)" d="M144.046 875.078 Q141.685 875.078 140.296 876.693 Q138.925 878.308 138.925 881.12 Q138.925 883.915 140.296 885.547 Q141.685 887.162 144.046 887.162 Q146.407 887.162 147.779 885.547 Q149.168 883.915 149.168 881.12 Q149.168 878.308 147.779 876.693 Q146.407 875.078 144.046 875.078 M151.008 864.089 L151.008 867.283 Q149.689 866.658 148.335 866.328 Q146.998 865.999 145.678 865.999 Q142.206 865.999 140.366 868.342 Q138.543 870.686 138.283 875.426 Q139.307 873.915 140.852 873.117 Q142.397 872.301 144.255 872.301 Q148.161 872.301 150.418 874.679 Q152.692 877.04 152.692 881.12 Q152.692 885.113 150.331 887.526 Q147.97 889.939 144.046 889.939 Q139.55 889.939 137.171 886.502 Q134.793 883.047 134.793 876.502 Q134.793 870.356 137.71 866.71 Q140.626 863.047 145.539 863.047 Q146.859 863.047 148.196 863.308 Q149.55 863.568 151.008 864.089 Z" fill="#4c4c4c" fill-rule="evenodd" fill-opacity="1" /><path clip-path="url(#clip230)" d="M166.234 865.825 Q163.525 865.825 162.154 868.499 Q160.8 871.155 160.8 876.502 Q160.8 881.832 162.154 884.505 Q163.525 887.162 166.234 887.162 Q168.959 887.162 170.314 884.505 Q171.685 881.832 171.685 876.502 Q171.685 871.155 170.314 868.499 Q168.959 865.825 166.234 865.825 M166.234 863.047 Q170.591 863.047 172.883 866.502 Q175.192 869.94 175.192 876.502 Q175.192 883.047 172.883 886.502 Q170.591 889.939 166.234 889.939 Q161.876 889.939 159.567 886.502 Q157.275 883.047 157.275 876.502 Q157.275 869.94 159.567 866.502 Q161.876 863.047 166.234 863.047 Z" fill="#4c4c4c" fill-rule="evenodd" fill-opacity="1" /><path clip-path="url(#clip230)" d="M83.7342 675.278 L105.991 675.278 L105.991 678.229 L83.7342 678.229 L83.7342 675.278 Z" fill="#4c4c4c" fill-rule="evenodd" fill-opacity="1" /><path clip-path="url(#clip230)" d="M114.168 684.948 L119.897 684.948 L119.897 665.174 L113.665 666.424 L113.665 663.23 L119.862 661.98 L123.369 661.98 L123.369 684.948 L129.099 684.948 L129.099 687.9 L114.168 687.9 L114.168 684.948 Z" fill="#4c4c4c" fill-rule="evenodd" fill-opacity="1" /><path clip-path="url(#clip230)" d="M136.217 661.98 L149.984 661.98 L149.984 664.931 L139.428 664.931 L139.428 671.285 Q140.192 671.025 140.956 670.903 Q141.72 670.764 142.484 670.764 Q146.824 670.764 149.359 673.143 Q151.894 675.521 151.894 679.584 Q151.894 683.768 149.289 686.094 Q146.685 688.403 141.946 688.403 Q140.314 688.403 138.612 688.125 Q136.928 687.847 135.123 687.292 L135.123 683.768 Q136.685 684.618 138.352 685.035 Q140.019 685.452 141.876 685.452 Q144.88 685.452 146.633 683.872 Q148.387 682.292 148.387 679.584 Q148.387 676.875 146.633 675.295 Q144.88 673.716 141.876 673.716 Q140.47 673.716 139.064 674.028 Q137.675 674.341 136.217 675 L136.217 661.98 Z" fill="#4c4c4c" fill-rule="evenodd" fill-opacity="1" /><path clip-path="url(#clip230)" d="M166.303 675.591 Q163.803 675.591 162.362 676.927 Q160.939 678.264 160.939 680.608 Q160.939 682.952 162.362 684.288 Q163.803 685.625 166.303 685.625 Q168.803 685.625 170.244 684.288 Q171.685 682.934 171.685 680.608 Q171.685 678.264 170.244 676.927 Q168.821 675.591 166.303 675.591 M162.796 674.098 Q160.539 673.542 159.272 671.997 Q158.022 670.452 158.022 668.23 Q158.022 665.122 160.227 663.316 Q162.449 661.511 166.303 661.511 Q170.175 661.511 172.38 663.316 Q174.584 665.122 174.584 668.23 Q174.584 670.452 173.317 671.997 Q172.067 673.542 169.827 674.098 Q172.362 674.688 173.768 676.407 Q175.192 678.125 175.192 680.608 Q175.192 684.375 172.883 686.389 Q170.591 688.403 166.303 688.403 Q162.015 688.403 159.706 686.389 Q157.414 684.375 157.414 680.608 Q157.414 678.125 158.838 676.407 Q160.262 674.688 162.796 674.098 M161.512 668.559 Q161.512 670.573 162.762 671.702 Q164.029 672.83 166.303 672.83 Q168.56 672.83 169.827 671.702 Q171.112 670.573 171.112 668.559 Q171.112 666.546 169.827 665.417 Q168.56 664.289 166.303 664.289 Q164.029 664.289 162.762 665.417 Q161.512 666.546 161.512 668.559 Z" fill="#4c4c4c" fill-rule="evenodd" fill-opacity="1" /><path clip-path="url(#clip230)" d="M83.5432 473.742 L105.8 473.742 L105.8 476.693 L83.5432 476.693 L83.5432 473.742 Z" fill="#4c4c4c" fill-rule="evenodd" fill-opacity="1" /><path clip-path="url(#clip230)" d="M113.977 483.412 L119.706 483.412 L119.706 463.638 L113.474 464.888 L113.474 461.693 L119.671 460.443 L123.178 460.443 L123.178 483.412 L128.908 483.412 L128.908 486.363 L113.977 486.363 L113.977 483.412 Z" fill="#4c4c4c" fill-rule="evenodd" fill-opacity="1" /><path clip-path="url(#clip230)" d="M136.026 460.443 L149.793 460.443 L149.793 463.395 L139.237 463.395 L139.237 469.749 Q140.001 469.488 140.765 469.367 Q141.529 469.228 142.293 469.228 Q146.633 469.228 149.168 471.606 Q151.703 473.985 151.703 478.047 Q151.703 482.231 149.098 484.558 Q146.494 486.867 141.755 486.867 Q140.123 486.867 138.421 486.589 Q136.737 486.311 134.932 485.756 L134.932 482.231 Q136.494 483.082 138.161 483.499 Q139.828 483.915 141.685 483.915 Q144.689 483.915 146.442 482.335 Q148.196 480.756 148.196 478.047 Q148.196 475.339 146.442 473.759 Q144.689 472.179 141.685 472.179 Q140.279 472.179 138.873 472.492 Q137.484 472.804 136.026 473.464 L136.026 460.443 Z" fill="#4c4c4c" fill-rule="evenodd" fill-opacity="1" /><path clip-path="url(#clip230)" d="M166.546 472.006 Q164.185 472.006 162.796 473.62 Q161.425 475.235 161.425 478.047 Q161.425 480.842 162.796 482.474 Q164.185 484.089 166.546 484.089 Q168.907 484.089 170.279 482.474 Q171.668 480.842 171.668 478.047 Q171.668 475.235 170.279 473.62 Q168.907 472.006 166.546 472.006 M173.508 461.016 L173.508 464.21 Q172.189 463.585 170.834 463.256 Q169.498 462.926 168.178 462.926 Q164.706 462.926 162.866 465.27 Q161.043 467.613 160.782 472.353 Q161.807 470.842 163.352 470.044 Q164.897 469.228 166.755 469.228 Q170.661 469.228 172.918 471.606 Q175.192 473.967 175.192 478.047 Q175.192 482.04 172.831 484.453 Q170.47 486.867 166.546 486.867 Q162.05 486.867 159.671 483.429 Q157.293 479.974 157.293 473.429 Q157.293 467.283 160.209 463.638 Q163.126 459.974 168.039 459.974 Q169.359 459.974 170.696 460.235 Q172.05 460.495 173.508 461.016 Z" fill="#4c4c4c" fill-rule="evenodd" fill-opacity="1" /><path clip-path="url(#clip230)" d="M83.3002 272.205 L105.557 272.205 L105.557 275.157 L83.3002 275.157 L83.3002 272.205 Z" fill="#4c4c4c" fill-rule="evenodd" fill-opacity="1" /><path clip-path="url(#clip230)" d="M113.734 281.875 L119.463 281.875 L119.463 262.101 L113.231 263.351 L113.231 260.157 L119.428 258.907 L122.935 258.907 L122.935 281.875 L128.664 281.875 L128.664 284.827 L113.734 284.827 L113.734 281.875 Z" fill="#4c4c4c" fill-rule="evenodd" fill-opacity="1" /><path clip-path="url(#clip230)" d="M135.783 258.907 L149.55 258.907 L149.55 261.858 L138.994 261.858 L138.994 268.212 Q139.758 267.952 140.522 267.83 Q141.286 267.691 142.05 267.691 Q146.39 267.691 148.925 270.07 Q151.46 272.448 151.46 276.511 Q151.46 280.695 148.855 283.021 Q146.251 285.33 141.512 285.33 Q139.88 285.33 138.178 285.052 Q136.494 284.775 134.689 284.219 L134.689 280.695 Q136.251 281.546 137.918 281.962 Q139.585 282.379 141.442 282.379 Q144.446 282.379 146.199 280.799 Q147.953 279.219 147.953 276.511 Q147.953 273.802 146.199 272.223 Q144.446 270.643 141.442 270.643 Q140.036 270.643 138.63 270.955 Q137.241 271.268 135.783 271.928 L135.783 258.907 Z" fill="#4c4c4c" fill-rule="evenodd" fill-opacity="1" /><path clip-path="url(#clip230)" d="M168.005 261.962 L159.15 275.799 L168.005 275.799 L168.005 261.962 M167.084 258.907 L171.494 258.907 L171.494 275.799 L175.192 275.799 L175.192 278.716 L171.494 278.716 L171.494 284.827 L168.005 284.827 L168.005 278.716 L156.303 278.716 L156.303 275.33 L167.084 258.907 Z" fill="#4c4c4c" fill-rule="evenodd" fill-opacity="1" /><path clip-path="url(#clip230)" d="M20.3722 985.184 L20.3722 955.948 L24.3073 955.948 L24.3073 968.216 L54.9322 968.216 L54.9322 972.915 L24.3073 972.915 L24.3073 985.184 L20.3722 985.184 Z" fill="#000000" fill-rule="evenodd" fill-opacity="1" /><path clip-path="url(#clip230)" d="M40.9045 937.499 L42.9878 937.499 L42.9878 957.082 Q47.3859 956.804 49.7007 954.443 Q51.9924 952.059 51.9924 947.823 Q51.9924 945.369 51.3905 943.078 Q50.7887 940.763 49.585 938.494 L53.6127 938.494 Q54.5849 940.786 55.0942 943.193 Q55.6035 945.601 55.6035 948.078 Q55.6035 954.281 51.9924 957.916 Q48.3813 961.527 42.2239 961.527 Q35.8582 961.527 32.1314 958.101 Q28.3814 954.652 28.3814 948.818 Q28.3814 943.587 31.761 940.555 Q35.1174 937.499 40.9045 937.499 M39.6545 941.758 Q36.1591 941.805 34.0758 943.726 Q31.9925 945.624 31.9925 948.772 Q31.9925 952.337 34.0063 954.49 Q36.0202 956.619 39.6776 956.943 L39.6545 941.758 Z" fill="#000000" fill-rule="evenodd" fill-opacity="1" /><path clip-path="url(#clip230)" d="M29.7703 913.981 L33.798 913.981 Q32.8721 915.786 32.4091 917.731 Q31.9462 919.675 31.9462 921.758 Q31.9462 924.93 32.9184 926.527 Q33.8906 928.101 35.835 928.101 Q37.3165 928.101 38.173 926.967 Q39.0063 925.832 39.7702 922.406 L40.0943 920.948 Q41.0665 916.411 42.8489 914.513 Q44.6081 912.592 47.7794 912.592 Q51.3905 912.592 53.497 915.462 Q55.6035 918.309 55.6035 923.309 Q55.6035 925.393 55.1868 927.661 Q54.7933 929.906 53.9831 932.406 L49.585 932.406 Q50.8118 930.045 51.4368 927.754 Q52.0387 925.462 52.0387 923.217 Q52.0387 920.207 51.0201 918.587 Q49.9785 916.967 48.1035 916.967 Q46.3674 916.967 45.4415 918.147 Q44.5155 919.305 43.6591 923.263 L43.3118 924.744 Q42.4785 928.703 40.7656 930.462 Q39.0295 932.221 36.0202 932.221 Q32.3628 932.221 30.3721 929.629 Q28.3814 927.036 28.3814 922.268 Q28.3814 919.907 28.7286 917.823 Q29.0758 915.74 29.7703 913.981 Z" fill="#000000" fill-rule="evenodd" fill-opacity="1" /><path clip-path="url(#clip230)" d="M21.6453 901.596 L29.0064 901.596 L29.0064 892.823 L32.3165 892.823 L32.3165 901.596 L46.3905 901.596 Q49.5618 901.596 50.4646 900.74 Q51.3674 899.86 51.3674 897.198 L51.3674 892.823 L54.9322 892.823 L54.9322 897.198 Q54.9322 902.129 53.1035 904.004 Q51.2516 905.879 46.3905 905.879 L32.3165 905.879 L32.3165 909.004 L29.0064 909.004 L29.0064 905.879 L21.6453 905.879 L21.6453 901.596 Z" fill="#000000" fill-rule="evenodd" fill-opacity="1" /><path clip-path="url(#clip230)" d="M18.9138 872.152 L18.9138 867.893 L54.9322 867.893 L54.9322 872.152 L18.9138 872.152 Z" fill="#000000" fill-rule="evenodd" fill-opacity="1" /><path clip-path="url(#clip230)" d="M31.9925 848.935 Q31.9925 852.361 34.6776 854.351 Q37.3397 856.342 41.9924 856.342 Q46.6452 856.342 49.3303 854.374 Q51.9924 852.384 51.9924 848.935 Q51.9924 845.532 49.3072 843.541 Q46.622 841.55 41.9924 841.55 Q37.386 841.55 34.7008 843.541 Q31.9925 845.532 31.9925 848.935 M28.3814 848.935 Q28.3814 843.379 31.9925 840.208 Q35.6036 837.037 41.9924 837.037 Q48.3581 837.037 51.9924 840.208 Q55.6035 843.379 55.6035 848.935 Q55.6035 854.513 51.9924 857.685 Q48.3581 860.833 41.9924 860.833 Q35.6036 860.833 31.9925 857.685 Q28.3814 854.513 28.3814 848.935 Z" fill="#000000" fill-rule="evenodd" fill-opacity="1" /><path clip-path="url(#clip230)" d="M41.6683 812.916 Q37.0387 812.916 34.4925 814.838 Q31.9462 816.736 31.9462 820.185 Q31.9462 823.611 34.4925 825.532 Q37.0387 827.43 41.6683 827.43 Q46.2748 827.43 48.8211 825.532 Q51.3674 823.611 51.3674 820.185 Q51.3674 816.736 48.8211 814.838 Q46.2748 812.916 41.6683 812.916 M51.7146 808.657 Q58.3349 808.657 61.5525 811.597 Q64.7932 814.537 64.7932 820.601 Q64.7932 822.847 64.446 824.838 Q64.1219 826.828 63.4275 828.703 L59.284 828.703 Q60.3025 826.828 60.7886 825 Q61.2747 823.171 61.2747 821.273 Q61.2747 817.083 59.0757 815 Q56.8997 812.916 52.4785 812.916 L50.372 812.916 Q52.6637 814.236 53.7979 816.296 Q54.9322 818.356 54.9322 821.226 Q54.9322 825.995 51.2979 828.912 Q47.6637 831.828 41.6683 831.828 Q35.6499 831.828 32.0156 828.912 Q28.3814 825.995 28.3814 821.226 Q28.3814 818.356 29.5156 816.296 Q30.6499 814.236 32.9415 812.916 L29.0064 812.916 L29.0064 808.657 L51.7146 808.657 Z" fill="#000000" fill-rule="evenodd" fill-opacity="1" /><path clip-path="url(#clip230)" d="M40.048 802.037 L40.048 789.56 L43.8443 789.56 L43.8443 802.037 L40.048 802.037 Z" fill="#000000" fill-rule="evenodd" fill-opacity="1" /><path clip-path="url(#clip230)" d="M18.9138 782.778 L18.9138 778.518 L54.9322 778.518 L54.9322 782.778 L18.9138 782.778 Z" fill="#000000" fill-rule="evenodd" fill-opacity="1" /><path clip-path="url(#clip230)" d="M29.0064 769.606 L29.0064 765.347 L54.9322 765.347 L54.9322 769.606 L29.0064 769.606 M18.9138 769.606 L18.9138 765.347 L24.3073 765.347 L24.3073 769.606 L18.9138 769.606 Z" fill="#000000" fill-rule="evenodd" fill-opacity="1" /><path clip-path="url(#clip230)" d="M18.9138 756.597 L18.9138 752.315 L40.1869 752.315 L29.0064 739.607 L29.0064 734.167 L41.1359 747.917 L54.9322 733.588 L54.9322 739.144 L42.2702 752.315 L54.9322 752.315 L54.9322 756.597 L18.9138 756.597 Z" fill="#000000" fill-rule="evenodd" fill-opacity="1" /><path clip-path="url(#clip230)" d="M40.9045 708.496 L42.9878 708.496 L42.9878 728.079 Q47.3859 727.801 49.7007 725.44 Q51.9924 723.056 51.9924 718.82 Q51.9924 716.366 51.3905 714.074 Q50.7887 711.759 49.585 709.491 L53.6127 709.491 Q54.5849 711.783 55.0942 714.19 Q55.6035 716.597 55.6035 719.074 Q55.6035 725.278 51.9924 728.912 Q48.3813 732.523 42.2239 732.523 Q35.8582 732.523 32.1314 729.097 Q28.3814 725.648 28.3814 719.815 Q28.3814 714.584 31.761 711.551 Q35.1174 708.496 40.9045 708.496 M39.6545 712.755 Q36.1591 712.801 34.0758 714.722 Q31.9925 716.621 31.9925 719.769 Q31.9925 723.333 34.0063 725.486 Q36.0202 727.616 39.6776 727.94 L39.6545 712.755 Z" fill="#000000" fill-rule="evenodd" fill-opacity="1" /><path clip-path="url(#clip230)" d="M18.9138 701.505 L18.9138 697.246 L54.9322 697.246 L54.9322 701.505 L18.9138 701.505 Z" fill="#000000" fill-rule="evenodd" fill-opacity="1" /><path clip-path="url(#clip230)" d="M29.0064 688.334 L29.0064 684.074 L54.9322 684.074 L54.9322 688.334 L29.0064 688.334 M18.9138 688.334 L18.9138 684.074 L24.3073 684.074 L24.3073 688.334 L18.9138 688.334 Z" fill="#000000" fill-rule="evenodd" fill-opacity="1" /><path clip-path="url(#clip230)" d="M39.2841 653.612 L54.9322 653.612 L54.9322 657.871 L39.423 657.871 Q35.7424 657.871 33.9138 659.306 Q32.0851 660.741 32.0851 663.612 Q32.0851 667.061 34.2841 669.051 Q36.4832 671.042 40.2795 671.042 L54.9322 671.042 L54.9322 675.324 L18.9138 675.324 L18.9138 671.042 L33.0341 671.042 Q30.6962 669.514 29.5388 667.454 Q28.3814 665.371 28.3814 662.663 Q28.3814 658.195 31.1591 655.903 Q33.9138 653.612 39.2841 653.612 Z" fill="#000000" fill-rule="evenodd" fill-opacity="1" /><path clip-path="url(#clip230)" d="M31.9925 635.07 Q31.9925 638.496 34.6776 640.487 Q37.3397 642.477 41.9924 642.477 Q46.6452 642.477 49.3303 640.51 Q51.9924 638.519 51.9924 635.07 Q51.9924 631.667 49.3072 629.677 Q46.622 627.686 41.9924 627.686 Q37.386 627.686 34.7008 629.677 Q31.9925 631.667 31.9925 635.07 M28.3814 635.07 Q28.3814 629.515 31.9925 626.343 Q35.6036 623.172 41.9924 623.172 Q48.3581 623.172 51.9924 626.343 Q55.6035 629.515 55.6035 635.07 Q55.6035 640.649 51.9924 643.82 Q48.3581 646.968 41.9924 646.968 Q35.6036 646.968 31.9925 643.82 Q28.3814 640.649 28.3814 635.07 Z" fill="#000000" fill-rule="evenodd" fill-opacity="1" /><path clip-path="url(#clip230)" d="M31.9925 606.066 Q31.9925 609.492 34.6776 611.482 Q37.3397 613.473 41.9924 613.473 Q46.6452 613.473 49.3303 611.505 Q51.9924 609.515 51.9924 606.066 Q51.9924 602.663 49.3072 600.672 Q46.622 598.681 41.9924 598.681 Q37.386 598.681 34.7008 600.672 Q31.9925 602.663 31.9925 606.066 M28.3814 606.066 Q28.3814 600.51 31.9925 597.339 Q35.6036 594.168 41.9924 594.168 Q48.3581 594.168 51.9924 597.339 Q55.6035 600.51 55.6035 606.066 Q55.6035 611.644 51.9924 614.816 Q48.3581 617.964 41.9924 617.964 Q35.6036 617.964 31.9925 614.816 Q28.3814 611.644 28.3814 606.066 Z" fill="#000000" fill-rule="evenodd" fill-opacity="1" /><path clip-path="url(#clip230)" d="M32.9415 570.047 L18.9138 570.047 L18.9138 565.788 L54.9322 565.788 L54.9322 570.047 L51.0433 570.047 Q53.3581 571.39 54.4923 573.45 Q55.6035 575.487 55.6035 578.357 Q55.6035 583.056 51.8535 586.019 Q48.1035 588.959 41.9924 588.959 Q35.8813 588.959 32.1314 586.019 Q28.3814 583.056 28.3814 578.357 Q28.3814 575.487 29.5156 573.45 Q30.6267 571.39 32.9415 570.047 M41.9924 584.561 Q46.6915 584.561 49.3766 582.64 Q52.0387 580.695 52.0387 577.316 Q52.0387 573.936 49.3766 571.992 Q46.6915 570.047 41.9924 570.047 Q37.2934 570.047 34.6313 571.992 Q31.9462 573.936 31.9462 577.316 Q31.9462 580.695 34.6313 582.64 Q37.2934 584.561 41.9924 584.561 Z" fill="#000000" fill-rule="evenodd" fill-opacity="1" /><path clip-path="url(#clip230)" d="M1187.24 46.921 L1207.64 46.921 L1207.64 51.84 L1180.21 51.84 L1180.21 46.921 Q1183.54 43.4778 1189.27 37.6908 Q1195.03 31.8748 1196.5 30.1966 Q1199.31 27.0427 1200.41 24.8726 Q1201.54 22.6735 1201.54 20.5612 Q1201.54 17.118 1199.11 14.9478 Q1196.7 12.7777 1192.83 12.7777 Q1190.08 12.7777 1187.01 13.7326 Q1183.97 14.6874 1180.5 16.6261 L1180.5 10.7233 Q1184.03 9.30551 1187.1 8.58213 Q1190.16 7.85875 1192.71 7.85875 Q1199.42 7.85875 1203.42 11.2152 Q1207.41 14.5717 1207.41 20.1851 Q1207.41 22.8471 1206.4 25.2487 Q1205.41 27.6214 1202.78 30.8621 Q1202.06 31.7012 1198.18 35.7232 Q1194.3 39.7162 1187.24 46.921 Z" fill="#000000" fill-rule="evenodd" fill-opacity="1" /><path clip-path="url(#clip230)" d="M1232.41 12.4884 Q1227.9 12.4884 1225.61 16.9444 Q1223.35 21.3714 1223.35 30.2834 Q1223.35 39.1665 1225.61 43.6225 Q1227.9 48.0495 1232.41 48.0495 Q1236.95 48.0495 1239.21 43.6225 Q1241.5 39.1665 1241.5 30.2834 Q1241.5 21.3714 1239.21 16.9444 Q1236.95 12.4884 1232.41 12.4884 M1232.41 7.85875 Q1239.67 7.85875 1243.49 13.6168 Q1247.34 19.346 1247.34 30.2834 Q1247.34 41.1919 1243.49 46.95 Q1239.67 52.6791 1232.41 52.6791 Q1225.15 52.6791 1221.3 46.95 Q1217.48 41.1919 1217.48 30.2834 Q1217.48 19.346 1221.3 13.6168 Q1225.15 7.85875 1232.41 7.85875 Z" fill="#000000" fill-rule="evenodd" fill-opacity="1" /><path clip-path="url(#clip230)" d="M1283.8 32.2799 L1283.8 51.84 L1278.47 51.84 L1278.47 32.4535 Q1278.47 27.8529 1276.68 25.567 Q1274.89 23.2811 1271.3 23.2811 Q1266.99 23.2811 1264.5 26.03 Q1262.01 28.7788 1262.01 33.5241 L1262.01 51.84 L1256.66 51.84 L1256.66 19.4328 L1262.01 19.4328 L1262.01 24.4675 Q1263.92 21.545 1266.49 20.0983 Q1269.1 18.6515 1272.48 18.6515 Q1278.07 18.6515 1280.93 22.1237 Q1283.8 25.567 1283.8 32.2799 Z" fill="#000000" fill-rule="evenodd" fill-opacity="1" /><path clip-path="url(#clip230)" d="M1322.14 34.3054 L1322.14 36.9095 L1297.66 36.9095 Q1298.01 42.4072 1300.96 45.3007 Q1303.94 48.1653 1309.23 48.1653 Q1312.3 48.1653 1315.16 47.4129 Q1318.06 46.6606 1320.89 45.156 L1320.89 50.1907 Q1318.03 51.406 1315.02 52.0425 Q1312.01 52.6791 1308.91 52.6791 Q1301.16 52.6791 1296.62 48.1653 Q1292.1 43.6514 1292.1 35.9547 Q1292.1 27.9975 1296.38 23.339 Q1300.7 18.6515 1307.99 18.6515 Q1314.53 18.6515 1318.32 22.876 Q1322.14 27.0716 1322.14 34.3054 M1316.81 32.7429 Q1316.76 28.3737 1314.35 25.7695 Q1311.98 23.1654 1308.05 23.1654 Q1303.59 23.1654 1300.9 25.6827 Q1298.24 28.2001 1297.83 32.7718 L1316.81 32.7429 Z" fill="#000000" fill-rule="evenodd" fill-opacity="1" /><path clip-path="url(#clip230)" d="M1327.78 19.4328 L1333.1 19.4328 L1339.76 44.722 L1346.38 19.4328 L1352.66 19.4328 L1359.32 44.722 L1365.94 19.4328 L1371.27 19.4328 L1362.79 51.84 L1356.51 51.84 L1349.54 25.2776 L1342.54 51.84 L1336.26 51.84 L1327.78 19.4328 Z" fill="#000000" fill-rule="evenodd" fill-opacity="1" /><path clip-path="url(#clip230)" d="M1400 20.3876 L1400 25.4223 Q1397.74 24.2649 1395.31 23.6862 Q1392.88 23.1075 1390.28 23.1075 Q1386.31 23.1075 1384.32 24.3228 Q1382.35 25.5381 1382.35 27.9686 Q1382.35 29.8204 1383.77 30.891 Q1385.19 31.9327 1389.47 32.8876 L1391.29 33.2926 Q1396.96 34.5079 1399.34 36.7359 Q1401.74 38.935 1401.74 42.8991 Q1401.74 47.4129 1398.15 50.046 Q1394.59 52.6791 1388.34 52.6791 Q1385.74 52.6791 1382.9 52.1583 Q1380.09 51.6664 1376.97 50.6537 L1376.97 45.156 Q1379.92 46.6896 1382.78 47.4708 Q1385.65 48.2231 1388.46 48.2231 Q1392.22 48.2231 1394.24 46.95 Q1396.27 45.6479 1396.27 43.3042 Q1396.27 41.134 1394.79 39.9766 Q1393.35 38.8192 1388.4 37.7486 L1386.55 37.3146 Q1381.6 36.273 1379.4 34.1318 Q1377.2 31.9616 1377.2 28.2001 Q1377.2 23.6283 1380.44 21.1399 Q1383.68 18.6515 1389.64 18.6515 Q1392.59 18.6515 1395.2 19.0855 Q1397.8 19.5196 1400 20.3876 Z" fill="#000000" fill-rule="evenodd" fill-opacity="1" /><polyline clip-path="url(#clip232)" style="stroke:#e26f46; stroke-linecap:butt; stroke-linejoin:round; stroke-width:8; stroke-opacity:1; fill:none" points="
  329.36,465.342 369.427,465.342 409.495,465.342 449.562,465.342 489.629,465.342 529.696,465.342 569.764,465.342 609.831,465.342 649.898,465.342 689.965,465.342 
  730.033,465.342 770.1,465.342 810.167,465.342 850.234,465.342 890.302,465.342 930.369,465.342 970.436,465.342 1010.5,465.342 1050.57,465.342 1090.64,465.342 
  1130.7,465.342 1170.77,465.342 1210.84,465.342 1250.91,465.342 1290.97,465.342 1331.04,465.342 1371.11,465.342 1411.18,465.342 1451.24,465.342 1491.31,465.342 
  1531.38,465.342 1571.44,465.342 1611.51,465.342 1651.58,465.342 1691.65,465.342 1731.71,465.342 1771.78,465.342 1811.85,465.342 1851.92,465.342 1891.98,465.342 
  1932.05,465.342 1972.12,465.342 2012.18,465.342 2052.25,465.342 2092.32,465.342 2132.39,465.342 2172.45,465.342 2212.52,465.342 2252.59,465.342 2292.66,465.342 
  
  "/>
<polyline clip-path="url(#clip232)" style="stroke:#3da44d; stroke-linecap:butt; stroke-linejoin:round; stroke-width:8; stroke-opacity:1; fill:none" points="
  329.36,319.228 369.427,319.228 409.495,319.228 449.562,319.228 489.629,319.228 529.696,319.228 569.764,319.228 609.831,319.228 649.898,319.228 689.965,319.228 
  730.033,319.228 770.1,319.228 810.167,319.228 850.234,319.228 890.302,319.228 930.369,319.228 970.436,319.228 1010.5,319.228 1050.57,319.228 1090.64,319.228 
  1130.7,319.228 1170.77,319.228 1210.84,319.228 1250.91,319.228 1290.97,319.228 1331.04,319.228 1371.11,319.228 1411.18,319.228 1451.24,319.228 1491.31,319.228 
  1531.38,319.228 1571.44,319.228 1611.51,319.228 1651.58,319.228 1691.65,319.228 1731.71,319.228 1771.78,319.228 1811.85,319.228 1851.92,319.228 1891.98,319.228 
  1932.05,319.228 1972.12,319.228 2012.18,319.228 2052.25,319.228 2092.32,319.228 2132.39,319.228 2172.45,319.228 2212.52,319.228 2252.59,319.228 2292.66,319.228 
  
  "/>
<polyline clip-path="url(#clip232)" style="stroke:#c271d2; stroke-linecap:butt; stroke-linejoin:round; stroke-width:8; stroke-opacity:1; fill:none" points="
  329.36,470.38 369.427,470.38 409.495,470.38 449.562,470.38 489.629,470.38 529.696,470.38 569.764,470.38 609.831,470.38 649.898,470.38 689.965,470.38 
  730.033,470.38 770.1,470.38 810.167,470.38 850.234,470.38 890.302,470.38 930.369,470.38 970.436,470.38 1010.5,470.38 1050.57,470.38 1090.64,470.38 
  1130.7,470.38 1170.77,470.38 1210.84,470.38 1250.91,470.38 1290.97,470.38 1331.04,470.38 1371.11,470.38 1411.18,470.38 1451.24,470.38 1491.31,470.38 
  1531.38,470.38 1571.44,470.38 1611.51,470.38 1651.58,470.38 1691.65,470.38 1731.71,470.38 1771.78,470.38 1811.85,470.38 1851.92,470.38 1891.98,470.38 
  1932.05,470.38 1972.12,470.38 2012.18,470.38 2052.25,470.38 2092.32,470.38 2132.39,470.38 2172.45,470.38 2212.52,470.38 2252.59,470.38 2292.66,470.38 
  
  "/>
<polyline clip-path="url(#clip232)" style="stroke:#ac8d18; stroke-linecap:butt; stroke-linejoin:round; stroke-width:8; stroke-opacity:1; fill:none" points="
  329.36,246.675 369.427,246.675 409.495,246.675 449.562,246.675 489.629,246.675 529.696,246.675 569.764,246.675 609.831,246.675 649.898,246.675 689.965,246.675 
  730.033,246.675 770.1,246.675 810.167,246.675 850.234,246.675 890.302,246.675 930.369,246.675 970.436,246.675 1010.5,246.675 1050.57,246.675 1090.64,246.675 
  1130.7,246.675 1170.77,246.675 1210.84,246.675 1250.91,246.675 1290.97,246.675 1331.04,246.675 1371.11,246.675 1411.18,246.675 1451.24,246.675 1491.31,246.675 
  1531.38,246.675 1571.44,246.675 1611.51,246.675 1651.58,246.675 1691.65,246.675 1731.71,246.675 1771.78,246.675 1811.85,246.675 1851.92,246.675 1891.98,246.675 
  1932.05,246.675 1972.12,246.675 2012.18,246.675 2052.25,246.675 2092.32,246.675 2132.39,246.675 2172.45,246.675 2212.52,246.675 2252.59,246.675 2292.66,246.675 
  
  "/>
<polyline clip-path="url(#clip232)" style="stroke:#00a9ad; stroke-linecap:butt; stroke-linejoin:round; stroke-width:8; stroke-opacity:1; fill:none" points="
  329.36,288.997 369.427,288.997 409.495,288.997 449.562,288.997 489.629,288.997 529.696,288.997 569.764,288.997 609.831,288.997 649.898,288.997 689.965,288.997 
  730.033,288.997 770.1,288.997 810.167,288.997 850.234,288.997 890.302,288.997 930.369,288.997 970.436,288.997 1010.5,288.997 1050.57,288.997 1090.64,288.997 
  1130.7,288.997 1170.77,288.997 1210.84,288.997 1250.91,288.997 1290.97,288.997 1331.04,288.997 1371.11,288.997 1411.18,288.997 1451.24,288.997 1491.31,288.997 
  1531.38,288.997 1571.44,288.997 1611.51,288.997 1651.58,288.997 1691.65,288.997 1731.71,288.997 1771.78,288.997 1811.85,288.997 1851.92,288.997 1891.98,288.997 
  1932.05,288.997 1972.12,288.997 2012.18,288.997 2052.25,288.997 2092.32,288.997 2132.39,288.997 2172.45,288.997 2212.52,288.997 2252.59,288.997 2292.66,288.997 
  
  "/>
<polyline clip-path="url(#clip232)" style="stroke:#009af9; stroke-linecap:butt; stroke-linejoin:round; stroke-width:12; stroke-opacity:1; fill:none" points="
  329.36,1255.94 369.427,1406.9 409.495,954.054 449.562,676.059 489.629,499.838 529.696,506.203 569.764,528.838 609.831,429.109 649.898,374.401 689.965,375.334 
  730.033,326.347 770.1,306.474 810.167,280.916 850.234,286.747 890.302,304.462 930.369,293.458 970.436,252.926 1010.5,307.406 1050.57,327.821 1090.64,348.195 
  1130.7,316.188 1170.77,238.044 1210.84,222.915 1250.91,231.743 1290.97,212.792 1331.04,191.325 1371.11,185.183 1411.18,195.242 1451.24,217.713 1491.31,190.435 
  1531.38,169.692 1571.44,178.047 1611.51,188.463 1651.58,172.559 1691.65,175.082 1731.71,162.433 1771.78,162.838 1811.85,164.185 1851.92,177.542 1891.98,161.392 
  1932.05,158.511 1972.12,169.525 2012.18,171.999 2052.25,157.815 2092.32,153.636 2132.39,158.103 2172.45,154.637 2212.52,144.077 2252.59,147.529 2292.66,151.711 
  
  "/>
<path clip-path="url(#clip230)" d="
M1769.89 1400.16 L2281.97 1400.16 L2281.97 1037.28 L1769.89 1037.28  Z
  " fill="#eaeaea" fill-rule="evenodd" fill-opacity="1"/>
<polyline clip-path="url(#clip230)" style="stroke:#ffffff; stroke-linecap:butt; stroke-linejoin:round; stroke-width:4; stroke-opacity:1; fill:none" points="
  1769.89,1400.16 2281.97,1400.16 2281.97,1037.28 1769.89,1037.28 1769.89,1400.16 
  "/>
<polyline clip-path="url(#clip230)" style="stroke:#e26f46; stroke-linecap:butt; stroke-linejoin:round; stroke-width:4; stroke-opacity:1; fill:none" points="
  1793.48,1089.12 1935.05,1089.12 
  "/>
<path clip-path="url(#clip230)" d="M1958.65 1071.84 L1963.32 1071.84 L1963.32 1102.47 L1980.15 1102.47 L1980.15 1106.4 L1958.65 1106.4 L1958.65 1071.84 Z" fill="#000000" fill-rule="evenodd" fill-opacity="1" /><path clip-path="url(#clip230)" d="M2006.22 1092.37 L2006.22 1094.46 L1986.63 1094.46 Q1986.91 1098.85 1989.27 1101.17 Q1991.66 1103.46 1995.89 1103.46 Q1998.35 1103.46 2000.64 1102.86 Q2002.95 1102.26 2005.22 1101.05 L2005.22 1105.08 Q2002.93 1106.05 2000.52 1106.56 Q1998.11 1107.07 1995.64 1107.07 Q1989.43 1107.07 1985.8 1103.46 Q1982.19 1099.85 1982.19 1093.69 Q1982.19 1087.33 1985.61 1083.6 Q1989.06 1079.85 1994.9 1079.85 Q2000.13 1079.85 2003.16 1083.23 Q2006.22 1086.59 2006.22 1092.37 M2001.96 1091.12 Q2001.91 1087.63 1999.99 1085.54 Q1998.09 1083.46 1994.94 1083.46 Q1991.38 1083.46 1989.23 1085.47 Q1987.1 1087.49 1986.77 1091.15 L2001.96 1091.12 Z" fill="#000000" fill-rule="evenodd" fill-opacity="1" /><path clip-path="url(#clip230)" d="M2024.99 1093.37 Q2019.83 1093.37 2017.84 1094.55 Q2015.85 1095.73 2015.85 1098.58 Q2015.85 1100.84 2017.33 1102.19 Q2018.83 1103.51 2021.4 1103.51 Q2024.94 1103.51 2027.07 1101.01 Q2029.23 1098.48 2029.23 1094.32 L2029.23 1093.37 L2024.99 1093.37 M2033.48 1091.61 L2033.48 1106.4 L2029.23 1106.4 L2029.23 1102.47 Q2027.77 1104.83 2025.59 1105.96 Q2023.42 1107.07 2020.27 1107.07 Q2016.29 1107.07 2013.92 1104.85 Q2011.59 1102.6 2011.59 1098.85 Q2011.59 1094.48 2014.5 1092.26 Q2017.44 1090.03 2023.25 1090.03 L2029.23 1090.03 L2029.23 1089.62 Q2029.23 1086.68 2027.28 1085.08 Q2025.36 1083.46 2021.86 1083.46 Q2019.64 1083.46 2017.54 1083.99 Q2015.43 1084.53 2013.49 1085.59 L2013.49 1081.66 Q2015.82 1080.75 2018.02 1080.31 Q2020.22 1079.85 2022.3 1079.85 Q2027.93 1079.85 2030.71 1082.77 Q2033.48 1085.68 2033.48 1091.61 Z" fill="#000000" fill-rule="evenodd" fill-opacity="1" /><path clip-path="url(#clip230)" d="M2057.28 1084.46 Q2056.56 1084.04 2055.71 1083.85 Q2054.87 1083.65 2053.86 1083.65 Q2050.24 1083.65 2048.3 1086.01 Q2046.38 1088.34 2046.38 1092.74 L2046.38 1106.4 L2042.1 1106.4 L2042.1 1080.47 L2046.38 1080.47 L2046.38 1084.5 Q2047.72 1082.14 2049.87 1081.01 Q2052.03 1079.85 2055.11 1079.85 Q2055.54 1079.85 2056.08 1079.92 Q2056.61 1079.97 2057.26 1080.08 L2057.28 1084.46 Z" fill="#000000" fill-rule="evenodd" fill-opacity="1" /><path clip-path="url(#clip230)" d="M2082.47 1090.75 L2082.47 1106.4 L2078.21 1106.4 L2078.21 1090.89 Q2078.21 1087.21 2076.77 1085.38 Q2075.34 1083.55 2072.47 1083.55 Q2069.02 1083.55 2067.03 1085.75 Q2065.04 1087.95 2065.04 1091.75 L2065.04 1106.4 L2060.75 1106.4 L2060.75 1080.47 L2065.04 1080.47 L2065.04 1084.5 Q2066.56 1082.16 2068.62 1081.01 Q2070.71 1079.85 2073.42 1079.85 Q2077.88 1079.85 2080.17 1082.63 Q2082.47 1085.38 2082.47 1090.75 Z" fill="#000000" fill-rule="evenodd" fill-opacity="1" /><path clip-path="url(#clip230)" d="M2111.86 1072.97 L2111.86 1077.53 Q2109.2 1076.26 2106.84 1075.64 Q2104.48 1075.01 2102.28 1075.01 Q2098.46 1075.01 2096.38 1076.49 Q2094.32 1077.97 2094.32 1080.71 Q2094.32 1083 2095.68 1084.18 Q2097.07 1085.34 2100.92 1086.05 L2103.74 1086.63 Q2108.97 1087.63 2111.45 1090.15 Q2113.95 1092.65 2113.95 1096.86 Q2113.95 1101.89 2110.57 1104.48 Q2107.21 1107.07 2100.71 1107.07 Q2098.25 1107.07 2095.48 1106.52 Q2092.72 1105.96 2089.76 1104.87 L2089.76 1100.06 Q2092.6 1101.65 2095.34 1102.47 Q2098.07 1103.28 2100.71 1103.28 Q2104.71 1103.28 2106.89 1101.7 Q2109.06 1100.13 2109.06 1097.21 Q2109.06 1094.66 2107.49 1093.23 Q2105.94 1091.79 2102.37 1091.08 L2099.53 1090.52 Q2094.29 1089.48 2091.96 1087.26 Q2089.62 1085.03 2089.62 1081.08 Q2089.62 1076.49 2092.84 1073.85 Q2096.08 1071.22 2101.75 1071.22 Q2104.18 1071.22 2106.7 1071.66 Q2109.23 1072.09 2111.86 1072.97 Z" fill="#000000" fill-rule="evenodd" fill-opacity="1" /><path clip-path="url(#clip230)" d="M2125.91 1075.68 L2125.91 1088.67 L2131.79 1088.67 Q2135.06 1088.67 2136.84 1086.98 Q2138.62 1085.29 2138.62 1082.16 Q2138.62 1079.06 2136.84 1077.37 Q2135.06 1075.68 2131.79 1075.68 L2125.91 1075.68 M2121.24 1071.84 L2131.79 1071.84 Q2137.6 1071.84 2140.57 1074.48 Q2143.55 1077.09 2143.55 1082.16 Q2143.55 1087.28 2140.57 1089.9 Q2137.6 1092.51 2131.79 1092.51 L2125.91 1092.51 L2125.91 1106.4 L2121.24 1106.4 L2121.24 1071.84 Z" fill="#000000" fill-rule="evenodd" fill-opacity="1" /><path clip-path="url(#clip230)" d="M2149.83 1071.84 L2156.12 1071.84 L2171.45 1100.75 L2171.45 1071.84 L2175.98 1071.84 L2175.98 1106.4 L2169.69 1106.4 L2154.36 1077.49 L2154.36 1106.4 L2149.83 1106.4 L2149.83 1071.84 Z" fill="#000000" fill-rule="evenodd" fill-opacity="1" /><polyline clip-path="url(#clip230)" style="stroke:#3da44d; stroke-linecap:butt; stroke-linejoin:round; stroke-width:4; stroke-opacity:1; fill:none" points="
  1793.48,1140.96 1935.05,1140.96 
  "/>
<path clip-path="url(#clip230)" d="M1980.89 1124.81 L1980.89 1129.37 Q1978.23 1128.1 1975.87 1127.48 Q1973.51 1126.85 1971.31 1126.85 Q1967.49 1126.85 1965.41 1128.33 Q1963.35 1129.81 1963.35 1132.55 Q1963.35 1134.84 1964.71 1136.02 Q1966.1 1137.18 1969.94 1137.89 L1972.77 1138.47 Q1978 1139.47 1980.48 1141.99 Q1982.98 1144.49 1982.98 1148.7 Q1982.98 1153.73 1979.6 1156.32 Q1976.24 1158.91 1969.74 1158.91 Q1967.28 1158.91 1964.5 1158.36 Q1961.75 1157.8 1958.79 1156.71 L1958.79 1151.9 Q1961.63 1153.49 1964.36 1154.31 Q1967.1 1155.12 1969.74 1155.12 Q1973.74 1155.12 1975.92 1153.54 Q1978.09 1151.97 1978.09 1149.05 Q1978.09 1146.5 1976.52 1145.07 Q1974.97 1143.63 1971.4 1142.92 L1968.55 1142.36 Q1963.32 1141.32 1960.99 1139.1 Q1958.65 1136.87 1958.65 1132.92 Q1958.65 1128.33 1961.86 1125.69 Q1965.11 1123.06 1970.78 1123.06 Q1973.21 1123.06 1975.73 1123.5 Q1978.25 1123.93 1980.89 1124.81 Z" fill="#000000" fill-rule="evenodd" fill-opacity="1" /><path clip-path="url(#clip230)" d="M1994.3 1124.95 L1994.3 1132.31 L2003.07 1132.31 L2003.07 1135.62 L1994.3 1135.62 L1994.3 1149.7 Q1994.3 1152.87 1995.15 1153.77 Q1996.03 1154.68 1998.69 1154.68 L2003.07 1154.68 L2003.07 1158.24 L1998.69 1158.24 Q1993.76 1158.24 1991.89 1156.41 Q1990.01 1154.56 1990.01 1149.7 L1990.01 1135.62 L1986.89 1135.62 L1986.89 1132.31 L1990.01 1132.31 L1990.01 1124.95 L1994.3 1124.95 Z" fill="#000000" fill-rule="evenodd" fill-opacity="1" /><path clip-path="url(#clip230)" d="M2023.69 1136.3 Q2022.98 1135.88 2022.12 1135.69 Q2021.29 1135.49 2020.27 1135.49 Q2016.66 1135.49 2014.71 1137.85 Q2012.79 1140.18 2012.79 1144.58 L2012.79 1158.24 L2008.51 1158.24 L2008.51 1132.31 L2012.79 1132.31 L2012.79 1136.34 Q2014.13 1133.98 2016.29 1132.85 Q2018.44 1131.69 2021.52 1131.69 Q2021.96 1131.69 2022.49 1131.76 Q2023.02 1131.81 2023.67 1131.92 L2023.69 1136.3 Z" fill="#000000" fill-rule="evenodd" fill-opacity="1" /><path clip-path="url(#clip230)" d="M2027.72 1148.01 L2027.72 1132.31 L2031.98 1132.31 L2031.98 1147.85 Q2031.98 1151.53 2033.42 1153.38 Q2034.85 1155.21 2037.72 1155.21 Q2041.17 1155.21 2043.16 1153.01 Q2045.17 1150.81 2045.17 1147.01 L2045.17 1132.31 L2049.43 1132.31 L2049.43 1158.24 L2045.17 1158.24 L2045.17 1154.26 Q2043.62 1156.62 2041.56 1157.78 Q2039.53 1158.91 2036.82 1158.91 Q2032.35 1158.91 2030.04 1156.13 Q2027.72 1153.36 2027.72 1148.01 M2038.44 1131.69 L2038.44 1131.69 Z" fill="#000000" fill-rule="evenodd" fill-opacity="1" /><path clip-path="url(#clip230)" d="M2075.27 1136.25 L2075.27 1122.22 L2079.53 1122.22 L2079.53 1158.24 L2075.27 1158.24 L2075.27 1154.35 Q2073.92 1156.67 2071.86 1157.8 Q2069.83 1158.91 2066.96 1158.91 Q2062.26 1158.91 2059.29 1155.16 Q2056.36 1151.41 2056.36 1145.3 Q2056.36 1139.19 2059.29 1135.44 Q2062.26 1131.69 2066.96 1131.69 Q2069.83 1131.69 2071.86 1132.82 Q2073.92 1133.93 2075.27 1136.25 M2060.75 1145.3 Q2060.75 1150 2062.67 1152.68 Q2064.62 1155.35 2068 1155.35 Q2071.38 1155.35 2073.32 1152.68 Q2075.27 1150 2075.27 1145.3 Q2075.27 1140.6 2073.32 1137.94 Q2071.38 1135.25 2068 1135.25 Q2064.62 1135.25 2062.67 1137.94 Q2060.75 1140.6 2060.75 1145.3 Z" fill="#000000" fill-rule="evenodd" fill-opacity="1" /><path clip-path="url(#clip230)" d="M2110.48 1144.21 L2110.48 1146.3 L2090.89 1146.3 Q2091.17 1150.69 2093.53 1153.01 Q2095.92 1155.3 2100.15 1155.3 Q2102.6 1155.3 2104.9 1154.7 Q2107.21 1154.1 2109.48 1152.89 L2109.48 1156.92 Q2107.19 1157.89 2104.78 1158.4 Q2102.37 1158.91 2099.9 1158.91 Q2093.69 1158.91 2090.06 1155.3 Q2086.45 1151.69 2086.45 1145.53 Q2086.45 1139.17 2089.87 1135.44 Q2093.32 1131.69 2099.16 1131.69 Q2104.39 1131.69 2107.42 1135.07 Q2110.48 1138.43 2110.48 1144.21 M2106.22 1142.96 Q2106.17 1139.47 2104.25 1137.38 Q2102.35 1135.3 2099.2 1135.3 Q2095.64 1135.3 2093.48 1137.31 Q2091.35 1139.33 2091.03 1142.99 L2106.22 1142.96 Z" fill="#000000" fill-rule="evenodd" fill-opacity="1" /><path clip-path="url(#clip230)" d="M2117.47 1122.22 L2121.73 1122.22 L2121.73 1158.24 L2117.47 1158.24 L2117.47 1122.22 Z" fill="#000000" fill-rule="evenodd" fill-opacity="1" /><polyline clip-path="url(#clip230)" style="stroke:#c271d2; stroke-linecap:butt; stroke-linejoin:round; stroke-width:4; stroke-opacity:1; fill:none" points="
  1793.48,1192.8 1935.05,1192.8 
  "/>
<path clip-path="url(#clip230)" d="M1958.65 1175.52 L1963.32 1175.52 L1963.32 1206.15 L1980.15 1206.15 L1980.15 1210.08 L1958.65 1210.08 L1958.65 1175.52 Z" fill="#000000" fill-rule="evenodd" fill-opacity="1" /><path clip-path="url(#clip230)" d="M2006.22 1196.05 L2006.22 1198.14 L1986.63 1198.14 Q1986.91 1202.53 1989.27 1204.85 Q1991.66 1207.14 1995.89 1207.14 Q1998.35 1207.14 2000.64 1206.54 Q2002.95 1205.94 2005.22 1204.73 L2005.22 1208.76 Q2002.93 1209.73 2000.52 1210.24 Q1998.11 1210.75 1995.64 1210.75 Q1989.43 1210.75 1985.8 1207.14 Q1982.19 1203.53 1982.19 1197.37 Q1982.19 1191.01 1985.61 1187.28 Q1989.06 1183.53 1994.9 1183.53 Q2000.13 1183.53 2003.16 1186.91 Q2006.22 1190.27 2006.22 1196.05 M2001.96 1194.8 Q2001.91 1191.31 1999.99 1189.22 Q1998.09 1187.14 1994.94 1187.14 Q1991.38 1187.14 1989.23 1189.15 Q1987.1 1191.17 1986.77 1194.83 L2001.96 1194.8 Z" fill="#000000" fill-rule="evenodd" fill-opacity="1" /><path clip-path="url(#clip230)" d="M2024.99 1197.05 Q2019.83 1197.05 2017.84 1198.23 Q2015.85 1199.41 2015.85 1202.26 Q2015.85 1204.52 2017.33 1205.87 Q2018.83 1207.19 2021.4 1207.19 Q2024.94 1207.19 2027.07 1204.69 Q2029.23 1202.16 2029.23 1198 L2029.23 1197.05 L2024.99 1197.05 M2033.48 1195.29 L2033.48 1210.08 L2029.23 1210.08 L2029.23 1206.15 Q2027.77 1208.51 2025.59 1209.64 Q2023.42 1210.75 2020.27 1210.75 Q2016.29 1210.75 2013.92 1208.53 Q2011.59 1206.28 2011.59 1202.53 Q2011.59 1198.16 2014.5 1195.94 Q2017.44 1193.71 2023.25 1193.71 L2029.23 1193.71 L2029.23 1193.3 Q2029.23 1190.36 2027.28 1188.76 Q2025.36 1187.14 2021.86 1187.14 Q2019.64 1187.14 2017.54 1187.67 Q2015.43 1188.21 2013.49 1189.27 L2013.49 1185.34 Q2015.82 1184.43 2018.02 1183.99 Q2020.22 1183.53 2022.3 1183.53 Q2027.93 1183.53 2030.71 1186.45 Q2033.48 1189.36 2033.48 1195.29 Z" fill="#000000" fill-rule="evenodd" fill-opacity="1" /><path clip-path="url(#clip230)" d="M2057.28 1188.14 Q2056.56 1187.72 2055.71 1187.53 Q2054.87 1187.33 2053.86 1187.33 Q2050.24 1187.33 2048.3 1189.69 Q2046.38 1192.02 2046.38 1196.42 L2046.38 1210.08 L2042.1 1210.08 L2042.1 1184.15 L2046.38 1184.15 L2046.38 1188.18 Q2047.72 1185.82 2049.87 1184.69 Q2052.03 1183.53 2055.11 1183.53 Q2055.54 1183.53 2056.08 1183.6 Q2056.61 1183.65 2057.26 1183.76 L2057.28 1188.14 Z" fill="#000000" fill-rule="evenodd" fill-opacity="1" /><path clip-path="url(#clip230)" d="M2082.47 1194.43 L2082.47 1210.08 L2078.21 1210.08 L2078.21 1194.57 Q2078.21 1190.89 2076.77 1189.06 Q2075.34 1187.23 2072.47 1187.23 Q2069.02 1187.23 2067.03 1189.43 Q2065.04 1191.63 2065.04 1195.43 L2065.04 1210.08 L2060.75 1210.08 L2060.75 1184.15 L2065.04 1184.15 L2065.04 1188.18 Q2066.56 1185.84 2068.62 1184.69 Q2070.71 1183.53 2073.42 1183.53 Q2077.88 1183.53 2080.17 1186.31 Q2082.47 1189.06 2082.47 1194.43 Z" fill="#000000" fill-rule="evenodd" fill-opacity="1" /><path clip-path="url(#clip230)" d="M2095.82 1179.36 L2095.82 1192.35 L2101.7 1192.35 Q2104.97 1192.35 2106.75 1190.66 Q2108.53 1188.97 2108.53 1185.84 Q2108.53 1182.74 2106.75 1181.05 Q2104.97 1179.36 2101.7 1179.36 L2095.82 1179.36 M2091.15 1175.52 L2101.7 1175.52 Q2107.51 1175.52 2110.48 1178.16 Q2113.46 1180.77 2113.46 1185.84 Q2113.46 1190.96 2110.48 1193.58 Q2107.51 1196.19 2101.7 1196.19 L2095.82 1196.19 L2095.82 1210.08 L2091.15 1210.08 L2091.15 1175.52 Z" fill="#000000" fill-rule="evenodd" fill-opacity="1" /><path clip-path="url(#clip230)" d="M2140.45 1176.65 L2140.45 1181.21 Q2137.79 1179.94 2135.43 1179.32 Q2133.07 1178.69 2130.87 1178.69 Q2127.05 1178.69 2124.97 1180.17 Q2122.91 1181.65 2122.91 1184.39 Q2122.91 1186.68 2124.27 1187.86 Q2125.66 1189.02 2129.5 1189.73 L2132.33 1190.31 Q2137.56 1191.31 2140.04 1193.83 Q2142.54 1196.33 2142.54 1200.54 Q2142.54 1205.57 2139.16 1208.16 Q2135.8 1210.75 2129.29 1210.75 Q2126.84 1210.75 2124.06 1210.2 Q2121.31 1209.64 2118.35 1208.55 L2118.35 1203.74 Q2121.19 1205.33 2123.92 1206.15 Q2126.66 1206.96 2129.29 1206.96 Q2133.3 1206.96 2135.48 1205.38 Q2137.65 1203.81 2137.65 1200.89 Q2137.65 1198.34 2136.08 1196.91 Q2134.53 1195.47 2130.96 1194.76 L2128.11 1194.2 Q2122.88 1193.16 2120.54 1190.94 Q2118.21 1188.71 2118.21 1184.76 Q2118.21 1180.17 2121.42 1177.53 Q2124.66 1174.9 2130.34 1174.9 Q2132.77 1174.9 2135.29 1175.34 Q2137.81 1175.77 2140.45 1176.65 Z" fill="#000000" fill-rule="evenodd" fill-opacity="1" /><path clip-path="url(#clip230)" d="M2154.5 1179.36 L2154.5 1206.24 L2160.15 1206.24 Q2167.3 1206.24 2170.61 1203 Q2173.95 1199.76 2173.95 1192.77 Q2173.95 1185.82 2170.61 1182.6 Q2167.3 1179.36 2160.15 1179.36 L2154.5 1179.36 M2149.83 1175.52 L2159.43 1175.52 Q2169.48 1175.52 2174.18 1179.71 Q2178.88 1183.88 2178.88 1192.77 Q2178.88 1201.7 2174.16 1205.89 Q2169.43 1210.08 2159.43 1210.08 L2149.83 1210.08 L2149.83 1175.52 Z" fill="#000000" fill-rule="evenodd" fill-opacity="1" /><path clip-path="url(#clip230)" d="M2191.01 1179.36 L2191.01 1206.24 L2196.66 1206.24 Q2203.81 1206.24 2207.12 1203 Q2210.45 1199.76 2210.45 1192.77 Q2210.45 1185.82 2207.12 1182.6 Q2203.81 1179.36 2196.66 1179.36 L2191.01 1179.36 M2186.33 1175.52 L2195.94 1175.52 Q2205.98 1175.52 2210.68 1179.71 Q2215.38 1183.88 2215.38 1192.77 Q2215.38 1201.7 2210.66 1205.89 Q2205.94 1210.08 2195.94 1210.08 L2186.33 1210.08 L2186.33 1175.52 Z" fill="#000000" fill-rule="evenodd" fill-opacity="1" /><polyline clip-path="url(#clip230)" style="stroke:#ac8d18; stroke-linecap:butt; stroke-linejoin:round; stroke-width:4; stroke-opacity:1; fill:none" points="
  1793.48,1244.64 1935.05,1244.64 
  "/>
<path clip-path="url(#clip230)" d="M1960.22 1227.36 L1965.24 1227.36 L1973.83 1240.21 L1982.47 1227.36 L1987.49 1227.36 L1976.38 1243.96 L1988.23 1261.92 L1983.21 1261.92 L1973.49 1247.22 L1963.69 1261.92 L1958.65 1261.92 L1970.99 1243.47 L1960.22 1227.36 Z" fill="#000000" fill-rule="evenodd" fill-opacity="1" /><path clip-path="url(#clip230)" d="M1999.04 1231.2 L1999.04 1244.19 L2004.92 1244.19 Q2008.18 1244.19 2009.97 1242.5 Q2011.75 1240.81 2011.75 1237.68 Q2011.75 1234.58 2009.97 1232.89 Q2008.18 1231.2 2004.92 1231.2 L1999.04 1231.2 M1994.36 1227.36 L2004.92 1227.36 Q2010.73 1227.36 2013.69 1230 Q2016.68 1232.61 2016.68 1237.68 Q2016.68 1242.8 2013.69 1245.42 Q2010.73 1248.03 2004.92 1248.03 L1999.04 1248.03 L1999.04 1261.92 L1994.36 1261.92 L1994.36 1227.36 Z" fill="#000000" fill-rule="evenodd" fill-opacity="1" /><path clip-path="url(#clip230)" d="M2048.83 1230.02 L2048.83 1234.95 Q2046.47 1232.75 2043.79 1231.67 Q2041.12 1230.58 2038.11 1230.58 Q2032.19 1230.58 2029.04 1234.21 Q2025.89 1237.82 2025.89 1244.67 Q2025.89 1251.5 2029.04 1255.14 Q2032.19 1258.75 2038.11 1258.75 Q2041.12 1258.75 2043.79 1257.66 Q2046.47 1256.57 2048.83 1254.37 L2048.83 1259.26 Q2046.38 1260.92 2043.62 1261.76 Q2040.89 1262.59 2037.84 1262.59 Q2029.99 1262.59 2025.48 1257.8 Q2020.96 1252.99 2020.96 1244.67 Q2020.96 1236.34 2025.48 1231.55 Q2029.99 1226.74 2037.84 1226.74 Q2040.94 1226.74 2043.67 1227.57 Q2046.42 1228.38 2048.83 1230.02 Z" fill="#000000" fill-rule="evenodd" fill-opacity="1" /><polyline clip-path="url(#clip230)" style="stroke:#00a9ad; stroke-linecap:butt; stroke-linejoin:round; stroke-width:4; stroke-opacity:1; fill:none" points="
  1793.48,1296.48 1935.05,1296.48 
  "/>
<path clip-path="url(#clip230)" d="M1963.32 1283.04 L1963.32 1296.03 L1969.2 1296.03 Q1972.47 1296.03 1974.25 1294.34 Q1976.03 1292.65 1976.03 1289.52 Q1976.03 1286.42 1974.25 1284.73 Q1972.47 1283.04 1969.2 1283.04 L1963.32 1283.04 M1958.65 1279.2 L1969.2 1279.2 Q1975.01 1279.2 1977.98 1281.84 Q1980.96 1284.45 1980.96 1289.52 Q1980.96 1294.64 1977.98 1297.26 Q1975.01 1299.87 1969.2 1299.87 L1963.32 1299.87 L1963.32 1313.76 L1958.65 1313.76 L1958.65 1279.2 Z" fill="#000000" fill-rule="evenodd" fill-opacity="1" /><path clip-path="url(#clip230)" d="M2001.24 1291.82 Q2000.52 1291.4 1999.67 1291.21 Q1998.83 1291.01 1997.81 1291.01 Q1994.2 1291.01 1992.26 1293.37 Q1990.34 1295.7 1990.34 1300.1 L1990.34 1313.76 L1986.05 1313.76 L1986.05 1287.83 L1990.34 1287.83 L1990.34 1291.86 Q1991.68 1289.5 1993.83 1288.37 Q1995.99 1287.21 1999.06 1287.21 Q1999.5 1287.21 2000.04 1287.28 Q2000.57 1287.33 2001.22 1287.44 L2001.24 1291.82 Z" fill="#000000" fill-rule="evenodd" fill-opacity="1" /><path clip-path="url(#clip230)" d="M2014.71 1290.82 Q2011.29 1290.82 2009.3 1293.51 Q2007.3 1296.17 2007.3 1300.82 Q2007.3 1305.47 2009.27 1308.16 Q2011.26 1310.82 2014.71 1310.82 Q2018.11 1310.82 2020.11 1308.14 Q2022.1 1305.45 2022.1 1300.82 Q2022.1 1296.21 2020.11 1293.53 Q2018.11 1290.82 2014.71 1290.82 M2014.71 1287.21 Q2020.27 1287.21 2023.44 1290.82 Q2026.61 1294.43 2026.61 1300.82 Q2026.61 1307.19 2023.44 1310.82 Q2020.27 1314.43 2014.71 1314.43 Q2009.13 1314.43 2005.96 1310.82 Q2002.81 1307.19 2002.81 1300.82 Q2002.81 1294.43 2005.96 1290.82 Q2009.13 1287.21 2014.71 1287.21 Z" fill="#000000" fill-rule="evenodd" fill-opacity="1" /><path clip-path="url(#clip230)" d="M2053.86 1292.81 Q2055.45 1289.94 2057.67 1288.58 Q2059.9 1287.21 2062.91 1287.21 Q2066.96 1287.21 2069.16 1290.06 Q2071.36 1292.88 2071.36 1298.11 L2071.36 1313.76 L2067.07 1313.76 L2067.07 1298.25 Q2067.07 1294.52 2065.75 1292.72 Q2064.43 1290.91 2061.73 1290.91 Q2058.42 1290.91 2056.49 1293.11 Q2054.57 1295.31 2054.57 1299.11 L2054.57 1313.76 L2050.29 1313.76 L2050.29 1298.25 Q2050.29 1294.5 2048.97 1292.72 Q2047.65 1290.91 2044.9 1290.91 Q2041.63 1290.91 2039.71 1293.14 Q2037.79 1295.33 2037.79 1299.11 L2037.79 1313.76 L2033.51 1313.76 L2033.51 1287.83 L2037.79 1287.83 L2037.79 1291.86 Q2039.25 1289.48 2041.29 1288.34 Q2043.32 1287.21 2046.12 1287.21 Q2048.95 1287.21 2050.92 1288.64 Q2052.91 1290.08 2053.86 1292.81 Z" fill="#000000" fill-rule="evenodd" fill-opacity="1" /><path clip-path="url(#clip230)" d="M2102.03 1299.73 L2102.03 1301.82 L2082.44 1301.82 Q2082.72 1306.21 2085.08 1308.53 Q2087.47 1310.82 2091.7 1310.82 Q2094.16 1310.82 2096.45 1310.22 Q2098.76 1309.62 2101.03 1308.41 L2101.03 1312.44 Q2098.74 1313.41 2096.33 1313.92 Q2093.92 1314.43 2091.45 1314.43 Q2085.24 1314.43 2081.61 1310.82 Q2078 1307.21 2078 1301.05 Q2078 1294.69 2081.42 1290.96 Q2084.87 1287.21 2090.71 1287.21 Q2095.94 1287.21 2098.97 1290.59 Q2102.03 1293.95 2102.03 1299.73 M2097.77 1298.48 Q2097.72 1294.99 2095.8 1292.9 Q2093.9 1290.82 2090.75 1290.82 Q2087.19 1290.82 2085.04 1292.83 Q2082.91 1294.85 2082.58 1298.51 L2097.77 1298.48 Z" fill="#000000" fill-rule="evenodd" fill-opacity="1" /><path clip-path="url(#clip230)" d="M2113.23 1280.47 L2113.23 1287.83 L2122 1287.83 L2122 1291.14 L2113.23 1291.14 L2113.23 1305.22 Q2113.23 1308.39 2114.09 1309.29 Q2114.97 1310.2 2117.63 1310.2 L2122 1310.2 L2122 1313.76 L2117.63 1313.76 Q2112.7 1313.76 2110.82 1311.93 Q2108.95 1310.08 2108.95 1305.22 L2108.95 1291.14 L2105.82 1291.14 L2105.82 1287.83 L2108.95 1287.83 L2108.95 1280.47 L2113.23 1280.47 Z" fill="#000000" fill-rule="evenodd" fill-opacity="1" /><path clip-path="url(#clip230)" d="M2149.16 1298.11 L2149.16 1313.76 L2144.9 1313.76 L2144.9 1298.25 Q2144.9 1294.57 2143.46 1292.74 Q2142.03 1290.91 2139.16 1290.91 Q2135.71 1290.91 2133.72 1293.11 Q2131.73 1295.31 2131.73 1299.11 L2131.73 1313.76 L2127.44 1313.76 L2127.44 1277.74 L2131.73 1277.74 L2131.73 1291.86 Q2133.25 1289.52 2135.31 1288.37 Q2137.4 1287.21 2140.1 1287.21 Q2144.57 1287.21 2146.86 1289.99 Q2149.16 1292.74 2149.16 1298.11 Z" fill="#000000" fill-rule="evenodd" fill-opacity="1" /><path clip-path="url(#clip230)" d="M2179.83 1299.73 L2179.83 1301.82 L2160.24 1301.82 Q2160.52 1306.21 2162.88 1308.53 Q2165.27 1310.82 2169.5 1310.82 Q2171.96 1310.82 2174.25 1310.22 Q2176.56 1309.62 2178.83 1308.41 L2178.83 1312.44 Q2176.54 1313.41 2174.13 1313.92 Q2171.72 1314.43 2169.25 1314.43 Q2163.04 1314.43 2159.41 1310.82 Q2155.8 1307.21 2155.8 1301.05 Q2155.8 1294.69 2159.22 1290.96 Q2162.67 1287.21 2168.51 1287.21 Q2173.74 1287.21 2176.77 1290.59 Q2179.83 1293.95 2179.83 1299.73 M2175.57 1298.48 Q2175.52 1294.99 2173.6 1292.9 Q2171.7 1290.82 2168.55 1290.82 Q2164.99 1290.82 2162.84 1292.83 Q2160.71 1294.85 2160.38 1298.51 L2175.57 1298.48 Z" fill="#000000" fill-rule="evenodd" fill-opacity="1" /><path clip-path="url(#clip230)" d="M2186.38 1303.53 L2186.38 1287.83 L2190.64 1287.83 L2190.64 1303.37 Q2190.64 1307.05 2192.07 1308.9 Q2193.51 1310.73 2196.38 1310.73 Q2199.83 1310.73 2201.82 1308.53 Q2203.83 1306.33 2203.83 1302.53 L2203.83 1287.83 L2208.09 1287.83 L2208.09 1313.76 L2203.83 1313.76 L2203.83 1309.78 Q2202.28 1312.14 2200.22 1313.3 Q2198.18 1314.43 2195.47 1314.43 Q2191.01 1314.43 2188.69 1311.65 Q2186.38 1308.88 2186.38 1303.53 M2197.1 1287.21 L2197.1 1287.21 Z" fill="#000000" fill-rule="evenodd" fill-opacity="1" /><path clip-path="url(#clip230)" d="M2233.39 1288.6 L2233.39 1292.63 Q2231.59 1291.7 2229.64 1291.24 Q2227.7 1290.77 2225.61 1290.77 Q2222.44 1290.77 2220.85 1291.75 Q2219.27 1292.72 2219.27 1294.66 Q2219.27 1296.14 2220.41 1297 Q2221.54 1297.83 2224.97 1298.6 L2226.42 1298.92 Q2230.96 1299.89 2232.86 1301.68 Q2234.78 1303.44 2234.78 1306.61 Q2234.78 1310.22 2231.91 1312.33 Q2229.06 1314.43 2224.06 1314.43 Q2221.98 1314.43 2219.71 1314.01 Q2217.47 1313.62 2214.97 1312.81 L2214.97 1308.41 Q2217.33 1309.64 2219.62 1310.26 Q2221.91 1310.87 2224.16 1310.87 Q2227.16 1310.87 2228.78 1309.85 Q2230.41 1308.81 2230.41 1306.93 Q2230.41 1305.2 2229.22 1304.27 Q2228.07 1303.34 2224.11 1302.49 L2222.63 1302.14 Q2218.67 1301.31 2216.91 1299.59 Q2215.15 1297.86 2215.15 1294.85 Q2215.15 1291.19 2217.74 1289.2 Q2220.34 1287.21 2225.1 1287.21 Q2227.47 1287.21 2229.55 1287.56 Q2231.63 1287.9 2233.39 1288.6 Z" fill="#000000" fill-rule="evenodd" fill-opacity="1" /><polyline clip-path="url(#clip230)" style="stroke:#009af9; stroke-linecap:butt; stroke-linejoin:round; stroke-width:4; stroke-opacity:1; fill:none" points="
  1793.48,1348.32 1935.05,1348.32 
  "/>
<path clip-path="url(#clip230)" d="M1958.65 1331.04 L1963.32 1331.04 L1963.32 1361.67 L1980.15 1361.67 L1980.15 1365.6 L1958.65 1365.6 L1958.65 1331.04 Z" fill="#000000" fill-rule="evenodd" fill-opacity="1" /><path clip-path="url(#clip230)" d="M2006.22 1351.57 L2006.22 1353.66 L1986.63 1353.66 Q1986.91 1358.05 1989.27 1360.37 Q1991.66 1362.66 1995.89 1362.66 Q1998.35 1362.66 2000.64 1362.06 Q2002.95 1361.46 2005.22 1360.25 L2005.22 1364.28 Q2002.93 1365.25 2000.52 1365.76 Q1998.11 1366.27 1995.64 1366.27 Q1989.43 1366.27 1985.8 1362.66 Q1982.19 1359.05 1982.19 1352.89 Q1982.19 1346.53 1985.61 1342.8 Q1989.06 1339.05 1994.9 1339.05 Q2000.13 1339.05 2003.16 1342.43 Q2006.22 1345.79 2006.22 1351.57 M2001.96 1350.32 Q2001.91 1346.83 1999.99 1344.74 Q1998.09 1342.66 1994.94 1342.66 Q1991.38 1342.66 1989.23 1344.67 Q1987.1 1346.69 1986.77 1350.35 L2001.96 1350.32 Z" fill="#000000" fill-rule="evenodd" fill-opacity="1" /><path clip-path="url(#clip230)" d="M2024.99 1352.57 Q2019.83 1352.57 2017.84 1353.75 Q2015.85 1354.93 2015.85 1357.78 Q2015.85 1360.04 2017.33 1361.39 Q2018.83 1362.71 2021.4 1362.71 Q2024.94 1362.71 2027.07 1360.21 Q2029.23 1357.68 2029.23 1353.52 L2029.23 1352.57 L2024.99 1352.57 M2033.48 1350.81 L2033.48 1365.6 L2029.23 1365.6 L2029.23 1361.67 Q2027.77 1364.03 2025.59 1365.16 Q2023.42 1366.27 2020.27 1366.27 Q2016.29 1366.27 2013.92 1364.05 Q2011.59 1361.8 2011.59 1358.05 Q2011.59 1353.68 2014.5 1351.46 Q2017.44 1349.23 2023.25 1349.23 L2029.23 1349.23 L2029.23 1348.82 Q2029.23 1345.88 2027.28 1344.28 Q2025.36 1342.66 2021.86 1342.66 Q2019.64 1342.66 2017.54 1343.19 Q2015.43 1343.73 2013.49 1344.79 L2013.49 1340.86 Q2015.82 1339.95 2018.02 1339.51 Q2020.22 1339.05 2022.3 1339.05 Q2027.93 1339.05 2030.71 1341.97 Q2033.48 1344.88 2033.48 1350.81 Z" fill="#000000" fill-rule="evenodd" fill-opacity="1" /><path clip-path="url(#clip230)" d="M2057.28 1343.66 Q2056.56 1343.24 2055.71 1343.05 Q2054.87 1342.85 2053.86 1342.85 Q2050.24 1342.85 2048.3 1345.21 Q2046.38 1347.54 2046.38 1351.94 L2046.38 1365.6 L2042.1 1365.6 L2042.1 1339.67 L2046.38 1339.67 L2046.38 1343.7 Q2047.72 1341.34 2049.87 1340.21 Q2052.03 1339.05 2055.11 1339.05 Q2055.54 1339.05 2056.08 1339.12 Q2056.61 1339.17 2057.26 1339.28 L2057.28 1343.66 Z" fill="#000000" fill-rule="evenodd" fill-opacity="1" /><path clip-path="url(#clip230)" d="M2082.47 1349.95 L2082.47 1365.6 L2078.21 1365.6 L2078.21 1350.09 Q2078.21 1346.41 2076.77 1344.58 Q2075.34 1342.75 2072.47 1342.75 Q2069.02 1342.75 2067.03 1344.95 Q2065.04 1347.15 2065.04 1350.95 L2065.04 1365.6 L2060.75 1365.6 L2060.75 1339.67 L2065.04 1339.67 L2065.04 1343.7 Q2066.56 1341.36 2068.62 1340.21 Q2070.71 1339.05 2073.42 1339.05 Q2077.88 1339.05 2080.17 1341.83 Q2082.47 1344.58 2082.47 1349.95 Z" fill="#000000" fill-rule="evenodd" fill-opacity="1" /><path clip-path="url(#clip230)" d="M2107.54 1349.4 Q2109.04 1349.91 2110.45 1351.57 Q2111.89 1353.24 2113.32 1356.16 L2118.07 1365.6 L2113.04 1365.6 L2108.62 1356.73 Q2106.91 1353.26 2105.29 1352.13 Q2103.69 1350.99 2100.92 1350.99 L2095.82 1350.99 L2095.82 1365.6 L2091.15 1365.6 L2091.15 1331.04 L2101.7 1331.04 Q2107.63 1331.04 2110.54 1333.52 Q2113.46 1335.99 2113.46 1340.99 Q2113.46 1344.26 2111.93 1346.41 Q2110.43 1348.56 2107.54 1349.4 M2095.82 1334.88 L2095.82 1347.15 L2101.7 1347.15 Q2105.08 1347.15 2106.79 1345.6 Q2108.53 1344.03 2108.53 1340.99 Q2108.53 1337.96 2106.79 1336.43 Q2105.08 1334.88 2101.7 1334.88 L2095.82 1334.88 Z" fill="#000000" fill-rule="evenodd" fill-opacity="1" /><path clip-path="url(#clip230)" d="M2128.76 1334.88 L2128.76 1347.87 L2134.64 1347.87 Q2137.91 1347.87 2139.69 1346.18 Q2141.47 1344.49 2141.47 1341.36 Q2141.47 1338.26 2139.69 1336.57 Q2137.91 1334.88 2134.64 1334.88 L2128.76 1334.88 M2124.09 1331.04 L2134.64 1331.04 Q2140.45 1331.04 2143.41 1333.68 Q2146.4 1336.29 2146.4 1341.36 Q2146.4 1346.48 2143.41 1349.1 Q2140.45 1351.71 2134.64 1351.71 L2128.76 1351.71 L2128.76 1365.6 L2124.09 1365.6 L2124.09 1331.04 Z" fill="#000000" fill-rule="evenodd" fill-opacity="1" /></svg>
