<?xml version="1.0" encoding="utf-8"?>
<svg xmlns="http://www.w3.org/2000/svg" xmlns:xlink="http://www.w3.org/1999/xlink" width="600" height="400" viewBox="0 0 2400 1600">
<defs>
  <clipPath id="clip800">
    <rect x="0" y="0" width="2400" height="1600"/>
  </clipPath>
</defs>
<path clip-path="url(#clip800)" d="
M0 1600 L2400 1600 L2400 0 L0 0  Z
  " fill="#ffffff" fill-rule="evenodd" fill-opacity="1"/>
<defs>
  <clipPath id="clip801">
    <rect x="480" y="0" width="1681" height="1600"/>
  </clipPath>
</defs>
<path clip-path="url(#clip800)" d="
M316.807 1422.18 L2352.76 1422.18 L2352.76 106.192 L316.807 106.192  Z
  " fill="#eaeaea" fill-rule="evenodd" fill-opacity="1"/>
<defs>
  <clipPath id="clip802">
    <rect x="316" y="106" width="2037" height="1317"/>
  </clipPath>
</defs>
<polyline clip-path="url(#clip802)" style="stroke:#ffffff; stroke-linecap:butt; stroke-linejoin:round; stroke-width:4; stroke-opacity:1; fill:none" points="
  374.428,1422.18 374.428,106.192 
  "/>
<polyline clip-path="url(#clip802)" style="stroke:#ffffff; stroke-linecap:butt; stroke-linejoin:round; stroke-width:4; stroke-opacity:1; fill:none" points="
  522.175,1422.18 522.175,106.192 
  "/>
<polyline clip-path="url(#clip802)" style="stroke:#ffffff; stroke-linecap:butt; stroke-linejoin:round; stroke-width:4; stroke-opacity:1; fill:none" points="
  669.921,1422.18 669.921,106.192 
  "/>
<polyline clip-path="url(#clip802)" style="stroke:#ffffff; stroke-linecap:butt; stroke-linejoin:round; stroke-width:4; stroke-opacity:1; fill:none" points="
  817.668,1422.18 817.668,106.192 
  "/>
<polyline clip-path="url(#clip802)" style="stroke:#ffffff; stroke-linecap:butt; stroke-linejoin:round; stroke-width:4; stroke-opacity:1; fill:none" points="
  965.415,1422.18 965.415,106.192 
  "/>
<polyline clip-path="url(#clip802)" style="stroke:#ffffff; stroke-linecap:butt; stroke-linejoin:round; stroke-width:4; stroke-opacity:1; fill:none" points="
  1113.16,1422.18 1113.16,106.192 
  "/>
<polyline clip-path="url(#clip802)" style="stroke:#ffffff; stroke-linecap:butt; stroke-linejoin:round; stroke-width:4; stroke-opacity:1; fill:none" points="
  1260.91,1422.18 1260.91,106.192 
  "/>
<polyline clip-path="url(#clip802)" style="stroke:#ffffff; stroke-linecap:butt; stroke-linejoin:round; stroke-width:4; stroke-opacity:1; fill:none" points="
  1408.65,1422.18 1408.65,106.192 
  "/>
<polyline clip-path="url(#clip802)" style="stroke:#ffffff; stroke-linecap:butt; stroke-linejoin:round; stroke-width:4; stroke-opacity:1; fill:none" points="
  1556.4,1422.18 1556.4,106.192 
  "/>
<polyline clip-path="url(#clip802)" style="stroke:#ffffff; stroke-linecap:butt; stroke-linejoin:round; stroke-width:4; stroke-opacity:1; fill:none" points="
  1704.15,1422.18 1704.15,106.192 
  "/>
<polyline clip-path="url(#clip802)" style="stroke:#ffffff; stroke-linecap:butt; stroke-linejoin:round; stroke-width:4; stroke-opacity:1; fill:none" points="
  1851.89,1422.18 1851.89,106.192 
  "/>
<polyline clip-path="url(#clip802)" style="stroke:#ffffff; stroke-linecap:butt; stroke-linejoin:round; stroke-width:4; stroke-opacity:1; fill:none" points="
  1999.64,1422.18 1999.64,106.192 
  "/>
<polyline clip-path="url(#clip802)" style="stroke:#ffffff; stroke-linecap:butt; stroke-linejoin:round; stroke-width:4; stroke-opacity:1; fill:none" points="
  2147.39,1422.18 2147.39,106.192 
  "/>
<polyline clip-path="url(#clip802)" style="stroke:#ffffff; stroke-linecap:butt; stroke-linejoin:round; stroke-width:4; stroke-opacity:1; fill:none" points="
  2295.13,1422.18 2295.13,106.192 
  "/>
<polyline clip-path="url(#clip802)" style="stroke:#ffffff; stroke-linecap:butt; stroke-linejoin:round; stroke-width:2; stroke-opacity:1; fill:none" points="
  448.301,1422.18 448.301,106.192 
  "/>
<polyline clip-path="url(#clip802)" style="stroke:#ffffff; stroke-linecap:butt; stroke-linejoin:round; stroke-width:2; stroke-opacity:1; fill:none" points="
  596.048,1422.18 596.048,106.192 
  "/>
<polyline clip-path="url(#clip802)" style="stroke:#ffffff; stroke-linecap:butt; stroke-linejoin:round; stroke-width:2; stroke-opacity:1; fill:none" points="
  743.795,1422.18 743.795,106.192 
  "/>
<polyline clip-path="url(#clip802)" style="stroke:#ffffff; stroke-linecap:butt; stroke-linejoin:round; stroke-width:2; stroke-opacity:1; fill:none" points="
  891.541,1422.18 891.541,106.192 
  "/>
<polyline clip-path="url(#clip802)" style="stroke:#ffffff; stroke-linecap:butt; stroke-linejoin:round; stroke-width:2; stroke-opacity:1; fill:none" points="
  1039.29,1422.18 1039.29,106.192 
  "/>
<polyline clip-path="url(#clip802)" style="stroke:#ffffff; stroke-linecap:butt; stroke-linejoin:round; stroke-width:2; stroke-opacity:1; fill:none" points="
  1187.03,1422.18 1187.03,106.192 
  "/>
<polyline clip-path="url(#clip802)" style="stroke:#ffffff; stroke-linecap:butt; stroke-linejoin:round; stroke-width:2; stroke-opacity:1; fill:none" points="
  1334.78,1422.18 1334.78,106.192 
  "/>
<polyline clip-path="url(#clip802)" style="stroke:#ffffff; stroke-linecap:butt; stroke-linejoin:round; stroke-width:2; stroke-opacity:1; fill:none" points="
  1482.53,1422.18 1482.53,106.192 
  "/>
<polyline clip-path="url(#clip802)" style="stroke:#ffffff; stroke-linecap:butt; stroke-linejoin:round; stroke-width:2; stroke-opacity:1; fill:none" points="
  1630.27,1422.18 1630.27,106.192 
  "/>
<polyline clip-path="url(#clip802)" style="stroke:#ffffff; stroke-linecap:butt; stroke-linejoin:round; stroke-width:2; stroke-opacity:1; fill:none" points="
  1778.02,1422.18 1778.02,106.192 
  "/>
<polyline clip-path="url(#clip802)" style="stroke:#ffffff; stroke-linecap:butt; stroke-linejoin:round; stroke-width:2; stroke-opacity:1; fill:none" points="
  1925.77,1422.18 1925.77,106.192 
  "/>
<polyline clip-path="url(#clip802)" style="stroke:#ffffff; stroke-linecap:butt; stroke-linejoin:round; stroke-width:2; stroke-opacity:1; fill:none" points="
  2073.51,1422.18 2073.51,106.192 
  "/>
<polyline clip-path="url(#clip802)" style="stroke:#ffffff; stroke-linecap:butt; stroke-linejoin:round; stroke-width:2; stroke-opacity:1; fill:none" points="
  2221.26,1422.18 2221.26,106.192 
  "/>
<polyline clip-path="url(#clip800)" style="stroke:#ffffff; stroke-linecap:butt; stroke-linejoin:round; stroke-width:4; stroke-opacity:1; fill:none" points="
  316.807,1422.18 2352.76,1422.18 
  "/>
<polyline clip-path="url(#clip800)" style="stroke:#333333; stroke-linecap:butt; stroke-linejoin:round; stroke-width:4; stroke-opacity:1; fill:none" points="
  374.428,1422.18 374.428,1441.07 
  "/>
<polyline clip-path="url(#clip800)" style="stroke:#333333; stroke-linecap:butt; stroke-linejoin:round; stroke-width:4; stroke-opacity:1; fill:none" points="
  522.175,1422.18 522.175,1441.07 
  "/>
<polyline clip-path="url(#clip800)" style="stroke:#333333; stroke-linecap:butt; stroke-linejoin:round; stroke-width:4; stroke-opacity:1; fill:none" points="
  669.921,1422.18 669.921,1441.07 
  "/>
<polyline clip-path="url(#clip800)" style="stroke:#333333; stroke-linecap:butt; stroke-linejoin:round; stroke-width:4; stroke-opacity:1; fill:none" points="
  817.668,1422.18 817.668,1441.07 
  "/>
<polyline clip-path="url(#clip800)" style="stroke:#333333; stroke-linecap:butt; stroke-linejoin:round; stroke-width:4; stroke-opacity:1; fill:none" points="
  965.415,1422.18 965.415,1441.07 
  "/>
<polyline clip-path="url(#clip800)" style="stroke:#333333; stroke-linecap:butt; stroke-linejoin:round; stroke-width:4; stroke-opacity:1; fill:none" points="
  1113.16,1422.18 1113.16,1441.07 
  "/>
<polyline clip-path="url(#clip800)" style="stroke:#333333; stroke-linecap:butt; stroke-linejoin:round; stroke-width:4; stroke-opacity:1; fill:none" points="
  1260.91,1422.18 1260.91,1441.07 
  "/>
<polyline clip-path="url(#clip800)" style="stroke:#333333; stroke-linecap:butt; stroke-linejoin:round; stroke-width:4; stroke-opacity:1; fill:none" points="
  1408.65,1422.18 1408.65,1441.07 
  "/>
<polyline clip-path="url(#clip800)" style="stroke:#333333; stroke-linecap:butt; stroke-linejoin:round; stroke-width:4; stroke-opacity:1; fill:none" points="
  1556.4,1422.18 1556.4,1441.07 
  "/>
<polyline clip-path="url(#clip800)" style="stroke:#333333; stroke-linecap:butt; stroke-linejoin:round; stroke-width:4; stroke-opacity:1; fill:none" points="
  1704.15,1422.18 1704.15,1441.07 
  "/>
<polyline clip-path="url(#clip800)" style="stroke:#333333; stroke-linecap:butt; stroke-linejoin:round; stroke-width:4; stroke-opacity:1; fill:none" points="
  1851.89,1422.18 1851.89,1441.07 
  "/>
<polyline clip-path="url(#clip800)" style="stroke:#333333; stroke-linecap:butt; stroke-linejoin:round; stroke-width:4; stroke-opacity:1; fill:none" points="
  1999.64,1422.18 1999.64,1441.07 
  "/>
<polyline clip-path="url(#clip800)" style="stroke:#333333; stroke-linecap:butt; stroke-linejoin:round; stroke-width:4; stroke-opacity:1; fill:none" points="
  2147.39,1422.18 2147.39,1441.07 
  "/>
<polyline clip-path="url(#clip800)" style="stroke:#333333; stroke-linecap:butt; stroke-linejoin:round; stroke-width:4; stroke-opacity:1; fill:none" points="
  2295.13,1422.18 2295.13,1441.07 
  "/>
<polyline clip-path="url(#clip800)" style="stroke:#333333; stroke-linecap:butt; stroke-linejoin:round; stroke-width:4; stroke-opacity:1; fill:none" points="
  448.301,1422.18 448.301,1431.63 
  "/>
<polyline clip-path="url(#clip800)" style="stroke:#333333; stroke-linecap:butt; stroke-linejoin:round; stroke-width:4; stroke-opacity:1; fill:none" points="
  596.048,1422.18 596.048,1431.63 
  "/>
<polyline clip-path="url(#clip800)" style="stroke:#333333; stroke-linecap:butt; stroke-linejoin:round; stroke-width:4; stroke-opacity:1; fill:none" points="
  743.795,1422.18 743.795,1431.63 
  "/>
<polyline clip-path="url(#clip800)" style="stroke:#333333; stroke-linecap:butt; stroke-linejoin:round; stroke-width:4; stroke-opacity:1; fill:none" points="
  891.541,1422.18 891.541,1431.63 
  "/>
<polyline clip-path="url(#clip800)" style="stroke:#333333; stroke-linecap:butt; stroke-linejoin:round; stroke-width:4; stroke-opacity:1; fill:none" points="
  1039.29,1422.18 1039.29,1431.63 
  "/>
<polyline clip-path="url(#clip800)" style="stroke:#333333; stroke-linecap:butt; stroke-linejoin:round; stroke-width:4; stroke-opacity:1; fill:none" points="
  1187.03,1422.18 1187.03,1431.63 
  "/>
<polyline clip-path="url(#clip800)" style="stroke:#333333; stroke-linecap:butt; stroke-linejoin:round; stroke-width:4; stroke-opacity:1; fill:none" points="
  1334.78,1422.18 1334.78,1431.63 
  "/>
<polyline clip-path="url(#clip800)" style="stroke:#333333; stroke-linecap:butt; stroke-linejoin:round; stroke-width:4; stroke-opacity:1; fill:none" points="
  1482.53,1422.18 1482.53,1431.63 
  "/>
<polyline clip-path="url(#clip800)" style="stroke:#333333; stroke-linecap:butt; stroke-linejoin:round; stroke-width:4; stroke-opacity:1; fill:none" points="
  1630.27,1422.18 1630.27,1431.63 
  "/>
<polyline clip-path="url(#clip800)" style="stroke:#333333; stroke-linecap:butt; stroke-linejoin:round; stroke-width:4; stroke-opacity:1; fill:none" points="
  1778.02,1422.18 1778.02,1431.63 
  "/>
<polyline clip-path="url(#clip800)" style="stroke:#333333; stroke-linecap:butt; stroke-linejoin:round; stroke-width:4; stroke-opacity:1; fill:none" points="
  1925.77,1422.18 1925.77,1431.63 
  "/>
<polyline clip-path="url(#clip800)" style="stroke:#333333; stroke-linecap:butt; stroke-linejoin:round; stroke-width:4; stroke-opacity:1; fill:none" points="
  2073.51,1422.18 2073.51,1431.63 
  "/>
<polyline clip-path="url(#clip800)" style="stroke:#333333; stroke-linecap:butt; stroke-linejoin:round; stroke-width:4; stroke-opacity:1; fill:none" points="
  2221.26,1422.18 2221.26,1431.63 
  "/>
<path clip-path="url(#clip800)" d="M388.131 1463.13 Q386.777 1460.78 383.776 1460.93 Q380.798 1461.09 376.168 1463.76 Q371.552 1466.43 369.914 1468.94 Q368.299 1471.45 369.653 1473.8 Q371.016 1476.16 373.993 1476 Q376.995 1475.85 381.61 1473.19 Q386.241 1470.52 387.856 1468 Q389.494 1465.49 388.131 1463.13 M390.537 1461.74 Q392.716 1465.51 390.869 1469.23 Q389.047 1472.94 383.364 1476.23 Q377.696 1479.5 373.549 1479.23 Q369.426 1478.96 367.247 1475.19 Q365.069 1471.41 366.891 1467.69 Q368.737 1463.98 374.405 1460.71 Q380.089 1457.43 384.212 1457.69 Q388.358 1457.97 390.537 1461.74 Z" fill="#4c4c4c" fill-rule="evenodd" fill-opacity="1" /><path clip-path="url(#clip800)" d="M513.759 1466.14 L516.623 1471.1 L533.748 1461.21 L529.549 1456.44 L532.316 1454.84 L536.497 1459.58 L538.251 1462.62 L518.359 1474.11 L521.224 1479.07 L518.668 1480.54 L511.203 1467.61 L513.759 1466.14 Z" fill="#4c4c4c" fill-rule="evenodd" fill-opacity="1" /><path clip-path="url(#clip800)" d="M546.407 1481.37 Q545.053 1479.02 542.052 1479.17 Q539.075 1479.33 534.444 1482 Q529.828 1484.66 528.19 1487.17 Q526.575 1489.69 527.929 1492.04 Q529.292 1494.4 532.27 1494.24 Q535.271 1494.09 539.886 1491.43 Q544.517 1488.75 546.132 1486.24 Q547.77 1483.73 546.407 1481.37 M548.813 1479.98 Q550.992 1483.75 549.146 1487.46 Q547.323 1491.18 541.64 1494.46 Q535.972 1497.74 531.825 1497.46 Q527.702 1497.2 525.524 1493.42 Q523.345 1489.65 525.167 1485.93 Q527.013 1482.22 532.682 1478.95 Q538.365 1475.67 542.488 1475.93 Q546.634 1476.2 548.813 1479.98 Z" fill="#4c4c4c" fill-rule="evenodd" fill-opacity="1" /><path clip-path="url(#clip800)" d="M663.363 1469.35 L669.483 1479.95 L666.927 1481.43 L658.698 1467.18 L661.254 1465.7 Q664.041 1466.4 668.767 1467.64 Q673.516 1468.89 674.831 1469.15 Q677.312 1469.66 678.769 1469.58 Q680.251 1469.51 681.348 1468.87 Q683.137 1467.84 683.536 1465.93 Q683.943 1464.03 682.78 1462.01 Q681.955 1460.59 680.539 1459.28 Q679.131 1457.99 677.082 1456.76 L680.149 1454.99 Q681.945 1456.4 683.241 1457.78 Q684.537 1459.15 685.301 1460.48 Q687.315 1463.97 686.769 1467.05 Q686.223 1470.13 683.306 1471.81 Q681.923 1472.61 680.371 1472.81 Q678.843 1473.01 676.369 1472.61 Q675.716 1472.49 672.463 1471.68 Q669.225 1470.86 663.363 1469.35 Z" fill="#4c4c4c" fill-rule="evenodd" fill-opacity="1" /><path clip-path="url(#clip800)" d="M694.805 1482.49 Q693.451 1480.15 690.45 1480.3 Q687.472 1480.45 682.841 1483.13 Q678.226 1485.79 676.587 1488.3 Q674.973 1490.82 676.327 1493.16 Q677.69 1495.52 680.667 1495.37 Q683.668 1495.22 688.284 1492.55 Q692.915 1489.88 694.53 1487.36 Q696.168 1484.86 694.805 1482.49 M697.211 1481.11 Q699.389 1484.88 697.543 1488.59 Q695.721 1492.31 690.038 1495.59 Q684.369 1498.86 680.223 1498.59 Q676.1 1498.33 673.921 1494.55 Q671.742 1490.78 673.565 1487.06 Q675.411 1483.35 681.079 1480.08 Q686.763 1476.79 690.885 1477.06 Q695.032 1477.33 697.211 1481.11 Z" fill="#4c4c4c" fill-rule="evenodd" fill-opacity="1" /><path clip-path="url(#clip800)" d="M824.407 1470.34 Q825.2 1472.79 824.429 1474.86 Q823.668 1476.94 821.503 1478.19 Q818.18 1480.11 815.041 1478.87 Q811.902 1477.64 809.472 1473.43 Q808.656 1472.01 808.074 1470.35 Q807.485 1468.7 807.121 1466.79 L810.053 1465.09 Q810.045 1466.78 810.537 1468.5 Q811.03 1470.22 811.976 1471.86 Q813.625 1474.72 815.612 1475.56 Q817.608 1476.41 819.758 1475.17 Q821.742 1474.02 822.048 1471.98 Q822.377 1469.95 820.944 1467.47 L819.434 1464.85 L821.93 1463.41 L823.51 1466.14 Q824.803 1468.38 826.376 1469.06 Q827.964 1469.73 829.648 1468.76 Q831.377 1467.76 831.582 1465.99 Q831.811 1464.24 830.492 1461.95 Q829.771 1460.71 828.676 1459.43 Q827.581 1458.16 826.02 1456.78 L828.726 1455.21 Q830.205 1456.67 831.314 1458.03 Q832.431 1459.41 833.204 1460.75 Q835.2 1464.21 834.785 1467.13 Q834.384 1470.05 831.708 1471.6 Q829.844 1472.67 827.935 1472.35 Q826.04 1472.02 824.407 1470.34 Z" fill="#4c4c4c" fill-rule="evenodd" fill-opacity="1" /><path clip-path="url(#clip800)" d="M842.5 1482.4 Q841.145 1480.06 838.144 1480.21 Q835.167 1480.36 830.536 1483.04 Q825.92 1485.7 824.282 1488.21 Q822.667 1490.73 824.022 1493.07 Q825.384 1495.43 828.362 1495.28 Q831.363 1495.13 835.979 1492.46 Q840.61 1489.79 842.224 1487.27 Q843.862 1484.76 842.5 1482.4 M844.905 1481.02 Q847.084 1484.79 845.238 1488.5 Q843.415 1492.22 837.732 1495.5 Q832.064 1498.77 827.917 1498.5 Q823.795 1498.24 821.616 1494.46 Q819.437 1490.69 821.26 1486.97 Q823.106 1483.26 828.774 1479.98 Q834.457 1476.7 838.58 1476.97 Q842.726 1477.24 844.905 1481.02 Z" fill="#4c4c4c" fill-rule="evenodd" fill-opacity="1" /><path clip-path="url(#clip800)" d="M979.843 1465.88 L963.433 1465.13 L967.86 1472.8 L979.843 1465.88 M982.029 1463.55 L984.234 1467.37 L969.605 1475.82 L971.454 1479.02 L968.928 1480.48 L967.079 1477.28 L961.786 1480.33 L960.042 1477.31 L965.334 1474.25 L959.483 1464.12 L962.415 1462.43 L982.029 1463.55 Z" fill="#4c4c4c" fill-rule="evenodd" fill-opacity="1" /><path clip-path="url(#clip800)" d="M990.732 1483.25 Q989.378 1480.9 986.377 1481.05 Q983.4 1481.21 978.769 1483.88 Q974.153 1486.54 972.515 1489.05 Q970.9 1491.57 972.254 1493.91 Q973.617 1496.28 976.595 1496.12 Q979.596 1495.97 984.211 1493.31 Q988.842 1490.63 990.457 1488.12 Q992.095 1485.61 990.732 1483.25 M993.138 1481.86 Q995.317 1485.63 993.471 1489.34 Q991.648 1493.06 985.965 1496.34 Q980.297 1499.62 976.15 1499.34 Q972.027 1499.08 969.849 1495.3 Q967.67 1491.53 969.492 1487.81 Q971.338 1484.1 977.007 1480.83 Q982.69 1477.55 986.813 1477.81 Q990.959 1478.08 993.138 1481.86 Z" fill="#4c4c4c" fill-rule="evenodd" fill-opacity="1" /><path clip-path="url(#clip800)" d="M1124.93 1455.16 L1131.82 1467.09 L1129.26 1468.56 L1123.98 1459.42 L1118.48 1462.6 Q1119.09 1463.13 1119.57 1463.73 Q1120.08 1464.32 1120.46 1464.98 Q1122.63 1468.74 1121.84 1472.13 Q1121.04 1475.51 1117.52 1477.54 Q1113.9 1479.63 1110.58 1478.54 Q1107.28 1477.44 1104.91 1473.34 Q1104.1 1471.92 1103.49 1470.31 Q1102.89 1468.71 1102.46 1466.87 L1105.52 1465.11 Q1105.56 1466.89 1106.03 1468.54 Q1106.51 1470.19 1107.43 1471.8 Q1108.94 1474.4 1111.18 1475.13 Q1113.43 1475.86 1115.77 1474.51 Q1118.12 1473.15 1118.61 1470.84 Q1119.1 1468.53 1117.6 1465.93 Q1116.89 1464.72 1115.92 1463.65 Q1114.96 1462.61 1113.66 1461.67 L1124.93 1455.16 Z" fill="#4c4c4c" fill-rule="evenodd" fill-opacity="1" /><path clip-path="url(#clip800)" d="M1137.98 1482.37 Q1136.62 1480.03 1133.62 1480.18 Q1130.64 1480.33 1126.01 1483.01 Q1121.4 1485.67 1119.76 1488.18 Q1118.14 1490.7 1119.5 1493.04 Q1120.86 1495.4 1123.84 1495.25 Q1126.84 1495.1 1131.45 1492.43 Q1136.09 1489.76 1137.7 1487.24 Q1139.34 1484.73 1137.98 1482.37 M1140.38 1480.99 Q1142.56 1484.76 1140.71 1488.47 Q1138.89 1492.19 1133.21 1495.47 Q1127.54 1498.74 1123.39 1498.47 Q1119.27 1498.21 1117.09 1494.43 Q1114.91 1490.66 1116.74 1486.94 Q1118.58 1483.23 1124.25 1479.95 Q1129.93 1476.67 1134.06 1476.94 Q1138.2 1477.21 1140.38 1480.99 Z" fill="#4c4c4c" fill-rule="evenodd" fill-opacity="1" /><path clip-path="url(#clip800)" d="M1266.75 1468.01 Q1265.56 1465.97 1263.47 1465.57 Q1261.39 1465.19 1258.95 1466.6 Q1256.53 1467.99 1255.8 1470 Q1255.1 1472.01 1256.28 1474.05 Q1257.46 1476.1 1259.55 1476.48 Q1261.65 1476.87 1264.07 1475.47 Q1266.51 1474.06 1267.21 1472.05 Q1267.93 1470.06 1266.75 1468.01 M1279.74 1468.55 L1276.98 1470.14 Q1276.86 1468.69 1276.47 1467.35 Q1276.08 1466.03 1275.42 1464.89 Q1273.69 1461.88 1270.74 1461.46 Q1267.8 1461.05 1263.56 1463.19 Q1265.38 1463.33 1266.85 1464.26 Q1268.33 1465.19 1269.25 1466.8 Q1271.21 1470.19 1270.28 1473.33 Q1269.37 1476.48 1265.84 1478.52 Q1262.38 1480.52 1259.11 1479.68 Q1255.84 1478.84 1253.88 1475.44 Q1251.63 1471.55 1253.41 1467.77 Q1255.22 1463.98 1260.89 1460.71 Q1266.21 1457.64 1270.82 1458.34 Q1275.45 1459.03 1277.91 1463.29 Q1278.57 1464.43 1279.01 1465.72 Q1279.47 1467.02 1279.74 1468.55 Z" fill="#4c4c4c" fill-rule="evenodd" fill-opacity="1" /><path clip-path="url(#clip800)" d="M1285.85 1482.6 Q1284.5 1480.25 1281.5 1480.4 Q1278.52 1480.56 1273.89 1483.23 Q1269.27 1485.9 1267.63 1488.41 Q1266.02 1490.92 1267.37 1493.27 Q1268.74 1495.63 1271.71 1495.47 Q1274.72 1495.32 1279.33 1492.66 Q1283.96 1489.99 1285.58 1487.47 Q1287.22 1484.96 1285.85 1482.6 M1288.26 1481.21 Q1290.44 1484.98 1288.59 1488.7 Q1286.77 1492.42 1281.09 1495.7 Q1275.42 1498.97 1271.27 1498.7 Q1267.15 1498.43 1264.97 1494.66 Q1262.79 1490.88 1264.61 1487.16 Q1266.46 1483.45 1272.13 1480.18 Q1277.81 1476.9 1281.93 1477.16 Q1286.08 1477.44 1288.26 1481.21 Z" fill="#4c4c4c" fill-rule="evenodd" fill-opacity="1" /><path clip-path="url(#clip800)" d="M1419.88 1454.22 L1428.21 1468.65 L1426.92 1469.4 L1401.06 1473.46 L1399.23 1470.29 L1423.55 1466.47 L1417.32 1455.69 L1419.88 1454.22 Z" fill="#4c4c4c" fill-rule="evenodd" fill-opacity="1" /><path clip-path="url(#clip800)" d="M1433.38 1482.22 Q1432.03 1479.88 1429.03 1480.03 Q1426.05 1480.18 1421.42 1482.86 Q1416.8 1485.52 1415.16 1488.03 Q1413.55 1490.55 1414.9 1492.89 Q1416.27 1495.25 1419.24 1495.1 Q1422.25 1494.95 1426.86 1492.28 Q1431.49 1489.61 1433.11 1487.09 Q1434.74 1484.58 1433.38 1482.22 M1435.79 1480.84 Q1437.97 1484.61 1436.12 1488.32 Q1434.3 1492.04 1428.61 1495.32 Q1422.95 1498.59 1418.8 1498.32 Q1414.68 1498.06 1412.5 1494.28 Q1410.32 1490.51 1412.14 1486.79 Q1413.99 1483.08 1419.66 1479.8 Q1425.34 1476.52 1429.46 1476.79 Q1433.61 1477.06 1435.79 1480.84 Z" fill="#4c4c4c" fill-rule="evenodd" fill-opacity="1" /><path clip-path="url(#clip800)" d="M1560.28 1468.72 Q1559.03 1466.56 1557.15 1465.98 Q1555.28 1465.41 1553.25 1466.58 Q1551.22 1467.76 1550.78 1469.66 Q1550.34 1471.57 1551.59 1473.74 Q1552.84 1475.9 1554.72 1476.48 Q1556.61 1477.05 1558.63 1475.89 Q1560.66 1474.72 1561.09 1472.8 Q1561.54 1470.9 1560.28 1468.72 M1559.82 1464.94 Q1559.17 1462.7 1559.88 1460.83 Q1560.59 1458.98 1562.52 1457.87 Q1565.21 1456.31 1567.87 1457.32 Q1570.55 1458.34 1572.48 1461.68 Q1574.41 1465.03 1573.95 1467.85 Q1573.49 1470.66 1570.8 1472.21 Q1568.87 1473.32 1566.9 1473 Q1564.94 1472.69 1563.34 1471.03 Q1564.09 1473.52 1563.31 1475.59 Q1562.53 1477.69 1560.38 1478.93 Q1557.12 1480.81 1554.22 1479.82 Q1551.33 1478.84 1549.19 1475.13 Q1547.04 1471.41 1547.63 1468.41 Q1548.23 1465.41 1551.49 1463.53 Q1553.64 1462.29 1555.84 1462.66 Q1558.04 1463.04 1559.82 1464.94 M1563.98 1461.06 Q1562.23 1462.06 1561.88 1463.71 Q1561.54 1465.37 1562.67 1467.34 Q1563.8 1469.29 1565.41 1469.83 Q1567.03 1470.38 1568.78 1469.37 Q1570.52 1468.36 1570.85 1466.69 Q1571.2 1465.02 1570.07 1463.07 Q1568.93 1461.1 1567.32 1460.57 Q1565.72 1460.05 1563.98 1461.06 Z" fill="#4c4c4c" fill-rule="evenodd" fill-opacity="1" /><path clip-path="url(#clip800)" d="M1581.38 1482.66 Q1580.03 1480.31 1577.03 1480.46 Q1574.05 1480.62 1569.42 1483.29 Q1564.8 1485.96 1563.16 1488.47 Q1561.55 1490.98 1562.9 1493.33 Q1564.27 1495.69 1567.24 1495.53 Q1570.24 1495.38 1574.86 1492.72 Q1579.49 1490.05 1581.11 1487.53 Q1582.74 1485.02 1581.38 1482.66 M1583.79 1481.27 Q1585.96 1485.04 1584.12 1488.76 Q1582.3 1492.48 1576.61 1495.76 Q1570.94 1499.03 1566.8 1498.76 Q1562.68 1498.49 1560.5 1494.72 Q1558.32 1490.94 1560.14 1487.23 Q1561.99 1483.51 1567.65 1480.24 Q1573.34 1476.96 1577.46 1477.23 Q1581.61 1477.5 1583.79 1481.27 Z" fill="#4c4c4c" fill-rule="evenodd" fill-opacity="1" /><path clip-path="url(#clip800)" d="M1694.22 1468.35 L1696.99 1466.75 Q1697.11 1468.21 1697.5 1469.55 Q1697.89 1470.88 1698.54 1472.01 Q1700.28 1475.02 1703.2 1475.43 Q1706.15 1475.86 1710.4 1473.7 Q1708.61 1473.58 1707.14 1472.64 Q1705.68 1471.7 1704.74 1470.08 Q1702.8 1466.71 1703.69 1463.57 Q1704.61 1460.43 1708.14 1458.39 Q1711.6 1456.4 1714.87 1457.23 Q1718.14 1458.07 1720.1 1461.47 Q1722.35 1465.36 1720.54 1469.14 Q1718.75 1472.91 1713.07 1476.2 Q1707.76 1479.26 1703.13 1478.57 Q1698.52 1477.88 1696.06 1473.62 Q1695.4 1472.48 1694.95 1471.18 Q1694.5 1469.87 1694.22 1468.35 M1707.23 1468.9 Q1708.41 1470.95 1710.5 1471.33 Q1712.59 1471.72 1715.02 1470.32 Q1717.44 1468.92 1718.15 1466.91 Q1718.88 1464.9 1717.69 1462.86 Q1716.51 1460.81 1714.41 1460.43 Q1712.32 1460.05 1709.9 1461.44 Q1707.47 1462.85 1706.75 1464.85 Q1706.05 1466.86 1707.23 1468.9 Z" fill="#4c4c4c" fill-rule="evenodd" fill-opacity="1" /><path clip-path="url(#clip800)" d="M1729.21 1482.81 Q1727.86 1480.46 1724.86 1480.61 Q1721.88 1480.77 1717.25 1483.44 Q1712.63 1486.11 1711 1488.62 Q1709.38 1491.13 1710.74 1493.48 Q1712.1 1495.84 1715.08 1495.68 Q1718.08 1495.53 1722.69 1492.87 Q1727.32 1490.2 1728.94 1487.68 Q1730.58 1485.17 1729.21 1482.81 M1731.62 1481.42 Q1733.8 1485.2 1731.95 1488.91 Q1730.13 1492.63 1724.45 1495.91 Q1718.78 1499.18 1714.63 1498.91 Q1710.51 1498.64 1708.33 1494.87 Q1706.15 1491.09 1707.97 1487.38 Q1709.82 1483.66 1715.49 1480.39 Q1721.17 1477.11 1725.29 1477.38 Q1729.44 1477.65 1731.62 1481.42 Z" fill="#4c4c4c" fill-rule="evenodd" fill-opacity="1" /><path clip-path="url(#clip800)" d="M1843.48 1466.14 L1846.34 1471.1 L1863.47 1461.21 L1859.27 1456.44 L1862.04 1454.84 L1866.22 1459.58 L1867.97 1462.62 L1848.08 1474.11 L1850.94 1479.07 L1848.39 1480.54 L1840.92 1467.61 L1843.48 1466.14 Z" fill="#4c4c4c" fill-rule="evenodd" fill-opacity="1" /><path clip-path="url(#clip800)" d="M1876.13 1481.37 Q1874.77 1479.02 1871.77 1479.17 Q1868.79 1479.33 1864.16 1482 Q1859.55 1484.66 1857.91 1487.17 Q1856.3 1489.69 1857.65 1492.04 Q1859.01 1494.4 1861.99 1494.24 Q1864.99 1494.09 1869.61 1491.43 Q1874.24 1488.75 1875.85 1486.24 Q1877.49 1483.73 1876.13 1481.37 M1878.53 1479.98 Q1880.71 1483.75 1878.87 1487.46 Q1877.04 1491.18 1871.36 1494.46 Q1865.69 1497.74 1861.55 1497.46 Q1857.42 1497.2 1855.24 1493.42 Q1853.06 1489.65 1854.89 1485.93 Q1856.73 1482.22 1862.4 1478.95 Q1868.08 1475.67 1872.21 1475.93 Q1876.35 1476.2 1878.53 1479.98 Z" fill="#4c4c4c" fill-rule="evenodd" fill-opacity="1" /><path clip-path="url(#clip800)" d="M1887.44 1500.96 Q1886.08 1498.61 1883.08 1498.76 Q1880.11 1498.92 1875.47 1501.59 Q1870.86 1504.26 1869.22 1506.76 Q1867.61 1509.28 1868.96 1511.63 Q1870.32 1513.99 1873.3 1513.83 Q1876.3 1513.68 1880.92 1511.02 Q1885.55 1508.34 1887.16 1505.83 Q1888.8 1503.32 1887.44 1500.96 M1889.84 1499.57 Q1892.02 1503.34 1890.18 1507.05 Q1888.35 1510.77 1882.67 1514.05 Q1877 1517.33 1872.86 1517.05 Q1868.73 1516.79 1866.55 1513.01 Q1864.38 1509.24 1866.2 1505.52 Q1868.04 1501.81 1873.71 1498.54 Q1879.4 1495.26 1883.52 1495.52 Q1887.66 1495.8 1889.84 1499.57 Z" fill="#4c4c4c" fill-rule="evenodd" fill-opacity="1" /><path clip-path="url(#clip800)" d="M1991.23 1466.14 L1994.09 1471.1 L2011.21 1461.21 L2007.02 1456.44 L2009.78 1454.84 L2013.96 1459.58 L2015.72 1462.62 L1995.83 1474.11 L1998.69 1479.07 L1996.13 1480.54 L1988.67 1467.61 L1991.23 1466.14 Z" fill="#4c4c4c" fill-rule="evenodd" fill-opacity="1" /><path clip-path="url(#clip800)" d="M2002.54 1485.73 L2005.4 1490.69 L2022.53 1480.8 L2018.33 1476.03 L2021.09 1474.43 L2025.27 1479.18 L2027.03 1482.21 L2007.14 1493.7 L2010 1498.66 L2007.45 1500.13 L1999.98 1487.2 L2002.54 1485.73 Z" fill="#4c4c4c" fill-rule="evenodd" fill-opacity="1" /><path clip-path="url(#clip800)" d="M2035.18 1500.96 Q2033.83 1498.61 2030.83 1498.76 Q2027.85 1498.92 2023.22 1501.59 Q2018.61 1504.26 2016.97 1506.76 Q2015.35 1509.28 2016.71 1511.63 Q2018.07 1513.99 2021.05 1513.83 Q2024.05 1513.68 2028.66 1511.02 Q2033.29 1508.34 2034.91 1505.83 Q2036.55 1503.32 2035.18 1500.96 M2037.59 1499.57 Q2039.77 1503.34 2037.92 1507.05 Q2036.1 1510.77 2030.42 1514.05 Q2024.75 1517.33 2020.6 1517.05 Q2016.48 1516.79 2014.3 1513.01 Q2012.12 1509.24 2013.94 1505.52 Q2015.79 1501.81 2021.46 1498.54 Q2027.14 1495.26 2031.27 1495.52 Q2035.41 1495.8 2037.59 1499.57 Z" fill="#4c4c4c" fill-rule="evenodd" fill-opacity="1" /><path clip-path="url(#clip800)" d="M2138.97 1466.14 L2141.84 1471.1 L2158.96 1461.21 L2154.76 1456.44 L2157.53 1454.84 L2161.71 1459.58 L2163.46 1462.62 L2143.57 1474.11 L2146.44 1479.07 L2143.88 1480.54 L2136.42 1467.61 L2138.97 1466.14 Z" fill="#4c4c4c" fill-rule="evenodd" fill-opacity="1" /><path clip-path="url(#clip800)" d="M2151.49 1487.82 L2157.61 1498.42 L2155.05 1499.89 L2146.82 1485.64 L2149.38 1484.16 Q2152.17 1484.86 2156.89 1486.1 Q2161.64 1487.35 2162.96 1487.61 Q2165.44 1488.12 2166.9 1488.04 Q2168.38 1487.97 2169.47 1487.34 Q2171.26 1486.3 2171.66 1484.39 Q2172.07 1482.49 2170.91 1480.48 Q2170.08 1479.05 2168.67 1477.74 Q2167.26 1476.45 2165.21 1475.23 L2168.28 1473.46 Q2170.07 1474.86 2171.37 1476.24 Q2172.66 1477.62 2173.43 1478.94 Q2175.44 1482.43 2174.9 1485.51 Q2174.35 1488.59 2171.43 1490.28 Q2170.05 1491.08 2168.5 1491.27 Q2166.97 1491.47 2164.5 1491.07 Q2163.84 1490.95 2160.59 1490.14 Q2157.35 1489.32 2151.49 1487.82 Z" fill="#4c4c4c" fill-rule="evenodd" fill-opacity="1" /><path clip-path="url(#clip800)" d="M2182.93 1500.96 Q2181.58 1498.61 2178.58 1498.76 Q2175.6 1498.92 2170.97 1501.59 Q2166.35 1504.26 2164.71 1506.76 Q2163.1 1509.28 2164.45 1511.63 Q2165.82 1513.99 2168.79 1513.83 Q2171.79 1513.68 2176.41 1511.02 Q2181.04 1508.34 2182.66 1505.83 Q2184.29 1503.32 2182.93 1500.96 M2185.34 1499.57 Q2187.52 1503.34 2185.67 1507.05 Q2183.85 1510.77 2178.16 1514.05 Q2172.5 1517.33 2168.35 1517.05 Q2164.23 1516.79 2162.05 1513.01 Q2159.87 1509.24 2161.69 1505.52 Q2163.54 1501.81 2169.21 1498.54 Q2174.89 1495.26 2179.01 1495.52 Q2183.16 1495.8 2185.34 1499.57 Z" fill="#4c4c4c" fill-rule="evenodd" fill-opacity="1" /><path clip-path="url(#clip800)" d="M2286.72 1466.14 L2289.58 1471.1 L2306.71 1461.21 L2302.51 1456.44 L2305.28 1454.84 L2309.46 1459.58 L2311.21 1462.62 L2291.32 1474.11 L2294.18 1479.07 L2291.63 1480.54 L2284.16 1467.61 L2286.72 1466.14 Z" fill="#4c4c4c" fill-rule="evenodd" fill-opacity="1" /><path clip-path="url(#clip800)" d="M2312.59 1488.89 Q2313.38 1491.34 2312.61 1493.41 Q2311.85 1495.49 2309.68 1496.74 Q2306.36 1498.66 2303.22 1497.43 Q2300.08 1496.19 2297.65 1491.98 Q2296.83 1490.57 2296.25 1488.9 Q2295.66 1487.25 2295.3 1485.34 L2298.23 1483.65 Q2298.22 1485.34 2298.72 1487.06 Q2299.21 1488.78 2300.15 1490.41 Q2301.8 1493.27 2303.79 1494.11 Q2305.79 1494.96 2307.94 1493.72 Q2309.92 1492.57 2310.23 1490.53 Q2310.56 1488.5 2309.12 1486.02 L2307.61 1483.4 L2310.11 1481.96 L2311.69 1484.7 Q2312.98 1486.94 2314.55 1487.61 Q2316.14 1488.28 2317.83 1487.31 Q2319.56 1486.31 2319.76 1484.55 Q2319.99 1482.79 2318.67 1480.51 Q2317.95 1479.26 2316.85 1477.99 Q2315.76 1476.71 2314.2 1475.33 L2316.9 1473.77 Q2318.38 1475.22 2319.49 1476.58 Q2320.61 1477.96 2321.38 1479.3 Q2323.38 1482.76 2322.96 1485.69 Q2322.56 1488.6 2319.89 1490.15 Q2318.02 1491.22 2316.11 1490.9 Q2314.22 1490.57 2312.59 1488.89 Z" fill="#4c4c4c" fill-rule="evenodd" fill-opacity="1" /><path clip-path="url(#clip800)" d="M2330.68 1500.96 Q2329.32 1498.61 2326.32 1498.76 Q2323.35 1498.92 2318.71 1501.59 Q2314.1 1504.26 2312.46 1506.76 Q2310.85 1509.28 2312.2 1511.63 Q2313.56 1513.99 2316.54 1513.83 Q2319.54 1513.68 2324.16 1511.02 Q2328.79 1508.34 2330.4 1505.83 Q2332.04 1503.32 2330.68 1500.96 M2333.08 1499.57 Q2335.26 1503.34 2333.42 1507.05 Q2331.59 1510.77 2325.91 1514.05 Q2320.24 1517.33 2316.1 1517.05 Q2311.97 1516.79 2309.79 1513.01 Q2307.62 1509.24 2309.44 1505.52 Q2311.28 1501.81 2316.95 1498.54 Q2322.64 1495.26 2326.76 1495.52 Q2330.9 1495.8 2333.08 1499.57 Z" fill="#4c4c4c" fill-rule="evenodd" fill-opacity="1" /><path clip-path="url(#clip800)" d="M1225.37 1537.87 L1230.05 1537.87 L1230.05 1572.43 L1225.37 1572.43 L1225.37 1537.87 Z" fill="#000000" fill-rule="evenodd" fill-opacity="1" /><path clip-path="url(#clip800)" d="M1243.38 1539.15 L1243.38 1546.51 L1252.15 1546.51 L1252.15 1549.82 L1243.38 1549.82 L1243.38 1563.89 Q1243.38 1567.06 1244.24 1567.97 Q1245.12 1568.87 1247.78 1568.87 L1252.15 1568.87 L1252.15 1572.43 L1247.78 1572.43 Q1242.85 1572.43 1240.97 1570.6 Q1239.1 1568.75 1239.1 1563.89 L1239.1 1549.82 L1235.97 1549.82 L1235.97 1546.51 L1239.1 1546.51 L1239.1 1539.15 L1243.38 1539.15 Z" fill="#000000" fill-rule="evenodd" fill-opacity="1" /><path clip-path="url(#clip800)" d="M1279.93 1558.41 L1279.93 1560.49 L1260.35 1560.49 Q1260.63 1564.89 1262.99 1567.2 Q1265.37 1569.49 1269.61 1569.49 Q1272.06 1569.49 1274.35 1568.89 Q1276.67 1568.29 1278.94 1567.09 L1278.94 1571.11 Q1276.65 1572.09 1274.24 1572.6 Q1271.83 1573.1 1269.35 1573.1 Q1263.15 1573.1 1259.52 1569.49 Q1255.9 1565.88 1255.9 1559.73 Q1255.9 1553.36 1259.33 1549.63 Q1262.78 1545.88 1268.61 1545.88 Q1273.84 1545.88 1276.88 1549.26 Q1279.93 1552.62 1279.93 1558.41 M1275.67 1557.16 Q1275.63 1553.66 1273.71 1551.58 Q1271.81 1549.49 1268.66 1549.49 Q1265.09 1549.49 1262.94 1551.51 Q1260.81 1553.52 1260.49 1557.18 L1275.67 1557.16 Z" fill="#000000" fill-rule="evenodd" fill-opacity="1" /><path clip-path="url(#clip800)" d="M1301.95 1550.49 Q1301.23 1550.07 1300.37 1549.89 Q1299.54 1549.68 1298.52 1549.68 Q1294.91 1549.68 1292.96 1552.04 Q1291.04 1554.38 1291.04 1558.78 L1291.04 1572.43 L1286.76 1572.43 L1286.76 1546.51 L1291.04 1546.51 L1291.04 1550.54 Q1292.39 1548.17 1294.54 1547.04 Q1296.69 1545.88 1299.77 1545.88 Q1300.21 1545.88 1300.74 1545.95 Q1301.27 1546 1301.92 1546.11 L1301.95 1550.49 Z" fill="#000000" fill-rule="evenodd" fill-opacity="1" /><path clip-path="url(#clip800)" d="M1318.2 1559.4 Q1313.03 1559.4 1311.04 1560.58 Q1309.05 1561.76 1309.05 1564.61 Q1309.05 1566.88 1310.53 1568.22 Q1312.04 1569.54 1314.61 1569.54 Q1318.15 1569.54 1320.28 1567.04 Q1322.43 1564.52 1322.43 1560.35 L1322.43 1559.4 L1318.2 1559.4 M1326.69 1557.64 L1326.69 1572.43 L1322.43 1572.43 L1322.43 1568.5 Q1320.97 1570.86 1318.8 1571.99 Q1316.62 1573.1 1313.47 1573.1 Q1309.49 1573.1 1307.13 1570.88 Q1304.79 1568.64 1304.79 1564.89 Q1304.79 1560.51 1307.71 1558.29 Q1310.65 1556.07 1316.46 1556.07 L1322.43 1556.07 L1322.43 1555.65 Q1322.43 1552.71 1320.49 1551.11 Q1318.57 1549.49 1315.07 1549.49 Q1312.85 1549.49 1310.74 1550.03 Q1308.64 1550.56 1306.69 1551.62 L1306.69 1547.69 Q1309.03 1546.79 1311.23 1546.35 Q1313.43 1545.88 1315.51 1545.88 Q1321.14 1545.88 1323.91 1548.8 Q1326.69 1551.72 1326.69 1557.64 Z" fill="#000000" fill-rule="evenodd" fill-opacity="1" /><path clip-path="url(#clip800)" d="M1339.68 1539.15 L1339.68 1546.51 L1348.45 1546.51 L1348.45 1549.82 L1339.68 1549.82 L1339.68 1563.89 Q1339.68 1567.06 1340.53 1567.97 Q1341.41 1568.87 1344.08 1568.87 L1348.45 1568.87 L1348.45 1572.43 L1344.08 1572.43 Q1339.14 1572.43 1337.27 1570.6 Q1335.39 1568.75 1335.39 1563.89 L1335.39 1549.82 L1332.27 1549.82 L1332.27 1546.51 L1335.39 1546.51 L1335.39 1539.15 L1339.68 1539.15 Z" fill="#000000" fill-rule="evenodd" fill-opacity="1" /><path clip-path="url(#clip800)" d="M1354.05 1546.51 L1358.31 1546.51 L1358.31 1572.43 L1354.05 1572.43 L1354.05 1546.51 M1354.05 1536.42 L1358.31 1536.42 L1358.31 1541.81 L1354.05 1541.81 L1354.05 1536.42 Z" fill="#000000" fill-rule="evenodd" fill-opacity="1" /><path clip-path="url(#clip800)" d="M1377.27 1549.49 Q1373.84 1549.49 1371.85 1552.18 Q1369.86 1554.84 1369.86 1559.49 Q1369.86 1564.15 1371.83 1566.83 Q1373.82 1569.49 1377.27 1569.49 Q1380.67 1569.49 1382.66 1566.81 Q1384.65 1564.12 1384.65 1559.49 Q1384.65 1554.89 1382.66 1552.2 Q1380.67 1549.49 1377.27 1549.49 M1377.27 1545.88 Q1382.83 1545.88 1386 1549.49 Q1389.17 1553.1 1389.17 1559.49 Q1389.17 1565.86 1386 1569.49 Q1382.83 1573.1 1377.27 1573.1 Q1371.69 1573.1 1368.52 1569.49 Q1365.37 1565.86 1365.37 1559.49 Q1365.37 1553.1 1368.52 1549.49 Q1371.69 1545.88 1377.27 1545.88 Z" fill="#000000" fill-rule="evenodd" fill-opacity="1" /><path clip-path="url(#clip800)" d="M1417.78 1556.79 L1417.78 1572.43 L1413.52 1572.43 L1413.52 1556.92 Q1413.52 1553.24 1412.08 1551.41 Q1410.65 1549.59 1407.78 1549.59 Q1404.33 1549.59 1402.34 1551.79 Q1400.35 1553.98 1400.35 1557.78 L1400.35 1572.43 L1396.07 1572.43 L1396.07 1546.51 L1400.35 1546.51 L1400.35 1550.54 Q1401.88 1548.2 1403.94 1547.04 Q1406.02 1545.88 1408.73 1545.88 Q1413.2 1545.88 1415.49 1548.66 Q1417.78 1551.41 1417.78 1556.79 Z" fill="#000000" fill-rule="evenodd" fill-opacity="1" /><path clip-path="url(#clip800)" d="M1442.8 1547.27 L1442.8 1551.3 Q1441 1550.37 1439.05 1549.91 Q1437.11 1549.45 1435.02 1549.45 Q1431.85 1549.45 1430.26 1550.42 Q1428.68 1551.39 1428.68 1553.34 Q1428.68 1554.82 1429.82 1555.67 Q1430.95 1556.51 1434.38 1557.27 L1435.83 1557.6 Q1440.37 1558.57 1442.27 1560.35 Q1444.19 1562.11 1444.19 1565.28 Q1444.19 1568.89 1441.32 1571 Q1438.47 1573.1 1433.47 1573.1 Q1431.39 1573.1 1429.12 1572.69 Q1426.88 1572.29 1424.38 1571.48 L1424.38 1567.09 Q1426.74 1568.31 1429.03 1568.94 Q1431.32 1569.54 1433.57 1569.54 Q1436.57 1569.54 1438.2 1568.52 Q1439.82 1567.48 1439.82 1565.6 Q1439.82 1563.87 1438.63 1562.94 Q1437.48 1562.02 1433.52 1561.16 L1432.04 1560.81 Q1428.08 1559.98 1426.32 1558.27 Q1424.56 1556.53 1424.56 1553.52 Q1424.56 1549.86 1427.15 1547.87 Q1429.75 1545.88 1434.51 1545.88 Q1436.88 1545.88 1438.96 1546.23 Q1441.04 1546.58 1442.8 1547.27 Z" fill="#000000" fill-rule="evenodd" fill-opacity="1" /><polyline clip-path="url(#clip802)" style="stroke:#ffffff; stroke-linecap:butt; stroke-linejoin:round; stroke-width:4; stroke-opacity:1; fill:none" points="
  316.807,1177.68 2352.76,1177.68 
  "/>
<polyline clip-path="url(#clip802)" style="stroke:#ffffff; stroke-linecap:butt; stroke-linejoin:round; stroke-width:4; stroke-opacity:1; fill:none" points="
  316.807,838.025 2352.76,838.025 
  "/>
<polyline clip-path="url(#clip802)" style="stroke:#ffffff; stroke-linecap:butt; stroke-linejoin:round; stroke-width:4; stroke-opacity:1; fill:none" points="
  316.807,498.373 2352.76,498.373 
  "/>
<polyline clip-path="url(#clip802)" style="stroke:#ffffff; stroke-linecap:butt; stroke-linejoin:round; stroke-width:4; stroke-opacity:1; fill:none" points="
  316.807,158.721 2352.76,158.721 
  "/>
<polyline clip-path="url(#clip802)" style="stroke:#ffffff; stroke-linecap:butt; stroke-linejoin:round; stroke-width:2; stroke-opacity:1; fill:none" points="
  316.807,1347.5 2352.76,1347.5 
  "/>
<polyline clip-path="url(#clip802)" style="stroke:#ffffff; stroke-linecap:butt; stroke-linejoin:round; stroke-width:2; stroke-opacity:1; fill:none" points="
  316.807,1007.85 2352.76,1007.85 
  "/>
<polyline clip-path="url(#clip802)" style="stroke:#ffffff; stroke-linecap:butt; stroke-linejoin:round; stroke-width:2; stroke-opacity:1; fill:none" points="
  316.807,668.199 2352.76,668.199 
  "/>
<polyline clip-path="url(#clip802)" style="stroke:#ffffff; stroke-linecap:butt; stroke-linejoin:round; stroke-width:2; stroke-opacity:1; fill:none" points="
  316.807,328.547 2352.76,328.547 
  "/>
<polyline clip-path="url(#clip800)" style="stroke:#ffffff; stroke-linecap:butt; stroke-linejoin:round; stroke-width:4; stroke-opacity:1; fill:none" points="
  316.807,1422.18 316.807,106.192 
  "/>
<polyline clip-path="url(#clip800)" style="stroke:#333333; stroke-linecap:butt; stroke-linejoin:round; stroke-width:4; stroke-opacity:1; fill:none" points="
  316.807,1177.68 297.909,1177.68 
  "/>
<polyline clip-path="url(#clip800)" style="stroke:#333333; stroke-linecap:butt; stroke-linejoin:round; stroke-width:4; stroke-opacity:1; fill:none" points="
  316.807,838.025 297.909,838.025 
  "/>
<polyline clip-path="url(#clip800)" style="stroke:#333333; stroke-linecap:butt; stroke-linejoin:round; stroke-width:4; stroke-opacity:1; fill:none" points="
  316.807,498.373 297.909,498.373 
  "/>
<polyline clip-path="url(#clip800)" style="stroke:#333333; stroke-linecap:butt; stroke-linejoin:round; stroke-width:4; stroke-opacity:1; fill:none" points="
  316.807,158.721 297.909,158.721 
  "/>
<polyline clip-path="url(#clip800)" style="stroke:#333333; stroke-linecap:butt; stroke-linejoin:round; stroke-width:4; stroke-opacity:1; fill:none" points="
  316.807,1347.5 307.358,1347.5 
  "/>
<polyline clip-path="url(#clip800)" style="stroke:#333333; stroke-linecap:butt; stroke-linejoin:round; stroke-width:4; stroke-opacity:1; fill:none" points="
  316.807,1007.85 307.358,1007.85 
  "/>
<polyline clip-path="url(#clip800)" style="stroke:#333333; stroke-linecap:butt; stroke-linejoin:round; stroke-width:4; stroke-opacity:1; fill:none" points="
  316.807,668.199 307.358,668.199 
  "/>
<polyline clip-path="url(#clip800)" style="stroke:#333333; stroke-linecap:butt; stroke-linejoin:round; stroke-width:4; stroke-opacity:1; fill:none" points="
  316.807,328.547 307.358,328.547 
  "/>
<path clip-path="url(#clip800)" d="M193.536 1178.01 L215.793 1178.01 L215.793 1180.97 L193.536 1180.97 L193.536 1178.01 Z" fill="#4c4c4c" fill-rule="evenodd" fill-opacity="1" /><path clip-path="url(#clip800)" d="M233.988 1176.66 Q236.505 1177.2 237.911 1178.9 Q239.335 1180.6 239.335 1183.1 Q239.335 1186.94 236.696 1189.04 Q234.057 1191.14 229.196 1191.14 Q227.564 1191.14 225.828 1190.81 Q224.109 1190.5 222.269 1189.86 L222.269 1186.47 Q223.727 1187.32 225.463 1187.75 Q227.199 1188.19 229.092 1188.19 Q232.39 1188.19 234.109 1186.89 Q235.845 1185.58 235.845 1183.1 Q235.845 1180.81 234.231 1179.53 Q232.633 1178.22 229.769 1178.22 L226.748 1178.22 L226.748 1175.34 L229.908 1175.34 Q232.495 1175.34 233.866 1174.32 Q235.238 1173.28 235.238 1171.33 Q235.238 1169.33 233.814 1168.28 Q232.408 1167.2 229.769 1167.2 Q228.328 1167.2 226.679 1167.51 Q225.029 1167.82 223.05 1168.48 L223.05 1165.36 Q225.047 1164.8 226.783 1164.53 Q228.536 1164.25 230.081 1164.25 Q234.074 1164.25 236.401 1166.07 Q238.727 1167.88 238.727 1170.97 Q238.727 1173.12 237.494 1174.61 Q236.262 1176.09 233.988 1176.66 Z" fill="#4c4c4c" fill-rule="evenodd" fill-opacity="1" /><path clip-path="url(#clip800)" d="M255.619 1167.77 L246.765 1181.61 L255.619 1181.61 L255.619 1167.77 M254.699 1164.72 L259.109 1164.72 L259.109 1181.61 L262.807 1181.61 L262.807 1184.53 L259.109 1184.53 L259.109 1190.64 L255.619 1190.64 L255.619 1184.53 L243.918 1184.53 L243.918 1181.14 L254.699 1164.72 Z" fill="#4c4c4c" fill-rule="evenodd" fill-opacity="1" /><path clip-path="url(#clip800)" d="M195.099 838.363 L217.356 838.363 L217.356 841.315 L195.099 841.315 L195.099 838.363 Z" fill="#4c4c4c" fill-rule="evenodd" fill-opacity="1" /><path clip-path="url(#clip800)" d="M235.55 837.009 Q238.067 837.547 239.474 839.249 Q240.897 840.95 240.897 843.45 Q240.897 847.287 238.258 849.388 Q235.619 851.488 230.758 851.488 Q229.126 851.488 227.39 851.158 Q225.672 850.846 223.831 850.203 L223.831 846.818 Q225.29 847.669 227.026 848.103 Q228.762 848.537 230.654 848.537 Q233.953 848.537 235.672 847.235 Q237.408 845.933 237.408 843.45 Q237.408 841.158 235.793 839.874 Q234.196 838.572 231.331 838.572 L228.31 838.572 L228.31 835.69 L231.47 835.69 Q234.057 835.69 235.429 834.665 Q236.8 833.624 236.8 831.679 Q236.8 829.683 235.376 828.624 Q233.97 827.547 231.331 827.547 Q229.89 827.547 228.241 827.86 Q226.592 828.172 224.613 828.832 L224.613 825.707 Q226.609 825.152 228.345 824.874 Q230.099 824.596 231.644 824.596 Q235.637 824.596 237.963 826.419 Q240.29 828.224 240.29 831.315 Q240.29 833.467 239.057 834.96 Q237.824 836.436 235.55 837.009 Z" fill="#4c4c4c" fill-rule="evenodd" fill-opacity="1" /><path clip-path="url(#clip800)" d="M250.567 848.033 L262.807 848.033 L262.807 850.985 L246.349 850.985 L246.349 848.033 Q248.345 845.967 251.783 842.495 Q255.237 839.006 256.123 837.999 Q257.807 836.106 258.467 834.804 Q259.144 833.485 259.144 832.217 Q259.144 830.151 257.685 828.849 Q256.244 827.547 253.918 827.547 Q252.269 827.547 250.428 828.12 Q248.606 828.693 246.522 829.856 L246.522 826.315 Q248.64 825.464 250.481 825.03 Q252.321 824.596 253.849 824.596 Q257.876 824.596 260.272 826.61 Q262.668 828.624 262.668 831.992 Q262.668 833.589 262.06 835.03 Q261.47 836.454 259.89 838.398 Q259.456 838.901 257.13 841.315 Q254.803 843.71 250.567 848.033 Z" fill="#4c4c4c" fill-rule="evenodd" fill-opacity="1" /><path clip-path="url(#clip800)" d="M193.901 498.712 L216.158 498.712 L216.158 501.663 L193.901 501.663 L193.901 498.712 Z" fill="#4c4c4c" fill-rule="evenodd" fill-opacity="1" /><path clip-path="url(#clip800)" d="M234.352 497.357 Q236.869 497.896 238.276 499.597 Q239.699 501.298 239.699 503.798 Q239.699 507.635 237.06 509.736 Q234.422 511.836 229.56 511.836 Q227.929 511.836 226.192 511.507 Q224.474 511.194 222.633 510.552 L222.633 507.166 Q224.092 508.017 225.828 508.451 Q227.564 508.885 229.456 508.885 Q232.755 508.885 234.474 507.583 Q236.21 506.281 236.21 503.798 Q236.21 501.507 234.595 500.222 Q232.998 498.92 230.133 498.92 L227.113 498.92 L227.113 496.038 L230.272 496.038 Q232.859 496.038 234.231 495.014 Q235.602 493.972 235.602 492.028 Q235.602 490.031 234.179 488.972 Q232.772 487.896 230.133 487.896 Q228.692 487.896 227.043 488.208 Q225.394 488.521 223.415 489.18 L223.415 486.055 Q225.411 485.5 227.147 485.222 Q228.901 484.944 230.446 484.944 Q234.439 484.944 236.765 486.767 Q239.092 488.573 239.092 491.663 Q239.092 493.816 237.859 495.309 Q236.626 496.784 234.352 497.357 Z" fill="#4c4c4c" fill-rule="evenodd" fill-opacity="1" /><path clip-path="url(#clip800)" d="M253.849 487.722 Q251.14 487.722 249.769 490.396 Q248.415 493.052 248.415 498.399 Q248.415 503.729 249.769 506.402 Q251.14 509.059 253.849 509.059 Q256.574 509.059 257.928 506.402 Q259.3 503.729 259.3 498.399 Q259.3 493.052 257.928 490.396 Q256.574 487.722 253.849 487.722 M253.849 484.944 Q258.206 484.944 260.498 488.399 Q262.807 491.837 262.807 498.399 Q262.807 504.944 260.498 508.399 Q258.206 511.836 253.849 511.836 Q249.491 511.836 247.182 508.399 Q244.89 504.944 244.89 498.399 Q244.89 491.837 247.182 488.399 Q249.491 484.944 253.849 484.944 Z" fill="#4c4c4c" fill-rule="evenodd" fill-opacity="1" /><path clip-path="url(#clip800)" d="M193.97 159.06 L216.227 159.06 L216.227 162.011 L193.97 162.011 L193.97 159.06 Z" fill="#4c4c4c" fill-rule="evenodd" fill-opacity="1" /><path clip-path="url(#clip800)" d="M226.817 168.73 L239.057 168.73 L239.057 171.681 L222.599 171.681 L222.599 168.73 Q224.595 166.664 228.033 163.192 Q231.488 159.702 232.373 158.695 Q234.057 156.803 234.717 155.501 Q235.394 154.181 235.394 152.914 Q235.394 150.848 233.935 149.546 Q232.495 148.244 230.168 148.244 Q228.519 148.244 226.679 148.817 Q224.856 149.39 222.772 150.553 L222.772 147.011 Q224.89 146.161 226.731 145.727 Q228.571 145.293 230.099 145.293 Q234.126 145.293 236.522 147.306 Q238.918 149.32 238.918 152.688 Q238.918 154.286 238.31 155.727 Q237.72 157.15 236.14 159.095 Q235.706 159.598 233.38 162.011 Q231.054 164.407 226.817 168.73 Z" fill="#4c4c4c" fill-rule="evenodd" fill-opacity="1" /><path clip-path="url(#clip800)" d="M253.918 159.372 Q251.418 159.372 249.977 160.709 Q248.553 162.046 248.553 164.39 Q248.553 166.733 249.977 168.07 Q251.418 169.407 253.918 169.407 Q256.418 169.407 257.859 168.07 Q259.3 166.716 259.3 164.39 Q259.3 162.046 257.859 160.709 Q256.435 159.372 253.918 159.372 M250.411 157.879 Q248.154 157.324 246.887 155.779 Q245.637 154.233 245.637 152.011 Q245.637 148.904 247.842 147.098 Q250.064 145.293 253.918 145.293 Q257.79 145.293 259.994 147.098 Q262.199 148.904 262.199 152.011 Q262.199 154.233 260.932 155.779 Q259.682 157.324 257.442 157.879 Q259.977 158.47 261.383 160.188 Q262.807 161.907 262.807 164.39 Q262.807 168.157 260.498 170.171 Q258.206 172.185 253.918 172.185 Q249.63 172.185 247.321 170.171 Q245.029 168.157 245.029 164.39 Q245.029 161.907 246.453 160.188 Q247.876 158.47 250.411 157.879 M249.126 152.341 Q249.126 154.355 250.376 155.483 Q251.644 156.612 253.918 156.612 Q256.175 156.612 257.442 155.483 Q258.727 154.355 258.727 152.341 Q258.727 150.327 257.442 149.199 Q256.175 148.07 253.918 148.07 Q251.644 148.07 250.376 149.199 Q249.126 150.327 249.126 152.341 Z" fill="#4c4c4c" fill-rule="evenodd" fill-opacity="1" /><path clip-path="url(#clip800)" d="M130.608 973.882 L130.608 944.646 L134.544 944.646 L134.544 956.915 L165.168 956.915 L165.168 961.614 L134.544 961.614 L134.544 973.882 L130.608 973.882 Z" fill="#000000" fill-rule="evenodd" fill-opacity="1" /><path clip-path="url(#clip800)" d="M151.141 926.198 L153.224 926.198 L153.224 945.781 Q157.622 945.503 159.937 943.142 Q162.229 940.758 162.229 936.522 Q162.229 934.068 161.627 931.776 Q161.025 929.461 159.821 927.193 L163.849 927.193 Q164.821 929.485 165.33 931.892 Q165.84 934.299 165.84 936.776 Q165.84 942.98 162.229 946.614 Q158.617 950.225 152.46 950.225 Q146.094 950.225 142.368 946.799 Q138.618 943.35 138.618 937.517 Q138.618 932.285 141.997 929.253 Q145.354 926.198 151.141 926.198 M149.891 930.457 Q146.395 930.503 144.312 932.424 Q142.229 934.322 142.229 937.471 Q142.229 941.035 144.243 943.188 Q146.256 945.318 149.914 945.642 L149.891 930.457 Z" fill="#000000" fill-rule="evenodd" fill-opacity="1" /><path clip-path="url(#clip800)" d="M140.006 902.679 L144.034 902.679 Q143.108 904.485 142.645 906.429 Q142.182 908.374 142.182 910.457 Q142.182 913.628 143.155 915.225 Q144.127 916.799 146.071 916.799 Q147.553 916.799 148.409 915.665 Q149.243 914.531 150.006 911.105 L150.33 909.647 Q151.303 905.11 153.085 903.212 Q154.844 901.29 158.016 901.29 Q161.627 901.29 163.733 904.161 Q165.84 907.008 165.84 912.008 Q165.84 914.091 165.423 916.36 Q165.029 918.605 164.219 921.105 L159.821 921.105 Q161.048 918.744 161.673 916.452 Q162.275 914.161 162.275 911.915 Q162.275 908.906 161.256 907.286 Q160.215 905.665 158.34 905.665 Q156.604 905.665 155.678 906.846 Q154.752 908.003 153.895 911.961 L153.548 913.443 Q152.715 917.401 151.002 919.161 Q149.266 920.92 146.256 920.92 Q142.599 920.92 140.608 918.327 Q138.618 915.735 138.618 910.966 Q138.618 908.605 138.965 906.522 Q139.312 904.438 140.006 902.679 Z" fill="#000000" fill-rule="evenodd" fill-opacity="1" /><path clip-path="url(#clip800)" d="M131.882 890.295 L139.243 890.295 L139.243 881.522 L142.553 881.522 L142.553 890.295 L156.627 890.295 Q159.798 890.295 160.701 889.438 Q161.604 888.559 161.604 885.897 L161.604 881.522 L165.168 881.522 L165.168 885.897 Q165.168 890.827 163.34 892.702 Q161.488 894.577 156.627 894.577 L142.553 894.577 L142.553 897.702 L139.243 897.702 L139.243 894.577 L131.882 894.577 L131.882 890.295 Z" fill="#000000" fill-rule="evenodd" fill-opacity="1" /><path clip-path="url(#clip800)" d="M129.15 860.851 L129.15 856.591 L165.168 856.591 L165.168 860.851 L129.15 860.851 Z" fill="#000000" fill-rule="evenodd" fill-opacity="1" /><path clip-path="url(#clip800)" d="M142.229 837.633 Q142.229 841.059 144.914 843.05 Q147.576 845.041 152.229 845.041 Q156.881 845.041 159.567 843.073 Q162.229 841.082 162.229 837.633 Q162.229 834.23 159.543 832.24 Q156.858 830.249 152.229 830.249 Q147.622 830.249 144.937 832.24 Q142.229 834.23 142.229 837.633 M138.618 837.633 Q138.618 832.078 142.229 828.906 Q145.84 825.735 152.229 825.735 Q158.594 825.735 162.229 828.906 Q165.84 832.078 165.84 837.633 Q165.84 843.212 162.229 846.383 Q158.594 849.531 152.229 849.531 Q145.84 849.531 142.229 846.383 Q138.618 843.212 138.618 837.633 Z" fill="#000000" fill-rule="evenodd" fill-opacity="1" /><path clip-path="url(#clip800)" d="M151.905 801.615 Q147.275 801.615 144.729 803.536 Q142.182 805.434 142.182 808.883 Q142.182 812.309 144.729 814.231 Q147.275 816.129 151.905 816.129 Q156.511 816.129 159.057 814.231 Q161.604 812.309 161.604 808.883 Q161.604 805.434 159.057 803.536 Q156.511 801.615 151.905 801.615 M161.951 797.356 Q168.571 797.356 171.789 800.295 Q175.029 803.235 175.029 809.3 Q175.029 811.545 174.682 813.536 Q174.358 815.527 173.664 817.402 L169.52 817.402 Q170.539 815.527 171.025 813.698 Q171.511 811.869 171.511 809.971 Q171.511 805.781 169.312 803.698 Q167.136 801.615 162.715 801.615 L160.608 801.615 Q162.9 802.934 164.034 804.994 Q165.168 807.055 165.168 809.925 Q165.168 814.693 161.534 817.61 Q157.9 820.527 151.905 820.527 Q145.886 820.527 142.252 817.61 Q138.618 814.693 138.618 809.925 Q138.618 807.055 139.752 804.994 Q140.886 802.934 143.178 801.615 L139.243 801.615 L139.243 797.356 L161.951 797.356 Z" fill="#000000" fill-rule="evenodd" fill-opacity="1" /><path clip-path="url(#clip800)" d="M150.284 790.735 L150.284 778.258 L154.08 778.258 L154.08 790.735 L150.284 790.735 Z" fill="#000000" fill-rule="evenodd" fill-opacity="1" /><path clip-path="url(#clip800)" d="M129.15 771.476 L129.15 767.217 L165.168 767.217 L165.168 771.476 L129.15 771.476 Z" fill="#000000" fill-rule="evenodd" fill-opacity="1" /><path clip-path="url(#clip800)" d="M139.243 758.305 L139.243 754.046 L165.168 754.046 L165.168 758.305 L139.243 758.305 M129.15 758.305 L129.15 754.046 L134.544 754.046 L134.544 758.305 L129.15 758.305 Z" fill="#000000" fill-rule="evenodd" fill-opacity="1" /><path clip-path="url(#clip800)" d="M129.15 745.296 L129.15 741.013 L150.423 741.013 L139.243 728.305 L139.243 722.865 L151.372 736.615 L165.168 722.287 L165.168 727.842 L152.506 741.013 L165.168 741.013 L165.168 745.296 L129.15 745.296 Z" fill="#000000" fill-rule="evenodd" fill-opacity="1" /><path clip-path="url(#clip800)" d="M151.141 697.194 L153.224 697.194 L153.224 716.777 Q157.622 716.5 159.937 714.138 Q162.229 711.754 162.229 707.518 Q162.229 705.064 161.627 702.773 Q161.025 700.458 159.821 698.189 L163.849 698.189 Q164.821 700.481 165.33 702.889 Q165.84 705.296 165.84 707.773 Q165.84 713.976 162.229 717.611 Q158.617 721.222 152.46 721.222 Q146.094 721.222 142.368 717.796 Q138.618 714.347 138.618 708.513 Q138.618 703.282 141.997 700.25 Q145.354 697.194 151.141 697.194 M149.891 701.453 Q146.395 701.5 144.312 703.421 Q142.229 705.319 142.229 708.467 Q142.229 712.032 144.243 714.185 Q146.256 716.314 149.914 716.638 L149.891 701.453 Z" fill="#000000" fill-rule="evenodd" fill-opacity="1" /><path clip-path="url(#clip800)" d="M129.15 690.203 L129.15 685.944 L165.168 685.944 L165.168 690.203 L129.15 690.203 Z" fill="#000000" fill-rule="evenodd" fill-opacity="1" /><path clip-path="url(#clip800)" d="M139.243 677.032 L139.243 672.773 L165.168 672.773 L165.168 677.032 L139.243 677.032 M129.15 677.032 L129.15 672.773 L134.544 672.773 L134.544 677.032 L129.15 677.032 Z" fill="#000000" fill-rule="evenodd" fill-opacity="1" /><path clip-path="url(#clip800)" d="M149.52 642.31 L165.168 642.31 L165.168 646.569 L149.659 646.569 Q145.979 646.569 144.15 648.005 Q142.321 649.44 142.321 652.31 Q142.321 655.759 144.52 657.75 Q146.719 659.741 150.516 659.741 L165.168 659.741 L165.168 664.023 L129.15 664.023 L129.15 659.741 L143.27 659.741 Q140.932 658.213 139.775 656.153 Q138.618 654.069 138.618 651.361 Q138.618 646.893 141.395 644.602 Q144.15 642.31 149.52 642.31 Z" fill="#000000" fill-rule="evenodd" fill-opacity="1" /><path clip-path="url(#clip800)" d="M142.229 623.769 Q142.229 627.194 144.914 629.185 Q147.576 631.176 152.229 631.176 Q156.881 631.176 159.567 629.208 Q162.229 627.218 162.229 623.769 Q162.229 620.366 159.543 618.375 Q156.858 616.384 152.229 616.384 Q147.622 616.384 144.937 618.375 Q142.229 620.366 142.229 623.769 M138.618 623.769 Q138.618 618.213 142.229 615.042 Q145.84 611.87 152.229 611.87 Q158.594 611.87 162.229 615.042 Q165.84 618.213 165.84 623.769 Q165.84 629.347 162.229 632.519 Q158.594 635.667 152.229 635.667 Q145.84 635.667 142.229 632.519 Q138.618 629.347 138.618 623.769 Z" fill="#000000" fill-rule="evenodd" fill-opacity="1" /><path clip-path="url(#clip800)" d="M142.229 594.764 Q142.229 598.19 144.914 600.181 Q147.576 602.171 152.229 602.171 Q156.881 602.171 159.567 600.204 Q162.229 598.213 162.229 594.764 Q162.229 591.361 159.543 589.371 Q156.858 587.38 152.229 587.38 Q147.622 587.38 144.937 589.371 Q142.229 591.361 142.229 594.764 M138.618 594.764 Q138.618 589.209 142.229 586.037 Q145.84 582.866 152.229 582.866 Q158.594 582.866 162.229 586.037 Q165.84 589.209 165.84 594.764 Q165.84 600.343 162.229 603.514 Q158.594 606.662 152.229 606.662 Q145.84 606.662 142.229 603.514 Q138.618 600.343 138.618 594.764 Z" fill="#000000" fill-rule="evenodd" fill-opacity="1" /><path clip-path="url(#clip800)" d="M143.178 558.746 L129.15 558.746 L129.15 554.487 L165.168 554.487 L165.168 558.746 L161.28 558.746 Q163.594 560.088 164.729 562.149 Q165.84 564.186 165.84 567.056 Q165.84 571.755 162.09 574.718 Q158.34 577.658 152.229 577.658 Q146.118 577.658 142.368 574.718 Q138.618 571.755 138.618 567.056 Q138.618 564.186 139.752 562.149 Q140.863 560.088 143.178 558.746 M152.229 573.26 Q156.928 573.26 159.613 571.338 Q162.275 569.394 162.275 566.014 Q162.275 562.635 159.613 560.69 Q156.928 558.746 152.229 558.746 Q147.53 558.746 144.868 560.69 Q142.182 562.635 142.182 566.014 Q142.182 569.394 144.868 571.338 Q147.53 573.26 152.229 573.26 Z" fill="#000000" fill-rule="evenodd" fill-opacity="1" /><path clip-path="url(#clip800)" d="M1212.92 35.5496 Q1206.47 35.5496 1203.98 37.0253 Q1201.49 38.501 1201.49 42.06 Q1201.49 44.8956 1203.34 46.5738 Q1205.22 48.2231 1208.44 48.2231 Q1212.86 48.2231 1215.53 45.0981 Q1218.22 41.9442 1218.22 36.7359 L1218.22 35.5496 L1212.92 35.5496 M1223.54 33.3505 L1223.54 51.84 L1218.22 51.84 L1218.22 46.921 Q1216.39 49.8724 1213.67 51.2902 Q1210.95 52.6791 1207.02 52.6791 Q1202.04 52.6791 1199.09 49.9014 Q1196.17 47.0947 1196.17 42.4072 Q1196.17 36.9385 1199.81 34.1607 Q1203.49 31.3829 1210.75 31.3829 L1218.22 31.3829 L1218.22 30.8621 Q1218.22 27.1874 1215.79 25.1908 Q1213.38 23.1654 1209.02 23.1654 Q1206.24 23.1654 1203.6 23.8309 Q1200.97 24.4964 1198.54 25.8274 L1198.54 20.9085 Q1201.46 19.78 1204.21 19.2302 Q1206.96 18.6515 1209.57 18.6515 Q1216.6 18.6515 1220.07 22.2973 Q1223.54 25.9431 1223.54 33.3505 Z" fill="#000000" fill-rule="evenodd" fill-opacity="1" /><path clip-path="url(#clip800)" d="M1257.83 20.677 L1257.83 25.6538 Q1255.57 24.4096 1253.29 23.802 Q1251.03 23.1654 1248.71 23.1654 Q1243.53 23.1654 1240.67 26.464 Q1237.81 29.7336 1237.81 35.6653 Q1237.81 41.597 1240.67 44.8956 Q1243.53 48.1653 1248.71 48.1653 Q1251.03 48.1653 1253.29 47.5576 Q1255.57 46.921 1257.83 45.6768 L1257.83 50.5958 Q1255.6 51.6375 1253.2 52.1583 Q1250.83 52.6791 1248.14 52.6791 Q1240.81 52.6791 1236.5 48.0784 Q1232.19 43.4778 1232.19 35.6653 Q1232.19 27.7371 1236.53 23.1943 Q1240.9 18.6515 1248.48 18.6515 Q1250.94 18.6515 1253.29 19.1724 Q1255.63 19.6642 1257.83 20.677 Z" fill="#000000" fill-rule="evenodd" fill-opacity="1" /><path clip-path="url(#clip800)" d="M1290.41 20.677 L1290.41 25.6538 Q1288.15 24.4096 1285.87 23.802 Q1283.61 23.1654 1281.29 23.1654 Q1276.12 23.1654 1273.25 26.464 Q1270.39 29.7336 1270.39 35.6653 Q1270.39 41.597 1273.25 44.8956 Q1276.12 48.1653 1281.29 48.1653 Q1283.61 48.1653 1285.87 47.5576 Q1288.15 46.921 1290.41 45.6768 L1290.41 50.5958 Q1288.18 51.6375 1285.78 52.1583 Q1283.41 52.6791 1280.72 52.6791 Q1273.4 52.6791 1269.08 48.0784 Q1264.77 43.4778 1264.77 35.6653 Q1264.77 27.7371 1269.11 23.1943 Q1273.48 18.6515 1281.06 18.6515 Q1283.52 18.6515 1285.87 19.1724 Q1288.21 19.6642 1290.41 20.677 Z" fill="#000000" fill-rule="evenodd" fill-opacity="1" /><path clip-path="url(#clip800)" d="M1299.67 19.4328 L1304.99 19.4328 L1304.99 51.84 L1299.67 51.84 L1299.67 19.4328 M1299.67 6.81709 L1304.99 6.81709 L1304.99 13.559 L1299.67 13.559 L1299.67 6.81709 Z" fill="#000000" fill-rule="evenodd" fill-opacity="1" /><path clip-path="url(#clip800)" d="M1337.46 24.3517 L1337.46 6.81709 L1342.78 6.81709 L1342.78 51.84 L1337.46 51.84 L1337.46 46.9789 Q1335.78 49.8724 1333.2 51.2902 Q1330.66 52.6791 1327.07 52.6791 Q1321.2 52.6791 1317.49 47.9916 Q1313.82 43.3042 1313.82 35.6653 Q1313.82 28.0265 1317.49 23.339 Q1321.2 18.6515 1327.07 18.6515 Q1330.66 18.6515 1333.2 20.0693 Q1335.78 21.4582 1337.46 24.3517 M1319.32 35.6653 Q1319.32 41.5391 1321.72 44.8956 Q1324.15 48.2231 1328.37 48.2231 Q1332.6 48.2231 1335.03 44.8956 Q1337.46 41.5391 1337.46 35.6653 Q1337.46 29.7915 1335.03 26.464 Q1332.6 23.1075 1328.37 23.1075 Q1324.15 23.1075 1321.72 26.464 Q1319.32 29.7915 1319.32 35.6653 Z" fill="#000000" fill-rule="evenodd" fill-opacity="1" /><path clip-path="url(#clip800)" d="M1381.47 34.3054 L1381.47 36.9095 L1356.99 36.9095 Q1357.34 42.4072 1360.29 45.3007 Q1363.27 48.1653 1368.56 48.1653 Q1371.63 48.1653 1374.49 47.4129 Q1377.39 46.6606 1380.22 45.156 L1380.22 50.1907 Q1377.36 51.406 1374.35 52.0425 Q1371.34 52.6791 1368.24 52.6791 Q1360.49 52.6791 1355.95 48.1653 Q1351.43 43.6514 1351.43 35.9547 Q1351.43 27.9975 1355.72 23.339 Q1360.03 18.6515 1367.32 18.6515 Q1373.86 18.6515 1377.65 22.876 Q1381.47 27.0716 1381.47 34.3054 M1376.14 32.7429 Q1376.09 28.3737 1373.68 25.7695 Q1371.31 23.1654 1367.38 23.1654 Q1362.92 23.1654 1360.23 25.6827 Q1357.57 28.2001 1357.16 32.7718 L1376.14 32.7429 Z" fill="#000000" fill-rule="evenodd" fill-opacity="1" /><path clip-path="url(#clip800)" d="M1417.14 32.2799 L1417.14 51.84 L1411.82 51.84 L1411.82 32.4535 Q1411.82 27.8529 1410.03 25.567 Q1408.23 23.2811 1404.65 23.2811 Q1400.33 23.2811 1397.85 26.03 Q1395.36 28.7788 1395.36 33.5241 L1395.36 51.84 L1390 51.84 L1390 19.4328 L1395.36 19.4328 L1395.36 24.4675 Q1397.27 21.545 1399.84 20.0983 Q1402.45 18.6515 1405.83 18.6515 Q1411.42 18.6515 1414.28 22.1237 Q1417.14 25.567 1417.14 32.2799 Z" fill="#000000" fill-rule="evenodd" fill-opacity="1" /><path clip-path="url(#clip800)" d="M1433.03 10.2314 L1433.03 19.4328 L1444 19.4328 L1444 23.5705 L1433.03 23.5705 L1433.03 41.163 Q1433.03 45.1271 1434.1 46.2555 Q1435.2 47.384 1438.53 47.384 L1444 47.384 L1444 51.84 L1438.53 51.84 Q1432.36 51.84 1430.02 49.5541 Q1427.68 47.2393 1427.68 41.163 L1427.68 23.5705 L1423.77 23.5705 L1423.77 19.4328 L1427.68 19.4328 L1427.68 10.2314 L1433.03 10.2314 Z" fill="#000000" fill-rule="evenodd" fill-opacity="1" /><path clip-path="url(#clip800)" d="M1471.66 20.3876 L1471.66 25.4223 Q1469.4 24.2649 1466.97 23.6862 Q1464.54 23.1075 1461.94 23.1075 Q1457.97 23.1075 1455.98 24.3228 Q1454.01 25.5381 1454.01 27.9686 Q1454.01 29.8204 1455.43 30.891 Q1456.84 31.9327 1461.13 32.8876 L1462.95 33.2926 Q1468.62 34.5079 1470.99 36.7359 Q1473.39 38.935 1473.39 42.8991 Q1473.39 47.4129 1469.81 50.046 Q1466.25 52.6791 1460 52.6791 Q1457.39 52.6791 1454.56 52.1583 Q1451.75 51.6664 1448.63 50.6537 L1448.63 45.156 Q1451.58 46.6896 1454.44 47.4708 Q1457.31 48.2231 1460.11 48.2231 Q1463.88 48.2231 1465.9 46.95 Q1467.93 45.6479 1467.93 43.3042 Q1467.93 41.134 1466.45 39.9766 Q1465 38.8192 1460.06 37.7486 L1458.2 37.3146 Q1453.26 36.273 1451.06 34.1318 Q1448.86 31.9616 1448.86 28.2001 Q1448.86 23.6283 1452.1 21.1399 Q1455.34 18.6515 1461.3 18.6515 Q1464.25 18.6515 1466.86 19.0855 Q1469.46 19.5196 1471.66 20.3876 Z" fill="#000000" fill-rule="evenodd" fill-opacity="1" /><polyline clip-path="url(#clip802)" style="stroke:#e26f46; stroke-linecap:butt; stroke-linejoin:round; stroke-width:8; stroke-opacity:1; fill:none" points="
  403.977,503.468 433.527,503.468 463.076,503.468 492.625,503.468 522.175,503.468 551.724,503.468 581.273,503.468 610.823,503.468 640.372,503.468 669.921,503.468 
  699.471,503.468 729.02,503.468 758.569,503.468 788.119,503.468 817.668,503.468 847.217,503.468 876.767,503.468 906.316,503.468 935.865,503.468 965.415,503.468 
  994.964,503.468 1024.51,503.468 1054.06,503.468 1083.61,503.468 1113.16,503.468 1142.71,503.468 1172.26,503.468 1201.81,503.468 1231.36,503.468 1260.91,503.468 
  1290.46,503.468 1320.01,503.468 1349.56,503.468 1379.11,503.468 1408.65,503.468 1438.2,503.468 1467.75,503.468 1497.3,503.468 1526.85,503.468 1556.4,503.468 
  1585.95,503.468 1615.5,503.468 1645.05,503.468 1674.6,503.468 1704.15,503.468 1733.7,503.468 1763.25,503.468 1792.8,503.468 1822.35,503.468 1851.89,503.468 
  1881.44,503.468 1910.99,503.468 1940.54,503.468 1970.09,503.468 1999.64,503.468 2029.19,503.468 2058.74,503.468 2088.29,503.468 2117.84,503.468 2147.39,503.468 
  2176.94,503.468 2206.49,503.468 2236.04,503.468 2265.59,503.468 2295.13,503.468 
  "/>
<polyline clip-path="url(#clip802)" style="stroke:#3da44d; stroke-linecap:butt; stroke-linejoin:round; stroke-width:8; stroke-opacity:1; fill:none" points="
  403.977,282.694 433.527,282.694 463.076,282.694 492.625,282.694 522.175,282.694 551.724,282.694 581.273,282.694 610.823,282.694 640.372,282.694 669.921,282.694 
  699.471,282.694 729.02,282.694 758.569,282.694 788.119,282.694 817.668,282.694 847.217,282.694 876.767,282.694 906.316,282.694 935.865,282.694 965.415,282.694 
  994.964,282.694 1024.51,282.694 1054.06,282.694 1083.61,282.694 1113.16,282.694 1142.71,282.694 1172.26,282.694 1201.81,282.694 1231.36,282.694 1260.91,282.694 
  1290.46,282.694 1320.01,282.694 1349.56,282.694 1379.11,282.694 1408.65,282.694 1438.2,282.694 1467.75,282.694 1497.3,282.694 1526.85,282.694 1556.4,282.694 
  1585.95,282.694 1615.5,282.694 1645.05,282.694 1674.6,282.694 1704.15,282.694 1733.7,282.694 1763.25,282.694 1792.8,282.694 1822.35,282.694 1851.89,282.694 
  1881.44,282.694 1910.99,282.694 1940.54,282.694 1970.09,282.694 1999.64,282.694 2029.19,282.694 2058.74,282.694 2088.29,282.694 2117.84,282.694 2147.39,282.694 
  2176.94,282.694 2206.49,282.694 2236.04,282.694 2265.59,282.694 2295.13,282.694 
  "/>
<polyline clip-path="url(#clip802)" style="stroke:#c271d2; stroke-linecap:butt; stroke-linejoin:round; stroke-width:8; stroke-opacity:1; fill:none" points="
  403.977,525.545 433.527,525.545 463.076,525.545 492.625,525.545 522.175,525.545 551.724,525.545 581.273,525.545 610.823,525.545 640.372,525.545 669.921,525.545 
  699.471,525.545 729.02,525.545 758.569,525.545 788.119,525.545 817.668,525.545 847.217,525.545 876.767,525.545 906.316,525.545 935.865,525.545 965.415,525.545 
  994.964,525.545 1024.51,525.545 1054.06,525.545 1083.61,525.545 1113.16,525.545 1142.71,525.545 1172.26,525.545 1201.81,525.545 1231.36,525.545 1260.91,525.545 
  1290.46,525.545 1320.01,525.545 1349.56,525.545 1379.11,525.545 1408.65,525.545 1438.2,525.545 1467.75,525.545 1497.3,525.545 1526.85,525.545 1556.4,525.545 
  1585.95,525.545 1615.5,525.545 1645.05,525.545 1674.6,525.545 1704.15,525.545 1733.7,525.545 1763.25,525.545 1792.8,525.545 1822.35,525.545 1851.89,525.545 
  1881.44,525.545 1910.99,525.545 1940.54,525.545 1970.09,525.545 1999.64,525.545 2029.19,525.545 2058.74,525.545 2088.29,525.545 2117.84,525.545 2147.39,525.545 
  2176.94,525.545 2206.49,525.545 2236.04,525.545 2265.59,525.545 2295.13,525.545 
  "/>
<polyline clip-path="url(#clip802)" style="stroke:#ac8d18; stroke-linecap:butt; stroke-linejoin:round; stroke-width:8; stroke-opacity:1; fill:none" points="
  403.977,671.595 433.527,671.595 463.076,671.595 492.625,671.595 522.175,671.595 551.724,671.595 581.273,671.595 610.823,671.595 640.372,671.595 669.921,671.595 
  699.471,671.595 729.02,671.595 758.569,671.595 788.119,671.595 817.668,671.595 847.217,671.595 876.767,671.595 906.316,671.595 935.865,671.595 965.415,671.595 
  994.964,671.595 1024.51,671.595 1054.06,671.595 1083.61,671.595 1113.16,671.595 1142.71,671.595 1172.26,671.595 1201.81,671.595 1231.36,671.595 1260.91,671.595 
  1290.46,671.595 1320.01,671.595 1349.56,671.595 1379.11,671.595 1408.65,671.595 1438.2,671.595 1467.75,671.595 1497.3,671.595 1526.85,671.595 1556.4,671.595 
  1585.95,671.595 1615.5,671.595 1645.05,671.595 1674.6,671.595 1704.15,671.595 1733.7,671.595 1763.25,671.595 1792.8,671.595 1822.35,671.595 1851.89,671.595 
  1881.44,671.595 1910.99,671.595 1940.54,671.595 1970.09,671.595 1999.64,671.595 2029.19,671.595 2058.74,671.595 2088.29,671.595 2117.84,671.595 2147.39,671.595 
  2176.94,671.595 2206.49,671.595 2236.04,671.595 2265.59,671.595 2295.13,671.595 
  "/>
<polyline clip-path="url(#clip802)" style="stroke:#00a9ad; stroke-linecap:butt; stroke-linejoin:round; stroke-width:8; stroke-opacity:1; fill:none" points="
  403.977,143.437 433.527,143.437 463.076,143.437 492.625,143.437 522.175,143.437 551.724,143.437 581.273,143.437 610.823,143.437 640.372,143.437 669.921,143.437 
  699.471,143.437 729.02,143.437 758.569,143.437 788.119,143.437 817.668,143.437 847.217,143.437 876.767,143.437 906.316,143.437 935.865,143.437 965.415,143.437 
  994.964,143.437 1024.51,143.437 1054.06,143.437 1083.61,143.437 1113.16,143.437 1142.71,143.437 1172.26,143.437 1201.81,143.437 1231.36,143.437 1260.91,143.437 
  1290.46,143.437 1320.01,143.437 1349.56,143.437 1379.11,143.437 1408.65,143.437 1438.2,143.437 1467.75,143.437 1497.3,143.437 1526.85,143.437 1556.4,143.437 
  1585.95,143.437 1615.5,143.437 1645.05,143.437 1674.6,143.437 1704.15,143.437 1733.7,143.437 1763.25,143.437 1792.8,143.437 1822.35,143.437 1851.89,143.437 
  1881.44,143.437 1910.99,143.437 1940.54,143.437 1970.09,143.437 1999.64,143.437 2029.19,143.437 2058.74,143.437 2088.29,143.437 2117.84,143.437 2147.39,143.437 
  2176.94,143.437 2206.49,143.437 2236.04,143.437 2265.59,143.437 2295.13,143.437 
  "/>
<polyline clip-path="url(#clip802)" style="stroke:#009af9; stroke-linecap:butt; stroke-linejoin:round; stroke-width:12; stroke-opacity:1; fill:none" points="
  403.977,1384.93 433.527,924.917 463.076,764.781 492.625,675.064 522.175,612.671 551.724,573.276 581.273,528.266 610.823,501.142 640.372,482.987 669.921,472.394 
  699.471,442.221 729.02,448.293 758.569,453.951 788.119,436.468 817.668,429.035 847.217,419.599 876.767,418.12 906.316,415.44 935.865,408.294 965.415,399.003 
  994.964,395.943 1024.51,394.34 1054.06,395.618 1083.61,393.651 1113.16,386.834 1142.71,397.585 1172.26,392.552 1201.81,389.645 1231.36,386.235 1260.91,381.079 
  1290.46,379.222 1320.01,376.956 1349.56,374.279 1379.11,374.136 1408.65,371.767 1438.2,371.332 1467.75,369.682 1497.3,367.776 1526.85,369.912 1556.4,371.219 
  1585.95,369.818 1615.5,367.611 1645.05,365.813 1674.6,365.665 1704.15,363.604 1733.7,362.657 1763.25,362.984 1792.8,361.409 1822.35,360.577 1851.89,360.03 
  
  "/>
<polyline clip-path="url(#clip802)" style="stroke:#f05f73; stroke-linecap:butt; stroke-linejoin:round; stroke-width:12; stroke-opacity:1; fill:none" points="
  1851.89,360.03 1881.44,345.592 1910.99,340.389 1940.54,336.886 1970.09,334.256 1999.64,332.176 2029.19,330.649 2058.74,329.498 2088.29,328.618 2117.84,327.922 
  2147.39,327.259 2176.94,326.44 2206.49,324.408 2236.04,320.711 2265.59,319.386 2295.13,318.636 
  "/>
</svg>
