<?xml version="1.0" encoding="utf-8"?>
<svg xmlns="http://www.w3.org/2000/svg" xmlns:xlink="http://www.w3.org/1999/xlink" width="600" height="400" viewBox="0 0 2400 1600">
<defs>
  <clipPath id="clip430">
    <rect x="0" y="0" width="2400" height="1600"/>
  </clipPath>
</defs>
<path clip-path="url(#clip430)" d="
M0 1600 L2400 1600 L2400 0 L0 0  Z
  " fill="#ffffff" fill-rule="evenodd" fill-opacity="1"/>
<defs>
  <clipPath id="clip431">
    <rect x="480" y="0" width="1681" height="1600"/>
  </clipPath>
</defs>
<path clip-path="url(#clip430)" d="
M316.442 1422.18 L2352.76 1422.18 L2352.76 106.192 L316.442 106.192  Z
  " fill="#eaeaea" fill-rule="evenodd" fill-opacity="1"/>
<defs>
  <clipPath id="clip432">
    <rect x="316" y="106" width="2037" height="1317"/>
  </clipPath>
</defs>
<polyline clip-path="url(#clip432)" style="stroke:#ffffff; stroke-linecap:butt; stroke-linejoin:round; stroke-width:4; stroke-opacity:1; fill:none" points="
  374.074,1422.18 374.074,106.192 
  "/>
<polyline clip-path="url(#clip432)" style="stroke:#ffffff; stroke-linecap:butt; stroke-linejoin:round; stroke-width:4; stroke-opacity:1; fill:none" points="
  521.847,1422.18 521.847,106.192 
  "/>
<polyline clip-path="url(#clip432)" style="stroke:#ffffff; stroke-linecap:butt; stroke-linejoin:round; stroke-width:4; stroke-opacity:1; fill:none" points="
  669.62,1422.18 669.62,106.192 
  "/>
<polyline clip-path="url(#clip432)" style="stroke:#ffffff; stroke-linecap:butt; stroke-linejoin:round; stroke-width:4; stroke-opacity:1; fill:none" points="
  817.393,1422.18 817.393,106.192 
  "/>
<polyline clip-path="url(#clip432)" style="stroke:#ffffff; stroke-linecap:butt; stroke-linejoin:round; stroke-width:4; stroke-opacity:1; fill:none" points="
  965.166,1422.18 965.166,106.192 
  "/>
<polyline clip-path="url(#clip432)" style="stroke:#ffffff; stroke-linecap:butt; stroke-linejoin:round; stroke-width:4; stroke-opacity:1; fill:none" points="
  1112.94,1422.18 1112.94,106.192 
  "/>
<polyline clip-path="url(#clip432)" style="stroke:#ffffff; stroke-linecap:butt; stroke-linejoin:round; stroke-width:4; stroke-opacity:1; fill:none" points="
  1260.71,1422.18 1260.71,106.192 
  "/>
<polyline clip-path="url(#clip432)" style="stroke:#ffffff; stroke-linecap:butt; stroke-linejoin:round; stroke-width:4; stroke-opacity:1; fill:none" points="
  1408.49,1422.18 1408.49,106.192 
  "/>
<polyline clip-path="url(#clip432)" style="stroke:#ffffff; stroke-linecap:butt; stroke-linejoin:round; stroke-width:4; stroke-opacity:1; fill:none" points="
  1556.26,1422.18 1556.26,106.192 
  "/>
<polyline clip-path="url(#clip432)" style="stroke:#ffffff; stroke-linecap:butt; stroke-linejoin:round; stroke-width:4; stroke-opacity:1; fill:none" points="
  1704.03,1422.18 1704.03,106.192 
  "/>
<polyline clip-path="url(#clip432)" style="stroke:#ffffff; stroke-linecap:butt; stroke-linejoin:round; stroke-width:4; stroke-opacity:1; fill:none" points="
  1851.81,1422.18 1851.81,106.192 
  "/>
<polyline clip-path="url(#clip432)" style="stroke:#ffffff; stroke-linecap:butt; stroke-linejoin:round; stroke-width:4; stroke-opacity:1; fill:none" points="
  1999.58,1422.18 1999.58,106.192 
  "/>
<polyline clip-path="url(#clip432)" style="stroke:#ffffff; stroke-linecap:butt; stroke-linejoin:round; stroke-width:4; stroke-opacity:1; fill:none" points="
  2147.35,1422.18 2147.35,106.192 
  "/>
<polyline clip-path="url(#clip432)" style="stroke:#ffffff; stroke-linecap:butt; stroke-linejoin:round; stroke-width:4; stroke-opacity:1; fill:none" points="
  2295.12,1422.18 2295.12,106.192 
  "/>
<polyline clip-path="url(#clip432)" style="stroke:#ffffff; stroke-linecap:butt; stroke-linejoin:round; stroke-width:2; stroke-opacity:1; fill:none" points="
  447.96,1422.18 447.96,106.192 
  "/>
<polyline clip-path="url(#clip432)" style="stroke:#ffffff; stroke-linecap:butt; stroke-linejoin:round; stroke-width:2; stroke-opacity:1; fill:none" points="
  595.733,1422.18 595.733,106.192 
  "/>
<polyline clip-path="url(#clip432)" style="stroke:#ffffff; stroke-linecap:butt; stroke-linejoin:round; stroke-width:2; stroke-opacity:1; fill:none" points="
  743.507,1422.18 743.507,106.192 
  "/>
<polyline clip-path="url(#clip432)" style="stroke:#ffffff; stroke-linecap:butt; stroke-linejoin:round; stroke-width:2; stroke-opacity:1; fill:none" points="
  891.28,1422.18 891.28,106.192 
  "/>
<polyline clip-path="url(#clip432)" style="stroke:#ffffff; stroke-linecap:butt; stroke-linejoin:round; stroke-width:2; stroke-opacity:1; fill:none" points="
  1039.05,1422.18 1039.05,106.192 
  "/>
<polyline clip-path="url(#clip432)" style="stroke:#ffffff; stroke-linecap:butt; stroke-linejoin:round; stroke-width:2; stroke-opacity:1; fill:none" points="
  1186.83,1422.18 1186.83,106.192 
  "/>
<polyline clip-path="url(#clip432)" style="stroke:#ffffff; stroke-linecap:butt; stroke-linejoin:round; stroke-width:2; stroke-opacity:1; fill:none" points="
  1334.6,1422.18 1334.6,106.192 
  "/>
<polyline clip-path="url(#clip432)" style="stroke:#ffffff; stroke-linecap:butt; stroke-linejoin:round; stroke-width:2; stroke-opacity:1; fill:none" points="
  1482.37,1422.18 1482.37,106.192 
  "/>
<polyline clip-path="url(#clip432)" style="stroke:#ffffff; stroke-linecap:butt; stroke-linejoin:round; stroke-width:2; stroke-opacity:1; fill:none" points="
  1630.15,1422.18 1630.15,106.192 
  "/>
<polyline clip-path="url(#clip432)" style="stroke:#ffffff; stroke-linecap:butt; stroke-linejoin:round; stroke-width:2; stroke-opacity:1; fill:none" points="
  1777.92,1422.18 1777.92,106.192 
  "/>
<polyline clip-path="url(#clip432)" style="stroke:#ffffff; stroke-linecap:butt; stroke-linejoin:round; stroke-width:2; stroke-opacity:1; fill:none" points="
  1925.69,1422.18 1925.69,106.192 
  "/>
<polyline clip-path="url(#clip432)" style="stroke:#ffffff; stroke-linecap:butt; stroke-linejoin:round; stroke-width:2; stroke-opacity:1; fill:none" points="
  2073.46,1422.18 2073.46,106.192 
  "/>
<polyline clip-path="url(#clip432)" style="stroke:#ffffff; stroke-linecap:butt; stroke-linejoin:round; stroke-width:2; stroke-opacity:1; fill:none" points="
  2221.24,1422.18 2221.24,106.192 
  "/>
<polyline clip-path="url(#clip430)" style="stroke:#ffffff; stroke-linecap:butt; stroke-linejoin:round; stroke-width:4; stroke-opacity:1; fill:none" points="
  316.442,1422.18 2352.76,1422.18 
  "/>
<polyline clip-path="url(#clip430)" style="stroke:#333333; stroke-linecap:butt; stroke-linejoin:round; stroke-width:4; stroke-opacity:1; fill:none" points="
  374.074,1422.18 374.074,1441.07 
  "/>
<polyline clip-path="url(#clip430)" style="stroke:#333333; stroke-linecap:butt; stroke-linejoin:round; stroke-width:4; stroke-opacity:1; fill:none" points="
  521.847,1422.18 521.847,1441.07 
  "/>
<polyline clip-path="url(#clip430)" style="stroke:#333333; stroke-linecap:butt; stroke-linejoin:round; stroke-width:4; stroke-opacity:1; fill:none" points="
  669.62,1422.18 669.62,1441.07 
  "/>
<polyline clip-path="url(#clip430)" style="stroke:#333333; stroke-linecap:butt; stroke-linejoin:round; stroke-width:4; stroke-opacity:1; fill:none" points="
  817.393,1422.18 817.393,1441.07 
  "/>
<polyline clip-path="url(#clip430)" style="stroke:#333333; stroke-linecap:butt; stroke-linejoin:round; stroke-width:4; stroke-opacity:1; fill:none" points="
  965.166,1422.18 965.166,1441.07 
  "/>
<polyline clip-path="url(#clip430)" style="stroke:#333333; stroke-linecap:butt; stroke-linejoin:round; stroke-width:4; stroke-opacity:1; fill:none" points="
  1112.94,1422.18 1112.94,1441.07 
  "/>
<polyline clip-path="url(#clip430)" style="stroke:#333333; stroke-linecap:butt; stroke-linejoin:round; stroke-width:4; stroke-opacity:1; fill:none" points="
  1260.71,1422.18 1260.71,1441.07 
  "/>
<polyline clip-path="url(#clip430)" style="stroke:#333333; stroke-linecap:butt; stroke-linejoin:round; stroke-width:4; stroke-opacity:1; fill:none" points="
  1408.49,1422.18 1408.49,1441.07 
  "/>
<polyline clip-path="url(#clip430)" style="stroke:#333333; stroke-linecap:butt; stroke-linejoin:round; stroke-width:4; stroke-opacity:1; fill:none" points="
  1556.26,1422.18 1556.26,1441.07 
  "/>
<polyline clip-path="url(#clip430)" style="stroke:#333333; stroke-linecap:butt; stroke-linejoin:round; stroke-width:4; stroke-opacity:1; fill:none" points="
  1704.03,1422.18 1704.03,1441.07 
  "/>
<polyline clip-path="url(#clip430)" style="stroke:#333333; stroke-linecap:butt; stroke-linejoin:round; stroke-width:4; stroke-opacity:1; fill:none" points="
  1851.81,1422.18 1851.81,1441.07 
  "/>
<polyline clip-path="url(#clip430)" style="stroke:#333333; stroke-linecap:butt; stroke-linejoin:round; stroke-width:4; stroke-opacity:1; fill:none" points="
  1999.58,1422.18 1999.58,1441.07 
  "/>
<polyline clip-path="url(#clip430)" style="stroke:#333333; stroke-linecap:butt; stroke-linejoin:round; stroke-width:4; stroke-opacity:1; fill:none" points="
  2147.35,1422.18 2147.35,1441.07 
  "/>
<polyline clip-path="url(#clip430)" style="stroke:#333333; stroke-linecap:butt; stroke-linejoin:round; stroke-width:4; stroke-opacity:1; fill:none" points="
  2295.12,1422.18 2295.12,1441.07 
  "/>
<polyline clip-path="url(#clip430)" style="stroke:#333333; stroke-linecap:butt; stroke-linejoin:round; stroke-width:4; stroke-opacity:1; fill:none" points="
  447.96,1422.18 447.96,1431.63 
  "/>
<polyline clip-path="url(#clip430)" style="stroke:#333333; stroke-linecap:butt; stroke-linejoin:round; stroke-width:4; stroke-opacity:1; fill:none" points="
  595.733,1422.18 595.733,1431.63 
  "/>
<polyline clip-path="url(#clip430)" style="stroke:#333333; stroke-linecap:butt; stroke-linejoin:round; stroke-width:4; stroke-opacity:1; fill:none" points="
  743.507,1422.18 743.507,1431.63 
  "/>
<polyline clip-path="url(#clip430)" style="stroke:#333333; stroke-linecap:butt; stroke-linejoin:round; stroke-width:4; stroke-opacity:1; fill:none" points="
  891.28,1422.18 891.28,1431.63 
  "/>
<polyline clip-path="url(#clip430)" style="stroke:#333333; stroke-linecap:butt; stroke-linejoin:round; stroke-width:4; stroke-opacity:1; fill:none" points="
  1039.05,1422.18 1039.05,1431.63 
  "/>
<polyline clip-path="url(#clip430)" style="stroke:#333333; stroke-linecap:butt; stroke-linejoin:round; stroke-width:4; stroke-opacity:1; fill:none" points="
  1186.83,1422.18 1186.83,1431.63 
  "/>
<polyline clip-path="url(#clip430)" style="stroke:#333333; stroke-linecap:butt; stroke-linejoin:round; stroke-width:4; stroke-opacity:1; fill:none" points="
  1334.6,1422.18 1334.6,1431.63 
  "/>
<polyline clip-path="url(#clip430)" style="stroke:#333333; stroke-linecap:butt; stroke-linejoin:round; stroke-width:4; stroke-opacity:1; fill:none" points="
  1482.37,1422.18 1482.37,1431.63 
  "/>
<polyline clip-path="url(#clip430)" style="stroke:#333333; stroke-linecap:butt; stroke-linejoin:round; stroke-width:4; stroke-opacity:1; fill:none" points="
  1630.15,1422.18 1630.15,1431.63 
  "/>
<polyline clip-path="url(#clip430)" style="stroke:#333333; stroke-linecap:butt; stroke-linejoin:round; stroke-width:4; stroke-opacity:1; fill:none" points="
  1777.92,1422.18 1777.92,1431.63 
  "/>
<polyline clip-path="url(#clip430)" style="stroke:#333333; stroke-linecap:butt; stroke-linejoin:round; stroke-width:4; stroke-opacity:1; fill:none" points="
  1925.69,1422.18 1925.69,1431.63 
  "/>
<polyline clip-path="url(#clip430)" style="stroke:#333333; stroke-linecap:butt; stroke-linejoin:round; stroke-width:4; stroke-opacity:1; fill:none" points="
  2073.46,1422.18 2073.46,1431.63 
  "/>
<polyline clip-path="url(#clip430)" style="stroke:#333333; stroke-linecap:butt; stroke-linejoin:round; stroke-width:4; stroke-opacity:1; fill:none" points="
  2221.24,1422.18 2221.24,1431.63 
  "/>
<path clip-path="url(#clip430)" d="M387.777 1463.13 Q386.423 1460.78 383.422 1460.93 Q380.444 1461.09 375.813 1463.76 Q371.198 1466.43 369.559 1468.94 Q367.945 1471.45 369.299 1473.8 Q370.662 1476.16 373.639 1476 Q376.64 1475.85 381.256 1473.19 Q385.887 1470.52 387.501 1468 Q389.14 1465.49 387.777 1463.13 M390.183 1461.74 Q392.361 1465.51 390.515 1469.23 Q388.693 1472.94 383.01 1476.23 Q377.341 1479.5 373.195 1479.23 Q369.072 1478.96 366.893 1475.19 Q364.714 1471.41 366.537 1467.69 Q368.383 1463.98 374.051 1460.71 Q379.734 1457.43 383.857 1457.69 Q388.004 1457.97 390.183 1461.74 Z" fill="#4c4c4c" fill-rule="evenodd" fill-opacity="1" /><path clip-path="url(#clip430)" d="M513.431 1466.14 L516.295 1471.1 L533.42 1461.21 L529.222 1456.44 L531.988 1454.84 L536.17 1459.58 L537.923 1462.62 L518.032 1474.11 L520.896 1479.07 L518.34 1480.54 L510.875 1467.61 L513.431 1466.14 Z" fill="#4c4c4c" fill-rule="evenodd" fill-opacity="1" /><path clip-path="url(#clip430)" d="M546.08 1481.37 Q544.725 1479.02 541.724 1479.17 Q538.747 1479.33 534.116 1482 Q529.5 1484.66 527.862 1487.17 Q526.247 1489.69 527.601 1492.04 Q528.964 1494.4 531.942 1494.24 Q534.943 1494.09 539.559 1491.43 Q544.189 1488.75 545.804 1486.24 Q547.442 1483.73 546.08 1481.37 M548.485 1479.98 Q550.664 1483.75 548.818 1487.46 Q546.995 1491.18 541.312 1494.46 Q535.644 1497.74 531.497 1497.46 Q527.375 1497.2 525.196 1493.42 Q523.017 1489.65 524.839 1485.93 Q526.686 1482.22 532.354 1478.95 Q538.037 1475.67 542.16 1475.93 Q546.306 1476.2 548.485 1479.98 Z" fill="#4c4c4c" fill-rule="evenodd" fill-opacity="1" /><path clip-path="url(#clip430)" d="M663.062 1469.35 L669.181 1479.95 L666.625 1481.43 L658.396 1467.18 L660.952 1465.7 Q663.74 1466.4 668.465 1467.64 Q673.215 1468.89 674.53 1469.15 Q677.011 1469.66 678.468 1469.58 Q679.949 1469.51 681.047 1468.87 Q682.836 1467.84 683.234 1465.93 Q683.642 1464.03 682.478 1462.01 Q681.654 1460.59 680.237 1459.28 Q678.83 1457.99 676.781 1456.76 L679.848 1454.99 Q681.644 1456.4 682.94 1457.78 Q684.236 1459.15 685 1460.48 Q687.014 1463.97 686.467 1467.05 Q685.921 1470.13 683.004 1471.81 Q681.621 1472.61 680.069 1472.81 Q678.541 1473.01 676.068 1472.61 Q675.415 1472.49 672.161 1471.68 Q668.923 1470.86 663.062 1469.35 Z" fill="#4c4c4c" fill-rule="evenodd" fill-opacity="1" /><path clip-path="url(#clip430)" d="M694.504 1482.49 Q693.15 1480.15 690.148 1480.3 Q687.171 1480.45 682.54 1483.13 Q677.924 1485.79 676.286 1488.3 Q674.671 1490.82 676.026 1493.16 Q677.388 1495.52 680.366 1495.37 Q683.367 1495.22 687.983 1492.55 Q692.614 1489.88 694.228 1487.36 Q695.867 1484.86 694.504 1482.49 M696.909 1481.11 Q699.088 1484.88 697.242 1488.59 Q695.42 1492.31 689.736 1495.59 Q684.068 1498.86 679.922 1498.59 Q675.799 1498.33 673.62 1494.55 Q671.441 1490.78 673.264 1487.06 Q675.11 1483.35 680.778 1480.08 Q686.461 1476.79 690.584 1477.06 Q694.73 1477.33 696.909 1481.11 Z" fill="#4c4c4c" fill-rule="evenodd" fill-opacity="1" /><path clip-path="url(#clip430)" d="M824.132 1470.34 Q824.925 1472.79 824.154 1474.86 Q823.393 1476.94 821.228 1478.19 Q817.905 1480.11 814.766 1478.87 Q811.628 1477.64 809.197 1473.43 Q808.381 1472.01 807.799 1470.35 Q807.21 1468.7 806.846 1466.79 L809.778 1465.09 Q809.77 1466.78 810.262 1468.5 Q810.755 1470.22 811.701 1471.86 Q813.35 1474.72 815.337 1475.56 Q817.333 1476.41 819.483 1475.17 Q821.467 1474.02 821.773 1471.98 Q822.102 1469.95 820.67 1467.47 L819.159 1464.85 L821.655 1463.41 L823.235 1466.14 Q824.528 1468.38 826.101 1469.06 Q827.689 1469.73 829.373 1468.76 Q831.102 1467.76 831.307 1465.99 Q831.536 1464.24 830.217 1461.95 Q829.496 1460.71 828.401 1459.43 Q827.306 1458.16 825.745 1456.78 L828.451 1455.21 Q829.931 1456.67 831.039 1458.03 Q832.156 1459.41 832.929 1460.75 Q834.926 1464.21 834.51 1467.13 Q834.11 1470.05 831.433 1471.6 Q829.569 1472.67 827.66 1472.35 Q825.765 1472.02 824.132 1470.34 Z" fill="#4c4c4c" fill-rule="evenodd" fill-opacity="1" /><path clip-path="url(#clip430)" d="M842.225 1482.4 Q840.871 1480.06 837.869 1480.21 Q834.892 1480.36 830.261 1483.04 Q825.645 1485.7 824.007 1488.21 Q822.392 1490.73 823.747 1493.07 Q825.109 1495.43 828.087 1495.28 Q831.088 1495.13 835.704 1492.46 Q840.335 1489.79 841.949 1487.27 Q843.588 1484.76 842.225 1482.4 M844.63 1481.02 Q846.809 1484.79 844.963 1488.5 Q843.141 1492.22 837.457 1495.5 Q831.789 1498.77 827.643 1498.5 Q823.52 1498.24 821.341 1494.46 Q819.162 1490.69 820.985 1486.97 Q822.831 1483.26 828.499 1479.98 Q834.182 1476.7 838.305 1476.97 Q842.452 1477.24 844.63 1481.02 Z" fill="#4c4c4c" fill-rule="evenodd" fill-opacity="1" /><path clip-path="url(#clip430)" d="M979.594 1465.88 L963.184 1465.13 L967.611 1472.8 L979.594 1465.88 M981.781 1463.55 L983.985 1467.37 L969.356 1475.82 L971.205 1479.02 L968.679 1480.48 L966.83 1477.28 L961.538 1480.33 L959.793 1477.31 L965.086 1474.25 L959.235 1464.12 L962.167 1462.43 L981.781 1463.55 Z" fill="#4c4c4c" fill-rule="evenodd" fill-opacity="1" /><path clip-path="url(#clip430)" d="M990.484 1483.25 Q989.13 1480.9 986.129 1481.05 Q983.151 1481.21 978.52 1483.88 Q973.905 1486.54 972.266 1489.05 Q970.652 1491.57 972.006 1493.91 Q973.369 1496.28 976.346 1496.12 Q979.347 1495.97 983.963 1493.31 Q988.594 1490.63 990.208 1488.12 Q991.847 1485.61 990.484 1483.25 M992.89 1481.86 Q995.068 1485.63 993.222 1489.34 Q991.4 1493.06 985.717 1496.34 Q980.048 1499.62 975.902 1499.34 Q971.779 1499.08 969.6 1495.3 Q967.421 1491.53 969.244 1487.81 Q971.09 1484.1 976.758 1480.83 Q982.442 1477.55 986.564 1477.81 Q990.711 1478.08 992.89 1481.86 Z" fill="#4c4c4c" fill-rule="evenodd" fill-opacity="1" /><path clip-path="url(#clip430)" d="M1124.71 1455.16 L1131.59 1467.09 L1129.04 1468.56 L1123.76 1459.42 L1118.26 1462.6 Q1118.86 1463.13 1119.35 1463.73 Q1119.85 1464.32 1120.24 1464.98 Q1122.41 1468.74 1121.61 1472.13 Q1120.82 1475.51 1117.3 1477.54 Q1113.68 1479.63 1110.36 1478.54 Q1107.06 1477.44 1104.69 1473.34 Q1103.88 1471.92 1103.27 1470.31 Q1102.66 1468.71 1102.24 1466.87 L1105.29 1465.11 Q1105.34 1466.89 1105.81 1468.54 Q1106.28 1470.19 1107.21 1471.8 Q1108.71 1474.4 1110.96 1475.13 Q1113.2 1475.86 1115.55 1474.51 Q1117.89 1473.15 1118.39 1470.84 Q1118.88 1468.53 1117.38 1465.93 Q1116.67 1464.72 1115.7 1463.65 Q1114.73 1462.61 1113.43 1461.67 L1124.71 1455.16 Z" fill="#4c4c4c" fill-rule="evenodd" fill-opacity="1" /><path clip-path="url(#clip430)" d="M1137.75 1482.37 Q1136.4 1480.03 1133.4 1480.18 Q1130.42 1480.33 1125.79 1483.01 Q1121.17 1485.67 1119.54 1488.18 Q1117.92 1490.7 1119.28 1493.04 Q1120.64 1495.4 1123.62 1495.25 Q1126.62 1495.1 1131.23 1492.43 Q1135.86 1489.76 1137.48 1487.24 Q1139.12 1484.73 1137.75 1482.37 M1140.16 1480.99 Q1142.34 1484.76 1140.49 1488.47 Q1138.67 1492.19 1132.99 1495.47 Q1127.32 1498.74 1123.17 1498.47 Q1119.05 1498.21 1116.87 1494.43 Q1114.69 1490.66 1116.51 1486.94 Q1118.36 1483.23 1124.03 1479.95 Q1129.71 1476.67 1133.83 1476.94 Q1137.98 1477.21 1140.16 1480.99 Z" fill="#4c4c4c" fill-rule="evenodd" fill-opacity="1" /><path clip-path="url(#clip430)" d="M1266.55 1468.01 Q1265.37 1465.97 1263.28 1465.57 Q1261.19 1465.19 1258.76 1466.6 Q1256.34 1467.99 1255.61 1470 Q1254.9 1472.01 1256.09 1474.05 Q1257.27 1476.1 1259.35 1476.48 Q1261.46 1476.87 1263.88 1475.47 Q1266.31 1474.06 1267.02 1472.05 Q1267.73 1470.06 1266.55 1468.01 M1279.55 1468.55 L1276.78 1470.14 Q1276.66 1468.69 1276.27 1467.35 Q1275.89 1466.03 1275.23 1464.89 Q1273.49 1461.88 1270.54 1461.46 Q1267.6 1461.05 1263.37 1463.19 Q1265.19 1463.33 1266.65 1464.26 Q1268.13 1465.19 1269.06 1466.8 Q1271.01 1470.19 1270.08 1473.33 Q1269.17 1476.48 1265.64 1478.52 Q1262.18 1480.52 1258.91 1479.68 Q1255.64 1478.84 1253.68 1475.44 Q1251.43 1471.55 1253.22 1467.77 Q1255.02 1463.98 1260.69 1460.71 Q1266.01 1457.64 1270.63 1458.34 Q1275.26 1459.03 1277.72 1463.29 Q1278.38 1464.43 1278.82 1465.72 Q1279.27 1467.02 1279.55 1468.55 Z" fill="#4c4c4c" fill-rule="evenodd" fill-opacity="1" /><path clip-path="url(#clip430)" d="M1285.66 1482.6 Q1284.3 1480.25 1281.3 1480.4 Q1278.32 1480.56 1273.69 1483.23 Q1269.08 1485.9 1267.44 1488.41 Q1265.82 1490.92 1267.18 1493.27 Q1268.54 1495.63 1271.52 1495.47 Q1274.52 1495.32 1279.14 1492.66 Q1283.77 1489.99 1285.38 1487.47 Q1287.02 1484.96 1285.66 1482.6 M1288.06 1481.21 Q1290.24 1484.98 1288.4 1488.7 Q1286.57 1492.42 1280.89 1495.7 Q1275.22 1498.97 1271.07 1498.7 Q1266.95 1498.43 1264.77 1494.66 Q1262.59 1490.88 1264.42 1487.16 Q1266.26 1483.45 1271.93 1480.18 Q1277.61 1476.9 1281.74 1477.16 Q1285.88 1477.44 1288.06 1481.21 Z" fill="#4c4c4c" fill-rule="evenodd" fill-opacity="1" /><path clip-path="url(#clip430)" d="M1419.71 1454.22 L1428.04 1468.65 L1426.75 1469.4 L1400.89 1473.46 L1399.06 1470.29 L1423.38 1466.47 L1417.15 1455.69 L1419.71 1454.22 Z" fill="#4c4c4c" fill-rule="evenodd" fill-opacity="1" /><path clip-path="url(#clip430)" d="M1433.21 1482.22 Q1431.86 1479.88 1428.86 1480.03 Q1425.88 1480.18 1421.25 1482.86 Q1416.63 1485.52 1415 1488.03 Q1413.38 1490.55 1414.73 1492.89 Q1416.1 1495.25 1419.08 1495.1 Q1422.08 1494.95 1426.69 1492.28 Q1431.32 1489.61 1432.94 1487.09 Q1434.58 1484.58 1433.21 1482.22 M1435.62 1480.84 Q1437.8 1484.61 1435.95 1488.32 Q1434.13 1492.04 1428.45 1495.32 Q1422.78 1498.59 1418.63 1498.32 Q1414.51 1498.06 1412.33 1494.28 Q1410.15 1490.51 1411.97 1486.79 Q1413.82 1483.08 1419.49 1479.8 Q1425.17 1476.52 1429.29 1476.79 Q1433.44 1477.06 1435.62 1480.84 Z" fill="#4c4c4c" fill-rule="evenodd" fill-opacity="1" /><path clip-path="url(#clip430)" d="M1560.14 1468.72 Q1558.89 1466.56 1557.01 1465.98 Q1555.14 1465.41 1553.11 1466.58 Q1551.08 1467.76 1550.64 1469.66 Q1550.2 1471.57 1551.45 1473.74 Q1552.7 1475.9 1554.58 1476.48 Q1556.47 1477.05 1558.49 1475.89 Q1560.51 1474.72 1560.95 1472.8 Q1561.4 1470.9 1560.14 1468.72 M1559.68 1464.94 Q1559.03 1462.7 1559.74 1460.83 Q1560.45 1458.98 1562.37 1457.87 Q1565.06 1456.31 1567.73 1457.32 Q1570.41 1458.34 1572.33 1461.68 Q1574.27 1465.03 1573.81 1467.85 Q1573.35 1470.66 1570.65 1472.21 Q1568.73 1473.32 1566.76 1473 Q1564.8 1472.69 1563.19 1471.03 Q1563.95 1473.52 1563.17 1475.59 Q1562.39 1477.69 1560.24 1478.93 Q1556.98 1480.81 1554.08 1479.82 Q1551.19 1478.84 1549.04 1475.13 Q1546.9 1471.41 1547.49 1468.41 Q1548.09 1465.41 1551.35 1463.53 Q1553.5 1462.29 1555.7 1462.66 Q1557.9 1463.04 1559.68 1464.94 M1563.83 1461.06 Q1562.09 1462.06 1561.74 1463.71 Q1561.39 1465.37 1562.53 1467.34 Q1563.66 1469.29 1565.27 1469.83 Q1566.89 1470.38 1568.63 1469.37 Q1570.38 1468.36 1570.71 1466.69 Q1571.06 1465.02 1569.93 1463.07 Q1568.79 1461.1 1567.18 1460.57 Q1565.58 1460.05 1563.83 1461.06 Z" fill="#4c4c4c" fill-rule="evenodd" fill-opacity="1" /><path clip-path="url(#clip430)" d="M1581.24 1482.66 Q1579.88 1480.31 1576.88 1480.46 Q1573.91 1480.62 1569.27 1483.29 Q1564.66 1485.96 1563.02 1488.47 Q1561.41 1490.98 1562.76 1493.33 Q1564.12 1495.69 1567.1 1495.53 Q1570.1 1495.38 1574.72 1492.72 Q1579.35 1490.05 1580.96 1487.53 Q1582.6 1485.02 1581.24 1482.66 M1583.64 1481.27 Q1585.82 1485.04 1583.98 1488.76 Q1582.15 1492.48 1576.47 1495.76 Q1570.8 1499.03 1566.66 1498.76 Q1562.53 1498.49 1560.35 1494.72 Q1558.18 1490.94 1560 1487.23 Q1561.84 1483.51 1567.51 1480.24 Q1573.2 1476.96 1577.32 1477.23 Q1581.46 1477.5 1583.64 1481.27 Z" fill="#4c4c4c" fill-rule="evenodd" fill-opacity="1" /><path clip-path="url(#clip430)" d="M1694.11 1468.35 L1696.87 1466.75 Q1696.99 1468.21 1697.38 1469.55 Q1697.78 1470.88 1698.43 1472.01 Q1700.16 1475.02 1703.09 1475.43 Q1706.04 1475.86 1710.29 1473.7 Q1708.49 1473.58 1707.03 1472.64 Q1705.56 1471.7 1704.63 1470.08 Q1702.68 1466.71 1703.57 1463.57 Q1704.49 1460.43 1708.02 1458.39 Q1711.48 1456.4 1714.75 1457.23 Q1718.02 1458.07 1719.98 1461.47 Q1722.23 1465.36 1720.42 1469.14 Q1718.63 1472.91 1712.95 1476.2 Q1707.64 1479.26 1703.01 1478.57 Q1698.41 1477.88 1695.95 1473.62 Q1695.29 1472.48 1694.84 1471.18 Q1694.39 1469.87 1694.11 1468.35 M1707.11 1468.9 Q1708.29 1470.95 1710.38 1471.33 Q1712.47 1471.72 1714.91 1470.32 Q1717.33 1468.92 1718.03 1466.91 Q1718.76 1464.9 1717.58 1462.86 Q1716.4 1460.81 1714.29 1460.43 Q1712.21 1460.05 1709.79 1461.44 Q1707.35 1462.85 1706.64 1464.85 Q1705.93 1466.86 1707.11 1468.9 Z" fill="#4c4c4c" fill-rule="evenodd" fill-opacity="1" /><path clip-path="url(#clip430)" d="M1729.1 1482.81 Q1727.74 1480.46 1724.74 1480.61 Q1721.77 1480.77 1717.13 1483.44 Q1712.52 1486.11 1710.88 1488.62 Q1709.27 1491.13 1710.62 1493.48 Q1711.98 1495.84 1714.96 1495.68 Q1717.96 1495.53 1722.58 1492.87 Q1727.21 1490.2 1728.82 1487.68 Q1730.46 1485.17 1729.1 1482.81 M1731.5 1481.42 Q1733.68 1485.2 1731.84 1488.91 Q1730.01 1492.63 1724.33 1495.91 Q1718.66 1499.18 1714.52 1498.91 Q1710.39 1498.64 1708.21 1494.87 Q1706.04 1491.09 1707.86 1487.38 Q1709.7 1483.66 1715.37 1480.39 Q1721.06 1477.11 1725.18 1477.38 Q1729.32 1477.65 1731.5 1481.42 Z" fill="#4c4c4c" fill-rule="evenodd" fill-opacity="1" /><path clip-path="url(#clip430)" d="M1843.39 1466.14 L1846.25 1471.1 L1863.38 1461.21 L1859.18 1456.44 L1861.95 1454.84 L1866.13 1459.58 L1867.88 1462.62 L1847.99 1474.11 L1850.85 1479.07 L1848.3 1480.54 L1840.83 1467.61 L1843.39 1466.14 Z" fill="#4c4c4c" fill-rule="evenodd" fill-opacity="1" /><path clip-path="url(#clip430)" d="M1876.04 1481.37 Q1874.68 1479.02 1871.68 1479.17 Q1868.7 1479.33 1864.07 1482 Q1859.46 1484.66 1857.82 1487.17 Q1856.21 1489.69 1857.56 1492.04 Q1858.92 1494.4 1861.9 1494.24 Q1864.9 1494.09 1869.52 1491.43 Q1874.15 1488.75 1875.76 1486.24 Q1877.4 1483.73 1876.04 1481.37 M1878.44 1479.98 Q1880.62 1483.75 1878.78 1487.46 Q1876.95 1491.18 1871.27 1494.46 Q1865.6 1497.74 1861.46 1497.46 Q1857.33 1497.2 1855.15 1493.42 Q1852.98 1489.65 1854.8 1485.93 Q1856.64 1482.22 1862.31 1478.95 Q1868 1475.67 1872.12 1475.93 Q1876.26 1476.2 1878.44 1479.98 Z" fill="#4c4c4c" fill-rule="evenodd" fill-opacity="1" /><path clip-path="url(#clip430)" d="M1887.35 1500.96 Q1885.99 1498.61 1882.99 1498.76 Q1880.02 1498.92 1875.38 1501.59 Q1870.77 1504.26 1869.13 1506.76 Q1867.52 1509.28 1868.87 1511.63 Q1870.23 1513.99 1873.21 1513.83 Q1876.21 1513.68 1880.83 1511.02 Q1885.46 1508.34 1887.07 1505.83 Q1888.71 1503.32 1887.35 1500.96 M1889.75 1499.57 Q1891.93 1503.34 1890.09 1507.05 Q1888.26 1510.77 1882.58 1514.05 Q1876.91 1517.33 1872.77 1517.05 Q1868.64 1516.79 1866.46 1513.01 Q1864.29 1509.24 1866.11 1505.52 Q1867.95 1501.81 1873.62 1498.54 Q1879.31 1495.26 1883.43 1495.52 Q1887.58 1495.8 1889.75 1499.57 Z" fill="#4c4c4c" fill-rule="evenodd" fill-opacity="1" /><path clip-path="url(#clip430)" d="M1991.16 1466.14 L1994.03 1471.1 L2011.15 1461.21 L2006.95 1456.44 L2009.72 1454.84 L2013.9 1459.58 L2015.65 1462.62 L1995.76 1474.11 L1998.63 1479.07 L1996.07 1480.54 L1988.61 1467.61 L1991.16 1466.14 Z" fill="#4c4c4c" fill-rule="evenodd" fill-opacity="1" /><path clip-path="url(#clip430)" d="M2002.47 1485.73 L2005.34 1490.69 L2022.46 1480.8 L2018.26 1476.03 L2021.03 1474.43 L2025.21 1479.18 L2026.96 1482.21 L2007.07 1493.7 L2009.94 1498.66 L2007.38 1500.13 L1999.92 1487.2 L2002.47 1485.73 Z" fill="#4c4c4c" fill-rule="evenodd" fill-opacity="1" /><path clip-path="url(#clip430)" d="M2035.12 1500.96 Q2033.77 1498.61 2030.77 1498.76 Q2027.79 1498.92 2023.16 1501.59 Q2018.54 1504.26 2016.9 1506.76 Q2015.29 1509.28 2016.64 1511.63 Q2018.01 1513.99 2020.98 1513.83 Q2023.98 1513.68 2028.6 1511.02 Q2033.23 1508.34 2034.85 1505.83 Q2036.48 1503.32 2035.12 1500.96 M2037.53 1499.57 Q2039.71 1503.34 2037.86 1507.05 Q2036.04 1510.77 2030.35 1514.05 Q2024.69 1517.33 2020.54 1517.05 Q2016.42 1516.79 2014.24 1513.01 Q2012.06 1509.24 2013.88 1505.52 Q2015.73 1501.81 2021.4 1498.54 Q2027.08 1495.26 2031.2 1495.52 Q2035.35 1495.8 2037.53 1499.57 Z" fill="#4c4c4c" fill-rule="evenodd" fill-opacity="1" /><path clip-path="url(#clip430)" d="M2138.94 1466.14 L2141.8 1471.1 L2158.92 1461.21 L2154.73 1456.44 L2157.49 1454.84 L2161.67 1459.58 L2163.43 1462.62 L2143.54 1474.11 L2146.4 1479.07 L2143.84 1480.54 L2136.38 1467.61 L2138.94 1466.14 Z" fill="#4c4c4c" fill-rule="evenodd" fill-opacity="1" /><path clip-path="url(#clip430)" d="M2151.45 1487.82 L2157.57 1498.42 L2155.02 1499.89 L2146.79 1485.64 L2149.34 1484.16 Q2152.13 1484.86 2156.86 1486.1 Q2161.61 1487.35 2162.92 1487.61 Q2165.4 1488.12 2166.86 1488.04 Q2168.34 1487.97 2169.44 1487.34 Q2171.23 1486.3 2171.63 1484.39 Q2172.03 1482.49 2170.87 1480.48 Q2170.04 1479.05 2168.63 1477.74 Q2167.22 1476.45 2165.17 1475.23 L2168.24 1473.46 Q2170.03 1474.86 2171.33 1476.24 Q2172.63 1477.62 2173.39 1478.94 Q2175.4 1482.43 2174.86 1485.51 Q2174.31 1488.59 2171.4 1490.28 Q2170.01 1491.08 2168.46 1491.27 Q2166.93 1491.47 2164.46 1491.07 Q2163.81 1490.95 2160.55 1490.14 Q2157.31 1489.32 2151.45 1487.82 Z" fill="#4c4c4c" fill-rule="evenodd" fill-opacity="1" /><path clip-path="url(#clip430)" d="M2182.89 1500.96 Q2181.54 1498.61 2178.54 1498.76 Q2175.56 1498.92 2170.93 1501.59 Q2166.32 1504.26 2164.68 1506.76 Q2163.06 1509.28 2164.42 1511.63 Q2165.78 1513.99 2168.76 1513.83 Q2171.76 1513.68 2176.37 1511.02 Q2181 1508.34 2182.62 1505.83 Q2184.26 1503.32 2182.89 1500.96 M2185.3 1499.57 Q2187.48 1503.34 2185.63 1507.05 Q2183.81 1510.77 2178.13 1514.05 Q2172.46 1517.33 2168.31 1517.05 Q2164.19 1516.79 2162.01 1513.01 Q2159.83 1509.24 2161.65 1505.52 Q2163.5 1501.81 2169.17 1498.54 Q2174.85 1495.26 2178.97 1495.52 Q2183.12 1495.8 2185.3 1499.57 Z" fill="#4c4c4c" fill-rule="evenodd" fill-opacity="1" /><path clip-path="url(#clip430)" d="M2286.71 1466.14 L2289.57 1471.1 L2306.7 1461.21 L2302.5 1456.44 L2305.27 1454.84 L2309.45 1459.58 L2311.2 1462.62 L2291.31 1474.11 L2294.17 1479.07 L2291.62 1480.54 L2284.15 1467.61 L2286.71 1466.14 Z" fill="#4c4c4c" fill-rule="evenodd" fill-opacity="1" /><path clip-path="url(#clip430)" d="M2312.58 1488.89 Q2313.37 1491.34 2312.6 1493.41 Q2311.84 1495.49 2309.67 1496.74 Q2306.35 1498.66 2303.21 1497.43 Q2300.07 1496.19 2297.64 1491.98 Q2296.82 1490.57 2296.24 1488.9 Q2295.65 1487.25 2295.29 1485.34 L2298.22 1483.65 Q2298.21 1485.34 2298.71 1487.06 Q2299.2 1488.78 2300.14 1490.41 Q2301.79 1493.27 2303.78 1494.11 Q2305.78 1494.96 2307.93 1493.72 Q2309.91 1492.57 2310.22 1490.53 Q2310.54 1488.5 2309.11 1486.02 L2307.6 1483.4 L2310.1 1481.96 L2311.68 1484.7 Q2312.97 1486.94 2314.54 1487.61 Q2316.13 1488.28 2317.82 1487.31 Q2319.54 1486.31 2319.75 1484.55 Q2319.98 1482.79 2318.66 1480.51 Q2317.94 1479.26 2316.84 1477.99 Q2315.75 1476.71 2314.19 1475.33 L2316.89 1473.77 Q2318.37 1475.22 2319.48 1476.58 Q2320.6 1477.96 2321.37 1479.3 Q2323.37 1482.76 2322.95 1485.69 Q2322.55 1488.6 2319.88 1490.15 Q2318.01 1491.22 2316.1 1490.9 Q2314.21 1490.57 2312.58 1488.89 Z" fill="#4c4c4c" fill-rule="evenodd" fill-opacity="1" /><path clip-path="url(#clip430)" d="M2330.67 1500.96 Q2329.31 1498.61 2326.31 1498.76 Q2323.33 1498.92 2318.7 1501.59 Q2314.09 1504.26 2312.45 1506.76 Q2310.84 1509.28 2312.19 1511.63 Q2313.55 1513.99 2316.53 1513.83 Q2319.53 1513.68 2324.15 1511.02 Q2328.78 1508.34 2330.39 1505.83 Q2332.03 1503.32 2330.67 1500.96 M2333.07 1499.57 Q2335.25 1503.34 2333.41 1507.05 Q2331.58 1510.77 2325.9 1514.05 Q2320.23 1517.33 2316.09 1517.05 Q2311.96 1516.79 2309.78 1513.01 Q2307.61 1509.24 2309.43 1505.52 Q2311.27 1501.81 2316.94 1498.54 Q2322.63 1495.26 2326.75 1495.52 Q2330.89 1495.8 2333.07 1499.57 Z" fill="#4c4c4c" fill-rule="evenodd" fill-opacity="1" /><path clip-path="url(#clip430)" d="M1225.19 1537.87 L1229.87 1537.87 L1229.87 1572.43 L1225.19 1572.43 L1225.19 1537.87 Z" fill="#000000" fill-rule="evenodd" fill-opacity="1" /><path clip-path="url(#clip430)" d="M1243.2 1539.15 L1243.2 1546.51 L1251.97 1546.51 L1251.97 1549.82 L1243.2 1549.82 L1243.2 1563.89 Q1243.2 1567.06 1244.06 1567.97 Q1244.94 1568.87 1247.6 1568.87 L1251.97 1568.87 L1251.97 1572.43 L1247.6 1572.43 Q1242.67 1572.43 1240.79 1570.6 Q1238.92 1568.75 1238.92 1563.89 L1238.92 1549.82 L1235.79 1549.82 L1235.79 1546.51 L1238.92 1546.51 L1238.92 1539.15 L1243.2 1539.15 Z" fill="#000000" fill-rule="evenodd" fill-opacity="1" /><path clip-path="url(#clip430)" d="M1279.75 1558.41 L1279.75 1560.49 L1260.17 1560.49 Q1260.44 1564.89 1262.81 1567.2 Q1265.19 1569.49 1269.43 1569.49 Q1271.88 1569.49 1274.17 1568.89 Q1276.49 1568.29 1278.75 1567.09 L1278.75 1571.11 Q1276.46 1572.09 1274.06 1572.6 Q1271.65 1573.1 1269.17 1573.1 Q1262.97 1573.1 1259.33 1569.49 Q1255.72 1565.88 1255.72 1559.73 Q1255.72 1553.36 1259.15 1549.63 Q1262.6 1545.88 1268.43 1545.88 Q1273.66 1545.88 1276.69 1549.26 Q1279.75 1552.62 1279.75 1558.41 M1275.49 1557.16 Q1275.44 1553.66 1273.52 1551.58 Q1271.62 1549.49 1268.48 1549.49 Q1264.91 1549.49 1262.76 1551.51 Q1260.63 1553.52 1260.31 1557.18 L1275.49 1557.16 Z" fill="#000000" fill-rule="evenodd" fill-opacity="1" /><path clip-path="url(#clip430)" d="M1301.76 1550.49 Q1301.05 1550.07 1300.19 1549.89 Q1299.36 1549.68 1298.34 1549.68 Q1294.73 1549.68 1292.78 1552.04 Q1290.86 1554.38 1290.86 1558.78 L1290.86 1572.43 L1286.58 1572.43 L1286.58 1546.51 L1290.86 1546.51 L1290.86 1550.54 Q1292.2 1548.17 1294.36 1547.04 Q1296.51 1545.88 1299.59 1545.88 Q1300.03 1545.88 1300.56 1545.95 Q1301.09 1546 1301.74 1546.11 L1301.76 1550.49 Z" fill="#000000" fill-rule="evenodd" fill-opacity="1" /><path clip-path="url(#clip430)" d="M1318.01 1559.4 Q1312.85 1559.4 1310.86 1560.58 Q1308.87 1561.76 1308.87 1564.61 Q1308.87 1566.88 1310.35 1568.22 Q1311.86 1569.54 1314.43 1569.54 Q1317.97 1569.54 1320.1 1567.04 Q1322.25 1564.52 1322.25 1560.35 L1322.25 1559.4 L1318.01 1559.4 M1326.51 1557.64 L1326.51 1572.43 L1322.25 1572.43 L1322.25 1568.5 Q1320.79 1570.86 1318.62 1571.99 Q1316.44 1573.1 1313.29 1573.1 Q1309.31 1573.1 1306.95 1570.88 Q1304.61 1568.64 1304.61 1564.89 Q1304.61 1560.51 1307.53 1558.29 Q1310.47 1556.07 1316.28 1556.07 L1322.25 1556.07 L1322.25 1555.65 Q1322.25 1552.71 1320.31 1551.11 Q1318.38 1549.49 1314.89 1549.49 Q1312.67 1549.49 1310.56 1550.03 Q1308.45 1550.56 1306.51 1551.62 L1306.51 1547.69 Q1308.85 1546.79 1311.05 1546.35 Q1313.25 1545.88 1315.33 1545.88 Q1320.95 1545.88 1323.73 1548.8 Q1326.51 1551.72 1326.51 1557.64 Z" fill="#000000" fill-rule="evenodd" fill-opacity="1" /><path clip-path="url(#clip430)" d="M1339.49 1539.15 L1339.49 1546.51 L1348.27 1546.51 L1348.27 1549.82 L1339.49 1549.82 L1339.49 1563.89 Q1339.49 1567.06 1340.35 1567.97 Q1341.23 1568.87 1343.89 1568.87 L1348.27 1568.87 L1348.27 1572.43 L1343.89 1572.43 Q1338.96 1572.43 1337.09 1570.6 Q1335.21 1568.75 1335.21 1563.89 L1335.21 1549.82 L1332.09 1549.82 L1332.09 1546.51 L1335.21 1546.51 L1335.21 1539.15 L1339.49 1539.15 Z" fill="#000000" fill-rule="evenodd" fill-opacity="1" /><path clip-path="url(#clip430)" d="M1353.87 1546.51 L1358.13 1546.51 L1358.13 1572.43 L1353.87 1572.43 L1353.87 1546.51 M1353.87 1536.42 L1358.13 1536.42 L1358.13 1541.81 L1353.87 1541.81 L1353.87 1536.42 Z" fill="#000000" fill-rule="evenodd" fill-opacity="1" /><path clip-path="url(#clip430)" d="M1377.09 1549.49 Q1373.66 1549.49 1371.67 1552.18 Q1369.68 1554.84 1369.68 1559.49 Q1369.68 1564.15 1371.65 1566.83 Q1373.64 1569.49 1377.09 1569.49 Q1380.49 1569.49 1382.48 1566.81 Q1384.47 1564.12 1384.47 1559.49 Q1384.47 1554.89 1382.48 1552.2 Q1380.49 1549.49 1377.09 1549.49 M1377.09 1545.88 Q1382.64 1545.88 1385.81 1549.49 Q1388.99 1553.1 1388.99 1559.49 Q1388.99 1565.86 1385.81 1569.49 Q1382.64 1573.1 1377.09 1573.1 Q1371.51 1573.1 1368.34 1569.49 Q1365.19 1565.86 1365.19 1559.49 Q1365.19 1553.1 1368.34 1549.49 Q1371.51 1545.88 1377.09 1545.88 Z" fill="#000000" fill-rule="evenodd" fill-opacity="1" /><path clip-path="url(#clip430)" d="M1417.6 1556.79 L1417.6 1572.43 L1413.34 1572.43 L1413.34 1556.92 Q1413.34 1553.24 1411.9 1551.41 Q1410.47 1549.59 1407.6 1549.59 Q1404.15 1549.59 1402.16 1551.79 Q1400.17 1553.98 1400.17 1557.78 L1400.17 1572.43 L1395.88 1572.43 L1395.88 1546.51 L1400.17 1546.51 L1400.17 1550.54 Q1401.69 1548.2 1403.75 1547.04 Q1405.84 1545.88 1408.55 1545.88 Q1413.01 1545.88 1415.3 1548.66 Q1417.6 1551.41 1417.6 1556.79 Z" fill="#000000" fill-rule="evenodd" fill-opacity="1" /><path clip-path="url(#clip430)" d="M1442.62 1547.27 L1442.62 1551.3 Q1440.81 1550.37 1438.87 1549.91 Q1436.92 1549.45 1434.84 1549.45 Q1431.67 1549.45 1430.07 1550.42 Q1428.5 1551.39 1428.5 1553.34 Q1428.5 1554.82 1429.63 1555.67 Q1430.77 1556.51 1434.19 1557.27 L1435.65 1557.6 Q1440.19 1558.57 1442.09 1560.35 Q1444.01 1562.11 1444.01 1565.28 Q1444.01 1568.89 1441.14 1571 Q1438.29 1573.1 1433.29 1573.1 Q1431.21 1573.1 1428.94 1572.69 Q1426.69 1572.29 1424.19 1571.48 L1424.19 1567.09 Q1426.55 1568.31 1428.85 1568.94 Q1431.14 1569.54 1433.38 1569.54 Q1436.39 1569.54 1438.01 1568.52 Q1439.63 1567.48 1439.63 1565.6 Q1439.63 1563.87 1438.45 1562.94 Q1437.3 1562.02 1433.34 1561.16 L1431.86 1560.81 Q1427.9 1559.98 1426.14 1558.27 Q1424.38 1556.53 1424.38 1553.52 Q1424.38 1549.86 1426.97 1547.87 Q1429.56 1545.88 1434.33 1545.88 Q1436.69 1545.88 1438.78 1546.23 Q1440.86 1546.58 1442.62 1547.27 Z" fill="#000000" fill-rule="evenodd" fill-opacity="1" /><polyline clip-path="url(#clip432)" style="stroke:#ffffff; stroke-linecap:butt; stroke-linejoin:round; stroke-width:4; stroke-opacity:1; fill:none" points="
  316.442,1306.78 2352.76,1306.78 
  "/>
<polyline clip-path="url(#clip432)" style="stroke:#ffffff; stroke-linecap:butt; stroke-linejoin:round; stroke-width:4; stroke-opacity:1; fill:none" points="
  316.442,1022.34 2352.76,1022.34 
  "/>
<polyline clip-path="url(#clip432)" style="stroke:#ffffff; stroke-linecap:butt; stroke-linejoin:round; stroke-width:4; stroke-opacity:1; fill:none" points="
  316.442,737.906 2352.76,737.906 
  "/>
<polyline clip-path="url(#clip432)" style="stroke:#ffffff; stroke-linecap:butt; stroke-linejoin:round; stroke-width:4; stroke-opacity:1; fill:none" points="
  316.442,453.471 2352.76,453.471 
  "/>
<polyline clip-path="url(#clip432)" style="stroke:#ffffff; stroke-linecap:butt; stroke-linejoin:round; stroke-width:4; stroke-opacity:1; fill:none" points="
  316.442,169.036 2352.76,169.036 
  "/>
<polyline clip-path="url(#clip432)" style="stroke:#ffffff; stroke-linecap:butt; stroke-linejoin:round; stroke-width:2; stroke-opacity:1; fill:none" points="
  316.442,1164.56 2352.76,1164.56 
  "/>
<polyline clip-path="url(#clip432)" style="stroke:#ffffff; stroke-linecap:butt; stroke-linejoin:round; stroke-width:2; stroke-opacity:1; fill:none" points="
  316.442,880.124 2352.76,880.124 
  "/>
<polyline clip-path="url(#clip432)" style="stroke:#ffffff; stroke-linecap:butt; stroke-linejoin:round; stroke-width:2; stroke-opacity:1; fill:none" points="
  316.442,595.689 2352.76,595.689 
  "/>
<polyline clip-path="url(#clip432)" style="stroke:#ffffff; stroke-linecap:butt; stroke-linejoin:round; stroke-width:2; stroke-opacity:1; fill:none" points="
  316.442,311.254 2352.76,311.254 
  "/>
<polyline clip-path="url(#clip430)" style="stroke:#ffffff; stroke-linecap:butt; stroke-linejoin:round; stroke-width:4; stroke-opacity:1; fill:none" points="
  316.442,1422.18 316.442,106.192 
  "/>
<polyline clip-path="url(#clip430)" style="stroke:#333333; stroke-linecap:butt; stroke-linejoin:round; stroke-width:4; stroke-opacity:1; fill:none" points="
  316.442,1306.78 297.545,1306.78 
  "/>
<polyline clip-path="url(#clip430)" style="stroke:#333333; stroke-linecap:butt; stroke-linejoin:round; stroke-width:4; stroke-opacity:1; fill:none" points="
  316.442,1022.34 297.545,1022.34 
  "/>
<polyline clip-path="url(#clip430)" style="stroke:#333333; stroke-linecap:butt; stroke-linejoin:round; stroke-width:4; stroke-opacity:1; fill:none" points="
  316.442,737.906 297.545,737.906 
  "/>
<polyline clip-path="url(#clip430)" style="stroke:#333333; stroke-linecap:butt; stroke-linejoin:round; stroke-width:4; stroke-opacity:1; fill:none" points="
  316.442,453.471 297.545,453.471 
  "/>
<polyline clip-path="url(#clip430)" style="stroke:#333333; stroke-linecap:butt; stroke-linejoin:round; stroke-width:4; stroke-opacity:1; fill:none" points="
  316.442,169.036 297.545,169.036 
  "/>
<polyline clip-path="url(#clip430)" style="stroke:#333333; stroke-linecap:butt; stroke-linejoin:round; stroke-width:4; stroke-opacity:1; fill:none" points="
  316.442,1164.56 306.993,1164.56 
  "/>
<polyline clip-path="url(#clip430)" style="stroke:#333333; stroke-linecap:butt; stroke-linejoin:round; stroke-width:4; stroke-opacity:1; fill:none" points="
  316.442,880.124 306.993,880.124 
  "/>
<polyline clip-path="url(#clip430)" style="stroke:#333333; stroke-linecap:butt; stroke-linejoin:round; stroke-width:4; stroke-opacity:1; fill:none" points="
  316.442,595.689 306.993,595.689 
  "/>
<polyline clip-path="url(#clip430)" style="stroke:#333333; stroke-linecap:butt; stroke-linejoin:round; stroke-width:4; stroke-opacity:1; fill:none" points="
  316.442,311.254 306.993,311.254 
  "/>
<path clip-path="url(#clip430)" d="M194.734 1307.12 L216.991 1307.12 L216.991 1310.07 L194.734 1310.07 L194.734 1307.12 Z" fill="#4c4c4c" fill-rule="evenodd" fill-opacity="1" /><path clip-path="url(#clip430)" d="M235.185 1305.76 Q237.703 1306.3 239.109 1308 Q240.533 1309.7 240.533 1312.2 Q240.533 1316.04 237.894 1318.14 Q235.255 1320.24 230.394 1320.24 Q228.762 1320.24 227.026 1319.91 Q225.307 1319.6 223.467 1318.96 L223.467 1315.57 Q224.925 1316.42 226.661 1316.85 Q228.397 1317.29 230.29 1317.29 Q233.588 1317.29 235.307 1315.99 Q237.043 1314.68 237.043 1312.2 Q237.043 1309.91 235.429 1308.63 Q233.831 1307.32 230.967 1307.32 L227.946 1307.32 L227.946 1304.44 L231.106 1304.44 Q233.692 1304.44 235.064 1303.42 Q236.435 1302.38 236.435 1300.43 Q236.435 1298.43 235.012 1297.38 Q233.606 1296.3 230.967 1296.3 Q229.526 1296.3 227.876 1296.61 Q226.227 1296.92 224.248 1297.58 L224.248 1294.46 Q226.245 1293.9 227.981 1293.63 Q229.734 1293.35 231.279 1293.35 Q235.272 1293.35 237.599 1295.17 Q239.925 1296.98 239.925 1300.07 Q239.925 1302.22 238.692 1303.71 Q237.46 1305.19 235.185 1305.76 Z" fill="#4c4c4c" fill-rule="evenodd" fill-opacity="1" /><path clip-path="url(#clip430)" d="M250.203 1316.79 L262.442 1316.79 L262.442 1319.74 L245.984 1319.74 L245.984 1316.79 Q247.981 1314.72 251.418 1311.25 Q254.873 1307.76 255.758 1306.75 Q257.442 1304.86 258.102 1303.56 Q258.779 1302.24 258.779 1300.97 Q258.779 1298.9 257.321 1297.6 Q255.88 1296.3 253.553 1296.3 Q251.904 1296.3 250.064 1296.87 Q248.241 1297.44 246.158 1298.61 L246.158 1295.07 Q248.276 1294.22 250.116 1293.78 Q251.956 1293.35 253.484 1293.35 Q257.512 1293.35 259.908 1295.36 Q262.303 1297.38 262.303 1300.74 Q262.303 1302.34 261.696 1303.78 Q261.105 1305.21 259.526 1307.15 Q259.092 1307.65 256.765 1310.07 Q254.439 1312.46 250.203 1316.79 Z" fill="#4c4c4c" fill-rule="evenodd" fill-opacity="1" /><path clip-path="url(#clip430)" d="M194.457 1022.68 L216.713 1022.68 L216.713 1025.63 L194.457 1025.63 L194.457 1022.68 Z" fill="#4c4c4c" fill-rule="evenodd" fill-opacity="1" /><path clip-path="url(#clip430)" d="M234.908 1021.33 Q237.425 1021.86 238.831 1023.57 Q240.255 1025.27 240.255 1027.77 Q240.255 1031.6 237.616 1033.7 Q234.977 1035.8 230.116 1035.8 Q228.484 1035.8 226.748 1035.48 Q225.029 1035.16 223.189 1034.52 L223.189 1031.13 Q224.647 1031.99 226.383 1032.42 Q228.12 1032.85 230.012 1032.85 Q233.31 1032.85 235.029 1031.55 Q236.765 1030.25 236.765 1027.77 Q236.765 1025.48 235.151 1024.19 Q233.554 1022.89 230.689 1022.89 L227.668 1022.89 L227.668 1020.01 L230.828 1020.01 Q233.415 1020.01 234.786 1018.98 Q236.158 1017.94 236.158 1016 Q236.158 1014 234.734 1012.94 Q233.328 1011.86 230.689 1011.86 Q229.248 1011.86 227.599 1012.18 Q225.949 1012.49 223.97 1013.15 L223.97 1010.02 Q225.967 1009.47 227.703 1009.19 Q229.456 1008.91 231.001 1008.91 Q234.994 1008.91 237.321 1010.74 Q239.647 1012.54 239.647 1015.63 Q239.647 1017.78 238.415 1019.28 Q237.182 1020.75 234.908 1021.33 Z" fill="#4c4c4c" fill-rule="evenodd" fill-opacity="1" /><path clip-path="url(#clip430)" d="M247.512 1032.35 L253.241 1032.35 L253.241 1012.58 L247.008 1013.83 L247.008 1010.63 L253.206 1009.38 L256.713 1009.38 L256.713 1032.35 L262.442 1032.35 L262.442 1035.3 L247.512 1035.3 L247.512 1032.35 Z" fill="#4c4c4c" fill-rule="evenodd" fill-opacity="1" /><path clip-path="url(#clip430)" d="M193.536 738.245 L215.793 738.245 L215.793 741.196 L193.536 741.196 L193.536 738.245 Z" fill="#4c4c4c" fill-rule="evenodd" fill-opacity="1" /><path clip-path="url(#clip430)" d="M233.988 736.891 Q236.505 737.429 237.911 739.13 Q239.335 740.832 239.335 743.332 Q239.335 747.168 236.696 749.269 Q234.057 751.37 229.196 751.37 Q227.564 751.37 225.828 751.04 Q224.109 750.727 222.269 750.085 L222.269 746.7 Q223.727 747.55 225.463 747.984 Q227.199 748.418 229.092 748.418 Q232.39 748.418 234.109 747.116 Q235.845 745.814 235.845 743.332 Q235.845 741.04 234.231 739.755 Q232.633 738.453 229.769 738.453 L226.748 738.453 L226.748 735.571 L229.908 735.571 Q232.495 735.571 233.866 734.547 Q235.238 733.505 235.238 731.561 Q235.238 729.564 233.814 728.505 Q232.408 727.429 229.769 727.429 Q228.328 727.429 226.679 727.741 Q225.029 728.054 223.05 728.714 L223.05 725.589 Q225.047 725.033 226.783 724.755 Q228.536 724.478 230.081 724.478 Q234.074 724.478 236.401 726.3 Q238.727 728.106 238.727 731.196 Q238.727 733.349 237.494 734.842 Q236.262 736.318 233.988 736.891 Z" fill="#4c4c4c" fill-rule="evenodd" fill-opacity="1" /><path clip-path="url(#clip430)" d="M253.484 727.255 Q250.776 727.255 249.404 729.929 Q248.05 732.585 248.05 737.932 Q248.05 743.262 249.404 745.936 Q250.776 748.592 253.484 748.592 Q256.21 748.592 257.564 745.936 Q258.935 743.262 258.935 737.932 Q258.935 732.585 257.564 729.929 Q256.21 727.255 253.484 727.255 M253.484 724.478 Q257.842 724.478 260.133 727.932 Q262.442 731.37 262.442 737.932 Q262.442 744.477 260.133 747.932 Q257.842 751.37 253.484 751.37 Q249.126 751.37 246.817 747.932 Q244.526 744.477 244.526 737.932 Q244.526 731.37 246.817 727.932 Q249.126 724.478 253.484 724.478 Z" fill="#4c4c4c" fill-rule="evenodd" fill-opacity="1" /><path clip-path="url(#clip430)" d="M193.675 453.81 L215.932 453.81 L215.932 456.761 L193.675 456.761 L193.675 453.81 Z" fill="#4c4c4c" fill-rule="evenodd" fill-opacity="1" /><path clip-path="url(#clip430)" d="M226.522 463.48 L238.762 463.48 L238.762 466.431 L222.304 466.431 L222.304 463.48 Q224.3 461.414 227.738 457.942 Q231.192 454.452 232.078 453.445 Q233.762 451.553 234.422 450.251 Q235.099 448.931 235.099 447.664 Q235.099 445.598 233.64 444.296 Q232.199 442.994 229.873 442.994 Q228.224 442.994 226.383 443.567 Q224.561 444.14 222.477 445.303 L222.477 441.761 Q224.595 440.911 226.436 440.477 Q228.276 440.042 229.804 440.042 Q233.831 440.042 236.227 442.056 Q238.623 444.07 238.623 447.438 Q238.623 449.035 238.015 450.476 Q237.425 451.9 235.845 453.844 Q235.411 454.348 233.085 456.761 Q230.758 459.157 226.522 463.48 Z" fill="#4c4c4c" fill-rule="evenodd" fill-opacity="1" /><path clip-path="url(#clip430)" d="M246.227 465.893 L246.227 462.699 Q247.547 463.324 248.901 463.653 Q250.255 463.983 251.557 463.983 Q255.029 463.983 256.852 461.657 Q258.692 459.313 258.953 454.556 Q257.946 456.049 256.401 456.848 Q254.855 457.647 252.981 457.647 Q249.092 457.647 246.817 455.303 Q244.56 452.942 244.56 448.862 Q244.56 444.869 246.922 442.456 Q249.283 440.042 253.206 440.042 Q257.703 440.042 260.064 443.497 Q262.442 446.935 262.442 453.497 Q262.442 459.626 259.526 463.289 Q256.626 466.935 251.713 466.935 Q250.394 466.935 249.04 466.674 Q247.685 466.414 246.227 465.893 M253.206 454.904 Q255.567 454.904 256.939 453.289 Q258.328 451.674 258.328 448.862 Q258.328 446.067 256.939 444.452 Q255.567 442.82 253.206 442.82 Q250.845 442.82 249.456 444.452 Q248.085 446.067 248.085 448.862 Q248.085 451.674 249.456 453.289 Q250.845 454.904 253.206 454.904 Z" fill="#4c4c4c" fill-rule="evenodd" fill-opacity="1" /><path clip-path="url(#clip430)" d="M193.606 169.375 L215.863 169.375 L215.863 172.326 L193.606 172.326 L193.606 169.375 Z" fill="#4c4c4c" fill-rule="evenodd" fill-opacity="1" /><path clip-path="url(#clip430)" d="M226.453 179.045 L238.692 179.045 L238.692 181.996 L222.234 181.996 L222.234 179.045 Q224.231 176.979 227.668 173.507 Q231.123 170.017 232.008 169.01 Q233.692 167.118 234.352 165.816 Q235.029 164.496 235.029 163.229 Q235.029 161.163 233.571 159.861 Q232.13 158.559 229.804 158.559 Q228.154 158.559 226.314 159.132 Q224.491 159.705 222.408 160.868 L222.408 157.326 Q224.526 156.475 226.366 156.041 Q228.206 155.607 229.734 155.607 Q233.762 155.607 236.158 157.621 Q238.553 159.635 238.553 163.003 Q238.553 164.6 237.946 166.041 Q237.356 167.465 235.776 169.409 Q235.342 169.913 233.015 172.326 Q230.689 174.722 226.453 179.045 Z" fill="#4c4c4c" fill-rule="evenodd" fill-opacity="1" /><path clip-path="url(#clip430)" d="M253.553 169.687 Q251.053 169.687 249.612 171.024 Q248.189 172.361 248.189 174.705 Q248.189 177.048 249.612 178.385 Q251.053 179.722 253.553 179.722 Q256.053 179.722 257.494 178.385 Q258.935 177.031 258.935 174.705 Q258.935 172.361 257.494 171.024 Q256.071 169.687 253.553 169.687 M250.046 168.194 Q247.79 167.639 246.522 166.093 Q245.272 164.548 245.272 162.326 Q245.272 159.218 247.477 157.413 Q249.699 155.607 253.553 155.607 Q257.425 155.607 259.63 157.413 Q261.835 159.218 261.835 162.326 Q261.835 164.548 260.567 166.093 Q259.317 167.639 257.078 168.194 Q259.612 168.784 261.019 170.503 Q262.442 172.222 262.442 174.705 Q262.442 178.472 260.133 180.486 Q257.842 182.5 253.553 182.5 Q249.265 182.5 246.956 180.486 Q244.665 178.472 244.665 174.705 Q244.665 172.222 246.088 170.503 Q247.512 168.784 250.046 168.194 M248.762 162.656 Q248.762 164.67 250.012 165.798 Q251.279 166.927 253.553 166.927 Q255.81 166.927 257.078 165.798 Q258.362 164.67 258.362 162.656 Q258.362 160.642 257.078 159.514 Q255.81 158.385 253.553 158.385 Q251.279 158.385 250.012 159.514 Q248.762 160.642 248.762 162.656 Z" fill="#4c4c4c" fill-rule="evenodd" fill-opacity="1" /><path clip-path="url(#clip430)" d="M130.608 973.882 L130.608 944.646 L134.544 944.646 L134.544 956.915 L165.168 956.915 L165.168 961.614 L134.544 961.614 L134.544 973.882 L130.608 973.882 Z" fill="#000000" fill-rule="evenodd" fill-opacity="1" /><path clip-path="url(#clip430)" d="M151.141 926.198 L153.224 926.198 L153.224 945.781 Q157.622 945.503 159.937 943.142 Q162.229 940.758 162.229 936.522 Q162.229 934.068 161.627 931.776 Q161.025 929.461 159.821 927.193 L163.849 927.193 Q164.821 929.485 165.33 931.892 Q165.84 934.299 165.84 936.776 Q165.84 942.98 162.229 946.614 Q158.617 950.225 152.46 950.225 Q146.094 950.225 142.368 946.799 Q138.618 943.35 138.618 937.517 Q138.618 932.285 141.997 929.253 Q145.354 926.198 151.141 926.198 M149.891 930.457 Q146.395 930.503 144.312 932.424 Q142.229 934.322 142.229 937.471 Q142.229 941.035 144.243 943.188 Q146.256 945.318 149.914 945.642 L149.891 930.457 Z" fill="#000000" fill-rule="evenodd" fill-opacity="1" /><path clip-path="url(#clip430)" d="M140.006 902.679 L144.034 902.679 Q143.108 904.485 142.645 906.429 Q142.182 908.374 142.182 910.457 Q142.182 913.628 143.155 915.225 Q144.127 916.799 146.071 916.799 Q147.553 916.799 148.409 915.665 Q149.243 914.531 150.006 911.105 L150.33 909.647 Q151.303 905.11 153.085 903.212 Q154.844 901.29 158.016 901.29 Q161.627 901.29 163.733 904.161 Q165.84 907.008 165.84 912.008 Q165.84 914.091 165.423 916.36 Q165.029 918.605 164.219 921.105 L159.821 921.105 Q161.048 918.744 161.673 916.452 Q162.275 914.161 162.275 911.915 Q162.275 908.906 161.256 907.286 Q160.215 905.665 158.34 905.665 Q156.604 905.665 155.678 906.846 Q154.752 908.003 153.895 911.961 L153.548 913.443 Q152.715 917.401 151.002 919.161 Q149.266 920.92 146.256 920.92 Q142.599 920.92 140.608 918.327 Q138.618 915.735 138.618 910.966 Q138.618 908.605 138.965 906.522 Q139.312 904.438 140.006 902.679 Z" fill="#000000" fill-rule="evenodd" fill-opacity="1" /><path clip-path="url(#clip430)" d="M131.882 890.295 L139.243 890.295 L139.243 881.522 L142.553 881.522 L142.553 890.295 L156.627 890.295 Q159.798 890.295 160.701 889.438 Q161.604 888.559 161.604 885.897 L161.604 881.522 L165.168 881.522 L165.168 885.897 Q165.168 890.827 163.34 892.702 Q161.488 894.577 156.627 894.577 L142.553 894.577 L142.553 897.702 L139.243 897.702 L139.243 894.577 L131.882 894.577 L131.882 890.295 Z" fill="#000000" fill-rule="evenodd" fill-opacity="1" /><path clip-path="url(#clip430)" d="M129.15 860.851 L129.15 856.591 L165.168 856.591 L165.168 860.851 L129.15 860.851 Z" fill="#000000" fill-rule="evenodd" fill-opacity="1" /><path clip-path="url(#clip430)" d="M142.229 837.633 Q142.229 841.059 144.914 843.05 Q147.576 845.041 152.229 845.041 Q156.881 845.041 159.567 843.073 Q162.229 841.082 162.229 837.633 Q162.229 834.23 159.543 832.24 Q156.858 830.249 152.229 830.249 Q147.622 830.249 144.937 832.24 Q142.229 834.23 142.229 837.633 M138.618 837.633 Q138.618 832.078 142.229 828.906 Q145.84 825.735 152.229 825.735 Q158.594 825.735 162.229 828.906 Q165.84 832.078 165.84 837.633 Q165.84 843.212 162.229 846.383 Q158.594 849.531 152.229 849.531 Q145.84 849.531 142.229 846.383 Q138.618 843.212 138.618 837.633 Z" fill="#000000" fill-rule="evenodd" fill-opacity="1" /><path clip-path="url(#clip430)" d="M151.905 801.615 Q147.275 801.615 144.729 803.536 Q142.182 805.434 142.182 808.883 Q142.182 812.309 144.729 814.231 Q147.275 816.129 151.905 816.129 Q156.511 816.129 159.057 814.231 Q161.604 812.309 161.604 808.883 Q161.604 805.434 159.057 803.536 Q156.511 801.615 151.905 801.615 M161.951 797.356 Q168.571 797.356 171.789 800.295 Q175.029 803.235 175.029 809.3 Q175.029 811.545 174.682 813.536 Q174.358 815.527 173.664 817.402 L169.52 817.402 Q170.539 815.527 171.025 813.698 Q171.511 811.869 171.511 809.971 Q171.511 805.781 169.312 803.698 Q167.136 801.615 162.715 801.615 L160.608 801.615 Q162.9 802.934 164.034 804.994 Q165.168 807.055 165.168 809.925 Q165.168 814.693 161.534 817.61 Q157.9 820.527 151.905 820.527 Q145.886 820.527 142.252 817.61 Q138.618 814.693 138.618 809.925 Q138.618 807.055 139.752 804.994 Q140.886 802.934 143.178 801.615 L139.243 801.615 L139.243 797.356 L161.951 797.356 Z" fill="#000000" fill-rule="evenodd" fill-opacity="1" /><path clip-path="url(#clip430)" d="M150.284 790.735 L150.284 778.258 L154.08 778.258 L154.08 790.735 L150.284 790.735 Z" fill="#000000" fill-rule="evenodd" fill-opacity="1" /><path clip-path="url(#clip430)" d="M129.15 771.476 L129.15 767.217 L165.168 767.217 L165.168 771.476 L129.15 771.476 Z" fill="#000000" fill-rule="evenodd" fill-opacity="1" /><path clip-path="url(#clip430)" d="M139.243 758.305 L139.243 754.046 L165.168 754.046 L165.168 758.305 L139.243 758.305 M129.15 758.305 L129.15 754.046 L134.544 754.046 L134.544 758.305 L129.15 758.305 Z" fill="#000000" fill-rule="evenodd" fill-opacity="1" /><path clip-path="url(#clip430)" d="M129.15 745.296 L129.15 741.013 L150.423 741.013 L139.243 728.305 L139.243 722.865 L151.372 736.615 L165.168 722.287 L165.168 727.842 L152.506 741.013 L165.168 741.013 L165.168 745.296 L129.15 745.296 Z" fill="#000000" fill-rule="evenodd" fill-opacity="1" /><path clip-path="url(#clip430)" d="M151.141 697.194 L153.224 697.194 L153.224 716.777 Q157.622 716.5 159.937 714.138 Q162.229 711.754 162.229 707.518 Q162.229 705.064 161.627 702.773 Q161.025 700.458 159.821 698.189 L163.849 698.189 Q164.821 700.481 165.33 702.889 Q165.84 705.296 165.84 707.773 Q165.84 713.976 162.229 717.611 Q158.617 721.222 152.46 721.222 Q146.094 721.222 142.368 717.796 Q138.618 714.347 138.618 708.513 Q138.618 703.282 141.997 700.25 Q145.354 697.194 151.141 697.194 M149.891 701.453 Q146.395 701.5 144.312 703.421 Q142.229 705.319 142.229 708.467 Q142.229 712.032 144.243 714.185 Q146.256 716.314 149.914 716.638 L149.891 701.453 Z" fill="#000000" fill-rule="evenodd" fill-opacity="1" /><path clip-path="url(#clip430)" d="M129.15 690.203 L129.15 685.944 L165.168 685.944 L165.168 690.203 L129.15 690.203 Z" fill="#000000" fill-rule="evenodd" fill-opacity="1" /><path clip-path="url(#clip430)" d="M139.243 677.032 L139.243 672.773 L165.168 672.773 L165.168 677.032 L139.243 677.032 M129.15 677.032 L129.15 672.773 L134.544 672.773 L134.544 677.032 L129.15 677.032 Z" fill="#000000" fill-rule="evenodd" fill-opacity="1" /><path clip-path="url(#clip430)" d="M149.52 642.31 L165.168 642.31 L165.168 646.569 L149.659 646.569 Q145.979 646.569 144.15 648.005 Q142.321 649.44 142.321 652.31 Q142.321 655.759 144.52 657.75 Q146.719 659.741 150.516 659.741 L165.168 659.741 L165.168 664.023 L129.15 664.023 L129.15 659.741 L143.27 659.741 Q140.932 658.213 139.775 656.153 Q138.618 654.069 138.618 651.361 Q138.618 646.893 141.395 644.602 Q144.15 642.31 149.52 642.31 Z" fill="#000000" fill-rule="evenodd" fill-opacity="1" /><path clip-path="url(#clip430)" d="M142.229 623.769 Q142.229 627.194 144.914 629.185 Q147.576 631.176 152.229 631.176 Q156.881 631.176 159.567 629.208 Q162.229 627.218 162.229 623.769 Q162.229 620.366 159.543 618.375 Q156.858 616.384 152.229 616.384 Q147.622 616.384 144.937 618.375 Q142.229 620.366 142.229 623.769 M138.618 623.769 Q138.618 618.213 142.229 615.042 Q145.84 611.87 152.229 611.87 Q158.594 611.87 162.229 615.042 Q165.84 618.213 165.84 623.769 Q165.84 629.347 162.229 632.519 Q158.594 635.667 152.229 635.667 Q145.84 635.667 142.229 632.519 Q138.618 629.347 138.618 623.769 Z" fill="#000000" fill-rule="evenodd" fill-opacity="1" /><path clip-path="url(#clip430)" d="M142.229 594.764 Q142.229 598.19 144.914 600.181 Q147.576 602.171 152.229 602.171 Q156.881 602.171 159.567 600.204 Q162.229 598.213 162.229 594.764 Q162.229 591.361 159.543 589.371 Q156.858 587.38 152.229 587.38 Q147.622 587.38 144.937 589.371 Q142.229 591.361 142.229 594.764 M138.618 594.764 Q138.618 589.209 142.229 586.037 Q145.84 582.866 152.229 582.866 Q158.594 582.866 162.229 586.037 Q165.84 589.209 165.84 594.764 Q165.84 600.343 162.229 603.514 Q158.594 606.662 152.229 606.662 Q145.84 606.662 142.229 603.514 Q138.618 600.343 138.618 594.764 Z" fill="#000000" fill-rule="evenodd" fill-opacity="1" /><path clip-path="url(#clip430)" d="M143.178 558.746 L129.15 558.746 L129.15 554.487 L165.168 554.487 L165.168 558.746 L161.28 558.746 Q163.594 560.088 164.729 562.149 Q165.84 564.186 165.84 567.056 Q165.84 571.755 162.09 574.718 Q158.34 577.658 152.229 577.658 Q146.118 577.658 142.368 574.718 Q138.618 571.755 138.618 567.056 Q138.618 564.186 139.752 562.149 Q140.863 560.088 143.178 558.746 M152.229 573.26 Q156.928 573.26 159.613 571.338 Q162.275 569.394 162.275 566.014 Q162.275 562.635 159.613 560.69 Q156.928 558.746 152.229 558.746 Q147.53 558.746 144.868 560.69 Q142.182 562.635 142.182 566.014 Q142.182 569.394 144.868 571.338 Q147.53 573.26 152.229 573.26 Z" fill="#000000" fill-rule="evenodd" fill-opacity="1" /><path clip-path="url(#clip430)" d="M1212.74 35.5496 Q1206.29 35.5496 1203.8 37.0253 Q1201.31 38.501 1201.31 42.06 Q1201.31 44.8956 1203.16 46.5738 Q1205.04 48.2231 1208.25 48.2231 Q1212.68 48.2231 1215.34 45.0981 Q1218.03 41.9442 1218.03 36.7359 L1218.03 35.5496 L1212.74 35.5496 M1223.36 33.3505 L1223.36 51.84 L1218.03 51.84 L1218.03 46.921 Q1216.21 49.8724 1213.49 51.2902 Q1210.77 52.6791 1206.84 52.6791 Q1201.86 52.6791 1198.91 49.9014 Q1195.99 47.0947 1195.99 42.4072 Q1195.99 36.9385 1199.63 34.1607 Q1203.31 31.3829 1210.57 31.3829 L1218.03 31.3829 L1218.03 30.8621 Q1218.03 27.1874 1215.6 25.1908 Q1213.2 23.1654 1208.83 23.1654 Q1206.06 23.1654 1203.42 23.8309 Q1200.79 24.4964 1198.36 25.8274 L1198.36 20.9085 Q1201.28 19.78 1204.03 19.2302 Q1206.78 18.6515 1209.38 18.6515 Q1216.41 18.6515 1219.89 22.2973 Q1223.36 25.9431 1223.36 33.3505 Z" fill="#000000" fill-rule="evenodd" fill-opacity="1" /><path clip-path="url(#clip430)" d="M1257.65 20.677 L1257.65 25.6538 Q1255.39 24.4096 1253.1 23.802 Q1250.85 23.1654 1248.53 23.1654 Q1243.35 23.1654 1240.49 26.464 Q1237.62 29.7336 1237.62 35.6653 Q1237.62 41.597 1240.49 44.8956 Q1243.35 48.1653 1248.53 48.1653 Q1250.85 48.1653 1253.1 47.5576 Q1255.39 46.921 1257.65 45.6768 L1257.65 50.5958 Q1255.42 51.6375 1253.02 52.1583 Q1250.64 52.6791 1247.95 52.6791 Q1240.63 52.6791 1236.32 48.0784 Q1232.01 43.4778 1232.01 35.6653 Q1232.01 27.7371 1236.35 23.1943 Q1240.72 18.6515 1248.3 18.6515 Q1250.76 18.6515 1253.1 19.1724 Q1255.45 19.6642 1257.65 20.677 Z" fill="#000000" fill-rule="evenodd" fill-opacity="1" /><path clip-path="url(#clip430)" d="M1290.23 20.677 L1290.23 25.6538 Q1287.97 24.4096 1285.68 23.802 Q1283.43 23.1654 1281.11 23.1654 Q1275.93 23.1654 1273.07 26.464 Q1270.2 29.7336 1270.2 35.6653 Q1270.2 41.597 1273.07 44.8956 Q1275.93 48.1653 1281.11 48.1653 Q1283.43 48.1653 1285.68 47.5576 Q1287.97 46.921 1290.23 45.6768 L1290.23 50.5958 Q1288 51.6375 1285.6 52.1583 Q1283.22 52.6791 1280.53 52.6791 Q1273.21 52.6791 1268.9 48.0784 Q1264.59 43.4778 1264.59 35.6653 Q1264.59 27.7371 1268.93 23.1943 Q1273.3 18.6515 1280.88 18.6515 Q1283.34 18.6515 1285.68 19.1724 Q1288.03 19.6642 1290.23 20.677 Z" fill="#000000" fill-rule="evenodd" fill-opacity="1" /><path clip-path="url(#clip430)" d="M1299.49 19.4328 L1304.81 19.4328 L1304.81 51.84 L1299.49 51.84 L1299.49 19.4328 M1299.49 6.81709 L1304.81 6.81709 L1304.81 13.559 L1299.49 13.559 L1299.49 6.81709 Z" fill="#000000" fill-rule="evenodd" fill-opacity="1" /><path clip-path="url(#clip430)" d="M1337.28 24.3517 L1337.28 6.81709 L1342.6 6.81709 L1342.6 51.84 L1337.28 51.84 L1337.28 46.9789 Q1335.6 49.8724 1333.02 51.2902 Q1330.48 52.6791 1326.89 52.6791 Q1321.01 52.6791 1317.31 47.9916 Q1313.64 43.3042 1313.64 35.6653 Q1313.64 28.0265 1317.31 23.339 Q1321.01 18.6515 1326.89 18.6515 Q1330.48 18.6515 1333.02 20.0693 Q1335.6 21.4582 1337.28 24.3517 M1319.13 35.6653 Q1319.13 41.5391 1321.53 44.8956 Q1323.97 48.2231 1328.19 48.2231 Q1332.41 48.2231 1334.85 44.8956 Q1337.28 41.5391 1337.28 35.6653 Q1337.28 29.7915 1334.85 26.464 Q1332.41 23.1075 1328.19 23.1075 Q1323.97 23.1075 1321.53 26.464 Q1319.13 29.7915 1319.13 35.6653 Z" fill="#000000" fill-rule="evenodd" fill-opacity="1" /><path clip-path="url(#clip430)" d="M1381.29 34.3054 L1381.29 36.9095 L1356.81 36.9095 Q1357.15 42.4072 1360.11 45.3007 Q1363.09 48.1653 1368.38 48.1653 Q1371.45 48.1653 1374.31 47.4129 Q1377.21 46.6606 1380.04 45.156 L1380.04 50.1907 Q1377.18 51.406 1374.17 52.0425 Q1371.16 52.6791 1368.06 52.6791 Q1360.31 52.6791 1355.77 48.1653 Q1351.25 43.6514 1351.25 35.9547 Q1351.25 27.9975 1355.53 23.339 Q1359.84 18.6515 1367.14 18.6515 Q1373.68 18.6515 1377.47 22.876 Q1381.29 27.0716 1381.29 34.3054 M1375.96 32.7429 Q1375.9 28.3737 1373.5 25.7695 Q1371.13 23.1654 1367.19 23.1654 Q1362.74 23.1654 1360.05 25.6827 Q1357.39 28.2001 1356.98 32.7718 L1375.96 32.7429 Z" fill="#000000" fill-rule="evenodd" fill-opacity="1" /><path clip-path="url(#clip430)" d="M1416.96 32.2799 L1416.96 51.84 L1411.64 51.84 L1411.64 32.4535 Q1411.64 27.8529 1409.84 25.567 Q1408.05 23.2811 1404.46 23.2811 Q1400.15 23.2811 1397.66 26.03 Q1395.17 28.7788 1395.17 33.5241 L1395.17 51.84 L1389.82 51.84 L1389.82 19.4328 L1395.17 19.4328 L1395.17 24.4675 Q1397.08 21.545 1399.66 20.0983 Q1402.26 18.6515 1405.65 18.6515 Q1411.23 18.6515 1414.1 22.1237 Q1416.96 25.567 1416.96 32.2799 Z" fill="#000000" fill-rule="evenodd" fill-opacity="1" /><path clip-path="url(#clip430)" d="M1432.85 10.2314 L1432.85 19.4328 L1443.81 19.4328 L1443.81 23.5705 L1432.85 23.5705 L1432.85 41.163 Q1432.85 45.1271 1433.92 46.2555 Q1435.02 47.384 1438.35 47.384 L1443.81 47.384 L1443.81 51.84 L1438.35 51.84 Q1432.18 51.84 1429.84 49.5541 Q1427.49 47.2393 1427.49 41.163 L1427.49 23.5705 L1423.59 23.5705 L1423.59 19.4328 L1427.49 19.4328 L1427.49 10.2314 L1432.85 10.2314 Z" fill="#000000" fill-rule="evenodd" fill-opacity="1" /><path clip-path="url(#clip430)" d="M1471.48 20.3876 L1471.48 25.4223 Q1469.22 24.2649 1466.79 23.6862 Q1464.36 23.1075 1461.75 23.1075 Q1457.79 23.1075 1455.79 24.3228 Q1453.83 25.5381 1453.83 27.9686 Q1453.83 29.8204 1455.24 30.891 Q1456.66 31.9327 1460.94 32.8876 L1462.77 33.2926 Q1468.44 34.5079 1470.81 36.7359 Q1473.21 38.935 1473.21 42.8991 Q1473.21 47.4129 1469.62 50.046 Q1466.07 52.6791 1459.82 52.6791 Q1457.21 52.6791 1454.38 52.1583 Q1451.57 51.6664 1448.44 50.6537 L1448.44 45.156 Q1451.4 46.6896 1454.26 47.4708 Q1457.12 48.2231 1459.93 48.2231 Q1463.69 48.2231 1465.72 46.95 Q1467.74 45.6479 1467.74 43.3042 Q1467.74 41.134 1466.27 39.9766 Q1464.82 38.8192 1459.87 37.7486 L1458.02 37.3146 Q1453.07 36.273 1450.87 34.1318 Q1448.68 31.9616 1448.68 28.2001 Q1448.68 23.6283 1451.92 21.1399 Q1455.16 18.6515 1461.12 18.6515 Q1464.07 18.6515 1466.67 19.0855 Q1469.28 19.5196 1471.48 20.3876 Z" fill="#000000" fill-rule="evenodd" fill-opacity="1" /><polyline clip-path="url(#clip432)" style="stroke:#e26f46; stroke-linecap:butt; stroke-linejoin:round; stroke-width:8; stroke-opacity:1; fill:none" points="
  403.628,746.439 433.183,746.439 462.738,746.439 492.292,746.439 521.847,746.439 551.402,746.439 580.956,746.439 610.511,746.439 640.065,746.439 669.62,746.439 
  699.175,746.439 728.729,746.439 758.284,746.439 787.839,746.439 817.393,746.439 846.948,746.439 876.502,746.439 906.057,746.439 935.612,746.439 965.166,746.439 
  994.721,746.439 1024.28,746.439 1053.83,746.439 1083.38,746.439 1112.94,746.439 1142.49,746.439 1172.05,746.439 1201.6,746.439 1231.16,746.439 1260.71,746.439 
  1290.27,746.439 1319.82,746.439 1349.38,746.439 1378.93,746.439 1408.49,746.439 1438.04,746.439 1467.59,746.439 1497.15,746.439 1526.7,746.439 1556.26,746.439 
  1585.81,746.439 1615.37,746.439 1644.92,746.439 1674.48,746.439 1704.03,746.439 1733.59,746.439 1763.14,746.439 1792.7,746.439 1822.25,746.439 1851.81,746.439 
  1881.36,746.439 1910.91,746.439 1940.47,746.439 1970.02,746.439 1999.58,746.439 2029.13,746.439 2058.69,746.439 2088.24,746.439 2117.8,746.439 2147.35,746.439 
  2176.91,746.439 2206.46,746.439 2236.02,746.439 2265.57,746.439 2295.12,746.439 
  "/>
<polyline clip-path="url(#clip432)" style="stroke:#3da44d; stroke-linecap:butt; stroke-linejoin:round; stroke-width:8; stroke-opacity:1; fill:none" points="
  403.628,376.674 433.183,376.674 462.738,376.674 492.292,376.674 521.847,376.674 551.402,376.674 580.956,376.674 610.511,376.674 640.065,376.674 669.62,376.674 
  699.175,376.674 728.729,376.674 758.284,376.674 787.839,376.674 817.393,376.674 846.948,376.674 876.502,376.674 906.057,376.674 935.612,376.674 965.166,376.674 
  994.721,376.674 1024.28,376.674 1053.83,376.674 1083.38,376.674 1112.94,376.674 1142.49,376.674 1172.05,376.674 1201.6,376.674 1231.16,376.674 1260.71,376.674 
  1290.27,376.674 1319.82,376.674 1349.38,376.674 1378.93,376.674 1408.49,376.674 1438.04,376.674 1467.59,376.674 1497.15,376.674 1526.7,376.674 1556.26,376.674 
  1585.81,376.674 1615.37,376.674 1644.92,376.674 1674.48,376.674 1704.03,376.674 1733.59,376.674 1763.14,376.674 1792.7,376.674 1822.25,376.674 1851.81,376.674 
  1881.36,376.674 1910.91,376.674 1940.47,376.674 1970.02,376.674 1999.58,376.674 2029.13,376.674 2058.69,376.674 2088.24,376.674 2117.8,376.674 2147.35,376.674 
  2176.91,376.674 2206.46,376.674 2236.02,376.674 2265.57,376.674 2295.12,376.674 
  "/>
<polyline clip-path="url(#clip432)" style="stroke:#c271d2; stroke-linecap:butt; stroke-linejoin:round; stroke-width:8; stroke-opacity:1; fill:none" points="
  403.628,783.416 433.183,783.416 462.738,783.416 492.292,783.416 521.847,783.416 551.402,783.416 580.956,783.416 610.511,783.416 640.065,783.416 669.62,783.416 
  699.175,783.416 728.729,783.416 758.284,783.416 787.839,783.416 817.393,783.416 846.948,783.416 876.502,783.416 906.057,783.416 935.612,783.416 965.166,783.416 
  994.721,783.416 1024.28,783.416 1053.83,783.416 1083.38,783.416 1112.94,783.416 1142.49,783.416 1172.05,783.416 1201.6,783.416 1231.16,783.416 1260.71,783.416 
  1290.27,783.416 1319.82,783.416 1349.38,783.416 1378.93,783.416 1408.49,783.416 1438.04,783.416 1467.59,783.416 1497.15,783.416 1526.7,783.416 1556.26,783.416 
  1585.81,783.416 1615.37,783.416 1644.92,783.416 1674.48,783.416 1704.03,783.416 1733.59,783.416 1763.14,783.416 1792.7,783.416 1822.25,783.416 1851.81,783.416 
  1881.36,783.416 1910.91,783.416 1940.47,783.416 1970.02,783.416 1999.58,783.416 2029.13,783.416 2058.69,783.416 2088.24,783.416 2117.8,783.416 2147.35,783.416 
  2176.91,783.416 2206.46,783.416 2236.02,783.416 2265.57,783.416 2295.12,783.416 
  "/>
<polyline clip-path="url(#clip432)" style="stroke:#ac8d18; stroke-linecap:butt; stroke-linejoin:round; stroke-width:8; stroke-opacity:1; fill:none" points="
  403.628,1028.03 433.183,1028.03 462.738,1028.03 492.292,1028.03 521.847,1028.03 551.402,1028.03 580.956,1028.03 610.511,1028.03 640.065,1028.03 669.62,1028.03 
  699.175,1028.03 728.729,1028.03 758.284,1028.03 787.839,1028.03 817.393,1028.03 846.948,1028.03 876.502,1028.03 906.057,1028.03 935.612,1028.03 965.166,1028.03 
  994.721,1028.03 1024.28,1028.03 1053.83,1028.03 1083.38,1028.03 1112.94,1028.03 1142.49,1028.03 1172.05,1028.03 1201.6,1028.03 1231.16,1028.03 1260.71,1028.03 
  1290.27,1028.03 1319.82,1028.03 1349.38,1028.03 1378.93,1028.03 1408.49,1028.03 1438.04,1028.03 1467.59,1028.03 1497.15,1028.03 1526.7,1028.03 1556.26,1028.03 
  1585.81,1028.03 1615.37,1028.03 1644.92,1028.03 1674.48,1028.03 1704.03,1028.03 1733.59,1028.03 1763.14,1028.03 1792.7,1028.03 1822.25,1028.03 1851.81,1028.03 
  1881.36,1028.03 1910.91,1028.03 1940.47,1028.03 1970.02,1028.03 1999.58,1028.03 2029.13,1028.03 2058.69,1028.03 2088.24,1028.03 2117.8,1028.03 2147.35,1028.03 
  2176.91,1028.03 2206.46,1028.03 2236.02,1028.03 2265.57,1028.03 2295.12,1028.03 
  "/>
<polyline clip-path="url(#clip432)" style="stroke:#00a9ad; stroke-linecap:butt; stroke-linejoin:round; stroke-width:8; stroke-opacity:1; fill:none" points="
  403.628,143.437 433.183,143.437 462.738,143.437 492.292,143.437 521.847,143.437 551.402,143.437 580.956,143.437 610.511,143.437 640.065,143.437 669.62,143.437 
  699.175,143.437 728.729,143.437 758.284,143.437 787.839,143.437 817.393,143.437 846.948,143.437 876.502,143.437 906.057,143.437 935.612,143.437 965.166,143.437 
  994.721,143.437 1024.28,143.437 1053.83,143.437 1083.38,143.437 1112.94,143.437 1142.49,143.437 1172.05,143.437 1201.6,143.437 1231.16,143.437 1260.71,143.437 
  1290.27,143.437 1319.82,143.437 1349.38,143.437 1378.93,143.437 1408.49,143.437 1438.04,143.437 1467.59,143.437 1497.15,143.437 1526.7,143.437 1556.26,143.437 
  1585.81,143.437 1615.37,143.437 1644.92,143.437 1674.48,143.437 1704.03,143.437 1733.59,143.437 1763.14,143.437 1792.7,143.437 1822.25,143.437 1851.81,143.437 
  1881.36,143.437 1910.91,143.437 1940.47,143.437 1970.02,143.437 1999.58,143.437 2029.13,143.437 2058.69,143.437 2088.24,143.437 2117.8,143.437 2147.35,143.437 
  2176.91,143.437 2206.46,143.437 2236.02,143.437 2265.57,143.437 2295.12,143.437 
  "/>
<polyline clip-path="url(#clip432)" style="stroke:#009af9; stroke-linecap:butt; stroke-linejoin:round; stroke-width:12; stroke-opacity:1; fill:none" points="
  403.628,1384.93 433.183,1061.8 462.738,900.128 492.292,797.319 521.847,735.848 551.402,703.834 580.956,654.816 610.511,624.954 640.065,601.714 669.62,579.743 
  699.175,556.625 728.729,548.05 758.284,598.882 787.839,537.796 817.393,530.297 846.948,514.028 876.502,505.556 906.057,512.802 935.612,499.963 965.166,484.755 
  994.721,477.623 1024.28,468.921 1053.83,475.986 1083.38,473.81 1112.94,465.955 1142.49,483.039 1172.05,471.406 1201.6,468.49 1231.16,467.745 1260.71,452.73 
  1290.27,454.379 1319.82,451.818 1349.38,443.987 1378.93,442.033 1408.49,437.199 1438.04,433.989 1467.59,428.67 1497.15,426.799 1526.7,435.717 1556.26,438.397 
  1585.81,437.138 1615.37,436.08 1644.92,431.876 1674.48,431.828 1704.03,430.187 1733.59,428.874 1763.14,428.948 1792.7,426.24 1822.25,425.328 1851.81,423.589 
  
  "/>
<polyline clip-path="url(#clip432)" style="stroke:#f05f73; stroke-linecap:butt; stroke-linejoin:round; stroke-width:12; stroke-opacity:1; fill:none" points="
  1851.81,423.589 1881.36,399.38 1910.91,391.981 1940.47,388.351 1970.02,386.247 1999.58,384.893 2029.13,383.943 2058.69,383.104 2088.24,382.283 2117.8,381.335 
  2147.35,380.249 2176.91,379.149 2206.46,377.883 2236.02,376.465 2265.57,375.124 2295.12,374.099 
  "/>
</svg>
