<?xml version="1.0" encoding="utf-8"?>
<svg xmlns="http://www.w3.org/2000/svg" xmlns:xlink="http://www.w3.org/1999/xlink" width="600" height="400" viewBox="0 0 2400 1600">
<defs>
  <clipPath id="clip050">
    <rect x="0" y="0" width="2400" height="1600"/>
  </clipPath>
</defs>
<path clip-path="url(#clip050)" d="
M0 1600 L2400 1600 L2400 0 L0 0  Z
  " fill="#ffffff" fill-rule="evenodd" fill-opacity="1"/>
<defs>
  <clipPath id="clip051">
    <rect x="480" y="0" width="1681" height="1600"/>
  </clipPath>
</defs>
<path clip-path="url(#clip050)" d="
M206.206 1444.78 L2352.76 1444.78 L2352.76 106.192 L206.206 106.192  Z
  " fill="#eaeaea" fill-rule="evenodd" fill-opacity="1"/>
<defs>
  <clipPath id="clip052">
    <rect x="206" y="106" width="2148" height="1340"/>
  </clipPath>
</defs>
<polyline clip-path="url(#clip052)" style="stroke:#ffffff; stroke-linecap:butt; stroke-linejoin:round; stroke-width:4; stroke-opacity:1; fill:none" points="
  266.957,1444.78 266.957,106.192 
  "/>
<polyline clip-path="url(#clip052)" style="stroke:#ffffff; stroke-linecap:butt; stroke-linejoin:round; stroke-width:4; stroke-opacity:1; fill:none" points="
  469.462,1444.78 469.462,106.192 
  "/>
<polyline clip-path="url(#clip052)" style="stroke:#ffffff; stroke-linecap:butt; stroke-linejoin:round; stroke-width:4; stroke-opacity:1; fill:none" points="
  671.967,1444.78 671.967,106.192 
  "/>
<polyline clip-path="url(#clip052)" style="stroke:#ffffff; stroke-linecap:butt; stroke-linejoin:round; stroke-width:4; stroke-opacity:1; fill:none" points="
  874.472,1444.78 874.472,106.192 
  "/>
<polyline clip-path="url(#clip052)" style="stroke:#ffffff; stroke-linecap:butt; stroke-linejoin:round; stroke-width:4; stroke-opacity:1; fill:none" points="
  1076.98,1444.78 1076.98,106.192 
  "/>
<polyline clip-path="url(#clip052)" style="stroke:#ffffff; stroke-linecap:butt; stroke-linejoin:round; stroke-width:4; stroke-opacity:1; fill:none" points="
  1279.48,1444.78 1279.48,106.192 
  "/>
<polyline clip-path="url(#clip052)" style="stroke:#ffffff; stroke-linecap:butt; stroke-linejoin:round; stroke-width:4; stroke-opacity:1; fill:none" points="
  1481.99,1444.78 1481.99,106.192 
  "/>
<polyline clip-path="url(#clip052)" style="stroke:#ffffff; stroke-linecap:butt; stroke-linejoin:round; stroke-width:4; stroke-opacity:1; fill:none" points="
  1684.49,1444.78 1684.49,106.192 
  "/>
<polyline clip-path="url(#clip052)" style="stroke:#ffffff; stroke-linecap:butt; stroke-linejoin:round; stroke-width:4; stroke-opacity:1; fill:none" points="
  1887,1444.78 1887,106.192 
  "/>
<polyline clip-path="url(#clip052)" style="stroke:#ffffff; stroke-linecap:butt; stroke-linejoin:round; stroke-width:4; stroke-opacity:1; fill:none" points="
  2089.5,1444.78 2089.5,106.192 
  "/>
<polyline clip-path="url(#clip052)" style="stroke:#ffffff; stroke-linecap:butt; stroke-linejoin:round; stroke-width:4; stroke-opacity:1; fill:none" points="
  2292,1444.78 2292,106.192 
  "/>
<polyline clip-path="url(#clip052)" style="stroke:#ffffff; stroke-linecap:butt; stroke-linejoin:round; stroke-width:2; stroke-opacity:1; fill:none" points="
  368.21,1444.78 368.21,106.192 
  "/>
<polyline clip-path="url(#clip052)" style="stroke:#ffffff; stroke-linecap:butt; stroke-linejoin:round; stroke-width:2; stroke-opacity:1; fill:none" points="
  570.715,1444.78 570.715,106.192 
  "/>
<polyline clip-path="url(#clip052)" style="stroke:#ffffff; stroke-linecap:butt; stroke-linejoin:round; stroke-width:2; stroke-opacity:1; fill:none" points="
  773.219,1444.78 773.219,106.192 
  "/>
<polyline clip-path="url(#clip052)" style="stroke:#ffffff; stroke-linecap:butt; stroke-linejoin:round; stroke-width:2; stroke-opacity:1; fill:none" points="
  975.724,1444.78 975.724,106.192 
  "/>
<polyline clip-path="url(#clip052)" style="stroke:#ffffff; stroke-linecap:butt; stroke-linejoin:round; stroke-width:2; stroke-opacity:1; fill:none" points="
  1178.23,1444.78 1178.23,106.192 
  "/>
<polyline clip-path="url(#clip052)" style="stroke:#ffffff; stroke-linecap:butt; stroke-linejoin:round; stroke-width:2; stroke-opacity:1; fill:none" points="
  1380.73,1444.78 1380.73,106.192 
  "/>
<polyline clip-path="url(#clip052)" style="stroke:#ffffff; stroke-linecap:butt; stroke-linejoin:round; stroke-width:2; stroke-opacity:1; fill:none" points="
  1583.24,1444.78 1583.24,106.192 
  "/>
<polyline clip-path="url(#clip052)" style="stroke:#ffffff; stroke-linecap:butt; stroke-linejoin:round; stroke-width:2; stroke-opacity:1; fill:none" points="
  1785.74,1444.78 1785.74,106.192 
  "/>
<polyline clip-path="url(#clip052)" style="stroke:#ffffff; stroke-linecap:butt; stroke-linejoin:round; stroke-width:2; stroke-opacity:1; fill:none" points="
  1988.25,1444.78 1988.25,106.192 
  "/>
<polyline clip-path="url(#clip052)" style="stroke:#ffffff; stroke-linecap:butt; stroke-linejoin:round; stroke-width:2; stroke-opacity:1; fill:none" points="
  2190.75,1444.78 2190.75,106.192 
  "/>
<polyline clip-path="url(#clip050)" style="stroke:#ffffff; stroke-linecap:butt; stroke-linejoin:round; stroke-width:4; stroke-opacity:1; fill:none" points="
  206.206,1444.78 2352.76,1444.78 
  "/>
<polyline clip-path="url(#clip050)" style="stroke:#333333; stroke-linecap:butt; stroke-linejoin:round; stroke-width:4; stroke-opacity:1; fill:none" points="
  266.957,1444.78 266.957,1463.68 
  "/>
<polyline clip-path="url(#clip050)" style="stroke:#333333; stroke-linecap:butt; stroke-linejoin:round; stroke-width:4; stroke-opacity:1; fill:none" points="
  469.462,1444.78 469.462,1463.68 
  "/>
<polyline clip-path="url(#clip050)" style="stroke:#333333; stroke-linecap:butt; stroke-linejoin:round; stroke-width:4; stroke-opacity:1; fill:none" points="
  671.967,1444.78 671.967,1463.68 
  "/>
<polyline clip-path="url(#clip050)" style="stroke:#333333; stroke-linecap:butt; stroke-linejoin:round; stroke-width:4; stroke-opacity:1; fill:none" points="
  874.472,1444.78 874.472,1463.68 
  "/>
<polyline clip-path="url(#clip050)" style="stroke:#333333; stroke-linecap:butt; stroke-linejoin:round; stroke-width:4; stroke-opacity:1; fill:none" points="
  1076.98,1444.78 1076.98,1463.68 
  "/>
<polyline clip-path="url(#clip050)" style="stroke:#333333; stroke-linecap:butt; stroke-linejoin:round; stroke-width:4; stroke-opacity:1; fill:none" points="
  1279.48,1444.78 1279.48,1463.68 
  "/>
<polyline clip-path="url(#clip050)" style="stroke:#333333; stroke-linecap:butt; stroke-linejoin:round; stroke-width:4; stroke-opacity:1; fill:none" points="
  1481.99,1444.78 1481.99,1463.68 
  "/>
<polyline clip-path="url(#clip050)" style="stroke:#333333; stroke-linecap:butt; stroke-linejoin:round; stroke-width:4; stroke-opacity:1; fill:none" points="
  1684.49,1444.78 1684.49,1463.68 
  "/>
<polyline clip-path="url(#clip050)" style="stroke:#333333; stroke-linecap:butt; stroke-linejoin:round; stroke-width:4; stroke-opacity:1; fill:none" points="
  1887,1444.78 1887,1463.68 
  "/>
<polyline clip-path="url(#clip050)" style="stroke:#333333; stroke-linecap:butt; stroke-linejoin:round; stroke-width:4; stroke-opacity:1; fill:none" points="
  2089.5,1444.78 2089.5,1463.68 
  "/>
<polyline clip-path="url(#clip050)" style="stroke:#333333; stroke-linecap:butt; stroke-linejoin:round; stroke-width:4; stroke-opacity:1; fill:none" points="
  2292,1444.78 2292,1463.68 
  "/>
<polyline clip-path="url(#clip050)" style="stroke:#333333; stroke-linecap:butt; stroke-linejoin:round; stroke-width:4; stroke-opacity:1; fill:none" points="
  368.21,1444.78 368.21,1454.23 
  "/>
<polyline clip-path="url(#clip050)" style="stroke:#333333; stroke-linecap:butt; stroke-linejoin:round; stroke-width:4; stroke-opacity:1; fill:none" points="
  570.715,1444.78 570.715,1454.23 
  "/>
<polyline clip-path="url(#clip050)" style="stroke:#333333; stroke-linecap:butt; stroke-linejoin:round; stroke-width:4; stroke-opacity:1; fill:none" points="
  773.219,1444.78 773.219,1454.23 
  "/>
<polyline clip-path="url(#clip050)" style="stroke:#333333; stroke-linecap:butt; stroke-linejoin:round; stroke-width:4; stroke-opacity:1; fill:none" points="
  975.724,1444.78 975.724,1454.23 
  "/>
<polyline clip-path="url(#clip050)" style="stroke:#333333; stroke-linecap:butt; stroke-linejoin:round; stroke-width:4; stroke-opacity:1; fill:none" points="
  1178.23,1444.78 1178.23,1454.23 
  "/>
<polyline clip-path="url(#clip050)" style="stroke:#333333; stroke-linecap:butt; stroke-linejoin:round; stroke-width:4; stroke-opacity:1; fill:none" points="
  1380.73,1444.78 1380.73,1454.23 
  "/>
<polyline clip-path="url(#clip050)" style="stroke:#333333; stroke-linecap:butt; stroke-linejoin:round; stroke-width:4; stroke-opacity:1; fill:none" points="
  1583.24,1444.78 1583.24,1454.23 
  "/>
<polyline clip-path="url(#clip050)" style="stroke:#333333; stroke-linecap:butt; stroke-linejoin:round; stroke-width:4; stroke-opacity:1; fill:none" points="
  1785.74,1444.78 1785.74,1454.23 
  "/>
<polyline clip-path="url(#clip050)" style="stroke:#333333; stroke-linecap:butt; stroke-linejoin:round; stroke-width:4; stroke-opacity:1; fill:none" points="
  1988.25,1444.78 1988.25,1454.23 
  "/>
<polyline clip-path="url(#clip050)" style="stroke:#333333; stroke-linecap:butt; stroke-linejoin:round; stroke-width:4; stroke-opacity:1; fill:none" points="
  2190.75,1444.78 2190.75,1454.23 
  "/>
<path clip-path="url(#clip050)" d="M266.957 1482.37 Q264.249 1482.37 262.878 1485.04 Q261.523 1487.7 261.523 1493.05 Q261.523 1498.38 262.878 1501.05 Q264.249 1503.71 266.957 1503.71 Q269.683 1503.71 271.037 1501.05 Q272.409 1498.38 272.409 1493.05 Q272.409 1487.7 271.037 1485.04 Q269.683 1482.37 266.957 1482.37 M266.957 1479.59 Q271.315 1479.59 273.607 1483.05 Q275.916 1486.48 275.916 1493.05 Q275.916 1499.59 273.607 1503.05 Q271.315 1506.48 266.957 1506.48 Q262.6 1506.48 260.291 1503.05 Q257.999 1499.59 257.999 1493.05 Q257.999 1486.48 260.291 1483.05 Q262.6 1479.59 266.957 1479.59 Z" fill="#4c4c4c" fill-rule="evenodd" fill-opacity="1" /><path clip-path="url(#clip050)" d="M450.478 1503.03 L456.207 1503.03 L456.207 1483.25 L449.974 1484.5 L449.974 1481.31 L456.172 1480.06 L459.679 1480.06 L459.679 1503.03 L465.408 1503.03 L465.408 1505.98 L450.478 1505.98 L450.478 1503.03 Z" fill="#4c4c4c" fill-rule="evenodd" fill-opacity="1" /><path clip-path="url(#clip050)" d="M479.992 1482.37 Q477.283 1482.37 475.912 1485.04 Q474.558 1487.7 474.558 1493.05 Q474.558 1498.38 475.912 1501.05 Q477.283 1503.71 479.992 1503.71 Q482.717 1503.71 484.071 1501.05 Q485.443 1498.38 485.443 1493.05 Q485.443 1487.7 484.071 1485.04 Q482.717 1482.37 479.992 1482.37 M479.992 1479.59 Q484.349 1479.59 486.641 1483.05 Q488.95 1486.48 488.95 1493.05 Q488.95 1499.59 486.641 1503.05 Q484.349 1506.48 479.992 1506.48 Q475.634 1506.48 473.325 1503.05 Q471.033 1499.59 471.033 1493.05 Q471.033 1486.48 473.325 1483.05 Q475.634 1479.59 479.992 1479.59 Z" fill="#4c4c4c" fill-rule="evenodd" fill-opacity="1" /><path clip-path="url(#clip050)" d="M656.047 1503.03 L668.286 1503.03 L668.286 1505.98 L651.828 1505.98 L651.828 1503.03 Q653.825 1500.96 657.262 1497.49 Q660.717 1494 661.602 1492.99 Q663.286 1491.1 663.946 1489.8 Q664.623 1488.48 664.623 1487.21 Q664.623 1485.15 663.165 1483.84 Q661.724 1482.54 659.397 1482.54 Q657.748 1482.54 655.908 1483.12 Q654.085 1483.69 652.002 1484.85 L652.002 1481.31 Q654.12 1480.46 655.96 1480.03 Q657.8 1479.59 659.328 1479.59 Q663.356 1479.59 665.752 1481.6 Q668.147 1483.62 668.147 1486.99 Q668.147 1488.58 667.54 1490.03 Q666.95 1491.45 665.37 1493.39 Q664.936 1493.9 662.609 1496.31 Q660.283 1498.71 656.047 1503.03 Z" fill="#4c4c4c" fill-rule="evenodd" fill-opacity="1" /><path clip-path="url(#clip050)" d="M683.147 1482.37 Q680.439 1482.37 679.068 1485.04 Q677.713 1487.7 677.713 1493.05 Q677.713 1498.38 679.068 1501.05 Q680.439 1503.71 683.147 1503.71 Q685.873 1503.71 687.227 1501.05 Q688.599 1498.38 688.599 1493.05 Q688.599 1487.7 687.227 1485.04 Q685.873 1482.37 683.147 1482.37 M683.147 1479.59 Q687.505 1479.59 689.797 1483.05 Q692.106 1486.48 692.106 1493.05 Q692.106 1499.59 689.797 1503.05 Q687.505 1506.48 683.147 1506.48 Q678.79 1506.48 676.481 1503.05 Q674.189 1499.59 674.189 1493.05 Q674.189 1486.48 676.481 1483.05 Q678.79 1479.59 683.147 1479.59 Z" fill="#4c4c4c" fill-rule="evenodd" fill-opacity="1" /><path clip-path="url(#clip050)" d="M866.104 1492 Q868.621 1492.54 870.027 1494.24 Q871.451 1495.95 871.451 1498.45 Q871.451 1502.28 868.812 1504.38 Q866.173 1506.48 861.312 1506.48 Q859.68 1506.48 857.944 1506.15 Q856.225 1505.84 854.385 1505.2 L854.385 1501.81 Q855.843 1502.66 857.579 1503.1 Q859.315 1503.53 861.208 1503.53 Q864.506 1503.53 866.225 1502.23 Q867.961 1500.93 867.961 1498.45 Q867.961 1496.15 866.347 1494.87 Q864.749 1493.57 861.885 1493.57 L858.864 1493.57 L858.864 1490.68 L862.024 1490.68 Q864.611 1490.68 865.982 1489.66 Q867.354 1488.62 867.354 1486.67 Q867.354 1484.68 865.93 1483.62 Q864.524 1482.54 861.885 1482.54 Q860.444 1482.54 858.795 1482.85 Q857.145 1483.17 855.166 1483.83 L855.166 1480.7 Q857.163 1480.15 858.899 1479.87 Q860.652 1479.59 862.197 1479.59 Q866.19 1479.59 868.517 1481.41 Q870.843 1483.22 870.843 1486.31 Q870.843 1488.46 869.61 1489.96 Q868.378 1491.43 866.104 1492 Z" fill="#4c4c4c" fill-rule="evenodd" fill-opacity="1" /><path clip-path="url(#clip050)" d="M885.6 1482.37 Q882.892 1482.37 881.52 1485.04 Q880.166 1487.7 880.166 1493.05 Q880.166 1498.38 881.52 1501.05 Q882.892 1503.71 885.6 1503.71 Q888.326 1503.71 889.68 1501.05 Q891.051 1498.38 891.051 1493.05 Q891.051 1487.7 889.68 1485.04 Q888.326 1482.37 885.6 1482.37 M885.6 1479.59 Q889.958 1479.59 892.249 1483.05 Q894.558 1486.48 894.558 1493.05 Q894.558 1499.59 892.249 1503.05 Q889.958 1506.48 885.6 1506.48 Q881.242 1506.48 878.933 1503.05 Q876.642 1499.59 876.642 1493.05 Q876.642 1486.48 878.933 1483.05 Q881.242 1479.59 885.6 1479.59 Z" fill="#4c4c4c" fill-rule="evenodd" fill-opacity="1" /><path clip-path="url(#clip050)" d="M1068.1 1483.12 L1059.25 1496.95 L1068.1 1496.95 L1068.1 1483.12 M1067.18 1480.06 L1071.59 1480.06 L1071.59 1496.95 L1075.29 1496.95 L1075.29 1499.87 L1071.59 1499.87 L1071.59 1505.98 L1068.1 1505.98 L1068.1 1499.87 L1056.4 1499.87 L1056.4 1496.48 L1067.18 1480.06 Z" fill="#4c4c4c" fill-rule="evenodd" fill-opacity="1" /><path clip-path="url(#clip050)" d="M1088.59 1482.37 Q1085.88 1482.37 1084.51 1485.04 Q1083.16 1487.7 1083.16 1493.05 Q1083.16 1498.38 1084.51 1501.05 Q1085.88 1503.71 1088.59 1503.71 Q1091.32 1503.71 1092.67 1501.05 Q1094.04 1498.38 1094.04 1493.05 Q1094.04 1487.7 1092.67 1485.04 Q1091.32 1482.37 1088.59 1482.37 M1088.59 1479.59 Q1092.95 1479.59 1095.24 1483.05 Q1097.55 1486.48 1097.55 1493.05 Q1097.55 1499.59 1095.24 1503.05 Q1092.95 1506.48 1088.59 1506.48 Q1084.23 1506.48 1081.92 1503.05 Q1079.63 1499.59 1079.63 1493.05 Q1079.63 1486.48 1081.92 1483.05 Q1084.23 1479.59 1088.59 1479.59 Z" fill="#4c4c4c" fill-rule="evenodd" fill-opacity="1" /><path clip-path="url(#clip050)" d="M1260.51 1480.06 L1274.27 1480.06 L1274.27 1483.01 L1263.72 1483.01 L1263.72 1489.37 Q1264.48 1489.1 1265.24 1488.98 Q1266.01 1488.84 1266.77 1488.84 Q1271.11 1488.84 1273.65 1491.22 Q1276.18 1493.6 1276.18 1497.66 Q1276.18 1501.85 1273.58 1504.17 Q1270.97 1506.48 1266.23 1506.48 Q1264.6 1506.48 1262.9 1506.21 Q1261.22 1505.93 1259.41 1505.37 L1259.41 1501.85 Q1260.97 1502.7 1262.64 1503.12 Q1264.31 1503.53 1266.17 1503.53 Q1269.17 1503.53 1270.92 1501.95 Q1272.68 1500.37 1272.68 1497.66 Q1272.68 1494.96 1270.92 1493.38 Q1269.17 1491.8 1266.17 1491.8 Q1264.76 1491.8 1263.35 1492.11 Q1261.96 1492.42 1260.51 1493.08 L1260.51 1480.06 Z" fill="#4c4c4c" fill-rule="evenodd" fill-opacity="1" /><path clip-path="url(#clip050)" d="M1290.59 1482.37 Q1287.88 1482.37 1286.51 1485.04 Q1285.16 1487.7 1285.16 1493.05 Q1285.16 1498.38 1286.51 1501.05 Q1287.88 1503.71 1290.59 1503.71 Q1293.32 1503.71 1294.67 1501.05 Q1296.04 1498.38 1296.04 1493.05 Q1296.04 1487.7 1294.67 1485.04 Q1293.32 1482.37 1290.59 1482.37 M1290.59 1479.59 Q1294.95 1479.59 1297.24 1483.05 Q1299.55 1486.48 1299.55 1493.05 Q1299.55 1499.59 1297.24 1503.05 Q1294.95 1506.48 1290.59 1506.48 Q1286.23 1506.48 1283.93 1503.05 Q1281.63 1499.59 1281.63 1493.05 Q1281.63 1486.48 1283.93 1483.05 Q1286.23 1479.59 1290.59 1479.59 Z" fill="#4c4c4c" fill-rule="evenodd" fill-opacity="1" /><path clip-path="url(#clip050)" d="M1471.04 1491.62 Q1468.68 1491.62 1467.29 1493.24 Q1465.92 1494.85 1465.92 1497.66 Q1465.92 1500.46 1467.29 1502.09 Q1468.68 1503.71 1471.04 1503.71 Q1473.4 1503.71 1474.77 1502.09 Q1476.16 1500.46 1476.16 1497.66 Q1476.16 1494.85 1474.77 1493.24 Q1473.4 1491.62 1471.04 1491.62 M1478 1480.63 L1478 1483.83 Q1476.68 1483.2 1475.33 1482.87 Q1473.99 1482.54 1472.67 1482.54 Q1469.2 1482.54 1467.36 1484.89 Q1465.54 1487.23 1465.28 1491.97 Q1466.3 1490.46 1467.85 1489.66 Q1469.39 1488.84 1471.25 1488.84 Q1475.15 1488.84 1477.41 1491.22 Q1479.69 1493.58 1479.69 1497.66 Q1479.69 1501.66 1477.32 1504.07 Q1474.96 1506.48 1471.04 1506.48 Q1466.54 1506.48 1464.16 1503.05 Q1461.79 1499.59 1461.79 1493.05 Q1461.79 1486.9 1464.7 1483.25 Q1467.62 1479.59 1472.53 1479.59 Q1473.85 1479.59 1475.19 1479.85 Q1476.54 1480.11 1478 1480.63 Z" fill="#4c4c4c" fill-rule="evenodd" fill-opacity="1" /><path clip-path="url(#clip050)" d="M1493.23 1482.37 Q1490.52 1482.37 1489.15 1485.04 Q1487.79 1487.7 1487.79 1493.05 Q1487.79 1498.38 1489.15 1501.05 Q1490.52 1503.71 1493.23 1503.71 Q1495.95 1503.71 1497.31 1501.05 Q1498.68 1498.38 1498.68 1493.05 Q1498.68 1487.7 1497.31 1485.04 Q1495.95 1482.37 1493.23 1482.37 M1493.23 1479.59 Q1497.58 1479.59 1499.88 1483.05 Q1502.19 1486.48 1502.19 1493.05 Q1502.19 1499.59 1499.88 1503.05 Q1497.58 1506.48 1493.23 1506.48 Q1488.87 1506.48 1486.56 1503.05 Q1484.27 1499.59 1484.27 1493.05 Q1484.27 1486.48 1486.56 1483.05 Q1488.87 1479.59 1493.23 1479.59 Z" fill="#4c4c4c" fill-rule="evenodd" fill-opacity="1" /><path clip-path="url(#clip050)" d="M1664.51 1480.06 L1681.17 1480.06 L1681.17 1481.55 L1671.76 1505.98 L1668.1 1505.98 L1676.96 1483.01 L1664.51 1483.01 L1664.51 1480.06 Z" fill="#4c4c4c" fill-rule="evenodd" fill-opacity="1" /><path clip-path="url(#clip050)" d="M1695.51 1482.37 Q1692.81 1482.37 1691.43 1485.04 Q1690.08 1487.7 1690.08 1493.05 Q1690.08 1498.38 1691.43 1501.05 Q1692.81 1503.71 1695.51 1503.71 Q1698.24 1503.71 1699.59 1501.05 Q1700.97 1498.38 1700.97 1493.05 Q1700.97 1487.7 1699.59 1485.04 Q1698.24 1482.37 1695.51 1482.37 M1695.51 1479.59 Q1699.87 1479.59 1702.16 1483.05 Q1704.47 1486.48 1704.47 1493.05 Q1704.47 1499.59 1702.16 1503.05 Q1699.87 1506.48 1695.51 1506.48 Q1691.16 1506.48 1688.85 1503.05 Q1686.56 1499.59 1686.56 1493.05 Q1686.56 1486.48 1688.85 1483.05 Q1691.16 1479.59 1695.51 1479.59 Z" fill="#4c4c4c" fill-rule="evenodd" fill-opacity="1" /><path clip-path="url(#clip050)" d="M1875.65 1493.67 Q1873.15 1493.67 1871.71 1495.01 Q1870.29 1496.34 1870.29 1498.69 Q1870.29 1501.03 1871.71 1502.37 Q1873.15 1503.71 1875.65 1503.71 Q1878.15 1503.71 1879.59 1502.37 Q1881.03 1501.01 1881.03 1498.69 Q1881.03 1496.34 1879.59 1495.01 Q1878.17 1493.67 1875.65 1493.67 M1872.14 1492.18 Q1869.89 1491.62 1868.62 1490.08 Q1867.37 1488.53 1867.37 1486.31 Q1867.37 1483.2 1869.57 1481.4 Q1871.8 1479.59 1875.65 1479.59 Q1879.52 1479.59 1881.73 1481.4 Q1883.93 1483.2 1883.93 1486.31 Q1883.93 1488.53 1882.66 1490.08 Q1881.41 1491.62 1879.17 1492.18 Q1881.71 1492.77 1883.11 1494.49 Q1884.54 1496.21 1884.54 1498.69 Q1884.54 1502.46 1882.23 1504.47 Q1879.94 1506.48 1875.65 1506.48 Q1871.36 1506.48 1869.05 1504.47 Q1866.76 1502.46 1866.76 1498.69 Q1866.76 1496.21 1868.18 1494.49 Q1869.61 1492.77 1872.14 1492.18 M1870.86 1486.64 Q1870.86 1488.65 1872.11 1489.78 Q1873.38 1490.91 1875.65 1490.91 Q1877.91 1490.91 1879.17 1489.78 Q1880.46 1488.65 1880.46 1486.64 Q1880.46 1484.63 1879.17 1483.5 Q1877.91 1482.37 1875.65 1482.37 Q1873.38 1482.37 1872.11 1483.5 Q1870.86 1484.63 1870.86 1486.64 Z" fill="#4c4c4c" fill-rule="evenodd" fill-opacity="1" /><path clip-path="url(#clip050)" d="M1898.27 1482.37 Q1895.56 1482.37 1894.19 1485.04 Q1892.84 1487.7 1892.84 1493.05 Q1892.84 1498.38 1894.19 1501.05 Q1895.56 1503.71 1898.27 1503.71 Q1901 1503.71 1902.35 1501.05 Q1903.72 1498.38 1903.72 1493.05 Q1903.72 1487.7 1902.35 1485.04 Q1901 1482.37 1898.27 1482.37 M1898.27 1479.59 Q1902.63 1479.59 1904.92 1483.05 Q1907.23 1486.48 1907.23 1493.05 Q1907.23 1499.59 1904.92 1503.05 Q1902.63 1506.48 1898.27 1506.48 Q1893.91 1506.48 1891.6 1503.05 Q1889.31 1499.59 1889.31 1493.05 Q1889.31 1486.48 1891.6 1483.05 Q1893.91 1479.59 1898.27 1479.59 Z" fill="#4c4c4c" fill-rule="evenodd" fill-opacity="1" /><path clip-path="url(#clip050)" d="M2070.85 1505.44 L2070.85 1502.25 Q2072.16 1502.87 2073.52 1503.2 Q2074.87 1503.53 2076.18 1503.53 Q2079.65 1503.53 2081.47 1501.21 Q2083.31 1498.86 2083.57 1494.1 Q2082.56 1495.6 2081.02 1496.4 Q2079.47 1497.2 2077.6 1497.2 Q2073.71 1497.2 2071.44 1494.85 Q2069.18 1492.49 2069.18 1488.41 Q2069.18 1484.42 2071.54 1482 Q2073.9 1479.59 2077.82 1479.59 Q2082.32 1479.59 2084.68 1483.05 Q2087.06 1486.48 2087.06 1493.05 Q2087.06 1499.17 2084.14 1502.84 Q2081.24 1506.48 2076.33 1506.48 Q2075.01 1506.48 2073.66 1506.22 Q2072.3 1505.96 2070.85 1505.44 M2077.82 1494.45 Q2080.19 1494.45 2081.56 1492.84 Q2082.95 1491.22 2082.95 1488.41 Q2082.95 1485.62 2081.56 1484 Q2080.19 1482.37 2077.82 1482.37 Q2075.46 1482.37 2074.07 1484 Q2072.7 1485.62 2072.7 1488.41 Q2072.7 1491.22 2074.07 1492.84 Q2075.46 1494.45 2077.82 1494.45 Z" fill="#4c4c4c" fill-rule="evenodd" fill-opacity="1" /><path clip-path="url(#clip050)" d="M2100.86 1482.37 Q2098.15 1482.37 2096.78 1485.04 Q2095.43 1487.7 2095.43 1493.05 Q2095.43 1498.38 2096.78 1501.05 Q2098.15 1503.71 2100.86 1503.71 Q2103.59 1503.71 2104.94 1501.05 Q2106.31 1498.38 2106.31 1493.05 Q2106.31 1487.7 2104.94 1485.04 Q2103.59 1482.37 2100.86 1482.37 M2100.86 1479.59 Q2105.22 1479.59 2107.51 1483.05 Q2109.82 1486.48 2109.82 1493.05 Q2109.82 1499.59 2107.51 1503.05 Q2105.22 1506.48 2100.86 1506.48 Q2096.5 1506.48 2094.2 1503.05 Q2091.9 1499.59 2091.9 1493.05 Q2091.9 1486.48 2094.2 1483.05 Q2096.5 1479.59 2100.86 1479.59 Z" fill="#4c4c4c" fill-rule="evenodd" fill-opacity="1" /><path clip-path="url(#clip050)" d="M2261.71 1503.03 L2267.44 1503.03 L2267.44 1483.25 L2261.21 1484.5 L2261.21 1481.31 L2267.4 1480.06 L2270.91 1480.06 L2270.91 1503.03 L2276.64 1503.03 L2276.64 1505.98 L2261.71 1505.98 L2261.71 1503.03 Z" fill="#4c4c4c" fill-rule="evenodd" fill-opacity="1" /><path clip-path="url(#clip050)" d="M2291.22 1482.37 Q2288.51 1482.37 2287.14 1485.04 Q2285.79 1487.7 2285.79 1493.05 Q2285.79 1498.38 2287.14 1501.05 Q2288.51 1503.71 2291.22 1503.71 Q2293.95 1503.71 2295.3 1501.05 Q2296.67 1498.38 2296.67 1493.05 Q2296.67 1487.7 2295.3 1485.04 Q2293.95 1482.37 2291.22 1482.37 M2291.22 1479.59 Q2295.58 1479.59 2297.87 1483.05 Q2300.18 1486.48 2300.18 1493.05 Q2300.18 1499.59 2297.87 1503.05 Q2295.58 1506.48 2291.22 1506.48 Q2286.87 1506.48 2284.56 1503.05 Q2282.26 1499.59 2282.26 1493.05 Q2282.26 1486.48 2284.56 1483.05 Q2286.87 1479.59 2291.22 1479.59 Z" fill="#4c4c4c" fill-rule="evenodd" fill-opacity="1" /><path clip-path="url(#clip050)" d="M2313.84 1482.37 Q2311.14 1482.37 2309.76 1485.04 Q2308.41 1487.7 2308.41 1493.05 Q2308.41 1498.38 2309.76 1501.05 Q2311.14 1503.71 2313.84 1503.71 Q2316.57 1503.71 2317.92 1501.05 Q2319.3 1498.38 2319.3 1493.05 Q2319.3 1487.7 2317.92 1485.04 Q2316.57 1482.37 2313.84 1482.37 M2313.84 1479.59 Q2318.2 1479.59 2320.49 1483.05 Q2322.8 1486.48 2322.8 1493.05 Q2322.8 1499.59 2320.49 1503.05 Q2318.2 1506.48 2313.84 1506.48 Q2309.49 1506.48 2307.18 1503.05 Q2304.89 1499.59 2304.89 1493.05 Q2304.89 1486.48 2307.18 1483.05 Q2309.49 1479.59 2313.84 1479.59 Z" fill="#4c4c4c" fill-rule="evenodd" fill-opacity="1" /><path clip-path="url(#clip050)" d="M1170.07 1526.57 L1174.75 1526.57 L1174.75 1561.13 L1170.07 1561.13 L1170.07 1526.57 Z" fill="#000000" fill-rule="evenodd" fill-opacity="1" /><path clip-path="url(#clip050)" d="M1188.08 1527.84 L1188.08 1535.21 L1196.85 1535.21 L1196.85 1538.52 L1188.08 1538.52 L1188.08 1552.59 Q1188.08 1555.76 1188.94 1556.66 Q1189.82 1557.57 1192.48 1557.57 L1196.85 1557.57 L1196.85 1561.13 L1192.48 1561.13 Q1187.55 1561.13 1185.67 1559.3 Q1183.8 1557.45 1183.8 1552.59 L1183.8 1538.52 L1180.67 1538.52 L1180.67 1535.21 L1183.8 1535.21 L1183.8 1527.84 L1188.08 1527.84 Z" fill="#000000" fill-rule="evenodd" fill-opacity="1" /><path clip-path="url(#clip050)" d="M1224.63 1547.1 L1224.63 1549.19 L1205.05 1549.19 Q1205.33 1553.59 1207.69 1555.9 Q1210.07 1558.19 1214.31 1558.19 Q1216.76 1558.19 1219.05 1557.59 Q1221.37 1556.99 1223.64 1555.78 L1223.64 1559.81 Q1221.34 1560.78 1218.94 1561.29 Q1216.53 1561.8 1214.05 1561.8 Q1207.85 1561.8 1204.22 1558.19 Q1200.6 1554.58 1200.6 1548.42 Q1200.6 1542.06 1204.03 1538.33 Q1207.48 1534.58 1213.31 1534.58 Q1218.54 1534.58 1221.58 1537.96 Q1224.63 1541.32 1224.63 1547.1 M1220.37 1545.85 Q1220.33 1542.36 1218.4 1540.28 Q1216.51 1538.19 1213.36 1538.19 Q1209.79 1538.19 1207.64 1540.21 Q1205.51 1542.22 1205.19 1545.88 L1220.37 1545.85 Z" fill="#000000" fill-rule="evenodd" fill-opacity="1" /><path clip-path="url(#clip050)" d="M1246.65 1539.19 Q1245.93 1538.77 1245.07 1538.59 Q1244.24 1538.38 1243.22 1538.38 Q1239.61 1538.38 1237.66 1540.74 Q1235.74 1543.08 1235.74 1547.47 L1235.74 1561.13 L1231.46 1561.13 L1231.46 1535.21 L1235.74 1535.21 L1235.74 1539.23 Q1237.09 1536.87 1239.24 1535.74 Q1241.39 1534.58 1244.47 1534.58 Q1244.91 1534.58 1245.44 1534.65 Q1245.97 1534.7 1246.62 1534.81 L1246.65 1539.19 Z" fill="#000000" fill-rule="evenodd" fill-opacity="1" /><path clip-path="url(#clip050)" d="M1262.9 1548.1 Q1257.73 1548.1 1255.74 1549.28 Q1253.75 1550.46 1253.75 1553.31 Q1253.75 1555.58 1255.23 1556.92 Q1256.74 1558.24 1259.31 1558.24 Q1262.85 1558.24 1264.98 1555.74 Q1267.13 1553.22 1267.13 1549.05 L1267.13 1548.1 L1262.9 1548.1 M1271.39 1546.34 L1271.39 1561.13 L1267.13 1561.13 L1267.13 1557.2 Q1265.67 1559.56 1263.5 1560.69 Q1261.32 1561.8 1258.17 1561.8 Q1254.19 1561.8 1251.83 1559.58 Q1249.49 1557.34 1249.49 1553.59 Q1249.49 1549.21 1252.41 1546.99 Q1255.35 1544.77 1261.16 1544.77 L1267.13 1544.77 L1267.13 1544.35 Q1267.13 1541.41 1265.19 1539.81 Q1263.27 1538.19 1259.77 1538.19 Q1257.55 1538.19 1255.44 1538.72 Q1253.34 1539.26 1251.39 1540.32 L1251.39 1536.39 Q1253.73 1535.48 1255.93 1535.04 Q1258.13 1534.58 1260.21 1534.58 Q1265.84 1534.58 1268.61 1537.5 Q1271.39 1540.41 1271.39 1546.34 Z" fill="#000000" fill-rule="evenodd" fill-opacity="1" /><path clip-path="url(#clip050)" d="M1284.38 1527.84 L1284.38 1535.21 L1293.15 1535.21 L1293.15 1538.52 L1284.38 1538.52 L1284.38 1552.59 Q1284.38 1555.76 1285.23 1556.66 Q1286.11 1557.57 1288.77 1557.57 L1293.15 1557.57 L1293.15 1561.13 L1288.77 1561.13 Q1283.84 1561.13 1281.97 1559.3 Q1280.09 1557.45 1280.09 1552.59 L1280.09 1538.52 L1276.97 1538.52 L1276.97 1535.21 L1280.09 1535.21 L1280.09 1527.84 L1284.38 1527.84 Z" fill="#000000" fill-rule="evenodd" fill-opacity="1" /><path clip-path="url(#clip050)" d="M1298.75 1535.21 L1303.01 1535.21 L1303.01 1561.13 L1298.75 1561.13 L1298.75 1535.21 M1298.75 1525.11 L1303.01 1525.11 L1303.01 1530.51 L1298.75 1530.51 L1298.75 1525.11 Z" fill="#000000" fill-rule="evenodd" fill-opacity="1" /><path clip-path="url(#clip050)" d="M1321.97 1538.19 Q1318.54 1538.19 1316.55 1540.88 Q1314.56 1543.54 1314.56 1548.19 Q1314.56 1552.84 1316.53 1555.53 Q1318.52 1558.19 1321.97 1558.19 Q1325.37 1558.19 1327.36 1555.51 Q1329.35 1552.82 1329.35 1548.19 Q1329.35 1543.59 1327.36 1540.9 Q1325.37 1538.19 1321.97 1538.19 M1321.97 1534.58 Q1327.52 1534.58 1330.7 1538.19 Q1333.87 1541.8 1333.87 1548.19 Q1333.87 1554.56 1330.7 1558.19 Q1327.52 1561.8 1321.97 1561.8 Q1316.39 1561.8 1313.22 1558.19 Q1310.07 1554.56 1310.07 1548.19 Q1310.07 1541.8 1313.22 1538.19 Q1316.39 1534.58 1321.97 1534.58 Z" fill="#000000" fill-rule="evenodd" fill-opacity="1" /><path clip-path="url(#clip050)" d="M1362.48 1545.48 L1362.48 1561.13 L1358.22 1561.13 L1358.22 1545.62 Q1358.22 1541.94 1356.78 1540.11 Q1355.35 1538.28 1352.48 1538.28 Q1349.03 1538.28 1347.04 1540.48 Q1345.05 1542.68 1345.05 1546.48 L1345.05 1561.13 L1340.77 1561.13 L1340.77 1535.21 L1345.05 1535.21 L1345.05 1539.23 Q1346.58 1536.9 1348.64 1535.74 Q1350.72 1534.58 1353.43 1534.58 Q1357.89 1534.58 1360.19 1537.36 Q1362.48 1540.11 1362.48 1545.48 Z" fill="#000000" fill-rule="evenodd" fill-opacity="1" /><path clip-path="url(#clip050)" d="M1387.5 1535.97 L1387.5 1540 Q1385.7 1539.07 1383.75 1538.61 Q1381.81 1538.15 1379.72 1538.15 Q1376.55 1538.15 1374.95 1539.12 Q1373.38 1540.09 1373.38 1542.03 Q1373.38 1543.52 1374.52 1544.37 Q1375.65 1545.21 1379.08 1545.97 L1380.53 1546.29 Q1385.07 1547.27 1386.97 1549.05 Q1388.89 1550.81 1388.89 1553.98 Q1388.89 1557.59 1386.02 1559.7 Q1383.17 1561.8 1378.17 1561.8 Q1376.09 1561.8 1373.82 1561.39 Q1371.58 1560.99 1369.08 1560.18 L1369.08 1555.78 Q1371.44 1557.01 1373.73 1557.64 Q1376.02 1558.24 1378.27 1558.24 Q1381.27 1558.24 1382.89 1557.22 Q1384.52 1556.18 1384.52 1554.3 Q1384.52 1552.57 1383.33 1551.64 Q1382.18 1550.72 1378.22 1549.86 L1376.74 1549.51 Q1372.78 1548.68 1371.02 1546.97 Q1369.26 1545.23 1369.26 1542.22 Q1369.26 1538.56 1371.85 1536.57 Q1374.45 1534.58 1379.21 1534.58 Q1381.58 1534.58 1383.66 1534.93 Q1385.74 1535.28 1387.5 1535.97 Z" fill="#000000" fill-rule="evenodd" fill-opacity="1" /><polyline clip-path="url(#clip052)" style="stroke:#ffffff; stroke-linecap:butt; stroke-linejoin:round; stroke-width:4; stroke-opacity:1; fill:none" points="
  206.206,1136.71 2352.76,1136.71 
  "/>
<polyline clip-path="url(#clip052)" style="stroke:#ffffff; stroke-linecap:butt; stroke-linejoin:round; stroke-width:4; stroke-opacity:1; fill:none" points="
  206.206,815.47 2352.76,815.47 
  "/>
<polyline clip-path="url(#clip052)" style="stroke:#ffffff; stroke-linecap:butt; stroke-linejoin:round; stroke-width:4; stroke-opacity:1; fill:none" points="
  206.206,494.229 2352.76,494.229 
  "/>
<polyline clip-path="url(#clip052)" style="stroke:#ffffff; stroke-linecap:butt; stroke-linejoin:round; stroke-width:4; stroke-opacity:1; fill:none" points="
  206.206,172.988 2352.76,172.988 
  "/>
<polyline clip-path="url(#clip052)" style="stroke:#ffffff; stroke-linecap:butt; stroke-linejoin:round; stroke-width:2; stroke-opacity:1; fill:none" points="
  206.206,1297.33 2352.76,1297.33 
  "/>
<polyline clip-path="url(#clip052)" style="stroke:#ffffff; stroke-linecap:butt; stroke-linejoin:round; stroke-width:2; stroke-opacity:1; fill:none" points="
  206.206,976.09 2352.76,976.09 
  "/>
<polyline clip-path="url(#clip052)" style="stroke:#ffffff; stroke-linecap:butt; stroke-linejoin:round; stroke-width:2; stroke-opacity:1; fill:none" points="
  206.206,654.849 2352.76,654.849 
  "/>
<polyline clip-path="url(#clip052)" style="stroke:#ffffff; stroke-linecap:butt; stroke-linejoin:round; stroke-width:2; stroke-opacity:1; fill:none" points="
  206.206,333.609 2352.76,333.609 
  "/>
<polyline clip-path="url(#clip050)" style="stroke:#ffffff; stroke-linecap:butt; stroke-linejoin:round; stroke-width:4; stroke-opacity:1; fill:none" points="
  206.206,1444.78 206.206,106.192 
  "/>
<polyline clip-path="url(#clip050)" style="stroke:#333333; stroke-linecap:butt; stroke-linejoin:round; stroke-width:4; stroke-opacity:1; fill:none" points="
  206.206,1136.71 187.308,1136.71 
  "/>
<polyline clip-path="url(#clip050)" style="stroke:#333333; stroke-linecap:butt; stroke-linejoin:round; stroke-width:4; stroke-opacity:1; fill:none" points="
  206.206,815.47 187.308,815.47 
  "/>
<polyline clip-path="url(#clip050)" style="stroke:#333333; stroke-linecap:butt; stroke-linejoin:round; stroke-width:4; stroke-opacity:1; fill:none" points="
  206.206,494.229 187.308,494.229 
  "/>
<polyline clip-path="url(#clip050)" style="stroke:#333333; stroke-linecap:butt; stroke-linejoin:round; stroke-width:4; stroke-opacity:1; fill:none" points="
  206.206,172.988 187.308,172.988 
  "/>
<polyline clip-path="url(#clip050)" style="stroke:#333333; stroke-linecap:butt; stroke-linejoin:round; stroke-width:4; stroke-opacity:1; fill:none" points="
  206.206,1297.33 196.757,1297.33 
  "/>
<polyline clip-path="url(#clip050)" style="stroke:#333333; stroke-linecap:butt; stroke-linejoin:round; stroke-width:4; stroke-opacity:1; fill:none" points="
  206.206,976.09 196.757,976.09 
  "/>
<polyline clip-path="url(#clip050)" style="stroke:#333333; stroke-linecap:butt; stroke-linejoin:round; stroke-width:4; stroke-opacity:1; fill:none" points="
  206.206,654.849 196.757,654.849 
  "/>
<polyline clip-path="url(#clip050)" style="stroke:#333333; stroke-linecap:butt; stroke-linejoin:round; stroke-width:4; stroke-opacity:1; fill:none" points="
  206.206,333.609 196.757,333.609 
  "/>
<path clip-path="url(#clip050)" d="M84.2203 1137.05 L106.477 1137.05 L106.477 1140 L84.2203 1140 L84.2203 1137.05 Z" fill="#4c4c4c" fill-rule="evenodd" fill-opacity="1" /><path clip-path="url(#clip050)" d="M124.671 1135.69 Q127.189 1136.23 128.595 1137.93 Q130.019 1139.64 130.019 1142.14 Q130.019 1145.97 127.38 1148.07 Q124.741 1150.17 119.88 1150.17 Q118.248 1150.17 116.512 1149.84 Q114.793 1149.53 112.953 1148.89 L112.953 1145.5 Q114.411 1146.35 116.147 1146.79 Q117.883 1147.22 119.776 1147.22 Q123.074 1147.22 124.793 1145.92 Q126.529 1144.62 126.529 1142.14 Q126.529 1139.84 124.915 1138.56 Q123.317 1137.26 120.453 1137.26 L117.432 1137.26 L117.432 1134.38 L120.592 1134.38 Q123.178 1134.38 124.55 1133.35 Q125.921 1132.31 125.921 1130.36 Q125.921 1128.37 124.498 1127.31 Q123.092 1126.23 120.453 1126.23 Q119.012 1126.23 117.362 1126.55 Q115.713 1126.86 113.734 1127.52 L113.734 1124.39 Q115.731 1123.84 117.467 1123.56 Q119.22 1123.28 120.765 1123.28 Q124.758 1123.28 127.085 1125.1 Q129.411 1126.91 129.411 1130 Q129.411 1132.15 128.178 1133.65 Q126.946 1135.12 124.671 1135.69 Z" fill="#4c4c4c" fill-rule="evenodd" fill-opacity="1" /><path clip-path="url(#clip050)" d="M137.276 1146.72 L143.005 1146.72 L143.005 1126.94 L136.772 1128.19 L136.772 1125 L142.97 1123.75 L146.477 1123.75 L146.477 1146.72 L152.206 1146.72 L152.206 1149.67 L137.276 1149.67 L137.276 1146.72 Z" fill="#4c4c4c" fill-rule="evenodd" fill-opacity="1" /><path clip-path="url(#clip050)" d="M83.3002 815.808 L105.557 815.808 L105.557 818.759 L83.3002 818.759 L83.3002 815.808 Z" fill="#4c4c4c" fill-rule="evenodd" fill-opacity="1" /><path clip-path="url(#clip050)" d="M123.751 814.454 Q126.269 814.992 127.675 816.694 Q129.099 818.395 129.099 820.895 Q129.099 824.732 126.46 826.832 Q123.821 828.933 118.96 828.933 Q117.328 828.933 115.592 828.603 Q113.873 828.291 112.033 827.648 L112.033 824.263 Q113.491 825.114 115.227 825.548 Q116.963 825.982 118.856 825.982 Q122.154 825.982 123.873 824.68 Q125.609 823.378 125.609 820.895 Q125.609 818.603 123.994 817.319 Q122.397 816.016 119.533 816.016 L116.512 816.016 L116.512 813.135 L119.671 813.135 Q122.258 813.135 123.63 812.11 Q125.001 811.069 125.001 809.124 Q125.001 807.128 123.578 806.069 Q122.171 804.992 119.533 804.992 Q118.092 804.992 116.442 805.305 Q114.793 805.617 112.814 806.277 L112.814 803.152 Q114.81 802.596 116.547 802.319 Q118.3 802.041 119.845 802.041 Q123.838 802.041 126.165 803.864 Q128.491 805.669 128.491 808.76 Q128.491 810.912 127.258 812.405 Q126.026 813.881 123.751 814.454 Z" fill="#4c4c4c" fill-rule="evenodd" fill-opacity="1" /><path clip-path="url(#clip050)" d="M143.248 804.819 Q140.539 804.819 139.168 807.492 Q137.814 810.148 137.814 815.496 Q137.814 820.825 139.168 823.499 Q140.539 826.155 143.248 826.155 Q145.973 826.155 147.328 823.499 Q148.699 820.825 148.699 815.496 Q148.699 810.148 147.328 807.492 Q145.973 804.819 143.248 804.819 M143.248 802.041 Q147.605 802.041 149.897 805.496 Q152.206 808.933 152.206 815.496 Q152.206 822.041 149.897 825.496 Q147.605 828.933 143.248 828.933 Q138.89 828.933 136.581 825.496 Q134.289 822.041 134.289 815.496 Q134.289 808.933 136.581 805.496 Q138.89 802.041 143.248 802.041 Z" fill="#4c4c4c" fill-rule="evenodd" fill-opacity="1" /><path clip-path="url(#clip050)" d="M83.439 494.567 L105.696 494.567 L105.696 497.519 L83.439 497.519 L83.439 494.567 Z" fill="#4c4c4c" fill-rule="evenodd" fill-opacity="1" /><path clip-path="url(#clip050)" d="M116.286 504.238 L128.526 504.238 L128.526 507.189 L112.067 507.189 L112.067 504.238 Q114.064 502.172 117.501 498.699 Q120.956 495.21 121.842 494.203 Q123.526 492.311 124.185 491.008 Q124.862 489.689 124.862 488.422 Q124.862 486.356 123.404 485.054 Q121.963 483.752 119.637 483.752 Q117.987 483.752 116.147 484.324 Q114.324 484.897 112.241 486.061 L112.241 482.519 Q114.359 481.668 116.199 481.234 Q118.04 480.8 119.567 480.8 Q123.595 480.8 125.991 482.814 Q128.387 484.828 128.387 488.196 Q128.387 489.793 127.779 491.234 Q127.189 492.658 125.609 494.602 Q125.175 495.106 122.849 497.519 Q120.522 499.915 116.286 504.238 Z" fill="#4c4c4c" fill-rule="evenodd" fill-opacity="1" /><path clip-path="url(#clip050)" d="M135.991 506.651 L135.991 503.456 Q137.31 504.081 138.664 504.411 Q140.019 504.741 141.321 504.741 Q144.793 504.741 146.616 502.415 Q148.456 500.071 148.716 495.314 Q147.71 496.807 146.164 497.606 Q144.619 498.404 142.744 498.404 Q138.855 498.404 136.581 496.061 Q134.324 493.699 134.324 489.62 Q134.324 485.627 136.685 483.213 Q139.046 480.8 142.97 480.8 Q147.466 480.8 149.828 484.255 Q152.206 487.693 152.206 494.255 Q152.206 500.383 149.289 504.047 Q146.39 507.692 141.477 507.692 Q140.157 507.692 138.803 507.432 Q137.449 507.172 135.991 506.651 M142.97 495.661 Q145.331 495.661 146.703 494.047 Q148.091 492.432 148.091 489.62 Q148.091 486.824 146.703 485.21 Q145.331 483.578 142.97 483.578 Q140.609 483.578 139.22 485.21 Q137.848 486.824 137.848 489.62 Q137.848 492.432 139.22 494.047 Q140.609 495.661 142.97 495.661 Z" fill="#4c4c4c" fill-rule="evenodd" fill-opacity="1" /><path clip-path="url(#clip050)" d="M83.3696 173.327 L105.626 173.327 L105.626 176.278 L83.3696 176.278 L83.3696 173.327 Z" fill="#4c4c4c" fill-rule="evenodd" fill-opacity="1" /><path clip-path="url(#clip050)" d="M116.217 182.997 L128.456 182.997 L128.456 185.948 L111.998 185.948 L111.998 182.997 Q113.994 180.931 117.432 177.459 Q120.887 173.969 121.772 172.962 Q123.456 171.07 124.116 169.768 Q124.793 168.448 124.793 167.181 Q124.793 165.115 123.335 163.813 Q121.894 162.511 119.567 162.511 Q117.918 162.511 116.078 163.084 Q114.255 163.657 112.172 164.82 L112.172 161.278 Q114.29 160.428 116.13 159.994 Q117.97 159.56 119.498 159.56 Q123.526 159.56 125.921 161.573 Q128.317 163.587 128.317 166.955 Q128.317 168.553 127.71 169.994 Q127.119 171.417 125.54 173.362 Q125.105 173.865 122.779 176.278 Q120.453 178.674 116.217 182.997 Z" fill="#4c4c4c" fill-rule="evenodd" fill-opacity="1" /><path clip-path="url(#clip050)" d="M143.317 173.639 Q140.817 173.639 139.376 174.976 Q137.953 176.313 137.953 178.657 Q137.953 181 139.376 182.337 Q140.817 183.674 143.317 183.674 Q145.817 183.674 147.258 182.337 Q148.699 180.983 148.699 178.657 Q148.699 176.313 147.258 174.976 Q145.835 173.639 143.317 173.639 M139.81 172.146 Q137.553 171.591 136.286 170.046 Q135.036 168.501 135.036 166.278 Q135.036 163.171 137.241 161.365 Q139.463 159.56 143.317 159.56 Q147.189 159.56 149.394 161.365 Q151.598 163.171 151.598 166.278 Q151.598 168.501 150.331 170.046 Q149.081 171.591 146.841 172.146 Q149.376 172.737 150.782 174.455 Q152.206 176.174 152.206 178.657 Q152.206 182.424 149.897 184.438 Q147.605 186.452 143.317 186.452 Q139.029 186.452 136.72 184.438 Q134.428 182.424 134.428 178.657 Q134.428 176.174 135.852 174.455 Q137.276 172.737 139.81 172.146 M138.526 166.608 Q138.526 168.622 139.776 169.751 Q141.043 170.879 143.317 170.879 Q145.574 170.879 146.841 169.751 Q148.126 168.622 148.126 166.608 Q148.126 164.594 146.841 163.466 Q145.574 162.337 143.317 162.337 Q141.043 162.337 139.776 163.466 Q138.526 164.594 138.526 166.608 Z" fill="#4c4c4c" fill-rule="evenodd" fill-opacity="1" /><path clip-path="url(#clip050)" d="M20.3722 985.184 L20.3722 955.948 L24.3073 955.948 L24.3073 968.216 L54.9322 968.216 L54.9322 972.915 L24.3073 972.915 L24.3073 985.184 L20.3722 985.184 Z" fill="#000000" fill-rule="evenodd" fill-opacity="1" /><path clip-path="url(#clip050)" d="M40.9045 937.499 L42.9878 937.499 L42.9878 957.082 Q47.3859 956.804 49.7007 954.443 Q51.9924 952.059 51.9924 947.823 Q51.9924 945.369 51.3905 943.078 Q50.7887 940.763 49.585 938.494 L53.6127 938.494 Q54.5849 940.786 55.0942 943.193 Q55.6035 945.601 55.6035 948.078 Q55.6035 954.281 51.9924 957.916 Q48.3813 961.527 42.2239 961.527 Q35.8582 961.527 32.1314 958.101 Q28.3814 954.652 28.3814 948.818 Q28.3814 943.587 31.761 940.555 Q35.1174 937.499 40.9045 937.499 M39.6545 941.758 Q36.1591 941.805 34.0758 943.726 Q31.9925 945.624 31.9925 948.772 Q31.9925 952.337 34.0063 954.49 Q36.0202 956.619 39.6776 956.943 L39.6545 941.758 Z" fill="#000000" fill-rule="evenodd" fill-opacity="1" /><path clip-path="url(#clip050)" d="M29.7703 913.981 L33.798 913.981 Q32.8721 915.786 32.4091 917.731 Q31.9462 919.675 31.9462 921.758 Q31.9462 924.93 32.9184 926.527 Q33.8906 928.101 35.835 928.101 Q37.3165 928.101 38.173 926.967 Q39.0063 925.832 39.7702 922.406 L40.0943 920.948 Q41.0665 916.411 42.8489 914.513 Q44.6081 912.592 47.7794 912.592 Q51.3905 912.592 53.497 915.462 Q55.6035 918.309 55.6035 923.309 Q55.6035 925.393 55.1868 927.661 Q54.7933 929.906 53.9831 932.406 L49.585 932.406 Q50.8118 930.045 51.4368 927.754 Q52.0387 925.462 52.0387 923.217 Q52.0387 920.207 51.0201 918.587 Q49.9785 916.967 48.1035 916.967 Q46.3674 916.967 45.4415 918.147 Q44.5155 919.305 43.6591 923.263 L43.3118 924.744 Q42.4785 928.703 40.7656 930.462 Q39.0295 932.221 36.0202 932.221 Q32.3628 932.221 30.3721 929.629 Q28.3814 927.036 28.3814 922.268 Q28.3814 919.907 28.7286 917.823 Q29.0758 915.74 29.7703 913.981 Z" fill="#000000" fill-rule="evenodd" fill-opacity="1" /><path clip-path="url(#clip050)" d="M21.6453 901.596 L29.0064 901.596 L29.0064 892.823 L32.3165 892.823 L32.3165 901.596 L46.3905 901.596 Q49.5618 901.596 50.4646 900.74 Q51.3674 899.86 51.3674 897.198 L51.3674 892.823 L54.9322 892.823 L54.9322 897.198 Q54.9322 902.129 53.1035 904.004 Q51.2516 905.879 46.3905 905.879 L32.3165 905.879 L32.3165 909.004 L29.0064 909.004 L29.0064 905.879 L21.6453 905.879 L21.6453 901.596 Z" fill="#000000" fill-rule="evenodd" fill-opacity="1" /><path clip-path="url(#clip050)" d="M18.9138 872.152 L18.9138 867.893 L54.9322 867.893 L54.9322 872.152 L18.9138 872.152 Z" fill="#000000" fill-rule="evenodd" fill-opacity="1" /><path clip-path="url(#clip050)" d="M31.9925 848.935 Q31.9925 852.361 34.6776 854.351 Q37.3397 856.342 41.9924 856.342 Q46.6452 856.342 49.3303 854.374 Q51.9924 852.384 51.9924 848.935 Q51.9924 845.532 49.3072 843.541 Q46.622 841.55 41.9924 841.55 Q37.386 841.55 34.7008 843.541 Q31.9925 845.532 31.9925 848.935 M28.3814 848.935 Q28.3814 843.379 31.9925 840.208 Q35.6036 837.037 41.9924 837.037 Q48.3581 837.037 51.9924 840.208 Q55.6035 843.379 55.6035 848.935 Q55.6035 854.513 51.9924 857.685 Q48.3581 860.833 41.9924 860.833 Q35.6036 860.833 31.9925 857.685 Q28.3814 854.513 28.3814 848.935 Z" fill="#000000" fill-rule="evenodd" fill-opacity="1" /><path clip-path="url(#clip050)" d="M41.6683 812.916 Q37.0387 812.916 34.4925 814.838 Q31.9462 816.736 31.9462 820.185 Q31.9462 823.611 34.4925 825.532 Q37.0387 827.43 41.6683 827.43 Q46.2748 827.43 48.8211 825.532 Q51.3674 823.611 51.3674 820.185 Q51.3674 816.736 48.8211 814.838 Q46.2748 812.916 41.6683 812.916 M51.7146 808.657 Q58.3349 808.657 61.5525 811.597 Q64.7932 814.537 64.7932 820.601 Q64.7932 822.847 64.446 824.838 Q64.1219 826.828 63.4275 828.703 L59.284 828.703 Q60.3025 826.828 60.7886 825 Q61.2747 823.171 61.2747 821.273 Q61.2747 817.083 59.0757 815 Q56.8997 812.916 52.4785 812.916 L50.372 812.916 Q52.6637 814.236 53.7979 816.296 Q54.9322 818.356 54.9322 821.226 Q54.9322 825.995 51.2979 828.912 Q47.6637 831.828 41.6683 831.828 Q35.6499 831.828 32.0156 828.912 Q28.3814 825.995 28.3814 821.226 Q28.3814 818.356 29.5156 816.296 Q30.6499 814.236 32.9415 812.916 L29.0064 812.916 L29.0064 808.657 L51.7146 808.657 Z" fill="#000000" fill-rule="evenodd" fill-opacity="1" /><path clip-path="url(#clip050)" d="M40.048 802.037 L40.048 789.56 L43.8443 789.56 L43.8443 802.037 L40.048 802.037 Z" fill="#000000" fill-rule="evenodd" fill-opacity="1" /><path clip-path="url(#clip050)" d="M18.9138 782.778 L18.9138 778.518 L54.9322 778.518 L54.9322 782.778 L18.9138 782.778 Z" fill="#000000" fill-rule="evenodd" fill-opacity="1" /><path clip-path="url(#clip050)" d="M29.0064 769.606 L29.0064 765.347 L54.9322 765.347 L54.9322 769.606 L29.0064 769.606 M18.9138 769.606 L18.9138 765.347 L24.3073 765.347 L24.3073 769.606 L18.9138 769.606 Z" fill="#000000" fill-rule="evenodd" fill-opacity="1" /><path clip-path="url(#clip050)" d="M18.9138 756.597 L18.9138 752.315 L40.1869 752.315 L29.0064 739.607 L29.0064 734.167 L41.1359 747.917 L54.9322 733.588 L54.9322 739.144 L42.2702 752.315 L54.9322 752.315 L54.9322 756.597 L18.9138 756.597 Z" fill="#000000" fill-rule="evenodd" fill-opacity="1" /><path clip-path="url(#clip050)" d="M40.9045 708.496 L42.9878 708.496 L42.9878 728.079 Q47.3859 727.801 49.7007 725.44 Q51.9924 723.056 51.9924 718.82 Q51.9924 716.366 51.3905 714.074 Q50.7887 711.759 49.585 709.491 L53.6127 709.491 Q54.5849 711.783 55.0942 714.19 Q55.6035 716.597 55.6035 719.074 Q55.6035 725.278 51.9924 728.912 Q48.3813 732.523 42.2239 732.523 Q35.8582 732.523 32.1314 729.097 Q28.3814 725.648 28.3814 719.815 Q28.3814 714.584 31.761 711.551 Q35.1174 708.496 40.9045 708.496 M39.6545 712.755 Q36.1591 712.801 34.0758 714.722 Q31.9925 716.621 31.9925 719.769 Q31.9925 723.333 34.0063 725.486 Q36.0202 727.616 39.6776 727.94 L39.6545 712.755 Z" fill="#000000" fill-rule="evenodd" fill-opacity="1" /><path clip-path="url(#clip050)" d="M18.9138 701.505 L18.9138 697.246 L54.9322 697.246 L54.9322 701.505 L18.9138 701.505 Z" fill="#000000" fill-rule="evenodd" fill-opacity="1" /><path clip-path="url(#clip050)" d="M29.0064 688.334 L29.0064 684.074 L54.9322 684.074 L54.9322 688.334 L29.0064 688.334 M18.9138 688.334 L18.9138 684.074 L24.3073 684.074 L24.3073 688.334 L18.9138 688.334 Z" fill="#000000" fill-rule="evenodd" fill-opacity="1" /><path clip-path="url(#clip050)" d="M39.2841 653.612 L54.9322 653.612 L54.9322 657.871 L39.423 657.871 Q35.7424 657.871 33.9138 659.306 Q32.0851 660.741 32.0851 663.612 Q32.0851 667.061 34.2841 669.051 Q36.4832 671.042 40.2795 671.042 L54.9322 671.042 L54.9322 675.324 L18.9138 675.324 L18.9138 671.042 L33.0341 671.042 Q30.6962 669.514 29.5388 667.454 Q28.3814 665.371 28.3814 662.663 Q28.3814 658.195 31.1591 655.903 Q33.9138 653.612 39.2841 653.612 Z" fill="#000000" fill-rule="evenodd" fill-opacity="1" /><path clip-path="url(#clip050)" d="M31.9925 635.07 Q31.9925 638.496 34.6776 640.487 Q37.3397 642.477 41.9924 642.477 Q46.6452 642.477 49.3303 640.51 Q51.9924 638.519 51.9924 635.07 Q51.9924 631.667 49.3072 629.677 Q46.622 627.686 41.9924 627.686 Q37.386 627.686 34.7008 629.677 Q31.9925 631.667 31.9925 635.07 M28.3814 635.07 Q28.3814 629.515 31.9925 626.343 Q35.6036 623.172 41.9924 623.172 Q48.3581 623.172 51.9924 626.343 Q55.6035 629.515 55.6035 635.07 Q55.6035 640.649 51.9924 643.82 Q48.3581 646.968 41.9924 646.968 Q35.6036 646.968 31.9925 643.82 Q28.3814 640.649 28.3814 635.07 Z" fill="#000000" fill-rule="evenodd" fill-opacity="1" /><path clip-path="url(#clip050)" d="M31.9925 606.066 Q31.9925 609.492 34.6776 611.482 Q37.3397 613.473 41.9924 613.473 Q46.6452 613.473 49.3303 611.505 Q51.9924 609.515 51.9924 606.066 Q51.9924 602.663 49.3072 600.672 Q46.622 598.681 41.9924 598.681 Q37.386 598.681 34.7008 600.672 Q31.9925 602.663 31.9925 606.066 M28.3814 606.066 Q28.3814 600.51 31.9925 597.339 Q35.6036 594.168 41.9924 594.168 Q48.3581 594.168 51.9924 597.339 Q55.6035 600.51 55.6035 606.066 Q55.6035 611.644 51.9924 614.816 Q48.3581 617.964 41.9924 617.964 Q35.6036 617.964 31.9925 614.816 Q28.3814 611.644 28.3814 606.066 Z" fill="#000000" fill-rule="evenodd" fill-opacity="1" /><path clip-path="url(#clip050)" d="M32.9415 570.047 L18.9138 570.047 L18.9138 565.788 L54.9322 565.788 L54.9322 570.047 L51.0433 570.047 Q53.3581 571.39 54.4923 573.45 Q55.6035 575.487 55.6035 578.357 Q55.6035 583.056 51.8535 586.019 Q48.1035 588.959 41.9924 588.959 Q35.8813 588.959 32.1314 586.019 Q28.3814 583.056 28.3814 578.357 Q28.3814 575.487 29.5156 573.45 Q30.6267 571.39 32.9415 570.047 M41.9924 584.561 Q46.6915 584.561 49.3766 582.64 Q52.0387 580.695 52.0387 577.316 Q52.0387 573.936 49.3766 571.992 Q46.6915 570.047 41.9924 570.047 Q37.2934 570.047 34.6313 571.992 Q31.9462 573.936 31.9462 577.316 Q31.9462 580.695 34.6313 582.64 Q37.2934 584.561 41.9924 584.561 Z" fill="#000000" fill-rule="evenodd" fill-opacity="1" /><path clip-path="url(#clip050)" d="M1157.62 35.5496 Q1151.17 35.5496 1148.68 37.0253 Q1146.19 38.501 1146.19 42.06 Q1146.19 44.8956 1148.04 46.5738 Q1149.92 48.2231 1153.14 48.2231 Q1157.56 48.2231 1160.23 45.0981 Q1162.92 41.9442 1162.92 36.7359 L1162.92 35.5496 L1157.62 35.5496 M1168.24 33.3505 L1168.24 51.84 L1162.92 51.84 L1162.92 46.921 Q1161.09 49.8724 1158.37 51.2902 Q1155.65 52.6791 1151.72 52.6791 Q1146.74 52.6791 1143.79 49.9014 Q1140.87 47.0947 1140.87 42.4072 Q1140.87 36.9385 1144.51 34.1607 Q1148.19 31.3829 1155.45 31.3829 L1162.92 31.3829 L1162.92 30.8621 Q1162.92 27.1874 1160.49 25.1908 Q1158.08 23.1654 1153.71 23.1654 Q1150.94 23.1654 1148.3 23.8309 Q1145.67 24.4964 1143.24 25.8274 L1143.24 20.9085 Q1146.16 19.78 1148.91 19.2302 Q1151.66 18.6515 1154.26 18.6515 Q1161.3 18.6515 1164.77 22.2973 Q1168.24 25.9431 1168.24 33.3505 Z" fill="#000000" fill-rule="evenodd" fill-opacity="1" /><path clip-path="url(#clip050)" d="M1202.53 20.677 L1202.53 25.6538 Q1200.27 24.4096 1197.99 23.802 Q1195.73 23.1654 1193.41 23.1654 Q1188.23 23.1654 1185.37 26.464 Q1182.51 29.7336 1182.51 35.6653 Q1182.51 41.597 1185.37 44.8956 Q1188.23 48.1653 1193.41 48.1653 Q1195.73 48.1653 1197.99 47.5576 Q1200.27 46.921 1202.53 45.6768 L1202.53 50.5958 Q1200.3 51.6375 1197.9 52.1583 Q1195.53 52.6791 1192.84 52.6791 Q1185.51 52.6791 1181.2 48.0784 Q1176.89 43.4778 1176.89 35.6653 Q1176.89 27.7371 1181.23 23.1943 Q1185.6 18.6515 1193.18 18.6515 Q1195.64 18.6515 1197.99 19.1724 Q1200.33 19.6642 1202.53 20.677 Z" fill="#000000" fill-rule="evenodd" fill-opacity="1" /><path clip-path="url(#clip050)" d="M1235.11 20.677 L1235.11 25.6538 Q1232.85 24.4096 1230.57 23.802 Q1228.31 23.1654 1225.99 23.1654 Q1220.82 23.1654 1217.95 26.464 Q1215.09 29.7336 1215.09 35.6653 Q1215.09 41.597 1217.95 44.8956 Q1220.82 48.1653 1225.99 48.1653 Q1228.31 48.1653 1230.57 47.5576 Q1232.85 46.921 1235.11 45.6768 L1235.11 50.5958 Q1232.88 51.6375 1230.48 52.1583 Q1228.11 52.6791 1225.42 52.6791 Q1218.1 52.6791 1213.78 48.0784 Q1209.47 43.4778 1209.47 35.6653 Q1209.47 27.7371 1213.81 23.1943 Q1218.18 18.6515 1225.76 18.6515 Q1228.22 18.6515 1230.57 19.1724 Q1232.91 19.6642 1235.11 20.677 Z" fill="#000000" fill-rule="evenodd" fill-opacity="1" /><path clip-path="url(#clip050)" d="M1244.37 19.4328 L1249.69 19.4328 L1249.69 51.84 L1244.37 51.84 L1244.37 19.4328 M1244.37 6.81709 L1249.69 6.81709 L1249.69 13.559 L1244.37 13.559 L1244.37 6.81709 Z" fill="#000000" fill-rule="evenodd" fill-opacity="1" /><path clip-path="url(#clip050)" d="M1282.16 24.3517 L1282.16 6.81709 L1287.48 6.81709 L1287.48 51.84 L1282.16 51.84 L1282.16 46.9789 Q1280.48 49.8724 1277.9 51.2902 Q1275.36 52.6791 1271.77 52.6791 Q1265.9 52.6791 1262.19 47.9916 Q1258.52 43.3042 1258.52 35.6653 Q1258.52 28.0265 1262.19 23.339 Q1265.9 18.6515 1271.77 18.6515 Q1275.36 18.6515 1277.9 20.0693 Q1280.48 21.4582 1282.16 24.3517 M1264.02 35.6653 Q1264.02 41.5391 1266.42 44.8956 Q1268.85 48.2231 1273.07 48.2231 Q1277.3 48.2231 1279.73 44.8956 Q1282.16 41.5391 1282.16 35.6653 Q1282.16 29.7915 1279.73 26.464 Q1277.3 23.1075 1273.07 23.1075 Q1268.85 23.1075 1266.42 26.464 Q1264.02 29.7915 1264.02 35.6653 Z" fill="#000000" fill-rule="evenodd" fill-opacity="1" /><path clip-path="url(#clip050)" d="M1326.17 34.3054 L1326.17 36.9095 L1301.69 36.9095 Q1302.04 42.4072 1304.99 45.3007 Q1307.97 48.1653 1313.26 48.1653 Q1316.33 48.1653 1319.19 47.4129 Q1322.09 46.6606 1324.92 45.156 L1324.92 50.1907 Q1322.06 51.406 1319.05 52.0425 Q1316.04 52.6791 1312.94 52.6791 Q1305.19 52.6791 1300.65 48.1653 Q1296.13 43.6514 1296.13 35.9547 Q1296.13 27.9975 1300.42 23.339 Q1304.73 18.6515 1312.02 18.6515 Q1318.56 18.6515 1322.35 22.876 Q1326.17 27.0716 1326.17 34.3054 M1320.84 32.7429 Q1320.79 28.3737 1318.38 25.7695 Q1316.01 23.1654 1312.08 23.1654 Q1307.62 23.1654 1304.93 25.6827 Q1302.27 28.2001 1301.86 32.7718 L1320.84 32.7429 Z" fill="#000000" fill-rule="evenodd" fill-opacity="1" /><path clip-path="url(#clip050)" d="M1361.84 32.2799 L1361.84 51.84 L1356.52 51.84 L1356.52 32.4535 Q1356.52 27.8529 1354.73 25.567 Q1352.93 23.2811 1349.34 23.2811 Q1345.03 23.2811 1342.54 26.03 Q1340.06 28.7788 1340.06 33.5241 L1340.06 51.84 L1334.7 51.84 L1334.7 19.4328 L1340.06 19.4328 L1340.06 24.4675 Q1341.97 21.545 1344.54 20.0983 Q1347.15 18.6515 1350.53 18.6515 Q1356.12 18.6515 1358.98 22.1237 Q1361.84 25.567 1361.84 32.2799 Z" fill="#000000" fill-rule="evenodd" fill-opacity="1" /><path clip-path="url(#clip050)" d="M1377.73 10.2314 L1377.73 19.4328 L1388.7 19.4328 L1388.7 23.5705 L1377.73 23.5705 L1377.73 41.163 Q1377.73 45.1271 1378.8 46.2555 Q1379.9 47.384 1383.23 47.384 L1388.7 47.384 L1388.7 51.84 L1383.23 51.84 Q1377.06 51.84 1374.72 49.5541 Q1372.38 47.2393 1372.38 41.163 L1372.38 23.5705 L1368.47 23.5705 L1368.47 19.4328 L1372.38 19.4328 L1372.38 10.2314 L1377.73 10.2314 Z" fill="#000000" fill-rule="evenodd" fill-opacity="1" /><path clip-path="url(#clip050)" d="M1416.36 20.3876 L1416.36 25.4223 Q1414.1 24.2649 1411.67 23.6862 Q1409.24 23.1075 1406.64 23.1075 Q1402.67 23.1075 1400.68 24.3228 Q1398.71 25.5381 1398.71 27.9686 Q1398.71 29.8204 1400.13 30.891 Q1401.54 31.9327 1405.83 32.8876 L1407.65 33.2926 Q1413.32 34.5079 1415.69 36.7359 Q1418.09 38.935 1418.09 42.8991 Q1418.09 47.4129 1414.51 50.046 Q1410.95 52.6791 1404.7 52.6791 Q1402.09 52.6791 1399.26 52.1583 Q1396.45 51.6664 1393.33 50.6537 L1393.33 45.156 Q1396.28 46.6896 1399.14 47.4708 Q1402.01 48.2231 1404.81 48.2231 Q1408.57 48.2231 1410.6 46.95 Q1412.63 45.6479 1412.63 43.3042 Q1412.63 41.134 1411.15 39.9766 Q1409.7 38.8192 1404.76 37.7486 L1402.9 37.3146 Q1397.96 36.273 1395.76 34.1318 Q1393.56 31.9616 1393.56 28.2001 Q1393.56 23.6283 1396.8 21.1399 Q1400.04 18.6515 1406 18.6515 Q1408.95 18.6515 1411.55 19.0855 Q1414.16 19.5196 1416.36 20.3876 Z" fill="#000000" fill-rule="evenodd" fill-opacity="1" /><polyline clip-path="url(#clip052)" style="stroke:#e26f46; stroke-linecap:butt; stroke-linejoin:round; stroke-width:8; stroke-opacity:1; fill:none" points="
  307.458,825.107 347.959,825.107 388.46,825.107 428.961,825.107 469.462,825.107 509.963,825.107 550.464,825.107 590.965,825.107 631.466,825.107 671.967,825.107 
  712.468,825.107 752.969,825.107 793.47,825.107 833.971,825.107 874.472,825.107 914.973,825.107 955.473,825.107 995.974,825.107 1036.48,825.107 1076.98,825.107 
  1117.48,825.107 1157.98,825.107 1198.48,825.107 1238.98,825.107 1279.48,825.107 1319.98,825.107 1360.48,825.107 1400.98,825.107 1441.48,825.107 1481.99,825.107 
  1522.49,825.107 1562.99,825.107 1603.49,825.107 1643.99,825.107 1684.49,825.107 1724.99,825.107 1765.49,825.107 1805.99,825.107 1846.49,825.107 1887,825.107 
  1927.5,825.107 1968,825.107 2008.5,825.107 2049,825.107 2089.5,825.107 2130,825.107 2170.5,825.107 2211,825.107 2251.5,825.107 2292,825.107 
  
  "/>
<polyline clip-path="url(#clip052)" style="stroke:#3da44d; stroke-linecap:butt; stroke-linejoin:round; stroke-width:8; stroke-opacity:1; fill:none" points="
  307.458,407.494 347.959,407.494 388.46,407.494 428.961,407.494 469.462,407.494 509.963,407.494 550.464,407.494 590.965,407.494 631.466,407.494 671.967,407.494 
  712.468,407.494 752.969,407.494 793.47,407.494 833.971,407.494 874.472,407.494 914.973,407.494 955.473,407.494 995.974,407.494 1036.48,407.494 1076.98,407.494 
  1117.48,407.494 1157.98,407.494 1198.48,407.494 1238.98,407.494 1279.48,407.494 1319.98,407.494 1360.48,407.494 1400.98,407.494 1441.48,407.494 1481.99,407.494 
  1522.49,407.494 1562.99,407.494 1603.49,407.494 1643.99,407.494 1684.49,407.494 1724.99,407.494 1765.49,407.494 1805.99,407.494 1846.49,407.494 1887,407.494 
  1927.5,407.494 1968,407.494 2008.5,407.494 2049,407.494 2089.5,407.494 2130,407.494 2170.5,407.494 2211,407.494 2251.5,407.494 2292,407.494 
  
  "/>
<polyline clip-path="url(#clip052)" style="stroke:#c271d2; stroke-linecap:butt; stroke-linejoin:round; stroke-width:8; stroke-opacity:1; fill:none" points="
  307.458,866.868 347.959,866.868 388.46,866.868 428.961,866.868 469.462,866.868 509.963,866.868 550.464,866.868 590.965,866.868 631.466,866.868 671.967,866.868 
  712.468,866.868 752.969,866.868 793.47,866.868 833.971,866.868 874.472,866.868 914.973,866.868 955.473,866.868 995.974,866.868 1036.48,866.868 1076.98,866.868 
  1117.48,866.868 1157.98,866.868 1198.48,866.868 1238.98,866.868 1279.48,866.868 1319.98,866.868 1360.48,866.868 1400.98,866.868 1441.48,866.868 1481.99,866.868 
  1522.49,866.868 1562.99,866.868 1603.49,866.868 1643.99,866.868 1684.49,866.868 1724.99,866.868 1765.49,866.868 1805.99,866.868 1846.49,866.868 1887,866.868 
  1927.5,866.868 1968,866.868 2008.5,866.868 2049,866.868 2089.5,866.868 2130,866.868 2170.5,866.868 2211,866.868 2251.5,866.868 2292,866.868 
  
  "/>
<polyline clip-path="url(#clip052)" style="stroke:#ac8d18; stroke-linecap:butt; stroke-linejoin:round; stroke-width:8; stroke-opacity:1; fill:none" points="
  307.458,1143.13 347.959,1143.13 388.46,1143.13 428.961,1143.13 469.462,1143.13 509.963,1143.13 550.464,1143.13 590.965,1143.13 631.466,1143.13 671.967,1143.13 
  712.468,1143.13 752.969,1143.13 793.47,1143.13 833.971,1143.13 874.472,1143.13 914.973,1143.13 955.473,1143.13 995.974,1143.13 1036.48,1143.13 1076.98,1143.13 
  1117.48,1143.13 1157.98,1143.13 1198.48,1143.13 1238.98,1143.13 1279.48,1143.13 1319.98,1143.13 1360.48,1143.13 1400.98,1143.13 1441.48,1143.13 1481.99,1143.13 
  1522.49,1143.13 1562.99,1143.13 1603.49,1143.13 1643.99,1143.13 1684.49,1143.13 1724.99,1143.13 1765.49,1143.13 1805.99,1143.13 1846.49,1143.13 1887,1143.13 
  1927.5,1143.13 1968,1143.13 2008.5,1143.13 2049,1143.13 2089.5,1143.13 2130,1143.13 2170.5,1143.13 2211,1143.13 2251.5,1143.13 2292,1143.13 
  
  "/>
<polyline clip-path="url(#clip052)" style="stroke:#00a9ad; stroke-linecap:butt; stroke-linejoin:round; stroke-width:8; stroke-opacity:1; fill:none" points="
  307.458,144.077 347.959,144.077 388.46,144.077 428.961,144.077 469.462,144.077 509.963,144.077 550.464,144.077 590.965,144.077 631.466,144.077 671.967,144.077 
  712.468,144.077 752.969,144.077 793.47,144.077 833.971,144.077 874.472,144.077 914.973,144.077 955.473,144.077 995.974,144.077 1036.48,144.077 1076.98,144.077 
  1117.48,144.077 1157.98,144.077 1198.48,144.077 1238.98,144.077 1279.48,144.077 1319.98,144.077 1360.48,144.077 1400.98,144.077 1441.48,144.077 1481.99,144.077 
  1522.49,144.077 1562.99,144.077 1603.49,144.077 1643.99,144.077 1684.49,144.077 1724.99,144.077 1765.49,144.077 1805.99,144.077 1846.49,144.077 1887,144.077 
  1927.5,144.077 1968,144.077 2008.5,144.077 2049,144.077 2089.5,144.077 2130,144.077 2170.5,144.077 2211,144.077 2251.5,144.077 2292,144.077 
  
  "/>
<polyline clip-path="url(#clip052)" style="stroke:#009af9; stroke-linecap:butt; stroke-linejoin:round; stroke-width:12; stroke-opacity:1; fill:none" points="
  307.458,1406.9 347.959,1085.47 388.46,918.036 428.961,851.136 469.462,813.53 509.963,784.767 550.464,743.526 590.965,801.533 631.466,722.822 671.967,679.456 
  712.468,668.472 752.969,680.623 793.47,653.963 833.971,635.244 874.472,616.666 914.973,585.459 955.473,597.16 995.974,573.451 1036.48,561.562 1076.98,561.223 
  1117.48,560.896 1157.98,551.746 1198.48,554.202 1238.98,545.344 1279.48,542.398 1319.98,536.276 1360.48,526.282 1400.98,508.393 1441.48,511.85 1481.99,500.499 
  1522.49,498.029 1562.99,490.888 1603.49,482.948 1643.99,478.706 1684.49,479.9 1724.99,473.765 1765.49,468.465 1805.99,467.47 1846.49,470.933 1887,468.101 
  1927.5,467.465 1968,468.718 2008.5,467.946 2049,466.659 2089.5,464.108 2130,465.891 2170.5,464.751 2211,469.725 2251.5,470.531 2292,465.398 
  
  "/>
</svg>
