<?xml version="1.0" encoding="utf-8"?>
<svg xmlns="http://www.w3.org/2000/svg" xmlns:xlink="http://www.w3.org/1999/xlink" width="600" height="400" viewBox="0 0 2400 1600">
<defs>
  <clipPath id="clip460">
    <rect x="0" y="0" width="2400" height="1600"/>
  </clipPath>
</defs>
<path clip-path="url(#clip460)" d="
M0 1600 L2400 1600 L2400 0 L0 0  Z
  " fill="#ffffff" fill-rule="evenodd" fill-opacity="1"/>
<defs>
  <clipPath id="clip461">
    <rect x="480" y="0" width="1681" height="1600"/>
  </clipPath>
</defs>
<path clip-path="url(#clip460)" d="
M316.807 1422.18 L2352.76 1422.18 L2352.76 106.192 L316.807 106.192  Z
  " fill="#eaeaea" fill-rule="evenodd" fill-opacity="1"/>
<defs>
  <clipPath id="clip462">
    <rect x="316" y="106" width="2037" height="1317"/>
  </clipPath>
</defs>
<polyline clip-path="url(#clip462)" style="stroke:#ffffff; stroke-linecap:butt; stroke-linejoin:round; stroke-width:4; stroke-opacity:1; fill:none" points="
  374.428,1422.18 374.428,106.192 
  "/>
<polyline clip-path="url(#clip462)" style="stroke:#ffffff; stroke-linecap:butt; stroke-linejoin:round; stroke-width:4; stroke-opacity:1; fill:none" points="
  522.175,1422.18 522.175,106.192 
  "/>
<polyline clip-path="url(#clip462)" style="stroke:#ffffff; stroke-linecap:butt; stroke-linejoin:round; stroke-width:4; stroke-opacity:1; fill:none" points="
  669.921,1422.18 669.921,106.192 
  "/>
<polyline clip-path="url(#clip462)" style="stroke:#ffffff; stroke-linecap:butt; stroke-linejoin:round; stroke-width:4; stroke-opacity:1; fill:none" points="
  817.668,1422.18 817.668,106.192 
  "/>
<polyline clip-path="url(#clip462)" style="stroke:#ffffff; stroke-linecap:butt; stroke-linejoin:round; stroke-width:4; stroke-opacity:1; fill:none" points="
  965.415,1422.18 965.415,106.192 
  "/>
<polyline clip-path="url(#clip462)" style="stroke:#ffffff; stroke-linecap:butt; stroke-linejoin:round; stroke-width:4; stroke-opacity:1; fill:none" points="
  1113.16,1422.18 1113.16,106.192 
  "/>
<polyline clip-path="url(#clip462)" style="stroke:#ffffff; stroke-linecap:butt; stroke-linejoin:round; stroke-width:4; stroke-opacity:1; fill:none" points="
  1260.91,1422.18 1260.91,106.192 
  "/>
<polyline clip-path="url(#clip462)" style="stroke:#ffffff; stroke-linecap:butt; stroke-linejoin:round; stroke-width:4; stroke-opacity:1; fill:none" points="
  1408.65,1422.18 1408.65,106.192 
  "/>
<polyline clip-path="url(#clip462)" style="stroke:#ffffff; stroke-linecap:butt; stroke-linejoin:round; stroke-width:4; stroke-opacity:1; fill:none" points="
  1556.4,1422.18 1556.4,106.192 
  "/>
<polyline clip-path="url(#clip462)" style="stroke:#ffffff; stroke-linecap:butt; stroke-linejoin:round; stroke-width:4; stroke-opacity:1; fill:none" points="
  1704.15,1422.18 1704.15,106.192 
  "/>
<polyline clip-path="url(#clip462)" style="stroke:#ffffff; stroke-linecap:butt; stroke-linejoin:round; stroke-width:4; stroke-opacity:1; fill:none" points="
  1851.89,1422.18 1851.89,106.192 
  "/>
<polyline clip-path="url(#clip462)" style="stroke:#ffffff; stroke-linecap:butt; stroke-linejoin:round; stroke-width:4; stroke-opacity:1; fill:none" points="
  1999.64,1422.18 1999.64,106.192 
  "/>
<polyline clip-path="url(#clip462)" style="stroke:#ffffff; stroke-linecap:butt; stroke-linejoin:round; stroke-width:4; stroke-opacity:1; fill:none" points="
  2147.39,1422.18 2147.39,106.192 
  "/>
<polyline clip-path="url(#clip462)" style="stroke:#ffffff; stroke-linecap:butt; stroke-linejoin:round; stroke-width:4; stroke-opacity:1; fill:none" points="
  2295.13,1422.18 2295.13,106.192 
  "/>
<polyline clip-path="url(#clip462)" style="stroke:#ffffff; stroke-linecap:butt; stroke-linejoin:round; stroke-width:2; stroke-opacity:1; fill:none" points="
  448.301,1422.18 448.301,106.192 
  "/>
<polyline clip-path="url(#clip462)" style="stroke:#ffffff; stroke-linecap:butt; stroke-linejoin:round; stroke-width:2; stroke-opacity:1; fill:none" points="
  596.048,1422.18 596.048,106.192 
  "/>
<polyline clip-path="url(#clip462)" style="stroke:#ffffff; stroke-linecap:butt; stroke-linejoin:round; stroke-width:2; stroke-opacity:1; fill:none" points="
  743.795,1422.18 743.795,106.192 
  "/>
<polyline clip-path="url(#clip462)" style="stroke:#ffffff; stroke-linecap:butt; stroke-linejoin:round; stroke-width:2; stroke-opacity:1; fill:none" points="
  891.541,1422.18 891.541,106.192 
  "/>
<polyline clip-path="url(#clip462)" style="stroke:#ffffff; stroke-linecap:butt; stroke-linejoin:round; stroke-width:2; stroke-opacity:1; fill:none" points="
  1039.29,1422.18 1039.29,106.192 
  "/>
<polyline clip-path="url(#clip462)" style="stroke:#ffffff; stroke-linecap:butt; stroke-linejoin:round; stroke-width:2; stroke-opacity:1; fill:none" points="
  1187.03,1422.18 1187.03,106.192 
  "/>
<polyline clip-path="url(#clip462)" style="stroke:#ffffff; stroke-linecap:butt; stroke-linejoin:round; stroke-width:2; stroke-opacity:1; fill:none" points="
  1334.78,1422.18 1334.78,106.192 
  "/>
<polyline clip-path="url(#clip462)" style="stroke:#ffffff; stroke-linecap:butt; stroke-linejoin:round; stroke-width:2; stroke-opacity:1; fill:none" points="
  1482.53,1422.18 1482.53,106.192 
  "/>
<polyline clip-path="url(#clip462)" style="stroke:#ffffff; stroke-linecap:butt; stroke-linejoin:round; stroke-width:2; stroke-opacity:1; fill:none" points="
  1630.27,1422.18 1630.27,106.192 
  "/>
<polyline clip-path="url(#clip462)" style="stroke:#ffffff; stroke-linecap:butt; stroke-linejoin:round; stroke-width:2; stroke-opacity:1; fill:none" points="
  1778.02,1422.18 1778.02,106.192 
  "/>
<polyline clip-path="url(#clip462)" style="stroke:#ffffff; stroke-linecap:butt; stroke-linejoin:round; stroke-width:2; stroke-opacity:1; fill:none" points="
  1925.77,1422.18 1925.77,106.192 
  "/>
<polyline clip-path="url(#clip462)" style="stroke:#ffffff; stroke-linecap:butt; stroke-linejoin:round; stroke-width:2; stroke-opacity:1; fill:none" points="
  2073.51,1422.18 2073.51,106.192 
  "/>
<polyline clip-path="url(#clip462)" style="stroke:#ffffff; stroke-linecap:butt; stroke-linejoin:round; stroke-width:2; stroke-opacity:1; fill:none" points="
  2221.26,1422.18 2221.26,106.192 
  "/>
<polyline clip-path="url(#clip460)" style="stroke:#ffffff; stroke-linecap:butt; stroke-linejoin:round; stroke-width:4; stroke-opacity:1; fill:none" points="
  316.807,1422.18 2352.76,1422.18 
  "/>
<polyline clip-path="url(#clip460)" style="stroke:#333333; stroke-linecap:butt; stroke-linejoin:round; stroke-width:4; stroke-opacity:1; fill:none" points="
  374.428,1422.18 374.428,1441.07 
  "/>
<polyline clip-path="url(#clip460)" style="stroke:#333333; stroke-linecap:butt; stroke-linejoin:round; stroke-width:4; stroke-opacity:1; fill:none" points="
  522.175,1422.18 522.175,1441.07 
  "/>
<polyline clip-path="url(#clip460)" style="stroke:#333333; stroke-linecap:butt; stroke-linejoin:round; stroke-width:4; stroke-opacity:1; fill:none" points="
  669.921,1422.18 669.921,1441.07 
  "/>
<polyline clip-path="url(#clip460)" style="stroke:#333333; stroke-linecap:butt; stroke-linejoin:round; stroke-width:4; stroke-opacity:1; fill:none" points="
  817.668,1422.18 817.668,1441.07 
  "/>
<polyline clip-path="url(#clip460)" style="stroke:#333333; stroke-linecap:butt; stroke-linejoin:round; stroke-width:4; stroke-opacity:1; fill:none" points="
  965.415,1422.18 965.415,1441.07 
  "/>
<polyline clip-path="url(#clip460)" style="stroke:#333333; stroke-linecap:butt; stroke-linejoin:round; stroke-width:4; stroke-opacity:1; fill:none" points="
  1113.16,1422.18 1113.16,1441.07 
  "/>
<polyline clip-path="url(#clip460)" style="stroke:#333333; stroke-linecap:butt; stroke-linejoin:round; stroke-width:4; stroke-opacity:1; fill:none" points="
  1260.91,1422.18 1260.91,1441.07 
  "/>
<polyline clip-path="url(#clip460)" style="stroke:#333333; stroke-linecap:butt; stroke-linejoin:round; stroke-width:4; stroke-opacity:1; fill:none" points="
  1408.65,1422.18 1408.65,1441.07 
  "/>
<polyline clip-path="url(#clip460)" style="stroke:#333333; stroke-linecap:butt; stroke-linejoin:round; stroke-width:4; stroke-opacity:1; fill:none" points="
  1556.4,1422.18 1556.4,1441.07 
  "/>
<polyline clip-path="url(#clip460)" style="stroke:#333333; stroke-linecap:butt; stroke-linejoin:round; stroke-width:4; stroke-opacity:1; fill:none" points="
  1704.15,1422.18 1704.15,1441.07 
  "/>
<polyline clip-path="url(#clip460)" style="stroke:#333333; stroke-linecap:butt; stroke-linejoin:round; stroke-width:4; stroke-opacity:1; fill:none" points="
  1851.89,1422.18 1851.89,1441.07 
  "/>
<polyline clip-path="url(#clip460)" style="stroke:#333333; stroke-linecap:butt; stroke-linejoin:round; stroke-width:4; stroke-opacity:1; fill:none" points="
  1999.64,1422.18 1999.64,1441.07 
  "/>
<polyline clip-path="url(#clip460)" style="stroke:#333333; stroke-linecap:butt; stroke-linejoin:round; stroke-width:4; stroke-opacity:1; fill:none" points="
  2147.39,1422.18 2147.39,1441.07 
  "/>
<polyline clip-path="url(#clip460)" style="stroke:#333333; stroke-linecap:butt; stroke-linejoin:round; stroke-width:4; stroke-opacity:1; fill:none" points="
  2295.13,1422.18 2295.13,1441.07 
  "/>
<polyline clip-path="url(#clip460)" style="stroke:#333333; stroke-linecap:butt; stroke-linejoin:round; stroke-width:4; stroke-opacity:1; fill:none" points="
  448.301,1422.18 448.301,1431.63 
  "/>
<polyline clip-path="url(#clip460)" style="stroke:#333333; stroke-linecap:butt; stroke-linejoin:round; stroke-width:4; stroke-opacity:1; fill:none" points="
  596.048,1422.18 596.048,1431.63 
  "/>
<polyline clip-path="url(#clip460)" style="stroke:#333333; stroke-linecap:butt; stroke-linejoin:round; stroke-width:4; stroke-opacity:1; fill:none" points="
  743.795,1422.18 743.795,1431.63 
  "/>
<polyline clip-path="url(#clip460)" style="stroke:#333333; stroke-linecap:butt; stroke-linejoin:round; stroke-width:4; stroke-opacity:1; fill:none" points="
  891.541,1422.18 891.541,1431.63 
  "/>
<polyline clip-path="url(#clip460)" style="stroke:#333333; stroke-linecap:butt; stroke-linejoin:round; stroke-width:4; stroke-opacity:1; fill:none" points="
  1039.29,1422.18 1039.29,1431.63 
  "/>
<polyline clip-path="url(#clip460)" style="stroke:#333333; stroke-linecap:butt; stroke-linejoin:round; stroke-width:4; stroke-opacity:1; fill:none" points="
  1187.03,1422.18 1187.03,1431.63 
  "/>
<polyline clip-path="url(#clip460)" style="stroke:#333333; stroke-linecap:butt; stroke-linejoin:round; stroke-width:4; stroke-opacity:1; fill:none" points="
  1334.78,1422.18 1334.78,1431.63 
  "/>
<polyline clip-path="url(#clip460)" style="stroke:#333333; stroke-linecap:butt; stroke-linejoin:round; stroke-width:4; stroke-opacity:1; fill:none" points="
  1482.53,1422.18 1482.53,1431.63 
  "/>
<polyline clip-path="url(#clip460)" style="stroke:#333333; stroke-linecap:butt; stroke-linejoin:round; stroke-width:4; stroke-opacity:1; fill:none" points="
  1630.27,1422.18 1630.27,1431.63 
  "/>
<polyline clip-path="url(#clip460)" style="stroke:#333333; stroke-linecap:butt; stroke-linejoin:round; stroke-width:4; stroke-opacity:1; fill:none" points="
  1778.02,1422.18 1778.02,1431.63 
  "/>
<polyline clip-path="url(#clip460)" style="stroke:#333333; stroke-linecap:butt; stroke-linejoin:round; stroke-width:4; stroke-opacity:1; fill:none" points="
  1925.77,1422.18 1925.77,1431.63 
  "/>
<polyline clip-path="url(#clip460)" style="stroke:#333333; stroke-linecap:butt; stroke-linejoin:round; stroke-width:4; stroke-opacity:1; fill:none" points="
  2073.51,1422.18 2073.51,1431.63 
  "/>
<polyline clip-path="url(#clip460)" style="stroke:#333333; stroke-linecap:butt; stroke-linejoin:round; stroke-width:4; stroke-opacity:1; fill:none" points="
  2221.26,1422.18 2221.26,1431.63 
  "/>
<path clip-path="url(#clip460)" d="M388.131 1463.13 Q386.777 1460.78 383.776 1460.93 Q380.798 1461.09 376.168 1463.76 Q371.552 1466.43 369.914 1468.94 Q368.299 1471.45 369.653 1473.8 Q371.016 1476.16 373.993 1476 Q376.995 1475.85 381.61 1473.19 Q386.241 1470.52 387.856 1468 Q389.494 1465.49 388.131 1463.13 M390.537 1461.74 Q392.716 1465.51 390.869 1469.23 Q389.047 1472.94 383.364 1476.23 Q377.696 1479.5 373.549 1479.23 Q369.426 1478.96 367.247 1475.19 Q365.069 1471.41 366.891 1467.69 Q368.737 1463.98 374.405 1460.71 Q380.089 1457.43 384.212 1457.69 Q388.358 1457.97 390.537 1461.74 Z" fill="#4c4c4c" fill-rule="evenodd" fill-opacity="1" /><path clip-path="url(#clip460)" d="M513.759 1466.14 L516.623 1471.1 L533.748 1461.21 L529.549 1456.44 L532.316 1454.84 L536.497 1459.58 L538.251 1462.62 L518.359 1474.11 L521.224 1479.07 L518.668 1480.54 L511.203 1467.61 L513.759 1466.14 Z" fill="#4c4c4c" fill-rule="evenodd" fill-opacity="1" /><path clip-path="url(#clip460)" d="M546.407 1481.37 Q545.053 1479.02 542.052 1479.17 Q539.075 1479.33 534.444 1482 Q529.828 1484.66 528.19 1487.17 Q526.575 1489.69 527.929 1492.04 Q529.292 1494.4 532.27 1494.24 Q535.271 1494.09 539.886 1491.43 Q544.517 1488.75 546.132 1486.24 Q547.77 1483.73 546.407 1481.37 M548.813 1479.98 Q550.992 1483.75 549.146 1487.46 Q547.323 1491.18 541.64 1494.46 Q535.972 1497.74 531.825 1497.46 Q527.702 1497.2 525.524 1493.42 Q523.345 1489.65 525.167 1485.93 Q527.013 1482.22 532.682 1478.95 Q538.365 1475.67 542.488 1475.93 Q546.634 1476.2 548.813 1479.98 Z" fill="#4c4c4c" fill-rule="evenodd" fill-opacity="1" /><path clip-path="url(#clip460)" d="M663.363 1469.35 L669.483 1479.95 L666.927 1481.43 L658.698 1467.18 L661.254 1465.7 Q664.041 1466.4 668.767 1467.64 Q673.516 1468.89 674.831 1469.15 Q677.312 1469.66 678.769 1469.58 Q680.251 1469.51 681.348 1468.87 Q683.137 1467.84 683.536 1465.93 Q683.943 1464.03 682.78 1462.01 Q681.955 1460.59 680.539 1459.28 Q679.131 1457.99 677.082 1456.76 L680.149 1454.99 Q681.945 1456.4 683.241 1457.78 Q684.537 1459.15 685.301 1460.48 Q687.315 1463.97 686.769 1467.05 Q686.223 1470.13 683.306 1471.81 Q681.923 1472.61 680.371 1472.81 Q678.843 1473.01 676.369 1472.61 Q675.716 1472.49 672.463 1471.68 Q669.225 1470.86 663.363 1469.35 Z" fill="#4c4c4c" fill-rule="evenodd" fill-opacity="1" /><path clip-path="url(#clip460)" d="M694.805 1482.49 Q693.451 1480.15 690.45 1480.3 Q687.472 1480.45 682.841 1483.13 Q678.226 1485.79 676.587 1488.3 Q674.973 1490.82 676.327 1493.16 Q677.69 1495.52 680.667 1495.37 Q683.668 1495.22 688.284 1492.55 Q692.915 1489.88 694.53 1487.36 Q696.168 1484.86 694.805 1482.49 M697.211 1481.11 Q699.389 1484.88 697.543 1488.59 Q695.721 1492.31 690.038 1495.59 Q684.369 1498.86 680.223 1498.59 Q676.1 1498.33 673.921 1494.55 Q671.742 1490.78 673.565 1487.06 Q675.411 1483.35 681.079 1480.08 Q686.763 1476.79 690.885 1477.06 Q695.032 1477.33 697.211 1481.11 Z" fill="#4c4c4c" fill-rule="evenodd" fill-opacity="1" /><path clip-path="url(#clip460)" d="M824.407 1470.34 Q825.2 1472.79 824.429 1474.86 Q823.668 1476.94 821.503 1478.19 Q818.18 1480.11 815.041 1478.87 Q811.902 1477.64 809.472 1473.43 Q808.656 1472.01 808.074 1470.35 Q807.485 1468.7 807.121 1466.79 L810.053 1465.09 Q810.045 1466.78 810.537 1468.5 Q811.03 1470.22 811.976 1471.86 Q813.625 1474.72 815.612 1475.56 Q817.608 1476.41 819.758 1475.17 Q821.742 1474.02 822.048 1471.98 Q822.377 1469.95 820.944 1467.47 L819.434 1464.85 L821.93 1463.41 L823.51 1466.14 Q824.803 1468.38 826.376 1469.06 Q827.964 1469.73 829.648 1468.76 Q831.377 1467.76 831.582 1465.99 Q831.811 1464.24 830.492 1461.95 Q829.771 1460.71 828.676 1459.43 Q827.581 1458.16 826.02 1456.78 L828.726 1455.21 Q830.205 1456.67 831.314 1458.03 Q832.431 1459.41 833.204 1460.75 Q835.2 1464.21 834.785 1467.13 Q834.384 1470.05 831.708 1471.6 Q829.844 1472.67 827.935 1472.35 Q826.04 1472.02 824.407 1470.34 Z" fill="#4c4c4c" fill-rule="evenodd" fill-opacity="1" /><path clip-path="url(#clip460)" d="M842.5 1482.4 Q841.145 1480.06 838.144 1480.21 Q835.167 1480.36 830.536 1483.04 Q825.92 1485.7 824.282 1488.21 Q822.667 1490.73 824.022 1493.07 Q825.384 1495.43 828.362 1495.28 Q831.363 1495.13 835.979 1492.46 Q840.61 1489.79 842.224 1487.27 Q843.862 1484.76 842.5 1482.4 M844.905 1481.02 Q847.084 1484.79 845.238 1488.5 Q843.415 1492.22 837.732 1495.5 Q832.064 1498.77 827.917 1498.5 Q823.795 1498.24 821.616 1494.46 Q819.437 1490.69 821.26 1486.97 Q823.106 1483.26 828.774 1479.98 Q834.457 1476.7 838.58 1476.97 Q842.726 1477.24 844.905 1481.02 Z" fill="#4c4c4c" fill-rule="evenodd" fill-opacity="1" /><path clip-path="url(#clip460)" d="M979.843 1465.88 L963.433 1465.13 L967.86 1472.8 L979.843 1465.88 M982.029 1463.55 L984.234 1467.37 L969.605 1475.82 L971.454 1479.02 L968.928 1480.48 L967.079 1477.28 L961.786 1480.33 L960.042 1477.31 L965.334 1474.25 L959.483 1464.12 L962.415 1462.43 L982.029 1463.55 Z" fill="#4c4c4c" fill-rule="evenodd" fill-opacity="1" /><path clip-path="url(#clip460)" d="M990.732 1483.25 Q989.378 1480.9 986.377 1481.05 Q983.4 1481.21 978.769 1483.88 Q974.153 1486.54 972.515 1489.05 Q970.9 1491.57 972.254 1493.91 Q973.617 1496.28 976.595 1496.12 Q979.596 1495.97 984.211 1493.31 Q988.842 1490.63 990.457 1488.12 Q992.095 1485.61 990.732 1483.25 M993.138 1481.86 Q995.317 1485.63 993.471 1489.34 Q991.648 1493.06 985.965 1496.34 Q980.297 1499.62 976.15 1499.34 Q972.027 1499.08 969.849 1495.3 Q967.67 1491.53 969.492 1487.81 Q971.338 1484.1 977.007 1480.83 Q982.69 1477.55 986.813 1477.81 Q990.959 1478.08 993.138 1481.86 Z" fill="#4c4c4c" fill-rule="evenodd" fill-opacity="1" /><path clip-path="url(#clip460)" d="M1124.93 1455.16 L1131.82 1467.09 L1129.26 1468.56 L1123.98 1459.42 L1118.48 1462.6 Q1119.09 1463.13 1119.57 1463.73 Q1120.08 1464.32 1120.46 1464.98 Q1122.63 1468.74 1121.84 1472.13 Q1121.04 1475.51 1117.52 1477.54 Q1113.9 1479.63 1110.58 1478.54 Q1107.28 1477.44 1104.91 1473.34 Q1104.1 1471.92 1103.49 1470.31 Q1102.89 1468.71 1102.46 1466.87 L1105.52 1465.11 Q1105.56 1466.89 1106.03 1468.54 Q1106.51 1470.19 1107.43 1471.8 Q1108.94 1474.4 1111.18 1475.13 Q1113.43 1475.86 1115.77 1474.51 Q1118.12 1473.15 1118.61 1470.84 Q1119.1 1468.53 1117.6 1465.93 Q1116.89 1464.72 1115.92 1463.65 Q1114.96 1462.61 1113.66 1461.67 L1124.93 1455.16 Z" fill="#4c4c4c" fill-rule="evenodd" fill-opacity="1" /><path clip-path="url(#clip460)" d="M1137.98 1482.37 Q1136.62 1480.03 1133.62 1480.18 Q1130.64 1480.33 1126.01 1483.01 Q1121.4 1485.67 1119.76 1488.18 Q1118.14 1490.7 1119.5 1493.04 Q1120.86 1495.4 1123.84 1495.25 Q1126.84 1495.1 1131.45 1492.43 Q1136.09 1489.76 1137.7 1487.24 Q1139.34 1484.73 1137.98 1482.37 M1140.38 1480.99 Q1142.56 1484.76 1140.71 1488.47 Q1138.89 1492.19 1133.21 1495.47 Q1127.54 1498.74 1123.39 1498.47 Q1119.27 1498.21 1117.09 1494.43 Q1114.91 1490.66 1116.74 1486.94 Q1118.58 1483.23 1124.25 1479.95 Q1129.93 1476.67 1134.06 1476.94 Q1138.2 1477.21 1140.38 1480.99 Z" fill="#4c4c4c" fill-rule="evenodd" fill-opacity="1" /><path clip-path="url(#clip460)" d="M1266.75 1468.01 Q1265.56 1465.97 1263.47 1465.57 Q1261.39 1465.19 1258.95 1466.6 Q1256.53 1467.99 1255.8 1470 Q1255.1 1472.01 1256.28 1474.05 Q1257.46 1476.1 1259.55 1476.48 Q1261.65 1476.87 1264.07 1475.47 Q1266.51 1474.06 1267.21 1472.05 Q1267.93 1470.06 1266.75 1468.01 M1279.74 1468.55 L1276.98 1470.14 Q1276.86 1468.69 1276.47 1467.35 Q1276.08 1466.03 1275.42 1464.89 Q1273.69 1461.88 1270.74 1461.46 Q1267.8 1461.05 1263.56 1463.19 Q1265.38 1463.33 1266.85 1464.26 Q1268.33 1465.19 1269.25 1466.8 Q1271.21 1470.19 1270.28 1473.33 Q1269.37 1476.48 1265.84 1478.52 Q1262.38 1480.52 1259.11 1479.68 Q1255.84 1478.84 1253.88 1475.44 Q1251.63 1471.55 1253.41 1467.77 Q1255.22 1463.98 1260.89 1460.71 Q1266.21 1457.64 1270.82 1458.34 Q1275.45 1459.03 1277.91 1463.29 Q1278.57 1464.43 1279.01 1465.72 Q1279.47 1467.02 1279.74 1468.55 Z" fill="#4c4c4c" fill-rule="evenodd" fill-opacity="1" /><path clip-path="url(#clip460)" d="M1285.85 1482.6 Q1284.5 1480.25 1281.5 1480.4 Q1278.52 1480.56 1273.89 1483.23 Q1269.27 1485.9 1267.63 1488.41 Q1266.02 1490.92 1267.37 1493.27 Q1268.74 1495.63 1271.71 1495.47 Q1274.72 1495.32 1279.33 1492.66 Q1283.96 1489.99 1285.58 1487.47 Q1287.22 1484.96 1285.85 1482.6 M1288.26 1481.21 Q1290.44 1484.98 1288.59 1488.7 Q1286.77 1492.42 1281.09 1495.7 Q1275.42 1498.97 1271.27 1498.7 Q1267.15 1498.43 1264.97 1494.66 Q1262.79 1490.88 1264.61 1487.16 Q1266.46 1483.45 1272.13 1480.18 Q1277.81 1476.9 1281.93 1477.16 Q1286.08 1477.44 1288.26 1481.21 Z" fill="#4c4c4c" fill-rule="evenodd" fill-opacity="1" /><path clip-path="url(#clip460)" d="M1419.88 1454.22 L1428.21 1468.65 L1426.92 1469.4 L1401.06 1473.46 L1399.23 1470.29 L1423.55 1466.47 L1417.32 1455.69 L1419.88 1454.22 Z" fill="#4c4c4c" fill-rule="evenodd" fill-opacity="1" /><path clip-path="url(#clip460)" d="M1433.38 1482.22 Q1432.03 1479.88 1429.03 1480.03 Q1426.05 1480.18 1421.42 1482.86 Q1416.8 1485.52 1415.16 1488.03 Q1413.55 1490.55 1414.9 1492.89 Q1416.27 1495.25 1419.24 1495.1 Q1422.25 1494.95 1426.86 1492.28 Q1431.49 1489.61 1433.11 1487.09 Q1434.74 1484.58 1433.38 1482.22 M1435.79 1480.84 Q1437.97 1484.61 1436.12 1488.32 Q1434.3 1492.04 1428.61 1495.32 Q1422.95 1498.59 1418.8 1498.32 Q1414.68 1498.06 1412.5 1494.28 Q1410.32 1490.51 1412.14 1486.79 Q1413.99 1483.08 1419.66 1479.8 Q1425.34 1476.52 1429.46 1476.79 Q1433.61 1477.06 1435.79 1480.84 Z" fill="#4c4c4c" fill-rule="evenodd" fill-opacity="1" /><path clip-path="url(#clip460)" d="M1560.28 1468.72 Q1559.03 1466.56 1557.15 1465.98 Q1555.28 1465.41 1553.25 1466.58 Q1551.22 1467.76 1550.78 1469.66 Q1550.34 1471.57 1551.59 1473.74 Q1552.84 1475.9 1554.72 1476.48 Q1556.61 1477.05 1558.63 1475.89 Q1560.66 1474.72 1561.09 1472.8 Q1561.54 1470.9 1560.28 1468.72 M1559.82 1464.94 Q1559.17 1462.7 1559.88 1460.83 Q1560.59 1458.98 1562.52 1457.87 Q1565.21 1456.31 1567.87 1457.32 Q1570.55 1458.34 1572.48 1461.68 Q1574.41 1465.03 1573.95 1467.85 Q1573.49 1470.66 1570.8 1472.21 Q1568.87 1473.32 1566.9 1473 Q1564.94 1472.69 1563.34 1471.03 Q1564.09 1473.52 1563.31 1475.59 Q1562.53 1477.69 1560.38 1478.93 Q1557.12 1480.81 1554.22 1479.82 Q1551.33 1478.84 1549.19 1475.13 Q1547.04 1471.41 1547.63 1468.41 Q1548.23 1465.41 1551.49 1463.53 Q1553.64 1462.29 1555.84 1462.66 Q1558.04 1463.04 1559.82 1464.94 M1563.98 1461.06 Q1562.23 1462.06 1561.88 1463.71 Q1561.54 1465.37 1562.67 1467.34 Q1563.8 1469.29 1565.41 1469.83 Q1567.03 1470.38 1568.78 1469.37 Q1570.52 1468.36 1570.85 1466.69 Q1571.2 1465.02 1570.07 1463.07 Q1568.93 1461.1 1567.32 1460.57 Q1565.72 1460.05 1563.98 1461.06 Z" fill="#4c4c4c" fill-rule="evenodd" fill-opacity="1" /><path clip-path="url(#clip460)" d="M1581.38 1482.66 Q1580.03 1480.31 1577.03 1480.46 Q1574.05 1480.62 1569.42 1483.29 Q1564.8 1485.96 1563.16 1488.47 Q1561.55 1490.98 1562.9 1493.33 Q1564.27 1495.69 1567.24 1495.53 Q1570.24 1495.38 1574.86 1492.72 Q1579.49 1490.05 1581.11 1487.53 Q1582.74 1485.02 1581.38 1482.66 M1583.79 1481.27 Q1585.96 1485.04 1584.12 1488.76 Q1582.3 1492.48 1576.61 1495.76 Q1570.94 1499.03 1566.8 1498.76 Q1562.68 1498.49 1560.5 1494.72 Q1558.32 1490.94 1560.14 1487.23 Q1561.99 1483.51 1567.65 1480.24 Q1573.34 1476.96 1577.46 1477.23 Q1581.61 1477.5 1583.79 1481.27 Z" fill="#4c4c4c" fill-rule="evenodd" fill-opacity="1" /><path clip-path="url(#clip460)" d="M1694.22 1468.35 L1696.99 1466.75 Q1697.11 1468.21 1697.5 1469.55 Q1697.89 1470.88 1698.54 1472.01 Q1700.28 1475.02 1703.2 1475.43 Q1706.15 1475.86 1710.4 1473.7 Q1708.61 1473.58 1707.14 1472.64 Q1705.68 1471.7 1704.74 1470.08 Q1702.8 1466.71 1703.69 1463.57 Q1704.61 1460.43 1708.14 1458.39 Q1711.6 1456.4 1714.87 1457.23 Q1718.14 1458.07 1720.1 1461.47 Q1722.35 1465.36 1720.54 1469.14 Q1718.75 1472.91 1713.07 1476.2 Q1707.76 1479.26 1703.13 1478.57 Q1698.52 1477.88 1696.06 1473.62 Q1695.4 1472.48 1694.95 1471.18 Q1694.5 1469.87 1694.22 1468.35 M1707.23 1468.9 Q1708.41 1470.95 1710.5 1471.33 Q1712.59 1471.72 1715.02 1470.32 Q1717.44 1468.92 1718.15 1466.91 Q1718.88 1464.9 1717.69 1462.86 Q1716.51 1460.81 1714.41 1460.43 Q1712.32 1460.05 1709.9 1461.44 Q1707.47 1462.85 1706.75 1464.85 Q1706.05 1466.86 1707.23 1468.9 Z" fill="#4c4c4c" fill-rule="evenodd" fill-opacity="1" /><path clip-path="url(#clip460)" d="M1729.21 1482.81 Q1727.86 1480.46 1724.86 1480.61 Q1721.88 1480.77 1717.25 1483.44 Q1712.63 1486.11 1711 1488.62 Q1709.38 1491.13 1710.74 1493.48 Q1712.1 1495.84 1715.08 1495.68 Q1718.08 1495.53 1722.69 1492.87 Q1727.32 1490.2 1728.94 1487.68 Q1730.58 1485.17 1729.21 1482.81 M1731.62 1481.42 Q1733.8 1485.2 1731.95 1488.91 Q1730.13 1492.63 1724.45 1495.91 Q1718.78 1499.18 1714.63 1498.91 Q1710.51 1498.64 1708.33 1494.87 Q1706.15 1491.09 1707.97 1487.38 Q1709.82 1483.66 1715.49 1480.39 Q1721.17 1477.11 1725.29 1477.38 Q1729.44 1477.65 1731.62 1481.42 Z" fill="#4c4c4c" fill-rule="evenodd" fill-opacity="1" /><path clip-path="url(#clip460)" d="M1843.48 1466.14 L1846.34 1471.1 L1863.47 1461.21 L1859.27 1456.44 L1862.04 1454.84 L1866.22 1459.58 L1867.97 1462.62 L1848.08 1474.11 L1850.94 1479.07 L1848.39 1480.54 L1840.92 1467.61 L1843.48 1466.14 Z" fill="#4c4c4c" fill-rule="evenodd" fill-opacity="1" /><path clip-path="url(#clip460)" d="M1876.13 1481.37 Q1874.77 1479.02 1871.77 1479.17 Q1868.79 1479.33 1864.16 1482 Q1859.55 1484.66 1857.91 1487.17 Q1856.3 1489.69 1857.65 1492.04 Q1859.01 1494.4 1861.99 1494.24 Q1864.99 1494.09 1869.61 1491.43 Q1874.24 1488.75 1875.85 1486.24 Q1877.49 1483.73 1876.13 1481.37 M1878.53 1479.98 Q1880.71 1483.75 1878.87 1487.46 Q1877.04 1491.18 1871.36 1494.46 Q1865.69 1497.74 1861.55 1497.46 Q1857.42 1497.2 1855.24 1493.42 Q1853.06 1489.65 1854.89 1485.93 Q1856.73 1482.22 1862.4 1478.95 Q1868.08 1475.67 1872.21 1475.93 Q1876.35 1476.2 1878.53 1479.98 Z" fill="#4c4c4c" fill-rule="evenodd" fill-opacity="1" /><path clip-path="url(#clip460)" d="M1887.44 1500.96 Q1886.08 1498.61 1883.08 1498.76 Q1880.11 1498.92 1875.47 1501.59 Q1870.86 1504.26 1869.22 1506.76 Q1867.61 1509.28 1868.96 1511.63 Q1870.32 1513.99 1873.3 1513.83 Q1876.3 1513.68 1880.92 1511.02 Q1885.55 1508.34 1887.16 1505.83 Q1888.8 1503.32 1887.44 1500.96 M1889.84 1499.57 Q1892.02 1503.34 1890.18 1507.05 Q1888.35 1510.77 1882.67 1514.05 Q1877 1517.33 1872.86 1517.05 Q1868.73 1516.79 1866.55 1513.01 Q1864.38 1509.24 1866.2 1505.52 Q1868.04 1501.81 1873.71 1498.54 Q1879.4 1495.26 1883.52 1495.52 Q1887.66 1495.8 1889.84 1499.57 Z" fill="#4c4c4c" fill-rule="evenodd" fill-opacity="1" /><path clip-path="url(#clip460)" d="M1991.23 1466.14 L1994.09 1471.1 L2011.21 1461.21 L2007.02 1456.44 L2009.78 1454.84 L2013.96 1459.58 L2015.72 1462.62 L1995.83 1474.11 L1998.69 1479.07 L1996.13 1480.54 L1988.67 1467.61 L1991.23 1466.14 Z" fill="#4c4c4c" fill-rule="evenodd" fill-opacity="1" /><path clip-path="url(#clip460)" d="M2002.54 1485.73 L2005.4 1490.69 L2022.53 1480.8 L2018.33 1476.03 L2021.09 1474.43 L2025.27 1479.18 L2027.03 1482.21 L2007.14 1493.7 L2010 1498.66 L2007.45 1500.13 L1999.98 1487.2 L2002.54 1485.73 Z" fill="#4c4c4c" fill-rule="evenodd" fill-opacity="1" /><path clip-path="url(#clip460)" d="M2035.18 1500.96 Q2033.83 1498.61 2030.83 1498.76 Q2027.85 1498.92 2023.22 1501.59 Q2018.61 1504.26 2016.97 1506.76 Q2015.35 1509.28 2016.71 1511.63 Q2018.07 1513.99 2021.05 1513.83 Q2024.05 1513.68 2028.66 1511.02 Q2033.29 1508.34 2034.91 1505.83 Q2036.55 1503.32 2035.18 1500.96 M2037.59 1499.57 Q2039.77 1503.34 2037.92 1507.05 Q2036.1 1510.77 2030.42 1514.05 Q2024.75 1517.33 2020.6 1517.05 Q2016.48 1516.79 2014.3 1513.01 Q2012.12 1509.24 2013.94 1505.52 Q2015.79 1501.81 2021.46 1498.54 Q2027.14 1495.26 2031.27 1495.52 Q2035.41 1495.8 2037.59 1499.57 Z" fill="#4c4c4c" fill-rule="evenodd" fill-opacity="1" /><path clip-path="url(#clip460)" d="M2138.97 1466.14 L2141.84 1471.1 L2158.96 1461.21 L2154.76 1456.44 L2157.53 1454.84 L2161.71 1459.58 L2163.46 1462.62 L2143.57 1474.11 L2146.44 1479.07 L2143.88 1480.54 L2136.42 1467.61 L2138.97 1466.14 Z" fill="#4c4c4c" fill-rule="evenodd" fill-opacity="1" /><path clip-path="url(#clip460)" d="M2151.49 1487.82 L2157.61 1498.42 L2155.05 1499.89 L2146.82 1485.64 L2149.38 1484.16 Q2152.17 1484.86 2156.89 1486.1 Q2161.64 1487.35 2162.96 1487.61 Q2165.44 1488.12 2166.9 1488.04 Q2168.38 1487.97 2169.47 1487.34 Q2171.26 1486.3 2171.66 1484.39 Q2172.07 1482.49 2170.91 1480.48 Q2170.08 1479.05 2168.67 1477.74 Q2167.26 1476.45 2165.21 1475.23 L2168.28 1473.46 Q2170.07 1474.86 2171.37 1476.24 Q2172.66 1477.62 2173.43 1478.94 Q2175.44 1482.43 2174.9 1485.51 Q2174.35 1488.59 2171.43 1490.28 Q2170.05 1491.08 2168.5 1491.27 Q2166.97 1491.47 2164.5 1491.07 Q2163.84 1490.95 2160.59 1490.14 Q2157.35 1489.32 2151.49 1487.82 Z" fill="#4c4c4c" fill-rule="evenodd" fill-opacity="1" /><path clip-path="url(#clip460)" d="M2182.93 1500.96 Q2181.58 1498.61 2178.58 1498.76 Q2175.6 1498.92 2170.97 1501.59 Q2166.35 1504.26 2164.71 1506.76 Q2163.1 1509.28 2164.45 1511.63 Q2165.82 1513.99 2168.79 1513.83 Q2171.79 1513.68 2176.41 1511.02 Q2181.04 1508.34 2182.66 1505.83 Q2184.29 1503.32 2182.93 1500.96 M2185.34 1499.57 Q2187.52 1503.34 2185.67 1507.05 Q2183.85 1510.77 2178.16 1514.05 Q2172.5 1517.33 2168.35 1517.05 Q2164.23 1516.79 2162.05 1513.01 Q2159.87 1509.24 2161.69 1505.52 Q2163.54 1501.81 2169.21 1498.54 Q2174.89 1495.26 2179.01 1495.52 Q2183.16 1495.8 2185.34 1499.57 Z" fill="#4c4c4c" fill-rule="evenodd" fill-opacity="1" /><path clip-path="url(#clip460)" d="M2286.72 1466.14 L2289.58 1471.1 L2306.71 1461.21 L2302.51 1456.44 L2305.28 1454.84 L2309.46 1459.58 L2311.21 1462.62 L2291.32 1474.11 L2294.18 1479.07 L2291.63 1480.54 L2284.16 1467.61 L2286.72 1466.14 Z" fill="#4c4c4c" fill-rule="evenodd" fill-opacity="1" /><path clip-path="url(#clip460)" d="M2312.59 1488.89 Q2313.38 1491.34 2312.61 1493.41 Q2311.85 1495.49 2309.68 1496.74 Q2306.36 1498.66 2303.22 1497.43 Q2300.08 1496.19 2297.65 1491.98 Q2296.83 1490.57 2296.25 1488.9 Q2295.66 1487.25 2295.3 1485.34 L2298.23 1483.65 Q2298.22 1485.34 2298.72 1487.06 Q2299.21 1488.78 2300.15 1490.41 Q2301.8 1493.27 2303.79 1494.11 Q2305.79 1494.96 2307.94 1493.72 Q2309.92 1492.57 2310.23 1490.53 Q2310.56 1488.5 2309.12 1486.02 L2307.61 1483.4 L2310.11 1481.96 L2311.69 1484.7 Q2312.98 1486.94 2314.55 1487.61 Q2316.14 1488.28 2317.83 1487.31 Q2319.56 1486.31 2319.76 1484.55 Q2319.99 1482.79 2318.67 1480.51 Q2317.95 1479.26 2316.85 1477.99 Q2315.76 1476.71 2314.2 1475.33 L2316.9 1473.77 Q2318.38 1475.22 2319.49 1476.58 Q2320.61 1477.96 2321.38 1479.3 Q2323.38 1482.76 2322.96 1485.69 Q2322.56 1488.6 2319.89 1490.15 Q2318.02 1491.22 2316.11 1490.9 Q2314.22 1490.57 2312.59 1488.89 Z" fill="#4c4c4c" fill-rule="evenodd" fill-opacity="1" /><path clip-path="url(#clip460)" d="M2330.68 1500.96 Q2329.32 1498.61 2326.32 1498.76 Q2323.35 1498.92 2318.71 1501.59 Q2314.1 1504.26 2312.46 1506.76 Q2310.85 1509.28 2312.2 1511.63 Q2313.56 1513.99 2316.54 1513.83 Q2319.54 1513.68 2324.16 1511.02 Q2328.79 1508.34 2330.4 1505.83 Q2332.04 1503.32 2330.68 1500.96 M2333.08 1499.57 Q2335.26 1503.34 2333.42 1507.05 Q2331.59 1510.77 2325.91 1514.05 Q2320.24 1517.33 2316.1 1517.05 Q2311.97 1516.79 2309.79 1513.01 Q2307.62 1509.24 2309.44 1505.52 Q2311.28 1501.81 2316.95 1498.54 Q2322.64 1495.26 2326.76 1495.52 Q2330.9 1495.8 2333.08 1499.57 Z" fill="#4c4c4c" fill-rule="evenodd" fill-opacity="1" /><path clip-path="url(#clip460)" d="M1225.37 1537.87 L1230.05 1537.87 L1230.05 1572.43 L1225.37 1572.43 L1225.37 1537.87 Z" fill="#000000" fill-rule="evenodd" fill-opacity="1" /><path clip-path="url(#clip460)" d="M1243.38 1539.15 L1243.38 1546.51 L1252.15 1546.51 L1252.15 1549.82 L1243.38 1549.82 L1243.38 1563.89 Q1243.38 1567.06 1244.24 1567.97 Q1245.12 1568.87 1247.78 1568.87 L1252.15 1568.87 L1252.15 1572.43 L1247.78 1572.43 Q1242.85 1572.43 1240.97 1570.6 Q1239.1 1568.75 1239.1 1563.89 L1239.1 1549.82 L1235.97 1549.82 L1235.97 1546.51 L1239.1 1546.51 L1239.1 1539.15 L1243.38 1539.15 Z" fill="#000000" fill-rule="evenodd" fill-opacity="1" /><path clip-path="url(#clip460)" d="M1279.93 1558.41 L1279.93 1560.49 L1260.35 1560.49 Q1260.63 1564.89 1262.99 1567.2 Q1265.37 1569.49 1269.61 1569.49 Q1272.06 1569.49 1274.35 1568.89 Q1276.67 1568.29 1278.94 1567.09 L1278.94 1571.11 Q1276.65 1572.09 1274.24 1572.6 Q1271.83 1573.1 1269.35 1573.1 Q1263.15 1573.1 1259.52 1569.49 Q1255.9 1565.88 1255.9 1559.73 Q1255.9 1553.36 1259.33 1549.63 Q1262.78 1545.88 1268.61 1545.88 Q1273.84 1545.88 1276.88 1549.26 Q1279.93 1552.62 1279.93 1558.41 M1275.67 1557.16 Q1275.63 1553.66 1273.71 1551.58 Q1271.81 1549.49 1268.66 1549.49 Q1265.09 1549.49 1262.94 1551.51 Q1260.81 1553.52 1260.49 1557.18 L1275.67 1557.16 Z" fill="#000000" fill-rule="evenodd" fill-opacity="1" /><path clip-path="url(#clip460)" d="M1301.95 1550.49 Q1301.23 1550.07 1300.37 1549.89 Q1299.54 1549.68 1298.52 1549.68 Q1294.91 1549.68 1292.96 1552.04 Q1291.04 1554.38 1291.04 1558.78 L1291.04 1572.43 L1286.76 1572.43 L1286.76 1546.51 L1291.04 1546.51 L1291.04 1550.54 Q1292.39 1548.17 1294.54 1547.04 Q1296.69 1545.88 1299.77 1545.88 Q1300.21 1545.88 1300.74 1545.95 Q1301.27 1546 1301.92 1546.11 L1301.95 1550.49 Z" fill="#000000" fill-rule="evenodd" fill-opacity="1" /><path clip-path="url(#clip460)" d="M1318.2 1559.4 Q1313.03 1559.4 1311.04 1560.58 Q1309.05 1561.76 1309.05 1564.61 Q1309.05 1566.88 1310.53 1568.22 Q1312.04 1569.54 1314.61 1569.54 Q1318.15 1569.54 1320.28 1567.04 Q1322.43 1564.52 1322.43 1560.35 L1322.43 1559.4 L1318.2 1559.4 M1326.69 1557.64 L1326.69 1572.43 L1322.43 1572.43 L1322.43 1568.5 Q1320.97 1570.86 1318.8 1571.99 Q1316.62 1573.1 1313.47 1573.1 Q1309.49 1573.1 1307.13 1570.88 Q1304.79 1568.64 1304.79 1564.89 Q1304.79 1560.51 1307.71 1558.29 Q1310.65 1556.07 1316.46 1556.07 L1322.43 1556.07 L1322.43 1555.65 Q1322.43 1552.71 1320.49 1551.11 Q1318.57 1549.49 1315.07 1549.49 Q1312.85 1549.49 1310.74 1550.03 Q1308.64 1550.56 1306.69 1551.62 L1306.69 1547.69 Q1309.03 1546.79 1311.23 1546.35 Q1313.43 1545.88 1315.51 1545.88 Q1321.14 1545.88 1323.91 1548.8 Q1326.69 1551.72 1326.69 1557.64 Z" fill="#000000" fill-rule="evenodd" fill-opacity="1" /><path clip-path="url(#clip460)" d="M1339.68 1539.15 L1339.68 1546.51 L1348.45 1546.51 L1348.45 1549.82 L1339.68 1549.82 L1339.68 1563.89 Q1339.68 1567.06 1340.53 1567.97 Q1341.41 1568.87 1344.08 1568.87 L1348.45 1568.87 L1348.45 1572.43 L1344.08 1572.43 Q1339.14 1572.43 1337.27 1570.6 Q1335.39 1568.75 1335.39 1563.89 L1335.39 1549.82 L1332.27 1549.82 L1332.27 1546.51 L1335.39 1546.51 L1335.39 1539.15 L1339.68 1539.15 Z" fill="#000000" fill-rule="evenodd" fill-opacity="1" /><path clip-path="url(#clip460)" d="M1354.05 1546.51 L1358.31 1546.51 L1358.31 1572.43 L1354.05 1572.43 L1354.05 1546.51 M1354.05 1536.42 L1358.31 1536.42 L1358.31 1541.81 L1354.05 1541.81 L1354.05 1536.42 Z" fill="#000000" fill-rule="evenodd" fill-opacity="1" /><path clip-path="url(#clip460)" d="M1377.27 1549.49 Q1373.84 1549.49 1371.85 1552.18 Q1369.86 1554.84 1369.86 1559.49 Q1369.86 1564.15 1371.83 1566.83 Q1373.82 1569.49 1377.27 1569.49 Q1380.67 1569.49 1382.66 1566.81 Q1384.65 1564.12 1384.65 1559.49 Q1384.65 1554.89 1382.66 1552.2 Q1380.67 1549.49 1377.27 1549.49 M1377.27 1545.88 Q1382.83 1545.88 1386 1549.49 Q1389.17 1553.1 1389.17 1559.49 Q1389.17 1565.86 1386 1569.49 Q1382.83 1573.1 1377.27 1573.1 Q1371.69 1573.1 1368.52 1569.49 Q1365.37 1565.86 1365.37 1559.49 Q1365.37 1553.1 1368.52 1549.49 Q1371.69 1545.88 1377.27 1545.88 Z" fill="#000000" fill-rule="evenodd" fill-opacity="1" /><path clip-path="url(#clip460)" d="M1417.78 1556.79 L1417.78 1572.43 L1413.52 1572.43 L1413.52 1556.92 Q1413.52 1553.24 1412.08 1551.41 Q1410.65 1549.59 1407.78 1549.59 Q1404.33 1549.59 1402.34 1551.79 Q1400.35 1553.98 1400.35 1557.78 L1400.35 1572.43 L1396.07 1572.43 L1396.07 1546.51 L1400.35 1546.51 L1400.35 1550.54 Q1401.88 1548.2 1403.94 1547.04 Q1406.02 1545.88 1408.73 1545.88 Q1413.2 1545.88 1415.49 1548.66 Q1417.78 1551.41 1417.78 1556.79 Z" fill="#000000" fill-rule="evenodd" fill-opacity="1" /><path clip-path="url(#clip460)" d="M1442.8 1547.27 L1442.8 1551.3 Q1441 1550.37 1439.05 1549.91 Q1437.11 1549.45 1435.02 1549.45 Q1431.85 1549.45 1430.26 1550.42 Q1428.68 1551.39 1428.68 1553.34 Q1428.68 1554.82 1429.82 1555.67 Q1430.95 1556.51 1434.38 1557.27 L1435.83 1557.6 Q1440.37 1558.57 1442.27 1560.35 Q1444.19 1562.11 1444.19 1565.28 Q1444.19 1568.89 1441.32 1571 Q1438.47 1573.1 1433.47 1573.1 Q1431.39 1573.1 1429.12 1572.69 Q1426.88 1572.29 1424.38 1571.48 L1424.38 1567.09 Q1426.74 1568.31 1429.03 1568.94 Q1431.32 1569.54 1433.57 1569.54 Q1436.57 1569.54 1438.2 1568.52 Q1439.82 1567.48 1439.82 1565.6 Q1439.82 1563.87 1438.63 1562.94 Q1437.48 1562.02 1433.52 1561.16 L1432.04 1560.81 Q1428.08 1559.98 1426.32 1558.27 Q1424.56 1556.53 1424.56 1553.52 Q1424.56 1549.86 1427.15 1547.87 Q1429.75 1545.88 1434.51 1545.88 Q1436.88 1545.88 1438.96 1546.23 Q1441.04 1546.58 1442.8 1547.27 Z" fill="#000000" fill-rule="evenodd" fill-opacity="1" /><polyline clip-path="url(#clip462)" style="stroke:#ffffff; stroke-linecap:butt; stroke-linejoin:round; stroke-width:4; stroke-opacity:1; fill:none" points="
  316.807,1249.19 2352.76,1249.19 
  "/>
<polyline clip-path="url(#clip462)" style="stroke:#ffffff; stroke-linecap:butt; stroke-linejoin:round; stroke-width:4; stroke-opacity:1; fill:none" points="
  316.807,1020.41 2352.76,1020.41 
  "/>
<polyline clip-path="url(#clip462)" style="stroke:#ffffff; stroke-linecap:butt; stroke-linejoin:round; stroke-width:4; stroke-opacity:1; fill:none" points="
  316.807,791.638 2352.76,791.638 
  "/>
<polyline clip-path="url(#clip462)" style="stroke:#ffffff; stroke-linecap:butt; stroke-linejoin:round; stroke-width:4; stroke-opacity:1; fill:none" points="
  316.807,562.861 2352.76,562.861 
  "/>
<polyline clip-path="url(#clip462)" style="stroke:#ffffff; stroke-linecap:butt; stroke-linejoin:round; stroke-width:4; stroke-opacity:1; fill:none" points="
  316.807,334.084 2352.76,334.084 
  "/>
<polyline clip-path="url(#clip462)" style="stroke:#ffffff; stroke-linecap:butt; stroke-linejoin:round; stroke-width:2; stroke-opacity:1; fill:none" points="
  316.807,1363.58 2352.76,1363.58 
  "/>
<polyline clip-path="url(#clip462)" style="stroke:#ffffff; stroke-linecap:butt; stroke-linejoin:round; stroke-width:2; stroke-opacity:1; fill:none" points="
  316.807,1134.8 2352.76,1134.8 
  "/>
<polyline clip-path="url(#clip462)" style="stroke:#ffffff; stroke-linecap:butt; stroke-linejoin:round; stroke-width:2; stroke-opacity:1; fill:none" points="
  316.807,906.026 2352.76,906.026 
  "/>
<polyline clip-path="url(#clip462)" style="stroke:#ffffff; stroke-linecap:butt; stroke-linejoin:round; stroke-width:2; stroke-opacity:1; fill:none" points="
  316.807,677.249 2352.76,677.249 
  "/>
<polyline clip-path="url(#clip462)" style="stroke:#ffffff; stroke-linecap:butt; stroke-linejoin:round; stroke-width:2; stroke-opacity:1; fill:none" points="
  316.807,448.473 2352.76,448.473 
  "/>
<polyline clip-path="url(#clip462)" style="stroke:#ffffff; stroke-linecap:butt; stroke-linejoin:round; stroke-width:2; stroke-opacity:1; fill:none" points="
  316.807,219.696 2352.76,219.696 
  "/>
<polyline clip-path="url(#clip460)" style="stroke:#ffffff; stroke-linecap:butt; stroke-linejoin:round; stroke-width:4; stroke-opacity:1; fill:none" points="
  316.807,1422.18 316.807,106.192 
  "/>
<polyline clip-path="url(#clip460)" style="stroke:#333333; stroke-linecap:butt; stroke-linejoin:round; stroke-width:4; stroke-opacity:1; fill:none" points="
  316.807,1249.19 297.909,1249.19 
  "/>
<polyline clip-path="url(#clip460)" style="stroke:#333333; stroke-linecap:butt; stroke-linejoin:round; stroke-width:4; stroke-opacity:1; fill:none" points="
  316.807,1020.41 297.909,1020.41 
  "/>
<polyline clip-path="url(#clip460)" style="stroke:#333333; stroke-linecap:butt; stroke-linejoin:round; stroke-width:4; stroke-opacity:1; fill:none" points="
  316.807,791.638 297.909,791.638 
  "/>
<polyline clip-path="url(#clip460)" style="stroke:#333333; stroke-linecap:butt; stroke-linejoin:round; stroke-width:4; stroke-opacity:1; fill:none" points="
  316.807,562.861 297.909,562.861 
  "/>
<polyline clip-path="url(#clip460)" style="stroke:#333333; stroke-linecap:butt; stroke-linejoin:round; stroke-width:4; stroke-opacity:1; fill:none" points="
  316.807,334.084 297.909,334.084 
  "/>
<polyline clip-path="url(#clip460)" style="stroke:#333333; stroke-linecap:butt; stroke-linejoin:round; stroke-width:4; stroke-opacity:1; fill:none" points="
  316.807,1363.58 307.358,1363.58 
  "/>
<polyline clip-path="url(#clip460)" style="stroke:#333333; stroke-linecap:butt; stroke-linejoin:round; stroke-width:4; stroke-opacity:1; fill:none" points="
  316.807,1134.8 307.358,1134.8 
  "/>
<polyline clip-path="url(#clip460)" style="stroke:#333333; stroke-linecap:butt; stroke-linejoin:round; stroke-width:4; stroke-opacity:1; fill:none" points="
  316.807,906.026 307.358,906.026 
  "/>
<polyline clip-path="url(#clip460)" style="stroke:#333333; stroke-linecap:butt; stroke-linejoin:round; stroke-width:4; stroke-opacity:1; fill:none" points="
  316.807,677.249 307.358,677.249 
  "/>
<polyline clip-path="url(#clip460)" style="stroke:#333333; stroke-linecap:butt; stroke-linejoin:round; stroke-width:4; stroke-opacity:1; fill:none" points="
  316.807,448.473 307.358,448.473 
  "/>
<polyline clip-path="url(#clip460)" style="stroke:#333333; stroke-linecap:butt; stroke-linejoin:round; stroke-width:4; stroke-opacity:1; fill:none" points="
  316.807,219.696 307.358,219.696 
  "/>
<path clip-path="url(#clip460)" d="M193.901 1249.53 L216.158 1249.53 L216.158 1252.48 L193.901 1252.48 L193.901 1249.53 Z" fill="#4c4c4c" fill-rule="evenodd" fill-opacity="1" /><path clip-path="url(#clip460)" d="M234.352 1248.18 Q236.869 1248.71 238.276 1250.42 Q239.699 1252.12 239.699 1254.62 Q239.699 1258.45 237.06 1260.55 Q234.422 1262.65 229.56 1262.65 Q227.929 1262.65 226.192 1262.32 Q224.474 1262.01 222.633 1261.37 L222.633 1257.98 Q224.092 1258.84 225.828 1259.27 Q227.564 1259.7 229.456 1259.7 Q232.755 1259.7 234.474 1258.4 Q236.21 1257.1 236.21 1254.62 Q236.21 1252.32 234.595 1251.04 Q232.998 1249.74 230.133 1249.74 L227.113 1249.74 L227.113 1246.86 L230.272 1246.86 Q232.859 1246.86 234.231 1245.83 Q235.602 1244.79 235.602 1242.85 Q235.602 1240.85 234.179 1239.79 Q232.772 1238.71 230.133 1238.71 Q228.692 1238.71 227.043 1239.03 Q225.394 1239.34 223.415 1240 L223.415 1236.87 Q225.411 1236.32 227.147 1236.04 Q228.901 1235.76 230.446 1235.76 Q234.439 1235.76 236.765 1237.59 Q239.092 1239.39 239.092 1242.48 Q239.092 1244.63 237.859 1246.13 Q236.626 1247.6 234.352 1248.18 Z" fill="#4c4c4c" fill-rule="evenodd" fill-opacity="1" /><path clip-path="url(#clip460)" d="M253.849 1238.54 Q251.14 1238.54 249.769 1241.21 Q248.415 1243.87 248.415 1249.22 Q248.415 1254.55 249.769 1257.22 Q251.14 1259.88 253.849 1259.88 Q256.574 1259.88 257.928 1257.22 Q259.3 1254.55 259.3 1249.22 Q259.3 1243.87 257.928 1241.21 Q256.574 1238.54 253.849 1238.54 M253.849 1235.76 Q258.206 1235.76 260.498 1239.22 Q262.807 1242.65 262.807 1249.22 Q262.807 1255.76 260.498 1259.22 Q258.206 1262.65 253.849 1262.65 Q249.491 1262.65 247.182 1259.22 Q244.89 1255.76 244.89 1249.22 Q244.89 1242.65 247.182 1239.22 Q249.491 1235.76 253.849 1235.76 Z" fill="#4c4c4c" fill-rule="evenodd" fill-opacity="1" /><path clip-path="url(#clip460)" d="M194.578 1020.75 L216.835 1020.75 L216.835 1023.7 L194.578 1023.7 L194.578 1020.75 Z" fill="#4c4c4c" fill-rule="evenodd" fill-opacity="1" /><path clip-path="url(#clip460)" d="M227.425 1030.42 L239.665 1030.42 L239.665 1033.37 L223.206 1033.37 L223.206 1030.42 Q225.203 1028.36 228.64 1024.88 Q232.095 1021.4 232.981 1020.39 Q234.665 1018.5 235.324 1017.19 Q236.001 1015.87 236.001 1014.61 Q236.001 1012.54 234.543 1011.24 Q233.102 1009.94 230.776 1009.94 Q229.126 1009.94 227.286 1010.51 Q225.463 1011.08 223.38 1012.25 L223.38 1008.7 Q225.498 1007.85 227.338 1007.42 Q229.179 1006.99 230.706 1006.99 Q234.734 1006.99 237.13 1009 Q239.526 1011.01 239.526 1014.38 Q239.526 1015.98 238.918 1017.42 Q238.328 1018.84 236.748 1020.79 Q236.314 1021.29 233.988 1023.7 Q231.661 1026.1 227.425 1030.42 Z" fill="#4c4c4c" fill-rule="evenodd" fill-opacity="1" /><path clip-path="url(#clip460)" d="M246.14 1007.45 L262.807 1007.45 L262.807 1008.95 L253.397 1033.37 L249.734 1033.37 L258.588 1010.41 L246.14 1010.41 L246.14 1007.45 Z" fill="#4c4c4c" fill-rule="evenodd" fill-opacity="1" /><path clip-path="url(#clip460)" d="M193.536 791.976 L215.793 791.976 L215.793 794.928 L193.536 794.928 L193.536 791.976 Z" fill="#4c4c4c" fill-rule="evenodd" fill-opacity="1" /><path clip-path="url(#clip460)" d="M226.383 801.646 L238.623 801.646 L238.623 804.598 L222.165 804.598 L222.165 801.646 Q224.161 799.58 227.599 796.108 Q231.054 792.619 231.939 791.612 Q233.623 789.719 234.283 788.417 Q234.96 787.098 234.96 785.83 Q234.96 783.764 233.501 782.462 Q232.06 781.16 229.734 781.16 Q228.085 781.16 226.245 781.733 Q224.422 782.306 222.338 783.469 L222.338 779.928 Q224.456 779.077 226.297 778.643 Q228.137 778.209 229.665 778.209 Q233.692 778.209 236.088 780.223 Q238.484 782.237 238.484 785.605 Q238.484 787.202 237.876 788.643 Q237.286 790.067 235.706 792.011 Q235.272 792.514 232.946 794.928 Q230.62 797.323 226.383 801.646 Z" fill="#4c4c4c" fill-rule="evenodd" fill-opacity="1" /><path clip-path="url(#clip460)" d="M255.619 781.733 L246.765 795.57 L255.619 795.57 L255.619 781.733 M254.699 778.678 L259.109 778.678 L259.109 795.57 L262.807 795.57 L262.807 798.487 L259.109 798.487 L259.109 804.598 L255.619 804.598 L255.619 798.487 L243.918 798.487 L243.918 795.101 L254.699 778.678 Z" fill="#4c4c4c" fill-rule="evenodd" fill-opacity="1" /><path clip-path="url(#clip460)" d="M194.821 563.2 L217.078 563.2 L217.078 566.151 L194.821 566.151 L194.821 563.2 Z" fill="#4c4c4c" fill-rule="evenodd" fill-opacity="1" /><path clip-path="url(#clip460)" d="M227.668 572.87 L239.908 572.87 L239.908 575.821 L223.449 575.821 L223.449 572.87 Q225.446 570.804 228.883 567.331 Q232.338 563.842 233.224 562.835 Q234.908 560.943 235.567 559.641 Q236.244 558.321 236.244 557.054 Q236.244 554.988 234.786 553.686 Q233.345 552.384 231.019 552.384 Q229.37 552.384 227.529 552.957 Q225.706 553.529 223.623 554.693 L223.623 551.151 Q225.741 550.3 227.581 549.866 Q229.422 549.432 230.949 549.432 Q234.977 549.432 237.373 551.446 Q239.769 553.46 239.769 556.828 Q239.769 558.425 239.161 559.866 Q238.571 561.29 236.991 563.234 Q236.557 563.738 234.231 566.151 Q231.904 568.547 227.668 572.87 Z" fill="#4c4c4c" fill-rule="evenodd" fill-opacity="1" /><path clip-path="url(#clip460)" d="M247.876 572.87 L253.606 572.87 L253.606 553.095 L247.373 554.345 L247.373 551.151 L253.571 549.901 L257.078 549.901 L257.078 572.87 L262.807 572.87 L262.807 575.821 L247.876 575.821 L247.876 572.87 Z" fill="#4c4c4c" fill-rule="evenodd" fill-opacity="1" /><path clip-path="url(#clip460)" d="M193.97 334.423 L216.227 334.423 L216.227 337.374 L193.97 337.374 L193.97 334.423 Z" fill="#4c4c4c" fill-rule="evenodd" fill-opacity="1" /><path clip-path="url(#clip460)" d="M224.404 344.093 L230.133 344.093 L230.133 324.319 L223.901 325.569 L223.901 322.374 L230.099 321.124 L233.606 321.124 L233.606 344.093 L239.335 344.093 L239.335 347.044 L224.404 347.044 L224.404 344.093 Z" fill="#4c4c4c" fill-rule="evenodd" fill-opacity="1" /><path clip-path="url(#clip460)" d="M253.918 334.735 Q251.418 334.735 249.977 336.072 Q248.553 337.409 248.553 339.753 Q248.553 342.096 249.977 343.433 Q251.418 344.77 253.918 344.77 Q256.418 344.77 257.859 343.433 Q259.3 342.079 259.3 339.753 Q259.3 337.409 257.859 336.072 Q256.435 334.735 253.918 334.735 M250.411 333.242 Q248.154 332.687 246.887 331.142 Q245.637 329.596 245.637 327.374 Q245.637 324.267 247.842 322.461 Q250.064 320.656 253.918 320.656 Q257.79 320.656 259.994 322.461 Q262.199 324.267 262.199 327.374 Q262.199 329.596 260.932 331.142 Q259.682 332.687 257.442 333.242 Q259.977 333.833 261.383 335.551 Q262.807 337.27 262.807 339.753 Q262.807 343.52 260.498 345.534 Q258.206 347.548 253.918 347.548 Q249.63 347.548 247.321 345.534 Q245.029 343.52 245.029 339.753 Q245.029 337.27 246.453 335.551 Q247.876 333.833 250.411 333.242 M249.126 327.704 Q249.126 329.718 250.376 330.846 Q251.644 331.975 253.918 331.975 Q256.175 331.975 257.442 330.846 Q258.727 329.718 258.727 327.704 Q258.727 325.69 257.442 324.562 Q256.175 323.433 253.918 323.433 Q251.644 323.433 250.376 324.562 Q249.126 325.69 249.126 327.704 Z" fill="#4c4c4c" fill-rule="evenodd" fill-opacity="1" /><path clip-path="url(#clip460)" d="M130.608 973.882 L130.608 944.646 L134.544 944.646 L134.544 956.915 L165.168 956.915 L165.168 961.614 L134.544 961.614 L134.544 973.882 L130.608 973.882 Z" fill="#000000" fill-rule="evenodd" fill-opacity="1" /><path clip-path="url(#clip460)" d="M151.141 926.198 L153.224 926.198 L153.224 945.781 Q157.622 945.503 159.937 943.142 Q162.229 940.758 162.229 936.522 Q162.229 934.068 161.627 931.776 Q161.025 929.461 159.821 927.193 L163.849 927.193 Q164.821 929.485 165.33 931.892 Q165.84 934.299 165.84 936.776 Q165.84 942.98 162.229 946.614 Q158.617 950.225 152.46 950.225 Q146.094 950.225 142.368 946.799 Q138.618 943.35 138.618 937.517 Q138.618 932.285 141.997 929.253 Q145.354 926.198 151.141 926.198 M149.891 930.457 Q146.395 930.503 144.312 932.424 Q142.229 934.322 142.229 937.471 Q142.229 941.035 144.243 943.188 Q146.256 945.318 149.914 945.642 L149.891 930.457 Z" fill="#000000" fill-rule="evenodd" fill-opacity="1" /><path clip-path="url(#clip460)" d="M140.006 902.679 L144.034 902.679 Q143.108 904.485 142.645 906.429 Q142.182 908.374 142.182 910.457 Q142.182 913.628 143.155 915.225 Q144.127 916.799 146.071 916.799 Q147.553 916.799 148.409 915.665 Q149.243 914.531 150.006 911.105 L150.33 909.647 Q151.303 905.11 153.085 903.212 Q154.844 901.29 158.016 901.29 Q161.627 901.29 163.733 904.161 Q165.84 907.008 165.84 912.008 Q165.84 914.091 165.423 916.36 Q165.029 918.605 164.219 921.105 L159.821 921.105 Q161.048 918.744 161.673 916.452 Q162.275 914.161 162.275 911.915 Q162.275 908.906 161.256 907.286 Q160.215 905.665 158.34 905.665 Q156.604 905.665 155.678 906.846 Q154.752 908.003 153.895 911.961 L153.548 913.443 Q152.715 917.401 151.002 919.161 Q149.266 920.92 146.256 920.92 Q142.599 920.92 140.608 918.327 Q138.618 915.735 138.618 910.966 Q138.618 908.605 138.965 906.522 Q139.312 904.438 140.006 902.679 Z" fill="#000000" fill-rule="evenodd" fill-opacity="1" /><path clip-path="url(#clip460)" d="M131.882 890.295 L139.243 890.295 L139.243 881.522 L142.553 881.522 L142.553 890.295 L156.627 890.295 Q159.798 890.295 160.701 889.438 Q161.604 888.559 161.604 885.897 L161.604 881.522 L165.168 881.522 L165.168 885.897 Q165.168 890.827 163.34 892.702 Q161.488 894.577 156.627 894.577 L142.553 894.577 L142.553 897.702 L139.243 897.702 L139.243 894.577 L131.882 894.577 L131.882 890.295 Z" fill="#000000" fill-rule="evenodd" fill-opacity="1" /><path clip-path="url(#clip460)" d="M129.15 860.851 L129.15 856.591 L165.168 856.591 L165.168 860.851 L129.15 860.851 Z" fill="#000000" fill-rule="evenodd" fill-opacity="1" /><path clip-path="url(#clip460)" d="M142.229 837.633 Q142.229 841.059 144.914 843.05 Q147.576 845.041 152.229 845.041 Q156.881 845.041 159.567 843.073 Q162.229 841.082 162.229 837.633 Q162.229 834.23 159.543 832.24 Q156.858 830.249 152.229 830.249 Q147.622 830.249 144.937 832.24 Q142.229 834.23 142.229 837.633 M138.618 837.633 Q138.618 832.078 142.229 828.906 Q145.84 825.735 152.229 825.735 Q158.594 825.735 162.229 828.906 Q165.84 832.078 165.84 837.633 Q165.84 843.212 162.229 846.383 Q158.594 849.531 152.229 849.531 Q145.84 849.531 142.229 846.383 Q138.618 843.212 138.618 837.633 Z" fill="#000000" fill-rule="evenodd" fill-opacity="1" /><path clip-path="url(#clip460)" d="M151.905 801.615 Q147.275 801.615 144.729 803.536 Q142.182 805.434 142.182 808.883 Q142.182 812.309 144.729 814.231 Q147.275 816.129 151.905 816.129 Q156.511 816.129 159.057 814.231 Q161.604 812.309 161.604 808.883 Q161.604 805.434 159.057 803.536 Q156.511 801.615 151.905 801.615 M161.951 797.356 Q168.571 797.356 171.789 800.295 Q175.029 803.235 175.029 809.3 Q175.029 811.545 174.682 813.536 Q174.358 815.527 173.664 817.402 L169.52 817.402 Q170.539 815.527 171.025 813.698 Q171.511 811.869 171.511 809.971 Q171.511 805.781 169.312 803.698 Q167.136 801.615 162.715 801.615 L160.608 801.615 Q162.9 802.934 164.034 804.994 Q165.168 807.055 165.168 809.925 Q165.168 814.693 161.534 817.61 Q157.9 820.527 151.905 820.527 Q145.886 820.527 142.252 817.61 Q138.618 814.693 138.618 809.925 Q138.618 807.055 139.752 804.994 Q140.886 802.934 143.178 801.615 L139.243 801.615 L139.243 797.356 L161.951 797.356 Z" fill="#000000" fill-rule="evenodd" fill-opacity="1" /><path clip-path="url(#clip460)" d="M150.284 790.735 L150.284 778.258 L154.08 778.258 L154.08 790.735 L150.284 790.735 Z" fill="#000000" fill-rule="evenodd" fill-opacity="1" /><path clip-path="url(#clip460)" d="M129.15 771.476 L129.15 767.217 L165.168 767.217 L165.168 771.476 L129.15 771.476 Z" fill="#000000" fill-rule="evenodd" fill-opacity="1" /><path clip-path="url(#clip460)" d="M139.243 758.305 L139.243 754.046 L165.168 754.046 L165.168 758.305 L139.243 758.305 M129.15 758.305 L129.15 754.046 L134.544 754.046 L134.544 758.305 L129.15 758.305 Z" fill="#000000" fill-rule="evenodd" fill-opacity="1" /><path clip-path="url(#clip460)" d="M129.15 745.296 L129.15 741.013 L150.423 741.013 L139.243 728.305 L139.243 722.865 L151.372 736.615 L165.168 722.287 L165.168 727.842 L152.506 741.013 L165.168 741.013 L165.168 745.296 L129.15 745.296 Z" fill="#000000" fill-rule="evenodd" fill-opacity="1" /><path clip-path="url(#clip460)" d="M151.141 697.194 L153.224 697.194 L153.224 716.777 Q157.622 716.5 159.937 714.138 Q162.229 711.754 162.229 707.518 Q162.229 705.064 161.627 702.773 Q161.025 700.458 159.821 698.189 L163.849 698.189 Q164.821 700.481 165.33 702.889 Q165.84 705.296 165.84 707.773 Q165.84 713.976 162.229 717.611 Q158.617 721.222 152.46 721.222 Q146.094 721.222 142.368 717.796 Q138.618 714.347 138.618 708.513 Q138.618 703.282 141.997 700.25 Q145.354 697.194 151.141 697.194 M149.891 701.453 Q146.395 701.5 144.312 703.421 Q142.229 705.319 142.229 708.467 Q142.229 712.032 144.243 714.185 Q146.256 716.314 149.914 716.638 L149.891 701.453 Z" fill="#000000" fill-rule="evenodd" fill-opacity="1" /><path clip-path="url(#clip460)" d="M129.15 690.203 L129.15 685.944 L165.168 685.944 L165.168 690.203 L129.15 690.203 Z" fill="#000000" fill-rule="evenodd" fill-opacity="1" /><path clip-path="url(#clip460)" d="M139.243 677.032 L139.243 672.773 L165.168 672.773 L165.168 677.032 L139.243 677.032 M129.15 677.032 L129.15 672.773 L134.544 672.773 L134.544 677.032 L129.15 677.032 Z" fill="#000000" fill-rule="evenodd" fill-opacity="1" /><path clip-path="url(#clip460)" d="M149.52 642.31 L165.168 642.31 L165.168 646.569 L149.659 646.569 Q145.979 646.569 144.15 648.005 Q142.321 649.44 142.321 652.31 Q142.321 655.759 144.52 657.75 Q146.719 659.741 150.516 659.741 L165.168 659.741 L165.168 664.023 L129.15 664.023 L129.15 659.741 L143.27 659.741 Q140.932 658.213 139.775 656.153 Q138.618 654.069 138.618 651.361 Q138.618 646.893 141.395 644.602 Q144.15 642.31 149.52 642.31 Z" fill="#000000" fill-rule="evenodd" fill-opacity="1" /><path clip-path="url(#clip460)" d="M142.229 623.769 Q142.229 627.194 144.914 629.185 Q147.576 631.176 152.229 631.176 Q156.881 631.176 159.567 629.208 Q162.229 627.218 162.229 623.769 Q162.229 620.366 159.543 618.375 Q156.858 616.384 152.229 616.384 Q147.622 616.384 144.937 618.375 Q142.229 620.366 142.229 623.769 M138.618 623.769 Q138.618 618.213 142.229 615.042 Q145.84 611.87 152.229 611.87 Q158.594 611.87 162.229 615.042 Q165.84 618.213 165.84 623.769 Q165.84 629.347 162.229 632.519 Q158.594 635.667 152.229 635.667 Q145.84 635.667 142.229 632.519 Q138.618 629.347 138.618 623.769 Z" fill="#000000" fill-rule="evenodd" fill-opacity="1" /><path clip-path="url(#clip460)" d="M142.229 594.764 Q142.229 598.19 144.914 600.181 Q147.576 602.171 152.229 602.171 Q156.881 602.171 159.567 600.204 Q162.229 598.213 162.229 594.764 Q162.229 591.361 159.543 589.371 Q156.858 587.38 152.229 587.38 Q147.622 587.38 144.937 589.371 Q142.229 591.361 142.229 594.764 M138.618 594.764 Q138.618 589.209 142.229 586.037 Q145.84 582.866 152.229 582.866 Q158.594 582.866 162.229 586.037 Q165.84 589.209 165.84 594.764 Q165.84 600.343 162.229 603.514 Q158.594 606.662 152.229 606.662 Q145.84 606.662 142.229 603.514 Q138.618 600.343 138.618 594.764 Z" fill="#000000" fill-rule="evenodd" fill-opacity="1" /><path clip-path="url(#clip460)" d="M143.178 558.746 L129.15 558.746 L129.15 554.487 L165.168 554.487 L165.168 558.746 L161.28 558.746 Q163.594 560.088 164.729 562.149 Q165.84 564.186 165.84 567.056 Q165.84 571.755 162.09 574.718 Q158.34 577.658 152.229 577.658 Q146.118 577.658 142.368 574.718 Q138.618 571.755 138.618 567.056 Q138.618 564.186 139.752 562.149 Q140.863 560.088 143.178 558.746 M152.229 573.26 Q156.928 573.26 159.613 571.338 Q162.275 569.394 162.275 566.014 Q162.275 562.635 159.613 560.69 Q156.928 558.746 152.229 558.746 Q147.53 558.746 144.868 560.69 Q142.182 562.635 142.182 566.014 Q142.182 569.394 144.868 571.338 Q147.53 573.26 152.229 573.26 Z" fill="#000000" fill-rule="evenodd" fill-opacity="1" /><path clip-path="url(#clip460)" d="M1319.04 35.5496 Q1312.59 35.5496 1310.1 37.0253 Q1307.61 38.501 1307.61 42.06 Q1307.61 44.8956 1309.46 46.5738 Q1311.34 48.2231 1314.56 48.2231 Q1318.98 48.2231 1321.64 45.0981 Q1324.34 41.9442 1324.34 36.7359 L1324.34 35.5496 L1319.04 35.5496 M1329.66 33.3505 L1329.66 51.84 L1324.34 51.84 L1324.34 46.921 Q1322.51 49.8724 1319.79 51.2902 Q1317.07 52.6791 1313.14 52.6791 Q1308.16 52.6791 1305.21 49.9014 Q1302.29 47.0947 1302.29 42.4072 Q1302.29 36.9385 1305.93 34.1607 Q1309.61 31.3829 1316.87 31.3829 L1324.34 31.3829 L1324.34 30.8621 Q1324.34 27.1874 1321.91 25.1908 Q1319.5 23.1654 1315.13 23.1654 Q1312.36 23.1654 1309.72 23.8309 Q1307.09 24.4964 1304.66 25.8274 L1304.66 20.9085 Q1307.58 19.78 1310.33 19.2302 Q1313.08 18.6515 1315.68 18.6515 Q1322.72 18.6515 1326.19 22.2973 Q1329.66 25.9431 1329.66 33.3505 Z" fill="#000000" fill-rule="evenodd" fill-opacity="1" /><path clip-path="url(#clip460)" d="M1361.95 24.3517 L1361.95 6.81709 L1367.28 6.81709 L1367.28 51.84 L1361.95 51.84 L1361.95 46.9789 Q1360.27 49.8724 1357.7 51.2902 Q1355.15 52.6791 1351.56 52.6791 Q1345.69 52.6791 1341.99 47.9916 Q1338.31 43.3042 1338.31 35.6653 Q1338.31 28.0265 1341.99 23.339 Q1345.69 18.6515 1351.56 18.6515 Q1355.15 18.6515 1357.7 20.0693 Q1360.27 21.4582 1361.95 24.3517 M1343.81 35.6653 Q1343.81 41.5391 1346.21 44.8956 Q1348.64 48.2231 1352.87 48.2231 Q1357.09 48.2231 1359.52 44.8956 Q1361.95 41.5391 1361.95 35.6653 Q1361.95 29.7915 1359.52 26.464 Q1357.09 23.1075 1352.87 23.1075 Q1348.64 23.1075 1346.21 26.464 Q1343.81 29.7915 1343.81 35.6653 Z" fill="#000000" fill-rule="evenodd" fill-opacity="1" /><polyline clip-path="url(#clip462)" style="stroke:#e26f46; stroke-linecap:butt; stroke-linejoin:round; stroke-width:8; stroke-opacity:1; fill:none" points="
  403.977,466.012 433.527,466.012 463.076,466.012 492.625,466.012 522.175,466.012 551.724,466.012 581.273,466.012 610.823,466.012 640.372,466.012 669.921,466.012 
  699.471,466.012 729.02,466.012 758.569,466.012 788.119,466.012 817.668,466.012 847.217,466.012 876.767,466.012 906.316,466.012 935.865,466.012 965.415,466.012 
  994.964,466.012 1024.51,466.012 1054.06,466.012 1083.61,466.012 1113.16,466.012 1142.71,466.012 1172.26,466.012 1201.81,466.012 1231.36,466.012 1260.91,466.012 
  1290.46,466.012 1320.01,466.012 1349.56,466.012 1379.11,466.012 1408.65,466.012 1438.2,466.012 1467.75,466.012 1497.3,466.012 1526.85,466.012 1556.4,466.012 
  1585.95,466.012 1615.5,466.012 1645.05,466.012 1674.6,466.012 1704.15,466.012 1733.7,466.012 1763.25,466.012 1792.8,466.012 1822.35,466.012 1851.89,466.012 
  1881.44,466.012 1910.99,466.012 1940.54,466.012 1970.09,466.012 1999.64,466.012 2029.19,466.012 2058.74,466.012 2088.29,466.012 2117.84,466.012 2147.39,466.012 
  2176.94,466.012 2206.49,466.012 2236.04,466.012 2265.59,466.012 2295.13,466.012 
  "/>
<polyline clip-path="url(#clip462)" style="stroke:#3da44d; stroke-linecap:butt; stroke-linejoin:round; stroke-width:8; stroke-opacity:1; fill:none" points="
  403.977,210.545 433.527,210.545 463.076,210.545 492.625,210.545 522.175,210.545 551.724,210.545 581.273,210.545 610.823,210.545 640.372,210.545 669.921,210.545 
  699.471,210.545 729.02,210.545 758.569,210.545 788.119,210.545 817.668,210.545 847.217,210.545 876.767,210.545 906.316,210.545 935.865,210.545 965.415,210.545 
  994.964,210.545 1024.51,210.545 1054.06,210.545 1083.61,210.545 1113.16,210.545 1142.71,210.545 1172.26,210.545 1201.81,210.545 1231.36,210.545 1260.91,210.545 
  1290.46,210.545 1320.01,210.545 1349.56,210.545 1379.11,210.545 1408.65,210.545 1438.2,210.545 1467.75,210.545 1497.3,210.545 1526.85,210.545 1556.4,210.545 
  1585.95,210.545 1615.5,210.545 1645.05,210.545 1674.6,210.545 1704.15,210.545 1733.7,210.545 1763.25,210.545 1792.8,210.545 1822.35,210.545 1851.89,210.545 
  1881.44,210.545 1910.99,210.545 1940.54,210.545 1970.09,210.545 1999.64,210.545 2029.19,210.545 2058.74,210.545 2088.29,210.545 2117.84,210.545 2147.39,210.545 
  2176.94,210.545 2206.49,210.545 2236.04,210.545 2265.59,210.545 2295.13,210.545 
  "/>
<polyline clip-path="url(#clip462)" style="stroke:#c271d2; stroke-linecap:butt; stroke-linejoin:round; stroke-width:8; stroke-opacity:1; fill:none" points="
  403.977,1384.93 433.527,1384.93 463.076,1384.93 492.625,1384.93 522.175,1384.93 551.724,1384.93 581.273,1384.93 610.823,1384.93 640.372,1384.93 669.921,1384.93 
  699.471,1384.93 729.02,1384.93 758.569,1384.93 788.119,1384.93 817.668,1384.93 847.217,1384.93 876.767,1384.93 906.316,1384.93 935.865,1384.93 965.415,1384.93 
  994.964,1384.93 1024.51,1384.93 1054.06,1384.93 1083.61,1384.93 1113.16,1384.93 1142.71,1384.93 1172.26,1384.93 1201.81,1384.93 1231.36,1384.93 1260.91,1384.93 
  1290.46,1384.93 1320.01,1384.93 1349.56,1384.93 1379.11,1384.93 1408.65,1384.93 1438.2,1384.93 1467.75,1384.93 1497.3,1384.93 1526.85,1384.93 1556.4,1384.93 
  1585.95,1384.93 1615.5,1384.93 1645.05,1384.93 1674.6,1384.93 1704.15,1384.93 1733.7,1384.93 1763.25,1384.93 1792.8,1384.93 1822.35,1384.93 1851.89,1384.93 
  1881.44,1384.93 1910.99,1384.93 1940.54,1384.93 1970.09,1384.93 1999.64,1384.93 2029.19,1384.93 2058.74,1384.93 2088.29,1384.93 2117.84,1384.93 2147.39,1384.93 
  2176.94,1384.93 2206.49,1384.93 2236.04,1384.93 2265.59,1384.93 2295.13,1384.93 
  "/>
<polyline clip-path="url(#clip462)" style="stroke:#ac8d18; stroke-linecap:butt; stroke-linejoin:round; stroke-width:8; stroke-opacity:1; fill:none" points="
  403.977,143.437 433.527,143.437 463.076,143.437 492.625,143.437 522.175,143.437 551.724,143.437 581.273,143.437 610.823,143.437 640.372,143.437 669.921,143.437 
  699.471,143.437 729.02,143.437 758.569,143.437 788.119,143.437 817.668,143.437 847.217,143.437 876.767,143.437 906.316,143.437 935.865,143.437 965.415,143.437 
  994.964,143.437 1024.51,143.437 1054.06,143.437 1083.61,143.437 1113.16,143.437 1142.71,143.437 1172.26,143.437 1201.81,143.437 1231.36,143.437 1260.91,143.437 
  1290.46,143.437 1320.01,143.437 1349.56,143.437 1379.11,143.437 1408.65,143.437 1438.2,143.437 1467.75,143.437 1497.3,143.437 1526.85,143.437 1556.4,143.437 
  1585.95,143.437 1615.5,143.437 1645.05,143.437 1674.6,143.437 1704.15,143.437 1733.7,143.437 1763.25,143.437 1792.8,143.437 1822.35,143.437 1851.89,143.437 
  1881.44,143.437 1910.99,143.437 1940.54,143.437 1970.09,143.437 1999.64,143.437 2029.19,143.437 2058.74,143.437 2088.29,143.437 2117.84,143.437 2147.39,143.437 
  2176.94,143.437 2206.49,143.437 2236.04,143.437 2265.59,143.437 2295.13,143.437 
  "/>
<polyline clip-path="url(#clip462)" style="stroke:#00a9ad; stroke-linecap:butt; stroke-linejoin:round; stroke-width:8; stroke-opacity:1; fill:none" points="
  403.977,788.587 433.527,788.587 463.076,788.587 492.625,788.587 522.175,788.587 551.724,788.587 581.273,788.587 610.823,788.587 640.372,788.587 669.921,788.587 
  699.471,788.587 729.02,788.587 758.569,788.587 788.119,788.587 817.668,788.587 847.217,788.587 876.767,788.587 906.316,788.587 935.865,788.587 965.415,788.587 
  994.964,788.587 1024.51,788.587 1054.06,788.587 1083.61,788.587 1113.16,788.587 1142.71,788.587 1172.26,788.587 1201.81,788.587 1231.36,788.587 1260.91,788.587 
  1290.46,788.587 1320.01,788.587 1349.56,788.587 1379.11,788.587 1408.65,788.587 1438.2,788.587 1467.75,788.587 1497.3,788.587 1526.85,788.587 1556.4,788.587 
  1585.95,788.587 1615.5,788.587 1645.05,788.587 1674.6,788.587 1704.15,788.587 1733.7,788.587 1763.25,788.587 1792.8,788.587 1822.35,788.587 1851.89,788.587 
  1881.44,788.587 1910.99,788.587 1940.54,788.587 1970.09,788.587 1999.64,788.587 2029.19,788.587 2058.74,788.587 2088.29,788.587 2117.84,788.587 2147.39,788.587 
  2176.94,788.587 2206.49,788.587 2236.04,788.587 2265.59,788.587 2295.13,788.587 
  "/>
<polyline clip-path="url(#clip462)" style="stroke:#009af9; stroke-linecap:butt; stroke-linejoin:round; stroke-width:12; stroke-opacity:1; fill:none" points="
  403.977,741.901 433.527,731.722 463.076,661.877 492.625,593.264 522.175,616.767 551.724,604.996 581.273,573.922 610.823,560.55 640.372,526.456 669.921,538.733 
  699.471,546.054 729.02,504.408 758.569,502.4 788.119,506.583 817.668,516.929 847.217,511.582 876.767,502.333 906.316,513.968 935.865,510.543 965.415,505.787 
  994.964,489.464 1024.51,496.899 1054.06,506.201 1083.61,505.009 1113.16,491.823 1142.71,500.516 1172.26,485.705 1201.81,503.881 1231.36,501.808 1260.91,495.215 
  1290.46,489.968 1320.01,493.093 1349.56,499.035 1379.11,498.348 1408.65,489.892 1438.2,493.257 1467.75,484.739 1497.3,504.042 1526.85,499.131 1556.4,490.899 
  1585.95,490.905 1615.5,495.702 1645.05,497.426 1674.6,499.818 1704.15,492.658 1733.7,498.222 1763.25,491.245 1792.8,493.407 1822.35,488.595 1851.89,494.331 
  
  "/>
<polyline clip-path="url(#clip462)" style="stroke:#f05f73; stroke-linecap:butt; stroke-linejoin:round; stroke-width:12; stroke-opacity:1; fill:none" points="
  1851.89,494.331 1881.44,413.694 1910.99,413.295 1940.54,413.777 1970.09,413.752 1999.64,413.703 2029.19,413.624 2058.74,413.619 2088.29,413.638 2117.84,413.645 
  2147.39,413.636 2176.94,413.571 2206.49,413.359 2236.04,413.114 2265.59,412.837 2295.13,412.396 
  "/>
</svg>
