<?xml version="1.0" encoding="utf-8"?>
<svg xmlns="http://www.w3.org/2000/svg" xmlns:xlink="http://www.w3.org/1999/xlink" width="600" height="400" viewBox="0 0 2400 1600">
<defs>
  <clipPath id="clip080">
    <rect x="0" y="0" width="2400" height="1600"/>
  </clipPath>
</defs>
<path clip-path="url(#clip080)" d="
M0 1600 L2400 1600 L2400 0 L0 0  Z
  " fill="#ffffff" fill-rule="evenodd" fill-opacity="1"/>
<defs>
  <clipPath id="clip081">
    <rect x="480" y="0" width="1681" height="1600"/>
  </clipPath>
</defs>
<path clip-path="url(#clip080)" d="
M206.571 1444.78 L2352.76 1444.78 L2352.76 106.192 L206.571 106.192  Z
  " fill="#eaeaea" fill-rule="evenodd" fill-opacity="1"/>
<defs>
  <clipPath id="clip082">
    <rect x="206" y="106" width="2147" height="1340"/>
  </clipPath>
</defs>
<polyline clip-path="url(#clip082)" style="stroke:#ffffff; stroke-linecap:butt; stroke-linejoin:round; stroke-width:4; stroke-opacity:1; fill:none" points="
  267.312,1444.78 267.312,106.192 
  "/>
<polyline clip-path="url(#clip082)" style="stroke:#ffffff; stroke-linecap:butt; stroke-linejoin:round; stroke-width:4; stroke-opacity:1; fill:none" points="
  469.782,1444.78 469.782,106.192 
  "/>
<polyline clip-path="url(#clip082)" style="stroke:#ffffff; stroke-linecap:butt; stroke-linejoin:round; stroke-width:4; stroke-opacity:1; fill:none" points="
  672.252,1444.78 672.252,106.192 
  "/>
<polyline clip-path="url(#clip082)" style="stroke:#ffffff; stroke-linecap:butt; stroke-linejoin:round; stroke-width:4; stroke-opacity:1; fill:none" points="
  874.723,1444.78 874.723,106.192 
  "/>
<polyline clip-path="url(#clip082)" style="stroke:#ffffff; stroke-linecap:butt; stroke-linejoin:round; stroke-width:4; stroke-opacity:1; fill:none" points="
  1077.19,1444.78 1077.19,106.192 
  "/>
<polyline clip-path="url(#clip082)" style="stroke:#ffffff; stroke-linecap:butt; stroke-linejoin:round; stroke-width:4; stroke-opacity:1; fill:none" points="
  1279.66,1444.78 1279.66,106.192 
  "/>
<polyline clip-path="url(#clip082)" style="stroke:#ffffff; stroke-linecap:butt; stroke-linejoin:round; stroke-width:4; stroke-opacity:1; fill:none" points="
  1482.13,1444.78 1482.13,106.192 
  "/>
<polyline clip-path="url(#clip082)" style="stroke:#ffffff; stroke-linecap:butt; stroke-linejoin:round; stroke-width:4; stroke-opacity:1; fill:none" points="
  1684.6,1444.78 1684.6,106.192 
  "/>
<polyline clip-path="url(#clip082)" style="stroke:#ffffff; stroke-linecap:butt; stroke-linejoin:round; stroke-width:4; stroke-opacity:1; fill:none" points="
  1887.07,1444.78 1887.07,106.192 
  "/>
<polyline clip-path="url(#clip082)" style="stroke:#ffffff; stroke-linecap:butt; stroke-linejoin:round; stroke-width:4; stroke-opacity:1; fill:none" points="
  2089.54,1444.78 2089.54,106.192 
  "/>
<polyline clip-path="url(#clip082)" style="stroke:#ffffff; stroke-linecap:butt; stroke-linejoin:round; stroke-width:4; stroke-opacity:1; fill:none" points="
  2292.01,1444.78 2292.01,106.192 
  "/>
<polyline clip-path="url(#clip082)" style="stroke:#ffffff; stroke-linecap:butt; stroke-linejoin:round; stroke-width:2; stroke-opacity:1; fill:none" points="
  368.547,1444.78 368.547,106.192 
  "/>
<polyline clip-path="url(#clip082)" style="stroke:#ffffff; stroke-linecap:butt; stroke-linejoin:round; stroke-width:2; stroke-opacity:1; fill:none" points="
  571.017,1444.78 571.017,106.192 
  "/>
<polyline clip-path="url(#clip082)" style="stroke:#ffffff; stroke-linecap:butt; stroke-linejoin:round; stroke-width:2; stroke-opacity:1; fill:none" points="
  773.487,1444.78 773.487,106.192 
  "/>
<polyline clip-path="url(#clip082)" style="stroke:#ffffff; stroke-linecap:butt; stroke-linejoin:round; stroke-width:2; stroke-opacity:1; fill:none" points="
  975.958,1444.78 975.958,106.192 
  "/>
<polyline clip-path="url(#clip082)" style="stroke:#ffffff; stroke-linecap:butt; stroke-linejoin:round; stroke-width:2; stroke-opacity:1; fill:none" points="
  1178.43,1444.78 1178.43,106.192 
  "/>
<polyline clip-path="url(#clip082)" style="stroke:#ffffff; stroke-linecap:butt; stroke-linejoin:round; stroke-width:2; stroke-opacity:1; fill:none" points="
  1380.9,1444.78 1380.9,106.192 
  "/>
<polyline clip-path="url(#clip082)" style="stroke:#ffffff; stroke-linecap:butt; stroke-linejoin:round; stroke-width:2; stroke-opacity:1; fill:none" points="
  1583.37,1444.78 1583.37,106.192 
  "/>
<polyline clip-path="url(#clip082)" style="stroke:#ffffff; stroke-linecap:butt; stroke-linejoin:round; stroke-width:2; stroke-opacity:1; fill:none" points="
  1785.84,1444.78 1785.84,106.192 
  "/>
<polyline clip-path="url(#clip082)" style="stroke:#ffffff; stroke-linecap:butt; stroke-linejoin:round; stroke-width:2; stroke-opacity:1; fill:none" points="
  1988.31,1444.78 1988.31,106.192 
  "/>
<polyline clip-path="url(#clip082)" style="stroke:#ffffff; stroke-linecap:butt; stroke-linejoin:round; stroke-width:2; stroke-opacity:1; fill:none" points="
  2190.78,1444.78 2190.78,106.192 
  "/>
<polyline clip-path="url(#clip080)" style="stroke:#ffffff; stroke-linecap:butt; stroke-linejoin:round; stroke-width:4; stroke-opacity:1; fill:none" points="
  206.571,1444.78 2352.76,1444.78 
  "/>
<polyline clip-path="url(#clip080)" style="stroke:#333333; stroke-linecap:butt; stroke-linejoin:round; stroke-width:4; stroke-opacity:1; fill:none" points="
  267.312,1444.78 267.312,1463.68 
  "/>
<polyline clip-path="url(#clip080)" style="stroke:#333333; stroke-linecap:butt; stroke-linejoin:round; stroke-width:4; stroke-opacity:1; fill:none" points="
  469.782,1444.78 469.782,1463.68 
  "/>
<polyline clip-path="url(#clip080)" style="stroke:#333333; stroke-linecap:butt; stroke-linejoin:round; stroke-width:4; stroke-opacity:1; fill:none" points="
  672.252,1444.78 672.252,1463.68 
  "/>
<polyline clip-path="url(#clip080)" style="stroke:#333333; stroke-linecap:butt; stroke-linejoin:round; stroke-width:4; stroke-opacity:1; fill:none" points="
  874.723,1444.78 874.723,1463.68 
  "/>
<polyline clip-path="url(#clip080)" style="stroke:#333333; stroke-linecap:butt; stroke-linejoin:round; stroke-width:4; stroke-opacity:1; fill:none" points="
  1077.19,1444.78 1077.19,1463.68 
  "/>
<polyline clip-path="url(#clip080)" style="stroke:#333333; stroke-linecap:butt; stroke-linejoin:round; stroke-width:4; stroke-opacity:1; fill:none" points="
  1279.66,1444.78 1279.66,1463.68 
  "/>
<polyline clip-path="url(#clip080)" style="stroke:#333333; stroke-linecap:butt; stroke-linejoin:round; stroke-width:4; stroke-opacity:1; fill:none" points="
  1482.13,1444.78 1482.13,1463.68 
  "/>
<polyline clip-path="url(#clip080)" style="stroke:#333333; stroke-linecap:butt; stroke-linejoin:round; stroke-width:4; stroke-opacity:1; fill:none" points="
  1684.6,1444.78 1684.6,1463.68 
  "/>
<polyline clip-path="url(#clip080)" style="stroke:#333333; stroke-linecap:butt; stroke-linejoin:round; stroke-width:4; stroke-opacity:1; fill:none" points="
  1887.07,1444.78 1887.07,1463.68 
  "/>
<polyline clip-path="url(#clip080)" style="stroke:#333333; stroke-linecap:butt; stroke-linejoin:round; stroke-width:4; stroke-opacity:1; fill:none" points="
  2089.54,1444.78 2089.54,1463.68 
  "/>
<polyline clip-path="url(#clip080)" style="stroke:#333333; stroke-linecap:butt; stroke-linejoin:round; stroke-width:4; stroke-opacity:1; fill:none" points="
  2292.01,1444.78 2292.01,1463.68 
  "/>
<polyline clip-path="url(#clip080)" style="stroke:#333333; stroke-linecap:butt; stroke-linejoin:round; stroke-width:4; stroke-opacity:1; fill:none" points="
  368.547,1444.78 368.547,1454.23 
  "/>
<polyline clip-path="url(#clip080)" style="stroke:#333333; stroke-linecap:butt; stroke-linejoin:round; stroke-width:4; stroke-opacity:1; fill:none" points="
  571.017,1444.78 571.017,1454.23 
  "/>
<polyline clip-path="url(#clip080)" style="stroke:#333333; stroke-linecap:butt; stroke-linejoin:round; stroke-width:4; stroke-opacity:1; fill:none" points="
  773.487,1444.78 773.487,1454.23 
  "/>
<polyline clip-path="url(#clip080)" style="stroke:#333333; stroke-linecap:butt; stroke-linejoin:round; stroke-width:4; stroke-opacity:1; fill:none" points="
  975.958,1444.78 975.958,1454.23 
  "/>
<polyline clip-path="url(#clip080)" style="stroke:#333333; stroke-linecap:butt; stroke-linejoin:round; stroke-width:4; stroke-opacity:1; fill:none" points="
  1178.43,1444.78 1178.43,1454.23 
  "/>
<polyline clip-path="url(#clip080)" style="stroke:#333333; stroke-linecap:butt; stroke-linejoin:round; stroke-width:4; stroke-opacity:1; fill:none" points="
  1380.9,1444.78 1380.9,1454.23 
  "/>
<polyline clip-path="url(#clip080)" style="stroke:#333333; stroke-linecap:butt; stroke-linejoin:round; stroke-width:4; stroke-opacity:1; fill:none" points="
  1583.37,1444.78 1583.37,1454.23 
  "/>
<polyline clip-path="url(#clip080)" style="stroke:#333333; stroke-linecap:butt; stroke-linejoin:round; stroke-width:4; stroke-opacity:1; fill:none" points="
  1785.84,1444.78 1785.84,1454.23 
  "/>
<polyline clip-path="url(#clip080)" style="stroke:#333333; stroke-linecap:butt; stroke-linejoin:round; stroke-width:4; stroke-opacity:1; fill:none" points="
  1988.31,1444.78 1988.31,1454.23 
  "/>
<polyline clip-path="url(#clip080)" style="stroke:#333333; stroke-linecap:butt; stroke-linejoin:round; stroke-width:4; stroke-opacity:1; fill:none" points="
  2190.78,1444.78 2190.78,1454.23 
  "/>
<path clip-path="url(#clip080)" d="M267.312 1482.37 Q264.603 1482.37 263.232 1485.04 Q261.878 1487.7 261.878 1493.05 Q261.878 1498.38 263.232 1501.05 Q264.603 1503.71 267.312 1503.71 Q270.037 1503.71 271.392 1501.05 Q272.763 1498.38 272.763 1493.05 Q272.763 1487.7 271.392 1485.04 Q270.037 1482.37 267.312 1482.37 M267.312 1479.59 Q271.669 1479.59 273.961 1483.05 Q276.27 1486.48 276.27 1493.05 Q276.27 1499.59 273.961 1503.05 Q271.669 1506.48 267.312 1506.48 Q262.954 1506.48 260.645 1503.05 Q258.353 1499.59 258.353 1493.05 Q258.353 1486.48 260.645 1483.05 Q262.954 1479.59 267.312 1479.59 Z" fill="#4c4c4c" fill-rule="evenodd" fill-opacity="1" /><path clip-path="url(#clip080)" d="M450.798 1503.03 L456.527 1503.03 L456.527 1483.25 L450.294 1484.5 L450.294 1481.31 L456.492 1480.06 L459.999 1480.06 L459.999 1503.03 L465.728 1503.03 L465.728 1505.98 L450.798 1505.98 L450.798 1503.03 Z" fill="#4c4c4c" fill-rule="evenodd" fill-opacity="1" /><path clip-path="url(#clip080)" d="M480.311 1482.37 Q477.603 1482.37 476.232 1485.04 Q474.877 1487.7 474.877 1493.05 Q474.877 1498.38 476.232 1501.05 Q477.603 1503.71 480.311 1503.71 Q483.037 1503.71 484.391 1501.05 Q485.763 1498.38 485.763 1493.05 Q485.763 1487.7 484.391 1485.04 Q483.037 1482.37 480.311 1482.37 M480.311 1479.59 Q484.669 1479.59 486.961 1483.05 Q489.27 1486.48 489.27 1493.05 Q489.27 1499.59 486.961 1503.05 Q484.669 1506.48 480.311 1506.48 Q475.954 1506.48 473.645 1503.05 Q471.353 1499.59 471.353 1493.05 Q471.353 1486.48 473.645 1483.05 Q475.954 1479.59 480.311 1479.59 Z" fill="#4c4c4c" fill-rule="evenodd" fill-opacity="1" /><path clip-path="url(#clip080)" d="M656.332 1503.03 L668.572 1503.03 L668.572 1505.98 L652.114 1505.98 L652.114 1503.03 Q654.11 1500.96 657.548 1497.49 Q661.002 1494 661.888 1492.99 Q663.572 1491.1 664.232 1489.8 Q664.909 1488.48 664.909 1487.21 Q664.909 1485.15 663.45 1483.84 Q662.009 1482.54 659.683 1482.54 Q658.034 1482.54 656.193 1483.12 Q654.37 1483.69 652.287 1484.85 L652.287 1481.31 Q654.405 1480.46 656.245 1480.03 Q658.086 1479.59 659.614 1479.59 Q663.641 1479.59 666.037 1481.6 Q668.433 1483.62 668.433 1486.99 Q668.433 1488.58 667.825 1490.03 Q667.235 1491.45 665.655 1493.39 Q665.221 1493.9 662.895 1496.31 Q660.568 1498.71 656.332 1503.03 Z" fill="#4c4c4c" fill-rule="evenodd" fill-opacity="1" /><path clip-path="url(#clip080)" d="M683.433 1482.37 Q680.725 1482.37 679.353 1485.04 Q677.999 1487.7 677.999 1493.05 Q677.999 1498.38 679.353 1501.05 Q680.725 1503.71 683.433 1503.71 Q686.159 1503.71 687.513 1501.05 Q688.884 1498.38 688.884 1493.05 Q688.884 1487.7 687.513 1485.04 Q686.159 1482.37 683.433 1482.37 M683.433 1479.59 Q687.79 1479.59 690.082 1483.05 Q692.391 1486.48 692.391 1493.05 Q692.391 1499.59 690.082 1503.05 Q687.79 1506.48 683.433 1506.48 Q679.075 1506.48 676.766 1503.05 Q674.475 1499.59 674.475 1493.05 Q674.475 1486.48 676.766 1483.05 Q679.075 1479.59 683.433 1479.59 Z" fill="#4c4c4c" fill-rule="evenodd" fill-opacity="1" /><path clip-path="url(#clip080)" d="M866.355 1492 Q868.872 1492.54 870.278 1494.24 Q871.702 1495.95 871.702 1498.45 Q871.702 1502.28 869.063 1504.38 Q866.424 1506.48 861.563 1506.48 Q859.931 1506.48 858.195 1506.15 Q856.476 1505.84 854.636 1505.2 L854.636 1501.81 Q856.094 1502.66 857.83 1503.1 Q859.566 1503.53 861.459 1503.53 Q864.757 1503.53 866.476 1502.23 Q868.212 1500.93 868.212 1498.45 Q868.212 1496.15 866.598 1494.87 Q865 1493.57 862.136 1493.57 L859.115 1493.57 L859.115 1490.68 L862.275 1490.68 Q864.862 1490.68 866.233 1489.66 Q867.605 1488.62 867.605 1486.67 Q867.605 1484.68 866.181 1483.62 Q864.775 1482.54 862.136 1482.54 Q860.695 1482.54 859.046 1482.85 Q857.396 1483.17 855.417 1483.83 L855.417 1480.7 Q857.414 1480.15 859.15 1479.87 Q860.903 1479.59 862.448 1479.59 Q866.441 1479.59 868.768 1481.41 Q871.094 1483.22 871.094 1486.31 Q871.094 1488.46 869.862 1489.96 Q868.629 1491.43 866.355 1492 Z" fill="#4c4c4c" fill-rule="evenodd" fill-opacity="1" /><path clip-path="url(#clip080)" d="M885.851 1482.37 Q883.143 1482.37 881.771 1485.04 Q880.417 1487.7 880.417 1493.05 Q880.417 1498.38 881.771 1501.05 Q883.143 1503.71 885.851 1503.71 Q888.577 1503.71 889.931 1501.05 Q891.302 1498.38 891.302 1493.05 Q891.302 1487.7 889.931 1485.04 Q888.577 1482.37 885.851 1482.37 M885.851 1479.59 Q890.209 1479.59 892.5 1483.05 Q894.809 1486.48 894.809 1493.05 Q894.809 1499.59 892.5 1503.05 Q890.209 1506.48 885.851 1506.48 Q881.493 1506.48 879.184 1503.05 Q876.893 1499.59 876.893 1493.05 Q876.893 1486.48 879.184 1483.05 Q881.493 1479.59 885.851 1479.59 Z" fill="#4c4c4c" fill-rule="evenodd" fill-opacity="1" /><path clip-path="url(#clip080)" d="M1068.32 1483.12 L1059.47 1496.95 L1068.32 1496.95 L1068.32 1483.12 M1067.4 1480.06 L1071.81 1480.06 L1071.81 1496.95 L1075.51 1496.95 L1075.51 1499.87 L1071.81 1499.87 L1071.81 1505.98 L1068.32 1505.98 L1068.32 1499.87 L1056.62 1499.87 L1056.62 1496.48 L1067.4 1480.06 Z" fill="#4c4c4c" fill-rule="evenodd" fill-opacity="1" /><path clip-path="url(#clip080)" d="M1088.81 1482.37 Q1086.1 1482.37 1084.73 1485.04 Q1083.37 1487.7 1083.37 1493.05 Q1083.37 1498.38 1084.73 1501.05 Q1086.1 1503.71 1088.81 1503.71 Q1091.53 1503.71 1092.89 1501.05 Q1094.26 1498.38 1094.26 1493.05 Q1094.26 1487.7 1092.89 1485.04 Q1091.53 1482.37 1088.81 1482.37 M1088.81 1479.59 Q1093.17 1479.59 1095.46 1483.05 Q1097.77 1486.48 1097.77 1493.05 Q1097.77 1499.59 1095.46 1503.05 Q1093.17 1506.48 1088.81 1506.48 Q1084.45 1506.48 1082.14 1503.05 Q1079.85 1499.59 1079.85 1493.05 Q1079.85 1486.48 1082.14 1483.05 Q1084.45 1479.59 1088.81 1479.59 Z" fill="#4c4c4c" fill-rule="evenodd" fill-opacity="1" /><path clip-path="url(#clip080)" d="M1260.69 1480.06 L1274.45 1480.06 L1274.45 1483.01 L1263.9 1483.01 L1263.9 1489.37 Q1264.66 1489.1 1265.43 1488.98 Q1266.19 1488.84 1266.95 1488.84 Q1271.3 1488.84 1273.83 1491.22 Q1276.36 1493.6 1276.36 1497.66 Q1276.36 1501.85 1273.76 1504.17 Q1271.16 1506.48 1266.42 1506.48 Q1264.78 1506.48 1263.08 1506.21 Q1261.4 1505.93 1259.59 1505.37 L1259.59 1501.85 Q1261.16 1502.7 1262.82 1503.12 Q1264.49 1503.53 1266.35 1503.53 Q1269.35 1503.53 1271.1 1501.95 Q1272.86 1500.37 1272.86 1497.66 Q1272.86 1494.96 1271.1 1493.38 Q1269.35 1491.8 1266.35 1491.8 Q1264.94 1491.8 1263.53 1492.11 Q1262.15 1492.42 1260.69 1493.08 L1260.69 1480.06 Z" fill="#4c4c4c" fill-rule="evenodd" fill-opacity="1" /><path clip-path="url(#clip080)" d="M1290.77 1482.37 Q1288.07 1482.37 1286.69 1485.04 Q1285.34 1487.7 1285.34 1493.05 Q1285.34 1498.38 1286.69 1501.05 Q1288.07 1503.71 1290.77 1503.71 Q1293.5 1503.71 1294.85 1501.05 Q1296.23 1498.38 1296.23 1493.05 Q1296.23 1487.7 1294.85 1485.04 Q1293.5 1482.37 1290.77 1482.37 M1290.77 1479.59 Q1295.13 1479.59 1297.42 1483.05 Q1299.73 1486.48 1299.73 1493.05 Q1299.73 1499.59 1297.42 1503.05 Q1295.13 1506.48 1290.77 1506.48 Q1286.42 1506.48 1284.11 1503.05 Q1281.82 1499.59 1281.82 1493.05 Q1281.82 1486.48 1284.11 1483.05 Q1286.42 1479.59 1290.77 1479.59 Z" fill="#4c4c4c" fill-rule="evenodd" fill-opacity="1" /><path clip-path="url(#clip080)" d="M1471.19 1491.62 Q1468.83 1491.62 1467.44 1493.24 Q1466.07 1494.85 1466.07 1497.66 Q1466.07 1500.46 1467.44 1502.09 Q1468.83 1503.71 1471.19 1503.71 Q1473.55 1503.71 1474.92 1502.09 Q1476.31 1500.46 1476.31 1497.66 Q1476.31 1494.85 1474.92 1493.24 Q1473.55 1491.62 1471.19 1491.62 M1478.15 1480.63 L1478.15 1483.83 Q1476.83 1483.2 1475.48 1482.87 Q1474.14 1482.54 1472.82 1482.54 Q1469.35 1482.54 1467.51 1484.89 Q1465.68 1487.23 1465.42 1491.97 Q1466.45 1490.46 1467.99 1489.66 Q1469.54 1488.84 1471.4 1488.84 Q1475.3 1488.84 1477.56 1491.22 Q1479.83 1493.58 1479.83 1497.66 Q1479.83 1501.66 1477.47 1504.07 Q1475.11 1506.48 1471.19 1506.48 Q1466.69 1506.48 1464.31 1503.05 Q1461.93 1499.59 1461.93 1493.05 Q1461.93 1486.9 1464.85 1483.25 Q1467.77 1479.59 1472.68 1479.59 Q1474 1479.59 1475.34 1479.85 Q1476.69 1480.11 1478.15 1480.63 Z" fill="#4c4c4c" fill-rule="evenodd" fill-opacity="1" /><path clip-path="url(#clip080)" d="M1493.37 1482.37 Q1490.67 1482.37 1489.29 1485.04 Q1487.94 1487.7 1487.94 1493.05 Q1487.94 1498.38 1489.29 1501.05 Q1490.67 1503.71 1493.37 1503.71 Q1496.1 1503.71 1497.45 1501.05 Q1498.83 1498.38 1498.83 1493.05 Q1498.83 1487.7 1497.45 1485.04 Q1496.1 1482.37 1493.37 1482.37 M1493.37 1479.59 Q1497.73 1479.59 1500.02 1483.05 Q1502.33 1486.48 1502.33 1493.05 Q1502.33 1499.59 1500.02 1503.05 Q1497.73 1506.48 1493.37 1506.48 Q1489.02 1506.48 1486.71 1503.05 Q1484.42 1499.59 1484.42 1493.05 Q1484.42 1486.48 1486.71 1483.05 Q1489.02 1479.59 1493.37 1479.59 Z" fill="#4c4c4c" fill-rule="evenodd" fill-opacity="1" /><path clip-path="url(#clip080)" d="M1664.62 1480.06 L1681.29 1480.06 L1681.29 1481.55 L1671.88 1505.98 L1668.22 1505.98 L1677.07 1483.01 L1664.62 1483.01 L1664.62 1480.06 Z" fill="#4c4c4c" fill-rule="evenodd" fill-opacity="1" /><path clip-path="url(#clip080)" d="M1695.63 1482.37 Q1692.92 1482.37 1691.55 1485.04 Q1690.19 1487.7 1690.19 1493.05 Q1690.19 1498.38 1691.55 1501.05 Q1692.92 1503.71 1695.63 1503.71 Q1698.35 1503.71 1699.71 1501.05 Q1701.08 1498.38 1701.08 1493.05 Q1701.08 1487.7 1699.71 1485.04 Q1698.35 1482.37 1695.63 1482.37 M1695.63 1479.59 Q1699.99 1479.59 1702.28 1483.05 Q1704.59 1486.48 1704.59 1493.05 Q1704.59 1499.59 1702.28 1503.05 Q1699.99 1506.48 1695.63 1506.48 Q1691.27 1506.48 1688.96 1503.05 Q1686.67 1499.59 1686.67 1493.05 Q1686.67 1486.48 1688.96 1483.05 Q1691.27 1479.59 1695.63 1479.59 Z" fill="#4c4c4c" fill-rule="evenodd" fill-opacity="1" /><path clip-path="url(#clip080)" d="M1875.73 1493.67 Q1873.23 1493.67 1871.79 1495.01 Q1870.36 1496.34 1870.36 1498.69 Q1870.36 1501.03 1871.79 1502.37 Q1873.23 1503.71 1875.73 1503.71 Q1878.23 1503.71 1879.67 1502.37 Q1881.11 1501.01 1881.11 1498.69 Q1881.11 1496.34 1879.67 1495.01 Q1878.25 1493.67 1875.73 1493.67 M1872.22 1492.18 Q1869.96 1491.62 1868.7 1490.08 Q1867.45 1488.53 1867.45 1486.31 Q1867.45 1483.2 1869.65 1481.4 Q1871.87 1479.59 1875.73 1479.59 Q1879.6 1479.59 1881.81 1481.4 Q1884.01 1483.2 1884.01 1486.31 Q1884.01 1488.53 1882.74 1490.08 Q1881.49 1491.62 1879.25 1492.18 Q1881.79 1492.77 1883.19 1494.49 Q1884.62 1496.21 1884.62 1498.69 Q1884.62 1502.46 1882.31 1504.47 Q1880.02 1506.48 1875.73 1506.48 Q1871.44 1506.48 1869.13 1504.47 Q1866.84 1502.46 1866.84 1498.69 Q1866.84 1496.21 1868.26 1494.49 Q1869.69 1492.77 1872.22 1492.18 M1870.94 1486.64 Q1870.94 1488.65 1872.19 1489.78 Q1873.45 1490.91 1875.73 1490.91 Q1877.99 1490.91 1879.25 1489.78 Q1880.54 1488.65 1880.54 1486.64 Q1880.54 1484.63 1879.25 1483.5 Q1877.99 1482.37 1875.73 1482.37 Q1873.45 1482.37 1872.19 1483.5 Q1870.94 1484.63 1870.94 1486.64 Z" fill="#4c4c4c" fill-rule="evenodd" fill-opacity="1" /><path clip-path="url(#clip080)" d="M1898.35 1482.37 Q1895.64 1482.37 1894.27 1485.04 Q1892.92 1487.7 1892.92 1493.05 Q1892.92 1498.38 1894.27 1501.05 Q1895.64 1503.71 1898.35 1503.71 Q1901.08 1503.71 1902.43 1501.05 Q1903.8 1498.38 1903.8 1493.05 Q1903.8 1487.7 1902.43 1485.04 Q1901.08 1482.37 1898.35 1482.37 M1898.35 1479.59 Q1902.71 1479.59 1905 1483.05 Q1907.31 1486.48 1907.31 1493.05 Q1907.31 1499.59 1905 1503.05 Q1902.71 1506.48 1898.35 1506.48 Q1893.99 1506.48 1891.68 1503.05 Q1889.39 1499.59 1889.39 1493.05 Q1889.39 1486.48 1891.68 1483.05 Q1893.99 1479.59 1898.35 1479.59 Z" fill="#4c4c4c" fill-rule="evenodd" fill-opacity="1" /><path clip-path="url(#clip080)" d="M2070.89 1505.44 L2070.89 1502.25 Q2072.21 1502.87 2073.56 1503.2 Q2074.92 1503.53 2076.22 1503.53 Q2079.69 1503.53 2081.52 1501.21 Q2083.36 1498.86 2083.62 1494.1 Q2082.61 1495.6 2081.06 1496.4 Q2079.52 1497.2 2077.64 1497.2 Q2073.75 1497.2 2071.48 1494.85 Q2069.22 1492.49 2069.22 1488.41 Q2069.22 1484.42 2071.58 1482 Q2073.95 1479.59 2077.87 1479.59 Q2082.37 1479.59 2084.73 1483.05 Q2087.11 1486.48 2087.11 1493.05 Q2087.11 1499.17 2084.19 1502.84 Q2081.29 1506.48 2076.38 1506.48 Q2075.06 1506.48 2073.7 1506.22 Q2072.35 1505.96 2070.89 1505.44 M2077.87 1494.45 Q2080.23 1494.45 2081.6 1492.84 Q2082.99 1491.22 2082.99 1488.41 Q2082.99 1485.62 2081.6 1484 Q2080.23 1482.37 2077.87 1482.37 Q2075.51 1482.37 2074.12 1484 Q2072.75 1485.62 2072.75 1488.41 Q2072.75 1491.22 2074.12 1492.84 Q2075.51 1494.45 2077.87 1494.45 Z" fill="#4c4c4c" fill-rule="evenodd" fill-opacity="1" /><path clip-path="url(#clip080)" d="M2100.91 1482.37 Q2098.2 1482.37 2096.83 1485.04 Q2095.47 1487.7 2095.47 1493.05 Q2095.47 1498.38 2096.83 1501.05 Q2098.2 1503.71 2100.91 1503.71 Q2103.63 1503.71 2104.99 1501.05 Q2106.36 1498.38 2106.36 1493.05 Q2106.36 1487.7 2104.99 1485.04 Q2103.63 1482.37 2100.91 1482.37 M2100.91 1479.59 Q2105.26 1479.59 2107.56 1483.05 Q2109.87 1486.48 2109.87 1493.05 Q2109.87 1499.59 2107.56 1503.05 Q2105.26 1506.48 2100.91 1506.48 Q2096.55 1506.48 2094.24 1503.05 Q2091.95 1499.59 2091.95 1493.05 Q2091.95 1486.48 2094.24 1483.05 Q2096.55 1479.59 2100.91 1479.59 Z" fill="#4c4c4c" fill-rule="evenodd" fill-opacity="1" /><path clip-path="url(#clip080)" d="M2261.72 1503.03 L2267.45 1503.03 L2267.45 1483.25 L2261.22 1484.5 L2261.22 1481.31 L2267.41 1480.06 L2270.92 1480.06 L2270.92 1503.03 L2276.65 1503.03 L2276.65 1505.98 L2261.72 1505.98 L2261.72 1503.03 Z" fill="#4c4c4c" fill-rule="evenodd" fill-opacity="1" /><path clip-path="url(#clip080)" d="M2291.23 1482.37 Q2288.53 1482.37 2287.15 1485.04 Q2285.8 1487.7 2285.8 1493.05 Q2285.8 1498.38 2287.15 1501.05 Q2288.53 1503.71 2291.23 1503.71 Q2293.96 1503.71 2295.31 1501.05 Q2296.68 1498.38 2296.68 1493.05 Q2296.68 1487.7 2295.31 1485.04 Q2293.96 1482.37 2291.23 1482.37 M2291.23 1479.59 Q2295.59 1479.59 2297.88 1483.05 Q2300.19 1486.48 2300.19 1493.05 Q2300.19 1499.59 2297.88 1503.05 Q2295.59 1506.48 2291.23 1506.48 Q2286.88 1506.48 2284.57 1503.05 Q2282.28 1499.59 2282.28 1493.05 Q2282.28 1486.48 2284.57 1483.05 Q2286.88 1479.59 2291.23 1479.59 Z" fill="#4c4c4c" fill-rule="evenodd" fill-opacity="1" /><path clip-path="url(#clip080)" d="M2313.85 1482.37 Q2311.15 1482.37 2309.78 1485.04 Q2308.42 1487.7 2308.42 1493.05 Q2308.42 1498.38 2309.78 1501.05 Q2311.15 1503.71 2313.85 1503.71 Q2316.58 1503.71 2317.93 1501.05 Q2319.31 1498.38 2319.31 1493.05 Q2319.31 1487.7 2317.93 1485.04 Q2316.58 1482.37 2313.85 1482.37 M2313.85 1479.59 Q2318.21 1479.59 2320.5 1483.05 Q2322.81 1486.48 2322.81 1493.05 Q2322.81 1499.59 2320.5 1503.05 Q2318.21 1506.48 2313.85 1506.48 Q2309.5 1506.48 2307.19 1503.05 Q2304.9 1499.59 2304.9 1493.05 Q2304.9 1486.48 2307.19 1483.05 Q2309.5 1479.59 2313.85 1479.59 Z" fill="#4c4c4c" fill-rule="evenodd" fill-opacity="1" /><path clip-path="url(#clip080)" d="M1170.25 1526.57 L1174.93 1526.57 L1174.93 1561.13 L1170.25 1561.13 L1170.25 1526.57 Z" fill="#000000" fill-rule="evenodd" fill-opacity="1" /><path clip-path="url(#clip080)" d="M1188.26 1527.84 L1188.26 1535.21 L1197.04 1535.21 L1197.04 1538.52 L1188.26 1538.52 L1188.26 1552.59 Q1188.26 1555.76 1189.12 1556.66 Q1190 1557.57 1192.66 1557.57 L1197.04 1557.57 L1197.04 1561.13 L1192.66 1561.13 Q1187.73 1561.13 1185.86 1559.3 Q1183.98 1557.45 1183.98 1552.59 L1183.98 1538.52 L1180.86 1538.52 L1180.86 1535.21 L1183.98 1535.21 L1183.98 1527.84 L1188.26 1527.84 Z" fill="#000000" fill-rule="evenodd" fill-opacity="1" /><path clip-path="url(#clip080)" d="M1224.81 1547.1 L1224.81 1549.19 L1205.23 1549.19 Q1205.51 1553.59 1207.87 1555.9 Q1210.25 1558.19 1214.49 1558.19 Q1216.94 1558.19 1219.24 1557.59 Q1221.55 1556.99 1223.82 1555.78 L1223.82 1559.81 Q1221.53 1560.78 1219.12 1561.29 Q1216.71 1561.8 1214.24 1561.8 Q1208.03 1561.8 1204.4 1558.19 Q1200.79 1554.58 1200.79 1548.42 Q1200.79 1542.06 1204.21 1538.33 Q1207.66 1534.58 1213.49 1534.58 Q1218.73 1534.58 1221.76 1537.96 Q1224.81 1541.32 1224.81 1547.1 M1220.55 1545.85 Q1220.51 1542.36 1218.59 1540.28 Q1216.69 1538.19 1213.54 1538.19 Q1209.98 1538.19 1207.82 1540.21 Q1205.69 1542.22 1205.37 1545.88 L1220.55 1545.85 Z" fill="#000000" fill-rule="evenodd" fill-opacity="1" /><path clip-path="url(#clip080)" d="M1246.83 1539.19 Q1246.11 1538.77 1245.25 1538.59 Q1244.42 1538.38 1243.4 1538.38 Q1239.79 1538.38 1237.85 1540.74 Q1235.93 1543.08 1235.93 1547.47 L1235.93 1561.13 L1231.64 1561.13 L1231.64 1535.21 L1235.93 1535.21 L1235.93 1539.23 Q1237.27 1536.87 1239.42 1535.74 Q1241.57 1534.58 1244.65 1534.58 Q1245.09 1534.58 1245.62 1534.65 Q1246.16 1534.7 1246.8 1534.81 L1246.83 1539.19 Z" fill="#000000" fill-rule="evenodd" fill-opacity="1" /><path clip-path="url(#clip080)" d="M1263.08 1548.1 Q1257.92 1548.1 1255.92 1549.28 Q1253.93 1550.46 1253.93 1553.31 Q1253.93 1555.58 1255.42 1556.92 Q1256.92 1558.24 1259.49 1558.24 Q1263.03 1558.24 1265.16 1555.74 Q1267.31 1553.22 1267.31 1549.05 L1267.31 1548.1 L1263.08 1548.1 M1271.57 1546.34 L1271.57 1561.13 L1267.31 1561.13 L1267.31 1557.2 Q1265.86 1559.56 1263.68 1560.69 Q1261.5 1561.8 1258.36 1561.8 Q1254.37 1561.8 1252.01 1559.58 Q1249.67 1557.34 1249.67 1553.59 Q1249.67 1549.21 1252.59 1546.99 Q1255.53 1544.77 1261.34 1544.77 L1267.31 1544.77 L1267.31 1544.35 Q1267.31 1541.41 1265.37 1539.81 Q1263.45 1538.19 1259.95 1538.19 Q1257.73 1538.19 1255.62 1538.72 Q1253.52 1539.26 1251.57 1540.32 L1251.57 1536.39 Q1253.91 1535.48 1256.11 1535.04 Q1258.31 1534.58 1260.39 1534.58 Q1266.02 1534.58 1268.8 1537.5 Q1271.57 1540.41 1271.57 1546.34 Z" fill="#000000" fill-rule="evenodd" fill-opacity="1" /><path clip-path="url(#clip080)" d="M1284.56 1527.84 L1284.56 1535.21 L1293.33 1535.21 L1293.33 1538.52 L1284.56 1538.52 L1284.56 1552.59 Q1284.56 1555.76 1285.42 1556.66 Q1286.3 1557.57 1288.96 1557.57 L1293.33 1557.57 L1293.33 1561.13 L1288.96 1561.13 Q1284.03 1561.13 1282.15 1559.3 Q1280.28 1557.45 1280.28 1552.59 L1280.28 1538.52 L1277.15 1538.52 L1277.15 1535.21 L1280.28 1535.21 L1280.28 1527.84 L1284.56 1527.84 Z" fill="#000000" fill-rule="evenodd" fill-opacity="1" /><path clip-path="url(#clip080)" d="M1298.93 1535.21 L1303.19 1535.21 L1303.19 1561.13 L1298.93 1561.13 L1298.93 1535.21 M1298.93 1525.11 L1303.19 1525.11 L1303.19 1530.51 L1298.93 1530.51 L1298.93 1525.11 Z" fill="#000000" fill-rule="evenodd" fill-opacity="1" /><path clip-path="url(#clip080)" d="M1322.15 1538.19 Q1318.73 1538.19 1316.73 1540.88 Q1314.74 1543.54 1314.74 1548.19 Q1314.74 1552.84 1316.71 1555.53 Q1318.7 1558.19 1322.15 1558.19 Q1325.55 1558.19 1327.54 1555.51 Q1329.54 1552.82 1329.54 1548.19 Q1329.54 1543.59 1327.54 1540.9 Q1325.55 1538.19 1322.15 1538.19 M1322.15 1534.58 Q1327.71 1534.58 1330.88 1538.19 Q1334.05 1541.8 1334.05 1548.19 Q1334.05 1554.56 1330.88 1558.19 Q1327.71 1561.8 1322.15 1561.8 Q1316.57 1561.8 1313.4 1558.19 Q1310.25 1554.56 1310.25 1548.19 Q1310.25 1541.8 1313.4 1538.19 Q1316.57 1534.58 1322.15 1534.58 Z" fill="#000000" fill-rule="evenodd" fill-opacity="1" /><path clip-path="url(#clip080)" d="M1362.66 1545.48 L1362.66 1561.13 L1358.4 1561.13 L1358.4 1545.62 Q1358.4 1541.94 1356.97 1540.11 Q1355.53 1538.28 1352.66 1538.28 Q1349.21 1538.28 1347.22 1540.48 Q1345.23 1542.68 1345.23 1546.48 L1345.23 1561.13 L1340.95 1561.13 L1340.95 1535.21 L1345.23 1535.21 L1345.23 1539.23 Q1346.76 1536.9 1348.82 1535.74 Q1350.9 1534.58 1353.61 1534.58 Q1358.08 1534.58 1360.37 1537.36 Q1362.66 1540.11 1362.66 1545.48 Z" fill="#000000" fill-rule="evenodd" fill-opacity="1" /><path clip-path="url(#clip080)" d="M1387.68 1535.97 L1387.68 1540 Q1385.88 1539.07 1383.93 1538.61 Q1381.99 1538.15 1379.91 1538.15 Q1376.73 1538.15 1375.14 1539.12 Q1373.56 1540.09 1373.56 1542.03 Q1373.56 1543.52 1374.7 1544.37 Q1375.83 1545.21 1379.26 1545.97 L1380.72 1546.29 Q1385.25 1547.27 1387.15 1549.05 Q1389.07 1550.81 1389.07 1553.98 Q1389.07 1557.59 1386.2 1559.7 Q1383.35 1561.8 1378.35 1561.8 Q1376.27 1561.8 1374 1561.39 Q1371.76 1560.99 1369.26 1560.18 L1369.26 1555.78 Q1371.62 1557.01 1373.91 1557.64 Q1376.2 1558.24 1378.45 1558.24 Q1381.46 1558.24 1383.08 1557.22 Q1384.7 1556.18 1384.7 1554.3 Q1384.7 1552.57 1383.52 1551.64 Q1382.36 1550.72 1378.4 1549.86 L1376.92 1549.51 Q1372.96 1548.68 1371.2 1546.97 Q1369.44 1545.23 1369.44 1542.22 Q1369.44 1538.56 1372.04 1536.57 Q1374.63 1534.58 1379.4 1534.58 Q1381.76 1534.58 1383.84 1534.93 Q1385.92 1535.28 1387.68 1535.97 Z" fill="#000000" fill-rule="evenodd" fill-opacity="1" /><polyline clip-path="url(#clip082)" style="stroke:#ffffff; stroke-linecap:butt; stroke-linejoin:round; stroke-width:4; stroke-opacity:1; fill:none" points="
  206.571,1268.82 2352.76,1268.82 
  "/>
<polyline clip-path="url(#clip082)" style="stroke:#ffffff; stroke-linecap:butt; stroke-linejoin:round; stroke-width:4; stroke-opacity:1; fill:none" points="
  206.571,1036.12 2352.76,1036.12 
  "/>
<polyline clip-path="url(#clip082)" style="stroke:#ffffff; stroke-linecap:butt; stroke-linejoin:round; stroke-width:4; stroke-opacity:1; fill:none" points="
  206.571,803.411 2352.76,803.411 
  "/>
<polyline clip-path="url(#clip082)" style="stroke:#ffffff; stroke-linecap:butt; stroke-linejoin:round; stroke-width:4; stroke-opacity:1; fill:none" points="
  206.571,570.705 2352.76,570.705 
  "/>
<polyline clip-path="url(#clip082)" style="stroke:#ffffff; stroke-linecap:butt; stroke-linejoin:round; stroke-width:4; stroke-opacity:1; fill:none" points="
  206.571,337.998 2352.76,337.998 
  "/>
<polyline clip-path="url(#clip082)" style="stroke:#ffffff; stroke-linecap:butt; stroke-linejoin:round; stroke-width:2; stroke-opacity:1; fill:none" points="
  206.571,1385.18 2352.76,1385.18 
  "/>
<polyline clip-path="url(#clip082)" style="stroke:#ffffff; stroke-linecap:butt; stroke-linejoin:round; stroke-width:2; stroke-opacity:1; fill:none" points="
  206.571,1152.47 2352.76,1152.47 
  "/>
<polyline clip-path="url(#clip082)" style="stroke:#ffffff; stroke-linecap:butt; stroke-linejoin:round; stroke-width:2; stroke-opacity:1; fill:none" points="
  206.571,919.764 2352.76,919.764 
  "/>
<polyline clip-path="url(#clip082)" style="stroke:#ffffff; stroke-linecap:butt; stroke-linejoin:round; stroke-width:2; stroke-opacity:1; fill:none" points="
  206.571,687.058 2352.76,687.058 
  "/>
<polyline clip-path="url(#clip082)" style="stroke:#ffffff; stroke-linecap:butt; stroke-linejoin:round; stroke-width:2; stroke-opacity:1; fill:none" points="
  206.571,454.352 2352.76,454.352 
  "/>
<polyline clip-path="url(#clip082)" style="stroke:#ffffff; stroke-linecap:butt; stroke-linejoin:round; stroke-width:2; stroke-opacity:1; fill:none" points="
  206.571,221.645 2352.76,221.645 
  "/>
<polyline clip-path="url(#clip080)" style="stroke:#ffffff; stroke-linecap:butt; stroke-linejoin:round; stroke-width:4; stroke-opacity:1; fill:none" points="
  206.571,1444.78 206.571,106.192 
  "/>
<polyline clip-path="url(#clip080)" style="stroke:#333333; stroke-linecap:butt; stroke-linejoin:round; stroke-width:4; stroke-opacity:1; fill:none" points="
  206.571,1268.82 187.673,1268.82 
  "/>
<polyline clip-path="url(#clip080)" style="stroke:#333333; stroke-linecap:butt; stroke-linejoin:round; stroke-width:4; stroke-opacity:1; fill:none" points="
  206.571,1036.12 187.673,1036.12 
  "/>
<polyline clip-path="url(#clip080)" style="stroke:#333333; stroke-linecap:butt; stroke-linejoin:round; stroke-width:4; stroke-opacity:1; fill:none" points="
  206.571,803.411 187.673,803.411 
  "/>
<polyline clip-path="url(#clip080)" style="stroke:#333333; stroke-linecap:butt; stroke-linejoin:round; stroke-width:4; stroke-opacity:1; fill:none" points="
  206.571,570.705 187.673,570.705 
  "/>
<polyline clip-path="url(#clip080)" style="stroke:#333333; stroke-linecap:butt; stroke-linejoin:round; stroke-width:4; stroke-opacity:1; fill:none" points="
  206.571,337.998 187.673,337.998 
  "/>
<polyline clip-path="url(#clip080)" style="stroke:#333333; stroke-linecap:butt; stroke-linejoin:round; stroke-width:4; stroke-opacity:1; fill:none" points="
  206.571,1385.18 197.122,1385.18 
  "/>
<polyline clip-path="url(#clip080)" style="stroke:#333333; stroke-linecap:butt; stroke-linejoin:round; stroke-width:4; stroke-opacity:1; fill:none" points="
  206.571,1152.47 197.122,1152.47 
  "/>
<polyline clip-path="url(#clip080)" style="stroke:#333333; stroke-linecap:butt; stroke-linejoin:round; stroke-width:4; stroke-opacity:1; fill:none" points="
  206.571,919.764 197.122,919.764 
  "/>
<polyline clip-path="url(#clip080)" style="stroke:#333333; stroke-linecap:butt; stroke-linejoin:round; stroke-width:4; stroke-opacity:1; fill:none" points="
  206.571,687.058 197.122,687.058 
  "/>
<polyline clip-path="url(#clip080)" style="stroke:#333333; stroke-linecap:butt; stroke-linejoin:round; stroke-width:4; stroke-opacity:1; fill:none" points="
  206.571,454.352 197.122,454.352 
  "/>
<polyline clip-path="url(#clip080)" style="stroke:#333333; stroke-linecap:butt; stroke-linejoin:round; stroke-width:4; stroke-opacity:1; fill:none" points="
  206.571,221.645 197.122,221.645 
  "/>
<path clip-path="url(#clip080)" d="M83.6647 1269.16 L105.922 1269.16 L105.922 1272.11 L83.6647 1272.11 L83.6647 1269.16 Z" fill="#4c4c4c" fill-rule="evenodd" fill-opacity="1" /><path clip-path="url(#clip080)" d="M124.116 1267.81 Q126.633 1268.35 128.04 1270.05 Q129.463 1271.75 129.463 1274.25 Q129.463 1278.09 126.824 1280.19 Q124.185 1282.29 119.324 1282.29 Q117.692 1282.29 115.956 1281.96 Q114.237 1281.64 112.397 1281 L112.397 1277.62 Q113.856 1278.47 115.592 1278.9 Q117.328 1279.34 119.22 1279.34 Q122.519 1279.34 124.237 1278.03 Q125.974 1276.73 125.974 1274.25 Q125.974 1271.96 124.359 1270.67 Q122.762 1269.37 119.897 1269.37 L116.876 1269.37 L116.876 1266.49 L120.036 1266.49 Q122.623 1266.49 123.994 1265.46 Q125.366 1264.42 125.366 1262.48 Q125.366 1260.48 123.942 1259.42 Q122.536 1258.35 119.897 1258.35 Q118.456 1258.35 116.807 1258.66 Q115.158 1258.97 113.178 1259.63 L113.178 1256.51 Q115.175 1255.95 116.911 1255.67 Q118.665 1255.39 120.21 1255.39 Q124.203 1255.39 126.529 1257.22 Q128.855 1259.02 128.855 1262.11 Q128.855 1264.27 127.623 1265.76 Q126.39 1267.23 124.116 1267.81 Z" fill="#4c4c4c" fill-rule="evenodd" fill-opacity="1" /><path clip-path="url(#clip080)" d="M143.612 1258.17 Q140.904 1258.17 139.532 1260.85 Q138.178 1263.5 138.178 1268.85 Q138.178 1274.18 139.532 1276.85 Q140.904 1279.51 143.612 1279.51 Q146.338 1279.51 147.692 1276.85 Q149.064 1274.18 149.064 1268.85 Q149.064 1263.5 147.692 1260.85 Q146.338 1258.17 143.612 1258.17 M143.612 1255.39 Q147.97 1255.39 150.262 1258.85 Q152.571 1262.29 152.571 1268.85 Q152.571 1275.39 150.262 1278.85 Q147.97 1282.29 143.612 1282.29 Q139.255 1282.29 136.946 1278.85 Q134.654 1275.39 134.654 1268.85 Q134.654 1262.29 136.946 1258.85 Q139.255 1255.39 143.612 1255.39 Z" fill="#4c4c4c" fill-rule="evenodd" fill-opacity="1" /><path clip-path="url(#clip080)" d="M84.3418 1036.46 L106.599 1036.46 L106.599 1039.41 L84.3418 1039.41 L84.3418 1036.46 Z" fill="#4c4c4c" fill-rule="evenodd" fill-opacity="1" /><path clip-path="url(#clip080)" d="M117.189 1046.13 L129.428 1046.13 L129.428 1049.08 L112.97 1049.08 L112.97 1046.13 Q114.967 1044.06 118.404 1040.59 Q121.859 1037.1 122.744 1036.09 Q124.428 1034.2 125.088 1032.9 Q125.765 1031.58 125.765 1030.31 Q125.765 1028.24 124.307 1026.94 Q122.866 1025.64 120.54 1025.64 Q118.89 1025.64 117.05 1026.21 Q115.227 1026.79 113.144 1027.95 L113.144 1024.41 Q115.262 1023.56 117.102 1023.12 Q118.942 1022.69 120.47 1022.69 Q124.498 1022.69 126.894 1024.7 Q129.289 1026.72 129.289 1030.08 Q129.289 1031.68 128.682 1033.12 Q128.092 1034.55 126.512 1036.49 Q126.078 1036.99 123.751 1039.41 Q121.425 1041.8 117.189 1046.13 Z" fill="#4c4c4c" fill-rule="evenodd" fill-opacity="1" /><path clip-path="url(#clip080)" d="M135.904 1023.16 L152.571 1023.16 L152.571 1024.65 L143.161 1049.08 L139.498 1049.08 L148.352 1026.11 L135.904 1026.11 L135.904 1023.16 Z" fill="#4c4c4c" fill-rule="evenodd" fill-opacity="1" /><path clip-path="url(#clip080)" d="M83.3002 803.749 L105.557 803.749 L105.557 806.701 L83.3002 806.701 L83.3002 803.749 Z" fill="#4c4c4c" fill-rule="evenodd" fill-opacity="1" /><path clip-path="url(#clip080)" d="M116.147 813.419 L128.387 813.419 L128.387 816.371 L111.928 816.371 L111.928 813.419 Q113.925 811.353 117.362 807.881 Q120.817 804.392 121.703 803.385 Q123.387 801.492 124.046 800.19 Q124.724 798.871 124.724 797.603 Q124.724 795.537 123.265 794.235 Q121.824 792.933 119.498 792.933 Q117.849 792.933 116.008 793.506 Q114.185 794.079 112.102 795.242 L112.102 791.701 Q114.22 790.85 116.06 790.416 Q117.901 789.982 119.428 789.982 Q123.456 789.982 125.852 791.996 Q128.248 794.01 128.248 797.378 Q128.248 798.975 127.64 800.416 Q127.05 801.84 125.47 803.784 Q125.036 804.287 122.71 806.701 Q120.383 809.096 116.147 813.419 Z" fill="#4c4c4c" fill-rule="evenodd" fill-opacity="1" /><path clip-path="url(#clip080)" d="M145.383 793.506 L136.529 807.343 L145.383 807.343 L145.383 793.506 M144.463 790.451 L148.873 790.451 L148.873 807.343 L152.571 807.343 L152.571 810.26 L148.873 810.26 L148.873 816.371 L145.383 816.371 L145.383 810.26 L133.682 810.26 L133.682 806.874 L144.463 790.451 Z" fill="#4c4c4c" fill-rule="evenodd" fill-opacity="1" /><path clip-path="url(#clip080)" d="M84.5849 571.043 L106.842 571.043 L106.842 573.995 L84.5849 573.995 L84.5849 571.043 Z" fill="#4c4c4c" fill-rule="evenodd" fill-opacity="1" /><path clip-path="url(#clip080)" d="M117.432 580.713 L129.671 580.713 L129.671 583.665 L113.213 583.665 L113.213 580.713 Q115.21 578.647 118.647 575.175 Q122.102 571.685 122.987 570.679 Q124.671 568.786 125.331 567.484 Q126.008 566.165 126.008 564.897 Q126.008 562.831 124.55 561.529 Q123.109 560.227 120.783 560.227 Q119.133 560.227 117.293 560.8 Q115.47 561.373 113.387 562.536 L113.387 558.995 Q115.505 558.144 117.345 557.71 Q119.185 557.276 120.713 557.276 Q124.741 557.276 127.137 559.29 Q129.533 561.304 129.533 564.672 Q129.533 566.269 128.925 567.71 Q128.335 569.133 126.755 571.078 Q126.321 571.581 123.994 573.995 Q121.668 576.39 117.432 580.713 Z" fill="#4c4c4c" fill-rule="evenodd" fill-opacity="1" /><path clip-path="url(#clip080)" d="M137.64 580.713 L143.369 580.713 L143.369 560.939 L137.137 562.189 L137.137 558.995 L143.335 557.745 L146.841 557.745 L146.841 580.713 L152.571 580.713 L152.571 583.665 L137.64 583.665 L137.64 580.713 Z" fill="#4c4c4c" fill-rule="evenodd" fill-opacity="1" /><path clip-path="url(#clip080)" d="M83.7342 338.337 L105.991 338.337 L105.991 341.288 L83.7342 341.288 L83.7342 338.337 Z" fill="#4c4c4c" fill-rule="evenodd" fill-opacity="1" /><path clip-path="url(#clip080)" d="M114.168 348.007 L119.897 348.007 L119.897 328.233 L113.665 329.483 L113.665 326.288 L119.862 325.038 L123.369 325.038 L123.369 348.007 L129.099 348.007 L129.099 350.958 L114.168 350.958 L114.168 348.007 Z" fill="#4c4c4c" fill-rule="evenodd" fill-opacity="1" /><path clip-path="url(#clip080)" d="M143.682 338.649 Q141.182 338.649 139.741 339.986 Q138.317 341.323 138.317 343.667 Q138.317 346.011 139.741 347.347 Q141.182 348.684 143.682 348.684 Q146.182 348.684 147.623 347.347 Q149.064 345.993 149.064 343.667 Q149.064 341.323 147.623 339.986 Q146.199 338.649 143.682 338.649 M140.175 337.156 Q137.918 336.601 136.651 335.056 Q135.401 333.511 135.401 331.288 Q135.401 328.181 137.605 326.375 Q139.828 324.57 143.682 324.57 Q147.553 324.57 149.758 326.375 Q151.963 328.181 151.963 331.288 Q151.963 333.511 150.696 335.056 Q149.446 336.601 147.206 337.156 Q149.741 337.747 151.147 339.465 Q152.571 341.184 152.571 343.667 Q152.571 347.434 150.262 349.448 Q147.97 351.462 143.682 351.462 Q139.394 351.462 137.085 349.448 Q134.793 347.434 134.793 343.667 Q134.793 341.184 136.217 339.465 Q137.64 337.747 140.175 337.156 M138.89 331.618 Q138.89 333.632 140.14 334.761 Q141.407 335.889 143.682 335.889 Q145.939 335.889 147.206 334.761 Q148.491 333.632 148.491 331.618 Q148.491 329.604 147.206 328.476 Q145.939 327.347 143.682 327.347 Q141.407 327.347 140.14 328.476 Q138.89 329.604 138.89 331.618 Z" fill="#4c4c4c" fill-rule="evenodd" fill-opacity="1" /><path clip-path="url(#clip080)" d="M20.3722 985.184 L20.3722 955.948 L24.3073 955.948 L24.3073 968.216 L54.9322 968.216 L54.9322 972.915 L24.3073 972.915 L24.3073 985.184 L20.3722 985.184 Z" fill="#000000" fill-rule="evenodd" fill-opacity="1" /><path clip-path="url(#clip080)" d="M40.9045 937.499 L42.9878 937.499 L42.9878 957.082 Q47.3859 956.804 49.7007 954.443 Q51.9924 952.059 51.9924 947.823 Q51.9924 945.369 51.3905 943.078 Q50.7887 940.763 49.585 938.494 L53.6127 938.494 Q54.5849 940.786 55.0942 943.193 Q55.6035 945.601 55.6035 948.078 Q55.6035 954.281 51.9924 957.916 Q48.3813 961.527 42.2239 961.527 Q35.8582 961.527 32.1314 958.101 Q28.3814 954.652 28.3814 948.818 Q28.3814 943.587 31.761 940.555 Q35.1174 937.499 40.9045 937.499 M39.6545 941.758 Q36.1591 941.805 34.0758 943.726 Q31.9925 945.624 31.9925 948.772 Q31.9925 952.337 34.0063 954.49 Q36.0202 956.619 39.6776 956.943 L39.6545 941.758 Z" fill="#000000" fill-rule="evenodd" fill-opacity="1" /><path clip-path="url(#clip080)" d="M29.7703 913.981 L33.798 913.981 Q32.8721 915.786 32.4091 917.731 Q31.9462 919.675 31.9462 921.758 Q31.9462 924.93 32.9184 926.527 Q33.8906 928.101 35.835 928.101 Q37.3165 928.101 38.173 926.967 Q39.0063 925.832 39.7702 922.406 L40.0943 920.948 Q41.0665 916.411 42.8489 914.513 Q44.6081 912.592 47.7794 912.592 Q51.3905 912.592 53.497 915.462 Q55.6035 918.309 55.6035 923.309 Q55.6035 925.393 55.1868 927.661 Q54.7933 929.906 53.9831 932.406 L49.585 932.406 Q50.8118 930.045 51.4368 927.754 Q52.0387 925.462 52.0387 923.217 Q52.0387 920.207 51.0201 918.587 Q49.9785 916.967 48.1035 916.967 Q46.3674 916.967 45.4415 918.147 Q44.5155 919.305 43.6591 923.263 L43.3118 924.744 Q42.4785 928.703 40.7656 930.462 Q39.0295 932.221 36.0202 932.221 Q32.3628 932.221 30.3721 929.629 Q28.3814 927.036 28.3814 922.268 Q28.3814 919.907 28.7286 917.823 Q29.0758 915.74 29.7703 913.981 Z" fill="#000000" fill-rule="evenodd" fill-opacity="1" /><path clip-path="url(#clip080)" d="M21.6453 901.596 L29.0064 901.596 L29.0064 892.823 L32.3165 892.823 L32.3165 901.596 L46.3905 901.596 Q49.5618 901.596 50.4646 900.74 Q51.3674 899.86 51.3674 897.198 L51.3674 892.823 L54.9322 892.823 L54.9322 897.198 Q54.9322 902.129 53.1035 904.004 Q51.2516 905.879 46.3905 905.879 L32.3165 905.879 L32.3165 909.004 L29.0064 909.004 L29.0064 905.879 L21.6453 905.879 L21.6453 901.596 Z" fill="#000000" fill-rule="evenodd" fill-opacity="1" /><path clip-path="url(#clip080)" d="M18.9138 872.152 L18.9138 867.893 L54.9322 867.893 L54.9322 872.152 L18.9138 872.152 Z" fill="#000000" fill-rule="evenodd" fill-opacity="1" /><path clip-path="url(#clip080)" d="M31.9925 848.935 Q31.9925 852.361 34.6776 854.351 Q37.3397 856.342 41.9924 856.342 Q46.6452 856.342 49.3303 854.374 Q51.9924 852.384 51.9924 848.935 Q51.9924 845.532 49.3072 843.541 Q46.622 841.55 41.9924 841.55 Q37.386 841.55 34.7008 843.541 Q31.9925 845.532 31.9925 848.935 M28.3814 848.935 Q28.3814 843.379 31.9925 840.208 Q35.6036 837.037 41.9924 837.037 Q48.3581 837.037 51.9924 840.208 Q55.6035 843.379 55.6035 848.935 Q55.6035 854.513 51.9924 857.685 Q48.3581 860.833 41.9924 860.833 Q35.6036 860.833 31.9925 857.685 Q28.3814 854.513 28.3814 848.935 Z" fill="#000000" fill-rule="evenodd" fill-opacity="1" /><path clip-path="url(#clip080)" d="M41.6683 812.916 Q37.0387 812.916 34.4925 814.838 Q31.9462 816.736 31.9462 820.185 Q31.9462 823.611 34.4925 825.532 Q37.0387 827.43 41.6683 827.43 Q46.2748 827.43 48.8211 825.532 Q51.3674 823.611 51.3674 820.185 Q51.3674 816.736 48.8211 814.838 Q46.2748 812.916 41.6683 812.916 M51.7146 808.657 Q58.3349 808.657 61.5525 811.597 Q64.7932 814.537 64.7932 820.601 Q64.7932 822.847 64.446 824.838 Q64.1219 826.828 63.4275 828.703 L59.284 828.703 Q60.3025 826.828 60.7886 825 Q61.2747 823.171 61.2747 821.273 Q61.2747 817.083 59.0757 815 Q56.8997 812.916 52.4785 812.916 L50.372 812.916 Q52.6637 814.236 53.7979 816.296 Q54.9322 818.356 54.9322 821.226 Q54.9322 825.995 51.2979 828.912 Q47.6637 831.828 41.6683 831.828 Q35.6499 831.828 32.0156 828.912 Q28.3814 825.995 28.3814 821.226 Q28.3814 818.356 29.5156 816.296 Q30.6499 814.236 32.9415 812.916 L29.0064 812.916 L29.0064 808.657 L51.7146 808.657 Z" fill="#000000" fill-rule="evenodd" fill-opacity="1" /><path clip-path="url(#clip080)" d="M40.048 802.037 L40.048 789.56 L43.8443 789.56 L43.8443 802.037 L40.048 802.037 Z" fill="#000000" fill-rule="evenodd" fill-opacity="1" /><path clip-path="url(#clip080)" d="M18.9138 782.778 L18.9138 778.518 L54.9322 778.518 L54.9322 782.778 L18.9138 782.778 Z" fill="#000000" fill-rule="evenodd" fill-opacity="1" /><path clip-path="url(#clip080)" d="M29.0064 769.606 L29.0064 765.347 L54.9322 765.347 L54.9322 769.606 L29.0064 769.606 M18.9138 769.606 L18.9138 765.347 L24.3073 765.347 L24.3073 769.606 L18.9138 769.606 Z" fill="#000000" fill-rule="evenodd" fill-opacity="1" /><path clip-path="url(#clip080)" d="M18.9138 756.597 L18.9138 752.315 L40.1869 752.315 L29.0064 739.607 L29.0064 734.167 L41.1359 747.917 L54.9322 733.588 L54.9322 739.144 L42.2702 752.315 L54.9322 752.315 L54.9322 756.597 L18.9138 756.597 Z" fill="#000000" fill-rule="evenodd" fill-opacity="1" /><path clip-path="url(#clip080)" d="M40.9045 708.496 L42.9878 708.496 L42.9878 728.079 Q47.3859 727.801 49.7007 725.44 Q51.9924 723.056 51.9924 718.82 Q51.9924 716.366 51.3905 714.074 Q50.7887 711.759 49.585 709.491 L53.6127 709.491 Q54.5849 711.783 55.0942 714.19 Q55.6035 716.597 55.6035 719.074 Q55.6035 725.278 51.9924 728.912 Q48.3813 732.523 42.2239 732.523 Q35.8582 732.523 32.1314 729.097 Q28.3814 725.648 28.3814 719.815 Q28.3814 714.584 31.761 711.551 Q35.1174 708.496 40.9045 708.496 M39.6545 712.755 Q36.1591 712.801 34.0758 714.722 Q31.9925 716.621 31.9925 719.769 Q31.9925 723.333 34.0063 725.486 Q36.0202 727.616 39.6776 727.94 L39.6545 712.755 Z" fill="#000000" fill-rule="evenodd" fill-opacity="1" /><path clip-path="url(#clip080)" d="M18.9138 701.505 L18.9138 697.246 L54.9322 697.246 L54.9322 701.505 L18.9138 701.505 Z" fill="#000000" fill-rule="evenodd" fill-opacity="1" /><path clip-path="url(#clip080)" d="M29.0064 688.334 L29.0064 684.074 L54.9322 684.074 L54.9322 688.334 L29.0064 688.334 M18.9138 688.334 L18.9138 684.074 L24.3073 684.074 L24.3073 688.334 L18.9138 688.334 Z" fill="#000000" fill-rule="evenodd" fill-opacity="1" /><path clip-path="url(#clip080)" d="M39.2841 653.612 L54.9322 653.612 L54.9322 657.871 L39.423 657.871 Q35.7424 657.871 33.9138 659.306 Q32.0851 660.741 32.0851 663.612 Q32.0851 667.061 34.2841 669.051 Q36.4832 671.042 40.2795 671.042 L54.9322 671.042 L54.9322 675.324 L18.9138 675.324 L18.9138 671.042 L33.0341 671.042 Q30.6962 669.514 29.5388 667.454 Q28.3814 665.371 28.3814 662.663 Q28.3814 658.195 31.1591 655.903 Q33.9138 653.612 39.2841 653.612 Z" fill="#000000" fill-rule="evenodd" fill-opacity="1" /><path clip-path="url(#clip080)" d="M31.9925 635.07 Q31.9925 638.496 34.6776 640.487 Q37.3397 642.477 41.9924 642.477 Q46.6452 642.477 49.3303 640.51 Q51.9924 638.519 51.9924 635.07 Q51.9924 631.667 49.3072 629.677 Q46.622 627.686 41.9924 627.686 Q37.386 627.686 34.7008 629.677 Q31.9925 631.667 31.9925 635.07 M28.3814 635.07 Q28.3814 629.515 31.9925 626.343 Q35.6036 623.172 41.9924 623.172 Q48.3581 623.172 51.9924 626.343 Q55.6035 629.515 55.6035 635.07 Q55.6035 640.649 51.9924 643.82 Q48.3581 646.968 41.9924 646.968 Q35.6036 646.968 31.9925 643.82 Q28.3814 640.649 28.3814 635.07 Z" fill="#000000" fill-rule="evenodd" fill-opacity="1" /><path clip-path="url(#clip080)" d="M31.9925 606.066 Q31.9925 609.492 34.6776 611.482 Q37.3397 613.473 41.9924 613.473 Q46.6452 613.473 49.3303 611.505 Q51.9924 609.515 51.9924 606.066 Q51.9924 602.663 49.3072 600.672 Q46.622 598.681 41.9924 598.681 Q37.386 598.681 34.7008 600.672 Q31.9925 602.663 31.9925 606.066 M28.3814 606.066 Q28.3814 600.51 31.9925 597.339 Q35.6036 594.168 41.9924 594.168 Q48.3581 594.168 51.9924 597.339 Q55.6035 600.51 55.6035 606.066 Q55.6035 611.644 51.9924 614.816 Q48.3581 617.964 41.9924 617.964 Q35.6036 617.964 31.9925 614.816 Q28.3814 611.644 28.3814 606.066 Z" fill="#000000" fill-rule="evenodd" fill-opacity="1" /><path clip-path="url(#clip080)" d="M32.9415 570.047 L18.9138 570.047 L18.9138 565.788 L54.9322 565.788 L54.9322 570.047 L51.0433 570.047 Q53.3581 571.39 54.4923 573.45 Q55.6035 575.487 55.6035 578.357 Q55.6035 583.056 51.8535 586.019 Q48.1035 588.959 41.9924 588.959 Q35.8813 588.959 32.1314 586.019 Q28.3814 583.056 28.3814 578.357 Q28.3814 575.487 29.5156 573.45 Q30.6267 571.39 32.9415 570.047 M41.9924 584.561 Q46.6915 584.561 49.3766 582.64 Q52.0387 580.695 52.0387 577.316 Q52.0387 573.936 49.3766 571.992 Q46.6915 570.047 41.9924 570.047 Q37.2934 570.047 34.6313 571.992 Q31.9462 573.936 31.9462 577.316 Q31.9462 580.695 34.6313 582.64 Q37.2934 584.561 41.9924 584.561 Z" fill="#000000" fill-rule="evenodd" fill-opacity="1" /><path clip-path="url(#clip080)" d="M1263.92 35.5496 Q1257.47 35.5496 1254.98 37.0253 Q1252.49 38.501 1252.49 42.06 Q1252.49 44.8956 1254.35 46.5738 Q1256.23 48.2231 1259.44 48.2231 Q1263.86 48.2231 1266.53 45.0981 Q1269.22 41.9442 1269.22 36.7359 L1269.22 35.5496 L1263.92 35.5496 M1274.54 33.3505 L1274.54 51.84 L1269.22 51.84 L1269.22 46.921 Q1267.39 49.8724 1264.67 51.2902 Q1261.96 52.6791 1258.02 52.6791 Q1253.04 52.6791 1250.09 49.9014 Q1247.17 47.0947 1247.17 42.4072 Q1247.17 36.9385 1250.82 34.1607 Q1254.49 31.3829 1261.75 31.3829 L1269.22 31.3829 L1269.22 30.8621 Q1269.22 27.1874 1266.79 25.1908 Q1264.39 23.1654 1260.02 23.1654 Q1257.24 23.1654 1254.61 23.8309 Q1251.97 24.4964 1249.54 25.8274 L1249.54 20.9085 Q1252.46 19.78 1255.21 19.2302 Q1257.96 18.6515 1260.57 18.6515 Q1267.6 18.6515 1271.07 22.2973 Q1274.54 25.9431 1274.54 33.3505 Z" fill="#000000" fill-rule="evenodd" fill-opacity="1" /><path clip-path="url(#clip080)" d="M1306.83 24.3517 L1306.83 6.81709 L1312.16 6.81709 L1312.16 51.84 L1306.83 51.84 L1306.83 46.9789 Q1305.16 49.8724 1302.58 51.2902 Q1300.03 52.6791 1296.45 52.6791 Q1290.57 52.6791 1286.87 47.9916 Q1283.19 43.3042 1283.19 35.6653 Q1283.19 28.0265 1286.87 23.339 Q1290.57 18.6515 1296.45 18.6515 Q1300.03 18.6515 1302.58 20.0693 Q1305.16 21.4582 1306.83 24.3517 M1288.69 35.6653 Q1288.69 41.5391 1291.09 44.8956 Q1293.52 48.2231 1297.75 48.2231 Q1301.97 48.2231 1304.4 44.8956 Q1306.83 41.5391 1306.83 35.6653 Q1306.83 29.7915 1304.4 26.464 Q1301.97 23.1075 1297.75 23.1075 Q1293.52 23.1075 1291.09 26.464 Q1288.69 29.7915 1288.69 35.6653 Z" fill="#000000" fill-rule="evenodd" fill-opacity="1" /><polyline clip-path="url(#clip082)" style="stroke:#e26f46; stroke-linecap:butt; stroke-linejoin:round; stroke-width:8; stroke-opacity:1; fill:none" points="
  307.806,472.192 348.3,472.192 388.794,472.192 429.288,472.192 469.782,472.192 510.276,472.192 550.77,472.192 591.264,472.192 631.758,472.192 672.252,472.192 
  712.746,472.192 753.24,472.192 793.735,472.192 834.229,472.192 874.723,472.192 915.217,472.192 955.711,472.192 996.205,472.192 1036.7,472.192 1077.19,472.192 
  1117.69,472.192 1158.18,472.192 1198.68,472.192 1239.17,472.192 1279.66,472.192 1320.16,472.192 1360.65,472.192 1401.15,472.192 1441.64,472.192 1482.13,472.192 
  1522.63,472.192 1563.12,472.192 1603.62,472.192 1644.11,472.192 1684.6,472.192 1725.1,472.192 1765.59,472.192 1806.09,472.192 1846.58,472.192 1887.07,472.192 
  1927.57,472.192 1968.06,472.192 2008.56,472.192 2049.05,472.192 2089.54,472.192 2130.04,472.192 2170.53,472.192 2211.03,472.192 2251.52,472.192 2292.01,472.192 
  
  "/>
<polyline clip-path="url(#clip082)" style="stroke:#3da44d; stroke-linecap:butt; stroke-linejoin:round; stroke-width:8; stroke-opacity:1; fill:none" points="
  307.806,212.337 348.3,212.337 388.794,212.337 429.288,212.337 469.782,212.337 510.276,212.337 550.77,212.337 591.264,212.337 631.758,212.337 672.252,212.337 
  712.746,212.337 753.24,212.337 793.735,212.337 834.229,212.337 874.723,212.337 915.217,212.337 955.711,212.337 996.205,212.337 1036.7,212.337 1077.19,212.337 
  1117.69,212.337 1158.18,212.337 1198.68,212.337 1239.17,212.337 1279.66,212.337 1320.16,212.337 1360.65,212.337 1401.15,212.337 1441.64,212.337 1482.13,212.337 
  1522.63,212.337 1563.12,212.337 1603.62,212.337 1644.11,212.337 1684.6,212.337 1725.1,212.337 1765.59,212.337 1806.09,212.337 1846.58,212.337 1887.07,212.337 
  1927.57,212.337 1968.06,212.337 2008.56,212.337 2049.05,212.337 2089.54,212.337 2130.04,212.337 2170.53,212.337 2211.03,212.337 2251.52,212.337 2292.01,212.337 
  
  "/>
<polyline clip-path="url(#clip082)" style="stroke:#c271d2; stroke-linecap:butt; stroke-linejoin:round; stroke-width:8; stroke-opacity:1; fill:none" points="
  307.806,1406.9 348.3,1406.9 388.794,1406.9 429.288,1406.9 469.782,1406.9 510.276,1406.9 550.77,1406.9 591.264,1406.9 631.758,1406.9 672.252,1406.9 
  712.746,1406.9 753.24,1406.9 793.735,1406.9 834.229,1406.9 874.723,1406.9 915.217,1406.9 955.711,1406.9 996.205,1406.9 1036.7,1406.9 1077.19,1406.9 
  1117.69,1406.9 1158.18,1406.9 1198.68,1406.9 1239.17,1406.9 1279.66,1406.9 1320.16,1406.9 1360.65,1406.9 1401.15,1406.9 1441.64,1406.9 1482.13,1406.9 
  1522.63,1406.9 1563.12,1406.9 1603.62,1406.9 1644.11,1406.9 1684.6,1406.9 1725.1,1406.9 1765.59,1406.9 1806.09,1406.9 1846.58,1406.9 1887.07,1406.9 
  1927.57,1406.9 1968.06,1406.9 2008.56,1406.9 2049.05,1406.9 2089.54,1406.9 2130.04,1406.9 2170.53,1406.9 2211.03,1406.9 2251.52,1406.9 2292.01,1406.9 
  
  "/>
<polyline clip-path="url(#clip082)" style="stroke:#ac8d18; stroke-linecap:butt; stroke-linejoin:round; stroke-width:8; stroke-opacity:1; fill:none" points="
  307.806,144.077 348.3,144.077 388.794,144.077 429.288,144.077 469.782,144.077 510.276,144.077 550.77,144.077 591.264,144.077 631.758,144.077 672.252,144.077 
  712.746,144.077 753.24,144.077 793.735,144.077 834.229,144.077 874.723,144.077 915.217,144.077 955.711,144.077 996.205,144.077 1036.7,144.077 1077.19,144.077 
  1117.69,144.077 1158.18,144.077 1198.68,144.077 1239.17,144.077 1279.66,144.077 1320.16,144.077 1360.65,144.077 1401.15,144.077 1441.64,144.077 1482.13,144.077 
  1522.63,144.077 1563.12,144.077 1603.62,144.077 1644.11,144.077 1684.6,144.077 1725.1,144.077 1765.59,144.077 1806.09,144.077 1846.58,144.077 1887.07,144.077 
  1927.57,144.077 1968.06,144.077 2008.56,144.077 2049.05,144.077 2089.54,144.077 2130.04,144.077 2170.53,144.077 2211.03,144.077 2251.52,144.077 2292.01,144.077 
  
  "/>
<polyline clip-path="url(#clip082)" style="stroke:#00a9ad; stroke-linecap:butt; stroke-linejoin:round; stroke-width:8; stroke-opacity:1; fill:none" points="
  307.806,800.308 348.3,800.308 388.794,800.308 429.288,800.308 469.782,800.308 510.276,800.308 550.77,800.308 591.264,800.308 631.758,800.308 672.252,800.308 
  712.746,800.308 753.24,800.308 793.735,800.308 834.229,800.308 874.723,800.308 915.217,800.308 955.711,800.308 996.205,800.308 1036.7,800.308 1077.19,800.308 
  1117.69,800.308 1158.18,800.308 1198.68,800.308 1239.17,800.308 1279.66,800.308 1320.16,800.308 1360.65,800.308 1401.15,800.308 1441.64,800.308 1482.13,800.308 
  1522.63,800.308 1563.12,800.308 1603.62,800.308 1644.11,800.308 1684.6,800.308 1725.1,800.308 1765.59,800.308 1806.09,800.308 1846.58,800.308 1887.07,800.308 
  1927.57,800.308 1968.06,800.308 2008.56,800.308 2049.05,800.308 2089.54,800.308 2130.04,800.308 2170.53,800.308 2211.03,800.308 2251.52,800.308 2292.01,800.308 
  
  "/>
<polyline clip-path="url(#clip082)" style="stroke:#009af9; stroke-linecap:butt; stroke-linejoin:round; stroke-width:12; stroke-opacity:1; fill:none" points="
  307.806,721.603 348.3,657.313 388.794,705.433 429.288,658.062 469.782,643.555 510.276,647.037 550.77,658.42 591.264,616.363 631.758,615.233 672.252,604.65 
  712.746,585.198 753.24,581.838 793.735,556.29 834.229,575.477 874.723,603.347 915.217,559.672 955.711,571.672 996.205,607.269 1036.7,558.465 1077.19,563.353 
  1117.69,562.557 1158.18,559.169 1198.68,553.671 1239.17,550.906 1279.66,547.016 1320.16,553 1360.65,561.126 1401.15,565.052 1441.64,552.601 1482.13,551.756 
  1522.63,553.69 1563.12,550.229 1603.62,554.018 1644.11,553.448 1684.6,560.95 1725.1,566.786 1765.59,566.619 1806.09,558.751 1846.58,548.949 1887.07,554.001 
  1927.57,552.495 1968.06,544.103 2008.56,541.766 2049.05,542.693 2089.54,547.467 2130.04,547.344 2170.53,547.203 2211.03,543.313 2251.52,542.689 2292.01,541.097 
  
  "/>
</svg>
