<?xml version="1.0" encoding="utf-8"?>
<svg xmlns="http://www.w3.org/2000/svg" xmlns:xlink="http://www.w3.org/1999/xlink" width="600" height="400" viewBox="0 0 2400 1600">
<defs>
  <clipPath id="clip110">
    <rect x="0" y="0" width="2400" height="1600"/>
  </clipPath>
</defs>
<path clip-path="url(#clip110)" d="
M0 1600 L2400 1600 L2400 0 L0 0  Z
  " fill="#ffffff" fill-rule="evenodd" fill-opacity="1"/>
<defs>
  <clipPath id="clip111">
    <rect x="480" y="0" width="1681" height="1600"/>
  </clipPath>
</defs>
<path clip-path="url(#clip110)" d="
M240.129 1444.78 L2352.76 1444.78 L2352.76 106.192 L240.129 106.192  Z
  " fill="#eaeaea" fill-rule="evenodd" fill-opacity="1"/>
<defs>
  <clipPath id="clip112">
    <rect x="240" y="106" width="2114" height="1340"/>
  </clipPath>
</defs>
<polyline clip-path="url(#clip112)" style="stroke:#ffffff; stroke-linecap:butt; stroke-linejoin:round; stroke-width:4; stroke-opacity:1; fill:none" points="
  299.921,1444.78 299.921,106.192 
  "/>
<polyline clip-path="url(#clip112)" style="stroke:#ffffff; stroke-linecap:butt; stroke-linejoin:round; stroke-width:4; stroke-opacity:1; fill:none" points="
  499.225,1444.78 499.225,106.192 
  "/>
<polyline clip-path="url(#clip112)" style="stroke:#ffffff; stroke-linecap:butt; stroke-linejoin:round; stroke-width:4; stroke-opacity:1; fill:none" points="
  698.53,1444.78 698.53,106.192 
  "/>
<polyline clip-path="url(#clip112)" style="stroke:#ffffff; stroke-linecap:butt; stroke-linejoin:round; stroke-width:4; stroke-opacity:1; fill:none" points="
  897.834,1444.78 897.834,106.192 
  "/>
<polyline clip-path="url(#clip112)" style="stroke:#ffffff; stroke-linecap:butt; stroke-linejoin:round; stroke-width:4; stroke-opacity:1; fill:none" points="
  1097.14,1444.78 1097.14,106.192 
  "/>
<polyline clip-path="url(#clip112)" style="stroke:#ffffff; stroke-linecap:butt; stroke-linejoin:round; stroke-width:4; stroke-opacity:1; fill:none" points="
  1296.44,1444.78 1296.44,106.192 
  "/>
<polyline clip-path="url(#clip112)" style="stroke:#ffffff; stroke-linecap:butt; stroke-linejoin:round; stroke-width:4; stroke-opacity:1; fill:none" points="
  1495.75,1444.78 1495.75,106.192 
  "/>
<polyline clip-path="url(#clip112)" style="stroke:#ffffff; stroke-linecap:butt; stroke-linejoin:round; stroke-width:4; stroke-opacity:1; fill:none" points="
  1695.05,1444.78 1695.05,106.192 
  "/>
<polyline clip-path="url(#clip112)" style="stroke:#ffffff; stroke-linecap:butt; stroke-linejoin:round; stroke-width:4; stroke-opacity:1; fill:none" points="
  1894.36,1444.78 1894.36,106.192 
  "/>
<polyline clip-path="url(#clip112)" style="stroke:#ffffff; stroke-linecap:butt; stroke-linejoin:round; stroke-width:4; stroke-opacity:1; fill:none" points="
  2093.66,1444.78 2093.66,106.192 
  "/>
<polyline clip-path="url(#clip112)" style="stroke:#ffffff; stroke-linecap:butt; stroke-linejoin:round; stroke-width:4; stroke-opacity:1; fill:none" points="
  2292.96,1444.78 2292.96,106.192 
  "/>
<polyline clip-path="url(#clip112)" style="stroke:#ffffff; stroke-linecap:butt; stroke-linejoin:round; stroke-width:2; stroke-opacity:1; fill:none" points="
  399.573,1444.78 399.573,106.192 
  "/>
<polyline clip-path="url(#clip112)" style="stroke:#ffffff; stroke-linecap:butt; stroke-linejoin:round; stroke-width:2; stroke-opacity:1; fill:none" points="
  598.877,1444.78 598.877,106.192 
  "/>
<polyline clip-path="url(#clip112)" style="stroke:#ffffff; stroke-linecap:butt; stroke-linejoin:round; stroke-width:2; stroke-opacity:1; fill:none" points="
  798.182,1444.78 798.182,106.192 
  "/>
<polyline clip-path="url(#clip112)" style="stroke:#ffffff; stroke-linecap:butt; stroke-linejoin:round; stroke-width:2; stroke-opacity:1; fill:none" points="
  997.486,1444.78 997.486,106.192 
  "/>
<polyline clip-path="url(#clip112)" style="stroke:#ffffff; stroke-linecap:butt; stroke-linejoin:round; stroke-width:2; stroke-opacity:1; fill:none" points="
  1196.79,1444.78 1196.79,106.192 
  "/>
<polyline clip-path="url(#clip112)" style="stroke:#ffffff; stroke-linecap:butt; stroke-linejoin:round; stroke-width:2; stroke-opacity:1; fill:none" points="
  1396.09,1444.78 1396.09,106.192 
  "/>
<polyline clip-path="url(#clip112)" style="stroke:#ffffff; stroke-linecap:butt; stroke-linejoin:round; stroke-width:2; stroke-opacity:1; fill:none" points="
  1595.4,1444.78 1595.4,106.192 
  "/>
<polyline clip-path="url(#clip112)" style="stroke:#ffffff; stroke-linecap:butt; stroke-linejoin:round; stroke-width:2; stroke-opacity:1; fill:none" points="
  1794.7,1444.78 1794.7,106.192 
  "/>
<polyline clip-path="url(#clip112)" style="stroke:#ffffff; stroke-linecap:butt; stroke-linejoin:round; stroke-width:2; stroke-opacity:1; fill:none" points="
  1994.01,1444.78 1994.01,106.192 
  "/>
<polyline clip-path="url(#clip112)" style="stroke:#ffffff; stroke-linecap:butt; stroke-linejoin:round; stroke-width:2; stroke-opacity:1; fill:none" points="
  2193.31,1444.78 2193.31,106.192 
  "/>
<polyline clip-path="url(#clip110)" style="stroke:#ffffff; stroke-linecap:butt; stroke-linejoin:round; stroke-width:4; stroke-opacity:1; fill:none" points="
  240.129,1444.78 2352.76,1444.78 
  "/>
<polyline clip-path="url(#clip110)" style="stroke:#333333; stroke-linecap:butt; stroke-linejoin:round; stroke-width:4; stroke-opacity:1; fill:none" points="
  299.921,1444.78 299.921,1463.68 
  "/>
<polyline clip-path="url(#clip110)" style="stroke:#333333; stroke-linecap:butt; stroke-linejoin:round; stroke-width:4; stroke-opacity:1; fill:none" points="
  499.225,1444.78 499.225,1463.68 
  "/>
<polyline clip-path="url(#clip110)" style="stroke:#333333; stroke-linecap:butt; stroke-linejoin:round; stroke-width:4; stroke-opacity:1; fill:none" points="
  698.53,1444.78 698.53,1463.68 
  "/>
<polyline clip-path="url(#clip110)" style="stroke:#333333; stroke-linecap:butt; stroke-linejoin:round; stroke-width:4; stroke-opacity:1; fill:none" points="
  897.834,1444.78 897.834,1463.68 
  "/>
<polyline clip-path="url(#clip110)" style="stroke:#333333; stroke-linecap:butt; stroke-linejoin:round; stroke-width:4; stroke-opacity:1; fill:none" points="
  1097.14,1444.78 1097.14,1463.68 
  "/>
<polyline clip-path="url(#clip110)" style="stroke:#333333; stroke-linecap:butt; stroke-linejoin:round; stroke-width:4; stroke-opacity:1; fill:none" points="
  1296.44,1444.78 1296.44,1463.68 
  "/>
<polyline clip-path="url(#clip110)" style="stroke:#333333; stroke-linecap:butt; stroke-linejoin:round; stroke-width:4; stroke-opacity:1; fill:none" points="
  1495.75,1444.78 1495.75,1463.68 
  "/>
<polyline clip-path="url(#clip110)" style="stroke:#333333; stroke-linecap:butt; stroke-linejoin:round; stroke-width:4; stroke-opacity:1; fill:none" points="
  1695.05,1444.78 1695.05,1463.68 
  "/>
<polyline clip-path="url(#clip110)" style="stroke:#333333; stroke-linecap:butt; stroke-linejoin:round; stroke-width:4; stroke-opacity:1; fill:none" points="
  1894.36,1444.78 1894.36,1463.68 
  "/>
<polyline clip-path="url(#clip110)" style="stroke:#333333; stroke-linecap:butt; stroke-linejoin:round; stroke-width:4; stroke-opacity:1; fill:none" points="
  2093.66,1444.78 2093.66,1463.68 
  "/>
<polyline clip-path="url(#clip110)" style="stroke:#333333; stroke-linecap:butt; stroke-linejoin:round; stroke-width:4; stroke-opacity:1; fill:none" points="
  2292.96,1444.78 2292.96,1463.68 
  "/>
<polyline clip-path="url(#clip110)" style="stroke:#333333; stroke-linecap:butt; stroke-linejoin:round; stroke-width:4; stroke-opacity:1; fill:none" points="
  399.573,1444.78 399.573,1454.23 
  "/>
<polyline clip-path="url(#clip110)" style="stroke:#333333; stroke-linecap:butt; stroke-linejoin:round; stroke-width:4; stroke-opacity:1; fill:none" points="
  598.877,1444.78 598.877,1454.23 
  "/>
<polyline clip-path="url(#clip110)" style="stroke:#333333; stroke-linecap:butt; stroke-linejoin:round; stroke-width:4; stroke-opacity:1; fill:none" points="
  798.182,1444.78 798.182,1454.23 
  "/>
<polyline clip-path="url(#clip110)" style="stroke:#333333; stroke-linecap:butt; stroke-linejoin:round; stroke-width:4; stroke-opacity:1; fill:none" points="
  997.486,1444.78 997.486,1454.23 
  "/>
<polyline clip-path="url(#clip110)" style="stroke:#333333; stroke-linecap:butt; stroke-linejoin:round; stroke-width:4; stroke-opacity:1; fill:none" points="
  1196.79,1444.78 1196.79,1454.23 
  "/>
<polyline clip-path="url(#clip110)" style="stroke:#333333; stroke-linecap:butt; stroke-linejoin:round; stroke-width:4; stroke-opacity:1; fill:none" points="
  1396.09,1444.78 1396.09,1454.23 
  "/>
<polyline clip-path="url(#clip110)" style="stroke:#333333; stroke-linecap:butt; stroke-linejoin:round; stroke-width:4; stroke-opacity:1; fill:none" points="
  1595.4,1444.78 1595.4,1454.23 
  "/>
<polyline clip-path="url(#clip110)" style="stroke:#333333; stroke-linecap:butt; stroke-linejoin:round; stroke-width:4; stroke-opacity:1; fill:none" points="
  1794.7,1444.78 1794.7,1454.23 
  "/>
<polyline clip-path="url(#clip110)" style="stroke:#333333; stroke-linecap:butt; stroke-linejoin:round; stroke-width:4; stroke-opacity:1; fill:none" points="
  1994.01,1444.78 1994.01,1454.23 
  "/>
<polyline clip-path="url(#clip110)" style="stroke:#333333; stroke-linecap:butt; stroke-linejoin:round; stroke-width:4; stroke-opacity:1; fill:none" points="
  2193.31,1444.78 2193.31,1454.23 
  "/>
<path clip-path="url(#clip110)" d="M299.921 1482.37 Q297.212 1482.37 295.841 1485.04 Q294.487 1487.7 294.487 1493.05 Q294.487 1498.38 295.841 1501.05 Q297.212 1503.71 299.921 1503.71 Q302.646 1503.71 304.001 1501.05 Q305.372 1498.38 305.372 1493.05 Q305.372 1487.7 304.001 1485.04 Q302.646 1482.37 299.921 1482.37 M299.921 1479.59 Q304.278 1479.59 306.57 1483.05 Q308.879 1486.48 308.879 1493.05 Q308.879 1499.59 306.57 1503.05 Q304.278 1506.48 299.921 1506.48 Q295.563 1506.48 293.254 1503.05 Q290.962 1499.59 290.962 1493.05 Q290.962 1486.48 293.254 1483.05 Q295.563 1479.59 299.921 1479.59 Z" fill="#4c4c4c" fill-rule="evenodd" fill-opacity="1" /><path clip-path="url(#clip110)" d="M480.241 1503.03 L485.97 1503.03 L485.97 1483.25 L479.737 1484.5 L479.737 1481.31 L485.935 1480.06 L489.442 1480.06 L489.442 1503.03 L495.171 1503.03 L495.171 1505.98 L480.241 1505.98 L480.241 1503.03 Z" fill="#4c4c4c" fill-rule="evenodd" fill-opacity="1" /><path clip-path="url(#clip110)" d="M509.755 1482.37 Q507.046 1482.37 505.675 1485.04 Q504.321 1487.7 504.321 1493.05 Q504.321 1498.38 505.675 1501.05 Q507.046 1503.71 509.755 1503.71 Q512.48 1503.71 513.834 1501.05 Q515.206 1498.38 515.206 1493.05 Q515.206 1487.7 513.834 1485.04 Q512.48 1482.37 509.755 1482.37 M509.755 1479.59 Q514.112 1479.59 516.404 1483.05 Q518.713 1486.48 518.713 1493.05 Q518.713 1499.59 516.404 1503.05 Q514.112 1506.48 509.755 1506.48 Q505.397 1506.48 503.088 1503.05 Q500.796 1499.59 500.796 1493.05 Q500.796 1486.48 503.088 1483.05 Q505.397 1479.59 509.755 1479.59 Z" fill="#4c4c4c" fill-rule="evenodd" fill-opacity="1" /><path clip-path="url(#clip110)" d="M682.609 1503.03 L694.849 1503.03 L694.849 1505.98 L678.391 1505.98 L678.391 1503.03 Q680.387 1500.96 683.825 1497.49 Q687.28 1494 688.165 1492.99 Q689.849 1491.1 690.509 1489.8 Q691.186 1488.48 691.186 1487.21 Q691.186 1485.15 689.728 1483.84 Q688.287 1482.54 685.96 1482.54 Q684.311 1482.54 682.471 1483.12 Q680.648 1483.69 678.564 1484.85 L678.564 1481.31 Q680.682 1480.46 682.523 1480.03 Q684.363 1479.59 685.891 1479.59 Q689.918 1479.59 692.314 1481.6 Q694.71 1483.62 694.71 1486.99 Q694.71 1488.58 694.102 1490.03 Q693.512 1491.45 691.932 1493.39 Q691.498 1493.9 689.172 1496.31 Q686.846 1498.71 682.609 1503.03 Z" fill="#4c4c4c" fill-rule="evenodd" fill-opacity="1" /><path clip-path="url(#clip110)" d="M709.71 1482.37 Q707.002 1482.37 705.63 1485.04 Q704.276 1487.7 704.276 1493.05 Q704.276 1498.38 705.63 1501.05 Q707.002 1503.71 709.71 1503.71 Q712.436 1503.71 713.79 1501.05 Q715.161 1498.38 715.161 1493.05 Q715.161 1487.7 713.79 1485.04 Q712.436 1482.37 709.71 1482.37 M709.71 1479.59 Q714.068 1479.59 716.359 1483.05 Q718.668 1486.48 718.668 1493.05 Q718.668 1499.59 716.359 1503.05 Q714.068 1506.48 709.71 1506.48 Q705.352 1506.48 703.043 1503.05 Q700.752 1499.59 700.752 1493.05 Q700.752 1486.48 703.043 1483.05 Q705.352 1479.59 709.71 1479.59 Z" fill="#4c4c4c" fill-rule="evenodd" fill-opacity="1" /><path clip-path="url(#clip110)" d="M889.466 1492 Q891.983 1492.54 893.39 1494.24 Q894.813 1495.95 894.813 1498.45 Q894.813 1502.28 892.174 1504.38 Q889.535 1506.48 884.674 1506.48 Q883.042 1506.48 881.306 1506.15 Q879.587 1505.84 877.747 1505.2 L877.747 1501.81 Q879.206 1502.66 880.942 1503.1 Q882.678 1503.53 884.57 1503.53 Q887.869 1503.53 889.587 1502.23 Q891.324 1500.93 891.324 1498.45 Q891.324 1496.15 889.709 1494.87 Q888.112 1493.57 885.247 1493.57 L882.226 1493.57 L882.226 1490.68 L885.386 1490.68 Q887.973 1490.68 889.344 1489.66 Q890.716 1488.62 890.716 1486.67 Q890.716 1484.68 889.292 1483.62 Q887.886 1482.54 885.247 1482.54 Q883.806 1482.54 882.157 1482.85 Q880.508 1483.17 878.528 1483.83 L878.528 1480.7 Q880.525 1480.15 882.261 1479.87 Q884.015 1479.59 885.56 1479.59 Q889.553 1479.59 891.879 1481.41 Q894.205 1483.22 894.205 1486.31 Q894.205 1488.46 892.973 1489.96 Q891.74 1491.43 889.466 1492 Z" fill="#4c4c4c" fill-rule="evenodd" fill-opacity="1" /><path clip-path="url(#clip110)" d="M908.962 1482.37 Q906.254 1482.37 904.882 1485.04 Q903.528 1487.7 903.528 1493.05 Q903.528 1498.38 904.882 1501.05 Q906.254 1503.71 908.962 1503.71 Q911.688 1503.71 913.042 1501.05 Q914.414 1498.38 914.414 1493.05 Q914.414 1487.7 913.042 1485.04 Q911.688 1482.37 908.962 1482.37 M908.962 1479.59 Q913.32 1479.59 915.612 1483.05 Q917.921 1486.48 917.921 1493.05 Q917.921 1499.59 915.612 1503.05 Q913.32 1506.48 908.962 1506.48 Q904.605 1506.48 902.296 1503.05 Q900.004 1499.59 900.004 1493.05 Q900.004 1486.48 902.296 1483.05 Q904.605 1479.59 908.962 1479.59 Z" fill="#4c4c4c" fill-rule="evenodd" fill-opacity="1" /><path clip-path="url(#clip110)" d="M1088.27 1483.12 L1079.41 1496.95 L1088.27 1496.95 L1088.27 1483.12 M1087.35 1480.06 L1091.76 1480.06 L1091.76 1496.95 L1095.45 1496.95 L1095.45 1499.87 L1091.76 1499.87 L1091.76 1505.98 L1088.27 1505.98 L1088.27 1499.87 L1076.57 1499.87 L1076.57 1496.48 L1087.35 1480.06 Z" fill="#4c4c4c" fill-rule="evenodd" fill-opacity="1" /><path clip-path="url(#clip110)" d="M1108.75 1482.37 Q1106.04 1482.37 1104.67 1485.04 Q1103.32 1487.7 1103.32 1493.05 Q1103.32 1498.38 1104.67 1501.05 Q1106.04 1503.71 1108.75 1503.71 Q1111.48 1503.71 1112.83 1501.05 Q1114.2 1498.38 1114.2 1493.05 Q1114.2 1487.7 1112.83 1485.04 Q1111.48 1482.37 1108.75 1482.37 M1108.75 1479.59 Q1113.11 1479.59 1115.4 1483.05 Q1117.71 1486.48 1117.71 1493.05 Q1117.71 1499.59 1115.4 1503.05 Q1113.11 1506.48 1108.75 1506.48 Q1104.4 1506.48 1102.09 1503.05 Q1099.79 1499.59 1099.79 1493.05 Q1099.79 1486.48 1102.09 1483.05 Q1104.4 1479.59 1108.75 1479.59 Z" fill="#4c4c4c" fill-rule="evenodd" fill-opacity="1" /><path clip-path="url(#clip110)" d="M1277.47 1480.06 L1291.23 1480.06 L1291.23 1483.01 L1280.68 1483.01 L1280.68 1489.37 Q1281.44 1489.1 1282.21 1488.98 Q1282.97 1488.84 1283.73 1488.84 Q1288.07 1488.84 1290.61 1491.22 Q1293.14 1493.6 1293.14 1497.66 Q1293.14 1501.85 1290.54 1504.17 Q1287.94 1506.48 1283.2 1506.48 Q1281.56 1506.48 1279.86 1506.21 Q1278.18 1505.93 1276.37 1505.37 L1276.37 1501.85 Q1277.94 1502.7 1279.6 1503.12 Q1281.27 1503.53 1283.13 1503.53 Q1286.13 1503.53 1287.88 1501.95 Q1289.64 1500.37 1289.64 1497.66 Q1289.64 1494.96 1287.88 1493.38 Q1286.13 1491.8 1283.13 1491.8 Q1281.72 1491.8 1280.31 1492.11 Q1278.93 1492.42 1277.47 1493.08 L1277.47 1480.06 Z" fill="#4c4c4c" fill-rule="evenodd" fill-opacity="1" /><path clip-path="url(#clip110)" d="M1307.55 1482.37 Q1304.85 1482.37 1303.47 1485.04 Q1302.12 1487.7 1302.12 1493.05 Q1302.12 1498.38 1303.47 1501.05 Q1304.85 1503.71 1307.55 1503.71 Q1310.28 1503.71 1311.63 1501.05 Q1313.01 1498.38 1313.01 1493.05 Q1313.01 1487.7 1311.63 1485.04 Q1310.28 1482.37 1307.55 1482.37 M1307.55 1479.59 Q1311.91 1479.59 1314.2 1483.05 Q1316.51 1486.48 1316.51 1493.05 Q1316.51 1499.59 1314.2 1503.05 Q1311.91 1506.48 1307.55 1506.48 Q1303.2 1506.48 1300.89 1503.05 Q1298.6 1499.59 1298.6 1493.05 Q1298.6 1486.48 1300.89 1483.05 Q1303.2 1479.59 1307.55 1479.59 Z" fill="#4c4c4c" fill-rule="evenodd" fill-opacity="1" /><path clip-path="url(#clip110)" d="M1484.8 1491.62 Q1482.44 1491.62 1481.05 1493.24 Q1479.68 1494.85 1479.68 1497.66 Q1479.68 1500.46 1481.05 1502.09 Q1482.44 1503.71 1484.8 1503.71 Q1487.16 1503.71 1488.53 1502.09 Q1489.92 1500.46 1489.92 1497.66 Q1489.92 1494.85 1488.53 1493.24 Q1487.16 1491.62 1484.8 1491.62 M1491.76 1480.63 L1491.76 1483.83 Q1490.44 1483.2 1489.09 1482.87 Q1487.75 1482.54 1486.43 1482.54 Q1482.96 1482.54 1481.12 1484.89 Q1479.3 1487.23 1479.04 1491.97 Q1480.06 1490.46 1481.61 1489.66 Q1483.15 1488.84 1485.01 1488.84 Q1488.92 1488.84 1491.17 1491.22 Q1493.45 1493.58 1493.45 1497.66 Q1493.45 1501.66 1491.09 1504.07 Q1488.72 1506.48 1484.8 1506.48 Q1480.3 1506.48 1477.93 1503.05 Q1475.55 1499.59 1475.55 1493.05 Q1475.55 1486.9 1478.46 1483.25 Q1481.38 1479.59 1486.29 1479.59 Q1487.61 1479.59 1488.95 1479.85 Q1490.3 1480.11 1491.76 1480.63 Z" fill="#4c4c4c" fill-rule="evenodd" fill-opacity="1" /><path clip-path="url(#clip110)" d="M1506.99 1482.37 Q1504.28 1482.37 1502.91 1485.04 Q1501.55 1487.7 1501.55 1493.05 Q1501.55 1498.38 1502.91 1501.05 Q1504.28 1503.71 1506.99 1503.71 Q1509.71 1503.71 1511.07 1501.05 Q1512.44 1498.38 1512.44 1493.05 Q1512.44 1487.7 1511.07 1485.04 Q1509.71 1482.37 1506.99 1482.37 M1506.99 1479.59 Q1511.35 1479.59 1513.64 1483.05 Q1515.95 1486.48 1515.95 1493.05 Q1515.95 1499.59 1513.64 1503.05 Q1511.35 1506.48 1506.99 1506.48 Q1502.63 1506.48 1500.32 1503.05 Q1498.03 1499.59 1498.03 1493.05 Q1498.03 1486.48 1500.32 1483.05 Q1502.63 1479.59 1506.99 1479.59 Z" fill="#4c4c4c" fill-rule="evenodd" fill-opacity="1" /><path clip-path="url(#clip110)" d="M1675.07 1480.06 L1691.74 1480.06 L1691.74 1481.55 L1682.33 1505.98 L1678.66 1505.98 L1687.52 1483.01 L1675.07 1483.01 L1675.07 1480.06 Z" fill="#4c4c4c" fill-rule="evenodd" fill-opacity="1" /><path clip-path="url(#clip110)" d="M1706.08 1482.37 Q1703.37 1482.37 1702 1485.04 Q1700.64 1487.7 1700.64 1493.05 Q1700.64 1498.38 1702 1501.05 Q1703.37 1503.71 1706.08 1503.71 Q1708.8 1503.71 1710.16 1501.05 Q1711.53 1498.38 1711.53 1493.05 Q1711.53 1487.7 1710.16 1485.04 Q1708.8 1482.37 1706.08 1482.37 M1706.08 1479.59 Q1710.43 1479.59 1712.72 1483.05 Q1715.03 1486.48 1715.03 1493.05 Q1715.03 1499.59 1712.72 1503.05 Q1710.43 1506.48 1706.08 1506.48 Q1701.72 1506.48 1699.41 1503.05 Q1697.12 1499.59 1697.12 1493.05 Q1697.12 1486.48 1699.41 1483.05 Q1701.72 1479.59 1706.08 1479.59 Z" fill="#4c4c4c" fill-rule="evenodd" fill-opacity="1" /><path clip-path="url(#clip110)" d="M1883.01 1493.67 Q1880.51 1493.67 1879.07 1495.01 Q1877.65 1496.34 1877.65 1498.69 Q1877.65 1501.03 1879.07 1502.37 Q1880.51 1503.71 1883.01 1503.71 Q1885.51 1503.71 1886.95 1502.37 Q1888.39 1501.01 1888.39 1498.69 Q1888.39 1496.34 1886.95 1495.01 Q1885.53 1493.67 1883.01 1493.67 M1879.5 1492.18 Q1877.25 1491.62 1875.98 1490.08 Q1874.73 1488.53 1874.73 1486.31 Q1874.73 1483.2 1876.93 1481.4 Q1879.16 1479.59 1883.01 1479.59 Q1886.88 1479.59 1889.09 1481.4 Q1891.29 1483.2 1891.29 1486.31 Q1891.29 1488.53 1890.02 1490.08 Q1888.77 1491.62 1886.53 1492.18 Q1889.07 1492.77 1890.48 1494.49 Q1891.9 1496.21 1891.9 1498.69 Q1891.9 1502.46 1889.59 1504.47 Q1887.3 1506.48 1883.01 1506.48 Q1878.72 1506.48 1876.41 1504.47 Q1874.12 1502.46 1874.12 1498.69 Q1874.12 1496.21 1875.55 1494.49 Q1876.97 1492.77 1879.5 1492.18 M1878.22 1486.64 Q1878.22 1488.65 1879.47 1489.78 Q1880.74 1490.91 1883.01 1490.91 Q1885.27 1490.91 1886.53 1489.78 Q1887.82 1488.65 1887.82 1486.64 Q1887.82 1484.63 1886.53 1483.5 Q1885.27 1482.37 1883.01 1482.37 Q1880.74 1482.37 1879.47 1483.5 Q1878.22 1484.63 1878.22 1486.64 Z" fill="#4c4c4c" fill-rule="evenodd" fill-opacity="1" /><path clip-path="url(#clip110)" d="M1905.63 1482.37 Q1902.92 1482.37 1901.55 1485.04 Q1900.2 1487.7 1900.2 1493.05 Q1900.2 1498.38 1901.55 1501.05 Q1902.92 1503.71 1905.63 1503.71 Q1908.36 1503.71 1909.71 1501.05 Q1911.08 1498.38 1911.08 1493.05 Q1911.08 1487.7 1909.71 1485.04 Q1908.36 1482.37 1905.63 1482.37 M1905.63 1479.59 Q1909.99 1479.59 1912.28 1483.05 Q1914.59 1486.48 1914.59 1493.05 Q1914.59 1499.59 1912.28 1503.05 Q1909.99 1506.48 1905.63 1506.48 Q1901.27 1506.48 1898.97 1503.05 Q1896.67 1499.59 1896.67 1493.05 Q1896.67 1486.48 1898.97 1483.05 Q1901.27 1479.59 1905.63 1479.59 Z" fill="#4c4c4c" fill-rule="evenodd" fill-opacity="1" /><path clip-path="url(#clip110)" d="M2075.01 1505.44 L2075.01 1502.25 Q2076.33 1502.87 2077.68 1503.2 Q2079.03 1503.53 2080.34 1503.53 Q2083.81 1503.53 2085.63 1501.21 Q2087.47 1498.86 2087.73 1494.1 Q2086.72 1495.6 2085.18 1496.4 Q2083.63 1497.2 2081.76 1497.2 Q2077.87 1497.2 2075.6 1494.85 Q2073.34 1492.49 2073.34 1488.41 Q2073.34 1484.42 2075.7 1482 Q2078.06 1479.59 2081.98 1479.59 Q2086.48 1479.59 2088.84 1483.05 Q2091.22 1486.48 2091.22 1493.05 Q2091.22 1499.17 2088.3 1502.84 Q2085.41 1506.48 2080.49 1506.48 Q2079.17 1506.48 2077.82 1506.22 Q2076.46 1505.96 2075.01 1505.44 M2081.98 1494.45 Q2084.35 1494.45 2085.72 1492.84 Q2087.11 1491.22 2087.11 1488.41 Q2087.11 1485.62 2085.72 1484 Q2084.35 1482.37 2081.98 1482.37 Q2079.62 1482.37 2078.23 1484 Q2076.86 1485.62 2076.86 1488.41 Q2076.86 1491.22 2078.23 1492.84 Q2079.62 1494.45 2081.98 1494.45 Z" fill="#4c4c4c" fill-rule="evenodd" fill-opacity="1" /><path clip-path="url(#clip110)" d="M2105.02 1482.37 Q2102.31 1482.37 2100.94 1485.04 Q2099.59 1487.7 2099.59 1493.05 Q2099.59 1498.38 2100.94 1501.05 Q2102.31 1503.71 2105.02 1503.71 Q2107.75 1503.71 2109.1 1501.05 Q2110.47 1498.38 2110.47 1493.05 Q2110.47 1487.7 2109.1 1485.04 Q2107.75 1482.37 2105.02 1482.37 M2105.02 1479.59 Q2109.38 1479.59 2111.67 1483.05 Q2113.98 1486.48 2113.98 1493.05 Q2113.98 1499.59 2111.67 1503.05 Q2109.38 1506.48 2105.02 1506.48 Q2100.67 1506.48 2098.36 1503.05 Q2096.06 1499.59 2096.06 1493.05 Q2096.06 1486.48 2098.36 1483.05 Q2100.67 1479.59 2105.02 1479.59 Z" fill="#4c4c4c" fill-rule="evenodd" fill-opacity="1" /><path clip-path="url(#clip110)" d="M2262.67 1503.03 L2268.4 1503.03 L2268.4 1483.25 L2262.17 1484.5 L2262.17 1481.31 L2268.36 1480.06 L2271.87 1480.06 L2271.87 1503.03 L2277.6 1503.03 L2277.6 1505.98 L2262.67 1505.98 L2262.67 1503.03 Z" fill="#4c4c4c" fill-rule="evenodd" fill-opacity="1" /><path clip-path="url(#clip110)" d="M2292.18 1482.37 Q2289.48 1482.37 2288.1 1485.04 Q2286.75 1487.7 2286.75 1493.05 Q2286.75 1498.38 2288.1 1501.05 Q2289.48 1503.71 2292.18 1503.71 Q2294.91 1503.71 2296.26 1501.05 Q2297.63 1498.38 2297.63 1493.05 Q2297.63 1487.7 2296.26 1485.04 Q2294.91 1482.37 2292.18 1482.37 M2292.18 1479.59 Q2296.54 1479.59 2298.83 1483.05 Q2301.14 1486.48 2301.14 1493.05 Q2301.14 1499.59 2298.83 1503.05 Q2296.54 1506.48 2292.18 1506.48 Q2287.83 1506.48 2285.52 1503.05 Q2283.23 1499.59 2283.23 1493.05 Q2283.23 1486.48 2285.52 1483.05 Q2287.83 1479.59 2292.18 1479.59 Z" fill="#4c4c4c" fill-rule="evenodd" fill-opacity="1" /><path clip-path="url(#clip110)" d="M2314.8 1482.37 Q2312.1 1482.37 2310.72 1485.04 Q2309.37 1487.7 2309.37 1493.05 Q2309.37 1498.38 2310.72 1501.05 Q2312.1 1503.71 2314.8 1503.71 Q2317.53 1503.71 2318.88 1501.05 Q2320.26 1498.38 2320.26 1493.05 Q2320.26 1487.7 2318.88 1485.04 Q2317.53 1482.37 2314.8 1482.37 M2314.8 1479.59 Q2319.16 1479.59 2321.45 1483.05 Q2323.76 1486.48 2323.76 1493.05 Q2323.76 1499.59 2321.45 1503.05 Q2319.16 1506.48 2314.8 1506.48 Q2310.45 1506.48 2308.14 1503.05 Q2305.85 1499.59 2305.85 1493.05 Q2305.85 1486.48 2308.14 1483.05 Q2310.45 1479.59 2314.8 1479.59 Z" fill="#4c4c4c" fill-rule="evenodd" fill-opacity="1" /><path clip-path="url(#clip110)" d="M1187.03 1526.57 L1191.71 1526.57 L1191.71 1561.13 L1187.03 1561.13 L1187.03 1526.57 Z" fill="#000000" fill-rule="evenodd" fill-opacity="1" /><path clip-path="url(#clip110)" d="M1205.04 1527.84 L1205.04 1535.21 L1213.82 1535.21 L1213.82 1538.52 L1205.04 1538.52 L1205.04 1552.59 Q1205.04 1555.76 1205.9 1556.66 Q1206.78 1557.57 1209.44 1557.57 L1213.82 1557.57 L1213.82 1561.13 L1209.44 1561.13 Q1204.51 1561.13 1202.64 1559.3 Q1200.76 1557.45 1200.76 1552.59 L1200.76 1538.52 L1197.64 1538.52 L1197.64 1535.21 L1200.76 1535.21 L1200.76 1527.84 L1205.04 1527.84 Z" fill="#000000" fill-rule="evenodd" fill-opacity="1" /><path clip-path="url(#clip110)" d="M1241.59 1547.1 L1241.59 1549.19 L1222.01 1549.19 Q1222.29 1553.59 1224.65 1555.9 Q1227.03 1558.19 1231.27 1558.19 Q1233.72 1558.19 1236.01 1557.59 Q1238.33 1556.99 1240.6 1555.78 L1240.6 1559.81 Q1238.31 1560.78 1235.9 1561.29 Q1233.49 1561.8 1231.01 1561.8 Q1224.81 1561.8 1221.18 1558.19 Q1217.57 1554.58 1217.57 1548.42 Q1217.57 1542.06 1220.99 1538.33 Q1224.44 1534.58 1230.27 1534.58 Q1235.51 1534.58 1238.54 1537.96 Q1241.59 1541.32 1241.59 1547.1 M1237.33 1545.85 Q1237.29 1542.36 1235.37 1540.28 Q1233.47 1538.19 1230.32 1538.19 Q1226.76 1538.19 1224.6 1540.21 Q1222.47 1542.22 1222.15 1545.88 L1237.33 1545.85 Z" fill="#000000" fill-rule="evenodd" fill-opacity="1" /><path clip-path="url(#clip110)" d="M1263.61 1539.19 Q1262.89 1538.77 1262.03 1538.59 Q1261.2 1538.38 1260.18 1538.38 Q1256.57 1538.38 1254.63 1540.74 Q1252.7 1543.08 1252.7 1547.47 L1252.7 1561.13 L1248.42 1561.13 L1248.42 1535.21 L1252.7 1535.21 L1252.7 1539.23 Q1254.05 1536.87 1256.2 1535.74 Q1258.35 1534.58 1261.43 1534.58 Q1261.87 1534.58 1262.4 1534.65 Q1262.94 1534.7 1263.58 1534.81 L1263.61 1539.19 Z" fill="#000000" fill-rule="evenodd" fill-opacity="1" /><path clip-path="url(#clip110)" d="M1279.86 1548.1 Q1274.7 1548.1 1272.7 1549.28 Q1270.71 1550.46 1270.71 1553.31 Q1270.71 1555.58 1272.2 1556.92 Q1273.7 1558.24 1276.27 1558.24 Q1279.81 1558.24 1281.94 1555.74 Q1284.09 1553.22 1284.09 1549.05 L1284.09 1548.1 L1279.86 1548.1 M1288.35 1546.34 L1288.35 1561.13 L1284.09 1561.13 L1284.09 1557.2 Q1282.63 1559.56 1280.46 1560.69 Q1278.28 1561.8 1275.13 1561.8 Q1271.15 1561.8 1268.79 1559.58 Q1266.45 1557.34 1266.45 1553.59 Q1266.45 1549.21 1269.37 1546.99 Q1272.31 1544.77 1278.12 1544.77 L1284.09 1544.77 L1284.09 1544.35 Q1284.09 1541.41 1282.15 1539.81 Q1280.23 1538.19 1276.73 1538.19 Q1274.51 1538.19 1272.4 1538.72 Q1270.3 1539.26 1268.35 1540.32 L1268.35 1536.39 Q1270.69 1535.48 1272.89 1535.04 Q1275.09 1534.58 1277.17 1534.58 Q1282.8 1534.58 1285.57 1537.5 Q1288.35 1540.41 1288.35 1546.34 Z" fill="#000000" fill-rule="evenodd" fill-opacity="1" /><path clip-path="url(#clip110)" d="M1301.34 1527.84 L1301.34 1535.21 L1310.11 1535.21 L1310.11 1538.52 L1301.34 1538.52 L1301.34 1552.59 Q1301.34 1555.76 1302.19 1556.66 Q1303.07 1557.57 1305.74 1557.57 L1310.11 1557.57 L1310.11 1561.13 L1305.74 1561.13 Q1300.81 1561.13 1298.93 1559.3 Q1297.06 1557.45 1297.06 1552.59 L1297.06 1538.52 L1293.93 1538.52 L1293.93 1535.21 L1297.06 1535.21 L1297.06 1527.84 L1301.34 1527.84 Z" fill="#000000" fill-rule="evenodd" fill-opacity="1" /><path clip-path="url(#clip110)" d="M1315.71 1535.21 L1319.97 1535.21 L1319.97 1561.13 L1315.71 1561.13 L1315.71 1535.21 M1315.71 1525.11 L1319.97 1525.11 L1319.97 1530.51 L1315.71 1530.51 L1315.71 1525.11 Z" fill="#000000" fill-rule="evenodd" fill-opacity="1" /><path clip-path="url(#clip110)" d="M1338.93 1538.19 Q1335.5 1538.19 1333.51 1540.88 Q1331.52 1543.54 1331.52 1548.19 Q1331.52 1552.84 1333.49 1555.53 Q1335.48 1558.19 1338.93 1558.19 Q1342.33 1558.19 1344.32 1555.51 Q1346.32 1552.82 1346.32 1548.19 Q1346.32 1543.59 1344.32 1540.9 Q1342.33 1538.19 1338.93 1538.19 M1338.93 1534.58 Q1344.49 1534.58 1347.66 1538.19 Q1350.83 1541.8 1350.83 1548.19 Q1350.83 1554.56 1347.66 1558.19 Q1344.49 1561.8 1338.93 1561.8 Q1333.35 1561.8 1330.18 1558.19 Q1327.03 1554.56 1327.03 1548.19 Q1327.03 1541.8 1330.18 1538.19 Q1333.35 1534.58 1338.93 1534.58 Z" fill="#000000" fill-rule="evenodd" fill-opacity="1" /><path clip-path="url(#clip110)" d="M1379.44 1545.48 L1379.44 1561.13 L1375.18 1561.13 L1375.18 1545.62 Q1375.18 1541.94 1373.75 1540.11 Q1372.31 1538.28 1369.44 1538.28 Q1365.99 1538.28 1364 1540.48 Q1362.01 1542.68 1362.01 1546.48 L1362.01 1561.13 L1357.73 1561.13 L1357.73 1535.21 L1362.01 1535.21 L1362.01 1539.23 Q1363.54 1536.9 1365.6 1535.74 Q1367.68 1534.58 1370.39 1534.58 Q1374.86 1534.58 1377.15 1537.36 Q1379.44 1540.11 1379.44 1545.48 Z" fill="#000000" fill-rule="evenodd" fill-opacity="1" /><path clip-path="url(#clip110)" d="M1404.46 1535.97 L1404.46 1540 Q1402.66 1539.07 1400.71 1538.61 Q1398.77 1538.15 1396.69 1538.15 Q1393.51 1538.15 1391.92 1539.12 Q1390.34 1540.09 1390.34 1542.03 Q1390.34 1543.52 1391.48 1544.37 Q1392.61 1545.21 1396.04 1545.97 L1397.5 1546.29 Q1402.03 1547.27 1403.93 1549.05 Q1405.85 1550.81 1405.85 1553.98 Q1405.85 1557.59 1402.98 1559.7 Q1400.13 1561.8 1395.13 1561.8 Q1393.05 1561.8 1390.78 1561.39 Q1388.54 1560.99 1386.04 1560.18 L1386.04 1555.78 Q1388.4 1557.01 1390.69 1557.64 Q1392.98 1558.24 1395.23 1558.24 Q1398.24 1558.24 1399.86 1557.22 Q1401.48 1556.18 1401.48 1554.3 Q1401.48 1552.57 1400.3 1551.64 Q1399.14 1550.72 1395.18 1549.86 L1393.7 1549.51 Q1389.74 1548.68 1387.98 1546.97 Q1386.22 1545.23 1386.22 1542.22 Q1386.22 1538.56 1388.81 1536.57 Q1391.41 1534.58 1396.18 1534.58 Q1398.54 1534.58 1400.62 1534.93 Q1402.7 1535.28 1404.46 1535.97 Z" fill="#000000" fill-rule="evenodd" fill-opacity="1" /><polyline clip-path="url(#clip112)" style="stroke:#ffffff; stroke-linecap:butt; stroke-linejoin:round; stroke-width:4; stroke-opacity:1; fill:none" points="
  240.129,1273.99 2352.76,1273.99 
  "/>
<polyline clip-path="url(#clip112)" style="stroke:#ffffff; stroke-linecap:butt; stroke-linejoin:round; stroke-width:4; stroke-opacity:1; fill:none" points="
  240.129,1017.19 2352.76,1017.19 
  "/>
<polyline clip-path="url(#clip112)" style="stroke:#ffffff; stroke-linecap:butt; stroke-linejoin:round; stroke-width:4; stroke-opacity:1; fill:none" points="
  240.129,760.392 2352.76,760.392 
  "/>
<polyline clip-path="url(#clip112)" style="stroke:#ffffff; stroke-linecap:butt; stroke-linejoin:round; stroke-width:4; stroke-opacity:1; fill:none" points="
  240.129,503.594 2352.76,503.594 
  "/>
<polyline clip-path="url(#clip112)" style="stroke:#ffffff; stroke-linecap:butt; stroke-linejoin:round; stroke-width:4; stroke-opacity:1; fill:none" points="
  240.129,246.796 2352.76,246.796 
  "/>
<polyline clip-path="url(#clip112)" style="stroke:#ffffff; stroke-linecap:butt; stroke-linejoin:round; stroke-width:2; stroke-opacity:1; fill:none" points="
  240.129,1402.39 2352.76,1402.39 
  "/>
<polyline clip-path="url(#clip112)" style="stroke:#ffffff; stroke-linecap:butt; stroke-linejoin:round; stroke-width:2; stroke-opacity:1; fill:none" points="
  240.129,1145.59 2352.76,1145.59 
  "/>
<polyline clip-path="url(#clip112)" style="stroke:#ffffff; stroke-linecap:butt; stroke-linejoin:round; stroke-width:2; stroke-opacity:1; fill:none" points="
  240.129,888.791 2352.76,888.791 
  "/>
<polyline clip-path="url(#clip112)" style="stroke:#ffffff; stroke-linecap:butt; stroke-linejoin:round; stroke-width:2; stroke-opacity:1; fill:none" points="
  240.129,631.993 2352.76,631.993 
  "/>
<polyline clip-path="url(#clip112)" style="stroke:#ffffff; stroke-linecap:butt; stroke-linejoin:round; stroke-width:2; stroke-opacity:1; fill:none" points="
  240.129,375.195 2352.76,375.195 
  "/>
<polyline clip-path="url(#clip112)" style="stroke:#ffffff; stroke-linecap:butt; stroke-linejoin:round; stroke-width:2; stroke-opacity:1; fill:none" points="
  240.129,118.397 2352.76,118.397 
  "/>
<polyline clip-path="url(#clip110)" style="stroke:#ffffff; stroke-linecap:butt; stroke-linejoin:round; stroke-width:4; stroke-opacity:1; fill:none" points="
  240.129,1444.78 240.129,106.192 
  "/>
<polyline clip-path="url(#clip110)" style="stroke:#333333; stroke-linecap:butt; stroke-linejoin:round; stroke-width:4; stroke-opacity:1; fill:none" points="
  240.129,1273.99 221.232,1273.99 
  "/>
<polyline clip-path="url(#clip110)" style="stroke:#333333; stroke-linecap:butt; stroke-linejoin:round; stroke-width:4; stroke-opacity:1; fill:none" points="
  240.129,1017.19 221.232,1017.19 
  "/>
<polyline clip-path="url(#clip110)" style="stroke:#333333; stroke-linecap:butt; stroke-linejoin:round; stroke-width:4; stroke-opacity:1; fill:none" points="
  240.129,760.392 221.232,760.392 
  "/>
<polyline clip-path="url(#clip110)" style="stroke:#333333; stroke-linecap:butt; stroke-linejoin:round; stroke-width:4; stroke-opacity:1; fill:none" points="
  240.129,503.594 221.232,503.594 
  "/>
<polyline clip-path="url(#clip110)" style="stroke:#333333; stroke-linecap:butt; stroke-linejoin:round; stroke-width:4; stroke-opacity:1; fill:none" points="
  240.129,246.796 221.232,246.796 
  "/>
<polyline clip-path="url(#clip110)" style="stroke:#333333; stroke-linecap:butt; stroke-linejoin:round; stroke-width:4; stroke-opacity:1; fill:none" points="
  240.129,1402.39 230.681,1402.39 
  "/>
<polyline clip-path="url(#clip110)" style="stroke:#333333; stroke-linecap:butt; stroke-linejoin:round; stroke-width:4; stroke-opacity:1; fill:none" points="
  240.129,1145.59 230.681,1145.59 
  "/>
<polyline clip-path="url(#clip110)" style="stroke:#333333; stroke-linecap:butt; stroke-linejoin:round; stroke-width:4; stroke-opacity:1; fill:none" points="
  240.129,888.791 230.681,888.791 
  "/>
<polyline clip-path="url(#clip110)" style="stroke:#333333; stroke-linecap:butt; stroke-linejoin:round; stroke-width:4; stroke-opacity:1; fill:none" points="
  240.129,631.993 230.681,631.993 
  "/>
<polyline clip-path="url(#clip110)" style="stroke:#333333; stroke-linecap:butt; stroke-linejoin:round; stroke-width:4; stroke-opacity:1; fill:none" points="
  240.129,375.195 230.681,375.195 
  "/>
<polyline clip-path="url(#clip110)" style="stroke:#333333; stroke-linecap:butt; stroke-linejoin:round; stroke-width:4; stroke-opacity:1; fill:none" points="
  240.129,118.397 230.681,118.397 
  "/>
<path clip-path="url(#clip110)" d="M83.3002 1274.33 L105.557 1274.33 L105.557 1277.28 L83.3002 1277.28 L83.3002 1274.33 Z" fill="#4c4c4c" fill-rule="evenodd" fill-opacity="1" /><path clip-path="url(#clip110)" d="M122.762 1264.08 L113.908 1277.92 L122.762 1277.92 L122.762 1264.08 M121.842 1261.03 L126.251 1261.03 L126.251 1277.92 L129.949 1277.92 L129.949 1280.84 L126.251 1280.84 L126.251 1286.95 L122.762 1286.95 L122.762 1280.84 L111.06 1280.84 L111.06 1277.45 L121.842 1261.03 Z" fill="#4c4c4c" fill-rule="evenodd" fill-opacity="1" /><path clip-path="url(#clip110)" d="M138.769 1284 L151.008 1284 L151.008 1286.95 L134.55 1286.95 L134.55 1284 Q136.546 1281.93 139.984 1278.46 Q143.439 1274.97 144.324 1273.96 Q146.008 1272.07 146.668 1270.77 Q147.345 1269.45 147.345 1268.18 Q147.345 1266.11 145.887 1264.81 Q144.446 1263.51 142.119 1263.51 Q140.47 1263.51 138.63 1264.08 Q136.807 1264.66 134.723 1265.82 L134.723 1262.28 Q136.842 1261.43 138.682 1260.99 Q140.522 1260.56 142.05 1260.56 Q146.078 1260.56 148.473 1262.57 Q150.869 1264.59 150.869 1267.95 Q150.869 1269.55 150.262 1270.99 Q149.671 1272.42 148.091 1274.36 Q147.657 1274.86 145.331 1277.28 Q143.005 1279.67 138.769 1284 Z" fill="#4c4c4c" fill-rule="evenodd" fill-opacity="1" /><path clip-path="url(#clip110)" d="M158.369 1282.54 L162.032 1282.54 L162.032 1286.95 L158.369 1286.95 L158.369 1282.54 Z" fill="#4c4c4c" fill-rule="evenodd" fill-opacity="1" /><path clip-path="url(#clip110)" d="M177.171 1263.34 Q174.463 1263.34 173.091 1266.01 Q171.737 1268.67 171.737 1274.01 Q171.737 1279.34 173.091 1282.02 Q174.463 1284.67 177.171 1284.67 Q179.897 1284.67 181.251 1282.02 Q182.623 1279.34 182.623 1274.01 Q182.623 1268.67 181.251 1266.01 Q179.897 1263.34 177.171 1263.34 M177.171 1260.56 Q181.529 1260.56 183.82 1264.01 Q186.129 1267.45 186.129 1274.01 Q186.129 1280.56 183.82 1284.01 Q181.529 1287.45 177.171 1287.45 Q172.814 1287.45 170.505 1284.01 Q168.213 1280.56 168.213 1274.01 Q168.213 1267.45 170.505 1264.01 Q172.814 1260.56 177.171 1260.56 Z" fill="#4c4c4c" fill-rule="evenodd" fill-opacity="1" /><path clip-path="url(#clip110)" d="M84.0467 1017.53 L106.304 1017.53 L106.304 1020.48 L84.0467 1020.48 L84.0467 1017.53 Z" fill="#4c4c4c" fill-rule="evenodd" fill-opacity="1" /><path clip-path="url(#clip110)" d="M123.508 1007.29 L114.654 1021.12 L123.508 1021.12 L123.508 1007.29 M122.588 1004.23 L126.998 1004.23 L126.998 1021.12 L130.696 1021.12 L130.696 1024.04 L126.998 1024.04 L126.998 1030.15 L123.508 1030.15 L123.508 1024.04 L111.807 1024.04 L111.807 1020.65 L122.588 1004.23 Z" fill="#4c4c4c" fill-rule="evenodd" fill-opacity="1" /><path clip-path="url(#clip110)" d="M137.102 1027.2 L142.831 1027.2 L142.831 1007.42 L136.598 1008.67 L136.598 1005.48 L142.796 1004.23 L146.303 1004.23 L146.303 1027.2 L152.032 1027.2 L152.032 1030.15 L137.102 1030.15 L137.102 1027.2 Z" fill="#4c4c4c" fill-rule="evenodd" fill-opacity="1" /><path clip-path="url(#clip110)" d="M159.116 1025.74 L162.779 1025.74 L162.779 1030.15 L159.116 1030.15 L159.116 1025.74 Z" fill="#4c4c4c" fill-rule="evenodd" fill-opacity="1" /><path clip-path="url(#clip110)" d="M170.452 1004.23 L184.22 1004.23 L184.22 1007.18 L173.664 1007.18 L173.664 1013.54 Q174.428 1013.27 175.192 1013.15 Q175.956 1013.01 176.72 1013.01 Q181.06 1013.01 183.595 1015.39 Q186.129 1017.77 186.129 1021.83 Q186.129 1026.02 183.525 1028.34 Q180.921 1030.65 176.182 1030.65 Q174.55 1030.65 172.848 1030.38 Q171.164 1030.1 169.359 1029.54 L169.359 1026.02 Q170.921 1026.87 172.588 1027.29 Q174.255 1027.7 176.112 1027.7 Q179.116 1027.7 180.869 1026.12 Q182.623 1024.54 182.623 1021.83 Q182.623 1019.13 180.869 1017.55 Q179.116 1015.97 176.112 1015.97 Q174.706 1015.97 173.3 1016.28 Q171.911 1016.59 170.452 1017.25 L170.452 1004.23 Z" fill="#4c4c4c" fill-rule="evenodd" fill-opacity="1" /><path clip-path="url(#clip110)" d="M83.3002 760.73 L105.557 760.73 L105.557 763.682 L83.3002 763.682 L83.3002 760.73 Z" fill="#4c4c4c" fill-rule="evenodd" fill-opacity="1" /><path clip-path="url(#clip110)" d="M122.762 750.487 L113.908 764.324 L122.762 764.324 L122.762 750.487 M121.842 747.432 L126.251 747.432 L126.251 764.324 L129.949 764.324 L129.949 767.241 L126.251 767.241 L126.251 773.352 L122.762 773.352 L122.762 767.241 L111.06 767.241 L111.06 763.855 L121.842 747.432 Z" fill="#4c4c4c" fill-rule="evenodd" fill-opacity="1" /><path clip-path="url(#clip110)" d="M136.355 770.4 L142.085 770.4 L142.085 750.626 L135.852 751.876 L135.852 748.682 L142.05 747.432 L145.557 747.432 L145.557 770.4 L151.286 770.4 L151.286 773.352 L136.355 773.352 L136.355 770.4 Z" fill="#4c4c4c" fill-rule="evenodd" fill-opacity="1" /><path clip-path="url(#clip110)" d="M158.369 768.942 L162.032 768.942 L162.032 773.352 L158.369 773.352 L158.369 768.942 Z" fill="#4c4c4c" fill-rule="evenodd" fill-opacity="1" /><path clip-path="url(#clip110)" d="M177.171 749.741 Q174.463 749.741 173.091 752.414 Q171.737 755.071 171.737 760.418 Q171.737 765.748 173.091 768.421 Q174.463 771.077 177.171 771.077 Q179.897 771.077 181.251 768.421 Q182.623 765.748 182.623 760.418 Q182.623 755.071 181.251 752.414 Q179.897 749.741 177.171 749.741 M177.171 746.963 Q181.529 746.963 183.82 750.418 Q186.129 753.855 186.129 760.418 Q186.129 766.963 183.82 770.418 Q181.529 773.855 177.171 773.855 Q172.814 773.855 170.505 770.418 Q168.213 766.963 168.213 760.418 Q168.213 753.855 170.505 750.418 Q172.814 746.963 177.171 746.963 Z" fill="#4c4c4c" fill-rule="evenodd" fill-opacity="1" /><path clip-path="url(#clip110)" d="M84.0467 503.932 L106.304 503.932 L106.304 506.884 L84.0467 506.884 L84.0467 503.932 Z" fill="#4c4c4c" fill-rule="evenodd" fill-opacity="1" /><path clip-path="url(#clip110)" d="M123.508 493.689 L114.654 507.526 L123.508 507.526 L123.508 493.689 M122.588 490.634 L126.998 490.634 L126.998 507.526 L130.696 507.526 L130.696 510.443 L126.998 510.443 L126.998 516.554 L123.508 516.554 L123.508 510.443 L111.807 510.443 L111.807 507.057 L122.588 490.634 Z" fill="#4c4c4c" fill-rule="evenodd" fill-opacity="1" /><path clip-path="url(#clip110)" d="M143.994 492.943 Q141.286 492.943 139.914 495.616 Q138.56 498.273 138.56 503.62 Q138.56 508.95 139.914 511.623 Q141.286 514.279 143.994 514.279 Q146.72 514.279 148.074 511.623 Q149.446 508.95 149.446 503.62 Q149.446 498.273 148.074 495.616 Q146.72 492.943 143.994 492.943 M143.994 490.165 Q148.352 490.165 150.644 493.62 Q152.953 497.057 152.953 503.62 Q152.953 510.165 150.644 513.62 Q148.352 517.057 143.994 517.057 Q139.637 517.057 137.328 513.62 Q135.036 510.165 135.036 503.62 Q135.036 497.057 137.328 493.62 Q139.637 490.165 143.994 490.165 Z" fill="#4c4c4c" fill-rule="evenodd" fill-opacity="1" /><path clip-path="url(#clip110)" d="M159.116 512.144 L162.779 512.144 L162.779 516.554 L159.116 516.554 L159.116 512.144 Z" fill="#4c4c4c" fill-rule="evenodd" fill-opacity="1" /><path clip-path="url(#clip110)" d="M170.452 490.634 L184.22 490.634 L184.22 493.585 L173.664 493.585 L173.664 499.939 Q174.428 499.679 175.192 499.557 Q175.956 499.418 176.72 499.418 Q181.06 499.418 183.595 501.797 Q186.129 504.175 186.129 508.238 Q186.129 512.422 183.525 514.748 Q180.921 517.057 176.182 517.057 Q174.55 517.057 172.848 516.779 Q171.164 516.502 169.359 515.946 L169.359 512.422 Q170.921 513.273 172.588 513.689 Q174.255 514.106 176.112 514.106 Q179.116 514.106 180.869 512.526 Q182.623 510.946 182.623 508.238 Q182.623 505.53 180.869 503.95 Q179.116 502.37 176.112 502.37 Q174.706 502.37 173.3 502.682 Q171.911 502.995 170.452 503.655 L170.452 490.634 Z" fill="#4c4c4c" fill-rule="evenodd" fill-opacity="1" /><path clip-path="url(#clip110)" d="M83.3002 247.134 L105.557 247.134 L105.557 250.086 L83.3002 250.086 L83.3002 247.134 Z" fill="#4c4c4c" fill-rule="evenodd" fill-opacity="1" /><path clip-path="url(#clip110)" d="M122.762 236.891 L113.908 250.728 L122.762 250.728 L122.762 236.891 M121.842 233.836 L126.251 233.836 L126.251 250.728 L129.949 250.728 L129.949 253.645 L126.251 253.645 L126.251 259.756 L122.762 259.756 L122.762 253.645 L111.06 253.645 L111.06 250.259 L121.842 233.836 Z" fill="#4c4c4c" fill-rule="evenodd" fill-opacity="1" /><path clip-path="url(#clip110)" d="M143.248 236.145 Q140.539 236.145 139.168 238.818 Q137.814 241.475 137.814 246.822 Q137.814 252.152 139.168 254.825 Q140.539 257.482 143.248 257.482 Q145.973 257.482 147.328 254.825 Q148.699 252.152 148.699 246.822 Q148.699 241.475 147.328 238.818 Q145.973 236.145 143.248 236.145 M143.248 233.367 Q147.605 233.367 149.897 236.822 Q152.206 240.259 152.206 246.822 Q152.206 253.367 149.897 256.822 Q147.605 260.259 143.248 260.259 Q138.89 260.259 136.581 256.822 Q134.289 253.367 134.289 246.822 Q134.289 240.259 136.581 236.822 Q138.89 233.367 143.248 233.367 Z" fill="#4c4c4c" fill-rule="evenodd" fill-opacity="1" /><path clip-path="url(#clip110)" d="M158.369 255.346 L162.032 255.346 L162.032 259.756 L158.369 259.756 L158.369 255.346 Z" fill="#4c4c4c" fill-rule="evenodd" fill-opacity="1" /><path clip-path="url(#clip110)" d="M177.171 236.145 Q174.463 236.145 173.091 238.818 Q171.737 241.475 171.737 246.822 Q171.737 252.152 173.091 254.825 Q174.463 257.482 177.171 257.482 Q179.897 257.482 181.251 254.825 Q182.623 252.152 182.623 246.822 Q182.623 241.475 181.251 238.818 Q179.897 236.145 177.171 236.145 M177.171 233.367 Q181.529 233.367 183.82 236.822 Q186.129 240.259 186.129 246.822 Q186.129 253.367 183.82 256.822 Q181.529 260.259 177.171 260.259 Q172.814 260.259 170.505 256.822 Q168.213 253.367 168.213 246.822 Q168.213 240.259 170.505 236.822 Q172.814 233.367 177.171 233.367 Z" fill="#4c4c4c" fill-rule="evenodd" fill-opacity="1" /><path clip-path="url(#clip110)" d="M20.3722 985.184 L20.3722 955.948 L24.3073 955.948 L24.3073 968.216 L54.9322 968.216 L54.9322 972.915 L24.3073 972.915 L24.3073 985.184 L20.3722 985.184 Z" fill="#000000" fill-rule="evenodd" fill-opacity="1" /><path clip-path="url(#clip110)" d="M40.9045 937.499 L42.9878 937.499 L42.9878 957.082 Q47.3859 956.804 49.7007 954.443 Q51.9924 952.059 51.9924 947.823 Q51.9924 945.369 51.3905 943.078 Q50.7887 940.763 49.585 938.494 L53.6127 938.494 Q54.5849 940.786 55.0942 943.193 Q55.6035 945.601 55.6035 948.078 Q55.6035 954.281 51.9924 957.916 Q48.3813 961.527 42.2239 961.527 Q35.8582 961.527 32.1314 958.101 Q28.3814 954.652 28.3814 948.818 Q28.3814 943.587 31.761 940.555 Q35.1174 937.499 40.9045 937.499 M39.6545 941.758 Q36.1591 941.805 34.0758 943.726 Q31.9925 945.624 31.9925 948.772 Q31.9925 952.337 34.0063 954.49 Q36.0202 956.619 39.6776 956.943 L39.6545 941.758 Z" fill="#000000" fill-rule="evenodd" fill-opacity="1" /><path clip-path="url(#clip110)" d="M29.7703 913.981 L33.798 913.981 Q32.8721 915.786 32.4091 917.731 Q31.9462 919.675 31.9462 921.758 Q31.9462 924.93 32.9184 926.527 Q33.8906 928.101 35.835 928.101 Q37.3165 928.101 38.173 926.967 Q39.0063 925.832 39.7702 922.406 L40.0943 920.948 Q41.0665 916.411 42.8489 914.513 Q44.6081 912.592 47.7794 912.592 Q51.3905 912.592 53.497 915.462 Q55.6035 918.309 55.6035 923.309 Q55.6035 925.393 55.1868 927.661 Q54.7933 929.906 53.9831 932.406 L49.585 932.406 Q50.8118 930.045 51.4368 927.754 Q52.0387 925.462 52.0387 923.217 Q52.0387 920.207 51.0201 918.587 Q49.9785 916.967 48.1035 916.967 Q46.3674 916.967 45.4415 918.147 Q44.5155 919.305 43.6591 923.263 L43.3118 924.744 Q42.4785 928.703 40.7656 930.462 Q39.0295 932.221 36.0202 932.221 Q32.3628 932.221 30.3721 929.629 Q28.3814 927.036 28.3814 922.268 Q28.3814 919.907 28.7286 917.823 Q29.0758 915.74 29.7703 913.981 Z" fill="#000000" fill-rule="evenodd" fill-opacity="1" /><path clip-path="url(#clip110)" d="M21.6453 901.596 L29.0064 901.596 L29.0064 892.823 L32.3165 892.823 L32.3165 901.596 L46.3905 901.596 Q49.5618 901.596 50.4646 900.74 Q51.3674 899.86 51.3674 897.198 L51.3674 892.823 L54.9322 892.823 L54.9322 897.198 Q54.9322 902.129 53.1035 904.004 Q51.2516 905.879 46.3905 905.879 L32.3165 905.879 L32.3165 909.004 L29.0064 909.004 L29.0064 905.879 L21.6453 905.879 L21.6453 901.596 Z" fill="#000000" fill-rule="evenodd" fill-opacity="1" /><path clip-path="url(#clip110)" d="M18.9138 872.152 L18.9138 867.893 L54.9322 867.893 L54.9322 872.152 L18.9138 872.152 Z" fill="#000000" fill-rule="evenodd" fill-opacity="1" /><path clip-path="url(#clip110)" d="M31.9925 848.935 Q31.9925 852.361 34.6776 854.351 Q37.3397 856.342 41.9924 856.342 Q46.6452 856.342 49.3303 854.374 Q51.9924 852.384 51.9924 848.935 Q51.9924 845.532 49.3072 843.541 Q46.622 841.55 41.9924 841.55 Q37.386 841.55 34.7008 843.541 Q31.9925 845.532 31.9925 848.935 M28.3814 848.935 Q28.3814 843.379 31.9925 840.208 Q35.6036 837.037 41.9924 837.037 Q48.3581 837.037 51.9924 840.208 Q55.6035 843.379 55.6035 848.935 Q55.6035 854.513 51.9924 857.685 Q48.3581 860.833 41.9924 860.833 Q35.6036 860.833 31.9925 857.685 Q28.3814 854.513 28.3814 848.935 Z" fill="#000000" fill-rule="evenodd" fill-opacity="1" /><path clip-path="url(#clip110)" d="M41.6683 812.916 Q37.0387 812.916 34.4925 814.838 Q31.9462 816.736 31.9462 820.185 Q31.9462 823.611 34.4925 825.532 Q37.0387 827.43 41.6683 827.43 Q46.2748 827.43 48.8211 825.532 Q51.3674 823.611 51.3674 820.185 Q51.3674 816.736 48.8211 814.838 Q46.2748 812.916 41.6683 812.916 M51.7146 808.657 Q58.3349 808.657 61.5525 811.597 Q64.7932 814.537 64.7932 820.601 Q64.7932 822.847 64.446 824.838 Q64.1219 826.828 63.4275 828.703 L59.284 828.703 Q60.3025 826.828 60.7886 825 Q61.2747 823.171 61.2747 821.273 Q61.2747 817.083 59.0757 815 Q56.8997 812.916 52.4785 812.916 L50.372 812.916 Q52.6637 814.236 53.7979 816.296 Q54.9322 818.356 54.9322 821.226 Q54.9322 825.995 51.2979 828.912 Q47.6637 831.828 41.6683 831.828 Q35.6499 831.828 32.0156 828.912 Q28.3814 825.995 28.3814 821.226 Q28.3814 818.356 29.5156 816.296 Q30.6499 814.236 32.9415 812.916 L29.0064 812.916 L29.0064 808.657 L51.7146 808.657 Z" fill="#000000" fill-rule="evenodd" fill-opacity="1" /><path clip-path="url(#clip110)" d="M40.048 802.037 L40.048 789.56 L43.8443 789.56 L43.8443 802.037 L40.048 802.037 Z" fill="#000000" fill-rule="evenodd" fill-opacity="1" /><path clip-path="url(#clip110)" d="M18.9138 782.778 L18.9138 778.518 L54.9322 778.518 L54.9322 782.778 L18.9138 782.778 Z" fill="#000000" fill-rule="evenodd" fill-opacity="1" /><path clip-path="url(#clip110)" d="M29.0064 769.606 L29.0064 765.347 L54.9322 765.347 L54.9322 769.606 L29.0064 769.606 M18.9138 769.606 L18.9138 765.347 L24.3073 765.347 L24.3073 769.606 L18.9138 769.606 Z" fill="#000000" fill-rule="evenodd" fill-opacity="1" /><path clip-path="url(#clip110)" d="M18.9138 756.597 L18.9138 752.315 L40.1869 752.315 L29.0064 739.607 L29.0064 734.167 L41.1359 747.917 L54.9322 733.588 L54.9322 739.144 L42.2702 752.315 L54.9322 752.315 L54.9322 756.597 L18.9138 756.597 Z" fill="#000000" fill-rule="evenodd" fill-opacity="1" /><path clip-path="url(#clip110)" d="M40.9045 708.496 L42.9878 708.496 L42.9878 728.079 Q47.3859 727.801 49.7007 725.44 Q51.9924 723.056 51.9924 718.82 Q51.9924 716.366 51.3905 714.074 Q50.7887 711.759 49.585 709.491 L53.6127 709.491 Q54.5849 711.783 55.0942 714.19 Q55.6035 716.597 55.6035 719.074 Q55.6035 725.278 51.9924 728.912 Q48.3813 732.523 42.2239 732.523 Q35.8582 732.523 32.1314 729.097 Q28.3814 725.648 28.3814 719.815 Q28.3814 714.584 31.761 711.551 Q35.1174 708.496 40.9045 708.496 M39.6545 712.755 Q36.1591 712.801 34.0758 714.722 Q31.9925 716.621 31.9925 719.769 Q31.9925 723.333 34.0063 725.486 Q36.0202 727.616 39.6776 727.94 L39.6545 712.755 Z" fill="#000000" fill-rule="evenodd" fill-opacity="1" /><path clip-path="url(#clip110)" d="M18.9138 701.505 L18.9138 697.246 L54.9322 697.246 L54.9322 701.505 L18.9138 701.505 Z" fill="#000000" fill-rule="evenodd" fill-opacity="1" /><path clip-path="url(#clip110)" d="M29.0064 688.334 L29.0064 684.074 L54.9322 684.074 L54.9322 688.334 L29.0064 688.334 M18.9138 688.334 L18.9138 684.074 L24.3073 684.074 L24.3073 688.334 L18.9138 688.334 Z" fill="#000000" fill-rule="evenodd" fill-opacity="1" /><path clip-path="url(#clip110)" d="M39.2841 653.612 L54.9322 653.612 L54.9322 657.871 L39.423 657.871 Q35.7424 657.871 33.9138 659.306 Q32.0851 660.741 32.0851 663.612 Q32.0851 667.061 34.2841 669.051 Q36.4832 671.042 40.2795 671.042 L54.9322 671.042 L54.9322 675.324 L18.9138 675.324 L18.9138 671.042 L33.0341 671.042 Q30.6962 669.514 29.5388 667.454 Q28.3814 665.371 28.3814 662.663 Q28.3814 658.195 31.1591 655.903 Q33.9138 653.612 39.2841 653.612 Z" fill="#000000" fill-rule="evenodd" fill-opacity="1" /><path clip-path="url(#clip110)" d="M31.9925 635.07 Q31.9925 638.496 34.6776 640.487 Q37.3397 642.477 41.9924 642.477 Q46.6452 642.477 49.3303 640.51 Q51.9924 638.519 51.9924 635.07 Q51.9924 631.667 49.3072 629.677 Q46.622 627.686 41.9924 627.686 Q37.386 627.686 34.7008 629.677 Q31.9925 631.667 31.9925 635.07 M28.3814 635.07 Q28.3814 629.515 31.9925 626.343 Q35.6036 623.172 41.9924 623.172 Q48.3581 623.172 51.9924 626.343 Q55.6035 629.515 55.6035 635.07 Q55.6035 640.649 51.9924 643.82 Q48.3581 646.968 41.9924 646.968 Q35.6036 646.968 31.9925 643.82 Q28.3814 640.649 28.3814 635.07 Z" fill="#000000" fill-rule="evenodd" fill-opacity="1" /><path clip-path="url(#clip110)" d="M31.9925 606.066 Q31.9925 609.492 34.6776 611.482 Q37.3397 613.473 41.9924 613.473 Q46.6452 613.473 49.3303 611.505 Q51.9924 609.515 51.9924 606.066 Q51.9924 602.663 49.3072 600.672 Q46.622 598.681 41.9924 598.681 Q37.386 598.681 34.7008 600.672 Q31.9925 602.663 31.9925 606.066 M28.3814 606.066 Q28.3814 600.51 31.9925 597.339 Q35.6036 594.168 41.9924 594.168 Q48.3581 594.168 51.9924 597.339 Q55.6035 600.51 55.6035 606.066 Q55.6035 611.644 51.9924 614.816 Q48.3581 617.964 41.9924 617.964 Q35.6036 617.964 31.9925 614.816 Q28.3814 611.644 28.3814 606.066 Z" fill="#000000" fill-rule="evenodd" fill-opacity="1" /><path clip-path="url(#clip110)" d="M32.9415 570.047 L18.9138 570.047 L18.9138 565.788 L54.9322 565.788 L54.9322 570.047 L51.0433 570.047 Q53.3581 571.39 54.4923 573.45 Q55.6035 575.487 55.6035 578.357 Q55.6035 583.056 51.8535 586.019 Q48.1035 588.959 41.9924 588.959 Q35.8813 588.959 32.1314 586.019 Q28.3814 583.056 28.3814 578.357 Q28.3814 575.487 29.5156 573.45 Q30.6267 571.39 32.9415 570.047 M41.9924 584.561 Q46.6915 584.561 49.3766 582.64 Q52.0387 580.695 52.0387 577.316 Q52.0387 573.936 49.3766 571.992 Q46.6915 570.047 41.9924 570.047 Q37.2934 570.047 34.6313 571.992 Q31.9462 573.936 31.9462 577.316 Q31.9462 580.695 34.6313 582.64 Q37.2934 584.561 41.9924 584.561 Z" fill="#000000" fill-rule="evenodd" fill-opacity="1" /><path clip-path="url(#clip110)" d="M1234.49 35.5496 Q1228.04 35.5496 1225.55 37.0253 Q1223.06 38.501 1223.06 42.06 Q1223.06 44.8956 1224.92 46.5738 Q1226.8 48.2231 1230.01 48.2231 Q1234.43 48.2231 1237.1 45.0981 Q1239.79 41.9442 1239.79 36.7359 L1239.79 35.5496 L1234.49 35.5496 M1245.11 33.3505 L1245.11 51.84 L1239.79 51.84 L1239.79 46.921 Q1237.96 49.8724 1235.25 51.2902 Q1232.53 52.6791 1228.59 52.6791 Q1223.61 52.6791 1220.66 49.9014 Q1217.74 47.0947 1217.74 42.4072 Q1217.74 36.9385 1221.39 34.1607 Q1225.06 31.3829 1232.32 31.3829 L1239.79 31.3829 L1239.79 30.8621 Q1239.79 27.1874 1237.36 25.1908 Q1234.96 23.1654 1230.59 23.1654 Q1227.81 23.1654 1225.18 23.8309 Q1222.54 24.4964 1220.11 25.8274 L1220.11 20.9085 Q1223.03 19.78 1225.78 19.2302 Q1228.53 18.6515 1231.14 18.6515 Q1238.17 18.6515 1241.64 22.2973 Q1245.11 25.9431 1245.11 33.3505 Z" fill="#000000" fill-rule="evenodd" fill-opacity="1" /><path clip-path="url(#clip110)" d="M1255.53 39.0507 L1255.53 19.4328 L1260.85 19.4328 L1260.85 38.8482 Q1260.85 43.4488 1262.65 45.7636 Q1264.44 48.0495 1268.03 48.0495 Q1272.34 48.0495 1274.83 45.3007 Q1277.35 42.5519 1277.35 37.8065 L1277.35 19.4328 L1282.67 19.4328 L1282.67 51.84 L1277.35 51.84 L1277.35 46.8632 Q1275.41 49.8145 1272.83 51.2613 Q1270.29 52.6791 1266.9 52.6791 Q1261.32 52.6791 1258.42 49.2069 Q1255.53 45.7347 1255.53 39.0507 M1268.93 18.6515 L1268.93 18.6515 Z" fill="#000000" fill-rule="evenodd" fill-opacity="1" /><path clip-path="url(#clip110)" d="M1314.96 24.3517 L1314.96 6.81709 L1320.29 6.81709 L1320.29 51.84 L1314.96 51.84 L1314.96 46.9789 Q1313.28 49.8724 1310.71 51.2902 Q1308.16 52.6791 1304.57 52.6791 Q1298.7 52.6791 1295 47.9916 Q1291.32 43.3042 1291.32 35.6653 Q1291.32 28.0265 1295 23.339 Q1298.7 18.6515 1304.57 18.6515 Q1308.16 18.6515 1310.71 20.0693 Q1313.28 21.4582 1314.96 24.3517 M1296.82 35.6653 Q1296.82 41.5391 1299.22 44.8956 Q1301.65 48.2231 1305.88 48.2231 Q1310.1 48.2231 1312.53 44.8956 Q1314.96 41.5391 1314.96 35.6653 Q1314.96 29.7915 1312.53 26.464 Q1310.1 23.1075 1305.88 23.1075 Q1301.65 23.1075 1299.22 26.464 Q1296.82 29.7915 1296.82 35.6653 Z" fill="#000000" fill-rule="evenodd" fill-opacity="1" /><path clip-path="url(#clip110)" d="M1331.25 19.4328 L1336.58 19.4328 L1336.58 51.84 L1331.25 51.84 L1331.25 19.4328 M1331.25 6.81709 L1336.58 6.81709 L1336.58 13.559 L1331.25 13.559 L1331.25 6.81709 Z" fill="#000000" fill-rule="evenodd" fill-opacity="1" /><path clip-path="url(#clip110)" d="M1360.27 23.1654 Q1355.99 23.1654 1353.5 26.5218 Q1351.01 29.8494 1351.01 35.6653 Q1351.01 41.4813 1353.47 44.8377 Q1355.96 48.1653 1360.27 48.1653 Q1364.53 48.1653 1367.02 44.8088 Q1369.5 41.4523 1369.5 35.6653 Q1369.5 29.9072 1367.02 26.5508 Q1364.53 23.1654 1360.27 23.1654 M1360.27 18.6515 Q1367.22 18.6515 1371.18 23.1654 Q1375.15 27.6792 1375.15 35.6653 Q1375.15 43.6225 1371.18 48.1653 Q1367.22 52.6791 1360.27 52.6791 Q1353.3 52.6791 1349.34 48.1653 Q1345.4 43.6225 1345.4 35.6653 Q1345.4 27.6792 1349.34 23.1654 Q1353.3 18.6515 1360.27 18.6515 Z" fill="#000000" fill-rule="evenodd" fill-opacity="1" /><polyline clip-path="url(#clip112)" style="stroke:#e26f46; stroke-linecap:butt; stroke-linejoin:round; stroke-width:8; stroke-opacity:1; fill:none" points="
  339.782,503.594 379.643,503.594 419.503,503.594 459.364,503.594 499.225,503.594 539.086,503.594 578.947,503.594 618.808,503.594 658.669,503.594 698.53,503.594 
  738.39,503.594 778.251,503.594 818.112,503.594 857.973,503.594 897.834,503.594 937.695,503.594 977.556,503.594 1017.42,503.594 1057.28,503.594 1097.14,503.594 
  1137,503.594 1176.86,503.594 1216.72,503.594 1256.58,503.594 1296.44,503.594 1336.3,503.594 1376.16,503.594 1416.03,503.594 1455.89,503.594 1495.75,503.594 
  1535.61,503.594 1575.47,503.594 1615.33,503.594 1655.19,503.594 1695.05,503.594 1734.91,503.594 1774.77,503.594 1814.63,503.594 1854.49,503.594 1894.36,503.594 
  1934.22,503.594 1974.08,503.594 2013.94,503.594 2053.8,503.594 2093.66,503.594 2133.52,503.594 2173.38,503.594 2213.24,503.594 2253.1,503.594 2292.96,503.594 
  
  "/>
<polyline clip-path="url(#clip112)" style="stroke:#3da44d; stroke-linecap:butt; stroke-linejoin:round; stroke-width:8; stroke-opacity:1; fill:none" points="
  339.782,1017.19 379.643,1017.19 419.503,1017.19 459.364,1017.19 499.225,1017.19 539.086,1017.19 578.947,1017.19 618.808,1017.19 658.669,1017.19 698.53,1017.19 
  738.39,1017.19 778.251,1017.19 818.112,1017.19 857.973,1017.19 897.834,1017.19 937.695,1017.19 977.556,1017.19 1017.42,1017.19 1057.28,1017.19 1097.14,1017.19 
  1137,1017.19 1176.86,1017.19 1216.72,1017.19 1256.58,1017.19 1296.44,1017.19 1336.3,1017.19 1376.16,1017.19 1416.03,1017.19 1455.89,1017.19 1495.75,1017.19 
  1535.61,1017.19 1575.47,1017.19 1615.33,1017.19 1655.19,1017.19 1695.05,1017.19 1734.91,1017.19 1774.77,1017.19 1814.63,1017.19 1854.49,1017.19 1894.36,1017.19 
  1934.22,1017.19 1974.08,1017.19 2013.94,1017.19 2053.8,1017.19 2093.66,1017.19 2133.52,1017.19 2173.38,1017.19 2213.24,1017.19 2253.1,1017.19 2292.96,1017.19 
  
  "/>
<polyline clip-path="url(#clip112)" style="stroke:#c271d2; stroke-linecap:butt; stroke-linejoin:round; stroke-width:8; stroke-opacity:1; fill:none" points="
  339.782,215.98 379.643,215.98 419.503,215.98 459.364,215.98 499.225,215.98 539.086,215.98 578.947,215.98 618.808,215.98 658.669,215.98 698.53,215.98 
  738.39,215.98 778.251,215.98 818.112,215.98 857.973,215.98 897.834,215.98 937.695,215.98 977.556,215.98 1017.42,215.98 1057.28,215.98 1097.14,215.98 
  1137,215.98 1176.86,215.98 1216.72,215.98 1256.58,215.98 1296.44,215.98 1336.3,215.98 1376.16,215.98 1416.03,215.98 1455.89,215.98 1495.75,215.98 
  1535.61,215.98 1575.47,215.98 1615.33,215.98 1655.19,215.98 1695.05,215.98 1734.91,215.98 1774.77,215.98 1814.63,215.98 1854.49,215.98 1894.36,215.98 
  1934.22,215.98 1974.08,215.98 2013.94,215.98 2053.8,215.98 2093.66,215.98 2133.52,215.98 2173.38,215.98 2213.24,215.98 2253.1,215.98 2292.96,215.98 
  
  "/>
<polyline clip-path="url(#clip112)" style="stroke:#ac8d18; stroke-linecap:butt; stroke-linejoin:round; stroke-width:8; stroke-opacity:1; fill:none" points="
  339.782,714.168 379.643,714.168 419.503,714.168 459.364,714.168 499.225,714.168 539.086,714.168 578.947,714.168 618.808,714.168 658.669,714.168 698.53,714.168 
  738.39,714.168 778.251,714.168 818.112,714.168 857.973,714.168 897.834,714.168 937.695,714.168 977.556,714.168 1017.42,714.168 1057.28,714.168 1097.14,714.168 
  1137,714.168 1176.86,714.168 1216.72,714.168 1256.58,714.168 1296.44,714.168 1336.3,714.168 1376.16,714.168 1416.03,714.168 1455.89,714.168 1495.75,714.168 
  1535.61,714.168 1575.47,714.168 1615.33,714.168 1655.19,714.168 1695.05,714.168 1734.91,714.168 1774.77,714.168 1814.63,714.168 1854.49,714.168 1894.36,714.168 
  1934.22,714.168 1974.08,714.168 2013.94,714.168 2053.8,714.168 2093.66,714.168 2133.52,714.168 2173.38,714.168 2213.24,714.168 2253.1,714.168 2292.96,714.168 
  
  "/>
<polyline clip-path="url(#clip112)" style="stroke:#00a9ad; stroke-linecap:butt; stroke-linejoin:round; stroke-width:8; stroke-opacity:1; fill:none" points="
  339.782,144.077 379.643,144.077 419.503,144.077 459.364,144.077 499.225,144.077 539.086,144.077 578.947,144.077 618.808,144.077 658.669,144.077 698.53,144.077 
  738.39,144.077 778.251,144.077 818.112,144.077 857.973,144.077 897.834,144.077 937.695,144.077 977.556,144.077 1017.42,144.077 1057.28,144.077 1097.14,144.077 
  1137,144.077 1176.86,144.077 1216.72,144.077 1256.58,144.077 1296.44,144.077 1336.3,144.077 1376.16,144.077 1416.03,144.077 1455.89,144.077 1495.75,144.077 
  1535.61,144.077 1575.47,144.077 1615.33,144.077 1655.19,144.077 1695.05,144.077 1734.91,144.077 1774.77,144.077 1814.63,144.077 1854.49,144.077 1894.36,144.077 
  1934.22,144.077 1974.08,144.077 2013.94,144.077 2053.8,144.077 2093.66,144.077 2133.52,144.077 2173.38,144.077 2213.24,144.077 2253.1,144.077 2292.96,144.077 
  
  "/>
<polyline clip-path="url(#clip112)" style="stroke:#009af9; stroke-linecap:butt; stroke-linejoin:round; stroke-width:12; stroke-opacity:1; fill:none" points="
  339.782,1406.9 379.643,990.736 419.503,859.558 459.364,859.444 499.225,728.875 539.086,674.31 578.947,666.166 618.808,618.61 658.669,587.731 698.53,571.6 
  738.39,620.739 778.251,552.195 818.112,520.131 857.973,497.876 897.834,481.865 937.695,475.584 977.556,472.907 1017.42,461.83 1057.28,460.325 1097.14,449.833 
  1137,449.231 1176.86,455.207 1216.72,434.096 1256.58,412.026 1296.44,407.158 1336.3,403.477 1376.16,404.587 1416.03,407.437 1455.89,401.923 1495.75,397.827 
  1535.61,392.758 1575.47,392.978 1615.33,406.338 1655.19,393.236 1695.05,386.776 1734.91,382.511 1774.77,378.706 1814.63,377.56 1854.49,373.638 1894.36,376.005 
  1934.22,380.875 1974.08,370.512 2013.94,375.691 2053.8,375.292 2093.66,371.439 2133.52,369.001 2173.38,368.862 2213.24,367.085 2253.1,366.59 2292.96,363.971 
  
  "/>
</svg>
