<?xml version="1.0" encoding="utf-8"?>
<svg xmlns="http://www.w3.org/2000/svg" xmlns:xlink="http://www.w3.org/1999/xlink" width="600" height="400" viewBox="0 0 2400 1600">
<defs>
  <clipPath id="clip520">
    <rect x="0" y="0" width="2400" height="1600"/>
  </clipPath>
</defs>
<path clip-path="url(#clip520)" d="
M0 1600 L2400 1600 L2400 0 L0 0  Z
  " fill="#ffffff" fill-rule="evenodd" fill-opacity="1"/>
<defs>
  <clipPath id="clip521">
    <rect x="480" y="0" width="1681" height="1600"/>
  </clipPath>
</defs>
<path clip-path="url(#clip520)" d="
M339.064 1422.18 L2352.76 1422.18 L2352.76 106.192 L339.064 106.192  Z
  " fill="#eaeaea" fill-rule="evenodd" fill-opacity="1"/>
<defs>
  <clipPath id="clip522">
    <rect x="339" y="106" width="2015" height="1317"/>
  </clipPath>
</defs>
<polyline clip-path="url(#clip522)" style="stroke:#ffffff; stroke-linecap:butt; stroke-linejoin:round; stroke-width:4; stroke-opacity:1; fill:none" points="
  396.055,1422.18 396.055,106.192 
  "/>
<polyline clip-path="url(#clip522)" style="stroke:#ffffff; stroke-linecap:butt; stroke-linejoin:round; stroke-width:4; stroke-opacity:1; fill:none" points="
  542.186,1422.18 542.186,106.192 
  "/>
<polyline clip-path="url(#clip522)" style="stroke:#ffffff; stroke-linecap:butt; stroke-linejoin:round; stroke-width:4; stroke-opacity:1; fill:none" points="
  688.318,1422.18 688.318,106.192 
  "/>
<polyline clip-path="url(#clip522)" style="stroke:#ffffff; stroke-linecap:butt; stroke-linejoin:round; stroke-width:4; stroke-opacity:1; fill:none" points="
  834.449,1422.18 834.449,106.192 
  "/>
<polyline clip-path="url(#clip522)" style="stroke:#ffffff; stroke-linecap:butt; stroke-linejoin:round; stroke-width:4; stroke-opacity:1; fill:none" points="
  980.581,1422.18 980.581,106.192 
  "/>
<polyline clip-path="url(#clip522)" style="stroke:#ffffff; stroke-linecap:butt; stroke-linejoin:round; stroke-width:4; stroke-opacity:1; fill:none" points="
  1126.71,1422.18 1126.71,106.192 
  "/>
<polyline clip-path="url(#clip522)" style="stroke:#ffffff; stroke-linecap:butt; stroke-linejoin:round; stroke-width:4; stroke-opacity:1; fill:none" points="
  1272.84,1422.18 1272.84,106.192 
  "/>
<polyline clip-path="url(#clip522)" style="stroke:#ffffff; stroke-linecap:butt; stroke-linejoin:round; stroke-width:4; stroke-opacity:1; fill:none" points="
  1418.98,1422.18 1418.98,106.192 
  "/>
<polyline clip-path="url(#clip522)" style="stroke:#ffffff; stroke-linecap:butt; stroke-linejoin:round; stroke-width:4; stroke-opacity:1; fill:none" points="
  1565.11,1422.18 1565.11,106.192 
  "/>
<polyline clip-path="url(#clip522)" style="stroke:#ffffff; stroke-linecap:butt; stroke-linejoin:round; stroke-width:4; stroke-opacity:1; fill:none" points="
  1711.24,1422.18 1711.24,106.192 
  "/>
<polyline clip-path="url(#clip522)" style="stroke:#ffffff; stroke-linecap:butt; stroke-linejoin:round; stroke-width:4; stroke-opacity:1; fill:none" points="
  1857.37,1422.18 1857.37,106.192 
  "/>
<polyline clip-path="url(#clip522)" style="stroke:#ffffff; stroke-linecap:butt; stroke-linejoin:round; stroke-width:4; stroke-opacity:1; fill:none" points="
  2003.5,1422.18 2003.5,106.192 
  "/>
<polyline clip-path="url(#clip522)" style="stroke:#ffffff; stroke-linecap:butt; stroke-linejoin:round; stroke-width:4; stroke-opacity:1; fill:none" points="
  2149.63,1422.18 2149.63,106.192 
  "/>
<polyline clip-path="url(#clip522)" style="stroke:#ffffff; stroke-linecap:butt; stroke-linejoin:round; stroke-width:4; stroke-opacity:1; fill:none" points="
  2295.76,1422.18 2295.76,106.192 
  "/>
<polyline clip-path="url(#clip522)" style="stroke:#ffffff; stroke-linecap:butt; stroke-linejoin:round; stroke-width:2; stroke-opacity:1; fill:none" points="
  469.121,1422.18 469.121,106.192 
  "/>
<polyline clip-path="url(#clip522)" style="stroke:#ffffff; stroke-linecap:butt; stroke-linejoin:round; stroke-width:2; stroke-opacity:1; fill:none" points="
  615.252,1422.18 615.252,106.192 
  "/>
<polyline clip-path="url(#clip522)" style="stroke:#ffffff; stroke-linecap:butt; stroke-linejoin:round; stroke-width:2; stroke-opacity:1; fill:none" points="
  761.384,1422.18 761.384,106.192 
  "/>
<polyline clip-path="url(#clip522)" style="stroke:#ffffff; stroke-linecap:butt; stroke-linejoin:round; stroke-width:2; stroke-opacity:1; fill:none" points="
  907.515,1422.18 907.515,106.192 
  "/>
<polyline clip-path="url(#clip522)" style="stroke:#ffffff; stroke-linecap:butt; stroke-linejoin:round; stroke-width:2; stroke-opacity:1; fill:none" points="
  1053.65,1422.18 1053.65,106.192 
  "/>
<polyline clip-path="url(#clip522)" style="stroke:#ffffff; stroke-linecap:butt; stroke-linejoin:round; stroke-width:2; stroke-opacity:1; fill:none" points="
  1199.78,1422.18 1199.78,106.192 
  "/>
<polyline clip-path="url(#clip522)" style="stroke:#ffffff; stroke-linecap:butt; stroke-linejoin:round; stroke-width:2; stroke-opacity:1; fill:none" points="
  1345.91,1422.18 1345.91,106.192 
  "/>
<polyline clip-path="url(#clip522)" style="stroke:#ffffff; stroke-linecap:butt; stroke-linejoin:round; stroke-width:2; stroke-opacity:1; fill:none" points="
  1492.04,1422.18 1492.04,106.192 
  "/>
<polyline clip-path="url(#clip522)" style="stroke:#ffffff; stroke-linecap:butt; stroke-linejoin:round; stroke-width:2; stroke-opacity:1; fill:none" points="
  1638.17,1422.18 1638.17,106.192 
  "/>
<polyline clip-path="url(#clip522)" style="stroke:#ffffff; stroke-linecap:butt; stroke-linejoin:round; stroke-width:2; stroke-opacity:1; fill:none" points="
  1784.3,1422.18 1784.3,106.192 
  "/>
<polyline clip-path="url(#clip522)" style="stroke:#ffffff; stroke-linecap:butt; stroke-linejoin:round; stroke-width:2; stroke-opacity:1; fill:none" points="
  1930.44,1422.18 1930.44,106.192 
  "/>
<polyline clip-path="url(#clip522)" style="stroke:#ffffff; stroke-linecap:butt; stroke-linejoin:round; stroke-width:2; stroke-opacity:1; fill:none" points="
  2076.57,1422.18 2076.57,106.192 
  "/>
<polyline clip-path="url(#clip522)" style="stroke:#ffffff; stroke-linecap:butt; stroke-linejoin:round; stroke-width:2; stroke-opacity:1; fill:none" points="
  2222.7,1422.18 2222.7,106.192 
  "/>
<polyline clip-path="url(#clip520)" style="stroke:#ffffff; stroke-linecap:butt; stroke-linejoin:round; stroke-width:4; stroke-opacity:1; fill:none" points="
  339.064,1422.18 2352.76,1422.18 
  "/>
<polyline clip-path="url(#clip520)" style="stroke:#333333; stroke-linecap:butt; stroke-linejoin:round; stroke-width:4; stroke-opacity:1; fill:none" points="
  396.055,1422.18 396.055,1441.07 
  "/>
<polyline clip-path="url(#clip520)" style="stroke:#333333; stroke-linecap:butt; stroke-linejoin:round; stroke-width:4; stroke-opacity:1; fill:none" points="
  542.186,1422.18 542.186,1441.07 
  "/>
<polyline clip-path="url(#clip520)" style="stroke:#333333; stroke-linecap:butt; stroke-linejoin:round; stroke-width:4; stroke-opacity:1; fill:none" points="
  688.318,1422.18 688.318,1441.07 
  "/>
<polyline clip-path="url(#clip520)" style="stroke:#333333; stroke-linecap:butt; stroke-linejoin:round; stroke-width:4; stroke-opacity:1; fill:none" points="
  834.449,1422.18 834.449,1441.07 
  "/>
<polyline clip-path="url(#clip520)" style="stroke:#333333; stroke-linecap:butt; stroke-linejoin:round; stroke-width:4; stroke-opacity:1; fill:none" points="
  980.581,1422.18 980.581,1441.07 
  "/>
<polyline clip-path="url(#clip520)" style="stroke:#333333; stroke-linecap:butt; stroke-linejoin:round; stroke-width:4; stroke-opacity:1; fill:none" points="
  1126.71,1422.18 1126.71,1441.07 
  "/>
<polyline clip-path="url(#clip520)" style="stroke:#333333; stroke-linecap:butt; stroke-linejoin:round; stroke-width:4; stroke-opacity:1; fill:none" points="
  1272.84,1422.18 1272.84,1441.07 
  "/>
<polyline clip-path="url(#clip520)" style="stroke:#333333; stroke-linecap:butt; stroke-linejoin:round; stroke-width:4; stroke-opacity:1; fill:none" points="
  1418.98,1422.18 1418.98,1441.07 
  "/>
<polyline clip-path="url(#clip520)" style="stroke:#333333; stroke-linecap:butt; stroke-linejoin:round; stroke-width:4; stroke-opacity:1; fill:none" points="
  1565.11,1422.18 1565.11,1441.07 
  "/>
<polyline clip-path="url(#clip520)" style="stroke:#333333; stroke-linecap:butt; stroke-linejoin:round; stroke-width:4; stroke-opacity:1; fill:none" points="
  1711.24,1422.18 1711.24,1441.07 
  "/>
<polyline clip-path="url(#clip520)" style="stroke:#333333; stroke-linecap:butt; stroke-linejoin:round; stroke-width:4; stroke-opacity:1; fill:none" points="
  1857.37,1422.18 1857.37,1441.07 
  "/>
<polyline clip-path="url(#clip520)" style="stroke:#333333; stroke-linecap:butt; stroke-linejoin:round; stroke-width:4; stroke-opacity:1; fill:none" points="
  2003.5,1422.18 2003.5,1441.07 
  "/>
<polyline clip-path="url(#clip520)" style="stroke:#333333; stroke-linecap:butt; stroke-linejoin:round; stroke-width:4; stroke-opacity:1; fill:none" points="
  2149.63,1422.18 2149.63,1441.07 
  "/>
<polyline clip-path="url(#clip520)" style="stroke:#333333; stroke-linecap:butt; stroke-linejoin:round; stroke-width:4; stroke-opacity:1; fill:none" points="
  2295.76,1422.18 2295.76,1441.07 
  "/>
<polyline clip-path="url(#clip520)" style="stroke:#333333; stroke-linecap:butt; stroke-linejoin:round; stroke-width:4; stroke-opacity:1; fill:none" points="
  469.121,1422.18 469.121,1431.63 
  "/>
<polyline clip-path="url(#clip520)" style="stroke:#333333; stroke-linecap:butt; stroke-linejoin:round; stroke-width:4; stroke-opacity:1; fill:none" points="
  615.252,1422.18 615.252,1431.63 
  "/>
<polyline clip-path="url(#clip520)" style="stroke:#333333; stroke-linecap:butt; stroke-linejoin:round; stroke-width:4; stroke-opacity:1; fill:none" points="
  761.384,1422.18 761.384,1431.63 
  "/>
<polyline clip-path="url(#clip520)" style="stroke:#333333; stroke-linecap:butt; stroke-linejoin:round; stroke-width:4; stroke-opacity:1; fill:none" points="
  907.515,1422.18 907.515,1431.63 
  "/>
<polyline clip-path="url(#clip520)" style="stroke:#333333; stroke-linecap:butt; stroke-linejoin:round; stroke-width:4; stroke-opacity:1; fill:none" points="
  1053.65,1422.18 1053.65,1431.63 
  "/>
<polyline clip-path="url(#clip520)" style="stroke:#333333; stroke-linecap:butt; stroke-linejoin:round; stroke-width:4; stroke-opacity:1; fill:none" points="
  1199.78,1422.18 1199.78,1431.63 
  "/>
<polyline clip-path="url(#clip520)" style="stroke:#333333; stroke-linecap:butt; stroke-linejoin:round; stroke-width:4; stroke-opacity:1; fill:none" points="
  1345.91,1422.18 1345.91,1431.63 
  "/>
<polyline clip-path="url(#clip520)" style="stroke:#333333; stroke-linecap:butt; stroke-linejoin:round; stroke-width:4; stroke-opacity:1; fill:none" points="
  1492.04,1422.18 1492.04,1431.63 
  "/>
<polyline clip-path="url(#clip520)" style="stroke:#333333; stroke-linecap:butt; stroke-linejoin:round; stroke-width:4; stroke-opacity:1; fill:none" points="
  1638.17,1422.18 1638.17,1431.63 
  "/>
<polyline clip-path="url(#clip520)" style="stroke:#333333; stroke-linecap:butt; stroke-linejoin:round; stroke-width:4; stroke-opacity:1; fill:none" points="
  1784.3,1422.18 1784.3,1431.63 
  "/>
<polyline clip-path="url(#clip520)" style="stroke:#333333; stroke-linecap:butt; stroke-linejoin:round; stroke-width:4; stroke-opacity:1; fill:none" points="
  1930.44,1422.18 1930.44,1431.63 
  "/>
<polyline clip-path="url(#clip520)" style="stroke:#333333; stroke-linecap:butt; stroke-linejoin:round; stroke-width:4; stroke-opacity:1; fill:none" points="
  2076.57,1422.18 2076.57,1431.63 
  "/>
<polyline clip-path="url(#clip520)" style="stroke:#333333; stroke-linecap:butt; stroke-linejoin:round; stroke-width:4; stroke-opacity:1; fill:none" points="
  2222.7,1422.18 2222.7,1431.63 
  "/>
<path clip-path="url(#clip520)" d="M409.758 1463.13 Q408.404 1460.78 405.403 1460.93 Q402.425 1461.09 397.795 1463.76 Q393.179 1466.43 391.54 1468.94 Q389.926 1471.45 391.28 1473.8 Q392.643 1476.16 395.62 1476 Q398.621 1475.85 403.237 1473.19 Q407.868 1470.52 409.483 1468 Q411.121 1465.49 409.758 1463.13 M412.164 1461.74 Q414.343 1465.51 412.496 1469.23 Q410.674 1472.94 404.991 1476.23 Q399.322 1479.5 395.176 1479.23 Q391.053 1478.96 388.874 1475.19 Q386.696 1471.41 388.518 1467.69 Q390.364 1463.98 396.032 1460.71 Q401.716 1457.43 405.838 1457.69 Q409.985 1457.97 412.164 1461.74 Z" fill="#4c4c4c" fill-rule="evenodd" fill-opacity="1" /><path clip-path="url(#clip520)" d="M533.77 1466.14 L536.635 1471.1 L553.76 1461.21 L549.561 1456.44 L552.328 1454.84 L556.509 1459.58 L558.263 1462.62 L538.371 1474.11 L541.236 1479.07 L538.68 1480.54 L531.215 1467.61 L533.77 1466.14 Z" fill="#4c4c4c" fill-rule="evenodd" fill-opacity="1" /><path clip-path="url(#clip520)" d="M566.419 1481.37 Q565.065 1479.02 562.064 1479.17 Q559.086 1479.33 554.456 1482 Q549.84 1484.66 548.201 1487.17 Q546.587 1489.69 547.941 1492.04 Q549.304 1494.4 552.281 1494.24 Q555.282 1494.09 559.898 1491.43 Q564.529 1488.75 566.144 1486.24 Q567.782 1483.73 566.419 1481.37 M568.825 1479.98 Q571.004 1483.75 569.157 1487.46 Q567.335 1491.18 561.652 1494.46 Q555.983 1497.74 551.837 1497.46 Q547.714 1497.2 545.535 1493.42 Q543.357 1489.65 545.179 1485.93 Q547.025 1482.22 552.693 1478.95 Q558.377 1475.67 562.499 1475.93 Q566.646 1476.2 568.825 1479.98 Z" fill="#4c4c4c" fill-rule="evenodd" fill-opacity="1" /><path clip-path="url(#clip520)" d="M681.76 1469.35 L687.879 1479.95 L685.323 1481.43 L677.094 1467.18 L679.65 1465.7 Q682.438 1466.4 687.163 1467.64 Q691.913 1468.89 693.228 1469.15 Q695.708 1469.66 697.166 1469.58 Q698.647 1469.51 699.745 1468.87 Q701.534 1467.84 701.932 1465.93 Q702.34 1464.03 701.176 1462.01 Q700.352 1460.59 698.935 1459.28 Q697.528 1457.99 695.479 1456.76 L698.546 1454.99 Q700.342 1456.4 701.638 1457.78 Q702.934 1459.15 703.698 1460.48 Q705.711 1463.97 705.165 1467.05 Q704.619 1470.13 701.702 1471.81 Q700.319 1472.61 698.767 1472.81 Q697.239 1473.01 694.766 1472.61 Q694.112 1472.49 690.859 1471.68 Q687.621 1470.86 681.76 1469.35 Z" fill="#4c4c4c" fill-rule="evenodd" fill-opacity="1" /><path clip-path="url(#clip520)" d="M713.202 1482.49 Q711.847 1480.15 708.846 1480.3 Q705.869 1480.45 701.238 1483.13 Q696.622 1485.79 694.984 1488.3 Q693.369 1490.82 694.724 1493.16 Q696.086 1495.52 699.064 1495.37 Q702.065 1495.22 706.681 1492.55 Q711.312 1489.88 712.926 1487.36 Q714.564 1484.86 713.202 1482.49 M715.607 1481.11 Q717.786 1484.88 715.94 1488.59 Q714.117 1492.31 708.434 1495.59 Q702.766 1498.86 698.619 1498.59 Q694.497 1498.33 692.318 1494.55 Q690.139 1490.78 691.962 1487.06 Q693.808 1483.35 699.476 1480.08 Q705.159 1476.79 709.282 1477.06 Q713.428 1477.33 715.607 1481.11 Z" fill="#4c4c4c" fill-rule="evenodd" fill-opacity="1" /><path clip-path="url(#clip520)" d="M841.188 1470.34 Q841.981 1472.79 841.211 1474.86 Q840.449 1476.94 838.284 1478.19 Q834.961 1480.11 831.823 1478.87 Q828.684 1477.64 826.253 1473.43 Q825.437 1472.01 824.855 1470.35 Q824.266 1468.7 823.902 1466.79 L826.834 1465.09 Q826.827 1466.78 827.319 1468.5 Q827.811 1470.22 828.757 1471.86 Q830.406 1474.72 832.393 1475.56 Q834.389 1476.41 836.539 1475.17 Q838.524 1474.02 838.829 1471.98 Q839.158 1469.95 837.726 1467.47 L836.215 1464.85 L838.711 1463.41 L840.291 1466.14 Q841.585 1468.38 843.157 1469.06 Q844.745 1469.73 846.429 1468.76 Q848.158 1467.76 848.364 1465.99 Q848.593 1464.24 847.273 1461.95 Q846.553 1460.71 845.457 1459.43 Q844.362 1458.16 842.801 1456.78 L845.508 1455.21 Q846.987 1456.67 848.095 1458.03 Q849.213 1459.41 849.985 1460.75 Q851.982 1464.21 851.566 1467.13 Q851.166 1470.05 848.49 1471.6 Q846.625 1472.67 844.716 1472.35 Q842.822 1472.02 841.188 1470.34 Z" fill="#4c4c4c" fill-rule="evenodd" fill-opacity="1" /><path clip-path="url(#clip520)" d="M859.281 1482.4 Q857.927 1480.06 854.926 1480.21 Q851.948 1480.36 847.317 1483.04 Q842.702 1485.7 841.063 1488.21 Q839.449 1490.73 840.803 1493.07 Q842.166 1495.43 845.143 1495.28 Q848.144 1495.13 852.76 1492.46 Q857.391 1489.79 859.006 1487.27 Q860.644 1484.76 859.281 1482.4 M861.687 1481.02 Q863.865 1484.79 862.019 1488.5 Q860.197 1492.22 854.514 1495.5 Q848.845 1498.77 844.699 1498.5 Q840.576 1498.24 838.397 1494.46 Q836.219 1490.69 838.041 1486.97 Q839.887 1483.26 845.555 1479.98 Q851.239 1476.7 855.361 1476.97 Q859.508 1477.24 861.687 1481.02 Z" fill="#4c4c4c" fill-rule="evenodd" fill-opacity="1" /><path clip-path="url(#clip520)" d="M995.009 1465.88 L978.599 1465.13 L983.026 1472.8 L995.009 1465.88 M997.195 1463.55 L999.4 1467.37 L984.771 1475.82 L986.62 1479.02 L984.094 1480.48 L982.245 1477.28 L976.953 1480.33 L975.208 1477.31 L980.5 1474.25 L974.65 1464.12 L977.582 1462.43 L997.195 1463.55 Z" fill="#4c4c4c" fill-rule="evenodd" fill-opacity="1" /><path clip-path="url(#clip520)" d="M1005.9 1483.25 Q1004.54 1480.9 1001.54 1481.05 Q998.566 1481.21 993.935 1483.88 Q989.319 1486.54 987.681 1489.05 Q986.066 1491.57 987.421 1493.91 Q988.783 1496.28 991.761 1496.12 Q994.762 1495.97 999.378 1493.31 Q1004.01 1490.63 1005.62 1488.12 Q1007.26 1485.61 1005.9 1483.25 M1008.3 1481.86 Q1010.48 1485.63 1008.64 1489.34 Q1006.81 1493.06 1001.13 1496.34 Q995.463 1499.62 991.317 1499.34 Q987.194 1499.08 985.015 1495.3 Q982.836 1491.53 984.659 1487.81 Q986.505 1484.1 992.173 1480.83 Q997.856 1477.55 1001.98 1477.81 Q1006.13 1478.08 1008.3 1481.86 Z" fill="#4c4c4c" fill-rule="evenodd" fill-opacity="1" /><path clip-path="url(#clip520)" d="M1138.48 1455.16 L1145.37 1467.09 L1142.81 1468.56 L1137.53 1459.42 L1132.03 1462.6 Q1132.64 1463.13 1133.12 1463.73 Q1133.63 1464.32 1134.01 1464.98 Q1136.18 1468.74 1135.39 1472.13 Q1134.59 1475.51 1131.08 1477.54 Q1127.45 1479.63 1124.14 1478.54 Q1120.83 1477.44 1118.46 1473.34 Q1117.65 1471.92 1117.04 1470.31 Q1116.44 1468.71 1116.02 1466.87 L1119.07 1465.11 Q1119.11 1466.89 1119.58 1468.54 Q1120.06 1470.19 1120.99 1471.8 Q1122.49 1474.4 1124.73 1475.13 Q1126.98 1475.86 1129.32 1474.51 Q1131.67 1473.15 1132.16 1470.84 Q1132.65 1468.53 1131.15 1465.93 Q1130.45 1464.72 1129.47 1463.65 Q1128.51 1462.61 1127.21 1461.67 L1138.48 1455.16 Z" fill="#4c4c4c" fill-rule="evenodd" fill-opacity="1" /><path clip-path="url(#clip520)" d="M1151.53 1482.37 Q1150.17 1480.03 1147.17 1480.18 Q1144.19 1480.33 1139.56 1483.01 Q1134.95 1485.67 1133.31 1488.18 Q1131.69 1490.7 1133.05 1493.04 Q1134.41 1495.4 1137.39 1495.25 Q1140.39 1495.1 1145.01 1492.43 Q1149.64 1489.76 1151.25 1487.24 Q1152.89 1484.73 1151.53 1482.37 M1153.93 1480.99 Q1156.11 1484.76 1154.27 1488.47 Q1152.44 1492.19 1146.76 1495.47 Q1141.09 1498.74 1136.94 1498.47 Q1132.82 1498.21 1130.64 1494.43 Q1128.46 1490.66 1130.29 1486.94 Q1132.13 1483.23 1137.8 1479.95 Q1143.48 1476.67 1147.61 1476.94 Q1151.75 1477.21 1153.93 1480.99 Z" fill="#4c4c4c" fill-rule="evenodd" fill-opacity="1" /><path clip-path="url(#clip520)" d="M1278.68 1468.01 Q1277.5 1465.97 1275.41 1465.57 Q1273.32 1465.19 1270.89 1466.6 Q1268.47 1467.99 1267.74 1470 Q1267.04 1472.01 1268.22 1474.05 Q1269.4 1476.1 1271.48 1476.48 Q1273.59 1476.87 1276.01 1475.47 Q1278.45 1474.06 1279.15 1472.05 Q1279.86 1470.06 1278.68 1468.01 M1291.68 1468.55 L1288.91 1470.14 Q1288.79 1468.69 1288.4 1467.35 Q1288.02 1466.03 1287.36 1464.89 Q1285.62 1461.88 1282.67 1461.46 Q1279.73 1461.05 1275.5 1463.19 Q1277.32 1463.33 1278.78 1464.26 Q1280.26 1465.19 1281.19 1466.8 Q1283.14 1470.19 1282.21 1473.33 Q1281.3 1476.48 1277.77 1478.52 Q1274.31 1480.52 1271.04 1479.68 Q1267.77 1478.84 1265.81 1475.44 Q1263.56 1471.55 1265.35 1467.77 Q1267.15 1463.98 1272.82 1460.71 Q1278.14 1457.64 1282.76 1458.34 Q1287.39 1459.03 1289.85 1463.29 Q1290.51 1464.43 1290.95 1465.72 Q1291.4 1467.02 1291.68 1468.55 Z" fill="#4c4c4c" fill-rule="evenodd" fill-opacity="1" /><path clip-path="url(#clip520)" d="M1297.79 1482.6 Q1296.43 1480.25 1293.43 1480.4 Q1290.46 1480.56 1285.82 1483.23 Q1281.21 1485.9 1279.57 1488.41 Q1277.96 1490.92 1279.31 1493.27 Q1280.67 1495.63 1283.65 1495.47 Q1286.65 1495.32 1291.27 1492.66 Q1295.9 1489.99 1297.51 1487.47 Q1299.15 1484.96 1297.79 1482.6 M1300.19 1481.21 Q1302.37 1484.98 1300.53 1488.7 Q1298.7 1492.42 1293.02 1495.7 Q1287.35 1498.97 1283.21 1498.7 Q1279.08 1498.43 1276.9 1494.66 Q1274.73 1490.88 1276.55 1487.16 Q1278.39 1483.45 1284.06 1480.18 Q1289.75 1476.9 1293.87 1477.16 Q1298.02 1477.44 1300.19 1481.21 Z" fill="#4c4c4c" fill-rule="evenodd" fill-opacity="1" /><path clip-path="url(#clip520)" d="M1430.2 1454.22 L1438.53 1468.65 L1437.24 1469.4 L1411.38 1473.46 L1409.55 1470.29 L1433.87 1466.47 L1427.64 1455.69 L1430.2 1454.22 Z" fill="#4c4c4c" fill-rule="evenodd" fill-opacity="1" /><path clip-path="url(#clip520)" d="M1443.7 1482.22 Q1442.35 1479.88 1439.35 1480.03 Q1436.37 1480.18 1431.74 1482.86 Q1427.12 1485.52 1425.49 1488.03 Q1423.87 1490.55 1425.22 1492.89 Q1426.59 1495.25 1429.57 1495.1 Q1432.57 1494.95 1437.18 1492.28 Q1441.81 1489.61 1443.43 1487.09 Q1445.07 1484.58 1443.7 1482.22 M1446.11 1480.84 Q1448.29 1484.61 1446.44 1488.32 Q1444.62 1492.04 1438.94 1495.32 Q1433.27 1498.59 1429.12 1498.32 Q1425 1498.06 1422.82 1494.28 Q1420.64 1490.51 1422.46 1486.79 Q1424.31 1483.08 1429.98 1479.8 Q1435.66 1476.52 1439.78 1476.79 Q1443.93 1477.06 1446.11 1480.84 Z" fill="#4c4c4c" fill-rule="evenodd" fill-opacity="1" /><path clip-path="url(#clip520)" d="M1568.99 1468.72 Q1567.74 1466.56 1565.86 1465.98 Q1563.99 1465.41 1561.96 1466.58 Q1559.93 1467.76 1559.48 1469.66 Q1559.05 1471.57 1560.3 1473.74 Q1561.55 1475.9 1563.43 1476.48 Q1565.32 1477.05 1567.33 1475.89 Q1569.36 1474.72 1569.8 1472.8 Q1570.25 1470.9 1568.99 1468.72 M1568.53 1464.94 Q1567.88 1462.7 1568.58 1460.83 Q1569.3 1458.98 1571.22 1457.87 Q1573.91 1456.31 1576.58 1457.32 Q1579.25 1458.34 1581.18 1461.68 Q1583.12 1465.03 1582.66 1467.85 Q1582.19 1470.66 1579.5 1472.21 Q1577.58 1473.32 1575.61 1473 Q1573.64 1472.69 1572.04 1471.03 Q1572.8 1473.52 1572.01 1475.59 Q1571.24 1477.69 1569.09 1478.93 Q1565.82 1480.81 1562.93 1479.82 Q1560.04 1478.84 1557.89 1475.13 Q1555.75 1471.41 1556.34 1468.41 Q1556.94 1465.41 1560.2 1463.53 Q1562.35 1462.29 1564.55 1462.66 Q1566.75 1463.04 1568.53 1464.94 M1572.68 1461.06 Q1570.94 1462.06 1570.58 1463.71 Q1570.24 1465.37 1571.38 1467.34 Q1572.51 1469.29 1574.12 1469.83 Q1575.74 1470.38 1577.48 1469.37 Q1579.23 1468.36 1579.56 1466.69 Q1579.9 1465.02 1578.78 1463.07 Q1577.64 1461.1 1576.03 1460.57 Q1574.43 1460.05 1572.68 1461.06 Z" fill="#4c4c4c" fill-rule="evenodd" fill-opacity="1" /><path clip-path="url(#clip520)" d="M1590.09 1482.66 Q1588.73 1480.31 1585.73 1480.46 Q1582.75 1480.62 1578.12 1483.29 Q1573.51 1485.96 1571.87 1488.47 Q1570.25 1490.98 1571.61 1493.33 Q1572.97 1495.69 1575.95 1495.53 Q1578.95 1495.38 1583.57 1492.72 Q1588.2 1490.05 1589.81 1487.53 Q1591.45 1485.02 1590.09 1482.66 M1592.49 1481.27 Q1594.67 1485.04 1592.82 1488.76 Q1591 1492.48 1585.32 1495.76 Q1579.65 1499.03 1575.5 1498.76 Q1571.38 1498.49 1569.2 1494.72 Q1567.02 1490.94 1568.85 1487.23 Q1570.69 1483.51 1576.36 1480.24 Q1582.04 1476.96 1586.17 1477.23 Q1590.31 1477.5 1592.49 1481.27 Z" fill="#4c4c4c" fill-rule="evenodd" fill-opacity="1" /><path clip-path="url(#clip520)" d="M1701.31 1468.35 L1704.08 1466.75 Q1704.2 1468.21 1704.59 1469.55 Q1704.98 1470.88 1705.63 1472.01 Q1707.37 1475.02 1710.3 1475.43 Q1713.25 1475.86 1717.5 1473.7 Q1715.7 1473.58 1714.23 1472.64 Q1712.77 1471.7 1711.83 1470.08 Q1709.89 1466.71 1710.78 1463.57 Q1711.7 1460.43 1715.23 1458.39 Q1718.69 1456.4 1721.96 1457.23 Q1725.23 1458.07 1727.19 1461.47 Q1729.44 1465.36 1727.63 1469.14 Q1725.84 1472.91 1720.16 1476.2 Q1714.85 1479.26 1710.22 1478.57 Q1705.61 1477.88 1703.16 1473.62 Q1702.5 1472.48 1702.04 1471.18 Q1701.59 1469.87 1701.31 1468.35 M1714.32 1468.9 Q1715.5 1470.95 1717.59 1471.33 Q1719.68 1471.72 1722.11 1470.32 Q1724.53 1468.92 1725.24 1466.91 Q1725.97 1464.9 1724.79 1462.86 Q1723.6 1460.81 1721.5 1460.43 Q1719.41 1460.05 1716.99 1461.44 Q1714.56 1462.85 1713.84 1464.85 Q1713.14 1466.86 1714.32 1468.9 Z" fill="#4c4c4c" fill-rule="evenodd" fill-opacity="1" /><path clip-path="url(#clip520)" d="M1736.3 1482.81 Q1734.95 1480.46 1731.95 1480.61 Q1728.97 1480.77 1724.34 1483.44 Q1719.73 1486.11 1718.09 1488.62 Q1716.47 1491.13 1717.83 1493.48 Q1719.19 1495.84 1722.17 1495.68 Q1725.17 1495.53 1729.78 1492.87 Q1734.41 1490.2 1736.03 1487.68 Q1737.67 1485.17 1736.3 1482.81 M1738.71 1481.42 Q1740.89 1485.2 1739.04 1488.91 Q1737.22 1492.63 1731.54 1495.91 Q1725.87 1499.18 1721.72 1498.91 Q1717.6 1498.64 1715.42 1494.87 Q1713.24 1491.09 1715.06 1487.38 Q1716.91 1483.66 1722.58 1480.39 Q1728.26 1477.11 1732.38 1477.38 Q1736.53 1477.65 1738.71 1481.42 Z" fill="#4c4c4c" fill-rule="evenodd" fill-opacity="1" /><path clip-path="url(#clip520)" d="M1848.95 1466.14 L1851.82 1471.1 L1868.94 1461.21 L1864.74 1456.44 L1867.51 1454.84 L1871.69 1459.58 L1873.45 1462.62 L1853.55 1474.11 L1856.42 1479.07 L1853.86 1480.54 L1846.4 1467.61 L1848.95 1466.14 Z" fill="#4c4c4c" fill-rule="evenodd" fill-opacity="1" /><path clip-path="url(#clip520)" d="M1881.6 1481.37 Q1880.25 1479.02 1877.25 1479.17 Q1874.27 1479.33 1869.64 1482 Q1865.02 1484.66 1863.39 1487.17 Q1861.77 1489.69 1863.12 1492.04 Q1864.49 1494.4 1867.46 1494.24 Q1870.47 1494.09 1875.08 1491.43 Q1879.71 1488.75 1881.33 1486.24 Q1882.97 1483.73 1881.6 1481.37 M1884.01 1479.98 Q1886.19 1483.75 1884.34 1487.46 Q1882.52 1491.18 1876.84 1494.46 Q1871.17 1497.74 1867.02 1497.46 Q1862.9 1497.2 1860.72 1493.42 Q1858.54 1489.65 1860.36 1485.93 Q1862.21 1482.22 1867.88 1478.95 Q1873.56 1475.67 1877.68 1475.93 Q1881.83 1476.2 1884.01 1479.98 Z" fill="#4c4c4c" fill-rule="evenodd" fill-opacity="1" /><path clip-path="url(#clip520)" d="M1892.91 1500.96 Q1891.56 1498.61 1888.56 1498.76 Q1885.58 1498.92 1880.95 1501.59 Q1876.33 1504.26 1874.7 1506.76 Q1873.08 1509.28 1874.44 1511.63 Q1875.8 1513.99 1878.78 1513.83 Q1881.78 1513.68 1886.39 1511.02 Q1891.02 1508.34 1892.64 1505.83 Q1894.28 1503.32 1892.91 1500.96 M1895.32 1499.57 Q1897.5 1503.34 1895.65 1507.05 Q1893.83 1510.77 1888.15 1514.05 Q1882.48 1517.33 1878.33 1517.05 Q1874.21 1516.79 1872.03 1513.01 Q1869.85 1509.24 1871.67 1505.52 Q1873.52 1501.81 1879.19 1498.54 Q1884.87 1495.26 1888.99 1495.52 Q1893.14 1495.8 1895.32 1499.57 Z" fill="#4c4c4c" fill-rule="evenodd" fill-opacity="1" /><path clip-path="url(#clip520)" d="M1995.09 1466.14 L1997.95 1471.1 L2015.08 1461.21 L2010.88 1456.44 L2013.64 1454.84 L2017.82 1459.58 L2019.58 1462.62 L1999.69 1474.11 L2002.55 1479.07 L1999.99 1480.54 L1992.53 1467.61 L1995.09 1466.14 Z" fill="#4c4c4c" fill-rule="evenodd" fill-opacity="1" /><path clip-path="url(#clip520)" d="M2006.4 1485.73 L2009.26 1490.69 L2026.39 1480.8 L2022.19 1476.03 L2024.95 1474.43 L2029.13 1479.18 L2030.89 1482.21 L2011 1493.7 L2013.86 1498.66 L2011.31 1500.13 L2003.84 1487.2 L2006.4 1485.73 Z" fill="#4c4c4c" fill-rule="evenodd" fill-opacity="1" /><path clip-path="url(#clip520)" d="M2039.04 1500.96 Q2037.69 1498.61 2034.69 1498.76 Q2031.71 1498.92 2027.08 1501.59 Q2022.47 1504.26 2020.83 1506.76 Q2019.21 1509.28 2020.57 1511.63 Q2021.93 1513.99 2024.91 1513.83 Q2027.91 1513.68 2032.52 1511.02 Q2037.15 1508.34 2038.77 1505.83 Q2040.41 1503.32 2039.04 1500.96 M2041.45 1499.57 Q2043.63 1503.34 2041.78 1507.05 Q2039.96 1510.77 2034.28 1514.05 Q2028.61 1517.33 2024.46 1517.05 Q2020.34 1516.79 2018.16 1513.01 Q2015.98 1509.24 2017.8 1505.52 Q2019.65 1501.81 2025.32 1498.54 Q2031 1495.26 2035.13 1495.52 Q2039.27 1495.8 2041.45 1499.57 Z" fill="#4c4c4c" fill-rule="evenodd" fill-opacity="1" /><path clip-path="url(#clip520)" d="M2141.22 1466.14 L2144.08 1471.1 L2161.21 1461.21 L2157.01 1456.44 L2159.77 1454.84 L2163.96 1459.58 L2165.71 1462.62 L2145.82 1474.11 L2148.68 1479.07 L2146.13 1480.54 L2138.66 1467.61 L2141.22 1466.14 Z" fill="#4c4c4c" fill-rule="evenodd" fill-opacity="1" /><path clip-path="url(#clip520)" d="M2153.73 1487.82 L2159.85 1498.42 L2157.3 1499.89 L2149.07 1485.64 L2151.63 1484.16 Q2154.41 1484.86 2159.14 1486.1 Q2163.89 1487.35 2165.2 1487.61 Q2167.68 1488.12 2169.14 1488.04 Q2170.62 1487.97 2171.72 1487.34 Q2173.51 1486.3 2173.91 1484.39 Q2174.31 1482.49 2173.15 1480.48 Q2172.33 1479.05 2170.91 1477.74 Q2169.5 1476.45 2167.45 1475.23 L2170.52 1473.46 Q2172.32 1474.86 2173.61 1476.24 Q2174.91 1477.62 2175.67 1478.94 Q2177.69 1482.43 2177.14 1485.51 Q2176.59 1488.59 2173.68 1490.28 Q2172.29 1491.08 2170.74 1491.27 Q2169.21 1491.47 2166.74 1491.07 Q2166.09 1490.95 2162.83 1490.14 Q2159.6 1489.32 2153.73 1487.82 Z" fill="#4c4c4c" fill-rule="evenodd" fill-opacity="1" /><path clip-path="url(#clip520)" d="M2185.18 1500.96 Q2183.82 1498.61 2180.82 1498.76 Q2177.84 1498.92 2173.21 1501.59 Q2168.6 1504.26 2166.96 1506.76 Q2165.34 1509.28 2166.7 1511.63 Q2168.06 1513.99 2171.04 1513.83 Q2174.04 1513.68 2178.66 1511.02 Q2183.29 1508.34 2184.9 1505.83 Q2186.54 1503.32 2185.18 1500.96 M2187.58 1499.57 Q2189.76 1503.34 2187.91 1507.05 Q2186.09 1510.77 2180.41 1514.05 Q2174.74 1517.33 2170.59 1517.05 Q2166.47 1516.79 2164.29 1513.01 Q2162.11 1509.24 2163.94 1505.52 Q2165.78 1501.81 2171.45 1498.54 Q2177.13 1495.26 2181.26 1495.52 Q2185.4 1495.8 2187.58 1499.57 Z" fill="#4c4c4c" fill-rule="evenodd" fill-opacity="1" /><path clip-path="url(#clip520)" d="M2287.35 1466.14 L2290.21 1471.1 L2307.34 1461.21 L2303.14 1456.44 L2305.91 1454.84 L2310.09 1459.58 L2311.84 1462.62 L2291.95 1474.11 L2294.81 1479.07 L2292.26 1480.54 L2284.79 1467.61 L2287.35 1466.14 Z" fill="#4c4c4c" fill-rule="evenodd" fill-opacity="1" /><path clip-path="url(#clip520)" d="M2313.22 1488.89 Q2314.01 1491.34 2313.24 1493.41 Q2312.48 1495.49 2310.31 1496.74 Q2306.99 1498.66 2303.85 1497.43 Q2300.71 1496.19 2298.28 1491.98 Q2297.46 1490.57 2296.88 1488.9 Q2296.29 1487.25 2295.93 1485.34 L2298.86 1483.65 Q2298.85 1485.34 2299.35 1487.06 Q2299.84 1488.78 2300.78 1490.41 Q2302.43 1493.27 2304.42 1494.11 Q2306.42 1494.96 2308.57 1493.72 Q2310.55 1492.57 2310.86 1490.53 Q2311.19 1488.5 2309.75 1486.02 L2308.24 1483.4 L2310.74 1481.96 L2312.32 1484.7 Q2313.61 1486.94 2315.18 1487.61 Q2316.77 1488.28 2318.46 1487.31 Q2320.19 1486.31 2320.39 1484.55 Q2320.62 1482.79 2319.3 1480.51 Q2318.58 1479.26 2317.48 1477.99 Q2316.39 1476.71 2314.83 1475.33 L2317.53 1473.77 Q2319.01 1475.22 2320.12 1476.58 Q2321.24 1477.96 2322.01 1479.3 Q2324.01 1482.76 2323.59 1485.69 Q2323.19 1488.6 2320.52 1490.15 Q2318.65 1491.22 2316.74 1490.9 Q2314.85 1490.57 2313.22 1488.89 Z" fill="#4c4c4c" fill-rule="evenodd" fill-opacity="1" /><path clip-path="url(#clip520)" d="M2331.31 1500.96 Q2329.95 1498.61 2326.95 1498.76 Q2323.98 1498.92 2319.34 1501.59 Q2314.73 1504.26 2313.09 1506.76 Q2311.48 1509.28 2312.83 1511.63 Q2314.19 1513.99 2317.17 1513.83 Q2320.17 1513.68 2324.79 1511.02 Q2329.42 1508.34 2331.03 1505.83 Q2332.67 1503.32 2331.31 1500.96 M2333.71 1499.57 Q2335.89 1503.34 2334.05 1507.05 Q2332.22 1510.77 2326.54 1514.05 Q2320.87 1517.33 2316.73 1517.05 Q2312.6 1516.79 2310.42 1513.01 Q2308.25 1509.24 2310.07 1505.52 Q2311.91 1501.81 2317.58 1498.54 Q2323.27 1495.26 2327.39 1495.52 Q2331.53 1495.8 2333.71 1499.57 Z" fill="#4c4c4c" fill-rule="evenodd" fill-opacity="1" /><path clip-path="url(#clip520)" d="M1236.5 1537.87 L1241.18 1537.87 L1241.18 1572.43 L1236.5 1572.43 L1236.5 1537.87 Z" fill="#000000" fill-rule="evenodd" fill-opacity="1" /><path clip-path="url(#clip520)" d="M1254.51 1539.15 L1254.51 1546.51 L1263.28 1546.51 L1263.28 1549.82 L1254.51 1549.82 L1254.51 1563.89 Q1254.51 1567.06 1255.37 1567.97 Q1256.25 1568.87 1258.91 1568.87 L1263.28 1568.87 L1263.28 1572.43 L1258.91 1572.43 Q1253.98 1572.43 1252.1 1570.6 Q1250.23 1568.75 1250.23 1563.89 L1250.23 1549.82 L1247.1 1549.82 L1247.1 1546.51 L1250.23 1546.51 L1250.23 1539.15 L1254.51 1539.15 Z" fill="#000000" fill-rule="evenodd" fill-opacity="1" /><path clip-path="url(#clip520)" d="M1291.06 1558.41 L1291.06 1560.49 L1271.48 1560.49 Q1271.76 1564.89 1274.12 1567.2 Q1276.5 1569.49 1280.74 1569.49 Q1283.19 1569.49 1285.48 1568.89 Q1287.8 1568.29 1290.07 1567.09 L1290.07 1571.11 Q1287.77 1572.09 1285.37 1572.6 Q1282.96 1573.1 1280.48 1573.1 Q1274.28 1573.1 1270.64 1569.49 Q1267.03 1565.88 1267.03 1559.73 Q1267.03 1553.36 1270.46 1549.63 Q1273.91 1545.88 1279.74 1545.88 Q1284.97 1545.88 1288.01 1549.26 Q1291.06 1552.62 1291.06 1558.41 M1286.8 1557.16 Q1286.76 1553.66 1284.83 1551.58 Q1282.94 1549.49 1279.79 1549.49 Q1276.22 1549.49 1274.07 1551.51 Q1271.94 1553.52 1271.62 1557.18 L1286.8 1557.16 Z" fill="#000000" fill-rule="evenodd" fill-opacity="1" /><path clip-path="url(#clip520)" d="M1313.07 1550.49 Q1312.36 1550.07 1311.5 1549.89 Q1310.67 1549.68 1309.65 1549.68 Q1306.04 1549.68 1304.09 1552.04 Q1302.17 1554.38 1302.17 1558.78 L1302.17 1572.43 L1297.89 1572.43 L1297.89 1546.51 L1302.17 1546.51 L1302.17 1550.54 Q1303.51 1548.17 1305.67 1547.04 Q1307.82 1545.88 1310.9 1545.88 Q1311.34 1545.88 1311.87 1545.95 Q1312.4 1546 1313.05 1546.11 L1313.07 1550.49 Z" fill="#000000" fill-rule="evenodd" fill-opacity="1" /><path clip-path="url(#clip520)" d="M1329.32 1559.4 Q1324.16 1559.4 1322.17 1560.58 Q1320.18 1561.76 1320.18 1564.61 Q1320.18 1566.88 1321.66 1568.22 Q1323.17 1569.54 1325.74 1569.54 Q1329.28 1569.54 1331.41 1567.04 Q1333.56 1564.52 1333.56 1560.35 L1333.56 1559.4 L1329.32 1559.4 M1337.82 1557.64 L1337.82 1572.43 L1333.56 1572.43 L1333.56 1568.5 Q1332.1 1570.86 1329.93 1571.99 Q1327.75 1573.1 1324.6 1573.1 Q1320.62 1573.1 1318.26 1570.88 Q1315.92 1568.64 1315.92 1564.89 Q1315.92 1560.51 1318.84 1558.29 Q1321.78 1556.07 1327.59 1556.07 L1333.56 1556.07 L1333.56 1555.65 Q1333.56 1552.71 1331.62 1551.11 Q1329.69 1549.49 1326.2 1549.49 Q1323.98 1549.49 1321.87 1550.03 Q1319.76 1550.56 1317.82 1551.62 L1317.82 1547.69 Q1320.16 1546.79 1322.36 1546.35 Q1324.56 1545.88 1326.64 1545.88 Q1332.26 1545.88 1335.04 1548.8 Q1337.82 1551.72 1337.82 1557.64 Z" fill="#000000" fill-rule="evenodd" fill-opacity="1" /><path clip-path="url(#clip520)" d="M1350.81 1539.15 L1350.81 1546.51 L1359.58 1546.51 L1359.58 1549.82 L1350.81 1549.82 L1350.81 1563.89 Q1350.81 1567.06 1351.66 1567.97 Q1352.54 1568.87 1355.2 1568.87 L1359.58 1568.87 L1359.58 1572.43 L1355.2 1572.43 Q1350.27 1572.43 1348.4 1570.6 Q1346.52 1568.75 1346.52 1563.89 L1346.52 1549.82 L1343.4 1549.82 L1343.4 1546.51 L1346.52 1546.51 L1346.52 1539.15 L1350.81 1539.15 Z" fill="#000000" fill-rule="evenodd" fill-opacity="1" /><path clip-path="url(#clip520)" d="M1365.18 1546.51 L1369.44 1546.51 L1369.44 1572.43 L1365.18 1572.43 L1365.18 1546.51 M1365.18 1536.42 L1369.44 1536.42 L1369.44 1541.81 L1365.18 1541.81 L1365.18 1536.42 Z" fill="#000000" fill-rule="evenodd" fill-opacity="1" /><path clip-path="url(#clip520)" d="M1388.4 1549.49 Q1384.97 1549.49 1382.98 1552.18 Q1380.99 1554.84 1380.99 1559.49 Q1380.99 1564.15 1382.96 1566.83 Q1384.95 1569.49 1388.4 1569.49 Q1391.8 1569.49 1393.79 1566.81 Q1395.78 1564.12 1395.78 1559.49 Q1395.78 1554.89 1393.79 1552.2 Q1391.8 1549.49 1388.4 1549.49 M1388.4 1545.88 Q1393.95 1545.88 1397.12 1549.49 Q1400.3 1553.1 1400.3 1559.49 Q1400.3 1565.86 1397.12 1569.49 Q1393.95 1573.1 1388.4 1573.1 Q1382.82 1573.1 1379.65 1569.49 Q1376.5 1565.86 1376.5 1559.49 Q1376.5 1553.1 1379.65 1549.49 Q1382.82 1545.88 1388.4 1545.88 Z" fill="#000000" fill-rule="evenodd" fill-opacity="1" /><path clip-path="url(#clip520)" d="M1428.91 1556.79 L1428.91 1572.43 L1424.65 1572.43 L1424.65 1556.92 Q1424.65 1553.24 1423.21 1551.41 Q1421.78 1549.59 1418.91 1549.59 Q1415.46 1549.59 1413.47 1551.79 Q1411.48 1553.98 1411.48 1557.78 L1411.48 1572.43 L1407.19 1572.43 L1407.19 1546.51 L1411.48 1546.51 L1411.48 1550.54 Q1413 1548.2 1415.06 1547.04 Q1417.15 1545.88 1419.86 1545.88 Q1424.32 1545.88 1426.62 1548.66 Q1428.91 1551.41 1428.91 1556.79 Z" fill="#000000" fill-rule="evenodd" fill-opacity="1" /><path clip-path="url(#clip520)" d="M1453.93 1547.27 L1453.93 1551.3 Q1452.12 1550.37 1450.18 1549.91 Q1448.24 1549.45 1446.15 1549.45 Q1442.98 1549.45 1441.38 1550.42 Q1439.81 1551.39 1439.81 1553.34 Q1439.81 1554.82 1440.94 1555.67 Q1442.08 1556.51 1445.5 1557.27 L1446.96 1557.6 Q1451.5 1558.57 1453.4 1560.35 Q1455.32 1562.11 1455.32 1565.28 Q1455.32 1568.89 1452.45 1571 Q1449.6 1573.1 1444.6 1573.1 Q1442.52 1573.1 1440.25 1572.69 Q1438 1572.29 1435.5 1571.48 L1435.5 1567.09 Q1437.87 1568.31 1440.16 1568.94 Q1442.45 1569.54 1444.69 1569.54 Q1447.7 1569.54 1449.32 1568.52 Q1450.94 1567.48 1450.94 1565.6 Q1450.94 1563.87 1449.76 1562.94 Q1448.61 1562.02 1444.65 1561.16 L1443.17 1560.81 Q1439.21 1559.98 1437.45 1558.27 Q1435.69 1556.53 1435.69 1553.52 Q1435.69 1549.86 1438.28 1547.87 Q1440.87 1545.88 1445.64 1545.88 Q1448 1545.88 1450.09 1546.23 Q1452.17 1546.58 1453.93 1547.27 Z" fill="#000000" fill-rule="evenodd" fill-opacity="1" /><polyline clip-path="url(#clip522)" style="stroke:#ffffff; stroke-linecap:butt; stroke-linejoin:round; stroke-width:4; stroke-opacity:1; fill:none" points="
  339.064,1419.82 2352.76,1419.82 
  "/>
<polyline clip-path="url(#clip522)" style="stroke:#ffffff; stroke-linecap:butt; stroke-linejoin:round; stroke-width:4; stroke-opacity:1; fill:none" points="
  339.064,1180.44 2352.76,1180.44 
  "/>
<polyline clip-path="url(#clip522)" style="stroke:#ffffff; stroke-linecap:butt; stroke-linejoin:round; stroke-width:4; stroke-opacity:1; fill:none" points="
  339.064,941.054 2352.76,941.054 
  "/>
<polyline clip-path="url(#clip522)" style="stroke:#ffffff; stroke-linecap:butt; stroke-linejoin:round; stroke-width:4; stroke-opacity:1; fill:none" points="
  339.064,701.673 2352.76,701.673 
  "/>
<polyline clip-path="url(#clip522)" style="stroke:#ffffff; stroke-linecap:butt; stroke-linejoin:round; stroke-width:4; stroke-opacity:1; fill:none" points="
  339.064,462.292 2352.76,462.292 
  "/>
<polyline clip-path="url(#clip522)" style="stroke:#ffffff; stroke-linecap:butt; stroke-linejoin:round; stroke-width:4; stroke-opacity:1; fill:none" points="
  339.064,222.911 2352.76,222.911 
  "/>
<polyline clip-path="url(#clip522)" style="stroke:#ffffff; stroke-linecap:butt; stroke-linejoin:round; stroke-width:2; stroke-opacity:1; fill:none" points="
  339.064,1300.13 2352.76,1300.13 
  "/>
<polyline clip-path="url(#clip522)" style="stroke:#ffffff; stroke-linecap:butt; stroke-linejoin:round; stroke-width:2; stroke-opacity:1; fill:none" points="
  339.064,1060.74 2352.76,1060.74 
  "/>
<polyline clip-path="url(#clip522)" style="stroke:#ffffff; stroke-linecap:butt; stroke-linejoin:round; stroke-width:2; stroke-opacity:1; fill:none" points="
  339.064,821.364 2352.76,821.364 
  "/>
<polyline clip-path="url(#clip522)" style="stroke:#ffffff; stroke-linecap:butt; stroke-linejoin:round; stroke-width:2; stroke-opacity:1; fill:none" points="
  339.064,581.983 2352.76,581.983 
  "/>
<polyline clip-path="url(#clip522)" style="stroke:#ffffff; stroke-linecap:butt; stroke-linejoin:round; stroke-width:2; stroke-opacity:1; fill:none" points="
  339.064,342.602 2352.76,342.602 
  "/>
<polyline clip-path="url(#clip520)" style="stroke:#ffffff; stroke-linecap:butt; stroke-linejoin:round; stroke-width:4; stroke-opacity:1; fill:none" points="
  339.064,1422.18 339.064,106.192 
  "/>
<polyline clip-path="url(#clip520)" style="stroke:#333333; stroke-linecap:butt; stroke-linejoin:round; stroke-width:4; stroke-opacity:1; fill:none" points="
  339.064,1419.82 320.166,1419.82 
  "/>
<polyline clip-path="url(#clip520)" style="stroke:#333333; stroke-linecap:butt; stroke-linejoin:round; stroke-width:4; stroke-opacity:1; fill:none" points="
  339.064,1180.44 320.166,1180.44 
  "/>
<polyline clip-path="url(#clip520)" style="stroke:#333333; stroke-linecap:butt; stroke-linejoin:round; stroke-width:4; stroke-opacity:1; fill:none" points="
  339.064,941.054 320.166,941.054 
  "/>
<polyline clip-path="url(#clip520)" style="stroke:#333333; stroke-linecap:butt; stroke-linejoin:round; stroke-width:4; stroke-opacity:1; fill:none" points="
  339.064,701.673 320.166,701.673 
  "/>
<polyline clip-path="url(#clip520)" style="stroke:#333333; stroke-linecap:butt; stroke-linejoin:round; stroke-width:4; stroke-opacity:1; fill:none" points="
  339.064,462.292 320.166,462.292 
  "/>
<polyline clip-path="url(#clip520)" style="stroke:#333333; stroke-linecap:butt; stroke-linejoin:round; stroke-width:4; stroke-opacity:1; fill:none" points="
  339.064,222.911 320.166,222.911 
  "/>
<polyline clip-path="url(#clip520)" style="stroke:#333333; stroke-linecap:butt; stroke-linejoin:round; stroke-width:4; stroke-opacity:1; fill:none" points="
  339.064,1300.13 329.615,1300.13 
  "/>
<polyline clip-path="url(#clip520)" style="stroke:#333333; stroke-linecap:butt; stroke-linejoin:round; stroke-width:4; stroke-opacity:1; fill:none" points="
  339.064,1060.74 329.615,1060.74 
  "/>
<polyline clip-path="url(#clip520)" style="stroke:#333333; stroke-linecap:butt; stroke-linejoin:round; stroke-width:4; stroke-opacity:1; fill:none" points="
  339.064,821.364 329.615,821.364 
  "/>
<polyline clip-path="url(#clip520)" style="stroke:#333333; stroke-linecap:butt; stroke-linejoin:round; stroke-width:4; stroke-opacity:1; fill:none" points="
  339.064,581.983 329.615,581.983 
  "/>
<polyline clip-path="url(#clip520)" style="stroke:#333333; stroke-linecap:butt; stroke-linejoin:round; stroke-width:4; stroke-opacity:1; fill:none" points="
  339.064,342.602 329.615,342.602 
  "/>
<path clip-path="url(#clip520)" d="M194.283 1420.15 L216.54 1420.15 L216.54 1423.11 L194.283 1423.11 L194.283 1420.15 Z" fill="#4c4c4c" fill-rule="evenodd" fill-opacity="1" /><path clip-path="url(#clip520)" d="M227.13 1429.82 L239.369 1429.82 L239.369 1432.78 L222.911 1432.78 L222.911 1429.82 Q224.908 1427.76 228.345 1424.29 Q231.8 1420.8 232.685 1419.79 Q234.369 1417.9 235.029 1416.6 Q235.706 1415.28 235.706 1414.01 Q235.706 1411.94 234.248 1410.64 Q232.807 1409.34 230.481 1409.34 Q228.831 1409.34 226.991 1409.91 Q225.168 1410.48 223.085 1411.65 L223.085 1408.11 Q225.203 1407.26 227.043 1406.82 Q228.883 1406.39 230.411 1406.39 Q234.439 1406.39 236.835 1408.4 Q239.231 1410.41 239.231 1413.78 Q239.231 1415.38 238.623 1416.82 Q238.033 1418.24 236.453 1420.19 Q236.019 1420.69 233.692 1423.11 Q231.366 1425.5 227.13 1429.82 Z" fill="#4c4c4c" fill-rule="evenodd" fill-opacity="1" /><path clip-path="url(#clip520)" d="M245.845 1406.86 L262.512 1406.86 L262.512 1408.35 L253.102 1432.78 L249.439 1432.78 L258.293 1409.81 L245.845 1409.81 L245.845 1406.86 Z" fill="#4c4c4c" fill-rule="evenodd" fill-opacity="1" /><path clip-path="url(#clip520)" d="M269.387 1406.86 L283.154 1406.86 L283.154 1409.81 L272.598 1409.81 L272.598 1416.16 Q273.362 1415.9 274.126 1415.78 Q274.89 1415.64 275.654 1415.64 Q279.994 1415.64 282.529 1418.02 Q285.064 1420.4 285.064 1424.46 Q285.064 1428.64 282.46 1430.97 Q279.855 1433.28 275.116 1433.28 Q273.484 1433.28 271.782 1433 Q270.098 1432.72 268.293 1432.17 L268.293 1428.64 Q269.855 1429.49 271.522 1429.91 Q273.189 1430.33 275.046 1430.33 Q278.05 1430.33 279.803 1428.75 Q281.557 1427.17 281.557 1424.46 Q281.557 1421.75 279.803 1420.17 Q278.05 1418.59 275.046 1418.59 Q273.64 1418.59 272.234 1418.9 Q270.845 1419.22 269.387 1419.88 L269.387 1406.86 Z" fill="#4c4c4c" fill-rule="evenodd" fill-opacity="1" /><path clip-path="url(#clip520)" d="M193.536 1180.77 L215.793 1180.77 L215.793 1183.72 L193.536 1183.72 L193.536 1180.77 Z" fill="#4c4c4c" fill-rule="evenodd" fill-opacity="1" /><path clip-path="url(#clip520)" d="M226.383 1190.44 L238.623 1190.44 L238.623 1193.4 L222.165 1193.4 L222.165 1190.44 Q224.161 1188.38 227.599 1184.91 Q231.054 1181.42 231.939 1180.41 Q233.623 1178.52 234.283 1177.21 Q234.96 1175.9 234.96 1174.63 Q234.96 1172.56 233.501 1171.26 Q232.06 1169.96 229.734 1169.96 Q228.085 1169.96 226.245 1170.53 Q224.422 1171.1 222.338 1172.27 L222.338 1168.73 Q224.456 1167.87 226.297 1167.44 Q228.137 1167.01 229.665 1167.01 Q233.692 1167.01 236.088 1169.02 Q238.484 1171.03 238.484 1174.4 Q238.484 1176 237.876 1177.44 Q237.286 1178.86 235.706 1180.81 Q235.272 1181.31 232.946 1183.72 Q230.62 1186.12 226.383 1190.44 Z" fill="#4c4c4c" fill-rule="evenodd" fill-opacity="1" /><path clip-path="url(#clip520)" d="M245.099 1167.48 L261.765 1167.48 L261.765 1168.97 L252.356 1193.4 L248.692 1193.4 L257.546 1170.43 L245.099 1170.43 L245.099 1167.48 Z" fill="#4c4c4c" fill-rule="evenodd" fill-opacity="1" /><path clip-path="url(#clip520)" d="M276.105 1169.78 Q273.397 1169.78 272.026 1172.46 Q270.671 1175.11 270.671 1180.46 Q270.671 1185.79 272.026 1188.46 Q273.397 1191.12 276.105 1191.12 Q278.831 1191.12 280.185 1188.46 Q281.557 1185.79 281.557 1180.46 Q281.557 1175.11 280.185 1172.46 Q278.831 1169.78 276.105 1169.78 M276.105 1167.01 Q280.463 1167.01 282.755 1170.46 Q285.064 1173.9 285.064 1180.46 Q285.064 1187.01 282.755 1190.46 Q280.463 1193.9 276.105 1193.9 Q271.748 1193.9 269.439 1190.46 Q267.147 1187.01 267.147 1180.46 Q267.147 1173.9 269.439 1170.46 Q271.748 1167.01 276.105 1167.01 Z" fill="#4c4c4c" fill-rule="evenodd" fill-opacity="1" /><path clip-path="url(#clip520)" d="M194.283 941.393 L216.54 941.393 L216.54 944.344 L194.283 944.344 L194.283 941.393 Z" fill="#4c4c4c" fill-rule="evenodd" fill-opacity="1" /><path clip-path="url(#clip520)" d="M227.13 951.063 L239.369 951.063 L239.369 954.014 L222.911 954.014 L222.911 951.063 Q224.908 948.997 228.345 945.525 Q231.8 942.035 232.685 941.028 Q234.369 939.136 235.029 937.834 Q235.706 936.514 235.706 935.247 Q235.706 933.181 234.248 931.879 Q232.807 930.577 230.481 930.577 Q228.831 930.577 226.991 931.15 Q225.168 931.723 223.085 932.886 L223.085 929.344 Q225.203 928.493 227.043 928.059 Q228.883 927.625 230.411 927.625 Q234.439 927.625 236.835 929.639 Q239.231 931.653 239.231 935.021 Q239.231 936.618 238.623 938.059 Q238.033 939.483 236.453 941.427 Q236.019 941.931 233.692 944.344 Q231.366 946.74 227.13 951.063 Z" fill="#4c4c4c" fill-rule="evenodd" fill-opacity="1" /><path clip-path="url(#clip520)" d="M254.665 939.657 Q252.303 939.657 250.915 941.271 Q249.543 942.886 249.543 945.698 Q249.543 948.493 250.915 950.125 Q252.303 951.74 254.665 951.74 Q257.026 951.74 258.397 950.125 Q259.786 948.493 259.786 945.698 Q259.786 942.886 258.397 941.271 Q257.026 939.657 254.665 939.657 M261.626 928.667 L261.626 931.862 Q260.307 931.237 258.953 930.907 Q257.616 930.577 256.296 930.577 Q252.824 930.577 250.984 932.921 Q249.161 935.264 248.901 940.004 Q249.925 938.493 251.47 937.695 Q253.015 936.879 254.873 936.879 Q258.779 936.879 261.036 939.257 Q263.31 941.618 263.31 945.698 Q263.31 949.691 260.949 952.104 Q258.588 954.518 254.665 954.518 Q250.168 954.518 247.79 951.08 Q245.411 947.625 245.411 941.08 Q245.411 934.934 248.328 931.289 Q251.244 927.625 256.158 927.625 Q257.477 927.625 258.814 927.886 Q260.168 928.146 261.626 928.667 Z" fill="#4c4c4c" fill-rule="evenodd" fill-opacity="1" /><path clip-path="url(#clip520)" d="M269.387 928.094 L283.154 928.094 L283.154 931.046 L272.598 931.046 L272.598 937.4 Q273.362 937.139 274.126 937.018 Q274.89 936.879 275.654 936.879 Q279.994 936.879 282.529 939.257 Q285.064 941.636 285.064 945.698 Q285.064 949.882 282.46 952.209 Q279.855 954.518 275.116 954.518 Q273.484 954.518 271.782 954.24 Q270.098 953.962 268.293 953.407 L268.293 949.882 Q269.855 950.733 271.522 951.15 Q273.189 951.566 275.046 951.566 Q278.05 951.566 279.803 949.986 Q281.557 948.407 281.557 945.698 Q281.557 942.99 279.803 941.41 Q278.05 939.83 275.046 939.83 Q273.64 939.83 272.234 940.143 Q270.845 940.455 269.387 941.115 L269.387 928.094 Z" fill="#4c4c4c" fill-rule="evenodd" fill-opacity="1" /><path clip-path="url(#clip520)" d="M193.536 702.012 L215.793 702.012 L215.793 704.963 L193.536 704.963 L193.536 702.012 Z" fill="#4c4c4c" fill-rule="evenodd" fill-opacity="1" /><path clip-path="url(#clip520)" d="M226.383 711.682 L238.623 711.682 L238.623 714.633 L222.165 714.633 L222.165 711.682 Q224.161 709.616 227.599 706.144 Q231.054 702.654 231.939 701.647 Q233.623 699.755 234.283 698.453 Q234.96 697.133 234.96 695.866 Q234.96 693.8 233.501 692.498 Q232.06 691.196 229.734 691.196 Q228.085 691.196 226.245 691.769 Q224.422 692.342 222.338 693.505 L222.338 689.963 Q224.456 689.113 226.297 688.679 Q228.137 688.245 229.665 688.245 Q233.692 688.245 236.088 690.258 Q238.484 692.272 238.484 695.64 Q238.484 697.238 237.876 698.678 Q237.286 700.102 235.706 702.047 Q235.272 702.55 232.946 704.963 Q230.62 707.359 226.383 711.682 Z" fill="#4c4c4c" fill-rule="evenodd" fill-opacity="1" /><path clip-path="url(#clip520)" d="M253.918 700.276 Q251.557 700.276 250.168 701.89 Q248.796 703.505 248.796 706.317 Q248.796 709.112 250.168 710.744 Q251.557 712.359 253.918 712.359 Q256.279 712.359 257.651 710.744 Q259.039 709.112 259.039 706.317 Q259.039 703.505 257.651 701.89 Q256.279 700.276 253.918 700.276 M260.88 689.286 L260.88 692.481 Q259.56 691.856 258.206 691.526 Q256.869 691.196 255.55 691.196 Q252.078 691.196 250.237 693.54 Q248.415 695.883 248.154 700.623 Q249.178 699.113 250.724 698.314 Q252.269 697.498 254.126 697.498 Q258.033 697.498 260.289 699.876 Q262.564 702.237 262.564 706.317 Q262.564 710.31 260.203 712.724 Q257.842 715.137 253.918 715.137 Q249.421 715.137 247.043 711.699 Q244.665 708.244 244.665 701.699 Q244.665 695.553 247.581 691.908 Q250.498 688.245 255.411 688.245 Q256.73 688.245 258.067 688.505 Q259.421 688.765 260.88 689.286 Z" fill="#4c4c4c" fill-rule="evenodd" fill-opacity="1" /><path clip-path="url(#clip520)" d="M276.105 691.022 Q273.397 691.022 272.026 693.696 Q270.671 696.352 270.671 701.699 Q270.671 707.029 272.026 709.703 Q273.397 712.359 276.105 712.359 Q278.831 712.359 280.185 709.703 Q281.557 707.029 281.557 701.699 Q281.557 696.352 280.185 693.696 Q278.831 691.022 276.105 691.022 M276.105 688.245 Q280.463 688.245 282.755 691.699 Q285.064 695.137 285.064 701.699 Q285.064 708.244 282.755 711.699 Q280.463 715.137 276.105 715.137 Q271.748 715.137 269.439 711.699 Q267.147 708.244 267.147 701.699 Q267.147 695.137 269.439 691.699 Q271.748 688.245 276.105 688.245 Z" fill="#4c4c4c" fill-rule="evenodd" fill-opacity="1" /><path clip-path="url(#clip520)" d="M194.283 462.631 L216.54 462.631 L216.54 465.582 L194.283 465.582 L194.283 462.631 Z" fill="#4c4c4c" fill-rule="evenodd" fill-opacity="1" /><path clip-path="url(#clip520)" d="M227.13 472.301 L239.369 472.301 L239.369 475.252 L222.911 475.252 L222.911 472.301 Q224.908 470.235 228.345 466.763 Q231.8 463.273 232.685 462.266 Q234.369 460.374 235.029 459.072 Q235.706 457.752 235.706 456.485 Q235.706 454.419 234.248 453.117 Q232.807 451.815 230.481 451.815 Q228.831 451.815 226.991 452.388 Q225.168 452.961 223.085 454.124 L223.085 450.582 Q225.203 449.732 227.043 449.298 Q228.883 448.864 230.411 448.864 Q234.439 448.864 236.835 450.877 Q239.231 452.891 239.231 456.259 Q239.231 457.857 238.623 459.298 Q238.033 460.721 236.453 462.666 Q236.019 463.169 233.692 465.582 Q231.366 467.978 227.13 472.301 Z" fill="#4c4c4c" fill-rule="evenodd" fill-opacity="1" /><path clip-path="url(#clip520)" d="M246.765 449.332 L260.533 449.332 L260.533 452.284 L249.977 452.284 L249.977 458.638 Q250.741 458.377 251.505 458.256 Q252.269 458.117 253.033 458.117 Q257.373 458.117 259.908 460.495 Q262.442 462.874 262.442 466.936 Q262.442 471.12 259.838 473.447 Q257.234 475.756 252.494 475.756 Q250.862 475.756 249.161 475.478 Q247.477 475.2 245.672 474.645 L245.672 471.12 Q247.234 471.971 248.901 472.388 Q250.567 472.804 252.425 472.804 Q255.428 472.804 257.182 471.225 Q258.935 469.645 258.935 466.936 Q258.935 464.228 257.182 462.648 Q255.428 461.068 252.425 461.068 Q251.019 461.068 249.612 461.381 Q248.224 461.693 246.765 462.353 L246.765 449.332 Z" fill="#4c4c4c" fill-rule="evenodd" fill-opacity="1" /><path clip-path="url(#clip520)" d="M269.387 449.332 L283.154 449.332 L283.154 452.284 L272.598 452.284 L272.598 458.638 Q273.362 458.377 274.126 458.256 Q274.89 458.117 275.654 458.117 Q279.994 458.117 282.529 460.495 Q285.064 462.874 285.064 466.936 Q285.064 471.12 282.46 473.447 Q279.855 475.756 275.116 475.756 Q273.484 475.756 271.782 475.478 Q270.098 475.2 268.293 474.645 L268.293 471.12 Q269.855 471.971 271.522 472.388 Q273.189 472.804 275.046 472.804 Q278.05 472.804 279.803 471.225 Q281.557 469.645 281.557 466.936 Q281.557 464.228 279.803 462.648 Q278.05 461.068 275.046 461.068 Q273.64 461.068 272.234 461.381 Q270.845 461.693 269.387 462.353 L269.387 449.332 Z" fill="#4c4c4c" fill-rule="evenodd" fill-opacity="1" /><path clip-path="url(#clip520)" d="M193.536 223.25 L215.793 223.25 L215.793 226.201 L193.536 226.201 L193.536 223.25 Z" fill="#4c4c4c" fill-rule="evenodd" fill-opacity="1" /><path clip-path="url(#clip520)" d="M226.383 232.92 L238.623 232.92 L238.623 235.871 L222.165 235.871 L222.165 232.92 Q224.161 230.854 227.599 227.382 Q231.054 223.892 231.939 222.885 Q233.623 220.993 234.283 219.691 Q234.96 218.372 234.96 217.104 Q234.96 215.038 233.501 213.736 Q232.06 212.434 229.734 212.434 Q228.085 212.434 226.245 213.007 Q224.422 213.58 222.338 214.743 L222.338 211.201 Q224.456 210.351 226.297 209.917 Q228.137 209.483 229.665 209.483 Q233.692 209.483 236.088 211.497 Q238.484 213.51 238.484 216.878 Q238.484 218.476 237.876 219.917 Q237.286 221.34 235.706 223.285 Q235.272 223.788 232.946 226.201 Q230.62 228.597 226.383 232.92 Z" fill="#4c4c4c" fill-rule="evenodd" fill-opacity="1" /><path clip-path="url(#clip520)" d="M246.019 209.951 L259.786 209.951 L259.786 212.903 L249.231 212.903 L249.231 219.257 Q249.994 218.997 250.758 218.875 Q251.522 218.736 252.286 218.736 Q256.626 218.736 259.161 221.115 Q261.696 223.493 261.696 227.556 Q261.696 231.74 259.092 234.066 Q256.487 236.375 251.748 236.375 Q250.116 236.375 248.415 236.097 Q246.731 235.819 244.925 235.264 L244.925 231.74 Q246.487 232.59 248.154 233.007 Q249.821 233.424 251.678 233.424 Q254.682 233.424 256.435 231.844 Q258.189 230.264 258.189 227.556 Q258.189 224.847 256.435 223.267 Q254.682 221.687 251.678 221.687 Q250.272 221.687 248.866 222 Q247.477 222.312 246.019 222.972 L246.019 209.951 Z" fill="#4c4c4c" fill-rule="evenodd" fill-opacity="1" /><path clip-path="url(#clip520)" d="M276.105 212.26 Q273.397 212.26 272.026 214.934 Q270.671 217.59 270.671 222.937 Q270.671 228.267 272.026 230.941 Q273.397 233.597 276.105 233.597 Q278.831 233.597 280.185 230.941 Q281.557 228.267 281.557 222.937 Q281.557 217.59 280.185 214.934 Q278.831 212.26 276.105 212.26 M276.105 209.483 Q280.463 209.483 282.755 212.938 Q285.064 216.375 285.064 222.937 Q285.064 229.483 282.755 232.937 Q280.463 236.375 276.105 236.375 Q271.748 236.375 269.439 232.937 Q267.147 229.483 267.147 222.937 Q267.147 216.375 269.439 212.938 Q271.748 209.483 276.105 209.483 Z" fill="#4c4c4c" fill-rule="evenodd" fill-opacity="1" /><path clip-path="url(#clip520)" d="M130.608 973.882 L130.608 944.646 L134.544 944.646 L134.544 956.915 L165.168 956.915 L165.168 961.614 L134.544 961.614 L134.544 973.882 L130.608 973.882 Z" fill="#000000" fill-rule="evenodd" fill-opacity="1" /><path clip-path="url(#clip520)" d="M151.141 926.198 L153.224 926.198 L153.224 945.781 Q157.622 945.503 159.937 943.142 Q162.229 940.758 162.229 936.522 Q162.229 934.068 161.627 931.776 Q161.025 929.461 159.821 927.193 L163.849 927.193 Q164.821 929.485 165.33 931.892 Q165.84 934.299 165.84 936.776 Q165.84 942.98 162.229 946.614 Q158.617 950.225 152.46 950.225 Q146.094 950.225 142.368 946.799 Q138.618 943.35 138.618 937.517 Q138.618 932.285 141.997 929.253 Q145.354 926.198 151.141 926.198 M149.891 930.457 Q146.395 930.503 144.312 932.424 Q142.229 934.322 142.229 937.471 Q142.229 941.035 144.243 943.188 Q146.256 945.318 149.914 945.642 L149.891 930.457 Z" fill="#000000" fill-rule="evenodd" fill-opacity="1" /><path clip-path="url(#clip520)" d="M140.006 902.679 L144.034 902.679 Q143.108 904.485 142.645 906.429 Q142.182 908.374 142.182 910.457 Q142.182 913.628 143.155 915.225 Q144.127 916.799 146.071 916.799 Q147.553 916.799 148.409 915.665 Q149.243 914.531 150.006 911.105 L150.33 909.647 Q151.303 905.11 153.085 903.212 Q154.844 901.29 158.016 901.29 Q161.627 901.29 163.733 904.161 Q165.84 907.008 165.84 912.008 Q165.84 914.091 165.423 916.36 Q165.029 918.605 164.219 921.105 L159.821 921.105 Q161.048 918.744 161.673 916.452 Q162.275 914.161 162.275 911.915 Q162.275 908.906 161.256 907.286 Q160.215 905.665 158.34 905.665 Q156.604 905.665 155.678 906.846 Q154.752 908.003 153.895 911.961 L153.548 913.443 Q152.715 917.401 151.002 919.161 Q149.266 920.92 146.256 920.92 Q142.599 920.92 140.608 918.327 Q138.618 915.735 138.618 910.966 Q138.618 908.605 138.965 906.522 Q139.312 904.438 140.006 902.679 Z" fill="#000000" fill-rule="evenodd" fill-opacity="1" /><path clip-path="url(#clip520)" d="M131.882 890.295 L139.243 890.295 L139.243 881.522 L142.553 881.522 L142.553 890.295 L156.627 890.295 Q159.798 890.295 160.701 889.438 Q161.604 888.559 161.604 885.897 L161.604 881.522 L165.168 881.522 L165.168 885.897 Q165.168 890.827 163.34 892.702 Q161.488 894.577 156.627 894.577 L142.553 894.577 L142.553 897.702 L139.243 897.702 L139.243 894.577 L131.882 894.577 L131.882 890.295 Z" fill="#000000" fill-rule="evenodd" fill-opacity="1" /><path clip-path="url(#clip520)" d="M129.15 860.851 L129.15 856.591 L165.168 856.591 L165.168 860.851 L129.15 860.851 Z" fill="#000000" fill-rule="evenodd" fill-opacity="1" /><path clip-path="url(#clip520)" d="M142.229 837.633 Q142.229 841.059 144.914 843.05 Q147.576 845.041 152.229 845.041 Q156.881 845.041 159.567 843.073 Q162.229 841.082 162.229 837.633 Q162.229 834.23 159.543 832.24 Q156.858 830.249 152.229 830.249 Q147.622 830.249 144.937 832.24 Q142.229 834.23 142.229 837.633 M138.618 837.633 Q138.618 832.078 142.229 828.906 Q145.84 825.735 152.229 825.735 Q158.594 825.735 162.229 828.906 Q165.84 832.078 165.84 837.633 Q165.84 843.212 162.229 846.383 Q158.594 849.531 152.229 849.531 Q145.84 849.531 142.229 846.383 Q138.618 843.212 138.618 837.633 Z" fill="#000000" fill-rule="evenodd" fill-opacity="1" /><path clip-path="url(#clip520)" d="M151.905 801.615 Q147.275 801.615 144.729 803.536 Q142.182 805.434 142.182 808.883 Q142.182 812.309 144.729 814.231 Q147.275 816.129 151.905 816.129 Q156.511 816.129 159.057 814.231 Q161.604 812.309 161.604 808.883 Q161.604 805.434 159.057 803.536 Q156.511 801.615 151.905 801.615 M161.951 797.356 Q168.571 797.356 171.789 800.295 Q175.029 803.235 175.029 809.3 Q175.029 811.545 174.682 813.536 Q174.358 815.527 173.664 817.402 L169.52 817.402 Q170.539 815.527 171.025 813.698 Q171.511 811.869 171.511 809.971 Q171.511 805.781 169.312 803.698 Q167.136 801.615 162.715 801.615 L160.608 801.615 Q162.9 802.934 164.034 804.994 Q165.168 807.055 165.168 809.925 Q165.168 814.693 161.534 817.61 Q157.9 820.527 151.905 820.527 Q145.886 820.527 142.252 817.61 Q138.618 814.693 138.618 809.925 Q138.618 807.055 139.752 804.994 Q140.886 802.934 143.178 801.615 L139.243 801.615 L139.243 797.356 L161.951 797.356 Z" fill="#000000" fill-rule="evenodd" fill-opacity="1" /><path clip-path="url(#clip520)" d="M150.284 790.735 L150.284 778.258 L154.08 778.258 L154.08 790.735 L150.284 790.735 Z" fill="#000000" fill-rule="evenodd" fill-opacity="1" /><path clip-path="url(#clip520)" d="M129.15 771.476 L129.15 767.217 L165.168 767.217 L165.168 771.476 L129.15 771.476 Z" fill="#000000" fill-rule="evenodd" fill-opacity="1" /><path clip-path="url(#clip520)" d="M139.243 758.305 L139.243 754.046 L165.168 754.046 L165.168 758.305 L139.243 758.305 M129.15 758.305 L129.15 754.046 L134.544 754.046 L134.544 758.305 L129.15 758.305 Z" fill="#000000" fill-rule="evenodd" fill-opacity="1" /><path clip-path="url(#clip520)" d="M129.15 745.296 L129.15 741.013 L150.423 741.013 L139.243 728.305 L139.243 722.865 L151.372 736.615 L165.168 722.287 L165.168 727.842 L152.506 741.013 L165.168 741.013 L165.168 745.296 L129.15 745.296 Z" fill="#000000" fill-rule="evenodd" fill-opacity="1" /><path clip-path="url(#clip520)" d="M151.141 697.194 L153.224 697.194 L153.224 716.777 Q157.622 716.5 159.937 714.138 Q162.229 711.754 162.229 707.518 Q162.229 705.064 161.627 702.773 Q161.025 700.458 159.821 698.189 L163.849 698.189 Q164.821 700.481 165.33 702.889 Q165.84 705.296 165.84 707.773 Q165.84 713.976 162.229 717.611 Q158.617 721.222 152.46 721.222 Q146.094 721.222 142.368 717.796 Q138.618 714.347 138.618 708.513 Q138.618 703.282 141.997 700.25 Q145.354 697.194 151.141 697.194 M149.891 701.453 Q146.395 701.5 144.312 703.421 Q142.229 705.319 142.229 708.467 Q142.229 712.032 144.243 714.185 Q146.256 716.314 149.914 716.638 L149.891 701.453 Z" fill="#000000" fill-rule="evenodd" fill-opacity="1" /><path clip-path="url(#clip520)" d="M129.15 690.203 L129.15 685.944 L165.168 685.944 L165.168 690.203 L129.15 690.203 Z" fill="#000000" fill-rule="evenodd" fill-opacity="1" /><path clip-path="url(#clip520)" d="M139.243 677.032 L139.243 672.773 L165.168 672.773 L165.168 677.032 L139.243 677.032 M129.15 677.032 L129.15 672.773 L134.544 672.773 L134.544 677.032 L129.15 677.032 Z" fill="#000000" fill-rule="evenodd" fill-opacity="1" /><path clip-path="url(#clip520)" d="M149.52 642.31 L165.168 642.31 L165.168 646.569 L149.659 646.569 Q145.979 646.569 144.15 648.005 Q142.321 649.44 142.321 652.31 Q142.321 655.759 144.52 657.75 Q146.719 659.741 150.516 659.741 L165.168 659.741 L165.168 664.023 L129.15 664.023 L129.15 659.741 L143.27 659.741 Q140.932 658.213 139.775 656.153 Q138.618 654.069 138.618 651.361 Q138.618 646.893 141.395 644.602 Q144.15 642.31 149.52 642.31 Z" fill="#000000" fill-rule="evenodd" fill-opacity="1" /><path clip-path="url(#clip520)" d="M142.229 623.769 Q142.229 627.194 144.914 629.185 Q147.576 631.176 152.229 631.176 Q156.881 631.176 159.567 629.208 Q162.229 627.218 162.229 623.769 Q162.229 620.366 159.543 618.375 Q156.858 616.384 152.229 616.384 Q147.622 616.384 144.937 618.375 Q142.229 620.366 142.229 623.769 M138.618 623.769 Q138.618 618.213 142.229 615.042 Q145.84 611.87 152.229 611.87 Q158.594 611.87 162.229 615.042 Q165.84 618.213 165.84 623.769 Q165.84 629.347 162.229 632.519 Q158.594 635.667 152.229 635.667 Q145.84 635.667 142.229 632.519 Q138.618 629.347 138.618 623.769 Z" fill="#000000" fill-rule="evenodd" fill-opacity="1" /><path clip-path="url(#clip520)" d="M142.229 594.764 Q142.229 598.19 144.914 600.181 Q147.576 602.171 152.229 602.171 Q156.881 602.171 159.567 600.204 Q162.229 598.213 162.229 594.764 Q162.229 591.361 159.543 589.371 Q156.858 587.38 152.229 587.38 Q147.622 587.38 144.937 589.371 Q142.229 591.361 142.229 594.764 M138.618 594.764 Q138.618 589.209 142.229 586.037 Q145.84 582.866 152.229 582.866 Q158.594 582.866 162.229 586.037 Q165.84 589.209 165.84 594.764 Q165.84 600.343 162.229 603.514 Q158.594 606.662 152.229 606.662 Q145.84 606.662 142.229 603.514 Q138.618 600.343 138.618 594.764 Z" fill="#000000" fill-rule="evenodd" fill-opacity="1" /><path clip-path="url(#clip520)" d="M143.178 558.746 L129.15 558.746 L129.15 554.487 L165.168 554.487 L165.168 558.746 L161.28 558.746 Q163.594 560.088 164.729 562.149 Q165.84 564.186 165.84 567.056 Q165.84 571.755 162.09 574.718 Q158.34 577.658 152.229 577.658 Q146.118 577.658 142.368 574.718 Q138.618 571.755 138.618 567.056 Q138.618 564.186 139.752 562.149 Q140.863 560.088 143.178 558.746 M152.229 573.26 Q156.928 573.26 159.613 571.338 Q162.275 569.394 162.275 566.014 Q162.275 562.635 159.613 560.69 Q156.928 558.746 152.229 558.746 Q147.53 558.746 144.868 560.69 Q142.182 562.635 142.182 566.014 Q142.182 569.394 144.868 571.338 Q147.53 573.26 152.229 573.26 Z" fill="#000000" fill-rule="evenodd" fill-opacity="1" /><path clip-path="url(#clip520)" d="M1320 35.6653 Q1320 29.7915 1317.57 26.464 Q1315.17 23.1075 1310.94 23.1075 Q1306.72 23.1075 1304.29 26.464 Q1301.89 29.7915 1301.89 35.6653 Q1301.89 41.5391 1304.29 44.8956 Q1306.72 48.2231 1310.94 48.2231 Q1315.17 48.2231 1317.57 44.8956 Q1320 41.5391 1320 35.6653 M1301.89 24.3517 Q1303.56 21.4582 1306.11 20.0693 Q1308.68 18.6515 1312.24 18.6515 Q1318.15 18.6515 1321.82 23.339 Q1325.53 28.0265 1325.53 35.6653 Q1325.53 43.3042 1321.82 47.9916 Q1318.15 52.6791 1312.24 52.6791 Q1308.68 52.6791 1306.11 51.2902 Q1303.56 49.8724 1301.89 46.9789 L1301.89 51.84 L1296.53 51.84 L1296.53 6.81709 L1301.89 6.81709 L1301.89 24.3517 Z" fill="#000000" fill-rule="evenodd" fill-opacity="1" /><path clip-path="url(#clip520)" d="M1357.61 35.6653 Q1357.61 29.7915 1355.18 26.464 Q1352.78 23.1075 1348.56 23.1075 Q1344.33 23.1075 1341.9 26.464 Q1339.5 29.7915 1339.5 35.6653 Q1339.5 41.5391 1341.9 44.8956 Q1344.33 48.2231 1348.56 48.2231 Q1352.78 48.2231 1355.18 44.8956 Q1357.61 41.5391 1357.61 35.6653 M1339.5 24.3517 Q1341.18 21.4582 1343.73 20.0693 Q1346.3 18.6515 1349.86 18.6515 Q1355.76 18.6515 1359.44 23.339 Q1363.14 28.0265 1363.14 35.6653 Q1363.14 43.3042 1359.44 47.9916 Q1355.76 52.6791 1349.86 52.6791 Q1346.3 52.6791 1343.73 51.2902 Q1341.18 49.8724 1339.5 46.9789 L1339.5 51.84 L1334.15 51.84 L1334.15 6.81709 L1339.5 6.81709 L1339.5 24.3517 Z" fill="#000000" fill-rule="evenodd" fill-opacity="1" /><path clip-path="url(#clip520)" d="M1395.29 20.677 L1395.29 25.6538 Q1393.03 24.4096 1390.74 23.802 Q1388.49 23.1654 1386.17 23.1654 Q1380.99 23.1654 1378.13 26.464 Q1375.26 29.7336 1375.26 35.6653 Q1375.26 41.597 1378.13 44.8956 Q1380.99 48.1653 1386.17 48.1653 Q1388.49 48.1653 1390.74 47.5576 Q1393.03 46.921 1395.29 45.6768 L1395.29 50.5958 Q1393.06 51.6375 1390.66 52.1583 Q1388.29 52.6791 1385.59 52.6791 Q1378.27 52.6791 1373.96 48.0784 Q1369.65 43.4778 1369.65 35.6653 Q1369.65 27.7371 1373.99 23.1943 Q1378.36 18.6515 1385.94 18.6515 Q1388.4 18.6515 1390.74 19.1724 Q1393.09 19.6642 1395.29 20.677 Z" fill="#000000" fill-rule="evenodd" fill-opacity="1" /><polyline clip-path="url(#clip522)" style="stroke:#e26f46; stroke-linecap:butt; stroke-linejoin:round; stroke-width:8; stroke-opacity:1; fill:none" points="
  425.281,255.467 454.508,255.467 483.734,255.467 512.96,255.467 542.186,255.467 571.413,255.467 600.639,255.467 629.865,255.467 659.092,255.467 688.318,255.467 
  717.544,255.467 746.771,255.467 775.997,255.467 805.223,255.467 834.449,255.467 863.676,255.467 892.902,255.467 922.128,255.467 951.355,255.467 980.581,255.467 
  1009.81,255.467 1039.03,255.467 1068.26,255.467 1097.49,255.467 1126.71,255.467 1155.94,255.467 1185.17,255.467 1214.39,255.467 1243.62,255.467 1272.84,255.467 
  1302.07,255.467 1331.3,255.467 1360.52,255.467 1389.75,255.467 1418.98,255.467 1448.2,255.467 1477.43,255.467 1506.65,255.467 1535.88,255.467 1565.11,255.467 
  1594.33,255.467 1623.56,255.467 1652.79,255.467 1682.01,255.467 1711.24,255.467 1740.46,255.467 1769.69,255.467 1798.92,255.467 1828.14,255.467 1857.37,255.467 
  1886.6,255.467 1915.82,255.467 1945.05,255.467 1974.28,255.467 2003.5,255.467 2032.73,255.467 2061.95,255.467 2091.18,255.467 2120.41,255.467 2149.63,255.467 
  2178.86,255.467 2208.09,255.467 2237.31,255.467 2266.54,255.467 2295.76,255.467 
  "/>
<polyline clip-path="url(#clip522)" style="stroke:#3da44d; stroke-linecap:butt; stroke-linejoin:round; stroke-width:8; stroke-opacity:1; fill:none" points="
  425.281,434.045 454.508,434.045 483.734,434.045 512.96,434.045 542.186,434.045 571.413,434.045 600.639,434.045 629.865,434.045 659.092,434.045 688.318,434.045 
  717.544,434.045 746.771,434.045 775.997,434.045 805.223,434.045 834.449,434.045 863.676,434.045 892.902,434.045 922.128,434.045 951.355,434.045 980.581,434.045 
  1009.81,434.045 1039.03,434.045 1068.26,434.045 1097.49,434.045 1126.71,434.045 1155.94,434.045 1185.17,434.045 1214.39,434.045 1243.62,434.045 1272.84,434.045 
  1302.07,434.045 1331.3,434.045 1360.52,434.045 1389.75,434.045 1418.98,434.045 1448.2,434.045 1477.43,434.045 1506.65,434.045 1535.88,434.045 1565.11,434.045 
  1594.33,434.045 1623.56,434.045 1652.79,434.045 1682.01,434.045 1711.24,434.045 1740.46,434.045 1769.69,434.045 1798.92,434.045 1828.14,434.045 1857.37,434.045 
  1886.6,434.045 1915.82,434.045 1945.05,434.045 1974.28,434.045 2003.5,434.045 2032.73,434.045 2061.95,434.045 2091.18,434.045 2120.41,434.045 2149.63,434.045 
  2178.86,434.045 2208.09,434.045 2237.31,434.045 2266.54,434.045 2295.76,434.045 
  "/>
<polyline clip-path="url(#clip522)" style="stroke:#c271d2; stroke-linecap:butt; stroke-linejoin:round; stroke-width:8; stroke-opacity:1; fill:none" points="
  425.281,375.636 454.508,375.636 483.734,375.636 512.96,375.636 542.186,375.636 571.413,375.636 600.639,375.636 629.865,375.636 659.092,375.636 688.318,375.636 
  717.544,375.636 746.771,375.636 775.997,375.636 805.223,375.636 834.449,375.636 863.676,375.636 892.902,375.636 922.128,375.636 951.355,375.636 980.581,375.636 
  1009.81,375.636 1039.03,375.636 1068.26,375.636 1097.49,375.636 1126.71,375.636 1155.94,375.636 1185.17,375.636 1214.39,375.636 1243.62,375.636 1272.84,375.636 
  1302.07,375.636 1331.3,375.636 1360.52,375.636 1389.75,375.636 1418.98,375.636 1448.2,375.636 1477.43,375.636 1506.65,375.636 1535.88,375.636 1565.11,375.636 
  1594.33,375.636 1623.56,375.636 1652.79,375.636 1682.01,375.636 1711.24,375.636 1740.46,375.636 1769.69,375.636 1798.92,375.636 1828.14,375.636 1857.37,375.636 
  1886.6,375.636 1915.82,375.636 1945.05,375.636 1974.28,375.636 2003.5,375.636 2032.73,375.636 2061.95,375.636 2091.18,375.636 2120.41,375.636 2149.63,375.636 
  2178.86,375.636 2208.09,375.636 2237.31,375.636 2266.54,375.636 2295.76,375.636 
  "/>
<polyline clip-path="url(#clip522)" style="stroke:#ac8d18; stroke-linecap:butt; stroke-linejoin:round; stroke-width:8; stroke-opacity:1; fill:none" points="
  425.281,143.437 454.508,143.437 483.734,143.437 512.96,143.437 542.186,143.437 571.413,143.437 600.639,143.437 629.865,143.437 659.092,143.437 688.318,143.437 
  717.544,143.437 746.771,143.437 775.997,143.437 805.223,143.437 834.449,143.437 863.676,143.437 892.902,143.437 922.128,143.437 951.355,143.437 980.581,143.437 
  1009.81,143.437 1039.03,143.437 1068.26,143.437 1097.49,143.437 1126.71,143.437 1155.94,143.437 1185.17,143.437 1214.39,143.437 1243.62,143.437 1272.84,143.437 
  1302.07,143.437 1331.3,143.437 1360.52,143.437 1389.75,143.437 1418.98,143.437 1448.2,143.437 1477.43,143.437 1506.65,143.437 1535.88,143.437 1565.11,143.437 
  1594.33,143.437 1623.56,143.437 1652.79,143.437 1682.01,143.437 1711.24,143.437 1740.46,143.437 1769.69,143.437 1798.92,143.437 1828.14,143.437 1857.37,143.437 
  1886.6,143.437 1915.82,143.437 1945.05,143.437 1974.28,143.437 2003.5,143.437 2032.73,143.437 2061.95,143.437 2091.18,143.437 2120.41,143.437 2149.63,143.437 
  2178.86,143.437 2208.09,143.437 2237.31,143.437 2266.54,143.437 2295.76,143.437 
  "/>
<polyline clip-path="url(#clip522)" style="stroke:#00a9ad; stroke-linecap:butt; stroke-linejoin:round; stroke-width:8; stroke-opacity:1; fill:none" points="
  425.281,151.097 454.508,151.097 483.734,151.097 512.96,151.097 542.186,151.097 571.413,151.097 600.639,151.097 629.865,151.097 659.092,151.097 688.318,151.097 
  717.544,151.097 746.771,151.097 775.997,151.097 805.223,151.097 834.449,151.097 863.676,151.097 892.902,151.097 922.128,151.097 951.355,151.097 980.581,151.097 
  1009.81,151.097 1039.03,151.097 1068.26,151.097 1097.49,151.097 1126.71,151.097 1155.94,151.097 1185.17,151.097 1214.39,151.097 1243.62,151.097 1272.84,151.097 
  1302.07,151.097 1331.3,151.097 1360.52,151.097 1389.75,151.097 1418.98,151.097 1448.2,151.097 1477.43,151.097 1506.65,151.097 1535.88,151.097 1565.11,151.097 
  1594.33,151.097 1623.56,151.097 1652.79,151.097 1682.01,151.097 1711.24,151.097 1740.46,151.097 1769.69,151.097 1798.92,151.097 1828.14,151.097 1857.37,151.097 
  1886.6,151.097 1915.82,151.097 1945.05,151.097 1974.28,151.097 2003.5,151.097 2032.73,151.097 2061.95,151.097 2091.18,151.097 2120.41,151.097 2149.63,151.097 
  2178.86,151.097 2208.09,151.097 2237.31,151.097 2266.54,151.097 2295.76,151.097 
  "/>
<polyline clip-path="url(#clip522)" style="stroke:#009af9; stroke-linecap:butt; stroke-linejoin:round; stroke-width:12; stroke-opacity:1; fill:none" points="
  425.281,1171.4 454.508,1384.93 483.734,532.94 512.96,781.398 542.186,443.084 571.413,647.783 600.639,405.713 629.865,580.461 659.092,404.417 688.318,532.549 
  717.544,416.448 746.771,501.728 775.997,403.244 805.223,466.307 834.449,401.711 863.676,441.936 892.902,390.722 922.128,439.605 951.355,407.836 980.581,403.808 
  1009.81,377.417 1039.03,395.628 1068.26,383.053 1097.49,391.129 1126.71,392.36 1155.94,385.302 1185.17,392.199 1214.39,370.269 1243.62,375.958 1272.84,374.046 
  1302.07,381.045 1331.3,380.399 1360.52,381.504 1389.75,385.362 1418.98,386.904 1448.2,378.789 1477.43,380.478 1506.65,373.181 1535.88,376.74 1565.11,374.021 
  1594.33,379.189 1623.56,372.891 1652.79,375.873 1682.01,378.3 1711.24,381.948 1740.46,379.655 1769.69,380.765 1798.92,381.142 1828.14,380.573 1857.37,381.843 
  
  "/>
<polyline clip-path="url(#clip522)" style="stroke:#f05f73; stroke-linecap:butt; stroke-linejoin:round; stroke-width:12; stroke-opacity:1; fill:none" points="
  1857.37,381.843 1886.6,424.561 1915.82,440.449 1945.05,448.885 1974.28,454.889 2003.5,459.884 2032.73,463.898 2061.95,466.689 2091.18,469.19 2120.41,471.004 
  2149.63,472.626 2178.86,474.236 2208.09,475.623 2237.31,476.649 2266.54,477.093 2295.76,477.517 
  "/>
</svg>
