<?xml version="1.0" encoding="utf-8"?>
<svg xmlns="http://www.w3.org/2000/svg" xmlns:xlink="http://www.w3.org/1999/xlink" width="600" height="400" viewBox="0 0 2400 1600">
<defs>
  <clipPath id="clip140">
    <rect x="0" y="0" width="2400" height="1600"/>
  </clipPath>
</defs>
<path clip-path="url(#clip140)" d="
M0 1600 L2400 1600 L2400 0 L0 0  Z
  " fill="#ffffff" fill-rule="evenodd" fill-opacity="1"/>
<defs>
  <clipPath id="clip141">
    <rect x="480" y="0" width="1681" height="1600"/>
  </clipPath>
</defs>
<path clip-path="url(#clip140)" d="
M228.827 1444.78 L2352.76 1444.78 L2352.76 106.192 L228.827 106.192  Z
  " fill="#eaeaea" fill-rule="evenodd" fill-opacity="1"/>
<defs>
  <clipPath id="clip142">
    <rect x="228" y="106" width="2125" height="1340"/>
  </clipPath>
</defs>
<polyline clip-path="url(#clip142)" style="stroke:#ffffff; stroke-linecap:butt; stroke-linejoin:round; stroke-width:4; stroke-opacity:1; fill:none" points="
  288.939,1444.78 288.939,106.192 
  "/>
<polyline clip-path="url(#clip142)" style="stroke:#ffffff; stroke-linecap:butt; stroke-linejoin:round; stroke-width:4; stroke-opacity:1; fill:none" points="
  489.309,1444.78 489.309,106.192 
  "/>
<polyline clip-path="url(#clip142)" style="stroke:#ffffff; stroke-linecap:butt; stroke-linejoin:round; stroke-width:4; stroke-opacity:1; fill:none" points="
  689.68,1444.78 689.68,106.192 
  "/>
<polyline clip-path="url(#clip142)" style="stroke:#ffffff; stroke-linecap:butt; stroke-linejoin:round; stroke-width:4; stroke-opacity:1; fill:none" points="
  890.05,1444.78 890.05,106.192 
  "/>
<polyline clip-path="url(#clip142)" style="stroke:#ffffff; stroke-linecap:butt; stroke-linejoin:round; stroke-width:4; stroke-opacity:1; fill:none" points="
  1090.42,1444.78 1090.42,106.192 
  "/>
<polyline clip-path="url(#clip142)" style="stroke:#ffffff; stroke-linecap:butt; stroke-linejoin:round; stroke-width:4; stroke-opacity:1; fill:none" points="
  1290.79,1444.78 1290.79,106.192 
  "/>
<polyline clip-path="url(#clip142)" style="stroke:#ffffff; stroke-linecap:butt; stroke-linejoin:round; stroke-width:4; stroke-opacity:1; fill:none" points="
  1491.16,1444.78 1491.16,106.192 
  "/>
<polyline clip-path="url(#clip142)" style="stroke:#ffffff; stroke-linecap:butt; stroke-linejoin:round; stroke-width:4; stroke-opacity:1; fill:none" points="
  1691.53,1444.78 1691.53,106.192 
  "/>
<polyline clip-path="url(#clip142)" style="stroke:#ffffff; stroke-linecap:butt; stroke-linejoin:round; stroke-width:4; stroke-opacity:1; fill:none" points="
  1891.9,1444.78 1891.9,106.192 
  "/>
<polyline clip-path="url(#clip142)" style="stroke:#ffffff; stroke-linecap:butt; stroke-linejoin:round; stroke-width:4; stroke-opacity:1; fill:none" points="
  2092.27,1444.78 2092.27,106.192 
  "/>
<polyline clip-path="url(#clip142)" style="stroke:#ffffff; stroke-linecap:butt; stroke-linejoin:round; stroke-width:4; stroke-opacity:1; fill:none" points="
  2292.64,1444.78 2292.64,106.192 
  "/>
<polyline clip-path="url(#clip142)" style="stroke:#ffffff; stroke-linecap:butt; stroke-linejoin:round; stroke-width:2; stroke-opacity:1; fill:none" points="
  389.124,1444.78 389.124,106.192 
  "/>
<polyline clip-path="url(#clip142)" style="stroke:#ffffff; stroke-linecap:butt; stroke-linejoin:round; stroke-width:2; stroke-opacity:1; fill:none" points="
  589.495,1444.78 589.495,106.192 
  "/>
<polyline clip-path="url(#clip142)" style="stroke:#ffffff; stroke-linecap:butt; stroke-linejoin:round; stroke-width:2; stroke-opacity:1; fill:none" points="
  789.865,1444.78 789.865,106.192 
  "/>
<polyline clip-path="url(#clip142)" style="stroke:#ffffff; stroke-linecap:butt; stroke-linejoin:round; stroke-width:2; stroke-opacity:1; fill:none" points="
  990.236,1444.78 990.236,106.192 
  "/>
<polyline clip-path="url(#clip142)" style="stroke:#ffffff; stroke-linecap:butt; stroke-linejoin:round; stroke-width:2; stroke-opacity:1; fill:none" points="
  1190.61,1444.78 1190.61,106.192 
  "/>
<polyline clip-path="url(#clip142)" style="stroke:#ffffff; stroke-linecap:butt; stroke-linejoin:round; stroke-width:2; stroke-opacity:1; fill:none" points="
  1390.98,1444.78 1390.98,106.192 
  "/>
<polyline clip-path="url(#clip142)" style="stroke:#ffffff; stroke-linecap:butt; stroke-linejoin:round; stroke-width:2; stroke-opacity:1; fill:none" points="
  1591.35,1444.78 1591.35,106.192 
  "/>
<polyline clip-path="url(#clip142)" style="stroke:#ffffff; stroke-linecap:butt; stroke-linejoin:round; stroke-width:2; stroke-opacity:1; fill:none" points="
  1791.72,1444.78 1791.72,106.192 
  "/>
<polyline clip-path="url(#clip142)" style="stroke:#ffffff; stroke-linecap:butt; stroke-linejoin:round; stroke-width:2; stroke-opacity:1; fill:none" points="
  1992.09,1444.78 1992.09,106.192 
  "/>
<polyline clip-path="url(#clip142)" style="stroke:#ffffff; stroke-linecap:butt; stroke-linejoin:round; stroke-width:2; stroke-opacity:1; fill:none" points="
  2192.46,1444.78 2192.46,106.192 
  "/>
<polyline clip-path="url(#clip140)" style="stroke:#ffffff; stroke-linecap:butt; stroke-linejoin:round; stroke-width:4; stroke-opacity:1; fill:none" points="
  228.827,1444.78 2352.76,1444.78 
  "/>
<polyline clip-path="url(#clip140)" style="stroke:#333333; stroke-linecap:butt; stroke-linejoin:round; stroke-width:4; stroke-opacity:1; fill:none" points="
  288.939,1444.78 288.939,1463.68 
  "/>
<polyline clip-path="url(#clip140)" style="stroke:#333333; stroke-linecap:butt; stroke-linejoin:round; stroke-width:4; stroke-opacity:1; fill:none" points="
  489.309,1444.78 489.309,1463.68 
  "/>
<polyline clip-path="url(#clip140)" style="stroke:#333333; stroke-linecap:butt; stroke-linejoin:round; stroke-width:4; stroke-opacity:1; fill:none" points="
  689.68,1444.78 689.68,1463.68 
  "/>
<polyline clip-path="url(#clip140)" style="stroke:#333333; stroke-linecap:butt; stroke-linejoin:round; stroke-width:4; stroke-opacity:1; fill:none" points="
  890.05,1444.78 890.05,1463.68 
  "/>
<polyline clip-path="url(#clip140)" style="stroke:#333333; stroke-linecap:butt; stroke-linejoin:round; stroke-width:4; stroke-opacity:1; fill:none" points="
  1090.42,1444.78 1090.42,1463.68 
  "/>
<polyline clip-path="url(#clip140)" style="stroke:#333333; stroke-linecap:butt; stroke-linejoin:round; stroke-width:4; stroke-opacity:1; fill:none" points="
  1290.79,1444.78 1290.79,1463.68 
  "/>
<polyline clip-path="url(#clip140)" style="stroke:#333333; stroke-linecap:butt; stroke-linejoin:round; stroke-width:4; stroke-opacity:1; fill:none" points="
  1491.16,1444.78 1491.16,1463.68 
  "/>
<polyline clip-path="url(#clip140)" style="stroke:#333333; stroke-linecap:butt; stroke-linejoin:round; stroke-width:4; stroke-opacity:1; fill:none" points="
  1691.53,1444.78 1691.53,1463.68 
  "/>
<polyline clip-path="url(#clip140)" style="stroke:#333333; stroke-linecap:butt; stroke-linejoin:round; stroke-width:4; stroke-opacity:1; fill:none" points="
  1891.9,1444.78 1891.9,1463.68 
  "/>
<polyline clip-path="url(#clip140)" style="stroke:#333333; stroke-linecap:butt; stroke-linejoin:round; stroke-width:4; stroke-opacity:1; fill:none" points="
  2092.27,1444.78 2092.27,1463.68 
  "/>
<polyline clip-path="url(#clip140)" style="stroke:#333333; stroke-linecap:butt; stroke-linejoin:round; stroke-width:4; stroke-opacity:1; fill:none" points="
  2292.64,1444.78 2292.64,1463.68 
  "/>
<polyline clip-path="url(#clip140)" style="stroke:#333333; stroke-linecap:butt; stroke-linejoin:round; stroke-width:4; stroke-opacity:1; fill:none" points="
  389.124,1444.78 389.124,1454.23 
  "/>
<polyline clip-path="url(#clip140)" style="stroke:#333333; stroke-linecap:butt; stroke-linejoin:round; stroke-width:4; stroke-opacity:1; fill:none" points="
  589.495,1444.78 589.495,1454.23 
  "/>
<polyline clip-path="url(#clip140)" style="stroke:#333333; stroke-linecap:butt; stroke-linejoin:round; stroke-width:4; stroke-opacity:1; fill:none" points="
  789.865,1444.78 789.865,1454.23 
  "/>
<polyline clip-path="url(#clip140)" style="stroke:#333333; stroke-linecap:butt; stroke-linejoin:round; stroke-width:4; stroke-opacity:1; fill:none" points="
  990.236,1444.78 990.236,1454.23 
  "/>
<polyline clip-path="url(#clip140)" style="stroke:#333333; stroke-linecap:butt; stroke-linejoin:round; stroke-width:4; stroke-opacity:1; fill:none" points="
  1190.61,1444.78 1190.61,1454.23 
  "/>
<polyline clip-path="url(#clip140)" style="stroke:#333333; stroke-linecap:butt; stroke-linejoin:round; stroke-width:4; stroke-opacity:1; fill:none" points="
  1390.98,1444.78 1390.98,1454.23 
  "/>
<polyline clip-path="url(#clip140)" style="stroke:#333333; stroke-linecap:butt; stroke-linejoin:round; stroke-width:4; stroke-opacity:1; fill:none" points="
  1591.35,1444.78 1591.35,1454.23 
  "/>
<polyline clip-path="url(#clip140)" style="stroke:#333333; stroke-linecap:butt; stroke-linejoin:round; stroke-width:4; stroke-opacity:1; fill:none" points="
  1791.72,1444.78 1791.72,1454.23 
  "/>
<polyline clip-path="url(#clip140)" style="stroke:#333333; stroke-linecap:butt; stroke-linejoin:round; stroke-width:4; stroke-opacity:1; fill:none" points="
  1992.09,1444.78 1992.09,1454.23 
  "/>
<polyline clip-path="url(#clip140)" style="stroke:#333333; stroke-linecap:butt; stroke-linejoin:round; stroke-width:4; stroke-opacity:1; fill:none" points="
  2192.46,1444.78 2192.46,1454.23 
  "/>
<path clip-path="url(#clip140)" d="M288.939 1482.37 Q286.23 1482.37 284.859 1485.04 Q283.505 1487.7 283.505 1493.05 Q283.505 1498.38 284.859 1501.05 Q286.23 1503.71 288.939 1503.71 Q291.664 1503.71 293.018 1501.05 Q294.39 1498.38 294.39 1493.05 Q294.39 1487.7 293.018 1485.04 Q291.664 1482.37 288.939 1482.37 M288.939 1479.59 Q293.296 1479.59 295.588 1483.05 Q297.897 1486.48 297.897 1493.05 Q297.897 1499.59 295.588 1503.05 Q293.296 1506.48 288.939 1506.48 Q284.581 1506.48 282.272 1503.05 Q279.98 1499.59 279.98 1493.05 Q279.98 1486.48 282.272 1483.05 Q284.581 1479.59 288.939 1479.59 Z" fill="#4c4c4c" fill-rule="evenodd" fill-opacity="1" /><path clip-path="url(#clip140)" d="M470.325 1503.03 L476.054 1503.03 L476.054 1483.25 L469.821 1484.5 L469.821 1481.31 L476.019 1480.06 L479.526 1480.06 L479.526 1503.03 L485.255 1503.03 L485.255 1505.98 L470.325 1505.98 L470.325 1503.03 Z" fill="#4c4c4c" fill-rule="evenodd" fill-opacity="1" /><path clip-path="url(#clip140)" d="M499.839 1482.37 Q497.13 1482.37 495.759 1485.04 Q494.405 1487.7 494.405 1493.05 Q494.405 1498.38 495.759 1501.05 Q497.13 1503.71 499.839 1503.71 Q502.564 1503.71 503.919 1501.05 Q505.29 1498.38 505.29 1493.05 Q505.29 1487.7 503.919 1485.04 Q502.564 1482.37 499.839 1482.37 M499.839 1479.59 Q504.196 1479.59 506.488 1483.05 Q508.797 1486.48 508.797 1493.05 Q508.797 1499.59 506.488 1503.05 Q504.196 1506.48 499.839 1506.48 Q495.481 1506.48 493.172 1503.05 Q490.88 1499.59 490.88 1493.05 Q490.88 1486.48 493.172 1483.05 Q495.481 1479.59 499.839 1479.59 Z" fill="#4c4c4c" fill-rule="evenodd" fill-opacity="1" /><path clip-path="url(#clip140)" d="M673.76 1503.03 L685.999 1503.03 L685.999 1505.98 L669.541 1505.98 L669.541 1503.03 Q671.538 1500.96 674.975 1497.49 Q678.43 1494 679.315 1492.99 Q680.999 1491.1 681.659 1489.8 Q682.336 1488.48 682.336 1487.21 Q682.336 1485.15 680.878 1483.84 Q679.437 1482.54 677.11 1482.54 Q675.461 1482.54 673.621 1483.12 Q671.798 1483.69 669.715 1484.85 L669.715 1481.31 Q671.833 1480.46 673.673 1480.03 Q675.513 1479.59 677.041 1479.59 Q681.069 1479.59 683.465 1481.6 Q685.86 1483.62 685.86 1486.99 Q685.86 1488.58 685.253 1490.03 Q684.663 1491.45 683.083 1493.39 Q682.649 1493.9 680.322 1496.31 Q677.996 1498.71 673.76 1503.03 Z" fill="#4c4c4c" fill-rule="evenodd" fill-opacity="1" /><path clip-path="url(#clip140)" d="M700.86 1482.37 Q698.152 1482.37 696.781 1485.04 Q695.426 1487.7 695.426 1493.05 Q695.426 1498.38 696.781 1501.05 Q698.152 1503.71 700.86 1503.71 Q703.586 1503.71 704.94 1501.05 Q706.312 1498.38 706.312 1493.05 Q706.312 1487.7 704.94 1485.04 Q703.586 1482.37 700.86 1482.37 M700.86 1479.59 Q705.218 1479.59 707.51 1483.05 Q709.819 1486.48 709.819 1493.05 Q709.819 1499.59 707.51 1503.05 Q705.218 1506.48 700.86 1506.48 Q696.503 1506.48 694.194 1503.05 Q691.902 1499.59 691.902 1493.05 Q691.902 1486.48 694.194 1483.05 Q696.503 1479.59 700.86 1479.59 Z" fill="#4c4c4c" fill-rule="evenodd" fill-opacity="1" /><path clip-path="url(#clip140)" d="M881.682 1492 Q884.2 1492.54 885.606 1494.24 Q887.03 1495.95 887.03 1498.45 Q887.03 1502.28 884.391 1504.38 Q881.752 1506.48 876.891 1506.48 Q875.259 1506.48 873.523 1506.15 Q871.804 1505.84 869.964 1505.2 L869.964 1501.81 Q871.422 1502.66 873.158 1503.1 Q874.894 1503.53 876.787 1503.53 Q880.085 1503.53 881.804 1502.23 Q883.54 1500.93 883.54 1498.45 Q883.54 1496.15 881.925 1494.87 Q880.328 1493.57 877.464 1493.57 L874.443 1493.57 L874.443 1490.68 L877.603 1490.68 Q880.189 1490.68 881.561 1489.66 Q882.932 1488.62 882.932 1486.67 Q882.932 1484.68 881.509 1483.62 Q880.103 1482.54 877.464 1482.54 Q876.023 1482.54 874.373 1482.85 Q872.724 1483.17 870.745 1483.83 L870.745 1480.7 Q872.742 1480.15 874.478 1479.87 Q876.231 1479.59 877.776 1479.59 Q881.769 1479.59 884.096 1481.41 Q886.422 1483.22 886.422 1486.31 Q886.422 1488.46 885.189 1489.96 Q883.957 1491.43 881.682 1492 Z" fill="#4c4c4c" fill-rule="evenodd" fill-opacity="1" /><path clip-path="url(#clip140)" d="M901.179 1482.37 Q898.471 1482.37 897.099 1485.04 Q895.745 1487.7 895.745 1493.05 Q895.745 1498.38 897.099 1501.05 Q898.471 1503.71 901.179 1503.71 Q903.905 1503.71 905.259 1501.05 Q906.63 1498.38 906.63 1493.05 Q906.63 1487.7 905.259 1485.04 Q903.905 1482.37 901.179 1482.37 M901.179 1479.59 Q905.536 1479.59 907.828 1483.05 Q910.137 1486.48 910.137 1493.05 Q910.137 1499.59 907.828 1503.05 Q905.536 1506.48 901.179 1506.48 Q896.821 1506.48 894.512 1503.05 Q892.221 1499.59 892.221 1493.05 Q892.221 1486.48 894.512 1483.05 Q896.821 1479.59 901.179 1479.59 Z" fill="#4c4c4c" fill-rule="evenodd" fill-opacity="1" /><path clip-path="url(#clip140)" d="M1081.55 1483.12 L1072.7 1496.95 L1081.55 1496.95 L1081.55 1483.12 M1080.63 1480.06 L1085.04 1480.06 L1085.04 1496.95 L1088.74 1496.95 L1088.74 1499.87 L1085.04 1499.87 L1085.04 1505.98 L1081.55 1505.98 L1081.55 1499.87 L1069.85 1499.87 L1069.85 1496.48 L1080.63 1480.06 Z" fill="#4c4c4c" fill-rule="evenodd" fill-opacity="1" /><path clip-path="url(#clip140)" d="M1102.04 1482.37 Q1099.33 1482.37 1097.96 1485.04 Q1096.6 1487.7 1096.6 1493.05 Q1096.6 1498.38 1097.96 1501.05 Q1099.33 1503.71 1102.04 1503.71 Q1104.76 1503.71 1106.12 1501.05 Q1107.49 1498.38 1107.49 1493.05 Q1107.49 1487.7 1106.12 1485.04 Q1104.76 1482.37 1102.04 1482.37 M1102.04 1479.59 Q1106.39 1479.59 1108.68 1483.05 Q1110.99 1486.48 1110.99 1493.05 Q1110.99 1499.59 1108.68 1503.05 Q1106.39 1506.48 1102.04 1506.48 Q1097.68 1506.48 1095.37 1503.05 Q1093.08 1499.59 1093.08 1493.05 Q1093.08 1486.48 1095.37 1483.05 Q1097.68 1479.59 1102.04 1479.59 Z" fill="#4c4c4c" fill-rule="evenodd" fill-opacity="1" /><path clip-path="url(#clip140)" d="M1271.82 1480.06 L1285.58 1480.06 L1285.58 1483.01 L1275.03 1483.01 L1275.03 1489.37 Q1275.79 1489.1 1276.56 1488.98 Q1277.32 1488.84 1278.08 1488.84 Q1282.42 1488.84 1284.96 1491.22 Q1287.49 1493.6 1287.49 1497.66 Q1287.49 1501.85 1284.89 1504.17 Q1282.28 1506.48 1277.55 1506.48 Q1275.91 1506.48 1274.21 1506.21 Q1272.53 1505.93 1270.72 1505.37 L1270.72 1501.85 Q1272.28 1502.7 1273.95 1503.12 Q1275.62 1503.53 1277.48 1503.53 Q1280.48 1503.53 1282.23 1501.95 Q1283.99 1500.37 1283.99 1497.66 Q1283.99 1494.96 1282.23 1493.38 Q1280.48 1491.8 1277.48 1491.8 Q1276.07 1491.8 1274.66 1492.11 Q1273.27 1492.42 1271.82 1493.08 L1271.82 1480.06 Z" fill="#4c4c4c" fill-rule="evenodd" fill-opacity="1" /><path clip-path="url(#clip140)" d="M1301.9 1482.37 Q1299.19 1482.37 1297.82 1485.04 Q1296.47 1487.7 1296.47 1493.05 Q1296.47 1498.38 1297.82 1501.05 Q1299.19 1503.71 1301.9 1503.71 Q1304.63 1503.71 1305.98 1501.05 Q1307.35 1498.38 1307.35 1493.05 Q1307.35 1487.7 1305.98 1485.04 Q1304.63 1482.37 1301.9 1482.37 M1301.9 1479.59 Q1306.26 1479.59 1308.55 1483.05 Q1310.86 1486.48 1310.86 1493.05 Q1310.86 1499.59 1308.55 1503.05 Q1306.26 1506.48 1301.9 1506.48 Q1297.55 1506.48 1295.24 1503.05 Q1292.94 1499.59 1292.94 1493.05 Q1292.94 1486.48 1295.24 1483.05 Q1297.55 1479.59 1301.9 1479.59 Z" fill="#4c4c4c" fill-rule="evenodd" fill-opacity="1" /><path clip-path="url(#clip140)" d="M1480.22 1491.62 Q1477.86 1491.62 1476.47 1493.24 Q1475.09 1494.85 1475.09 1497.66 Q1475.09 1500.46 1476.47 1502.09 Q1477.86 1503.71 1480.22 1503.71 Q1482.58 1503.71 1483.95 1502.09 Q1485.34 1500.46 1485.34 1497.66 Q1485.34 1494.85 1483.95 1493.24 Q1482.58 1491.62 1480.22 1491.62 M1487.18 1480.63 L1487.18 1483.83 Q1485.86 1483.2 1484.5 1482.87 Q1483.17 1482.54 1481.85 1482.54 Q1478.38 1482.54 1476.54 1484.89 Q1474.71 1487.23 1474.45 1491.97 Q1475.48 1490.46 1477.02 1489.66 Q1478.57 1488.84 1480.42 1488.84 Q1484.33 1488.84 1486.59 1491.22 Q1488.86 1493.58 1488.86 1497.66 Q1488.86 1501.66 1486.5 1504.07 Q1484.14 1506.48 1480.22 1506.48 Q1475.72 1506.48 1473.34 1503.05 Q1470.96 1499.59 1470.96 1493.05 Q1470.96 1486.9 1473.88 1483.25 Q1476.8 1479.59 1481.71 1479.59 Q1483.03 1479.59 1484.37 1479.85 Q1485.72 1480.11 1487.18 1480.63 Z" fill="#4c4c4c" fill-rule="evenodd" fill-opacity="1" /><path clip-path="url(#clip140)" d="M1502.4 1482.37 Q1499.7 1482.37 1498.32 1485.04 Q1496.97 1487.7 1496.97 1493.05 Q1496.97 1498.38 1498.32 1501.05 Q1499.7 1503.71 1502.4 1503.71 Q1505.13 1503.71 1506.48 1501.05 Q1507.85 1498.38 1507.85 1493.05 Q1507.85 1487.7 1506.48 1485.04 Q1505.13 1482.37 1502.4 1482.37 M1502.4 1479.59 Q1506.76 1479.59 1509.05 1483.05 Q1511.36 1486.48 1511.36 1493.05 Q1511.36 1499.59 1509.05 1503.05 Q1506.76 1506.48 1502.4 1506.48 Q1498.05 1506.48 1495.74 1503.05 Q1493.45 1499.59 1493.45 1493.05 Q1493.45 1486.48 1495.74 1483.05 Q1498.05 1479.59 1502.4 1479.59 Z" fill="#4c4c4c" fill-rule="evenodd" fill-opacity="1" /><path clip-path="url(#clip140)" d="M1671.55 1480.06 L1688.22 1480.06 L1688.22 1481.55 L1678.81 1505.98 L1675.14 1505.98 L1684 1483.01 L1671.55 1483.01 L1671.55 1480.06 Z" fill="#4c4c4c" fill-rule="evenodd" fill-opacity="1" /><path clip-path="url(#clip140)" d="M1702.56 1482.37 Q1699.85 1482.37 1698.48 1485.04 Q1697.12 1487.7 1697.12 1493.05 Q1697.12 1498.38 1698.48 1501.05 Q1699.85 1503.71 1702.56 1503.71 Q1705.28 1503.71 1706.64 1501.05 Q1708.01 1498.38 1708.01 1493.05 Q1708.01 1487.7 1706.64 1485.04 Q1705.28 1482.37 1702.56 1482.37 M1702.56 1479.59 Q1706.91 1479.59 1709.21 1483.05 Q1711.52 1486.48 1711.52 1493.05 Q1711.52 1499.59 1709.21 1503.05 Q1706.91 1506.48 1702.56 1506.48 Q1698.2 1506.48 1695.89 1503.05 Q1693.6 1499.59 1693.6 1493.05 Q1693.6 1486.48 1695.89 1483.05 Q1698.2 1479.59 1702.56 1479.59 Z" fill="#4c4c4c" fill-rule="evenodd" fill-opacity="1" /><path clip-path="url(#clip140)" d="M1880.56 1493.67 Q1878.06 1493.67 1876.62 1495.01 Q1875.19 1496.34 1875.19 1498.69 Q1875.19 1501.03 1876.62 1502.37 Q1878.06 1503.71 1880.56 1503.71 Q1883.06 1503.71 1884.5 1502.37 Q1885.94 1501.01 1885.94 1498.69 Q1885.94 1496.34 1884.5 1495.01 Q1883.08 1493.67 1880.56 1493.67 M1877.05 1492.18 Q1874.79 1491.62 1873.53 1490.08 Q1872.28 1488.53 1872.28 1486.31 Q1872.28 1483.2 1874.48 1481.4 Q1876.7 1479.59 1880.56 1479.59 Q1884.43 1479.59 1886.63 1481.4 Q1888.84 1483.2 1888.84 1486.31 Q1888.84 1488.53 1887.57 1490.08 Q1886.32 1491.62 1884.08 1492.18 Q1886.62 1492.77 1888.02 1494.49 Q1889.45 1496.21 1889.45 1498.69 Q1889.45 1502.46 1887.14 1504.47 Q1884.85 1506.48 1880.56 1506.48 Q1876.27 1506.48 1873.96 1504.47 Q1871.67 1502.46 1871.67 1498.69 Q1871.67 1496.21 1873.09 1494.49 Q1874.52 1492.77 1877.05 1492.18 M1875.77 1486.64 Q1875.77 1488.65 1877.02 1489.78 Q1878.28 1490.91 1880.56 1490.91 Q1882.82 1490.91 1884.08 1489.78 Q1885.37 1488.65 1885.37 1486.64 Q1885.37 1484.63 1884.08 1483.5 Q1882.82 1482.37 1880.56 1482.37 Q1878.28 1482.37 1877.02 1483.5 Q1875.77 1484.63 1875.77 1486.64 Z" fill="#4c4c4c" fill-rule="evenodd" fill-opacity="1" /><path clip-path="url(#clip140)" d="M1903.18 1482.37 Q1900.47 1482.37 1899.1 1485.04 Q1897.75 1487.7 1897.75 1493.05 Q1897.75 1498.38 1899.1 1501.05 Q1900.47 1503.71 1903.18 1503.71 Q1905.91 1503.71 1907.26 1501.05 Q1908.63 1498.38 1908.63 1493.05 Q1908.63 1487.7 1907.26 1485.04 Q1905.91 1482.37 1903.18 1482.37 M1903.18 1479.59 Q1907.54 1479.59 1909.83 1483.05 Q1912.14 1486.48 1912.14 1493.05 Q1912.14 1499.59 1909.83 1503.05 Q1907.54 1506.48 1903.18 1506.48 Q1898.82 1506.48 1896.51 1503.05 Q1894.22 1499.59 1894.22 1493.05 Q1894.22 1486.48 1896.51 1483.05 Q1898.82 1479.59 1903.18 1479.59 Z" fill="#4c4c4c" fill-rule="evenodd" fill-opacity="1" /><path clip-path="url(#clip140)" d="M2073.62 1505.44 L2073.62 1502.25 Q2074.94 1502.87 2076.29 1503.2 Q2077.65 1503.53 2078.95 1503.53 Q2082.42 1503.53 2084.24 1501.21 Q2086.08 1498.86 2086.35 1494.1 Q2085.34 1495.6 2083.79 1496.4 Q2082.25 1497.2 2080.37 1497.2 Q2076.48 1497.2 2074.21 1494.85 Q2071.95 1492.49 2071.95 1488.41 Q2071.95 1484.42 2074.31 1482 Q2076.68 1479.59 2080.6 1479.59 Q2085.1 1479.59 2087.46 1483.05 Q2089.83 1486.48 2089.83 1493.05 Q2089.83 1499.17 2086.92 1502.84 Q2084.02 1506.48 2079.11 1506.48 Q2077.79 1506.48 2076.43 1506.22 Q2075.08 1505.96 2073.62 1505.44 M2080.6 1494.45 Q2082.96 1494.45 2084.33 1492.84 Q2085.72 1491.22 2085.72 1488.41 Q2085.72 1485.62 2084.33 1484 Q2082.96 1482.37 2080.6 1482.37 Q2078.24 1482.37 2076.85 1484 Q2075.48 1485.62 2075.48 1488.41 Q2075.48 1491.22 2076.85 1492.84 Q2078.24 1494.45 2080.6 1494.45 Z" fill="#4c4c4c" fill-rule="evenodd" fill-opacity="1" /><path clip-path="url(#clip140)" d="M2103.64 1482.37 Q2100.93 1482.37 2099.56 1485.04 Q2098.2 1487.7 2098.2 1493.05 Q2098.2 1498.38 2099.56 1501.05 Q2100.93 1503.71 2103.64 1503.71 Q2106.36 1503.71 2107.72 1501.05 Q2109.09 1498.38 2109.09 1493.05 Q2109.09 1487.7 2107.72 1485.04 Q2106.36 1482.37 2103.64 1482.37 M2103.64 1479.59 Q2107.99 1479.59 2110.29 1483.05 Q2112.6 1486.48 2112.6 1493.05 Q2112.6 1499.59 2110.29 1503.05 Q2107.99 1506.48 2103.64 1506.48 Q2099.28 1506.48 2096.97 1503.05 Q2094.68 1499.59 2094.68 1493.05 Q2094.68 1486.48 2096.97 1483.05 Q2099.28 1479.59 2103.64 1479.59 Z" fill="#4c4c4c" fill-rule="evenodd" fill-opacity="1" /><path clip-path="url(#clip140)" d="M2262.35 1503.03 L2268.08 1503.03 L2268.08 1483.25 L2261.85 1484.5 L2261.85 1481.31 L2268.04 1480.06 L2271.55 1480.06 L2271.55 1503.03 L2277.28 1503.03 L2277.28 1505.98 L2262.35 1505.98 L2262.35 1503.03 Z" fill="#4c4c4c" fill-rule="evenodd" fill-opacity="1" /><path clip-path="url(#clip140)" d="M2291.86 1482.37 Q2289.16 1482.37 2287.78 1485.04 Q2286.43 1487.7 2286.43 1493.05 Q2286.43 1498.38 2287.78 1501.05 Q2289.16 1503.71 2291.86 1503.71 Q2294.59 1503.71 2295.94 1501.05 Q2297.31 1498.38 2297.31 1493.05 Q2297.31 1487.7 2295.94 1485.04 Q2294.59 1482.37 2291.86 1482.37 M2291.86 1479.59 Q2296.22 1479.59 2298.51 1483.05 Q2300.82 1486.48 2300.82 1493.05 Q2300.82 1499.59 2298.51 1503.05 Q2296.22 1506.48 2291.86 1506.48 Q2287.51 1506.48 2285.2 1503.05 Q2282.91 1499.59 2282.91 1493.05 Q2282.91 1486.48 2285.2 1483.05 Q2287.51 1479.59 2291.86 1479.59 Z" fill="#4c4c4c" fill-rule="evenodd" fill-opacity="1" /><path clip-path="url(#clip140)" d="M2314.48 1482.37 Q2311.78 1482.37 2310.41 1485.04 Q2309.05 1487.7 2309.05 1493.05 Q2309.05 1498.38 2310.41 1501.05 Q2311.78 1503.71 2314.48 1503.71 Q2317.21 1503.71 2318.56 1501.05 Q2319.94 1498.38 2319.94 1493.05 Q2319.94 1487.7 2318.56 1485.04 Q2317.21 1482.37 2314.48 1482.37 M2314.48 1479.59 Q2318.84 1479.59 2321.13 1483.05 Q2323.44 1486.48 2323.44 1493.05 Q2323.44 1499.59 2321.13 1503.05 Q2318.84 1506.48 2314.48 1506.48 Q2310.13 1506.48 2307.82 1503.05 Q2305.53 1499.59 2305.53 1493.05 Q2305.53 1486.48 2307.82 1483.05 Q2310.13 1479.59 2314.48 1479.59 Z" fill="#4c4c4c" fill-rule="evenodd" fill-opacity="1" /><path clip-path="url(#clip140)" d="M1181.38 1526.57 L1186.06 1526.57 L1186.06 1561.13 L1181.38 1561.13 L1181.38 1526.57 Z" fill="#000000" fill-rule="evenodd" fill-opacity="1" /><path clip-path="url(#clip140)" d="M1199.39 1527.84 L1199.39 1535.21 L1208.16 1535.21 L1208.16 1538.52 L1199.39 1538.52 L1199.39 1552.59 Q1199.39 1555.76 1200.25 1556.66 Q1201.13 1557.57 1203.79 1557.57 L1208.16 1557.57 L1208.16 1561.13 L1203.79 1561.13 Q1198.86 1561.13 1196.98 1559.3 Q1195.11 1557.45 1195.11 1552.59 L1195.11 1538.52 L1191.98 1538.52 L1191.98 1535.21 L1195.11 1535.21 L1195.11 1527.84 L1199.39 1527.84 Z" fill="#000000" fill-rule="evenodd" fill-opacity="1" /><path clip-path="url(#clip140)" d="M1235.94 1547.1 L1235.94 1549.19 L1216.36 1549.19 Q1216.64 1553.59 1219 1555.9 Q1221.38 1558.19 1225.62 1558.19 Q1228.07 1558.19 1230.36 1557.59 Q1232.68 1556.99 1234.95 1555.78 L1234.95 1559.81 Q1232.66 1560.78 1230.25 1561.29 Q1227.84 1561.8 1225.36 1561.8 Q1219.16 1561.8 1215.53 1558.19 Q1211.91 1554.58 1211.91 1548.42 Q1211.91 1542.06 1215.34 1538.33 Q1218.79 1534.58 1224.62 1534.58 Q1229.85 1534.58 1232.89 1537.96 Q1235.94 1541.32 1235.94 1547.1 M1231.68 1545.85 Q1231.64 1542.36 1229.72 1540.28 Q1227.82 1538.19 1224.67 1538.19 Q1221.1 1538.19 1218.95 1540.21 Q1216.82 1542.22 1216.5 1545.88 L1231.68 1545.85 Z" fill="#000000" fill-rule="evenodd" fill-opacity="1" /><path clip-path="url(#clip140)" d="M1257.96 1539.19 Q1257.24 1538.77 1256.38 1538.59 Q1255.55 1538.38 1254.53 1538.38 Q1250.92 1538.38 1248.97 1540.74 Q1247.05 1543.08 1247.05 1547.47 L1247.05 1561.13 L1242.77 1561.13 L1242.77 1535.21 L1247.05 1535.21 L1247.05 1539.23 Q1248.4 1536.87 1250.55 1535.74 Q1252.7 1534.58 1255.78 1534.58 Q1256.22 1534.58 1256.75 1534.65 Q1257.28 1534.7 1257.93 1534.81 L1257.96 1539.19 Z" fill="#000000" fill-rule="evenodd" fill-opacity="1" /><path clip-path="url(#clip140)" d="M1274.21 1548.1 Q1269.04 1548.1 1267.05 1549.28 Q1265.06 1550.46 1265.06 1553.31 Q1265.06 1555.58 1266.54 1556.92 Q1268.05 1558.24 1270.62 1558.24 Q1274.16 1558.24 1276.29 1555.74 Q1278.44 1553.22 1278.44 1549.05 L1278.44 1548.1 L1274.21 1548.1 M1282.7 1546.34 L1282.7 1561.13 L1278.44 1561.13 L1278.44 1557.2 Q1276.98 1559.56 1274.81 1560.69 Q1272.63 1561.8 1269.48 1561.8 Q1265.5 1561.8 1263.14 1559.58 Q1260.8 1557.34 1260.8 1553.59 Q1260.8 1549.21 1263.72 1546.99 Q1266.66 1544.77 1272.47 1544.77 L1278.44 1544.77 L1278.44 1544.35 Q1278.44 1541.41 1276.5 1539.81 Q1274.58 1538.19 1271.08 1538.19 Q1268.86 1538.19 1266.75 1538.72 Q1264.65 1539.26 1262.7 1540.32 L1262.7 1536.39 Q1265.04 1535.48 1267.24 1535.04 Q1269.44 1534.58 1271.52 1534.58 Q1277.15 1534.58 1279.92 1537.5 Q1282.7 1540.41 1282.7 1546.34 Z" fill="#000000" fill-rule="evenodd" fill-opacity="1" /><path clip-path="url(#clip140)" d="M1295.69 1527.84 L1295.69 1535.21 L1304.46 1535.21 L1304.46 1538.52 L1295.69 1538.52 L1295.69 1552.59 Q1295.69 1555.76 1296.54 1556.66 Q1297.42 1557.57 1300.09 1557.57 L1304.46 1557.57 L1304.46 1561.13 L1300.09 1561.13 Q1295.16 1561.13 1293.28 1559.3 Q1291.41 1557.45 1291.41 1552.59 L1291.41 1538.52 L1288.28 1538.52 L1288.28 1535.21 L1291.41 1535.21 L1291.41 1527.84 L1295.69 1527.84 Z" fill="#000000" fill-rule="evenodd" fill-opacity="1" /><path clip-path="url(#clip140)" d="M1310.06 1535.21 L1314.32 1535.21 L1314.32 1561.13 L1310.06 1561.13 L1310.06 1535.21 M1310.06 1525.11 L1314.32 1525.11 L1314.32 1530.51 L1310.06 1530.51 L1310.06 1525.11 Z" fill="#000000" fill-rule="evenodd" fill-opacity="1" /><path clip-path="url(#clip140)" d="M1333.28 1538.19 Q1329.85 1538.19 1327.86 1540.88 Q1325.87 1543.54 1325.87 1548.19 Q1325.87 1552.84 1327.84 1555.53 Q1329.83 1558.19 1333.28 1558.19 Q1336.68 1558.19 1338.67 1555.51 Q1340.66 1552.82 1340.66 1548.19 Q1340.66 1543.59 1338.67 1540.9 Q1336.68 1538.19 1333.28 1538.19 M1333.28 1534.58 Q1338.84 1534.58 1342.01 1538.19 Q1345.18 1541.8 1345.18 1548.19 Q1345.18 1554.56 1342.01 1558.19 Q1338.84 1561.8 1333.28 1561.8 Q1327.7 1561.8 1324.53 1558.19 Q1321.38 1554.56 1321.38 1548.19 Q1321.38 1541.8 1324.53 1538.19 Q1327.7 1534.58 1333.28 1534.58 Z" fill="#000000" fill-rule="evenodd" fill-opacity="1" /><path clip-path="url(#clip140)" d="M1373.79 1545.48 L1373.79 1561.13 L1369.53 1561.13 L1369.53 1545.62 Q1369.53 1541.94 1368.09 1540.11 Q1366.66 1538.28 1363.79 1538.28 Q1360.34 1538.28 1358.35 1540.48 Q1356.36 1542.68 1356.36 1546.48 L1356.36 1561.13 L1352.08 1561.13 L1352.08 1535.21 L1356.36 1535.21 L1356.36 1539.23 Q1357.89 1536.9 1359.95 1535.74 Q1362.03 1534.58 1364.74 1534.58 Q1369.21 1534.58 1371.5 1537.36 Q1373.79 1540.11 1373.79 1545.48 Z" fill="#000000" fill-rule="evenodd" fill-opacity="1" /><path clip-path="url(#clip140)" d="M1398.81 1535.97 L1398.81 1540 Q1397.01 1539.07 1395.06 1538.61 Q1393.12 1538.15 1391.03 1538.15 Q1387.86 1538.15 1386.27 1539.12 Q1384.69 1540.09 1384.69 1542.03 Q1384.69 1543.52 1385.83 1544.37 Q1386.96 1545.21 1390.39 1545.97 L1391.84 1546.29 Q1396.38 1547.27 1398.28 1549.05 Q1400.2 1550.81 1400.2 1553.98 Q1400.2 1557.59 1397.33 1559.7 Q1394.48 1561.8 1389.48 1561.8 Q1387.4 1561.8 1385.13 1561.39 Q1382.89 1560.99 1380.39 1560.18 L1380.39 1555.78 Q1382.75 1557.01 1385.04 1557.64 Q1387.33 1558.24 1389.58 1558.24 Q1392.59 1558.24 1394.21 1557.22 Q1395.83 1556.18 1395.83 1554.3 Q1395.83 1552.57 1394.65 1551.64 Q1393.49 1550.72 1389.53 1549.86 L1388.05 1549.51 Q1384.09 1548.68 1382.33 1546.97 Q1380.57 1545.23 1380.57 1542.22 Q1380.57 1538.56 1383.16 1536.57 Q1385.76 1534.58 1390.52 1534.58 Q1392.89 1534.58 1394.97 1534.93 Q1397.05 1535.28 1398.81 1535.97 Z" fill="#000000" fill-rule="evenodd" fill-opacity="1" /><polyline clip-path="url(#clip142)" style="stroke:#ffffff; stroke-linecap:butt; stroke-linejoin:round; stroke-width:4; stroke-opacity:1; fill:none" points="
  228.827,1329.57 2352.76,1329.57 
  "/>
<polyline clip-path="url(#clip142)" style="stroke:#ffffff; stroke-linecap:butt; stroke-linejoin:round; stroke-width:4; stroke-opacity:1; fill:none" points="
  228.827,955.125 2352.76,955.125 
  "/>
<polyline clip-path="url(#clip142)" style="stroke:#ffffff; stroke-linecap:butt; stroke-linejoin:round; stroke-width:4; stroke-opacity:1; fill:none" points="
  228.827,580.68 2352.76,580.68 
  "/>
<polyline clip-path="url(#clip142)" style="stroke:#ffffff; stroke-linecap:butt; stroke-linejoin:round; stroke-width:4; stroke-opacity:1; fill:none" points="
  228.827,206.235 2352.76,206.235 
  "/>
<polyline clip-path="url(#clip142)" style="stroke:#ffffff; stroke-linecap:butt; stroke-linejoin:round; stroke-width:2; stroke-opacity:1; fill:none" points="
  228.827,1142.35 2352.76,1142.35 
  "/>
<polyline clip-path="url(#clip142)" style="stroke:#ffffff; stroke-linecap:butt; stroke-linejoin:round; stroke-width:2; stroke-opacity:1; fill:none" points="
  228.827,767.903 2352.76,767.903 
  "/>
<polyline clip-path="url(#clip142)" style="stroke:#ffffff; stroke-linecap:butt; stroke-linejoin:round; stroke-width:2; stroke-opacity:1; fill:none" points="
  228.827,393.457 2352.76,393.457 
  "/>
<polyline clip-path="url(#clip140)" style="stroke:#ffffff; stroke-linecap:butt; stroke-linejoin:round; stroke-width:4; stroke-opacity:1; fill:none" points="
  228.827,1444.78 228.827,106.192 
  "/>
<polyline clip-path="url(#clip140)" style="stroke:#333333; stroke-linecap:butt; stroke-linejoin:round; stroke-width:4; stroke-opacity:1; fill:none" points="
  228.827,1329.57 209.93,1329.57 
  "/>
<polyline clip-path="url(#clip140)" style="stroke:#333333; stroke-linecap:butt; stroke-linejoin:round; stroke-width:4; stroke-opacity:1; fill:none" points="
  228.827,955.125 209.93,955.125 
  "/>
<polyline clip-path="url(#clip140)" style="stroke:#333333; stroke-linecap:butt; stroke-linejoin:round; stroke-width:4; stroke-opacity:1; fill:none" points="
  228.827,580.68 209.93,580.68 
  "/>
<polyline clip-path="url(#clip140)" style="stroke:#333333; stroke-linecap:butt; stroke-linejoin:round; stroke-width:4; stroke-opacity:1; fill:none" points="
  228.827,206.235 209.93,206.235 
  "/>
<polyline clip-path="url(#clip140)" style="stroke:#333333; stroke-linecap:butt; stroke-linejoin:round; stroke-width:4; stroke-opacity:1; fill:none" points="
  228.827,1142.35 219.379,1142.35 
  "/>
<polyline clip-path="url(#clip140)" style="stroke:#333333; stroke-linecap:butt; stroke-linejoin:round; stroke-width:4; stroke-opacity:1; fill:none" points="
  228.827,767.903 219.379,767.903 
  "/>
<polyline clip-path="url(#clip140)" style="stroke:#333333; stroke-linecap:butt; stroke-linejoin:round; stroke-width:4; stroke-opacity:1; fill:none" points="
  228.827,393.457 219.379,393.457 
  "/>
<path clip-path="url(#clip140)" d="M83.3002 1329.91 L105.557 1329.91 L105.557 1332.86 L83.3002 1332.86 L83.3002 1329.91 Z" fill="#4c4c4c" fill-rule="evenodd" fill-opacity="1" /><path clip-path="url(#clip140)" d="M116.147 1339.58 L128.387 1339.58 L128.387 1342.53 L111.928 1342.53 L111.928 1339.58 Q113.925 1337.51 117.362 1334.04 Q120.817 1330.55 121.703 1329.54 Q123.387 1327.65 124.046 1326.35 Q124.724 1325.03 124.724 1323.76 Q124.724 1321.7 123.265 1320.4 Q121.824 1319.09 119.498 1319.09 Q117.849 1319.09 116.008 1319.67 Q114.185 1320.24 112.102 1321.4 L112.102 1317.86 Q114.22 1317.01 116.06 1316.58 Q117.901 1316.14 119.428 1316.14 Q123.456 1316.14 125.852 1318.16 Q128.248 1320.17 128.248 1323.54 Q128.248 1325.14 127.64 1326.58 Q127.05 1328 125.47 1329.94 Q125.036 1330.45 122.71 1332.86 Q120.383 1335.26 116.147 1339.58 Z" fill="#4c4c4c" fill-rule="evenodd" fill-opacity="1" /><path clip-path="url(#clip140)" d="M143.248 1330.22 Q140.748 1330.22 139.307 1331.56 Q137.883 1332.9 137.883 1335.24 Q137.883 1337.58 139.307 1338.92 Q140.748 1340.26 143.248 1340.26 Q145.748 1340.26 147.189 1338.92 Q148.63 1337.57 148.63 1335.24 Q148.63 1332.9 147.189 1331.56 Q145.765 1330.22 143.248 1330.22 M139.741 1328.73 Q137.484 1328.17 136.217 1326.63 Q134.967 1325.08 134.967 1322.86 Q134.967 1319.75 137.171 1317.95 Q139.394 1316.14 143.248 1316.14 Q147.119 1316.14 149.324 1317.95 Q151.529 1319.75 151.529 1322.86 Q151.529 1325.08 150.262 1326.63 Q149.012 1328.17 146.772 1328.73 Q149.307 1329.32 150.713 1331.04 Q152.137 1332.76 152.137 1335.24 Q152.137 1339.01 149.828 1341.02 Q147.536 1343.03 143.248 1343.03 Q138.96 1343.03 136.651 1341.02 Q134.359 1339.01 134.359 1335.24 Q134.359 1332.76 135.783 1331.04 Q137.206 1329.32 139.741 1328.73 M138.456 1323.19 Q138.456 1325.2 139.706 1326.33 Q140.973 1327.46 143.248 1327.46 Q145.505 1327.46 146.772 1326.33 Q148.057 1325.2 148.057 1323.19 Q148.057 1321.18 146.772 1320.05 Q145.505 1318.92 143.248 1318.92 Q140.973 1318.92 139.706 1320.05 Q138.456 1321.18 138.456 1323.19 Z" fill="#4c4c4c" fill-rule="evenodd" fill-opacity="1" /><path clip-path="url(#clip140)" d="M165.869 1318.92 Q163.161 1318.92 161.789 1321.59 Q160.435 1324.25 160.435 1329.6 Q160.435 1334.93 161.789 1337.6 Q163.161 1340.26 165.869 1340.26 Q168.595 1340.26 169.949 1337.6 Q171.321 1334.93 171.321 1329.6 Q171.321 1324.25 169.949 1321.59 Q168.595 1318.92 165.869 1318.92 M165.869 1316.14 Q170.227 1316.14 172.518 1319.6 Q174.827 1323.03 174.827 1329.6 Q174.827 1336.14 172.518 1339.6 Q170.227 1343.03 165.869 1343.03 Q161.512 1343.03 159.203 1339.6 Q156.911 1336.14 156.911 1329.6 Q156.911 1323.03 159.203 1319.6 Q161.512 1316.14 165.869 1316.14 Z" fill="#4c4c4c" fill-rule="evenodd" fill-opacity="1" /><path clip-path="url(#clip140)" d="M83.3002 955.464 L105.557 955.464 L105.557 958.415 L83.3002 958.415 L83.3002 955.464 Z" fill="#4c4c4c" fill-rule="evenodd" fill-opacity="1" /><path clip-path="url(#clip140)" d="M116.147 965.134 L128.387 965.134 L128.387 968.085 L111.928 968.085 L111.928 965.134 Q113.925 963.068 117.362 959.596 Q120.817 956.106 121.703 955.099 Q123.387 953.207 124.046 951.905 Q124.724 950.585 124.724 949.318 Q124.724 947.252 123.265 945.95 Q121.824 944.648 119.498 944.648 Q117.849 944.648 116.008 945.221 Q114.185 945.794 112.102 946.957 L112.102 943.415 Q114.22 942.565 116.06 942.131 Q117.901 941.697 119.428 941.697 Q123.456 941.697 125.852 943.711 Q128.248 945.724 128.248 949.092 Q128.248 950.69 127.64 952.131 Q127.05 953.554 125.47 955.499 Q125.036 956.002 122.71 958.415 Q120.383 960.811 116.147 965.134 Z" fill="#4c4c4c" fill-rule="evenodd" fill-opacity="1" /><path clip-path="url(#clip140)" d="M134.862 942.165 L151.529 942.165 L151.529 943.658 L142.119 968.085 L138.456 968.085 L147.31 945.117 L134.862 945.117 L134.862 942.165 Z" fill="#4c4c4c" fill-rule="evenodd" fill-opacity="1" /><path clip-path="url(#clip140)" d="M165.869 944.474 Q163.161 944.474 161.789 947.148 Q160.435 949.804 160.435 955.151 Q160.435 960.481 161.789 963.155 Q163.161 965.811 165.869 965.811 Q168.595 965.811 169.949 963.155 Q171.321 960.481 171.321 955.151 Q171.321 949.804 169.949 947.148 Q168.595 944.474 165.869 944.474 M165.869 941.697 Q170.227 941.697 172.518 945.151 Q174.827 948.589 174.827 955.151 Q174.827 961.697 172.518 965.151 Q170.227 968.589 165.869 968.589 Q161.512 968.589 159.203 965.151 Q156.911 961.697 156.911 955.151 Q156.911 948.589 159.203 945.151 Q161.512 941.697 165.869 941.697 Z" fill="#4c4c4c" fill-rule="evenodd" fill-opacity="1" /><path clip-path="url(#clip140)" d="M83.3002 581.019 L105.557 581.019 L105.557 583.97 L83.3002 583.97 L83.3002 581.019 Z" fill="#4c4c4c" fill-rule="evenodd" fill-opacity="1" /><path clip-path="url(#clip140)" d="M116.147 590.689 L128.387 590.689 L128.387 593.64 L111.928 593.64 L111.928 590.689 Q113.925 588.623 117.362 585.15 Q120.817 581.661 121.703 580.654 Q123.387 578.762 124.046 577.46 Q124.724 576.14 124.724 574.873 Q124.724 572.807 123.265 571.505 Q121.824 570.203 119.498 570.203 Q117.849 570.203 116.008 570.776 Q114.185 571.348 112.102 572.512 L112.102 568.97 Q114.22 568.119 116.06 567.685 Q117.901 567.251 119.428 567.251 Q123.456 567.251 125.852 569.265 Q128.248 571.279 128.248 574.647 Q128.248 576.244 127.64 577.685 Q127.05 579.109 125.47 581.053 Q125.036 581.557 122.71 583.97 Q120.383 586.366 116.147 590.689 Z" fill="#4c4c4c" fill-rule="evenodd" fill-opacity="1" /><path clip-path="url(#clip140)" d="M143.682 579.282 Q141.321 579.282 139.932 580.897 Q138.56 582.512 138.56 585.324 Q138.56 588.119 139.932 589.751 Q141.321 591.366 143.682 591.366 Q146.043 591.366 147.414 589.751 Q148.803 588.119 148.803 585.324 Q148.803 582.512 147.414 580.897 Q146.043 579.282 143.682 579.282 M150.644 568.293 L150.644 571.487 Q149.324 570.862 147.97 570.532 Q146.633 570.203 145.314 570.203 Q141.842 570.203 140.001 572.546 Q138.178 574.89 137.918 579.63 Q138.942 578.119 140.487 577.321 Q142.032 576.505 143.89 576.505 Q147.796 576.505 150.053 578.883 Q152.328 581.244 152.328 585.324 Q152.328 589.317 149.966 591.73 Q147.605 594.143 143.682 594.143 Q139.185 594.143 136.807 590.706 Q134.428 587.251 134.428 580.706 Q134.428 574.56 137.345 570.914 Q140.262 567.251 145.175 567.251 Q146.494 567.251 147.831 567.512 Q149.185 567.772 150.644 568.293 Z" fill="#4c4c4c" fill-rule="evenodd" fill-opacity="1" /><path clip-path="url(#clip140)" d="M165.869 570.029 Q163.161 570.029 161.789 572.703 Q160.435 575.359 160.435 580.706 Q160.435 586.036 161.789 588.709 Q163.161 591.366 165.869 591.366 Q168.595 591.366 169.949 588.709 Q171.321 586.036 171.321 580.706 Q171.321 575.359 169.949 572.703 Q168.595 570.029 165.869 570.029 M165.869 567.251 Q170.227 567.251 172.518 570.706 Q174.827 574.144 174.827 580.706 Q174.827 587.251 172.518 590.706 Q170.227 594.143 165.869 594.143 Q161.512 594.143 159.203 590.706 Q156.911 587.251 156.911 580.706 Q156.911 574.144 159.203 570.706 Q161.512 567.251 165.869 567.251 Z" fill="#4c4c4c" fill-rule="evenodd" fill-opacity="1" /><path clip-path="url(#clip140)" d="M83.3002 206.573 L105.557 206.573 L105.557 209.525 L83.3002 209.525 L83.3002 206.573 Z" fill="#4c4c4c" fill-rule="evenodd" fill-opacity="1" /><path clip-path="url(#clip140)" d="M116.147 216.243 L128.387 216.243 L128.387 219.195 L111.928 219.195 L111.928 216.243 Q113.925 214.177 117.362 210.705 Q120.817 207.216 121.703 206.209 Q123.387 204.316 124.046 203.014 Q124.724 201.695 124.724 200.427 Q124.724 198.361 123.265 197.059 Q121.824 195.757 119.498 195.757 Q117.849 195.757 116.008 196.33 Q114.185 196.903 112.102 198.066 L112.102 194.525 Q114.22 193.674 116.06 193.24 Q117.901 192.806 119.428 192.806 Q123.456 192.806 125.852 194.82 Q128.248 196.834 128.248 200.202 Q128.248 201.799 127.64 203.24 Q127.05 204.663 125.47 206.608 Q125.036 207.111 122.71 209.525 Q120.383 211.92 116.147 216.243 Z" fill="#4c4c4c" fill-rule="evenodd" fill-opacity="1" /><path clip-path="url(#clip140)" d="M135.783 193.275 L149.55 193.275 L149.55 196.226 L138.994 196.226 L138.994 202.58 Q139.758 202.32 140.522 202.198 Q141.286 202.059 142.05 202.059 Q146.39 202.059 148.925 204.438 Q151.46 206.816 151.46 210.879 Q151.46 215.063 148.855 217.389 Q146.251 219.698 141.512 219.698 Q139.88 219.698 138.178 219.42 Q136.494 219.143 134.689 218.587 L134.689 215.063 Q136.251 215.913 137.918 216.33 Q139.585 216.747 141.442 216.747 Q144.446 216.747 146.199 215.167 Q147.953 213.587 147.953 210.879 Q147.953 208.17 146.199 206.591 Q144.446 205.011 141.442 205.011 Q140.036 205.011 138.63 205.323 Q137.241 205.636 135.783 206.295 L135.783 193.275 Z" fill="#4c4c4c" fill-rule="evenodd" fill-opacity="1" /><path clip-path="url(#clip140)" d="M165.869 195.584 Q163.161 195.584 161.789 198.257 Q160.435 200.913 160.435 206.261 Q160.435 211.59 161.789 214.264 Q163.161 216.92 165.869 216.92 Q168.595 216.92 169.949 214.264 Q171.321 211.59 171.321 206.261 Q171.321 200.913 169.949 198.257 Q168.595 195.584 165.869 195.584 M165.869 192.806 Q170.227 192.806 172.518 196.261 Q174.827 199.698 174.827 206.261 Q174.827 212.806 172.518 216.261 Q170.227 219.698 165.869 219.698 Q161.512 219.698 159.203 216.261 Q156.911 212.806 156.911 206.261 Q156.911 199.698 159.203 196.261 Q161.512 192.806 165.869 192.806 Z" fill="#4c4c4c" fill-rule="evenodd" fill-opacity="1" /><path clip-path="url(#clip140)" d="M20.3722 985.184 L20.3722 955.948 L24.3073 955.948 L24.3073 968.216 L54.9322 968.216 L54.9322 972.915 L24.3073 972.915 L24.3073 985.184 L20.3722 985.184 Z" fill="#000000" fill-rule="evenodd" fill-opacity="1" /><path clip-path="url(#clip140)" d="M40.9045 937.499 L42.9878 937.499 L42.9878 957.082 Q47.3859 956.804 49.7007 954.443 Q51.9924 952.059 51.9924 947.823 Q51.9924 945.369 51.3905 943.078 Q50.7887 940.763 49.585 938.494 L53.6127 938.494 Q54.5849 940.786 55.0942 943.193 Q55.6035 945.601 55.6035 948.078 Q55.6035 954.281 51.9924 957.916 Q48.3813 961.527 42.2239 961.527 Q35.8582 961.527 32.1314 958.101 Q28.3814 954.652 28.3814 948.818 Q28.3814 943.587 31.761 940.555 Q35.1174 937.499 40.9045 937.499 M39.6545 941.758 Q36.1591 941.805 34.0758 943.726 Q31.9925 945.624 31.9925 948.772 Q31.9925 952.337 34.0063 954.49 Q36.0202 956.619 39.6776 956.943 L39.6545 941.758 Z" fill="#000000" fill-rule="evenodd" fill-opacity="1" /><path clip-path="url(#clip140)" d="M29.7703 913.981 L33.798 913.981 Q32.8721 915.786 32.4091 917.731 Q31.9462 919.675 31.9462 921.758 Q31.9462 924.93 32.9184 926.527 Q33.8906 928.101 35.835 928.101 Q37.3165 928.101 38.173 926.967 Q39.0063 925.832 39.7702 922.406 L40.0943 920.948 Q41.0665 916.411 42.8489 914.513 Q44.6081 912.592 47.7794 912.592 Q51.3905 912.592 53.497 915.462 Q55.6035 918.309 55.6035 923.309 Q55.6035 925.393 55.1868 927.661 Q54.7933 929.906 53.9831 932.406 L49.585 932.406 Q50.8118 930.045 51.4368 927.754 Q52.0387 925.462 52.0387 923.217 Q52.0387 920.207 51.0201 918.587 Q49.9785 916.967 48.1035 916.967 Q46.3674 916.967 45.4415 918.147 Q44.5155 919.305 43.6591 923.263 L43.3118 924.744 Q42.4785 928.703 40.7656 930.462 Q39.0295 932.221 36.0202 932.221 Q32.3628 932.221 30.3721 929.629 Q28.3814 927.036 28.3814 922.268 Q28.3814 919.907 28.7286 917.823 Q29.0758 915.74 29.7703 913.981 Z" fill="#000000" fill-rule="evenodd" fill-opacity="1" /><path clip-path="url(#clip140)" d="M21.6453 901.596 L29.0064 901.596 L29.0064 892.823 L32.3165 892.823 L32.3165 901.596 L46.3905 901.596 Q49.5618 901.596 50.4646 900.74 Q51.3674 899.86 51.3674 897.198 L51.3674 892.823 L54.9322 892.823 L54.9322 897.198 Q54.9322 902.129 53.1035 904.004 Q51.2516 905.879 46.3905 905.879 L32.3165 905.879 L32.3165 909.004 L29.0064 909.004 L29.0064 905.879 L21.6453 905.879 L21.6453 901.596 Z" fill="#000000" fill-rule="evenodd" fill-opacity="1" /><path clip-path="url(#clip140)" d="M18.9138 872.152 L18.9138 867.893 L54.9322 867.893 L54.9322 872.152 L18.9138 872.152 Z" fill="#000000" fill-rule="evenodd" fill-opacity="1" /><path clip-path="url(#clip140)" d="M31.9925 848.935 Q31.9925 852.361 34.6776 854.351 Q37.3397 856.342 41.9924 856.342 Q46.6452 856.342 49.3303 854.374 Q51.9924 852.384 51.9924 848.935 Q51.9924 845.532 49.3072 843.541 Q46.622 841.55 41.9924 841.55 Q37.386 841.55 34.7008 843.541 Q31.9925 845.532 31.9925 848.935 M28.3814 848.935 Q28.3814 843.379 31.9925 840.208 Q35.6036 837.037 41.9924 837.037 Q48.3581 837.037 51.9924 840.208 Q55.6035 843.379 55.6035 848.935 Q55.6035 854.513 51.9924 857.685 Q48.3581 860.833 41.9924 860.833 Q35.6036 860.833 31.9925 857.685 Q28.3814 854.513 28.3814 848.935 Z" fill="#000000" fill-rule="evenodd" fill-opacity="1" /><path clip-path="url(#clip140)" d="M41.6683 812.916 Q37.0387 812.916 34.4925 814.838 Q31.9462 816.736 31.9462 820.185 Q31.9462 823.611 34.4925 825.532 Q37.0387 827.43 41.6683 827.43 Q46.2748 827.43 48.8211 825.532 Q51.3674 823.611 51.3674 820.185 Q51.3674 816.736 48.8211 814.838 Q46.2748 812.916 41.6683 812.916 M51.7146 808.657 Q58.3349 808.657 61.5525 811.597 Q64.7932 814.537 64.7932 820.601 Q64.7932 822.847 64.446 824.838 Q64.1219 826.828 63.4275 828.703 L59.284 828.703 Q60.3025 826.828 60.7886 825 Q61.2747 823.171 61.2747 821.273 Q61.2747 817.083 59.0757 815 Q56.8997 812.916 52.4785 812.916 L50.372 812.916 Q52.6637 814.236 53.7979 816.296 Q54.9322 818.356 54.9322 821.226 Q54.9322 825.995 51.2979 828.912 Q47.6637 831.828 41.6683 831.828 Q35.6499 831.828 32.0156 828.912 Q28.3814 825.995 28.3814 821.226 Q28.3814 818.356 29.5156 816.296 Q30.6499 814.236 32.9415 812.916 L29.0064 812.916 L29.0064 808.657 L51.7146 808.657 Z" fill="#000000" fill-rule="evenodd" fill-opacity="1" /><path clip-path="url(#clip140)" d="M40.048 802.037 L40.048 789.56 L43.8443 789.56 L43.8443 802.037 L40.048 802.037 Z" fill="#000000" fill-rule="evenodd" fill-opacity="1" /><path clip-path="url(#clip140)" d="M18.9138 782.778 L18.9138 778.518 L54.9322 778.518 L54.9322 782.778 L18.9138 782.778 Z" fill="#000000" fill-rule="evenodd" fill-opacity="1" /><path clip-path="url(#clip140)" d="M29.0064 769.606 L29.0064 765.347 L54.9322 765.347 L54.9322 769.606 L29.0064 769.606 M18.9138 769.606 L18.9138 765.347 L24.3073 765.347 L24.3073 769.606 L18.9138 769.606 Z" fill="#000000" fill-rule="evenodd" fill-opacity="1" /><path clip-path="url(#clip140)" d="M18.9138 756.597 L18.9138 752.315 L40.1869 752.315 L29.0064 739.607 L29.0064 734.167 L41.1359 747.917 L54.9322 733.588 L54.9322 739.144 L42.2702 752.315 L54.9322 752.315 L54.9322 756.597 L18.9138 756.597 Z" fill="#000000" fill-rule="evenodd" fill-opacity="1" /><path clip-path="url(#clip140)" d="M40.9045 708.496 L42.9878 708.496 L42.9878 728.079 Q47.3859 727.801 49.7007 725.44 Q51.9924 723.056 51.9924 718.82 Q51.9924 716.366 51.3905 714.074 Q50.7887 711.759 49.585 709.491 L53.6127 709.491 Q54.5849 711.783 55.0942 714.19 Q55.6035 716.597 55.6035 719.074 Q55.6035 725.278 51.9924 728.912 Q48.3813 732.523 42.2239 732.523 Q35.8582 732.523 32.1314 729.097 Q28.3814 725.648 28.3814 719.815 Q28.3814 714.584 31.761 711.551 Q35.1174 708.496 40.9045 708.496 M39.6545 712.755 Q36.1591 712.801 34.0758 714.722 Q31.9925 716.621 31.9925 719.769 Q31.9925 723.333 34.0063 725.486 Q36.0202 727.616 39.6776 727.94 L39.6545 712.755 Z" fill="#000000" fill-rule="evenodd" fill-opacity="1" /><path clip-path="url(#clip140)" d="M18.9138 701.505 L18.9138 697.246 L54.9322 697.246 L54.9322 701.505 L18.9138 701.505 Z" fill="#000000" fill-rule="evenodd" fill-opacity="1" /><path clip-path="url(#clip140)" d="M29.0064 688.334 L29.0064 684.074 L54.9322 684.074 L54.9322 688.334 L29.0064 688.334 M18.9138 688.334 L18.9138 684.074 L24.3073 684.074 L24.3073 688.334 L18.9138 688.334 Z" fill="#000000" fill-rule="evenodd" fill-opacity="1" /><path clip-path="url(#clip140)" d="M39.2841 653.612 L54.9322 653.612 L54.9322 657.871 L39.423 657.871 Q35.7424 657.871 33.9138 659.306 Q32.0851 660.741 32.0851 663.612 Q32.0851 667.061 34.2841 669.051 Q36.4832 671.042 40.2795 671.042 L54.9322 671.042 L54.9322 675.324 L18.9138 675.324 L18.9138 671.042 L33.0341 671.042 Q30.6962 669.514 29.5388 667.454 Q28.3814 665.371 28.3814 662.663 Q28.3814 658.195 31.1591 655.903 Q33.9138 653.612 39.2841 653.612 Z" fill="#000000" fill-rule="evenodd" fill-opacity="1" /><path clip-path="url(#clip140)" d="M31.9925 635.07 Q31.9925 638.496 34.6776 640.487 Q37.3397 642.477 41.9924 642.477 Q46.6452 642.477 49.3303 640.51 Q51.9924 638.519 51.9924 635.07 Q51.9924 631.667 49.3072 629.677 Q46.622 627.686 41.9924 627.686 Q37.386 627.686 34.7008 629.677 Q31.9925 631.667 31.9925 635.07 M28.3814 635.07 Q28.3814 629.515 31.9925 626.343 Q35.6036 623.172 41.9924 623.172 Q48.3581 623.172 51.9924 626.343 Q55.6035 629.515 55.6035 635.07 Q55.6035 640.649 51.9924 643.82 Q48.3581 646.968 41.9924 646.968 Q35.6036 646.968 31.9925 643.82 Q28.3814 640.649 28.3814 635.07 Z" fill="#000000" fill-rule="evenodd" fill-opacity="1" /><path clip-path="url(#clip140)" d="M31.9925 606.066 Q31.9925 609.492 34.6776 611.482 Q37.3397 613.473 41.9924 613.473 Q46.6452 613.473 49.3303 611.505 Q51.9924 609.515 51.9924 606.066 Q51.9924 602.663 49.3072 600.672 Q46.622 598.681 41.9924 598.681 Q37.386 598.681 34.7008 600.672 Q31.9925 602.663 31.9925 606.066 M28.3814 606.066 Q28.3814 600.51 31.9925 597.339 Q35.6036 594.168 41.9924 594.168 Q48.3581 594.168 51.9924 597.339 Q55.6035 600.51 55.6035 606.066 Q55.6035 611.644 51.9924 614.816 Q48.3581 617.964 41.9924 617.964 Q35.6036 617.964 31.9925 614.816 Q28.3814 611.644 28.3814 606.066 Z" fill="#000000" fill-rule="evenodd" fill-opacity="1" /><path clip-path="url(#clip140)" d="M32.9415 570.047 L18.9138 570.047 L18.9138 565.788 L54.9322 565.788 L54.9322 570.047 L51.0433 570.047 Q53.3581 571.39 54.4923 573.45 Q55.6035 575.487 55.6035 578.357 Q55.6035 583.056 51.8535 586.019 Q48.1035 588.959 41.9924 588.959 Q35.8813 588.959 32.1314 586.019 Q28.3814 583.056 28.3814 578.357 Q28.3814 575.487 29.5156 573.45 Q30.6267 571.39 32.9415 570.047 M41.9924 584.561 Q46.6915 584.561 49.3766 582.64 Q52.0387 580.695 52.0387 577.316 Q52.0387 573.936 49.3766 571.992 Q46.6915 570.047 41.9924 570.047 Q37.2934 570.047 34.6313 571.992 Q31.9462 573.936 31.9462 577.316 Q31.9462 580.695 34.6313 582.64 Q37.2934 584.561 41.9924 584.561 Z" fill="#000000" fill-rule="evenodd" fill-opacity="1" /><path clip-path="url(#clip140)" d="M1264.88 35.6653 Q1264.88 29.7915 1262.45 26.464 Q1260.05 23.1075 1255.82 23.1075 Q1251.6 23.1075 1249.17 26.464 Q1246.77 29.7915 1246.77 35.6653 Q1246.77 41.5391 1249.17 44.8956 Q1251.6 48.2231 1255.82 48.2231 Q1260.05 48.2231 1262.45 44.8956 Q1264.88 41.5391 1264.88 35.6653 M1246.77 24.3517 Q1248.45 21.4582 1250.99 20.0693 Q1253.57 18.6515 1257.13 18.6515 Q1263.03 18.6515 1266.7 23.339 Q1270.41 28.0265 1270.41 35.6653 Q1270.41 43.3042 1266.7 47.9916 Q1263.03 52.6791 1257.13 52.6791 Q1253.57 52.6791 1250.99 51.2902 Q1248.45 49.8724 1246.77 46.9789 L1246.77 51.84 L1241.41 51.84 L1241.41 6.81709 L1246.77 6.81709 L1246.77 24.3517 Z" fill="#000000" fill-rule="evenodd" fill-opacity="1" /><path clip-path="url(#clip140)" d="M1302.5 35.6653 Q1302.5 29.7915 1300.07 26.464 Q1297.66 23.1075 1293.44 23.1075 Q1289.21 23.1075 1286.78 26.464 Q1284.38 29.7915 1284.38 35.6653 Q1284.38 41.5391 1286.78 44.8956 Q1289.21 48.2231 1293.44 48.2231 Q1297.66 48.2231 1300.07 44.8956 Q1302.5 41.5391 1302.5 35.6653 M1284.38 24.3517 Q1286.06 21.4582 1288.61 20.0693 Q1291.18 18.6515 1294.74 18.6515 Q1300.64 18.6515 1304.32 23.339 Q1308.02 28.0265 1308.02 35.6653 Q1308.02 43.3042 1304.32 47.9916 Q1300.64 52.6791 1294.74 52.6791 Q1291.18 52.6791 1288.61 51.2902 Q1286.06 49.8724 1284.38 46.9789 L1284.38 51.84 L1279.03 51.84 L1279.03 6.81709 L1284.38 6.81709 L1284.38 24.3517 Z" fill="#000000" fill-rule="evenodd" fill-opacity="1" /><path clip-path="url(#clip140)" d="M1340.17 20.677 L1340.17 25.6538 Q1337.91 24.4096 1335.63 23.802 Q1333.37 23.1654 1331.05 23.1654 Q1325.88 23.1654 1323.01 26.464 Q1320.15 29.7336 1320.15 35.6653 Q1320.15 41.597 1323.01 44.8956 Q1325.88 48.1653 1331.05 48.1653 Q1333.37 48.1653 1335.63 47.5576 Q1337.91 46.921 1340.17 45.6768 L1340.17 50.5958 Q1337.94 51.6375 1335.54 52.1583 Q1333.17 52.6791 1330.48 52.6791 Q1323.16 52.6791 1318.84 48.0784 Q1314.53 43.4778 1314.53 35.6653 Q1314.53 27.7371 1318.87 23.1943 Q1323.24 18.6515 1330.82 18.6515 Q1333.28 18.6515 1335.63 19.1724 Q1337.97 19.6642 1340.17 20.677 Z" fill="#000000" fill-rule="evenodd" fill-opacity="1" /><polyline clip-path="url(#clip142)" style="stroke:#e26f46; stroke-linecap:butt; stroke-linejoin:round; stroke-width:8; stroke-opacity:1; fill:none" points="
  329.013,231.697 369.087,231.697 409.161,231.697 449.235,231.697 489.309,231.697 529.383,231.697 569.457,231.697 609.532,231.697 649.606,231.697 689.68,231.697 
  729.754,231.697 769.828,231.697 809.902,231.697 849.976,231.697 890.05,231.697 930.125,231.697 970.199,231.697 1010.27,231.697 1050.35,231.697 1090.42,231.697 
  1130.5,231.697 1170.57,231.697 1210.64,231.697 1250.72,231.697 1290.79,231.697 1330.87,231.697 1370.94,231.697 1411.01,231.697 1451.09,231.697 1491.16,231.697 
  1531.24,231.697 1571.31,231.697 1611.38,231.697 1651.46,231.697 1691.53,231.697 1731.61,231.697 1771.68,231.697 1811.76,231.697 1851.83,231.697 1891.9,231.697 
  1931.98,231.697 1972.05,231.697 2012.13,231.697 2052.2,231.697 2092.27,231.697 2132.35,231.697 2172.42,231.697 2212.5,231.697 2252.57,231.697 2292.64,231.697 
  
  "/>
<polyline clip-path="url(#clip142)" style="stroke:#3da44d; stroke-linecap:butt; stroke-linejoin:round; stroke-width:8; stroke-opacity:1; fill:none" points="
  329.013,371.365 369.087,371.365 409.161,371.365 449.235,371.365 489.309,371.365 529.383,371.365 569.457,371.365 609.532,371.365 649.606,371.365 689.68,371.365 
  729.754,371.365 769.828,371.365 809.902,371.365 849.976,371.365 890.05,371.365 930.125,371.365 970.199,371.365 1010.27,371.365 1050.35,371.365 1090.42,371.365 
  1130.5,371.365 1170.57,371.365 1210.64,371.365 1250.72,371.365 1290.79,371.365 1330.87,371.365 1370.94,371.365 1411.01,371.365 1451.09,371.365 1491.16,371.365 
  1531.24,371.365 1571.31,371.365 1611.38,371.365 1651.46,371.365 1691.53,371.365 1731.61,371.365 1771.68,371.365 1811.76,371.365 1851.83,371.365 1891.9,371.365 
  1931.98,371.365 1972.05,371.365 2012.13,371.365 2052.2,371.365 2092.27,371.365 2132.35,371.365 2172.42,371.365 2212.5,371.365 2252.57,371.365 2292.64,371.365 
  
  "/>
<polyline clip-path="url(#clip142)" style="stroke:#c271d2; stroke-linecap:butt; stroke-linejoin:round; stroke-width:8; stroke-opacity:1; fill:none" points="
  329.013,325.683 369.087,325.683 409.161,325.683 449.235,325.683 489.309,325.683 529.383,325.683 569.457,325.683 609.532,325.683 649.606,325.683 689.68,325.683 
  729.754,325.683 769.828,325.683 809.902,325.683 849.976,325.683 890.05,325.683 930.125,325.683 970.199,325.683 1010.27,325.683 1050.35,325.683 1090.42,325.683 
  1130.5,325.683 1170.57,325.683 1210.64,325.683 1250.72,325.683 1290.79,325.683 1330.87,325.683 1370.94,325.683 1411.01,325.683 1451.09,325.683 1491.16,325.683 
  1531.24,325.683 1571.31,325.683 1611.38,325.683 1651.46,325.683 1691.53,325.683 1731.61,325.683 1771.68,325.683 1811.76,325.683 1851.83,325.683 1891.9,325.683 
  1931.98,325.683 1972.05,325.683 2012.13,325.683 2052.2,325.683 2092.27,325.683 2132.35,325.683 2172.42,325.683 2212.5,325.683 2252.57,325.683 2292.64,325.683 
  
  "/>
<polyline clip-path="url(#clip142)" style="stroke:#ac8d18; stroke-linecap:butt; stroke-linejoin:round; stroke-width:8; stroke-opacity:1; fill:none" points="
  329.013,144.077 369.087,144.077 409.161,144.077 449.235,144.077 489.309,144.077 529.383,144.077 569.457,144.077 609.532,144.077 649.606,144.077 689.68,144.077 
  729.754,144.077 769.828,144.077 809.902,144.077 849.976,144.077 890.05,144.077 930.125,144.077 970.199,144.077 1010.27,144.077 1050.35,144.077 1090.42,144.077 
  1130.5,144.077 1170.57,144.077 1210.64,144.077 1250.72,144.077 1290.79,144.077 1330.87,144.077 1370.94,144.077 1411.01,144.077 1451.09,144.077 1491.16,144.077 
  1531.24,144.077 1571.31,144.077 1611.38,144.077 1651.46,144.077 1691.53,144.077 1731.61,144.077 1771.68,144.077 1811.76,144.077 1851.83,144.077 1891.9,144.077 
  1931.98,144.077 1972.05,144.077 2012.13,144.077 2052.2,144.077 2092.27,144.077 2132.35,144.077 2172.42,144.077 2212.5,144.077 2252.57,144.077 2292.64,144.077 
  
  "/>
<polyline clip-path="url(#clip142)" style="stroke:#00a9ad; stroke-linecap:butt; stroke-linejoin:round; stroke-width:8; stroke-opacity:1; fill:none" points="
  329.013,150.068 369.087,150.068 409.161,150.068 449.235,150.068 489.309,150.068 529.383,150.068 569.457,150.068 609.532,150.068 649.606,150.068 689.68,150.068 
  729.754,150.068 769.828,150.068 809.902,150.068 849.976,150.068 890.05,150.068 930.125,150.068 970.199,150.068 1010.27,150.068 1050.35,150.068 1090.42,150.068 
  1130.5,150.068 1170.57,150.068 1210.64,150.068 1250.72,150.068 1290.79,150.068 1330.87,150.068 1370.94,150.068 1411.01,150.068 1451.09,150.068 1491.16,150.068 
  1531.24,150.068 1571.31,150.068 1611.38,150.068 1651.46,150.068 1691.53,150.068 1731.61,150.068 1771.68,150.068 1811.76,150.068 1851.83,150.068 1891.9,150.068 
  1931.98,150.068 1972.05,150.068 2012.13,150.068 2052.2,150.068 2092.27,150.068 2132.35,150.068 2172.42,150.068 2212.5,150.068 2252.57,150.068 2292.64,150.068 
  
  "/>
<polyline clip-path="url(#clip142)" style="stroke:#009af9; stroke-linecap:butt; stroke-linejoin:round; stroke-width:12; stroke-opacity:1; fill:none" points="
  329.013,1011.76 369.087,1325.94 409.161,1406.9 449.235,770.081 489.309,670.352 529.383,767.443 569.457,488.398 609.532,566.149 649.606,423.149 689.68,493.583 
  729.754,612.672 769.828,794.403 809.902,372.754 849.976,499.709 890.05,668.538 930.125,574.828 970.199,457.907 1010.27,501.861 1050.35,577.468 1090.42,580.432 
  1130.5,542.394 1170.57,509.191 1210.64,468.577 1250.72,552.156 1290.79,525.189 1330.87,580.939 1370.94,475.478 1411.01,400.286 1451.09,405.656 1491.16,417.974 
  1531.24,418.529 1571.31,416.593 1611.38,413.295 1651.46,389.451 1691.53,404.309 1731.61,426.976 1771.68,442.91 1811.76,479.341 1851.83,432.776 1891.9,403.494 
  1931.98,429.255 1972.05,436.05 2012.13,468.881 2052.2,461.97 2092.27,441.489 2132.35,462.309 2172.42,425.159 2212.5,406.984 2252.57,405.029 2292.64,392.806 
  
  "/>
</svg>
