<?xml version="1.0" encoding="utf-8"?>
<svg xmlns="http://www.w3.org/2000/svg" xmlns:xlink="http://www.w3.org/1999/xlink" width="600" height="400" viewBox="0 0 2400 1600">
<defs>
  <clipPath id="clip890">
    <rect x="0" y="0" width="2400" height="1600"/>
  </clipPath>
</defs>
<path clip-path="url(#clip890)" d="
M0 1600 L2400 1600 L2400 0 L0 0  Z
  " fill="#ffffff" fill-rule="evenodd" fill-opacity="1"/>
<defs>
  <clipPath id="clip891">
    <rect x="480" y="0" width="1681" height="1600"/>
  </clipPath>
</defs>
<path clip-path="url(#clip890)" d="
M372.987 1422.18 L2352.76 1422.18 L2352.76 106.192 L372.987 106.192  Z
  " fill="#eaeaea" fill-rule="evenodd" fill-opacity="1"/>
<defs>
  <clipPath id="clip892">
    <rect x="372" y="106" width="1981" height="1317"/>
  </clipPath>
</defs>
<polyline clip-path="url(#clip892)" style="stroke:#ffffff; stroke-linecap:butt; stroke-linejoin:round; stroke-width:4; stroke-opacity:1; fill:none" points="
  429.018,1422.18 429.018,106.192 
  "/>
<polyline clip-path="url(#clip892)" style="stroke:#ffffff; stroke-linecap:butt; stroke-linejoin:round; stroke-width:4; stroke-opacity:1; fill:none" points="
  572.688,1422.18 572.688,106.192 
  "/>
<polyline clip-path="url(#clip892)" style="stroke:#ffffff; stroke-linecap:butt; stroke-linejoin:round; stroke-width:4; stroke-opacity:1; fill:none" points="
  716.358,1422.18 716.358,106.192 
  "/>
<polyline clip-path="url(#clip892)" style="stroke:#ffffff; stroke-linecap:butt; stroke-linejoin:round; stroke-width:4; stroke-opacity:1; fill:none" points="
  860.027,1422.18 860.027,106.192 
  "/>
<polyline clip-path="url(#clip892)" style="stroke:#ffffff; stroke-linecap:butt; stroke-linejoin:round; stroke-width:4; stroke-opacity:1; fill:none" points="
  1003.7,1422.18 1003.7,106.192 
  "/>
<polyline clip-path="url(#clip892)" style="stroke:#ffffff; stroke-linecap:butt; stroke-linejoin:round; stroke-width:4; stroke-opacity:1; fill:none" points="
  1147.37,1422.18 1147.37,106.192 
  "/>
<polyline clip-path="url(#clip892)" style="stroke:#ffffff; stroke-linecap:butt; stroke-linejoin:round; stroke-width:4; stroke-opacity:1; fill:none" points="
  1291.04,1422.18 1291.04,106.192 
  "/>
<polyline clip-path="url(#clip892)" style="stroke:#ffffff; stroke-linecap:butt; stroke-linejoin:round; stroke-width:4; stroke-opacity:1; fill:none" points="
  1434.71,1422.18 1434.71,106.192 
  "/>
<polyline clip-path="url(#clip892)" style="stroke:#ffffff; stroke-linecap:butt; stroke-linejoin:round; stroke-width:4; stroke-opacity:1; fill:none" points="
  1578.38,1422.18 1578.38,106.192 
  "/>
<polyline clip-path="url(#clip892)" style="stroke:#ffffff; stroke-linecap:butt; stroke-linejoin:round; stroke-width:4; stroke-opacity:1; fill:none" points="
  1722.05,1422.18 1722.05,106.192 
  "/>
<polyline clip-path="url(#clip892)" style="stroke:#ffffff; stroke-linecap:butt; stroke-linejoin:round; stroke-width:4; stroke-opacity:1; fill:none" points="
  1865.72,1422.18 1865.72,106.192 
  "/>
<polyline clip-path="url(#clip892)" style="stroke:#ffffff; stroke-linecap:butt; stroke-linejoin:round; stroke-width:4; stroke-opacity:1; fill:none" points="
  2009.39,1422.18 2009.39,106.192 
  "/>
<polyline clip-path="url(#clip892)" style="stroke:#ffffff; stroke-linecap:butt; stroke-linejoin:round; stroke-width:4; stroke-opacity:1; fill:none" points="
  2153.05,1422.18 2153.05,106.192 
  "/>
<polyline clip-path="url(#clip892)" style="stroke:#ffffff; stroke-linecap:butt; stroke-linejoin:round; stroke-width:4; stroke-opacity:1; fill:none" points="
  2296.72,1422.18 2296.72,106.192 
  "/>
<polyline clip-path="url(#clip892)" style="stroke:#ffffff; stroke-linecap:butt; stroke-linejoin:round; stroke-width:2; stroke-opacity:1; fill:none" points="
  500.853,1422.18 500.853,106.192 
  "/>
<polyline clip-path="url(#clip892)" style="stroke:#ffffff; stroke-linecap:butt; stroke-linejoin:round; stroke-width:2; stroke-opacity:1; fill:none" points="
  644.523,1422.18 644.523,106.192 
  "/>
<polyline clip-path="url(#clip892)" style="stroke:#ffffff; stroke-linecap:butt; stroke-linejoin:round; stroke-width:2; stroke-opacity:1; fill:none" points="
  788.193,1422.18 788.193,106.192 
  "/>
<polyline clip-path="url(#clip892)" style="stroke:#ffffff; stroke-linecap:butt; stroke-linejoin:round; stroke-width:2; stroke-opacity:1; fill:none" points="
  931.862,1422.18 931.862,106.192 
  "/>
<polyline clip-path="url(#clip892)" style="stroke:#ffffff; stroke-linecap:butt; stroke-linejoin:round; stroke-width:2; stroke-opacity:1; fill:none" points="
  1075.53,1422.18 1075.53,106.192 
  "/>
<polyline clip-path="url(#clip892)" style="stroke:#ffffff; stroke-linecap:butt; stroke-linejoin:round; stroke-width:2; stroke-opacity:1; fill:none" points="
  1219.2,1422.18 1219.2,106.192 
  "/>
<polyline clip-path="url(#clip892)" style="stroke:#ffffff; stroke-linecap:butt; stroke-linejoin:round; stroke-width:2; stroke-opacity:1; fill:none" points="
  1362.87,1422.18 1362.87,106.192 
  "/>
<polyline clip-path="url(#clip892)" style="stroke:#ffffff; stroke-linecap:butt; stroke-linejoin:round; stroke-width:2; stroke-opacity:1; fill:none" points="
  1506.54,1422.18 1506.54,106.192 
  "/>
<polyline clip-path="url(#clip892)" style="stroke:#ffffff; stroke-linecap:butt; stroke-linejoin:round; stroke-width:2; stroke-opacity:1; fill:none" points="
  1650.21,1422.18 1650.21,106.192 
  "/>
<polyline clip-path="url(#clip892)" style="stroke:#ffffff; stroke-linecap:butt; stroke-linejoin:round; stroke-width:2; stroke-opacity:1; fill:none" points="
  1793.88,1422.18 1793.88,106.192 
  "/>
<polyline clip-path="url(#clip892)" style="stroke:#ffffff; stroke-linecap:butt; stroke-linejoin:round; stroke-width:2; stroke-opacity:1; fill:none" points="
  1937.55,1422.18 1937.55,106.192 
  "/>
<polyline clip-path="url(#clip892)" style="stroke:#ffffff; stroke-linecap:butt; stroke-linejoin:round; stroke-width:2; stroke-opacity:1; fill:none" points="
  2081.22,1422.18 2081.22,106.192 
  "/>
<polyline clip-path="url(#clip892)" style="stroke:#ffffff; stroke-linecap:butt; stroke-linejoin:round; stroke-width:2; stroke-opacity:1; fill:none" points="
  2224.89,1422.18 2224.89,106.192 
  "/>
<polyline clip-path="url(#clip890)" style="stroke:#ffffff; stroke-linecap:butt; stroke-linejoin:round; stroke-width:4; stroke-opacity:1; fill:none" points="
  372.987,1422.18 2352.76,1422.18 
  "/>
<polyline clip-path="url(#clip890)" style="stroke:#333333; stroke-linecap:butt; stroke-linejoin:round; stroke-width:4; stroke-opacity:1; fill:none" points="
  429.018,1422.18 429.018,1441.07 
  "/>
<polyline clip-path="url(#clip890)" style="stroke:#333333; stroke-linecap:butt; stroke-linejoin:round; stroke-width:4; stroke-opacity:1; fill:none" points="
  572.688,1422.18 572.688,1441.07 
  "/>
<polyline clip-path="url(#clip890)" style="stroke:#333333; stroke-linecap:butt; stroke-linejoin:round; stroke-width:4; stroke-opacity:1; fill:none" points="
  716.358,1422.18 716.358,1441.07 
  "/>
<polyline clip-path="url(#clip890)" style="stroke:#333333; stroke-linecap:butt; stroke-linejoin:round; stroke-width:4; stroke-opacity:1; fill:none" points="
  860.027,1422.18 860.027,1441.07 
  "/>
<polyline clip-path="url(#clip890)" style="stroke:#333333; stroke-linecap:butt; stroke-linejoin:round; stroke-width:4; stroke-opacity:1; fill:none" points="
  1003.7,1422.18 1003.7,1441.07 
  "/>
<polyline clip-path="url(#clip890)" style="stroke:#333333; stroke-linecap:butt; stroke-linejoin:round; stroke-width:4; stroke-opacity:1; fill:none" points="
  1147.37,1422.18 1147.37,1441.07 
  "/>
<polyline clip-path="url(#clip890)" style="stroke:#333333; stroke-linecap:butt; stroke-linejoin:round; stroke-width:4; stroke-opacity:1; fill:none" points="
  1291.04,1422.18 1291.04,1441.07 
  "/>
<polyline clip-path="url(#clip890)" style="stroke:#333333; stroke-linecap:butt; stroke-linejoin:round; stroke-width:4; stroke-opacity:1; fill:none" points="
  1434.71,1422.18 1434.71,1441.07 
  "/>
<polyline clip-path="url(#clip890)" style="stroke:#333333; stroke-linecap:butt; stroke-linejoin:round; stroke-width:4; stroke-opacity:1; fill:none" points="
  1578.38,1422.18 1578.38,1441.07 
  "/>
<polyline clip-path="url(#clip890)" style="stroke:#333333; stroke-linecap:butt; stroke-linejoin:round; stroke-width:4; stroke-opacity:1; fill:none" points="
  1722.05,1422.18 1722.05,1441.07 
  "/>
<polyline clip-path="url(#clip890)" style="stroke:#333333; stroke-linecap:butt; stroke-linejoin:round; stroke-width:4; stroke-opacity:1; fill:none" points="
  1865.72,1422.18 1865.72,1441.07 
  "/>
<polyline clip-path="url(#clip890)" style="stroke:#333333; stroke-linecap:butt; stroke-linejoin:round; stroke-width:4; stroke-opacity:1; fill:none" points="
  2009.39,1422.18 2009.39,1441.07 
  "/>
<polyline clip-path="url(#clip890)" style="stroke:#333333; stroke-linecap:butt; stroke-linejoin:round; stroke-width:4; stroke-opacity:1; fill:none" points="
  2153.05,1422.18 2153.05,1441.07 
  "/>
<polyline clip-path="url(#clip890)" style="stroke:#333333; stroke-linecap:butt; stroke-linejoin:round; stroke-width:4; stroke-opacity:1; fill:none" points="
  2296.72,1422.18 2296.72,1441.07 
  "/>
<polyline clip-path="url(#clip890)" style="stroke:#333333; stroke-linecap:butt; stroke-linejoin:round; stroke-width:4; stroke-opacity:1; fill:none" points="
  500.853,1422.18 500.853,1431.63 
  "/>
<polyline clip-path="url(#clip890)" style="stroke:#333333; stroke-linecap:butt; stroke-linejoin:round; stroke-width:4; stroke-opacity:1; fill:none" points="
  644.523,1422.18 644.523,1431.63 
  "/>
<polyline clip-path="url(#clip890)" style="stroke:#333333; stroke-linecap:butt; stroke-linejoin:round; stroke-width:4; stroke-opacity:1; fill:none" points="
  788.193,1422.18 788.193,1431.63 
  "/>
<polyline clip-path="url(#clip890)" style="stroke:#333333; stroke-linecap:butt; stroke-linejoin:round; stroke-width:4; stroke-opacity:1; fill:none" points="
  931.862,1422.18 931.862,1431.63 
  "/>
<polyline clip-path="url(#clip890)" style="stroke:#333333; stroke-linecap:butt; stroke-linejoin:round; stroke-width:4; stroke-opacity:1; fill:none" points="
  1075.53,1422.18 1075.53,1431.63 
  "/>
<polyline clip-path="url(#clip890)" style="stroke:#333333; stroke-linecap:butt; stroke-linejoin:round; stroke-width:4; stroke-opacity:1; fill:none" points="
  1219.2,1422.18 1219.2,1431.63 
  "/>
<polyline clip-path="url(#clip890)" style="stroke:#333333; stroke-linecap:butt; stroke-linejoin:round; stroke-width:4; stroke-opacity:1; fill:none" points="
  1362.87,1422.18 1362.87,1431.63 
  "/>
<polyline clip-path="url(#clip890)" style="stroke:#333333; stroke-linecap:butt; stroke-linejoin:round; stroke-width:4; stroke-opacity:1; fill:none" points="
  1506.54,1422.18 1506.54,1431.63 
  "/>
<polyline clip-path="url(#clip890)" style="stroke:#333333; stroke-linecap:butt; stroke-linejoin:round; stroke-width:4; stroke-opacity:1; fill:none" points="
  1650.21,1422.18 1650.21,1431.63 
  "/>
<polyline clip-path="url(#clip890)" style="stroke:#333333; stroke-linecap:butt; stroke-linejoin:round; stroke-width:4; stroke-opacity:1; fill:none" points="
  1793.88,1422.18 1793.88,1431.63 
  "/>
<polyline clip-path="url(#clip890)" style="stroke:#333333; stroke-linecap:butt; stroke-linejoin:round; stroke-width:4; stroke-opacity:1; fill:none" points="
  1937.55,1422.18 1937.55,1431.63 
  "/>
<polyline clip-path="url(#clip890)" style="stroke:#333333; stroke-linecap:butt; stroke-linejoin:round; stroke-width:4; stroke-opacity:1; fill:none" points="
  2081.22,1422.18 2081.22,1431.63 
  "/>
<polyline clip-path="url(#clip890)" style="stroke:#333333; stroke-linecap:butt; stroke-linejoin:round; stroke-width:4; stroke-opacity:1; fill:none" points="
  2224.89,1422.18 2224.89,1431.63 
  "/>
<path clip-path="url(#clip890)" d="M442.721 1463.13 Q441.367 1460.78 438.366 1460.93 Q435.389 1461.09 430.758 1463.76 Q426.142 1466.43 424.504 1468.94 Q422.889 1471.45 424.243 1473.8 Q425.606 1476.16 428.584 1476 Q431.585 1475.85 436.201 1473.19 Q440.831 1470.52 442.446 1468 Q444.084 1465.49 442.721 1463.13 M445.127 1461.74 Q447.306 1465.51 445.46 1469.23 Q443.637 1472.94 437.954 1476.23 Q432.286 1479.5 428.139 1479.23 Q424.017 1478.96 421.838 1475.19 Q419.659 1471.41 421.481 1467.69 Q423.328 1463.98 428.996 1460.71 Q434.679 1457.43 438.802 1457.69 Q442.948 1457.97 445.127 1461.74 Z" fill="#4c4c4c" fill-rule="evenodd" fill-opacity="1" /><path clip-path="url(#clip890)" d="M564.272 1466.14 L567.137 1471.1 L584.262 1461.21 L580.063 1456.44 L582.829 1454.84 L587.011 1459.58 L588.764 1462.62 L568.873 1474.11 L571.737 1479.07 L569.181 1480.54 L561.716 1467.61 L564.272 1466.14 Z" fill="#4c4c4c" fill-rule="evenodd" fill-opacity="1" /><path clip-path="url(#clip890)" d="M596.921 1481.37 Q595.566 1479.02 592.565 1479.17 Q589.588 1479.33 584.957 1482 Q580.341 1484.66 578.703 1487.17 Q577.088 1489.69 578.443 1492.04 Q579.805 1494.4 582.783 1494.24 Q585.784 1494.09 590.4 1491.43 Q595.031 1488.75 596.645 1486.24 Q598.283 1483.73 596.921 1481.37 M599.326 1479.98 Q601.505 1483.75 599.659 1487.46 Q597.836 1491.18 592.153 1494.46 Q586.485 1497.74 582.338 1497.46 Q578.216 1497.2 576.037 1493.42 Q573.858 1489.65 575.681 1485.93 Q577.527 1482.22 583.195 1478.95 Q588.878 1475.67 593.001 1475.93 Q597.147 1476.2 599.326 1479.98 Z" fill="#4c4c4c" fill-rule="evenodd" fill-opacity="1" /><path clip-path="url(#clip890)" d="M709.799 1469.35 L715.919 1479.95 L713.363 1481.43 L705.134 1467.18 L707.69 1465.7 Q710.477 1466.4 715.203 1467.64 Q719.953 1468.89 721.267 1469.15 Q723.748 1469.66 725.206 1469.58 Q726.687 1469.51 727.785 1468.87 Q729.574 1467.84 729.972 1465.93 Q730.379 1464.03 729.216 1462.01 Q728.391 1460.59 726.975 1459.28 Q725.568 1457.99 723.519 1456.76 L726.586 1454.99 Q728.381 1456.4 729.677 1457.78 Q730.973 1459.15 731.737 1460.48 Q733.751 1463.97 733.205 1467.05 Q732.659 1470.13 729.742 1471.81 Q728.359 1472.61 726.807 1472.81 Q725.279 1473.01 722.805 1472.61 Q722.152 1472.49 718.899 1471.68 Q715.661 1470.86 709.799 1469.35 Z" fill="#4c4c4c" fill-rule="evenodd" fill-opacity="1" /><path clip-path="url(#clip890)" d="M741.241 1482.49 Q739.887 1480.15 736.886 1480.3 Q733.909 1480.45 729.278 1483.13 Q724.662 1485.79 723.024 1488.3 Q721.409 1490.82 722.763 1493.16 Q724.126 1495.52 727.104 1495.37 Q730.105 1495.22 734.721 1492.55 Q739.351 1489.88 740.966 1487.36 Q742.604 1484.86 741.241 1482.49 M743.647 1481.11 Q745.826 1484.88 743.98 1488.59 Q742.157 1492.31 736.474 1495.59 Q730.806 1498.86 726.659 1498.59 Q722.536 1498.33 720.358 1494.55 Q718.179 1490.78 720.001 1487.06 Q721.847 1483.35 727.516 1480.08 Q733.199 1476.79 737.322 1477.06 Q741.468 1477.33 743.647 1481.11 Z" fill="#4c4c4c" fill-rule="evenodd" fill-opacity="1" /><path clip-path="url(#clip890)" d="M866.766 1470.34 Q867.559 1472.79 866.789 1474.86 Q866.027 1476.94 863.862 1478.19 Q860.539 1480.11 857.401 1478.87 Q854.262 1477.64 851.831 1473.43 Q851.015 1472.01 850.433 1470.35 Q849.844 1468.7 849.48 1466.79 L852.412 1465.09 Q852.405 1466.78 852.897 1468.5 Q853.389 1470.22 854.335 1471.86 Q855.984 1474.72 857.971 1475.56 Q859.967 1476.41 862.117 1475.17 Q864.102 1474.02 864.407 1471.98 Q864.736 1469.95 863.304 1467.47 L861.793 1464.85 L864.289 1463.41 L865.869 1466.14 Q867.163 1468.38 868.735 1469.06 Q870.323 1469.73 872.007 1468.76 Q873.736 1467.76 873.941 1465.99 Q874.171 1464.24 872.851 1461.95 Q872.131 1460.71 871.035 1459.43 Q869.94 1458.16 868.379 1456.78 L871.085 1455.21 Q872.565 1456.67 873.673 1458.03 Q874.791 1459.41 875.563 1460.75 Q877.56 1464.21 877.144 1467.13 Q876.744 1470.05 874.068 1471.6 Q872.203 1472.67 870.294 1472.35 Q868.4 1472.02 866.766 1470.34 Z" fill="#4c4c4c" fill-rule="evenodd" fill-opacity="1" /><path clip-path="url(#clip890)" d="M884.859 1482.4 Q883.505 1480.06 880.504 1480.21 Q877.526 1480.36 872.895 1483.04 Q868.28 1485.7 866.641 1488.21 Q865.027 1490.73 866.381 1493.07 Q867.744 1495.43 870.721 1495.28 Q873.722 1495.13 878.338 1492.46 Q882.969 1489.79 884.584 1487.27 Q886.222 1484.76 884.859 1482.4 M887.265 1481.02 Q889.443 1484.79 887.597 1488.5 Q885.775 1492.22 880.092 1495.5 Q874.423 1498.77 870.277 1498.5 Q866.154 1498.24 863.975 1494.46 Q861.797 1490.69 863.619 1486.97 Q865.465 1483.26 871.133 1479.98 Q876.817 1476.7 880.939 1476.97 Q885.086 1477.24 887.265 1481.02 Z" fill="#4c4c4c" fill-rule="evenodd" fill-opacity="1" /><path clip-path="url(#clip890)" d="M1018.13 1465.88 L1001.72 1465.13 L1006.14 1472.8 L1018.13 1465.88 M1020.31 1463.55 L1022.52 1467.37 L1007.89 1475.82 L1009.74 1479.02 L1007.21 1480.48 L1005.36 1477.28 L1000.07 1480.33 L998.324 1477.31 L1003.62 1474.25 L997.766 1464.12 L1000.7 1462.43 L1020.31 1463.55 Z" fill="#4c4c4c" fill-rule="evenodd" fill-opacity="1" /><path clip-path="url(#clip890)" d="M1029.01 1483.25 Q1027.66 1480.9 1024.66 1481.05 Q1021.68 1481.21 1017.05 1483.88 Q1012.44 1486.54 1010.8 1489.05 Q1009.18 1491.57 1010.54 1493.91 Q1011.9 1496.28 1014.88 1496.12 Q1017.88 1495.97 1022.49 1493.31 Q1027.12 1490.63 1028.74 1488.12 Q1030.38 1485.61 1029.01 1483.25 M1031.42 1481.86 Q1033.6 1485.63 1031.75 1489.34 Q1029.93 1493.06 1024.25 1496.34 Q1018.58 1499.62 1014.43 1499.34 Q1010.31 1499.08 1008.13 1495.3 Q1005.95 1491.53 1007.77 1487.81 Q1009.62 1484.1 1015.29 1480.83 Q1020.97 1477.55 1025.1 1477.81 Q1029.24 1478.08 1031.42 1481.86 Z" fill="#4c4c4c" fill-rule="evenodd" fill-opacity="1" /><path clip-path="url(#clip890)" d="M1159.14 1455.16 L1166.02 1467.09 L1163.47 1468.56 L1158.19 1459.42 L1152.68 1462.6 Q1153.29 1463.13 1153.78 1463.73 Q1154.28 1464.32 1154.66 1464.98 Q1156.83 1468.74 1156.04 1472.13 Q1155.25 1475.51 1151.73 1477.54 Q1148.11 1479.63 1144.79 1478.54 Q1141.49 1477.44 1139.12 1473.34 Q1138.3 1471.92 1137.69 1470.31 Q1137.09 1468.71 1136.67 1466.87 L1139.72 1465.11 Q1139.77 1466.89 1140.24 1468.54 Q1140.71 1470.19 1141.64 1471.8 Q1143.14 1474.4 1145.39 1475.13 Q1147.63 1475.86 1149.98 1474.51 Q1152.32 1473.15 1152.81 1470.84 Q1153.31 1468.53 1151.8 1465.93 Q1151.1 1464.72 1150.13 1463.65 Q1149.16 1462.61 1147.86 1461.67 L1159.14 1455.16 Z" fill="#4c4c4c" fill-rule="evenodd" fill-opacity="1" /><path clip-path="url(#clip890)" d="M1172.18 1482.37 Q1170.83 1480.03 1167.83 1480.18 Q1164.85 1480.33 1160.22 1483.01 Q1155.6 1485.67 1153.96 1488.18 Q1152.35 1490.7 1153.7 1493.04 Q1155.07 1495.4 1158.04 1495.25 Q1161.04 1495.1 1165.66 1492.43 Q1170.29 1489.76 1171.91 1487.24 Q1173.54 1484.73 1172.18 1482.37 M1174.59 1480.99 Q1176.77 1484.76 1174.92 1488.47 Q1173.1 1492.19 1167.41 1495.47 Q1161.75 1498.74 1157.6 1498.47 Q1153.48 1498.21 1151.3 1494.43 Q1149.12 1490.66 1150.94 1486.94 Q1152.79 1483.23 1158.46 1479.95 Q1164.14 1476.67 1168.26 1476.94 Q1172.41 1477.21 1174.59 1480.99 Z" fill="#4c4c4c" fill-rule="evenodd" fill-opacity="1" /><path clip-path="url(#clip890)" d="M1296.87 1468.01 Q1295.69 1465.97 1293.6 1465.57 Q1291.52 1465.19 1289.08 1466.6 Q1286.66 1467.99 1285.93 1470 Q1285.23 1472.01 1286.41 1474.05 Q1287.59 1476.1 1289.67 1476.48 Q1291.78 1476.87 1294.2 1475.47 Q1296.64 1474.06 1297.34 1472.05 Q1298.05 1470.06 1296.87 1468.01 M1309.87 1468.55 L1307.11 1470.14 Q1306.99 1468.69 1306.6 1467.35 Q1306.21 1466.03 1305.55 1464.89 Q1303.82 1461.88 1300.87 1461.46 Q1297.93 1461.05 1293.69 1463.19 Q1295.51 1463.33 1296.98 1464.26 Q1298.45 1465.19 1299.38 1466.8 Q1301.34 1470.19 1300.41 1473.33 Q1299.5 1476.48 1295.96 1478.52 Q1292.51 1480.52 1289.24 1479.68 Q1285.97 1478.84 1284 1475.44 Q1281.76 1471.55 1283.54 1467.77 Q1285.35 1463.98 1291.01 1460.71 Q1296.34 1457.64 1300.95 1458.34 Q1305.58 1459.03 1308.04 1463.29 Q1308.7 1464.43 1309.14 1465.72 Q1309.59 1467.02 1309.87 1468.55 Z" fill="#4c4c4c" fill-rule="evenodd" fill-opacity="1" /><path clip-path="url(#clip890)" d="M1315.98 1482.6 Q1314.63 1480.25 1311.63 1480.4 Q1308.65 1480.56 1304.02 1483.23 Q1299.4 1485.9 1297.76 1488.41 Q1296.15 1490.92 1297.5 1493.27 Q1298.87 1495.63 1301.84 1495.47 Q1304.84 1495.32 1309.46 1492.66 Q1314.09 1489.99 1315.71 1487.47 Q1317.34 1484.96 1315.98 1482.6 M1318.39 1481.21 Q1320.57 1484.98 1318.72 1488.7 Q1316.9 1492.42 1311.21 1495.7 Q1305.55 1498.97 1301.4 1498.7 Q1297.28 1498.43 1295.1 1494.66 Q1292.92 1490.88 1294.74 1487.16 Q1296.59 1483.45 1302.26 1480.18 Q1307.94 1476.9 1312.06 1477.16 Q1316.21 1477.44 1318.39 1481.21 Z" fill="#4c4c4c" fill-rule="evenodd" fill-opacity="1" /><path clip-path="url(#clip890)" d="M1445.93 1454.22 L1454.26 1468.65 L1452.97 1469.4 L1427.11 1473.46 L1425.28 1470.29 L1449.6 1466.47 L1443.37 1455.69 L1445.93 1454.22 Z" fill="#4c4c4c" fill-rule="evenodd" fill-opacity="1" /><path clip-path="url(#clip890)" d="M1459.43 1482.22 Q1458.08 1479.88 1455.08 1480.03 Q1452.1 1480.18 1447.47 1482.86 Q1442.85 1485.52 1441.22 1488.03 Q1439.6 1490.55 1440.96 1492.89 Q1442.32 1495.25 1445.3 1495.1 Q1448.3 1494.95 1452.91 1492.28 Q1457.54 1489.61 1459.16 1487.09 Q1460.8 1484.58 1459.43 1482.22 M1461.84 1480.84 Q1464.02 1484.61 1462.17 1488.32 Q1460.35 1492.04 1454.67 1495.32 Q1449 1498.59 1444.85 1498.32 Q1440.73 1498.06 1438.55 1494.28 Q1436.37 1490.51 1438.19 1486.79 Q1440.04 1483.08 1445.71 1479.8 Q1451.39 1476.52 1455.51 1476.79 Q1459.66 1477.06 1461.84 1480.84 Z" fill="#4c4c4c" fill-rule="evenodd" fill-opacity="1" /><path clip-path="url(#clip890)" d="M1582.26 1468.72 Q1581.01 1466.56 1579.13 1465.98 Q1577.26 1465.41 1575.23 1466.58 Q1573.2 1467.76 1572.75 1469.66 Q1572.32 1471.57 1573.57 1473.74 Q1574.82 1475.9 1576.69 1476.48 Q1578.59 1477.05 1580.6 1475.89 Q1582.63 1474.72 1583.07 1472.8 Q1583.52 1470.9 1582.26 1468.72 M1581.8 1464.94 Q1581.15 1462.7 1581.85 1460.83 Q1582.57 1458.98 1584.49 1457.87 Q1587.18 1456.31 1589.85 1457.32 Q1592.52 1458.34 1594.45 1461.68 Q1596.39 1465.03 1595.92 1467.85 Q1595.46 1470.66 1592.77 1472.21 Q1590.85 1473.32 1588.88 1473 Q1586.91 1472.69 1585.31 1471.03 Q1586.07 1473.52 1585.28 1475.59 Q1584.51 1477.69 1582.36 1478.93 Q1579.09 1480.81 1576.19 1479.82 Q1573.3 1478.84 1571.16 1475.13 Q1569.02 1471.41 1569.61 1468.41 Q1570.2 1465.41 1573.47 1463.53 Q1575.62 1462.29 1577.82 1462.66 Q1580.02 1463.04 1581.8 1464.94 M1585.95 1461.06 Q1584.21 1462.06 1583.85 1463.71 Q1583.51 1465.37 1584.65 1467.34 Q1585.78 1469.29 1587.39 1469.83 Q1589.01 1470.38 1590.75 1469.37 Q1592.49 1468.36 1592.83 1466.69 Q1593.17 1465.02 1592.04 1463.07 Q1590.91 1461.1 1589.3 1460.57 Q1587.69 1460.05 1585.95 1461.06 Z" fill="#4c4c4c" fill-rule="evenodd" fill-opacity="1" /><path clip-path="url(#clip890)" d="M1603.36 1482.66 Q1602 1480.31 1599 1480.46 Q1596.02 1480.62 1591.39 1483.29 Q1586.78 1485.96 1585.14 1488.47 Q1583.52 1490.98 1584.88 1493.33 Q1586.24 1495.69 1589.22 1495.53 Q1592.22 1495.38 1596.83 1492.72 Q1601.47 1490.05 1603.08 1487.53 Q1604.72 1485.02 1603.36 1482.66 M1605.76 1481.27 Q1607.94 1485.04 1606.09 1488.76 Q1604.27 1492.48 1598.59 1495.76 Q1592.92 1499.03 1588.77 1498.76 Q1584.65 1498.49 1582.47 1494.72 Q1580.29 1490.94 1582.12 1487.23 Q1583.96 1483.51 1589.63 1480.24 Q1595.31 1476.96 1599.44 1477.23 Q1603.58 1477.5 1605.76 1481.27 Z" fill="#4c4c4c" fill-rule="evenodd" fill-opacity="1" /><path clip-path="url(#clip890)" d="M1712.12 1468.35 L1714.89 1466.75 Q1715.01 1468.21 1715.4 1469.55 Q1715.79 1470.88 1716.44 1472.01 Q1718.18 1475.02 1721.1 1475.43 Q1724.05 1475.86 1728.3 1473.7 Q1726.51 1473.58 1725.04 1472.64 Q1723.58 1471.7 1722.64 1470.08 Q1720.7 1466.71 1721.59 1463.57 Q1722.5 1460.43 1726.04 1458.39 Q1729.5 1456.4 1732.77 1457.23 Q1736.04 1458.07 1738 1461.47 Q1740.25 1465.36 1738.44 1469.14 Q1736.65 1472.91 1730.96 1476.2 Q1725.66 1479.26 1721.03 1478.57 Q1716.42 1477.88 1713.96 1473.62 Q1713.3 1472.48 1712.85 1471.18 Q1712.4 1469.87 1712.12 1468.35 M1725.13 1468.9 Q1726.31 1470.95 1728.39 1471.33 Q1730.49 1471.72 1732.92 1470.32 Q1735.34 1468.92 1736.05 1466.91 Q1736.77 1464.9 1735.59 1462.86 Q1734.41 1460.81 1732.3 1460.43 Q1730.22 1460.05 1727.8 1461.44 Q1725.36 1462.85 1724.65 1464.85 Q1723.95 1466.86 1725.13 1468.9 Z" fill="#4c4c4c" fill-rule="evenodd" fill-opacity="1" /><path clip-path="url(#clip890)" d="M1747.11 1482.81 Q1745.76 1480.46 1742.76 1480.61 Q1739.78 1480.77 1735.15 1483.44 Q1730.53 1486.11 1728.89 1488.62 Q1727.28 1491.13 1728.63 1493.48 Q1730 1495.84 1732.97 1495.68 Q1735.98 1495.53 1740.59 1492.87 Q1745.22 1490.2 1746.84 1487.68 Q1748.47 1485.17 1747.11 1482.81 M1749.52 1481.42 Q1751.7 1485.2 1749.85 1488.91 Q1748.03 1492.63 1742.34 1495.91 Q1736.68 1499.18 1732.53 1498.91 Q1728.41 1498.64 1726.23 1494.87 Q1724.05 1491.09 1725.87 1487.38 Q1727.72 1483.66 1733.39 1480.39 Q1739.07 1477.11 1743.19 1477.38 Q1747.34 1477.65 1749.52 1481.42 Z" fill="#4c4c4c" fill-rule="evenodd" fill-opacity="1" /><path clip-path="url(#clip890)" d="M1857.3 1466.14 L1860.16 1471.1 L1877.29 1461.21 L1873.09 1456.44 L1875.86 1454.84 L1880.04 1459.58 L1881.79 1462.62 L1861.9 1474.11 L1864.76 1479.07 L1862.21 1480.54 L1854.74 1467.61 L1857.3 1466.14 Z" fill="#4c4c4c" fill-rule="evenodd" fill-opacity="1" /><path clip-path="url(#clip890)" d="M1889.95 1481.37 Q1888.59 1479.02 1885.59 1479.17 Q1882.62 1479.33 1877.98 1482 Q1873.37 1484.66 1871.73 1487.17 Q1870.12 1489.69 1871.47 1492.04 Q1872.83 1494.4 1875.81 1494.24 Q1878.81 1494.09 1883.43 1491.43 Q1888.06 1488.75 1889.67 1486.24 Q1891.31 1483.73 1889.95 1481.37 M1892.35 1479.98 Q1894.53 1483.75 1892.69 1487.46 Q1890.86 1491.18 1885.18 1494.46 Q1879.51 1497.74 1875.37 1497.46 Q1871.24 1497.2 1869.06 1493.42 Q1866.89 1489.65 1868.71 1485.93 Q1870.55 1482.22 1876.22 1478.95 Q1881.91 1475.67 1886.03 1475.93 Q1890.17 1476.2 1892.35 1479.98 Z" fill="#4c4c4c" fill-rule="evenodd" fill-opacity="1" /><path clip-path="url(#clip890)" d="M1901.26 1500.96 Q1899.9 1498.61 1896.9 1498.76 Q1893.93 1498.92 1889.3 1501.59 Q1884.68 1504.26 1883.04 1506.76 Q1881.43 1509.28 1882.78 1511.63 Q1884.14 1513.99 1887.12 1513.83 Q1890.12 1513.68 1894.74 1511.02 Q1899.37 1508.34 1900.98 1505.83 Q1902.62 1503.32 1901.26 1500.96 M1903.66 1499.57 Q1905.84 1503.34 1904 1507.05 Q1902.17 1510.77 1896.49 1514.05 Q1890.82 1517.33 1886.68 1517.05 Q1882.55 1516.79 1880.38 1513.01 Q1878.2 1509.24 1880.02 1505.52 Q1881.86 1501.81 1887.53 1498.54 Q1893.22 1495.26 1897.34 1495.52 Q1901.49 1495.8 1903.66 1499.57 Z" fill="#4c4c4c" fill-rule="evenodd" fill-opacity="1" /><path clip-path="url(#clip890)" d="M2000.97 1466.14 L2003.83 1471.1 L2020.96 1461.21 L2016.76 1456.44 L2019.53 1454.84 L2023.71 1459.58 L2025.46 1462.62 L2005.57 1474.11 L2008.43 1479.07 L2005.88 1480.54 L1998.41 1467.61 L2000.97 1466.14 Z" fill="#4c4c4c" fill-rule="evenodd" fill-opacity="1" /><path clip-path="url(#clip890)" d="M2012.28 1485.73 L2015.14 1490.69 L2032.27 1480.8 L2028.07 1476.03 L2030.84 1474.43 L2035.02 1479.18 L2036.77 1482.21 L2016.88 1493.7 L2019.75 1498.66 L2017.19 1500.13 L2009.72 1487.2 L2012.28 1485.73 Z" fill="#4c4c4c" fill-rule="evenodd" fill-opacity="1" /><path clip-path="url(#clip890)" d="M2044.93 1500.96 Q2043.57 1498.61 2040.57 1498.76 Q2037.6 1498.92 2032.97 1501.59 Q2028.35 1504.26 2026.71 1506.76 Q2025.1 1509.28 2026.45 1511.63 Q2027.81 1513.99 2030.79 1513.83 Q2033.79 1513.68 2038.41 1511.02 Q2043.04 1508.34 2044.65 1505.83 Q2046.29 1503.32 2044.93 1500.96 M2047.33 1499.57 Q2049.51 1503.34 2047.67 1507.05 Q2045.84 1510.77 2040.16 1514.05 Q2034.49 1517.33 2030.35 1517.05 Q2026.22 1516.79 2024.04 1513.01 Q2021.87 1509.24 2023.69 1505.52 Q2025.53 1501.81 2031.2 1498.54 Q2036.89 1495.26 2041.01 1495.52 Q2045.16 1495.8 2047.33 1499.57 Z" fill="#4c4c4c" fill-rule="evenodd" fill-opacity="1" /><path clip-path="url(#clip890)" d="M2144.64 1466.14 L2147.5 1471.1 L2164.63 1461.21 L2160.43 1456.44 L2163.2 1454.84 L2167.38 1459.58 L2169.13 1462.62 L2149.24 1474.11 L2152.1 1479.07 L2149.55 1480.54 L2142.08 1467.61 L2144.64 1466.14 Z" fill="#4c4c4c" fill-rule="evenodd" fill-opacity="1" /><path clip-path="url(#clip890)" d="M2157.16 1487.82 L2163.28 1498.42 L2160.72 1499.89 L2152.49 1485.64 L2155.05 1484.16 Q2157.83 1484.86 2162.56 1486.1 Q2167.31 1487.35 2168.62 1487.61 Q2171.11 1488.12 2172.56 1488.04 Q2174.04 1487.97 2175.14 1487.34 Q2176.93 1486.3 2177.33 1484.39 Q2177.74 1482.49 2176.57 1480.48 Q2175.75 1479.05 2174.33 1477.74 Q2172.92 1476.45 2170.88 1475.23 L2173.94 1473.46 Q2175.74 1474.86 2177.03 1476.24 Q2178.33 1477.62 2179.09 1478.94 Q2181.11 1482.43 2180.56 1485.51 Q2180.02 1488.59 2177.1 1490.28 Q2175.72 1491.08 2174.16 1491.27 Q2172.64 1491.47 2170.16 1491.07 Q2169.51 1490.95 2166.26 1490.14 Q2163.02 1489.32 2157.16 1487.82 Z" fill="#4c4c4c" fill-rule="evenodd" fill-opacity="1" /><path clip-path="url(#clip890)" d="M2188.6 1500.96 Q2187.24 1498.61 2184.24 1498.76 Q2181.27 1498.92 2176.63 1501.59 Q2172.02 1504.26 2170.38 1506.76 Q2168.77 1509.28 2170.12 1511.63 Q2171.48 1513.99 2174.46 1513.83 Q2177.46 1513.68 2182.08 1511.02 Q2186.71 1508.34 2188.32 1505.83 Q2189.96 1503.32 2188.6 1500.96 M2191 1499.57 Q2193.18 1503.34 2191.34 1507.05 Q2189.51 1510.77 2183.83 1514.05 Q2178.16 1517.33 2174.02 1517.05 Q2169.89 1516.79 2167.71 1513.01 Q2165.54 1509.24 2167.36 1505.52 Q2169.2 1501.81 2174.87 1498.54 Q2180.56 1495.26 2184.68 1495.52 Q2188.83 1495.8 2191 1499.57 Z" fill="#4c4c4c" fill-rule="evenodd" fill-opacity="1" /><path clip-path="url(#clip890)" d="M2288.31 1466.14 L2291.17 1471.1 L2308.3 1461.21 L2304.1 1456.44 L2306.87 1454.84 L2311.05 1459.58 L2312.8 1462.62 L2292.91 1474.11 L2295.77 1479.07 L2293.22 1480.54 L2285.75 1467.61 L2288.31 1466.14 Z" fill="#4c4c4c" fill-rule="evenodd" fill-opacity="1" /><path clip-path="url(#clip890)" d="M2314.18 1488.89 Q2314.97 1491.34 2314.2 1493.41 Q2313.44 1495.49 2311.27 1496.74 Q2307.95 1498.66 2304.81 1497.43 Q2301.67 1496.19 2299.24 1491.98 Q2298.42 1490.57 2297.84 1488.9 Q2297.25 1487.25 2296.89 1485.34 L2299.82 1483.65 Q2299.81 1485.34 2300.31 1487.06 Q2300.8 1488.78 2301.74 1490.41 Q2303.39 1493.27 2305.38 1494.11 Q2307.38 1494.96 2309.53 1493.72 Q2311.51 1492.57 2311.82 1490.53 Q2312.15 1488.5 2310.71 1486.02 L2309.2 1483.4 L2311.7 1481.96 L2313.28 1484.7 Q2314.57 1486.94 2316.14 1487.61 Q2317.73 1488.28 2319.42 1487.31 Q2321.15 1486.31 2321.35 1484.55 Q2321.58 1482.79 2320.26 1480.51 Q2319.54 1479.26 2318.44 1477.99 Q2317.35 1476.71 2315.79 1475.33 L2318.49 1473.77 Q2319.97 1475.22 2321.08 1476.58 Q2322.2 1477.96 2322.97 1479.3 Q2324.97 1482.76 2324.55 1485.69 Q2324.15 1488.6 2321.48 1490.15 Q2319.61 1491.22 2317.7 1490.9 Q2315.81 1490.57 2314.18 1488.89 Z" fill="#4c4c4c" fill-rule="evenodd" fill-opacity="1" /><path clip-path="url(#clip890)" d="M2332.27 1500.96 Q2330.91 1498.61 2327.91 1498.76 Q2324.94 1498.92 2320.3 1501.59 Q2315.69 1504.26 2314.05 1506.76 Q2312.44 1509.28 2313.79 1511.63 Q2315.15 1513.99 2318.13 1513.83 Q2321.13 1513.68 2325.75 1511.02 Q2330.38 1508.34 2331.99 1505.83 Q2333.63 1503.32 2332.27 1500.96 M2334.67 1499.57 Q2336.85 1503.34 2335.01 1507.05 Q2333.18 1510.77 2327.5 1514.05 Q2321.83 1517.33 2317.69 1517.05 Q2313.56 1516.79 2311.38 1513.01 Q2309.21 1509.24 2311.03 1505.52 Q2312.87 1501.81 2318.54 1498.54 Q2324.23 1495.26 2328.35 1495.52 Q2332.49 1495.8 2334.67 1499.57 Z" fill="#4c4c4c" fill-rule="evenodd" fill-opacity="1" /><path clip-path="url(#clip890)" d="M1253.46 1537.87 L1258.14 1537.87 L1258.14 1572.43 L1253.46 1572.43 L1253.46 1537.87 Z" fill="#000000" fill-rule="evenodd" fill-opacity="1" /><path clip-path="url(#clip890)" d="M1271.47 1539.15 L1271.47 1546.51 L1280.24 1546.51 L1280.24 1549.82 L1271.47 1549.82 L1271.47 1563.89 Q1271.47 1567.06 1272.33 1567.97 Q1273.21 1568.87 1275.87 1568.87 L1280.24 1568.87 L1280.24 1572.43 L1275.87 1572.43 Q1270.94 1572.43 1269.06 1570.6 Q1267.19 1568.75 1267.19 1563.89 L1267.19 1549.82 L1264.06 1549.82 L1264.06 1546.51 L1267.19 1546.51 L1267.19 1539.15 L1271.47 1539.15 Z" fill="#000000" fill-rule="evenodd" fill-opacity="1" /><path clip-path="url(#clip890)" d="M1308.02 1558.41 L1308.02 1560.49 L1288.44 1560.49 Q1288.72 1564.89 1291.08 1567.2 Q1293.46 1569.49 1297.7 1569.49 Q1300.15 1569.49 1302.44 1568.89 Q1304.76 1568.29 1307.03 1567.09 L1307.03 1571.11 Q1304.74 1572.09 1302.33 1572.6 Q1299.92 1573.1 1297.44 1573.1 Q1291.24 1573.1 1287.61 1569.49 Q1283.99 1565.88 1283.99 1559.73 Q1283.99 1553.36 1287.42 1549.63 Q1290.87 1545.88 1296.7 1545.88 Q1301.93 1545.88 1304.97 1549.26 Q1308.02 1552.62 1308.02 1558.41 M1303.76 1557.16 Q1303.72 1553.66 1301.8 1551.58 Q1299.9 1549.49 1296.75 1549.49 Q1293.18 1549.49 1291.03 1551.51 Q1288.9 1553.52 1288.58 1557.18 L1303.76 1557.16 Z" fill="#000000" fill-rule="evenodd" fill-opacity="1" /><path clip-path="url(#clip890)" d="M1330.04 1550.49 Q1329.32 1550.07 1328.46 1549.89 Q1327.63 1549.68 1326.61 1549.68 Q1323 1549.68 1321.05 1552.04 Q1319.13 1554.38 1319.13 1558.78 L1319.13 1572.43 L1314.85 1572.43 L1314.85 1546.51 L1319.13 1546.51 L1319.13 1550.54 Q1320.48 1548.17 1322.63 1547.04 Q1324.78 1545.88 1327.86 1545.88 Q1328.3 1545.88 1328.83 1545.95 Q1329.36 1546 1330.01 1546.11 L1330.04 1550.49 Z" fill="#000000" fill-rule="evenodd" fill-opacity="1" /><path clip-path="url(#clip890)" d="M1346.29 1559.4 Q1341.12 1559.4 1339.13 1560.58 Q1337.14 1561.76 1337.14 1564.61 Q1337.14 1566.88 1338.62 1568.22 Q1340.13 1569.54 1342.7 1569.54 Q1346.24 1569.54 1348.37 1567.04 Q1350.52 1564.52 1350.52 1560.35 L1350.52 1559.4 L1346.29 1559.4 M1354.78 1557.64 L1354.78 1572.43 L1350.52 1572.43 L1350.52 1568.5 Q1349.06 1570.86 1346.89 1571.99 Q1344.71 1573.1 1341.56 1573.1 Q1337.58 1573.1 1335.22 1570.88 Q1332.88 1568.64 1332.88 1564.89 Q1332.88 1560.51 1335.8 1558.29 Q1338.74 1556.07 1344.55 1556.07 L1350.52 1556.07 L1350.52 1555.65 Q1350.52 1552.71 1348.58 1551.11 Q1346.66 1549.49 1343.16 1549.49 Q1340.94 1549.49 1338.83 1550.03 Q1336.73 1550.56 1334.78 1551.62 L1334.78 1547.69 Q1337.12 1546.79 1339.32 1546.35 Q1341.52 1545.88 1343.6 1545.88 Q1349.23 1545.88 1352 1548.8 Q1354.78 1551.72 1354.78 1557.64 Z" fill="#000000" fill-rule="evenodd" fill-opacity="1" /><path clip-path="url(#clip890)" d="M1367.77 1539.15 L1367.77 1546.51 L1376.54 1546.51 L1376.54 1549.82 L1367.77 1549.82 L1367.77 1563.89 Q1367.77 1567.06 1368.62 1567.97 Q1369.5 1568.87 1372.17 1568.87 L1376.54 1568.87 L1376.54 1572.43 L1372.17 1572.43 Q1367.23 1572.43 1365.36 1570.6 Q1363.48 1568.75 1363.48 1563.89 L1363.48 1549.82 L1360.36 1549.82 L1360.36 1546.51 L1363.48 1546.51 L1363.48 1539.15 L1367.77 1539.15 Z" fill="#000000" fill-rule="evenodd" fill-opacity="1" /><path clip-path="url(#clip890)" d="M1382.14 1546.51 L1386.4 1546.51 L1386.4 1572.43 L1382.14 1572.43 L1382.14 1546.51 M1382.14 1536.42 L1386.4 1536.42 L1386.4 1541.81 L1382.14 1541.81 L1382.14 1536.42 Z" fill="#000000" fill-rule="evenodd" fill-opacity="1" /><path clip-path="url(#clip890)" d="M1405.36 1549.49 Q1401.93 1549.49 1399.94 1552.18 Q1397.95 1554.84 1397.95 1559.49 Q1397.95 1564.15 1399.92 1566.83 Q1401.91 1569.49 1405.36 1569.49 Q1408.76 1569.49 1410.75 1566.81 Q1412.74 1564.12 1412.74 1559.49 Q1412.74 1554.89 1410.75 1552.2 Q1408.76 1549.49 1405.36 1549.49 M1405.36 1545.88 Q1410.92 1545.88 1414.09 1549.49 Q1417.26 1553.1 1417.26 1559.49 Q1417.26 1565.86 1414.09 1569.49 Q1410.92 1573.1 1405.36 1573.1 Q1399.78 1573.1 1396.61 1569.49 Q1393.46 1565.86 1393.46 1559.49 Q1393.46 1553.1 1396.61 1549.49 Q1399.78 1545.88 1405.36 1545.88 Z" fill="#000000" fill-rule="evenodd" fill-opacity="1" /><path clip-path="url(#clip890)" d="M1445.87 1556.79 L1445.87 1572.43 L1441.61 1572.43 L1441.61 1556.92 Q1441.61 1553.24 1440.17 1551.41 Q1438.74 1549.59 1435.87 1549.59 Q1432.42 1549.59 1430.43 1551.79 Q1428.44 1553.98 1428.44 1557.78 L1428.44 1572.43 L1424.16 1572.43 L1424.16 1546.51 L1428.44 1546.51 L1428.44 1550.54 Q1429.97 1548.2 1432.03 1547.04 Q1434.11 1545.88 1436.82 1545.88 Q1441.29 1545.88 1443.58 1548.66 Q1445.87 1551.41 1445.87 1556.79 Z" fill="#000000" fill-rule="evenodd" fill-opacity="1" /><path clip-path="url(#clip890)" d="M1470.89 1547.27 L1470.89 1551.3 Q1469.09 1550.37 1467.14 1549.91 Q1465.2 1549.45 1463.11 1549.45 Q1459.94 1549.45 1458.35 1550.42 Q1456.77 1551.39 1456.77 1553.34 Q1456.77 1554.82 1457.91 1555.67 Q1459.04 1556.51 1462.47 1557.27 L1463.92 1557.6 Q1468.46 1558.57 1470.36 1560.35 Q1472.28 1562.11 1472.28 1565.28 Q1472.28 1568.89 1469.41 1571 Q1466.56 1573.1 1461.56 1573.1 Q1459.48 1573.1 1457.21 1572.69 Q1454.97 1572.29 1452.47 1571.48 L1452.47 1567.09 Q1454.83 1568.31 1457.12 1568.94 Q1459.41 1569.54 1461.66 1569.54 Q1464.66 1569.54 1466.29 1568.52 Q1467.91 1567.48 1467.91 1565.6 Q1467.91 1563.87 1466.73 1562.94 Q1465.57 1562.02 1461.61 1561.16 L1460.13 1560.81 Q1456.17 1559.98 1454.41 1558.27 Q1452.65 1556.53 1452.65 1553.52 Q1452.65 1549.86 1455.24 1547.87 Q1457.84 1545.88 1462.6 1545.88 Q1464.97 1545.88 1467.05 1546.23 Q1469.13 1546.58 1470.89 1547.27 Z" fill="#000000" fill-rule="evenodd" fill-opacity="1" /><polyline clip-path="url(#clip892)" style="stroke:#ffffff; stroke-linecap:butt; stroke-linejoin:round; stroke-width:4; stroke-opacity:1; fill:none" points="
  372.987,1418.89 2352.76,1418.89 
  "/>
<polyline clip-path="url(#clip892)" style="stroke:#ffffff; stroke-linecap:butt; stroke-linejoin:round; stroke-width:4; stroke-opacity:1; fill:none" points="
  372.987,1193.71 2352.76,1193.71 
  "/>
<polyline clip-path="url(#clip892)" style="stroke:#ffffff; stroke-linecap:butt; stroke-linejoin:round; stroke-width:4; stroke-opacity:1; fill:none" points="
  372.987,968.521 2352.76,968.521 
  "/>
<polyline clip-path="url(#clip892)" style="stroke:#ffffff; stroke-linecap:butt; stroke-linejoin:round; stroke-width:4; stroke-opacity:1; fill:none" points="
  372.987,743.334 2352.76,743.334 
  "/>
<polyline clip-path="url(#clip892)" style="stroke:#ffffff; stroke-linecap:butt; stroke-linejoin:round; stroke-width:4; stroke-opacity:1; fill:none" points="
  372.987,518.148 2352.76,518.148 
  "/>
<polyline clip-path="url(#clip892)" style="stroke:#ffffff; stroke-linecap:butt; stroke-linejoin:round; stroke-width:4; stroke-opacity:1; fill:none" points="
  372.987,292.961 2352.76,292.961 
  "/>
<polyline clip-path="url(#clip892)" style="stroke:#ffffff; stroke-linecap:butt; stroke-linejoin:round; stroke-width:2; stroke-opacity:1; fill:none" points="
  372.987,1306.3 2352.76,1306.3 
  "/>
<polyline clip-path="url(#clip892)" style="stroke:#ffffff; stroke-linecap:butt; stroke-linejoin:round; stroke-width:2; stroke-opacity:1; fill:none" points="
  372.987,1081.11 2352.76,1081.11 
  "/>
<polyline clip-path="url(#clip892)" style="stroke:#ffffff; stroke-linecap:butt; stroke-linejoin:round; stroke-width:2; stroke-opacity:1; fill:none" points="
  372.987,855.928 2352.76,855.928 
  "/>
<polyline clip-path="url(#clip892)" style="stroke:#ffffff; stroke-linecap:butt; stroke-linejoin:round; stroke-width:2; stroke-opacity:1; fill:none" points="
  372.987,630.741 2352.76,630.741 
  "/>
<polyline clip-path="url(#clip892)" style="stroke:#ffffff; stroke-linecap:butt; stroke-linejoin:round; stroke-width:2; stroke-opacity:1; fill:none" points="
  372.987,405.554 2352.76,405.554 
  "/>
<polyline clip-path="url(#clip892)" style="stroke:#ffffff; stroke-linecap:butt; stroke-linejoin:round; stroke-width:2; stroke-opacity:1; fill:none" points="
  372.987,180.368 2352.76,180.368 
  "/>
<polyline clip-path="url(#clip890)" style="stroke:#ffffff; stroke-linecap:butt; stroke-linejoin:round; stroke-width:4; stroke-opacity:1; fill:none" points="
  372.987,1422.18 372.987,106.192 
  "/>
<polyline clip-path="url(#clip890)" style="stroke:#333333; stroke-linecap:butt; stroke-linejoin:round; stroke-width:4; stroke-opacity:1; fill:none" points="
  372.987,1418.89 354.089,1418.89 
  "/>
<polyline clip-path="url(#clip890)" style="stroke:#333333; stroke-linecap:butt; stroke-linejoin:round; stroke-width:4; stroke-opacity:1; fill:none" points="
  372.987,1193.71 354.089,1193.71 
  "/>
<polyline clip-path="url(#clip890)" style="stroke:#333333; stroke-linecap:butt; stroke-linejoin:round; stroke-width:4; stroke-opacity:1; fill:none" points="
  372.987,968.521 354.089,968.521 
  "/>
<polyline clip-path="url(#clip890)" style="stroke:#333333; stroke-linecap:butt; stroke-linejoin:round; stroke-width:4; stroke-opacity:1; fill:none" points="
  372.987,743.334 354.089,743.334 
  "/>
<polyline clip-path="url(#clip890)" style="stroke:#333333; stroke-linecap:butt; stroke-linejoin:round; stroke-width:4; stroke-opacity:1; fill:none" points="
  372.987,518.148 354.089,518.148 
  "/>
<polyline clip-path="url(#clip890)" style="stroke:#333333; stroke-linecap:butt; stroke-linejoin:round; stroke-width:4; stroke-opacity:1; fill:none" points="
  372.987,292.961 354.089,292.961 
  "/>
<polyline clip-path="url(#clip890)" style="stroke:#333333; stroke-linecap:butt; stroke-linejoin:round; stroke-width:4; stroke-opacity:1; fill:none" points="
  372.987,1306.3 363.538,1306.3 
  "/>
<polyline clip-path="url(#clip890)" style="stroke:#333333; stroke-linecap:butt; stroke-linejoin:round; stroke-width:4; stroke-opacity:1; fill:none" points="
  372.987,1081.11 363.538,1081.11 
  "/>
<polyline clip-path="url(#clip890)" style="stroke:#333333; stroke-linecap:butt; stroke-linejoin:round; stroke-width:4; stroke-opacity:1; fill:none" points="
  372.987,855.928 363.538,855.928 
  "/>
<polyline clip-path="url(#clip890)" style="stroke:#333333; stroke-linecap:butt; stroke-linejoin:round; stroke-width:4; stroke-opacity:1; fill:none" points="
  372.987,630.741 363.538,630.741 
  "/>
<polyline clip-path="url(#clip890)" style="stroke:#333333; stroke-linecap:butt; stroke-linejoin:round; stroke-width:4; stroke-opacity:1; fill:none" points="
  372.987,405.554 363.538,405.554 
  "/>
<polyline clip-path="url(#clip890)" style="stroke:#333333; stroke-linecap:butt; stroke-linejoin:round; stroke-width:4; stroke-opacity:1; fill:none" points="
  372.987,180.368 363.538,180.368 
  "/>
<path clip-path="url(#clip890)" d="M194.283 1419.23 L216.54 1419.23 L216.54 1422.18 L194.283 1422.18 L194.283 1419.23 Z" fill="#4c4c4c" fill-rule="evenodd" fill-opacity="1" /><path clip-path="url(#clip890)" d="M227.13 1428.9 L239.369 1428.9 L239.369 1431.85 L222.911 1431.85 L222.911 1428.9 Q224.908 1426.84 228.345 1423.36 Q231.8 1419.88 232.685 1418.87 Q234.369 1416.98 235.029 1415.67 Q235.706 1414.35 235.706 1413.09 Q235.706 1411.02 234.248 1409.72 Q232.807 1408.42 230.481 1408.42 Q228.831 1408.42 226.991 1408.99 Q225.168 1409.56 223.085 1410.73 L223.085 1407.18 Q225.203 1406.33 227.043 1405.9 Q228.883 1405.47 230.411 1405.47 Q234.439 1405.47 236.835 1407.48 Q239.231 1409.49 239.231 1412.86 Q239.231 1414.46 238.623 1415.9 Q238.033 1417.32 236.453 1419.27 Q236.019 1419.77 233.692 1422.18 Q231.366 1424.58 227.13 1428.9 Z" fill="#4c4c4c" fill-rule="evenodd" fill-opacity="1" /><path clip-path="url(#clip890)" d="M254.665 1417.5 Q252.303 1417.5 250.915 1419.11 Q249.543 1420.73 249.543 1423.54 Q249.543 1426.33 250.915 1427.97 Q252.303 1429.58 254.665 1429.58 Q257.026 1429.58 258.397 1427.97 Q259.786 1426.33 259.786 1423.54 Q259.786 1420.73 258.397 1419.11 Q257.026 1417.5 254.665 1417.5 M261.626 1406.51 L261.626 1409.7 Q260.307 1409.08 258.953 1408.75 Q257.616 1408.42 256.296 1408.42 Q252.824 1408.42 250.984 1410.76 Q249.161 1413.1 248.901 1417.84 Q249.925 1416.33 251.47 1415.54 Q253.015 1414.72 254.873 1414.72 Q258.779 1414.72 261.036 1417.1 Q263.31 1419.46 263.31 1423.54 Q263.31 1427.53 260.949 1429.94 Q258.588 1432.36 254.665 1432.36 Q250.168 1432.36 247.79 1428.92 Q245.411 1425.47 245.411 1418.92 Q245.411 1412.77 248.328 1409.13 Q251.244 1405.47 256.158 1405.47 Q257.477 1405.47 258.814 1405.73 Q260.168 1405.99 261.626 1406.51 Z" fill="#4c4c4c" fill-rule="evenodd" fill-opacity="1" /><path clip-path="url(#clip890)" d="M272.373 1428.9 L284.612 1428.9 L284.612 1431.85 L268.154 1431.85 L268.154 1428.9 Q270.151 1426.84 273.588 1423.36 Q277.043 1419.88 277.928 1418.87 Q279.612 1416.98 280.272 1415.67 Q280.949 1414.35 280.949 1413.09 Q280.949 1411.02 279.491 1409.72 Q278.05 1408.42 275.723 1408.42 Q274.074 1408.42 272.234 1408.99 Q270.411 1409.56 268.328 1410.73 L268.328 1407.18 Q270.446 1406.33 272.286 1405.9 Q274.126 1405.47 275.654 1405.47 Q279.682 1405.47 282.078 1407.48 Q284.473 1409.49 284.473 1412.86 Q284.473 1414.46 283.866 1415.9 Q283.275 1417.32 281.696 1419.27 Q281.262 1419.77 278.935 1422.18 Q276.609 1424.58 272.373 1428.9 Z" fill="#4c4c4c" fill-rule="evenodd" fill-opacity="1" /><path clip-path="url(#clip890)" d="M291.973 1427.44 L295.637 1427.44 L295.637 1431.85 L291.973 1431.85 L291.973 1427.44 Z" fill="#4c4c4c" fill-rule="evenodd" fill-opacity="1" /><path clip-path="url(#clip890)" d="M303.31 1405.93 L317.077 1405.93 L317.077 1408.89 L306.522 1408.89 L306.522 1415.24 Q307.286 1414.98 308.05 1414.86 Q308.814 1414.72 309.577 1414.72 Q313.918 1414.72 316.452 1417.1 Q318.987 1419.48 318.987 1423.54 Q318.987 1427.72 316.383 1430.05 Q313.779 1432.36 309.039 1432.36 Q307.407 1432.36 305.706 1432.08 Q304.022 1431.8 302.216 1431.25 L302.216 1427.72 Q303.779 1428.57 305.446 1428.99 Q307.112 1429.41 308.97 1429.41 Q311.973 1429.41 313.727 1427.83 Q315.48 1426.25 315.48 1423.54 Q315.48 1420.83 313.727 1419.25 Q311.973 1417.67 308.97 1417.67 Q307.564 1417.67 306.157 1417.98 Q304.768 1418.3 303.31 1418.96 L303.31 1405.93 Z" fill="#4c4c4c" fill-rule="evenodd" fill-opacity="1" /><path clip-path="url(#clip890)" d="M193.536 1194.05 L215.793 1194.05 L215.793 1197 L193.536 1197 L193.536 1194.05 Z" fill="#4c4c4c" fill-rule="evenodd" fill-opacity="1" /><path clip-path="url(#clip890)" d="M226.383 1203.72 L238.623 1203.72 L238.623 1206.67 L222.165 1206.67 L222.165 1203.72 Q224.161 1201.65 227.599 1198.18 Q231.054 1194.69 231.939 1193.68 Q233.623 1191.79 234.283 1190.49 Q234.96 1189.17 234.96 1187.9 Q234.96 1185.83 233.501 1184.53 Q232.06 1183.23 229.734 1183.23 Q228.085 1183.23 226.245 1183.8 Q224.422 1184.38 222.338 1185.54 L222.338 1182 Q224.456 1181.15 226.297 1180.71 Q228.137 1180.28 229.665 1180.28 Q233.692 1180.28 236.088 1182.29 Q238.484 1184.31 238.484 1187.67 Q238.484 1189.27 237.876 1190.71 Q237.286 1192.14 235.706 1194.08 Q235.272 1194.58 232.946 1197 Q230.62 1199.39 226.383 1203.72 Z" fill="#4c4c4c" fill-rule="evenodd" fill-opacity="1" /><path clip-path="url(#clip890)" d="M253.918 1192.31 Q251.557 1192.31 250.168 1193.92 Q248.796 1195.54 248.796 1198.35 Q248.796 1201.15 250.168 1202.78 Q251.557 1204.39 253.918 1204.39 Q256.279 1204.39 257.651 1202.78 Q259.039 1201.15 259.039 1198.35 Q259.039 1195.54 257.651 1193.92 Q256.279 1192.31 253.918 1192.31 M260.88 1181.32 L260.88 1184.52 Q259.56 1183.89 258.206 1183.56 Q256.869 1183.23 255.55 1183.23 Q252.078 1183.23 250.237 1185.57 Q248.415 1187.92 248.154 1192.66 Q249.178 1191.15 250.724 1190.35 Q252.269 1189.53 254.126 1189.53 Q258.033 1189.53 260.289 1191.91 Q262.564 1194.27 262.564 1198.35 Q262.564 1202.34 260.203 1204.76 Q257.842 1207.17 253.918 1207.17 Q249.421 1207.17 247.043 1203.73 Q244.665 1200.28 244.665 1193.73 Q244.665 1187.59 247.581 1183.94 Q250.498 1180.28 255.411 1180.28 Q256.73 1180.28 258.067 1180.54 Q259.421 1180.8 260.88 1181.32 Z" fill="#4c4c4c" fill-rule="evenodd" fill-opacity="1" /><path clip-path="url(#clip890)" d="M276.105 1183.06 Q273.397 1183.06 272.026 1185.73 Q270.671 1188.39 270.671 1193.73 Q270.671 1199.06 272.026 1201.74 Q273.397 1204.39 276.105 1204.39 Q278.831 1204.39 280.185 1201.74 Q281.557 1199.06 281.557 1193.73 Q281.557 1188.39 280.185 1185.73 Q278.831 1183.06 276.105 1183.06 M276.105 1180.28 Q280.463 1180.28 282.755 1183.73 Q285.064 1187.17 285.064 1193.73 Q285.064 1200.28 282.755 1203.73 Q280.463 1207.17 276.105 1207.17 Q271.748 1207.17 269.439 1203.73 Q267.147 1200.28 267.147 1193.73 Q267.147 1187.17 269.439 1183.73 Q271.748 1180.28 276.105 1180.28 Z" fill="#4c4c4c" fill-rule="evenodd" fill-opacity="1" /><path clip-path="url(#clip890)" d="M291.227 1202.26 L294.89 1202.26 L294.89 1206.67 L291.227 1206.67 L291.227 1202.26 Z" fill="#4c4c4c" fill-rule="evenodd" fill-opacity="1" /><path clip-path="url(#clip890)" d="M310.029 1183.06 Q307.32 1183.06 305.949 1185.73 Q304.595 1188.39 304.595 1193.73 Q304.595 1199.06 305.949 1201.74 Q307.32 1204.39 310.029 1204.39 Q312.754 1204.39 314.109 1201.74 Q315.48 1199.06 315.48 1193.73 Q315.48 1188.39 314.109 1185.73 Q312.754 1183.06 310.029 1183.06 M310.029 1180.28 Q314.386 1180.28 316.678 1183.73 Q318.987 1187.17 318.987 1193.73 Q318.987 1200.28 316.678 1203.73 Q314.386 1207.17 310.029 1207.17 Q305.671 1207.17 303.362 1203.73 Q301.071 1200.28 301.071 1193.73 Q301.071 1187.17 303.362 1183.73 Q305.671 1180.28 310.029 1180.28 Z" fill="#4c4c4c" fill-rule="evenodd" fill-opacity="1" /><path clip-path="url(#clip890)" d="M194.283 968.86 L216.54 968.86 L216.54 971.811 L194.283 971.811 L194.283 968.86 Z" fill="#4c4c4c" fill-rule="evenodd" fill-opacity="1" /><path clip-path="url(#clip890)" d="M227.13 978.53 L239.369 978.53 L239.369 981.481 L222.911 981.481 L222.911 978.53 Q224.908 976.464 228.345 972.992 Q231.8 969.502 232.685 968.495 Q234.369 966.603 235.029 965.301 Q235.706 963.981 235.706 962.714 Q235.706 960.648 234.248 959.346 Q232.807 958.044 230.481 958.044 Q228.831 958.044 226.991 958.617 Q225.168 959.19 223.085 960.353 L223.085 956.811 Q225.203 955.96 227.043 955.526 Q228.883 955.092 230.411 955.092 Q234.439 955.092 236.835 957.106 Q239.231 959.12 239.231 962.488 Q239.231 964.085 238.623 965.526 Q238.033 966.95 236.453 968.894 Q236.019 969.398 233.692 971.811 Q231.366 974.207 227.13 978.53 Z" fill="#4c4c4c" fill-rule="evenodd" fill-opacity="1" /><path clip-path="url(#clip890)" d="M246.765 955.561 L260.533 955.561 L260.533 958.512 L249.977 958.512 L249.977 964.867 Q250.741 964.606 251.505 964.485 Q252.269 964.346 253.033 964.346 Q257.373 964.346 259.908 966.724 Q262.442 969.103 262.442 973.165 Q262.442 977.349 259.838 979.676 Q257.234 981.985 252.494 981.985 Q250.862 981.985 249.161 981.707 Q247.477 981.429 245.672 980.873 L245.672 977.349 Q247.234 978.2 248.901 978.616 Q250.567 979.033 252.425 979.033 Q255.428 979.033 257.182 977.453 Q258.935 975.873 258.935 973.165 Q258.935 970.457 257.182 968.877 Q255.428 967.297 252.425 967.297 Q251.019 967.297 249.612 967.61 Q248.224 967.922 246.765 968.582 L246.765 955.561 Z" fill="#4c4c4c" fill-rule="evenodd" fill-opacity="1" /><path clip-path="url(#clip890)" d="M268.467 955.561 L285.133 955.561 L285.133 957.054 L275.723 981.481 L272.06 981.481 L280.914 958.512 L268.467 958.512 L268.467 955.561 Z" fill="#4c4c4c" fill-rule="evenodd" fill-opacity="1" /><path clip-path="url(#clip890)" d="M291.973 977.071 L295.637 977.071 L295.637 981.481 L291.973 981.481 L291.973 977.071 Z" fill="#4c4c4c" fill-rule="evenodd" fill-opacity="1" /><path clip-path="url(#clip890)" d="M303.31 955.561 L317.077 955.561 L317.077 958.512 L306.522 958.512 L306.522 964.867 Q307.286 964.606 308.05 964.485 Q308.814 964.346 309.577 964.346 Q313.918 964.346 316.452 966.724 Q318.987 969.103 318.987 973.165 Q318.987 977.349 316.383 979.676 Q313.779 981.985 309.039 981.985 Q307.407 981.985 305.706 981.707 Q304.022 981.429 302.216 980.873 L302.216 977.349 Q303.779 978.2 305.446 978.616 Q307.112 979.033 308.97 979.033 Q311.973 979.033 313.727 977.453 Q315.48 975.873 315.48 973.165 Q315.48 970.457 313.727 968.877 Q311.973 967.297 308.97 967.297 Q307.564 967.297 306.157 967.61 Q304.768 967.922 303.31 968.582 L303.31 955.561 Z" fill="#4c4c4c" fill-rule="evenodd" fill-opacity="1" /><path clip-path="url(#clip890)" d="M193.536 743.673 L215.793 743.673 L215.793 746.624 L193.536 746.624 L193.536 743.673 Z" fill="#4c4c4c" fill-rule="evenodd" fill-opacity="1" /><path clip-path="url(#clip890)" d="M226.383 753.343 L238.623 753.343 L238.623 756.294 L222.165 756.294 L222.165 753.343 Q224.161 751.277 227.599 747.805 Q231.054 744.315 231.939 743.308 Q233.623 741.416 234.283 740.114 Q234.96 738.794 234.96 737.527 Q234.96 735.461 233.501 734.159 Q232.06 732.857 229.734 732.857 Q228.085 732.857 226.245 733.43 Q224.422 734.003 222.338 735.166 L222.338 731.624 Q224.456 730.774 226.297 730.34 Q228.137 729.906 229.665 729.906 Q233.692 729.906 236.088 731.919 Q238.484 733.933 238.484 737.301 Q238.484 738.899 237.876 740.34 Q237.286 741.763 235.706 743.708 Q235.272 744.211 232.946 746.624 Q230.62 749.02 226.383 753.343 Z" fill="#4c4c4c" fill-rule="evenodd" fill-opacity="1" /><path clip-path="url(#clip890)" d="M246.019 730.374 L259.786 730.374 L259.786 733.326 L249.231 733.326 L249.231 739.68 Q249.994 739.419 250.758 739.298 Q251.522 739.159 252.286 739.159 Q256.626 739.159 259.161 741.537 Q261.696 743.916 261.696 747.978 Q261.696 752.162 259.092 754.489 Q256.487 756.798 251.748 756.798 Q250.116 756.798 248.415 756.52 Q246.731 756.242 244.925 755.687 L244.925 752.162 Q246.487 753.013 248.154 753.43 Q249.821 753.846 251.678 753.846 Q254.682 753.846 256.435 752.267 Q258.189 750.687 258.189 747.978 Q258.189 745.27 256.435 743.69 Q254.682 742.11 251.678 742.11 Q250.272 742.11 248.866 742.423 Q247.477 742.735 246.019 743.395 L246.019 730.374 Z" fill="#4c4c4c" fill-rule="evenodd" fill-opacity="1" /><path clip-path="url(#clip890)" d="M268.64 730.374 L282.407 730.374 L282.407 733.326 L271.852 733.326 L271.852 739.68 Q272.616 739.419 273.38 739.298 Q274.144 739.159 274.907 739.159 Q279.248 739.159 281.782 741.537 Q284.317 743.916 284.317 747.978 Q284.317 752.162 281.713 754.489 Q279.109 756.798 274.369 756.798 Q272.737 756.798 271.036 756.52 Q269.352 756.242 267.546 755.687 L267.546 752.162 Q269.109 753.013 270.776 753.43 Q272.442 753.846 274.3 753.846 Q277.303 753.846 279.057 752.267 Q280.81 750.687 280.81 747.978 Q280.81 745.27 279.057 743.69 Q277.303 742.11 274.3 742.11 Q272.894 742.11 271.487 742.423 Q270.098 742.735 268.64 743.395 L268.64 730.374 Z" fill="#4c4c4c" fill-rule="evenodd" fill-opacity="1" /><path clip-path="url(#clip890)" d="M291.227 751.885 L294.89 751.885 L294.89 756.294 L291.227 756.294 L291.227 751.885 Z" fill="#4c4c4c" fill-rule="evenodd" fill-opacity="1" /><path clip-path="url(#clip890)" d="M310.029 732.683 Q307.32 732.683 305.949 735.357 Q304.595 738.013 304.595 743.36 Q304.595 748.69 305.949 751.364 Q307.32 754.02 310.029 754.02 Q312.754 754.02 314.109 751.364 Q315.48 748.69 315.48 743.36 Q315.48 738.013 314.109 735.357 Q312.754 732.683 310.029 732.683 M310.029 729.906 Q314.386 729.906 316.678 733.36 Q318.987 736.798 318.987 743.36 Q318.987 749.905 316.678 753.36 Q314.386 756.798 310.029 756.798 Q305.671 756.798 303.362 753.36 Q301.071 749.905 301.071 743.36 Q301.071 736.798 303.362 733.36 Q305.671 729.906 310.029 729.906 Z" fill="#4c4c4c" fill-rule="evenodd" fill-opacity="1" /><path clip-path="url(#clip890)" d="M194.283 518.486 L216.54 518.486 L216.54 521.438 L194.283 521.438 L194.283 518.486 Z" fill="#4c4c4c" fill-rule="evenodd" fill-opacity="1" /><path clip-path="url(#clip890)" d="M227.13 528.156 L239.369 528.156 L239.369 531.108 L222.911 531.108 L222.911 528.156 Q224.908 526.09 228.345 522.618 Q231.8 519.129 232.685 518.122 Q234.369 516.229 235.029 514.927 Q235.706 513.608 235.706 512.34 Q235.706 510.274 234.248 508.972 Q232.807 507.67 230.481 507.67 Q228.831 507.67 226.991 508.243 Q225.168 508.816 223.085 509.979 L223.085 506.438 Q225.203 505.587 227.043 505.153 Q228.883 504.719 230.411 504.719 Q234.439 504.719 236.835 506.733 Q239.231 508.747 239.231 512.115 Q239.231 513.712 238.623 515.153 Q238.033 516.576 236.453 518.521 Q236.019 519.024 233.692 521.438 Q231.366 523.833 227.13 528.156 Z" fill="#4c4c4c" fill-rule="evenodd" fill-opacity="1" /><path clip-path="url(#clip890)" d="M246.765 505.188 L260.533 505.188 L260.533 508.139 L249.977 508.139 L249.977 514.493 Q250.741 514.233 251.505 514.111 Q252.269 513.972 253.033 513.972 Q257.373 513.972 259.908 516.351 Q262.442 518.729 262.442 522.792 Q262.442 526.976 259.838 529.302 Q257.234 531.611 252.494 531.611 Q250.862 531.611 249.161 531.333 Q247.477 531.056 245.672 530.5 L245.672 526.976 Q247.234 527.826 248.901 528.243 Q250.567 528.66 252.425 528.66 Q255.428 528.66 257.182 527.08 Q258.935 525.5 258.935 522.792 Q258.935 520.083 257.182 518.504 Q255.428 516.924 252.425 516.924 Q251.019 516.924 249.612 517.236 Q248.224 517.549 246.765 518.208 L246.765 505.188 Z" fill="#4c4c4c" fill-rule="evenodd" fill-opacity="1" /><path clip-path="url(#clip890)" d="M272.373 528.156 L284.612 528.156 L284.612 531.108 L268.154 531.108 L268.154 528.156 Q270.151 526.09 273.588 522.618 Q277.043 519.129 277.928 518.122 Q279.612 516.229 280.272 514.927 Q280.949 513.608 280.949 512.34 Q280.949 510.274 279.491 508.972 Q278.05 507.67 275.723 507.67 Q274.074 507.67 272.234 508.243 Q270.411 508.816 268.328 509.979 L268.328 506.438 Q270.446 505.587 272.286 505.153 Q274.126 504.719 275.654 504.719 Q279.682 504.719 282.078 506.733 Q284.473 508.747 284.473 512.115 Q284.473 513.712 283.866 515.153 Q283.275 516.576 281.696 518.521 Q281.262 519.024 278.935 521.438 Q276.609 523.833 272.373 528.156 Z" fill="#4c4c4c" fill-rule="evenodd" fill-opacity="1" /><path clip-path="url(#clip890)" d="M291.973 526.698 L295.637 526.698 L295.637 531.108 L291.973 531.108 L291.973 526.698 Z" fill="#4c4c4c" fill-rule="evenodd" fill-opacity="1" /><path clip-path="url(#clip890)" d="M303.31 505.188 L317.077 505.188 L317.077 508.139 L306.522 508.139 L306.522 514.493 Q307.286 514.233 308.05 514.111 Q308.814 513.972 309.577 513.972 Q313.918 513.972 316.452 516.351 Q318.987 518.729 318.987 522.792 Q318.987 526.976 316.383 529.302 Q313.779 531.611 309.039 531.611 Q307.407 531.611 305.706 531.333 Q304.022 531.056 302.216 530.5 L302.216 526.976 Q303.779 527.826 305.446 528.243 Q307.112 528.66 308.97 528.66 Q311.973 528.66 313.727 527.08 Q315.48 525.5 315.48 522.792 Q315.48 520.083 313.727 518.504 Q311.973 516.924 308.97 516.924 Q307.564 516.924 306.157 517.236 Q304.768 517.549 303.31 518.208 L303.31 505.188 Z" fill="#4c4c4c" fill-rule="evenodd" fill-opacity="1" /><path clip-path="url(#clip890)" d="M193.536 293.299 L215.793 293.299 L215.793 296.251 L193.536 296.251 L193.536 293.299 Z" fill="#4c4c4c" fill-rule="evenodd" fill-opacity="1" /><path clip-path="url(#clip890)" d="M226.383 302.97 L238.623 302.97 L238.623 305.921 L222.165 305.921 L222.165 302.97 Q224.161 300.904 227.599 297.431 Q231.054 293.942 231.939 292.935 Q233.623 291.043 234.283 289.74 Q234.96 288.421 234.96 287.154 Q234.96 285.088 233.501 283.786 Q232.06 282.484 229.734 282.484 Q228.085 282.484 226.245 283.056 Q224.422 283.629 222.338 284.793 L222.338 281.251 Q224.456 280.4 226.297 279.966 Q228.137 279.532 229.665 279.532 Q233.692 279.532 236.088 281.546 Q238.484 283.56 238.484 286.928 Q238.484 288.525 237.876 289.966 Q237.286 291.39 235.706 293.334 Q235.272 293.838 232.946 296.251 Q230.62 298.647 226.383 302.97 Z" fill="#4c4c4c" fill-rule="evenodd" fill-opacity="1" /><path clip-path="url(#clip890)" d="M246.019 280.001 L259.786 280.001 L259.786 282.952 L249.231 282.952 L249.231 289.306 Q249.994 289.046 250.758 288.925 Q251.522 288.786 252.286 288.786 Q256.626 288.786 259.161 291.164 Q261.696 293.543 261.696 297.605 Q261.696 301.789 259.092 304.115 Q256.487 306.424 251.748 306.424 Q250.116 306.424 248.415 306.147 Q246.731 305.869 244.925 305.313 L244.925 301.789 Q246.487 302.64 248.154 303.056 Q249.821 303.473 251.678 303.473 Q254.682 303.473 256.435 301.893 Q258.189 300.313 258.189 297.605 Q258.189 294.897 256.435 293.317 Q254.682 291.737 251.678 291.737 Q250.272 291.737 248.866 292.049 Q247.477 292.362 246.019 293.022 L246.019 280.001 Z" fill="#4c4c4c" fill-rule="evenodd" fill-opacity="1" /><path clip-path="url(#clip890)" d="M276.105 282.31 Q273.397 282.31 272.026 284.984 Q270.671 287.64 270.671 292.987 Q270.671 298.317 272.026 300.99 Q273.397 303.647 276.105 303.647 Q278.831 303.647 280.185 300.99 Q281.557 298.317 281.557 292.987 Q281.557 287.64 280.185 284.984 Q278.831 282.31 276.105 282.31 M276.105 279.532 Q280.463 279.532 282.755 282.987 Q285.064 286.425 285.064 292.987 Q285.064 299.532 282.755 302.987 Q280.463 306.424 276.105 306.424 Q271.748 306.424 269.439 302.987 Q267.147 299.532 267.147 292.987 Q267.147 286.425 269.439 282.987 Q271.748 279.532 276.105 279.532 Z" fill="#4c4c4c" fill-rule="evenodd" fill-opacity="1" /><path clip-path="url(#clip890)" d="M291.227 301.511 L294.89 301.511 L294.89 305.921 L291.227 305.921 L291.227 301.511 Z" fill="#4c4c4c" fill-rule="evenodd" fill-opacity="1" /><path clip-path="url(#clip890)" d="M310.029 282.31 Q307.32 282.31 305.949 284.984 Q304.595 287.64 304.595 292.987 Q304.595 298.317 305.949 300.99 Q307.32 303.647 310.029 303.647 Q312.754 303.647 314.109 300.99 Q315.48 298.317 315.48 292.987 Q315.48 287.64 314.109 284.984 Q312.754 282.31 310.029 282.31 M310.029 279.532 Q314.386 279.532 316.678 282.987 Q318.987 286.425 318.987 292.987 Q318.987 299.532 316.678 302.987 Q314.386 306.424 310.029 306.424 Q305.671 306.424 303.362 302.987 Q301.071 299.532 301.071 292.987 Q301.071 286.425 303.362 282.987 Q305.671 279.532 310.029 279.532 Z" fill="#4c4c4c" fill-rule="evenodd" fill-opacity="1" /><path clip-path="url(#clip890)" d="M130.608 973.882 L130.608 944.646 L134.544 944.646 L134.544 956.915 L165.168 956.915 L165.168 961.614 L134.544 961.614 L134.544 973.882 L130.608 973.882 Z" fill="#000000" fill-rule="evenodd" fill-opacity="1" /><path clip-path="url(#clip890)" d="M151.141 926.198 L153.224 926.198 L153.224 945.781 Q157.622 945.503 159.937 943.142 Q162.229 940.758 162.229 936.522 Q162.229 934.068 161.627 931.776 Q161.025 929.461 159.821 927.193 L163.849 927.193 Q164.821 929.485 165.33 931.892 Q165.84 934.299 165.84 936.776 Q165.84 942.98 162.229 946.614 Q158.617 950.225 152.46 950.225 Q146.094 950.225 142.368 946.799 Q138.618 943.35 138.618 937.517 Q138.618 932.285 141.997 929.253 Q145.354 926.198 151.141 926.198 M149.891 930.457 Q146.395 930.503 144.312 932.424 Q142.229 934.322 142.229 937.471 Q142.229 941.035 144.243 943.188 Q146.256 945.318 149.914 945.642 L149.891 930.457 Z" fill="#000000" fill-rule="evenodd" fill-opacity="1" /><path clip-path="url(#clip890)" d="M140.006 902.679 L144.034 902.679 Q143.108 904.485 142.645 906.429 Q142.182 908.374 142.182 910.457 Q142.182 913.628 143.155 915.225 Q144.127 916.799 146.071 916.799 Q147.553 916.799 148.409 915.665 Q149.243 914.531 150.006 911.105 L150.33 909.647 Q151.303 905.11 153.085 903.212 Q154.844 901.29 158.016 901.29 Q161.627 901.29 163.733 904.161 Q165.84 907.008 165.84 912.008 Q165.84 914.091 165.423 916.36 Q165.029 918.605 164.219 921.105 L159.821 921.105 Q161.048 918.744 161.673 916.452 Q162.275 914.161 162.275 911.915 Q162.275 908.906 161.256 907.286 Q160.215 905.665 158.34 905.665 Q156.604 905.665 155.678 906.846 Q154.752 908.003 153.895 911.961 L153.548 913.443 Q152.715 917.401 151.002 919.161 Q149.266 920.92 146.256 920.92 Q142.599 920.92 140.608 918.327 Q138.618 915.735 138.618 910.966 Q138.618 908.605 138.965 906.522 Q139.312 904.438 140.006 902.679 Z" fill="#000000" fill-rule="evenodd" fill-opacity="1" /><path clip-path="url(#clip890)" d="M131.882 890.295 L139.243 890.295 L139.243 881.522 L142.553 881.522 L142.553 890.295 L156.627 890.295 Q159.798 890.295 160.701 889.438 Q161.604 888.559 161.604 885.897 L161.604 881.522 L165.168 881.522 L165.168 885.897 Q165.168 890.827 163.34 892.702 Q161.488 894.577 156.627 894.577 L142.553 894.577 L142.553 897.702 L139.243 897.702 L139.243 894.577 L131.882 894.577 L131.882 890.295 Z" fill="#000000" fill-rule="evenodd" fill-opacity="1" /><path clip-path="url(#clip890)" d="M129.15 860.851 L129.15 856.591 L165.168 856.591 L165.168 860.851 L129.15 860.851 Z" fill="#000000" fill-rule="evenodd" fill-opacity="1" /><path clip-path="url(#clip890)" d="M142.229 837.633 Q142.229 841.059 144.914 843.05 Q147.576 845.041 152.229 845.041 Q156.881 845.041 159.567 843.073 Q162.229 841.082 162.229 837.633 Q162.229 834.23 159.543 832.24 Q156.858 830.249 152.229 830.249 Q147.622 830.249 144.937 832.24 Q142.229 834.23 142.229 837.633 M138.618 837.633 Q138.618 832.078 142.229 828.906 Q145.84 825.735 152.229 825.735 Q158.594 825.735 162.229 828.906 Q165.84 832.078 165.84 837.633 Q165.84 843.212 162.229 846.383 Q158.594 849.531 152.229 849.531 Q145.84 849.531 142.229 846.383 Q138.618 843.212 138.618 837.633 Z" fill="#000000" fill-rule="evenodd" fill-opacity="1" /><path clip-path="url(#clip890)" d="M151.905 801.615 Q147.275 801.615 144.729 803.536 Q142.182 805.434 142.182 808.883 Q142.182 812.309 144.729 814.231 Q147.275 816.129 151.905 816.129 Q156.511 816.129 159.057 814.231 Q161.604 812.309 161.604 808.883 Q161.604 805.434 159.057 803.536 Q156.511 801.615 151.905 801.615 M161.951 797.356 Q168.571 797.356 171.789 800.295 Q175.029 803.235 175.029 809.3 Q175.029 811.545 174.682 813.536 Q174.358 815.527 173.664 817.402 L169.52 817.402 Q170.539 815.527 171.025 813.698 Q171.511 811.869 171.511 809.971 Q171.511 805.781 169.312 803.698 Q167.136 801.615 162.715 801.615 L160.608 801.615 Q162.9 802.934 164.034 804.994 Q165.168 807.055 165.168 809.925 Q165.168 814.693 161.534 817.61 Q157.9 820.527 151.905 820.527 Q145.886 820.527 142.252 817.61 Q138.618 814.693 138.618 809.925 Q138.618 807.055 139.752 804.994 Q140.886 802.934 143.178 801.615 L139.243 801.615 L139.243 797.356 L161.951 797.356 Z" fill="#000000" fill-rule="evenodd" fill-opacity="1" /><path clip-path="url(#clip890)" d="M150.284 790.735 L150.284 778.258 L154.08 778.258 L154.08 790.735 L150.284 790.735 Z" fill="#000000" fill-rule="evenodd" fill-opacity="1" /><path clip-path="url(#clip890)" d="M129.15 771.476 L129.15 767.217 L165.168 767.217 L165.168 771.476 L129.15 771.476 Z" fill="#000000" fill-rule="evenodd" fill-opacity="1" /><path clip-path="url(#clip890)" d="M139.243 758.305 L139.243 754.046 L165.168 754.046 L165.168 758.305 L139.243 758.305 M129.15 758.305 L129.15 754.046 L134.544 754.046 L134.544 758.305 L129.15 758.305 Z" fill="#000000" fill-rule="evenodd" fill-opacity="1" /><path clip-path="url(#clip890)" d="M129.15 745.296 L129.15 741.013 L150.423 741.013 L139.243 728.305 L139.243 722.865 L151.372 736.615 L165.168 722.287 L165.168 727.842 L152.506 741.013 L165.168 741.013 L165.168 745.296 L129.15 745.296 Z" fill="#000000" fill-rule="evenodd" fill-opacity="1" /><path clip-path="url(#clip890)" d="M151.141 697.194 L153.224 697.194 L153.224 716.777 Q157.622 716.5 159.937 714.138 Q162.229 711.754 162.229 707.518 Q162.229 705.064 161.627 702.773 Q161.025 700.458 159.821 698.189 L163.849 698.189 Q164.821 700.481 165.33 702.889 Q165.84 705.296 165.84 707.773 Q165.84 713.976 162.229 717.611 Q158.617 721.222 152.46 721.222 Q146.094 721.222 142.368 717.796 Q138.618 714.347 138.618 708.513 Q138.618 703.282 141.997 700.25 Q145.354 697.194 151.141 697.194 M149.891 701.453 Q146.395 701.5 144.312 703.421 Q142.229 705.319 142.229 708.467 Q142.229 712.032 144.243 714.185 Q146.256 716.314 149.914 716.638 L149.891 701.453 Z" fill="#000000" fill-rule="evenodd" fill-opacity="1" /><path clip-path="url(#clip890)" d="M129.15 690.203 L129.15 685.944 L165.168 685.944 L165.168 690.203 L129.15 690.203 Z" fill="#000000" fill-rule="evenodd" fill-opacity="1" /><path clip-path="url(#clip890)" d="M139.243 677.032 L139.243 672.773 L165.168 672.773 L165.168 677.032 L139.243 677.032 M129.15 677.032 L129.15 672.773 L134.544 672.773 L134.544 677.032 L129.15 677.032 Z" fill="#000000" fill-rule="evenodd" fill-opacity="1" /><path clip-path="url(#clip890)" d="M149.52 642.31 L165.168 642.31 L165.168 646.569 L149.659 646.569 Q145.979 646.569 144.15 648.005 Q142.321 649.44 142.321 652.31 Q142.321 655.759 144.52 657.75 Q146.719 659.741 150.516 659.741 L165.168 659.741 L165.168 664.023 L129.15 664.023 L129.15 659.741 L143.27 659.741 Q140.932 658.213 139.775 656.153 Q138.618 654.069 138.618 651.361 Q138.618 646.893 141.395 644.602 Q144.15 642.31 149.52 642.31 Z" fill="#000000" fill-rule="evenodd" fill-opacity="1" /><path clip-path="url(#clip890)" d="M142.229 623.769 Q142.229 627.194 144.914 629.185 Q147.576 631.176 152.229 631.176 Q156.881 631.176 159.567 629.208 Q162.229 627.218 162.229 623.769 Q162.229 620.366 159.543 618.375 Q156.858 616.384 152.229 616.384 Q147.622 616.384 144.937 618.375 Q142.229 620.366 142.229 623.769 M138.618 623.769 Q138.618 618.213 142.229 615.042 Q145.84 611.87 152.229 611.87 Q158.594 611.87 162.229 615.042 Q165.84 618.213 165.84 623.769 Q165.84 629.347 162.229 632.519 Q158.594 635.667 152.229 635.667 Q145.84 635.667 142.229 632.519 Q138.618 629.347 138.618 623.769 Z" fill="#000000" fill-rule="evenodd" fill-opacity="1" /><path clip-path="url(#clip890)" d="M142.229 594.764 Q142.229 598.19 144.914 600.181 Q147.576 602.171 152.229 602.171 Q156.881 602.171 159.567 600.204 Q162.229 598.213 162.229 594.764 Q162.229 591.361 159.543 589.371 Q156.858 587.38 152.229 587.38 Q147.622 587.38 144.937 589.371 Q142.229 591.361 142.229 594.764 M138.618 594.764 Q138.618 589.209 142.229 586.037 Q145.84 582.866 152.229 582.866 Q158.594 582.866 162.229 586.037 Q165.84 589.209 165.84 594.764 Q165.84 600.343 162.229 603.514 Q158.594 606.662 152.229 606.662 Q145.84 606.662 142.229 603.514 Q138.618 600.343 138.618 594.764 Z" fill="#000000" fill-rule="evenodd" fill-opacity="1" /><path clip-path="url(#clip890)" d="M143.178 558.746 L129.15 558.746 L129.15 554.487 L165.168 554.487 L165.168 558.746 L161.28 558.746 Q163.594 560.088 164.729 562.149 Q165.84 564.186 165.84 567.056 Q165.84 571.755 162.09 574.718 Q158.34 577.658 152.229 577.658 Q146.118 577.658 142.368 574.718 Q138.618 571.755 138.618 567.056 Q138.618 564.186 139.752 562.149 Q140.863 560.088 143.178 558.746 M152.229 573.26 Q156.928 573.26 159.613 571.338 Q162.275 569.394 162.275 566.014 Q162.275 562.635 159.613 560.69 Q156.928 558.746 152.229 558.746 Q147.53 558.746 144.868 560.69 Q142.182 562.635 142.182 566.014 Q142.182 569.394 144.868 571.338 Q147.53 573.26 152.229 573.26 Z" fill="#000000" fill-rule="evenodd" fill-opacity="1" /><path clip-path="url(#clip890)" d="M1336.96 35.6653 Q1336.96 29.7915 1334.53 26.464 Q1332.13 23.1075 1327.9 23.1075 Q1323.68 23.1075 1321.25 26.464 Q1318.85 29.7915 1318.85 35.6653 Q1318.85 41.5391 1321.25 44.8956 Q1323.68 48.2231 1327.9 48.2231 Q1332.13 48.2231 1334.53 44.8956 Q1336.96 41.5391 1336.96 35.6653 M1318.85 24.3517 Q1320.53 21.4582 1323.07 20.0693 Q1325.65 18.6515 1329.21 18.6515 Q1335.11 18.6515 1338.78 23.339 Q1342.49 28.0265 1342.49 35.6653 Q1342.49 43.3042 1338.78 47.9916 Q1335.11 52.6791 1329.21 52.6791 Q1325.65 52.6791 1323.07 51.2902 Q1320.53 49.8724 1318.85 46.9789 L1318.85 51.84 L1313.49 51.84 L1313.49 6.81709 L1318.85 6.81709 L1318.85 24.3517 Z" fill="#000000" fill-rule="evenodd" fill-opacity="1" /><path clip-path="url(#clip890)" d="M1374.58 35.6653 Q1374.58 29.7915 1372.15 26.464 Q1369.74 23.1075 1365.52 23.1075 Q1361.29 23.1075 1358.86 26.464 Q1356.46 29.7915 1356.46 35.6653 Q1356.46 41.5391 1358.86 44.8956 Q1361.29 48.2231 1365.52 48.2231 Q1369.74 48.2231 1372.15 44.8956 Q1374.58 41.5391 1374.58 35.6653 M1356.46 24.3517 Q1358.14 21.4582 1360.69 20.0693 Q1363.26 18.6515 1366.82 18.6515 Q1372.72 18.6515 1376.4 23.339 Q1380.1 28.0265 1380.1 35.6653 Q1380.1 43.3042 1376.4 47.9916 Q1372.72 52.6791 1366.82 52.6791 Q1363.26 52.6791 1360.69 51.2902 Q1358.14 49.8724 1356.46 46.9789 L1356.46 51.84 L1351.11 51.84 L1351.11 6.81709 L1356.46 6.81709 L1356.46 24.3517 Z" fill="#000000" fill-rule="evenodd" fill-opacity="1" /><path clip-path="url(#clip890)" d="M1412.25 20.677 L1412.25 25.6538 Q1409.99 24.4096 1407.71 23.802 Q1405.45 23.1654 1403.13 23.1654 Q1397.96 23.1654 1395.09 26.464 Q1392.23 29.7336 1392.23 35.6653 Q1392.23 41.597 1395.09 44.8956 Q1397.96 48.1653 1403.13 48.1653 Q1405.45 48.1653 1407.71 47.5576 Q1409.99 46.921 1412.25 45.6768 L1412.25 50.5958 Q1410.02 51.6375 1407.62 52.1583 Q1405.25 52.6791 1402.56 52.6791 Q1395.24 52.6791 1390.92 48.0784 Q1386.61 43.4778 1386.61 35.6653 Q1386.61 27.7371 1390.95 23.1943 Q1395.32 18.6515 1402.9 18.6515 Q1405.36 18.6515 1407.71 19.1724 Q1410.05 19.6642 1412.25 20.677 Z" fill="#000000" fill-rule="evenodd" fill-opacity="1" /><polyline clip-path="url(#clip892)" style="stroke:#e26f46; stroke-linecap:butt; stroke-linejoin:round; stroke-width:8; stroke-opacity:1; fill:none" points="
  457.752,354.212 486.486,354.212 515.22,354.212 543.954,354.212 572.688,354.212 601.422,354.212 630.156,354.212 658.89,354.212 687.624,354.212 716.358,354.212 
  745.092,354.212 773.826,354.212 802.56,354.212 831.294,354.212 860.027,354.212 888.761,354.212 917.495,354.212 946.229,354.212 974.963,354.212 1003.7,354.212 
  1032.43,354.212 1061.17,354.212 1089.9,354.212 1118.63,354.212 1147.37,354.212 1176.1,354.212 1204.83,354.212 1233.57,354.212 1262.3,354.212 1291.04,354.212 
  1319.77,354.212 1348.5,354.212 1377.24,354.212 1405.97,354.212 1434.71,354.212 1463.44,354.212 1492.17,354.212 1520.91,354.212 1549.64,354.212 1578.38,354.212 
  1607.11,354.212 1635.84,354.212 1664.58,354.212 1693.31,354.212 1722.05,354.212 1750.78,354.212 1779.51,354.212 1808.25,354.212 1836.98,354.212 1865.72,354.212 
  1894.45,354.212 1923.18,354.212 1951.92,354.212 1980.65,354.212 2009.39,354.212 2038.12,354.212 2066.85,354.212 2095.59,354.212 2124.32,354.212 2153.05,354.212 
  2181.79,354.212 2210.52,354.212 2239.26,354.212 2267.99,354.212 2296.72,354.212 
  "/>
<polyline clip-path="url(#clip892)" style="stroke:#3da44d; stroke-linecap:butt; stroke-linejoin:round; stroke-width:8; stroke-opacity:1; fill:none" points="
  457.752,690.19 486.486,690.19 515.22,690.19 543.954,690.19 572.688,690.19 601.422,690.19 630.156,690.19 658.89,690.19 687.624,690.19 716.358,690.19 
  745.092,690.19 773.826,690.19 802.56,690.19 831.294,690.19 860.027,690.19 888.761,690.19 917.495,690.19 946.229,690.19 974.963,690.19 1003.7,690.19 
  1032.43,690.19 1061.17,690.19 1089.9,690.19 1118.63,690.19 1147.37,690.19 1176.1,690.19 1204.83,690.19 1233.57,690.19 1262.3,690.19 1291.04,690.19 
  1319.77,690.19 1348.5,690.19 1377.24,690.19 1405.97,690.19 1434.71,690.19 1463.44,690.19 1492.17,690.19 1520.91,690.19 1549.64,690.19 1578.38,690.19 
  1607.11,690.19 1635.84,690.19 1664.58,690.19 1693.31,690.19 1722.05,690.19 1750.78,690.19 1779.51,690.19 1808.25,690.19 1836.98,690.19 1865.72,690.19 
  1894.45,690.19 1923.18,690.19 1951.92,690.19 1980.65,690.19 2009.39,690.19 2038.12,690.19 2066.85,690.19 2095.59,690.19 2124.32,690.19 2153.05,690.19 
  2181.79,690.19 2210.52,690.19 2239.26,690.19 2267.99,690.19 2296.72,690.19 
  "/>
<polyline clip-path="url(#clip892)" style="stroke:#c271d2; stroke-linecap:butt; stroke-linejoin:round; stroke-width:8; stroke-opacity:1; fill:none" points="
  457.752,580.299 486.486,580.299 515.22,580.299 543.954,580.299 572.688,580.299 601.422,580.299 630.156,580.299 658.89,580.299 687.624,580.299 716.358,580.299 
  745.092,580.299 773.826,580.299 802.56,580.299 831.294,580.299 860.027,580.299 888.761,580.299 917.495,580.299 946.229,580.299 974.963,580.299 1003.7,580.299 
  1032.43,580.299 1061.17,580.299 1089.9,580.299 1118.63,580.299 1147.37,580.299 1176.1,580.299 1204.83,580.299 1233.57,580.299 1262.3,580.299 1291.04,580.299 
  1319.77,580.299 1348.5,580.299 1377.24,580.299 1405.97,580.299 1434.71,580.299 1463.44,580.299 1492.17,580.299 1520.91,580.299 1549.64,580.299 1578.38,580.299 
  1607.11,580.299 1635.84,580.299 1664.58,580.299 1693.31,580.299 1722.05,580.299 1750.78,580.299 1779.51,580.299 1808.25,580.299 1836.98,580.299 1865.72,580.299 
  1894.45,580.299 1923.18,580.299 1951.92,580.299 1980.65,580.299 2009.39,580.299 2038.12,580.299 2066.85,580.299 2095.59,580.299 2124.32,580.299 2153.05,580.299 
  2181.79,580.299 2210.52,580.299 2239.26,580.299 2267.99,580.299 2296.72,580.299 
  "/>
<polyline clip-path="url(#clip892)" style="stroke:#ac8d18; stroke-linecap:butt; stroke-linejoin:round; stroke-width:8; stroke-opacity:1; fill:none" points="
  457.752,143.437 486.486,143.437 515.22,143.437 543.954,143.437 572.688,143.437 601.422,143.437 630.156,143.437 658.89,143.437 687.624,143.437 716.358,143.437 
  745.092,143.437 773.826,143.437 802.56,143.437 831.294,143.437 860.027,143.437 888.761,143.437 917.495,143.437 946.229,143.437 974.963,143.437 1003.7,143.437 
  1032.43,143.437 1061.17,143.437 1089.9,143.437 1118.63,143.437 1147.37,143.437 1176.1,143.437 1204.83,143.437 1233.57,143.437 1262.3,143.437 1291.04,143.437 
  1319.77,143.437 1348.5,143.437 1377.24,143.437 1405.97,143.437 1434.71,143.437 1463.44,143.437 1492.17,143.437 1520.91,143.437 1549.64,143.437 1578.38,143.437 
  1607.11,143.437 1635.84,143.437 1664.58,143.437 1693.31,143.437 1722.05,143.437 1750.78,143.437 1779.51,143.437 1808.25,143.437 1836.98,143.437 1865.72,143.437 
  1894.45,143.437 1923.18,143.437 1951.92,143.437 1980.65,143.437 2009.39,143.437 2038.12,143.437 2066.85,143.437 2095.59,143.437 2124.32,143.437 2153.05,143.437 
  2181.79,143.437 2210.52,143.437 2239.26,143.437 2267.99,143.437 2296.72,143.437 
  "/>
<polyline clip-path="url(#clip892)" style="stroke:#00a9ad; stroke-linecap:butt; stroke-linejoin:round; stroke-width:8; stroke-opacity:1; fill:none" points="
  457.752,157.849 486.486,157.849 515.22,157.849 543.954,157.849 572.688,157.849 601.422,157.849 630.156,157.849 658.89,157.849 687.624,157.849 716.358,157.849 
  745.092,157.849 773.826,157.849 802.56,157.849 831.294,157.849 860.027,157.849 888.761,157.849 917.495,157.849 946.229,157.849 974.963,157.849 1003.7,157.849 
  1032.43,157.849 1061.17,157.849 1089.9,157.849 1118.63,157.849 1147.37,157.849 1176.1,157.849 1204.83,157.849 1233.57,157.849 1262.3,157.849 1291.04,157.849 
  1319.77,157.849 1348.5,157.849 1377.24,157.849 1405.97,157.849 1434.71,157.849 1463.44,157.849 1492.17,157.849 1520.91,157.849 1549.64,157.849 1578.38,157.849 
  1607.11,157.849 1635.84,157.849 1664.58,157.849 1693.31,157.849 1722.05,157.849 1750.78,157.849 1779.51,157.849 1808.25,157.849 1836.98,157.849 1865.72,157.849 
  1894.45,157.849 1923.18,157.849 1951.92,157.849 1980.65,157.849 2009.39,157.849 2038.12,157.849 2066.85,157.849 2095.59,157.849 2124.32,157.849 2153.05,157.849 
  2181.79,157.849 2210.52,157.849 2239.26,157.849 2267.99,157.849 2296.72,157.849 
  "/>
<polyline clip-path="url(#clip892)" style="stroke:#009af9; stroke-linecap:butt; stroke-linejoin:round; stroke-width:12; stroke-opacity:1; fill:none" points="
  457.752,1227.98 486.486,1384.93 515.22,816.849 543.954,1148.8 572.688,760.181 601.422,1036.35 630.156,720.637 658.89,942.288 687.624,704.035 716.358,847.749 
  745.092,685.087 773.826,786.667 802.56,670.196 831.294,744.233 860.027,660.034 888.761,729.627 917.495,639.769 946.229,741.339 974.963,678.859 1003.7,659.149 
  1032.43,629.765 1061.17,653.825 1089.9,630.96 1118.63,637.443 1147.37,638.051 1176.1,628.504 1204.83,632.748 1233.57,616.375 1262.3,611.766 1291.04,620.54 
  1319.77,620.358 1348.5,621.491 1377.24,622.416 1405.97,625.138 1434.71,623.725 1463.44,616.719 1492.17,611.778 1520.91,617.997 1549.64,616.01 1578.38,613.771 
  1607.11,616.278 1635.84,612.528 1664.58,610.766 1693.31,617.334 1722.05,622.469 1750.78,609.347 1779.51,611.066 1808.25,610.303 1836.98,609.605 1865.72,613.245 
  
  "/>
<polyline clip-path="url(#clip892)" style="stroke:#f05f73; stroke-linecap:butt; stroke-linejoin:round; stroke-width:12; stroke-opacity:1; fill:none" points="
  1865.72,613.245 1894.45,642.133 1923.18,653.593 1951.92,660.598 1980.65,665.555 2009.39,669.248 2038.12,672.814 2066.85,676.108 2095.59,677.641 2124.32,679.866 
  2153.05,681.821 2181.79,683.389 2210.52,684.479 2239.26,685.584 2267.99,686.59 2296.72,687.307 
  "/>
</svg>
