<?xml version="1.0" encoding="utf-8"?>
<svg xmlns="http://www.w3.org/2000/svg" xmlns:xlink="http://www.w3.org/1999/xlink" width="600" height="400" viewBox="0 0 2400 1600">
<defs>
  <clipPath id="clip580">
    <rect x="0" y="0" width="2400" height="1600"/>
  </clipPath>
</defs>
<path clip-path="url(#clip580)" d="
M0 1600 L2400 1600 L2400 0 L0 0  Z
  " fill="#ffffff" fill-rule="evenodd" fill-opacity="1"/>
<defs>
  <clipPath id="clip581">
    <rect x="480" y="0" width="1681" height="1600"/>
  </clipPath>
</defs>
<path clip-path="url(#clip580)" d="
M350.366 1422.18 L2352.76 1422.18 L2352.76 106.192 L350.366 106.192  Z
  " fill="#eaeaea" fill-rule="evenodd" fill-opacity="1"/>
<defs>
  <clipPath id="clip582">
    <rect x="350" y="106" width="2003" height="1317"/>
  </clipPath>
</defs>
<polyline clip-path="url(#clip582)" style="stroke:#ffffff; stroke-linecap:butt; stroke-linejoin:round; stroke-width:4; stroke-opacity:1; fill:none" points="
  407.037,1422.18 407.037,106.192 
  "/>
<polyline clip-path="url(#clip582)" style="stroke:#ffffff; stroke-linecap:butt; stroke-linejoin:round; stroke-width:4; stroke-opacity:1; fill:none" points="
  552.348,1422.18 552.348,106.192 
  "/>
<polyline clip-path="url(#clip582)" style="stroke:#ffffff; stroke-linecap:butt; stroke-linejoin:round; stroke-width:4; stroke-opacity:1; fill:none" points="
  697.66,1422.18 697.66,106.192 
  "/>
<polyline clip-path="url(#clip582)" style="stroke:#ffffff; stroke-linecap:butt; stroke-linejoin:round; stroke-width:4; stroke-opacity:1; fill:none" points="
  842.971,1422.18 842.971,106.192 
  "/>
<polyline clip-path="url(#clip582)" style="stroke:#ffffff; stroke-linecap:butt; stroke-linejoin:round; stroke-width:4; stroke-opacity:1; fill:none" points="
  988.282,1422.18 988.282,106.192 
  "/>
<polyline clip-path="url(#clip582)" style="stroke:#ffffff; stroke-linecap:butt; stroke-linejoin:round; stroke-width:4; stroke-opacity:1; fill:none" points="
  1133.59,1422.18 1133.59,106.192 
  "/>
<polyline clip-path="url(#clip582)" style="stroke:#ffffff; stroke-linecap:butt; stroke-linejoin:round; stroke-width:4; stroke-opacity:1; fill:none" points="
  1278.91,1422.18 1278.91,106.192 
  "/>
<polyline clip-path="url(#clip582)" style="stroke:#ffffff; stroke-linecap:butt; stroke-linejoin:round; stroke-width:4; stroke-opacity:1; fill:none" points="
  1424.22,1422.18 1424.22,106.192 
  "/>
<polyline clip-path="url(#clip582)" style="stroke:#ffffff; stroke-linecap:butt; stroke-linejoin:round; stroke-width:4; stroke-opacity:1; fill:none" points="
  1569.53,1422.18 1569.53,106.192 
  "/>
<polyline clip-path="url(#clip582)" style="stroke:#ffffff; stroke-linecap:butt; stroke-linejoin:round; stroke-width:4; stroke-opacity:1; fill:none" points="
  1714.84,1422.18 1714.84,106.192 
  "/>
<polyline clip-path="url(#clip582)" style="stroke:#ffffff; stroke-linecap:butt; stroke-linejoin:round; stroke-width:4; stroke-opacity:1; fill:none" points="
  1860.15,1422.18 1860.15,106.192 
  "/>
<polyline clip-path="url(#clip582)" style="stroke:#ffffff; stroke-linecap:butt; stroke-linejoin:round; stroke-width:4; stroke-opacity:1; fill:none" points="
  2005.46,1422.18 2005.46,106.192 
  "/>
<polyline clip-path="url(#clip582)" style="stroke:#ffffff; stroke-linecap:butt; stroke-linejoin:round; stroke-width:4; stroke-opacity:1; fill:none" points="
  2150.77,1422.18 2150.77,106.192 
  "/>
<polyline clip-path="url(#clip582)" style="stroke:#ffffff; stroke-linecap:butt; stroke-linejoin:round; stroke-width:4; stroke-opacity:1; fill:none" points="
  2296.08,1422.18 2296.08,106.192 
  "/>
<polyline clip-path="url(#clip582)" style="stroke:#ffffff; stroke-linecap:butt; stroke-linejoin:round; stroke-width:2; stroke-opacity:1; fill:none" points="
  479.693,1422.18 479.693,106.192 
  "/>
<polyline clip-path="url(#clip582)" style="stroke:#ffffff; stroke-linecap:butt; stroke-linejoin:round; stroke-width:2; stroke-opacity:1; fill:none" points="
  625.004,1422.18 625.004,106.192 
  "/>
<polyline clip-path="url(#clip582)" style="stroke:#ffffff; stroke-linecap:butt; stroke-linejoin:round; stroke-width:2; stroke-opacity:1; fill:none" points="
  770.315,1422.18 770.315,106.192 
  "/>
<polyline clip-path="url(#clip582)" style="stroke:#ffffff; stroke-linecap:butt; stroke-linejoin:round; stroke-width:2; stroke-opacity:1; fill:none" points="
  915.627,1422.18 915.627,106.192 
  "/>
<polyline clip-path="url(#clip582)" style="stroke:#ffffff; stroke-linecap:butt; stroke-linejoin:round; stroke-width:2; stroke-opacity:1; fill:none" points="
  1060.94,1422.18 1060.94,106.192 
  "/>
<polyline clip-path="url(#clip582)" style="stroke:#ffffff; stroke-linecap:butt; stroke-linejoin:round; stroke-width:2; stroke-opacity:1; fill:none" points="
  1206.25,1422.18 1206.25,106.192 
  "/>
<polyline clip-path="url(#clip582)" style="stroke:#ffffff; stroke-linecap:butt; stroke-linejoin:round; stroke-width:2; stroke-opacity:1; fill:none" points="
  1351.56,1422.18 1351.56,106.192 
  "/>
<polyline clip-path="url(#clip582)" style="stroke:#ffffff; stroke-linecap:butt; stroke-linejoin:round; stroke-width:2; stroke-opacity:1; fill:none" points="
  1496.87,1422.18 1496.87,106.192 
  "/>
<polyline clip-path="url(#clip582)" style="stroke:#ffffff; stroke-linecap:butt; stroke-linejoin:round; stroke-width:2; stroke-opacity:1; fill:none" points="
  1642.18,1422.18 1642.18,106.192 
  "/>
<polyline clip-path="url(#clip582)" style="stroke:#ffffff; stroke-linecap:butt; stroke-linejoin:round; stroke-width:2; stroke-opacity:1; fill:none" points="
  1787.49,1422.18 1787.49,106.192 
  "/>
<polyline clip-path="url(#clip582)" style="stroke:#ffffff; stroke-linecap:butt; stroke-linejoin:round; stroke-width:2; stroke-opacity:1; fill:none" points="
  1932.81,1422.18 1932.81,106.192 
  "/>
<polyline clip-path="url(#clip582)" style="stroke:#ffffff; stroke-linecap:butt; stroke-linejoin:round; stroke-width:2; stroke-opacity:1; fill:none" points="
  2078.12,1422.18 2078.12,106.192 
  "/>
<polyline clip-path="url(#clip582)" style="stroke:#ffffff; stroke-linecap:butt; stroke-linejoin:round; stroke-width:2; stroke-opacity:1; fill:none" points="
  2223.43,1422.18 2223.43,106.192 
  "/>
<polyline clip-path="url(#clip580)" style="stroke:#ffffff; stroke-linecap:butt; stroke-linejoin:round; stroke-width:4; stroke-opacity:1; fill:none" points="
  350.366,1422.18 2352.76,1422.18 
  "/>
<polyline clip-path="url(#clip580)" style="stroke:#333333; stroke-linecap:butt; stroke-linejoin:round; stroke-width:4; stroke-opacity:1; fill:none" points="
  407.037,1422.18 407.037,1441.07 
  "/>
<polyline clip-path="url(#clip580)" style="stroke:#333333; stroke-linecap:butt; stroke-linejoin:round; stroke-width:4; stroke-opacity:1; fill:none" points="
  552.348,1422.18 552.348,1441.07 
  "/>
<polyline clip-path="url(#clip580)" style="stroke:#333333; stroke-linecap:butt; stroke-linejoin:round; stroke-width:4; stroke-opacity:1; fill:none" points="
  697.66,1422.18 697.66,1441.07 
  "/>
<polyline clip-path="url(#clip580)" style="stroke:#333333; stroke-linecap:butt; stroke-linejoin:round; stroke-width:4; stroke-opacity:1; fill:none" points="
  842.971,1422.18 842.971,1441.07 
  "/>
<polyline clip-path="url(#clip580)" style="stroke:#333333; stroke-linecap:butt; stroke-linejoin:round; stroke-width:4; stroke-opacity:1; fill:none" points="
  988.282,1422.18 988.282,1441.07 
  "/>
<polyline clip-path="url(#clip580)" style="stroke:#333333; stroke-linecap:butt; stroke-linejoin:round; stroke-width:4; stroke-opacity:1; fill:none" points="
  1133.59,1422.18 1133.59,1441.07 
  "/>
<polyline clip-path="url(#clip580)" style="stroke:#333333; stroke-linecap:butt; stroke-linejoin:round; stroke-width:4; stroke-opacity:1; fill:none" points="
  1278.91,1422.18 1278.91,1441.07 
  "/>
<polyline clip-path="url(#clip580)" style="stroke:#333333; stroke-linecap:butt; stroke-linejoin:round; stroke-width:4; stroke-opacity:1; fill:none" points="
  1424.22,1422.18 1424.22,1441.07 
  "/>
<polyline clip-path="url(#clip580)" style="stroke:#333333; stroke-linecap:butt; stroke-linejoin:round; stroke-width:4; stroke-opacity:1; fill:none" points="
  1569.53,1422.18 1569.53,1441.07 
  "/>
<polyline clip-path="url(#clip580)" style="stroke:#333333; stroke-linecap:butt; stroke-linejoin:round; stroke-width:4; stroke-opacity:1; fill:none" points="
  1714.84,1422.18 1714.84,1441.07 
  "/>
<polyline clip-path="url(#clip580)" style="stroke:#333333; stroke-linecap:butt; stroke-linejoin:round; stroke-width:4; stroke-opacity:1; fill:none" points="
  1860.15,1422.18 1860.15,1441.07 
  "/>
<polyline clip-path="url(#clip580)" style="stroke:#333333; stroke-linecap:butt; stroke-linejoin:round; stroke-width:4; stroke-opacity:1; fill:none" points="
  2005.46,1422.18 2005.46,1441.07 
  "/>
<polyline clip-path="url(#clip580)" style="stroke:#333333; stroke-linecap:butt; stroke-linejoin:round; stroke-width:4; stroke-opacity:1; fill:none" points="
  2150.77,1422.18 2150.77,1441.07 
  "/>
<polyline clip-path="url(#clip580)" style="stroke:#333333; stroke-linecap:butt; stroke-linejoin:round; stroke-width:4; stroke-opacity:1; fill:none" points="
  2296.08,1422.18 2296.08,1441.07 
  "/>
<polyline clip-path="url(#clip580)" style="stroke:#333333; stroke-linecap:butt; stroke-linejoin:round; stroke-width:4; stroke-opacity:1; fill:none" points="
  479.693,1422.18 479.693,1431.63 
  "/>
<polyline clip-path="url(#clip580)" style="stroke:#333333; stroke-linecap:butt; stroke-linejoin:round; stroke-width:4; stroke-opacity:1; fill:none" points="
  625.004,1422.18 625.004,1431.63 
  "/>
<polyline clip-path="url(#clip580)" style="stroke:#333333; stroke-linecap:butt; stroke-linejoin:round; stroke-width:4; stroke-opacity:1; fill:none" points="
  770.315,1422.18 770.315,1431.63 
  "/>
<polyline clip-path="url(#clip580)" style="stroke:#333333; stroke-linecap:butt; stroke-linejoin:round; stroke-width:4; stroke-opacity:1; fill:none" points="
  915.627,1422.18 915.627,1431.63 
  "/>
<polyline clip-path="url(#clip580)" style="stroke:#333333; stroke-linecap:butt; stroke-linejoin:round; stroke-width:4; stroke-opacity:1; fill:none" points="
  1060.94,1422.18 1060.94,1431.63 
  "/>
<polyline clip-path="url(#clip580)" style="stroke:#333333; stroke-linecap:butt; stroke-linejoin:round; stroke-width:4; stroke-opacity:1; fill:none" points="
  1206.25,1422.18 1206.25,1431.63 
  "/>
<polyline clip-path="url(#clip580)" style="stroke:#333333; stroke-linecap:butt; stroke-linejoin:round; stroke-width:4; stroke-opacity:1; fill:none" points="
  1351.56,1422.18 1351.56,1431.63 
  "/>
<polyline clip-path="url(#clip580)" style="stroke:#333333; stroke-linecap:butt; stroke-linejoin:round; stroke-width:4; stroke-opacity:1; fill:none" points="
  1496.87,1422.18 1496.87,1431.63 
  "/>
<polyline clip-path="url(#clip580)" style="stroke:#333333; stroke-linecap:butt; stroke-linejoin:round; stroke-width:4; stroke-opacity:1; fill:none" points="
  1642.18,1422.18 1642.18,1431.63 
  "/>
<polyline clip-path="url(#clip580)" style="stroke:#333333; stroke-linecap:butt; stroke-linejoin:round; stroke-width:4; stroke-opacity:1; fill:none" points="
  1787.49,1422.18 1787.49,1431.63 
  "/>
<polyline clip-path="url(#clip580)" style="stroke:#333333; stroke-linecap:butt; stroke-linejoin:round; stroke-width:4; stroke-opacity:1; fill:none" points="
  1932.81,1422.18 1932.81,1431.63 
  "/>
<polyline clip-path="url(#clip580)" style="stroke:#333333; stroke-linecap:butt; stroke-linejoin:round; stroke-width:4; stroke-opacity:1; fill:none" points="
  2078.12,1422.18 2078.12,1431.63 
  "/>
<polyline clip-path="url(#clip580)" style="stroke:#333333; stroke-linecap:butt; stroke-linejoin:round; stroke-width:4; stroke-opacity:1; fill:none" points="
  2223.43,1422.18 2223.43,1431.63 
  "/>
<path clip-path="url(#clip580)" d="M420.74 1463.13 Q419.386 1460.78 416.385 1460.93 Q413.408 1461.09 408.777 1463.76 Q404.161 1466.43 402.523 1468.94 Q400.908 1471.45 402.262 1473.8 Q403.625 1476.16 406.602 1476 Q409.604 1475.85 414.219 1473.19 Q418.85 1470.52 420.465 1468 Q422.103 1465.49 420.74 1463.13 M423.146 1461.74 Q425.325 1465.51 423.479 1469.23 Q421.656 1472.94 415.973 1476.23 Q410.305 1479.5 406.158 1479.23 Q402.035 1478.96 399.857 1475.19 Q397.678 1471.41 399.5 1467.69 Q401.346 1463.98 407.015 1460.71 Q412.698 1457.43 416.821 1457.69 Q420.967 1457.97 423.146 1461.74 Z" fill="#4c4c4c" fill-rule="evenodd" fill-opacity="1" /><path clip-path="url(#clip580)" d="M543.932 1466.14 L546.797 1471.1 L563.922 1461.21 L559.723 1456.44 L562.49 1454.84 L566.671 1459.58 L568.425 1462.62 L548.533 1474.11 L551.398 1479.07 L548.842 1480.54 L541.376 1467.61 L543.932 1466.14 Z" fill="#4c4c4c" fill-rule="evenodd" fill-opacity="1" /><path clip-path="url(#clip580)" d="M576.581 1481.37 Q575.227 1479.02 572.226 1479.17 Q569.248 1479.33 564.617 1482 Q560.002 1484.66 558.363 1487.17 Q556.749 1489.69 558.103 1492.04 Q559.466 1494.4 562.443 1494.24 Q565.444 1494.09 570.06 1491.43 Q574.691 1488.75 576.306 1486.24 Q577.944 1483.73 576.581 1481.37 M578.987 1479.98 Q581.165 1483.75 579.319 1487.46 Q577.497 1491.18 571.814 1494.46 Q566.145 1497.74 561.999 1497.46 Q557.876 1497.2 555.697 1493.42 Q553.519 1489.65 555.341 1485.93 Q557.187 1482.22 562.855 1478.95 Q568.539 1475.67 572.661 1475.93 Q576.808 1476.2 578.987 1479.98 Z" fill="#4c4c4c" fill-rule="evenodd" fill-opacity="1" /><path clip-path="url(#clip580)" d="M691.101 1469.35 L697.221 1479.95 L694.665 1481.43 L686.436 1467.18 L688.992 1465.7 Q691.779 1466.4 696.505 1467.64 Q701.255 1468.89 702.569 1469.15 Q705.05 1469.66 706.508 1469.58 Q707.989 1469.51 709.087 1468.87 Q710.876 1467.84 711.274 1465.93 Q711.681 1464.03 710.518 1462.01 Q709.694 1460.59 708.277 1459.28 Q706.87 1457.99 704.821 1456.76 L707.888 1454.99 Q709.683 1456.4 710.98 1457.78 Q712.276 1459.15 713.039 1460.48 Q715.053 1463.97 714.507 1467.05 Q713.961 1470.13 711.044 1471.81 Q709.661 1472.61 708.109 1472.81 Q706.581 1473.01 704.107 1472.61 Q703.454 1472.49 700.201 1471.68 Q696.963 1470.86 691.101 1469.35 Z" fill="#4c4c4c" fill-rule="evenodd" fill-opacity="1" /><path clip-path="url(#clip580)" d="M722.543 1482.49 Q721.189 1480.15 718.188 1480.3 Q715.211 1480.45 710.58 1483.13 Q705.964 1485.79 704.326 1488.3 Q702.711 1490.82 704.065 1493.16 Q705.428 1495.52 708.406 1495.37 Q711.407 1495.22 716.023 1492.55 Q720.653 1489.88 722.268 1487.36 Q723.906 1484.86 722.543 1482.49 M724.949 1481.11 Q727.128 1484.88 725.282 1488.59 Q723.459 1492.31 717.776 1495.59 Q712.108 1498.86 707.961 1498.59 Q703.839 1498.33 701.66 1494.55 Q699.481 1490.78 701.303 1487.06 Q703.149 1483.35 708.818 1480.08 Q714.501 1476.79 718.624 1477.06 Q722.77 1477.33 724.949 1481.11 Z" fill="#4c4c4c" fill-rule="evenodd" fill-opacity="1" /><path clip-path="url(#clip580)" d="M849.71 1470.34 Q850.503 1472.79 849.732 1474.86 Q848.971 1476.94 846.806 1478.19 Q843.483 1480.11 840.344 1478.87 Q837.205 1477.64 834.775 1473.43 Q833.959 1472.01 833.377 1470.35 Q832.788 1468.7 832.424 1466.79 L835.356 1465.09 Q835.348 1466.78 835.84 1468.5 Q836.333 1470.22 837.279 1471.86 Q838.928 1474.72 840.915 1475.56 Q842.911 1476.41 845.061 1475.17 Q847.045 1474.02 847.351 1471.98 Q847.68 1469.95 846.247 1467.47 L844.737 1464.85 L847.233 1463.41 L848.813 1466.14 Q850.106 1468.38 851.679 1469.06 Q853.267 1469.73 854.951 1468.76 Q856.68 1467.76 856.885 1465.99 Q857.114 1464.24 855.795 1461.95 Q855.074 1460.71 853.979 1459.43 Q852.884 1458.16 851.323 1456.78 L854.029 1455.21 Q855.509 1456.67 856.617 1458.03 Q857.734 1459.41 858.507 1460.75 Q860.504 1464.21 860.088 1467.13 Q859.688 1470.05 857.011 1471.6 Q855.147 1472.67 853.238 1472.35 Q851.343 1472.02 849.71 1470.34 Z" fill="#4c4c4c" fill-rule="evenodd" fill-opacity="1" /><path clip-path="url(#clip580)" d="M867.803 1482.4 Q866.449 1480.06 863.447 1480.21 Q860.47 1480.36 855.839 1483.04 Q851.223 1485.7 849.585 1488.21 Q847.97 1490.73 849.325 1493.07 Q850.687 1495.43 853.665 1495.28 Q856.666 1495.13 861.282 1492.46 Q865.913 1489.79 867.527 1487.27 Q869.166 1484.76 867.803 1482.4 M870.208 1481.02 Q872.387 1484.79 870.541 1488.5 Q868.719 1492.22 863.035 1495.5 Q857.367 1498.77 853.221 1498.5 Q849.098 1498.24 846.919 1494.46 Q844.74 1490.69 846.563 1486.97 Q848.409 1483.26 854.077 1479.98 Q859.76 1476.7 863.883 1476.97 Q868.03 1477.24 870.208 1481.02 Z" fill="#4c4c4c" fill-rule="evenodd" fill-opacity="1" /><path clip-path="url(#clip580)" d="M1002.71 1465.88 L986.301 1465.13 L990.728 1472.8 L1002.71 1465.88 M1004.9 1463.55 L1007.1 1467.37 L992.472 1475.82 L994.321 1479.02 L991.796 1480.48 L989.947 1477.28 L984.654 1480.33 L982.909 1477.31 L988.202 1474.25 L982.351 1464.12 L985.283 1462.43 L1004.9 1463.55 Z" fill="#4c4c4c" fill-rule="evenodd" fill-opacity="1" /><path clip-path="url(#clip580)" d="M1013.6 1483.25 Q1012.25 1480.9 1009.24 1481.05 Q1006.27 1481.21 1001.64 1483.88 Q997.021 1486.54 995.382 1489.05 Q993.768 1491.57 995.122 1493.91 Q996.485 1496.28 999.462 1496.12 Q1002.46 1495.97 1007.08 1493.31 Q1011.71 1490.63 1013.32 1488.12 Q1014.96 1485.61 1013.6 1483.25 M1016.01 1481.86 Q1018.18 1485.63 1016.34 1489.34 Q1014.52 1493.06 1008.83 1496.34 Q1003.16 1499.62 999.018 1499.34 Q994.895 1499.08 992.716 1495.3 Q990.538 1491.53 992.36 1487.81 Q994.206 1484.1 999.874 1480.83 Q1005.56 1477.55 1009.68 1477.81 Q1013.83 1478.08 1016.01 1481.86 Z" fill="#4c4c4c" fill-rule="evenodd" fill-opacity="1" /><path clip-path="url(#clip580)" d="M1145.36 1455.16 L1152.25 1467.09 L1149.69 1468.56 L1144.41 1459.42 L1138.91 1462.6 Q1139.52 1463.13 1140.01 1463.73 Q1140.51 1464.32 1140.89 1464.98 Q1143.06 1468.74 1142.27 1472.13 Q1141.48 1475.51 1137.96 1477.54 Q1134.33 1479.63 1131.02 1478.54 Q1127.72 1477.44 1125.35 1473.34 Q1124.53 1471.92 1123.92 1470.31 Q1123.32 1468.71 1122.9 1466.87 L1125.95 1465.11 Q1125.99 1466.89 1126.47 1468.54 Q1126.94 1470.19 1127.87 1471.8 Q1129.37 1474.4 1131.61 1475.13 Q1133.86 1475.86 1136.2 1474.51 Q1138.55 1473.15 1139.04 1470.84 Q1139.53 1468.53 1138.03 1465.93 Q1137.33 1464.72 1136.35 1463.65 Q1135.39 1462.61 1134.09 1461.67 L1145.36 1455.16 Z" fill="#4c4c4c" fill-rule="evenodd" fill-opacity="1" /><path clip-path="url(#clip580)" d="M1158.41 1482.37 Q1157.05 1480.03 1154.05 1480.18 Q1151.08 1480.33 1146.44 1483.01 Q1141.83 1485.67 1140.19 1488.18 Q1138.58 1490.7 1139.93 1493.04 Q1141.29 1495.4 1144.27 1495.25 Q1147.27 1495.1 1151.89 1492.43 Q1156.52 1489.76 1158.13 1487.24 Q1159.77 1484.73 1158.41 1482.37 M1160.81 1480.99 Q1162.99 1484.76 1161.15 1488.47 Q1159.32 1492.19 1153.64 1495.47 Q1147.97 1498.74 1143.83 1498.47 Q1139.7 1498.21 1137.52 1494.43 Q1135.35 1490.66 1137.17 1486.94 Q1139.01 1483.23 1144.68 1479.95 Q1150.37 1476.67 1154.49 1476.94 Q1158.63 1477.21 1160.81 1480.99 Z" fill="#4c4c4c" fill-rule="evenodd" fill-opacity="1" /><path clip-path="url(#clip580)" d="M1284.74 1468.01 Q1283.56 1465.97 1281.47 1465.57 Q1279.38 1465.19 1276.95 1466.6 Q1274.53 1467.99 1273.8 1470 Q1273.1 1472.01 1274.28 1474.05 Q1275.46 1476.1 1277.54 1476.48 Q1279.65 1476.87 1282.07 1475.47 Q1284.51 1474.06 1285.21 1472.05 Q1285.92 1470.06 1284.74 1468.01 M1297.74 1468.55 L1294.97 1470.14 Q1294.86 1468.69 1294.46 1467.35 Q1294.08 1466.03 1293.42 1464.89 Q1291.69 1461.88 1288.74 1461.46 Q1285.79 1461.05 1281.56 1463.19 Q1283.38 1463.33 1284.84 1464.26 Q1286.32 1465.19 1287.25 1466.8 Q1289.21 1470.19 1288.27 1473.33 Q1287.37 1476.48 1283.83 1478.52 Q1280.37 1480.52 1277.1 1479.68 Q1273.83 1478.84 1271.87 1475.44 Q1269.62 1471.55 1271.41 1467.77 Q1273.21 1463.98 1278.88 1460.71 Q1284.2 1457.64 1288.82 1458.34 Q1293.45 1459.03 1295.91 1463.29 Q1296.57 1464.43 1297.01 1465.72 Q1297.46 1467.02 1297.74 1468.55 Z" fill="#4c4c4c" fill-rule="evenodd" fill-opacity="1" /><path clip-path="url(#clip580)" d="M1303.85 1482.6 Q1302.5 1480.25 1299.49 1480.4 Q1296.52 1480.56 1291.89 1483.23 Q1287.27 1485.9 1285.63 1488.41 Q1284.02 1490.92 1285.37 1493.27 Q1286.73 1495.63 1289.71 1495.47 Q1292.71 1495.32 1297.33 1492.66 Q1301.96 1489.99 1303.57 1487.47 Q1305.21 1484.96 1303.85 1482.6 M1306.26 1481.21 Q1308.43 1484.98 1306.59 1488.7 Q1304.77 1492.42 1299.08 1495.7 Q1293.41 1498.97 1289.27 1498.7 Q1285.14 1498.43 1282.97 1494.66 Q1280.79 1490.88 1282.61 1487.16 Q1284.46 1483.45 1290.12 1480.18 Q1295.81 1476.9 1299.93 1477.16 Q1304.08 1477.44 1306.26 1481.21 Z" fill="#4c4c4c" fill-rule="evenodd" fill-opacity="1" /><path clip-path="url(#clip580)" d="M1435.44 1454.22 L1443.77 1468.65 L1442.48 1469.4 L1416.62 1473.46 L1414.79 1470.29 L1439.11 1466.47 L1432.88 1455.69 L1435.44 1454.22 Z" fill="#4c4c4c" fill-rule="evenodd" fill-opacity="1" /><path clip-path="url(#clip580)" d="M1448.94 1482.22 Q1447.59 1479.88 1444.59 1480.03 Q1441.61 1480.18 1436.98 1482.86 Q1432.36 1485.52 1430.73 1488.03 Q1429.11 1490.55 1430.47 1492.89 Q1431.83 1495.25 1434.81 1495.1 Q1437.81 1494.95 1442.42 1492.28 Q1447.05 1489.61 1448.67 1487.09 Q1450.31 1484.58 1448.94 1482.22 M1451.35 1480.84 Q1453.53 1484.61 1451.68 1488.32 Q1449.86 1492.04 1444.18 1495.32 Q1438.51 1498.59 1434.36 1498.32 Q1430.24 1498.06 1428.06 1494.28 Q1425.88 1490.51 1427.7 1486.79 Q1429.55 1483.08 1435.22 1479.8 Q1440.9 1476.52 1445.02 1476.79 Q1449.17 1477.06 1451.35 1480.84 Z" fill="#4c4c4c" fill-rule="evenodd" fill-opacity="1" /><path clip-path="url(#clip580)" d="M1573.41 1468.72 Q1572.16 1466.56 1570.28 1465.98 Q1568.41 1465.41 1566.38 1466.58 Q1564.35 1467.76 1563.91 1469.66 Q1563.47 1471.57 1564.72 1473.74 Q1565.97 1475.9 1567.85 1476.48 Q1569.74 1477.05 1571.75 1475.89 Q1573.78 1474.72 1574.22 1472.8 Q1574.67 1470.9 1573.41 1468.72 M1572.95 1464.94 Q1572.3 1462.7 1573.01 1460.83 Q1573.72 1458.98 1575.64 1457.87 Q1578.33 1456.31 1581 1457.32 Q1583.67 1458.34 1585.6 1461.68 Q1587.54 1465.03 1587.08 1467.85 Q1586.62 1470.66 1583.92 1472.21 Q1582 1473.32 1580.03 1473 Q1578.06 1472.69 1576.46 1471.03 Q1577.22 1473.52 1576.43 1475.59 Q1575.66 1477.69 1573.51 1478.93 Q1570.25 1480.81 1567.35 1479.82 Q1564.46 1478.84 1562.31 1475.13 Q1560.17 1471.41 1560.76 1468.41 Q1561.36 1465.41 1564.62 1463.53 Q1566.77 1462.29 1568.97 1462.66 Q1571.17 1463.04 1572.95 1464.94 M1577.1 1461.06 Q1575.36 1462.06 1575.01 1463.71 Q1574.66 1465.37 1575.8 1467.34 Q1576.93 1469.29 1578.54 1469.83 Q1580.16 1470.38 1581.9 1469.37 Q1583.65 1468.36 1583.98 1466.69 Q1584.32 1465.02 1583.2 1463.07 Q1582.06 1461.1 1580.45 1460.57 Q1578.85 1460.05 1577.1 1461.06 Z" fill="#4c4c4c" fill-rule="evenodd" fill-opacity="1" /><path clip-path="url(#clip580)" d="M1594.51 1482.66 Q1593.15 1480.31 1590.15 1480.46 Q1587.17 1480.62 1582.54 1483.29 Q1577.93 1485.96 1576.29 1488.47 Q1574.67 1490.98 1576.03 1493.33 Q1577.39 1495.69 1580.37 1495.53 Q1583.37 1495.38 1587.99 1492.72 Q1592.62 1490.05 1594.23 1487.53 Q1595.87 1485.02 1594.51 1482.66 M1596.91 1481.27 Q1599.09 1485.04 1597.25 1488.76 Q1595.42 1492.48 1589.74 1495.76 Q1584.07 1499.03 1579.92 1498.76 Q1575.8 1498.49 1573.62 1494.72 Q1571.44 1490.94 1573.27 1487.23 Q1575.11 1483.51 1580.78 1480.24 Q1586.46 1476.96 1590.59 1477.23 Q1594.73 1477.5 1596.91 1481.27 Z" fill="#4c4c4c" fill-rule="evenodd" fill-opacity="1" /><path clip-path="url(#clip580)" d="M1704.91 1468.35 L1707.68 1466.75 Q1707.8 1468.21 1708.19 1469.55 Q1708.58 1470.88 1709.23 1472.01 Q1710.97 1475.02 1713.9 1475.43 Q1716.85 1475.86 1721.1 1473.7 Q1719.3 1473.58 1717.83 1472.64 Q1716.37 1471.7 1715.43 1470.08 Q1713.49 1466.71 1714.38 1463.57 Q1715.3 1460.43 1718.83 1458.39 Q1722.29 1456.4 1725.56 1457.23 Q1728.83 1458.07 1730.79 1461.47 Q1733.04 1465.36 1731.23 1469.14 Q1729.44 1472.91 1723.76 1476.2 Q1718.45 1479.26 1713.82 1478.57 Q1709.21 1477.88 1706.76 1473.62 Q1706.1 1472.48 1705.64 1471.18 Q1705.19 1469.87 1704.91 1468.35 M1717.92 1468.9 Q1719.1 1470.95 1721.19 1471.33 Q1723.28 1471.72 1725.71 1470.32 Q1728.14 1468.92 1728.84 1466.91 Q1729.57 1464.9 1728.39 1462.86 Q1727.21 1460.81 1725.1 1460.43 Q1723.01 1460.05 1720.59 1461.44 Q1718.16 1462.85 1717.44 1464.85 Q1716.74 1466.86 1717.92 1468.9 Z" fill="#4c4c4c" fill-rule="evenodd" fill-opacity="1" /><path clip-path="url(#clip580)" d="M1739.91 1482.81 Q1738.55 1480.46 1735.55 1480.61 Q1732.57 1480.77 1727.94 1483.44 Q1723.33 1486.11 1721.69 1488.62 Q1720.07 1491.13 1721.43 1493.48 Q1722.79 1495.84 1725.77 1495.68 Q1728.77 1495.53 1733.38 1492.87 Q1738.01 1490.2 1739.63 1487.68 Q1741.27 1485.17 1739.91 1482.81 M1742.31 1481.42 Q1744.49 1485.2 1742.64 1488.91 Q1740.82 1492.63 1735.14 1495.91 Q1729.47 1499.18 1725.32 1498.91 Q1721.2 1498.64 1719.02 1494.87 Q1716.84 1491.09 1718.66 1487.38 Q1720.51 1483.66 1726.18 1480.39 Q1731.86 1477.11 1735.99 1477.38 Q1740.13 1477.65 1742.31 1481.42 Z" fill="#4c4c4c" fill-rule="evenodd" fill-opacity="1" /><path clip-path="url(#clip580)" d="M1851.73 1466.14 L1854.6 1471.1 L1871.72 1461.21 L1867.53 1456.44 L1870.29 1454.84 L1874.47 1459.58 L1876.23 1462.62 L1856.34 1474.11 L1859.2 1479.07 L1856.64 1480.54 L1849.18 1467.61 L1851.73 1466.14 Z" fill="#4c4c4c" fill-rule="evenodd" fill-opacity="1" /><path clip-path="url(#clip580)" d="M1884.38 1481.37 Q1883.03 1479.02 1880.03 1479.17 Q1877.05 1479.33 1872.42 1482 Q1867.8 1484.66 1866.17 1487.17 Q1864.55 1489.69 1865.9 1492.04 Q1867.27 1494.4 1870.25 1494.24 Q1873.25 1494.09 1877.86 1491.43 Q1882.49 1488.75 1884.11 1486.24 Q1885.75 1483.73 1884.38 1481.37 M1886.79 1479.98 Q1888.97 1483.75 1887.12 1487.46 Q1885.3 1491.18 1879.62 1494.46 Q1873.95 1497.74 1869.8 1497.46 Q1865.68 1497.2 1863.5 1493.42 Q1861.32 1489.65 1863.14 1485.93 Q1864.99 1482.22 1870.66 1478.95 Q1876.34 1475.67 1880.46 1475.93 Q1884.61 1476.2 1886.79 1479.98 Z" fill="#4c4c4c" fill-rule="evenodd" fill-opacity="1" /><path clip-path="url(#clip580)" d="M1895.69 1500.96 Q1894.34 1498.61 1891.34 1498.76 Q1888.36 1498.92 1883.73 1501.59 Q1879.11 1504.26 1877.48 1506.76 Q1875.86 1509.28 1877.22 1511.63 Q1878.58 1513.99 1881.56 1513.83 Q1884.56 1513.68 1889.17 1511.02 Q1893.8 1508.34 1895.42 1505.83 Q1897.06 1503.32 1895.69 1500.96 M1898.1 1499.57 Q1900.28 1503.34 1898.43 1507.05 Q1896.61 1510.77 1890.93 1514.05 Q1885.26 1517.33 1881.11 1517.05 Q1876.99 1516.79 1874.81 1513.01 Q1872.63 1509.24 1874.45 1505.52 Q1876.3 1501.81 1881.97 1498.54 Q1887.65 1495.26 1891.77 1495.52 Q1895.92 1495.8 1898.1 1499.57 Z" fill="#4c4c4c" fill-rule="evenodd" fill-opacity="1" /><path clip-path="url(#clip580)" d="M1997.05 1466.14 L1999.91 1471.1 L2017.04 1461.21 L2012.84 1456.44 L2015.6 1454.84 L2019.78 1459.58 L2021.54 1462.62 L2001.65 1474.11 L2004.51 1479.07 L2001.96 1480.54 L1994.49 1467.61 L1997.05 1466.14 Z" fill="#4c4c4c" fill-rule="evenodd" fill-opacity="1" /><path clip-path="url(#clip580)" d="M2008.36 1485.73 L2011.22 1490.69 L2028.35 1480.8 L2024.15 1476.03 L2026.91 1474.43 L2031.1 1479.18 L2032.85 1482.21 L2012.96 1493.7 L2015.82 1498.66 L2013.27 1500.13 L2005.8 1487.2 L2008.36 1485.73 Z" fill="#4c4c4c" fill-rule="evenodd" fill-opacity="1" /><path clip-path="url(#clip580)" d="M2041.01 1500.96 Q2039.65 1498.61 2036.65 1498.76 Q2033.67 1498.92 2029.04 1501.59 Q2024.43 1504.26 2022.79 1506.76 Q2021.17 1509.28 2022.53 1511.63 Q2023.89 1513.99 2026.87 1513.83 Q2029.87 1513.68 2034.48 1511.02 Q2039.12 1508.34 2040.73 1505.83 Q2042.37 1503.32 2041.01 1500.96 M2043.41 1499.57 Q2045.59 1503.34 2043.74 1507.05 Q2041.92 1510.77 2036.24 1514.05 Q2030.57 1517.33 2026.42 1517.05 Q2022.3 1516.79 2020.12 1513.01 Q2017.94 1509.24 2019.77 1505.52 Q2021.61 1501.81 2027.28 1498.54 Q2032.96 1495.26 2037.09 1495.52 Q2041.23 1495.8 2043.41 1499.57 Z" fill="#4c4c4c" fill-rule="evenodd" fill-opacity="1" /><path clip-path="url(#clip580)" d="M2142.36 1466.14 L2145.22 1471.1 L2162.35 1461.21 L2158.15 1456.44 L2160.91 1454.84 L2165.1 1459.58 L2166.85 1462.62 L2146.96 1474.11 L2149.82 1479.07 L2147.27 1480.54 L2139.8 1467.61 L2142.36 1466.14 Z" fill="#4c4c4c" fill-rule="evenodd" fill-opacity="1" /><path clip-path="url(#clip580)" d="M2154.87 1487.82 L2160.99 1498.42 L2158.44 1499.89 L2150.21 1485.64 L2152.77 1484.16 Q2155.55 1484.86 2160.28 1486.1 Q2165.03 1487.35 2166.34 1487.61 Q2168.82 1488.12 2170.28 1488.04 Q2171.76 1487.97 2172.86 1487.34 Q2174.65 1486.3 2175.05 1484.39 Q2175.45 1482.49 2174.29 1480.48 Q2173.47 1479.05 2172.05 1477.74 Q2170.64 1476.45 2168.59 1475.23 L2171.66 1473.46 Q2173.46 1474.86 2174.75 1476.24 Q2176.05 1477.62 2176.81 1478.94 Q2178.83 1482.43 2178.28 1485.51 Q2177.73 1488.59 2174.82 1490.28 Q2173.43 1491.08 2171.88 1491.27 Q2170.35 1491.47 2167.88 1491.07 Q2167.23 1490.95 2163.97 1490.14 Q2160.74 1489.32 2154.87 1487.82 Z" fill="#4c4c4c" fill-rule="evenodd" fill-opacity="1" /><path clip-path="url(#clip580)" d="M2186.32 1500.96 Q2184.96 1498.61 2181.96 1498.76 Q2178.98 1498.92 2174.35 1501.59 Q2169.74 1504.26 2168.1 1506.76 Q2166.48 1509.28 2167.84 1511.63 Q2169.2 1513.99 2172.18 1513.83 Q2175.18 1513.68 2179.8 1511.02 Q2184.43 1508.34 2186.04 1505.83 Q2187.68 1503.32 2186.32 1500.96 M2188.72 1499.57 Q2190.9 1503.34 2189.05 1507.05 Q2187.23 1510.77 2181.55 1514.05 Q2175.88 1517.33 2171.73 1517.05 Q2167.61 1516.79 2165.43 1513.01 Q2163.25 1509.24 2165.08 1505.52 Q2166.92 1501.81 2172.59 1498.54 Q2178.27 1495.26 2182.4 1495.52 Q2186.54 1495.8 2188.72 1499.57 Z" fill="#4c4c4c" fill-rule="evenodd" fill-opacity="1" /><path clip-path="url(#clip580)" d="M2287.67 1466.14 L2290.53 1471.1 L2307.66 1461.21 L2303.46 1456.44 L2306.23 1454.84 L2310.41 1459.58 L2312.16 1462.62 L2292.27 1474.11 L2295.13 1479.07 L2292.58 1480.54 L2285.11 1467.61 L2287.67 1466.14 Z" fill="#4c4c4c" fill-rule="evenodd" fill-opacity="1" /><path clip-path="url(#clip580)" d="M2313.54 1488.89 Q2314.33 1491.34 2313.56 1493.41 Q2312.8 1495.49 2310.63 1496.74 Q2307.31 1498.66 2304.17 1497.43 Q2301.03 1496.19 2298.6 1491.98 Q2297.78 1490.57 2297.2 1488.9 Q2296.61 1487.25 2296.25 1485.34 L2299.18 1483.65 Q2299.17 1485.34 2299.67 1487.06 Q2300.16 1488.78 2301.1 1490.41 Q2302.75 1493.27 2304.74 1494.11 Q2306.74 1494.96 2308.89 1493.72 Q2310.87 1492.57 2311.18 1490.53 Q2311.5 1488.5 2310.07 1486.02 L2308.56 1483.4 L2311.06 1481.96 L2312.64 1484.7 Q2313.93 1486.94 2315.5 1487.61 Q2317.09 1488.28 2318.78 1487.31 Q2320.5 1486.31 2320.71 1484.55 Q2320.94 1482.79 2319.62 1480.51 Q2318.9 1479.26 2317.8 1477.99 Q2316.71 1476.71 2315.15 1475.33 L2317.85 1473.77 Q2319.33 1475.22 2320.44 1476.58 Q2321.56 1477.96 2322.33 1479.3 Q2324.33 1482.76 2323.91 1485.69 Q2323.51 1488.6 2320.84 1490.15 Q2318.97 1491.22 2317.06 1490.9 Q2315.17 1490.57 2313.54 1488.89 Z" fill="#4c4c4c" fill-rule="evenodd" fill-opacity="1" /><path clip-path="url(#clip580)" d="M2331.63 1500.96 Q2330.27 1498.61 2327.27 1498.76 Q2324.3 1498.92 2319.66 1501.59 Q2315.05 1504.26 2313.41 1506.76 Q2311.8 1509.28 2313.15 1511.63 Q2314.51 1513.99 2317.49 1513.83 Q2320.49 1513.68 2325.11 1511.02 Q2329.74 1508.34 2331.35 1505.83 Q2332.99 1503.32 2331.63 1500.96 M2334.03 1499.57 Q2336.21 1503.34 2334.37 1507.05 Q2332.54 1510.77 2326.86 1514.05 Q2321.19 1517.33 2317.05 1517.05 Q2312.92 1516.79 2310.74 1513.01 Q2308.57 1509.24 2310.39 1505.52 Q2312.23 1501.81 2317.9 1498.54 Q2323.59 1495.26 2327.71 1495.52 Q2331.85 1495.8 2334.03 1499.57 Z" fill="#4c4c4c" fill-rule="evenodd" fill-opacity="1" /><path clip-path="url(#clip580)" d="M1242.15 1537.87 L1246.83 1537.87 L1246.83 1572.43 L1242.15 1572.43 L1242.15 1537.87 Z" fill="#000000" fill-rule="evenodd" fill-opacity="1" /><path clip-path="url(#clip580)" d="M1260.16 1539.15 L1260.16 1546.51 L1268.93 1546.51 L1268.93 1549.82 L1260.16 1549.82 L1260.16 1563.89 Q1260.16 1567.06 1261.02 1567.97 Q1261.9 1568.87 1264.56 1568.87 L1268.93 1568.87 L1268.93 1572.43 L1264.56 1572.43 Q1259.63 1572.43 1257.75 1570.6 Q1255.88 1568.75 1255.88 1563.89 L1255.88 1549.82 L1252.75 1549.82 L1252.75 1546.51 L1255.88 1546.51 L1255.88 1539.15 L1260.16 1539.15 Z" fill="#000000" fill-rule="evenodd" fill-opacity="1" /><path clip-path="url(#clip580)" d="M1296.71 1558.41 L1296.71 1560.49 L1277.13 1560.49 Q1277.41 1564.89 1279.77 1567.2 Q1282.15 1569.49 1286.39 1569.49 Q1288.84 1569.49 1291.13 1568.89 Q1293.45 1568.29 1295.72 1567.09 L1295.72 1571.11 Q1293.42 1572.09 1291.02 1572.6 Q1288.61 1573.1 1286.13 1573.1 Q1279.93 1573.1 1276.29 1569.49 Q1272.68 1565.88 1272.68 1559.73 Q1272.68 1553.36 1276.11 1549.63 Q1279.56 1545.88 1285.39 1545.88 Q1290.62 1545.88 1293.66 1549.26 Q1296.71 1552.62 1296.71 1558.41 M1292.45 1557.16 Q1292.41 1553.66 1290.48 1551.58 Q1288.59 1549.49 1285.44 1549.49 Q1281.87 1549.49 1279.72 1551.51 Q1277.59 1553.52 1277.27 1557.18 L1292.45 1557.16 Z" fill="#000000" fill-rule="evenodd" fill-opacity="1" /><path clip-path="url(#clip580)" d="M1318.73 1550.49 Q1318.01 1550.07 1317.15 1549.89 Q1316.32 1549.68 1315.3 1549.68 Q1311.69 1549.68 1309.74 1552.04 Q1307.82 1554.38 1307.82 1558.78 L1307.82 1572.43 L1303.54 1572.43 L1303.54 1546.51 L1307.82 1546.51 L1307.82 1550.54 Q1309.17 1548.17 1311.32 1547.04 Q1313.47 1545.88 1316.55 1545.88 Q1316.99 1545.88 1317.52 1545.95 Q1318.05 1546 1318.7 1546.11 L1318.73 1550.49 Z" fill="#000000" fill-rule="evenodd" fill-opacity="1" /><path clip-path="url(#clip580)" d="M1334.98 1559.4 Q1329.81 1559.4 1327.82 1560.58 Q1325.83 1561.76 1325.83 1564.61 Q1325.83 1566.88 1327.31 1568.22 Q1328.82 1569.54 1331.39 1569.54 Q1334.93 1569.54 1337.06 1567.04 Q1339.21 1564.52 1339.21 1560.35 L1339.21 1559.4 L1334.98 1559.4 M1343.47 1557.64 L1343.47 1572.43 L1339.21 1572.43 L1339.21 1568.5 Q1337.75 1570.86 1335.58 1571.99 Q1333.4 1573.1 1330.25 1573.1 Q1326.27 1573.1 1323.91 1570.88 Q1321.57 1568.64 1321.57 1564.89 Q1321.57 1560.51 1324.49 1558.29 Q1327.43 1556.07 1333.24 1556.07 L1339.21 1556.07 L1339.21 1555.65 Q1339.21 1552.71 1337.27 1551.11 Q1335.35 1549.49 1331.85 1549.49 Q1329.63 1549.49 1327.52 1550.03 Q1325.42 1550.56 1323.47 1551.62 L1323.47 1547.69 Q1325.81 1546.79 1328.01 1546.35 Q1330.21 1545.88 1332.29 1545.88 Q1337.92 1545.88 1340.69 1548.8 Q1343.47 1551.72 1343.47 1557.64 Z" fill="#000000" fill-rule="evenodd" fill-opacity="1" /><path clip-path="url(#clip580)" d="M1356.46 1539.15 L1356.46 1546.51 L1365.23 1546.51 L1365.23 1549.82 L1356.46 1549.82 L1356.46 1563.89 Q1356.46 1567.06 1357.31 1567.97 Q1358.19 1568.87 1360.85 1568.87 L1365.23 1568.87 L1365.23 1572.43 L1360.85 1572.43 Q1355.92 1572.43 1354.05 1570.6 Q1352.17 1568.75 1352.17 1563.89 L1352.17 1549.82 L1349.05 1549.82 L1349.05 1546.51 L1352.17 1546.51 L1352.17 1539.15 L1356.46 1539.15 Z" fill="#000000" fill-rule="evenodd" fill-opacity="1" /><path clip-path="url(#clip580)" d="M1370.83 1546.51 L1375.09 1546.51 L1375.09 1572.43 L1370.83 1572.43 L1370.83 1546.51 M1370.83 1536.42 L1375.09 1536.42 L1375.09 1541.81 L1370.83 1541.81 L1370.83 1536.42 Z" fill="#000000" fill-rule="evenodd" fill-opacity="1" /><path clip-path="url(#clip580)" d="M1394.05 1549.49 Q1390.62 1549.49 1388.63 1552.18 Q1386.64 1554.84 1386.64 1559.49 Q1386.64 1564.15 1388.61 1566.83 Q1390.6 1569.49 1394.05 1569.49 Q1397.45 1569.49 1399.44 1566.81 Q1401.43 1564.12 1401.43 1559.49 Q1401.43 1554.89 1399.44 1552.2 Q1397.45 1549.49 1394.05 1549.49 M1394.05 1545.88 Q1399.6 1545.88 1402.78 1549.49 Q1405.95 1553.1 1405.95 1559.49 Q1405.95 1565.86 1402.78 1569.49 Q1399.6 1573.1 1394.05 1573.1 Q1388.47 1573.1 1385.3 1569.49 Q1382.15 1565.86 1382.15 1559.49 Q1382.15 1553.1 1385.3 1549.49 Q1388.47 1545.88 1394.05 1545.88 Z" fill="#000000" fill-rule="evenodd" fill-opacity="1" /><path clip-path="url(#clip580)" d="M1434.56 1556.79 L1434.56 1572.43 L1430.3 1572.43 L1430.3 1556.92 Q1430.3 1553.24 1428.86 1551.41 Q1427.43 1549.59 1424.56 1549.59 Q1421.11 1549.59 1419.12 1551.79 Q1417.13 1553.98 1417.13 1557.78 L1417.13 1572.43 L1412.85 1572.43 L1412.85 1546.51 L1417.13 1546.51 L1417.13 1550.54 Q1418.66 1548.2 1420.72 1547.04 Q1422.8 1545.88 1425.51 1545.88 Q1429.97 1545.88 1432.27 1548.66 Q1434.56 1551.41 1434.56 1556.79 Z" fill="#000000" fill-rule="evenodd" fill-opacity="1" /><path clip-path="url(#clip580)" d="M1459.58 1547.27 L1459.58 1551.3 Q1457.78 1550.37 1455.83 1549.91 Q1453.89 1549.45 1451.8 1549.45 Q1448.63 1549.45 1447.03 1550.42 Q1445.46 1551.39 1445.46 1553.34 Q1445.46 1554.82 1446.6 1555.67 Q1447.73 1556.51 1451.16 1557.27 L1452.61 1557.6 Q1457.15 1558.57 1459.05 1560.35 Q1460.97 1562.11 1460.97 1565.28 Q1460.97 1568.89 1458.1 1571 Q1455.25 1573.1 1450.25 1573.1 Q1448.17 1573.1 1445.9 1572.69 Q1443.66 1572.29 1441.16 1571.48 L1441.16 1567.09 Q1443.52 1568.31 1445.81 1568.94 Q1448.1 1569.54 1450.34 1569.54 Q1453.35 1569.54 1454.97 1568.52 Q1456.59 1567.48 1456.59 1565.6 Q1456.59 1563.87 1455.41 1562.94 Q1454.26 1562.02 1450.3 1561.16 L1448.82 1560.81 Q1444.86 1559.98 1443.1 1558.27 Q1441.34 1556.53 1441.34 1553.52 Q1441.34 1549.86 1443.93 1547.87 Q1446.53 1545.88 1451.29 1545.88 Q1453.66 1545.88 1455.74 1546.23 Q1457.82 1546.58 1459.58 1547.27 Z" fill="#000000" fill-rule="evenodd" fill-opacity="1" /><polyline clip-path="url(#clip582)" style="stroke:#ffffff; stroke-linecap:butt; stroke-linejoin:round; stroke-width:4; stroke-opacity:1; fill:none" points="
  350.366,1190.54 2352.76,1190.54 
  "/>
<polyline clip-path="url(#clip582)" style="stroke:#ffffff; stroke-linecap:butt; stroke-linejoin:round; stroke-width:4; stroke-opacity:1; fill:none" points="
  350.366,934.757 2352.76,934.757 
  "/>
<polyline clip-path="url(#clip582)" style="stroke:#ffffff; stroke-linecap:butt; stroke-linejoin:round; stroke-width:4; stroke-opacity:1; fill:none" points="
  350.366,678.976 2352.76,678.976 
  "/>
<polyline clip-path="url(#clip582)" style="stroke:#ffffff; stroke-linecap:butt; stroke-linejoin:round; stroke-width:4; stroke-opacity:1; fill:none" points="
  350.366,423.194 2352.76,423.194 
  "/>
<polyline clip-path="url(#clip582)" style="stroke:#ffffff; stroke-linecap:butt; stroke-linejoin:round; stroke-width:4; stroke-opacity:1; fill:none" points="
  350.366,167.413 2352.76,167.413 
  "/>
<polyline clip-path="url(#clip582)" style="stroke:#ffffff; stroke-linecap:butt; stroke-linejoin:round; stroke-width:2; stroke-opacity:1; fill:none" points="
  350.366,1318.43 2352.76,1318.43 
  "/>
<polyline clip-path="url(#clip582)" style="stroke:#ffffff; stroke-linecap:butt; stroke-linejoin:round; stroke-width:2; stroke-opacity:1; fill:none" points="
  350.366,1062.65 2352.76,1062.65 
  "/>
<polyline clip-path="url(#clip582)" style="stroke:#ffffff; stroke-linecap:butt; stroke-linejoin:round; stroke-width:2; stroke-opacity:1; fill:none" points="
  350.366,806.866 2352.76,806.866 
  "/>
<polyline clip-path="url(#clip582)" style="stroke:#ffffff; stroke-linecap:butt; stroke-linejoin:round; stroke-width:2; stroke-opacity:1; fill:none" points="
  350.366,551.085 2352.76,551.085 
  "/>
<polyline clip-path="url(#clip582)" style="stroke:#ffffff; stroke-linecap:butt; stroke-linejoin:round; stroke-width:2; stroke-opacity:1; fill:none" points="
  350.366,295.304 2352.76,295.304 
  "/>
<polyline clip-path="url(#clip580)" style="stroke:#ffffff; stroke-linecap:butt; stroke-linejoin:round; stroke-width:4; stroke-opacity:1; fill:none" points="
  350.366,1422.18 350.366,106.192 
  "/>
<polyline clip-path="url(#clip580)" style="stroke:#333333; stroke-linecap:butt; stroke-linejoin:round; stroke-width:4; stroke-opacity:1; fill:none" points="
  350.366,1190.54 331.468,1190.54 
  "/>
<polyline clip-path="url(#clip580)" style="stroke:#333333; stroke-linecap:butt; stroke-linejoin:round; stroke-width:4; stroke-opacity:1; fill:none" points="
  350.366,934.757 331.468,934.757 
  "/>
<polyline clip-path="url(#clip580)" style="stroke:#333333; stroke-linecap:butt; stroke-linejoin:round; stroke-width:4; stroke-opacity:1; fill:none" points="
  350.366,678.976 331.468,678.976 
  "/>
<polyline clip-path="url(#clip580)" style="stroke:#333333; stroke-linecap:butt; stroke-linejoin:round; stroke-width:4; stroke-opacity:1; fill:none" points="
  350.366,423.194 331.468,423.194 
  "/>
<polyline clip-path="url(#clip580)" style="stroke:#333333; stroke-linecap:butt; stroke-linejoin:round; stroke-width:4; stroke-opacity:1; fill:none" points="
  350.366,167.413 331.468,167.413 
  "/>
<polyline clip-path="url(#clip580)" style="stroke:#333333; stroke-linecap:butt; stroke-linejoin:round; stroke-width:4; stroke-opacity:1; fill:none" points="
  350.366,1318.43 340.917,1318.43 
  "/>
<polyline clip-path="url(#clip580)" style="stroke:#333333; stroke-linecap:butt; stroke-linejoin:round; stroke-width:4; stroke-opacity:1; fill:none" points="
  350.366,1062.65 340.917,1062.65 
  "/>
<polyline clip-path="url(#clip580)" style="stroke:#333333; stroke-linecap:butt; stroke-linejoin:round; stroke-width:4; stroke-opacity:1; fill:none" points="
  350.366,806.866 340.917,806.866 
  "/>
<polyline clip-path="url(#clip580)" style="stroke:#333333; stroke-linecap:butt; stroke-linejoin:round; stroke-width:4; stroke-opacity:1; fill:none" points="
  350.366,551.085 340.917,551.085 
  "/>
<polyline clip-path="url(#clip580)" style="stroke:#333333; stroke-linecap:butt; stroke-linejoin:round; stroke-width:4; stroke-opacity:1; fill:none" points="
  350.366,295.304 340.917,295.304 
  "/>
<path clip-path="url(#clip580)" d="M194.283 1190.88 L216.54 1190.88 L216.54 1193.83 L194.283 1193.83 L194.283 1190.88 Z" fill="#4c4c4c" fill-rule="evenodd" fill-opacity="1" /><path clip-path="url(#clip580)" d="M234.734 1189.52 Q237.251 1190.06 238.658 1191.76 Q240.081 1193.46 240.081 1195.96 Q240.081 1199.8 237.442 1201.9 Q234.804 1204 229.942 1204 Q228.31 1204 226.574 1203.67 Q224.856 1203.36 223.015 1202.72 L223.015 1199.33 Q224.474 1200.18 226.21 1200.62 Q227.946 1201.05 229.838 1201.05 Q233.137 1201.05 234.856 1199.75 Q236.592 1198.45 236.592 1195.96 Q236.592 1193.67 234.977 1192.39 Q233.38 1191.09 230.515 1191.09 L227.495 1191.09 L227.495 1188.2 L230.654 1188.2 Q233.241 1188.2 234.613 1187.18 Q235.984 1186.14 235.984 1184.19 Q235.984 1182.2 234.56 1181.14 Q233.154 1180.06 230.515 1180.06 Q229.074 1180.06 227.425 1180.37 Q225.776 1180.69 223.797 1181.35 L223.797 1178.22 Q225.793 1177.67 227.529 1177.39 Q229.283 1177.11 230.828 1177.11 Q234.821 1177.11 237.147 1178.93 Q239.474 1180.74 239.474 1183.83 Q239.474 1185.98 238.241 1187.47 Q237.008 1188.95 234.734 1189.52 Z" fill="#4c4c4c" fill-rule="evenodd" fill-opacity="1" /><path clip-path="url(#clip580)" d="M246.765 1177.58 L260.533 1177.58 L260.533 1180.53 L249.977 1180.53 L249.977 1186.88 Q250.741 1186.62 251.505 1186.5 Q252.269 1186.36 253.033 1186.36 Q257.373 1186.36 259.908 1188.74 Q262.442 1191.12 262.442 1195.18 Q262.442 1199.37 259.838 1201.69 Q257.234 1204 252.494 1204 Q250.862 1204 249.161 1203.72 Q247.477 1203.45 245.672 1202.89 L245.672 1199.37 Q247.234 1200.22 248.901 1200.63 Q250.567 1201.05 252.425 1201.05 Q255.428 1201.05 257.182 1199.47 Q258.935 1197.89 258.935 1195.18 Q258.935 1192.47 257.182 1190.89 Q255.428 1189.31 252.425 1189.31 Q251.019 1189.31 249.612 1189.63 Q248.224 1189.94 246.765 1190.6 L246.765 1177.58 Z" fill="#4c4c4c" fill-rule="evenodd" fill-opacity="1" /><path clip-path="url(#clip580)" d="M269.352 1199.09 L273.015 1199.09 L273.015 1203.5 L269.352 1203.5 L269.352 1199.09 Z" fill="#4c4c4c" fill-rule="evenodd" fill-opacity="1" /><path clip-path="url(#clip580)" d="M280.689 1177.58 L294.456 1177.58 L294.456 1180.53 L283.9 1180.53 L283.9 1186.88 Q284.664 1186.62 285.428 1186.5 Q286.192 1186.36 286.956 1186.36 Q291.296 1186.36 293.831 1188.74 Q296.366 1191.12 296.366 1195.18 Q296.366 1199.37 293.762 1201.69 Q291.157 1204 286.418 1204 Q284.786 1204 283.085 1203.72 Q281.4 1203.45 279.595 1202.89 L279.595 1199.37 Q281.157 1200.22 282.824 1200.63 Q284.491 1201.05 286.348 1201.05 Q289.352 1201.05 291.105 1199.47 Q292.859 1197.89 292.859 1195.18 Q292.859 1192.47 291.105 1190.89 Q289.352 1189.31 286.348 1189.31 Q284.942 1189.31 283.536 1189.63 Q282.147 1189.94 280.689 1190.6 L280.689 1177.58 Z" fill="#4c4c4c" fill-rule="evenodd" fill-opacity="1" /><path clip-path="url(#clip580)" d="M193.536 935.095 L215.793 935.095 L215.793 938.047 L193.536 938.047 L193.536 935.095 Z" fill="#4c4c4c" fill-rule="evenodd" fill-opacity="1" /><path clip-path="url(#clip580)" d="M233.988 933.741 Q236.505 934.28 237.911 935.981 Q239.335 937.682 239.335 940.182 Q239.335 944.019 236.696 946.12 Q234.057 948.22 229.196 948.22 Q227.564 948.22 225.828 947.891 Q224.109 947.578 222.269 946.936 L222.269 943.55 Q223.727 944.401 225.463 944.835 Q227.199 945.269 229.092 945.269 Q232.39 945.269 234.109 943.967 Q235.845 942.665 235.845 940.182 Q235.845 937.891 234.231 936.606 Q232.633 935.304 229.769 935.304 L226.748 935.304 L226.748 932.422 L229.908 932.422 Q232.495 932.422 233.866 931.398 Q235.238 930.356 235.238 928.411 Q235.238 926.415 233.814 925.356 Q232.408 924.28 229.769 924.28 Q228.328 924.28 226.679 924.592 Q225.029 924.905 223.05 925.564 L223.05 922.439 Q225.047 921.884 226.783 921.606 Q228.536 921.328 230.081 921.328 Q234.074 921.328 236.401 923.151 Q238.727 924.957 238.727 928.047 Q238.727 930.2 237.494 931.693 Q236.262 933.168 233.988 933.741 Z" fill="#4c4c4c" fill-rule="evenodd" fill-opacity="1" /><path clip-path="url(#clip580)" d="M246.019 921.797 L259.786 921.797 L259.786 924.748 L249.231 924.748 L249.231 931.102 Q249.994 930.842 250.758 930.721 Q251.522 930.582 252.286 930.582 Q256.626 930.582 259.161 932.96 Q261.696 935.339 261.696 939.401 Q261.696 943.585 259.092 945.911 Q256.487 948.22 251.748 948.22 Q250.116 948.22 248.415 947.943 Q246.731 947.665 244.925 947.109 L244.925 943.585 Q246.487 944.436 248.154 944.852 Q249.821 945.269 251.678 945.269 Q254.682 945.269 256.435 943.689 Q258.189 942.109 258.189 939.401 Q258.189 936.693 256.435 935.113 Q254.682 933.533 251.678 933.533 Q250.272 933.533 248.866 933.845 Q247.477 934.158 246.019 934.818 L246.019 921.797 Z" fill="#4c4c4c" fill-rule="evenodd" fill-opacity="1" /><path clip-path="url(#clip580)" d="M268.605 943.307 L272.269 943.307 L272.269 947.717 L268.605 947.717 L268.605 943.307 Z" fill="#4c4c4c" fill-rule="evenodd" fill-opacity="1" /><path clip-path="url(#clip580)" d="M287.407 924.106 Q284.699 924.106 283.328 926.78 Q281.973 929.436 281.973 934.783 Q281.973 940.113 283.328 942.786 Q284.699 945.443 287.407 945.443 Q290.133 945.443 291.487 942.786 Q292.859 940.113 292.859 934.783 Q292.859 929.436 291.487 926.78 Q290.133 924.106 287.407 924.106 M287.407 921.328 Q291.765 921.328 294.057 924.783 Q296.366 928.221 296.366 934.783 Q296.366 941.328 294.057 944.783 Q291.765 948.22 287.407 948.22 Q283.05 948.22 280.741 944.783 Q278.449 941.328 278.449 934.783 Q278.449 928.221 280.741 924.783 Q283.05 921.328 287.407 921.328 Z" fill="#4c4c4c" fill-rule="evenodd" fill-opacity="1" /><path clip-path="url(#clip580)" d="M194.283 679.314 L216.54 679.314 L216.54 682.266 L194.283 682.266 L194.283 679.314 Z" fill="#4c4c4c" fill-rule="evenodd" fill-opacity="1" /><path clip-path="url(#clip580)" d="M234.734 677.96 Q237.251 678.498 238.658 680.2 Q240.081 681.901 240.081 684.401 Q240.081 688.238 237.442 690.338 Q234.804 692.439 229.942 692.439 Q228.31 692.439 226.574 692.109 Q224.856 691.797 223.015 691.154 L223.015 687.769 Q224.474 688.62 226.21 689.054 Q227.946 689.488 229.838 689.488 Q233.137 689.488 234.856 688.186 Q236.592 686.884 236.592 684.401 Q236.592 682.109 234.977 680.825 Q233.38 679.523 230.515 679.523 L227.495 679.523 L227.495 676.641 L230.654 676.641 Q233.241 676.641 234.613 675.616 Q235.984 674.575 235.984 672.63 Q235.984 670.634 234.56 669.575 Q233.154 668.498 230.515 668.498 Q229.074 668.498 227.425 668.811 Q225.776 669.123 223.797 669.783 L223.797 666.658 Q225.793 666.102 227.529 665.825 Q229.283 665.547 230.828 665.547 Q234.821 665.547 237.147 667.37 Q239.474 669.175 239.474 672.266 Q239.474 674.418 238.241 675.911 Q237.008 677.387 234.734 677.96 Z" fill="#4c4c4c" fill-rule="evenodd" fill-opacity="1" /><path clip-path="url(#clip580)" d="M256.366 669.071 L247.512 682.908 L256.366 682.908 L256.366 669.071 M255.446 666.016 L259.855 666.016 L259.855 682.908 L263.553 682.908 L263.553 685.825 L259.855 685.825 L259.855 691.936 L256.366 691.936 L256.366 685.825 L244.665 685.825 L244.665 682.439 L255.446 666.016 Z" fill="#4c4c4c" fill-rule="evenodd" fill-opacity="1" /><path clip-path="url(#clip580)" d="M269.352 687.526 L273.015 687.526 L273.015 691.936 L269.352 691.936 L269.352 687.526 Z" fill="#4c4c4c" fill-rule="evenodd" fill-opacity="1" /><path clip-path="url(#clip580)" d="M280.689 666.016 L294.456 666.016 L294.456 668.967 L283.9 668.967 L283.9 675.321 Q284.664 675.061 285.428 674.939 Q286.192 674.8 286.956 674.8 Q291.296 674.8 293.831 677.179 Q296.366 679.557 296.366 683.62 Q296.366 687.804 293.762 690.13 Q291.157 692.439 286.418 692.439 Q284.786 692.439 283.085 692.161 Q281.4 691.884 279.595 691.328 L279.595 687.804 Q281.157 688.654 282.824 689.071 Q284.491 689.488 286.348 689.488 Q289.352 689.488 291.105 687.908 Q292.859 686.328 292.859 683.62 Q292.859 680.911 291.105 679.332 Q289.352 677.752 286.348 677.752 Q284.942 677.752 283.536 678.064 Q282.147 678.377 280.689 679.036 L280.689 666.016 Z" fill="#4c4c4c" fill-rule="evenodd" fill-opacity="1" /><path clip-path="url(#clip580)" d="M193.536 423.533 L215.793 423.533 L215.793 426.484 L193.536 426.484 L193.536 423.533 Z" fill="#4c4c4c" fill-rule="evenodd" fill-opacity="1" /><path clip-path="url(#clip580)" d="M233.988 422.179 Q236.505 422.717 237.911 424.418 Q239.335 426.12 239.335 428.62 Q239.335 432.456 236.696 434.557 Q234.057 436.658 229.196 436.658 Q227.564 436.658 225.828 436.328 Q224.109 436.015 222.269 435.373 L222.269 431.988 Q223.727 432.838 225.463 433.272 Q227.199 433.706 229.092 433.706 Q232.39 433.706 234.109 432.404 Q235.845 431.102 235.845 428.62 Q235.845 426.328 234.231 425.043 Q232.633 423.741 229.769 423.741 L226.748 423.741 L226.748 420.859 L229.908 420.859 Q232.495 420.859 233.866 419.835 Q235.238 418.793 235.238 416.849 Q235.238 414.852 233.814 413.793 Q232.408 412.717 229.769 412.717 Q228.328 412.717 226.679 413.029 Q225.029 413.342 223.05 414.002 L223.05 410.877 Q225.047 410.321 226.783 410.043 Q228.536 409.766 230.081 409.766 Q234.074 409.766 236.401 411.589 Q238.727 413.394 238.727 416.484 Q238.727 418.637 237.494 420.13 Q236.262 421.606 233.988 422.179 Z" fill="#4c4c4c" fill-rule="evenodd" fill-opacity="1" /><path clip-path="url(#clip580)" d="M255.619 413.29 L246.765 427.127 L255.619 427.127 L255.619 413.29 M254.699 410.234 L259.109 410.234 L259.109 427.127 L262.807 427.127 L262.807 430.043 L259.109 430.043 L259.109 436.154 L255.619 436.154 L255.619 430.043 L243.918 430.043 L243.918 426.658 L254.699 410.234 Z" fill="#4c4c4c" fill-rule="evenodd" fill-opacity="1" /><path clip-path="url(#clip580)" d="M268.605 431.745 L272.269 431.745 L272.269 436.154 L268.605 436.154 L268.605 431.745 Z" fill="#4c4c4c" fill-rule="evenodd" fill-opacity="1" /><path clip-path="url(#clip580)" d="M287.407 412.543 Q284.699 412.543 283.328 415.217 Q281.973 417.873 281.973 423.22 Q281.973 428.55 283.328 431.224 Q284.699 433.88 287.407 433.88 Q290.133 433.88 291.487 431.224 Q292.859 428.55 292.859 423.22 Q292.859 417.873 291.487 415.217 Q290.133 412.543 287.407 412.543 M287.407 409.766 Q291.765 409.766 294.057 413.22 Q296.366 416.658 296.366 423.22 Q296.366 429.766 294.057 433.22 Q291.765 436.658 287.407 436.658 Q283.05 436.658 280.741 433.22 Q278.449 429.766 278.449 423.22 Q278.449 416.658 280.741 413.22 Q283.05 409.766 287.407 409.766 Z" fill="#4c4c4c" fill-rule="evenodd" fill-opacity="1" /><path clip-path="url(#clip580)" d="M194.283 167.752 L216.54 167.752 L216.54 170.703 L194.283 170.703 L194.283 167.752 Z" fill="#4c4c4c" fill-rule="evenodd" fill-opacity="1" /><path clip-path="url(#clip580)" d="M234.734 166.397 Q237.251 166.936 238.658 168.637 Q240.081 170.338 240.081 172.838 Q240.081 176.675 237.442 178.776 Q234.804 180.877 229.942 180.877 Q228.31 180.877 226.574 180.547 Q224.856 180.234 223.015 179.592 L223.015 176.206 Q224.474 177.057 226.21 177.491 Q227.946 177.925 229.838 177.925 Q233.137 177.925 234.856 176.623 Q236.592 175.321 236.592 172.838 Q236.592 170.547 234.977 169.262 Q233.38 167.96 230.515 167.96 L227.495 167.96 L227.495 165.078 L230.654 165.078 Q233.241 165.078 234.613 164.054 Q235.984 163.012 235.984 161.068 Q235.984 159.071 234.56 158.012 Q233.154 156.936 230.515 156.936 Q229.074 156.936 227.425 157.248 Q225.776 157.561 223.797 158.22 L223.797 155.095 Q225.793 154.54 227.529 154.262 Q229.283 153.984 230.828 153.984 Q234.821 153.984 237.147 155.807 Q239.474 157.613 239.474 160.703 Q239.474 162.856 238.241 164.349 Q237.008 165.825 234.734 166.397 Z" fill="#4c4c4c" fill-rule="evenodd" fill-opacity="1" /><path clip-path="url(#clip580)" d="M257.355 166.397 Q259.873 166.936 261.279 168.637 Q262.703 170.338 262.703 172.838 Q262.703 176.675 260.064 178.776 Q257.425 180.877 252.564 180.877 Q250.932 180.877 249.196 180.547 Q247.477 180.234 245.637 179.592 L245.637 176.206 Q247.095 177.057 248.831 177.491 Q250.567 177.925 252.46 177.925 Q255.758 177.925 257.477 176.623 Q259.213 175.321 259.213 172.838 Q259.213 170.547 257.599 169.262 Q256.001 167.96 253.137 167.96 L250.116 167.96 L250.116 165.078 L253.276 165.078 Q255.862 165.078 257.234 164.054 Q258.605 163.012 258.605 161.068 Q258.605 159.071 257.182 158.012 Q255.776 156.936 253.137 156.936 Q251.696 156.936 250.046 157.248 Q248.397 157.561 246.418 158.22 L246.418 155.095 Q248.415 154.54 250.151 154.262 Q251.904 153.984 253.449 153.984 Q257.442 153.984 259.769 155.807 Q262.095 157.613 262.095 160.703 Q262.095 162.856 260.862 164.349 Q259.63 165.825 257.355 166.397 Z" fill="#4c4c4c" fill-rule="evenodd" fill-opacity="1" /><path clip-path="url(#clip580)" d="M269.352 175.963 L273.015 175.963 L273.015 180.373 L269.352 180.373 L269.352 175.963 Z" fill="#4c4c4c" fill-rule="evenodd" fill-opacity="1" /><path clip-path="url(#clip580)" d="M280.689 154.453 L294.456 154.453 L294.456 157.404 L283.9 157.404 L283.9 163.759 Q284.664 163.498 285.428 163.377 Q286.192 163.238 286.956 163.238 Q291.296 163.238 293.831 165.616 Q296.366 167.995 296.366 172.057 Q296.366 176.241 293.762 178.568 Q291.157 180.877 286.418 180.877 Q284.786 180.877 283.085 180.599 Q281.4 180.321 279.595 179.765 L279.595 176.241 Q281.157 177.092 282.824 177.509 Q284.491 177.925 286.348 177.925 Q289.352 177.925 291.105 176.345 Q292.859 174.765 292.859 172.057 Q292.859 169.349 291.105 167.769 Q289.352 166.189 286.348 166.189 Q284.942 166.189 283.536 166.502 Q282.147 166.814 280.689 167.474 L280.689 154.453 Z" fill="#4c4c4c" fill-rule="evenodd" fill-opacity="1" /><path clip-path="url(#clip580)" d="M130.608 973.882 L130.608 944.646 L134.544 944.646 L134.544 956.915 L165.168 956.915 L165.168 961.614 L134.544 961.614 L134.544 973.882 L130.608 973.882 Z" fill="#000000" fill-rule="evenodd" fill-opacity="1" /><path clip-path="url(#clip580)" d="M151.141 926.198 L153.224 926.198 L153.224 945.781 Q157.622 945.503 159.937 943.142 Q162.229 940.758 162.229 936.522 Q162.229 934.068 161.627 931.776 Q161.025 929.461 159.821 927.193 L163.849 927.193 Q164.821 929.485 165.33 931.892 Q165.84 934.299 165.84 936.776 Q165.84 942.98 162.229 946.614 Q158.617 950.225 152.46 950.225 Q146.094 950.225 142.368 946.799 Q138.618 943.35 138.618 937.517 Q138.618 932.285 141.997 929.253 Q145.354 926.198 151.141 926.198 M149.891 930.457 Q146.395 930.503 144.312 932.424 Q142.229 934.322 142.229 937.471 Q142.229 941.035 144.243 943.188 Q146.256 945.318 149.914 945.642 L149.891 930.457 Z" fill="#000000" fill-rule="evenodd" fill-opacity="1" /><path clip-path="url(#clip580)" d="M140.006 902.679 L144.034 902.679 Q143.108 904.485 142.645 906.429 Q142.182 908.374 142.182 910.457 Q142.182 913.628 143.155 915.225 Q144.127 916.799 146.071 916.799 Q147.553 916.799 148.409 915.665 Q149.243 914.531 150.006 911.105 L150.33 909.647 Q151.303 905.11 153.085 903.212 Q154.844 901.29 158.016 901.29 Q161.627 901.29 163.733 904.161 Q165.84 907.008 165.84 912.008 Q165.84 914.091 165.423 916.36 Q165.029 918.605 164.219 921.105 L159.821 921.105 Q161.048 918.744 161.673 916.452 Q162.275 914.161 162.275 911.915 Q162.275 908.906 161.256 907.286 Q160.215 905.665 158.34 905.665 Q156.604 905.665 155.678 906.846 Q154.752 908.003 153.895 911.961 L153.548 913.443 Q152.715 917.401 151.002 919.161 Q149.266 920.92 146.256 920.92 Q142.599 920.92 140.608 918.327 Q138.618 915.735 138.618 910.966 Q138.618 908.605 138.965 906.522 Q139.312 904.438 140.006 902.679 Z" fill="#000000" fill-rule="evenodd" fill-opacity="1" /><path clip-path="url(#clip580)" d="M131.882 890.295 L139.243 890.295 L139.243 881.522 L142.553 881.522 L142.553 890.295 L156.627 890.295 Q159.798 890.295 160.701 889.438 Q161.604 888.559 161.604 885.897 L161.604 881.522 L165.168 881.522 L165.168 885.897 Q165.168 890.827 163.34 892.702 Q161.488 894.577 156.627 894.577 L142.553 894.577 L142.553 897.702 L139.243 897.702 L139.243 894.577 L131.882 894.577 L131.882 890.295 Z" fill="#000000" fill-rule="evenodd" fill-opacity="1" /><path clip-path="url(#clip580)" d="M129.15 860.851 L129.15 856.591 L165.168 856.591 L165.168 860.851 L129.15 860.851 Z" fill="#000000" fill-rule="evenodd" fill-opacity="1" /><path clip-path="url(#clip580)" d="M142.229 837.633 Q142.229 841.059 144.914 843.05 Q147.576 845.041 152.229 845.041 Q156.881 845.041 159.567 843.073 Q162.229 841.082 162.229 837.633 Q162.229 834.23 159.543 832.24 Q156.858 830.249 152.229 830.249 Q147.622 830.249 144.937 832.24 Q142.229 834.23 142.229 837.633 M138.618 837.633 Q138.618 832.078 142.229 828.906 Q145.84 825.735 152.229 825.735 Q158.594 825.735 162.229 828.906 Q165.84 832.078 165.84 837.633 Q165.84 843.212 162.229 846.383 Q158.594 849.531 152.229 849.531 Q145.84 849.531 142.229 846.383 Q138.618 843.212 138.618 837.633 Z" fill="#000000" fill-rule="evenodd" fill-opacity="1" /><path clip-path="url(#clip580)" d="M151.905 801.615 Q147.275 801.615 144.729 803.536 Q142.182 805.434 142.182 808.883 Q142.182 812.309 144.729 814.231 Q147.275 816.129 151.905 816.129 Q156.511 816.129 159.057 814.231 Q161.604 812.309 161.604 808.883 Q161.604 805.434 159.057 803.536 Q156.511 801.615 151.905 801.615 M161.951 797.356 Q168.571 797.356 171.789 800.295 Q175.029 803.235 175.029 809.3 Q175.029 811.545 174.682 813.536 Q174.358 815.527 173.664 817.402 L169.52 817.402 Q170.539 815.527 171.025 813.698 Q171.511 811.869 171.511 809.971 Q171.511 805.781 169.312 803.698 Q167.136 801.615 162.715 801.615 L160.608 801.615 Q162.9 802.934 164.034 804.994 Q165.168 807.055 165.168 809.925 Q165.168 814.693 161.534 817.61 Q157.9 820.527 151.905 820.527 Q145.886 820.527 142.252 817.61 Q138.618 814.693 138.618 809.925 Q138.618 807.055 139.752 804.994 Q140.886 802.934 143.178 801.615 L139.243 801.615 L139.243 797.356 L161.951 797.356 Z" fill="#000000" fill-rule="evenodd" fill-opacity="1" /><path clip-path="url(#clip580)" d="M150.284 790.735 L150.284 778.258 L154.08 778.258 L154.08 790.735 L150.284 790.735 Z" fill="#000000" fill-rule="evenodd" fill-opacity="1" /><path clip-path="url(#clip580)" d="M129.15 771.476 L129.15 767.217 L165.168 767.217 L165.168 771.476 L129.15 771.476 Z" fill="#000000" fill-rule="evenodd" fill-opacity="1" /><path clip-path="url(#clip580)" d="M139.243 758.305 L139.243 754.046 L165.168 754.046 L165.168 758.305 L139.243 758.305 M129.15 758.305 L129.15 754.046 L134.544 754.046 L134.544 758.305 L129.15 758.305 Z" fill="#000000" fill-rule="evenodd" fill-opacity="1" /><path clip-path="url(#clip580)" d="M129.15 745.296 L129.15 741.013 L150.423 741.013 L139.243 728.305 L139.243 722.865 L151.372 736.615 L165.168 722.287 L165.168 727.842 L152.506 741.013 L165.168 741.013 L165.168 745.296 L129.15 745.296 Z" fill="#000000" fill-rule="evenodd" fill-opacity="1" /><path clip-path="url(#clip580)" d="M151.141 697.194 L153.224 697.194 L153.224 716.777 Q157.622 716.5 159.937 714.138 Q162.229 711.754 162.229 707.518 Q162.229 705.064 161.627 702.773 Q161.025 700.458 159.821 698.189 L163.849 698.189 Q164.821 700.481 165.33 702.889 Q165.84 705.296 165.84 707.773 Q165.84 713.976 162.229 717.611 Q158.617 721.222 152.46 721.222 Q146.094 721.222 142.368 717.796 Q138.618 714.347 138.618 708.513 Q138.618 703.282 141.997 700.25 Q145.354 697.194 151.141 697.194 M149.891 701.453 Q146.395 701.5 144.312 703.421 Q142.229 705.319 142.229 708.467 Q142.229 712.032 144.243 714.185 Q146.256 716.314 149.914 716.638 L149.891 701.453 Z" fill="#000000" fill-rule="evenodd" fill-opacity="1" /><path clip-path="url(#clip580)" d="M129.15 690.203 L129.15 685.944 L165.168 685.944 L165.168 690.203 L129.15 690.203 Z" fill="#000000" fill-rule="evenodd" fill-opacity="1" /><path clip-path="url(#clip580)" d="M139.243 677.032 L139.243 672.773 L165.168 672.773 L165.168 677.032 L139.243 677.032 M129.15 677.032 L129.15 672.773 L134.544 672.773 L134.544 677.032 L129.15 677.032 Z" fill="#000000" fill-rule="evenodd" fill-opacity="1" /><path clip-path="url(#clip580)" d="M149.52 642.31 L165.168 642.31 L165.168 646.569 L149.659 646.569 Q145.979 646.569 144.15 648.005 Q142.321 649.44 142.321 652.31 Q142.321 655.759 144.52 657.75 Q146.719 659.741 150.516 659.741 L165.168 659.741 L165.168 664.023 L129.15 664.023 L129.15 659.741 L143.27 659.741 Q140.932 658.213 139.775 656.153 Q138.618 654.069 138.618 651.361 Q138.618 646.893 141.395 644.602 Q144.15 642.31 149.52 642.31 Z" fill="#000000" fill-rule="evenodd" fill-opacity="1" /><path clip-path="url(#clip580)" d="M142.229 623.769 Q142.229 627.194 144.914 629.185 Q147.576 631.176 152.229 631.176 Q156.881 631.176 159.567 629.208 Q162.229 627.218 162.229 623.769 Q162.229 620.366 159.543 618.375 Q156.858 616.384 152.229 616.384 Q147.622 616.384 144.937 618.375 Q142.229 620.366 142.229 623.769 M138.618 623.769 Q138.618 618.213 142.229 615.042 Q145.84 611.87 152.229 611.87 Q158.594 611.87 162.229 615.042 Q165.84 618.213 165.84 623.769 Q165.84 629.347 162.229 632.519 Q158.594 635.667 152.229 635.667 Q145.84 635.667 142.229 632.519 Q138.618 629.347 138.618 623.769 Z" fill="#000000" fill-rule="evenodd" fill-opacity="1" /><path clip-path="url(#clip580)" d="M142.229 594.764 Q142.229 598.19 144.914 600.181 Q147.576 602.171 152.229 602.171 Q156.881 602.171 159.567 600.204 Q162.229 598.213 162.229 594.764 Q162.229 591.361 159.543 589.371 Q156.858 587.38 152.229 587.38 Q147.622 587.38 144.937 589.371 Q142.229 591.361 142.229 594.764 M138.618 594.764 Q138.618 589.209 142.229 586.037 Q145.84 582.866 152.229 582.866 Q158.594 582.866 162.229 586.037 Q165.84 589.209 165.84 594.764 Q165.84 600.343 162.229 603.514 Q158.594 606.662 152.229 606.662 Q145.84 606.662 142.229 603.514 Q138.618 600.343 138.618 594.764 Z" fill="#000000" fill-rule="evenodd" fill-opacity="1" /><path clip-path="url(#clip580)" d="M143.178 558.746 L129.15 558.746 L129.15 554.487 L165.168 554.487 L165.168 558.746 L161.28 558.746 Q163.594 560.088 164.729 562.149 Q165.84 564.186 165.84 567.056 Q165.84 571.755 162.09 574.718 Q158.34 577.658 152.229 577.658 Q146.118 577.658 142.368 574.718 Q138.618 571.755 138.618 567.056 Q138.618 564.186 139.752 562.149 Q140.863 560.088 143.178 558.746 M152.229 573.26 Q156.928 573.26 159.613 571.338 Q162.275 569.394 162.275 566.014 Q162.275 562.635 159.613 560.69 Q156.928 558.746 152.229 558.746 Q147.53 558.746 144.868 560.69 Q142.182 562.635 142.182 566.014 Q142.182 569.394 144.868 571.338 Q147.53 573.26 152.229 573.26 Z" fill="#000000" fill-rule="evenodd" fill-opacity="1" /><path clip-path="url(#clip580)" d="M1305.58 35.6653 Q1305.58 29.7915 1303.15 26.464 Q1300.75 23.1075 1296.53 23.1075 Q1292.3 23.1075 1289.87 26.464 Q1287.47 29.7915 1287.47 35.6653 Q1287.47 41.5391 1289.87 44.8956 Q1292.3 48.2231 1296.53 48.2231 Q1300.75 48.2231 1303.15 44.8956 Q1305.58 41.5391 1305.58 35.6653 M1287.47 24.3517 Q1289.15 21.4582 1291.69 20.0693 Q1294.27 18.6515 1297.83 18.6515 Q1303.73 18.6515 1307.41 23.339 Q1311.11 28.0265 1311.11 35.6653 Q1311.11 43.3042 1307.41 47.9916 Q1303.73 52.6791 1297.83 52.6791 Q1294.27 52.6791 1291.69 51.2902 Q1289.15 49.8724 1287.47 46.9789 L1287.47 51.84 L1282.12 51.84 L1282.12 6.81709 L1287.47 6.81709 L1287.47 24.3517 Z" fill="#000000" fill-rule="evenodd" fill-opacity="1" /><path clip-path="url(#clip580)" d="M1332.49 23.1654 Q1328.21 23.1654 1325.72 26.5218 Q1323.23 29.8494 1323.23 35.6653 Q1323.23 41.4813 1325.69 44.8377 Q1328.18 48.1653 1332.49 48.1653 Q1336.75 48.1653 1339.23 44.8088 Q1341.72 41.4523 1341.72 35.6653 Q1341.72 29.9072 1339.23 26.5508 Q1336.75 23.1654 1332.49 23.1654 M1332.49 18.6515 Q1339.44 18.6515 1343.4 23.1654 Q1347.37 27.6792 1347.37 35.6653 Q1347.37 43.6225 1343.4 48.1653 Q1339.44 52.6791 1332.49 52.6791 Q1325.52 52.6791 1321.56 48.1653 Q1317.62 43.6225 1317.62 35.6653 Q1317.62 27.6792 1321.56 23.1654 Q1325.52 18.6515 1332.49 18.6515 Z" fill="#000000" fill-rule="evenodd" fill-opacity="1" /><path clip-path="url(#clip580)" d="M1368.75 23.1654 Q1364.47 23.1654 1361.98 26.5218 Q1359.49 29.8494 1359.49 35.6653 Q1359.49 41.4813 1361.95 44.8377 Q1364.44 48.1653 1368.75 48.1653 Q1373 48.1653 1375.49 44.8088 Q1377.98 41.4523 1377.98 35.6653 Q1377.98 29.9072 1375.49 26.5508 Q1373 23.1654 1368.75 23.1654 M1368.75 18.6515 Q1375.69 18.6515 1379.66 23.1654 Q1383.62 27.6792 1383.62 35.6653 Q1383.62 43.6225 1379.66 48.1653 Q1375.69 52.6791 1368.75 52.6791 Q1361.77 52.6791 1357.81 48.1653 Q1353.88 43.6225 1353.88 35.6653 Q1353.88 27.6792 1357.81 23.1654 Q1361.77 18.6515 1368.75 18.6515 Z" fill="#000000" fill-rule="evenodd" fill-opacity="1" /><path clip-path="url(#clip580)" d="M1392.24 6.81709 L1397.6 6.81709 L1397.6 33.4084 L1413.48 19.4328 L1420.28 19.4328 L1403.09 34.5947 L1421 51.84 L1414.06 51.84 L1397.6 36.0125 L1397.6 51.84 L1392.24 51.84 L1392.24 6.81709 Z" fill="#000000" fill-rule="evenodd" fill-opacity="1" /><polyline clip-path="url(#clip582)" style="stroke:#e26f46; stroke-linecap:butt; stroke-linejoin:round; stroke-width:8; stroke-opacity:1; fill:none" points="
  436.099,1384.93 465.162,1384.93 494.224,1384.93 523.286,1384.93 552.348,1384.93 581.411,1384.93 610.473,1384.93 639.535,1384.93 668.598,1384.93 697.66,1384.93 
  726.722,1384.93 755.784,1384.93 784.847,1384.93 813.909,1384.93 842.971,1384.93 872.033,1384.93 901.096,1384.93 930.158,1384.93 959.22,1384.93 988.282,1384.93 
  1017.34,1384.93 1046.41,1384.93 1075.47,1384.93 1104.53,1384.93 1133.59,1384.93 1162.66,1384.93 1191.72,1384.93 1220.78,1384.93 1249.84,1384.93 1278.91,1384.93 
  1307.97,1384.93 1337.03,1384.93 1366.09,1384.93 1395.15,1384.93 1424.22,1384.93 1453.28,1384.93 1482.34,1384.93 1511.4,1384.93 1540.47,1384.93 1569.53,1384.93 
  1598.59,1384.93 1627.65,1384.93 1656.71,1384.93 1685.78,1384.93 1714.84,1384.93 1743.9,1384.93 1772.96,1384.93 1802.03,1384.93 1831.09,1384.93 1860.15,1384.93 
  1889.21,1384.93 1918.28,1384.93 1947.34,1384.93 1976.4,1384.93 2005.46,1384.93 2034.52,1384.93 2063.59,1384.93 2092.65,1384.93 2121.71,1384.93 2150.77,1384.93 
  2179.84,1384.93 2208.9,1384.93 2237.96,1384.93 2267.02,1384.93 2296.08,1384.93 
  "/>
<polyline clip-path="url(#clip582)" style="stroke:#3da44d; stroke-linecap:butt; stroke-linejoin:round; stroke-width:8; stroke-opacity:1; fill:none" points="
  436.099,929.641 465.162,929.641 494.224,929.641 523.286,929.641 552.348,929.641 581.411,929.641 610.473,929.641 639.535,929.641 668.598,929.641 697.66,929.641 
  726.722,929.641 755.784,929.641 784.847,929.641 813.909,929.641 842.971,929.641 872.033,929.641 901.096,929.641 930.158,929.641 959.22,929.641 988.282,929.641 
  1017.34,929.641 1046.41,929.641 1075.47,929.641 1104.53,929.641 1133.59,929.641 1162.66,929.641 1191.72,929.641 1220.78,929.641 1249.84,929.641 1278.91,929.641 
  1307.97,929.641 1337.03,929.641 1366.09,929.641 1395.15,929.641 1424.22,929.641 1453.28,929.641 1482.34,929.641 1511.4,929.641 1540.47,929.641 1569.53,929.641 
  1598.59,929.641 1627.65,929.641 1656.71,929.641 1685.78,929.641 1714.84,929.641 1743.9,929.641 1772.96,929.641 1802.03,929.641 1831.09,929.641 1860.15,929.641 
  1889.21,929.641 1918.28,929.641 1947.34,929.641 1976.4,929.641 2005.46,929.641 2034.52,929.641 2063.59,929.641 2092.65,929.641 2121.71,929.641 2150.77,929.641 
  2179.84,929.641 2208.9,929.641 2237.96,929.641 2267.02,929.641 2296.08,929.641 
  "/>
<polyline clip-path="url(#clip582)" style="stroke:#c271d2; stroke-linecap:butt; stroke-linejoin:round; stroke-width:8; stroke-opacity:1; fill:none" points="
  436.099,919.41 465.162,919.41 494.224,919.41 523.286,919.41 552.348,919.41 581.411,919.41 610.473,919.41 639.535,919.41 668.598,919.41 697.66,919.41 
  726.722,919.41 755.784,919.41 784.847,919.41 813.909,919.41 842.971,919.41 872.033,919.41 901.096,919.41 930.158,919.41 959.22,919.41 988.282,919.41 
  1017.34,919.41 1046.41,919.41 1075.47,919.41 1104.53,919.41 1133.59,919.41 1162.66,919.41 1191.72,919.41 1220.78,919.41 1249.84,919.41 1278.91,919.41 
  1307.97,919.41 1337.03,919.41 1366.09,919.41 1395.15,919.41 1424.22,919.41 1453.28,919.41 1482.34,919.41 1511.4,919.41 1540.47,919.41 1569.53,919.41 
  1598.59,919.41 1627.65,919.41 1656.71,919.41 1685.78,919.41 1714.84,919.41 1743.9,919.41 1772.96,919.41 1802.03,919.41 1831.09,919.41 1860.15,919.41 
  1889.21,919.41 1918.28,919.41 1947.34,919.41 1976.4,919.41 2005.46,919.41 2034.52,919.41 2063.59,919.41 2092.65,919.41 2121.71,919.41 2150.77,919.41 
  2179.84,919.41 2208.9,919.41 2237.96,919.41 2267.02,919.41 2296.08,919.41 
  "/>
<polyline clip-path="url(#clip582)" style="stroke:#ac8d18; stroke-linecap:butt; stroke-linejoin:round; stroke-width:8; stroke-opacity:1; fill:none" points="
  436.099,806.866 465.162,806.866 494.224,806.866 523.286,806.866 552.348,806.866 581.411,806.866 610.473,806.866 639.535,806.866 668.598,806.866 697.66,806.866 
  726.722,806.866 755.784,806.866 784.847,806.866 813.909,806.866 842.971,806.866 872.033,806.866 901.096,806.866 930.158,806.866 959.22,806.866 988.282,806.866 
  1017.34,806.866 1046.41,806.866 1075.47,806.866 1104.53,806.866 1133.59,806.866 1162.66,806.866 1191.72,806.866 1220.78,806.866 1249.84,806.866 1278.91,806.866 
  1307.97,806.866 1337.03,806.866 1366.09,806.866 1395.15,806.866 1424.22,806.866 1453.28,806.866 1482.34,806.866 1511.4,806.866 1540.47,806.866 1569.53,806.866 
  1598.59,806.866 1627.65,806.866 1656.71,806.866 1685.78,806.866 1714.84,806.866 1743.9,806.866 1772.96,806.866 1802.03,806.866 1831.09,806.866 1860.15,806.866 
  1889.21,806.866 1918.28,806.866 1947.34,806.866 1976.4,806.866 2005.46,806.866 2034.52,806.866 2063.59,806.866 2092.65,806.866 2121.71,806.866 2150.77,806.866 
  2179.84,806.866 2208.9,806.866 2237.96,806.866 2267.02,806.866 2296.08,806.866 
  "/>
<polyline clip-path="url(#clip582)" style="stroke:#00a9ad; stroke-linecap:butt; stroke-linejoin:round; stroke-width:8; stroke-opacity:1; fill:none" points="
  436.099,627.819 465.162,627.819 494.224,627.819 523.286,627.819 552.348,627.819 581.411,627.819 610.473,627.819 639.535,627.819 668.598,627.819 697.66,627.819 
  726.722,627.819 755.784,627.819 784.847,627.819 813.909,627.819 842.971,627.819 872.033,627.819 901.096,627.819 930.158,627.819 959.22,627.819 988.282,627.819 
  1017.34,627.819 1046.41,627.819 1075.47,627.819 1104.53,627.819 1133.59,627.819 1162.66,627.819 1191.72,627.819 1220.78,627.819 1249.84,627.819 1278.91,627.819 
  1307.97,627.819 1337.03,627.819 1366.09,627.819 1395.15,627.819 1424.22,627.819 1453.28,627.819 1482.34,627.819 1511.4,627.819 1540.47,627.819 1569.53,627.819 
  1598.59,627.819 1627.65,627.819 1656.71,627.819 1685.78,627.819 1714.84,627.819 1743.9,627.819 1772.96,627.819 1802.03,627.819 1831.09,627.819 1860.15,627.819 
  1889.21,627.819 1918.28,627.819 1947.34,627.819 1976.4,627.819 2005.46,627.819 2034.52,627.819 2063.59,627.819 2092.65,627.819 2121.71,627.819 2150.77,627.819 
  2179.84,627.819 2208.9,627.819 2237.96,627.819 2267.02,627.819 2296.08,627.819 
  "/>
<polyline clip-path="url(#clip582)" style="stroke:#009af9; stroke-linecap:butt; stroke-linejoin:round; stroke-width:12; stroke-opacity:1; fill:none" points="
  436.099,1180.64 465.162,1030.03 494.224,903.12 523.286,876.879 552.348,746.476 581.411,706.341 610.473,656.952 639.535,599.212 668.598,916.299 697.66,570.218 
  726.722,499.366 755.784,481.323 784.847,449.37 813.909,377.981 842.971,374.798 872.033,375.233 901.096,320.93 930.158,437.963 959.22,367.374 988.282,327.762 
  1017.34,252.459 1046.41,267.287 1075.47,242.971 1104.53,246.001 1133.59,206.113 1162.66,201.971 1191.72,268.481 1220.78,244.033 1249.84,236.213 1278.91,216.637 
  1307.97,199.502 1337.03,212.786 1366.09,203.555 1395.15,177.239 1424.22,171.575 1453.28,179.247 1482.34,189.97 1511.4,191.563 1540.47,185.22 1569.53,176.607 
  1598.59,170.191 1627.65,162.399 1656.71,152.545 1685.78,143.521 1714.84,143.437 1743.9,155.501 1772.96,158.134 1802.03,161.165 1831.09,158.808 1860.15,149.652 
  
  "/>
<polyline clip-path="url(#clip582)" style="stroke:#f05f73; stroke-linecap:butt; stroke-linejoin:round; stroke-width:12; stroke-opacity:1; fill:none" points="
  1860.15,149.652 1889.21,148.821 1918.28,167.682 1947.34,181.193 1976.4,189.427 2005.46,192.472 2034.52,193.215 2063.59,193.091 2092.65,192.414 2121.71,191.67 
  2150.77,190.506 2179.84,189.132 2208.9,187.549 2237.96,187.305 2267.02,187.691 2296.08,187.285 
  "/>
</svg>
