<?xml version="1.0" encoding="utf-8"?>
<svg xmlns="http://www.w3.org/2000/svg" xmlns:xlink="http://www.w3.org/1999/xlink" width="600" height="400" viewBox="0 0 2400 1600">
<defs>
  <clipPath id="clip700">
    <rect x="0" y="0" width="2400" height="1600"/>
  </clipPath>
</defs>
<path clip-path="url(#clip700)" d="
M0 1600 L2400 1600 L2400 0 L0 0  Z
  " fill="#ffffff" fill-rule="evenodd" fill-opacity="1"/>
<defs>
  <clipPath id="clip701">
    <rect x="480" y="0" width="1681" height="1600"/>
  </clipPath>
</defs>
<path clip-path="url(#clip700)" d="
M316.807 1422.18 L2352.76 1422.18 L2352.76 106.192 L316.807 106.192  Z
  " fill="#eaeaea" fill-rule="evenodd" fill-opacity="1"/>
<defs>
  <clipPath id="clip702">
    <rect x="316" y="106" width="2037" height="1317"/>
  </clipPath>
</defs>
<polyline clip-path="url(#clip702)" style="stroke:#ffffff; stroke-linecap:butt; stroke-linejoin:round; stroke-width:4; stroke-opacity:1; fill:none" points="
  374.428,1422.18 374.428,106.192 
  "/>
<polyline clip-path="url(#clip702)" style="stroke:#ffffff; stroke-linecap:butt; stroke-linejoin:round; stroke-width:4; stroke-opacity:1; fill:none" points="
  522.175,1422.18 522.175,106.192 
  "/>
<polyline clip-path="url(#clip702)" style="stroke:#ffffff; stroke-linecap:butt; stroke-linejoin:round; stroke-width:4; stroke-opacity:1; fill:none" points="
  669.921,1422.18 669.921,106.192 
  "/>
<polyline clip-path="url(#clip702)" style="stroke:#ffffff; stroke-linecap:butt; stroke-linejoin:round; stroke-width:4; stroke-opacity:1; fill:none" points="
  817.668,1422.18 817.668,106.192 
  "/>
<polyline clip-path="url(#clip702)" style="stroke:#ffffff; stroke-linecap:butt; stroke-linejoin:round; stroke-width:4; stroke-opacity:1; fill:none" points="
  965.415,1422.18 965.415,106.192 
  "/>
<polyline clip-path="url(#clip702)" style="stroke:#ffffff; stroke-linecap:butt; stroke-linejoin:round; stroke-width:4; stroke-opacity:1; fill:none" points="
  1113.16,1422.18 1113.16,106.192 
  "/>
<polyline clip-path="url(#clip702)" style="stroke:#ffffff; stroke-linecap:butt; stroke-linejoin:round; stroke-width:4; stroke-opacity:1; fill:none" points="
  1260.91,1422.18 1260.91,106.192 
  "/>
<polyline clip-path="url(#clip702)" style="stroke:#ffffff; stroke-linecap:butt; stroke-linejoin:round; stroke-width:4; stroke-opacity:1; fill:none" points="
  1408.65,1422.18 1408.65,106.192 
  "/>
<polyline clip-path="url(#clip702)" style="stroke:#ffffff; stroke-linecap:butt; stroke-linejoin:round; stroke-width:4; stroke-opacity:1; fill:none" points="
  1556.4,1422.18 1556.4,106.192 
  "/>
<polyline clip-path="url(#clip702)" style="stroke:#ffffff; stroke-linecap:butt; stroke-linejoin:round; stroke-width:4; stroke-opacity:1; fill:none" points="
  1704.15,1422.18 1704.15,106.192 
  "/>
<polyline clip-path="url(#clip702)" style="stroke:#ffffff; stroke-linecap:butt; stroke-linejoin:round; stroke-width:4; stroke-opacity:1; fill:none" points="
  1851.89,1422.18 1851.89,106.192 
  "/>
<polyline clip-path="url(#clip702)" style="stroke:#ffffff; stroke-linecap:butt; stroke-linejoin:round; stroke-width:4; stroke-opacity:1; fill:none" points="
  1999.64,1422.18 1999.64,106.192 
  "/>
<polyline clip-path="url(#clip702)" style="stroke:#ffffff; stroke-linecap:butt; stroke-linejoin:round; stroke-width:4; stroke-opacity:1; fill:none" points="
  2147.39,1422.18 2147.39,106.192 
  "/>
<polyline clip-path="url(#clip702)" style="stroke:#ffffff; stroke-linecap:butt; stroke-linejoin:round; stroke-width:4; stroke-opacity:1; fill:none" points="
  2295.13,1422.18 2295.13,106.192 
  "/>
<polyline clip-path="url(#clip702)" style="stroke:#ffffff; stroke-linecap:butt; stroke-linejoin:round; stroke-width:2; stroke-opacity:1; fill:none" points="
  448.301,1422.18 448.301,106.192 
  "/>
<polyline clip-path="url(#clip702)" style="stroke:#ffffff; stroke-linecap:butt; stroke-linejoin:round; stroke-width:2; stroke-opacity:1; fill:none" points="
  596.048,1422.18 596.048,106.192 
  "/>
<polyline clip-path="url(#clip702)" style="stroke:#ffffff; stroke-linecap:butt; stroke-linejoin:round; stroke-width:2; stroke-opacity:1; fill:none" points="
  743.795,1422.18 743.795,106.192 
  "/>
<polyline clip-path="url(#clip702)" style="stroke:#ffffff; stroke-linecap:butt; stroke-linejoin:round; stroke-width:2; stroke-opacity:1; fill:none" points="
  891.541,1422.18 891.541,106.192 
  "/>
<polyline clip-path="url(#clip702)" style="stroke:#ffffff; stroke-linecap:butt; stroke-linejoin:round; stroke-width:2; stroke-opacity:1; fill:none" points="
  1039.29,1422.18 1039.29,106.192 
  "/>
<polyline clip-path="url(#clip702)" style="stroke:#ffffff; stroke-linecap:butt; stroke-linejoin:round; stroke-width:2; stroke-opacity:1; fill:none" points="
  1187.03,1422.18 1187.03,106.192 
  "/>
<polyline clip-path="url(#clip702)" style="stroke:#ffffff; stroke-linecap:butt; stroke-linejoin:round; stroke-width:2; stroke-opacity:1; fill:none" points="
  1334.78,1422.18 1334.78,106.192 
  "/>
<polyline clip-path="url(#clip702)" style="stroke:#ffffff; stroke-linecap:butt; stroke-linejoin:round; stroke-width:2; stroke-opacity:1; fill:none" points="
  1482.53,1422.18 1482.53,106.192 
  "/>
<polyline clip-path="url(#clip702)" style="stroke:#ffffff; stroke-linecap:butt; stroke-linejoin:round; stroke-width:2; stroke-opacity:1; fill:none" points="
  1630.27,1422.18 1630.27,106.192 
  "/>
<polyline clip-path="url(#clip702)" style="stroke:#ffffff; stroke-linecap:butt; stroke-linejoin:round; stroke-width:2; stroke-opacity:1; fill:none" points="
  1778.02,1422.18 1778.02,106.192 
  "/>
<polyline clip-path="url(#clip702)" style="stroke:#ffffff; stroke-linecap:butt; stroke-linejoin:round; stroke-width:2; stroke-opacity:1; fill:none" points="
  1925.77,1422.18 1925.77,106.192 
  "/>
<polyline clip-path="url(#clip702)" style="stroke:#ffffff; stroke-linecap:butt; stroke-linejoin:round; stroke-width:2; stroke-opacity:1; fill:none" points="
  2073.51,1422.18 2073.51,106.192 
  "/>
<polyline clip-path="url(#clip702)" style="stroke:#ffffff; stroke-linecap:butt; stroke-linejoin:round; stroke-width:2; stroke-opacity:1; fill:none" points="
  2221.26,1422.18 2221.26,106.192 
  "/>
<polyline clip-path="url(#clip700)" style="stroke:#ffffff; stroke-linecap:butt; stroke-linejoin:round; stroke-width:4; stroke-opacity:1; fill:none" points="
  316.807,1422.18 2352.76,1422.18 
  "/>
<polyline clip-path="url(#clip700)" style="stroke:#333333; stroke-linecap:butt; stroke-linejoin:round; stroke-width:4; stroke-opacity:1; fill:none" points="
  374.428,1422.18 374.428,1441.07 
  "/>
<polyline clip-path="url(#clip700)" style="stroke:#333333; stroke-linecap:butt; stroke-linejoin:round; stroke-width:4; stroke-opacity:1; fill:none" points="
  522.175,1422.18 522.175,1441.07 
  "/>
<polyline clip-path="url(#clip700)" style="stroke:#333333; stroke-linecap:butt; stroke-linejoin:round; stroke-width:4; stroke-opacity:1; fill:none" points="
  669.921,1422.18 669.921,1441.07 
  "/>
<polyline clip-path="url(#clip700)" style="stroke:#333333; stroke-linecap:butt; stroke-linejoin:round; stroke-width:4; stroke-opacity:1; fill:none" points="
  817.668,1422.18 817.668,1441.07 
  "/>
<polyline clip-path="url(#clip700)" style="stroke:#333333; stroke-linecap:butt; stroke-linejoin:round; stroke-width:4; stroke-opacity:1; fill:none" points="
  965.415,1422.18 965.415,1441.07 
  "/>
<polyline clip-path="url(#clip700)" style="stroke:#333333; stroke-linecap:butt; stroke-linejoin:round; stroke-width:4; stroke-opacity:1; fill:none" points="
  1113.16,1422.18 1113.16,1441.07 
  "/>
<polyline clip-path="url(#clip700)" style="stroke:#333333; stroke-linecap:butt; stroke-linejoin:round; stroke-width:4; stroke-opacity:1; fill:none" points="
  1260.91,1422.18 1260.91,1441.07 
  "/>
<polyline clip-path="url(#clip700)" style="stroke:#333333; stroke-linecap:butt; stroke-linejoin:round; stroke-width:4; stroke-opacity:1; fill:none" points="
  1408.65,1422.18 1408.65,1441.07 
  "/>
<polyline clip-path="url(#clip700)" style="stroke:#333333; stroke-linecap:butt; stroke-linejoin:round; stroke-width:4; stroke-opacity:1; fill:none" points="
  1556.4,1422.18 1556.4,1441.07 
  "/>
<polyline clip-path="url(#clip700)" style="stroke:#333333; stroke-linecap:butt; stroke-linejoin:round; stroke-width:4; stroke-opacity:1; fill:none" points="
  1704.15,1422.18 1704.15,1441.07 
  "/>
<polyline clip-path="url(#clip700)" style="stroke:#333333; stroke-linecap:butt; stroke-linejoin:round; stroke-width:4; stroke-opacity:1; fill:none" points="
  1851.89,1422.18 1851.89,1441.07 
  "/>
<polyline clip-path="url(#clip700)" style="stroke:#333333; stroke-linecap:butt; stroke-linejoin:round; stroke-width:4; stroke-opacity:1; fill:none" points="
  1999.64,1422.18 1999.64,1441.07 
  "/>
<polyline clip-path="url(#clip700)" style="stroke:#333333; stroke-linecap:butt; stroke-linejoin:round; stroke-width:4; stroke-opacity:1; fill:none" points="
  2147.39,1422.18 2147.39,1441.07 
  "/>
<polyline clip-path="url(#clip700)" style="stroke:#333333; stroke-linecap:butt; stroke-linejoin:round; stroke-width:4; stroke-opacity:1; fill:none" points="
  2295.13,1422.18 2295.13,1441.07 
  "/>
<polyline clip-path="url(#clip700)" style="stroke:#333333; stroke-linecap:butt; stroke-linejoin:round; stroke-width:4; stroke-opacity:1; fill:none" points="
  448.301,1422.18 448.301,1431.63 
  "/>
<polyline clip-path="url(#clip700)" style="stroke:#333333; stroke-linecap:butt; stroke-linejoin:round; stroke-width:4; stroke-opacity:1; fill:none" points="
  596.048,1422.18 596.048,1431.63 
  "/>
<polyline clip-path="url(#clip700)" style="stroke:#333333; stroke-linecap:butt; stroke-linejoin:round; stroke-width:4; stroke-opacity:1; fill:none" points="
  743.795,1422.18 743.795,1431.63 
  "/>
<polyline clip-path="url(#clip700)" style="stroke:#333333; stroke-linecap:butt; stroke-linejoin:round; stroke-width:4; stroke-opacity:1; fill:none" points="
  891.541,1422.18 891.541,1431.63 
  "/>
<polyline clip-path="url(#clip700)" style="stroke:#333333; stroke-linecap:butt; stroke-linejoin:round; stroke-width:4; stroke-opacity:1; fill:none" points="
  1039.29,1422.18 1039.29,1431.63 
  "/>
<polyline clip-path="url(#clip700)" style="stroke:#333333; stroke-linecap:butt; stroke-linejoin:round; stroke-width:4; stroke-opacity:1; fill:none" points="
  1187.03,1422.18 1187.03,1431.63 
  "/>
<polyline clip-path="url(#clip700)" style="stroke:#333333; stroke-linecap:butt; stroke-linejoin:round; stroke-width:4; stroke-opacity:1; fill:none" points="
  1334.78,1422.18 1334.78,1431.63 
  "/>
<polyline clip-path="url(#clip700)" style="stroke:#333333; stroke-linecap:butt; stroke-linejoin:round; stroke-width:4; stroke-opacity:1; fill:none" points="
  1482.53,1422.18 1482.53,1431.63 
  "/>
<polyline clip-path="url(#clip700)" style="stroke:#333333; stroke-linecap:butt; stroke-linejoin:round; stroke-width:4; stroke-opacity:1; fill:none" points="
  1630.27,1422.18 1630.27,1431.63 
  "/>
<polyline clip-path="url(#clip700)" style="stroke:#333333; stroke-linecap:butt; stroke-linejoin:round; stroke-width:4; stroke-opacity:1; fill:none" points="
  1778.02,1422.18 1778.02,1431.63 
  "/>
<polyline clip-path="url(#clip700)" style="stroke:#333333; stroke-linecap:butt; stroke-linejoin:round; stroke-width:4; stroke-opacity:1; fill:none" points="
  1925.77,1422.18 1925.77,1431.63 
  "/>
<polyline clip-path="url(#clip700)" style="stroke:#333333; stroke-linecap:butt; stroke-linejoin:round; stroke-width:4; stroke-opacity:1; fill:none" points="
  2073.51,1422.18 2073.51,1431.63 
  "/>
<polyline clip-path="url(#clip700)" style="stroke:#333333; stroke-linecap:butt; stroke-linejoin:round; stroke-width:4; stroke-opacity:1; fill:none" points="
  2221.26,1422.18 2221.26,1431.63 
  "/>
<path clip-path="url(#clip700)" d="M388.131 1463.13 Q386.777 1460.78 383.776 1460.93 Q380.798 1461.09 376.168 1463.76 Q371.552 1466.43 369.914 1468.94 Q368.299 1471.45 369.653 1473.8 Q371.016 1476.16 373.993 1476 Q376.995 1475.85 381.61 1473.19 Q386.241 1470.52 387.856 1468 Q389.494 1465.49 388.131 1463.13 M390.537 1461.74 Q392.716 1465.51 390.869 1469.23 Q389.047 1472.94 383.364 1476.23 Q377.696 1479.5 373.549 1479.23 Q369.426 1478.96 367.247 1475.19 Q365.069 1471.41 366.891 1467.69 Q368.737 1463.98 374.405 1460.71 Q380.089 1457.43 384.212 1457.69 Q388.358 1457.97 390.537 1461.74 Z" fill="#4c4c4c" fill-rule="evenodd" fill-opacity="1" /><path clip-path="url(#clip700)" d="M513.759 1466.14 L516.623 1471.1 L533.748 1461.21 L529.549 1456.44 L532.316 1454.84 L536.497 1459.58 L538.251 1462.62 L518.359 1474.11 L521.224 1479.07 L518.668 1480.54 L511.203 1467.61 L513.759 1466.14 Z" fill="#4c4c4c" fill-rule="evenodd" fill-opacity="1" /><path clip-path="url(#clip700)" d="M546.407 1481.37 Q545.053 1479.02 542.052 1479.17 Q539.075 1479.33 534.444 1482 Q529.828 1484.66 528.19 1487.17 Q526.575 1489.69 527.929 1492.04 Q529.292 1494.4 532.27 1494.24 Q535.271 1494.09 539.886 1491.43 Q544.517 1488.75 546.132 1486.24 Q547.77 1483.73 546.407 1481.37 M548.813 1479.98 Q550.992 1483.75 549.146 1487.46 Q547.323 1491.18 541.64 1494.46 Q535.972 1497.74 531.825 1497.46 Q527.702 1497.2 525.524 1493.42 Q523.345 1489.65 525.167 1485.93 Q527.013 1482.22 532.682 1478.95 Q538.365 1475.67 542.488 1475.93 Q546.634 1476.2 548.813 1479.98 Z" fill="#4c4c4c" fill-rule="evenodd" fill-opacity="1" /><path clip-path="url(#clip700)" d="M663.363 1469.35 L669.483 1479.95 L666.927 1481.43 L658.698 1467.18 L661.254 1465.7 Q664.041 1466.4 668.767 1467.64 Q673.516 1468.89 674.831 1469.15 Q677.312 1469.66 678.769 1469.58 Q680.251 1469.51 681.348 1468.87 Q683.137 1467.84 683.536 1465.93 Q683.943 1464.03 682.78 1462.01 Q681.955 1460.59 680.539 1459.28 Q679.131 1457.99 677.082 1456.76 L680.149 1454.99 Q681.945 1456.4 683.241 1457.78 Q684.537 1459.15 685.301 1460.48 Q687.315 1463.97 686.769 1467.05 Q686.223 1470.13 683.306 1471.81 Q681.923 1472.61 680.371 1472.81 Q678.843 1473.01 676.369 1472.61 Q675.716 1472.49 672.463 1471.68 Q669.225 1470.86 663.363 1469.35 Z" fill="#4c4c4c" fill-rule="evenodd" fill-opacity="1" /><path clip-path="url(#clip700)" d="M694.805 1482.49 Q693.451 1480.15 690.45 1480.3 Q687.472 1480.45 682.841 1483.13 Q678.226 1485.79 676.587 1488.3 Q674.973 1490.82 676.327 1493.16 Q677.69 1495.52 680.667 1495.37 Q683.668 1495.22 688.284 1492.55 Q692.915 1489.88 694.53 1487.36 Q696.168 1484.86 694.805 1482.49 M697.211 1481.11 Q699.389 1484.88 697.543 1488.59 Q695.721 1492.31 690.038 1495.59 Q684.369 1498.86 680.223 1498.59 Q676.1 1498.33 673.921 1494.55 Q671.742 1490.78 673.565 1487.06 Q675.411 1483.35 681.079 1480.08 Q686.763 1476.79 690.885 1477.06 Q695.032 1477.33 697.211 1481.11 Z" fill="#4c4c4c" fill-rule="evenodd" fill-opacity="1" /><path clip-path="url(#clip700)" d="M824.407 1470.34 Q825.2 1472.79 824.429 1474.86 Q823.668 1476.94 821.503 1478.19 Q818.18 1480.11 815.041 1478.87 Q811.902 1477.64 809.472 1473.43 Q808.656 1472.01 808.074 1470.35 Q807.485 1468.7 807.121 1466.79 L810.053 1465.09 Q810.045 1466.78 810.537 1468.5 Q811.03 1470.22 811.976 1471.86 Q813.625 1474.72 815.612 1475.56 Q817.608 1476.41 819.758 1475.17 Q821.742 1474.02 822.048 1471.98 Q822.377 1469.95 820.944 1467.47 L819.434 1464.85 L821.93 1463.41 L823.51 1466.14 Q824.803 1468.38 826.376 1469.06 Q827.964 1469.73 829.648 1468.76 Q831.377 1467.76 831.582 1465.99 Q831.811 1464.24 830.492 1461.95 Q829.771 1460.71 828.676 1459.43 Q827.581 1458.16 826.02 1456.78 L828.726 1455.21 Q830.205 1456.67 831.314 1458.03 Q832.431 1459.41 833.204 1460.75 Q835.2 1464.21 834.785 1467.13 Q834.384 1470.05 831.708 1471.6 Q829.844 1472.67 827.935 1472.35 Q826.04 1472.02 824.407 1470.34 Z" fill="#4c4c4c" fill-rule="evenodd" fill-opacity="1" /><path clip-path="url(#clip700)" d="M842.5 1482.4 Q841.145 1480.06 838.144 1480.21 Q835.167 1480.36 830.536 1483.04 Q825.92 1485.7 824.282 1488.21 Q822.667 1490.73 824.022 1493.07 Q825.384 1495.43 828.362 1495.28 Q831.363 1495.13 835.979 1492.46 Q840.61 1489.79 842.224 1487.27 Q843.862 1484.76 842.5 1482.4 M844.905 1481.02 Q847.084 1484.79 845.238 1488.5 Q843.415 1492.22 837.732 1495.5 Q832.064 1498.77 827.917 1498.5 Q823.795 1498.24 821.616 1494.46 Q819.437 1490.69 821.26 1486.97 Q823.106 1483.26 828.774 1479.98 Q834.457 1476.7 838.58 1476.97 Q842.726 1477.24 844.905 1481.02 Z" fill="#4c4c4c" fill-rule="evenodd" fill-opacity="1" /><path clip-path="url(#clip700)" d="M979.843 1465.88 L963.433 1465.13 L967.86 1472.8 L979.843 1465.88 M982.029 1463.55 L984.234 1467.37 L969.605 1475.82 L971.454 1479.02 L968.928 1480.48 L967.079 1477.28 L961.786 1480.33 L960.042 1477.31 L965.334 1474.25 L959.483 1464.12 L962.415 1462.43 L982.029 1463.55 Z" fill="#4c4c4c" fill-rule="evenodd" fill-opacity="1" /><path clip-path="url(#clip700)" d="M990.732 1483.25 Q989.378 1480.9 986.377 1481.05 Q983.4 1481.21 978.769 1483.88 Q974.153 1486.54 972.515 1489.05 Q970.9 1491.57 972.254 1493.91 Q973.617 1496.28 976.595 1496.12 Q979.596 1495.97 984.211 1493.31 Q988.842 1490.63 990.457 1488.12 Q992.095 1485.61 990.732 1483.25 M993.138 1481.86 Q995.317 1485.63 993.471 1489.34 Q991.648 1493.06 985.965 1496.34 Q980.297 1499.62 976.15 1499.34 Q972.027 1499.08 969.849 1495.3 Q967.67 1491.53 969.492 1487.81 Q971.338 1484.1 977.007 1480.83 Q982.69 1477.55 986.813 1477.81 Q990.959 1478.08 993.138 1481.86 Z" fill="#4c4c4c" fill-rule="evenodd" fill-opacity="1" /><path clip-path="url(#clip700)" d="M1124.93 1455.16 L1131.82 1467.09 L1129.26 1468.56 L1123.98 1459.42 L1118.48 1462.6 Q1119.09 1463.13 1119.57 1463.73 Q1120.08 1464.32 1120.46 1464.98 Q1122.63 1468.74 1121.84 1472.13 Q1121.04 1475.51 1117.52 1477.54 Q1113.9 1479.63 1110.58 1478.54 Q1107.28 1477.44 1104.91 1473.34 Q1104.1 1471.92 1103.49 1470.31 Q1102.89 1468.71 1102.46 1466.87 L1105.52 1465.11 Q1105.56 1466.89 1106.03 1468.54 Q1106.51 1470.19 1107.43 1471.8 Q1108.94 1474.4 1111.18 1475.13 Q1113.43 1475.86 1115.77 1474.51 Q1118.12 1473.15 1118.61 1470.84 Q1119.1 1468.53 1117.6 1465.93 Q1116.89 1464.72 1115.92 1463.65 Q1114.96 1462.61 1113.66 1461.67 L1124.93 1455.16 Z" fill="#4c4c4c" fill-rule="evenodd" fill-opacity="1" /><path clip-path="url(#clip700)" d="M1137.98 1482.37 Q1136.62 1480.03 1133.62 1480.18 Q1130.64 1480.33 1126.01 1483.01 Q1121.4 1485.67 1119.76 1488.18 Q1118.14 1490.7 1119.5 1493.04 Q1120.86 1495.4 1123.84 1495.25 Q1126.84 1495.1 1131.45 1492.43 Q1136.09 1489.76 1137.7 1487.24 Q1139.34 1484.73 1137.98 1482.37 M1140.38 1480.99 Q1142.56 1484.76 1140.71 1488.47 Q1138.89 1492.19 1133.21 1495.47 Q1127.54 1498.74 1123.39 1498.47 Q1119.27 1498.21 1117.09 1494.43 Q1114.91 1490.66 1116.74 1486.94 Q1118.58 1483.23 1124.25 1479.95 Q1129.93 1476.67 1134.06 1476.94 Q1138.2 1477.21 1140.38 1480.99 Z" fill="#4c4c4c" fill-rule="evenodd" fill-opacity="1" /><path clip-path="url(#clip700)" d="M1266.75 1468.01 Q1265.56 1465.97 1263.47 1465.57 Q1261.39 1465.19 1258.95 1466.6 Q1256.53 1467.99 1255.8 1470 Q1255.1 1472.01 1256.28 1474.05 Q1257.46 1476.1 1259.55 1476.48 Q1261.65 1476.87 1264.07 1475.47 Q1266.51 1474.06 1267.21 1472.05 Q1267.93 1470.06 1266.75 1468.01 M1279.74 1468.55 L1276.98 1470.14 Q1276.86 1468.69 1276.47 1467.35 Q1276.08 1466.03 1275.42 1464.89 Q1273.69 1461.88 1270.74 1461.46 Q1267.8 1461.05 1263.56 1463.19 Q1265.38 1463.33 1266.85 1464.26 Q1268.33 1465.19 1269.25 1466.8 Q1271.21 1470.19 1270.28 1473.33 Q1269.37 1476.48 1265.84 1478.52 Q1262.38 1480.52 1259.11 1479.68 Q1255.84 1478.84 1253.88 1475.44 Q1251.63 1471.55 1253.41 1467.77 Q1255.22 1463.98 1260.89 1460.71 Q1266.21 1457.64 1270.82 1458.34 Q1275.45 1459.03 1277.91 1463.29 Q1278.57 1464.43 1279.01 1465.72 Q1279.47 1467.02 1279.74 1468.55 Z" fill="#4c4c4c" fill-rule="evenodd" fill-opacity="1" /><path clip-path="url(#clip700)" d="M1285.85 1482.6 Q1284.5 1480.25 1281.5 1480.4 Q1278.52 1480.56 1273.89 1483.23 Q1269.27 1485.9 1267.63 1488.41 Q1266.02 1490.92 1267.37 1493.27 Q1268.74 1495.63 1271.71 1495.47 Q1274.72 1495.32 1279.33 1492.66 Q1283.96 1489.99 1285.58 1487.47 Q1287.22 1484.96 1285.85 1482.6 M1288.26 1481.21 Q1290.44 1484.98 1288.59 1488.7 Q1286.77 1492.42 1281.09 1495.7 Q1275.42 1498.97 1271.27 1498.7 Q1267.15 1498.43 1264.97 1494.66 Q1262.79 1490.88 1264.61 1487.16 Q1266.46 1483.45 1272.13 1480.18 Q1277.81 1476.9 1281.93 1477.16 Q1286.08 1477.44 1288.26 1481.21 Z" fill="#4c4c4c" fill-rule="evenodd" fill-opacity="1" /><path clip-path="url(#clip700)" d="M1419.88 1454.22 L1428.21 1468.65 L1426.92 1469.4 L1401.06 1473.46 L1399.23 1470.29 L1423.55 1466.47 L1417.32 1455.69 L1419.88 1454.22 Z" fill="#4c4c4c" fill-rule="evenodd" fill-opacity="1" /><path clip-path="url(#clip700)" d="M1433.38 1482.22 Q1432.03 1479.88 1429.03 1480.03 Q1426.05 1480.18 1421.42 1482.86 Q1416.8 1485.52 1415.16 1488.03 Q1413.55 1490.55 1414.9 1492.89 Q1416.27 1495.25 1419.24 1495.1 Q1422.25 1494.95 1426.86 1492.28 Q1431.49 1489.61 1433.11 1487.09 Q1434.74 1484.58 1433.38 1482.22 M1435.79 1480.84 Q1437.97 1484.61 1436.12 1488.32 Q1434.3 1492.04 1428.61 1495.32 Q1422.95 1498.59 1418.8 1498.32 Q1414.68 1498.06 1412.5 1494.28 Q1410.32 1490.51 1412.14 1486.79 Q1413.99 1483.08 1419.66 1479.8 Q1425.34 1476.52 1429.46 1476.79 Q1433.61 1477.06 1435.79 1480.84 Z" fill="#4c4c4c" fill-rule="evenodd" fill-opacity="1" /><path clip-path="url(#clip700)" d="M1560.28 1468.72 Q1559.03 1466.56 1557.15 1465.98 Q1555.28 1465.41 1553.25 1466.58 Q1551.22 1467.76 1550.78 1469.66 Q1550.34 1471.57 1551.59 1473.74 Q1552.84 1475.9 1554.72 1476.48 Q1556.61 1477.05 1558.63 1475.89 Q1560.66 1474.72 1561.09 1472.8 Q1561.54 1470.9 1560.28 1468.72 M1559.82 1464.94 Q1559.17 1462.7 1559.88 1460.83 Q1560.59 1458.98 1562.52 1457.87 Q1565.21 1456.31 1567.87 1457.32 Q1570.55 1458.34 1572.48 1461.68 Q1574.41 1465.03 1573.95 1467.85 Q1573.49 1470.66 1570.8 1472.21 Q1568.87 1473.32 1566.9 1473 Q1564.94 1472.69 1563.34 1471.03 Q1564.09 1473.52 1563.31 1475.59 Q1562.53 1477.69 1560.38 1478.93 Q1557.12 1480.81 1554.22 1479.82 Q1551.33 1478.84 1549.19 1475.13 Q1547.04 1471.41 1547.63 1468.41 Q1548.23 1465.41 1551.49 1463.53 Q1553.64 1462.29 1555.84 1462.66 Q1558.04 1463.04 1559.82 1464.94 M1563.98 1461.06 Q1562.23 1462.06 1561.88 1463.71 Q1561.54 1465.37 1562.67 1467.34 Q1563.8 1469.29 1565.41 1469.83 Q1567.03 1470.38 1568.78 1469.37 Q1570.52 1468.36 1570.85 1466.69 Q1571.2 1465.02 1570.07 1463.07 Q1568.93 1461.1 1567.32 1460.57 Q1565.72 1460.05 1563.98 1461.06 Z" fill="#4c4c4c" fill-rule="evenodd" fill-opacity="1" /><path clip-path="url(#clip700)" d="M1581.38 1482.66 Q1580.03 1480.31 1577.03 1480.46 Q1574.05 1480.62 1569.42 1483.29 Q1564.8 1485.96 1563.16 1488.47 Q1561.55 1490.98 1562.9 1493.33 Q1564.27 1495.69 1567.24 1495.53 Q1570.24 1495.38 1574.86 1492.72 Q1579.49 1490.05 1581.11 1487.53 Q1582.74 1485.02 1581.38 1482.66 M1583.79 1481.27 Q1585.96 1485.04 1584.12 1488.76 Q1582.3 1492.48 1576.61 1495.76 Q1570.94 1499.03 1566.8 1498.76 Q1562.68 1498.49 1560.5 1494.72 Q1558.32 1490.94 1560.14 1487.23 Q1561.99 1483.51 1567.65 1480.24 Q1573.34 1476.96 1577.46 1477.23 Q1581.61 1477.5 1583.79 1481.27 Z" fill="#4c4c4c" fill-rule="evenodd" fill-opacity="1" /><path clip-path="url(#clip700)" d="M1694.22 1468.35 L1696.99 1466.75 Q1697.11 1468.21 1697.5 1469.55 Q1697.89 1470.88 1698.54 1472.01 Q1700.28 1475.02 1703.2 1475.43 Q1706.15 1475.86 1710.4 1473.7 Q1708.61 1473.58 1707.14 1472.64 Q1705.68 1471.7 1704.74 1470.08 Q1702.8 1466.71 1703.69 1463.57 Q1704.61 1460.43 1708.14 1458.39 Q1711.6 1456.4 1714.87 1457.23 Q1718.14 1458.07 1720.1 1461.47 Q1722.35 1465.36 1720.54 1469.14 Q1718.75 1472.91 1713.07 1476.2 Q1707.76 1479.26 1703.13 1478.57 Q1698.52 1477.88 1696.06 1473.62 Q1695.4 1472.48 1694.95 1471.18 Q1694.5 1469.87 1694.22 1468.35 M1707.23 1468.9 Q1708.41 1470.95 1710.5 1471.33 Q1712.59 1471.72 1715.02 1470.32 Q1717.44 1468.92 1718.15 1466.91 Q1718.88 1464.9 1717.69 1462.86 Q1716.51 1460.81 1714.41 1460.43 Q1712.32 1460.05 1709.9 1461.44 Q1707.47 1462.85 1706.75 1464.85 Q1706.05 1466.86 1707.23 1468.9 Z" fill="#4c4c4c" fill-rule="evenodd" fill-opacity="1" /><path clip-path="url(#clip700)" d="M1729.21 1482.81 Q1727.86 1480.46 1724.86 1480.61 Q1721.88 1480.77 1717.25 1483.44 Q1712.63 1486.11 1711 1488.62 Q1709.38 1491.13 1710.74 1493.48 Q1712.1 1495.84 1715.08 1495.68 Q1718.08 1495.53 1722.69 1492.87 Q1727.32 1490.2 1728.94 1487.68 Q1730.58 1485.17 1729.21 1482.81 M1731.62 1481.42 Q1733.8 1485.2 1731.95 1488.91 Q1730.13 1492.63 1724.45 1495.91 Q1718.78 1499.18 1714.63 1498.91 Q1710.51 1498.64 1708.33 1494.87 Q1706.15 1491.09 1707.97 1487.38 Q1709.82 1483.66 1715.49 1480.39 Q1721.17 1477.11 1725.29 1477.38 Q1729.44 1477.65 1731.62 1481.42 Z" fill="#4c4c4c" fill-rule="evenodd" fill-opacity="1" /><path clip-path="url(#clip700)" d="M1843.48 1466.14 L1846.34 1471.1 L1863.47 1461.21 L1859.27 1456.44 L1862.04 1454.84 L1866.22 1459.58 L1867.97 1462.62 L1848.08 1474.11 L1850.94 1479.07 L1848.39 1480.54 L1840.92 1467.61 L1843.48 1466.14 Z" fill="#4c4c4c" fill-rule="evenodd" fill-opacity="1" /><path clip-path="url(#clip700)" d="M1876.13 1481.37 Q1874.77 1479.02 1871.77 1479.17 Q1868.79 1479.33 1864.16 1482 Q1859.55 1484.66 1857.91 1487.17 Q1856.3 1489.69 1857.65 1492.04 Q1859.01 1494.4 1861.99 1494.24 Q1864.99 1494.09 1869.61 1491.43 Q1874.24 1488.75 1875.85 1486.24 Q1877.49 1483.73 1876.13 1481.37 M1878.53 1479.98 Q1880.71 1483.75 1878.87 1487.46 Q1877.04 1491.18 1871.36 1494.46 Q1865.69 1497.74 1861.55 1497.46 Q1857.42 1497.2 1855.24 1493.42 Q1853.06 1489.65 1854.89 1485.93 Q1856.73 1482.22 1862.4 1478.95 Q1868.08 1475.67 1872.21 1475.93 Q1876.35 1476.2 1878.53 1479.98 Z" fill="#4c4c4c" fill-rule="evenodd" fill-opacity="1" /><path clip-path="url(#clip700)" d="M1887.44 1500.96 Q1886.08 1498.61 1883.08 1498.76 Q1880.11 1498.92 1875.47 1501.59 Q1870.86 1504.26 1869.22 1506.76 Q1867.61 1509.28 1868.96 1511.63 Q1870.32 1513.99 1873.3 1513.83 Q1876.3 1513.68 1880.92 1511.02 Q1885.55 1508.34 1887.16 1505.83 Q1888.8 1503.32 1887.44 1500.96 M1889.84 1499.57 Q1892.02 1503.34 1890.18 1507.05 Q1888.35 1510.77 1882.67 1514.05 Q1877 1517.33 1872.86 1517.05 Q1868.73 1516.79 1866.55 1513.01 Q1864.38 1509.24 1866.2 1505.52 Q1868.04 1501.81 1873.71 1498.54 Q1879.4 1495.26 1883.52 1495.52 Q1887.66 1495.8 1889.84 1499.57 Z" fill="#4c4c4c" fill-rule="evenodd" fill-opacity="1" /><path clip-path="url(#clip700)" d="M1991.23 1466.14 L1994.09 1471.1 L2011.21 1461.21 L2007.02 1456.44 L2009.78 1454.84 L2013.96 1459.58 L2015.72 1462.62 L1995.83 1474.11 L1998.69 1479.07 L1996.13 1480.54 L1988.67 1467.61 L1991.23 1466.14 Z" fill="#4c4c4c" fill-rule="evenodd" fill-opacity="1" /><path clip-path="url(#clip700)" d="M2002.54 1485.73 L2005.4 1490.69 L2022.53 1480.8 L2018.33 1476.03 L2021.09 1474.43 L2025.27 1479.18 L2027.03 1482.21 L2007.14 1493.7 L2010 1498.66 L2007.45 1500.13 L1999.98 1487.2 L2002.54 1485.73 Z" fill="#4c4c4c" fill-rule="evenodd" fill-opacity="1" /><path clip-path="url(#clip700)" d="M2035.18 1500.96 Q2033.83 1498.61 2030.83 1498.76 Q2027.85 1498.92 2023.22 1501.59 Q2018.61 1504.26 2016.97 1506.76 Q2015.35 1509.28 2016.71 1511.63 Q2018.07 1513.99 2021.05 1513.83 Q2024.05 1513.68 2028.66 1511.02 Q2033.29 1508.34 2034.91 1505.83 Q2036.55 1503.32 2035.18 1500.96 M2037.59 1499.57 Q2039.77 1503.34 2037.92 1507.05 Q2036.1 1510.77 2030.42 1514.05 Q2024.75 1517.33 2020.6 1517.05 Q2016.48 1516.79 2014.3 1513.01 Q2012.12 1509.24 2013.94 1505.52 Q2015.79 1501.81 2021.46 1498.54 Q2027.14 1495.26 2031.27 1495.52 Q2035.41 1495.8 2037.59 1499.57 Z" fill="#4c4c4c" fill-rule="evenodd" fill-opacity="1" /><path clip-path="url(#clip700)" d="M2138.97 1466.14 L2141.84 1471.1 L2158.96 1461.21 L2154.76 1456.44 L2157.53 1454.84 L2161.71 1459.58 L2163.46 1462.62 L2143.57 1474.11 L2146.44 1479.07 L2143.88 1480.54 L2136.42 1467.61 L2138.97 1466.14 Z" fill="#4c4c4c" fill-rule="evenodd" fill-opacity="1" /><path clip-path="url(#clip700)" d="M2151.49 1487.82 L2157.61 1498.42 L2155.05 1499.89 L2146.82 1485.64 L2149.38 1484.16 Q2152.17 1484.86 2156.89 1486.1 Q2161.64 1487.35 2162.96 1487.61 Q2165.44 1488.12 2166.9 1488.04 Q2168.38 1487.97 2169.47 1487.34 Q2171.26 1486.3 2171.66 1484.39 Q2172.07 1482.49 2170.91 1480.48 Q2170.08 1479.05 2168.67 1477.74 Q2167.26 1476.45 2165.21 1475.23 L2168.28 1473.46 Q2170.07 1474.86 2171.37 1476.24 Q2172.66 1477.62 2173.43 1478.94 Q2175.44 1482.43 2174.9 1485.51 Q2174.35 1488.59 2171.43 1490.28 Q2170.05 1491.08 2168.5 1491.27 Q2166.97 1491.47 2164.5 1491.07 Q2163.84 1490.95 2160.59 1490.14 Q2157.35 1489.32 2151.49 1487.82 Z" fill="#4c4c4c" fill-rule="evenodd" fill-opacity="1" /><path clip-path="url(#clip700)" d="M2182.93 1500.96 Q2181.58 1498.61 2178.58 1498.76 Q2175.6 1498.92 2170.97 1501.59 Q2166.35 1504.26 2164.71 1506.76 Q2163.1 1509.28 2164.45 1511.63 Q2165.82 1513.99 2168.79 1513.83 Q2171.79 1513.68 2176.41 1511.02 Q2181.04 1508.34 2182.66 1505.83 Q2184.29 1503.32 2182.93 1500.96 M2185.34 1499.57 Q2187.52 1503.34 2185.67 1507.05 Q2183.85 1510.77 2178.16 1514.05 Q2172.5 1517.33 2168.35 1517.05 Q2164.23 1516.79 2162.05 1513.01 Q2159.87 1509.24 2161.69 1505.52 Q2163.54 1501.81 2169.21 1498.54 Q2174.89 1495.26 2179.01 1495.52 Q2183.16 1495.8 2185.34 1499.57 Z" fill="#4c4c4c" fill-rule="evenodd" fill-opacity="1" /><path clip-path="url(#clip700)" d="M2286.72 1466.14 L2289.58 1471.1 L2306.71 1461.21 L2302.51 1456.44 L2305.28 1454.84 L2309.46 1459.58 L2311.21 1462.62 L2291.32 1474.11 L2294.18 1479.07 L2291.63 1480.54 L2284.16 1467.61 L2286.72 1466.14 Z" fill="#4c4c4c" fill-rule="evenodd" fill-opacity="1" /><path clip-path="url(#clip700)" d="M2312.59 1488.89 Q2313.38 1491.34 2312.61 1493.41 Q2311.85 1495.49 2309.68 1496.74 Q2306.36 1498.66 2303.22 1497.43 Q2300.08 1496.19 2297.65 1491.98 Q2296.83 1490.57 2296.25 1488.9 Q2295.66 1487.25 2295.3 1485.34 L2298.23 1483.65 Q2298.22 1485.34 2298.72 1487.06 Q2299.21 1488.78 2300.15 1490.41 Q2301.8 1493.27 2303.79 1494.11 Q2305.79 1494.96 2307.94 1493.72 Q2309.92 1492.57 2310.23 1490.53 Q2310.56 1488.5 2309.12 1486.02 L2307.61 1483.4 L2310.11 1481.96 L2311.69 1484.7 Q2312.98 1486.94 2314.55 1487.61 Q2316.14 1488.28 2317.83 1487.31 Q2319.56 1486.31 2319.76 1484.55 Q2319.99 1482.79 2318.67 1480.51 Q2317.95 1479.26 2316.85 1477.99 Q2315.76 1476.71 2314.2 1475.33 L2316.9 1473.77 Q2318.38 1475.22 2319.49 1476.58 Q2320.61 1477.96 2321.38 1479.3 Q2323.38 1482.76 2322.96 1485.69 Q2322.56 1488.6 2319.89 1490.15 Q2318.02 1491.22 2316.11 1490.9 Q2314.22 1490.57 2312.59 1488.89 Z" fill="#4c4c4c" fill-rule="evenodd" fill-opacity="1" /><path clip-path="url(#clip700)" d="M2330.68 1500.96 Q2329.32 1498.61 2326.32 1498.76 Q2323.35 1498.92 2318.71 1501.59 Q2314.1 1504.26 2312.46 1506.76 Q2310.85 1509.28 2312.2 1511.63 Q2313.56 1513.99 2316.54 1513.83 Q2319.54 1513.68 2324.16 1511.02 Q2328.79 1508.34 2330.4 1505.83 Q2332.04 1503.32 2330.68 1500.96 M2333.08 1499.57 Q2335.26 1503.34 2333.42 1507.05 Q2331.59 1510.77 2325.91 1514.05 Q2320.24 1517.33 2316.1 1517.05 Q2311.97 1516.79 2309.79 1513.01 Q2307.62 1509.24 2309.44 1505.52 Q2311.28 1501.81 2316.95 1498.54 Q2322.64 1495.26 2326.76 1495.52 Q2330.9 1495.8 2333.08 1499.57 Z" fill="#4c4c4c" fill-rule="evenodd" fill-opacity="1" /><path clip-path="url(#clip700)" d="M1225.37 1537.87 L1230.05 1537.87 L1230.05 1572.43 L1225.37 1572.43 L1225.37 1537.87 Z" fill="#000000" fill-rule="evenodd" fill-opacity="1" /><path clip-path="url(#clip700)" d="M1243.38 1539.15 L1243.38 1546.51 L1252.15 1546.51 L1252.15 1549.82 L1243.38 1549.82 L1243.38 1563.89 Q1243.38 1567.06 1244.24 1567.97 Q1245.12 1568.87 1247.78 1568.87 L1252.15 1568.87 L1252.15 1572.43 L1247.78 1572.43 Q1242.85 1572.43 1240.97 1570.6 Q1239.1 1568.75 1239.1 1563.89 L1239.1 1549.82 L1235.97 1549.82 L1235.97 1546.51 L1239.1 1546.51 L1239.1 1539.15 L1243.38 1539.15 Z" fill="#000000" fill-rule="evenodd" fill-opacity="1" /><path clip-path="url(#clip700)" d="M1279.93 1558.41 L1279.93 1560.49 L1260.35 1560.49 Q1260.63 1564.89 1262.99 1567.2 Q1265.37 1569.49 1269.61 1569.49 Q1272.06 1569.49 1274.35 1568.89 Q1276.67 1568.29 1278.94 1567.09 L1278.94 1571.11 Q1276.65 1572.09 1274.24 1572.6 Q1271.83 1573.1 1269.35 1573.1 Q1263.15 1573.1 1259.52 1569.49 Q1255.9 1565.88 1255.9 1559.73 Q1255.9 1553.36 1259.33 1549.63 Q1262.78 1545.88 1268.61 1545.88 Q1273.84 1545.88 1276.88 1549.26 Q1279.93 1552.62 1279.93 1558.41 M1275.67 1557.16 Q1275.63 1553.66 1273.71 1551.58 Q1271.81 1549.49 1268.66 1549.49 Q1265.09 1549.49 1262.94 1551.51 Q1260.81 1553.52 1260.49 1557.18 L1275.67 1557.16 Z" fill="#000000" fill-rule="evenodd" fill-opacity="1" /><path clip-path="url(#clip700)" d="M1301.95 1550.49 Q1301.23 1550.07 1300.37 1549.89 Q1299.54 1549.68 1298.52 1549.68 Q1294.91 1549.68 1292.96 1552.04 Q1291.04 1554.38 1291.04 1558.78 L1291.04 1572.43 L1286.76 1572.43 L1286.76 1546.51 L1291.04 1546.51 L1291.04 1550.54 Q1292.39 1548.17 1294.54 1547.04 Q1296.69 1545.88 1299.77 1545.88 Q1300.21 1545.88 1300.74 1545.95 Q1301.27 1546 1301.92 1546.11 L1301.95 1550.49 Z" fill="#000000" fill-rule="evenodd" fill-opacity="1" /><path clip-path="url(#clip700)" d="M1318.2 1559.4 Q1313.03 1559.4 1311.04 1560.58 Q1309.05 1561.76 1309.05 1564.61 Q1309.05 1566.88 1310.53 1568.22 Q1312.04 1569.54 1314.61 1569.54 Q1318.15 1569.54 1320.28 1567.04 Q1322.43 1564.52 1322.43 1560.35 L1322.43 1559.4 L1318.2 1559.4 M1326.69 1557.64 L1326.69 1572.43 L1322.43 1572.43 L1322.43 1568.5 Q1320.97 1570.86 1318.8 1571.99 Q1316.62 1573.1 1313.47 1573.1 Q1309.49 1573.1 1307.13 1570.88 Q1304.79 1568.64 1304.79 1564.89 Q1304.79 1560.51 1307.71 1558.29 Q1310.65 1556.07 1316.46 1556.07 L1322.43 1556.07 L1322.43 1555.65 Q1322.43 1552.71 1320.49 1551.11 Q1318.57 1549.49 1315.07 1549.49 Q1312.85 1549.49 1310.74 1550.03 Q1308.64 1550.56 1306.69 1551.62 L1306.69 1547.69 Q1309.03 1546.79 1311.23 1546.35 Q1313.43 1545.88 1315.51 1545.88 Q1321.14 1545.88 1323.91 1548.8 Q1326.69 1551.72 1326.69 1557.64 Z" fill="#000000" fill-rule="evenodd" fill-opacity="1" /><path clip-path="url(#clip700)" d="M1339.68 1539.15 L1339.68 1546.51 L1348.45 1546.51 L1348.45 1549.82 L1339.68 1549.82 L1339.68 1563.89 Q1339.68 1567.06 1340.53 1567.97 Q1341.41 1568.87 1344.08 1568.87 L1348.45 1568.87 L1348.45 1572.43 L1344.08 1572.43 Q1339.14 1572.43 1337.27 1570.6 Q1335.39 1568.75 1335.39 1563.89 L1335.39 1549.82 L1332.27 1549.82 L1332.27 1546.51 L1335.39 1546.51 L1335.39 1539.15 L1339.68 1539.15 Z" fill="#000000" fill-rule="evenodd" fill-opacity="1" /><path clip-path="url(#clip700)" d="M1354.05 1546.51 L1358.31 1546.51 L1358.31 1572.43 L1354.05 1572.43 L1354.05 1546.51 M1354.05 1536.42 L1358.31 1536.42 L1358.31 1541.81 L1354.05 1541.81 L1354.05 1536.42 Z" fill="#000000" fill-rule="evenodd" fill-opacity="1" /><path clip-path="url(#clip700)" d="M1377.27 1549.49 Q1373.84 1549.49 1371.85 1552.18 Q1369.86 1554.84 1369.86 1559.49 Q1369.86 1564.15 1371.83 1566.83 Q1373.82 1569.49 1377.27 1569.49 Q1380.67 1569.49 1382.66 1566.81 Q1384.65 1564.12 1384.65 1559.49 Q1384.65 1554.89 1382.66 1552.2 Q1380.67 1549.49 1377.27 1549.49 M1377.27 1545.88 Q1382.83 1545.88 1386 1549.49 Q1389.17 1553.1 1389.17 1559.49 Q1389.17 1565.86 1386 1569.49 Q1382.83 1573.1 1377.27 1573.1 Q1371.69 1573.1 1368.52 1569.49 Q1365.37 1565.86 1365.37 1559.49 Q1365.37 1553.1 1368.52 1549.49 Q1371.69 1545.88 1377.27 1545.88 Z" fill="#000000" fill-rule="evenodd" fill-opacity="1" /><path clip-path="url(#clip700)" d="M1417.78 1556.79 L1417.78 1572.43 L1413.52 1572.43 L1413.52 1556.92 Q1413.52 1553.24 1412.08 1551.41 Q1410.65 1549.59 1407.78 1549.59 Q1404.33 1549.59 1402.34 1551.79 Q1400.35 1553.98 1400.35 1557.78 L1400.35 1572.43 L1396.07 1572.43 L1396.07 1546.51 L1400.35 1546.51 L1400.35 1550.54 Q1401.88 1548.2 1403.94 1547.04 Q1406.02 1545.88 1408.73 1545.88 Q1413.2 1545.88 1415.49 1548.66 Q1417.78 1551.41 1417.78 1556.79 Z" fill="#000000" fill-rule="evenodd" fill-opacity="1" /><path clip-path="url(#clip700)" d="M1442.8 1547.27 L1442.8 1551.3 Q1441 1550.37 1439.05 1549.91 Q1437.11 1549.45 1435.02 1549.45 Q1431.85 1549.45 1430.26 1550.42 Q1428.68 1551.39 1428.68 1553.34 Q1428.68 1554.82 1429.82 1555.67 Q1430.95 1556.51 1434.38 1557.27 L1435.83 1557.6 Q1440.37 1558.57 1442.27 1560.35 Q1444.19 1562.11 1444.19 1565.28 Q1444.19 1568.89 1441.32 1571 Q1438.47 1573.1 1433.47 1573.1 Q1431.39 1573.1 1429.12 1572.69 Q1426.88 1572.29 1424.38 1571.48 L1424.38 1567.09 Q1426.74 1568.31 1429.03 1568.94 Q1431.32 1569.54 1433.57 1569.54 Q1436.57 1569.54 1438.2 1568.52 Q1439.82 1567.48 1439.82 1565.6 Q1439.82 1563.87 1438.63 1562.94 Q1437.48 1562.02 1433.52 1561.16 L1432.04 1560.81 Q1428.08 1559.98 1426.32 1558.27 Q1424.56 1556.53 1424.56 1553.52 Q1424.56 1549.86 1427.15 1547.87 Q1429.75 1545.88 1434.51 1545.88 Q1436.88 1545.88 1438.96 1546.23 Q1441.04 1546.58 1442.8 1547.27 Z" fill="#000000" fill-rule="evenodd" fill-opacity="1" /><polyline clip-path="url(#clip702)" style="stroke:#ffffff; stroke-linecap:butt; stroke-linejoin:round; stroke-width:4; stroke-opacity:1; fill:none" points="
  316.807,1278.28 2352.76,1278.28 
  "/>
<polyline clip-path="url(#clip702)" style="stroke:#ffffff; stroke-linecap:butt; stroke-linejoin:round; stroke-width:4; stroke-opacity:1; fill:none" points="
  316.807,974.846 2352.76,974.846 
  "/>
<polyline clip-path="url(#clip702)" style="stroke:#ffffff; stroke-linecap:butt; stroke-linejoin:round; stroke-width:4; stroke-opacity:1; fill:none" points="
  316.807,671.412 2352.76,671.412 
  "/>
<polyline clip-path="url(#clip702)" style="stroke:#ffffff; stroke-linecap:butt; stroke-linejoin:round; stroke-width:4; stroke-opacity:1; fill:none" points="
  316.807,367.978 2352.76,367.978 
  "/>
<polyline clip-path="url(#clip702)" style="stroke:#ffffff; stroke-linecap:butt; stroke-linejoin:round; stroke-width:2; stroke-opacity:1; fill:none" points="
  316.807,1126.56 2352.76,1126.56 
  "/>
<polyline clip-path="url(#clip702)" style="stroke:#ffffff; stroke-linecap:butt; stroke-linejoin:round; stroke-width:2; stroke-opacity:1; fill:none" points="
  316.807,823.129 2352.76,823.129 
  "/>
<polyline clip-path="url(#clip702)" style="stroke:#ffffff; stroke-linecap:butt; stroke-linejoin:round; stroke-width:2; stroke-opacity:1; fill:none" points="
  316.807,519.695 2352.76,519.695 
  "/>
<polyline clip-path="url(#clip702)" style="stroke:#ffffff; stroke-linecap:butt; stroke-linejoin:round; stroke-width:2; stroke-opacity:1; fill:none" points="
  316.807,216.261 2352.76,216.261 
  "/>
<polyline clip-path="url(#clip700)" style="stroke:#ffffff; stroke-linecap:butt; stroke-linejoin:round; stroke-width:4; stroke-opacity:1; fill:none" points="
  316.807,1422.18 316.807,106.192 
  "/>
<polyline clip-path="url(#clip700)" style="stroke:#333333; stroke-linecap:butt; stroke-linejoin:round; stroke-width:4; stroke-opacity:1; fill:none" points="
  316.807,1278.28 297.909,1278.28 
  "/>
<polyline clip-path="url(#clip700)" style="stroke:#333333; stroke-linecap:butt; stroke-linejoin:round; stroke-width:4; stroke-opacity:1; fill:none" points="
  316.807,974.846 297.909,974.846 
  "/>
<polyline clip-path="url(#clip700)" style="stroke:#333333; stroke-linecap:butt; stroke-linejoin:round; stroke-width:4; stroke-opacity:1; fill:none" points="
  316.807,671.412 297.909,671.412 
  "/>
<polyline clip-path="url(#clip700)" style="stroke:#333333; stroke-linecap:butt; stroke-linejoin:round; stroke-width:4; stroke-opacity:1; fill:none" points="
  316.807,367.978 297.909,367.978 
  "/>
<polyline clip-path="url(#clip700)" style="stroke:#333333; stroke-linecap:butt; stroke-linejoin:round; stroke-width:4; stroke-opacity:1; fill:none" points="
  316.807,1126.56 307.358,1126.56 
  "/>
<polyline clip-path="url(#clip700)" style="stroke:#333333; stroke-linecap:butt; stroke-linejoin:round; stroke-width:4; stroke-opacity:1; fill:none" points="
  316.807,823.129 307.358,823.129 
  "/>
<polyline clip-path="url(#clip700)" style="stroke:#333333; stroke-linecap:butt; stroke-linejoin:round; stroke-width:4; stroke-opacity:1; fill:none" points="
  316.807,519.695 307.358,519.695 
  "/>
<polyline clip-path="url(#clip700)" style="stroke:#333333; stroke-linecap:butt; stroke-linejoin:round; stroke-width:4; stroke-opacity:1; fill:none" points="
  316.807,216.261 307.358,216.261 
  "/>
<path clip-path="url(#clip700)" d="M193.901 1278.62 L216.158 1278.62 L216.158 1281.57 L193.901 1281.57 L193.901 1278.62 Z" fill="#4c4c4c" fill-rule="evenodd" fill-opacity="1" /><path clip-path="url(#clip700)" d="M223.831 1290.7 L223.831 1287.51 Q225.151 1288.13 226.505 1288.46 Q227.859 1288.79 229.161 1288.79 Q232.633 1288.79 234.456 1286.47 Q236.297 1284.12 236.557 1279.37 Q235.55 1280.86 234.005 1281.66 Q232.46 1282.46 230.585 1282.46 Q226.696 1282.46 224.422 1280.11 Q222.165 1277.75 222.165 1273.67 Q222.165 1269.68 224.526 1267.26 Q226.887 1264.85 230.81 1264.85 Q235.307 1264.85 237.668 1268.31 Q240.047 1271.74 240.047 1278.31 Q240.047 1284.43 237.13 1288.1 Q234.231 1291.74 229.317 1291.74 Q227.998 1291.74 226.644 1291.48 Q225.29 1291.22 223.831 1290.7 M230.81 1279.71 Q233.172 1279.71 234.543 1278.1 Q235.932 1276.48 235.932 1273.67 Q235.932 1270.88 234.543 1269.26 Q233.172 1267.63 230.81 1267.63 Q228.449 1267.63 227.061 1269.26 Q225.689 1270.88 225.689 1273.67 Q225.689 1276.48 227.061 1278.1 Q228.449 1279.71 230.81 1279.71 Z" fill="#4c4c4c" fill-rule="evenodd" fill-opacity="1" /><path clip-path="url(#clip700)" d="M253.849 1267.63 Q251.14 1267.63 249.769 1270.3 Q248.415 1272.96 248.415 1278.31 Q248.415 1283.64 249.769 1286.31 Q251.14 1288.97 253.849 1288.97 Q256.574 1288.97 257.928 1286.31 Q259.3 1283.64 259.3 1278.31 Q259.3 1272.96 257.928 1270.3 Q256.574 1267.63 253.849 1267.63 M253.849 1264.85 Q258.206 1264.85 260.498 1268.31 Q262.807 1271.74 262.807 1278.31 Q262.807 1284.85 260.498 1288.31 Q258.206 1291.74 253.849 1291.74 Q249.491 1291.74 247.182 1288.31 Q244.89 1284.85 244.89 1278.31 Q244.89 1271.74 247.182 1268.31 Q249.491 1264.85 253.849 1264.85 Z" fill="#4c4c4c" fill-rule="evenodd" fill-opacity="1" /><path clip-path="url(#clip700)" d="M193.97 975.185 L216.227 975.185 L216.227 978.136 L193.97 978.136 L193.97 975.185 Z" fill="#4c4c4c" fill-rule="evenodd" fill-opacity="1" /><path clip-path="url(#clip700)" d="M231.297 975.497 Q228.797 975.497 227.356 976.834 Q225.932 978.171 225.932 980.515 Q225.932 982.858 227.356 984.195 Q228.797 985.532 231.297 985.532 Q233.797 985.532 235.238 984.195 Q236.679 982.841 236.679 980.515 Q236.679 978.171 235.238 976.834 Q233.814 975.497 231.297 975.497 M227.79 974.004 Q225.533 973.449 224.265 971.904 Q223.015 970.358 223.015 968.136 Q223.015 965.029 225.22 963.223 Q227.442 961.418 231.297 961.418 Q235.168 961.418 237.373 963.223 Q239.578 965.029 239.578 968.136 Q239.578 970.358 238.31 971.904 Q237.06 973.449 234.821 974.004 Q237.356 974.595 238.762 976.313 Q240.185 978.032 240.185 980.515 Q240.185 984.282 237.876 986.296 Q235.585 988.31 231.297 988.31 Q227.008 988.31 224.699 986.296 Q222.408 984.282 222.408 980.515 Q222.408 978.032 223.831 976.313 Q225.255 974.595 227.79 974.004 M226.505 968.466 Q226.505 970.48 227.755 971.608 Q229.022 972.737 231.297 972.737 Q233.554 972.737 234.821 971.608 Q236.106 970.48 236.106 968.466 Q236.106 966.452 234.821 965.324 Q233.554 964.195 231.297 964.195 Q229.022 964.195 227.755 965.324 Q226.505 966.452 226.505 968.466 Z" fill="#4c4c4c" fill-rule="evenodd" fill-opacity="1" /><path clip-path="url(#clip700)" d="M253.918 975.497 Q251.418 975.497 249.977 976.834 Q248.553 978.171 248.553 980.515 Q248.553 982.858 249.977 984.195 Q251.418 985.532 253.918 985.532 Q256.418 985.532 257.859 984.195 Q259.3 982.841 259.3 980.515 Q259.3 978.171 257.859 976.834 Q256.435 975.497 253.918 975.497 M250.411 974.004 Q248.154 973.449 246.887 971.904 Q245.637 970.358 245.637 968.136 Q245.637 965.029 247.842 963.223 Q250.064 961.418 253.918 961.418 Q257.79 961.418 259.994 963.223 Q262.199 965.029 262.199 968.136 Q262.199 970.358 260.932 971.904 Q259.682 973.449 257.442 974.004 Q259.977 974.595 261.383 976.313 Q262.807 978.032 262.807 980.515 Q262.807 984.282 260.498 986.296 Q258.206 988.31 253.918 988.31 Q249.63 988.31 247.321 986.296 Q245.029 984.282 245.029 980.515 Q245.029 978.032 246.453 976.313 Q247.876 974.595 250.411 974.004 M249.126 968.466 Q249.126 970.48 250.376 971.608 Q251.644 972.737 253.918 972.737 Q256.175 972.737 257.442 971.608 Q258.727 970.48 258.727 968.466 Q258.727 966.452 257.442 965.324 Q256.175 964.195 253.918 964.195 Q251.644 964.195 250.376 965.324 Q249.126 966.452 249.126 968.466 Z" fill="#4c4c4c" fill-rule="evenodd" fill-opacity="1" /><path clip-path="url(#clip700)" d="M193.779 671.751 L216.036 671.751 L216.036 674.702 L193.779 674.702 L193.779 671.751 Z" fill="#4c4c4c" fill-rule="evenodd" fill-opacity="1" /><path clip-path="url(#clip700)" d="M231.106 672.063 Q228.606 672.063 227.165 673.4 Q225.741 674.737 225.741 677.081 Q225.741 679.424 227.165 680.761 Q228.606 682.098 231.106 682.098 Q233.606 682.098 235.047 680.761 Q236.488 679.407 236.488 677.081 Q236.488 674.737 235.047 673.4 Q233.623 672.063 231.106 672.063 M227.599 670.57 Q225.342 670.015 224.074 668.47 Q222.824 666.924 222.824 664.702 Q222.824 661.595 225.029 659.789 Q227.251 657.983 231.106 657.983 Q234.977 657.983 237.182 659.789 Q239.387 661.595 239.387 664.702 Q239.387 666.924 238.119 668.47 Q236.869 670.015 234.63 670.57 Q237.165 671.161 238.571 672.879 Q239.994 674.598 239.994 677.081 Q239.994 680.848 237.685 682.862 Q235.394 684.876 231.106 684.876 Q226.817 684.876 224.508 682.862 Q222.217 680.848 222.217 677.081 Q222.217 674.598 223.64 672.879 Q225.064 671.161 227.599 670.57 M226.314 665.032 Q226.314 667.046 227.564 668.174 Q228.831 669.303 231.106 669.303 Q233.363 669.303 234.63 668.174 Q235.915 667.046 235.915 665.032 Q235.915 663.018 234.63 661.89 Q233.363 660.761 231.106 660.761 Q228.831 660.761 227.564 661.89 Q226.314 663.018 226.314 665.032 Z" fill="#4c4c4c" fill-rule="evenodd" fill-opacity="1" /><path clip-path="url(#clip700)" d="M254.161 670.015 Q251.8 670.015 250.411 671.629 Q249.04 673.244 249.04 676.056 Q249.04 678.851 250.411 680.483 Q251.8 682.098 254.161 682.098 Q256.522 682.098 257.894 680.483 Q259.283 678.851 259.283 676.056 Q259.283 673.244 257.894 671.629 Q256.522 670.015 254.161 670.015 M261.123 659.025 L261.123 662.22 Q259.803 661.595 258.449 661.265 Q257.112 660.935 255.793 660.935 Q252.321 660.935 250.481 663.279 Q248.658 665.622 248.397 670.362 Q249.421 668.851 250.967 668.053 Q252.512 667.237 254.369 667.237 Q258.276 667.237 260.533 669.615 Q262.807 671.976 262.807 676.056 Q262.807 680.049 260.446 682.463 Q258.085 684.876 254.161 684.876 Q249.665 684.876 247.286 681.438 Q244.908 677.983 244.908 671.438 Q244.908 665.292 247.824 661.647 Q250.741 657.983 255.654 657.983 Q256.974 657.983 258.31 658.244 Q259.664 658.504 261.123 659.025 Z" fill="#4c4c4c" fill-rule="evenodd" fill-opacity="1" /><path clip-path="url(#clip700)" d="M193.536 368.317 L215.793 368.317 L215.793 371.268 L193.536 371.268 L193.536 368.317 Z" fill="#4c4c4c" fill-rule="evenodd" fill-opacity="1" /><path clip-path="url(#clip700)" d="M230.863 368.629 Q228.363 368.629 226.922 369.966 Q225.498 371.303 225.498 373.647 Q225.498 375.99 226.922 377.327 Q228.363 378.664 230.863 378.664 Q233.363 378.664 234.804 377.327 Q236.244 375.973 236.244 373.647 Q236.244 371.303 234.804 369.966 Q233.38 368.629 230.863 368.629 M227.356 367.136 Q225.099 366.581 223.831 365.035 Q222.581 363.49 222.581 361.268 Q222.581 358.161 224.786 356.355 Q227.008 354.549 230.863 354.549 Q234.734 354.549 236.939 356.355 Q239.144 358.161 239.144 361.268 Q239.144 363.49 237.876 365.035 Q236.626 366.581 234.387 367.136 Q236.922 367.726 238.328 369.445 Q239.751 371.164 239.751 373.647 Q239.751 377.414 237.442 379.428 Q235.151 381.442 230.863 381.442 Q226.574 381.442 224.265 379.428 Q221.974 377.414 221.974 373.647 Q221.974 371.164 223.397 369.445 Q224.821 367.726 227.356 367.136 M226.071 361.598 Q226.071 363.612 227.321 364.74 Q228.588 365.869 230.863 365.869 Q233.119 365.869 234.387 364.74 Q235.672 363.612 235.672 361.598 Q235.672 359.584 234.387 358.456 Q233.119 357.327 230.863 357.327 Q228.588 357.327 227.321 358.456 Q226.071 359.584 226.071 361.598 Z" fill="#4c4c4c" fill-rule="evenodd" fill-opacity="1" /><path clip-path="url(#clip700)" d="M255.619 358.074 L246.765 371.91 L255.619 371.91 L255.619 358.074 M254.699 355.018 L259.109 355.018 L259.109 371.91 L262.807 371.91 L262.807 374.827 L259.109 374.827 L259.109 380.938 L255.619 380.938 L255.619 374.827 L243.918 374.827 L243.918 371.442 L254.699 355.018 Z" fill="#4c4c4c" fill-rule="evenodd" fill-opacity="1" /><path clip-path="url(#clip700)" d="M130.608 973.882 L130.608 944.646 L134.544 944.646 L134.544 956.915 L165.168 956.915 L165.168 961.614 L134.544 961.614 L134.544 973.882 L130.608 973.882 Z" fill="#000000" fill-rule="evenodd" fill-opacity="1" /><path clip-path="url(#clip700)" d="M151.141 926.198 L153.224 926.198 L153.224 945.781 Q157.622 945.503 159.937 943.142 Q162.229 940.758 162.229 936.522 Q162.229 934.068 161.627 931.776 Q161.025 929.461 159.821 927.193 L163.849 927.193 Q164.821 929.485 165.33 931.892 Q165.84 934.299 165.84 936.776 Q165.84 942.98 162.229 946.614 Q158.617 950.225 152.46 950.225 Q146.094 950.225 142.368 946.799 Q138.618 943.35 138.618 937.517 Q138.618 932.285 141.997 929.253 Q145.354 926.198 151.141 926.198 M149.891 930.457 Q146.395 930.503 144.312 932.424 Q142.229 934.322 142.229 937.471 Q142.229 941.035 144.243 943.188 Q146.256 945.318 149.914 945.642 L149.891 930.457 Z" fill="#000000" fill-rule="evenodd" fill-opacity="1" /><path clip-path="url(#clip700)" d="M140.006 902.679 L144.034 902.679 Q143.108 904.485 142.645 906.429 Q142.182 908.374 142.182 910.457 Q142.182 913.628 143.155 915.225 Q144.127 916.799 146.071 916.799 Q147.553 916.799 148.409 915.665 Q149.243 914.531 150.006 911.105 L150.33 909.647 Q151.303 905.11 153.085 903.212 Q154.844 901.29 158.016 901.29 Q161.627 901.29 163.733 904.161 Q165.84 907.008 165.84 912.008 Q165.84 914.091 165.423 916.36 Q165.029 918.605 164.219 921.105 L159.821 921.105 Q161.048 918.744 161.673 916.452 Q162.275 914.161 162.275 911.915 Q162.275 908.906 161.256 907.286 Q160.215 905.665 158.34 905.665 Q156.604 905.665 155.678 906.846 Q154.752 908.003 153.895 911.961 L153.548 913.443 Q152.715 917.401 151.002 919.161 Q149.266 920.92 146.256 920.92 Q142.599 920.92 140.608 918.327 Q138.618 915.735 138.618 910.966 Q138.618 908.605 138.965 906.522 Q139.312 904.438 140.006 902.679 Z" fill="#000000" fill-rule="evenodd" fill-opacity="1" /><path clip-path="url(#clip700)" d="M131.882 890.295 L139.243 890.295 L139.243 881.522 L142.553 881.522 L142.553 890.295 L156.627 890.295 Q159.798 890.295 160.701 889.438 Q161.604 888.559 161.604 885.897 L161.604 881.522 L165.168 881.522 L165.168 885.897 Q165.168 890.827 163.34 892.702 Q161.488 894.577 156.627 894.577 L142.553 894.577 L142.553 897.702 L139.243 897.702 L139.243 894.577 L131.882 894.577 L131.882 890.295 Z" fill="#000000" fill-rule="evenodd" fill-opacity="1" /><path clip-path="url(#clip700)" d="M129.15 860.851 L129.15 856.591 L165.168 856.591 L165.168 860.851 L129.15 860.851 Z" fill="#000000" fill-rule="evenodd" fill-opacity="1" /><path clip-path="url(#clip700)" d="M142.229 837.633 Q142.229 841.059 144.914 843.05 Q147.576 845.041 152.229 845.041 Q156.881 845.041 159.567 843.073 Q162.229 841.082 162.229 837.633 Q162.229 834.23 159.543 832.24 Q156.858 830.249 152.229 830.249 Q147.622 830.249 144.937 832.24 Q142.229 834.23 142.229 837.633 M138.618 837.633 Q138.618 832.078 142.229 828.906 Q145.84 825.735 152.229 825.735 Q158.594 825.735 162.229 828.906 Q165.84 832.078 165.84 837.633 Q165.84 843.212 162.229 846.383 Q158.594 849.531 152.229 849.531 Q145.84 849.531 142.229 846.383 Q138.618 843.212 138.618 837.633 Z" fill="#000000" fill-rule="evenodd" fill-opacity="1" /><path clip-path="url(#clip700)" d="M151.905 801.615 Q147.275 801.615 144.729 803.536 Q142.182 805.434 142.182 808.883 Q142.182 812.309 144.729 814.231 Q147.275 816.129 151.905 816.129 Q156.511 816.129 159.057 814.231 Q161.604 812.309 161.604 808.883 Q161.604 805.434 159.057 803.536 Q156.511 801.615 151.905 801.615 M161.951 797.356 Q168.571 797.356 171.789 800.295 Q175.029 803.235 175.029 809.3 Q175.029 811.545 174.682 813.536 Q174.358 815.527 173.664 817.402 L169.52 817.402 Q170.539 815.527 171.025 813.698 Q171.511 811.869 171.511 809.971 Q171.511 805.781 169.312 803.698 Q167.136 801.615 162.715 801.615 L160.608 801.615 Q162.9 802.934 164.034 804.994 Q165.168 807.055 165.168 809.925 Q165.168 814.693 161.534 817.61 Q157.9 820.527 151.905 820.527 Q145.886 820.527 142.252 817.61 Q138.618 814.693 138.618 809.925 Q138.618 807.055 139.752 804.994 Q140.886 802.934 143.178 801.615 L139.243 801.615 L139.243 797.356 L161.951 797.356 Z" fill="#000000" fill-rule="evenodd" fill-opacity="1" /><path clip-path="url(#clip700)" d="M150.284 790.735 L150.284 778.258 L154.08 778.258 L154.08 790.735 L150.284 790.735 Z" fill="#000000" fill-rule="evenodd" fill-opacity="1" /><path clip-path="url(#clip700)" d="M129.15 771.476 L129.15 767.217 L165.168 767.217 L165.168 771.476 L129.15 771.476 Z" fill="#000000" fill-rule="evenodd" fill-opacity="1" /><path clip-path="url(#clip700)" d="M139.243 758.305 L139.243 754.046 L165.168 754.046 L165.168 758.305 L139.243 758.305 M129.15 758.305 L129.15 754.046 L134.544 754.046 L134.544 758.305 L129.15 758.305 Z" fill="#000000" fill-rule="evenodd" fill-opacity="1" /><path clip-path="url(#clip700)" d="M129.15 745.296 L129.15 741.013 L150.423 741.013 L139.243 728.305 L139.243 722.865 L151.372 736.615 L165.168 722.287 L165.168 727.842 L152.506 741.013 L165.168 741.013 L165.168 745.296 L129.15 745.296 Z" fill="#000000" fill-rule="evenodd" fill-opacity="1" /><path clip-path="url(#clip700)" d="M151.141 697.194 L153.224 697.194 L153.224 716.777 Q157.622 716.5 159.937 714.138 Q162.229 711.754 162.229 707.518 Q162.229 705.064 161.627 702.773 Q161.025 700.458 159.821 698.189 L163.849 698.189 Q164.821 700.481 165.33 702.889 Q165.84 705.296 165.84 707.773 Q165.84 713.976 162.229 717.611 Q158.617 721.222 152.46 721.222 Q146.094 721.222 142.368 717.796 Q138.618 714.347 138.618 708.513 Q138.618 703.282 141.997 700.25 Q145.354 697.194 151.141 697.194 M149.891 701.453 Q146.395 701.5 144.312 703.421 Q142.229 705.319 142.229 708.467 Q142.229 712.032 144.243 714.185 Q146.256 716.314 149.914 716.638 L149.891 701.453 Z" fill="#000000" fill-rule="evenodd" fill-opacity="1" /><path clip-path="url(#clip700)" d="M129.15 690.203 L129.15 685.944 L165.168 685.944 L165.168 690.203 L129.15 690.203 Z" fill="#000000" fill-rule="evenodd" fill-opacity="1" /><path clip-path="url(#clip700)" d="M139.243 677.032 L139.243 672.773 L165.168 672.773 L165.168 677.032 L139.243 677.032 M129.15 677.032 L129.15 672.773 L134.544 672.773 L134.544 677.032 L129.15 677.032 Z" fill="#000000" fill-rule="evenodd" fill-opacity="1" /><path clip-path="url(#clip700)" d="M149.52 642.31 L165.168 642.31 L165.168 646.569 L149.659 646.569 Q145.979 646.569 144.15 648.005 Q142.321 649.44 142.321 652.31 Q142.321 655.759 144.52 657.75 Q146.719 659.741 150.516 659.741 L165.168 659.741 L165.168 664.023 L129.15 664.023 L129.15 659.741 L143.27 659.741 Q140.932 658.213 139.775 656.153 Q138.618 654.069 138.618 651.361 Q138.618 646.893 141.395 644.602 Q144.15 642.31 149.52 642.31 Z" fill="#000000" fill-rule="evenodd" fill-opacity="1" /><path clip-path="url(#clip700)" d="M142.229 623.769 Q142.229 627.194 144.914 629.185 Q147.576 631.176 152.229 631.176 Q156.881 631.176 159.567 629.208 Q162.229 627.218 162.229 623.769 Q162.229 620.366 159.543 618.375 Q156.858 616.384 152.229 616.384 Q147.622 616.384 144.937 618.375 Q142.229 620.366 142.229 623.769 M138.618 623.769 Q138.618 618.213 142.229 615.042 Q145.84 611.87 152.229 611.87 Q158.594 611.87 162.229 615.042 Q165.84 618.213 165.84 623.769 Q165.84 629.347 162.229 632.519 Q158.594 635.667 152.229 635.667 Q145.84 635.667 142.229 632.519 Q138.618 629.347 138.618 623.769 Z" fill="#000000" fill-rule="evenodd" fill-opacity="1" /><path clip-path="url(#clip700)" d="M142.229 594.764 Q142.229 598.19 144.914 600.181 Q147.576 602.171 152.229 602.171 Q156.881 602.171 159.567 600.204 Q162.229 598.213 162.229 594.764 Q162.229 591.361 159.543 589.371 Q156.858 587.38 152.229 587.38 Q147.622 587.38 144.937 589.371 Q142.229 591.361 142.229 594.764 M138.618 594.764 Q138.618 589.209 142.229 586.037 Q145.84 582.866 152.229 582.866 Q158.594 582.866 162.229 586.037 Q165.84 589.209 165.84 594.764 Q165.84 600.343 162.229 603.514 Q158.594 606.662 152.229 606.662 Q145.84 606.662 142.229 603.514 Q138.618 600.343 138.618 594.764 Z" fill="#000000" fill-rule="evenodd" fill-opacity="1" /><path clip-path="url(#clip700)" d="M143.178 558.746 L129.15 558.746 L129.15 554.487 L165.168 554.487 L165.168 558.746 L161.28 558.746 Q163.594 560.088 164.729 562.149 Q165.84 564.186 165.84 567.056 Q165.84 571.755 162.09 574.718 Q158.34 577.658 152.229 577.658 Q146.118 577.658 142.368 574.718 Q138.618 571.755 138.618 567.056 Q138.618 564.186 139.752 562.149 Q140.863 560.088 143.178 558.746 M152.229 573.26 Q156.928 573.26 159.613 571.338 Q162.275 569.394 162.275 566.014 Q162.275 562.635 159.613 560.69 Q156.928 558.746 152.229 558.746 Q147.53 558.746 144.868 560.69 Q142.182 562.635 142.182 566.014 Q142.182 569.394 144.868 571.338 Q147.53 573.26 152.229 573.26 Z" fill="#000000" fill-rule="evenodd" fill-opacity="1" /><path clip-path="url(#clip700)" d="M1307 24.3517 L1307 6.81709 L1312.33 6.81709 L1312.33 51.84 L1307 51.84 L1307 46.9789 Q1305.33 49.8724 1302.75 51.2902 Q1300.2 52.6791 1296.62 52.6791 Q1290.74 52.6791 1287.04 47.9916 Q1283.36 43.3042 1283.36 35.6653 Q1283.36 28.0265 1287.04 23.339 Q1290.74 18.6515 1296.62 18.6515 Q1300.2 18.6515 1302.75 20.0693 Q1305.33 21.4582 1307 24.3517 M1288.86 35.6653 Q1288.86 41.5391 1291.26 44.8956 Q1293.69 48.2231 1297.92 48.2231 Q1302.14 48.2231 1304.57 44.8956 Q1307 41.5391 1307 35.6653 Q1307 29.7915 1304.57 26.464 Q1302.14 23.1075 1297.92 23.1075 Q1293.69 23.1075 1291.26 26.464 Q1288.86 29.7915 1288.86 35.6653 Z" fill="#000000" fill-rule="evenodd" fill-opacity="1" /><path clip-path="url(#clip700)" d="M1350.23 32.2799 L1350.23 51.84 L1344.91 51.84 L1344.91 32.4535 Q1344.91 27.8529 1343.11 25.567 Q1341.32 23.2811 1337.73 23.2811 Q1333.42 23.2811 1330.93 26.03 Q1328.44 28.7788 1328.44 33.5241 L1328.44 51.84 L1323.09 51.84 L1323.09 19.4328 L1328.44 19.4328 L1328.44 24.4675 Q1330.35 21.545 1332.93 20.0983 Q1335.53 18.6515 1338.92 18.6515 Q1344.5 18.6515 1347.37 22.1237 Q1350.23 25.567 1350.23 32.2799 Z" fill="#000000" fill-rule="evenodd" fill-opacity="1" /><path clip-path="url(#clip700)" d="M1375.58 35.5496 Q1369.13 35.5496 1366.64 37.0253 Q1364.15 38.501 1364.15 42.06 Q1364.15 44.8956 1366 46.5738 Q1367.88 48.2231 1371.09 48.2231 Q1375.52 48.2231 1378.18 45.0981 Q1380.87 41.9442 1380.87 36.7359 L1380.87 35.5496 L1375.58 35.5496 M1386.2 33.3505 L1386.2 51.84 L1380.87 51.84 L1380.87 46.921 Q1379.05 49.8724 1376.33 51.2902 Q1373.61 52.6791 1369.68 52.6791 Q1364.7 52.6791 1361.75 49.9014 Q1358.83 47.0947 1358.83 42.4072 Q1358.83 36.9385 1362.47 34.1607 Q1366.15 31.3829 1373.41 31.3829 L1380.87 31.3829 L1380.87 30.8621 Q1380.87 27.1874 1378.44 25.1908 Q1376.04 23.1654 1371.67 23.1654 Q1368.9 23.1654 1366.26 23.8309 Q1363.63 24.4964 1361.2 25.8274 L1361.2 20.9085 Q1364.12 19.78 1366.87 19.2302 Q1369.62 18.6515 1372.22 18.6515 Q1379.25 18.6515 1382.73 22.2973 Q1386.2 25.9431 1386.2 33.3505 Z" fill="#000000" fill-rule="evenodd" fill-opacity="1" /><polyline clip-path="url(#clip702)" style="stroke:#e26f46; stroke-linecap:butt; stroke-linejoin:round; stroke-width:8; stroke-opacity:1; fill:none" points="
  403.977,143.437 433.527,143.437 463.076,143.437 492.625,143.437 522.175,143.437 551.724,143.437 581.273,143.437 610.823,143.437 640.372,143.437 669.921,143.437 
  699.471,143.437 729.02,143.437 758.569,143.437 788.119,143.437 817.668,143.437 847.217,143.437 876.767,143.437 906.316,143.437 935.865,143.437 965.415,143.437 
  994.964,143.437 1024.51,143.437 1054.06,143.437 1083.61,143.437 1113.16,143.437 1142.71,143.437 1172.26,143.437 1201.81,143.437 1231.36,143.437 1260.91,143.437 
  1290.46,143.437 1320.01,143.437 1349.56,143.437 1379.11,143.437 1408.65,143.437 1438.2,143.437 1467.75,143.437 1497.3,143.437 1526.85,143.437 1556.4,143.437 
  1585.95,143.437 1615.5,143.437 1645.05,143.437 1674.6,143.437 1704.15,143.437 1733.7,143.437 1763.25,143.437 1792.8,143.437 1822.35,143.437 1851.89,143.437 
  1881.44,143.437 1910.99,143.437 1940.54,143.437 1970.09,143.437 1999.64,143.437 2029.19,143.437 2058.74,143.437 2088.29,143.437 2117.84,143.437 2147.39,143.437 
  2176.94,143.437 2206.49,143.437 2236.04,143.437 2265.59,143.437 2295.13,143.437 
  "/>
<polyline clip-path="url(#clip702)" style="stroke:#3da44d; stroke-linecap:butt; stroke-linejoin:round; stroke-width:8; stroke-opacity:1; fill:none" points="
  403.977,704.79 433.527,704.79 463.076,704.79 492.625,704.79 522.175,704.79 551.724,704.79 581.273,704.79 610.823,704.79 640.372,704.79 669.921,704.79 
  699.471,704.79 729.02,704.79 758.569,704.79 788.119,704.79 817.668,704.79 847.217,704.79 876.767,704.79 906.316,704.79 935.865,704.79 965.415,704.79 
  994.964,704.79 1024.51,704.79 1054.06,704.79 1083.61,704.79 1113.16,704.79 1142.71,704.79 1172.26,704.79 1201.81,704.79 1231.36,704.79 1260.91,704.79 
  1290.46,704.79 1320.01,704.79 1349.56,704.79 1379.11,704.79 1408.65,704.79 1438.2,704.79 1467.75,704.79 1497.3,704.79 1526.85,704.79 1556.4,704.79 
  1585.95,704.79 1615.5,704.79 1645.05,704.79 1674.6,704.79 1704.15,704.79 1733.7,704.79 1763.25,704.79 1792.8,704.79 1822.35,704.79 1851.89,704.79 
  1881.44,704.79 1910.99,704.79 1940.54,704.79 1970.09,704.79 1999.64,704.79 2029.19,704.79 2058.74,704.79 2088.29,704.79 2117.84,704.79 2147.39,704.79 
  2176.94,704.79 2206.49,704.79 2236.04,704.79 2265.59,704.79 2295.13,704.79 
  "/>
<polyline clip-path="url(#clip702)" style="stroke:#c271d2; stroke-linecap:butt; stroke-linejoin:round; stroke-width:8; stroke-opacity:1; fill:none" points="
  403.977,976.363 433.527,976.363 463.076,976.363 492.625,976.363 522.175,976.363 551.724,976.363 581.273,976.363 610.823,976.363 640.372,976.363 669.921,976.363 
  699.471,976.363 729.02,976.363 758.569,976.363 788.119,976.363 817.668,976.363 847.217,976.363 876.767,976.363 906.316,976.363 935.865,976.363 965.415,976.363 
  994.964,976.363 1024.51,976.363 1054.06,976.363 1083.61,976.363 1113.16,976.363 1142.71,976.363 1172.26,976.363 1201.81,976.363 1231.36,976.363 1260.91,976.363 
  1290.46,976.363 1320.01,976.363 1349.56,976.363 1379.11,976.363 1408.65,976.363 1438.2,976.363 1467.75,976.363 1497.3,976.363 1526.85,976.363 1556.4,976.363 
  1585.95,976.363 1615.5,976.363 1645.05,976.363 1674.6,976.363 1704.15,976.363 1733.7,976.363 1763.25,976.363 1792.8,976.363 1822.35,976.363 1851.89,976.363 
  1881.44,976.363 1910.99,976.363 1940.54,976.363 1970.09,976.363 1999.64,976.363 2029.19,976.363 2058.74,976.363 2088.29,976.363 2117.84,976.363 2147.39,976.363 
  2176.94,976.363 2206.49,976.363 2236.04,976.363 2265.59,976.363 2295.13,976.363 
  "/>
<polyline clip-path="url(#clip702)" style="stroke:#ac8d18; stroke-linecap:butt; stroke-linejoin:round; stroke-width:8; stroke-opacity:1; fill:none" points="
  403.977,763.96 433.527,763.96 463.076,763.96 492.625,763.96 522.175,763.96 551.724,763.96 581.273,763.96 610.823,763.96 640.372,763.96 669.921,763.96 
  699.471,763.96 729.02,763.96 758.569,763.96 788.119,763.96 817.668,763.96 847.217,763.96 876.767,763.96 906.316,763.96 935.865,763.96 965.415,763.96 
  994.964,763.96 1024.51,763.96 1054.06,763.96 1083.61,763.96 1113.16,763.96 1142.71,763.96 1172.26,763.96 1201.81,763.96 1231.36,763.96 1260.91,763.96 
  1290.46,763.96 1320.01,763.96 1349.56,763.96 1379.11,763.96 1408.65,763.96 1438.2,763.96 1467.75,763.96 1497.3,763.96 1526.85,763.96 1556.4,763.96 
  1585.95,763.96 1615.5,763.96 1645.05,763.96 1674.6,763.96 1704.15,763.96 1733.7,763.96 1763.25,763.96 1792.8,763.96 1822.35,763.96 1851.89,763.96 
  1881.44,763.96 1910.99,763.96 1940.54,763.96 1970.09,763.96 1999.64,763.96 2029.19,763.96 2058.74,763.96 2088.29,763.96 2117.84,763.96 2147.39,763.96 
  2176.94,763.96 2206.49,763.96 2236.04,763.96 2265.59,763.96 2295.13,763.96 
  "/>
<polyline clip-path="url(#clip702)" style="stroke:#00a9ad; stroke-linecap:butt; stroke-linejoin:round; stroke-width:8; stroke-opacity:1; fill:none" points="
  403.977,436.251 433.527,436.251 463.076,436.251 492.625,436.251 522.175,436.251 551.724,436.251 581.273,436.251 610.823,436.251 640.372,436.251 669.921,436.251 
  699.471,436.251 729.02,436.251 758.569,436.251 788.119,436.251 817.668,436.251 847.217,436.251 876.767,436.251 906.316,436.251 935.865,436.251 965.415,436.251 
  994.964,436.251 1024.51,436.251 1054.06,436.251 1083.61,436.251 1113.16,436.251 1142.71,436.251 1172.26,436.251 1201.81,436.251 1231.36,436.251 1260.91,436.251 
  1290.46,436.251 1320.01,436.251 1349.56,436.251 1379.11,436.251 1408.65,436.251 1438.2,436.251 1467.75,436.251 1497.3,436.251 1526.85,436.251 1556.4,436.251 
  1585.95,436.251 1615.5,436.251 1645.05,436.251 1674.6,436.251 1704.15,436.251 1733.7,436.251 1763.25,436.251 1792.8,436.251 1822.35,436.251 1851.89,436.251 
  1881.44,436.251 1910.99,436.251 1940.54,436.251 1970.09,436.251 1999.64,436.251 2029.19,436.251 2058.74,436.251 2088.29,436.251 2117.84,436.251 2147.39,436.251 
  2176.94,436.251 2206.49,436.251 2236.04,436.251 2265.59,436.251 2295.13,436.251 
  "/>
<polyline clip-path="url(#clip702)" style="stroke:#009af9; stroke-linecap:butt; stroke-linejoin:round; stroke-width:12; stroke-opacity:1; fill:none" points="
  403.977,979.157 433.527,1384.93 463.076,677.731 492.625,934.978 522.175,539.912 551.724,744.941 581.273,468.678 610.823,630.393 640.372,417.621 669.921,555.928 
  699.471,379.195 729.02,500.075 758.569,351.893 788.119,494.466 817.668,356.031 847.217,436.355 876.767,324.899 906.316,384.588 935.865,325.887 965.415,351.404 
  994.964,300.258 1024.51,339.317 1054.06,300.347 1083.61,333.785 1113.16,296.885 1142.71,320.378 1172.26,294.32 1201.81,299.264 1231.36,283.212 1260.91,298.626 
  1290.46,282.988 1320.01,287.786 1349.56,278.094 1379.11,288.215 1408.65,280.738 1438.2,283.186 1467.75,274.385 1497.3,281.705 1526.85,276.17 1556.4,281.155 
  1585.95,273.584 1615.5,279.166 1645.05,273.818 1674.6,280.183 1704.15,275.086 1733.7,276.475 1763.25,271.81 1792.8,276.529 1822.35,274.473 1851.89,273.109 
  
  "/>
<polyline clip-path="url(#clip702)" style="stroke:#f05f73; stroke-linecap:butt; stroke-linejoin:round; stroke-width:12; stroke-opacity:1; fill:none" points="
  1851.89,273.109 1881.44,257.453 1910.99,256.709 1940.54,257.218 1970.09,257.968 1999.64,258.223 2029.19,258.509 2058.74,258.768 2088.29,258.819 2117.84,258.637 
  2147.39,258.307 2176.94,257.9 2206.49,257.576 2236.04,257.214 2265.59,256.765 2295.13,256.379 
  "/>
</svg>
