<?xml version="1.0" encoding="utf-8"?>
<svg xmlns="http://www.w3.org/2000/svg" xmlns:xlink="http://www.w3.org/1999/xlink" width="600" height="400" viewBox="0 0 2400 1600">
<defs>
  <clipPath id="clip320">
    <rect x="0" y="0" width="2400" height="1600"/>
  </clipPath>
</defs>
<path clip-path="url(#clip320)" d="
M0 1600 L2400 1600 L2400 0 L0 0  Z
  " fill="#ffffff" fill-rule="evenodd" fill-opacity="1"/>
<defs>
  <clipPath id="clip321">
    <rect x="480" y="0" width="1681" height="1600"/>
  </clipPath>
</defs>
<path clip-path="url(#clip320)" d="
M206.571 1444.78 L2352.76 1444.78 L2352.76 106.192 L206.571 106.192  Z
  " fill="#eaeaea" fill-rule="evenodd" fill-opacity="1"/>
<defs>
  <clipPath id="clip322">
    <rect x="206" y="106" width="2147" height="1340"/>
  </clipPath>
</defs>
<polyline clip-path="url(#clip322)" style="stroke:#ffffff; stroke-linecap:butt; stroke-linejoin:round; stroke-width:4; stroke-opacity:1; fill:none" points="
  267.312,1444.78 267.312,106.192 
  "/>
<polyline clip-path="url(#clip322)" style="stroke:#ffffff; stroke-linecap:butt; stroke-linejoin:round; stroke-width:4; stroke-opacity:1; fill:none" points="
  469.782,1444.78 469.782,106.192 
  "/>
<polyline clip-path="url(#clip322)" style="stroke:#ffffff; stroke-linecap:butt; stroke-linejoin:round; stroke-width:4; stroke-opacity:1; fill:none" points="
  672.252,1444.78 672.252,106.192 
  "/>
<polyline clip-path="url(#clip322)" style="stroke:#ffffff; stroke-linecap:butt; stroke-linejoin:round; stroke-width:4; stroke-opacity:1; fill:none" points="
  874.723,1444.78 874.723,106.192 
  "/>
<polyline clip-path="url(#clip322)" style="stroke:#ffffff; stroke-linecap:butt; stroke-linejoin:round; stroke-width:4; stroke-opacity:1; fill:none" points="
  1077.19,1444.78 1077.19,106.192 
  "/>
<polyline clip-path="url(#clip322)" style="stroke:#ffffff; stroke-linecap:butt; stroke-linejoin:round; stroke-width:4; stroke-opacity:1; fill:none" points="
  1279.66,1444.78 1279.66,106.192 
  "/>
<polyline clip-path="url(#clip322)" style="stroke:#ffffff; stroke-linecap:butt; stroke-linejoin:round; stroke-width:4; stroke-opacity:1; fill:none" points="
  1482.13,1444.78 1482.13,106.192 
  "/>
<polyline clip-path="url(#clip322)" style="stroke:#ffffff; stroke-linecap:butt; stroke-linejoin:round; stroke-width:4; stroke-opacity:1; fill:none" points="
  1684.6,1444.78 1684.6,106.192 
  "/>
<polyline clip-path="url(#clip322)" style="stroke:#ffffff; stroke-linecap:butt; stroke-linejoin:round; stroke-width:4; stroke-opacity:1; fill:none" points="
  1887.07,1444.78 1887.07,106.192 
  "/>
<polyline clip-path="url(#clip322)" style="stroke:#ffffff; stroke-linecap:butt; stroke-linejoin:round; stroke-width:4; stroke-opacity:1; fill:none" points="
  2089.54,1444.78 2089.54,106.192 
  "/>
<polyline clip-path="url(#clip322)" style="stroke:#ffffff; stroke-linecap:butt; stroke-linejoin:round; stroke-width:4; stroke-opacity:1; fill:none" points="
  2292.01,1444.78 2292.01,106.192 
  "/>
<polyline clip-path="url(#clip322)" style="stroke:#ffffff; stroke-linecap:butt; stroke-linejoin:round; stroke-width:2; stroke-opacity:1; fill:none" points="
  368.547,1444.78 368.547,106.192 
  "/>
<polyline clip-path="url(#clip322)" style="stroke:#ffffff; stroke-linecap:butt; stroke-linejoin:round; stroke-width:2; stroke-opacity:1; fill:none" points="
  571.017,1444.78 571.017,106.192 
  "/>
<polyline clip-path="url(#clip322)" style="stroke:#ffffff; stroke-linecap:butt; stroke-linejoin:round; stroke-width:2; stroke-opacity:1; fill:none" points="
  773.487,1444.78 773.487,106.192 
  "/>
<polyline clip-path="url(#clip322)" style="stroke:#ffffff; stroke-linecap:butt; stroke-linejoin:round; stroke-width:2; stroke-opacity:1; fill:none" points="
  975.958,1444.78 975.958,106.192 
  "/>
<polyline clip-path="url(#clip322)" style="stroke:#ffffff; stroke-linecap:butt; stroke-linejoin:round; stroke-width:2; stroke-opacity:1; fill:none" points="
  1178.43,1444.78 1178.43,106.192 
  "/>
<polyline clip-path="url(#clip322)" style="stroke:#ffffff; stroke-linecap:butt; stroke-linejoin:round; stroke-width:2; stroke-opacity:1; fill:none" points="
  1380.9,1444.78 1380.9,106.192 
  "/>
<polyline clip-path="url(#clip322)" style="stroke:#ffffff; stroke-linecap:butt; stroke-linejoin:round; stroke-width:2; stroke-opacity:1; fill:none" points="
  1583.37,1444.78 1583.37,106.192 
  "/>
<polyline clip-path="url(#clip322)" style="stroke:#ffffff; stroke-linecap:butt; stroke-linejoin:round; stroke-width:2; stroke-opacity:1; fill:none" points="
  1785.84,1444.78 1785.84,106.192 
  "/>
<polyline clip-path="url(#clip322)" style="stroke:#ffffff; stroke-linecap:butt; stroke-linejoin:round; stroke-width:2; stroke-opacity:1; fill:none" points="
  1988.31,1444.78 1988.31,106.192 
  "/>
<polyline clip-path="url(#clip322)" style="stroke:#ffffff; stroke-linecap:butt; stroke-linejoin:round; stroke-width:2; stroke-opacity:1; fill:none" points="
  2190.78,1444.78 2190.78,106.192 
  "/>
<polyline clip-path="url(#clip320)" style="stroke:#ffffff; stroke-linecap:butt; stroke-linejoin:round; stroke-width:4; stroke-opacity:1; fill:none" points="
  206.571,1444.78 2352.76,1444.78 
  "/>
<polyline clip-path="url(#clip320)" style="stroke:#333333; stroke-linecap:butt; stroke-linejoin:round; stroke-width:4; stroke-opacity:1; fill:none" points="
  267.312,1444.78 267.312,1463.68 
  "/>
<polyline clip-path="url(#clip320)" style="stroke:#333333; stroke-linecap:butt; stroke-linejoin:round; stroke-width:4; stroke-opacity:1; fill:none" points="
  469.782,1444.78 469.782,1463.68 
  "/>
<polyline clip-path="url(#clip320)" style="stroke:#333333; stroke-linecap:butt; stroke-linejoin:round; stroke-width:4; stroke-opacity:1; fill:none" points="
  672.252,1444.78 672.252,1463.68 
  "/>
<polyline clip-path="url(#clip320)" style="stroke:#333333; stroke-linecap:butt; stroke-linejoin:round; stroke-width:4; stroke-opacity:1; fill:none" points="
  874.723,1444.78 874.723,1463.68 
  "/>
<polyline clip-path="url(#clip320)" style="stroke:#333333; stroke-linecap:butt; stroke-linejoin:round; stroke-width:4; stroke-opacity:1; fill:none" points="
  1077.19,1444.78 1077.19,1463.68 
  "/>
<polyline clip-path="url(#clip320)" style="stroke:#333333; stroke-linecap:butt; stroke-linejoin:round; stroke-width:4; stroke-opacity:1; fill:none" points="
  1279.66,1444.78 1279.66,1463.68 
  "/>
<polyline clip-path="url(#clip320)" style="stroke:#333333; stroke-linecap:butt; stroke-linejoin:round; stroke-width:4; stroke-opacity:1; fill:none" points="
  1482.13,1444.78 1482.13,1463.68 
  "/>
<polyline clip-path="url(#clip320)" style="stroke:#333333; stroke-linecap:butt; stroke-linejoin:round; stroke-width:4; stroke-opacity:1; fill:none" points="
  1684.6,1444.78 1684.6,1463.68 
  "/>
<polyline clip-path="url(#clip320)" style="stroke:#333333; stroke-linecap:butt; stroke-linejoin:round; stroke-width:4; stroke-opacity:1; fill:none" points="
  1887.07,1444.78 1887.07,1463.68 
  "/>
<polyline clip-path="url(#clip320)" style="stroke:#333333; stroke-linecap:butt; stroke-linejoin:round; stroke-width:4; stroke-opacity:1; fill:none" points="
  2089.54,1444.78 2089.54,1463.68 
  "/>
<polyline clip-path="url(#clip320)" style="stroke:#333333; stroke-linecap:butt; stroke-linejoin:round; stroke-width:4; stroke-opacity:1; fill:none" points="
  2292.01,1444.78 2292.01,1463.68 
  "/>
<polyline clip-path="url(#clip320)" style="stroke:#333333; stroke-linecap:butt; stroke-linejoin:round; stroke-width:4; stroke-opacity:1; fill:none" points="
  368.547,1444.78 368.547,1454.23 
  "/>
<polyline clip-path="url(#clip320)" style="stroke:#333333; stroke-linecap:butt; stroke-linejoin:round; stroke-width:4; stroke-opacity:1; fill:none" points="
  571.017,1444.78 571.017,1454.23 
  "/>
<polyline clip-path="url(#clip320)" style="stroke:#333333; stroke-linecap:butt; stroke-linejoin:round; stroke-width:4; stroke-opacity:1; fill:none" points="
  773.487,1444.78 773.487,1454.23 
  "/>
<polyline clip-path="url(#clip320)" style="stroke:#333333; stroke-linecap:butt; stroke-linejoin:round; stroke-width:4; stroke-opacity:1; fill:none" points="
  975.958,1444.78 975.958,1454.23 
  "/>
<polyline clip-path="url(#clip320)" style="stroke:#333333; stroke-linecap:butt; stroke-linejoin:round; stroke-width:4; stroke-opacity:1; fill:none" points="
  1178.43,1444.78 1178.43,1454.23 
  "/>
<polyline clip-path="url(#clip320)" style="stroke:#333333; stroke-linecap:butt; stroke-linejoin:round; stroke-width:4; stroke-opacity:1; fill:none" points="
  1380.9,1444.78 1380.9,1454.23 
  "/>
<polyline clip-path="url(#clip320)" style="stroke:#333333; stroke-linecap:butt; stroke-linejoin:round; stroke-width:4; stroke-opacity:1; fill:none" points="
  1583.37,1444.78 1583.37,1454.23 
  "/>
<polyline clip-path="url(#clip320)" style="stroke:#333333; stroke-linecap:butt; stroke-linejoin:round; stroke-width:4; stroke-opacity:1; fill:none" points="
  1785.84,1444.78 1785.84,1454.23 
  "/>
<polyline clip-path="url(#clip320)" style="stroke:#333333; stroke-linecap:butt; stroke-linejoin:round; stroke-width:4; stroke-opacity:1; fill:none" points="
  1988.31,1444.78 1988.31,1454.23 
  "/>
<polyline clip-path="url(#clip320)" style="stroke:#333333; stroke-linecap:butt; stroke-linejoin:round; stroke-width:4; stroke-opacity:1; fill:none" points="
  2190.78,1444.78 2190.78,1454.23 
  "/>
<path clip-path="url(#clip320)" d="M267.312 1482.37 Q264.603 1482.37 263.232 1485.04 Q261.878 1487.7 261.878 1493.05 Q261.878 1498.38 263.232 1501.05 Q264.603 1503.71 267.312 1503.71 Q270.037 1503.71 271.392 1501.05 Q272.763 1498.38 272.763 1493.05 Q272.763 1487.7 271.392 1485.04 Q270.037 1482.37 267.312 1482.37 M267.312 1479.59 Q271.669 1479.59 273.961 1483.05 Q276.27 1486.48 276.27 1493.05 Q276.27 1499.59 273.961 1503.05 Q271.669 1506.48 267.312 1506.48 Q262.954 1506.48 260.645 1503.05 Q258.353 1499.59 258.353 1493.05 Q258.353 1486.48 260.645 1483.05 Q262.954 1479.59 267.312 1479.59 Z" fill="#4c4c4c" fill-rule="evenodd" fill-opacity="1" /><path clip-path="url(#clip320)" d="M450.798 1503.03 L456.527 1503.03 L456.527 1483.25 L450.294 1484.5 L450.294 1481.31 L456.492 1480.06 L459.999 1480.06 L459.999 1503.03 L465.728 1503.03 L465.728 1505.98 L450.798 1505.98 L450.798 1503.03 Z" fill="#4c4c4c" fill-rule="evenodd" fill-opacity="1" /><path clip-path="url(#clip320)" d="M480.311 1482.37 Q477.603 1482.37 476.232 1485.04 Q474.877 1487.7 474.877 1493.05 Q474.877 1498.38 476.232 1501.05 Q477.603 1503.71 480.311 1503.71 Q483.037 1503.71 484.391 1501.05 Q485.763 1498.38 485.763 1493.05 Q485.763 1487.7 484.391 1485.04 Q483.037 1482.37 480.311 1482.37 M480.311 1479.59 Q484.669 1479.59 486.961 1483.05 Q489.27 1486.48 489.27 1493.05 Q489.27 1499.59 486.961 1503.05 Q484.669 1506.48 480.311 1506.48 Q475.954 1506.48 473.645 1503.05 Q471.353 1499.59 471.353 1493.05 Q471.353 1486.48 473.645 1483.05 Q475.954 1479.59 480.311 1479.59 Z" fill="#4c4c4c" fill-rule="evenodd" fill-opacity="1" /><path clip-path="url(#clip320)" d="M656.332 1503.03 L668.572 1503.03 L668.572 1505.98 L652.114 1505.98 L652.114 1503.03 Q654.11 1500.96 657.548 1497.49 Q661.002 1494 661.888 1492.99 Q663.572 1491.1 664.232 1489.8 Q664.909 1488.48 664.909 1487.21 Q664.909 1485.15 663.45 1483.84 Q662.009 1482.54 659.683 1482.54 Q658.034 1482.54 656.193 1483.12 Q654.37 1483.69 652.287 1484.85 L652.287 1481.31 Q654.405 1480.46 656.245 1480.03 Q658.086 1479.59 659.614 1479.59 Q663.641 1479.59 666.037 1481.6 Q668.433 1483.62 668.433 1486.99 Q668.433 1488.58 667.825 1490.03 Q667.235 1491.45 665.655 1493.39 Q665.221 1493.9 662.895 1496.31 Q660.568 1498.71 656.332 1503.03 Z" fill="#4c4c4c" fill-rule="evenodd" fill-opacity="1" /><path clip-path="url(#clip320)" d="M683.433 1482.37 Q680.725 1482.37 679.353 1485.04 Q677.999 1487.7 677.999 1493.05 Q677.999 1498.38 679.353 1501.05 Q680.725 1503.71 683.433 1503.71 Q686.159 1503.71 687.513 1501.05 Q688.884 1498.38 688.884 1493.05 Q688.884 1487.7 687.513 1485.04 Q686.159 1482.37 683.433 1482.37 M683.433 1479.59 Q687.79 1479.59 690.082 1483.05 Q692.391 1486.48 692.391 1493.05 Q692.391 1499.59 690.082 1503.05 Q687.79 1506.48 683.433 1506.48 Q679.075 1506.48 676.766 1503.05 Q674.475 1499.59 674.475 1493.05 Q674.475 1486.48 676.766 1483.05 Q679.075 1479.59 683.433 1479.59 Z" fill="#4c4c4c" fill-rule="evenodd" fill-opacity="1" /><path clip-path="url(#clip320)" d="M866.355 1492 Q868.872 1492.54 870.278 1494.24 Q871.702 1495.95 871.702 1498.45 Q871.702 1502.28 869.063 1504.38 Q866.424 1506.48 861.563 1506.48 Q859.931 1506.48 858.195 1506.15 Q856.476 1505.84 854.636 1505.2 L854.636 1501.81 Q856.094 1502.66 857.83 1503.1 Q859.566 1503.53 861.459 1503.53 Q864.757 1503.53 866.476 1502.23 Q868.212 1500.93 868.212 1498.45 Q868.212 1496.15 866.598 1494.87 Q865 1493.57 862.136 1493.57 L859.115 1493.57 L859.115 1490.68 L862.275 1490.68 Q864.862 1490.68 866.233 1489.66 Q867.605 1488.62 867.605 1486.67 Q867.605 1484.68 866.181 1483.62 Q864.775 1482.54 862.136 1482.54 Q860.695 1482.54 859.046 1482.85 Q857.396 1483.17 855.417 1483.83 L855.417 1480.7 Q857.414 1480.15 859.15 1479.87 Q860.903 1479.59 862.448 1479.59 Q866.441 1479.59 868.768 1481.41 Q871.094 1483.22 871.094 1486.31 Q871.094 1488.46 869.862 1489.96 Q868.629 1491.43 866.355 1492 Z" fill="#4c4c4c" fill-rule="evenodd" fill-opacity="1" /><path clip-path="url(#clip320)" d="M885.851 1482.37 Q883.143 1482.37 881.771 1485.04 Q880.417 1487.7 880.417 1493.05 Q880.417 1498.38 881.771 1501.05 Q883.143 1503.71 885.851 1503.71 Q888.577 1503.71 889.931 1501.05 Q891.302 1498.38 891.302 1493.05 Q891.302 1487.7 889.931 1485.04 Q888.577 1482.37 885.851 1482.37 M885.851 1479.59 Q890.209 1479.59 892.5 1483.05 Q894.809 1486.48 894.809 1493.05 Q894.809 1499.59 892.5 1503.05 Q890.209 1506.48 885.851 1506.48 Q881.493 1506.48 879.184 1503.05 Q876.893 1499.59 876.893 1493.05 Q876.893 1486.48 879.184 1483.05 Q881.493 1479.59 885.851 1479.59 Z" fill="#4c4c4c" fill-rule="evenodd" fill-opacity="1" /><path clip-path="url(#clip320)" d="M1068.32 1483.12 L1059.47 1496.95 L1068.32 1496.95 L1068.32 1483.12 M1067.4 1480.06 L1071.81 1480.06 L1071.81 1496.95 L1075.51 1496.95 L1075.51 1499.87 L1071.81 1499.87 L1071.81 1505.98 L1068.32 1505.98 L1068.32 1499.87 L1056.62 1499.87 L1056.62 1496.48 L1067.4 1480.06 Z" fill="#4c4c4c" fill-rule="evenodd" fill-opacity="1" /><path clip-path="url(#clip320)" d="M1088.81 1482.37 Q1086.1 1482.37 1084.73 1485.04 Q1083.37 1487.7 1083.37 1493.05 Q1083.37 1498.38 1084.73 1501.05 Q1086.1 1503.71 1088.81 1503.71 Q1091.53 1503.71 1092.89 1501.05 Q1094.26 1498.38 1094.26 1493.05 Q1094.26 1487.7 1092.89 1485.04 Q1091.53 1482.37 1088.81 1482.37 M1088.81 1479.59 Q1093.17 1479.59 1095.46 1483.05 Q1097.77 1486.48 1097.77 1493.05 Q1097.77 1499.59 1095.46 1503.05 Q1093.17 1506.48 1088.81 1506.48 Q1084.45 1506.48 1082.14 1503.05 Q1079.85 1499.59 1079.85 1493.05 Q1079.85 1486.48 1082.14 1483.05 Q1084.45 1479.59 1088.81 1479.59 Z" fill="#4c4c4c" fill-rule="evenodd" fill-opacity="1" /><path clip-path="url(#clip320)" d="M1260.69 1480.06 L1274.45 1480.06 L1274.45 1483.01 L1263.9 1483.01 L1263.9 1489.37 Q1264.66 1489.1 1265.43 1488.98 Q1266.19 1488.84 1266.95 1488.84 Q1271.3 1488.84 1273.83 1491.22 Q1276.36 1493.6 1276.36 1497.66 Q1276.36 1501.85 1273.76 1504.17 Q1271.16 1506.48 1266.42 1506.48 Q1264.78 1506.48 1263.08 1506.21 Q1261.4 1505.93 1259.59 1505.37 L1259.59 1501.85 Q1261.16 1502.7 1262.82 1503.12 Q1264.49 1503.53 1266.35 1503.53 Q1269.35 1503.53 1271.1 1501.95 Q1272.86 1500.37 1272.86 1497.66 Q1272.86 1494.96 1271.1 1493.38 Q1269.35 1491.8 1266.35 1491.8 Q1264.94 1491.8 1263.53 1492.11 Q1262.15 1492.42 1260.69 1493.08 L1260.69 1480.06 Z" fill="#4c4c4c" fill-rule="evenodd" fill-opacity="1" /><path clip-path="url(#clip320)" d="M1290.77 1482.37 Q1288.07 1482.37 1286.69 1485.04 Q1285.34 1487.7 1285.34 1493.05 Q1285.34 1498.38 1286.69 1501.05 Q1288.07 1503.71 1290.77 1503.71 Q1293.5 1503.71 1294.85 1501.05 Q1296.23 1498.38 1296.23 1493.05 Q1296.23 1487.7 1294.85 1485.04 Q1293.5 1482.37 1290.77 1482.37 M1290.77 1479.59 Q1295.13 1479.59 1297.42 1483.05 Q1299.73 1486.48 1299.73 1493.05 Q1299.73 1499.59 1297.42 1503.05 Q1295.13 1506.48 1290.77 1506.48 Q1286.42 1506.48 1284.11 1503.05 Q1281.82 1499.59 1281.82 1493.05 Q1281.82 1486.48 1284.11 1483.05 Q1286.42 1479.59 1290.77 1479.59 Z" fill="#4c4c4c" fill-rule="evenodd" fill-opacity="1" /><path clip-path="url(#clip320)" d="M1471.19 1491.62 Q1468.83 1491.62 1467.44 1493.24 Q1466.07 1494.85 1466.07 1497.66 Q1466.07 1500.46 1467.44 1502.09 Q1468.83 1503.71 1471.19 1503.71 Q1473.55 1503.71 1474.92 1502.09 Q1476.31 1500.46 1476.31 1497.66 Q1476.31 1494.85 1474.92 1493.24 Q1473.55 1491.62 1471.19 1491.62 M1478.15 1480.63 L1478.15 1483.83 Q1476.83 1483.2 1475.48 1482.87 Q1474.14 1482.54 1472.82 1482.54 Q1469.35 1482.54 1467.51 1484.89 Q1465.68 1487.23 1465.42 1491.97 Q1466.45 1490.46 1467.99 1489.66 Q1469.54 1488.84 1471.4 1488.84 Q1475.3 1488.84 1477.56 1491.22 Q1479.83 1493.58 1479.83 1497.66 Q1479.83 1501.66 1477.47 1504.07 Q1475.11 1506.48 1471.19 1506.48 Q1466.69 1506.48 1464.31 1503.05 Q1461.93 1499.59 1461.93 1493.05 Q1461.93 1486.9 1464.85 1483.25 Q1467.77 1479.59 1472.68 1479.59 Q1474 1479.59 1475.34 1479.85 Q1476.69 1480.11 1478.15 1480.63 Z" fill="#4c4c4c" fill-rule="evenodd" fill-opacity="1" /><path clip-path="url(#clip320)" d="M1493.37 1482.37 Q1490.67 1482.37 1489.29 1485.04 Q1487.94 1487.7 1487.94 1493.05 Q1487.94 1498.38 1489.29 1501.05 Q1490.67 1503.71 1493.37 1503.71 Q1496.1 1503.71 1497.45 1501.05 Q1498.83 1498.38 1498.83 1493.05 Q1498.83 1487.7 1497.45 1485.04 Q1496.1 1482.37 1493.37 1482.37 M1493.37 1479.59 Q1497.73 1479.59 1500.02 1483.05 Q1502.33 1486.48 1502.33 1493.05 Q1502.33 1499.59 1500.02 1503.05 Q1497.73 1506.48 1493.37 1506.48 Q1489.02 1506.48 1486.71 1503.05 Q1484.42 1499.59 1484.42 1493.05 Q1484.42 1486.48 1486.71 1483.05 Q1489.02 1479.59 1493.37 1479.59 Z" fill="#4c4c4c" fill-rule="evenodd" fill-opacity="1" /><path clip-path="url(#clip320)" d="M1664.62 1480.06 L1681.29 1480.06 L1681.29 1481.55 L1671.88 1505.98 L1668.22 1505.98 L1677.07 1483.01 L1664.62 1483.01 L1664.62 1480.06 Z" fill="#4c4c4c" fill-rule="evenodd" fill-opacity="1" /><path clip-path="url(#clip320)" d="M1695.63 1482.37 Q1692.92 1482.37 1691.55 1485.04 Q1690.19 1487.7 1690.19 1493.05 Q1690.19 1498.38 1691.55 1501.05 Q1692.92 1503.71 1695.63 1503.71 Q1698.35 1503.71 1699.71 1501.05 Q1701.08 1498.38 1701.08 1493.05 Q1701.08 1487.7 1699.71 1485.04 Q1698.35 1482.37 1695.63 1482.37 M1695.63 1479.59 Q1699.99 1479.59 1702.28 1483.05 Q1704.59 1486.48 1704.59 1493.05 Q1704.59 1499.59 1702.28 1503.05 Q1699.99 1506.48 1695.63 1506.48 Q1691.27 1506.48 1688.96 1503.05 Q1686.67 1499.59 1686.67 1493.05 Q1686.67 1486.48 1688.96 1483.05 Q1691.27 1479.59 1695.63 1479.59 Z" fill="#4c4c4c" fill-rule="evenodd" fill-opacity="1" /><path clip-path="url(#clip320)" d="M1875.73 1493.67 Q1873.23 1493.67 1871.79 1495.01 Q1870.36 1496.34 1870.36 1498.69 Q1870.36 1501.03 1871.79 1502.37 Q1873.23 1503.71 1875.73 1503.71 Q1878.23 1503.71 1879.67 1502.37 Q1881.11 1501.01 1881.11 1498.69 Q1881.11 1496.34 1879.67 1495.01 Q1878.25 1493.67 1875.73 1493.67 M1872.22 1492.18 Q1869.96 1491.62 1868.7 1490.08 Q1867.45 1488.53 1867.45 1486.31 Q1867.45 1483.2 1869.65 1481.4 Q1871.87 1479.59 1875.73 1479.59 Q1879.6 1479.59 1881.81 1481.4 Q1884.01 1483.2 1884.01 1486.31 Q1884.01 1488.53 1882.74 1490.08 Q1881.49 1491.62 1879.25 1492.18 Q1881.79 1492.77 1883.19 1494.49 Q1884.62 1496.21 1884.62 1498.69 Q1884.62 1502.46 1882.31 1504.47 Q1880.02 1506.48 1875.73 1506.48 Q1871.44 1506.48 1869.13 1504.47 Q1866.84 1502.46 1866.84 1498.69 Q1866.84 1496.21 1868.26 1494.49 Q1869.69 1492.77 1872.22 1492.18 M1870.94 1486.64 Q1870.94 1488.65 1872.19 1489.78 Q1873.45 1490.91 1875.73 1490.91 Q1877.99 1490.91 1879.25 1489.78 Q1880.54 1488.65 1880.54 1486.64 Q1880.54 1484.63 1879.25 1483.5 Q1877.99 1482.37 1875.73 1482.37 Q1873.45 1482.37 1872.19 1483.5 Q1870.94 1484.63 1870.94 1486.64 Z" fill="#4c4c4c" fill-rule="evenodd" fill-opacity="1" /><path clip-path="url(#clip320)" d="M1898.35 1482.37 Q1895.64 1482.37 1894.27 1485.04 Q1892.92 1487.7 1892.92 1493.05 Q1892.92 1498.38 1894.27 1501.05 Q1895.64 1503.71 1898.35 1503.71 Q1901.08 1503.71 1902.43 1501.05 Q1903.8 1498.38 1903.8 1493.05 Q1903.8 1487.7 1902.43 1485.04 Q1901.08 1482.37 1898.35 1482.37 M1898.35 1479.59 Q1902.71 1479.59 1905 1483.05 Q1907.31 1486.48 1907.31 1493.05 Q1907.31 1499.59 1905 1503.05 Q1902.71 1506.48 1898.35 1506.48 Q1893.99 1506.48 1891.68 1503.05 Q1889.39 1499.59 1889.39 1493.05 Q1889.39 1486.48 1891.68 1483.05 Q1893.99 1479.59 1898.35 1479.59 Z" fill="#4c4c4c" fill-rule="evenodd" fill-opacity="1" /><path clip-path="url(#clip320)" d="M2070.89 1505.44 L2070.89 1502.25 Q2072.21 1502.87 2073.56 1503.2 Q2074.92 1503.53 2076.22 1503.53 Q2079.69 1503.53 2081.52 1501.21 Q2083.36 1498.86 2083.62 1494.1 Q2082.61 1495.6 2081.06 1496.4 Q2079.52 1497.2 2077.64 1497.2 Q2073.75 1497.2 2071.48 1494.85 Q2069.22 1492.49 2069.22 1488.41 Q2069.22 1484.42 2071.58 1482 Q2073.95 1479.59 2077.87 1479.59 Q2082.37 1479.59 2084.73 1483.05 Q2087.11 1486.48 2087.11 1493.05 Q2087.11 1499.17 2084.19 1502.84 Q2081.29 1506.48 2076.38 1506.48 Q2075.06 1506.48 2073.7 1506.22 Q2072.35 1505.96 2070.89 1505.44 M2077.87 1494.45 Q2080.23 1494.45 2081.6 1492.84 Q2082.99 1491.22 2082.99 1488.41 Q2082.99 1485.62 2081.6 1484 Q2080.23 1482.37 2077.87 1482.37 Q2075.51 1482.37 2074.12 1484 Q2072.75 1485.62 2072.75 1488.41 Q2072.75 1491.22 2074.12 1492.84 Q2075.51 1494.45 2077.87 1494.45 Z" fill="#4c4c4c" fill-rule="evenodd" fill-opacity="1" /><path clip-path="url(#clip320)" d="M2100.91 1482.37 Q2098.2 1482.37 2096.83 1485.04 Q2095.47 1487.7 2095.47 1493.05 Q2095.47 1498.38 2096.83 1501.05 Q2098.2 1503.71 2100.91 1503.71 Q2103.63 1503.71 2104.99 1501.05 Q2106.36 1498.38 2106.36 1493.05 Q2106.36 1487.7 2104.99 1485.04 Q2103.63 1482.37 2100.91 1482.37 M2100.91 1479.59 Q2105.26 1479.59 2107.56 1483.05 Q2109.87 1486.48 2109.87 1493.05 Q2109.87 1499.59 2107.56 1503.05 Q2105.26 1506.48 2100.91 1506.48 Q2096.55 1506.48 2094.24 1503.05 Q2091.95 1499.59 2091.95 1493.05 Q2091.95 1486.48 2094.24 1483.05 Q2096.55 1479.59 2100.91 1479.59 Z" fill="#4c4c4c" fill-rule="evenodd" fill-opacity="1" /><path clip-path="url(#clip320)" d="M2261.72 1503.03 L2267.45 1503.03 L2267.45 1483.25 L2261.22 1484.5 L2261.22 1481.31 L2267.41 1480.06 L2270.92 1480.06 L2270.92 1503.03 L2276.65 1503.03 L2276.65 1505.98 L2261.72 1505.98 L2261.72 1503.03 Z" fill="#4c4c4c" fill-rule="evenodd" fill-opacity="1" /><path clip-path="url(#clip320)" d="M2291.23 1482.37 Q2288.53 1482.37 2287.15 1485.04 Q2285.8 1487.7 2285.8 1493.05 Q2285.8 1498.38 2287.15 1501.05 Q2288.53 1503.71 2291.23 1503.71 Q2293.96 1503.71 2295.31 1501.05 Q2296.68 1498.38 2296.68 1493.05 Q2296.68 1487.7 2295.31 1485.04 Q2293.96 1482.37 2291.23 1482.37 M2291.23 1479.59 Q2295.59 1479.59 2297.88 1483.05 Q2300.19 1486.48 2300.19 1493.05 Q2300.19 1499.59 2297.88 1503.05 Q2295.59 1506.48 2291.23 1506.48 Q2286.88 1506.48 2284.57 1503.05 Q2282.28 1499.59 2282.28 1493.05 Q2282.28 1486.48 2284.57 1483.05 Q2286.88 1479.59 2291.23 1479.59 Z" fill="#4c4c4c" fill-rule="evenodd" fill-opacity="1" /><path clip-path="url(#clip320)" d="M2313.85 1482.37 Q2311.15 1482.37 2309.78 1485.04 Q2308.42 1487.7 2308.42 1493.05 Q2308.42 1498.38 2309.78 1501.05 Q2311.15 1503.71 2313.85 1503.71 Q2316.58 1503.71 2317.93 1501.05 Q2319.31 1498.38 2319.31 1493.05 Q2319.31 1487.7 2317.93 1485.04 Q2316.58 1482.37 2313.85 1482.37 M2313.85 1479.59 Q2318.21 1479.59 2320.5 1483.05 Q2322.81 1486.48 2322.81 1493.05 Q2322.81 1499.59 2320.5 1503.05 Q2318.21 1506.48 2313.85 1506.48 Q2309.5 1506.48 2307.19 1503.05 Q2304.9 1499.59 2304.9 1493.05 Q2304.9 1486.48 2307.19 1483.05 Q2309.5 1479.59 2313.85 1479.59 Z" fill="#4c4c4c" fill-rule="evenodd" fill-opacity="1" /><path clip-path="url(#clip320)" d="M1170.25 1526.57 L1174.93 1526.57 L1174.93 1561.13 L1170.25 1561.13 L1170.25 1526.57 Z" fill="#000000" fill-rule="evenodd" fill-opacity="1" /><path clip-path="url(#clip320)" d="M1188.26 1527.84 L1188.26 1535.21 L1197.04 1535.21 L1197.04 1538.52 L1188.26 1538.52 L1188.26 1552.59 Q1188.26 1555.76 1189.12 1556.66 Q1190 1557.57 1192.66 1557.57 L1197.04 1557.57 L1197.04 1561.13 L1192.66 1561.13 Q1187.73 1561.13 1185.86 1559.3 Q1183.98 1557.45 1183.98 1552.59 L1183.98 1538.52 L1180.86 1538.52 L1180.86 1535.21 L1183.98 1535.21 L1183.98 1527.84 L1188.26 1527.84 Z" fill="#000000" fill-rule="evenodd" fill-opacity="1" /><path clip-path="url(#clip320)" d="M1224.81 1547.1 L1224.81 1549.19 L1205.23 1549.19 Q1205.51 1553.59 1207.87 1555.9 Q1210.25 1558.19 1214.49 1558.19 Q1216.94 1558.19 1219.24 1557.59 Q1221.55 1556.99 1223.82 1555.78 L1223.82 1559.81 Q1221.53 1560.78 1219.12 1561.29 Q1216.71 1561.8 1214.24 1561.8 Q1208.03 1561.8 1204.4 1558.19 Q1200.79 1554.58 1200.79 1548.42 Q1200.79 1542.06 1204.21 1538.33 Q1207.66 1534.58 1213.49 1534.58 Q1218.73 1534.58 1221.76 1537.96 Q1224.81 1541.32 1224.81 1547.1 M1220.55 1545.85 Q1220.51 1542.36 1218.59 1540.28 Q1216.69 1538.19 1213.54 1538.19 Q1209.98 1538.19 1207.82 1540.21 Q1205.69 1542.22 1205.37 1545.88 L1220.55 1545.85 Z" fill="#000000" fill-rule="evenodd" fill-opacity="1" /><path clip-path="url(#clip320)" d="M1246.83 1539.19 Q1246.11 1538.77 1245.25 1538.59 Q1244.42 1538.38 1243.4 1538.38 Q1239.79 1538.38 1237.85 1540.74 Q1235.93 1543.08 1235.93 1547.47 L1235.93 1561.13 L1231.64 1561.13 L1231.64 1535.21 L1235.93 1535.21 L1235.93 1539.23 Q1237.27 1536.87 1239.42 1535.74 Q1241.57 1534.58 1244.65 1534.58 Q1245.09 1534.58 1245.62 1534.65 Q1246.16 1534.7 1246.8 1534.81 L1246.83 1539.19 Z" fill="#000000" fill-rule="evenodd" fill-opacity="1" /><path clip-path="url(#clip320)" d="M1263.08 1548.1 Q1257.92 1548.1 1255.92 1549.28 Q1253.93 1550.46 1253.93 1553.31 Q1253.93 1555.58 1255.42 1556.92 Q1256.92 1558.24 1259.49 1558.24 Q1263.03 1558.24 1265.16 1555.74 Q1267.31 1553.22 1267.31 1549.05 L1267.31 1548.1 L1263.08 1548.1 M1271.57 1546.34 L1271.57 1561.13 L1267.31 1561.13 L1267.31 1557.2 Q1265.86 1559.56 1263.68 1560.69 Q1261.5 1561.8 1258.36 1561.8 Q1254.37 1561.8 1252.01 1559.58 Q1249.67 1557.34 1249.67 1553.59 Q1249.67 1549.21 1252.59 1546.99 Q1255.53 1544.77 1261.34 1544.77 L1267.31 1544.77 L1267.31 1544.35 Q1267.31 1541.41 1265.37 1539.81 Q1263.45 1538.19 1259.95 1538.19 Q1257.73 1538.19 1255.62 1538.72 Q1253.52 1539.26 1251.57 1540.32 L1251.57 1536.39 Q1253.91 1535.48 1256.11 1535.04 Q1258.31 1534.58 1260.39 1534.58 Q1266.02 1534.58 1268.8 1537.5 Q1271.57 1540.41 1271.57 1546.34 Z" fill="#000000" fill-rule="evenodd" fill-opacity="1" /><path clip-path="url(#clip320)" d="M1284.56 1527.84 L1284.56 1535.21 L1293.33 1535.21 L1293.33 1538.52 L1284.56 1538.52 L1284.56 1552.59 Q1284.56 1555.76 1285.42 1556.66 Q1286.3 1557.57 1288.96 1557.57 L1293.33 1557.57 L1293.33 1561.13 L1288.96 1561.13 Q1284.03 1561.13 1282.15 1559.3 Q1280.28 1557.45 1280.28 1552.59 L1280.28 1538.52 L1277.15 1538.52 L1277.15 1535.21 L1280.28 1535.21 L1280.28 1527.84 L1284.56 1527.84 Z" fill="#000000" fill-rule="evenodd" fill-opacity="1" /><path clip-path="url(#clip320)" d="M1298.93 1535.21 L1303.19 1535.21 L1303.19 1561.13 L1298.93 1561.13 L1298.93 1535.21 M1298.93 1525.11 L1303.19 1525.11 L1303.19 1530.51 L1298.93 1530.51 L1298.93 1525.11 Z" fill="#000000" fill-rule="evenodd" fill-opacity="1" /><path clip-path="url(#clip320)" d="M1322.15 1538.19 Q1318.73 1538.19 1316.73 1540.88 Q1314.74 1543.54 1314.74 1548.19 Q1314.74 1552.84 1316.71 1555.53 Q1318.7 1558.19 1322.15 1558.19 Q1325.55 1558.19 1327.54 1555.51 Q1329.54 1552.82 1329.54 1548.19 Q1329.54 1543.59 1327.54 1540.9 Q1325.55 1538.19 1322.15 1538.19 M1322.15 1534.58 Q1327.71 1534.58 1330.88 1538.19 Q1334.05 1541.8 1334.05 1548.19 Q1334.05 1554.56 1330.88 1558.19 Q1327.71 1561.8 1322.15 1561.8 Q1316.57 1561.8 1313.4 1558.19 Q1310.25 1554.56 1310.25 1548.19 Q1310.25 1541.8 1313.4 1538.19 Q1316.57 1534.58 1322.15 1534.58 Z" fill="#000000" fill-rule="evenodd" fill-opacity="1" /><path clip-path="url(#clip320)" d="M1362.66 1545.48 L1362.66 1561.13 L1358.4 1561.13 L1358.4 1545.62 Q1358.4 1541.94 1356.97 1540.11 Q1355.53 1538.28 1352.66 1538.28 Q1349.21 1538.28 1347.22 1540.48 Q1345.23 1542.68 1345.23 1546.48 L1345.23 1561.13 L1340.95 1561.13 L1340.95 1535.21 L1345.23 1535.21 L1345.23 1539.23 Q1346.76 1536.9 1348.82 1535.74 Q1350.9 1534.58 1353.61 1534.58 Q1358.08 1534.58 1360.37 1537.36 Q1362.66 1540.11 1362.66 1545.48 Z" fill="#000000" fill-rule="evenodd" fill-opacity="1" /><path clip-path="url(#clip320)" d="M1387.68 1535.97 L1387.68 1540 Q1385.88 1539.07 1383.93 1538.61 Q1381.99 1538.15 1379.91 1538.15 Q1376.73 1538.15 1375.14 1539.12 Q1373.56 1540.09 1373.56 1542.03 Q1373.56 1543.52 1374.7 1544.37 Q1375.83 1545.21 1379.26 1545.97 L1380.72 1546.29 Q1385.25 1547.27 1387.15 1549.05 Q1389.07 1550.81 1389.07 1553.98 Q1389.07 1557.59 1386.2 1559.7 Q1383.35 1561.8 1378.35 1561.8 Q1376.27 1561.8 1374 1561.39 Q1371.76 1560.99 1369.26 1560.18 L1369.26 1555.78 Q1371.62 1557.01 1373.91 1557.64 Q1376.2 1558.24 1378.45 1558.24 Q1381.46 1558.24 1383.08 1557.22 Q1384.7 1556.18 1384.7 1554.3 Q1384.7 1552.57 1383.52 1551.64 Q1382.36 1550.72 1378.4 1549.86 L1376.92 1549.51 Q1372.96 1548.68 1371.2 1546.97 Q1369.44 1545.23 1369.44 1542.22 Q1369.44 1538.56 1372.04 1536.57 Q1374.63 1534.58 1379.4 1534.58 Q1381.76 1534.58 1383.84 1534.93 Q1385.92 1535.28 1387.68 1535.97 Z" fill="#000000" fill-rule="evenodd" fill-opacity="1" /><polyline clip-path="url(#clip322)" style="stroke:#ffffff; stroke-linecap:butt; stroke-linejoin:round; stroke-width:4; stroke-opacity:1; fill:none" points="
  206.571,1355.35 2352.76,1355.35 
  "/>
<polyline clip-path="url(#clip322)" style="stroke:#ffffff; stroke-linecap:butt; stroke-linejoin:round; stroke-width:4; stroke-opacity:1; fill:none" points="
  206.571,1134.31 2352.76,1134.31 
  "/>
<polyline clip-path="url(#clip322)" style="stroke:#ffffff; stroke-linecap:butt; stroke-linejoin:round; stroke-width:4; stroke-opacity:1; fill:none" points="
  206.571,913.278 2352.76,913.278 
  "/>
<polyline clip-path="url(#clip322)" style="stroke:#ffffff; stroke-linecap:butt; stroke-linejoin:round; stroke-width:4; stroke-opacity:1; fill:none" points="
  206.571,692.243 2352.76,692.243 
  "/>
<polyline clip-path="url(#clip322)" style="stroke:#ffffff; stroke-linecap:butt; stroke-linejoin:round; stroke-width:4; stroke-opacity:1; fill:none" points="
  206.571,471.208 2352.76,471.208 
  "/>
<polyline clip-path="url(#clip322)" style="stroke:#ffffff; stroke-linecap:butt; stroke-linejoin:round; stroke-width:4; stroke-opacity:1; fill:none" points="
  206.571,250.173 2352.76,250.173 
  "/>
<polyline clip-path="url(#clip322)" style="stroke:#ffffff; stroke-linecap:butt; stroke-linejoin:round; stroke-width:2; stroke-opacity:1; fill:none" points="
  206.571,1244.83 2352.76,1244.83 
  "/>
<polyline clip-path="url(#clip322)" style="stroke:#ffffff; stroke-linecap:butt; stroke-linejoin:round; stroke-width:2; stroke-opacity:1; fill:none" points="
  206.571,1023.8 2352.76,1023.8 
  "/>
<polyline clip-path="url(#clip322)" style="stroke:#ffffff; stroke-linecap:butt; stroke-linejoin:round; stroke-width:2; stroke-opacity:1; fill:none" points="
  206.571,802.761 2352.76,802.761 
  "/>
<polyline clip-path="url(#clip322)" style="stroke:#ffffff; stroke-linecap:butt; stroke-linejoin:round; stroke-width:2; stroke-opacity:1; fill:none" points="
  206.571,581.726 2352.76,581.726 
  "/>
<polyline clip-path="url(#clip322)" style="stroke:#ffffff; stroke-linecap:butt; stroke-linejoin:round; stroke-width:2; stroke-opacity:1; fill:none" points="
  206.571,360.691 2352.76,360.691 
  "/>
<polyline clip-path="url(#clip322)" style="stroke:#ffffff; stroke-linecap:butt; stroke-linejoin:round; stroke-width:2; stroke-opacity:1; fill:none" points="
  206.571,139.656 2352.76,139.656 
  "/>
<polyline clip-path="url(#clip320)" style="stroke:#ffffff; stroke-linecap:butt; stroke-linejoin:round; stroke-width:4; stroke-opacity:1; fill:none" points="
  206.571,1444.78 206.571,106.192 
  "/>
<polyline clip-path="url(#clip320)" style="stroke:#333333; stroke-linecap:butt; stroke-linejoin:round; stroke-width:4; stroke-opacity:1; fill:none" points="
  206.571,1355.35 187.673,1355.35 
  "/>
<polyline clip-path="url(#clip320)" style="stroke:#333333; stroke-linecap:butt; stroke-linejoin:round; stroke-width:4; stroke-opacity:1; fill:none" points="
  206.571,1134.31 187.673,1134.31 
  "/>
<polyline clip-path="url(#clip320)" style="stroke:#333333; stroke-linecap:butt; stroke-linejoin:round; stroke-width:4; stroke-opacity:1; fill:none" points="
  206.571,913.278 187.673,913.278 
  "/>
<polyline clip-path="url(#clip320)" style="stroke:#333333; stroke-linecap:butt; stroke-linejoin:round; stroke-width:4; stroke-opacity:1; fill:none" points="
  206.571,692.243 187.673,692.243 
  "/>
<polyline clip-path="url(#clip320)" style="stroke:#333333; stroke-linecap:butt; stroke-linejoin:round; stroke-width:4; stroke-opacity:1; fill:none" points="
  206.571,471.208 187.673,471.208 
  "/>
<polyline clip-path="url(#clip320)" style="stroke:#333333; stroke-linecap:butt; stroke-linejoin:round; stroke-width:4; stroke-opacity:1; fill:none" points="
  206.571,250.173 187.673,250.173 
  "/>
<polyline clip-path="url(#clip320)" style="stroke:#333333; stroke-linecap:butt; stroke-linejoin:round; stroke-width:4; stroke-opacity:1; fill:none" points="
  206.571,1244.83 197.122,1244.83 
  "/>
<polyline clip-path="url(#clip320)" style="stroke:#333333; stroke-linecap:butt; stroke-linejoin:round; stroke-width:4; stroke-opacity:1; fill:none" points="
  206.571,1023.8 197.122,1023.8 
  "/>
<polyline clip-path="url(#clip320)" style="stroke:#333333; stroke-linecap:butt; stroke-linejoin:round; stroke-width:4; stroke-opacity:1; fill:none" points="
  206.571,802.761 197.122,802.761 
  "/>
<polyline clip-path="url(#clip320)" style="stroke:#333333; stroke-linecap:butt; stroke-linejoin:round; stroke-width:4; stroke-opacity:1; fill:none" points="
  206.571,581.726 197.122,581.726 
  "/>
<polyline clip-path="url(#clip320)" style="stroke:#333333; stroke-linecap:butt; stroke-linejoin:round; stroke-width:4; stroke-opacity:1; fill:none" points="
  206.571,360.691 197.122,360.691 
  "/>
<polyline clip-path="url(#clip320)" style="stroke:#333333; stroke-linecap:butt; stroke-linejoin:round; stroke-width:4; stroke-opacity:1; fill:none" points="
  206.571,139.656 197.122,139.656 
  "/>
<path clip-path="url(#clip320)" d="M83.7342 1355.69 L105.991 1355.69 L105.991 1358.64 L83.7342 1358.64 L83.7342 1355.69 Z" fill="#4c4c4c" fill-rule="evenodd" fill-opacity="1" /><path clip-path="url(#clip320)" d="M121.06 1356 Q118.56 1356 117.119 1357.34 Q115.696 1358.67 115.696 1361.02 Q115.696 1363.36 117.119 1364.7 Q118.56 1366.03 121.06 1366.03 Q123.56 1366.03 125.001 1364.7 Q126.442 1363.34 126.442 1361.02 Q126.442 1358.67 125.001 1357.34 Q123.578 1356 121.06 1356 M117.553 1354.51 Q115.297 1353.95 114.029 1352.41 Q112.779 1350.86 112.779 1348.64 Q112.779 1345.53 114.984 1343.72 Q117.206 1341.92 121.06 1341.92 Q124.932 1341.92 127.137 1343.72 Q129.342 1345.53 129.342 1348.64 Q129.342 1350.86 128.074 1352.41 Q126.824 1353.95 124.585 1354.51 Q127.119 1355.1 128.526 1356.82 Q129.949 1358.53 129.949 1361.02 Q129.949 1364.78 127.64 1366.8 Q125.349 1368.81 121.06 1368.81 Q116.772 1368.81 114.463 1366.8 Q112.172 1364.78 112.172 1361.02 Q112.172 1358.53 113.595 1356.82 Q115.019 1355.1 117.553 1354.51 M116.269 1348.97 Q116.269 1350.98 117.519 1352.11 Q118.786 1353.24 121.06 1353.24 Q123.317 1353.24 124.585 1352.11 Q125.869 1350.98 125.869 1348.97 Q125.869 1346.95 124.585 1345.83 Q123.317 1344.7 121.06 1344.7 Q118.786 1344.7 117.519 1345.83 Q116.269 1346.95 116.269 1348.97 Z" fill="#4c4c4c" fill-rule="evenodd" fill-opacity="1" /><path clip-path="url(#clip320)" d="M143.682 1356 Q141.182 1356 139.741 1357.34 Q138.317 1358.67 138.317 1361.02 Q138.317 1363.36 139.741 1364.7 Q141.182 1366.03 143.682 1366.03 Q146.182 1366.03 147.623 1364.7 Q149.064 1363.34 149.064 1361.02 Q149.064 1358.67 147.623 1357.34 Q146.199 1356 143.682 1356 M140.175 1354.51 Q137.918 1353.95 136.651 1352.41 Q135.401 1350.86 135.401 1348.64 Q135.401 1345.53 137.605 1343.72 Q139.828 1341.92 143.682 1341.92 Q147.553 1341.92 149.758 1343.72 Q151.963 1345.53 151.963 1348.64 Q151.963 1350.86 150.696 1352.41 Q149.446 1353.95 147.206 1354.51 Q149.741 1355.1 151.147 1356.82 Q152.571 1358.53 152.571 1361.02 Q152.571 1364.78 150.262 1366.8 Q147.97 1368.81 143.682 1368.81 Q139.394 1368.81 137.085 1366.8 Q134.793 1364.78 134.793 1361.02 Q134.793 1358.53 136.217 1356.82 Q137.64 1355.1 140.175 1354.51 M138.89 1348.97 Q138.89 1350.98 140.14 1352.11 Q141.407 1353.24 143.682 1353.24 Q145.939 1353.24 147.206 1352.11 Q148.491 1350.98 148.491 1348.97 Q148.491 1346.95 147.206 1345.83 Q145.939 1344.7 143.682 1344.7 Q141.407 1344.7 140.14 1345.83 Q138.89 1346.95 138.89 1348.97 Z" fill="#4c4c4c" fill-rule="evenodd" fill-opacity="1" /><path clip-path="url(#clip320)" d="M84.3418 1134.65 L106.599 1134.65 L106.599 1137.6 L84.3418 1137.6 L84.3418 1134.65 Z" fill="#4c4c4c" fill-rule="evenodd" fill-opacity="1" /><path clip-path="url(#clip320)" d="M121.668 1134.96 Q119.168 1134.96 117.727 1136.3 Q116.303 1137.64 116.303 1139.98 Q116.303 1142.33 117.727 1143.66 Q119.168 1145 121.668 1145 Q124.168 1145 125.609 1143.66 Q127.05 1142.31 127.05 1139.98 Q127.05 1137.64 125.609 1136.3 Q124.185 1134.96 121.668 1134.96 M118.161 1133.47 Q115.904 1132.92 114.637 1131.37 Q113.387 1129.83 113.387 1127.6 Q113.387 1124.5 115.592 1122.69 Q117.814 1120.88 121.668 1120.88 Q125.54 1120.88 127.744 1122.69 Q129.949 1124.5 129.949 1127.6 Q129.949 1129.83 128.682 1131.37 Q127.432 1132.92 125.192 1133.47 Q127.727 1134.06 129.133 1135.78 Q130.557 1137.5 130.557 1139.98 Q130.557 1143.75 128.248 1145.76 Q125.956 1147.78 121.668 1147.78 Q117.38 1147.78 115.071 1145.76 Q112.779 1143.75 112.779 1139.98 Q112.779 1137.5 114.203 1135.78 Q115.626 1134.06 118.161 1133.47 M116.876 1127.93 Q116.876 1129.95 118.126 1131.08 Q119.394 1132.2 121.668 1132.2 Q123.925 1132.2 125.192 1131.08 Q126.477 1129.95 126.477 1127.93 Q126.477 1125.92 125.192 1124.79 Q123.925 1123.66 121.668 1123.66 Q119.394 1123.66 118.126 1124.79 Q116.876 1125.92 116.876 1127.93 Z" fill="#4c4c4c" fill-rule="evenodd" fill-opacity="1" /><path clip-path="url(#clip320)" d="M135.904 1121.35 L152.571 1121.35 L152.571 1122.85 L143.161 1147.27 L139.498 1147.27 L148.352 1124.3 L135.904 1124.3 L135.904 1121.35 Z" fill="#4c4c4c" fill-rule="evenodd" fill-opacity="1" /><path clip-path="url(#clip320)" d="M83.5432 913.617 L105.8 913.617 L105.8 916.568 L83.5432 916.568 L83.5432 913.617 Z" fill="#4c4c4c" fill-rule="evenodd" fill-opacity="1" /><path clip-path="url(#clip320)" d="M120.869 913.929 Q118.369 913.929 116.928 915.266 Q115.505 916.603 115.505 918.947 Q115.505 921.29 116.928 922.627 Q118.369 923.964 120.869 923.964 Q123.369 923.964 124.81 922.627 Q126.251 921.273 126.251 918.947 Q126.251 916.603 124.81 915.266 Q123.387 913.929 120.869 913.929 M117.362 912.436 Q115.106 911.881 113.838 910.336 Q112.588 908.79 112.588 906.568 Q112.588 903.461 114.793 901.655 Q117.015 899.849 120.869 899.849 Q124.741 899.849 126.946 901.655 Q129.151 903.461 129.151 906.568 Q129.151 908.79 127.883 910.336 Q126.633 911.881 124.394 912.436 Q126.928 913.027 128.335 914.745 Q129.758 916.464 129.758 918.947 Q129.758 922.714 127.449 924.728 Q125.158 926.742 120.869 926.742 Q116.581 926.742 114.272 924.728 Q111.981 922.714 111.981 918.947 Q111.981 916.464 113.404 914.745 Q114.828 913.027 117.362 912.436 M116.078 906.898 Q116.078 908.912 117.328 910.04 Q118.595 911.169 120.869 911.169 Q123.126 911.169 124.394 910.04 Q125.678 908.912 125.678 906.898 Q125.678 904.884 124.394 903.756 Q123.126 902.627 120.869 902.627 Q118.595 902.627 117.328 903.756 Q116.078 904.884 116.078 906.898 Z" fill="#4c4c4c" fill-rule="evenodd" fill-opacity="1" /><path clip-path="url(#clip320)" d="M143.925 911.881 Q141.564 911.881 140.175 913.495 Q138.803 915.11 138.803 917.922 Q138.803 920.717 140.175 922.349 Q141.564 923.964 143.925 923.964 Q146.286 923.964 147.657 922.349 Q149.046 920.717 149.046 917.922 Q149.046 915.11 147.657 913.495 Q146.286 911.881 143.925 911.881 M150.887 900.891 L150.887 904.086 Q149.567 903.461 148.213 903.131 Q146.876 902.801 145.557 902.801 Q142.085 902.801 140.244 905.145 Q138.421 907.488 138.161 912.228 Q139.185 910.717 140.73 909.919 Q142.276 909.103 144.133 909.103 Q148.039 909.103 150.296 911.481 Q152.571 913.842 152.571 917.922 Q152.571 921.915 150.21 924.329 Q147.848 926.742 143.925 926.742 Q139.428 926.742 137.05 923.304 Q134.671 919.849 134.671 913.304 Q134.671 907.158 137.588 903.513 Q140.505 899.849 145.418 899.849 Q146.737 899.849 148.074 900.11 Q149.428 900.37 150.887 900.891 Z" fill="#4c4c4c" fill-rule="evenodd" fill-opacity="1" /><path clip-path="url(#clip320)" d="M84.4113 692.582 L106.668 692.582 L106.668 695.533 L84.4113 695.533 L84.4113 692.582 Z" fill="#4c4c4c" fill-rule="evenodd" fill-opacity="1" /><path clip-path="url(#clip320)" d="M121.737 692.894 Q119.237 692.894 117.797 694.231 Q116.373 695.568 116.373 697.912 Q116.373 700.255 117.797 701.592 Q119.237 702.929 121.737 702.929 Q124.237 702.929 125.678 701.592 Q127.119 700.238 127.119 697.912 Q127.119 695.568 125.678 694.231 Q124.255 692.894 121.737 692.894 M118.231 691.401 Q115.974 690.846 114.706 689.301 Q113.456 687.755 113.456 685.533 Q113.456 682.426 115.661 680.62 Q117.883 678.815 121.737 678.815 Q125.609 678.815 127.814 680.62 Q130.019 682.426 130.019 685.533 Q130.019 687.755 128.751 689.301 Q127.501 690.846 125.262 691.401 Q127.796 691.992 129.203 693.71 Q130.626 695.429 130.626 697.912 Q130.626 701.679 128.317 703.693 Q126.026 705.707 121.737 705.707 Q117.449 705.707 115.14 703.693 Q112.849 701.679 112.849 697.912 Q112.849 695.429 114.272 693.71 Q115.696 691.992 118.231 691.401 M116.946 685.863 Q116.946 687.877 118.196 689.005 Q119.463 690.134 121.737 690.134 Q123.994 690.134 125.262 689.005 Q126.546 687.877 126.546 685.863 Q126.546 683.849 125.262 682.721 Q123.994 681.592 121.737 681.592 Q119.463 681.592 118.196 682.721 Q116.946 683.849 116.946 685.863 Z" fill="#4c4c4c" fill-rule="evenodd" fill-opacity="1" /><path clip-path="url(#clip320)" d="M136.894 679.283 L150.661 679.283 L150.661 682.235 L140.105 682.235 L140.105 688.589 Q140.869 688.328 141.633 688.207 Q142.397 688.068 143.161 688.068 Q147.501 688.068 150.036 690.446 Q152.571 692.825 152.571 696.887 Q152.571 701.071 149.966 703.398 Q147.362 705.707 142.623 705.707 Q140.991 705.707 139.289 705.429 Q137.605 705.151 135.8 704.596 L135.8 701.071 Q137.362 701.922 139.029 702.339 Q140.696 702.755 142.553 702.755 Q145.557 702.755 147.31 701.176 Q149.064 699.596 149.064 696.887 Q149.064 694.179 147.31 692.599 Q145.557 691.019 142.553 691.019 Q141.147 691.019 139.741 691.332 Q138.352 691.644 136.894 692.304 L136.894 679.283 Z" fill="#4c4c4c" fill-rule="evenodd" fill-opacity="1" /><path clip-path="url(#clip320)" d="M83.3002 471.547 L105.557 471.547 L105.557 474.498 L83.3002 474.498 L83.3002 471.547 Z" fill="#4c4c4c" fill-rule="evenodd" fill-opacity="1" /><path clip-path="url(#clip320)" d="M120.626 471.859 Q118.126 471.859 116.685 473.196 Q115.262 474.533 115.262 476.877 Q115.262 479.22 116.685 480.557 Q118.126 481.894 120.626 481.894 Q123.126 481.894 124.567 480.557 Q126.008 479.203 126.008 476.877 Q126.008 474.533 124.567 473.196 Q123.144 471.859 120.626 471.859 M117.119 470.366 Q114.862 469.811 113.595 468.266 Q112.345 466.721 112.345 464.498 Q112.345 461.391 114.55 459.585 Q116.772 457.78 120.626 457.78 Q124.498 457.78 126.703 459.585 Q128.908 461.391 128.908 464.498 Q128.908 466.721 127.64 468.266 Q126.39 469.811 124.151 470.366 Q126.685 470.957 128.092 472.675 Q129.515 474.394 129.515 476.877 Q129.515 480.644 127.206 482.658 Q124.915 484.672 120.626 484.672 Q116.338 484.672 114.029 482.658 Q111.738 480.644 111.738 476.877 Q111.738 474.394 113.161 472.675 Q114.585 470.957 117.119 470.366 M115.835 464.828 Q115.835 466.842 117.085 467.971 Q118.352 469.099 120.626 469.099 Q122.883 469.099 124.151 467.971 Q125.435 466.842 125.435 464.828 Q125.435 462.814 124.151 461.686 Q122.883 460.557 120.626 460.557 Q118.352 460.557 117.085 461.686 Q115.835 462.814 115.835 464.828 Z" fill="#4c4c4c" fill-rule="evenodd" fill-opacity="1" /><path clip-path="url(#clip320)" d="M145.383 461.304 L136.529 475.141 L145.383 475.141 L145.383 461.304 M144.463 458.248 L148.873 458.248 L148.873 475.141 L152.571 475.141 L152.571 478.057 L148.873 478.057 L148.873 484.168 L145.383 484.168 L145.383 478.057 L133.682 478.057 L133.682 474.672 L144.463 458.248 Z" fill="#4c4c4c" fill-rule="evenodd" fill-opacity="1" /><path clip-path="url(#clip320)" d="M84.1508 250.512 L106.408 250.512 L106.408 253.463 L84.1508 253.463 L84.1508 250.512 Z" fill="#4c4c4c" fill-rule="evenodd" fill-opacity="1" /><path clip-path="url(#clip320)" d="M121.477 250.824 Q118.977 250.824 117.536 252.161 Q116.112 253.498 116.112 255.842 Q116.112 258.186 117.536 259.522 Q118.977 260.859 121.477 260.859 Q123.977 260.859 125.418 259.522 Q126.859 258.168 126.859 255.842 Q126.859 253.498 125.418 252.161 Q123.994 250.824 121.477 250.824 M117.97 249.331 Q115.713 248.776 114.446 247.231 Q113.196 245.686 113.196 243.463 Q113.196 240.356 115.401 238.55 Q117.623 236.745 121.477 236.745 Q125.349 236.745 127.553 238.55 Q129.758 240.356 129.758 243.463 Q129.758 245.686 128.491 247.231 Q127.241 248.776 125.001 249.331 Q127.536 249.922 128.942 251.64 Q130.366 253.359 130.366 255.842 Q130.366 259.609 128.057 261.623 Q125.765 263.637 121.477 263.637 Q117.189 263.637 114.88 261.623 Q112.588 259.609 112.588 255.842 Q112.588 253.359 114.012 251.64 Q115.435 249.922 117.97 249.331 M116.685 243.793 Q116.685 245.807 117.935 246.936 Q119.203 248.064 121.477 248.064 Q123.734 248.064 125.001 246.936 Q126.286 245.807 126.286 243.793 Q126.286 241.779 125.001 240.651 Q123.734 239.522 121.477 239.522 Q119.203 239.522 117.935 240.651 Q116.685 241.779 116.685 243.793 Z" fill="#4c4c4c" fill-rule="evenodd" fill-opacity="1" /><path clip-path="url(#clip320)" d="M147.223 249.158 Q149.741 249.696 151.147 251.397 Q152.571 253.099 152.571 255.599 Q152.571 259.436 149.932 261.536 Q147.293 263.637 142.432 263.637 Q140.8 263.637 139.064 263.307 Q137.345 262.995 135.505 262.352 L135.505 258.967 Q136.963 259.817 138.699 260.252 Q140.435 260.686 142.328 260.686 Q145.626 260.686 147.345 259.383 Q149.081 258.081 149.081 255.599 Q149.081 253.307 147.466 252.022 Q145.869 250.72 143.005 250.72 L139.984 250.72 L139.984 247.838 L143.144 247.838 Q145.73 247.838 147.102 246.814 Q148.473 245.772 148.473 243.828 Q148.473 241.831 147.05 240.772 Q145.644 239.696 143.005 239.696 Q141.564 239.696 139.914 240.009 Q138.265 240.321 136.286 240.981 L136.286 237.856 Q138.283 237.3 140.019 237.022 Q141.772 236.745 143.317 236.745 Q147.31 236.745 149.637 238.568 Q151.963 240.373 151.963 243.463 Q151.963 245.616 150.73 247.109 Q149.498 248.585 147.223 249.158 Z" fill="#4c4c4c" fill-rule="evenodd" fill-opacity="1" /><path clip-path="url(#clip320)" d="M20.3722 985.184 L20.3722 955.948 L24.3073 955.948 L24.3073 968.216 L54.9322 968.216 L54.9322 972.915 L24.3073 972.915 L24.3073 985.184 L20.3722 985.184 Z" fill="#000000" fill-rule="evenodd" fill-opacity="1" /><path clip-path="url(#clip320)" d="M40.9045 937.499 L42.9878 937.499 L42.9878 957.082 Q47.3859 956.804 49.7007 954.443 Q51.9924 952.059 51.9924 947.823 Q51.9924 945.369 51.3905 943.078 Q50.7887 940.763 49.585 938.494 L53.6127 938.494 Q54.5849 940.786 55.0942 943.193 Q55.6035 945.601 55.6035 948.078 Q55.6035 954.281 51.9924 957.916 Q48.3813 961.527 42.2239 961.527 Q35.8582 961.527 32.1314 958.101 Q28.3814 954.652 28.3814 948.818 Q28.3814 943.587 31.761 940.555 Q35.1174 937.499 40.9045 937.499 M39.6545 941.758 Q36.1591 941.805 34.0758 943.726 Q31.9925 945.624 31.9925 948.772 Q31.9925 952.337 34.0063 954.49 Q36.0202 956.619 39.6776 956.943 L39.6545 941.758 Z" fill="#000000" fill-rule="evenodd" fill-opacity="1" /><path clip-path="url(#clip320)" d="M29.7703 913.981 L33.798 913.981 Q32.8721 915.786 32.4091 917.731 Q31.9462 919.675 31.9462 921.758 Q31.9462 924.93 32.9184 926.527 Q33.8906 928.101 35.835 928.101 Q37.3165 928.101 38.173 926.967 Q39.0063 925.832 39.7702 922.406 L40.0943 920.948 Q41.0665 916.411 42.8489 914.513 Q44.6081 912.592 47.7794 912.592 Q51.3905 912.592 53.497 915.462 Q55.6035 918.309 55.6035 923.309 Q55.6035 925.393 55.1868 927.661 Q54.7933 929.906 53.9831 932.406 L49.585 932.406 Q50.8118 930.045 51.4368 927.754 Q52.0387 925.462 52.0387 923.217 Q52.0387 920.207 51.0201 918.587 Q49.9785 916.967 48.1035 916.967 Q46.3674 916.967 45.4415 918.147 Q44.5155 919.305 43.6591 923.263 L43.3118 924.744 Q42.4785 928.703 40.7656 930.462 Q39.0295 932.221 36.0202 932.221 Q32.3628 932.221 30.3721 929.629 Q28.3814 927.036 28.3814 922.268 Q28.3814 919.907 28.7286 917.823 Q29.0758 915.74 29.7703 913.981 Z" fill="#000000" fill-rule="evenodd" fill-opacity="1" /><path clip-path="url(#clip320)" d="M21.6453 901.596 L29.0064 901.596 L29.0064 892.823 L32.3165 892.823 L32.3165 901.596 L46.3905 901.596 Q49.5618 901.596 50.4646 900.74 Q51.3674 899.86 51.3674 897.198 L51.3674 892.823 L54.9322 892.823 L54.9322 897.198 Q54.9322 902.129 53.1035 904.004 Q51.2516 905.879 46.3905 905.879 L32.3165 905.879 L32.3165 909.004 L29.0064 909.004 L29.0064 905.879 L21.6453 905.879 L21.6453 901.596 Z" fill="#000000" fill-rule="evenodd" fill-opacity="1" /><path clip-path="url(#clip320)" d="M18.9138 872.152 L18.9138 867.893 L54.9322 867.893 L54.9322 872.152 L18.9138 872.152 Z" fill="#000000" fill-rule="evenodd" fill-opacity="1" /><path clip-path="url(#clip320)" d="M31.9925 848.935 Q31.9925 852.361 34.6776 854.351 Q37.3397 856.342 41.9924 856.342 Q46.6452 856.342 49.3303 854.374 Q51.9924 852.384 51.9924 848.935 Q51.9924 845.532 49.3072 843.541 Q46.622 841.55 41.9924 841.55 Q37.386 841.55 34.7008 843.541 Q31.9925 845.532 31.9925 848.935 M28.3814 848.935 Q28.3814 843.379 31.9925 840.208 Q35.6036 837.037 41.9924 837.037 Q48.3581 837.037 51.9924 840.208 Q55.6035 843.379 55.6035 848.935 Q55.6035 854.513 51.9924 857.685 Q48.3581 860.833 41.9924 860.833 Q35.6036 860.833 31.9925 857.685 Q28.3814 854.513 28.3814 848.935 Z" fill="#000000" fill-rule="evenodd" fill-opacity="1" /><path clip-path="url(#clip320)" d="M41.6683 812.916 Q37.0387 812.916 34.4925 814.838 Q31.9462 816.736 31.9462 820.185 Q31.9462 823.611 34.4925 825.532 Q37.0387 827.43 41.6683 827.43 Q46.2748 827.43 48.8211 825.532 Q51.3674 823.611 51.3674 820.185 Q51.3674 816.736 48.8211 814.838 Q46.2748 812.916 41.6683 812.916 M51.7146 808.657 Q58.3349 808.657 61.5525 811.597 Q64.7932 814.537 64.7932 820.601 Q64.7932 822.847 64.446 824.838 Q64.1219 826.828 63.4275 828.703 L59.284 828.703 Q60.3025 826.828 60.7886 825 Q61.2747 823.171 61.2747 821.273 Q61.2747 817.083 59.0757 815 Q56.8997 812.916 52.4785 812.916 L50.372 812.916 Q52.6637 814.236 53.7979 816.296 Q54.9322 818.356 54.9322 821.226 Q54.9322 825.995 51.2979 828.912 Q47.6637 831.828 41.6683 831.828 Q35.6499 831.828 32.0156 828.912 Q28.3814 825.995 28.3814 821.226 Q28.3814 818.356 29.5156 816.296 Q30.6499 814.236 32.9415 812.916 L29.0064 812.916 L29.0064 808.657 L51.7146 808.657 Z" fill="#000000" fill-rule="evenodd" fill-opacity="1" /><path clip-path="url(#clip320)" d="M40.048 802.037 L40.048 789.56 L43.8443 789.56 L43.8443 802.037 L40.048 802.037 Z" fill="#000000" fill-rule="evenodd" fill-opacity="1" /><path clip-path="url(#clip320)" d="M18.9138 782.778 L18.9138 778.518 L54.9322 778.518 L54.9322 782.778 L18.9138 782.778 Z" fill="#000000" fill-rule="evenodd" fill-opacity="1" /><path clip-path="url(#clip320)" d="M29.0064 769.606 L29.0064 765.347 L54.9322 765.347 L54.9322 769.606 L29.0064 769.606 M18.9138 769.606 L18.9138 765.347 L24.3073 765.347 L24.3073 769.606 L18.9138 769.606 Z" fill="#000000" fill-rule="evenodd" fill-opacity="1" /><path clip-path="url(#clip320)" d="M18.9138 756.597 L18.9138 752.315 L40.1869 752.315 L29.0064 739.607 L29.0064 734.167 L41.1359 747.917 L54.9322 733.588 L54.9322 739.144 L42.2702 752.315 L54.9322 752.315 L54.9322 756.597 L18.9138 756.597 Z" fill="#000000" fill-rule="evenodd" fill-opacity="1" /><path clip-path="url(#clip320)" d="M40.9045 708.496 L42.9878 708.496 L42.9878 728.079 Q47.3859 727.801 49.7007 725.44 Q51.9924 723.056 51.9924 718.82 Q51.9924 716.366 51.3905 714.074 Q50.7887 711.759 49.585 709.491 L53.6127 709.491 Q54.5849 711.783 55.0942 714.19 Q55.6035 716.597 55.6035 719.074 Q55.6035 725.278 51.9924 728.912 Q48.3813 732.523 42.2239 732.523 Q35.8582 732.523 32.1314 729.097 Q28.3814 725.648 28.3814 719.815 Q28.3814 714.584 31.761 711.551 Q35.1174 708.496 40.9045 708.496 M39.6545 712.755 Q36.1591 712.801 34.0758 714.722 Q31.9925 716.621 31.9925 719.769 Q31.9925 723.333 34.0063 725.486 Q36.0202 727.616 39.6776 727.94 L39.6545 712.755 Z" fill="#000000" fill-rule="evenodd" fill-opacity="1" /><path clip-path="url(#clip320)" d="M18.9138 701.505 L18.9138 697.246 L54.9322 697.246 L54.9322 701.505 L18.9138 701.505 Z" fill="#000000" fill-rule="evenodd" fill-opacity="1" /><path clip-path="url(#clip320)" d="M29.0064 688.334 L29.0064 684.074 L54.9322 684.074 L54.9322 688.334 L29.0064 688.334 M18.9138 688.334 L18.9138 684.074 L24.3073 684.074 L24.3073 688.334 L18.9138 688.334 Z" fill="#000000" fill-rule="evenodd" fill-opacity="1" /><path clip-path="url(#clip320)" d="M39.2841 653.612 L54.9322 653.612 L54.9322 657.871 L39.423 657.871 Q35.7424 657.871 33.9138 659.306 Q32.0851 660.741 32.0851 663.612 Q32.0851 667.061 34.2841 669.051 Q36.4832 671.042 40.2795 671.042 L54.9322 671.042 L54.9322 675.324 L18.9138 675.324 L18.9138 671.042 L33.0341 671.042 Q30.6962 669.514 29.5388 667.454 Q28.3814 665.371 28.3814 662.663 Q28.3814 658.195 31.1591 655.903 Q33.9138 653.612 39.2841 653.612 Z" fill="#000000" fill-rule="evenodd" fill-opacity="1" /><path clip-path="url(#clip320)" d="M31.9925 635.07 Q31.9925 638.496 34.6776 640.487 Q37.3397 642.477 41.9924 642.477 Q46.6452 642.477 49.3303 640.51 Q51.9924 638.519 51.9924 635.07 Q51.9924 631.667 49.3072 629.677 Q46.622 627.686 41.9924 627.686 Q37.386 627.686 34.7008 629.677 Q31.9925 631.667 31.9925 635.07 M28.3814 635.07 Q28.3814 629.515 31.9925 626.343 Q35.6036 623.172 41.9924 623.172 Q48.3581 623.172 51.9924 626.343 Q55.6035 629.515 55.6035 635.07 Q55.6035 640.649 51.9924 643.82 Q48.3581 646.968 41.9924 646.968 Q35.6036 646.968 31.9925 643.82 Q28.3814 640.649 28.3814 635.07 Z" fill="#000000" fill-rule="evenodd" fill-opacity="1" /><path clip-path="url(#clip320)" d="M31.9925 606.066 Q31.9925 609.492 34.6776 611.482 Q37.3397 613.473 41.9924 613.473 Q46.6452 613.473 49.3303 611.505 Q51.9924 609.515 51.9924 606.066 Q51.9924 602.663 49.3072 600.672 Q46.622 598.681 41.9924 598.681 Q37.386 598.681 34.7008 600.672 Q31.9925 602.663 31.9925 606.066 M28.3814 606.066 Q28.3814 600.51 31.9925 597.339 Q35.6036 594.168 41.9924 594.168 Q48.3581 594.168 51.9924 597.339 Q55.6035 600.51 55.6035 606.066 Q55.6035 611.644 51.9924 614.816 Q48.3581 617.964 41.9924 617.964 Q35.6036 617.964 31.9925 614.816 Q28.3814 611.644 28.3814 606.066 Z" fill="#000000" fill-rule="evenodd" fill-opacity="1" /><path clip-path="url(#clip320)" d="M32.9415 570.047 L18.9138 570.047 L18.9138 565.788 L54.9322 565.788 L54.9322 570.047 L51.0433 570.047 Q53.3581 571.39 54.4923 573.45 Q55.6035 575.487 55.6035 578.357 Q55.6035 583.056 51.8535 586.019 Q48.1035 588.959 41.9924 588.959 Q35.8813 588.959 32.1314 586.019 Q28.3814 583.056 28.3814 578.357 Q28.3814 575.487 29.5156 573.45 Q30.6267 571.39 32.9415 570.047 M41.9924 584.561 Q46.6915 584.561 49.3766 582.64 Q52.0387 580.695 52.0387 577.316 Q52.0387 573.936 49.3766 571.992 Q46.6915 570.047 41.9924 570.047 Q37.2934 570.047 34.6313 571.992 Q31.9462 573.936 31.9462 577.316 Q31.9462 580.695 34.6313 582.64 Q37.2934 584.561 41.9924 584.561 Z" fill="#000000" fill-rule="evenodd" fill-opacity="1" /><path clip-path="url(#clip320)" d="M1251.89 24.3517 L1251.89 6.81709 L1257.21 6.81709 L1257.21 51.84 L1251.89 51.84 L1251.89 46.9789 Q1250.21 49.8724 1247.63 51.2902 Q1245.09 52.6791 1241.5 52.6791 Q1235.62 52.6791 1231.92 47.9916 Q1228.25 43.3042 1228.25 35.6653 Q1228.25 28.0265 1231.92 23.339 Q1235.62 18.6515 1241.5 18.6515 Q1245.09 18.6515 1247.63 20.0693 Q1250.21 21.4582 1251.89 24.3517 M1233.74 35.6653 Q1233.74 41.5391 1236.14 44.8956 Q1238.58 48.2231 1242.8 48.2231 Q1247.02 48.2231 1249.46 44.8956 Q1251.89 41.5391 1251.89 35.6653 Q1251.89 29.7915 1249.46 26.464 Q1247.02 23.1075 1242.8 23.1075 Q1238.58 23.1075 1236.14 26.464 Q1233.74 29.7915 1233.74 35.6653 Z" fill="#000000" fill-rule="evenodd" fill-opacity="1" /><path clip-path="url(#clip320)" d="M1295.11 32.2799 L1295.11 51.84 L1289.79 51.84 L1289.79 32.4535 Q1289.79 27.8529 1288 25.567 Q1286.2 23.2811 1282.61 23.2811 Q1278.3 23.2811 1275.81 26.03 Q1273.33 28.7788 1273.33 33.5241 L1273.33 51.84 L1267.97 51.84 L1267.97 19.4328 L1273.33 19.4328 L1273.33 24.4675 Q1275.24 21.545 1277.81 20.0983 Q1280.42 18.6515 1283.8 18.6515 Q1289.39 18.6515 1292.25 22.1237 Q1295.11 25.567 1295.11 32.2799 Z" fill="#000000" fill-rule="evenodd" fill-opacity="1" /><path clip-path="url(#clip320)" d="M1320.46 35.5496 Q1314.01 35.5496 1311.52 37.0253 Q1309.03 38.501 1309.03 42.06 Q1309.03 44.8956 1310.88 46.5738 Q1312.76 48.2231 1315.98 48.2231 Q1320.4 48.2231 1323.07 45.0981 Q1325.76 41.9442 1325.76 36.7359 L1325.76 35.5496 L1320.46 35.5496 M1331.08 33.3505 L1331.08 51.84 L1325.76 51.84 L1325.76 46.921 Q1323.93 49.8724 1321.21 51.2902 Q1318.49 52.6791 1314.56 52.6791 Q1309.58 52.6791 1306.63 49.9014 Q1303.71 47.0947 1303.71 42.4072 Q1303.71 36.9385 1307.35 34.1607 Q1311.03 31.3829 1318.29 31.3829 L1325.76 31.3829 L1325.76 30.8621 Q1325.76 27.1874 1323.33 25.1908 Q1320.92 23.1654 1316.56 23.1654 Q1313.78 23.1654 1311.14 23.8309 Q1308.51 24.4964 1306.08 25.8274 L1306.08 20.9085 Q1309 19.78 1311.75 19.2302 Q1314.5 18.6515 1317.11 18.6515 Q1324.14 18.6515 1327.61 22.2973 Q1331.08 25.9431 1331.08 33.3505 Z" fill="#000000" fill-rule="evenodd" fill-opacity="1" /><polyline clip-path="url(#clip322)" style="stroke:#e26f46; stroke-linecap:butt; stroke-linejoin:round; stroke-width:8; stroke-opacity:1; fill:none" points="
  307.806,144.077 348.3,144.077 388.794,144.077 429.288,144.077 469.782,144.077 510.276,144.077 550.77,144.077 591.264,144.077 631.758,144.077 672.252,144.077 
  712.746,144.077 753.24,144.077 793.735,144.077 834.229,144.077 874.723,144.077 915.217,144.077 955.711,144.077 996.205,144.077 1036.7,144.077 1077.19,144.077 
  1117.69,144.077 1158.18,144.077 1198.68,144.077 1239.17,144.077 1279.66,144.077 1320.16,144.077 1360.65,144.077 1401.15,144.077 1441.64,144.077 1482.13,144.077 
  1522.63,144.077 1563.12,144.077 1603.62,144.077 1644.11,144.077 1684.6,144.077 1725.1,144.077 1765.59,144.077 1806.09,144.077 1846.58,144.077 1887.07,144.077 
  1927.57,144.077 1968.06,144.077 2008.56,144.077 2049.05,144.077 2089.54,144.077 2130.04,144.077 2170.53,144.077 2211.03,144.077 2251.52,144.077 2292.01,144.077 
  
  "/>
<polyline clip-path="url(#clip322)" style="stroke:#3da44d; stroke-linecap:butt; stroke-linejoin:round; stroke-width:8; stroke-opacity:1; fill:none" points="
  307.806,961.906 348.3,961.906 388.794,961.906 429.288,961.906 469.782,961.906 510.276,961.906 550.77,961.906 591.264,961.906 631.758,961.906 672.252,961.906 
  712.746,961.906 753.24,961.906 793.735,961.906 834.229,961.906 874.723,961.906 915.217,961.906 955.711,961.906 996.205,961.906 1036.7,961.906 1077.19,961.906 
  1117.69,961.906 1158.18,961.906 1198.68,961.906 1239.17,961.906 1279.66,961.906 1320.16,961.906 1360.65,961.906 1401.15,961.906 1441.64,961.906 1482.13,961.906 
  1522.63,961.906 1563.12,961.906 1603.62,961.906 1644.11,961.906 1684.6,961.906 1725.1,961.906 1765.59,961.906 1806.09,961.906 1846.58,961.906 1887.07,961.906 
  1927.57,961.906 1968.06,961.906 2008.56,961.906 2049.05,961.906 2089.54,961.906 2130.04,961.906 2170.53,961.906 2211.03,961.906 2251.52,961.906 2292.01,961.906 
  
  "/>
<polyline clip-path="url(#clip322)" style="stroke:#c271d2; stroke-linecap:butt; stroke-linejoin:round; stroke-width:8; stroke-opacity:1; fill:none" points="
  307.806,1357.56 348.3,1357.56 388.794,1357.56 429.288,1357.56 469.782,1357.56 510.276,1357.56 550.77,1357.56 591.264,1357.56 631.758,1357.56 672.252,1357.56 
  712.746,1357.56 753.24,1357.56 793.735,1357.56 834.229,1357.56 874.723,1357.56 915.217,1357.56 955.711,1357.56 996.205,1357.56 1036.7,1357.56 1077.19,1357.56 
  1117.69,1357.56 1158.18,1357.56 1198.68,1357.56 1239.17,1357.56 1279.66,1357.56 1320.16,1357.56 1360.65,1357.56 1401.15,1357.56 1441.64,1357.56 1482.13,1357.56 
  1522.63,1357.56 1563.12,1357.56 1603.62,1357.56 1644.11,1357.56 1684.6,1357.56 1725.1,1357.56 1765.59,1357.56 1806.09,1357.56 1846.58,1357.56 1887.07,1357.56 
  1927.57,1357.56 1968.06,1357.56 2008.56,1357.56 2049.05,1357.56 2089.54,1357.56 2130.04,1357.56 2170.53,1357.56 2211.03,1357.56 2251.52,1357.56 2292.01,1357.56 
  
  "/>
<polyline clip-path="url(#clip322)" style="stroke:#ac8d18; stroke-linecap:butt; stroke-linejoin:round; stroke-width:8; stroke-opacity:1; fill:none" points="
  307.806,1048.11 348.3,1048.11 388.794,1048.11 429.288,1048.11 469.782,1048.11 510.276,1048.11 550.77,1048.11 591.264,1048.11 631.758,1048.11 672.252,1048.11 
  712.746,1048.11 753.24,1048.11 793.735,1048.11 834.229,1048.11 874.723,1048.11 915.217,1048.11 955.711,1048.11 996.205,1048.11 1036.7,1048.11 1077.19,1048.11 
  1117.69,1048.11 1158.18,1048.11 1198.68,1048.11 1239.17,1048.11 1279.66,1048.11 1320.16,1048.11 1360.65,1048.11 1401.15,1048.11 1441.64,1048.11 1482.13,1048.11 
  1522.63,1048.11 1563.12,1048.11 1603.62,1048.11 1644.11,1048.11 1684.6,1048.11 1725.1,1048.11 1765.59,1048.11 1806.09,1048.11 1846.58,1048.11 1887.07,1048.11 
  1927.57,1048.11 1968.06,1048.11 2008.56,1048.11 2049.05,1048.11 2089.54,1048.11 2130.04,1048.11 2170.53,1048.11 2211.03,1048.11 2251.52,1048.11 2292.01,1048.11 
  
  "/>
<polyline clip-path="url(#clip322)" style="stroke:#00a9ad; stroke-linecap:butt; stroke-linejoin:round; stroke-width:8; stroke-opacity:1; fill:none" points="
  307.806,570.674 348.3,570.674 388.794,570.674 429.288,570.674 469.782,570.674 510.276,570.674 550.77,570.674 591.264,570.674 631.758,570.674 672.252,570.674 
  712.746,570.674 753.24,570.674 793.735,570.674 834.229,570.674 874.723,570.674 915.217,570.674 955.711,570.674 996.205,570.674 1036.7,570.674 1077.19,570.674 
  1117.69,570.674 1158.18,570.674 1198.68,570.674 1239.17,570.674 1279.66,570.674 1320.16,570.674 1360.65,570.674 1401.15,570.674 1441.64,570.674 1482.13,570.674 
  1522.63,570.674 1563.12,570.674 1603.62,570.674 1644.11,570.674 1684.6,570.674 1725.1,570.674 1765.59,570.674 1806.09,570.674 1846.58,570.674 1887.07,570.674 
  1927.57,570.674 1968.06,570.674 2008.56,570.674 2049.05,570.674 2089.54,570.674 2130.04,570.674 2170.53,570.674 2211.03,570.674 2251.52,570.674 2292.01,570.674 
  
  "/>
<polyline clip-path="url(#clip322)" style="stroke:#009af9; stroke-linecap:butt; stroke-linejoin:round; stroke-width:12; stroke-opacity:1; fill:none" points="
  307.806,1406.9 348.3,1188.44 388.794,1006.87 429.288,994.808 469.782,780.36 510.276,874.46 550.77,724.923 591.264,660.793 631.758,739.712 672.252,688.584 
  712.746,737.461 753.24,680.564 793.735,616.828 834.229,708.741 874.723,641.295 915.217,628.661 955.711,551.429 996.205,543.749 1036.7,514.29 1077.19,537.311 
  1117.69,544.182 1158.18,541.985 1198.68,556.299 1239.17,583.633 1279.66,636.043 1320.16,612.846 1360.65,602.52 1401.15,606.779 1441.64,652.622 1482.13,661.857 
  1522.63,622.299 1563.12,578.923 1603.62,523.233 1644.11,524.876 1684.6,544.154 1725.1,561.931 1765.59,530.514 1806.09,553.894 1846.58,556.58 1887.07,569.732 
  1927.57,548.568 1968.06,561.093 2008.56,568.696 2049.05,577.789 2089.54,546.982 2130.04,534.589 2170.53,526.341 2211.03,520.731 2251.52,525.084 2292.01,534.739 
  
  "/>
</svg>
