<?xml version="1.0" encoding="utf-8"?>
<svg xmlns="http://www.w3.org/2000/svg" xmlns:xlink="http://www.w3.org/1999/xlink" width="600" height="400" viewBox="0 0 2400 1600">
<defs>
  <clipPath id="clip590">
    <rect x="0" y="0" width="2400" height="1600"/>
  </clipPath>
</defs>
<path clip-path="url(#clip590)" d="
M0 1600 L2400 1600 L2400 0 L0 0  Z
  " fill="#ffffff" fill-rule="evenodd" fill-opacity="1"/>
<defs>
  <clipPath id="clip591">
    <rect x="480" y="0" width="1681" height="1600"/>
  </clipPath>
</defs>
<path clip-path="url(#clip590)" d="
M206.571 1444.78 L2352.76 1444.78 L2352.76 106.192 L206.571 106.192  Z
  " fill="#eaeaea" fill-rule="evenodd" fill-opacity="1"/>
<defs>
  <clipPath id="clip592">
    <rect x="206" y="106" width="2147" height="1340"/>
  </clipPath>
</defs>
<polyline clip-path="url(#clip592)" style="stroke:#ffffff; stroke-linecap:butt; stroke-linejoin:round; stroke-width:4; stroke-opacity:1; fill:none" points="
  267.312,1444.78 267.312,106.192 
  "/>
<polyline clip-path="url(#clip592)" style="stroke:#ffffff; stroke-linecap:butt; stroke-linejoin:round; stroke-width:4; stroke-opacity:1; fill:none" points="
  469.782,1444.78 469.782,106.192 
  "/>
<polyline clip-path="url(#clip592)" style="stroke:#ffffff; stroke-linecap:butt; stroke-linejoin:round; stroke-width:4; stroke-opacity:1; fill:none" points="
  672.252,1444.78 672.252,106.192 
  "/>
<polyline clip-path="url(#clip592)" style="stroke:#ffffff; stroke-linecap:butt; stroke-linejoin:round; stroke-width:4; stroke-opacity:1; fill:none" points="
  874.723,1444.78 874.723,106.192 
  "/>
<polyline clip-path="url(#clip592)" style="stroke:#ffffff; stroke-linecap:butt; stroke-linejoin:round; stroke-width:4; stroke-opacity:1; fill:none" points="
  1077.19,1444.78 1077.19,106.192 
  "/>
<polyline clip-path="url(#clip592)" style="stroke:#ffffff; stroke-linecap:butt; stroke-linejoin:round; stroke-width:4; stroke-opacity:1; fill:none" points="
  1279.66,1444.78 1279.66,106.192 
  "/>
<polyline clip-path="url(#clip592)" style="stroke:#ffffff; stroke-linecap:butt; stroke-linejoin:round; stroke-width:4; stroke-opacity:1; fill:none" points="
  1482.13,1444.78 1482.13,106.192 
  "/>
<polyline clip-path="url(#clip592)" style="stroke:#ffffff; stroke-linecap:butt; stroke-linejoin:round; stroke-width:4; stroke-opacity:1; fill:none" points="
  1684.6,1444.78 1684.6,106.192 
  "/>
<polyline clip-path="url(#clip592)" style="stroke:#ffffff; stroke-linecap:butt; stroke-linejoin:round; stroke-width:4; stroke-opacity:1; fill:none" points="
  1887.07,1444.78 1887.07,106.192 
  "/>
<polyline clip-path="url(#clip592)" style="stroke:#ffffff; stroke-linecap:butt; stroke-linejoin:round; stroke-width:4; stroke-opacity:1; fill:none" points="
  2089.54,1444.78 2089.54,106.192 
  "/>
<polyline clip-path="url(#clip592)" style="stroke:#ffffff; stroke-linecap:butt; stroke-linejoin:round; stroke-width:4; stroke-opacity:1; fill:none" points="
  2292.01,1444.78 2292.01,106.192 
  "/>
<polyline clip-path="url(#clip592)" style="stroke:#ffffff; stroke-linecap:butt; stroke-linejoin:round; stroke-width:2; stroke-opacity:1; fill:none" points="
  368.547,1444.78 368.547,106.192 
  "/>
<polyline clip-path="url(#clip592)" style="stroke:#ffffff; stroke-linecap:butt; stroke-linejoin:round; stroke-width:2; stroke-opacity:1; fill:none" points="
  571.017,1444.78 571.017,106.192 
  "/>
<polyline clip-path="url(#clip592)" style="stroke:#ffffff; stroke-linecap:butt; stroke-linejoin:round; stroke-width:2; stroke-opacity:1; fill:none" points="
  773.487,1444.78 773.487,106.192 
  "/>
<polyline clip-path="url(#clip592)" style="stroke:#ffffff; stroke-linecap:butt; stroke-linejoin:round; stroke-width:2; stroke-opacity:1; fill:none" points="
  975.958,1444.78 975.958,106.192 
  "/>
<polyline clip-path="url(#clip592)" style="stroke:#ffffff; stroke-linecap:butt; stroke-linejoin:round; stroke-width:2; stroke-opacity:1; fill:none" points="
  1178.43,1444.78 1178.43,106.192 
  "/>
<polyline clip-path="url(#clip592)" style="stroke:#ffffff; stroke-linecap:butt; stroke-linejoin:round; stroke-width:2; stroke-opacity:1; fill:none" points="
  1380.9,1444.78 1380.9,106.192 
  "/>
<polyline clip-path="url(#clip592)" style="stroke:#ffffff; stroke-linecap:butt; stroke-linejoin:round; stroke-width:2; stroke-opacity:1; fill:none" points="
  1583.37,1444.78 1583.37,106.192 
  "/>
<polyline clip-path="url(#clip592)" style="stroke:#ffffff; stroke-linecap:butt; stroke-linejoin:round; stroke-width:2; stroke-opacity:1; fill:none" points="
  1785.84,1444.78 1785.84,106.192 
  "/>
<polyline clip-path="url(#clip592)" style="stroke:#ffffff; stroke-linecap:butt; stroke-linejoin:round; stroke-width:2; stroke-opacity:1; fill:none" points="
  1988.31,1444.78 1988.31,106.192 
  "/>
<polyline clip-path="url(#clip592)" style="stroke:#ffffff; stroke-linecap:butt; stroke-linejoin:round; stroke-width:2; stroke-opacity:1; fill:none" points="
  2190.78,1444.78 2190.78,106.192 
  "/>
<polyline clip-path="url(#clip590)" style="stroke:#ffffff; stroke-linecap:butt; stroke-linejoin:round; stroke-width:4; stroke-opacity:1; fill:none" points="
  206.571,1444.78 2352.76,1444.78 
  "/>
<polyline clip-path="url(#clip590)" style="stroke:#333333; stroke-linecap:butt; stroke-linejoin:round; stroke-width:4; stroke-opacity:1; fill:none" points="
  267.312,1444.78 267.312,1463.68 
  "/>
<polyline clip-path="url(#clip590)" style="stroke:#333333; stroke-linecap:butt; stroke-linejoin:round; stroke-width:4; stroke-opacity:1; fill:none" points="
  469.782,1444.78 469.782,1463.68 
  "/>
<polyline clip-path="url(#clip590)" style="stroke:#333333; stroke-linecap:butt; stroke-linejoin:round; stroke-width:4; stroke-opacity:1; fill:none" points="
  672.252,1444.78 672.252,1463.68 
  "/>
<polyline clip-path="url(#clip590)" style="stroke:#333333; stroke-linecap:butt; stroke-linejoin:round; stroke-width:4; stroke-opacity:1; fill:none" points="
  874.723,1444.78 874.723,1463.68 
  "/>
<polyline clip-path="url(#clip590)" style="stroke:#333333; stroke-linecap:butt; stroke-linejoin:round; stroke-width:4; stroke-opacity:1; fill:none" points="
  1077.19,1444.78 1077.19,1463.68 
  "/>
<polyline clip-path="url(#clip590)" style="stroke:#333333; stroke-linecap:butt; stroke-linejoin:round; stroke-width:4; stroke-opacity:1; fill:none" points="
  1279.66,1444.78 1279.66,1463.68 
  "/>
<polyline clip-path="url(#clip590)" style="stroke:#333333; stroke-linecap:butt; stroke-linejoin:round; stroke-width:4; stroke-opacity:1; fill:none" points="
  1482.13,1444.78 1482.13,1463.68 
  "/>
<polyline clip-path="url(#clip590)" style="stroke:#333333; stroke-linecap:butt; stroke-linejoin:round; stroke-width:4; stroke-opacity:1; fill:none" points="
  1684.6,1444.78 1684.6,1463.68 
  "/>
<polyline clip-path="url(#clip590)" style="stroke:#333333; stroke-linecap:butt; stroke-linejoin:round; stroke-width:4; stroke-opacity:1; fill:none" points="
  1887.07,1444.78 1887.07,1463.68 
  "/>
<polyline clip-path="url(#clip590)" style="stroke:#333333; stroke-linecap:butt; stroke-linejoin:round; stroke-width:4; stroke-opacity:1; fill:none" points="
  2089.54,1444.78 2089.54,1463.68 
  "/>
<polyline clip-path="url(#clip590)" style="stroke:#333333; stroke-linecap:butt; stroke-linejoin:round; stroke-width:4; stroke-opacity:1; fill:none" points="
  2292.01,1444.78 2292.01,1463.68 
  "/>
<polyline clip-path="url(#clip590)" style="stroke:#333333; stroke-linecap:butt; stroke-linejoin:round; stroke-width:4; stroke-opacity:1; fill:none" points="
  368.547,1444.78 368.547,1454.23 
  "/>
<polyline clip-path="url(#clip590)" style="stroke:#333333; stroke-linecap:butt; stroke-linejoin:round; stroke-width:4; stroke-opacity:1; fill:none" points="
  571.017,1444.78 571.017,1454.23 
  "/>
<polyline clip-path="url(#clip590)" style="stroke:#333333; stroke-linecap:butt; stroke-linejoin:round; stroke-width:4; stroke-opacity:1; fill:none" points="
  773.487,1444.78 773.487,1454.23 
  "/>
<polyline clip-path="url(#clip590)" style="stroke:#333333; stroke-linecap:butt; stroke-linejoin:round; stroke-width:4; stroke-opacity:1; fill:none" points="
  975.958,1444.78 975.958,1454.23 
  "/>
<polyline clip-path="url(#clip590)" style="stroke:#333333; stroke-linecap:butt; stroke-linejoin:round; stroke-width:4; stroke-opacity:1; fill:none" points="
  1178.43,1444.78 1178.43,1454.23 
  "/>
<polyline clip-path="url(#clip590)" style="stroke:#333333; stroke-linecap:butt; stroke-linejoin:round; stroke-width:4; stroke-opacity:1; fill:none" points="
  1380.9,1444.78 1380.9,1454.23 
  "/>
<polyline clip-path="url(#clip590)" style="stroke:#333333; stroke-linecap:butt; stroke-linejoin:round; stroke-width:4; stroke-opacity:1; fill:none" points="
  1583.37,1444.78 1583.37,1454.23 
  "/>
<polyline clip-path="url(#clip590)" style="stroke:#333333; stroke-linecap:butt; stroke-linejoin:round; stroke-width:4; stroke-opacity:1; fill:none" points="
  1785.84,1444.78 1785.84,1454.23 
  "/>
<polyline clip-path="url(#clip590)" style="stroke:#333333; stroke-linecap:butt; stroke-linejoin:round; stroke-width:4; stroke-opacity:1; fill:none" points="
  1988.31,1444.78 1988.31,1454.23 
  "/>
<polyline clip-path="url(#clip590)" style="stroke:#333333; stroke-linecap:butt; stroke-linejoin:round; stroke-width:4; stroke-opacity:1; fill:none" points="
  2190.78,1444.78 2190.78,1454.23 
  "/>
<path clip-path="url(#clip590)" d="M267.312 1482.37 Q264.603 1482.37 263.232 1485.04 Q261.878 1487.7 261.878 1493.05 Q261.878 1498.38 263.232 1501.05 Q264.603 1503.71 267.312 1503.71 Q270.037 1503.71 271.392 1501.05 Q272.763 1498.38 272.763 1493.05 Q272.763 1487.7 271.392 1485.04 Q270.037 1482.37 267.312 1482.37 M267.312 1479.59 Q271.669 1479.59 273.961 1483.05 Q276.27 1486.48 276.27 1493.05 Q276.27 1499.59 273.961 1503.05 Q271.669 1506.48 267.312 1506.48 Q262.954 1506.48 260.645 1503.05 Q258.353 1499.59 258.353 1493.05 Q258.353 1486.48 260.645 1483.05 Q262.954 1479.59 267.312 1479.59 Z" fill="#4c4c4c" fill-rule="evenodd" fill-opacity="1" /><path clip-path="url(#clip590)" d="M450.798 1503.03 L456.527 1503.03 L456.527 1483.25 L450.294 1484.5 L450.294 1481.31 L456.492 1480.06 L459.999 1480.06 L459.999 1503.03 L465.728 1503.03 L465.728 1505.98 L450.798 1505.98 L450.798 1503.03 Z" fill="#4c4c4c" fill-rule="evenodd" fill-opacity="1" /><path clip-path="url(#clip590)" d="M480.311 1482.37 Q477.603 1482.37 476.232 1485.04 Q474.877 1487.7 474.877 1493.05 Q474.877 1498.38 476.232 1501.05 Q477.603 1503.71 480.311 1503.71 Q483.037 1503.71 484.391 1501.05 Q485.763 1498.38 485.763 1493.05 Q485.763 1487.7 484.391 1485.04 Q483.037 1482.37 480.311 1482.37 M480.311 1479.59 Q484.669 1479.59 486.961 1483.05 Q489.27 1486.48 489.27 1493.05 Q489.27 1499.59 486.961 1503.05 Q484.669 1506.48 480.311 1506.48 Q475.954 1506.48 473.645 1503.05 Q471.353 1499.59 471.353 1493.05 Q471.353 1486.48 473.645 1483.05 Q475.954 1479.59 480.311 1479.59 Z" fill="#4c4c4c" fill-rule="evenodd" fill-opacity="1" /><path clip-path="url(#clip590)" d="M656.332 1503.03 L668.572 1503.03 L668.572 1505.98 L652.114 1505.98 L652.114 1503.03 Q654.11 1500.96 657.548 1497.49 Q661.002 1494 661.888 1492.99 Q663.572 1491.1 664.232 1489.8 Q664.909 1488.48 664.909 1487.21 Q664.909 1485.15 663.45 1483.84 Q662.009 1482.54 659.683 1482.54 Q658.034 1482.54 656.193 1483.12 Q654.37 1483.69 652.287 1484.85 L652.287 1481.31 Q654.405 1480.46 656.245 1480.03 Q658.086 1479.59 659.614 1479.59 Q663.641 1479.59 666.037 1481.6 Q668.433 1483.62 668.433 1486.99 Q668.433 1488.58 667.825 1490.03 Q667.235 1491.45 665.655 1493.39 Q665.221 1493.9 662.895 1496.31 Q660.568 1498.71 656.332 1503.03 Z" fill="#4c4c4c" fill-rule="evenodd" fill-opacity="1" /><path clip-path="url(#clip590)" d="M683.433 1482.37 Q680.725 1482.37 679.353 1485.04 Q677.999 1487.7 677.999 1493.05 Q677.999 1498.38 679.353 1501.05 Q680.725 1503.71 683.433 1503.71 Q686.159 1503.71 687.513 1501.05 Q688.884 1498.38 688.884 1493.05 Q688.884 1487.7 687.513 1485.04 Q686.159 1482.37 683.433 1482.37 M683.433 1479.59 Q687.79 1479.59 690.082 1483.05 Q692.391 1486.48 692.391 1493.05 Q692.391 1499.59 690.082 1503.05 Q687.79 1506.48 683.433 1506.48 Q679.075 1506.48 676.766 1503.05 Q674.475 1499.59 674.475 1493.05 Q674.475 1486.48 676.766 1483.05 Q679.075 1479.59 683.433 1479.59 Z" fill="#4c4c4c" fill-rule="evenodd" fill-opacity="1" /><path clip-path="url(#clip590)" d="M866.355 1492 Q868.872 1492.54 870.278 1494.24 Q871.702 1495.95 871.702 1498.45 Q871.702 1502.28 869.063 1504.38 Q866.424 1506.48 861.563 1506.48 Q859.931 1506.48 858.195 1506.15 Q856.476 1505.84 854.636 1505.2 L854.636 1501.81 Q856.094 1502.66 857.83 1503.1 Q859.566 1503.53 861.459 1503.53 Q864.757 1503.53 866.476 1502.23 Q868.212 1500.93 868.212 1498.45 Q868.212 1496.15 866.598 1494.87 Q865 1493.57 862.136 1493.57 L859.115 1493.57 L859.115 1490.68 L862.275 1490.68 Q864.862 1490.68 866.233 1489.66 Q867.605 1488.62 867.605 1486.67 Q867.605 1484.68 866.181 1483.62 Q864.775 1482.54 862.136 1482.54 Q860.695 1482.54 859.046 1482.85 Q857.396 1483.17 855.417 1483.83 L855.417 1480.7 Q857.414 1480.15 859.15 1479.87 Q860.903 1479.59 862.448 1479.59 Q866.441 1479.59 868.768 1481.41 Q871.094 1483.22 871.094 1486.31 Q871.094 1488.46 869.862 1489.96 Q868.629 1491.43 866.355 1492 Z" fill="#4c4c4c" fill-rule="evenodd" fill-opacity="1" /><path clip-path="url(#clip590)" d="M885.851 1482.37 Q883.143 1482.37 881.771 1485.04 Q880.417 1487.7 880.417 1493.05 Q880.417 1498.38 881.771 1501.05 Q883.143 1503.71 885.851 1503.71 Q888.577 1503.71 889.931 1501.05 Q891.302 1498.38 891.302 1493.05 Q891.302 1487.7 889.931 1485.04 Q888.577 1482.37 885.851 1482.37 M885.851 1479.59 Q890.209 1479.59 892.5 1483.05 Q894.809 1486.48 894.809 1493.05 Q894.809 1499.59 892.5 1503.05 Q890.209 1506.48 885.851 1506.48 Q881.493 1506.48 879.184 1503.05 Q876.893 1499.59 876.893 1493.05 Q876.893 1486.48 879.184 1483.05 Q881.493 1479.59 885.851 1479.59 Z" fill="#4c4c4c" fill-rule="evenodd" fill-opacity="1" /><path clip-path="url(#clip590)" d="M1068.32 1483.12 L1059.47 1496.95 L1068.32 1496.95 L1068.32 1483.12 M1067.4 1480.06 L1071.81 1480.06 L1071.81 1496.95 L1075.51 1496.95 L1075.51 1499.87 L1071.81 1499.87 L1071.81 1505.98 L1068.32 1505.98 L1068.32 1499.87 L1056.62 1499.87 L1056.62 1496.48 L1067.4 1480.06 Z" fill="#4c4c4c" fill-rule="evenodd" fill-opacity="1" /><path clip-path="url(#clip590)" d="M1088.81 1482.37 Q1086.1 1482.37 1084.73 1485.04 Q1083.37 1487.7 1083.37 1493.05 Q1083.37 1498.38 1084.73 1501.05 Q1086.1 1503.71 1088.81 1503.71 Q1091.53 1503.71 1092.89 1501.05 Q1094.26 1498.38 1094.26 1493.05 Q1094.26 1487.7 1092.89 1485.04 Q1091.53 1482.37 1088.81 1482.37 M1088.81 1479.59 Q1093.17 1479.59 1095.46 1483.05 Q1097.77 1486.48 1097.77 1493.05 Q1097.77 1499.59 1095.46 1503.05 Q1093.17 1506.48 1088.81 1506.48 Q1084.45 1506.48 1082.14 1503.05 Q1079.85 1499.59 1079.85 1493.05 Q1079.85 1486.48 1082.14 1483.05 Q1084.45 1479.59 1088.81 1479.59 Z" fill="#4c4c4c" fill-rule="evenodd" fill-opacity="1" /><path clip-path="url(#clip590)" d="M1260.69 1480.06 L1274.45 1480.06 L1274.45 1483.01 L1263.9 1483.01 L1263.9 1489.37 Q1264.66 1489.1 1265.43 1488.98 Q1266.19 1488.84 1266.95 1488.84 Q1271.3 1488.84 1273.83 1491.22 Q1276.36 1493.6 1276.36 1497.66 Q1276.36 1501.85 1273.76 1504.17 Q1271.16 1506.48 1266.42 1506.48 Q1264.78 1506.48 1263.08 1506.21 Q1261.4 1505.93 1259.59 1505.37 L1259.59 1501.85 Q1261.16 1502.7 1262.82 1503.12 Q1264.49 1503.53 1266.35 1503.53 Q1269.35 1503.53 1271.1 1501.95 Q1272.86 1500.37 1272.86 1497.66 Q1272.86 1494.96 1271.1 1493.38 Q1269.35 1491.8 1266.35 1491.8 Q1264.94 1491.8 1263.53 1492.11 Q1262.15 1492.42 1260.69 1493.08 L1260.69 1480.06 Z" fill="#4c4c4c" fill-rule="evenodd" fill-opacity="1" /><path clip-path="url(#clip590)" d="M1290.77 1482.37 Q1288.07 1482.37 1286.69 1485.04 Q1285.34 1487.7 1285.34 1493.05 Q1285.34 1498.38 1286.69 1501.05 Q1288.07 1503.71 1290.77 1503.71 Q1293.5 1503.71 1294.85 1501.05 Q1296.23 1498.38 1296.23 1493.05 Q1296.23 1487.7 1294.85 1485.04 Q1293.5 1482.37 1290.77 1482.37 M1290.77 1479.59 Q1295.13 1479.59 1297.42 1483.05 Q1299.73 1486.48 1299.73 1493.05 Q1299.73 1499.59 1297.42 1503.05 Q1295.13 1506.48 1290.77 1506.48 Q1286.42 1506.48 1284.11 1503.05 Q1281.82 1499.59 1281.82 1493.05 Q1281.82 1486.48 1284.11 1483.05 Q1286.42 1479.59 1290.77 1479.59 Z" fill="#4c4c4c" fill-rule="evenodd" fill-opacity="1" /><path clip-path="url(#clip590)" d="M1471.19 1491.62 Q1468.83 1491.62 1467.44 1493.24 Q1466.07 1494.85 1466.07 1497.66 Q1466.07 1500.46 1467.44 1502.09 Q1468.83 1503.71 1471.19 1503.71 Q1473.55 1503.71 1474.92 1502.09 Q1476.31 1500.46 1476.31 1497.66 Q1476.31 1494.85 1474.92 1493.24 Q1473.55 1491.62 1471.19 1491.62 M1478.15 1480.63 L1478.15 1483.83 Q1476.83 1483.2 1475.48 1482.87 Q1474.14 1482.54 1472.82 1482.54 Q1469.35 1482.54 1467.51 1484.89 Q1465.68 1487.23 1465.42 1491.97 Q1466.45 1490.46 1467.99 1489.66 Q1469.54 1488.84 1471.4 1488.84 Q1475.3 1488.84 1477.56 1491.22 Q1479.83 1493.58 1479.83 1497.66 Q1479.83 1501.66 1477.47 1504.07 Q1475.11 1506.48 1471.19 1506.48 Q1466.69 1506.48 1464.31 1503.05 Q1461.93 1499.59 1461.93 1493.05 Q1461.93 1486.9 1464.85 1483.25 Q1467.77 1479.59 1472.68 1479.59 Q1474 1479.59 1475.34 1479.85 Q1476.69 1480.11 1478.15 1480.63 Z" fill="#4c4c4c" fill-rule="evenodd" fill-opacity="1" /><path clip-path="url(#clip590)" d="M1493.37 1482.37 Q1490.67 1482.37 1489.29 1485.04 Q1487.94 1487.7 1487.94 1493.05 Q1487.94 1498.38 1489.29 1501.05 Q1490.67 1503.71 1493.37 1503.71 Q1496.1 1503.71 1497.45 1501.05 Q1498.83 1498.38 1498.83 1493.05 Q1498.83 1487.7 1497.45 1485.04 Q1496.1 1482.37 1493.37 1482.37 M1493.37 1479.59 Q1497.73 1479.59 1500.02 1483.05 Q1502.33 1486.48 1502.33 1493.05 Q1502.33 1499.59 1500.02 1503.05 Q1497.73 1506.48 1493.37 1506.48 Q1489.02 1506.48 1486.71 1503.05 Q1484.42 1499.59 1484.42 1493.05 Q1484.42 1486.48 1486.71 1483.05 Q1489.02 1479.59 1493.37 1479.59 Z" fill="#4c4c4c" fill-rule="evenodd" fill-opacity="1" /><path clip-path="url(#clip590)" d="M1664.62 1480.06 L1681.29 1480.06 L1681.29 1481.55 L1671.88 1505.98 L1668.22 1505.98 L1677.07 1483.01 L1664.62 1483.01 L1664.62 1480.06 Z" fill="#4c4c4c" fill-rule="evenodd" fill-opacity="1" /><path clip-path="url(#clip590)" d="M1695.63 1482.37 Q1692.92 1482.37 1691.55 1485.04 Q1690.19 1487.7 1690.19 1493.05 Q1690.19 1498.38 1691.55 1501.05 Q1692.92 1503.71 1695.63 1503.71 Q1698.35 1503.71 1699.71 1501.05 Q1701.08 1498.38 1701.08 1493.05 Q1701.08 1487.7 1699.71 1485.04 Q1698.35 1482.37 1695.63 1482.37 M1695.63 1479.59 Q1699.99 1479.59 1702.28 1483.05 Q1704.59 1486.48 1704.59 1493.05 Q1704.59 1499.59 1702.28 1503.05 Q1699.99 1506.48 1695.63 1506.48 Q1691.27 1506.48 1688.96 1503.05 Q1686.67 1499.59 1686.67 1493.05 Q1686.67 1486.48 1688.96 1483.05 Q1691.27 1479.59 1695.63 1479.59 Z" fill="#4c4c4c" fill-rule="evenodd" fill-opacity="1" /><path clip-path="url(#clip590)" d="M1875.73 1493.67 Q1873.23 1493.67 1871.79 1495.01 Q1870.36 1496.34 1870.36 1498.69 Q1870.36 1501.03 1871.79 1502.37 Q1873.23 1503.71 1875.73 1503.71 Q1878.23 1503.71 1879.67 1502.37 Q1881.11 1501.01 1881.11 1498.69 Q1881.11 1496.34 1879.67 1495.01 Q1878.25 1493.67 1875.73 1493.67 M1872.22 1492.18 Q1869.96 1491.62 1868.7 1490.08 Q1867.45 1488.53 1867.45 1486.31 Q1867.45 1483.2 1869.65 1481.4 Q1871.87 1479.59 1875.73 1479.59 Q1879.6 1479.59 1881.81 1481.4 Q1884.01 1483.2 1884.01 1486.31 Q1884.01 1488.53 1882.74 1490.08 Q1881.49 1491.62 1879.25 1492.18 Q1881.79 1492.77 1883.19 1494.49 Q1884.62 1496.21 1884.62 1498.69 Q1884.62 1502.46 1882.31 1504.47 Q1880.02 1506.48 1875.73 1506.48 Q1871.44 1506.48 1869.13 1504.47 Q1866.84 1502.46 1866.84 1498.69 Q1866.84 1496.21 1868.26 1494.49 Q1869.69 1492.77 1872.22 1492.18 M1870.94 1486.64 Q1870.94 1488.65 1872.19 1489.78 Q1873.45 1490.91 1875.73 1490.91 Q1877.99 1490.91 1879.25 1489.78 Q1880.54 1488.65 1880.54 1486.64 Q1880.54 1484.63 1879.25 1483.5 Q1877.99 1482.37 1875.73 1482.37 Q1873.45 1482.37 1872.19 1483.5 Q1870.94 1484.63 1870.94 1486.64 Z" fill="#4c4c4c" fill-rule="evenodd" fill-opacity="1" /><path clip-path="url(#clip590)" d="M1898.35 1482.37 Q1895.64 1482.37 1894.27 1485.04 Q1892.92 1487.7 1892.92 1493.05 Q1892.92 1498.38 1894.27 1501.05 Q1895.64 1503.71 1898.35 1503.71 Q1901.08 1503.71 1902.43 1501.05 Q1903.8 1498.38 1903.8 1493.05 Q1903.8 1487.7 1902.43 1485.04 Q1901.08 1482.37 1898.35 1482.37 M1898.35 1479.59 Q1902.71 1479.59 1905 1483.05 Q1907.31 1486.48 1907.31 1493.05 Q1907.31 1499.59 1905 1503.05 Q1902.71 1506.48 1898.35 1506.48 Q1893.99 1506.48 1891.68 1503.05 Q1889.39 1499.59 1889.39 1493.05 Q1889.39 1486.48 1891.68 1483.05 Q1893.99 1479.59 1898.35 1479.59 Z" fill="#4c4c4c" fill-rule="evenodd" fill-opacity="1" /><path clip-path="url(#clip590)" d="M2070.89 1505.44 L2070.89 1502.25 Q2072.21 1502.87 2073.56 1503.2 Q2074.92 1503.53 2076.22 1503.53 Q2079.69 1503.53 2081.52 1501.21 Q2083.36 1498.86 2083.62 1494.1 Q2082.61 1495.6 2081.06 1496.4 Q2079.52 1497.2 2077.64 1497.2 Q2073.75 1497.2 2071.48 1494.85 Q2069.22 1492.49 2069.22 1488.41 Q2069.22 1484.42 2071.58 1482 Q2073.95 1479.59 2077.87 1479.59 Q2082.37 1479.59 2084.73 1483.05 Q2087.11 1486.48 2087.11 1493.05 Q2087.11 1499.17 2084.19 1502.84 Q2081.29 1506.48 2076.38 1506.48 Q2075.06 1506.48 2073.7 1506.22 Q2072.35 1505.96 2070.89 1505.44 M2077.87 1494.45 Q2080.23 1494.45 2081.6 1492.84 Q2082.99 1491.22 2082.99 1488.41 Q2082.99 1485.62 2081.6 1484 Q2080.23 1482.37 2077.87 1482.37 Q2075.51 1482.37 2074.12 1484 Q2072.75 1485.62 2072.75 1488.41 Q2072.75 1491.22 2074.12 1492.84 Q2075.51 1494.45 2077.87 1494.45 Z" fill="#4c4c4c" fill-rule="evenodd" fill-opacity="1" /><path clip-path="url(#clip590)" d="M2100.91 1482.37 Q2098.2 1482.37 2096.83 1485.04 Q2095.47 1487.7 2095.47 1493.05 Q2095.47 1498.38 2096.83 1501.05 Q2098.2 1503.71 2100.91 1503.71 Q2103.63 1503.71 2104.99 1501.05 Q2106.36 1498.38 2106.36 1493.05 Q2106.36 1487.7 2104.99 1485.04 Q2103.63 1482.37 2100.91 1482.37 M2100.91 1479.59 Q2105.26 1479.59 2107.56 1483.05 Q2109.87 1486.48 2109.87 1493.05 Q2109.87 1499.59 2107.56 1503.05 Q2105.26 1506.48 2100.91 1506.48 Q2096.55 1506.48 2094.24 1503.05 Q2091.95 1499.59 2091.95 1493.05 Q2091.95 1486.48 2094.24 1483.05 Q2096.55 1479.59 2100.91 1479.59 Z" fill="#4c4c4c" fill-rule="evenodd" fill-opacity="1" /><path clip-path="url(#clip590)" d="M2261.72 1503.03 L2267.45 1503.03 L2267.45 1483.25 L2261.22 1484.5 L2261.22 1481.31 L2267.41 1480.06 L2270.92 1480.06 L2270.92 1503.03 L2276.65 1503.03 L2276.65 1505.98 L2261.72 1505.98 L2261.72 1503.03 Z" fill="#4c4c4c" fill-rule="evenodd" fill-opacity="1" /><path clip-path="url(#clip590)" d="M2291.23 1482.37 Q2288.53 1482.37 2287.15 1485.04 Q2285.8 1487.7 2285.8 1493.05 Q2285.8 1498.38 2287.15 1501.05 Q2288.53 1503.71 2291.23 1503.71 Q2293.96 1503.71 2295.31 1501.05 Q2296.68 1498.38 2296.68 1493.05 Q2296.68 1487.7 2295.31 1485.04 Q2293.96 1482.37 2291.23 1482.37 M2291.23 1479.59 Q2295.59 1479.59 2297.88 1483.05 Q2300.19 1486.48 2300.19 1493.05 Q2300.19 1499.59 2297.88 1503.05 Q2295.59 1506.48 2291.23 1506.48 Q2286.88 1506.48 2284.57 1503.05 Q2282.28 1499.59 2282.28 1493.05 Q2282.28 1486.48 2284.57 1483.05 Q2286.88 1479.59 2291.23 1479.59 Z" fill="#4c4c4c" fill-rule="evenodd" fill-opacity="1" /><path clip-path="url(#clip590)" d="M2313.85 1482.37 Q2311.15 1482.37 2309.78 1485.04 Q2308.42 1487.7 2308.42 1493.05 Q2308.42 1498.38 2309.78 1501.05 Q2311.15 1503.71 2313.85 1503.71 Q2316.58 1503.71 2317.93 1501.05 Q2319.31 1498.38 2319.31 1493.05 Q2319.31 1487.7 2317.93 1485.04 Q2316.58 1482.37 2313.85 1482.37 M2313.85 1479.59 Q2318.21 1479.59 2320.5 1483.05 Q2322.81 1486.48 2322.81 1493.05 Q2322.81 1499.59 2320.5 1503.05 Q2318.21 1506.48 2313.85 1506.48 Q2309.5 1506.48 2307.19 1503.05 Q2304.9 1499.59 2304.9 1493.05 Q2304.9 1486.48 2307.19 1483.05 Q2309.5 1479.59 2313.85 1479.59 Z" fill="#4c4c4c" fill-rule="evenodd" fill-opacity="1" /><path clip-path="url(#clip590)" d="M1170.25 1526.57 L1174.93 1526.57 L1174.93 1561.13 L1170.25 1561.13 L1170.25 1526.57 Z" fill="#000000" fill-rule="evenodd" fill-opacity="1" /><path clip-path="url(#clip590)" d="M1188.26 1527.84 L1188.26 1535.21 L1197.04 1535.21 L1197.04 1538.52 L1188.26 1538.52 L1188.26 1552.59 Q1188.26 1555.76 1189.12 1556.66 Q1190 1557.57 1192.66 1557.57 L1197.04 1557.57 L1197.04 1561.13 L1192.66 1561.13 Q1187.73 1561.13 1185.86 1559.3 Q1183.98 1557.45 1183.98 1552.59 L1183.98 1538.52 L1180.86 1538.52 L1180.86 1535.21 L1183.98 1535.21 L1183.98 1527.84 L1188.26 1527.84 Z" fill="#000000" fill-rule="evenodd" fill-opacity="1" /><path clip-path="url(#clip590)" d="M1224.81 1547.1 L1224.81 1549.19 L1205.23 1549.19 Q1205.51 1553.59 1207.87 1555.9 Q1210.25 1558.19 1214.49 1558.19 Q1216.94 1558.19 1219.24 1557.59 Q1221.55 1556.99 1223.82 1555.78 L1223.82 1559.81 Q1221.53 1560.78 1219.12 1561.29 Q1216.71 1561.8 1214.24 1561.8 Q1208.03 1561.8 1204.4 1558.19 Q1200.79 1554.58 1200.79 1548.42 Q1200.79 1542.06 1204.21 1538.33 Q1207.66 1534.58 1213.49 1534.58 Q1218.73 1534.58 1221.76 1537.96 Q1224.81 1541.32 1224.81 1547.1 M1220.55 1545.85 Q1220.51 1542.36 1218.59 1540.28 Q1216.69 1538.19 1213.54 1538.19 Q1209.98 1538.19 1207.82 1540.21 Q1205.69 1542.22 1205.37 1545.88 L1220.55 1545.85 Z" fill="#000000" fill-rule="evenodd" fill-opacity="1" /><path clip-path="url(#clip590)" d="M1246.83 1539.19 Q1246.11 1538.77 1245.25 1538.59 Q1244.42 1538.38 1243.4 1538.38 Q1239.79 1538.38 1237.85 1540.74 Q1235.93 1543.08 1235.93 1547.47 L1235.93 1561.13 L1231.64 1561.13 L1231.64 1535.21 L1235.93 1535.21 L1235.93 1539.23 Q1237.27 1536.87 1239.42 1535.74 Q1241.57 1534.58 1244.65 1534.58 Q1245.09 1534.58 1245.62 1534.65 Q1246.16 1534.7 1246.8 1534.81 L1246.83 1539.19 Z" fill="#000000" fill-rule="evenodd" fill-opacity="1" /><path clip-path="url(#clip590)" d="M1263.08 1548.1 Q1257.92 1548.1 1255.92 1549.28 Q1253.93 1550.46 1253.93 1553.31 Q1253.93 1555.58 1255.42 1556.92 Q1256.92 1558.24 1259.49 1558.24 Q1263.03 1558.24 1265.16 1555.74 Q1267.31 1553.22 1267.31 1549.05 L1267.31 1548.1 L1263.08 1548.1 M1271.57 1546.34 L1271.57 1561.13 L1267.31 1561.13 L1267.31 1557.2 Q1265.86 1559.56 1263.68 1560.69 Q1261.5 1561.8 1258.36 1561.8 Q1254.37 1561.8 1252.01 1559.58 Q1249.67 1557.34 1249.67 1553.59 Q1249.67 1549.21 1252.59 1546.99 Q1255.53 1544.77 1261.34 1544.77 L1267.31 1544.77 L1267.31 1544.35 Q1267.31 1541.41 1265.37 1539.81 Q1263.45 1538.19 1259.95 1538.19 Q1257.73 1538.19 1255.62 1538.72 Q1253.52 1539.26 1251.57 1540.32 L1251.57 1536.39 Q1253.91 1535.48 1256.11 1535.04 Q1258.31 1534.58 1260.39 1534.58 Q1266.02 1534.58 1268.8 1537.5 Q1271.57 1540.41 1271.57 1546.34 Z" fill="#000000" fill-rule="evenodd" fill-opacity="1" /><path clip-path="url(#clip590)" d="M1284.56 1527.84 L1284.56 1535.21 L1293.33 1535.21 L1293.33 1538.52 L1284.56 1538.52 L1284.56 1552.59 Q1284.56 1555.76 1285.42 1556.66 Q1286.3 1557.57 1288.96 1557.57 L1293.33 1557.57 L1293.33 1561.13 L1288.96 1561.13 Q1284.03 1561.13 1282.15 1559.3 Q1280.28 1557.45 1280.28 1552.59 L1280.28 1538.52 L1277.15 1538.52 L1277.15 1535.21 L1280.28 1535.21 L1280.28 1527.84 L1284.56 1527.84 Z" fill="#000000" fill-rule="evenodd" fill-opacity="1" /><path clip-path="url(#clip590)" d="M1298.93 1535.21 L1303.19 1535.21 L1303.19 1561.13 L1298.93 1561.13 L1298.93 1535.21 M1298.93 1525.11 L1303.19 1525.11 L1303.19 1530.51 L1298.93 1530.51 L1298.93 1525.11 Z" fill="#000000" fill-rule="evenodd" fill-opacity="1" /><path clip-path="url(#clip590)" d="M1322.15 1538.19 Q1318.73 1538.19 1316.73 1540.88 Q1314.74 1543.54 1314.74 1548.19 Q1314.74 1552.84 1316.71 1555.53 Q1318.7 1558.19 1322.15 1558.19 Q1325.55 1558.19 1327.54 1555.51 Q1329.54 1552.82 1329.54 1548.19 Q1329.54 1543.59 1327.54 1540.9 Q1325.55 1538.19 1322.15 1538.19 M1322.15 1534.58 Q1327.71 1534.58 1330.88 1538.19 Q1334.05 1541.8 1334.05 1548.19 Q1334.05 1554.56 1330.88 1558.19 Q1327.71 1561.8 1322.15 1561.8 Q1316.57 1561.8 1313.4 1558.19 Q1310.25 1554.56 1310.25 1548.19 Q1310.25 1541.8 1313.4 1538.19 Q1316.57 1534.58 1322.15 1534.58 Z" fill="#000000" fill-rule="evenodd" fill-opacity="1" /><path clip-path="url(#clip590)" d="M1362.66 1545.48 L1362.66 1561.13 L1358.4 1561.13 L1358.4 1545.62 Q1358.4 1541.94 1356.97 1540.11 Q1355.53 1538.28 1352.66 1538.28 Q1349.21 1538.28 1347.22 1540.48 Q1345.23 1542.68 1345.23 1546.48 L1345.23 1561.13 L1340.95 1561.13 L1340.95 1535.21 L1345.23 1535.21 L1345.23 1539.23 Q1346.76 1536.9 1348.82 1535.74 Q1350.9 1534.58 1353.61 1534.58 Q1358.08 1534.58 1360.37 1537.36 Q1362.66 1540.11 1362.66 1545.48 Z" fill="#000000" fill-rule="evenodd" fill-opacity="1" /><path clip-path="url(#clip590)" d="M1387.68 1535.97 L1387.68 1540 Q1385.88 1539.07 1383.93 1538.61 Q1381.99 1538.15 1379.91 1538.15 Q1376.73 1538.15 1375.14 1539.12 Q1373.56 1540.09 1373.56 1542.03 Q1373.56 1543.52 1374.7 1544.37 Q1375.83 1545.21 1379.26 1545.97 L1380.72 1546.29 Q1385.25 1547.27 1387.15 1549.05 Q1389.07 1550.81 1389.07 1553.98 Q1389.07 1557.59 1386.2 1559.7 Q1383.35 1561.8 1378.35 1561.8 Q1376.27 1561.8 1374 1561.39 Q1371.76 1560.99 1369.26 1560.18 L1369.26 1555.78 Q1371.62 1557.01 1373.91 1557.64 Q1376.2 1558.24 1378.45 1558.24 Q1381.46 1558.24 1383.08 1557.22 Q1384.7 1556.18 1384.7 1554.3 Q1384.7 1552.57 1383.52 1551.64 Q1382.36 1550.72 1378.4 1549.86 L1376.92 1549.51 Q1372.96 1548.68 1371.2 1546.97 Q1369.44 1545.23 1369.44 1542.22 Q1369.44 1538.56 1372.04 1536.57 Q1374.63 1534.58 1379.4 1534.58 Q1381.76 1534.58 1383.84 1534.93 Q1385.92 1535.28 1387.68 1535.97 Z" fill="#000000" fill-rule="evenodd" fill-opacity="1" /><polyline clip-path="url(#clip592)" style="stroke:#ffffff; stroke-linecap:butt; stroke-linejoin:round; stroke-width:4; stroke-opacity:1; fill:none" points="
  206.571,1405.15 2352.76,1405.15 
  "/>
<polyline clip-path="url(#clip592)" style="stroke:#ffffff; stroke-linecap:butt; stroke-linejoin:round; stroke-width:4; stroke-opacity:1; fill:none" points="
  206.571,1055.76 2352.76,1055.76 
  "/>
<polyline clip-path="url(#clip592)" style="stroke:#ffffff; stroke-linecap:butt; stroke-linejoin:round; stroke-width:4; stroke-opacity:1; fill:none" points="
  206.571,706.367 2352.76,706.367 
  "/>
<polyline clip-path="url(#clip592)" style="stroke:#ffffff; stroke-linecap:butt; stroke-linejoin:round; stroke-width:4; stroke-opacity:1; fill:none" points="
  206.571,356.976 2352.76,356.976 
  "/>
<polyline clip-path="url(#clip592)" style="stroke:#ffffff; stroke-linecap:butt; stroke-linejoin:round; stroke-width:2; stroke-opacity:1; fill:none" points="
  206.571,1230.45 2352.76,1230.45 
  "/>
<polyline clip-path="url(#clip592)" style="stroke:#ffffff; stroke-linecap:butt; stroke-linejoin:round; stroke-width:2; stroke-opacity:1; fill:none" points="
  206.571,881.062 2352.76,881.062 
  "/>
<polyline clip-path="url(#clip592)" style="stroke:#ffffff; stroke-linecap:butt; stroke-linejoin:round; stroke-width:2; stroke-opacity:1; fill:none" points="
  206.571,531.671 2352.76,531.671 
  "/>
<polyline clip-path="url(#clip592)" style="stroke:#ffffff; stroke-linecap:butt; stroke-linejoin:round; stroke-width:2; stroke-opacity:1; fill:none" points="
  206.571,182.28 2352.76,182.28 
  "/>
<polyline clip-path="url(#clip590)" style="stroke:#ffffff; stroke-linecap:butt; stroke-linejoin:round; stroke-width:4; stroke-opacity:1; fill:none" points="
  206.571,1444.78 206.571,106.192 
  "/>
<polyline clip-path="url(#clip590)" style="stroke:#333333; stroke-linecap:butt; stroke-linejoin:round; stroke-width:4; stroke-opacity:1; fill:none" points="
  206.571,1405.15 187.673,1405.15 
  "/>
<polyline clip-path="url(#clip590)" style="stroke:#333333; stroke-linecap:butt; stroke-linejoin:round; stroke-width:4; stroke-opacity:1; fill:none" points="
  206.571,1055.76 187.673,1055.76 
  "/>
<polyline clip-path="url(#clip590)" style="stroke:#333333; stroke-linecap:butt; stroke-linejoin:round; stroke-width:4; stroke-opacity:1; fill:none" points="
  206.571,706.367 187.673,706.367 
  "/>
<polyline clip-path="url(#clip590)" style="stroke:#333333; stroke-linecap:butt; stroke-linejoin:round; stroke-width:4; stroke-opacity:1; fill:none" points="
  206.571,356.976 187.673,356.976 
  "/>
<polyline clip-path="url(#clip590)" style="stroke:#333333; stroke-linecap:butt; stroke-linejoin:round; stroke-width:4; stroke-opacity:1; fill:none" points="
  206.571,1230.45 197.122,1230.45 
  "/>
<polyline clip-path="url(#clip590)" style="stroke:#333333; stroke-linecap:butt; stroke-linejoin:round; stroke-width:4; stroke-opacity:1; fill:none" points="
  206.571,881.062 197.122,881.062 
  "/>
<polyline clip-path="url(#clip590)" style="stroke:#333333; stroke-linecap:butt; stroke-linejoin:round; stroke-width:4; stroke-opacity:1; fill:none" points="
  206.571,531.671 197.122,531.671 
  "/>
<polyline clip-path="url(#clip590)" style="stroke:#333333; stroke-linecap:butt; stroke-linejoin:round; stroke-width:4; stroke-opacity:1; fill:none" points="
  206.571,182.28 197.122,182.28 
  "/>
<path clip-path="url(#clip590)" d="M83.7342 1405.49 L105.991 1405.49 L105.991 1408.44 L83.7342 1408.44 L83.7342 1405.49 Z" fill="#4c4c4c" fill-rule="evenodd" fill-opacity="1" /><path clip-path="url(#clip590)" d="M113.595 1392.19 L127.362 1392.19 L127.362 1395.14 L116.807 1395.14 L116.807 1401.49 Q117.571 1401.23 118.335 1401.11 Q119.099 1400.97 119.862 1400.97 Q124.203 1400.97 126.737 1403.35 Q129.272 1405.73 129.272 1409.79 Q129.272 1413.98 126.668 1416.3 Q124.064 1418.61 119.324 1418.61 Q117.692 1418.61 115.991 1418.33 Q114.307 1418.06 112.501 1417.5 L112.501 1413.98 Q114.064 1414.83 115.731 1415.24 Q117.397 1415.66 119.255 1415.66 Q122.258 1415.66 124.012 1414.08 Q125.765 1412.5 125.765 1409.79 Q125.765 1407.08 124.012 1405.5 Q122.258 1403.92 119.255 1403.92 Q117.849 1403.92 116.442 1404.24 Q115.053 1404.55 113.595 1405.21 L113.595 1392.19 Z" fill="#4c4c4c" fill-rule="evenodd" fill-opacity="1" /><path clip-path="url(#clip590)" d="M143.682 1405.8 Q141.182 1405.8 139.741 1407.14 Q138.317 1408.47 138.317 1410.82 Q138.317 1413.16 139.741 1414.5 Q141.182 1415.83 143.682 1415.83 Q146.182 1415.83 147.623 1414.5 Q149.064 1413.14 149.064 1410.82 Q149.064 1408.47 147.623 1407.14 Q146.199 1405.8 143.682 1405.8 M140.175 1404.31 Q137.918 1403.75 136.651 1402.21 Q135.401 1400.66 135.401 1398.44 Q135.401 1395.33 137.605 1393.53 Q139.828 1391.72 143.682 1391.72 Q147.553 1391.72 149.758 1393.53 Q151.963 1395.33 151.963 1398.44 Q151.963 1400.66 150.696 1402.21 Q149.446 1403.75 147.206 1404.31 Q149.741 1404.9 151.147 1406.62 Q152.571 1408.33 152.571 1410.82 Q152.571 1414.58 150.262 1416.6 Q147.97 1418.61 143.682 1418.61 Q139.394 1418.61 137.085 1416.6 Q134.793 1414.58 134.793 1410.82 Q134.793 1408.33 136.217 1406.62 Q137.64 1404.9 140.175 1404.31 M138.89 1398.77 Q138.89 1400.78 140.14 1401.91 Q141.407 1403.04 143.682 1403.04 Q145.939 1403.04 147.206 1401.91 Q148.491 1400.78 148.491 1398.77 Q148.491 1396.75 147.206 1395.63 Q145.939 1394.5 143.682 1394.5 Q141.407 1394.5 140.14 1395.63 Q138.89 1396.75 138.89 1398.77 Z" fill="#4c4c4c" fill-rule="evenodd" fill-opacity="1" /><path clip-path="url(#clip590)" d="M83.5432 1056.1 L105.8 1056.1 L105.8 1059.05 L83.5432 1059.05 L83.5432 1056.1 Z" fill="#4c4c4c" fill-rule="evenodd" fill-opacity="1" /><path clip-path="url(#clip590)" d="M113.404 1042.8 L127.171 1042.8 L127.171 1045.75 L116.616 1045.75 L116.616 1052.1 Q117.38 1051.84 118.144 1051.72 Q118.908 1051.58 119.671 1051.58 Q124.012 1051.58 126.546 1053.96 Q129.081 1056.34 129.081 1060.4 Q129.081 1064.59 126.477 1066.91 Q123.873 1069.22 119.133 1069.22 Q117.501 1069.22 115.8 1068.94 Q114.116 1068.67 112.31 1068.11 L112.31 1064.59 Q113.873 1065.44 115.54 1065.85 Q117.206 1066.27 119.064 1066.27 Q122.067 1066.27 123.821 1064.69 Q125.574 1063.11 125.574 1060.4 Q125.574 1057.69 123.821 1056.11 Q122.067 1054.53 119.064 1054.53 Q117.658 1054.53 116.251 1054.85 Q114.862 1055.16 113.404 1055.82 L113.404 1042.8 Z" fill="#4c4c4c" fill-rule="evenodd" fill-opacity="1" /><path clip-path="url(#clip590)" d="M143.925 1054.36 Q141.564 1054.36 140.175 1055.97 Q138.803 1057.59 138.803 1060.4 Q138.803 1063.2 140.175 1064.83 Q141.564 1066.44 143.925 1066.44 Q146.286 1066.44 147.657 1064.83 Q149.046 1063.2 149.046 1060.4 Q149.046 1057.59 147.657 1055.97 Q146.286 1054.36 143.925 1054.36 M150.887 1043.37 L150.887 1046.56 Q149.567 1045.94 148.213 1045.61 Q146.876 1045.28 145.557 1045.28 Q142.085 1045.28 140.244 1047.62 Q138.421 1049.97 138.161 1054.71 Q139.185 1053.2 140.73 1052.4 Q142.276 1051.58 144.133 1051.58 Q148.039 1051.58 150.296 1053.96 Q152.571 1056.32 152.571 1060.4 Q152.571 1064.39 150.21 1066.81 Q147.848 1069.22 143.925 1069.22 Q139.428 1069.22 137.05 1065.78 Q134.671 1062.33 134.671 1055.78 Q134.671 1049.64 137.588 1045.99 Q140.505 1042.33 145.418 1042.33 Q146.737 1042.33 148.074 1042.59 Q149.428 1042.85 150.887 1043.37 Z" fill="#4c4c4c" fill-rule="evenodd" fill-opacity="1" /><path clip-path="url(#clip590)" d="M83.3002 706.705 L105.557 706.705 L105.557 709.656 L83.3002 709.656 L83.3002 706.705 Z" fill="#4c4c4c" fill-rule="evenodd" fill-opacity="1" /><path clip-path="url(#clip590)" d="M113.161 693.407 L126.928 693.407 L126.928 696.358 L116.373 696.358 L116.373 702.712 Q117.137 702.452 117.901 702.33 Q118.665 702.191 119.428 702.191 Q123.769 702.191 126.303 704.57 Q128.838 706.948 128.838 711.011 Q128.838 715.195 126.234 717.521 Q123.63 719.83 118.89 719.83 Q117.258 719.83 115.557 719.552 Q113.873 719.274 112.067 718.719 L112.067 715.195 Q113.63 716.045 115.297 716.462 Q116.963 716.879 118.821 716.879 Q121.824 716.879 123.578 715.299 Q125.331 713.719 125.331 711.011 Q125.331 708.302 123.578 706.722 Q121.824 705.143 118.821 705.143 Q117.415 705.143 116.008 705.455 Q114.619 705.768 113.161 706.427 L113.161 693.407 Z" fill="#4c4c4c" fill-rule="evenodd" fill-opacity="1" /><path clip-path="url(#clip590)" d="M145.383 696.462 L136.529 710.299 L145.383 710.299 L145.383 696.462 M144.463 693.407 L148.873 693.407 L148.873 710.299 L152.571 710.299 L152.571 713.215 L148.873 713.215 L148.873 719.327 L145.383 719.327 L145.383 713.215 L133.682 713.215 L133.682 709.83 L144.463 693.407 Z" fill="#4c4c4c" fill-rule="evenodd" fill-opacity="1" /><path clip-path="url(#clip590)" d="M84.8626 357.314 L107.119 357.314 L107.119 360.266 L84.8626 360.266 L84.8626 357.314 Z" fill="#4c4c4c" fill-rule="evenodd" fill-opacity="1" /><path clip-path="url(#clip590)" d="M114.724 344.016 L128.491 344.016 L128.491 346.967 L117.935 346.967 L117.935 353.321 Q118.699 353.061 119.463 352.939 Q120.227 352.8 120.991 352.8 Q125.331 352.8 127.866 355.179 Q130.401 357.557 130.401 361.62 Q130.401 365.804 127.796 368.13 Q125.192 370.439 120.453 370.439 Q118.821 370.439 117.119 370.161 Q115.435 369.884 113.63 369.328 L113.63 365.804 Q115.192 366.654 116.859 367.071 Q118.526 367.488 120.383 367.488 Q123.387 367.488 125.14 365.908 Q126.894 364.328 126.894 361.62 Q126.894 358.911 125.14 357.332 Q123.387 355.752 120.383 355.752 Q118.977 355.752 117.571 356.064 Q116.182 356.377 114.724 357.036 L114.724 344.016 Z" fill="#4c4c4c" fill-rule="evenodd" fill-opacity="1" /><path clip-path="url(#clip590)" d="M140.331 366.984 L152.571 366.984 L152.571 369.936 L136.112 369.936 L136.112 366.984 Q138.109 364.918 141.546 361.446 Q145.001 357.957 145.887 356.95 Q147.571 355.057 148.23 353.755 Q148.907 352.436 148.907 351.168 Q148.907 349.102 147.449 347.8 Q146.008 346.498 143.682 346.498 Q142.032 346.498 140.192 347.071 Q138.369 347.644 136.286 348.807 L136.286 345.266 Q138.404 344.415 140.244 343.981 Q142.085 343.547 143.612 343.547 Q147.64 343.547 150.036 345.561 Q152.432 347.575 152.432 350.943 Q152.432 352.54 151.824 353.981 Q151.234 355.404 149.654 357.349 Q149.22 357.852 146.894 360.266 Q144.567 362.661 140.331 366.984 Z" fill="#4c4c4c" fill-rule="evenodd" fill-opacity="1" /><path clip-path="url(#clip590)" d="M20.3722 985.184 L20.3722 955.948 L24.3073 955.948 L24.3073 968.216 L54.9322 968.216 L54.9322 972.915 L24.3073 972.915 L24.3073 985.184 L20.3722 985.184 Z" fill="#000000" fill-rule="evenodd" fill-opacity="1" /><path clip-path="url(#clip590)" d="M40.9045 937.499 L42.9878 937.499 L42.9878 957.082 Q47.3859 956.804 49.7007 954.443 Q51.9924 952.059 51.9924 947.823 Q51.9924 945.369 51.3905 943.078 Q50.7887 940.763 49.585 938.494 L53.6127 938.494 Q54.5849 940.786 55.0942 943.193 Q55.6035 945.601 55.6035 948.078 Q55.6035 954.281 51.9924 957.916 Q48.3813 961.527 42.2239 961.527 Q35.8582 961.527 32.1314 958.101 Q28.3814 954.652 28.3814 948.818 Q28.3814 943.587 31.761 940.555 Q35.1174 937.499 40.9045 937.499 M39.6545 941.758 Q36.1591 941.805 34.0758 943.726 Q31.9925 945.624 31.9925 948.772 Q31.9925 952.337 34.0063 954.49 Q36.0202 956.619 39.6776 956.943 L39.6545 941.758 Z" fill="#000000" fill-rule="evenodd" fill-opacity="1" /><path clip-path="url(#clip590)" d="M29.7703 913.981 L33.798 913.981 Q32.8721 915.786 32.4091 917.731 Q31.9462 919.675 31.9462 921.758 Q31.9462 924.93 32.9184 926.527 Q33.8906 928.101 35.835 928.101 Q37.3165 928.101 38.173 926.967 Q39.0063 925.832 39.7702 922.406 L40.0943 920.948 Q41.0665 916.411 42.8489 914.513 Q44.6081 912.592 47.7794 912.592 Q51.3905 912.592 53.497 915.462 Q55.6035 918.309 55.6035 923.309 Q55.6035 925.393 55.1868 927.661 Q54.7933 929.906 53.9831 932.406 L49.585 932.406 Q50.8118 930.045 51.4368 927.754 Q52.0387 925.462 52.0387 923.217 Q52.0387 920.207 51.0201 918.587 Q49.9785 916.967 48.1035 916.967 Q46.3674 916.967 45.4415 918.147 Q44.5155 919.305 43.6591 923.263 L43.3118 924.744 Q42.4785 928.703 40.7656 930.462 Q39.0295 932.221 36.0202 932.221 Q32.3628 932.221 30.3721 929.629 Q28.3814 927.036 28.3814 922.268 Q28.3814 919.907 28.7286 917.823 Q29.0758 915.74 29.7703 913.981 Z" fill="#000000" fill-rule="evenodd" fill-opacity="1" /><path clip-path="url(#clip590)" d="M21.6453 901.596 L29.0064 901.596 L29.0064 892.823 L32.3165 892.823 L32.3165 901.596 L46.3905 901.596 Q49.5618 901.596 50.4646 900.74 Q51.3674 899.86 51.3674 897.198 L51.3674 892.823 L54.9322 892.823 L54.9322 897.198 Q54.9322 902.129 53.1035 904.004 Q51.2516 905.879 46.3905 905.879 L32.3165 905.879 L32.3165 909.004 L29.0064 909.004 L29.0064 905.879 L21.6453 905.879 L21.6453 901.596 Z" fill="#000000" fill-rule="evenodd" fill-opacity="1" /><path clip-path="url(#clip590)" d="M18.9138 872.152 L18.9138 867.893 L54.9322 867.893 L54.9322 872.152 L18.9138 872.152 Z" fill="#000000" fill-rule="evenodd" fill-opacity="1" /><path clip-path="url(#clip590)" d="M31.9925 848.935 Q31.9925 852.361 34.6776 854.351 Q37.3397 856.342 41.9924 856.342 Q46.6452 856.342 49.3303 854.374 Q51.9924 852.384 51.9924 848.935 Q51.9924 845.532 49.3072 843.541 Q46.622 841.55 41.9924 841.55 Q37.386 841.55 34.7008 843.541 Q31.9925 845.532 31.9925 848.935 M28.3814 848.935 Q28.3814 843.379 31.9925 840.208 Q35.6036 837.037 41.9924 837.037 Q48.3581 837.037 51.9924 840.208 Q55.6035 843.379 55.6035 848.935 Q55.6035 854.513 51.9924 857.685 Q48.3581 860.833 41.9924 860.833 Q35.6036 860.833 31.9925 857.685 Q28.3814 854.513 28.3814 848.935 Z" fill="#000000" fill-rule="evenodd" fill-opacity="1" /><path clip-path="url(#clip590)" d="M41.6683 812.916 Q37.0387 812.916 34.4925 814.838 Q31.9462 816.736 31.9462 820.185 Q31.9462 823.611 34.4925 825.532 Q37.0387 827.43 41.6683 827.43 Q46.2748 827.43 48.8211 825.532 Q51.3674 823.611 51.3674 820.185 Q51.3674 816.736 48.8211 814.838 Q46.2748 812.916 41.6683 812.916 M51.7146 808.657 Q58.3349 808.657 61.5525 811.597 Q64.7932 814.537 64.7932 820.601 Q64.7932 822.847 64.446 824.838 Q64.1219 826.828 63.4275 828.703 L59.284 828.703 Q60.3025 826.828 60.7886 825 Q61.2747 823.171 61.2747 821.273 Q61.2747 817.083 59.0757 815 Q56.8997 812.916 52.4785 812.916 L50.372 812.916 Q52.6637 814.236 53.7979 816.296 Q54.9322 818.356 54.9322 821.226 Q54.9322 825.995 51.2979 828.912 Q47.6637 831.828 41.6683 831.828 Q35.6499 831.828 32.0156 828.912 Q28.3814 825.995 28.3814 821.226 Q28.3814 818.356 29.5156 816.296 Q30.6499 814.236 32.9415 812.916 L29.0064 812.916 L29.0064 808.657 L51.7146 808.657 Z" fill="#000000" fill-rule="evenodd" fill-opacity="1" /><path clip-path="url(#clip590)" d="M40.048 802.037 L40.048 789.56 L43.8443 789.56 L43.8443 802.037 L40.048 802.037 Z" fill="#000000" fill-rule="evenodd" fill-opacity="1" /><path clip-path="url(#clip590)" d="M18.9138 782.778 L18.9138 778.518 L54.9322 778.518 L54.9322 782.778 L18.9138 782.778 Z" fill="#000000" fill-rule="evenodd" fill-opacity="1" /><path clip-path="url(#clip590)" d="M29.0064 769.606 L29.0064 765.347 L54.9322 765.347 L54.9322 769.606 L29.0064 769.606 M18.9138 769.606 L18.9138 765.347 L24.3073 765.347 L24.3073 769.606 L18.9138 769.606 Z" fill="#000000" fill-rule="evenodd" fill-opacity="1" /><path clip-path="url(#clip590)" d="M18.9138 756.597 L18.9138 752.315 L40.1869 752.315 L29.0064 739.607 L29.0064 734.167 L41.1359 747.917 L54.9322 733.588 L54.9322 739.144 L42.2702 752.315 L54.9322 752.315 L54.9322 756.597 L18.9138 756.597 Z" fill="#000000" fill-rule="evenodd" fill-opacity="1" /><path clip-path="url(#clip590)" d="M40.9045 708.496 L42.9878 708.496 L42.9878 728.079 Q47.3859 727.801 49.7007 725.44 Q51.9924 723.056 51.9924 718.82 Q51.9924 716.366 51.3905 714.074 Q50.7887 711.759 49.585 709.491 L53.6127 709.491 Q54.5849 711.783 55.0942 714.19 Q55.6035 716.597 55.6035 719.074 Q55.6035 725.278 51.9924 728.912 Q48.3813 732.523 42.2239 732.523 Q35.8582 732.523 32.1314 729.097 Q28.3814 725.648 28.3814 719.815 Q28.3814 714.584 31.761 711.551 Q35.1174 708.496 40.9045 708.496 M39.6545 712.755 Q36.1591 712.801 34.0758 714.722 Q31.9925 716.621 31.9925 719.769 Q31.9925 723.333 34.0063 725.486 Q36.0202 727.616 39.6776 727.94 L39.6545 712.755 Z" fill="#000000" fill-rule="evenodd" fill-opacity="1" /><path clip-path="url(#clip590)" d="M18.9138 701.505 L18.9138 697.246 L54.9322 697.246 L54.9322 701.505 L18.9138 701.505 Z" fill="#000000" fill-rule="evenodd" fill-opacity="1" /><path clip-path="url(#clip590)" d="M29.0064 688.334 L29.0064 684.074 L54.9322 684.074 L54.9322 688.334 L29.0064 688.334 M18.9138 688.334 L18.9138 684.074 L24.3073 684.074 L24.3073 688.334 L18.9138 688.334 Z" fill="#000000" fill-rule="evenodd" fill-opacity="1" /><path clip-path="url(#clip590)" d="M39.2841 653.612 L54.9322 653.612 L54.9322 657.871 L39.423 657.871 Q35.7424 657.871 33.9138 659.306 Q32.0851 660.741 32.0851 663.612 Q32.0851 667.061 34.2841 669.051 Q36.4832 671.042 40.2795 671.042 L54.9322 671.042 L54.9322 675.324 L18.9138 675.324 L18.9138 671.042 L33.0341 671.042 Q30.6962 669.514 29.5388 667.454 Q28.3814 665.371 28.3814 662.663 Q28.3814 658.195 31.1591 655.903 Q33.9138 653.612 39.2841 653.612 Z" fill="#000000" fill-rule="evenodd" fill-opacity="1" /><path clip-path="url(#clip590)" d="M31.9925 635.07 Q31.9925 638.496 34.6776 640.487 Q37.3397 642.477 41.9924 642.477 Q46.6452 642.477 49.3303 640.51 Q51.9924 638.519 51.9924 635.07 Q51.9924 631.667 49.3072 629.677 Q46.622 627.686 41.9924 627.686 Q37.386 627.686 34.7008 629.677 Q31.9925 631.667 31.9925 635.07 M28.3814 635.07 Q28.3814 629.515 31.9925 626.343 Q35.6036 623.172 41.9924 623.172 Q48.3581 623.172 51.9924 626.343 Q55.6035 629.515 55.6035 635.07 Q55.6035 640.649 51.9924 643.82 Q48.3581 646.968 41.9924 646.968 Q35.6036 646.968 31.9925 643.82 Q28.3814 640.649 28.3814 635.07 Z" fill="#000000" fill-rule="evenodd" fill-opacity="1" /><path clip-path="url(#clip590)" d="M31.9925 606.066 Q31.9925 609.492 34.6776 611.482 Q37.3397 613.473 41.9924 613.473 Q46.6452 613.473 49.3303 611.505 Q51.9924 609.515 51.9924 606.066 Q51.9924 602.663 49.3072 600.672 Q46.622 598.681 41.9924 598.681 Q37.386 598.681 34.7008 600.672 Q31.9925 602.663 31.9925 606.066 M28.3814 606.066 Q28.3814 600.51 31.9925 597.339 Q35.6036 594.168 41.9924 594.168 Q48.3581 594.168 51.9924 597.339 Q55.6035 600.51 55.6035 606.066 Q55.6035 611.644 51.9924 614.816 Q48.3581 617.964 41.9924 617.964 Q35.6036 617.964 31.9925 614.816 Q28.3814 611.644 28.3814 606.066 Z" fill="#000000" fill-rule="evenodd" fill-opacity="1" /><path clip-path="url(#clip590)" d="M32.9415 570.047 L18.9138 570.047 L18.9138 565.788 L54.9322 565.788 L54.9322 570.047 L51.0433 570.047 Q53.3581 571.39 54.4923 573.45 Q55.6035 575.487 55.6035 578.357 Q55.6035 583.056 51.8535 586.019 Q48.1035 588.959 41.9924 588.959 Q35.8813 588.959 32.1314 586.019 Q28.3814 583.056 28.3814 578.357 Q28.3814 575.487 29.5156 573.45 Q30.6267 571.39 32.9415 570.047 M41.9924 584.561 Q46.6915 584.561 49.3766 582.64 Q52.0387 580.695 52.0387 577.316 Q52.0387 573.936 49.3766 571.992 Q46.6915 570.047 41.9924 570.047 Q37.2934 570.047 34.6313 571.992 Q31.9462 573.936 31.9462 577.316 Q31.9462 580.695 34.6313 582.64 Q37.2934 584.561 41.9924 584.561 Z" fill="#000000" fill-rule="evenodd" fill-opacity="1" /><path clip-path="url(#clip590)" d="M1150.47 34.3054 L1150.47 36.9095 L1125.99 36.9095 Q1126.34 42.4072 1129.29 45.3007 Q1132.27 48.1653 1137.56 48.1653 Q1140.63 48.1653 1143.5 47.4129 Q1146.39 46.6606 1149.22 45.156 L1149.22 50.1907 Q1146.36 51.406 1143.35 52.0425 Q1140.34 52.6791 1137.25 52.6791 Q1129.49 52.6791 1124.95 48.1653 Q1120.43 43.6514 1120.43 35.9547 Q1120.43 27.9975 1124.72 23.339 Q1129.03 18.6515 1136.32 18.6515 Q1142.86 18.6515 1146.65 22.876 Q1150.47 27.0716 1150.47 34.3054 M1145.14 32.7429 Q1145.09 28.3737 1142.68 25.7695 Q1140.31 23.1654 1136.38 23.1654 Q1131.92 23.1654 1129.23 25.6827 Q1126.57 28.2001 1126.16 32.7718 L1145.14 32.7429 Z" fill="#000000" fill-rule="evenodd" fill-opacity="1" /><path clip-path="url(#clip590)" d="M1173.93 35.5496 Q1167.48 35.5496 1164.99 37.0253 Q1162.51 38.501 1162.51 42.06 Q1162.51 44.8956 1164.36 46.5738 Q1166.24 48.2231 1169.45 48.2231 Q1173.88 48.2231 1176.54 45.0981 Q1179.23 41.9442 1179.23 36.7359 L1179.23 35.5496 L1173.93 35.5496 M1184.55 33.3505 L1184.55 51.84 L1179.23 51.84 L1179.23 46.921 Q1177.41 49.8724 1174.69 51.2902 Q1171.97 52.6791 1168.03 52.6791 Q1163.06 52.6791 1160.1 49.9014 Q1157.18 47.0947 1157.18 42.4072 Q1157.18 36.9385 1160.83 34.1607 Q1164.5 31.3829 1171.76 31.3829 L1179.23 31.3829 L1179.23 30.8621 Q1179.23 27.1874 1176.8 25.1908 Q1174.4 23.1654 1170.03 23.1654 Q1167.25 23.1654 1164.62 23.8309 Q1161.98 24.4964 1159.55 25.8274 L1159.55 20.9085 Q1162.48 19.78 1165.23 19.2302 Q1167.97 18.6515 1170.58 18.6515 Q1177.61 18.6515 1181.08 22.2973 Q1184.55 25.9431 1184.55 33.3505 Z" fill="#000000" fill-rule="evenodd" fill-opacity="1" /><path clip-path="url(#clip590)" d="M1218.84 20.677 L1218.84 25.6538 Q1216.58 24.4096 1214.3 23.802 Q1212.04 23.1654 1209.73 23.1654 Q1204.55 23.1654 1201.68 26.464 Q1198.82 29.7336 1198.82 35.6653 Q1198.82 41.597 1201.68 44.8956 Q1204.55 48.1653 1209.73 48.1653 Q1212.04 48.1653 1214.3 47.5576 Q1216.58 46.921 1218.84 45.6768 L1218.84 50.5958 Q1216.61 51.6375 1214.21 52.1583 Q1211.84 52.6791 1209.15 52.6791 Q1201.83 52.6791 1197.52 48.0784 Q1193.21 43.4778 1193.21 35.6653 Q1193.21 27.7371 1197.55 23.1943 Q1201.91 18.6515 1209.5 18.6515 Q1211.96 18.6515 1214.3 19.1724 Q1216.64 19.6642 1218.84 20.677 Z" fill="#000000" fill-rule="evenodd" fill-opacity="1" /><path clip-path="url(#clip590)" d="M1255.04 32.2799 L1255.04 51.84 L1249.72 51.84 L1249.72 32.4535 Q1249.72 27.8529 1247.92 25.567 Q1246.13 23.2811 1242.54 23.2811 Q1238.23 23.2811 1235.74 26.03 Q1233.25 28.7788 1233.25 33.5241 L1233.25 51.84 L1227.9 51.84 L1227.9 6.81709 L1233.25 6.81709 L1233.25 24.4675 Q1235.16 21.545 1237.74 20.0983 Q1240.34 18.6515 1243.73 18.6515 Q1249.31 18.6515 1252.17 22.1237 Q1255.04 25.567 1255.04 32.2799 Z" fill="#000000" fill-rule="evenodd" fill-opacity="1" /><path clip-path="url(#clip590)" d="M1290.89 25.6538 Q1292.89 22.0659 1295.66 20.3587 Q1298.44 18.6515 1302.2 18.6515 Q1307.27 18.6515 1310.02 22.2105 Q1312.76 25.7406 1312.76 32.2799 L1312.76 51.84 L1307.41 51.84 L1307.41 32.4535 Q1307.41 27.795 1305.76 25.5381 Q1304.11 23.2811 1300.73 23.2811 Q1296.59 23.2811 1294.19 26.03 Q1291.79 28.7788 1291.79 33.5241 L1291.79 51.84 L1286.43 51.84 L1286.43 32.4535 Q1286.43 27.7661 1284.78 25.5381 Q1283.14 23.2811 1279.69 23.2811 Q1275.61 23.2811 1273.21 26.0589 Q1270.81 28.8077 1270.81 33.5241 L1270.81 51.84 L1265.46 51.84 L1265.46 19.4328 L1270.81 19.4328 L1270.81 24.4675 Q1272.63 21.4872 1275.18 20.0693 Q1277.72 18.6515 1281.23 18.6515 Q1284.76 18.6515 1287.22 20.4455 Q1289.7 22.2395 1290.89 25.6538 Z" fill="#000000" fill-rule="evenodd" fill-opacity="1" /><path clip-path="url(#clip590)" d="M1335.94 23.1654 Q1331.66 23.1654 1329.17 26.5218 Q1326.68 29.8494 1326.68 35.6653 Q1326.68 41.4813 1329.14 44.8377 Q1331.63 48.1653 1335.94 48.1653 Q1340.2 48.1653 1342.68 44.8088 Q1345.17 41.4523 1345.17 35.6653 Q1345.17 29.9072 1342.68 26.5508 Q1340.2 23.1654 1335.94 23.1654 M1335.94 18.6515 Q1342.89 18.6515 1346.85 23.1654 Q1350.81 27.6792 1350.81 35.6653 Q1350.81 43.6225 1346.85 48.1653 Q1342.89 52.6791 1335.94 52.6791 Q1328.97 52.6791 1325 48.1653 Q1321.07 43.6225 1321.07 35.6653 Q1321.07 27.6792 1325 23.1654 Q1328.97 18.6515 1335.94 18.6515 Z" fill="#000000" fill-rule="evenodd" fill-opacity="1" /><path clip-path="url(#clip590)" d="M1355.82 19.4328 L1361.46 19.4328 L1371.59 46.6317 L1381.72 19.4328 L1387.36 19.4328 L1375.21 51.84 L1367.97 51.84 L1355.82 19.4328 Z" fill="#000000" fill-rule="evenodd" fill-opacity="1" /><path clip-path="url(#clip590)" d="M1394.71 19.4328 L1400.03 19.4328 L1400.03 51.84 L1394.71 51.84 L1394.71 19.4328 M1394.71 6.81709 L1400.03 6.81709 L1400.03 13.559 L1394.71 13.559 L1394.71 6.81709 Z" fill="#000000" fill-rule="evenodd" fill-opacity="1" /><path clip-path="url(#clip590)" d="M1438.89 34.3054 L1438.89 36.9095 L1414.41 36.9095 Q1414.76 42.4072 1417.71 45.3007 Q1420.69 48.1653 1425.99 48.1653 Q1429.05 48.1653 1431.92 47.4129 Q1434.81 46.6606 1437.65 45.156 L1437.65 50.1907 Q1434.78 51.406 1431.77 52.0425 Q1428.77 52.6791 1425.67 52.6791 Q1417.91 52.6791 1413.37 48.1653 Q1408.86 43.6514 1408.86 35.9547 Q1408.86 27.9975 1413.14 23.339 Q1417.45 18.6515 1424.74 18.6515 Q1431.28 18.6515 1435.07 22.876 Q1438.89 27.0716 1438.89 34.3054 M1433.57 32.7429 Q1433.51 28.3737 1431.11 25.7695 Q1428.74 23.1654 1424.8 23.1654 Q1420.35 23.1654 1417.65 25.6827 Q1414.99 28.2001 1414.59 32.7718 L1433.57 32.7429 Z" fill="#000000" fill-rule="evenodd" fill-opacity="1" /><polyline clip-path="url(#clip592)" style="stroke:#e26f46; stroke-linecap:butt; stroke-linejoin:round; stroke-width:8; stroke-opacity:1; fill:none" points="
  307.806,440.829 348.3,440.829 388.794,440.829 429.288,440.829 469.782,440.829 510.276,440.829 550.77,440.829 591.264,440.829 631.758,440.829 672.252,440.829 
  712.746,440.829 753.24,440.829 793.735,440.829 834.229,440.829 874.723,440.829 915.217,440.829 955.711,440.829 996.205,440.829 1036.7,440.829 1077.19,440.829 
  1117.69,440.829 1158.18,440.829 1198.68,440.829 1239.17,440.829 1279.66,440.829 1320.16,440.829 1360.65,440.829 1401.15,440.829 1441.64,440.829 1482.13,440.829 
  1522.63,440.829 1563.12,440.829 1603.62,440.829 1644.11,440.829 1684.6,440.829 1725.1,440.829 1765.59,440.829 1806.09,440.829 1846.58,440.829 1887.07,440.829 
  1927.57,440.829 1968.06,440.829 2008.56,440.829 2049.05,440.829 2089.54,440.829 2130.04,440.829 2170.53,440.829 2211.03,440.829 2251.52,440.829 2292.01,440.829 
  
  "/>
<polyline clip-path="url(#clip592)" style="stroke:#3da44d; stroke-linecap:butt; stroke-linejoin:round; stroke-width:8; stroke-opacity:1; fill:none" points="
  307.806,648.717 348.3,648.717 388.794,648.717 429.288,648.717 469.782,648.717 510.276,648.717 550.77,648.717 591.264,648.717 631.758,648.717 672.252,648.717 
  712.746,648.717 753.24,648.717 793.735,648.717 834.229,648.717 874.723,648.717 915.217,648.717 955.711,648.717 996.205,648.717 1036.7,648.717 1077.19,648.717 
  1117.69,648.717 1158.18,648.717 1198.68,648.717 1239.17,648.717 1279.66,648.717 1320.16,648.717 1360.65,648.717 1401.15,648.717 1441.64,648.717 1482.13,648.717 
  1522.63,648.717 1563.12,648.717 1603.62,648.717 1644.11,648.717 1684.6,648.717 1725.1,648.717 1765.59,648.717 1806.09,648.717 1846.58,648.717 1887.07,648.717 
  1927.57,648.717 1968.06,648.717 2008.56,648.717 2049.05,648.717 2089.54,648.717 2130.04,648.717 2170.53,648.717 2211.03,648.717 2251.52,648.717 2292.01,648.717 
  
  "/>
<polyline clip-path="url(#clip592)" style="stroke:#c271d2; stroke-linecap:butt; stroke-linejoin:round; stroke-width:8; stroke-opacity:1; fill:none" points="
  307.806,1406.9 348.3,1406.9 388.794,1406.9 429.288,1406.9 469.782,1406.9 510.276,1406.9 550.77,1406.9 591.264,1406.9 631.758,1406.9 672.252,1406.9 
  712.746,1406.9 753.24,1406.9 793.735,1406.9 834.229,1406.9 874.723,1406.9 915.217,1406.9 955.711,1406.9 996.205,1406.9 1036.7,1406.9 1077.19,1406.9 
  1117.69,1406.9 1158.18,1406.9 1198.68,1406.9 1239.17,1406.9 1279.66,1406.9 1320.16,1406.9 1360.65,1406.9 1401.15,1406.9 1441.64,1406.9 1482.13,1406.9 
  1522.63,1406.9 1563.12,1406.9 1603.62,1406.9 1644.11,1406.9 1684.6,1406.9 1725.1,1406.9 1765.59,1406.9 1806.09,1406.9 1846.58,1406.9 1887.07,1406.9 
  1927.57,1406.9 1968.06,1406.9 2008.56,1406.9 2049.05,1406.9 2089.54,1406.9 2130.04,1406.9 2170.53,1406.9 2211.03,1406.9 2251.52,1406.9 2292.01,1406.9 
  
  "/>
<polyline clip-path="url(#clip592)" style="stroke:#ac8d18; stroke-linecap:butt; stroke-linejoin:round; stroke-width:8; stroke-opacity:1; fill:none" points="
  307.806,849.617 348.3,849.617 388.794,849.617 429.288,849.617 469.782,849.617 510.276,849.617 550.77,849.617 591.264,849.617 631.758,849.617 672.252,849.617 
  712.746,849.617 753.24,849.617 793.735,849.617 834.229,849.617 874.723,849.617 915.217,849.617 955.711,849.617 996.205,849.617 1036.7,849.617 1077.19,849.617 
  1117.69,849.617 1158.18,849.617 1198.68,849.617 1239.17,849.617 1279.66,849.617 1320.16,849.617 1360.65,849.617 1401.15,849.617 1441.64,849.617 1482.13,849.617 
  1522.63,849.617 1563.12,849.617 1603.62,849.617 1644.11,849.617 1684.6,849.617 1725.1,849.617 1765.59,849.617 1806.09,849.617 1846.58,849.617 1887.07,849.617 
  1927.57,849.617 1968.06,849.617 2008.56,849.617 2049.05,849.617 2089.54,849.617 2130.04,849.617 2170.53,849.617 2211.03,849.617 2251.52,849.617 2292.01,849.617 
  
  "/>
<polyline clip-path="url(#clip592)" style="stroke:#00a9ad; stroke-linecap:butt; stroke-linejoin:round; stroke-width:8; stroke-opacity:1; fill:none" points="
  307.806,267.881 348.3,267.881 388.794,267.881 429.288,267.881 469.782,267.881 510.276,267.881 550.77,267.881 591.264,267.881 631.758,267.881 672.252,267.881 
  712.746,267.881 753.24,267.881 793.735,267.881 834.229,267.881 874.723,267.881 915.217,267.881 955.711,267.881 996.205,267.881 1036.7,267.881 1077.19,267.881 
  1117.69,267.881 1158.18,267.881 1198.68,267.881 1239.17,267.881 1279.66,267.881 1320.16,267.881 1360.65,267.881 1401.15,267.881 1441.64,267.881 1482.13,267.881 
  1522.63,267.881 1563.12,267.881 1603.62,267.881 1644.11,267.881 1684.6,267.881 1725.1,267.881 1765.59,267.881 1806.09,267.881 1846.58,267.881 1887.07,267.881 
  1927.57,267.881 1968.06,267.881 2008.56,267.881 2049.05,267.881 2089.54,267.881 2130.04,267.881 2170.53,267.881 2211.03,267.881 2251.52,267.881 2292.01,267.881 
  
  "/>
<polyline clip-path="url(#clip592)" style="stroke:#009af9; stroke-linecap:butt; stroke-linejoin:round; stroke-width:12; stroke-opacity:1; fill:none" points="
  307.806,862.501 348.3,663.278 388.794,495.359 429.288,496.981 469.782,393.538 510.276,381.109 550.77,368.712 591.264,320.766 631.758,329.323 672.252,506.594 
  712.746,351.21 753.24,273.789 793.735,268.389 834.229,345.141 874.723,278.666 915.217,290.891 955.711,395.13 996.205,298.265 1036.7,329.495 1077.19,235.648 
  1117.69,213.555 1158.18,248.686 1198.68,221.516 1239.17,208.926 1279.66,260.479 1320.16,288.615 1360.65,231.674 1401.15,207.631 1441.64,218.968 1482.13,190.25 
  1522.63,208.26 1563.12,269.353 1603.62,220.507 1644.11,257.591 1684.6,258.165 1725.1,199.716 1765.59,201.622 1806.09,188.604 1846.58,227.218 1887.07,202.889 
  1927.57,174.411 1968.06,182.928 2008.56,180.195 2049.05,169.477 2089.54,154.48 2130.04,158.143 2170.53,144.077 2211.03,145.162 2251.52,152.579 2292.01,164.355 
  
  "/>
</svg>
