<?xml version="1.0" encoding="utf-8"?>
<svg xmlns="http://www.w3.org/2000/svg" xmlns:xlink="http://www.w3.org/1999/xlink" width="600" height="400" viewBox="0 0 2400 1600">
<defs>
  <clipPath id="clip350">
    <rect x="0" y="0" width="2400" height="1600"/>
  </clipPath>
</defs>
<path clip-path="url(#clip350)" d="
M0 1600 L2400 1600 L2400 0 L0 0  Z
  " fill="#ffffff" fill-rule="evenodd" fill-opacity="1"/>
<defs>
  <clipPath id="clip351">
    <rect x="480" y="0" width="1681" height="1600"/>
  </clipPath>
</defs>
<path clip-path="url(#clip350)" d="
M206.206 1444.78 L2352.76 1444.78 L2352.76 106.192 L206.206 106.192  Z
  " fill="#eaeaea" fill-rule="evenodd" fill-opacity="1"/>
<defs>
  <clipPath id="clip352">
    <rect x="206" y="106" width="2148" height="1340"/>
  </clipPath>
</defs>
<polyline clip-path="url(#clip352)" style="stroke:#ffffff; stroke-linecap:butt; stroke-linejoin:round; stroke-width:4; stroke-opacity:1; fill:none" points="
  266.957,1444.78 266.957,106.192 
  "/>
<polyline clip-path="url(#clip352)" style="stroke:#ffffff; stroke-linecap:butt; stroke-linejoin:round; stroke-width:4; stroke-opacity:1; fill:none" points="
  469.462,1444.78 469.462,106.192 
  "/>
<polyline clip-path="url(#clip352)" style="stroke:#ffffff; stroke-linecap:butt; stroke-linejoin:round; stroke-width:4; stroke-opacity:1; fill:none" points="
  671.967,1444.78 671.967,106.192 
  "/>
<polyline clip-path="url(#clip352)" style="stroke:#ffffff; stroke-linecap:butt; stroke-linejoin:round; stroke-width:4; stroke-opacity:1; fill:none" points="
  874.472,1444.78 874.472,106.192 
  "/>
<polyline clip-path="url(#clip352)" style="stroke:#ffffff; stroke-linecap:butt; stroke-linejoin:round; stroke-width:4; stroke-opacity:1; fill:none" points="
  1076.98,1444.78 1076.98,106.192 
  "/>
<polyline clip-path="url(#clip352)" style="stroke:#ffffff; stroke-linecap:butt; stroke-linejoin:round; stroke-width:4; stroke-opacity:1; fill:none" points="
  1279.48,1444.78 1279.48,106.192 
  "/>
<polyline clip-path="url(#clip352)" style="stroke:#ffffff; stroke-linecap:butt; stroke-linejoin:round; stroke-width:4; stroke-opacity:1; fill:none" points="
  1481.99,1444.78 1481.99,106.192 
  "/>
<polyline clip-path="url(#clip352)" style="stroke:#ffffff; stroke-linecap:butt; stroke-linejoin:round; stroke-width:4; stroke-opacity:1; fill:none" points="
  1684.49,1444.78 1684.49,106.192 
  "/>
<polyline clip-path="url(#clip352)" style="stroke:#ffffff; stroke-linecap:butt; stroke-linejoin:round; stroke-width:4; stroke-opacity:1; fill:none" points="
  1887,1444.78 1887,106.192 
  "/>
<polyline clip-path="url(#clip352)" style="stroke:#ffffff; stroke-linecap:butt; stroke-linejoin:round; stroke-width:4; stroke-opacity:1; fill:none" points="
  2089.5,1444.78 2089.5,106.192 
  "/>
<polyline clip-path="url(#clip352)" style="stroke:#ffffff; stroke-linecap:butt; stroke-linejoin:round; stroke-width:4; stroke-opacity:1; fill:none" points="
  2292,1444.78 2292,106.192 
  "/>
<polyline clip-path="url(#clip352)" style="stroke:#ffffff; stroke-linecap:butt; stroke-linejoin:round; stroke-width:2; stroke-opacity:1; fill:none" points="
  368.21,1444.78 368.21,106.192 
  "/>
<polyline clip-path="url(#clip352)" style="stroke:#ffffff; stroke-linecap:butt; stroke-linejoin:round; stroke-width:2; stroke-opacity:1; fill:none" points="
  570.715,1444.78 570.715,106.192 
  "/>
<polyline clip-path="url(#clip352)" style="stroke:#ffffff; stroke-linecap:butt; stroke-linejoin:round; stroke-width:2; stroke-opacity:1; fill:none" points="
  773.219,1444.78 773.219,106.192 
  "/>
<polyline clip-path="url(#clip352)" style="stroke:#ffffff; stroke-linecap:butt; stroke-linejoin:round; stroke-width:2; stroke-opacity:1; fill:none" points="
  975.724,1444.78 975.724,106.192 
  "/>
<polyline clip-path="url(#clip352)" style="stroke:#ffffff; stroke-linecap:butt; stroke-linejoin:round; stroke-width:2; stroke-opacity:1; fill:none" points="
  1178.23,1444.78 1178.23,106.192 
  "/>
<polyline clip-path="url(#clip352)" style="stroke:#ffffff; stroke-linecap:butt; stroke-linejoin:round; stroke-width:2; stroke-opacity:1; fill:none" points="
  1380.73,1444.78 1380.73,106.192 
  "/>
<polyline clip-path="url(#clip352)" style="stroke:#ffffff; stroke-linecap:butt; stroke-linejoin:round; stroke-width:2; stroke-opacity:1; fill:none" points="
  1583.24,1444.78 1583.24,106.192 
  "/>
<polyline clip-path="url(#clip352)" style="stroke:#ffffff; stroke-linecap:butt; stroke-linejoin:round; stroke-width:2; stroke-opacity:1; fill:none" points="
  1785.74,1444.78 1785.74,106.192 
  "/>
<polyline clip-path="url(#clip352)" style="stroke:#ffffff; stroke-linecap:butt; stroke-linejoin:round; stroke-width:2; stroke-opacity:1; fill:none" points="
  1988.25,1444.78 1988.25,106.192 
  "/>
<polyline clip-path="url(#clip352)" style="stroke:#ffffff; stroke-linecap:butt; stroke-linejoin:round; stroke-width:2; stroke-opacity:1; fill:none" points="
  2190.75,1444.78 2190.75,106.192 
  "/>
<polyline clip-path="url(#clip350)" style="stroke:#ffffff; stroke-linecap:butt; stroke-linejoin:round; stroke-width:4; stroke-opacity:1; fill:none" points="
  206.206,1444.78 2352.76,1444.78 
  "/>
<polyline clip-path="url(#clip350)" style="stroke:#333333; stroke-linecap:butt; stroke-linejoin:round; stroke-width:4; stroke-opacity:1; fill:none" points="
  266.957,1444.78 266.957,1463.68 
  "/>
<polyline clip-path="url(#clip350)" style="stroke:#333333; stroke-linecap:butt; stroke-linejoin:round; stroke-width:4; stroke-opacity:1; fill:none" points="
  469.462,1444.78 469.462,1463.68 
  "/>
<polyline clip-path="url(#clip350)" style="stroke:#333333; stroke-linecap:butt; stroke-linejoin:round; stroke-width:4; stroke-opacity:1; fill:none" points="
  671.967,1444.78 671.967,1463.68 
  "/>
<polyline clip-path="url(#clip350)" style="stroke:#333333; stroke-linecap:butt; stroke-linejoin:round; stroke-width:4; stroke-opacity:1; fill:none" points="
  874.472,1444.78 874.472,1463.68 
  "/>
<polyline clip-path="url(#clip350)" style="stroke:#333333; stroke-linecap:butt; stroke-linejoin:round; stroke-width:4; stroke-opacity:1; fill:none" points="
  1076.98,1444.78 1076.98,1463.68 
  "/>
<polyline clip-path="url(#clip350)" style="stroke:#333333; stroke-linecap:butt; stroke-linejoin:round; stroke-width:4; stroke-opacity:1; fill:none" points="
  1279.48,1444.78 1279.48,1463.68 
  "/>
<polyline clip-path="url(#clip350)" style="stroke:#333333; stroke-linecap:butt; stroke-linejoin:round; stroke-width:4; stroke-opacity:1; fill:none" points="
  1481.99,1444.78 1481.99,1463.68 
  "/>
<polyline clip-path="url(#clip350)" style="stroke:#333333; stroke-linecap:butt; stroke-linejoin:round; stroke-width:4; stroke-opacity:1; fill:none" points="
  1684.49,1444.78 1684.49,1463.68 
  "/>
<polyline clip-path="url(#clip350)" style="stroke:#333333; stroke-linecap:butt; stroke-linejoin:round; stroke-width:4; stroke-opacity:1; fill:none" points="
  1887,1444.78 1887,1463.68 
  "/>
<polyline clip-path="url(#clip350)" style="stroke:#333333; stroke-linecap:butt; stroke-linejoin:round; stroke-width:4; stroke-opacity:1; fill:none" points="
  2089.5,1444.78 2089.5,1463.68 
  "/>
<polyline clip-path="url(#clip350)" style="stroke:#333333; stroke-linecap:butt; stroke-linejoin:round; stroke-width:4; stroke-opacity:1; fill:none" points="
  2292,1444.78 2292,1463.68 
  "/>
<polyline clip-path="url(#clip350)" style="stroke:#333333; stroke-linecap:butt; stroke-linejoin:round; stroke-width:4; stroke-opacity:1; fill:none" points="
  368.21,1444.78 368.21,1454.23 
  "/>
<polyline clip-path="url(#clip350)" style="stroke:#333333; stroke-linecap:butt; stroke-linejoin:round; stroke-width:4; stroke-opacity:1; fill:none" points="
  570.715,1444.78 570.715,1454.23 
  "/>
<polyline clip-path="url(#clip350)" style="stroke:#333333; stroke-linecap:butt; stroke-linejoin:round; stroke-width:4; stroke-opacity:1; fill:none" points="
  773.219,1444.78 773.219,1454.23 
  "/>
<polyline clip-path="url(#clip350)" style="stroke:#333333; stroke-linecap:butt; stroke-linejoin:round; stroke-width:4; stroke-opacity:1; fill:none" points="
  975.724,1444.78 975.724,1454.23 
  "/>
<polyline clip-path="url(#clip350)" style="stroke:#333333; stroke-linecap:butt; stroke-linejoin:round; stroke-width:4; stroke-opacity:1; fill:none" points="
  1178.23,1444.78 1178.23,1454.23 
  "/>
<polyline clip-path="url(#clip350)" style="stroke:#333333; stroke-linecap:butt; stroke-linejoin:round; stroke-width:4; stroke-opacity:1; fill:none" points="
  1380.73,1444.78 1380.73,1454.23 
  "/>
<polyline clip-path="url(#clip350)" style="stroke:#333333; stroke-linecap:butt; stroke-linejoin:round; stroke-width:4; stroke-opacity:1; fill:none" points="
  1583.24,1444.78 1583.24,1454.23 
  "/>
<polyline clip-path="url(#clip350)" style="stroke:#333333; stroke-linecap:butt; stroke-linejoin:round; stroke-width:4; stroke-opacity:1; fill:none" points="
  1785.74,1444.78 1785.74,1454.23 
  "/>
<polyline clip-path="url(#clip350)" style="stroke:#333333; stroke-linecap:butt; stroke-linejoin:round; stroke-width:4; stroke-opacity:1; fill:none" points="
  1988.25,1444.78 1988.25,1454.23 
  "/>
<polyline clip-path="url(#clip350)" style="stroke:#333333; stroke-linecap:butt; stroke-linejoin:round; stroke-width:4; stroke-opacity:1; fill:none" points="
  2190.75,1444.78 2190.75,1454.23 
  "/>
<path clip-path="url(#clip350)" d="M266.957 1482.37 Q264.249 1482.37 262.878 1485.04 Q261.523 1487.7 261.523 1493.05 Q261.523 1498.38 262.878 1501.05 Q264.249 1503.71 266.957 1503.71 Q269.683 1503.71 271.037 1501.05 Q272.409 1498.38 272.409 1493.05 Q272.409 1487.7 271.037 1485.04 Q269.683 1482.37 266.957 1482.37 M266.957 1479.59 Q271.315 1479.59 273.607 1483.05 Q275.916 1486.48 275.916 1493.05 Q275.916 1499.59 273.607 1503.05 Q271.315 1506.48 266.957 1506.48 Q262.6 1506.48 260.291 1503.05 Q257.999 1499.59 257.999 1493.05 Q257.999 1486.48 260.291 1483.05 Q262.6 1479.59 266.957 1479.59 Z" fill="#4c4c4c" fill-rule="evenodd" fill-opacity="1" /><path clip-path="url(#clip350)" d="M450.478 1503.03 L456.207 1503.03 L456.207 1483.25 L449.974 1484.5 L449.974 1481.31 L456.172 1480.06 L459.679 1480.06 L459.679 1503.03 L465.408 1503.03 L465.408 1505.98 L450.478 1505.98 L450.478 1503.03 Z" fill="#4c4c4c" fill-rule="evenodd" fill-opacity="1" /><path clip-path="url(#clip350)" d="M479.992 1482.37 Q477.283 1482.37 475.912 1485.04 Q474.558 1487.7 474.558 1493.05 Q474.558 1498.38 475.912 1501.05 Q477.283 1503.71 479.992 1503.71 Q482.717 1503.71 484.071 1501.05 Q485.443 1498.38 485.443 1493.05 Q485.443 1487.7 484.071 1485.04 Q482.717 1482.37 479.992 1482.37 M479.992 1479.59 Q484.349 1479.59 486.641 1483.05 Q488.95 1486.48 488.95 1493.05 Q488.95 1499.59 486.641 1503.05 Q484.349 1506.48 479.992 1506.48 Q475.634 1506.48 473.325 1503.05 Q471.033 1499.59 471.033 1493.05 Q471.033 1486.48 473.325 1483.05 Q475.634 1479.59 479.992 1479.59 Z" fill="#4c4c4c" fill-rule="evenodd" fill-opacity="1" /><path clip-path="url(#clip350)" d="M656.047 1503.03 L668.286 1503.03 L668.286 1505.98 L651.828 1505.98 L651.828 1503.03 Q653.825 1500.96 657.262 1497.49 Q660.717 1494 661.602 1492.99 Q663.286 1491.1 663.946 1489.8 Q664.623 1488.48 664.623 1487.21 Q664.623 1485.15 663.165 1483.84 Q661.724 1482.54 659.397 1482.54 Q657.748 1482.54 655.908 1483.12 Q654.085 1483.69 652.002 1484.85 L652.002 1481.31 Q654.12 1480.46 655.96 1480.03 Q657.8 1479.59 659.328 1479.59 Q663.356 1479.59 665.752 1481.6 Q668.147 1483.62 668.147 1486.99 Q668.147 1488.58 667.54 1490.03 Q666.95 1491.45 665.37 1493.39 Q664.936 1493.9 662.609 1496.31 Q660.283 1498.71 656.047 1503.03 Z" fill="#4c4c4c" fill-rule="evenodd" fill-opacity="1" /><path clip-path="url(#clip350)" d="M683.147 1482.37 Q680.439 1482.37 679.068 1485.04 Q677.713 1487.7 677.713 1493.05 Q677.713 1498.38 679.068 1501.05 Q680.439 1503.71 683.147 1503.71 Q685.873 1503.71 687.227 1501.05 Q688.599 1498.38 688.599 1493.05 Q688.599 1487.7 687.227 1485.04 Q685.873 1482.37 683.147 1482.37 M683.147 1479.59 Q687.505 1479.59 689.797 1483.05 Q692.106 1486.48 692.106 1493.05 Q692.106 1499.59 689.797 1503.05 Q687.505 1506.48 683.147 1506.48 Q678.79 1506.48 676.481 1503.05 Q674.189 1499.59 674.189 1493.05 Q674.189 1486.48 676.481 1483.05 Q678.79 1479.59 683.147 1479.59 Z" fill="#4c4c4c" fill-rule="evenodd" fill-opacity="1" /><path clip-path="url(#clip350)" d="M866.104 1492 Q868.621 1492.54 870.027 1494.24 Q871.451 1495.95 871.451 1498.45 Q871.451 1502.28 868.812 1504.38 Q866.173 1506.48 861.312 1506.48 Q859.68 1506.48 857.944 1506.15 Q856.225 1505.84 854.385 1505.2 L854.385 1501.81 Q855.843 1502.66 857.579 1503.1 Q859.315 1503.53 861.208 1503.53 Q864.506 1503.53 866.225 1502.23 Q867.961 1500.93 867.961 1498.45 Q867.961 1496.15 866.347 1494.87 Q864.749 1493.57 861.885 1493.57 L858.864 1493.57 L858.864 1490.68 L862.024 1490.68 Q864.611 1490.68 865.982 1489.66 Q867.354 1488.62 867.354 1486.67 Q867.354 1484.68 865.93 1483.62 Q864.524 1482.54 861.885 1482.54 Q860.444 1482.54 858.795 1482.85 Q857.145 1483.17 855.166 1483.83 L855.166 1480.7 Q857.163 1480.15 858.899 1479.87 Q860.652 1479.59 862.197 1479.59 Q866.19 1479.59 868.517 1481.41 Q870.843 1483.22 870.843 1486.31 Q870.843 1488.46 869.61 1489.96 Q868.378 1491.43 866.104 1492 Z" fill="#4c4c4c" fill-rule="evenodd" fill-opacity="1" /><path clip-path="url(#clip350)" d="M885.6 1482.37 Q882.892 1482.37 881.52 1485.04 Q880.166 1487.7 880.166 1493.05 Q880.166 1498.38 881.52 1501.05 Q882.892 1503.71 885.6 1503.71 Q888.326 1503.71 889.68 1501.05 Q891.051 1498.38 891.051 1493.05 Q891.051 1487.7 889.68 1485.04 Q888.326 1482.37 885.6 1482.37 M885.6 1479.59 Q889.958 1479.59 892.249 1483.05 Q894.558 1486.48 894.558 1493.05 Q894.558 1499.59 892.249 1503.05 Q889.958 1506.48 885.6 1506.48 Q881.242 1506.48 878.933 1503.05 Q876.642 1499.59 876.642 1493.05 Q876.642 1486.48 878.933 1483.05 Q881.242 1479.59 885.6 1479.59 Z" fill="#4c4c4c" fill-rule="evenodd" fill-opacity="1" /><path clip-path="url(#clip350)" d="M1068.1 1483.12 L1059.25 1496.95 L1068.1 1496.95 L1068.1 1483.12 M1067.18 1480.06 L1071.59 1480.06 L1071.59 1496.95 L1075.29 1496.95 L1075.29 1499.87 L1071.59 1499.87 L1071.59 1505.98 L1068.1 1505.98 L1068.1 1499.87 L1056.4 1499.87 L1056.4 1496.48 L1067.18 1480.06 Z" fill="#4c4c4c" fill-rule="evenodd" fill-opacity="1" /><path clip-path="url(#clip350)" d="M1088.59 1482.37 Q1085.88 1482.37 1084.51 1485.04 Q1083.16 1487.7 1083.16 1493.05 Q1083.16 1498.38 1084.51 1501.05 Q1085.88 1503.71 1088.59 1503.71 Q1091.32 1503.71 1092.67 1501.05 Q1094.04 1498.38 1094.04 1493.05 Q1094.04 1487.7 1092.67 1485.04 Q1091.32 1482.37 1088.59 1482.37 M1088.59 1479.59 Q1092.95 1479.59 1095.24 1483.05 Q1097.55 1486.48 1097.55 1493.05 Q1097.55 1499.59 1095.24 1503.05 Q1092.95 1506.48 1088.59 1506.48 Q1084.23 1506.48 1081.92 1503.05 Q1079.63 1499.59 1079.63 1493.05 Q1079.63 1486.48 1081.92 1483.05 Q1084.23 1479.59 1088.59 1479.59 Z" fill="#4c4c4c" fill-rule="evenodd" fill-opacity="1" /><path clip-path="url(#clip350)" d="M1260.51 1480.06 L1274.27 1480.06 L1274.27 1483.01 L1263.72 1483.01 L1263.72 1489.37 Q1264.48 1489.1 1265.24 1488.98 Q1266.01 1488.84 1266.77 1488.84 Q1271.11 1488.84 1273.65 1491.22 Q1276.18 1493.6 1276.18 1497.66 Q1276.18 1501.85 1273.58 1504.17 Q1270.97 1506.48 1266.23 1506.48 Q1264.6 1506.48 1262.9 1506.21 Q1261.22 1505.93 1259.41 1505.37 L1259.41 1501.85 Q1260.97 1502.7 1262.64 1503.12 Q1264.31 1503.53 1266.17 1503.53 Q1269.17 1503.53 1270.92 1501.95 Q1272.68 1500.37 1272.68 1497.66 Q1272.68 1494.96 1270.92 1493.38 Q1269.17 1491.8 1266.17 1491.8 Q1264.76 1491.8 1263.35 1492.11 Q1261.96 1492.42 1260.51 1493.08 L1260.51 1480.06 Z" fill="#4c4c4c" fill-rule="evenodd" fill-opacity="1" /><path clip-path="url(#clip350)" d="M1290.59 1482.37 Q1287.88 1482.37 1286.51 1485.04 Q1285.16 1487.7 1285.16 1493.05 Q1285.16 1498.38 1286.51 1501.05 Q1287.88 1503.71 1290.59 1503.71 Q1293.32 1503.71 1294.67 1501.05 Q1296.04 1498.38 1296.04 1493.05 Q1296.04 1487.7 1294.67 1485.04 Q1293.32 1482.37 1290.59 1482.37 M1290.59 1479.59 Q1294.95 1479.59 1297.24 1483.05 Q1299.55 1486.48 1299.55 1493.05 Q1299.55 1499.59 1297.24 1503.05 Q1294.95 1506.48 1290.59 1506.48 Q1286.23 1506.48 1283.93 1503.05 Q1281.63 1499.59 1281.63 1493.05 Q1281.63 1486.48 1283.93 1483.05 Q1286.23 1479.59 1290.59 1479.59 Z" fill="#4c4c4c" fill-rule="evenodd" fill-opacity="1" /><path clip-path="url(#clip350)" d="M1471.04 1491.62 Q1468.68 1491.62 1467.29 1493.24 Q1465.92 1494.85 1465.92 1497.66 Q1465.92 1500.46 1467.29 1502.09 Q1468.68 1503.71 1471.04 1503.71 Q1473.4 1503.71 1474.77 1502.09 Q1476.16 1500.46 1476.16 1497.66 Q1476.16 1494.85 1474.77 1493.24 Q1473.4 1491.62 1471.04 1491.62 M1478 1480.63 L1478 1483.83 Q1476.68 1483.2 1475.33 1482.87 Q1473.99 1482.54 1472.67 1482.54 Q1469.2 1482.54 1467.36 1484.89 Q1465.54 1487.23 1465.28 1491.97 Q1466.3 1490.46 1467.85 1489.66 Q1469.39 1488.84 1471.25 1488.84 Q1475.15 1488.84 1477.41 1491.22 Q1479.69 1493.58 1479.69 1497.66 Q1479.69 1501.66 1477.32 1504.07 Q1474.96 1506.48 1471.04 1506.48 Q1466.54 1506.48 1464.16 1503.05 Q1461.79 1499.59 1461.79 1493.05 Q1461.79 1486.9 1464.7 1483.25 Q1467.62 1479.59 1472.53 1479.59 Q1473.85 1479.59 1475.19 1479.85 Q1476.54 1480.11 1478 1480.63 Z" fill="#4c4c4c" fill-rule="evenodd" fill-opacity="1" /><path clip-path="url(#clip350)" d="M1493.23 1482.37 Q1490.52 1482.37 1489.15 1485.04 Q1487.79 1487.7 1487.79 1493.05 Q1487.79 1498.38 1489.15 1501.05 Q1490.52 1503.71 1493.23 1503.71 Q1495.95 1503.71 1497.31 1501.05 Q1498.68 1498.38 1498.68 1493.05 Q1498.68 1487.7 1497.31 1485.04 Q1495.95 1482.37 1493.23 1482.37 M1493.23 1479.59 Q1497.58 1479.59 1499.88 1483.05 Q1502.19 1486.48 1502.19 1493.05 Q1502.19 1499.59 1499.88 1503.05 Q1497.58 1506.48 1493.23 1506.48 Q1488.87 1506.48 1486.56 1503.05 Q1484.27 1499.59 1484.27 1493.05 Q1484.27 1486.48 1486.56 1483.05 Q1488.87 1479.59 1493.23 1479.59 Z" fill="#4c4c4c" fill-rule="evenodd" fill-opacity="1" /><path clip-path="url(#clip350)" d="M1664.51 1480.06 L1681.17 1480.06 L1681.17 1481.55 L1671.76 1505.98 L1668.1 1505.98 L1676.96 1483.01 L1664.51 1483.01 L1664.51 1480.06 Z" fill="#4c4c4c" fill-rule="evenodd" fill-opacity="1" /><path clip-path="url(#clip350)" d="M1695.51 1482.37 Q1692.81 1482.37 1691.43 1485.04 Q1690.08 1487.7 1690.08 1493.05 Q1690.08 1498.38 1691.43 1501.05 Q1692.81 1503.71 1695.51 1503.71 Q1698.24 1503.71 1699.59 1501.05 Q1700.97 1498.38 1700.97 1493.05 Q1700.97 1487.7 1699.59 1485.04 Q1698.24 1482.37 1695.51 1482.37 M1695.51 1479.59 Q1699.87 1479.59 1702.16 1483.05 Q1704.47 1486.48 1704.47 1493.05 Q1704.47 1499.59 1702.16 1503.05 Q1699.87 1506.48 1695.51 1506.48 Q1691.16 1506.48 1688.85 1503.05 Q1686.56 1499.59 1686.56 1493.05 Q1686.56 1486.48 1688.85 1483.05 Q1691.16 1479.59 1695.51 1479.59 Z" fill="#4c4c4c" fill-rule="evenodd" fill-opacity="1" /><path clip-path="url(#clip350)" d="M1875.65 1493.67 Q1873.15 1493.67 1871.71 1495.01 Q1870.29 1496.34 1870.29 1498.69 Q1870.29 1501.03 1871.71 1502.37 Q1873.15 1503.71 1875.65 1503.71 Q1878.15 1503.71 1879.59 1502.37 Q1881.03 1501.01 1881.03 1498.69 Q1881.03 1496.34 1879.59 1495.01 Q1878.17 1493.67 1875.65 1493.67 M1872.14 1492.18 Q1869.89 1491.62 1868.62 1490.08 Q1867.37 1488.53 1867.37 1486.31 Q1867.37 1483.2 1869.57 1481.4 Q1871.8 1479.59 1875.65 1479.59 Q1879.52 1479.59 1881.73 1481.4 Q1883.93 1483.2 1883.93 1486.31 Q1883.93 1488.53 1882.66 1490.08 Q1881.41 1491.62 1879.17 1492.18 Q1881.71 1492.77 1883.11 1494.49 Q1884.54 1496.21 1884.54 1498.69 Q1884.54 1502.46 1882.23 1504.47 Q1879.94 1506.48 1875.65 1506.48 Q1871.36 1506.48 1869.05 1504.47 Q1866.76 1502.46 1866.76 1498.69 Q1866.76 1496.21 1868.18 1494.49 Q1869.61 1492.77 1872.14 1492.18 M1870.86 1486.64 Q1870.86 1488.65 1872.11 1489.78 Q1873.38 1490.91 1875.65 1490.91 Q1877.91 1490.91 1879.17 1489.78 Q1880.46 1488.65 1880.46 1486.64 Q1880.46 1484.63 1879.17 1483.5 Q1877.91 1482.37 1875.65 1482.37 Q1873.38 1482.37 1872.11 1483.5 Q1870.86 1484.63 1870.86 1486.64 Z" fill="#4c4c4c" fill-rule="evenodd" fill-opacity="1" /><path clip-path="url(#clip350)" d="M1898.27 1482.37 Q1895.56 1482.37 1894.19 1485.04 Q1892.84 1487.7 1892.84 1493.05 Q1892.84 1498.38 1894.19 1501.05 Q1895.56 1503.71 1898.27 1503.71 Q1901 1503.71 1902.35 1501.05 Q1903.72 1498.38 1903.72 1493.05 Q1903.72 1487.7 1902.35 1485.04 Q1901 1482.37 1898.27 1482.37 M1898.27 1479.59 Q1902.63 1479.59 1904.92 1483.05 Q1907.23 1486.48 1907.23 1493.05 Q1907.23 1499.59 1904.92 1503.05 Q1902.63 1506.48 1898.27 1506.48 Q1893.91 1506.48 1891.6 1503.05 Q1889.31 1499.59 1889.31 1493.05 Q1889.31 1486.48 1891.6 1483.05 Q1893.91 1479.59 1898.27 1479.59 Z" fill="#4c4c4c" fill-rule="evenodd" fill-opacity="1" /><path clip-path="url(#clip350)" d="M2070.85 1505.44 L2070.85 1502.25 Q2072.16 1502.87 2073.52 1503.2 Q2074.87 1503.53 2076.18 1503.53 Q2079.65 1503.53 2081.47 1501.21 Q2083.31 1498.86 2083.57 1494.1 Q2082.56 1495.6 2081.02 1496.4 Q2079.47 1497.2 2077.6 1497.2 Q2073.71 1497.2 2071.44 1494.85 Q2069.18 1492.49 2069.18 1488.41 Q2069.18 1484.42 2071.54 1482 Q2073.9 1479.59 2077.82 1479.59 Q2082.32 1479.59 2084.68 1483.05 Q2087.06 1486.48 2087.06 1493.05 Q2087.06 1499.17 2084.14 1502.84 Q2081.24 1506.48 2076.33 1506.48 Q2075.01 1506.48 2073.66 1506.22 Q2072.3 1505.96 2070.85 1505.44 M2077.82 1494.45 Q2080.19 1494.45 2081.56 1492.84 Q2082.95 1491.22 2082.95 1488.41 Q2082.95 1485.62 2081.56 1484 Q2080.19 1482.37 2077.82 1482.37 Q2075.46 1482.37 2074.07 1484 Q2072.7 1485.62 2072.7 1488.41 Q2072.7 1491.22 2074.07 1492.84 Q2075.46 1494.45 2077.82 1494.45 Z" fill="#4c4c4c" fill-rule="evenodd" fill-opacity="1" /><path clip-path="url(#clip350)" d="M2100.86 1482.37 Q2098.15 1482.37 2096.78 1485.04 Q2095.43 1487.7 2095.43 1493.05 Q2095.43 1498.38 2096.78 1501.05 Q2098.15 1503.71 2100.86 1503.71 Q2103.59 1503.71 2104.94 1501.05 Q2106.31 1498.38 2106.31 1493.05 Q2106.31 1487.7 2104.94 1485.04 Q2103.59 1482.37 2100.86 1482.37 M2100.86 1479.59 Q2105.22 1479.59 2107.51 1483.05 Q2109.82 1486.48 2109.82 1493.05 Q2109.82 1499.59 2107.51 1503.05 Q2105.22 1506.48 2100.86 1506.48 Q2096.5 1506.48 2094.2 1503.05 Q2091.9 1499.59 2091.9 1493.05 Q2091.9 1486.48 2094.2 1483.05 Q2096.5 1479.59 2100.86 1479.59 Z" fill="#4c4c4c" fill-rule="evenodd" fill-opacity="1" /><path clip-path="url(#clip350)" d="M2261.71 1503.03 L2267.44 1503.03 L2267.44 1483.25 L2261.21 1484.5 L2261.21 1481.31 L2267.4 1480.06 L2270.91 1480.06 L2270.91 1503.03 L2276.64 1503.03 L2276.64 1505.98 L2261.71 1505.98 L2261.71 1503.03 Z" fill="#4c4c4c" fill-rule="evenodd" fill-opacity="1" /><path clip-path="url(#clip350)" d="M2291.22 1482.37 Q2288.51 1482.37 2287.14 1485.04 Q2285.79 1487.7 2285.79 1493.05 Q2285.79 1498.38 2287.14 1501.05 Q2288.51 1503.71 2291.22 1503.71 Q2293.95 1503.71 2295.3 1501.05 Q2296.67 1498.38 2296.67 1493.05 Q2296.67 1487.7 2295.3 1485.04 Q2293.95 1482.37 2291.22 1482.37 M2291.22 1479.59 Q2295.58 1479.59 2297.87 1483.05 Q2300.18 1486.48 2300.18 1493.05 Q2300.18 1499.59 2297.87 1503.05 Q2295.58 1506.48 2291.22 1506.48 Q2286.87 1506.48 2284.56 1503.05 Q2282.26 1499.59 2282.26 1493.05 Q2282.26 1486.48 2284.56 1483.05 Q2286.87 1479.59 2291.22 1479.59 Z" fill="#4c4c4c" fill-rule="evenodd" fill-opacity="1" /><path clip-path="url(#clip350)" d="M2313.84 1482.37 Q2311.14 1482.37 2309.76 1485.04 Q2308.41 1487.7 2308.41 1493.05 Q2308.41 1498.38 2309.76 1501.05 Q2311.14 1503.71 2313.84 1503.71 Q2316.57 1503.71 2317.92 1501.05 Q2319.3 1498.38 2319.3 1493.05 Q2319.3 1487.7 2317.92 1485.04 Q2316.57 1482.37 2313.84 1482.37 M2313.84 1479.59 Q2318.2 1479.59 2320.49 1483.05 Q2322.8 1486.48 2322.8 1493.05 Q2322.8 1499.59 2320.49 1503.05 Q2318.2 1506.48 2313.84 1506.48 Q2309.49 1506.48 2307.18 1503.05 Q2304.89 1499.59 2304.89 1493.05 Q2304.89 1486.48 2307.18 1483.05 Q2309.49 1479.59 2313.84 1479.59 Z" fill="#4c4c4c" fill-rule="evenodd" fill-opacity="1" /><path clip-path="url(#clip350)" d="M1170.07 1526.57 L1174.75 1526.57 L1174.75 1561.13 L1170.07 1561.13 L1170.07 1526.57 Z" fill="#000000" fill-rule="evenodd" fill-opacity="1" /><path clip-path="url(#clip350)" d="M1188.08 1527.84 L1188.08 1535.21 L1196.85 1535.21 L1196.85 1538.52 L1188.08 1538.52 L1188.08 1552.59 Q1188.08 1555.76 1188.94 1556.66 Q1189.82 1557.57 1192.48 1557.57 L1196.85 1557.57 L1196.85 1561.13 L1192.48 1561.13 Q1187.55 1561.13 1185.67 1559.3 Q1183.8 1557.45 1183.8 1552.59 L1183.8 1538.52 L1180.67 1538.52 L1180.67 1535.21 L1183.8 1535.21 L1183.8 1527.84 L1188.08 1527.84 Z" fill="#000000" fill-rule="evenodd" fill-opacity="1" /><path clip-path="url(#clip350)" d="M1224.63 1547.1 L1224.63 1549.19 L1205.05 1549.19 Q1205.33 1553.59 1207.69 1555.9 Q1210.07 1558.19 1214.31 1558.19 Q1216.76 1558.19 1219.05 1557.59 Q1221.37 1556.99 1223.64 1555.78 L1223.64 1559.81 Q1221.34 1560.78 1218.94 1561.29 Q1216.53 1561.8 1214.05 1561.8 Q1207.85 1561.8 1204.22 1558.19 Q1200.6 1554.58 1200.6 1548.42 Q1200.6 1542.06 1204.03 1538.33 Q1207.48 1534.58 1213.31 1534.58 Q1218.54 1534.58 1221.58 1537.96 Q1224.63 1541.32 1224.63 1547.1 M1220.37 1545.85 Q1220.33 1542.36 1218.4 1540.28 Q1216.51 1538.19 1213.36 1538.19 Q1209.79 1538.19 1207.64 1540.21 Q1205.51 1542.22 1205.19 1545.88 L1220.37 1545.85 Z" fill="#000000" fill-rule="evenodd" fill-opacity="1" /><path clip-path="url(#clip350)" d="M1246.65 1539.19 Q1245.93 1538.77 1245.07 1538.59 Q1244.24 1538.38 1243.22 1538.38 Q1239.61 1538.38 1237.66 1540.74 Q1235.74 1543.08 1235.74 1547.47 L1235.74 1561.13 L1231.46 1561.13 L1231.46 1535.21 L1235.74 1535.21 L1235.74 1539.23 Q1237.09 1536.87 1239.24 1535.74 Q1241.39 1534.58 1244.47 1534.58 Q1244.91 1534.58 1245.44 1534.65 Q1245.97 1534.7 1246.62 1534.81 L1246.65 1539.19 Z" fill="#000000" fill-rule="evenodd" fill-opacity="1" /><path clip-path="url(#clip350)" d="M1262.9 1548.1 Q1257.73 1548.1 1255.74 1549.28 Q1253.75 1550.46 1253.75 1553.31 Q1253.75 1555.58 1255.23 1556.92 Q1256.74 1558.24 1259.31 1558.24 Q1262.85 1558.24 1264.98 1555.74 Q1267.13 1553.22 1267.13 1549.05 L1267.13 1548.1 L1262.9 1548.1 M1271.39 1546.34 L1271.39 1561.13 L1267.13 1561.13 L1267.13 1557.2 Q1265.67 1559.56 1263.5 1560.69 Q1261.32 1561.8 1258.17 1561.8 Q1254.19 1561.8 1251.83 1559.58 Q1249.49 1557.34 1249.49 1553.59 Q1249.49 1549.21 1252.41 1546.99 Q1255.35 1544.77 1261.16 1544.77 L1267.13 1544.77 L1267.13 1544.35 Q1267.13 1541.41 1265.19 1539.81 Q1263.27 1538.19 1259.77 1538.19 Q1257.55 1538.19 1255.44 1538.72 Q1253.34 1539.26 1251.39 1540.32 L1251.39 1536.39 Q1253.73 1535.48 1255.93 1535.04 Q1258.13 1534.58 1260.21 1534.58 Q1265.84 1534.58 1268.61 1537.5 Q1271.39 1540.41 1271.39 1546.34 Z" fill="#000000" fill-rule="evenodd" fill-opacity="1" /><path clip-path="url(#clip350)" d="M1284.38 1527.84 L1284.38 1535.21 L1293.15 1535.21 L1293.15 1538.52 L1284.38 1538.52 L1284.38 1552.59 Q1284.38 1555.76 1285.23 1556.66 Q1286.11 1557.57 1288.77 1557.57 L1293.15 1557.57 L1293.15 1561.13 L1288.77 1561.13 Q1283.84 1561.13 1281.97 1559.3 Q1280.09 1557.45 1280.09 1552.59 L1280.09 1538.52 L1276.97 1538.52 L1276.97 1535.21 L1280.09 1535.21 L1280.09 1527.84 L1284.38 1527.84 Z" fill="#000000" fill-rule="evenodd" fill-opacity="1" /><path clip-path="url(#clip350)" d="M1298.75 1535.21 L1303.01 1535.21 L1303.01 1561.13 L1298.75 1561.13 L1298.75 1535.21 M1298.75 1525.11 L1303.01 1525.11 L1303.01 1530.51 L1298.75 1530.51 L1298.75 1525.11 Z" fill="#000000" fill-rule="evenodd" fill-opacity="1" /><path clip-path="url(#clip350)" d="M1321.97 1538.19 Q1318.54 1538.19 1316.55 1540.88 Q1314.56 1543.54 1314.56 1548.19 Q1314.56 1552.84 1316.53 1555.53 Q1318.52 1558.19 1321.97 1558.19 Q1325.37 1558.19 1327.36 1555.51 Q1329.35 1552.82 1329.35 1548.19 Q1329.35 1543.59 1327.36 1540.9 Q1325.37 1538.19 1321.97 1538.19 M1321.97 1534.58 Q1327.52 1534.58 1330.7 1538.19 Q1333.87 1541.8 1333.87 1548.19 Q1333.87 1554.56 1330.7 1558.19 Q1327.52 1561.8 1321.97 1561.8 Q1316.39 1561.8 1313.22 1558.19 Q1310.07 1554.56 1310.07 1548.19 Q1310.07 1541.8 1313.22 1538.19 Q1316.39 1534.58 1321.97 1534.58 Z" fill="#000000" fill-rule="evenodd" fill-opacity="1" /><path clip-path="url(#clip350)" d="M1362.48 1545.48 L1362.48 1561.13 L1358.22 1561.13 L1358.22 1545.62 Q1358.22 1541.94 1356.78 1540.11 Q1355.35 1538.28 1352.48 1538.28 Q1349.03 1538.28 1347.04 1540.48 Q1345.05 1542.68 1345.05 1546.48 L1345.05 1561.13 L1340.77 1561.13 L1340.77 1535.21 L1345.05 1535.21 L1345.05 1539.23 Q1346.58 1536.9 1348.64 1535.74 Q1350.72 1534.58 1353.43 1534.58 Q1357.89 1534.58 1360.19 1537.36 Q1362.48 1540.11 1362.48 1545.48 Z" fill="#000000" fill-rule="evenodd" fill-opacity="1" /><path clip-path="url(#clip350)" d="M1387.5 1535.97 L1387.5 1540 Q1385.7 1539.07 1383.75 1538.61 Q1381.81 1538.15 1379.72 1538.15 Q1376.55 1538.15 1374.95 1539.12 Q1373.38 1540.09 1373.38 1542.03 Q1373.38 1543.52 1374.52 1544.37 Q1375.65 1545.21 1379.08 1545.97 L1380.53 1546.29 Q1385.07 1547.27 1386.97 1549.05 Q1388.89 1550.81 1388.89 1553.98 Q1388.89 1557.59 1386.02 1559.7 Q1383.17 1561.8 1378.17 1561.8 Q1376.09 1561.8 1373.82 1561.39 Q1371.58 1560.99 1369.08 1560.18 L1369.08 1555.78 Q1371.44 1557.01 1373.73 1557.64 Q1376.02 1558.24 1378.27 1558.24 Q1381.27 1558.24 1382.89 1557.22 Q1384.52 1556.18 1384.52 1554.3 Q1384.52 1552.57 1383.33 1551.64 Q1382.18 1550.72 1378.22 1549.86 L1376.74 1549.51 Q1372.78 1548.68 1371.02 1546.97 Q1369.26 1545.23 1369.26 1542.22 Q1369.26 1538.56 1371.85 1536.57 Q1374.45 1534.58 1379.21 1534.58 Q1381.58 1534.58 1383.66 1534.93 Q1385.74 1535.28 1387.5 1535.97 Z" fill="#000000" fill-rule="evenodd" fill-opacity="1" /><polyline clip-path="url(#clip352)" style="stroke:#ffffff; stroke-linecap:butt; stroke-linejoin:round; stroke-width:4; stroke-opacity:1; fill:none" points="
  206.206,1356.77 2352.76,1356.77 
  "/>
<polyline clip-path="url(#clip352)" style="stroke:#ffffff; stroke-linecap:butt; stroke-linejoin:round; stroke-width:4; stroke-opacity:1; fill:none" points="
  206.206,1101.04 2352.76,1101.04 
  "/>
<polyline clip-path="url(#clip352)" style="stroke:#ffffff; stroke-linecap:butt; stroke-linejoin:round; stroke-width:4; stroke-opacity:1; fill:none" points="
  206.206,845.302 2352.76,845.302 
  "/>
<polyline clip-path="url(#clip352)" style="stroke:#ffffff; stroke-linecap:butt; stroke-linejoin:round; stroke-width:4; stroke-opacity:1; fill:none" points="
  206.206,589.567 2352.76,589.567 
  "/>
<polyline clip-path="url(#clip352)" style="stroke:#ffffff; stroke-linecap:butt; stroke-linejoin:round; stroke-width:4; stroke-opacity:1; fill:none" points="
  206.206,333.832 2352.76,333.832 
  "/>
<polyline clip-path="url(#clip352)" style="stroke:#ffffff; stroke-linecap:butt; stroke-linejoin:round; stroke-width:2; stroke-opacity:1; fill:none" points="
  206.206,1228.9 2352.76,1228.9 
  "/>
<polyline clip-path="url(#clip352)" style="stroke:#ffffff; stroke-linecap:butt; stroke-linejoin:round; stroke-width:2; stroke-opacity:1; fill:none" points="
  206.206,973.169 2352.76,973.169 
  "/>
<polyline clip-path="url(#clip352)" style="stroke:#ffffff; stroke-linecap:butt; stroke-linejoin:round; stroke-width:2; stroke-opacity:1; fill:none" points="
  206.206,717.434 2352.76,717.434 
  "/>
<polyline clip-path="url(#clip352)" style="stroke:#ffffff; stroke-linecap:butt; stroke-linejoin:round; stroke-width:2; stroke-opacity:1; fill:none" points="
  206.206,461.699 2352.76,461.699 
  "/>
<polyline clip-path="url(#clip352)" style="stroke:#ffffff; stroke-linecap:butt; stroke-linejoin:round; stroke-width:2; stroke-opacity:1; fill:none" points="
  206.206,205.965 2352.76,205.965 
  "/>
<polyline clip-path="url(#clip350)" style="stroke:#ffffff; stroke-linecap:butt; stroke-linejoin:round; stroke-width:4; stroke-opacity:1; fill:none" points="
  206.206,1444.78 206.206,106.192 
  "/>
<polyline clip-path="url(#clip350)" style="stroke:#333333; stroke-linecap:butt; stroke-linejoin:round; stroke-width:4; stroke-opacity:1; fill:none" points="
  206.206,1356.77 187.308,1356.77 
  "/>
<polyline clip-path="url(#clip350)" style="stroke:#333333; stroke-linecap:butt; stroke-linejoin:round; stroke-width:4; stroke-opacity:1; fill:none" points="
  206.206,1101.04 187.308,1101.04 
  "/>
<polyline clip-path="url(#clip350)" style="stroke:#333333; stroke-linecap:butt; stroke-linejoin:round; stroke-width:4; stroke-opacity:1; fill:none" points="
  206.206,845.302 187.308,845.302 
  "/>
<polyline clip-path="url(#clip350)" style="stroke:#333333; stroke-linecap:butt; stroke-linejoin:round; stroke-width:4; stroke-opacity:1; fill:none" points="
  206.206,589.567 187.308,589.567 
  "/>
<polyline clip-path="url(#clip350)" style="stroke:#333333; stroke-linecap:butt; stroke-linejoin:round; stroke-width:4; stroke-opacity:1; fill:none" points="
  206.206,333.832 187.308,333.832 
  "/>
<polyline clip-path="url(#clip350)" style="stroke:#333333; stroke-linecap:butt; stroke-linejoin:round; stroke-width:4; stroke-opacity:1; fill:none" points="
  206.206,1228.9 196.757,1228.9 
  "/>
<polyline clip-path="url(#clip350)" style="stroke:#333333; stroke-linecap:butt; stroke-linejoin:round; stroke-width:4; stroke-opacity:1; fill:none" points="
  206.206,973.169 196.757,973.169 
  "/>
<polyline clip-path="url(#clip350)" style="stroke:#333333; stroke-linecap:butt; stroke-linejoin:round; stroke-width:4; stroke-opacity:1; fill:none" points="
  206.206,717.434 196.757,717.434 
  "/>
<polyline clip-path="url(#clip350)" style="stroke:#333333; stroke-linecap:butt; stroke-linejoin:round; stroke-width:4; stroke-opacity:1; fill:none" points="
  206.206,461.699 196.757,461.699 
  "/>
<polyline clip-path="url(#clip350)" style="stroke:#333333; stroke-linecap:butt; stroke-linejoin:round; stroke-width:4; stroke-opacity:1; fill:none" points="
  206.206,205.965 196.757,205.965 
  "/>
<path clip-path="url(#clip350)" d="M84.0467 1357.11 L106.304 1357.11 L106.304 1360.06 L84.0467 1360.06 L84.0467 1357.11 Z" fill="#4c4c4c" fill-rule="evenodd" fill-opacity="1" /><path clip-path="url(#clip350)" d="M112.987 1343.81 L129.654 1343.81 L129.654 1345.3 L120.244 1369.73 L116.581 1369.73 L125.435 1346.76 L112.987 1346.76 L112.987 1343.81 Z" fill="#4c4c4c" fill-rule="evenodd" fill-opacity="1" /><path clip-path="url(#clip350)" d="M136.529 1343.81 L150.296 1343.81 L150.296 1346.76 L139.741 1346.76 L139.741 1353.12 Q140.505 1352.86 141.269 1352.73 Q142.032 1352.6 142.796 1352.6 Q147.137 1352.6 149.671 1354.97 Q152.206 1357.35 152.206 1361.42 Q152.206 1365.6 149.602 1367.93 Q146.998 1370.23 142.258 1370.23 Q140.626 1370.23 138.925 1369.96 Q137.241 1369.68 135.435 1369.12 L135.435 1365.6 Q136.998 1366.45 138.664 1366.87 Q140.331 1367.28 142.189 1367.28 Q145.192 1367.28 146.946 1365.7 Q148.699 1364.12 148.699 1361.42 Q148.699 1358.71 146.946 1357.13 Q145.192 1355.55 142.189 1355.55 Q140.782 1355.55 139.376 1355.86 Q137.987 1356.17 136.529 1356.83 L136.529 1343.81 Z" fill="#4c4c4c" fill-rule="evenodd" fill-opacity="1" /><path clip-path="url(#clip350)" d="M83.3002 1101.37 L105.557 1101.37 L105.557 1104.33 L83.3002 1104.33 L83.3002 1101.37 Z" fill="#4c4c4c" fill-rule="evenodd" fill-opacity="1" /><path clip-path="url(#clip350)" d="M112.241 1088.08 L128.908 1088.08 L128.908 1089.57 L119.498 1114 L115.835 1114 L124.689 1091.03 L112.241 1091.03 L112.241 1088.08 Z" fill="#4c4c4c" fill-rule="evenodd" fill-opacity="1" /><path clip-path="url(#clip350)" d="M143.248 1090.39 Q140.539 1090.39 139.168 1093.06 Q137.814 1095.72 137.814 1101.06 Q137.814 1106.39 139.168 1109.07 Q140.539 1111.72 143.248 1111.72 Q145.973 1111.72 147.328 1109.07 Q148.699 1106.39 148.699 1101.06 Q148.699 1095.72 147.328 1093.06 Q145.973 1090.39 143.248 1090.39 M143.248 1087.61 Q147.605 1087.61 149.897 1091.06 Q152.206 1094.5 152.206 1101.06 Q152.206 1107.61 149.897 1111.06 Q147.605 1114.5 143.248 1114.5 Q138.89 1114.5 136.581 1111.06 Q134.289 1107.61 134.289 1101.06 Q134.289 1094.5 136.581 1091.06 Q138.89 1087.61 143.248 1087.61 Z" fill="#4c4c4c" fill-rule="evenodd" fill-opacity="1" /><path clip-path="url(#clip350)" d="M84.0467 845.64 L106.304 845.64 L106.304 848.592 L84.0467 848.592 L84.0467 845.64 Z" fill="#4c4c4c" fill-rule="evenodd" fill-opacity="1" /><path clip-path="url(#clip350)" d="M121.807 843.904 Q119.446 843.904 118.057 845.519 Q116.685 847.133 116.685 849.946 Q116.685 852.741 118.057 854.373 Q119.446 855.987 121.807 855.987 Q124.168 855.987 125.54 854.373 Q126.928 852.741 126.928 849.946 Q126.928 847.133 125.54 845.519 Q124.168 843.904 121.807 843.904 M128.769 832.915 L128.769 836.109 Q127.449 835.484 126.095 835.154 Q124.758 834.824 123.439 834.824 Q119.967 834.824 118.126 837.168 Q116.303 839.512 116.043 844.251 Q117.067 842.741 118.612 841.942 Q120.158 841.126 122.015 841.126 Q125.921 841.126 128.178 843.505 Q130.453 845.866 130.453 849.946 Q130.453 853.939 128.092 856.352 Q125.73 858.765 121.807 858.765 Q117.31 858.765 114.932 855.328 Q112.553 851.873 112.553 845.328 Q112.553 839.182 115.47 835.536 Q118.387 831.873 123.3 831.873 Q124.619 831.873 125.956 832.133 Q127.31 832.394 128.769 832.915 Z" fill="#4c4c4c" fill-rule="evenodd" fill-opacity="1" /><path clip-path="url(#clip350)" d="M136.529 832.342 L150.296 832.342 L150.296 835.293 L139.741 835.293 L139.741 841.647 Q140.505 841.387 141.269 841.265 Q142.032 841.126 142.796 841.126 Q147.137 841.126 149.671 843.505 Q152.206 845.883 152.206 849.946 Q152.206 854.13 149.602 856.456 Q146.998 858.765 142.258 858.765 Q140.626 858.765 138.925 858.487 Q137.241 858.21 135.435 857.654 L135.435 854.13 Q136.998 854.98 138.664 855.397 Q140.331 855.814 142.189 855.814 Q145.192 855.814 146.946 854.234 Q148.699 852.654 148.699 849.946 Q148.699 847.237 146.946 845.657 Q145.192 844.078 142.189 844.078 Q140.782 844.078 139.376 844.39 Q137.987 844.703 136.529 845.362 L136.529 832.342 Z" fill="#4c4c4c" fill-rule="evenodd" fill-opacity="1" /><path clip-path="url(#clip350)" d="M83.3002 589.905 L105.557 589.905 L105.557 592.857 L83.3002 592.857 L83.3002 589.905 Z" fill="#4c4c4c" fill-rule="evenodd" fill-opacity="1" /><path clip-path="url(#clip350)" d="M121.06 588.169 Q118.699 588.169 117.31 589.784 Q115.939 591.398 115.939 594.211 Q115.939 597.006 117.31 598.638 Q118.699 600.252 121.06 600.252 Q123.421 600.252 124.793 598.638 Q126.182 597.006 126.182 594.211 Q126.182 591.398 124.793 589.784 Q123.421 588.169 121.06 588.169 M128.022 577.18 L128.022 580.374 Q126.703 579.749 125.349 579.419 Q124.012 579.089 122.692 579.089 Q119.22 579.089 117.38 581.433 Q115.557 583.777 115.297 588.516 Q116.321 587.006 117.866 586.207 Q119.411 585.391 121.269 585.391 Q125.175 585.391 127.432 587.77 Q129.706 590.131 129.706 594.211 Q129.706 598.204 127.345 600.617 Q124.984 603.03 121.06 603.03 Q116.564 603.03 114.185 599.593 Q111.807 596.138 111.807 589.593 Q111.807 583.447 114.724 579.801 Q117.64 576.138 122.553 576.138 Q123.873 576.138 125.21 576.398 Q126.564 576.659 128.022 577.18 Z" fill="#4c4c4c" fill-rule="evenodd" fill-opacity="1" /><path clip-path="url(#clip350)" d="M143.248 578.916 Q140.539 578.916 139.168 581.589 Q137.814 584.246 137.814 589.593 Q137.814 594.923 139.168 597.596 Q140.539 600.252 143.248 600.252 Q145.973 600.252 147.328 597.596 Q148.699 594.923 148.699 589.593 Q148.699 584.246 147.328 581.589 Q145.973 578.916 143.248 578.916 M143.248 576.138 Q147.605 576.138 149.897 579.593 Q152.206 583.03 152.206 589.593 Q152.206 596.138 149.897 599.593 Q147.605 603.03 143.248 603.03 Q138.89 603.03 136.581 599.593 Q134.289 596.138 134.289 589.593 Q134.289 583.03 136.581 579.593 Q138.89 576.138 143.248 576.138 Z" fill="#4c4c4c" fill-rule="evenodd" fill-opacity="1" /><path clip-path="url(#clip350)" d="M84.0467 334.17 L106.304 334.17 L106.304 337.122 L84.0467 337.122 L84.0467 334.17 Z" fill="#4c4c4c" fill-rule="evenodd" fill-opacity="1" /><path clip-path="url(#clip350)" d="M113.908 320.872 L127.675 320.872 L127.675 323.823 L117.119 323.823 L117.119 330.177 Q117.883 329.917 118.647 329.795 Q119.411 329.657 120.175 329.657 Q124.515 329.657 127.05 332.035 Q129.585 334.414 129.585 338.476 Q129.585 342.66 126.98 344.986 Q124.376 347.295 119.637 347.295 Q118.005 347.295 116.303 347.018 Q114.619 346.74 112.814 346.184 L112.814 342.66 Q114.376 343.511 116.043 343.927 Q117.71 344.344 119.567 344.344 Q122.571 344.344 124.324 342.764 Q126.078 341.184 126.078 338.476 Q126.078 335.768 124.324 334.188 Q122.571 332.608 119.567 332.608 Q118.161 332.608 116.755 332.92 Q115.366 333.233 113.908 333.893 L113.908 320.872 Z" fill="#4c4c4c" fill-rule="evenodd" fill-opacity="1" /><path clip-path="url(#clip350)" d="M136.529 320.872 L150.296 320.872 L150.296 323.823 L139.741 323.823 L139.741 330.177 Q140.505 329.917 141.269 329.795 Q142.032 329.657 142.796 329.657 Q147.137 329.657 149.671 332.035 Q152.206 334.414 152.206 338.476 Q152.206 342.66 149.602 344.986 Q146.998 347.295 142.258 347.295 Q140.626 347.295 138.925 347.018 Q137.241 346.74 135.435 346.184 L135.435 342.66 Q136.998 343.511 138.664 343.927 Q140.331 344.344 142.189 344.344 Q145.192 344.344 146.946 342.764 Q148.699 341.184 148.699 338.476 Q148.699 335.768 146.946 334.188 Q145.192 332.608 142.189 332.608 Q140.782 332.608 139.376 332.92 Q137.987 333.233 136.529 333.893 L136.529 320.872 Z" fill="#4c4c4c" fill-rule="evenodd" fill-opacity="1" /><path clip-path="url(#clip350)" d="M20.3722 985.184 L20.3722 955.948 L24.3073 955.948 L24.3073 968.216 L54.9322 968.216 L54.9322 972.915 L24.3073 972.915 L24.3073 985.184 L20.3722 985.184 Z" fill="#000000" fill-rule="evenodd" fill-opacity="1" /><path clip-path="url(#clip350)" d="M40.9045 937.499 L42.9878 937.499 L42.9878 957.082 Q47.3859 956.804 49.7007 954.443 Q51.9924 952.059 51.9924 947.823 Q51.9924 945.369 51.3905 943.078 Q50.7887 940.763 49.585 938.494 L53.6127 938.494 Q54.5849 940.786 55.0942 943.193 Q55.6035 945.601 55.6035 948.078 Q55.6035 954.281 51.9924 957.916 Q48.3813 961.527 42.2239 961.527 Q35.8582 961.527 32.1314 958.101 Q28.3814 954.652 28.3814 948.818 Q28.3814 943.587 31.761 940.555 Q35.1174 937.499 40.9045 937.499 M39.6545 941.758 Q36.1591 941.805 34.0758 943.726 Q31.9925 945.624 31.9925 948.772 Q31.9925 952.337 34.0063 954.49 Q36.0202 956.619 39.6776 956.943 L39.6545 941.758 Z" fill="#000000" fill-rule="evenodd" fill-opacity="1" /><path clip-path="url(#clip350)" d="M29.7703 913.981 L33.798 913.981 Q32.8721 915.786 32.4091 917.731 Q31.9462 919.675 31.9462 921.758 Q31.9462 924.93 32.9184 926.527 Q33.8906 928.101 35.835 928.101 Q37.3165 928.101 38.173 926.967 Q39.0063 925.832 39.7702 922.406 L40.0943 920.948 Q41.0665 916.411 42.8489 914.513 Q44.6081 912.592 47.7794 912.592 Q51.3905 912.592 53.497 915.462 Q55.6035 918.309 55.6035 923.309 Q55.6035 925.393 55.1868 927.661 Q54.7933 929.906 53.9831 932.406 L49.585 932.406 Q50.8118 930.045 51.4368 927.754 Q52.0387 925.462 52.0387 923.217 Q52.0387 920.207 51.0201 918.587 Q49.9785 916.967 48.1035 916.967 Q46.3674 916.967 45.4415 918.147 Q44.5155 919.305 43.6591 923.263 L43.3118 924.744 Q42.4785 928.703 40.7656 930.462 Q39.0295 932.221 36.0202 932.221 Q32.3628 932.221 30.3721 929.629 Q28.3814 927.036 28.3814 922.268 Q28.3814 919.907 28.7286 917.823 Q29.0758 915.74 29.7703 913.981 Z" fill="#000000" fill-rule="evenodd" fill-opacity="1" /><path clip-path="url(#clip350)" d="M21.6453 901.596 L29.0064 901.596 L29.0064 892.823 L32.3165 892.823 L32.3165 901.596 L46.3905 901.596 Q49.5618 901.596 50.4646 900.74 Q51.3674 899.86 51.3674 897.198 L51.3674 892.823 L54.9322 892.823 L54.9322 897.198 Q54.9322 902.129 53.1035 904.004 Q51.2516 905.879 46.3905 905.879 L32.3165 905.879 L32.3165 909.004 L29.0064 909.004 L29.0064 905.879 L21.6453 905.879 L21.6453 901.596 Z" fill="#000000" fill-rule="evenodd" fill-opacity="1" /><path clip-path="url(#clip350)" d="M18.9138 872.152 L18.9138 867.893 L54.9322 867.893 L54.9322 872.152 L18.9138 872.152 Z" fill="#000000" fill-rule="evenodd" fill-opacity="1" /><path clip-path="url(#clip350)" d="M31.9925 848.935 Q31.9925 852.361 34.6776 854.351 Q37.3397 856.342 41.9924 856.342 Q46.6452 856.342 49.3303 854.374 Q51.9924 852.384 51.9924 848.935 Q51.9924 845.532 49.3072 843.541 Q46.622 841.55 41.9924 841.55 Q37.386 841.55 34.7008 843.541 Q31.9925 845.532 31.9925 848.935 M28.3814 848.935 Q28.3814 843.379 31.9925 840.208 Q35.6036 837.037 41.9924 837.037 Q48.3581 837.037 51.9924 840.208 Q55.6035 843.379 55.6035 848.935 Q55.6035 854.513 51.9924 857.685 Q48.3581 860.833 41.9924 860.833 Q35.6036 860.833 31.9925 857.685 Q28.3814 854.513 28.3814 848.935 Z" fill="#000000" fill-rule="evenodd" fill-opacity="1" /><path clip-path="url(#clip350)" d="M41.6683 812.916 Q37.0387 812.916 34.4925 814.838 Q31.9462 816.736 31.9462 820.185 Q31.9462 823.611 34.4925 825.532 Q37.0387 827.43 41.6683 827.43 Q46.2748 827.43 48.8211 825.532 Q51.3674 823.611 51.3674 820.185 Q51.3674 816.736 48.8211 814.838 Q46.2748 812.916 41.6683 812.916 M51.7146 808.657 Q58.3349 808.657 61.5525 811.597 Q64.7932 814.537 64.7932 820.601 Q64.7932 822.847 64.446 824.838 Q64.1219 826.828 63.4275 828.703 L59.284 828.703 Q60.3025 826.828 60.7886 825 Q61.2747 823.171 61.2747 821.273 Q61.2747 817.083 59.0757 815 Q56.8997 812.916 52.4785 812.916 L50.372 812.916 Q52.6637 814.236 53.7979 816.296 Q54.9322 818.356 54.9322 821.226 Q54.9322 825.995 51.2979 828.912 Q47.6637 831.828 41.6683 831.828 Q35.6499 831.828 32.0156 828.912 Q28.3814 825.995 28.3814 821.226 Q28.3814 818.356 29.5156 816.296 Q30.6499 814.236 32.9415 812.916 L29.0064 812.916 L29.0064 808.657 L51.7146 808.657 Z" fill="#000000" fill-rule="evenodd" fill-opacity="1" /><path clip-path="url(#clip350)" d="M40.048 802.037 L40.048 789.56 L43.8443 789.56 L43.8443 802.037 L40.048 802.037 Z" fill="#000000" fill-rule="evenodd" fill-opacity="1" /><path clip-path="url(#clip350)" d="M18.9138 782.778 L18.9138 778.518 L54.9322 778.518 L54.9322 782.778 L18.9138 782.778 Z" fill="#000000" fill-rule="evenodd" fill-opacity="1" /><path clip-path="url(#clip350)" d="M29.0064 769.606 L29.0064 765.347 L54.9322 765.347 L54.9322 769.606 L29.0064 769.606 M18.9138 769.606 L18.9138 765.347 L24.3073 765.347 L24.3073 769.606 L18.9138 769.606 Z" fill="#000000" fill-rule="evenodd" fill-opacity="1" /><path clip-path="url(#clip350)" d="M18.9138 756.597 L18.9138 752.315 L40.1869 752.315 L29.0064 739.607 L29.0064 734.167 L41.1359 747.917 L54.9322 733.588 L54.9322 739.144 L42.2702 752.315 L54.9322 752.315 L54.9322 756.597 L18.9138 756.597 Z" fill="#000000" fill-rule="evenodd" fill-opacity="1" /><path clip-path="url(#clip350)" d="M40.9045 708.496 L42.9878 708.496 L42.9878 728.079 Q47.3859 727.801 49.7007 725.44 Q51.9924 723.056 51.9924 718.82 Q51.9924 716.366 51.3905 714.074 Q50.7887 711.759 49.585 709.491 L53.6127 709.491 Q54.5849 711.783 55.0942 714.19 Q55.6035 716.597 55.6035 719.074 Q55.6035 725.278 51.9924 728.912 Q48.3813 732.523 42.2239 732.523 Q35.8582 732.523 32.1314 729.097 Q28.3814 725.648 28.3814 719.815 Q28.3814 714.584 31.761 711.551 Q35.1174 708.496 40.9045 708.496 M39.6545 712.755 Q36.1591 712.801 34.0758 714.722 Q31.9925 716.621 31.9925 719.769 Q31.9925 723.333 34.0063 725.486 Q36.0202 727.616 39.6776 727.94 L39.6545 712.755 Z" fill="#000000" fill-rule="evenodd" fill-opacity="1" /><path clip-path="url(#clip350)" d="M18.9138 701.505 L18.9138 697.246 L54.9322 697.246 L54.9322 701.505 L18.9138 701.505 Z" fill="#000000" fill-rule="evenodd" fill-opacity="1" /><path clip-path="url(#clip350)" d="M29.0064 688.334 L29.0064 684.074 L54.9322 684.074 L54.9322 688.334 L29.0064 688.334 M18.9138 688.334 L18.9138 684.074 L24.3073 684.074 L24.3073 688.334 L18.9138 688.334 Z" fill="#000000" fill-rule="evenodd" fill-opacity="1" /><path clip-path="url(#clip350)" d="M39.2841 653.612 L54.9322 653.612 L54.9322 657.871 L39.423 657.871 Q35.7424 657.871 33.9138 659.306 Q32.0851 660.741 32.0851 663.612 Q32.0851 667.061 34.2841 669.051 Q36.4832 671.042 40.2795 671.042 L54.9322 671.042 L54.9322 675.324 L18.9138 675.324 L18.9138 671.042 L33.0341 671.042 Q30.6962 669.514 29.5388 667.454 Q28.3814 665.371 28.3814 662.663 Q28.3814 658.195 31.1591 655.903 Q33.9138 653.612 39.2841 653.612 Z" fill="#000000" fill-rule="evenodd" fill-opacity="1" /><path clip-path="url(#clip350)" d="M31.9925 635.07 Q31.9925 638.496 34.6776 640.487 Q37.3397 642.477 41.9924 642.477 Q46.6452 642.477 49.3303 640.51 Q51.9924 638.519 51.9924 635.07 Q51.9924 631.667 49.3072 629.677 Q46.622 627.686 41.9924 627.686 Q37.386 627.686 34.7008 629.677 Q31.9925 631.667 31.9925 635.07 M28.3814 635.07 Q28.3814 629.515 31.9925 626.343 Q35.6036 623.172 41.9924 623.172 Q48.3581 623.172 51.9924 626.343 Q55.6035 629.515 55.6035 635.07 Q55.6035 640.649 51.9924 643.82 Q48.3581 646.968 41.9924 646.968 Q35.6036 646.968 31.9925 643.82 Q28.3814 640.649 28.3814 635.07 Z" fill="#000000" fill-rule="evenodd" fill-opacity="1" /><path clip-path="url(#clip350)" d="M31.9925 606.066 Q31.9925 609.492 34.6776 611.482 Q37.3397 613.473 41.9924 613.473 Q46.6452 613.473 49.3303 611.505 Q51.9924 609.515 51.9924 606.066 Q51.9924 602.663 49.3072 600.672 Q46.622 598.681 41.9924 598.681 Q37.386 598.681 34.7008 600.672 Q31.9925 602.663 31.9925 606.066 M28.3814 606.066 Q28.3814 600.51 31.9925 597.339 Q35.6036 594.168 41.9924 594.168 Q48.3581 594.168 51.9924 597.339 Q55.6035 600.51 55.6035 606.066 Q55.6035 611.644 51.9924 614.816 Q48.3581 617.964 41.9924 617.964 Q35.6036 617.964 31.9925 614.816 Q28.3814 611.644 28.3814 606.066 Z" fill="#000000" fill-rule="evenodd" fill-opacity="1" /><path clip-path="url(#clip350)" d="M32.9415 570.047 L18.9138 570.047 L18.9138 565.788 L54.9322 565.788 L54.9322 570.047 L51.0433 570.047 Q53.3581 571.39 54.4923 573.45 Q55.6035 575.487 55.6035 578.357 Q55.6035 583.056 51.8535 586.019 Q48.1035 588.959 41.9924 588.959 Q35.8813 588.959 32.1314 586.019 Q28.3814 583.056 28.3814 578.357 Q28.3814 575.487 29.5156 573.45 Q30.6267 571.39 32.9415 570.047 M41.9924 584.561 Q46.6915 584.561 49.3766 582.64 Q52.0387 580.695 52.0387 577.316 Q52.0387 573.936 49.3766 571.992 Q46.6915 570.047 41.9924 570.047 Q37.2934 570.047 34.6313 571.992 Q31.9462 573.936 31.9462 577.316 Q31.9462 580.695 34.6313 582.64 Q37.2934 584.561 41.9924 584.561 Z" fill="#000000" fill-rule="evenodd" fill-opacity="1" /><path clip-path="url(#clip350)" d="M1201.67 19.4328 L1207 19.4328 L1207 52.4187 Q1207 58.6108 1204.63 61.3886 Q1202.28 64.1663 1197.05 64.1663 L1195.02 64.1663 L1195.02 59.6525 L1196.44 59.6525 Q1199.48 59.6525 1200.58 58.2346 Q1201.67 56.8458 1201.67 52.4187 L1201.67 19.4328 M1201.67 6.81709 L1207 6.81709 L1207 13.559 L1201.67 13.559 L1201.67 6.81709 Z" fill="#000000" fill-rule="evenodd" fill-opacity="1" /><path clip-path="url(#clip350)" d="M1245.86 34.3054 L1245.86 36.9095 L1221.38 36.9095 Q1221.73 42.4072 1224.68 45.3007 Q1227.66 48.1653 1232.95 48.1653 Q1236.02 48.1653 1238.89 47.4129 Q1241.78 46.6606 1244.61 45.156 L1244.61 50.1907 Q1241.75 51.406 1238.74 52.0425 Q1235.73 52.6791 1232.64 52.6791 Q1224.88 52.6791 1220.34 48.1653 Q1215.82 43.6514 1215.82 35.9547 Q1215.82 27.9975 1220.11 23.339 Q1224.42 18.6515 1231.71 18.6515 Q1238.25 18.6515 1242.04 22.876 Q1245.86 27.0716 1245.86 34.3054 M1240.53 32.7429 Q1240.48 28.3737 1238.07 25.7695 Q1235.7 23.1654 1231.77 23.1654 Q1227.31 23.1654 1224.62 25.6827 Q1221.96 28.2001 1221.55 32.7718 L1240.53 32.7429 Z" fill="#000000" fill-rule="evenodd" fill-opacity="1" /><path clip-path="url(#clip350)" d="M1275.26 20.3876 L1275.26 25.4223 Q1273 24.2649 1270.57 23.6862 Q1268.14 23.1075 1265.53 23.1075 Q1261.57 23.1075 1259.57 24.3228 Q1257.61 25.5381 1257.61 27.9686 Q1257.61 29.8204 1259.02 30.891 Q1260.44 31.9327 1264.72 32.8876 L1266.55 33.2926 Q1272.22 34.5079 1274.59 36.7359 Q1276.99 38.935 1276.99 42.8991 Q1276.99 47.4129 1273.4 50.046 Q1269.85 52.6791 1263.6 52.6791 Q1260.99 52.6791 1258.16 52.1583 Q1255.35 51.6664 1252.22 50.6537 L1252.22 45.156 Q1255.18 46.6896 1258.04 47.4708 Q1260.9 48.2231 1263.71 48.2231 Q1267.47 48.2231 1269.5 46.95 Q1271.52 45.6479 1271.52 43.3042 Q1271.52 41.134 1270.05 39.9766 Q1268.6 38.8192 1263.65 37.7486 L1261.8 37.3146 Q1256.85 36.273 1254.65 34.1318 Q1252.46 31.9616 1252.46 28.2001 Q1252.46 23.6283 1255.7 21.1399 Q1258.94 18.6515 1264.9 18.6515 Q1267.85 18.6515 1270.45 19.0855 Q1273.06 19.5196 1275.26 20.3876 Z" fill="#000000" fill-rule="evenodd" fill-opacity="1" /><path clip-path="url(#clip350)" d="M1290.74 10.2314 L1290.74 19.4328 L1301.7 19.4328 L1301.7 23.5705 L1290.74 23.5705 L1290.74 41.163 Q1290.74 45.1271 1291.81 46.2555 Q1292.91 47.384 1296.23 47.384 L1301.7 47.384 L1301.7 51.84 L1296.23 51.84 Q1290.07 51.84 1287.73 49.5541 Q1285.38 47.2393 1285.38 41.163 L1285.38 23.5705 L1281.48 23.5705 L1281.48 19.4328 L1285.38 19.4328 L1285.38 10.2314 L1290.74 10.2314 Z" fill="#000000" fill-rule="evenodd" fill-opacity="1" /><path clip-path="url(#clip350)" d="M1336.43 34.3054 L1336.43 36.9095 L1311.95 36.9095 Q1312.29 42.4072 1315.24 45.3007 Q1318.22 48.1653 1323.52 48.1653 Q1326.59 48.1653 1329.45 47.4129 Q1332.35 46.6606 1335.18 45.156 L1335.18 50.1907 Q1332.32 51.406 1329.31 52.0425 Q1326.3 52.6791 1323.2 52.6791 Q1315.45 52.6791 1310.9 48.1653 Q1306.39 43.6514 1306.39 35.9547 Q1306.39 27.9975 1310.67 23.339 Q1314.98 18.6515 1322.28 18.6515 Q1328.82 18.6515 1332.61 22.876 Q1336.43 27.0716 1336.43 34.3054 M1331.1 32.7429 Q1331.04 28.3737 1328.64 25.7695 Q1326.27 23.1654 1322.33 23.1654 Q1317.88 23.1654 1315.19 25.6827 Q1312.52 28.2001 1312.12 32.7718 L1331.1 32.7429 Z" fill="#000000" fill-rule="evenodd" fill-opacity="1" /><path clip-path="url(#clip350)" d="M1363.94 24.4096 Q1363.05 23.8888 1361.97 23.6573 Q1360.93 23.3969 1359.66 23.3969 Q1355.15 23.3969 1352.72 26.3482 Q1350.31 29.2707 1350.31 34.7683 L1350.31 51.84 L1344.96 51.84 L1344.96 19.4328 L1350.31 19.4328 L1350.31 24.4675 Q1351.99 21.5161 1354.68 20.0983 Q1357.37 18.6515 1361.22 18.6515 Q1361.77 18.6515 1362.44 18.7383 Q1363.1 18.7962 1363.91 18.9409 L1363.94 24.4096 Z" fill="#000000" fill-rule="evenodd" fill-opacity="1" /><polyline clip-path="url(#clip352)" style="stroke:#e26f46; stroke-linecap:butt; stroke-linejoin:round; stroke-width:8; stroke-opacity:1; fill:none" points="
  307.458,1406.9 347.959,1406.9 388.46,1406.9 428.961,1406.9 469.462,1406.9 509.963,1406.9 550.464,1406.9 590.965,1406.9 631.466,1406.9 671.967,1406.9 
  712.468,1406.9 752.969,1406.9 793.47,1406.9 833.971,1406.9 874.472,1406.9 914.973,1406.9 955.473,1406.9 995.974,1406.9 1036.48,1406.9 1076.98,1406.9 
  1117.48,1406.9 1157.98,1406.9 1198.48,1406.9 1238.98,1406.9 1279.48,1406.9 1319.98,1406.9 1360.48,1406.9 1400.98,1406.9 1441.48,1406.9 1481.99,1406.9 
  1522.49,1406.9 1562.99,1406.9 1603.49,1406.9 1643.99,1406.9 1684.49,1406.9 1724.99,1406.9 1765.49,1406.9 1805.99,1406.9 1846.49,1406.9 1887,1406.9 
  1927.5,1406.9 1968,1406.9 2008.5,1406.9 2049,1406.9 2089.5,1406.9 2130,1406.9 2170.5,1406.9 2211,1406.9 2251.5,1406.9 2292,1406.9 
  
  "/>
<polyline clip-path="url(#clip352)" style="stroke:#3da44d; stroke-linecap:butt; stroke-linejoin:round; stroke-width:8; stroke-opacity:1; fill:none" points="
  307.458,335.366 347.959,335.366 388.46,335.366 428.961,335.366 469.462,335.366 509.963,335.366 550.464,335.366 590.965,335.366 631.466,335.366 671.967,335.366 
  712.468,335.366 752.969,335.366 793.47,335.366 833.971,335.366 874.472,335.366 914.973,335.366 955.473,335.366 995.974,335.366 1036.48,335.366 1076.98,335.366 
  1117.48,335.366 1157.98,335.366 1198.48,335.366 1238.98,335.366 1279.48,335.366 1319.98,335.366 1360.48,335.366 1400.98,335.366 1441.48,335.366 1481.99,335.366 
  1522.49,335.366 1562.99,335.366 1603.49,335.366 1643.99,335.366 1684.49,335.366 1724.99,335.366 1765.49,335.366 1805.99,335.366 1846.49,335.366 1887,335.366 
  1927.5,335.366 1968,335.366 2008.5,335.366 2049,335.366 2089.5,335.366 2130,335.366 2170.5,335.366 2211,335.366 2251.5,335.366 2292,335.366 
  
  "/>
<polyline clip-path="url(#clip352)" style="stroke:#c271d2; stroke-linecap:butt; stroke-linejoin:round; stroke-width:8; stroke-opacity:1; fill:none" points="
  307.458,144.077 347.959,144.077 388.46,144.077 428.961,144.077 469.462,144.077 509.963,144.077 550.464,144.077 590.965,144.077 631.466,144.077 671.967,144.077 
  712.468,144.077 752.969,144.077 793.47,144.077 833.971,144.077 874.472,144.077 914.973,144.077 955.473,144.077 995.974,144.077 1036.48,144.077 1076.98,144.077 
  1117.48,144.077 1157.98,144.077 1198.48,144.077 1238.98,144.077 1279.48,144.077 1319.98,144.077 1360.48,144.077 1400.98,144.077 1441.48,144.077 1481.99,144.077 
  1522.49,144.077 1562.99,144.077 1603.49,144.077 1643.99,144.077 1684.49,144.077 1724.99,144.077 1765.49,144.077 1805.99,144.077 1846.49,144.077 1887,144.077 
  1927.5,144.077 1968,144.077 2008.5,144.077 2049,144.077 2089.5,144.077 2130,144.077 2170.5,144.077 2211,144.077 2251.5,144.077 2292,144.077 
  
  "/>
<polyline clip-path="url(#clip352)" style="stroke:#ac8d18; stroke-linecap:butt; stroke-linejoin:round; stroke-width:8; stroke-opacity:1; fill:none" points="
  307.458,253.531 347.959,253.531 388.46,253.531 428.961,253.531 469.462,253.531 509.963,253.531 550.464,253.531 590.965,253.531 631.466,253.531 671.967,253.531 
  712.468,253.531 752.969,253.531 793.47,253.531 833.971,253.531 874.472,253.531 914.973,253.531 955.473,253.531 995.974,253.531 1036.48,253.531 1076.98,253.531 
  1117.48,253.531 1157.98,253.531 1198.48,253.531 1238.98,253.531 1279.48,253.531 1319.98,253.531 1360.48,253.531 1400.98,253.531 1441.48,253.531 1481.99,253.531 
  1522.49,253.531 1562.99,253.531 1603.49,253.531 1643.99,253.531 1684.49,253.531 1724.99,253.531 1765.49,253.531 1805.99,253.531 1846.49,253.531 1887,253.531 
  1927.5,253.531 1968,253.531 2008.5,253.531 2049,253.531 2089.5,253.531 2130,253.531 2170.5,253.531 2211,253.531 2251.5,253.531 2292,253.531 
  
  "/>
<polyline clip-path="url(#clip352)" style="stroke:#00a9ad; stroke-linecap:butt; stroke-linejoin:round; stroke-width:8; stroke-opacity:1; fill:none" points="
  307.458,221.309 347.959,221.309 388.46,221.309 428.961,221.309 469.462,221.309 509.963,221.309 550.464,221.309 590.965,221.309 631.466,221.309 671.967,221.309 
  712.468,221.309 752.969,221.309 793.47,221.309 833.971,221.309 874.472,221.309 914.973,221.309 955.473,221.309 995.974,221.309 1036.48,221.309 1076.98,221.309 
  1117.48,221.309 1157.98,221.309 1198.48,221.309 1238.98,221.309 1279.48,221.309 1319.98,221.309 1360.48,221.309 1400.98,221.309 1441.48,221.309 1481.99,221.309 
  1522.49,221.309 1562.99,221.309 1603.49,221.309 1643.99,221.309 1684.49,221.309 1724.99,221.309 1765.49,221.309 1805.99,221.309 1846.49,221.309 1887,221.309 
  1927.5,221.309 1968,221.309 2008.5,221.309 2049,221.309 2089.5,221.309 2130,221.309 2170.5,221.309 2211,221.309 2251.5,221.309 2292,221.309 
  
  "/>
<polyline clip-path="url(#clip352)" style="stroke:#009af9; stroke-linecap:butt; stroke-linejoin:round; stroke-width:12; stroke-opacity:1; fill:none" points="
  307.458,311.742 347.959,279.373 388.46,279.279 428.961,270.518 469.462,259.375 509.963,249.904 550.464,253.101 590.965,249.523 631.466,244.976 671.967,242.643 
  712.468,259.008 752.969,255.206 793.47,247.495 833.971,253.015 874.472,243.395 914.973,244.294 955.473,246.289 995.974,240.544 1036.48,241.354 1076.98,237.336 
  1117.48,235.613 1157.98,236.816 1198.48,236.513 1238.98,234.694 1279.48,234.751 1319.98,234.529 1360.48,232.883 1400.98,233.127 1441.48,232.075 1481.99,233.015 
  1522.49,231.666 1562.99,232.962 1603.49,231.402 1643.99,231.279 1684.49,232.014 1724.99,231.982 1765.49,232.484 1805.99,231.727 1846.49,231.424 1887,230.939 
  1927.5,230.594 1968,230.935 2008.5,230.969 2049,230.292 2089.5,230.211 2130,230.342 2170.5,230.445 2211,230.964 2251.5,230.387 2292,230.387 
  
  "/>
</svg>
