<?xml version="1.0" encoding="utf-8"?>
<svg xmlns="http://www.w3.org/2000/svg" xmlns:xlink="http://www.w3.org/1999/xlink" width="600" height="400" viewBox="0 0 2400 1600">
<defs>
  <clipPath id="clip730">
    <rect x="0" y="0" width="2400" height="1600"/>
  </clipPath>
</defs>
<path clip-path="url(#clip730)" d="
M0 1600 L2400 1600 L2400 0 L0 0  Z
  " fill="#ffffff" fill-rule="evenodd" fill-opacity="1"/>
<defs>
  <clipPath id="clip731">
    <rect x="480" y="0" width="1681" height="1600"/>
  </clipPath>
</defs>
<path clip-path="url(#clip730)" d="
M316.442 1422.18 L2352.76 1422.18 L2352.76 106.192 L316.442 106.192  Z
  " fill="#eaeaea" fill-rule="evenodd" fill-opacity="1"/>
<defs>
  <clipPath id="clip732">
    <rect x="316" y="106" width="2037" height="1317"/>
  </clipPath>
</defs>
<polyline clip-path="url(#clip732)" style="stroke:#ffffff; stroke-linecap:butt; stroke-linejoin:round; stroke-width:4; stroke-opacity:1; fill:none" points="
  374.074,1422.18 374.074,106.192 
  "/>
<polyline clip-path="url(#clip732)" style="stroke:#ffffff; stroke-linecap:butt; stroke-linejoin:round; stroke-width:4; stroke-opacity:1; fill:none" points="
  521.847,1422.18 521.847,106.192 
  "/>
<polyline clip-path="url(#clip732)" style="stroke:#ffffff; stroke-linecap:butt; stroke-linejoin:round; stroke-width:4; stroke-opacity:1; fill:none" points="
  669.62,1422.18 669.62,106.192 
  "/>
<polyline clip-path="url(#clip732)" style="stroke:#ffffff; stroke-linecap:butt; stroke-linejoin:round; stroke-width:4; stroke-opacity:1; fill:none" points="
  817.393,1422.18 817.393,106.192 
  "/>
<polyline clip-path="url(#clip732)" style="stroke:#ffffff; stroke-linecap:butt; stroke-linejoin:round; stroke-width:4; stroke-opacity:1; fill:none" points="
  965.166,1422.18 965.166,106.192 
  "/>
<polyline clip-path="url(#clip732)" style="stroke:#ffffff; stroke-linecap:butt; stroke-linejoin:round; stroke-width:4; stroke-opacity:1; fill:none" points="
  1112.94,1422.18 1112.94,106.192 
  "/>
<polyline clip-path="url(#clip732)" style="stroke:#ffffff; stroke-linecap:butt; stroke-linejoin:round; stroke-width:4; stroke-opacity:1; fill:none" points="
  1260.71,1422.18 1260.71,106.192 
  "/>
<polyline clip-path="url(#clip732)" style="stroke:#ffffff; stroke-linecap:butt; stroke-linejoin:round; stroke-width:4; stroke-opacity:1; fill:none" points="
  1408.49,1422.18 1408.49,106.192 
  "/>
<polyline clip-path="url(#clip732)" style="stroke:#ffffff; stroke-linecap:butt; stroke-linejoin:round; stroke-width:4; stroke-opacity:1; fill:none" points="
  1556.26,1422.18 1556.26,106.192 
  "/>
<polyline clip-path="url(#clip732)" style="stroke:#ffffff; stroke-linecap:butt; stroke-linejoin:round; stroke-width:4; stroke-opacity:1; fill:none" points="
  1704.03,1422.18 1704.03,106.192 
  "/>
<polyline clip-path="url(#clip732)" style="stroke:#ffffff; stroke-linecap:butt; stroke-linejoin:round; stroke-width:4; stroke-opacity:1; fill:none" points="
  1851.81,1422.18 1851.81,106.192 
  "/>
<polyline clip-path="url(#clip732)" style="stroke:#ffffff; stroke-linecap:butt; stroke-linejoin:round; stroke-width:4; stroke-opacity:1; fill:none" points="
  1999.58,1422.18 1999.58,106.192 
  "/>
<polyline clip-path="url(#clip732)" style="stroke:#ffffff; stroke-linecap:butt; stroke-linejoin:round; stroke-width:4; stroke-opacity:1; fill:none" points="
  2147.35,1422.18 2147.35,106.192 
  "/>
<polyline clip-path="url(#clip732)" style="stroke:#ffffff; stroke-linecap:butt; stroke-linejoin:round; stroke-width:4; stroke-opacity:1; fill:none" points="
  2295.12,1422.18 2295.12,106.192 
  "/>
<polyline clip-path="url(#clip732)" style="stroke:#ffffff; stroke-linecap:butt; stroke-linejoin:round; stroke-width:2; stroke-opacity:1; fill:none" points="
  447.96,1422.18 447.96,106.192 
  "/>
<polyline clip-path="url(#clip732)" style="stroke:#ffffff; stroke-linecap:butt; stroke-linejoin:round; stroke-width:2; stroke-opacity:1; fill:none" points="
  595.733,1422.18 595.733,106.192 
  "/>
<polyline clip-path="url(#clip732)" style="stroke:#ffffff; stroke-linecap:butt; stroke-linejoin:round; stroke-width:2; stroke-opacity:1; fill:none" points="
  743.507,1422.18 743.507,106.192 
  "/>
<polyline clip-path="url(#clip732)" style="stroke:#ffffff; stroke-linecap:butt; stroke-linejoin:round; stroke-width:2; stroke-opacity:1; fill:none" points="
  891.28,1422.18 891.28,106.192 
  "/>
<polyline clip-path="url(#clip732)" style="stroke:#ffffff; stroke-linecap:butt; stroke-linejoin:round; stroke-width:2; stroke-opacity:1; fill:none" points="
  1039.05,1422.18 1039.05,106.192 
  "/>
<polyline clip-path="url(#clip732)" style="stroke:#ffffff; stroke-linecap:butt; stroke-linejoin:round; stroke-width:2; stroke-opacity:1; fill:none" points="
  1186.83,1422.18 1186.83,106.192 
  "/>
<polyline clip-path="url(#clip732)" style="stroke:#ffffff; stroke-linecap:butt; stroke-linejoin:round; stroke-width:2; stroke-opacity:1; fill:none" points="
  1334.6,1422.18 1334.6,106.192 
  "/>
<polyline clip-path="url(#clip732)" style="stroke:#ffffff; stroke-linecap:butt; stroke-linejoin:round; stroke-width:2; stroke-opacity:1; fill:none" points="
  1482.37,1422.18 1482.37,106.192 
  "/>
<polyline clip-path="url(#clip732)" style="stroke:#ffffff; stroke-linecap:butt; stroke-linejoin:round; stroke-width:2; stroke-opacity:1; fill:none" points="
  1630.15,1422.18 1630.15,106.192 
  "/>
<polyline clip-path="url(#clip732)" style="stroke:#ffffff; stroke-linecap:butt; stroke-linejoin:round; stroke-width:2; stroke-opacity:1; fill:none" points="
  1777.92,1422.18 1777.92,106.192 
  "/>
<polyline clip-path="url(#clip732)" style="stroke:#ffffff; stroke-linecap:butt; stroke-linejoin:round; stroke-width:2; stroke-opacity:1; fill:none" points="
  1925.69,1422.18 1925.69,106.192 
  "/>
<polyline clip-path="url(#clip732)" style="stroke:#ffffff; stroke-linecap:butt; stroke-linejoin:round; stroke-width:2; stroke-opacity:1; fill:none" points="
  2073.46,1422.18 2073.46,106.192 
  "/>
<polyline clip-path="url(#clip732)" style="stroke:#ffffff; stroke-linecap:butt; stroke-linejoin:round; stroke-width:2; stroke-opacity:1; fill:none" points="
  2221.24,1422.18 2221.24,106.192 
  "/>
<polyline clip-path="url(#clip730)" style="stroke:#ffffff; stroke-linecap:butt; stroke-linejoin:round; stroke-width:4; stroke-opacity:1; fill:none" points="
  316.442,1422.18 2352.76,1422.18 
  "/>
<polyline clip-path="url(#clip730)" style="stroke:#333333; stroke-linecap:butt; stroke-linejoin:round; stroke-width:4; stroke-opacity:1; fill:none" points="
  374.074,1422.18 374.074,1441.07 
  "/>
<polyline clip-path="url(#clip730)" style="stroke:#333333; stroke-linecap:butt; stroke-linejoin:round; stroke-width:4; stroke-opacity:1; fill:none" points="
  521.847,1422.18 521.847,1441.07 
  "/>
<polyline clip-path="url(#clip730)" style="stroke:#333333; stroke-linecap:butt; stroke-linejoin:round; stroke-width:4; stroke-opacity:1; fill:none" points="
  669.62,1422.18 669.62,1441.07 
  "/>
<polyline clip-path="url(#clip730)" style="stroke:#333333; stroke-linecap:butt; stroke-linejoin:round; stroke-width:4; stroke-opacity:1; fill:none" points="
  817.393,1422.18 817.393,1441.07 
  "/>
<polyline clip-path="url(#clip730)" style="stroke:#333333; stroke-linecap:butt; stroke-linejoin:round; stroke-width:4; stroke-opacity:1; fill:none" points="
  965.166,1422.18 965.166,1441.07 
  "/>
<polyline clip-path="url(#clip730)" style="stroke:#333333; stroke-linecap:butt; stroke-linejoin:round; stroke-width:4; stroke-opacity:1; fill:none" points="
  1112.94,1422.18 1112.94,1441.07 
  "/>
<polyline clip-path="url(#clip730)" style="stroke:#333333; stroke-linecap:butt; stroke-linejoin:round; stroke-width:4; stroke-opacity:1; fill:none" points="
  1260.71,1422.18 1260.71,1441.07 
  "/>
<polyline clip-path="url(#clip730)" style="stroke:#333333; stroke-linecap:butt; stroke-linejoin:round; stroke-width:4; stroke-opacity:1; fill:none" points="
  1408.49,1422.18 1408.49,1441.07 
  "/>
<polyline clip-path="url(#clip730)" style="stroke:#333333; stroke-linecap:butt; stroke-linejoin:round; stroke-width:4; stroke-opacity:1; fill:none" points="
  1556.26,1422.18 1556.26,1441.07 
  "/>
<polyline clip-path="url(#clip730)" style="stroke:#333333; stroke-linecap:butt; stroke-linejoin:round; stroke-width:4; stroke-opacity:1; fill:none" points="
  1704.03,1422.18 1704.03,1441.07 
  "/>
<polyline clip-path="url(#clip730)" style="stroke:#333333; stroke-linecap:butt; stroke-linejoin:round; stroke-width:4; stroke-opacity:1; fill:none" points="
  1851.81,1422.18 1851.81,1441.07 
  "/>
<polyline clip-path="url(#clip730)" style="stroke:#333333; stroke-linecap:butt; stroke-linejoin:round; stroke-width:4; stroke-opacity:1; fill:none" points="
  1999.58,1422.18 1999.58,1441.07 
  "/>
<polyline clip-path="url(#clip730)" style="stroke:#333333; stroke-linecap:butt; stroke-linejoin:round; stroke-width:4; stroke-opacity:1; fill:none" points="
  2147.35,1422.18 2147.35,1441.07 
  "/>
<polyline clip-path="url(#clip730)" style="stroke:#333333; stroke-linecap:butt; stroke-linejoin:round; stroke-width:4; stroke-opacity:1; fill:none" points="
  2295.12,1422.18 2295.12,1441.07 
  "/>
<polyline clip-path="url(#clip730)" style="stroke:#333333; stroke-linecap:butt; stroke-linejoin:round; stroke-width:4; stroke-opacity:1; fill:none" points="
  447.96,1422.18 447.96,1431.63 
  "/>
<polyline clip-path="url(#clip730)" style="stroke:#333333; stroke-linecap:butt; stroke-linejoin:round; stroke-width:4; stroke-opacity:1; fill:none" points="
  595.733,1422.18 595.733,1431.63 
  "/>
<polyline clip-path="url(#clip730)" style="stroke:#333333; stroke-linecap:butt; stroke-linejoin:round; stroke-width:4; stroke-opacity:1; fill:none" points="
  743.507,1422.18 743.507,1431.63 
  "/>
<polyline clip-path="url(#clip730)" style="stroke:#333333; stroke-linecap:butt; stroke-linejoin:round; stroke-width:4; stroke-opacity:1; fill:none" points="
  891.28,1422.18 891.28,1431.63 
  "/>
<polyline clip-path="url(#clip730)" style="stroke:#333333; stroke-linecap:butt; stroke-linejoin:round; stroke-width:4; stroke-opacity:1; fill:none" points="
  1039.05,1422.18 1039.05,1431.63 
  "/>
<polyline clip-path="url(#clip730)" style="stroke:#333333; stroke-linecap:butt; stroke-linejoin:round; stroke-width:4; stroke-opacity:1; fill:none" points="
  1186.83,1422.18 1186.83,1431.63 
  "/>
<polyline clip-path="url(#clip730)" style="stroke:#333333; stroke-linecap:butt; stroke-linejoin:round; stroke-width:4; stroke-opacity:1; fill:none" points="
  1334.6,1422.18 1334.6,1431.63 
  "/>
<polyline clip-path="url(#clip730)" style="stroke:#333333; stroke-linecap:butt; stroke-linejoin:round; stroke-width:4; stroke-opacity:1; fill:none" points="
  1482.37,1422.18 1482.37,1431.63 
  "/>
<polyline clip-path="url(#clip730)" style="stroke:#333333; stroke-linecap:butt; stroke-linejoin:round; stroke-width:4; stroke-opacity:1; fill:none" points="
  1630.15,1422.18 1630.15,1431.63 
  "/>
<polyline clip-path="url(#clip730)" style="stroke:#333333; stroke-linecap:butt; stroke-linejoin:round; stroke-width:4; stroke-opacity:1; fill:none" points="
  1777.92,1422.18 1777.92,1431.63 
  "/>
<polyline clip-path="url(#clip730)" style="stroke:#333333; stroke-linecap:butt; stroke-linejoin:round; stroke-width:4; stroke-opacity:1; fill:none" points="
  1925.69,1422.18 1925.69,1431.63 
  "/>
<polyline clip-path="url(#clip730)" style="stroke:#333333; stroke-linecap:butt; stroke-linejoin:round; stroke-width:4; stroke-opacity:1; fill:none" points="
  2073.46,1422.18 2073.46,1431.63 
  "/>
<polyline clip-path="url(#clip730)" style="stroke:#333333; stroke-linecap:butt; stroke-linejoin:round; stroke-width:4; stroke-opacity:1; fill:none" points="
  2221.24,1422.18 2221.24,1431.63 
  "/>
<path clip-path="url(#clip730)" d="M387.777 1463.13 Q386.423 1460.78 383.422 1460.93 Q380.444 1461.09 375.813 1463.76 Q371.198 1466.43 369.559 1468.94 Q367.945 1471.45 369.299 1473.8 Q370.662 1476.16 373.639 1476 Q376.64 1475.85 381.256 1473.19 Q385.887 1470.52 387.501 1468 Q389.14 1465.49 387.777 1463.13 M390.183 1461.74 Q392.361 1465.51 390.515 1469.23 Q388.693 1472.94 383.01 1476.23 Q377.341 1479.5 373.195 1479.23 Q369.072 1478.96 366.893 1475.19 Q364.714 1471.41 366.537 1467.69 Q368.383 1463.98 374.051 1460.71 Q379.734 1457.43 383.857 1457.69 Q388.004 1457.97 390.183 1461.74 Z" fill="#4c4c4c" fill-rule="evenodd" fill-opacity="1" /><path clip-path="url(#clip730)" d="M513.431 1466.14 L516.295 1471.1 L533.42 1461.21 L529.222 1456.44 L531.988 1454.84 L536.17 1459.58 L537.923 1462.62 L518.032 1474.11 L520.896 1479.07 L518.34 1480.54 L510.875 1467.61 L513.431 1466.14 Z" fill="#4c4c4c" fill-rule="evenodd" fill-opacity="1" /><path clip-path="url(#clip730)" d="M546.08 1481.37 Q544.725 1479.02 541.724 1479.17 Q538.747 1479.33 534.116 1482 Q529.5 1484.66 527.862 1487.17 Q526.247 1489.69 527.601 1492.04 Q528.964 1494.4 531.942 1494.24 Q534.943 1494.09 539.559 1491.43 Q544.189 1488.75 545.804 1486.24 Q547.442 1483.73 546.08 1481.37 M548.485 1479.98 Q550.664 1483.75 548.818 1487.46 Q546.995 1491.18 541.312 1494.46 Q535.644 1497.74 531.497 1497.46 Q527.375 1497.2 525.196 1493.42 Q523.017 1489.65 524.839 1485.93 Q526.686 1482.22 532.354 1478.95 Q538.037 1475.67 542.16 1475.93 Q546.306 1476.2 548.485 1479.98 Z" fill="#4c4c4c" fill-rule="evenodd" fill-opacity="1" /><path clip-path="url(#clip730)" d="M663.062 1469.35 L669.181 1479.95 L666.625 1481.43 L658.396 1467.18 L660.952 1465.7 Q663.74 1466.4 668.465 1467.64 Q673.215 1468.89 674.53 1469.15 Q677.011 1469.66 678.468 1469.58 Q679.949 1469.51 681.047 1468.87 Q682.836 1467.84 683.234 1465.93 Q683.642 1464.03 682.478 1462.01 Q681.654 1460.59 680.237 1459.28 Q678.83 1457.99 676.781 1456.76 L679.848 1454.99 Q681.644 1456.4 682.94 1457.78 Q684.236 1459.15 685 1460.48 Q687.014 1463.97 686.467 1467.05 Q685.921 1470.13 683.004 1471.81 Q681.621 1472.61 680.069 1472.81 Q678.541 1473.01 676.068 1472.61 Q675.415 1472.49 672.161 1471.68 Q668.923 1470.86 663.062 1469.35 Z" fill="#4c4c4c" fill-rule="evenodd" fill-opacity="1" /><path clip-path="url(#clip730)" d="M694.504 1482.49 Q693.15 1480.15 690.148 1480.3 Q687.171 1480.45 682.54 1483.13 Q677.924 1485.79 676.286 1488.3 Q674.671 1490.82 676.026 1493.16 Q677.388 1495.52 680.366 1495.37 Q683.367 1495.22 687.983 1492.55 Q692.614 1489.88 694.228 1487.36 Q695.867 1484.86 694.504 1482.49 M696.909 1481.11 Q699.088 1484.88 697.242 1488.59 Q695.42 1492.31 689.736 1495.59 Q684.068 1498.86 679.922 1498.59 Q675.799 1498.33 673.62 1494.55 Q671.441 1490.78 673.264 1487.06 Q675.11 1483.35 680.778 1480.08 Q686.461 1476.79 690.584 1477.06 Q694.73 1477.33 696.909 1481.11 Z" fill="#4c4c4c" fill-rule="evenodd" fill-opacity="1" /><path clip-path="url(#clip730)" d="M824.132 1470.34 Q824.925 1472.79 824.154 1474.86 Q823.393 1476.94 821.228 1478.19 Q817.905 1480.11 814.766 1478.87 Q811.628 1477.64 809.197 1473.43 Q808.381 1472.01 807.799 1470.35 Q807.21 1468.7 806.846 1466.79 L809.778 1465.09 Q809.77 1466.78 810.262 1468.5 Q810.755 1470.22 811.701 1471.86 Q813.35 1474.72 815.337 1475.56 Q817.333 1476.41 819.483 1475.17 Q821.467 1474.02 821.773 1471.98 Q822.102 1469.95 820.67 1467.47 L819.159 1464.85 L821.655 1463.41 L823.235 1466.14 Q824.528 1468.38 826.101 1469.06 Q827.689 1469.73 829.373 1468.76 Q831.102 1467.76 831.307 1465.99 Q831.536 1464.24 830.217 1461.95 Q829.496 1460.71 828.401 1459.43 Q827.306 1458.16 825.745 1456.78 L828.451 1455.21 Q829.931 1456.67 831.039 1458.03 Q832.156 1459.41 832.929 1460.75 Q834.926 1464.21 834.51 1467.13 Q834.11 1470.05 831.433 1471.6 Q829.569 1472.67 827.66 1472.35 Q825.765 1472.02 824.132 1470.34 Z" fill="#4c4c4c" fill-rule="evenodd" fill-opacity="1" /><path clip-path="url(#clip730)" d="M842.225 1482.4 Q840.871 1480.06 837.869 1480.21 Q834.892 1480.36 830.261 1483.04 Q825.645 1485.7 824.007 1488.21 Q822.392 1490.73 823.747 1493.07 Q825.109 1495.43 828.087 1495.28 Q831.088 1495.13 835.704 1492.46 Q840.335 1489.79 841.949 1487.27 Q843.588 1484.76 842.225 1482.4 M844.63 1481.02 Q846.809 1484.79 844.963 1488.5 Q843.141 1492.22 837.457 1495.5 Q831.789 1498.77 827.643 1498.5 Q823.52 1498.24 821.341 1494.46 Q819.162 1490.69 820.985 1486.97 Q822.831 1483.26 828.499 1479.98 Q834.182 1476.7 838.305 1476.97 Q842.452 1477.24 844.63 1481.02 Z" fill="#4c4c4c" fill-rule="evenodd" fill-opacity="1" /><path clip-path="url(#clip730)" d="M979.594 1465.88 L963.184 1465.13 L967.611 1472.8 L979.594 1465.88 M981.781 1463.55 L983.985 1467.37 L969.356 1475.82 L971.205 1479.02 L968.679 1480.48 L966.83 1477.28 L961.538 1480.33 L959.793 1477.31 L965.086 1474.25 L959.235 1464.12 L962.167 1462.43 L981.781 1463.55 Z" fill="#4c4c4c" fill-rule="evenodd" fill-opacity="1" /><path clip-path="url(#clip730)" d="M990.484 1483.25 Q989.13 1480.9 986.129 1481.05 Q983.151 1481.21 978.52 1483.88 Q973.905 1486.54 972.266 1489.05 Q970.652 1491.57 972.006 1493.91 Q973.369 1496.28 976.346 1496.12 Q979.347 1495.97 983.963 1493.31 Q988.594 1490.63 990.208 1488.12 Q991.847 1485.61 990.484 1483.25 M992.89 1481.86 Q995.068 1485.63 993.222 1489.34 Q991.4 1493.06 985.717 1496.34 Q980.048 1499.62 975.902 1499.34 Q971.779 1499.08 969.6 1495.3 Q967.421 1491.53 969.244 1487.81 Q971.09 1484.1 976.758 1480.83 Q982.442 1477.55 986.564 1477.81 Q990.711 1478.08 992.89 1481.86 Z" fill="#4c4c4c" fill-rule="evenodd" fill-opacity="1" /><path clip-path="url(#clip730)" d="M1124.71 1455.16 L1131.59 1467.09 L1129.04 1468.56 L1123.76 1459.42 L1118.26 1462.6 Q1118.86 1463.13 1119.35 1463.73 Q1119.85 1464.32 1120.24 1464.98 Q1122.41 1468.74 1121.61 1472.13 Q1120.82 1475.51 1117.3 1477.54 Q1113.68 1479.63 1110.36 1478.54 Q1107.06 1477.44 1104.69 1473.34 Q1103.88 1471.92 1103.27 1470.31 Q1102.66 1468.71 1102.24 1466.87 L1105.29 1465.11 Q1105.34 1466.89 1105.81 1468.54 Q1106.28 1470.19 1107.21 1471.8 Q1108.71 1474.4 1110.96 1475.13 Q1113.2 1475.86 1115.55 1474.51 Q1117.89 1473.15 1118.39 1470.84 Q1118.88 1468.53 1117.38 1465.93 Q1116.67 1464.72 1115.7 1463.65 Q1114.73 1462.61 1113.43 1461.67 L1124.71 1455.16 Z" fill="#4c4c4c" fill-rule="evenodd" fill-opacity="1" /><path clip-path="url(#clip730)" d="M1137.75 1482.37 Q1136.4 1480.03 1133.4 1480.18 Q1130.42 1480.33 1125.79 1483.01 Q1121.17 1485.67 1119.54 1488.18 Q1117.92 1490.7 1119.28 1493.04 Q1120.64 1495.4 1123.62 1495.25 Q1126.62 1495.1 1131.23 1492.43 Q1135.86 1489.76 1137.48 1487.24 Q1139.12 1484.73 1137.75 1482.37 M1140.16 1480.99 Q1142.34 1484.76 1140.49 1488.47 Q1138.67 1492.19 1132.99 1495.47 Q1127.32 1498.74 1123.17 1498.47 Q1119.05 1498.21 1116.87 1494.43 Q1114.69 1490.66 1116.51 1486.94 Q1118.36 1483.23 1124.03 1479.95 Q1129.71 1476.67 1133.83 1476.94 Q1137.98 1477.21 1140.16 1480.99 Z" fill="#4c4c4c" fill-rule="evenodd" fill-opacity="1" /><path clip-path="url(#clip730)" d="M1266.55 1468.01 Q1265.37 1465.97 1263.28 1465.57 Q1261.19 1465.19 1258.76 1466.6 Q1256.34 1467.99 1255.61 1470 Q1254.9 1472.01 1256.09 1474.05 Q1257.27 1476.1 1259.35 1476.48 Q1261.46 1476.87 1263.88 1475.47 Q1266.31 1474.06 1267.02 1472.05 Q1267.73 1470.06 1266.55 1468.01 M1279.55 1468.55 L1276.78 1470.14 Q1276.66 1468.69 1276.27 1467.35 Q1275.89 1466.03 1275.23 1464.89 Q1273.49 1461.88 1270.54 1461.46 Q1267.6 1461.05 1263.37 1463.19 Q1265.19 1463.33 1266.65 1464.26 Q1268.13 1465.19 1269.06 1466.8 Q1271.01 1470.19 1270.08 1473.33 Q1269.17 1476.48 1265.64 1478.52 Q1262.18 1480.52 1258.91 1479.68 Q1255.64 1478.84 1253.68 1475.44 Q1251.43 1471.55 1253.22 1467.77 Q1255.02 1463.98 1260.69 1460.71 Q1266.01 1457.64 1270.63 1458.34 Q1275.26 1459.03 1277.72 1463.29 Q1278.38 1464.43 1278.82 1465.72 Q1279.27 1467.02 1279.55 1468.55 Z" fill="#4c4c4c" fill-rule="evenodd" fill-opacity="1" /><path clip-path="url(#clip730)" d="M1285.66 1482.6 Q1284.3 1480.25 1281.3 1480.4 Q1278.32 1480.56 1273.69 1483.23 Q1269.08 1485.9 1267.44 1488.41 Q1265.82 1490.92 1267.18 1493.27 Q1268.54 1495.63 1271.52 1495.47 Q1274.52 1495.32 1279.14 1492.66 Q1283.77 1489.99 1285.38 1487.47 Q1287.02 1484.96 1285.66 1482.6 M1288.06 1481.21 Q1290.24 1484.98 1288.4 1488.7 Q1286.57 1492.42 1280.89 1495.7 Q1275.22 1498.97 1271.07 1498.7 Q1266.95 1498.43 1264.77 1494.66 Q1262.59 1490.88 1264.42 1487.16 Q1266.26 1483.45 1271.93 1480.18 Q1277.61 1476.9 1281.74 1477.16 Q1285.88 1477.44 1288.06 1481.21 Z" fill="#4c4c4c" fill-rule="evenodd" fill-opacity="1" /><path clip-path="url(#clip730)" d="M1419.71 1454.22 L1428.04 1468.65 L1426.75 1469.4 L1400.89 1473.46 L1399.06 1470.29 L1423.38 1466.47 L1417.15 1455.69 L1419.71 1454.22 Z" fill="#4c4c4c" fill-rule="evenodd" fill-opacity="1" /><path clip-path="url(#clip730)" d="M1433.21 1482.22 Q1431.86 1479.88 1428.86 1480.03 Q1425.88 1480.18 1421.25 1482.86 Q1416.63 1485.52 1415 1488.03 Q1413.38 1490.55 1414.73 1492.89 Q1416.1 1495.25 1419.08 1495.1 Q1422.08 1494.95 1426.69 1492.28 Q1431.32 1489.61 1432.94 1487.09 Q1434.58 1484.58 1433.21 1482.22 M1435.62 1480.84 Q1437.8 1484.61 1435.95 1488.32 Q1434.13 1492.04 1428.45 1495.32 Q1422.78 1498.59 1418.63 1498.32 Q1414.51 1498.06 1412.33 1494.28 Q1410.15 1490.51 1411.97 1486.79 Q1413.82 1483.08 1419.49 1479.8 Q1425.17 1476.52 1429.29 1476.79 Q1433.44 1477.06 1435.62 1480.84 Z" fill="#4c4c4c" fill-rule="evenodd" fill-opacity="1" /><path clip-path="url(#clip730)" d="M1560.14 1468.72 Q1558.89 1466.56 1557.01 1465.98 Q1555.14 1465.41 1553.11 1466.58 Q1551.08 1467.76 1550.64 1469.66 Q1550.2 1471.57 1551.45 1473.74 Q1552.7 1475.9 1554.58 1476.48 Q1556.47 1477.05 1558.49 1475.89 Q1560.51 1474.72 1560.95 1472.8 Q1561.4 1470.9 1560.14 1468.72 M1559.68 1464.94 Q1559.03 1462.7 1559.74 1460.83 Q1560.45 1458.98 1562.37 1457.87 Q1565.06 1456.31 1567.73 1457.32 Q1570.41 1458.34 1572.33 1461.68 Q1574.27 1465.03 1573.81 1467.85 Q1573.35 1470.66 1570.65 1472.21 Q1568.73 1473.32 1566.76 1473 Q1564.8 1472.69 1563.19 1471.03 Q1563.95 1473.52 1563.17 1475.59 Q1562.39 1477.69 1560.24 1478.93 Q1556.98 1480.81 1554.08 1479.82 Q1551.19 1478.84 1549.04 1475.13 Q1546.9 1471.41 1547.49 1468.41 Q1548.09 1465.41 1551.35 1463.53 Q1553.5 1462.29 1555.7 1462.66 Q1557.9 1463.04 1559.68 1464.94 M1563.83 1461.06 Q1562.09 1462.06 1561.74 1463.71 Q1561.39 1465.37 1562.53 1467.34 Q1563.66 1469.29 1565.27 1469.83 Q1566.89 1470.38 1568.63 1469.37 Q1570.38 1468.36 1570.71 1466.69 Q1571.06 1465.02 1569.93 1463.07 Q1568.79 1461.1 1567.18 1460.57 Q1565.58 1460.05 1563.83 1461.06 Z" fill="#4c4c4c" fill-rule="evenodd" fill-opacity="1" /><path clip-path="url(#clip730)" d="M1581.24 1482.66 Q1579.88 1480.31 1576.88 1480.46 Q1573.91 1480.62 1569.27 1483.29 Q1564.66 1485.96 1563.02 1488.47 Q1561.41 1490.98 1562.76 1493.33 Q1564.12 1495.69 1567.1 1495.53 Q1570.1 1495.38 1574.72 1492.72 Q1579.35 1490.05 1580.96 1487.53 Q1582.6 1485.02 1581.24 1482.66 M1583.64 1481.27 Q1585.82 1485.04 1583.98 1488.76 Q1582.15 1492.48 1576.47 1495.76 Q1570.8 1499.03 1566.66 1498.76 Q1562.53 1498.49 1560.35 1494.72 Q1558.18 1490.94 1560 1487.23 Q1561.84 1483.51 1567.51 1480.24 Q1573.2 1476.96 1577.32 1477.23 Q1581.46 1477.5 1583.64 1481.27 Z" fill="#4c4c4c" fill-rule="evenodd" fill-opacity="1" /><path clip-path="url(#clip730)" d="M1694.11 1468.35 L1696.87 1466.75 Q1696.99 1468.21 1697.38 1469.55 Q1697.78 1470.88 1698.43 1472.01 Q1700.16 1475.02 1703.09 1475.43 Q1706.04 1475.86 1710.29 1473.7 Q1708.49 1473.58 1707.03 1472.64 Q1705.56 1471.7 1704.63 1470.08 Q1702.68 1466.71 1703.57 1463.57 Q1704.49 1460.43 1708.02 1458.39 Q1711.48 1456.4 1714.75 1457.23 Q1718.02 1458.07 1719.98 1461.47 Q1722.23 1465.36 1720.42 1469.14 Q1718.63 1472.91 1712.95 1476.2 Q1707.64 1479.26 1703.01 1478.57 Q1698.41 1477.88 1695.95 1473.62 Q1695.29 1472.48 1694.84 1471.18 Q1694.39 1469.87 1694.11 1468.35 M1707.11 1468.9 Q1708.29 1470.95 1710.38 1471.33 Q1712.47 1471.72 1714.91 1470.32 Q1717.33 1468.92 1718.03 1466.91 Q1718.76 1464.9 1717.58 1462.86 Q1716.4 1460.81 1714.29 1460.43 Q1712.21 1460.05 1709.79 1461.44 Q1707.35 1462.85 1706.64 1464.85 Q1705.93 1466.86 1707.11 1468.9 Z" fill="#4c4c4c" fill-rule="evenodd" fill-opacity="1" /><path clip-path="url(#clip730)" d="M1729.1 1482.81 Q1727.74 1480.46 1724.74 1480.61 Q1721.77 1480.77 1717.13 1483.44 Q1712.52 1486.11 1710.88 1488.62 Q1709.27 1491.13 1710.62 1493.48 Q1711.98 1495.84 1714.96 1495.68 Q1717.96 1495.53 1722.58 1492.87 Q1727.21 1490.2 1728.82 1487.68 Q1730.46 1485.17 1729.1 1482.81 M1731.5 1481.42 Q1733.68 1485.2 1731.84 1488.91 Q1730.01 1492.63 1724.33 1495.91 Q1718.66 1499.18 1714.52 1498.91 Q1710.39 1498.64 1708.21 1494.87 Q1706.04 1491.09 1707.86 1487.38 Q1709.7 1483.66 1715.37 1480.39 Q1721.06 1477.11 1725.18 1477.38 Q1729.32 1477.65 1731.5 1481.42 Z" fill="#4c4c4c" fill-rule="evenodd" fill-opacity="1" /><path clip-path="url(#clip730)" d="M1843.39 1466.14 L1846.25 1471.1 L1863.38 1461.21 L1859.18 1456.44 L1861.95 1454.84 L1866.13 1459.58 L1867.88 1462.62 L1847.99 1474.11 L1850.85 1479.07 L1848.3 1480.54 L1840.83 1467.61 L1843.39 1466.14 Z" fill="#4c4c4c" fill-rule="evenodd" fill-opacity="1" /><path clip-path="url(#clip730)" d="M1876.04 1481.37 Q1874.68 1479.02 1871.68 1479.17 Q1868.7 1479.33 1864.07 1482 Q1859.46 1484.66 1857.82 1487.17 Q1856.21 1489.69 1857.56 1492.04 Q1858.92 1494.4 1861.9 1494.24 Q1864.9 1494.09 1869.52 1491.43 Q1874.15 1488.75 1875.76 1486.24 Q1877.4 1483.73 1876.04 1481.37 M1878.44 1479.98 Q1880.62 1483.75 1878.78 1487.46 Q1876.95 1491.18 1871.27 1494.46 Q1865.6 1497.74 1861.46 1497.46 Q1857.33 1497.2 1855.15 1493.42 Q1852.98 1489.65 1854.8 1485.93 Q1856.64 1482.22 1862.31 1478.95 Q1868 1475.67 1872.12 1475.93 Q1876.26 1476.2 1878.44 1479.98 Z" fill="#4c4c4c" fill-rule="evenodd" fill-opacity="1" /><path clip-path="url(#clip730)" d="M1887.35 1500.96 Q1885.99 1498.61 1882.99 1498.76 Q1880.02 1498.92 1875.38 1501.59 Q1870.77 1504.26 1869.13 1506.76 Q1867.52 1509.28 1868.87 1511.63 Q1870.23 1513.99 1873.21 1513.83 Q1876.21 1513.68 1880.83 1511.02 Q1885.46 1508.34 1887.07 1505.83 Q1888.71 1503.32 1887.35 1500.96 M1889.75 1499.57 Q1891.93 1503.34 1890.09 1507.05 Q1888.26 1510.77 1882.58 1514.05 Q1876.91 1517.33 1872.77 1517.05 Q1868.64 1516.79 1866.46 1513.01 Q1864.29 1509.24 1866.11 1505.52 Q1867.95 1501.81 1873.62 1498.54 Q1879.31 1495.26 1883.43 1495.52 Q1887.58 1495.8 1889.75 1499.57 Z" fill="#4c4c4c" fill-rule="evenodd" fill-opacity="1" /><path clip-path="url(#clip730)" d="M1991.16 1466.14 L1994.03 1471.1 L2011.15 1461.21 L2006.95 1456.44 L2009.72 1454.84 L2013.9 1459.58 L2015.65 1462.62 L1995.76 1474.11 L1998.63 1479.07 L1996.07 1480.54 L1988.61 1467.61 L1991.16 1466.14 Z" fill="#4c4c4c" fill-rule="evenodd" fill-opacity="1" /><path clip-path="url(#clip730)" d="M2002.47 1485.73 L2005.34 1490.69 L2022.46 1480.8 L2018.26 1476.03 L2021.03 1474.43 L2025.21 1479.18 L2026.96 1482.21 L2007.07 1493.7 L2009.94 1498.66 L2007.38 1500.13 L1999.92 1487.2 L2002.47 1485.73 Z" fill="#4c4c4c" fill-rule="evenodd" fill-opacity="1" /><path clip-path="url(#clip730)" d="M2035.12 1500.96 Q2033.77 1498.61 2030.77 1498.76 Q2027.79 1498.92 2023.16 1501.59 Q2018.54 1504.26 2016.9 1506.76 Q2015.29 1509.28 2016.64 1511.63 Q2018.01 1513.99 2020.98 1513.83 Q2023.98 1513.68 2028.6 1511.02 Q2033.23 1508.34 2034.85 1505.83 Q2036.48 1503.32 2035.12 1500.96 M2037.53 1499.57 Q2039.71 1503.34 2037.86 1507.05 Q2036.04 1510.77 2030.35 1514.05 Q2024.69 1517.33 2020.54 1517.05 Q2016.42 1516.79 2014.24 1513.01 Q2012.06 1509.24 2013.88 1505.52 Q2015.73 1501.81 2021.4 1498.54 Q2027.08 1495.26 2031.2 1495.52 Q2035.35 1495.8 2037.53 1499.57 Z" fill="#4c4c4c" fill-rule="evenodd" fill-opacity="1" /><path clip-path="url(#clip730)" d="M2138.94 1466.14 L2141.8 1471.1 L2158.92 1461.21 L2154.73 1456.44 L2157.49 1454.84 L2161.67 1459.58 L2163.43 1462.62 L2143.54 1474.11 L2146.4 1479.07 L2143.84 1480.54 L2136.38 1467.61 L2138.94 1466.14 Z" fill="#4c4c4c" fill-rule="evenodd" fill-opacity="1" /><path clip-path="url(#clip730)" d="M2151.45 1487.82 L2157.57 1498.42 L2155.02 1499.89 L2146.79 1485.64 L2149.34 1484.16 Q2152.13 1484.86 2156.86 1486.1 Q2161.61 1487.35 2162.92 1487.61 Q2165.4 1488.12 2166.86 1488.04 Q2168.34 1487.97 2169.44 1487.34 Q2171.23 1486.3 2171.63 1484.39 Q2172.03 1482.49 2170.87 1480.48 Q2170.04 1479.05 2168.63 1477.74 Q2167.22 1476.45 2165.17 1475.23 L2168.24 1473.46 Q2170.03 1474.86 2171.33 1476.24 Q2172.63 1477.62 2173.39 1478.94 Q2175.4 1482.43 2174.86 1485.51 Q2174.31 1488.59 2171.4 1490.28 Q2170.01 1491.08 2168.46 1491.27 Q2166.93 1491.47 2164.46 1491.07 Q2163.81 1490.95 2160.55 1490.14 Q2157.31 1489.32 2151.45 1487.82 Z" fill="#4c4c4c" fill-rule="evenodd" fill-opacity="1" /><path clip-path="url(#clip730)" d="M2182.89 1500.96 Q2181.54 1498.61 2178.54 1498.76 Q2175.56 1498.92 2170.93 1501.59 Q2166.32 1504.26 2164.68 1506.76 Q2163.06 1509.28 2164.42 1511.63 Q2165.78 1513.99 2168.76 1513.83 Q2171.76 1513.68 2176.37 1511.02 Q2181 1508.34 2182.62 1505.83 Q2184.26 1503.32 2182.89 1500.96 M2185.3 1499.57 Q2187.48 1503.34 2185.63 1507.05 Q2183.81 1510.77 2178.13 1514.05 Q2172.46 1517.33 2168.31 1517.05 Q2164.19 1516.79 2162.01 1513.01 Q2159.83 1509.24 2161.65 1505.52 Q2163.5 1501.81 2169.17 1498.54 Q2174.85 1495.26 2178.97 1495.52 Q2183.12 1495.8 2185.3 1499.57 Z" fill="#4c4c4c" fill-rule="evenodd" fill-opacity="1" /><path clip-path="url(#clip730)" d="M2286.71 1466.14 L2289.57 1471.1 L2306.7 1461.21 L2302.5 1456.44 L2305.27 1454.84 L2309.45 1459.58 L2311.2 1462.62 L2291.31 1474.11 L2294.17 1479.07 L2291.62 1480.54 L2284.15 1467.61 L2286.71 1466.14 Z" fill="#4c4c4c" fill-rule="evenodd" fill-opacity="1" /><path clip-path="url(#clip730)" d="M2312.58 1488.89 Q2313.37 1491.34 2312.6 1493.41 Q2311.84 1495.49 2309.67 1496.74 Q2306.35 1498.66 2303.21 1497.43 Q2300.07 1496.19 2297.64 1491.98 Q2296.82 1490.57 2296.24 1488.9 Q2295.65 1487.25 2295.29 1485.34 L2298.22 1483.65 Q2298.21 1485.34 2298.71 1487.06 Q2299.2 1488.78 2300.14 1490.41 Q2301.79 1493.27 2303.78 1494.11 Q2305.78 1494.96 2307.93 1493.72 Q2309.91 1492.57 2310.22 1490.53 Q2310.54 1488.5 2309.11 1486.02 L2307.6 1483.4 L2310.1 1481.96 L2311.68 1484.7 Q2312.97 1486.94 2314.54 1487.61 Q2316.13 1488.28 2317.82 1487.31 Q2319.54 1486.31 2319.75 1484.55 Q2319.98 1482.79 2318.66 1480.51 Q2317.94 1479.26 2316.84 1477.99 Q2315.75 1476.71 2314.19 1475.33 L2316.89 1473.77 Q2318.37 1475.22 2319.48 1476.58 Q2320.6 1477.96 2321.37 1479.3 Q2323.37 1482.76 2322.95 1485.69 Q2322.55 1488.6 2319.88 1490.15 Q2318.01 1491.22 2316.1 1490.9 Q2314.21 1490.57 2312.58 1488.89 Z" fill="#4c4c4c" fill-rule="evenodd" fill-opacity="1" /><path clip-path="url(#clip730)" d="M2330.67 1500.96 Q2329.31 1498.61 2326.31 1498.76 Q2323.33 1498.92 2318.7 1501.59 Q2314.09 1504.26 2312.45 1506.76 Q2310.84 1509.28 2312.19 1511.63 Q2313.55 1513.99 2316.53 1513.83 Q2319.53 1513.68 2324.15 1511.02 Q2328.78 1508.34 2330.39 1505.83 Q2332.03 1503.32 2330.67 1500.96 M2333.07 1499.57 Q2335.25 1503.34 2333.41 1507.05 Q2331.58 1510.77 2325.9 1514.05 Q2320.23 1517.33 2316.09 1517.05 Q2311.96 1516.79 2309.78 1513.01 Q2307.61 1509.24 2309.43 1505.52 Q2311.27 1501.81 2316.94 1498.54 Q2322.63 1495.26 2326.75 1495.52 Q2330.89 1495.8 2333.07 1499.57 Z" fill="#4c4c4c" fill-rule="evenodd" fill-opacity="1" /><path clip-path="url(#clip730)" d="M1225.19 1537.87 L1229.87 1537.87 L1229.87 1572.43 L1225.19 1572.43 L1225.19 1537.87 Z" fill="#000000" fill-rule="evenodd" fill-opacity="1" /><path clip-path="url(#clip730)" d="M1243.2 1539.15 L1243.2 1546.51 L1251.97 1546.51 L1251.97 1549.82 L1243.2 1549.82 L1243.2 1563.89 Q1243.2 1567.06 1244.06 1567.97 Q1244.94 1568.87 1247.6 1568.87 L1251.97 1568.87 L1251.97 1572.43 L1247.6 1572.43 Q1242.67 1572.43 1240.79 1570.6 Q1238.92 1568.75 1238.92 1563.89 L1238.92 1549.82 L1235.79 1549.82 L1235.79 1546.51 L1238.92 1546.51 L1238.92 1539.15 L1243.2 1539.15 Z" fill="#000000" fill-rule="evenodd" fill-opacity="1" /><path clip-path="url(#clip730)" d="M1279.75 1558.41 L1279.75 1560.49 L1260.17 1560.49 Q1260.44 1564.89 1262.81 1567.2 Q1265.19 1569.49 1269.43 1569.49 Q1271.88 1569.49 1274.17 1568.89 Q1276.49 1568.29 1278.75 1567.09 L1278.75 1571.11 Q1276.46 1572.09 1274.06 1572.6 Q1271.65 1573.1 1269.17 1573.1 Q1262.97 1573.1 1259.33 1569.49 Q1255.72 1565.88 1255.72 1559.73 Q1255.72 1553.36 1259.15 1549.63 Q1262.6 1545.88 1268.43 1545.88 Q1273.66 1545.88 1276.69 1549.26 Q1279.75 1552.62 1279.75 1558.41 M1275.49 1557.16 Q1275.44 1553.66 1273.52 1551.58 Q1271.62 1549.49 1268.48 1549.49 Q1264.91 1549.49 1262.76 1551.51 Q1260.63 1553.52 1260.31 1557.18 L1275.49 1557.16 Z" fill="#000000" fill-rule="evenodd" fill-opacity="1" /><path clip-path="url(#clip730)" d="M1301.76 1550.49 Q1301.05 1550.07 1300.19 1549.89 Q1299.36 1549.68 1298.34 1549.68 Q1294.73 1549.68 1292.78 1552.04 Q1290.86 1554.38 1290.86 1558.78 L1290.86 1572.43 L1286.58 1572.43 L1286.58 1546.51 L1290.86 1546.51 L1290.86 1550.54 Q1292.2 1548.17 1294.36 1547.04 Q1296.51 1545.88 1299.59 1545.88 Q1300.03 1545.88 1300.56 1545.95 Q1301.09 1546 1301.74 1546.11 L1301.76 1550.49 Z" fill="#000000" fill-rule="evenodd" fill-opacity="1" /><path clip-path="url(#clip730)" d="M1318.01 1559.4 Q1312.85 1559.4 1310.86 1560.58 Q1308.87 1561.76 1308.87 1564.61 Q1308.87 1566.88 1310.35 1568.22 Q1311.86 1569.54 1314.43 1569.54 Q1317.97 1569.54 1320.1 1567.04 Q1322.25 1564.52 1322.25 1560.35 L1322.25 1559.4 L1318.01 1559.4 M1326.51 1557.64 L1326.51 1572.43 L1322.25 1572.43 L1322.25 1568.5 Q1320.79 1570.86 1318.62 1571.99 Q1316.44 1573.1 1313.29 1573.1 Q1309.31 1573.1 1306.95 1570.88 Q1304.61 1568.64 1304.61 1564.89 Q1304.61 1560.51 1307.53 1558.29 Q1310.47 1556.07 1316.28 1556.07 L1322.25 1556.07 L1322.25 1555.65 Q1322.25 1552.71 1320.31 1551.11 Q1318.38 1549.49 1314.89 1549.49 Q1312.67 1549.49 1310.56 1550.03 Q1308.45 1550.56 1306.51 1551.62 L1306.51 1547.69 Q1308.85 1546.79 1311.05 1546.35 Q1313.25 1545.88 1315.33 1545.88 Q1320.95 1545.88 1323.73 1548.8 Q1326.51 1551.72 1326.51 1557.64 Z" fill="#000000" fill-rule="evenodd" fill-opacity="1" /><path clip-path="url(#clip730)" d="M1339.49 1539.15 L1339.49 1546.51 L1348.27 1546.51 L1348.27 1549.82 L1339.49 1549.82 L1339.49 1563.89 Q1339.49 1567.06 1340.35 1567.97 Q1341.23 1568.87 1343.89 1568.87 L1348.27 1568.87 L1348.27 1572.43 L1343.89 1572.43 Q1338.96 1572.43 1337.09 1570.6 Q1335.21 1568.75 1335.21 1563.89 L1335.21 1549.82 L1332.09 1549.82 L1332.09 1546.51 L1335.21 1546.51 L1335.21 1539.15 L1339.49 1539.15 Z" fill="#000000" fill-rule="evenodd" fill-opacity="1" /><path clip-path="url(#clip730)" d="M1353.87 1546.51 L1358.13 1546.51 L1358.13 1572.43 L1353.87 1572.43 L1353.87 1546.51 M1353.87 1536.42 L1358.13 1536.42 L1358.13 1541.81 L1353.87 1541.81 L1353.87 1536.42 Z" fill="#000000" fill-rule="evenodd" fill-opacity="1" /><path clip-path="url(#clip730)" d="M1377.09 1549.49 Q1373.66 1549.49 1371.67 1552.18 Q1369.68 1554.84 1369.68 1559.49 Q1369.68 1564.15 1371.65 1566.83 Q1373.64 1569.49 1377.09 1569.49 Q1380.49 1569.49 1382.48 1566.81 Q1384.47 1564.12 1384.47 1559.49 Q1384.47 1554.89 1382.48 1552.2 Q1380.49 1549.49 1377.09 1549.49 M1377.09 1545.88 Q1382.64 1545.88 1385.81 1549.49 Q1388.99 1553.1 1388.99 1559.49 Q1388.99 1565.86 1385.81 1569.49 Q1382.64 1573.1 1377.09 1573.1 Q1371.51 1573.1 1368.34 1569.49 Q1365.19 1565.86 1365.19 1559.49 Q1365.19 1553.1 1368.34 1549.49 Q1371.51 1545.88 1377.09 1545.88 Z" fill="#000000" fill-rule="evenodd" fill-opacity="1" /><path clip-path="url(#clip730)" d="M1417.6 1556.79 L1417.6 1572.43 L1413.34 1572.43 L1413.34 1556.92 Q1413.34 1553.24 1411.9 1551.41 Q1410.47 1549.59 1407.6 1549.59 Q1404.15 1549.59 1402.16 1551.79 Q1400.17 1553.98 1400.17 1557.78 L1400.17 1572.43 L1395.88 1572.43 L1395.88 1546.51 L1400.17 1546.51 L1400.17 1550.54 Q1401.69 1548.2 1403.75 1547.04 Q1405.84 1545.88 1408.55 1545.88 Q1413.01 1545.88 1415.3 1548.66 Q1417.6 1551.41 1417.6 1556.79 Z" fill="#000000" fill-rule="evenodd" fill-opacity="1" /><path clip-path="url(#clip730)" d="M1442.62 1547.27 L1442.62 1551.3 Q1440.81 1550.37 1438.87 1549.91 Q1436.92 1549.45 1434.84 1549.45 Q1431.67 1549.45 1430.07 1550.42 Q1428.5 1551.39 1428.5 1553.34 Q1428.5 1554.82 1429.63 1555.67 Q1430.77 1556.51 1434.19 1557.27 L1435.65 1557.6 Q1440.19 1558.57 1442.09 1560.35 Q1444.01 1562.11 1444.01 1565.28 Q1444.01 1568.89 1441.14 1571 Q1438.29 1573.1 1433.29 1573.1 Q1431.21 1573.1 1428.94 1572.69 Q1426.69 1572.29 1424.19 1571.48 L1424.19 1567.09 Q1426.55 1568.31 1428.85 1568.94 Q1431.14 1569.54 1433.38 1569.54 Q1436.39 1569.54 1438.01 1568.52 Q1439.63 1567.48 1439.63 1565.6 Q1439.63 1563.87 1438.45 1562.94 Q1437.3 1562.02 1433.34 1561.16 L1431.86 1560.81 Q1427.9 1559.98 1426.14 1558.27 Q1424.38 1556.53 1424.38 1553.52 Q1424.38 1549.86 1426.97 1547.87 Q1429.56 1545.88 1434.33 1545.88 Q1436.69 1545.88 1438.78 1546.23 Q1440.86 1546.58 1442.62 1547.27 Z" fill="#000000" fill-rule="evenodd" fill-opacity="1" /><polyline clip-path="url(#clip732)" style="stroke:#ffffff; stroke-linecap:butt; stroke-linejoin:round; stroke-width:4; stroke-opacity:1; fill:none" points="
  316.442,1335.65 2352.76,1335.65 
  "/>
<polyline clip-path="url(#clip732)" style="stroke:#ffffff; stroke-linecap:butt; stroke-linejoin:round; stroke-width:4; stroke-opacity:1; fill:none" points="
  316.442,1084.24 2352.76,1084.24 
  "/>
<polyline clip-path="url(#clip732)" style="stroke:#ffffff; stroke-linecap:butt; stroke-linejoin:round; stroke-width:4; stroke-opacity:1; fill:none" points="
  316.442,832.821 2352.76,832.821 
  "/>
<polyline clip-path="url(#clip732)" style="stroke:#ffffff; stroke-linecap:butt; stroke-linejoin:round; stroke-width:4; stroke-opacity:1; fill:none" points="
  316.442,581.405 2352.76,581.405 
  "/>
<polyline clip-path="url(#clip732)" style="stroke:#ffffff; stroke-linecap:butt; stroke-linejoin:round; stroke-width:4; stroke-opacity:1; fill:none" points="
  316.442,329.988 2352.76,329.988 
  "/>
<polyline clip-path="url(#clip732)" style="stroke:#ffffff; stroke-linecap:butt; stroke-linejoin:round; stroke-width:2; stroke-opacity:1; fill:none" points="
  316.442,1209.95 2352.76,1209.95 
  "/>
<polyline clip-path="url(#clip732)" style="stroke:#ffffff; stroke-linecap:butt; stroke-linejoin:round; stroke-width:2; stroke-opacity:1; fill:none" points="
  316.442,958.53 2352.76,958.53 
  "/>
<polyline clip-path="url(#clip732)" style="stroke:#ffffff; stroke-linecap:butt; stroke-linejoin:round; stroke-width:2; stroke-opacity:1; fill:none" points="
  316.442,707.113 2352.76,707.113 
  "/>
<polyline clip-path="url(#clip732)" style="stroke:#ffffff; stroke-linecap:butt; stroke-linejoin:round; stroke-width:2; stroke-opacity:1; fill:none" points="
  316.442,455.696 2352.76,455.696 
  "/>
<polyline clip-path="url(#clip732)" style="stroke:#ffffff; stroke-linecap:butt; stroke-linejoin:round; stroke-width:2; stroke-opacity:1; fill:none" points="
  316.442,204.28 2352.76,204.28 
  "/>
<polyline clip-path="url(#clip730)" style="stroke:#ffffff; stroke-linecap:butt; stroke-linejoin:round; stroke-width:4; stroke-opacity:1; fill:none" points="
  316.442,1422.18 316.442,106.192 
  "/>
<polyline clip-path="url(#clip730)" style="stroke:#333333; stroke-linecap:butt; stroke-linejoin:round; stroke-width:4; stroke-opacity:1; fill:none" points="
  316.442,1335.65 297.545,1335.65 
  "/>
<polyline clip-path="url(#clip730)" style="stroke:#333333; stroke-linecap:butt; stroke-linejoin:round; stroke-width:4; stroke-opacity:1; fill:none" points="
  316.442,1084.24 297.545,1084.24 
  "/>
<polyline clip-path="url(#clip730)" style="stroke:#333333; stroke-linecap:butt; stroke-linejoin:round; stroke-width:4; stroke-opacity:1; fill:none" points="
  316.442,832.821 297.545,832.821 
  "/>
<polyline clip-path="url(#clip730)" style="stroke:#333333; stroke-linecap:butt; stroke-linejoin:round; stroke-width:4; stroke-opacity:1; fill:none" points="
  316.442,581.405 297.545,581.405 
  "/>
<polyline clip-path="url(#clip730)" style="stroke:#333333; stroke-linecap:butt; stroke-linejoin:round; stroke-width:4; stroke-opacity:1; fill:none" points="
  316.442,329.988 297.545,329.988 
  "/>
<polyline clip-path="url(#clip730)" style="stroke:#333333; stroke-linecap:butt; stroke-linejoin:round; stroke-width:4; stroke-opacity:1; fill:none" points="
  316.442,1209.95 306.993,1209.95 
  "/>
<polyline clip-path="url(#clip730)" style="stroke:#333333; stroke-linecap:butt; stroke-linejoin:round; stroke-width:4; stroke-opacity:1; fill:none" points="
  316.442,958.53 306.993,958.53 
  "/>
<polyline clip-path="url(#clip730)" style="stroke:#333333; stroke-linecap:butt; stroke-linejoin:round; stroke-width:4; stroke-opacity:1; fill:none" points="
  316.442,707.113 306.993,707.113 
  "/>
<polyline clip-path="url(#clip730)" style="stroke:#333333; stroke-linecap:butt; stroke-linejoin:round; stroke-width:4; stroke-opacity:1; fill:none" points="
  316.442,455.696 306.993,455.696 
  "/>
<polyline clip-path="url(#clip730)" style="stroke:#333333; stroke-linecap:butt; stroke-linejoin:round; stroke-width:4; stroke-opacity:1; fill:none" points="
  316.442,204.28 306.993,204.28 
  "/>
<path clip-path="url(#clip730)" d="M194.283 1335.99 L216.54 1335.99 L216.54 1338.94 L194.283 1338.94 L194.283 1335.99 Z" fill="#4c4c4c" fill-rule="evenodd" fill-opacity="1" /><path clip-path="url(#clip730)" d="M223.224 1322.69 L239.89 1322.69 L239.89 1324.19 L230.481 1348.61 L226.817 1348.61 L235.672 1325.65 L223.224 1325.65 L223.224 1322.69 Z" fill="#4c4c4c" fill-rule="evenodd" fill-opacity="1" /><path clip-path="url(#clip730)" d="M246.765 1322.69 L260.533 1322.69 L260.533 1325.65 L249.977 1325.65 L249.977 1332 Q250.741 1331.74 251.505 1331.62 Q252.269 1331.48 253.033 1331.48 Q257.373 1331.48 259.908 1333.86 Q262.442 1336.24 262.442 1340.3 Q262.442 1344.48 259.838 1346.81 Q257.234 1349.12 252.494 1349.12 Q250.862 1349.12 249.161 1348.84 Q247.477 1348.56 245.672 1348.01 L245.672 1344.48 Q247.234 1345.33 248.901 1345.75 Q250.567 1346.17 252.425 1346.17 Q255.428 1346.17 257.182 1344.59 Q258.935 1343.01 258.935 1340.3 Q258.935 1337.59 257.182 1336.01 Q255.428 1334.43 252.425 1334.43 Q251.019 1334.43 249.612 1334.74 Q248.224 1335.06 246.765 1335.72 L246.765 1322.69 Z" fill="#4c4c4c" fill-rule="evenodd" fill-opacity="1" /><path clip-path="url(#clip730)" d="M193.536 1084.58 L215.793 1084.58 L215.793 1087.53 L193.536 1087.53 L193.536 1084.58 Z" fill="#4c4c4c" fill-rule="evenodd" fill-opacity="1" /><path clip-path="url(#clip730)" d="M222.477 1071.28 L239.144 1071.28 L239.144 1072.77 L229.734 1097.2 L226.071 1097.2 L234.925 1074.23 L222.477 1074.23 L222.477 1071.28 Z" fill="#4c4c4c" fill-rule="evenodd" fill-opacity="1" /><path clip-path="url(#clip730)" d="M253.484 1073.59 Q250.776 1073.59 249.404 1076.26 Q248.05 1078.92 248.05 1084.26 Q248.05 1089.59 249.404 1092.27 Q250.776 1094.92 253.484 1094.92 Q256.21 1094.92 257.564 1092.27 Q258.935 1089.59 258.935 1084.26 Q258.935 1078.92 257.564 1076.26 Q256.21 1073.59 253.484 1073.59 M253.484 1070.81 Q257.842 1070.81 260.133 1074.26 Q262.442 1077.7 262.442 1084.26 Q262.442 1090.81 260.133 1094.26 Q257.842 1097.7 253.484 1097.7 Q249.126 1097.7 246.817 1094.26 Q244.526 1090.81 244.526 1084.26 Q244.526 1077.7 246.817 1074.26 Q249.126 1070.81 253.484 1070.81 Z" fill="#4c4c4c" fill-rule="evenodd" fill-opacity="1" /><path clip-path="url(#clip730)" d="M194.283 833.16 L216.54 833.16 L216.54 836.111 L194.283 836.111 L194.283 833.16 Z" fill="#4c4c4c" fill-rule="evenodd" fill-opacity="1" /><path clip-path="url(#clip730)" d="M232.043 831.424 Q229.682 831.424 228.293 833.038 Q226.922 834.653 226.922 837.465 Q226.922 840.26 228.293 841.892 Q229.682 843.507 232.043 843.507 Q234.404 843.507 235.776 841.892 Q237.165 840.26 237.165 837.465 Q237.165 834.653 235.776 833.038 Q234.404 831.424 232.043 831.424 M239.005 820.434 L239.005 823.629 Q237.685 823.004 236.331 822.674 Q234.994 822.344 233.675 822.344 Q230.203 822.344 228.363 824.688 Q226.54 827.031 226.279 831.771 Q227.304 830.26 228.849 829.462 Q230.394 828.646 232.251 828.646 Q236.158 828.646 238.415 831.024 Q240.689 833.385 240.689 837.465 Q240.689 841.458 238.328 843.872 Q235.967 846.285 232.043 846.285 Q227.547 846.285 225.168 842.847 Q222.79 839.392 222.79 832.847 Q222.79 826.701 225.706 823.056 Q228.623 819.392 233.536 819.392 Q234.856 819.392 236.192 819.653 Q237.547 819.913 239.005 820.434 Z" fill="#4c4c4c" fill-rule="evenodd" fill-opacity="1" /><path clip-path="url(#clip730)" d="M246.765 819.861 L260.533 819.861 L260.533 822.813 L249.977 822.813 L249.977 829.167 Q250.741 828.906 251.505 828.785 Q252.269 828.646 253.033 828.646 Q257.373 828.646 259.908 831.024 Q262.442 833.403 262.442 837.465 Q262.442 841.649 259.838 843.976 Q257.234 846.285 252.494 846.285 Q250.862 846.285 249.161 846.007 Q247.477 845.729 245.672 845.174 L245.672 841.649 Q247.234 842.5 248.901 842.917 Q250.567 843.333 252.425 843.333 Q255.428 843.333 257.182 841.753 Q258.935 840.174 258.935 837.465 Q258.935 834.757 257.182 833.177 Q255.428 831.597 252.425 831.597 Q251.019 831.597 249.612 831.91 Q248.224 832.222 246.765 832.882 L246.765 819.861 Z" fill="#4c4c4c" fill-rule="evenodd" fill-opacity="1" /><path clip-path="url(#clip730)" d="M193.536 581.743 L215.793 581.743 L215.793 584.695 L193.536 584.695 L193.536 581.743 Z" fill="#4c4c4c" fill-rule="evenodd" fill-opacity="1" /><path clip-path="url(#clip730)" d="M231.297 580.007 Q228.935 580.007 227.547 581.622 Q226.175 583.236 226.175 586.049 Q226.175 588.844 227.547 590.476 Q228.935 592.09 231.297 592.09 Q233.658 592.09 235.029 590.476 Q236.418 588.844 236.418 586.049 Q236.418 583.236 235.029 581.622 Q233.658 580.007 231.297 580.007 M238.258 569.018 L238.258 572.212 Q236.939 571.587 235.585 571.257 Q234.248 570.927 232.929 570.927 Q229.456 570.927 227.616 573.271 Q225.793 575.615 225.533 580.354 Q226.557 578.844 228.102 578.045 Q229.647 577.229 231.505 577.229 Q235.411 577.229 237.668 579.608 Q239.942 581.969 239.942 586.049 Q239.942 590.042 237.581 592.455 Q235.22 594.868 231.297 594.868 Q226.8 594.868 224.422 591.431 Q222.043 587.976 222.043 581.431 Q222.043 575.285 224.96 571.639 Q227.876 567.976 232.79 567.976 Q234.109 567.976 235.446 568.236 Q236.8 568.497 238.258 569.018 Z" fill="#4c4c4c" fill-rule="evenodd" fill-opacity="1" /><path clip-path="url(#clip730)" d="M253.484 570.754 Q250.776 570.754 249.404 573.427 Q248.05 576.083 248.05 581.431 Q248.05 586.761 249.404 589.434 Q250.776 592.09 253.484 592.09 Q256.21 592.09 257.564 589.434 Q258.935 586.761 258.935 581.431 Q258.935 576.083 257.564 573.427 Q256.21 570.754 253.484 570.754 M253.484 567.976 Q257.842 567.976 260.133 571.431 Q262.442 574.868 262.442 581.431 Q262.442 587.976 260.133 591.431 Q257.842 594.868 253.484 594.868 Q249.126 594.868 246.817 591.431 Q244.526 587.976 244.526 581.431 Q244.526 574.868 246.817 571.431 Q249.126 567.976 253.484 567.976 Z" fill="#4c4c4c" fill-rule="evenodd" fill-opacity="1" /><path clip-path="url(#clip730)" d="M194.283 330.327 L216.54 330.327 L216.54 333.278 L194.283 333.278 L194.283 330.327 Z" fill="#4c4c4c" fill-rule="evenodd" fill-opacity="1" /><path clip-path="url(#clip730)" d="M224.144 317.028 L237.911 317.028 L237.911 319.979 L227.356 319.979 L227.356 326.334 Q228.12 326.073 228.883 325.952 Q229.647 325.813 230.411 325.813 Q234.751 325.813 237.286 328.191 Q239.821 330.57 239.821 334.632 Q239.821 338.816 237.217 341.143 Q234.613 343.452 229.873 343.452 Q228.241 343.452 226.54 343.174 Q224.856 342.896 223.05 342.34 L223.05 338.816 Q224.613 339.667 226.279 340.084 Q227.946 340.5 229.804 340.5 Q232.807 340.5 234.56 338.92 Q236.314 337.34 236.314 334.632 Q236.314 331.924 234.56 330.344 Q232.807 328.764 229.804 328.764 Q228.397 328.764 226.991 329.077 Q225.602 329.389 224.144 330.049 L224.144 317.028 Z" fill="#4c4c4c" fill-rule="evenodd" fill-opacity="1" /><path clip-path="url(#clip730)" d="M246.765 317.028 L260.533 317.028 L260.533 319.979 L249.977 319.979 L249.977 326.334 Q250.741 326.073 251.505 325.952 Q252.269 325.813 253.033 325.813 Q257.373 325.813 259.908 328.191 Q262.442 330.57 262.442 334.632 Q262.442 338.816 259.838 341.143 Q257.234 343.452 252.494 343.452 Q250.862 343.452 249.161 343.174 Q247.477 342.896 245.672 342.34 L245.672 338.816 Q247.234 339.667 248.901 340.084 Q250.567 340.5 252.425 340.5 Q255.428 340.5 257.182 338.92 Q258.935 337.34 258.935 334.632 Q258.935 331.924 257.182 330.344 Q255.428 328.764 252.425 328.764 Q251.019 328.764 249.612 329.077 Q248.224 329.389 246.765 330.049 L246.765 317.028 Z" fill="#4c4c4c" fill-rule="evenodd" fill-opacity="1" /><path clip-path="url(#clip730)" d="M130.608 973.882 L130.608 944.646 L134.544 944.646 L134.544 956.915 L165.168 956.915 L165.168 961.614 L134.544 961.614 L134.544 973.882 L130.608 973.882 Z" fill="#000000" fill-rule="evenodd" fill-opacity="1" /><path clip-path="url(#clip730)" d="M151.141 926.198 L153.224 926.198 L153.224 945.781 Q157.622 945.503 159.937 943.142 Q162.229 940.758 162.229 936.522 Q162.229 934.068 161.627 931.776 Q161.025 929.461 159.821 927.193 L163.849 927.193 Q164.821 929.485 165.33 931.892 Q165.84 934.299 165.84 936.776 Q165.84 942.98 162.229 946.614 Q158.617 950.225 152.46 950.225 Q146.094 950.225 142.368 946.799 Q138.618 943.35 138.618 937.517 Q138.618 932.285 141.997 929.253 Q145.354 926.198 151.141 926.198 M149.891 930.457 Q146.395 930.503 144.312 932.424 Q142.229 934.322 142.229 937.471 Q142.229 941.035 144.243 943.188 Q146.256 945.318 149.914 945.642 L149.891 930.457 Z" fill="#000000" fill-rule="evenodd" fill-opacity="1" /><path clip-path="url(#clip730)" d="M140.006 902.679 L144.034 902.679 Q143.108 904.485 142.645 906.429 Q142.182 908.374 142.182 910.457 Q142.182 913.628 143.155 915.225 Q144.127 916.799 146.071 916.799 Q147.553 916.799 148.409 915.665 Q149.243 914.531 150.006 911.105 L150.33 909.647 Q151.303 905.11 153.085 903.212 Q154.844 901.29 158.016 901.29 Q161.627 901.29 163.733 904.161 Q165.84 907.008 165.84 912.008 Q165.84 914.091 165.423 916.36 Q165.029 918.605 164.219 921.105 L159.821 921.105 Q161.048 918.744 161.673 916.452 Q162.275 914.161 162.275 911.915 Q162.275 908.906 161.256 907.286 Q160.215 905.665 158.34 905.665 Q156.604 905.665 155.678 906.846 Q154.752 908.003 153.895 911.961 L153.548 913.443 Q152.715 917.401 151.002 919.161 Q149.266 920.92 146.256 920.92 Q142.599 920.92 140.608 918.327 Q138.618 915.735 138.618 910.966 Q138.618 908.605 138.965 906.522 Q139.312 904.438 140.006 902.679 Z" fill="#000000" fill-rule="evenodd" fill-opacity="1" /><path clip-path="url(#clip730)" d="M131.882 890.295 L139.243 890.295 L139.243 881.522 L142.553 881.522 L142.553 890.295 L156.627 890.295 Q159.798 890.295 160.701 889.438 Q161.604 888.559 161.604 885.897 L161.604 881.522 L165.168 881.522 L165.168 885.897 Q165.168 890.827 163.34 892.702 Q161.488 894.577 156.627 894.577 L142.553 894.577 L142.553 897.702 L139.243 897.702 L139.243 894.577 L131.882 894.577 L131.882 890.295 Z" fill="#000000" fill-rule="evenodd" fill-opacity="1" /><path clip-path="url(#clip730)" d="M129.15 860.851 L129.15 856.591 L165.168 856.591 L165.168 860.851 L129.15 860.851 Z" fill="#000000" fill-rule="evenodd" fill-opacity="1" /><path clip-path="url(#clip730)" d="M142.229 837.633 Q142.229 841.059 144.914 843.05 Q147.576 845.041 152.229 845.041 Q156.881 845.041 159.567 843.073 Q162.229 841.082 162.229 837.633 Q162.229 834.23 159.543 832.24 Q156.858 830.249 152.229 830.249 Q147.622 830.249 144.937 832.24 Q142.229 834.23 142.229 837.633 M138.618 837.633 Q138.618 832.078 142.229 828.906 Q145.84 825.735 152.229 825.735 Q158.594 825.735 162.229 828.906 Q165.84 832.078 165.84 837.633 Q165.84 843.212 162.229 846.383 Q158.594 849.531 152.229 849.531 Q145.84 849.531 142.229 846.383 Q138.618 843.212 138.618 837.633 Z" fill="#000000" fill-rule="evenodd" fill-opacity="1" /><path clip-path="url(#clip730)" d="M151.905 801.615 Q147.275 801.615 144.729 803.536 Q142.182 805.434 142.182 808.883 Q142.182 812.309 144.729 814.231 Q147.275 816.129 151.905 816.129 Q156.511 816.129 159.057 814.231 Q161.604 812.309 161.604 808.883 Q161.604 805.434 159.057 803.536 Q156.511 801.615 151.905 801.615 M161.951 797.356 Q168.571 797.356 171.789 800.295 Q175.029 803.235 175.029 809.3 Q175.029 811.545 174.682 813.536 Q174.358 815.527 173.664 817.402 L169.52 817.402 Q170.539 815.527 171.025 813.698 Q171.511 811.869 171.511 809.971 Q171.511 805.781 169.312 803.698 Q167.136 801.615 162.715 801.615 L160.608 801.615 Q162.9 802.934 164.034 804.994 Q165.168 807.055 165.168 809.925 Q165.168 814.693 161.534 817.61 Q157.9 820.527 151.905 820.527 Q145.886 820.527 142.252 817.61 Q138.618 814.693 138.618 809.925 Q138.618 807.055 139.752 804.994 Q140.886 802.934 143.178 801.615 L139.243 801.615 L139.243 797.356 L161.951 797.356 Z" fill="#000000" fill-rule="evenodd" fill-opacity="1" /><path clip-path="url(#clip730)" d="M150.284 790.735 L150.284 778.258 L154.08 778.258 L154.08 790.735 L150.284 790.735 Z" fill="#000000" fill-rule="evenodd" fill-opacity="1" /><path clip-path="url(#clip730)" d="M129.15 771.476 L129.15 767.217 L165.168 767.217 L165.168 771.476 L129.15 771.476 Z" fill="#000000" fill-rule="evenodd" fill-opacity="1" /><path clip-path="url(#clip730)" d="M139.243 758.305 L139.243 754.046 L165.168 754.046 L165.168 758.305 L139.243 758.305 M129.15 758.305 L129.15 754.046 L134.544 754.046 L134.544 758.305 L129.15 758.305 Z" fill="#000000" fill-rule="evenodd" fill-opacity="1" /><path clip-path="url(#clip730)" d="M129.15 745.296 L129.15 741.013 L150.423 741.013 L139.243 728.305 L139.243 722.865 L151.372 736.615 L165.168 722.287 L165.168 727.842 L152.506 741.013 L165.168 741.013 L165.168 745.296 L129.15 745.296 Z" fill="#000000" fill-rule="evenodd" fill-opacity="1" /><path clip-path="url(#clip730)" d="M151.141 697.194 L153.224 697.194 L153.224 716.777 Q157.622 716.5 159.937 714.138 Q162.229 711.754 162.229 707.518 Q162.229 705.064 161.627 702.773 Q161.025 700.458 159.821 698.189 L163.849 698.189 Q164.821 700.481 165.33 702.889 Q165.84 705.296 165.84 707.773 Q165.84 713.976 162.229 717.611 Q158.617 721.222 152.46 721.222 Q146.094 721.222 142.368 717.796 Q138.618 714.347 138.618 708.513 Q138.618 703.282 141.997 700.25 Q145.354 697.194 151.141 697.194 M149.891 701.453 Q146.395 701.5 144.312 703.421 Q142.229 705.319 142.229 708.467 Q142.229 712.032 144.243 714.185 Q146.256 716.314 149.914 716.638 L149.891 701.453 Z" fill="#000000" fill-rule="evenodd" fill-opacity="1" /><path clip-path="url(#clip730)" d="M129.15 690.203 L129.15 685.944 L165.168 685.944 L165.168 690.203 L129.15 690.203 Z" fill="#000000" fill-rule="evenodd" fill-opacity="1" /><path clip-path="url(#clip730)" d="M139.243 677.032 L139.243 672.773 L165.168 672.773 L165.168 677.032 L139.243 677.032 M129.15 677.032 L129.15 672.773 L134.544 672.773 L134.544 677.032 L129.15 677.032 Z" fill="#000000" fill-rule="evenodd" fill-opacity="1" /><path clip-path="url(#clip730)" d="M149.52 642.31 L165.168 642.31 L165.168 646.569 L149.659 646.569 Q145.979 646.569 144.15 648.005 Q142.321 649.44 142.321 652.31 Q142.321 655.759 144.52 657.75 Q146.719 659.741 150.516 659.741 L165.168 659.741 L165.168 664.023 L129.15 664.023 L129.15 659.741 L143.27 659.741 Q140.932 658.213 139.775 656.153 Q138.618 654.069 138.618 651.361 Q138.618 646.893 141.395 644.602 Q144.15 642.31 149.52 642.31 Z" fill="#000000" fill-rule="evenodd" fill-opacity="1" /><path clip-path="url(#clip730)" d="M142.229 623.769 Q142.229 627.194 144.914 629.185 Q147.576 631.176 152.229 631.176 Q156.881 631.176 159.567 629.208 Q162.229 627.218 162.229 623.769 Q162.229 620.366 159.543 618.375 Q156.858 616.384 152.229 616.384 Q147.622 616.384 144.937 618.375 Q142.229 620.366 142.229 623.769 M138.618 623.769 Q138.618 618.213 142.229 615.042 Q145.84 611.87 152.229 611.87 Q158.594 611.87 162.229 615.042 Q165.84 618.213 165.84 623.769 Q165.84 629.347 162.229 632.519 Q158.594 635.667 152.229 635.667 Q145.84 635.667 142.229 632.519 Q138.618 629.347 138.618 623.769 Z" fill="#000000" fill-rule="evenodd" fill-opacity="1" /><path clip-path="url(#clip730)" d="M142.229 594.764 Q142.229 598.19 144.914 600.181 Q147.576 602.171 152.229 602.171 Q156.881 602.171 159.567 600.204 Q162.229 598.213 162.229 594.764 Q162.229 591.361 159.543 589.371 Q156.858 587.38 152.229 587.38 Q147.622 587.38 144.937 589.371 Q142.229 591.361 142.229 594.764 M138.618 594.764 Q138.618 589.209 142.229 586.037 Q145.84 582.866 152.229 582.866 Q158.594 582.866 162.229 586.037 Q165.84 589.209 165.84 594.764 Q165.84 600.343 162.229 603.514 Q158.594 606.662 152.229 606.662 Q145.84 606.662 142.229 603.514 Q138.618 600.343 138.618 594.764 Z" fill="#000000" fill-rule="evenodd" fill-opacity="1" /><path clip-path="url(#clip730)" d="M143.178 558.746 L129.15 558.746 L129.15 554.487 L165.168 554.487 L165.168 558.746 L161.28 558.746 Q163.594 560.088 164.729 562.149 Q165.84 564.186 165.84 567.056 Q165.84 571.755 162.09 574.718 Q158.34 577.658 152.229 577.658 Q146.118 577.658 142.368 574.718 Q138.618 571.755 138.618 567.056 Q138.618 564.186 139.752 562.149 Q140.863 560.088 143.178 558.746 M152.229 573.26 Q156.928 573.26 159.613 571.338 Q162.275 569.394 162.275 566.014 Q162.275 562.635 159.613 560.69 Q156.928 558.746 152.229 558.746 Q147.53 558.746 144.868 560.69 Q142.182 562.635 142.182 566.014 Q142.182 569.394 144.868 571.338 Q147.53 573.26 152.229 573.26 Z" fill="#000000" fill-rule="evenodd" fill-opacity="1" /><path clip-path="url(#clip730)" d="M1256.79 19.4328 L1262.12 19.4328 L1262.12 52.4187 Q1262.12 58.6108 1259.74 61.3886 Q1257.4 64.1663 1252.16 64.1663 L1250.14 64.1663 L1250.14 59.6525 L1251.56 59.6525 Q1254.59 59.6525 1255.69 58.2346 Q1256.79 56.8458 1256.79 52.4187 L1256.79 19.4328 M1256.79 6.81709 L1262.12 6.81709 L1262.12 13.559 L1256.79 13.559 L1256.79 6.81709 Z" fill="#000000" fill-rule="evenodd" fill-opacity="1" /><path clip-path="url(#clip730)" d="M1300.98 34.3054 L1300.98 36.9095 L1276.5 36.9095 Q1276.84 42.4072 1279.8 45.3007 Q1282.78 48.1653 1288.07 48.1653 Q1291.14 48.1653 1294 47.4129 Q1296.9 46.6606 1299.73 45.156 L1299.73 50.1907 Q1296.87 51.406 1293.86 52.0425 Q1290.85 52.6791 1287.75 52.6791 Q1280 52.6791 1275.46 48.1653 Q1270.94 43.6514 1270.94 35.9547 Q1270.94 27.9975 1275.22 23.339 Q1279.54 18.6515 1286.83 18.6515 Q1293.37 18.6515 1297.16 22.876 Q1300.98 27.0716 1300.98 34.3054 M1295.65 32.7429 Q1295.59 28.3737 1293.19 25.7695 Q1290.82 23.1654 1286.89 23.1654 Q1282.43 23.1654 1279.74 25.6827 Q1277.08 28.2001 1276.67 32.7718 L1295.65 32.7429 Z" fill="#000000" fill-rule="evenodd" fill-opacity="1" /><path clip-path="url(#clip730)" d="M1330.37 20.3876 L1330.37 25.4223 Q1328.12 24.2649 1325.69 23.6862 Q1323.26 23.1075 1320.65 23.1075 Q1316.69 23.1075 1314.69 24.3228 Q1312.72 25.5381 1312.72 27.9686 Q1312.72 29.8204 1314.14 30.891 Q1315.56 31.9327 1319.84 32.8876 L1321.67 33.2926 Q1327.34 34.5079 1329.71 36.7359 Q1332.11 38.935 1332.11 42.8991 Q1332.11 47.4129 1328.52 50.046 Q1324.96 52.6791 1318.71 52.6791 Q1316.11 52.6791 1313.27 52.1583 Q1310.47 51.6664 1307.34 50.6537 L1307.34 45.156 Q1310.29 46.6896 1313.16 47.4708 Q1316.02 48.2231 1318.83 48.2231 Q1322.59 48.2231 1324.62 46.95 Q1326.64 45.6479 1326.64 43.3042 Q1326.64 41.134 1325.17 39.9766 Q1323.72 38.8192 1318.77 37.7486 L1316.92 37.3146 Q1311.97 36.273 1309.77 34.1318 Q1307.57 31.9616 1307.57 28.2001 Q1307.57 23.6283 1310.81 21.1399 Q1314.06 18.6515 1320.02 18.6515 Q1322.97 18.6515 1325.57 19.0855 Q1328.18 19.5196 1330.37 20.3876 Z" fill="#000000" fill-rule="evenodd" fill-opacity="1" /><path clip-path="url(#clip730)" d="M1345.85 10.2314 L1345.85 19.4328 L1356.82 19.4328 L1356.82 23.5705 L1345.85 23.5705 L1345.85 41.163 Q1345.85 45.1271 1346.93 46.2555 Q1348.02 47.384 1351.35 47.384 L1356.82 47.384 L1356.82 51.84 L1351.35 51.84 Q1345.19 51.84 1342.85 49.5541 Q1340.5 47.2393 1340.5 41.163 L1340.5 23.5705 L1336.6 23.5705 L1336.6 19.4328 L1340.5 19.4328 L1340.5 10.2314 L1345.85 10.2314 Z" fill="#000000" fill-rule="evenodd" fill-opacity="1" /><path clip-path="url(#clip730)" d="M1391.54 34.3054 L1391.54 36.9095 L1367.06 36.9095 Q1367.41 42.4072 1370.36 45.3007 Q1373.34 48.1653 1378.64 48.1653 Q1381.71 48.1653 1384.57 47.4129 Q1387.46 46.6606 1390.3 45.156 L1390.3 50.1907 Q1387.43 51.406 1384.43 52.0425 Q1381.42 52.6791 1378.32 52.6791 Q1370.57 52.6791 1366.02 48.1653 Q1361.51 43.6514 1361.51 35.9547 Q1361.51 27.9975 1365.79 23.339 Q1370.1 18.6515 1377.39 18.6515 Q1383.93 18.6515 1387.72 22.876 Q1391.54 27.0716 1391.54 34.3054 M1386.22 32.7429 Q1386.16 28.3737 1383.76 25.7695 Q1381.39 23.1654 1377.45 23.1654 Q1373 23.1654 1370.3 25.6827 Q1367.64 28.2001 1367.24 32.7718 L1386.22 32.7429 Z" fill="#000000" fill-rule="evenodd" fill-opacity="1" /><path clip-path="url(#clip730)" d="M1419.06 24.4096 Q1418.16 23.8888 1417.09 23.6573 Q1416.05 23.3969 1414.78 23.3969 Q1410.26 23.3969 1407.83 26.3482 Q1405.43 29.2707 1405.43 34.7683 L1405.43 51.84 L1400.08 51.84 L1400.08 19.4328 L1405.43 19.4328 L1405.43 24.4675 Q1407.11 21.5161 1409.8 20.0983 Q1412.49 18.6515 1416.34 18.6515 Q1416.89 18.6515 1417.56 18.7383 Q1418.22 18.7962 1419.03 18.9409 L1419.06 24.4096 Z" fill="#000000" fill-rule="evenodd" fill-opacity="1" /><polyline clip-path="url(#clip732)" style="stroke:#e26f46; stroke-linecap:butt; stroke-linejoin:round; stroke-width:8; stroke-opacity:1; fill:none" points="
  403.628,1384.93 433.183,1384.93 462.738,1384.93 492.292,1384.93 521.847,1384.93 551.402,1384.93 580.956,1384.93 610.511,1384.93 640.065,1384.93 669.62,1384.93 
  699.175,1384.93 728.729,1384.93 758.284,1384.93 787.839,1384.93 817.393,1384.93 846.948,1384.93 876.502,1384.93 906.057,1384.93 935.612,1384.93 965.166,1384.93 
  994.721,1384.93 1024.28,1384.93 1053.83,1384.93 1083.38,1384.93 1112.94,1384.93 1142.49,1384.93 1172.05,1384.93 1201.6,1384.93 1231.16,1384.93 1260.71,1384.93 
  1290.27,1384.93 1319.82,1384.93 1349.38,1384.93 1378.93,1384.93 1408.49,1384.93 1438.04,1384.93 1467.59,1384.93 1497.15,1384.93 1526.7,1384.93 1556.26,1384.93 
  1585.81,1384.93 1615.37,1384.93 1644.92,1384.93 1674.48,1384.93 1704.03,1384.93 1733.59,1384.93 1763.14,1384.93 1792.7,1384.93 1822.25,1384.93 1851.81,1384.93 
  1881.36,1384.93 1910.91,1384.93 1940.47,1384.93 1970.02,1384.93 1999.58,1384.93 2029.13,1384.93 2058.69,1384.93 2088.24,1384.93 2117.8,1384.93 2147.35,1384.93 
  2176.91,1384.93 2206.46,1384.93 2236.02,1384.93 2265.57,1384.93 2295.12,1384.93 
  "/>
<polyline clip-path="url(#clip732)" style="stroke:#3da44d; stroke-linecap:butt; stroke-linejoin:round; stroke-width:8; stroke-opacity:1; fill:none" points="
  403.628,331.497 433.183,331.497 462.738,331.497 492.292,331.497 521.847,331.497 551.402,331.497 580.956,331.497 610.511,331.497 640.065,331.497 669.62,331.497 
  699.175,331.497 728.729,331.497 758.284,331.497 787.839,331.497 817.393,331.497 846.948,331.497 876.502,331.497 906.057,331.497 935.612,331.497 965.166,331.497 
  994.721,331.497 1024.28,331.497 1053.83,331.497 1083.38,331.497 1112.94,331.497 1142.49,331.497 1172.05,331.497 1201.6,331.497 1231.16,331.497 1260.71,331.497 
  1290.27,331.497 1319.82,331.497 1349.38,331.497 1378.93,331.497 1408.49,331.497 1438.04,331.497 1467.59,331.497 1497.15,331.497 1526.7,331.497 1556.26,331.497 
  1585.81,331.497 1615.37,331.497 1644.92,331.497 1674.48,331.497 1704.03,331.497 1733.59,331.497 1763.14,331.497 1792.7,331.497 1822.25,331.497 1851.81,331.497 
  1881.36,331.497 1910.91,331.497 1940.47,331.497 1970.02,331.497 1999.58,331.497 2029.13,331.497 2058.69,331.497 2088.24,331.497 2117.8,331.497 2147.35,331.497 
  2176.91,331.497 2206.46,331.497 2236.02,331.497 2265.57,331.497 2295.12,331.497 
  "/>
<polyline clip-path="url(#clip732)" style="stroke:#c271d2; stroke-linecap:butt; stroke-linejoin:round; stroke-width:8; stroke-opacity:1; fill:none" points="
  403.628,143.437 433.183,143.437 462.738,143.437 492.292,143.437 521.847,143.437 551.402,143.437 580.956,143.437 610.511,143.437 640.065,143.437 669.62,143.437 
  699.175,143.437 728.729,143.437 758.284,143.437 787.839,143.437 817.393,143.437 846.948,143.437 876.502,143.437 906.057,143.437 935.612,143.437 965.166,143.437 
  994.721,143.437 1024.28,143.437 1053.83,143.437 1083.38,143.437 1112.94,143.437 1142.49,143.437 1172.05,143.437 1201.6,143.437 1231.16,143.437 1260.71,143.437 
  1290.27,143.437 1319.82,143.437 1349.38,143.437 1378.93,143.437 1408.49,143.437 1438.04,143.437 1467.59,143.437 1497.15,143.437 1526.7,143.437 1556.26,143.437 
  1585.81,143.437 1615.37,143.437 1644.92,143.437 1674.48,143.437 1704.03,143.437 1733.59,143.437 1763.14,143.437 1792.7,143.437 1822.25,143.437 1851.81,143.437 
  1881.36,143.437 1910.91,143.437 1940.47,143.437 1970.02,143.437 1999.58,143.437 2029.13,143.437 2058.69,143.437 2088.24,143.437 2117.8,143.437 2147.35,143.437 
  2176.91,143.437 2206.46,143.437 2236.02,143.437 2265.57,143.437 2295.12,143.437 
  "/>
<polyline clip-path="url(#clip732)" style="stroke:#ac8d18; stroke-linecap:butt; stroke-linejoin:round; stroke-width:8; stroke-opacity:1; fill:none" points="
  403.628,251.043 433.183,251.043 462.738,251.043 492.292,251.043 521.847,251.043 551.402,251.043 580.956,251.043 610.511,251.043 640.065,251.043 669.62,251.043 
  699.175,251.043 728.729,251.043 758.284,251.043 787.839,251.043 817.393,251.043 846.948,251.043 876.502,251.043 906.057,251.043 935.612,251.043 965.166,251.043 
  994.721,251.043 1024.28,251.043 1053.83,251.043 1083.38,251.043 1112.94,251.043 1142.49,251.043 1172.05,251.043 1201.6,251.043 1231.16,251.043 1260.71,251.043 
  1290.27,251.043 1319.82,251.043 1349.38,251.043 1378.93,251.043 1408.49,251.043 1438.04,251.043 1467.59,251.043 1497.15,251.043 1526.7,251.043 1556.26,251.043 
  1585.81,251.043 1615.37,251.043 1644.92,251.043 1674.48,251.043 1704.03,251.043 1733.59,251.043 1763.14,251.043 1792.7,251.043 1822.25,251.043 1851.81,251.043 
  1881.36,251.043 1910.91,251.043 1940.47,251.043 1970.02,251.043 1999.58,251.043 2029.13,251.043 2058.69,251.043 2088.24,251.043 2117.8,251.043 2147.35,251.043 
  2176.91,251.043 2206.46,251.043 2236.02,251.043 2265.57,251.043 2295.12,251.043 
  "/>
<polyline clip-path="url(#clip732)" style="stroke:#00a9ad; stroke-linecap:butt; stroke-linejoin:round; stroke-width:8; stroke-opacity:1; fill:none" points="
  403.628,219.365 433.183,219.365 462.738,219.365 492.292,219.365 521.847,219.365 551.402,219.365 580.956,219.365 610.511,219.365 640.065,219.365 669.62,219.365 
  699.175,219.365 728.729,219.365 758.284,219.365 787.839,219.365 817.393,219.365 846.948,219.365 876.502,219.365 906.057,219.365 935.612,219.365 965.166,219.365 
  994.721,219.365 1024.28,219.365 1053.83,219.365 1083.38,219.365 1112.94,219.365 1142.49,219.365 1172.05,219.365 1201.6,219.365 1231.16,219.365 1260.71,219.365 
  1290.27,219.365 1319.82,219.365 1349.38,219.365 1378.93,219.365 1408.49,219.365 1438.04,219.365 1467.59,219.365 1497.15,219.365 1526.7,219.365 1556.26,219.365 
  1585.81,219.365 1615.37,219.365 1644.92,219.365 1674.48,219.365 1704.03,219.365 1733.59,219.365 1763.14,219.365 1792.7,219.365 1822.25,219.365 1851.81,219.365 
  1881.36,219.365 1910.91,219.365 1940.47,219.365 1970.02,219.365 1999.58,219.365 2029.13,219.365 2058.69,219.365 2088.24,219.365 2117.8,219.365 2147.35,219.365 
  2176.91,219.365 2206.46,219.365 2236.02,219.365 2265.57,219.365 2295.12,219.365 
  "/>
<polyline clip-path="url(#clip732)" style="stroke:#009af9; stroke-linecap:butt; stroke-linejoin:round; stroke-width:12; stroke-opacity:1; fill:none" points="
  403.628,311.326 433.183,281.985 462.738,264.509 492.292,256.864 521.847,252.074 551.402,247.093 580.956,243.423 610.511,241.681 640.065,240.046 669.62,239.718 
  699.175,237.277 728.729,237.191 758.284,235.365 787.839,233.728 817.393,231.969 846.948,229.81 876.502,229.731 906.057,228.66 935.612,229.475 965.166,228.932 
  994.721,228.929 1024.28,227.636 1053.83,227.473 1083.38,225.981 1112.94,225.717 1142.49,225.173 1172.05,224.894 1201.6,225.684 1231.16,225.705 1260.71,225.694 
  1290.27,225.209 1319.82,224.92 1349.38,224.305 1378.93,224.303 1408.49,223.444 1438.04,223.102 1467.59,223.539 1497.15,223.973 1526.7,223.962 1556.26,223.645 
  1585.81,223.553 1615.37,223.265 1644.92,223.024 1674.48,222.889 1704.03,222.529 1733.59,222.928 1763.14,223.103 1792.7,223.203 1822.25,223.275 1851.81,222.94 
  
  "/>
<polyline clip-path="url(#clip732)" style="stroke:#f05f73; stroke-linecap:butt; stroke-linejoin:round; stroke-width:12; stroke-opacity:1; fill:none" points="
  1851.81,222.94 1881.36,222.884 1910.91,223.29 1940.47,223.61 1970.02,223.874 1999.58,224.107 2029.13,224.321 2058.69,224.516 2088.24,224.693 2117.8,224.857 
  2147.35,225.011 2176.91,225.154 2206.46,225.288 2236.02,225.412 2265.57,225.528 2295.12,225.638 
  "/>
</svg>
