<?xml version="1.0" encoding="utf-8"?>
<svg xmlns="http://www.w3.org/2000/svg" xmlns:xlink="http://www.w3.org/1999/xlink" width="600" height="400" viewBox="0 0 2400 1600">
<defs>
  <clipPath id="clip380">
    <rect x="0" y="0" width="2400" height="1600"/>
  </clipPath>
</defs>
<path clip-path="url(#clip380)" d="
M0 1600 L2400 1600 L2400 0 L0 0  Z
  " fill="#ffffff" fill-rule="evenodd" fill-opacity="1"/>
<defs>
  <clipPath id="clip381">
    <rect x="480" y="0" width="1681" height="1600"/>
  </clipPath>
</defs>
<path clip-path="url(#clip380)" d="
M240.129 1444.78 L2352.76 1444.78 L2352.76 106.192 L240.129 106.192  Z
  " fill="#eaeaea" fill-rule="evenodd" fill-opacity="1"/>
<defs>
  <clipPath id="clip382">
    <rect x="240" y="106" width="2114" height="1340"/>
  </clipPath>
</defs>
<polyline clip-path="url(#clip382)" style="stroke:#ffffff; stroke-linecap:butt; stroke-linejoin:round; stroke-width:4; stroke-opacity:1; fill:none" points="
  299.921,1444.78 299.921,106.192 
  "/>
<polyline clip-path="url(#clip382)" style="stroke:#ffffff; stroke-linecap:butt; stroke-linejoin:round; stroke-width:4; stroke-opacity:1; fill:none" points="
  499.225,1444.78 499.225,106.192 
  "/>
<polyline clip-path="url(#clip382)" style="stroke:#ffffff; stroke-linecap:butt; stroke-linejoin:round; stroke-width:4; stroke-opacity:1; fill:none" points="
  698.53,1444.78 698.53,106.192 
  "/>
<polyline clip-path="url(#clip382)" style="stroke:#ffffff; stroke-linecap:butt; stroke-linejoin:round; stroke-width:4; stroke-opacity:1; fill:none" points="
  897.834,1444.78 897.834,106.192 
  "/>
<polyline clip-path="url(#clip382)" style="stroke:#ffffff; stroke-linecap:butt; stroke-linejoin:round; stroke-width:4; stroke-opacity:1; fill:none" points="
  1097.14,1444.78 1097.14,106.192 
  "/>
<polyline clip-path="url(#clip382)" style="stroke:#ffffff; stroke-linecap:butt; stroke-linejoin:round; stroke-width:4; stroke-opacity:1; fill:none" points="
  1296.44,1444.78 1296.44,106.192 
  "/>
<polyline clip-path="url(#clip382)" style="stroke:#ffffff; stroke-linecap:butt; stroke-linejoin:round; stroke-width:4; stroke-opacity:1; fill:none" points="
  1495.75,1444.78 1495.75,106.192 
  "/>
<polyline clip-path="url(#clip382)" style="stroke:#ffffff; stroke-linecap:butt; stroke-linejoin:round; stroke-width:4; stroke-opacity:1; fill:none" points="
  1695.05,1444.78 1695.05,106.192 
  "/>
<polyline clip-path="url(#clip382)" style="stroke:#ffffff; stroke-linecap:butt; stroke-linejoin:round; stroke-width:4; stroke-opacity:1; fill:none" points="
  1894.36,1444.78 1894.36,106.192 
  "/>
<polyline clip-path="url(#clip382)" style="stroke:#ffffff; stroke-linecap:butt; stroke-linejoin:round; stroke-width:4; stroke-opacity:1; fill:none" points="
  2093.66,1444.78 2093.66,106.192 
  "/>
<polyline clip-path="url(#clip382)" style="stroke:#ffffff; stroke-linecap:butt; stroke-linejoin:round; stroke-width:4; stroke-opacity:1; fill:none" points="
  2292.96,1444.78 2292.96,106.192 
  "/>
<polyline clip-path="url(#clip382)" style="stroke:#ffffff; stroke-linecap:butt; stroke-linejoin:round; stroke-width:2; stroke-opacity:1; fill:none" points="
  399.573,1444.78 399.573,106.192 
  "/>
<polyline clip-path="url(#clip382)" style="stroke:#ffffff; stroke-linecap:butt; stroke-linejoin:round; stroke-width:2; stroke-opacity:1; fill:none" points="
  598.877,1444.78 598.877,106.192 
  "/>
<polyline clip-path="url(#clip382)" style="stroke:#ffffff; stroke-linecap:butt; stroke-linejoin:round; stroke-width:2; stroke-opacity:1; fill:none" points="
  798.182,1444.78 798.182,106.192 
  "/>
<polyline clip-path="url(#clip382)" style="stroke:#ffffff; stroke-linecap:butt; stroke-linejoin:round; stroke-width:2; stroke-opacity:1; fill:none" points="
  997.486,1444.78 997.486,106.192 
  "/>
<polyline clip-path="url(#clip382)" style="stroke:#ffffff; stroke-linecap:butt; stroke-linejoin:round; stroke-width:2; stroke-opacity:1; fill:none" points="
  1196.79,1444.78 1196.79,106.192 
  "/>
<polyline clip-path="url(#clip382)" style="stroke:#ffffff; stroke-linecap:butt; stroke-linejoin:round; stroke-width:2; stroke-opacity:1; fill:none" points="
  1396.09,1444.78 1396.09,106.192 
  "/>
<polyline clip-path="url(#clip382)" style="stroke:#ffffff; stroke-linecap:butt; stroke-linejoin:round; stroke-width:2; stroke-opacity:1; fill:none" points="
  1595.4,1444.78 1595.4,106.192 
  "/>
<polyline clip-path="url(#clip382)" style="stroke:#ffffff; stroke-linecap:butt; stroke-linejoin:round; stroke-width:2; stroke-opacity:1; fill:none" points="
  1794.7,1444.78 1794.7,106.192 
  "/>
<polyline clip-path="url(#clip382)" style="stroke:#ffffff; stroke-linecap:butt; stroke-linejoin:round; stroke-width:2; stroke-opacity:1; fill:none" points="
  1994.01,1444.78 1994.01,106.192 
  "/>
<polyline clip-path="url(#clip382)" style="stroke:#ffffff; stroke-linecap:butt; stroke-linejoin:round; stroke-width:2; stroke-opacity:1; fill:none" points="
  2193.31,1444.78 2193.31,106.192 
  "/>
<polyline clip-path="url(#clip380)" style="stroke:#ffffff; stroke-linecap:butt; stroke-linejoin:round; stroke-width:4; stroke-opacity:1; fill:none" points="
  240.129,1444.78 2352.76,1444.78 
  "/>
<polyline clip-path="url(#clip380)" style="stroke:#333333; stroke-linecap:butt; stroke-linejoin:round; stroke-width:4; stroke-opacity:1; fill:none" points="
  299.921,1444.78 299.921,1463.68 
  "/>
<polyline clip-path="url(#clip380)" style="stroke:#333333; stroke-linecap:butt; stroke-linejoin:round; stroke-width:4; stroke-opacity:1; fill:none" points="
  499.225,1444.78 499.225,1463.68 
  "/>
<polyline clip-path="url(#clip380)" style="stroke:#333333; stroke-linecap:butt; stroke-linejoin:round; stroke-width:4; stroke-opacity:1; fill:none" points="
  698.53,1444.78 698.53,1463.68 
  "/>
<polyline clip-path="url(#clip380)" style="stroke:#333333; stroke-linecap:butt; stroke-linejoin:round; stroke-width:4; stroke-opacity:1; fill:none" points="
  897.834,1444.78 897.834,1463.68 
  "/>
<polyline clip-path="url(#clip380)" style="stroke:#333333; stroke-linecap:butt; stroke-linejoin:round; stroke-width:4; stroke-opacity:1; fill:none" points="
  1097.14,1444.78 1097.14,1463.68 
  "/>
<polyline clip-path="url(#clip380)" style="stroke:#333333; stroke-linecap:butt; stroke-linejoin:round; stroke-width:4; stroke-opacity:1; fill:none" points="
  1296.44,1444.78 1296.44,1463.68 
  "/>
<polyline clip-path="url(#clip380)" style="stroke:#333333; stroke-linecap:butt; stroke-linejoin:round; stroke-width:4; stroke-opacity:1; fill:none" points="
  1495.75,1444.78 1495.75,1463.68 
  "/>
<polyline clip-path="url(#clip380)" style="stroke:#333333; stroke-linecap:butt; stroke-linejoin:round; stroke-width:4; stroke-opacity:1; fill:none" points="
  1695.05,1444.78 1695.05,1463.68 
  "/>
<polyline clip-path="url(#clip380)" style="stroke:#333333; stroke-linecap:butt; stroke-linejoin:round; stroke-width:4; stroke-opacity:1; fill:none" points="
  1894.36,1444.78 1894.36,1463.68 
  "/>
<polyline clip-path="url(#clip380)" style="stroke:#333333; stroke-linecap:butt; stroke-linejoin:round; stroke-width:4; stroke-opacity:1; fill:none" points="
  2093.66,1444.78 2093.66,1463.68 
  "/>
<polyline clip-path="url(#clip380)" style="stroke:#333333; stroke-linecap:butt; stroke-linejoin:round; stroke-width:4; stroke-opacity:1; fill:none" points="
  2292.96,1444.78 2292.96,1463.68 
  "/>
<polyline clip-path="url(#clip380)" style="stroke:#333333; stroke-linecap:butt; stroke-linejoin:round; stroke-width:4; stroke-opacity:1; fill:none" points="
  399.573,1444.78 399.573,1454.23 
  "/>
<polyline clip-path="url(#clip380)" style="stroke:#333333; stroke-linecap:butt; stroke-linejoin:round; stroke-width:4; stroke-opacity:1; fill:none" points="
  598.877,1444.78 598.877,1454.23 
  "/>
<polyline clip-path="url(#clip380)" style="stroke:#333333; stroke-linecap:butt; stroke-linejoin:round; stroke-width:4; stroke-opacity:1; fill:none" points="
  798.182,1444.78 798.182,1454.23 
  "/>
<polyline clip-path="url(#clip380)" style="stroke:#333333; stroke-linecap:butt; stroke-linejoin:round; stroke-width:4; stroke-opacity:1; fill:none" points="
  997.486,1444.78 997.486,1454.23 
  "/>
<polyline clip-path="url(#clip380)" style="stroke:#333333; stroke-linecap:butt; stroke-linejoin:round; stroke-width:4; stroke-opacity:1; fill:none" points="
  1196.79,1444.78 1196.79,1454.23 
  "/>
<polyline clip-path="url(#clip380)" style="stroke:#333333; stroke-linecap:butt; stroke-linejoin:round; stroke-width:4; stroke-opacity:1; fill:none" points="
  1396.09,1444.78 1396.09,1454.23 
  "/>
<polyline clip-path="url(#clip380)" style="stroke:#333333; stroke-linecap:butt; stroke-linejoin:round; stroke-width:4; stroke-opacity:1; fill:none" points="
  1595.4,1444.78 1595.4,1454.23 
  "/>
<polyline clip-path="url(#clip380)" style="stroke:#333333; stroke-linecap:butt; stroke-linejoin:round; stroke-width:4; stroke-opacity:1; fill:none" points="
  1794.7,1444.78 1794.7,1454.23 
  "/>
<polyline clip-path="url(#clip380)" style="stroke:#333333; stroke-linecap:butt; stroke-linejoin:round; stroke-width:4; stroke-opacity:1; fill:none" points="
  1994.01,1444.78 1994.01,1454.23 
  "/>
<polyline clip-path="url(#clip380)" style="stroke:#333333; stroke-linecap:butt; stroke-linejoin:round; stroke-width:4; stroke-opacity:1; fill:none" points="
  2193.31,1444.78 2193.31,1454.23 
  "/>
<path clip-path="url(#clip380)" d="M299.921 1482.37 Q297.212 1482.37 295.841 1485.04 Q294.487 1487.7 294.487 1493.05 Q294.487 1498.38 295.841 1501.05 Q297.212 1503.71 299.921 1503.71 Q302.646 1503.71 304.001 1501.05 Q305.372 1498.38 305.372 1493.05 Q305.372 1487.7 304.001 1485.04 Q302.646 1482.37 299.921 1482.37 M299.921 1479.59 Q304.278 1479.59 306.57 1483.05 Q308.879 1486.48 308.879 1493.05 Q308.879 1499.59 306.57 1503.05 Q304.278 1506.48 299.921 1506.48 Q295.563 1506.48 293.254 1503.05 Q290.962 1499.59 290.962 1493.05 Q290.962 1486.48 293.254 1483.05 Q295.563 1479.59 299.921 1479.59 Z" fill="#4c4c4c" fill-rule="evenodd" fill-opacity="1" /><path clip-path="url(#clip380)" d="M480.241 1503.03 L485.97 1503.03 L485.97 1483.25 L479.737 1484.5 L479.737 1481.31 L485.935 1480.06 L489.442 1480.06 L489.442 1503.03 L495.171 1503.03 L495.171 1505.98 L480.241 1505.98 L480.241 1503.03 Z" fill="#4c4c4c" fill-rule="evenodd" fill-opacity="1" /><path clip-path="url(#clip380)" d="M509.755 1482.37 Q507.046 1482.37 505.675 1485.04 Q504.321 1487.7 504.321 1493.05 Q504.321 1498.38 505.675 1501.05 Q507.046 1503.71 509.755 1503.71 Q512.48 1503.71 513.834 1501.05 Q515.206 1498.38 515.206 1493.05 Q515.206 1487.7 513.834 1485.04 Q512.48 1482.37 509.755 1482.37 M509.755 1479.59 Q514.112 1479.59 516.404 1483.05 Q518.713 1486.48 518.713 1493.05 Q518.713 1499.59 516.404 1503.05 Q514.112 1506.48 509.755 1506.48 Q505.397 1506.48 503.088 1503.05 Q500.796 1499.59 500.796 1493.05 Q500.796 1486.48 503.088 1483.05 Q505.397 1479.59 509.755 1479.59 Z" fill="#4c4c4c" fill-rule="evenodd" fill-opacity="1" /><path clip-path="url(#clip380)" d="M682.609 1503.03 L694.849 1503.03 L694.849 1505.98 L678.391 1505.98 L678.391 1503.03 Q680.387 1500.96 683.825 1497.49 Q687.28 1494 688.165 1492.99 Q689.849 1491.1 690.509 1489.8 Q691.186 1488.48 691.186 1487.21 Q691.186 1485.15 689.728 1483.84 Q688.287 1482.54 685.96 1482.54 Q684.311 1482.54 682.471 1483.12 Q680.648 1483.69 678.564 1484.85 L678.564 1481.31 Q680.682 1480.46 682.523 1480.03 Q684.363 1479.59 685.891 1479.59 Q689.918 1479.59 692.314 1481.6 Q694.71 1483.62 694.71 1486.99 Q694.71 1488.58 694.102 1490.03 Q693.512 1491.45 691.932 1493.39 Q691.498 1493.9 689.172 1496.31 Q686.846 1498.71 682.609 1503.03 Z" fill="#4c4c4c" fill-rule="evenodd" fill-opacity="1" /><path clip-path="url(#clip380)" d="M709.71 1482.37 Q707.002 1482.37 705.63 1485.04 Q704.276 1487.7 704.276 1493.05 Q704.276 1498.38 705.63 1501.05 Q707.002 1503.71 709.71 1503.71 Q712.436 1503.71 713.79 1501.05 Q715.161 1498.38 715.161 1493.05 Q715.161 1487.7 713.79 1485.04 Q712.436 1482.37 709.71 1482.37 M709.71 1479.59 Q714.068 1479.59 716.359 1483.05 Q718.668 1486.48 718.668 1493.05 Q718.668 1499.59 716.359 1503.05 Q714.068 1506.48 709.71 1506.48 Q705.352 1506.48 703.043 1503.05 Q700.752 1499.59 700.752 1493.05 Q700.752 1486.48 703.043 1483.05 Q705.352 1479.59 709.71 1479.59 Z" fill="#4c4c4c" fill-rule="evenodd" fill-opacity="1" /><path clip-path="url(#clip380)" d="M889.466 1492 Q891.983 1492.54 893.39 1494.24 Q894.813 1495.95 894.813 1498.45 Q894.813 1502.28 892.174 1504.38 Q889.535 1506.48 884.674 1506.48 Q883.042 1506.48 881.306 1506.15 Q879.587 1505.84 877.747 1505.2 L877.747 1501.81 Q879.206 1502.66 880.942 1503.1 Q882.678 1503.53 884.57 1503.53 Q887.869 1503.53 889.587 1502.23 Q891.324 1500.93 891.324 1498.45 Q891.324 1496.15 889.709 1494.87 Q888.112 1493.57 885.247 1493.57 L882.226 1493.57 L882.226 1490.68 L885.386 1490.68 Q887.973 1490.68 889.344 1489.66 Q890.716 1488.62 890.716 1486.67 Q890.716 1484.68 889.292 1483.62 Q887.886 1482.54 885.247 1482.54 Q883.806 1482.54 882.157 1482.85 Q880.508 1483.17 878.528 1483.83 L878.528 1480.7 Q880.525 1480.15 882.261 1479.87 Q884.015 1479.59 885.56 1479.59 Q889.553 1479.59 891.879 1481.41 Q894.205 1483.22 894.205 1486.31 Q894.205 1488.46 892.973 1489.96 Q891.74 1491.43 889.466 1492 Z" fill="#4c4c4c" fill-rule="evenodd" fill-opacity="1" /><path clip-path="url(#clip380)" d="M908.962 1482.37 Q906.254 1482.37 904.882 1485.04 Q903.528 1487.7 903.528 1493.05 Q903.528 1498.38 904.882 1501.05 Q906.254 1503.71 908.962 1503.71 Q911.688 1503.71 913.042 1501.05 Q914.414 1498.38 914.414 1493.05 Q914.414 1487.7 913.042 1485.04 Q911.688 1482.37 908.962 1482.37 M908.962 1479.59 Q913.32 1479.59 915.612 1483.05 Q917.921 1486.48 917.921 1493.05 Q917.921 1499.59 915.612 1503.05 Q913.32 1506.48 908.962 1506.48 Q904.605 1506.48 902.296 1503.05 Q900.004 1499.59 900.004 1493.05 Q900.004 1486.48 902.296 1483.05 Q904.605 1479.59 908.962 1479.59 Z" fill="#4c4c4c" fill-rule="evenodd" fill-opacity="1" /><path clip-path="url(#clip380)" d="M1088.27 1483.12 L1079.41 1496.95 L1088.27 1496.95 L1088.27 1483.12 M1087.35 1480.06 L1091.76 1480.06 L1091.76 1496.95 L1095.45 1496.95 L1095.45 1499.87 L1091.76 1499.87 L1091.76 1505.98 L1088.27 1505.98 L1088.27 1499.87 L1076.57 1499.87 L1076.57 1496.48 L1087.35 1480.06 Z" fill="#4c4c4c" fill-rule="evenodd" fill-opacity="1" /><path clip-path="url(#clip380)" d="M1108.75 1482.37 Q1106.04 1482.37 1104.67 1485.04 Q1103.32 1487.7 1103.32 1493.05 Q1103.32 1498.38 1104.67 1501.05 Q1106.04 1503.71 1108.75 1503.71 Q1111.48 1503.71 1112.83 1501.05 Q1114.2 1498.38 1114.2 1493.05 Q1114.2 1487.7 1112.83 1485.04 Q1111.48 1482.37 1108.75 1482.37 M1108.75 1479.59 Q1113.11 1479.59 1115.4 1483.05 Q1117.71 1486.48 1117.71 1493.05 Q1117.71 1499.59 1115.4 1503.05 Q1113.11 1506.48 1108.75 1506.48 Q1104.4 1506.48 1102.09 1503.05 Q1099.79 1499.59 1099.79 1493.05 Q1099.79 1486.48 1102.09 1483.05 Q1104.4 1479.59 1108.75 1479.59 Z" fill="#4c4c4c" fill-rule="evenodd" fill-opacity="1" /><path clip-path="url(#clip380)" d="M1277.47 1480.06 L1291.23 1480.06 L1291.23 1483.01 L1280.68 1483.01 L1280.68 1489.37 Q1281.44 1489.1 1282.21 1488.98 Q1282.97 1488.84 1283.73 1488.84 Q1288.07 1488.84 1290.61 1491.22 Q1293.14 1493.6 1293.14 1497.66 Q1293.14 1501.85 1290.54 1504.17 Q1287.94 1506.48 1283.2 1506.48 Q1281.56 1506.48 1279.86 1506.21 Q1278.18 1505.93 1276.37 1505.37 L1276.37 1501.85 Q1277.94 1502.7 1279.6 1503.12 Q1281.27 1503.53 1283.13 1503.53 Q1286.13 1503.53 1287.88 1501.95 Q1289.64 1500.37 1289.64 1497.66 Q1289.64 1494.96 1287.88 1493.38 Q1286.13 1491.8 1283.13 1491.8 Q1281.72 1491.8 1280.31 1492.11 Q1278.93 1492.42 1277.47 1493.08 L1277.47 1480.06 Z" fill="#4c4c4c" fill-rule="evenodd" fill-opacity="1" /><path clip-path="url(#clip380)" d="M1307.55 1482.37 Q1304.85 1482.37 1303.47 1485.04 Q1302.12 1487.7 1302.12 1493.05 Q1302.12 1498.38 1303.47 1501.05 Q1304.85 1503.71 1307.55 1503.71 Q1310.28 1503.71 1311.63 1501.05 Q1313.01 1498.38 1313.01 1493.05 Q1313.01 1487.7 1311.63 1485.04 Q1310.28 1482.37 1307.55 1482.37 M1307.55 1479.59 Q1311.91 1479.59 1314.2 1483.05 Q1316.51 1486.48 1316.51 1493.05 Q1316.51 1499.59 1314.2 1503.05 Q1311.91 1506.48 1307.55 1506.48 Q1303.2 1506.48 1300.89 1503.05 Q1298.6 1499.59 1298.6 1493.05 Q1298.6 1486.48 1300.89 1483.05 Q1303.2 1479.59 1307.55 1479.59 Z" fill="#4c4c4c" fill-rule="evenodd" fill-opacity="1" /><path clip-path="url(#clip380)" d="M1484.8 1491.62 Q1482.44 1491.62 1481.05 1493.24 Q1479.68 1494.85 1479.68 1497.66 Q1479.68 1500.46 1481.05 1502.09 Q1482.44 1503.71 1484.8 1503.71 Q1487.16 1503.71 1488.53 1502.09 Q1489.92 1500.46 1489.92 1497.66 Q1489.92 1494.85 1488.53 1493.24 Q1487.16 1491.62 1484.8 1491.62 M1491.76 1480.63 L1491.76 1483.83 Q1490.44 1483.2 1489.09 1482.87 Q1487.75 1482.54 1486.43 1482.54 Q1482.96 1482.54 1481.12 1484.89 Q1479.3 1487.23 1479.04 1491.97 Q1480.06 1490.46 1481.61 1489.66 Q1483.15 1488.84 1485.01 1488.84 Q1488.92 1488.84 1491.17 1491.22 Q1493.45 1493.58 1493.45 1497.66 Q1493.45 1501.66 1491.09 1504.07 Q1488.72 1506.48 1484.8 1506.48 Q1480.3 1506.48 1477.93 1503.05 Q1475.55 1499.59 1475.55 1493.05 Q1475.55 1486.9 1478.46 1483.25 Q1481.38 1479.59 1486.29 1479.59 Q1487.61 1479.59 1488.95 1479.85 Q1490.3 1480.11 1491.76 1480.63 Z" fill="#4c4c4c" fill-rule="evenodd" fill-opacity="1" /><path clip-path="url(#clip380)" d="M1506.99 1482.37 Q1504.28 1482.37 1502.91 1485.04 Q1501.55 1487.7 1501.55 1493.05 Q1501.55 1498.38 1502.91 1501.05 Q1504.28 1503.71 1506.99 1503.71 Q1509.71 1503.71 1511.07 1501.05 Q1512.44 1498.38 1512.44 1493.05 Q1512.44 1487.7 1511.07 1485.04 Q1509.71 1482.37 1506.99 1482.37 M1506.99 1479.59 Q1511.35 1479.59 1513.64 1483.05 Q1515.95 1486.48 1515.95 1493.05 Q1515.95 1499.59 1513.64 1503.05 Q1511.35 1506.48 1506.99 1506.48 Q1502.63 1506.48 1500.32 1503.05 Q1498.03 1499.59 1498.03 1493.05 Q1498.03 1486.48 1500.32 1483.05 Q1502.63 1479.59 1506.99 1479.59 Z" fill="#4c4c4c" fill-rule="evenodd" fill-opacity="1" /><path clip-path="url(#clip380)" d="M1675.07 1480.06 L1691.74 1480.06 L1691.74 1481.55 L1682.33 1505.98 L1678.66 1505.98 L1687.52 1483.01 L1675.07 1483.01 L1675.07 1480.06 Z" fill="#4c4c4c" fill-rule="evenodd" fill-opacity="1" /><path clip-path="url(#clip380)" d="M1706.08 1482.37 Q1703.37 1482.37 1702 1485.04 Q1700.64 1487.7 1700.64 1493.05 Q1700.64 1498.38 1702 1501.05 Q1703.37 1503.71 1706.08 1503.71 Q1708.8 1503.71 1710.16 1501.05 Q1711.53 1498.38 1711.53 1493.05 Q1711.53 1487.7 1710.16 1485.04 Q1708.8 1482.37 1706.08 1482.37 M1706.08 1479.59 Q1710.43 1479.59 1712.72 1483.05 Q1715.03 1486.48 1715.03 1493.05 Q1715.03 1499.59 1712.72 1503.05 Q1710.43 1506.48 1706.08 1506.48 Q1701.72 1506.48 1699.41 1503.05 Q1697.12 1499.59 1697.12 1493.05 Q1697.12 1486.48 1699.41 1483.05 Q1701.72 1479.59 1706.08 1479.59 Z" fill="#4c4c4c" fill-rule="evenodd" fill-opacity="1" /><path clip-path="url(#clip380)" d="M1883.01 1493.67 Q1880.51 1493.67 1879.07 1495.01 Q1877.65 1496.34 1877.65 1498.69 Q1877.65 1501.03 1879.07 1502.37 Q1880.51 1503.71 1883.01 1503.71 Q1885.51 1503.71 1886.95 1502.37 Q1888.39 1501.01 1888.39 1498.69 Q1888.39 1496.34 1886.95 1495.01 Q1885.53 1493.67 1883.01 1493.67 M1879.5 1492.18 Q1877.25 1491.62 1875.98 1490.08 Q1874.73 1488.53 1874.73 1486.31 Q1874.73 1483.2 1876.93 1481.4 Q1879.16 1479.59 1883.01 1479.59 Q1886.88 1479.59 1889.09 1481.4 Q1891.29 1483.2 1891.29 1486.31 Q1891.29 1488.53 1890.02 1490.08 Q1888.77 1491.62 1886.53 1492.18 Q1889.07 1492.77 1890.48 1494.49 Q1891.9 1496.21 1891.9 1498.69 Q1891.9 1502.46 1889.59 1504.47 Q1887.3 1506.48 1883.01 1506.48 Q1878.72 1506.48 1876.41 1504.47 Q1874.12 1502.46 1874.12 1498.69 Q1874.12 1496.21 1875.55 1494.49 Q1876.97 1492.77 1879.5 1492.18 M1878.22 1486.64 Q1878.22 1488.65 1879.47 1489.78 Q1880.74 1490.91 1883.01 1490.91 Q1885.27 1490.91 1886.53 1489.78 Q1887.82 1488.65 1887.82 1486.64 Q1887.82 1484.63 1886.53 1483.5 Q1885.27 1482.37 1883.01 1482.37 Q1880.74 1482.37 1879.47 1483.5 Q1878.22 1484.63 1878.22 1486.64 Z" fill="#4c4c4c" fill-rule="evenodd" fill-opacity="1" /><path clip-path="url(#clip380)" d="M1905.63 1482.37 Q1902.92 1482.37 1901.55 1485.04 Q1900.2 1487.7 1900.2 1493.05 Q1900.2 1498.38 1901.55 1501.05 Q1902.92 1503.71 1905.63 1503.71 Q1908.36 1503.71 1909.71 1501.05 Q1911.08 1498.38 1911.08 1493.05 Q1911.08 1487.7 1909.71 1485.04 Q1908.36 1482.37 1905.63 1482.37 M1905.63 1479.59 Q1909.99 1479.59 1912.28 1483.05 Q1914.59 1486.48 1914.59 1493.05 Q1914.59 1499.59 1912.28 1503.05 Q1909.99 1506.48 1905.63 1506.48 Q1901.27 1506.48 1898.97 1503.05 Q1896.67 1499.59 1896.67 1493.05 Q1896.67 1486.48 1898.97 1483.05 Q1901.27 1479.59 1905.63 1479.59 Z" fill="#4c4c4c" fill-rule="evenodd" fill-opacity="1" /><path clip-path="url(#clip380)" d="M2075.01 1505.44 L2075.01 1502.25 Q2076.33 1502.87 2077.68 1503.2 Q2079.03 1503.53 2080.34 1503.53 Q2083.81 1503.53 2085.63 1501.21 Q2087.47 1498.86 2087.73 1494.1 Q2086.72 1495.6 2085.18 1496.4 Q2083.63 1497.2 2081.76 1497.2 Q2077.87 1497.2 2075.6 1494.85 Q2073.34 1492.49 2073.34 1488.41 Q2073.34 1484.42 2075.7 1482 Q2078.06 1479.59 2081.98 1479.59 Q2086.48 1479.59 2088.84 1483.05 Q2091.22 1486.48 2091.22 1493.05 Q2091.22 1499.17 2088.3 1502.84 Q2085.41 1506.48 2080.49 1506.48 Q2079.17 1506.48 2077.82 1506.22 Q2076.46 1505.96 2075.01 1505.44 M2081.98 1494.45 Q2084.35 1494.45 2085.72 1492.84 Q2087.11 1491.22 2087.11 1488.41 Q2087.11 1485.62 2085.72 1484 Q2084.35 1482.37 2081.98 1482.37 Q2079.62 1482.37 2078.23 1484 Q2076.86 1485.62 2076.86 1488.41 Q2076.86 1491.22 2078.23 1492.84 Q2079.62 1494.45 2081.98 1494.45 Z" fill="#4c4c4c" fill-rule="evenodd" fill-opacity="1" /><path clip-path="url(#clip380)" d="M2105.02 1482.37 Q2102.31 1482.37 2100.94 1485.04 Q2099.59 1487.7 2099.59 1493.05 Q2099.59 1498.38 2100.94 1501.05 Q2102.31 1503.71 2105.02 1503.71 Q2107.75 1503.71 2109.1 1501.05 Q2110.47 1498.38 2110.47 1493.05 Q2110.47 1487.7 2109.1 1485.04 Q2107.75 1482.37 2105.02 1482.37 M2105.02 1479.59 Q2109.38 1479.59 2111.67 1483.05 Q2113.98 1486.48 2113.98 1493.05 Q2113.98 1499.59 2111.67 1503.05 Q2109.38 1506.48 2105.02 1506.48 Q2100.67 1506.48 2098.36 1503.05 Q2096.06 1499.59 2096.06 1493.05 Q2096.06 1486.48 2098.36 1483.05 Q2100.67 1479.59 2105.02 1479.59 Z" fill="#4c4c4c" fill-rule="evenodd" fill-opacity="1" /><path clip-path="url(#clip380)" d="M2262.67 1503.03 L2268.4 1503.03 L2268.4 1483.25 L2262.17 1484.5 L2262.17 1481.31 L2268.36 1480.06 L2271.87 1480.06 L2271.87 1503.03 L2277.6 1503.03 L2277.6 1505.98 L2262.67 1505.98 L2262.67 1503.03 Z" fill="#4c4c4c" fill-rule="evenodd" fill-opacity="1" /><path clip-path="url(#clip380)" d="M2292.18 1482.37 Q2289.48 1482.37 2288.1 1485.04 Q2286.75 1487.7 2286.75 1493.05 Q2286.75 1498.38 2288.1 1501.05 Q2289.48 1503.71 2292.18 1503.71 Q2294.91 1503.71 2296.26 1501.05 Q2297.63 1498.38 2297.63 1493.05 Q2297.63 1487.7 2296.26 1485.04 Q2294.91 1482.37 2292.18 1482.37 M2292.18 1479.59 Q2296.54 1479.59 2298.83 1483.05 Q2301.14 1486.48 2301.14 1493.05 Q2301.14 1499.59 2298.83 1503.05 Q2296.54 1506.48 2292.18 1506.48 Q2287.83 1506.48 2285.52 1503.05 Q2283.23 1499.59 2283.23 1493.05 Q2283.23 1486.48 2285.52 1483.05 Q2287.83 1479.59 2292.18 1479.59 Z" fill="#4c4c4c" fill-rule="evenodd" fill-opacity="1" /><path clip-path="url(#clip380)" d="M2314.8 1482.37 Q2312.1 1482.37 2310.72 1485.04 Q2309.37 1487.7 2309.37 1493.05 Q2309.37 1498.38 2310.72 1501.05 Q2312.1 1503.71 2314.8 1503.71 Q2317.53 1503.71 2318.88 1501.05 Q2320.26 1498.38 2320.26 1493.05 Q2320.26 1487.7 2318.88 1485.04 Q2317.53 1482.37 2314.8 1482.37 M2314.8 1479.59 Q2319.16 1479.59 2321.45 1483.05 Q2323.76 1486.48 2323.76 1493.05 Q2323.76 1499.59 2321.45 1503.05 Q2319.16 1506.48 2314.8 1506.48 Q2310.45 1506.48 2308.14 1503.05 Q2305.85 1499.59 2305.85 1493.05 Q2305.85 1486.48 2308.14 1483.05 Q2310.45 1479.59 2314.8 1479.59 Z" fill="#4c4c4c" fill-rule="evenodd" fill-opacity="1" /><path clip-path="url(#clip380)" d="M1187.03 1526.57 L1191.71 1526.57 L1191.71 1561.13 L1187.03 1561.13 L1187.03 1526.57 Z" fill="#000000" fill-rule="evenodd" fill-opacity="1" /><path clip-path="url(#clip380)" d="M1205.04 1527.84 L1205.04 1535.21 L1213.82 1535.21 L1213.82 1538.52 L1205.04 1538.52 L1205.04 1552.59 Q1205.04 1555.76 1205.9 1556.66 Q1206.78 1557.57 1209.44 1557.57 L1213.82 1557.57 L1213.82 1561.13 L1209.44 1561.13 Q1204.51 1561.13 1202.64 1559.3 Q1200.76 1557.45 1200.76 1552.59 L1200.76 1538.52 L1197.64 1538.52 L1197.64 1535.21 L1200.76 1535.21 L1200.76 1527.84 L1205.04 1527.84 Z" fill="#000000" fill-rule="evenodd" fill-opacity="1" /><path clip-path="url(#clip380)" d="M1241.59 1547.1 L1241.59 1549.19 L1222.01 1549.19 Q1222.29 1553.59 1224.65 1555.9 Q1227.03 1558.19 1231.27 1558.19 Q1233.72 1558.19 1236.01 1557.59 Q1238.33 1556.99 1240.6 1555.78 L1240.6 1559.81 Q1238.31 1560.78 1235.9 1561.29 Q1233.49 1561.8 1231.01 1561.8 Q1224.81 1561.8 1221.18 1558.19 Q1217.57 1554.58 1217.57 1548.42 Q1217.57 1542.06 1220.99 1538.33 Q1224.44 1534.58 1230.27 1534.58 Q1235.51 1534.58 1238.54 1537.96 Q1241.59 1541.32 1241.59 1547.1 M1237.33 1545.85 Q1237.29 1542.36 1235.37 1540.28 Q1233.47 1538.19 1230.32 1538.19 Q1226.76 1538.19 1224.6 1540.21 Q1222.47 1542.22 1222.15 1545.88 L1237.33 1545.85 Z" fill="#000000" fill-rule="evenodd" fill-opacity="1" /><path clip-path="url(#clip380)" d="M1263.61 1539.19 Q1262.89 1538.77 1262.03 1538.59 Q1261.2 1538.38 1260.18 1538.38 Q1256.57 1538.38 1254.63 1540.74 Q1252.7 1543.08 1252.7 1547.47 L1252.7 1561.13 L1248.42 1561.13 L1248.42 1535.21 L1252.7 1535.21 L1252.7 1539.23 Q1254.05 1536.87 1256.2 1535.74 Q1258.35 1534.58 1261.43 1534.58 Q1261.87 1534.58 1262.4 1534.65 Q1262.94 1534.7 1263.58 1534.81 L1263.61 1539.19 Z" fill="#000000" fill-rule="evenodd" fill-opacity="1" /><path clip-path="url(#clip380)" d="M1279.86 1548.1 Q1274.7 1548.1 1272.7 1549.28 Q1270.71 1550.46 1270.71 1553.31 Q1270.71 1555.58 1272.2 1556.92 Q1273.7 1558.24 1276.27 1558.24 Q1279.81 1558.24 1281.94 1555.74 Q1284.09 1553.22 1284.09 1549.05 L1284.09 1548.1 L1279.86 1548.1 M1288.35 1546.34 L1288.35 1561.13 L1284.09 1561.13 L1284.09 1557.2 Q1282.63 1559.56 1280.46 1560.69 Q1278.28 1561.8 1275.13 1561.8 Q1271.15 1561.8 1268.79 1559.58 Q1266.45 1557.34 1266.45 1553.59 Q1266.45 1549.21 1269.37 1546.99 Q1272.31 1544.77 1278.12 1544.77 L1284.09 1544.77 L1284.09 1544.35 Q1284.09 1541.41 1282.15 1539.81 Q1280.23 1538.19 1276.73 1538.19 Q1274.51 1538.19 1272.4 1538.72 Q1270.3 1539.26 1268.35 1540.32 L1268.35 1536.39 Q1270.69 1535.48 1272.89 1535.04 Q1275.09 1534.58 1277.17 1534.58 Q1282.8 1534.58 1285.57 1537.5 Q1288.35 1540.41 1288.35 1546.34 Z" fill="#000000" fill-rule="evenodd" fill-opacity="1" /><path clip-path="url(#clip380)" d="M1301.34 1527.84 L1301.34 1535.21 L1310.11 1535.21 L1310.11 1538.52 L1301.34 1538.52 L1301.34 1552.59 Q1301.34 1555.76 1302.19 1556.66 Q1303.07 1557.57 1305.74 1557.57 L1310.11 1557.57 L1310.11 1561.13 L1305.74 1561.13 Q1300.81 1561.13 1298.93 1559.3 Q1297.06 1557.45 1297.06 1552.59 L1297.06 1538.52 L1293.93 1538.52 L1293.93 1535.21 L1297.06 1535.21 L1297.06 1527.84 L1301.34 1527.84 Z" fill="#000000" fill-rule="evenodd" fill-opacity="1" /><path clip-path="url(#clip380)" d="M1315.71 1535.21 L1319.97 1535.21 L1319.97 1561.13 L1315.71 1561.13 L1315.71 1535.21 M1315.71 1525.11 L1319.97 1525.11 L1319.97 1530.51 L1315.71 1530.51 L1315.71 1525.11 Z" fill="#000000" fill-rule="evenodd" fill-opacity="1" /><path clip-path="url(#clip380)" d="M1338.93 1538.19 Q1335.5 1538.19 1333.51 1540.88 Q1331.52 1543.54 1331.52 1548.19 Q1331.52 1552.84 1333.49 1555.53 Q1335.48 1558.19 1338.93 1558.19 Q1342.33 1558.19 1344.32 1555.51 Q1346.32 1552.82 1346.32 1548.19 Q1346.32 1543.59 1344.32 1540.9 Q1342.33 1538.19 1338.93 1538.19 M1338.93 1534.58 Q1344.49 1534.58 1347.66 1538.19 Q1350.83 1541.8 1350.83 1548.19 Q1350.83 1554.56 1347.66 1558.19 Q1344.49 1561.8 1338.93 1561.8 Q1333.35 1561.8 1330.18 1558.19 Q1327.03 1554.56 1327.03 1548.19 Q1327.03 1541.8 1330.18 1538.19 Q1333.35 1534.58 1338.93 1534.58 Z" fill="#000000" fill-rule="evenodd" fill-opacity="1" /><path clip-path="url(#clip380)" d="M1379.44 1545.48 L1379.44 1561.13 L1375.18 1561.13 L1375.18 1545.62 Q1375.18 1541.94 1373.75 1540.11 Q1372.31 1538.28 1369.44 1538.28 Q1365.99 1538.28 1364 1540.48 Q1362.01 1542.68 1362.01 1546.48 L1362.01 1561.13 L1357.73 1561.13 L1357.73 1535.21 L1362.01 1535.21 L1362.01 1539.23 Q1363.54 1536.9 1365.6 1535.74 Q1367.68 1534.58 1370.39 1534.58 Q1374.86 1534.58 1377.15 1537.36 Q1379.44 1540.11 1379.44 1545.48 Z" fill="#000000" fill-rule="evenodd" fill-opacity="1" /><path clip-path="url(#clip380)" d="M1404.46 1535.97 L1404.46 1540 Q1402.66 1539.07 1400.71 1538.61 Q1398.77 1538.15 1396.69 1538.15 Q1393.51 1538.15 1391.92 1539.12 Q1390.34 1540.09 1390.34 1542.03 Q1390.34 1543.52 1391.48 1544.37 Q1392.61 1545.21 1396.04 1545.97 L1397.5 1546.29 Q1402.03 1547.27 1403.93 1549.05 Q1405.85 1550.81 1405.85 1553.98 Q1405.85 1557.59 1402.98 1559.7 Q1400.13 1561.8 1395.13 1561.8 Q1393.05 1561.8 1390.78 1561.39 Q1388.54 1560.99 1386.04 1560.18 L1386.04 1555.78 Q1388.4 1557.01 1390.69 1557.64 Q1392.98 1558.24 1395.23 1558.24 Q1398.24 1558.24 1399.86 1557.22 Q1401.48 1556.18 1401.48 1554.3 Q1401.48 1552.57 1400.3 1551.64 Q1399.14 1550.72 1395.18 1549.86 L1393.7 1549.51 Q1389.74 1548.68 1387.98 1546.97 Q1386.22 1545.23 1386.22 1542.22 Q1386.22 1538.56 1388.81 1536.57 Q1391.41 1534.58 1396.18 1534.58 Q1398.54 1534.58 1400.62 1534.93 Q1402.7 1535.28 1404.46 1535.97 Z" fill="#000000" fill-rule="evenodd" fill-opacity="1" /><polyline clip-path="url(#clip382)" style="stroke:#ffffff; stroke-linecap:butt; stroke-linejoin:round; stroke-width:4; stroke-opacity:1; fill:none" points="
  240.129,1443.25 2352.76,1443.25 
  "/>
<polyline clip-path="url(#clip382)" style="stroke:#ffffff; stroke-linecap:butt; stroke-linejoin:round; stroke-width:4; stroke-opacity:1; fill:none" points="
  240.129,1101.36 2352.76,1101.36 
  "/>
<polyline clip-path="url(#clip382)" style="stroke:#ffffff; stroke-linecap:butt; stroke-linejoin:round; stroke-width:4; stroke-opacity:1; fill:none" points="
  240.129,759.475 2352.76,759.475 
  "/>
<polyline clip-path="url(#clip382)" style="stroke:#ffffff; stroke-linecap:butt; stroke-linejoin:round; stroke-width:4; stroke-opacity:1; fill:none" points="
  240.129,417.587 2352.76,417.587 
  "/>
<polyline clip-path="url(#clip382)" style="stroke:#ffffff; stroke-linecap:butt; stroke-linejoin:round; stroke-width:2; stroke-opacity:1; fill:none" points="
  240.129,1272.31 2352.76,1272.31 
  "/>
<polyline clip-path="url(#clip382)" style="stroke:#ffffff; stroke-linecap:butt; stroke-linejoin:round; stroke-width:2; stroke-opacity:1; fill:none" points="
  240.129,930.419 2352.76,930.419 
  "/>
<polyline clip-path="url(#clip382)" style="stroke:#ffffff; stroke-linecap:butt; stroke-linejoin:round; stroke-width:2; stroke-opacity:1; fill:none" points="
  240.129,588.531 2352.76,588.531 
  "/>
<polyline clip-path="url(#clip382)" style="stroke:#ffffff; stroke-linecap:butt; stroke-linejoin:round; stroke-width:2; stroke-opacity:1; fill:none" points="
  240.129,246.643 2352.76,246.643 
  "/>
<polyline clip-path="url(#clip380)" style="stroke:#ffffff; stroke-linecap:butt; stroke-linejoin:round; stroke-width:4; stroke-opacity:1; fill:none" points="
  240.129,1444.78 240.129,106.192 
  "/>
<polyline clip-path="url(#clip380)" style="stroke:#333333; stroke-linecap:butt; stroke-linejoin:round; stroke-width:4; stroke-opacity:1; fill:none" points="
  240.129,1443.25 221.232,1443.25 
  "/>
<polyline clip-path="url(#clip380)" style="stroke:#333333; stroke-linecap:butt; stroke-linejoin:round; stroke-width:4; stroke-opacity:1; fill:none" points="
  240.129,1101.36 221.232,1101.36 
  "/>
<polyline clip-path="url(#clip380)" style="stroke:#333333; stroke-linecap:butt; stroke-linejoin:round; stroke-width:4; stroke-opacity:1; fill:none" points="
  240.129,759.475 221.232,759.475 
  "/>
<polyline clip-path="url(#clip380)" style="stroke:#333333; stroke-linecap:butt; stroke-linejoin:round; stroke-width:4; stroke-opacity:1; fill:none" points="
  240.129,417.587 221.232,417.587 
  "/>
<polyline clip-path="url(#clip380)" style="stroke:#333333; stroke-linecap:butt; stroke-linejoin:round; stroke-width:4; stroke-opacity:1; fill:none" points="
  240.129,1272.31 230.681,1272.31 
  "/>
<polyline clip-path="url(#clip380)" style="stroke:#333333; stroke-linecap:butt; stroke-linejoin:round; stroke-width:4; stroke-opacity:1; fill:none" points="
  240.129,930.419 230.681,930.419 
  "/>
<polyline clip-path="url(#clip380)" style="stroke:#333333; stroke-linecap:butt; stroke-linejoin:round; stroke-width:4; stroke-opacity:1; fill:none" points="
  240.129,588.531 230.681,588.531 
  "/>
<polyline clip-path="url(#clip380)" style="stroke:#333333; stroke-linecap:butt; stroke-linejoin:round; stroke-width:4; stroke-opacity:1; fill:none" points="
  240.129,246.643 230.681,246.643 
  "/>
<path clip-path="url(#clip380)" d="M83.3002 1443.59 L105.557 1443.59 L105.557 1446.54 L83.3002 1446.54 L83.3002 1443.59 Z" fill="#4c4c4c" fill-rule="evenodd" fill-opacity="1" /><path clip-path="url(#clip380)" d="M116.147 1453.26 L128.387 1453.26 L128.387 1456.21 L111.928 1456.21 L111.928 1453.26 Q113.925 1451.19 117.362 1447.72 Q120.817 1444.23 121.703 1443.22 Q123.387 1441.33 124.046 1440.03 Q124.724 1438.71 124.724 1437.44 Q124.724 1435.38 123.265 1434.08 Q121.824 1432.77 119.498 1432.77 Q117.849 1432.77 116.008 1433.35 Q114.185 1433.92 112.102 1435.08 L112.102 1431.54 Q114.22 1430.69 116.06 1430.26 Q117.901 1429.82 119.428 1429.82 Q123.456 1429.82 125.852 1431.84 Q128.248 1433.85 128.248 1437.22 Q128.248 1438.82 127.64 1440.26 Q127.05 1441.68 125.47 1443.62 Q125.036 1444.13 122.71 1446.54 Q120.383 1448.94 116.147 1453.26 Z" fill="#4c4c4c" fill-rule="evenodd" fill-opacity="1" /><path clip-path="url(#clip380)" d="M135.748 1451.8 L139.411 1451.8 L139.411 1456.21 L135.748 1456.21 L135.748 1451.8 Z" fill="#4c4c4c" fill-rule="evenodd" fill-opacity="1" /><path clip-path="url(#clip380)" d="M157.675 1442.24 Q160.192 1442.77 161.598 1444.47 Q163.022 1446.18 163.022 1448.68 Q163.022 1452.51 160.383 1454.61 Q157.744 1456.71 152.883 1456.71 Q151.251 1456.71 149.515 1456.38 Q147.796 1456.07 145.956 1455.43 L145.956 1452.04 Q147.414 1452.9 149.15 1453.33 Q150.887 1453.76 152.779 1453.76 Q156.078 1453.76 157.796 1452.46 Q159.532 1451.16 159.532 1448.68 Q159.532 1446.38 157.918 1445.1 Q156.321 1443.8 153.456 1443.8 L150.435 1443.8 L150.435 1440.92 L153.595 1440.92 Q156.182 1440.92 157.553 1439.89 Q158.925 1438.85 158.925 1436.91 Q158.925 1434.91 157.501 1433.85 Q156.095 1432.77 153.456 1432.77 Q152.015 1432.77 150.366 1433.09 Q148.716 1433.4 146.737 1434.06 L146.737 1430.93 Q148.734 1430.38 150.47 1430.1 Q152.223 1429.82 153.769 1429.82 Q157.762 1429.82 160.088 1431.65 Q162.414 1433.45 162.414 1436.54 Q162.414 1438.69 161.182 1440.19 Q159.949 1441.66 157.675 1442.24 Z" fill="#4c4c4c" fill-rule="evenodd" fill-opacity="1" /><path clip-path="url(#clip380)" d="M177.171 1432.6 Q174.463 1432.6 173.091 1435.27 Q171.737 1437.93 171.737 1443.28 Q171.737 1448.61 173.091 1451.28 Q174.463 1453.94 177.171 1453.94 Q179.897 1453.94 181.251 1451.28 Q182.623 1448.61 182.623 1443.28 Q182.623 1437.93 181.251 1435.27 Q179.897 1432.6 177.171 1432.6 M177.171 1429.82 Q181.529 1429.82 183.82 1433.28 Q186.129 1436.71 186.129 1443.28 Q186.129 1449.82 183.82 1453.28 Q181.529 1456.71 177.171 1456.71 Q172.814 1456.71 170.505 1453.28 Q168.213 1449.82 168.213 1443.28 Q168.213 1436.71 170.505 1433.28 Q172.814 1429.82 177.171 1429.82 Z" fill="#4c4c4c" fill-rule="evenodd" fill-opacity="1" /><path clip-path="url(#clip380)" d="M84.0467 1101.7 L106.304 1101.7 L106.304 1104.65 L84.0467 1104.65 L84.0467 1101.7 Z" fill="#4c4c4c" fill-rule="evenodd" fill-opacity="1" /><path clip-path="url(#clip380)" d="M116.894 1111.37 L129.133 1111.37 L129.133 1114.32 L112.675 1114.32 L112.675 1111.37 Q114.672 1109.31 118.109 1105.83 Q121.564 1102.34 122.449 1101.34 Q124.133 1099.44 124.793 1098.14 Q125.47 1096.82 125.47 1095.56 Q125.47 1093.49 124.012 1092.19 Q122.571 1090.89 120.244 1090.89 Q118.595 1090.89 116.755 1091.46 Q114.932 1092.03 112.849 1093.19 L112.849 1089.65 Q114.967 1088.8 116.807 1088.37 Q118.647 1087.93 120.175 1087.93 Q124.203 1087.93 126.599 1089.95 Q128.994 1091.96 128.994 1095.33 Q128.994 1096.93 128.387 1098.37 Q127.796 1099.79 126.217 1101.74 Q125.783 1102.24 123.456 1104.65 Q121.13 1107.05 116.894 1111.37 Z" fill="#4c4c4c" fill-rule="evenodd" fill-opacity="1" /><path clip-path="url(#clip380)" d="M136.494 1109.91 L140.157 1109.91 L140.157 1114.32 L136.494 1114.32 L136.494 1109.91 Z" fill="#4c4c4c" fill-rule="evenodd" fill-opacity="1" /><path clip-path="url(#clip380)" d="M150.817 1111.37 L163.057 1111.37 L163.057 1114.32 L146.598 1114.32 L146.598 1111.37 Q148.595 1109.31 152.032 1105.83 Q155.487 1102.34 156.373 1101.34 Q158.057 1099.44 158.716 1098.14 Q159.393 1096.82 159.393 1095.56 Q159.393 1093.49 157.935 1092.19 Q156.494 1090.89 154.168 1090.89 Q152.519 1090.89 150.678 1091.46 Q148.855 1092.03 146.772 1093.19 L146.772 1089.65 Q148.89 1088.8 150.73 1088.37 Q152.571 1087.93 154.098 1087.93 Q158.126 1087.93 160.522 1089.95 Q162.918 1091.96 162.918 1095.33 Q162.918 1096.93 162.31 1098.37 Q161.72 1099.79 160.14 1101.74 Q159.706 1102.24 157.38 1104.65 Q155.053 1107.05 150.817 1111.37 Z" fill="#4c4c4c" fill-rule="evenodd" fill-opacity="1" /><path clip-path="url(#clip380)" d="M170.452 1088.4 L184.22 1088.4 L184.22 1091.35 L173.664 1091.35 L173.664 1097.71 Q174.428 1097.45 175.192 1097.33 Q175.956 1097.19 176.72 1097.19 Q181.06 1097.19 183.595 1099.57 Q186.129 1101.94 186.129 1106.01 Q186.129 1110.19 183.525 1112.52 Q180.921 1114.83 176.182 1114.83 Q174.55 1114.83 172.848 1114.55 Q171.164 1114.27 169.359 1113.72 L169.359 1110.19 Q170.921 1111.04 172.588 1111.46 Q174.255 1111.88 176.112 1111.88 Q179.116 1111.88 180.869 1110.3 Q182.623 1108.72 182.623 1106.01 Q182.623 1103.3 180.869 1101.72 Q179.116 1100.14 176.112 1100.14 Q174.706 1100.14 173.3 1100.45 Q171.911 1100.76 170.452 1101.42 L170.452 1088.4 Z" fill="#4c4c4c" fill-rule="evenodd" fill-opacity="1" /><path clip-path="url(#clip380)" d="M83.3002 759.814 L105.557 759.814 L105.557 762.765 L83.3002 762.765 L83.3002 759.814 Z" fill="#4c4c4c" fill-rule="evenodd" fill-opacity="1" /><path clip-path="url(#clip380)" d="M116.147 769.484 L128.387 769.484 L128.387 772.435 L111.928 772.435 L111.928 769.484 Q113.925 767.418 117.362 763.945 Q120.817 760.456 121.703 759.449 Q123.387 757.557 124.046 756.255 Q124.724 754.935 124.724 753.668 Q124.724 751.602 123.265 750.3 Q121.824 748.998 119.498 748.998 Q117.849 748.998 116.008 749.571 Q114.185 750.143 112.102 751.307 L112.102 747.765 Q114.22 746.914 116.06 746.48 Q117.901 746.046 119.428 746.046 Q123.456 746.046 125.852 748.06 Q128.248 750.074 128.248 753.442 Q128.248 755.039 127.64 756.48 Q127.05 757.904 125.47 759.848 Q125.036 760.352 122.71 762.765 Q120.383 765.161 116.147 769.484 Z" fill="#4c4c4c" fill-rule="evenodd" fill-opacity="1" /><path clip-path="url(#clip380)" d="M135.748 768.025 L139.411 768.025 L139.411 772.435 L135.748 772.435 L135.748 768.025 Z" fill="#4c4c4c" fill-rule="evenodd" fill-opacity="1" /><path clip-path="url(#clip380)" d="M150.071 769.484 L162.31 769.484 L162.31 772.435 L145.852 772.435 L145.852 769.484 Q147.848 767.418 151.286 763.945 Q154.741 760.456 155.626 759.449 Q157.31 757.557 157.97 756.255 Q158.647 754.935 158.647 753.668 Q158.647 751.602 157.189 750.3 Q155.748 748.998 153.421 748.998 Q151.772 748.998 149.932 749.571 Q148.109 750.143 146.026 751.307 L146.026 747.765 Q148.144 746.914 149.984 746.48 Q151.824 746.046 153.352 746.046 Q157.38 746.046 159.775 748.06 Q162.171 750.074 162.171 753.442 Q162.171 755.039 161.564 756.48 Q160.973 757.904 159.393 759.848 Q158.959 760.352 156.633 762.765 Q154.307 765.161 150.071 769.484 Z" fill="#4c4c4c" fill-rule="evenodd" fill-opacity="1" /><path clip-path="url(#clip380)" d="M177.171 748.824 Q174.463 748.824 173.091 751.498 Q171.737 754.154 171.737 759.501 Q171.737 764.831 173.091 767.504 Q174.463 770.161 177.171 770.161 Q179.897 770.161 181.251 767.504 Q182.623 764.831 182.623 759.501 Q182.623 754.154 181.251 751.498 Q179.897 748.824 177.171 748.824 M177.171 746.046 Q181.529 746.046 183.82 749.501 Q186.129 752.939 186.129 759.501 Q186.129 766.046 183.82 769.501 Q181.529 772.938 177.171 772.938 Q172.814 772.938 170.505 769.501 Q168.213 766.046 168.213 759.501 Q168.213 752.939 170.505 749.501 Q172.814 746.046 177.171 746.046 Z" fill="#4c4c4c" fill-rule="evenodd" fill-opacity="1" /><path clip-path="url(#clip380)" d="M84.0467 417.926 L106.304 417.926 L106.304 420.877 L84.0467 420.877 L84.0467 417.926 Z" fill="#4c4c4c" fill-rule="evenodd" fill-opacity="1" /><path clip-path="url(#clip380)" d="M116.894 427.596 L129.133 427.596 L129.133 430.547 L112.675 430.547 L112.675 427.596 Q114.672 425.53 118.109 422.058 Q121.564 418.568 122.449 417.561 Q124.133 415.669 124.793 414.367 Q125.47 413.047 125.47 411.78 Q125.47 409.714 124.012 408.412 Q122.571 407.11 120.244 407.11 Q118.595 407.11 116.755 407.683 Q114.932 408.256 112.849 409.419 L112.849 405.877 Q114.967 405.026 116.807 404.592 Q118.647 404.158 120.175 404.158 Q124.203 404.158 126.599 406.172 Q128.994 408.186 128.994 411.554 Q128.994 413.151 128.387 414.592 Q127.796 416.016 126.217 417.96 Q125.783 418.464 123.456 420.877 Q121.13 423.273 116.894 427.596 Z" fill="#4c4c4c" fill-rule="evenodd" fill-opacity="1" /><path clip-path="url(#clip380)" d="M136.494 426.137 L140.157 426.137 L140.157 430.547 L136.494 430.547 L136.494 426.137 Z" fill="#4c4c4c" fill-rule="evenodd" fill-opacity="1" /><path clip-path="url(#clip380)" d="M148.404 427.596 L154.133 427.596 L154.133 407.821 L147.901 409.071 L147.901 405.877 L154.098 404.627 L157.605 404.627 L157.605 427.596 L163.334 427.596 L163.334 430.547 L148.404 430.547 L148.404 427.596 Z" fill="#4c4c4c" fill-rule="evenodd" fill-opacity="1" /><path clip-path="url(#clip380)" d="M170.452 404.627 L184.22 404.627 L184.22 407.578 L173.664 407.578 L173.664 413.933 Q174.428 413.672 175.192 413.551 Q175.956 413.412 176.72 413.412 Q181.06 413.412 183.595 415.79 Q186.129 418.169 186.129 422.231 Q186.129 426.415 183.525 428.742 Q180.921 431.051 176.182 431.051 Q174.55 431.051 172.848 430.773 Q171.164 430.495 169.359 429.939 L169.359 426.415 Q170.921 427.266 172.588 427.682 Q174.255 428.099 176.112 428.099 Q179.116 428.099 180.869 426.519 Q182.623 424.939 182.623 422.231 Q182.623 419.523 180.869 417.943 Q179.116 416.363 176.112 416.363 Q174.706 416.363 173.3 416.676 Q171.911 416.988 170.452 417.648 L170.452 404.627 Z" fill="#4c4c4c" fill-rule="evenodd" fill-opacity="1" /><path clip-path="url(#clip380)" d="M20.3722 985.184 L20.3722 955.948 L24.3073 955.948 L24.3073 968.216 L54.9322 968.216 L54.9322 972.915 L24.3073 972.915 L24.3073 985.184 L20.3722 985.184 Z" fill="#000000" fill-rule="evenodd" fill-opacity="1" /><path clip-path="url(#clip380)" d="M40.9045 937.499 L42.9878 937.499 L42.9878 957.082 Q47.3859 956.804 49.7007 954.443 Q51.9924 952.059 51.9924 947.823 Q51.9924 945.369 51.3905 943.078 Q50.7887 940.763 49.585 938.494 L53.6127 938.494 Q54.5849 940.786 55.0942 943.193 Q55.6035 945.601 55.6035 948.078 Q55.6035 954.281 51.9924 957.916 Q48.3813 961.527 42.2239 961.527 Q35.8582 961.527 32.1314 958.101 Q28.3814 954.652 28.3814 948.818 Q28.3814 943.587 31.761 940.555 Q35.1174 937.499 40.9045 937.499 M39.6545 941.758 Q36.1591 941.805 34.0758 943.726 Q31.9925 945.624 31.9925 948.772 Q31.9925 952.337 34.0063 954.49 Q36.0202 956.619 39.6776 956.943 L39.6545 941.758 Z" fill="#000000" fill-rule="evenodd" fill-opacity="1" /><path clip-path="url(#clip380)" d="M29.7703 913.981 L33.798 913.981 Q32.8721 915.786 32.4091 917.731 Q31.9462 919.675 31.9462 921.758 Q31.9462 924.93 32.9184 926.527 Q33.8906 928.101 35.835 928.101 Q37.3165 928.101 38.173 926.967 Q39.0063 925.832 39.7702 922.406 L40.0943 920.948 Q41.0665 916.411 42.8489 914.513 Q44.6081 912.592 47.7794 912.592 Q51.3905 912.592 53.497 915.462 Q55.6035 918.309 55.6035 923.309 Q55.6035 925.393 55.1868 927.661 Q54.7933 929.906 53.9831 932.406 L49.585 932.406 Q50.8118 930.045 51.4368 927.754 Q52.0387 925.462 52.0387 923.217 Q52.0387 920.207 51.0201 918.587 Q49.9785 916.967 48.1035 916.967 Q46.3674 916.967 45.4415 918.147 Q44.5155 919.305 43.6591 923.263 L43.3118 924.744 Q42.4785 928.703 40.7656 930.462 Q39.0295 932.221 36.0202 932.221 Q32.3628 932.221 30.3721 929.629 Q28.3814 927.036 28.3814 922.268 Q28.3814 919.907 28.7286 917.823 Q29.0758 915.74 29.7703 913.981 Z" fill="#000000" fill-rule="evenodd" fill-opacity="1" /><path clip-path="url(#clip380)" d="M21.6453 901.596 L29.0064 901.596 L29.0064 892.823 L32.3165 892.823 L32.3165 901.596 L46.3905 901.596 Q49.5618 901.596 50.4646 900.74 Q51.3674 899.86 51.3674 897.198 L51.3674 892.823 L54.9322 892.823 L54.9322 897.198 Q54.9322 902.129 53.1035 904.004 Q51.2516 905.879 46.3905 905.879 L32.3165 905.879 L32.3165 909.004 L29.0064 909.004 L29.0064 905.879 L21.6453 905.879 L21.6453 901.596 Z" fill="#000000" fill-rule="evenodd" fill-opacity="1" /><path clip-path="url(#clip380)" d="M18.9138 872.152 L18.9138 867.893 L54.9322 867.893 L54.9322 872.152 L18.9138 872.152 Z" fill="#000000" fill-rule="evenodd" fill-opacity="1" /><path clip-path="url(#clip380)" d="M31.9925 848.935 Q31.9925 852.361 34.6776 854.351 Q37.3397 856.342 41.9924 856.342 Q46.6452 856.342 49.3303 854.374 Q51.9924 852.384 51.9924 848.935 Q51.9924 845.532 49.3072 843.541 Q46.622 841.55 41.9924 841.55 Q37.386 841.55 34.7008 843.541 Q31.9925 845.532 31.9925 848.935 M28.3814 848.935 Q28.3814 843.379 31.9925 840.208 Q35.6036 837.037 41.9924 837.037 Q48.3581 837.037 51.9924 840.208 Q55.6035 843.379 55.6035 848.935 Q55.6035 854.513 51.9924 857.685 Q48.3581 860.833 41.9924 860.833 Q35.6036 860.833 31.9925 857.685 Q28.3814 854.513 28.3814 848.935 Z" fill="#000000" fill-rule="evenodd" fill-opacity="1" /><path clip-path="url(#clip380)" d="M41.6683 812.916 Q37.0387 812.916 34.4925 814.838 Q31.9462 816.736 31.9462 820.185 Q31.9462 823.611 34.4925 825.532 Q37.0387 827.43 41.6683 827.43 Q46.2748 827.43 48.8211 825.532 Q51.3674 823.611 51.3674 820.185 Q51.3674 816.736 48.8211 814.838 Q46.2748 812.916 41.6683 812.916 M51.7146 808.657 Q58.3349 808.657 61.5525 811.597 Q64.7932 814.537 64.7932 820.601 Q64.7932 822.847 64.446 824.838 Q64.1219 826.828 63.4275 828.703 L59.284 828.703 Q60.3025 826.828 60.7886 825 Q61.2747 823.171 61.2747 821.273 Q61.2747 817.083 59.0757 815 Q56.8997 812.916 52.4785 812.916 L50.372 812.916 Q52.6637 814.236 53.7979 816.296 Q54.9322 818.356 54.9322 821.226 Q54.9322 825.995 51.2979 828.912 Q47.6637 831.828 41.6683 831.828 Q35.6499 831.828 32.0156 828.912 Q28.3814 825.995 28.3814 821.226 Q28.3814 818.356 29.5156 816.296 Q30.6499 814.236 32.9415 812.916 L29.0064 812.916 L29.0064 808.657 L51.7146 808.657 Z" fill="#000000" fill-rule="evenodd" fill-opacity="1" /><path clip-path="url(#clip380)" d="M40.048 802.037 L40.048 789.56 L43.8443 789.56 L43.8443 802.037 L40.048 802.037 Z" fill="#000000" fill-rule="evenodd" fill-opacity="1" /><path clip-path="url(#clip380)" d="M18.9138 782.778 L18.9138 778.518 L54.9322 778.518 L54.9322 782.778 L18.9138 782.778 Z" fill="#000000" fill-rule="evenodd" fill-opacity="1" /><path clip-path="url(#clip380)" d="M29.0064 769.606 L29.0064 765.347 L54.9322 765.347 L54.9322 769.606 L29.0064 769.606 M18.9138 769.606 L18.9138 765.347 L24.3073 765.347 L24.3073 769.606 L18.9138 769.606 Z" fill="#000000" fill-rule="evenodd" fill-opacity="1" /><path clip-path="url(#clip380)" d="M18.9138 756.597 L18.9138 752.315 L40.1869 752.315 L29.0064 739.607 L29.0064 734.167 L41.1359 747.917 L54.9322 733.588 L54.9322 739.144 L42.2702 752.315 L54.9322 752.315 L54.9322 756.597 L18.9138 756.597 Z" fill="#000000" fill-rule="evenodd" fill-opacity="1" /><path clip-path="url(#clip380)" d="M40.9045 708.496 L42.9878 708.496 L42.9878 728.079 Q47.3859 727.801 49.7007 725.44 Q51.9924 723.056 51.9924 718.82 Q51.9924 716.366 51.3905 714.074 Q50.7887 711.759 49.585 709.491 L53.6127 709.491 Q54.5849 711.783 55.0942 714.19 Q55.6035 716.597 55.6035 719.074 Q55.6035 725.278 51.9924 728.912 Q48.3813 732.523 42.2239 732.523 Q35.8582 732.523 32.1314 729.097 Q28.3814 725.648 28.3814 719.815 Q28.3814 714.584 31.761 711.551 Q35.1174 708.496 40.9045 708.496 M39.6545 712.755 Q36.1591 712.801 34.0758 714.722 Q31.9925 716.621 31.9925 719.769 Q31.9925 723.333 34.0063 725.486 Q36.0202 727.616 39.6776 727.94 L39.6545 712.755 Z" fill="#000000" fill-rule="evenodd" fill-opacity="1" /><path clip-path="url(#clip380)" d="M18.9138 701.505 L18.9138 697.246 L54.9322 697.246 L54.9322 701.505 L18.9138 701.505 Z" fill="#000000" fill-rule="evenodd" fill-opacity="1" /><path clip-path="url(#clip380)" d="M29.0064 688.334 L29.0064 684.074 L54.9322 684.074 L54.9322 688.334 L29.0064 688.334 M18.9138 688.334 L18.9138 684.074 L24.3073 684.074 L24.3073 688.334 L18.9138 688.334 Z" fill="#000000" fill-rule="evenodd" fill-opacity="1" /><path clip-path="url(#clip380)" d="M39.2841 653.612 L54.9322 653.612 L54.9322 657.871 L39.423 657.871 Q35.7424 657.871 33.9138 659.306 Q32.0851 660.741 32.0851 663.612 Q32.0851 667.061 34.2841 669.051 Q36.4832 671.042 40.2795 671.042 L54.9322 671.042 L54.9322 675.324 L18.9138 675.324 L18.9138 671.042 L33.0341 671.042 Q30.6962 669.514 29.5388 667.454 Q28.3814 665.371 28.3814 662.663 Q28.3814 658.195 31.1591 655.903 Q33.9138 653.612 39.2841 653.612 Z" fill="#000000" fill-rule="evenodd" fill-opacity="1" /><path clip-path="url(#clip380)" d="M31.9925 635.07 Q31.9925 638.496 34.6776 640.487 Q37.3397 642.477 41.9924 642.477 Q46.6452 642.477 49.3303 640.51 Q51.9924 638.519 51.9924 635.07 Q51.9924 631.667 49.3072 629.677 Q46.622 627.686 41.9924 627.686 Q37.386 627.686 34.7008 629.677 Q31.9925 631.667 31.9925 635.07 M28.3814 635.07 Q28.3814 629.515 31.9925 626.343 Q35.6036 623.172 41.9924 623.172 Q48.3581 623.172 51.9924 626.343 Q55.6035 629.515 55.6035 635.07 Q55.6035 640.649 51.9924 643.82 Q48.3581 646.968 41.9924 646.968 Q35.6036 646.968 31.9925 643.82 Q28.3814 640.649 28.3814 635.07 Z" fill="#000000" fill-rule="evenodd" fill-opacity="1" /><path clip-path="url(#clip380)" d="M31.9925 606.066 Q31.9925 609.492 34.6776 611.482 Q37.3397 613.473 41.9924 613.473 Q46.6452 613.473 49.3303 611.505 Q51.9924 609.515 51.9924 606.066 Q51.9924 602.663 49.3072 600.672 Q46.622 598.681 41.9924 598.681 Q37.386 598.681 34.7008 600.672 Q31.9925 602.663 31.9925 606.066 M28.3814 606.066 Q28.3814 600.51 31.9925 597.339 Q35.6036 594.168 41.9924 594.168 Q48.3581 594.168 51.9924 597.339 Q55.6035 600.51 55.6035 606.066 Q55.6035 611.644 51.9924 614.816 Q48.3581 617.964 41.9924 617.964 Q35.6036 617.964 31.9925 614.816 Q28.3814 611.644 28.3814 606.066 Z" fill="#000000" fill-rule="evenodd" fill-opacity="1" /><path clip-path="url(#clip380)" d="M32.9415 570.047 L18.9138 570.047 L18.9138 565.788 L54.9322 565.788 L54.9322 570.047 L51.0433 570.047 Q53.3581 571.39 54.4923 573.45 Q55.6035 575.487 55.6035 578.357 Q55.6035 583.056 51.8535 586.019 Q48.1035 588.959 41.9924 588.959 Q35.8813 588.959 32.1314 586.019 Q28.3814 583.056 28.3814 578.357 Q28.3814 575.487 29.5156 573.45 Q30.6267 571.39 32.9415 570.047 M41.9924 584.561 Q46.6915 584.561 49.3766 582.64 Q52.0387 580.695 52.0387 577.316 Q52.0387 573.936 49.3766 571.992 Q46.6915 570.047 41.9924 570.047 Q37.2934 570.047 34.6313 571.992 Q31.9462 573.936 31.9462 577.316 Q31.9462 580.695 34.6313 582.64 Q37.2934 584.561 41.9924 584.561 Z" fill="#000000" fill-rule="evenodd" fill-opacity="1" /><path clip-path="url(#clip380)" d="M1247.05 6.81709 L1252.4 6.81709 L1252.4 33.4084 L1268.29 19.4328 L1275.09 19.4328 L1257.9 34.5947 L1275.81 51.84 L1268.87 51.84 L1252.4 36.0125 L1252.4 51.84 L1247.05 51.84 L1247.05 6.81709 Z" fill="#000000" fill-rule="evenodd" fill-opacity="1" /><path clip-path="url(#clip380)" d="M1302.9 24.3517 L1302.9 6.81709 L1308.22 6.81709 L1308.22 51.84 L1302.9 51.84 L1302.9 46.9789 Q1301.22 49.8724 1298.64 51.2902 Q1296.1 52.6791 1292.51 52.6791 Q1286.63 52.6791 1282.93 47.9916 Q1279.26 43.3042 1279.26 35.6653 Q1279.26 28.0265 1282.93 23.339 Q1286.63 18.6515 1292.51 18.6515 Q1296.1 18.6515 1298.64 20.0693 Q1301.22 21.4582 1302.9 24.3517 M1284.75 35.6653 Q1284.75 41.5391 1287.15 44.8956 Q1289.59 48.2231 1293.81 48.2231 Q1298.03 48.2231 1300.46 44.8956 Q1302.9 41.5391 1302.9 35.6653 Q1302.9 29.7915 1300.46 26.464 Q1298.03 23.1075 1293.81 23.1075 Q1289.59 23.1075 1287.15 26.464 Q1284.75 29.7915 1284.75 35.6653 Z" fill="#000000" fill-rule="evenodd" fill-opacity="1" /><path clip-path="url(#clip380)" d="M1340.51 24.3517 L1340.51 6.81709 L1345.83 6.81709 L1345.83 51.84 L1340.51 51.84 L1340.51 46.9789 Q1338.83 49.8724 1336.26 51.2902 Q1333.71 52.6791 1330.12 52.6791 Q1324.25 52.6791 1320.55 47.9916 Q1316.87 43.3042 1316.87 35.6653 Q1316.87 28.0265 1320.55 23.339 Q1324.25 18.6515 1330.12 18.6515 Q1333.71 18.6515 1336.26 20.0693 Q1338.83 21.4582 1340.51 24.3517 M1322.37 35.6653 Q1322.37 41.5391 1324.77 44.8956 Q1327.2 48.2231 1331.43 48.2231 Q1335.65 48.2231 1338.08 44.8956 Q1340.51 41.5391 1340.51 35.6653 Q1340.51 29.7915 1338.08 26.464 Q1335.65 23.1075 1331.43 23.1075 Q1327.2 23.1075 1324.77 26.464 Q1322.37 29.7915 1322.37 35.6653 Z" fill="#000000" fill-rule="evenodd" fill-opacity="1" /><polyline clip-path="url(#clip382)" style="stroke:#e26f46; stroke-linecap:butt; stroke-linejoin:round; stroke-width:8; stroke-opacity:1; fill:none" points="
  339.782,622.72 379.643,622.72 419.503,622.72 459.364,622.72 499.225,622.72 539.086,622.72 578.947,622.72 618.808,622.72 658.669,622.72 698.53,622.72 
  738.39,622.72 778.251,622.72 818.112,622.72 857.973,622.72 897.834,622.72 937.695,622.72 977.556,622.72 1017.42,622.72 1057.28,622.72 1097.14,622.72 
  1137,622.72 1176.86,622.72 1216.72,622.72 1256.58,622.72 1296.44,622.72 1336.3,622.72 1376.16,622.72 1416.03,622.72 1455.89,622.72 1495.75,622.72 
  1535.61,622.72 1575.47,622.72 1615.33,622.72 1655.19,622.72 1695.05,622.72 1734.91,622.72 1774.77,622.72 1814.63,622.72 1854.49,622.72 1894.36,622.72 
  1934.22,622.72 1974.08,622.72 2013.94,622.72 2053.8,622.72 2093.66,622.72 2133.52,622.72 2173.38,622.72 2213.24,622.72 2253.1,622.72 2292.96,622.72 
  
  "/>
<polyline clip-path="url(#clip382)" style="stroke:#3da44d; stroke-linecap:butt; stroke-linejoin:round; stroke-width:8; stroke-opacity:1; fill:none" points="
  339.782,280.832 379.643,280.832 419.503,280.832 459.364,280.832 499.225,280.832 539.086,280.832 578.947,280.832 618.808,280.832 658.669,280.832 698.53,280.832 
  738.39,280.832 778.251,280.832 818.112,280.832 857.973,280.832 897.834,280.832 937.695,280.832 977.556,280.832 1017.42,280.832 1057.28,280.832 1097.14,280.832 
  1137,280.832 1176.86,280.832 1216.72,280.832 1256.58,280.832 1296.44,280.832 1336.3,280.832 1376.16,280.832 1416.03,280.832 1455.89,280.832 1495.75,280.832 
  1535.61,280.832 1575.47,280.832 1615.33,280.832 1655.19,280.832 1695.05,280.832 1734.91,280.832 1774.77,280.832 1814.63,280.832 1854.49,280.832 1894.36,280.832 
  1934.22,280.832 1974.08,280.832 2013.94,280.832 2053.8,280.832 2093.66,280.832 2133.52,280.832 2173.38,280.832 2213.24,280.832 2253.1,280.832 2292.96,280.832 
  
  "/>
<polyline clip-path="url(#clip382)" style="stroke:#c271d2; stroke-linecap:butt; stroke-linejoin:round; stroke-width:8; stroke-opacity:1; fill:none" points="
  339.782,144.077 379.643,144.077 419.503,144.077 459.364,144.077 499.225,144.077 539.086,144.077 578.947,144.077 618.808,144.077 658.669,144.077 698.53,144.077 
  738.39,144.077 778.251,144.077 818.112,144.077 857.973,144.077 897.834,144.077 937.695,144.077 977.556,144.077 1017.42,144.077 1057.28,144.077 1097.14,144.077 
  1137,144.077 1176.86,144.077 1216.72,144.077 1256.58,144.077 1296.44,144.077 1336.3,144.077 1376.16,144.077 1416.03,144.077 1455.89,144.077 1495.75,144.077 
  1535.61,144.077 1575.47,144.077 1615.33,144.077 1655.19,144.077 1695.05,144.077 1734.91,144.077 1774.77,144.077 1814.63,144.077 1854.49,144.077 1894.36,144.077 
  1934.22,144.077 1974.08,144.077 2013.94,144.077 2053.8,144.077 2093.66,144.077 2133.52,144.077 2173.38,144.077 2213.24,144.077 2253.1,144.077 2292.96,144.077 
  
  "/>
<polyline clip-path="url(#clip382)" style="stroke:#ac8d18; stroke-linecap:butt; stroke-linejoin:round; stroke-width:8; stroke-opacity:1; fill:none" points="
  339.782,417.587 379.643,417.587 419.503,417.587 459.364,417.587 499.225,417.587 539.086,417.587 578.947,417.587 618.808,417.587 658.669,417.587 698.53,417.587 
  738.39,417.587 778.251,417.587 818.112,417.587 857.973,417.587 897.834,417.587 937.695,417.587 977.556,417.587 1017.42,417.587 1057.28,417.587 1097.14,417.587 
  1137,417.587 1176.86,417.587 1216.72,417.587 1256.58,417.587 1296.44,417.587 1336.3,417.587 1376.16,417.587 1416.03,417.587 1455.89,417.587 1495.75,417.587 
  1535.61,417.587 1575.47,417.587 1615.33,417.587 1655.19,417.587 1695.05,417.587 1734.91,417.587 1774.77,417.587 1814.63,417.587 1854.49,417.587 1894.36,417.587 
  1934.22,417.587 1974.08,417.587 2013.94,417.587 2053.8,417.587 2093.66,417.587 2133.52,417.587 2173.38,417.587 2213.24,417.587 2253.1,417.587 2292.96,417.587 
  
  "/>
<polyline clip-path="url(#clip382)" style="stroke:#00a9ad; stroke-linecap:butt; stroke-linejoin:round; stroke-width:8; stroke-opacity:1; fill:none" points="
  339.782,212.454 379.643,212.454 419.503,212.454 459.364,212.454 499.225,212.454 539.086,212.454 578.947,212.454 618.808,212.454 658.669,212.454 698.53,212.454 
  738.39,212.454 778.251,212.454 818.112,212.454 857.973,212.454 897.834,212.454 937.695,212.454 977.556,212.454 1017.42,212.454 1057.28,212.454 1097.14,212.454 
  1137,212.454 1176.86,212.454 1216.72,212.454 1256.58,212.454 1296.44,212.454 1336.3,212.454 1376.16,212.454 1416.03,212.454 1455.89,212.454 1495.75,212.454 
  1535.61,212.454 1575.47,212.454 1615.33,212.454 1655.19,212.454 1695.05,212.454 1734.91,212.454 1774.77,212.454 1814.63,212.454 1854.49,212.454 1894.36,212.454 
  1934.22,212.454 1974.08,212.454 2013.94,212.454 2053.8,212.454 2093.66,212.454 2133.52,212.454 2173.38,212.454 2213.24,212.454 2253.1,212.454 2292.96,212.454 
  
  "/>
<polyline clip-path="url(#clip382)" style="stroke:#009af9; stroke-linecap:butt; stroke-linejoin:round; stroke-width:12; stroke-opacity:1; fill:none" points="
  339.782,1406.9 379.643,880.841 419.503,900.531 459.364,626.851 499.225,765.53 539.086,648.817 578.947,686.281 618.808,590.388 658.669,498.121 698.53,506.613 
  738.39,545.268 778.251,457.432 818.112,409.971 857.973,612.936 897.834,588.462 937.695,537.316 977.556,429.571 1017.42,453.609 1057.28,517.607 1097.14,598.47 
  1137,536.515 1176.86,512.443 1216.72,462.71 1256.58,433.186 1296.44,366.212 1336.3,395.46 1376.16,421.899 1416.03,464.305 1455.89,514.911 1495.75,400.807 
  1535.61,401.89 1575.47,360.088 1615.33,426.359 1655.19,410.571 1695.05,412.118 1734.91,441.503 1774.77,443.759 1814.63,431.624 1854.49,439.384 1894.36,426.788 
  1934.22,419.138 1974.08,418.978 2013.94,404.581 2053.8,388.101 2093.66,382.423 2133.52,406.223 2173.38,398.721 2213.24,403.166 2253.1,392.668 2292.96,402.151 
  
  "/>
</svg>
