<?xml version="1.0" encoding="utf-8"?>
<svg xmlns="http://www.w3.org/2000/svg" xmlns:xlink="http://www.w3.org/1999/xlink" width="600" height="400" viewBox="0 0 2400 1600">
<defs>
  <clipPath id="clip130">
    <rect x="0" y="0" width="2400" height="1600"/>
  </clipPath>
</defs>
<path clip-path="url(#clip130)" d="
M0 1600 L2400 1600 L2400 0 L0 0  Z
  " fill="#ffffff" fill-rule="evenodd" fill-opacity="1"/>
<defs>
  <clipPath id="clip131">
    <rect x="480" y="0" width="1681" height="1600"/>
  </clipPath>
</defs>
<path clip-path="url(#clip130)" d="
M372.987 1422.18 L2352.76 1422.18 L2352.76 106.192 L372.987 106.192  Z
  " fill="#eaeaea" fill-rule="evenodd" fill-opacity="1"/>
<defs>
  <clipPath id="clip132">
    <rect x="372" y="106" width="1981" height="1317"/>
  </clipPath>
</defs>
<polyline clip-path="url(#clip132)" style="stroke:#ffffff; stroke-linecap:butt; stroke-linejoin:round; stroke-width:4; stroke-opacity:1; fill:none" points="
  429.018,1422.18 429.018,106.192 
  "/>
<polyline clip-path="url(#clip132)" style="stroke:#ffffff; stroke-linecap:butt; stroke-linejoin:round; stroke-width:4; stroke-opacity:1; fill:none" points="
  572.688,1422.18 572.688,106.192 
  "/>
<polyline clip-path="url(#clip132)" style="stroke:#ffffff; stroke-linecap:butt; stroke-linejoin:round; stroke-width:4; stroke-opacity:1; fill:none" points="
  716.358,1422.18 716.358,106.192 
  "/>
<polyline clip-path="url(#clip132)" style="stroke:#ffffff; stroke-linecap:butt; stroke-linejoin:round; stroke-width:4; stroke-opacity:1; fill:none" points="
  860.027,1422.18 860.027,106.192 
  "/>
<polyline clip-path="url(#clip132)" style="stroke:#ffffff; stroke-linecap:butt; stroke-linejoin:round; stroke-width:4; stroke-opacity:1; fill:none" points="
  1003.7,1422.18 1003.7,106.192 
  "/>
<polyline clip-path="url(#clip132)" style="stroke:#ffffff; stroke-linecap:butt; stroke-linejoin:round; stroke-width:4; stroke-opacity:1; fill:none" points="
  1147.37,1422.18 1147.37,106.192 
  "/>
<polyline clip-path="url(#clip132)" style="stroke:#ffffff; stroke-linecap:butt; stroke-linejoin:round; stroke-width:4; stroke-opacity:1; fill:none" points="
  1291.04,1422.18 1291.04,106.192 
  "/>
<polyline clip-path="url(#clip132)" style="stroke:#ffffff; stroke-linecap:butt; stroke-linejoin:round; stroke-width:4; stroke-opacity:1; fill:none" points="
  1434.71,1422.18 1434.71,106.192 
  "/>
<polyline clip-path="url(#clip132)" style="stroke:#ffffff; stroke-linecap:butt; stroke-linejoin:round; stroke-width:4; stroke-opacity:1; fill:none" points="
  1578.38,1422.18 1578.38,106.192 
  "/>
<polyline clip-path="url(#clip132)" style="stroke:#ffffff; stroke-linecap:butt; stroke-linejoin:round; stroke-width:4; stroke-opacity:1; fill:none" points="
  1722.05,1422.18 1722.05,106.192 
  "/>
<polyline clip-path="url(#clip132)" style="stroke:#ffffff; stroke-linecap:butt; stroke-linejoin:round; stroke-width:4; stroke-opacity:1; fill:none" points="
  1865.72,1422.18 1865.72,106.192 
  "/>
<polyline clip-path="url(#clip132)" style="stroke:#ffffff; stroke-linecap:butt; stroke-linejoin:round; stroke-width:4; stroke-opacity:1; fill:none" points="
  2009.39,1422.18 2009.39,106.192 
  "/>
<polyline clip-path="url(#clip132)" style="stroke:#ffffff; stroke-linecap:butt; stroke-linejoin:round; stroke-width:4; stroke-opacity:1; fill:none" points="
  2153.05,1422.18 2153.05,106.192 
  "/>
<polyline clip-path="url(#clip132)" style="stroke:#ffffff; stroke-linecap:butt; stroke-linejoin:round; stroke-width:4; stroke-opacity:1; fill:none" points="
  2296.72,1422.18 2296.72,106.192 
  "/>
<polyline clip-path="url(#clip132)" style="stroke:#ffffff; stroke-linecap:butt; stroke-linejoin:round; stroke-width:2; stroke-opacity:1; fill:none" points="
  500.853,1422.18 500.853,106.192 
  "/>
<polyline clip-path="url(#clip132)" style="stroke:#ffffff; stroke-linecap:butt; stroke-linejoin:round; stroke-width:2; stroke-opacity:1; fill:none" points="
  644.523,1422.18 644.523,106.192 
  "/>
<polyline clip-path="url(#clip132)" style="stroke:#ffffff; stroke-linecap:butt; stroke-linejoin:round; stroke-width:2; stroke-opacity:1; fill:none" points="
  788.193,1422.18 788.193,106.192 
  "/>
<polyline clip-path="url(#clip132)" style="stroke:#ffffff; stroke-linecap:butt; stroke-linejoin:round; stroke-width:2; stroke-opacity:1; fill:none" points="
  931.862,1422.18 931.862,106.192 
  "/>
<polyline clip-path="url(#clip132)" style="stroke:#ffffff; stroke-linecap:butt; stroke-linejoin:round; stroke-width:2; stroke-opacity:1; fill:none" points="
  1075.53,1422.18 1075.53,106.192 
  "/>
<polyline clip-path="url(#clip132)" style="stroke:#ffffff; stroke-linecap:butt; stroke-linejoin:round; stroke-width:2; stroke-opacity:1; fill:none" points="
  1219.2,1422.18 1219.2,106.192 
  "/>
<polyline clip-path="url(#clip132)" style="stroke:#ffffff; stroke-linecap:butt; stroke-linejoin:round; stroke-width:2; stroke-opacity:1; fill:none" points="
  1362.87,1422.18 1362.87,106.192 
  "/>
<polyline clip-path="url(#clip132)" style="stroke:#ffffff; stroke-linecap:butt; stroke-linejoin:round; stroke-width:2; stroke-opacity:1; fill:none" points="
  1506.54,1422.18 1506.54,106.192 
  "/>
<polyline clip-path="url(#clip132)" style="stroke:#ffffff; stroke-linecap:butt; stroke-linejoin:round; stroke-width:2; stroke-opacity:1; fill:none" points="
  1650.21,1422.18 1650.21,106.192 
  "/>
<polyline clip-path="url(#clip132)" style="stroke:#ffffff; stroke-linecap:butt; stroke-linejoin:round; stroke-width:2; stroke-opacity:1; fill:none" points="
  1793.88,1422.18 1793.88,106.192 
  "/>
<polyline clip-path="url(#clip132)" style="stroke:#ffffff; stroke-linecap:butt; stroke-linejoin:round; stroke-width:2; stroke-opacity:1; fill:none" points="
  1937.55,1422.18 1937.55,106.192 
  "/>
<polyline clip-path="url(#clip132)" style="stroke:#ffffff; stroke-linecap:butt; stroke-linejoin:round; stroke-width:2; stroke-opacity:1; fill:none" points="
  2081.22,1422.18 2081.22,106.192 
  "/>
<polyline clip-path="url(#clip132)" style="stroke:#ffffff; stroke-linecap:butt; stroke-linejoin:round; stroke-width:2; stroke-opacity:1; fill:none" points="
  2224.89,1422.18 2224.89,106.192 
  "/>
<polyline clip-path="url(#clip130)" style="stroke:#ffffff; stroke-linecap:butt; stroke-linejoin:round; stroke-width:4; stroke-opacity:1; fill:none" points="
  372.987,1422.18 2352.76,1422.18 
  "/>
<polyline clip-path="url(#clip130)" style="stroke:#333333; stroke-linecap:butt; stroke-linejoin:round; stroke-width:4; stroke-opacity:1; fill:none" points="
  429.018,1422.18 429.018,1441.07 
  "/>
<polyline clip-path="url(#clip130)" style="stroke:#333333; stroke-linecap:butt; stroke-linejoin:round; stroke-width:4; stroke-opacity:1; fill:none" points="
  572.688,1422.18 572.688,1441.07 
  "/>
<polyline clip-path="url(#clip130)" style="stroke:#333333; stroke-linecap:butt; stroke-linejoin:round; stroke-width:4; stroke-opacity:1; fill:none" points="
  716.358,1422.18 716.358,1441.07 
  "/>
<polyline clip-path="url(#clip130)" style="stroke:#333333; stroke-linecap:butt; stroke-linejoin:round; stroke-width:4; stroke-opacity:1; fill:none" points="
  860.027,1422.18 860.027,1441.07 
  "/>
<polyline clip-path="url(#clip130)" style="stroke:#333333; stroke-linecap:butt; stroke-linejoin:round; stroke-width:4; stroke-opacity:1; fill:none" points="
  1003.7,1422.18 1003.7,1441.07 
  "/>
<polyline clip-path="url(#clip130)" style="stroke:#333333; stroke-linecap:butt; stroke-linejoin:round; stroke-width:4; stroke-opacity:1; fill:none" points="
  1147.37,1422.18 1147.37,1441.07 
  "/>
<polyline clip-path="url(#clip130)" style="stroke:#333333; stroke-linecap:butt; stroke-linejoin:round; stroke-width:4; stroke-opacity:1; fill:none" points="
  1291.04,1422.18 1291.04,1441.07 
  "/>
<polyline clip-path="url(#clip130)" style="stroke:#333333; stroke-linecap:butt; stroke-linejoin:round; stroke-width:4; stroke-opacity:1; fill:none" points="
  1434.71,1422.18 1434.71,1441.07 
  "/>
<polyline clip-path="url(#clip130)" style="stroke:#333333; stroke-linecap:butt; stroke-linejoin:round; stroke-width:4; stroke-opacity:1; fill:none" points="
  1578.38,1422.18 1578.38,1441.07 
  "/>
<polyline clip-path="url(#clip130)" style="stroke:#333333; stroke-linecap:butt; stroke-linejoin:round; stroke-width:4; stroke-opacity:1; fill:none" points="
  1722.05,1422.18 1722.05,1441.07 
  "/>
<polyline clip-path="url(#clip130)" style="stroke:#333333; stroke-linecap:butt; stroke-linejoin:round; stroke-width:4; stroke-opacity:1; fill:none" points="
  1865.72,1422.18 1865.72,1441.07 
  "/>
<polyline clip-path="url(#clip130)" style="stroke:#333333; stroke-linecap:butt; stroke-linejoin:round; stroke-width:4; stroke-opacity:1; fill:none" points="
  2009.39,1422.18 2009.39,1441.07 
  "/>
<polyline clip-path="url(#clip130)" style="stroke:#333333; stroke-linecap:butt; stroke-linejoin:round; stroke-width:4; stroke-opacity:1; fill:none" points="
  2153.05,1422.18 2153.05,1441.07 
  "/>
<polyline clip-path="url(#clip130)" style="stroke:#333333; stroke-linecap:butt; stroke-linejoin:round; stroke-width:4; stroke-opacity:1; fill:none" points="
  2296.72,1422.18 2296.72,1441.07 
  "/>
<polyline clip-path="url(#clip130)" style="stroke:#333333; stroke-linecap:butt; stroke-linejoin:round; stroke-width:4; stroke-opacity:1; fill:none" points="
  500.853,1422.18 500.853,1431.63 
  "/>
<polyline clip-path="url(#clip130)" style="stroke:#333333; stroke-linecap:butt; stroke-linejoin:round; stroke-width:4; stroke-opacity:1; fill:none" points="
  644.523,1422.18 644.523,1431.63 
  "/>
<polyline clip-path="url(#clip130)" style="stroke:#333333; stroke-linecap:butt; stroke-linejoin:round; stroke-width:4; stroke-opacity:1; fill:none" points="
  788.193,1422.18 788.193,1431.63 
  "/>
<polyline clip-path="url(#clip130)" style="stroke:#333333; stroke-linecap:butt; stroke-linejoin:round; stroke-width:4; stroke-opacity:1; fill:none" points="
  931.862,1422.18 931.862,1431.63 
  "/>
<polyline clip-path="url(#clip130)" style="stroke:#333333; stroke-linecap:butt; stroke-linejoin:round; stroke-width:4; stroke-opacity:1; fill:none" points="
  1075.53,1422.18 1075.53,1431.63 
  "/>
<polyline clip-path="url(#clip130)" style="stroke:#333333; stroke-linecap:butt; stroke-linejoin:round; stroke-width:4; stroke-opacity:1; fill:none" points="
  1219.2,1422.18 1219.2,1431.63 
  "/>
<polyline clip-path="url(#clip130)" style="stroke:#333333; stroke-linecap:butt; stroke-linejoin:round; stroke-width:4; stroke-opacity:1; fill:none" points="
  1362.87,1422.18 1362.87,1431.63 
  "/>
<polyline clip-path="url(#clip130)" style="stroke:#333333; stroke-linecap:butt; stroke-linejoin:round; stroke-width:4; stroke-opacity:1; fill:none" points="
  1506.54,1422.18 1506.54,1431.63 
  "/>
<polyline clip-path="url(#clip130)" style="stroke:#333333; stroke-linecap:butt; stroke-linejoin:round; stroke-width:4; stroke-opacity:1; fill:none" points="
  1650.21,1422.18 1650.21,1431.63 
  "/>
<polyline clip-path="url(#clip130)" style="stroke:#333333; stroke-linecap:butt; stroke-linejoin:round; stroke-width:4; stroke-opacity:1; fill:none" points="
  1793.88,1422.18 1793.88,1431.63 
  "/>
<polyline clip-path="url(#clip130)" style="stroke:#333333; stroke-linecap:butt; stroke-linejoin:round; stroke-width:4; stroke-opacity:1; fill:none" points="
  1937.55,1422.18 1937.55,1431.63 
  "/>
<polyline clip-path="url(#clip130)" style="stroke:#333333; stroke-linecap:butt; stroke-linejoin:round; stroke-width:4; stroke-opacity:1; fill:none" points="
  2081.22,1422.18 2081.22,1431.63 
  "/>
<polyline clip-path="url(#clip130)" style="stroke:#333333; stroke-linecap:butt; stroke-linejoin:round; stroke-width:4; stroke-opacity:1; fill:none" points="
  2224.89,1422.18 2224.89,1431.63 
  "/>
<path clip-path="url(#clip130)" d="M442.721 1463.13 Q441.367 1460.78 438.366 1460.93 Q435.389 1461.09 430.758 1463.76 Q426.142 1466.43 424.504 1468.94 Q422.889 1471.45 424.243 1473.8 Q425.606 1476.16 428.584 1476 Q431.585 1475.85 436.201 1473.19 Q440.831 1470.52 442.446 1468 Q444.084 1465.49 442.721 1463.13 M445.127 1461.74 Q447.306 1465.51 445.46 1469.23 Q443.637 1472.94 437.954 1476.23 Q432.286 1479.5 428.139 1479.23 Q424.017 1478.96 421.838 1475.19 Q419.659 1471.41 421.481 1467.69 Q423.328 1463.98 428.996 1460.71 Q434.679 1457.43 438.802 1457.69 Q442.948 1457.97 445.127 1461.74 Z" fill="#4c4c4c" fill-rule="evenodd" fill-opacity="1" /><path clip-path="url(#clip130)" d="M564.272 1466.14 L567.137 1471.1 L584.262 1461.21 L580.063 1456.44 L582.829 1454.84 L587.011 1459.58 L588.764 1462.62 L568.873 1474.11 L571.737 1479.07 L569.181 1480.54 L561.716 1467.61 L564.272 1466.14 Z" fill="#4c4c4c" fill-rule="evenodd" fill-opacity="1" /><path clip-path="url(#clip130)" d="M596.921 1481.37 Q595.566 1479.02 592.565 1479.17 Q589.588 1479.33 584.957 1482 Q580.341 1484.66 578.703 1487.17 Q577.088 1489.69 578.443 1492.04 Q579.805 1494.4 582.783 1494.24 Q585.784 1494.09 590.4 1491.43 Q595.031 1488.75 596.645 1486.24 Q598.283 1483.73 596.921 1481.37 M599.326 1479.98 Q601.505 1483.75 599.659 1487.46 Q597.836 1491.18 592.153 1494.46 Q586.485 1497.74 582.338 1497.46 Q578.216 1497.2 576.037 1493.42 Q573.858 1489.65 575.681 1485.93 Q577.527 1482.22 583.195 1478.95 Q588.878 1475.67 593.001 1475.93 Q597.147 1476.2 599.326 1479.98 Z" fill="#4c4c4c" fill-rule="evenodd" fill-opacity="1" /><path clip-path="url(#clip130)" d="M709.799 1469.35 L715.919 1479.95 L713.363 1481.43 L705.134 1467.18 L707.69 1465.7 Q710.477 1466.4 715.203 1467.64 Q719.953 1468.89 721.267 1469.15 Q723.748 1469.66 725.206 1469.58 Q726.687 1469.51 727.785 1468.87 Q729.574 1467.84 729.972 1465.93 Q730.379 1464.03 729.216 1462.01 Q728.391 1460.59 726.975 1459.28 Q725.568 1457.99 723.519 1456.76 L726.586 1454.99 Q728.381 1456.4 729.677 1457.78 Q730.973 1459.15 731.737 1460.48 Q733.751 1463.97 733.205 1467.05 Q732.659 1470.13 729.742 1471.81 Q728.359 1472.61 726.807 1472.81 Q725.279 1473.01 722.805 1472.61 Q722.152 1472.49 718.899 1471.68 Q715.661 1470.86 709.799 1469.35 Z" fill="#4c4c4c" fill-rule="evenodd" fill-opacity="1" /><path clip-path="url(#clip130)" d="M741.241 1482.49 Q739.887 1480.15 736.886 1480.3 Q733.909 1480.45 729.278 1483.13 Q724.662 1485.79 723.024 1488.3 Q721.409 1490.82 722.763 1493.16 Q724.126 1495.52 727.104 1495.37 Q730.105 1495.22 734.721 1492.55 Q739.351 1489.88 740.966 1487.36 Q742.604 1484.86 741.241 1482.49 M743.647 1481.11 Q745.826 1484.88 743.98 1488.59 Q742.157 1492.31 736.474 1495.59 Q730.806 1498.86 726.659 1498.59 Q722.536 1498.33 720.358 1494.55 Q718.179 1490.78 720.001 1487.06 Q721.847 1483.35 727.516 1480.08 Q733.199 1476.79 737.322 1477.06 Q741.468 1477.33 743.647 1481.11 Z" fill="#4c4c4c" fill-rule="evenodd" fill-opacity="1" /><path clip-path="url(#clip130)" d="M866.766 1470.34 Q867.559 1472.79 866.789 1474.86 Q866.027 1476.94 863.862 1478.19 Q860.539 1480.11 857.401 1478.87 Q854.262 1477.64 851.831 1473.43 Q851.015 1472.01 850.433 1470.35 Q849.844 1468.7 849.48 1466.79 L852.412 1465.09 Q852.405 1466.78 852.897 1468.5 Q853.389 1470.22 854.335 1471.86 Q855.984 1474.72 857.971 1475.56 Q859.967 1476.41 862.117 1475.17 Q864.102 1474.02 864.407 1471.98 Q864.736 1469.95 863.304 1467.47 L861.793 1464.85 L864.289 1463.41 L865.869 1466.14 Q867.163 1468.38 868.735 1469.06 Q870.323 1469.73 872.007 1468.76 Q873.736 1467.76 873.941 1465.99 Q874.171 1464.24 872.851 1461.95 Q872.131 1460.71 871.035 1459.43 Q869.94 1458.16 868.379 1456.78 L871.085 1455.21 Q872.565 1456.67 873.673 1458.03 Q874.791 1459.41 875.563 1460.75 Q877.56 1464.21 877.144 1467.13 Q876.744 1470.05 874.068 1471.6 Q872.203 1472.67 870.294 1472.35 Q868.4 1472.02 866.766 1470.34 Z" fill="#4c4c4c" fill-rule="evenodd" fill-opacity="1" /><path clip-path="url(#clip130)" d="M884.859 1482.4 Q883.505 1480.06 880.504 1480.21 Q877.526 1480.36 872.895 1483.04 Q868.28 1485.7 866.641 1488.21 Q865.027 1490.73 866.381 1493.07 Q867.744 1495.43 870.721 1495.28 Q873.722 1495.13 878.338 1492.46 Q882.969 1489.79 884.584 1487.27 Q886.222 1484.76 884.859 1482.4 M887.265 1481.02 Q889.443 1484.79 887.597 1488.5 Q885.775 1492.22 880.092 1495.5 Q874.423 1498.77 870.277 1498.5 Q866.154 1498.24 863.975 1494.46 Q861.797 1490.69 863.619 1486.97 Q865.465 1483.26 871.133 1479.98 Q876.817 1476.7 880.939 1476.97 Q885.086 1477.24 887.265 1481.02 Z" fill="#4c4c4c" fill-rule="evenodd" fill-opacity="1" /><path clip-path="url(#clip130)" d="M1018.13 1465.88 L1001.72 1465.13 L1006.14 1472.8 L1018.13 1465.88 M1020.31 1463.55 L1022.52 1467.37 L1007.89 1475.82 L1009.74 1479.02 L1007.21 1480.48 L1005.36 1477.28 L1000.07 1480.33 L998.324 1477.31 L1003.62 1474.25 L997.766 1464.12 L1000.7 1462.43 L1020.31 1463.55 Z" fill="#4c4c4c" fill-rule="evenodd" fill-opacity="1" /><path clip-path="url(#clip130)" d="M1029.01 1483.25 Q1027.66 1480.9 1024.66 1481.05 Q1021.68 1481.21 1017.05 1483.88 Q1012.44 1486.54 1010.8 1489.05 Q1009.18 1491.57 1010.54 1493.91 Q1011.9 1496.28 1014.88 1496.12 Q1017.88 1495.97 1022.49 1493.31 Q1027.12 1490.63 1028.74 1488.12 Q1030.38 1485.61 1029.01 1483.25 M1031.42 1481.86 Q1033.6 1485.63 1031.75 1489.34 Q1029.93 1493.06 1024.25 1496.34 Q1018.58 1499.62 1014.43 1499.34 Q1010.31 1499.08 1008.13 1495.3 Q1005.95 1491.53 1007.77 1487.81 Q1009.62 1484.1 1015.29 1480.83 Q1020.97 1477.55 1025.1 1477.81 Q1029.24 1478.08 1031.42 1481.86 Z" fill="#4c4c4c" fill-rule="evenodd" fill-opacity="1" /><path clip-path="url(#clip130)" d="M1159.14 1455.16 L1166.02 1467.09 L1163.47 1468.56 L1158.19 1459.42 L1152.68 1462.6 Q1153.29 1463.13 1153.78 1463.73 Q1154.28 1464.32 1154.66 1464.98 Q1156.83 1468.74 1156.04 1472.13 Q1155.25 1475.51 1151.73 1477.54 Q1148.11 1479.63 1144.79 1478.54 Q1141.49 1477.44 1139.12 1473.34 Q1138.3 1471.92 1137.69 1470.31 Q1137.09 1468.71 1136.67 1466.87 L1139.72 1465.11 Q1139.77 1466.89 1140.24 1468.54 Q1140.71 1470.19 1141.64 1471.8 Q1143.14 1474.4 1145.39 1475.13 Q1147.63 1475.86 1149.98 1474.51 Q1152.32 1473.15 1152.81 1470.84 Q1153.31 1468.53 1151.8 1465.93 Q1151.1 1464.72 1150.13 1463.65 Q1149.16 1462.61 1147.86 1461.67 L1159.14 1455.16 Z" fill="#4c4c4c" fill-rule="evenodd" fill-opacity="1" /><path clip-path="url(#clip130)" d="M1172.18 1482.37 Q1170.83 1480.03 1167.83 1480.18 Q1164.85 1480.33 1160.22 1483.01 Q1155.6 1485.67 1153.96 1488.18 Q1152.35 1490.7 1153.7 1493.04 Q1155.07 1495.4 1158.04 1495.25 Q1161.04 1495.1 1165.66 1492.43 Q1170.29 1489.76 1171.91 1487.24 Q1173.54 1484.73 1172.18 1482.37 M1174.59 1480.99 Q1176.77 1484.76 1174.92 1488.47 Q1173.1 1492.19 1167.41 1495.47 Q1161.75 1498.74 1157.6 1498.47 Q1153.48 1498.21 1151.3 1494.43 Q1149.12 1490.66 1150.94 1486.94 Q1152.79 1483.23 1158.46 1479.95 Q1164.14 1476.67 1168.26 1476.94 Q1172.41 1477.21 1174.59 1480.99 Z" fill="#4c4c4c" fill-rule="evenodd" fill-opacity="1" /><path clip-path="url(#clip130)" d="M1296.87 1468.01 Q1295.69 1465.97 1293.6 1465.57 Q1291.52 1465.19 1289.08 1466.6 Q1286.66 1467.99 1285.93 1470 Q1285.23 1472.01 1286.41 1474.05 Q1287.59 1476.1 1289.67 1476.48 Q1291.78 1476.87 1294.2 1475.47 Q1296.64 1474.06 1297.34 1472.05 Q1298.05 1470.06 1296.87 1468.01 M1309.87 1468.55 L1307.11 1470.14 Q1306.99 1468.69 1306.6 1467.35 Q1306.21 1466.03 1305.55 1464.89 Q1303.82 1461.88 1300.87 1461.46 Q1297.93 1461.05 1293.69 1463.19 Q1295.51 1463.33 1296.98 1464.26 Q1298.45 1465.19 1299.38 1466.8 Q1301.34 1470.19 1300.41 1473.33 Q1299.5 1476.48 1295.96 1478.52 Q1292.51 1480.52 1289.24 1479.68 Q1285.97 1478.84 1284 1475.44 Q1281.76 1471.55 1283.54 1467.77 Q1285.35 1463.98 1291.01 1460.71 Q1296.34 1457.64 1300.95 1458.34 Q1305.58 1459.03 1308.04 1463.29 Q1308.7 1464.43 1309.14 1465.72 Q1309.59 1467.02 1309.87 1468.55 Z" fill="#4c4c4c" fill-rule="evenodd" fill-opacity="1" /><path clip-path="url(#clip130)" d="M1315.98 1482.6 Q1314.63 1480.25 1311.63 1480.4 Q1308.65 1480.56 1304.02 1483.23 Q1299.4 1485.9 1297.76 1488.41 Q1296.15 1490.92 1297.5 1493.27 Q1298.87 1495.63 1301.84 1495.47 Q1304.84 1495.32 1309.46 1492.66 Q1314.09 1489.99 1315.71 1487.47 Q1317.34 1484.96 1315.98 1482.6 M1318.39 1481.21 Q1320.57 1484.98 1318.72 1488.7 Q1316.9 1492.42 1311.21 1495.7 Q1305.55 1498.97 1301.4 1498.7 Q1297.28 1498.43 1295.1 1494.66 Q1292.92 1490.88 1294.74 1487.16 Q1296.59 1483.45 1302.26 1480.18 Q1307.94 1476.9 1312.06 1477.16 Q1316.21 1477.44 1318.39 1481.21 Z" fill="#4c4c4c" fill-rule="evenodd" fill-opacity="1" /><path clip-path="url(#clip130)" d="M1445.93 1454.22 L1454.26 1468.65 L1452.97 1469.4 L1427.11 1473.46 L1425.28 1470.29 L1449.6 1466.47 L1443.37 1455.69 L1445.93 1454.22 Z" fill="#4c4c4c" fill-rule="evenodd" fill-opacity="1" /><path clip-path="url(#clip130)" d="M1459.43 1482.22 Q1458.08 1479.88 1455.08 1480.03 Q1452.1 1480.18 1447.47 1482.86 Q1442.85 1485.52 1441.22 1488.03 Q1439.6 1490.55 1440.96 1492.89 Q1442.32 1495.25 1445.3 1495.1 Q1448.3 1494.95 1452.91 1492.28 Q1457.54 1489.61 1459.16 1487.09 Q1460.8 1484.58 1459.43 1482.22 M1461.84 1480.84 Q1464.02 1484.61 1462.17 1488.32 Q1460.35 1492.04 1454.67 1495.32 Q1449 1498.59 1444.85 1498.32 Q1440.73 1498.06 1438.55 1494.28 Q1436.37 1490.51 1438.19 1486.79 Q1440.04 1483.08 1445.71 1479.8 Q1451.39 1476.52 1455.51 1476.79 Q1459.66 1477.06 1461.84 1480.84 Z" fill="#4c4c4c" fill-rule="evenodd" fill-opacity="1" /><path clip-path="url(#clip130)" d="M1582.26 1468.72 Q1581.01 1466.56 1579.13 1465.98 Q1577.26 1465.41 1575.23 1466.58 Q1573.2 1467.76 1572.75 1469.66 Q1572.32 1471.57 1573.57 1473.74 Q1574.82 1475.9 1576.69 1476.48 Q1578.59 1477.05 1580.6 1475.89 Q1582.63 1474.72 1583.07 1472.8 Q1583.52 1470.9 1582.26 1468.72 M1581.8 1464.94 Q1581.15 1462.7 1581.85 1460.83 Q1582.57 1458.98 1584.49 1457.87 Q1587.18 1456.31 1589.85 1457.32 Q1592.52 1458.34 1594.45 1461.68 Q1596.39 1465.03 1595.92 1467.85 Q1595.46 1470.66 1592.77 1472.21 Q1590.85 1473.32 1588.88 1473 Q1586.91 1472.69 1585.31 1471.03 Q1586.07 1473.52 1585.28 1475.59 Q1584.51 1477.69 1582.36 1478.93 Q1579.09 1480.81 1576.19 1479.82 Q1573.3 1478.84 1571.16 1475.13 Q1569.02 1471.41 1569.61 1468.41 Q1570.2 1465.41 1573.47 1463.53 Q1575.62 1462.29 1577.82 1462.66 Q1580.02 1463.04 1581.8 1464.94 M1585.95 1461.06 Q1584.21 1462.06 1583.85 1463.71 Q1583.51 1465.37 1584.65 1467.34 Q1585.78 1469.29 1587.39 1469.83 Q1589.01 1470.38 1590.75 1469.37 Q1592.49 1468.36 1592.83 1466.69 Q1593.17 1465.02 1592.04 1463.07 Q1590.91 1461.1 1589.3 1460.57 Q1587.69 1460.05 1585.95 1461.06 Z" fill="#4c4c4c" fill-rule="evenodd" fill-opacity="1" /><path clip-path="url(#clip130)" d="M1603.36 1482.66 Q1602 1480.31 1599 1480.46 Q1596.02 1480.62 1591.39 1483.29 Q1586.78 1485.96 1585.14 1488.47 Q1583.52 1490.98 1584.88 1493.33 Q1586.24 1495.69 1589.22 1495.53 Q1592.22 1495.38 1596.83 1492.72 Q1601.47 1490.05 1603.08 1487.53 Q1604.72 1485.02 1603.36 1482.66 M1605.76 1481.27 Q1607.94 1485.04 1606.09 1488.76 Q1604.27 1492.48 1598.59 1495.76 Q1592.92 1499.03 1588.77 1498.76 Q1584.65 1498.49 1582.47 1494.72 Q1580.29 1490.94 1582.12 1487.23 Q1583.96 1483.51 1589.63 1480.24 Q1595.31 1476.96 1599.44 1477.23 Q1603.58 1477.5 1605.76 1481.27 Z" fill="#4c4c4c" fill-rule="evenodd" fill-opacity="1" /><path clip-path="url(#clip130)" d="M1712.12 1468.35 L1714.89 1466.75 Q1715.01 1468.21 1715.4 1469.55 Q1715.79 1470.88 1716.44 1472.01 Q1718.18 1475.02 1721.1 1475.43 Q1724.05 1475.86 1728.3 1473.7 Q1726.51 1473.58 1725.04 1472.64 Q1723.58 1471.7 1722.64 1470.08 Q1720.7 1466.71 1721.59 1463.57 Q1722.5 1460.43 1726.04 1458.39 Q1729.5 1456.4 1732.77 1457.23 Q1736.04 1458.07 1738 1461.47 Q1740.25 1465.36 1738.44 1469.14 Q1736.65 1472.91 1730.96 1476.2 Q1725.66 1479.26 1721.03 1478.57 Q1716.42 1477.88 1713.96 1473.62 Q1713.3 1472.48 1712.85 1471.18 Q1712.4 1469.87 1712.12 1468.35 M1725.13 1468.9 Q1726.31 1470.95 1728.39 1471.33 Q1730.49 1471.72 1732.92 1470.32 Q1735.34 1468.92 1736.05 1466.91 Q1736.77 1464.9 1735.59 1462.86 Q1734.41 1460.81 1732.3 1460.43 Q1730.22 1460.05 1727.8 1461.44 Q1725.36 1462.85 1724.65 1464.85 Q1723.95 1466.86 1725.13 1468.9 Z" fill="#4c4c4c" fill-rule="evenodd" fill-opacity="1" /><path clip-path="url(#clip130)" d="M1747.11 1482.81 Q1745.76 1480.46 1742.76 1480.61 Q1739.78 1480.77 1735.15 1483.44 Q1730.53 1486.11 1728.89 1488.62 Q1727.28 1491.13 1728.63 1493.48 Q1730 1495.84 1732.97 1495.68 Q1735.98 1495.53 1740.59 1492.87 Q1745.22 1490.2 1746.84 1487.68 Q1748.47 1485.17 1747.11 1482.81 M1749.52 1481.42 Q1751.7 1485.2 1749.85 1488.91 Q1748.03 1492.63 1742.34 1495.91 Q1736.68 1499.18 1732.53 1498.91 Q1728.41 1498.64 1726.23 1494.87 Q1724.05 1491.09 1725.87 1487.38 Q1727.72 1483.66 1733.39 1480.39 Q1739.07 1477.11 1743.19 1477.38 Q1747.34 1477.65 1749.52 1481.42 Z" fill="#4c4c4c" fill-rule="evenodd" fill-opacity="1" /><path clip-path="url(#clip130)" d="M1857.3 1466.14 L1860.16 1471.1 L1877.29 1461.21 L1873.09 1456.44 L1875.86 1454.84 L1880.04 1459.58 L1881.79 1462.62 L1861.9 1474.11 L1864.76 1479.07 L1862.21 1480.54 L1854.74 1467.61 L1857.3 1466.14 Z" fill="#4c4c4c" fill-rule="evenodd" fill-opacity="1" /><path clip-path="url(#clip130)" d="M1889.95 1481.37 Q1888.59 1479.02 1885.59 1479.17 Q1882.62 1479.33 1877.98 1482 Q1873.37 1484.66 1871.73 1487.17 Q1870.12 1489.69 1871.47 1492.04 Q1872.83 1494.4 1875.81 1494.24 Q1878.81 1494.09 1883.43 1491.43 Q1888.06 1488.75 1889.67 1486.24 Q1891.31 1483.73 1889.95 1481.37 M1892.35 1479.98 Q1894.53 1483.75 1892.69 1487.46 Q1890.86 1491.18 1885.18 1494.46 Q1879.51 1497.74 1875.37 1497.46 Q1871.24 1497.2 1869.06 1493.42 Q1866.89 1489.65 1868.71 1485.93 Q1870.55 1482.22 1876.22 1478.95 Q1881.91 1475.67 1886.03 1475.93 Q1890.17 1476.2 1892.35 1479.98 Z" fill="#4c4c4c" fill-rule="evenodd" fill-opacity="1" /><path clip-path="url(#clip130)" d="M1901.26 1500.96 Q1899.9 1498.61 1896.9 1498.76 Q1893.93 1498.92 1889.3 1501.59 Q1884.68 1504.26 1883.04 1506.76 Q1881.43 1509.28 1882.78 1511.63 Q1884.14 1513.99 1887.12 1513.83 Q1890.12 1513.68 1894.74 1511.02 Q1899.37 1508.34 1900.98 1505.83 Q1902.62 1503.32 1901.26 1500.96 M1903.66 1499.57 Q1905.84 1503.34 1904 1507.05 Q1902.17 1510.77 1896.49 1514.05 Q1890.82 1517.33 1886.68 1517.05 Q1882.55 1516.79 1880.38 1513.01 Q1878.2 1509.24 1880.02 1505.52 Q1881.86 1501.81 1887.53 1498.54 Q1893.22 1495.26 1897.34 1495.52 Q1901.49 1495.8 1903.66 1499.57 Z" fill="#4c4c4c" fill-rule="evenodd" fill-opacity="1" /><path clip-path="url(#clip130)" d="M2000.97 1466.14 L2003.83 1471.1 L2020.96 1461.21 L2016.76 1456.44 L2019.53 1454.84 L2023.71 1459.58 L2025.46 1462.62 L2005.57 1474.11 L2008.43 1479.07 L2005.88 1480.54 L1998.41 1467.61 L2000.97 1466.14 Z" fill="#4c4c4c" fill-rule="evenodd" fill-opacity="1" /><path clip-path="url(#clip130)" d="M2012.28 1485.73 L2015.14 1490.69 L2032.27 1480.8 L2028.07 1476.03 L2030.84 1474.43 L2035.02 1479.18 L2036.77 1482.21 L2016.88 1493.7 L2019.75 1498.66 L2017.19 1500.13 L2009.72 1487.2 L2012.28 1485.73 Z" fill="#4c4c4c" fill-rule="evenodd" fill-opacity="1" /><path clip-path="url(#clip130)" d="M2044.93 1500.96 Q2043.57 1498.61 2040.57 1498.76 Q2037.6 1498.92 2032.97 1501.59 Q2028.35 1504.26 2026.71 1506.76 Q2025.1 1509.28 2026.45 1511.63 Q2027.81 1513.99 2030.79 1513.83 Q2033.79 1513.68 2038.41 1511.02 Q2043.04 1508.34 2044.65 1505.83 Q2046.29 1503.32 2044.93 1500.96 M2047.33 1499.57 Q2049.51 1503.34 2047.67 1507.05 Q2045.84 1510.77 2040.16 1514.05 Q2034.49 1517.33 2030.35 1517.05 Q2026.22 1516.79 2024.04 1513.01 Q2021.87 1509.24 2023.69 1505.52 Q2025.53 1501.81 2031.2 1498.54 Q2036.89 1495.26 2041.01 1495.52 Q2045.16 1495.8 2047.33 1499.57 Z" fill="#4c4c4c" fill-rule="evenodd" fill-opacity="1" /><path clip-path="url(#clip130)" d="M2144.64 1466.14 L2147.5 1471.1 L2164.63 1461.21 L2160.43 1456.44 L2163.2 1454.84 L2167.38 1459.58 L2169.13 1462.62 L2149.24 1474.11 L2152.1 1479.07 L2149.55 1480.54 L2142.08 1467.61 L2144.64 1466.14 Z" fill="#4c4c4c" fill-rule="evenodd" fill-opacity="1" /><path clip-path="url(#clip130)" d="M2157.16 1487.82 L2163.28 1498.42 L2160.72 1499.89 L2152.49 1485.64 L2155.05 1484.16 Q2157.83 1484.86 2162.56 1486.1 Q2167.31 1487.35 2168.62 1487.61 Q2171.11 1488.12 2172.56 1488.04 Q2174.04 1487.97 2175.14 1487.34 Q2176.93 1486.3 2177.33 1484.39 Q2177.74 1482.49 2176.57 1480.48 Q2175.75 1479.05 2174.33 1477.74 Q2172.92 1476.45 2170.88 1475.23 L2173.94 1473.46 Q2175.74 1474.86 2177.03 1476.24 Q2178.33 1477.62 2179.09 1478.94 Q2181.11 1482.43 2180.56 1485.51 Q2180.02 1488.59 2177.1 1490.28 Q2175.72 1491.08 2174.16 1491.27 Q2172.64 1491.47 2170.16 1491.07 Q2169.51 1490.95 2166.26 1490.14 Q2163.02 1489.32 2157.16 1487.82 Z" fill="#4c4c4c" fill-rule="evenodd" fill-opacity="1" /><path clip-path="url(#clip130)" d="M2188.6 1500.96 Q2187.24 1498.61 2184.24 1498.76 Q2181.27 1498.92 2176.63 1501.59 Q2172.02 1504.26 2170.38 1506.76 Q2168.77 1509.28 2170.12 1511.63 Q2171.48 1513.99 2174.46 1513.83 Q2177.46 1513.68 2182.08 1511.02 Q2186.71 1508.34 2188.32 1505.83 Q2189.96 1503.32 2188.6 1500.96 M2191 1499.57 Q2193.18 1503.34 2191.34 1507.05 Q2189.51 1510.77 2183.83 1514.05 Q2178.16 1517.33 2174.02 1517.05 Q2169.89 1516.79 2167.71 1513.01 Q2165.54 1509.24 2167.36 1505.52 Q2169.2 1501.81 2174.87 1498.54 Q2180.56 1495.26 2184.68 1495.52 Q2188.83 1495.8 2191 1499.57 Z" fill="#4c4c4c" fill-rule="evenodd" fill-opacity="1" /><path clip-path="url(#clip130)" d="M2288.31 1466.14 L2291.17 1471.1 L2308.3 1461.21 L2304.1 1456.44 L2306.87 1454.84 L2311.05 1459.58 L2312.8 1462.62 L2292.91 1474.11 L2295.77 1479.07 L2293.22 1480.54 L2285.75 1467.61 L2288.31 1466.14 Z" fill="#4c4c4c" fill-rule="evenodd" fill-opacity="1" /><path clip-path="url(#clip130)" d="M2314.18 1488.89 Q2314.97 1491.34 2314.2 1493.41 Q2313.44 1495.49 2311.27 1496.74 Q2307.95 1498.66 2304.81 1497.43 Q2301.67 1496.19 2299.24 1491.98 Q2298.42 1490.57 2297.84 1488.9 Q2297.25 1487.25 2296.89 1485.34 L2299.82 1483.65 Q2299.81 1485.34 2300.31 1487.06 Q2300.8 1488.78 2301.74 1490.41 Q2303.39 1493.27 2305.38 1494.11 Q2307.38 1494.96 2309.53 1493.72 Q2311.51 1492.57 2311.82 1490.53 Q2312.15 1488.5 2310.71 1486.02 L2309.2 1483.4 L2311.7 1481.96 L2313.28 1484.7 Q2314.57 1486.94 2316.14 1487.61 Q2317.73 1488.28 2319.42 1487.31 Q2321.15 1486.31 2321.35 1484.55 Q2321.58 1482.79 2320.26 1480.51 Q2319.54 1479.26 2318.44 1477.99 Q2317.35 1476.71 2315.79 1475.33 L2318.49 1473.77 Q2319.97 1475.22 2321.08 1476.58 Q2322.2 1477.96 2322.97 1479.3 Q2324.97 1482.76 2324.55 1485.69 Q2324.15 1488.6 2321.48 1490.15 Q2319.61 1491.22 2317.7 1490.9 Q2315.81 1490.57 2314.18 1488.89 Z" fill="#4c4c4c" fill-rule="evenodd" fill-opacity="1" /><path clip-path="url(#clip130)" d="M2332.27 1500.96 Q2330.91 1498.61 2327.91 1498.76 Q2324.94 1498.92 2320.3 1501.59 Q2315.69 1504.26 2314.05 1506.76 Q2312.44 1509.28 2313.79 1511.63 Q2315.15 1513.99 2318.13 1513.83 Q2321.13 1513.68 2325.75 1511.02 Q2330.38 1508.34 2331.99 1505.83 Q2333.63 1503.32 2332.27 1500.96 M2334.67 1499.57 Q2336.85 1503.34 2335.01 1507.05 Q2333.18 1510.77 2327.5 1514.05 Q2321.83 1517.33 2317.69 1517.05 Q2313.56 1516.79 2311.38 1513.01 Q2309.21 1509.24 2311.03 1505.52 Q2312.87 1501.81 2318.54 1498.54 Q2324.23 1495.26 2328.35 1495.52 Q2332.49 1495.8 2334.67 1499.57 Z" fill="#4c4c4c" fill-rule="evenodd" fill-opacity="1" /><path clip-path="url(#clip130)" d="M1253.46 1537.87 L1258.14 1537.87 L1258.14 1572.43 L1253.46 1572.43 L1253.46 1537.87 Z" fill="#000000" fill-rule="evenodd" fill-opacity="1" /><path clip-path="url(#clip130)" d="M1271.47 1539.15 L1271.47 1546.51 L1280.24 1546.51 L1280.24 1549.82 L1271.47 1549.82 L1271.47 1563.89 Q1271.47 1567.06 1272.33 1567.97 Q1273.21 1568.87 1275.87 1568.87 L1280.24 1568.87 L1280.24 1572.43 L1275.87 1572.43 Q1270.94 1572.43 1269.06 1570.6 Q1267.19 1568.75 1267.19 1563.89 L1267.19 1549.82 L1264.06 1549.82 L1264.06 1546.51 L1267.19 1546.51 L1267.19 1539.15 L1271.47 1539.15 Z" fill="#000000" fill-rule="evenodd" fill-opacity="1" /><path clip-path="url(#clip130)" d="M1308.02 1558.41 L1308.02 1560.49 L1288.44 1560.49 Q1288.72 1564.89 1291.08 1567.2 Q1293.46 1569.49 1297.7 1569.49 Q1300.15 1569.49 1302.44 1568.89 Q1304.76 1568.29 1307.03 1567.09 L1307.03 1571.11 Q1304.74 1572.09 1302.33 1572.6 Q1299.92 1573.1 1297.44 1573.1 Q1291.24 1573.1 1287.61 1569.49 Q1283.99 1565.88 1283.99 1559.73 Q1283.99 1553.36 1287.42 1549.63 Q1290.87 1545.88 1296.7 1545.88 Q1301.93 1545.88 1304.97 1549.26 Q1308.02 1552.62 1308.02 1558.41 M1303.76 1557.16 Q1303.72 1553.66 1301.8 1551.58 Q1299.9 1549.49 1296.75 1549.49 Q1293.18 1549.49 1291.03 1551.51 Q1288.9 1553.52 1288.58 1557.18 L1303.76 1557.16 Z" fill="#000000" fill-rule="evenodd" fill-opacity="1" /><path clip-path="url(#clip130)" d="M1330.04 1550.49 Q1329.32 1550.07 1328.46 1549.89 Q1327.63 1549.68 1326.61 1549.68 Q1323 1549.68 1321.05 1552.04 Q1319.13 1554.38 1319.13 1558.78 L1319.13 1572.43 L1314.85 1572.43 L1314.85 1546.51 L1319.13 1546.51 L1319.13 1550.54 Q1320.48 1548.17 1322.63 1547.04 Q1324.78 1545.88 1327.86 1545.88 Q1328.3 1545.88 1328.83 1545.95 Q1329.36 1546 1330.01 1546.11 L1330.04 1550.49 Z" fill="#000000" fill-rule="evenodd" fill-opacity="1" /><path clip-path="url(#clip130)" d="M1346.29 1559.4 Q1341.12 1559.4 1339.13 1560.58 Q1337.14 1561.76 1337.14 1564.61 Q1337.14 1566.88 1338.62 1568.22 Q1340.13 1569.54 1342.7 1569.54 Q1346.24 1569.54 1348.37 1567.04 Q1350.52 1564.52 1350.52 1560.35 L1350.52 1559.4 L1346.29 1559.4 M1354.78 1557.64 L1354.78 1572.43 L1350.52 1572.43 L1350.52 1568.5 Q1349.06 1570.86 1346.89 1571.99 Q1344.71 1573.1 1341.56 1573.1 Q1337.58 1573.1 1335.22 1570.88 Q1332.88 1568.64 1332.88 1564.89 Q1332.88 1560.51 1335.8 1558.29 Q1338.74 1556.07 1344.55 1556.07 L1350.52 1556.07 L1350.52 1555.65 Q1350.52 1552.71 1348.58 1551.11 Q1346.66 1549.49 1343.16 1549.49 Q1340.94 1549.49 1338.83 1550.03 Q1336.73 1550.56 1334.78 1551.62 L1334.78 1547.69 Q1337.12 1546.79 1339.32 1546.35 Q1341.52 1545.88 1343.6 1545.88 Q1349.23 1545.88 1352 1548.8 Q1354.78 1551.72 1354.78 1557.64 Z" fill="#000000" fill-rule="evenodd" fill-opacity="1" /><path clip-path="url(#clip130)" d="M1367.77 1539.15 L1367.77 1546.51 L1376.54 1546.51 L1376.54 1549.82 L1367.77 1549.82 L1367.77 1563.89 Q1367.77 1567.06 1368.62 1567.97 Q1369.5 1568.87 1372.17 1568.87 L1376.54 1568.87 L1376.54 1572.43 L1372.17 1572.43 Q1367.23 1572.43 1365.36 1570.6 Q1363.48 1568.75 1363.48 1563.89 L1363.48 1549.82 L1360.36 1549.82 L1360.36 1546.51 L1363.48 1546.51 L1363.48 1539.15 L1367.77 1539.15 Z" fill="#000000" fill-rule="evenodd" fill-opacity="1" /><path clip-path="url(#clip130)" d="M1382.14 1546.51 L1386.4 1546.51 L1386.4 1572.43 L1382.14 1572.43 L1382.14 1546.51 M1382.14 1536.42 L1386.4 1536.42 L1386.4 1541.81 L1382.14 1541.81 L1382.14 1536.42 Z" fill="#000000" fill-rule="evenodd" fill-opacity="1" /><path clip-path="url(#clip130)" d="M1405.36 1549.49 Q1401.93 1549.49 1399.94 1552.18 Q1397.95 1554.84 1397.95 1559.49 Q1397.95 1564.15 1399.92 1566.83 Q1401.91 1569.49 1405.36 1569.49 Q1408.76 1569.49 1410.75 1566.81 Q1412.74 1564.12 1412.74 1559.49 Q1412.74 1554.89 1410.75 1552.2 Q1408.76 1549.49 1405.36 1549.49 M1405.36 1545.88 Q1410.92 1545.88 1414.09 1549.49 Q1417.26 1553.1 1417.26 1559.49 Q1417.26 1565.86 1414.09 1569.49 Q1410.92 1573.1 1405.36 1573.1 Q1399.78 1573.1 1396.61 1569.49 Q1393.46 1565.86 1393.46 1559.49 Q1393.46 1553.1 1396.61 1549.49 Q1399.78 1545.88 1405.36 1545.88 Z" fill="#000000" fill-rule="evenodd" fill-opacity="1" /><path clip-path="url(#clip130)" d="M1445.87 1556.79 L1445.87 1572.43 L1441.61 1572.43 L1441.61 1556.92 Q1441.61 1553.24 1440.17 1551.41 Q1438.74 1549.59 1435.87 1549.59 Q1432.42 1549.59 1430.43 1551.79 Q1428.44 1553.98 1428.44 1557.78 L1428.44 1572.43 L1424.16 1572.43 L1424.16 1546.51 L1428.44 1546.51 L1428.44 1550.54 Q1429.97 1548.2 1432.03 1547.04 Q1434.11 1545.88 1436.82 1545.88 Q1441.29 1545.88 1443.58 1548.66 Q1445.87 1551.41 1445.87 1556.79 Z" fill="#000000" fill-rule="evenodd" fill-opacity="1" /><path clip-path="url(#clip130)" d="M1470.89 1547.27 L1470.89 1551.3 Q1469.09 1550.37 1467.14 1549.91 Q1465.2 1549.45 1463.11 1549.45 Q1459.94 1549.45 1458.35 1550.42 Q1456.77 1551.39 1456.77 1553.34 Q1456.77 1554.82 1457.91 1555.67 Q1459.04 1556.51 1462.47 1557.27 L1463.92 1557.6 Q1468.46 1558.57 1470.36 1560.35 Q1472.28 1562.11 1472.28 1565.28 Q1472.28 1568.89 1469.41 1571 Q1466.56 1573.1 1461.56 1573.1 Q1459.48 1573.1 1457.21 1572.69 Q1454.97 1572.29 1452.47 1571.48 L1452.47 1567.09 Q1454.83 1568.31 1457.12 1568.94 Q1459.41 1569.54 1461.66 1569.54 Q1464.66 1569.54 1466.29 1568.52 Q1467.91 1567.48 1467.91 1565.6 Q1467.91 1563.87 1466.73 1562.94 Q1465.57 1562.02 1461.61 1561.16 L1460.13 1560.81 Q1456.17 1559.98 1454.41 1558.27 Q1452.65 1556.53 1452.65 1553.52 Q1452.65 1549.86 1455.24 1547.87 Q1457.84 1545.88 1462.6 1545.88 Q1464.97 1545.88 1467.05 1546.23 Q1469.13 1546.58 1470.89 1547.27 Z" fill="#000000" fill-rule="evenodd" fill-opacity="1" /><polyline clip-path="url(#clip132)" style="stroke:#ffffff; stroke-linecap:butt; stroke-linejoin:round; stroke-width:4; stroke-opacity:1; fill:none" points="
  372.987,1253.71 2352.76,1253.71 
  "/>
<polyline clip-path="url(#clip132)" style="stroke:#ffffff; stroke-linecap:butt; stroke-linejoin:round; stroke-width:4; stroke-opacity:1; fill:none" points="
  372.987,1012.35 2352.76,1012.35 
  "/>
<polyline clip-path="url(#clip132)" style="stroke:#ffffff; stroke-linecap:butt; stroke-linejoin:round; stroke-width:4; stroke-opacity:1; fill:none" points="
  372.987,770.983 2352.76,770.983 
  "/>
<polyline clip-path="url(#clip132)" style="stroke:#ffffff; stroke-linecap:butt; stroke-linejoin:round; stroke-width:4; stroke-opacity:1; fill:none" points="
  372.987,529.619 2352.76,529.619 
  "/>
<polyline clip-path="url(#clip132)" style="stroke:#ffffff; stroke-linecap:butt; stroke-linejoin:round; stroke-width:4; stroke-opacity:1; fill:none" points="
  372.987,288.255 2352.76,288.255 
  "/>
<polyline clip-path="url(#clip132)" style="stroke:#ffffff; stroke-linecap:butt; stroke-linejoin:round; stroke-width:2; stroke-opacity:1; fill:none" points="
  372.987,1374.39 2352.76,1374.39 
  "/>
<polyline clip-path="url(#clip132)" style="stroke:#ffffff; stroke-linecap:butt; stroke-linejoin:round; stroke-width:2; stroke-opacity:1; fill:none" points="
  372.987,1133.03 2352.76,1133.03 
  "/>
<polyline clip-path="url(#clip132)" style="stroke:#ffffff; stroke-linecap:butt; stroke-linejoin:round; stroke-width:2; stroke-opacity:1; fill:none" points="
  372.987,891.665 2352.76,891.665 
  "/>
<polyline clip-path="url(#clip132)" style="stroke:#ffffff; stroke-linecap:butt; stroke-linejoin:round; stroke-width:2; stroke-opacity:1; fill:none" points="
  372.987,650.301 2352.76,650.301 
  "/>
<polyline clip-path="url(#clip132)" style="stroke:#ffffff; stroke-linecap:butt; stroke-linejoin:round; stroke-width:2; stroke-opacity:1; fill:none" points="
  372.987,408.937 2352.76,408.937 
  "/>
<polyline clip-path="url(#clip132)" style="stroke:#ffffff; stroke-linecap:butt; stroke-linejoin:round; stroke-width:2; stroke-opacity:1; fill:none" points="
  372.987,167.573 2352.76,167.573 
  "/>
<polyline clip-path="url(#clip130)" style="stroke:#ffffff; stroke-linecap:butt; stroke-linejoin:round; stroke-width:4; stroke-opacity:1; fill:none" points="
  372.987,1422.18 372.987,106.192 
  "/>
<polyline clip-path="url(#clip130)" style="stroke:#333333; stroke-linecap:butt; stroke-linejoin:round; stroke-width:4; stroke-opacity:1; fill:none" points="
  372.987,1253.71 354.089,1253.71 
  "/>
<polyline clip-path="url(#clip130)" style="stroke:#333333; stroke-linecap:butt; stroke-linejoin:round; stroke-width:4; stroke-opacity:1; fill:none" points="
  372.987,1012.35 354.089,1012.35 
  "/>
<polyline clip-path="url(#clip130)" style="stroke:#333333; stroke-linecap:butt; stroke-linejoin:round; stroke-width:4; stroke-opacity:1; fill:none" points="
  372.987,770.983 354.089,770.983 
  "/>
<polyline clip-path="url(#clip130)" style="stroke:#333333; stroke-linecap:butt; stroke-linejoin:round; stroke-width:4; stroke-opacity:1; fill:none" points="
  372.987,529.619 354.089,529.619 
  "/>
<polyline clip-path="url(#clip130)" style="stroke:#333333; stroke-linecap:butt; stroke-linejoin:round; stroke-width:4; stroke-opacity:1; fill:none" points="
  372.987,288.255 354.089,288.255 
  "/>
<polyline clip-path="url(#clip130)" style="stroke:#333333; stroke-linecap:butt; stroke-linejoin:round; stroke-width:4; stroke-opacity:1; fill:none" points="
  372.987,1374.39 363.538,1374.39 
  "/>
<polyline clip-path="url(#clip130)" style="stroke:#333333; stroke-linecap:butt; stroke-linejoin:round; stroke-width:4; stroke-opacity:1; fill:none" points="
  372.987,1133.03 363.538,1133.03 
  "/>
<polyline clip-path="url(#clip130)" style="stroke:#333333; stroke-linecap:butt; stroke-linejoin:round; stroke-width:4; stroke-opacity:1; fill:none" points="
  372.987,891.665 363.538,891.665 
  "/>
<polyline clip-path="url(#clip130)" style="stroke:#333333; stroke-linecap:butt; stroke-linejoin:round; stroke-width:4; stroke-opacity:1; fill:none" points="
  372.987,650.301 363.538,650.301 
  "/>
<polyline clip-path="url(#clip130)" style="stroke:#333333; stroke-linecap:butt; stroke-linejoin:round; stroke-width:4; stroke-opacity:1; fill:none" points="
  372.987,408.937 363.538,408.937 
  "/>
<polyline clip-path="url(#clip130)" style="stroke:#333333; stroke-linecap:butt; stroke-linejoin:round; stroke-width:4; stroke-opacity:1; fill:none" points="
  372.987,167.573 363.538,167.573 
  "/>
<path clip-path="url(#clip130)" d="M194.283 1254.05 L216.54 1254.05 L216.54 1257 L194.283 1257 L194.283 1254.05 Z" fill="#4c4c4c" fill-rule="evenodd" fill-opacity="1" /><path clip-path="url(#clip130)" d="M227.13 1263.72 L239.369 1263.72 L239.369 1266.67 L222.911 1266.67 L222.911 1263.72 Q224.908 1261.65 228.345 1258.18 Q231.8 1254.69 232.685 1253.69 Q234.369 1251.79 235.029 1250.49 Q235.706 1249.17 235.706 1247.9 Q235.706 1245.84 234.248 1244.54 Q232.807 1243.23 230.481 1243.23 Q228.831 1243.23 226.991 1243.81 Q225.168 1244.38 223.085 1245.54 L223.085 1242 Q225.203 1241.15 227.043 1240.72 Q228.883 1240.28 230.411 1240.28 Q234.439 1240.28 236.835 1242.3 Q239.231 1244.31 239.231 1247.68 Q239.231 1249.28 238.623 1250.72 Q238.033 1252.14 236.453 1254.08 Q236.019 1254.59 233.692 1257 Q231.366 1259.4 227.13 1263.72 Z" fill="#4c4c4c" fill-rule="evenodd" fill-opacity="1" /><path clip-path="url(#clip130)" d="M246.731 1262.26 L250.394 1262.26 L250.394 1266.67 L246.731 1266.67 L246.731 1262.26 Z" fill="#4c4c4c" fill-rule="evenodd" fill-opacity="1" /><path clip-path="url(#clip130)" d="M261.053 1263.72 L273.293 1263.72 L273.293 1266.67 L256.835 1266.67 L256.835 1263.72 Q258.831 1261.65 262.269 1258.18 Q265.723 1254.69 266.609 1253.69 Q268.293 1251.79 268.953 1250.49 Q269.63 1249.17 269.63 1247.9 Q269.63 1245.84 268.171 1244.54 Q266.73 1243.23 264.404 1243.23 Q262.755 1243.23 260.914 1243.81 Q259.092 1244.38 257.008 1245.54 L257.008 1242 Q259.126 1241.15 260.967 1240.72 Q262.807 1240.28 264.335 1240.28 Q268.362 1240.28 270.758 1242.3 Q273.154 1244.31 273.154 1247.68 Q273.154 1249.28 272.546 1250.72 Q271.956 1252.14 270.376 1254.08 Q269.942 1254.59 267.616 1257 Q265.289 1259.4 261.053 1263.72 Z" fill="#4c4c4c" fill-rule="evenodd" fill-opacity="1" /><path clip-path="url(#clip130)" d="M283.675 1263.72 L295.914 1263.72 L295.914 1266.67 L279.456 1266.67 L279.456 1263.72 Q281.453 1261.65 284.89 1258.18 Q288.345 1254.69 289.23 1253.69 Q290.914 1251.79 291.574 1250.49 Q292.251 1249.17 292.251 1247.9 Q292.251 1245.84 290.793 1244.54 Q289.352 1243.23 287.025 1243.23 Q285.376 1243.23 283.536 1243.81 Q281.713 1244.38 279.63 1245.54 L279.63 1242 Q281.748 1241.15 283.588 1240.72 Q285.428 1240.28 286.956 1240.28 Q290.984 1240.28 293.38 1242.3 Q295.775 1244.31 295.775 1247.68 Q295.775 1249.28 295.168 1250.72 Q294.578 1252.14 292.998 1254.08 Q292.564 1254.59 290.237 1257 Q287.911 1259.4 283.675 1263.72 Z" fill="#4c4c4c" fill-rule="evenodd" fill-opacity="1" /><path clip-path="url(#clip130)" d="M303.31 1240.75 L317.077 1240.75 L317.077 1243.7 L306.522 1243.7 L306.522 1250.06 Q307.286 1249.8 308.05 1249.68 Q308.814 1249.54 309.577 1249.54 Q313.918 1249.54 316.452 1251.91 Q318.987 1254.29 318.987 1258.36 Q318.987 1262.54 316.383 1264.87 Q313.779 1267.18 309.039 1267.18 Q307.407 1267.18 305.706 1266.9 Q304.022 1266.62 302.216 1266.06 L302.216 1262.54 Q303.779 1263.39 305.446 1263.81 Q307.112 1264.22 308.97 1264.22 Q311.973 1264.22 313.727 1262.64 Q315.48 1261.06 315.48 1258.36 Q315.48 1255.65 313.727 1254.07 Q311.973 1252.49 308.97 1252.49 Q307.564 1252.49 306.157 1252.8 Q304.768 1253.11 303.31 1253.77 L303.31 1240.75 Z" fill="#4c4c4c" fill-rule="evenodd" fill-opacity="1" /><path clip-path="url(#clip130)" d="M193.536 1012.69 L215.793 1012.69 L215.793 1015.64 L193.536 1015.64 L193.536 1012.69 Z" fill="#4c4c4c" fill-rule="evenodd" fill-opacity="1" /><path clip-path="url(#clip130)" d="M226.383 1022.36 L238.623 1022.36 L238.623 1025.31 L222.165 1025.31 L222.165 1022.36 Q224.161 1020.29 227.599 1016.82 Q231.054 1013.33 231.939 1012.32 Q233.623 1010.43 234.283 1009.13 Q234.96 1007.81 234.96 1006.54 Q234.96 1004.47 233.501 1003.17 Q232.06 1001.87 229.734 1001.87 Q228.085 1001.87 226.245 1002.44 Q224.422 1003.02 222.338 1004.18 L222.338 1000.64 Q224.456 999.787 226.297 999.353 Q228.137 998.919 229.665 998.919 Q233.692 998.919 236.088 1000.93 Q238.484 1002.95 238.484 1006.31 Q238.484 1007.91 237.876 1009.35 Q237.286 1010.78 235.706 1012.72 Q235.272 1013.22 232.946 1015.64 Q230.62 1018.03 226.383 1022.36 Z" fill="#4c4c4c" fill-rule="evenodd" fill-opacity="1" /><path clip-path="url(#clip130)" d="M245.984 1020.9 L249.647 1020.9 L249.647 1025.31 L245.984 1025.31 L245.984 1020.9 Z" fill="#4c4c4c" fill-rule="evenodd" fill-opacity="1" /><path clip-path="url(#clip130)" d="M260.307 1022.36 L272.546 1022.36 L272.546 1025.31 L256.088 1025.31 L256.088 1022.36 Q258.085 1020.29 261.522 1016.82 Q264.977 1013.33 265.862 1012.32 Q267.546 1010.43 268.206 1009.13 Q268.883 1007.81 268.883 1006.54 Q268.883 1004.47 267.425 1003.17 Q265.984 1001.87 263.658 1001.87 Q262.008 1001.87 260.168 1002.44 Q258.345 1003.02 256.262 1004.18 L256.262 1000.64 Q258.38 999.787 260.22 999.353 Q262.06 998.919 263.588 998.919 Q267.616 998.919 270.012 1000.93 Q272.407 1002.95 272.407 1006.31 Q272.407 1007.91 271.8 1009.35 Q271.21 1010.78 269.63 1012.72 Q269.196 1013.22 266.869 1015.64 Q264.543 1018.03 260.307 1022.36 Z" fill="#4c4c4c" fill-rule="evenodd" fill-opacity="1" /><path clip-path="url(#clip130)" d="M287.407 1001.7 Q284.699 1001.7 283.328 1004.37 Q281.973 1007.03 281.973 1012.37 Q281.973 1017.7 283.328 1020.38 Q284.699 1023.03 287.407 1023.03 Q290.133 1023.03 291.487 1020.38 Q292.859 1017.7 292.859 1012.37 Q292.859 1007.03 291.487 1004.37 Q290.133 1001.7 287.407 1001.7 M287.407 998.919 Q291.765 998.919 294.057 1002.37 Q296.366 1005.81 296.366 1012.37 Q296.366 1018.92 294.057 1022.37 Q291.765 1025.81 287.407 1025.81 Q283.05 1025.81 280.741 1022.37 Q278.449 1018.92 278.449 1012.37 Q278.449 1005.81 280.741 1002.37 Q283.05 998.919 287.407 998.919 Z" fill="#4c4c4c" fill-rule="evenodd" fill-opacity="1" /><path clip-path="url(#clip130)" d="M310.029 1001.7 Q307.32 1001.7 305.949 1004.37 Q304.595 1007.03 304.595 1012.37 Q304.595 1017.7 305.949 1020.38 Q307.32 1023.03 310.029 1023.03 Q312.754 1023.03 314.109 1020.38 Q315.48 1017.7 315.48 1012.37 Q315.48 1007.03 314.109 1004.37 Q312.754 1001.7 310.029 1001.7 M310.029 998.919 Q314.386 998.919 316.678 1002.37 Q318.987 1005.81 318.987 1012.37 Q318.987 1018.92 316.678 1022.37 Q314.386 1025.81 310.029 1025.81 Q305.671 1025.81 303.362 1022.37 Q301.071 1018.92 301.071 1012.37 Q301.071 1005.81 303.362 1002.37 Q305.671 998.919 310.029 998.919 Z" fill="#4c4c4c" fill-rule="evenodd" fill-opacity="1" /><path clip-path="url(#clip130)" d="M194.283 771.322 L216.54 771.322 L216.54 774.273 L194.283 774.273 L194.283 771.322 Z" fill="#4c4c4c" fill-rule="evenodd" fill-opacity="1" /><path clip-path="url(#clip130)" d="M227.13 780.992 L239.369 780.992 L239.369 783.943 L222.911 783.943 L222.911 780.992 Q224.908 778.926 228.345 775.454 Q231.8 771.964 232.685 770.957 Q234.369 769.065 235.029 767.763 Q235.706 766.444 235.706 765.176 Q235.706 763.11 234.248 761.808 Q232.807 760.506 230.481 760.506 Q228.831 760.506 226.991 761.079 Q225.168 761.652 223.085 762.815 L223.085 759.273 Q225.203 758.423 227.043 757.989 Q228.883 757.555 230.411 757.555 Q234.439 757.555 236.835 759.569 Q239.231 761.582 239.231 764.951 Q239.231 766.548 238.623 767.989 Q238.033 769.412 236.453 771.357 Q236.019 771.86 233.692 774.273 Q231.366 776.669 227.13 780.992 Z" fill="#4c4c4c" fill-rule="evenodd" fill-opacity="1" /><path clip-path="url(#clip130)" d="M246.731 779.534 L250.394 779.534 L250.394 783.943 L246.731 783.943 L246.731 779.534 Z" fill="#4c4c4c" fill-rule="evenodd" fill-opacity="1" /><path clip-path="url(#clip130)" d="M258.64 780.992 L264.369 780.992 L264.369 761.218 L258.137 762.468 L258.137 759.273 L264.335 758.023 L267.842 758.023 L267.842 780.992 L273.571 780.992 L273.571 783.943 L258.64 783.943 L258.64 780.992 Z" fill="#4c4c4c" fill-rule="evenodd" fill-opacity="1" /><path clip-path="url(#clip130)" d="M279.769 758.023 L296.435 758.023 L296.435 759.517 L287.025 783.943 L283.362 783.943 L292.216 760.975 L279.769 760.975 L279.769 758.023 Z" fill="#4c4c4c" fill-rule="evenodd" fill-opacity="1" /><path clip-path="url(#clip130)" d="M303.31 758.023 L317.077 758.023 L317.077 760.975 L306.522 760.975 L306.522 767.329 Q307.286 767.069 308.05 766.947 Q308.814 766.808 309.577 766.808 Q313.918 766.808 316.452 769.187 Q318.987 771.565 318.987 775.628 Q318.987 779.812 316.383 782.138 Q313.779 784.447 309.039 784.447 Q307.407 784.447 305.706 784.169 Q304.022 783.891 302.216 783.336 L302.216 779.812 Q303.779 780.662 305.446 781.079 Q307.112 781.496 308.97 781.496 Q311.973 781.496 313.727 779.916 Q315.48 778.336 315.48 775.628 Q315.48 772.919 313.727 771.339 Q311.973 769.76 308.97 769.76 Q307.564 769.76 306.157 770.072 Q304.768 770.385 303.31 771.044 L303.31 758.023 Z" fill="#4c4c4c" fill-rule="evenodd" fill-opacity="1" /><path clip-path="url(#clip130)" d="M193.536 529.958 L215.793 529.958 L215.793 532.909 L193.536 532.909 L193.536 529.958 Z" fill="#4c4c4c" fill-rule="evenodd" fill-opacity="1" /><path clip-path="url(#clip130)" d="M226.383 539.628 L238.623 539.628 L238.623 542.579 L222.165 542.579 L222.165 539.628 Q224.161 537.562 227.599 534.09 Q231.054 530.6 231.939 529.593 Q233.623 527.701 234.283 526.399 Q234.96 525.08 234.96 523.812 Q234.96 521.746 233.501 520.444 Q232.06 519.142 229.734 519.142 Q228.085 519.142 226.245 519.715 Q224.422 520.288 222.338 521.451 L222.338 517.909 Q224.456 517.059 226.297 516.625 Q228.137 516.191 229.665 516.191 Q233.692 516.191 236.088 518.205 Q238.484 520.218 238.484 523.586 Q238.484 525.184 237.876 526.625 Q237.286 528.048 235.706 529.993 Q235.272 530.496 232.946 532.909 Q230.62 535.305 226.383 539.628 Z" fill="#4c4c4c" fill-rule="evenodd" fill-opacity="1" /><path clip-path="url(#clip130)" d="M245.984 538.17 L249.647 538.17 L249.647 542.579 L245.984 542.579 L245.984 538.17 Z" fill="#4c4c4c" fill-rule="evenodd" fill-opacity="1" /><path clip-path="url(#clip130)" d="M257.894 539.628 L263.623 539.628 L263.623 519.854 L257.39 521.104 L257.39 517.909 L263.588 516.659 L267.095 516.659 L267.095 539.628 L272.824 539.628 L272.824 542.579 L257.894 542.579 L257.894 539.628 Z" fill="#4c4c4c" fill-rule="evenodd" fill-opacity="1" /><path clip-path="url(#clip130)" d="M279.942 516.659 L293.709 516.659 L293.709 519.611 L283.154 519.611 L283.154 525.965 Q283.918 525.705 284.682 525.583 Q285.446 525.444 286.209 525.444 Q290.55 525.444 293.084 527.823 Q295.619 530.201 295.619 534.264 Q295.619 538.448 293.015 540.774 Q290.411 543.083 285.671 543.083 Q284.039 543.083 282.338 542.805 Q280.654 542.527 278.848 541.972 L278.848 538.448 Q280.411 539.298 282.078 539.715 Q283.744 540.132 285.602 540.132 Q288.605 540.132 290.359 538.552 Q292.112 536.972 292.112 534.264 Q292.112 531.555 290.359 529.975 Q288.605 528.395 285.602 528.395 Q284.196 528.395 282.789 528.708 Q281.4 529.02 279.942 529.68 L279.942 516.659 Z" fill="#4c4c4c" fill-rule="evenodd" fill-opacity="1" /><path clip-path="url(#clip130)" d="M310.029 518.968 Q307.32 518.968 305.949 521.642 Q304.595 524.298 304.595 529.645 Q304.595 534.975 305.949 537.649 Q307.32 540.305 310.029 540.305 Q312.754 540.305 314.109 537.649 Q315.48 534.975 315.48 529.645 Q315.48 524.298 314.109 521.642 Q312.754 518.968 310.029 518.968 M310.029 516.191 Q314.386 516.191 316.678 519.646 Q318.987 523.083 318.987 529.645 Q318.987 536.191 316.678 539.645 Q314.386 543.083 310.029 543.083 Q305.671 543.083 303.362 539.645 Q301.071 536.191 301.071 529.645 Q301.071 523.083 303.362 519.646 Q305.671 516.191 310.029 516.191 Z" fill="#4c4c4c" fill-rule="evenodd" fill-opacity="1" /><path clip-path="url(#clip130)" d="M194.283 288.594 L216.54 288.594 L216.54 291.545 L194.283 291.545 L194.283 288.594 Z" fill="#4c4c4c" fill-rule="evenodd" fill-opacity="1" /><path clip-path="url(#clip130)" d="M227.13 298.264 L239.369 298.264 L239.369 301.215 L222.911 301.215 L222.911 298.264 Q224.908 296.198 228.345 292.726 Q231.8 289.236 232.685 288.229 Q234.369 286.337 235.029 285.035 Q235.706 283.715 235.706 282.448 Q235.706 280.382 234.248 279.08 Q232.807 277.778 230.481 277.778 Q228.831 277.778 226.991 278.351 Q225.168 278.924 223.085 280.087 L223.085 276.545 Q225.203 275.695 227.043 275.261 Q228.883 274.827 230.411 274.827 Q234.439 274.827 236.835 276.841 Q239.231 278.854 239.231 282.222 Q239.231 283.82 238.623 285.261 Q238.033 286.684 236.453 288.629 Q236.019 289.132 233.692 291.545 Q231.366 293.941 227.13 298.264 Z" fill="#4c4c4c" fill-rule="evenodd" fill-opacity="1" /><path clip-path="url(#clip130)" d="M246.731 296.806 L250.394 296.806 L250.394 301.215 L246.731 301.215 L246.731 296.806 Z" fill="#4c4c4c" fill-rule="evenodd" fill-opacity="1" /><path clip-path="url(#clip130)" d="M258.64 298.264 L264.369 298.264 L264.369 278.49 L258.137 279.74 L258.137 276.545 L264.335 275.295 L267.842 275.295 L267.842 298.264 L273.571 298.264 L273.571 301.215 L258.64 301.215 L258.64 298.264 Z" fill="#4c4c4c" fill-rule="evenodd" fill-opacity="1" /><path clip-path="url(#clip130)" d="M283.675 298.264 L295.914 298.264 L295.914 301.215 L279.456 301.215 L279.456 298.264 Q281.453 296.198 284.89 292.726 Q288.345 289.236 289.23 288.229 Q290.914 286.337 291.574 285.035 Q292.251 283.715 292.251 282.448 Q292.251 280.382 290.793 279.08 Q289.352 277.778 287.025 277.778 Q285.376 277.778 283.536 278.351 Q281.713 278.924 279.63 280.087 L279.63 276.545 Q281.748 275.695 283.588 275.261 Q285.428 274.827 286.956 274.827 Q290.984 274.827 293.38 276.841 Q295.775 278.854 295.775 282.222 Q295.775 283.82 295.168 285.261 Q294.578 286.684 292.998 288.629 Q292.564 289.132 290.237 291.545 Q287.911 293.941 283.675 298.264 Z" fill="#4c4c4c" fill-rule="evenodd" fill-opacity="1" /><path clip-path="url(#clip130)" d="M303.31 275.295 L317.077 275.295 L317.077 278.247 L306.522 278.247 L306.522 284.601 Q307.286 284.34 308.05 284.219 Q308.814 284.08 309.577 284.08 Q313.918 284.08 316.452 286.459 Q318.987 288.837 318.987 292.899 Q318.987 297.083 316.383 299.41 Q313.779 301.719 309.039 301.719 Q307.407 301.719 305.706 301.441 Q304.022 301.163 302.216 300.608 L302.216 297.083 Q303.779 297.934 305.446 298.351 Q307.112 298.767 308.97 298.767 Q311.973 298.767 313.727 297.188 Q315.48 295.608 315.48 292.899 Q315.48 290.191 313.727 288.611 Q311.973 287.031 308.97 287.031 Q307.564 287.031 306.157 287.344 Q304.768 287.656 303.31 288.316 L303.31 275.295 Z" fill="#4c4c4c" fill-rule="evenodd" fill-opacity="1" /><path clip-path="url(#clip130)" d="M130.608 973.882 L130.608 944.646 L134.544 944.646 L134.544 956.915 L165.168 956.915 L165.168 961.614 L134.544 961.614 L134.544 973.882 L130.608 973.882 Z" fill="#000000" fill-rule="evenodd" fill-opacity="1" /><path clip-path="url(#clip130)" d="M151.141 926.198 L153.224 926.198 L153.224 945.781 Q157.622 945.503 159.937 943.142 Q162.229 940.758 162.229 936.522 Q162.229 934.068 161.627 931.776 Q161.025 929.461 159.821 927.193 L163.849 927.193 Q164.821 929.485 165.33 931.892 Q165.84 934.299 165.84 936.776 Q165.84 942.98 162.229 946.614 Q158.617 950.225 152.46 950.225 Q146.094 950.225 142.368 946.799 Q138.618 943.35 138.618 937.517 Q138.618 932.285 141.997 929.253 Q145.354 926.198 151.141 926.198 M149.891 930.457 Q146.395 930.503 144.312 932.424 Q142.229 934.322 142.229 937.471 Q142.229 941.035 144.243 943.188 Q146.256 945.318 149.914 945.642 L149.891 930.457 Z" fill="#000000" fill-rule="evenodd" fill-opacity="1" /><path clip-path="url(#clip130)" d="M140.006 902.679 L144.034 902.679 Q143.108 904.485 142.645 906.429 Q142.182 908.374 142.182 910.457 Q142.182 913.628 143.155 915.225 Q144.127 916.799 146.071 916.799 Q147.553 916.799 148.409 915.665 Q149.243 914.531 150.006 911.105 L150.33 909.647 Q151.303 905.11 153.085 903.212 Q154.844 901.29 158.016 901.29 Q161.627 901.29 163.733 904.161 Q165.84 907.008 165.84 912.008 Q165.84 914.091 165.423 916.36 Q165.029 918.605 164.219 921.105 L159.821 921.105 Q161.048 918.744 161.673 916.452 Q162.275 914.161 162.275 911.915 Q162.275 908.906 161.256 907.286 Q160.215 905.665 158.34 905.665 Q156.604 905.665 155.678 906.846 Q154.752 908.003 153.895 911.961 L153.548 913.443 Q152.715 917.401 151.002 919.161 Q149.266 920.92 146.256 920.92 Q142.599 920.92 140.608 918.327 Q138.618 915.735 138.618 910.966 Q138.618 908.605 138.965 906.522 Q139.312 904.438 140.006 902.679 Z" fill="#000000" fill-rule="evenodd" fill-opacity="1" /><path clip-path="url(#clip130)" d="M131.882 890.295 L139.243 890.295 L139.243 881.522 L142.553 881.522 L142.553 890.295 L156.627 890.295 Q159.798 890.295 160.701 889.438 Q161.604 888.559 161.604 885.897 L161.604 881.522 L165.168 881.522 L165.168 885.897 Q165.168 890.827 163.34 892.702 Q161.488 894.577 156.627 894.577 L142.553 894.577 L142.553 897.702 L139.243 897.702 L139.243 894.577 L131.882 894.577 L131.882 890.295 Z" fill="#000000" fill-rule="evenodd" fill-opacity="1" /><path clip-path="url(#clip130)" d="M129.15 860.851 L129.15 856.591 L165.168 856.591 L165.168 860.851 L129.15 860.851 Z" fill="#000000" fill-rule="evenodd" fill-opacity="1" /><path clip-path="url(#clip130)" d="M142.229 837.633 Q142.229 841.059 144.914 843.05 Q147.576 845.041 152.229 845.041 Q156.881 845.041 159.567 843.073 Q162.229 841.082 162.229 837.633 Q162.229 834.23 159.543 832.24 Q156.858 830.249 152.229 830.249 Q147.622 830.249 144.937 832.24 Q142.229 834.23 142.229 837.633 M138.618 837.633 Q138.618 832.078 142.229 828.906 Q145.84 825.735 152.229 825.735 Q158.594 825.735 162.229 828.906 Q165.84 832.078 165.84 837.633 Q165.84 843.212 162.229 846.383 Q158.594 849.531 152.229 849.531 Q145.84 849.531 142.229 846.383 Q138.618 843.212 138.618 837.633 Z" fill="#000000" fill-rule="evenodd" fill-opacity="1" /><path clip-path="url(#clip130)" d="M151.905 801.615 Q147.275 801.615 144.729 803.536 Q142.182 805.434 142.182 808.883 Q142.182 812.309 144.729 814.231 Q147.275 816.129 151.905 816.129 Q156.511 816.129 159.057 814.231 Q161.604 812.309 161.604 808.883 Q161.604 805.434 159.057 803.536 Q156.511 801.615 151.905 801.615 M161.951 797.356 Q168.571 797.356 171.789 800.295 Q175.029 803.235 175.029 809.3 Q175.029 811.545 174.682 813.536 Q174.358 815.527 173.664 817.402 L169.52 817.402 Q170.539 815.527 171.025 813.698 Q171.511 811.869 171.511 809.971 Q171.511 805.781 169.312 803.698 Q167.136 801.615 162.715 801.615 L160.608 801.615 Q162.9 802.934 164.034 804.994 Q165.168 807.055 165.168 809.925 Q165.168 814.693 161.534 817.61 Q157.9 820.527 151.905 820.527 Q145.886 820.527 142.252 817.61 Q138.618 814.693 138.618 809.925 Q138.618 807.055 139.752 804.994 Q140.886 802.934 143.178 801.615 L139.243 801.615 L139.243 797.356 L161.951 797.356 Z" fill="#000000" fill-rule="evenodd" fill-opacity="1" /><path clip-path="url(#clip130)" d="M150.284 790.735 L150.284 778.258 L154.08 778.258 L154.08 790.735 L150.284 790.735 Z" fill="#000000" fill-rule="evenodd" fill-opacity="1" /><path clip-path="url(#clip130)" d="M129.15 771.476 L129.15 767.217 L165.168 767.217 L165.168 771.476 L129.15 771.476 Z" fill="#000000" fill-rule="evenodd" fill-opacity="1" /><path clip-path="url(#clip130)" d="M139.243 758.305 L139.243 754.046 L165.168 754.046 L165.168 758.305 L139.243 758.305 M129.15 758.305 L129.15 754.046 L134.544 754.046 L134.544 758.305 L129.15 758.305 Z" fill="#000000" fill-rule="evenodd" fill-opacity="1" /><path clip-path="url(#clip130)" d="M129.15 745.296 L129.15 741.013 L150.423 741.013 L139.243 728.305 L139.243 722.865 L151.372 736.615 L165.168 722.287 L165.168 727.842 L152.506 741.013 L165.168 741.013 L165.168 745.296 L129.15 745.296 Z" fill="#000000" fill-rule="evenodd" fill-opacity="1" /><path clip-path="url(#clip130)" d="M151.141 697.194 L153.224 697.194 L153.224 716.777 Q157.622 716.5 159.937 714.138 Q162.229 711.754 162.229 707.518 Q162.229 705.064 161.627 702.773 Q161.025 700.458 159.821 698.189 L163.849 698.189 Q164.821 700.481 165.33 702.889 Q165.84 705.296 165.84 707.773 Q165.84 713.976 162.229 717.611 Q158.617 721.222 152.46 721.222 Q146.094 721.222 142.368 717.796 Q138.618 714.347 138.618 708.513 Q138.618 703.282 141.997 700.25 Q145.354 697.194 151.141 697.194 M149.891 701.453 Q146.395 701.5 144.312 703.421 Q142.229 705.319 142.229 708.467 Q142.229 712.032 144.243 714.185 Q146.256 716.314 149.914 716.638 L149.891 701.453 Z" fill="#000000" fill-rule="evenodd" fill-opacity="1" /><path clip-path="url(#clip130)" d="M129.15 690.203 L129.15 685.944 L165.168 685.944 L165.168 690.203 L129.15 690.203 Z" fill="#000000" fill-rule="evenodd" fill-opacity="1" /><path clip-path="url(#clip130)" d="M139.243 677.032 L139.243 672.773 L165.168 672.773 L165.168 677.032 L139.243 677.032 M129.15 677.032 L129.15 672.773 L134.544 672.773 L134.544 677.032 L129.15 677.032 Z" fill="#000000" fill-rule="evenodd" fill-opacity="1" /><path clip-path="url(#clip130)" d="M149.52 642.31 L165.168 642.31 L165.168 646.569 L149.659 646.569 Q145.979 646.569 144.15 648.005 Q142.321 649.44 142.321 652.31 Q142.321 655.759 144.52 657.75 Q146.719 659.741 150.516 659.741 L165.168 659.741 L165.168 664.023 L129.15 664.023 L129.15 659.741 L143.27 659.741 Q140.932 658.213 139.775 656.153 Q138.618 654.069 138.618 651.361 Q138.618 646.893 141.395 644.602 Q144.15 642.31 149.52 642.31 Z" fill="#000000" fill-rule="evenodd" fill-opacity="1" /><path clip-path="url(#clip130)" d="M142.229 623.769 Q142.229 627.194 144.914 629.185 Q147.576 631.176 152.229 631.176 Q156.881 631.176 159.567 629.208 Q162.229 627.218 162.229 623.769 Q162.229 620.366 159.543 618.375 Q156.858 616.384 152.229 616.384 Q147.622 616.384 144.937 618.375 Q142.229 620.366 142.229 623.769 M138.618 623.769 Q138.618 618.213 142.229 615.042 Q145.84 611.87 152.229 611.87 Q158.594 611.87 162.229 615.042 Q165.84 618.213 165.84 623.769 Q165.84 629.347 162.229 632.519 Q158.594 635.667 152.229 635.667 Q145.84 635.667 142.229 632.519 Q138.618 629.347 138.618 623.769 Z" fill="#000000" fill-rule="evenodd" fill-opacity="1" /><path clip-path="url(#clip130)" d="M142.229 594.764 Q142.229 598.19 144.914 600.181 Q147.576 602.171 152.229 602.171 Q156.881 602.171 159.567 600.204 Q162.229 598.213 162.229 594.764 Q162.229 591.361 159.543 589.371 Q156.858 587.38 152.229 587.38 Q147.622 587.38 144.937 589.371 Q142.229 591.361 142.229 594.764 M138.618 594.764 Q138.618 589.209 142.229 586.037 Q145.84 582.866 152.229 582.866 Q158.594 582.866 162.229 586.037 Q165.84 589.209 165.84 594.764 Q165.84 600.343 162.229 603.514 Q158.594 606.662 152.229 606.662 Q145.84 606.662 142.229 603.514 Q138.618 600.343 138.618 594.764 Z" fill="#000000" fill-rule="evenodd" fill-opacity="1" /><path clip-path="url(#clip130)" d="M143.178 558.746 L129.15 558.746 L129.15 554.487 L165.168 554.487 L165.168 558.746 L161.28 558.746 Q163.594 560.088 164.729 562.149 Q165.84 564.186 165.84 567.056 Q165.84 571.755 162.09 574.718 Q158.34 577.658 152.229 577.658 Q146.118 577.658 142.368 574.718 Q138.618 571.755 138.618 567.056 Q138.618 564.186 139.752 562.149 Q140.863 560.088 143.178 558.746 M152.229 573.26 Q156.928 573.26 159.613 571.338 Q162.275 569.394 162.275 566.014 Q162.275 562.635 159.613 560.69 Q156.928 558.746 152.229 558.746 Q147.53 558.746 144.868 560.69 Q142.182 562.635 142.182 566.014 Q142.182 569.394 144.868 571.338 Q147.53 573.26 152.229 573.26 Z" fill="#000000" fill-rule="evenodd" fill-opacity="1" /><path clip-path="url(#clip130)" d="M1313.48 6.81709 L1318.83 6.81709 L1318.83 33.4084 L1334.72 19.4328 L1341.52 19.4328 L1324.33 34.5947 L1342.24 51.84 L1335.3 51.84 L1318.83 36.0125 L1318.83 51.84 L1313.48 51.84 L1313.48 6.81709 Z" fill="#000000" fill-rule="evenodd" fill-opacity="1" /><path clip-path="url(#clip130)" d="M1369.32 24.3517 L1369.32 6.81709 L1374.65 6.81709 L1374.65 51.84 L1369.32 51.84 L1369.32 46.9789 Q1367.65 49.8724 1365.07 51.2902 Q1362.52 52.6791 1358.94 52.6791 Q1353.06 52.6791 1349.36 47.9916 Q1345.68 43.3042 1345.68 35.6653 Q1345.68 28.0265 1349.36 23.339 Q1353.06 18.6515 1358.94 18.6515 Q1362.52 18.6515 1365.07 20.0693 Q1367.65 21.4582 1369.32 24.3517 M1351.18 35.6653 Q1351.18 41.5391 1353.58 44.8956 Q1356.01 48.2231 1360.24 48.2231 Q1364.46 48.2231 1366.89 44.8956 Q1369.32 41.5391 1369.32 35.6653 Q1369.32 29.7915 1366.89 26.464 Q1364.46 23.1075 1360.24 23.1075 Q1356.01 23.1075 1353.58 26.464 Q1351.18 29.7915 1351.18 35.6653 Z" fill="#000000" fill-rule="evenodd" fill-opacity="1" /><path clip-path="url(#clip130)" d="M1406.94 24.3517 L1406.94 6.81709 L1412.26 6.81709 L1412.26 51.84 L1406.94 51.84 L1406.94 46.9789 Q1405.26 49.8724 1402.69 51.2902 Q1400.14 52.6791 1396.55 52.6791 Q1390.68 52.6791 1386.97 47.9916 Q1383.3 43.3042 1383.3 35.6653 Q1383.3 28.0265 1386.97 23.339 Q1390.68 18.6515 1396.55 18.6515 Q1400.14 18.6515 1402.69 20.0693 Q1405.26 21.4582 1406.94 24.3517 M1388.8 35.6653 Q1388.8 41.5391 1391.2 44.8956 Q1393.63 48.2231 1397.85 48.2231 Q1402.08 48.2231 1404.51 44.8956 Q1406.94 41.5391 1406.94 35.6653 Q1406.94 29.7915 1404.51 26.464 Q1402.08 23.1075 1397.85 23.1075 Q1393.63 23.1075 1391.2 26.464 Q1388.8 29.7915 1388.8 35.6653 Z" fill="#000000" fill-rule="evenodd" fill-opacity="1" /><polyline clip-path="url(#clip132)" style="stroke:#e26f46; stroke-linecap:butt; stroke-linejoin:round; stroke-width:8; stroke-opacity:1; fill:none" points="
  457.752,819.256 486.486,819.256 515.22,819.256 543.954,819.256 572.688,819.256 601.422,819.256 630.156,819.256 658.89,819.256 687.624,819.256 716.358,819.256 
  745.092,819.256 773.826,819.256 802.56,819.256 831.294,819.256 860.027,819.256 888.761,819.256 917.495,819.256 946.229,819.256 974.963,819.256 1003.7,819.256 
  1032.43,819.256 1061.17,819.256 1089.9,819.256 1118.63,819.256 1147.37,819.256 1176.1,819.256 1204.83,819.256 1233.57,819.256 1262.3,819.256 1291.04,819.256 
  1319.77,819.256 1348.5,819.256 1377.24,819.256 1405.97,819.256 1434.71,819.256 1463.44,819.256 1492.17,819.256 1520.91,819.256 1549.64,819.256 1578.38,819.256 
  1607.11,819.256 1635.84,819.256 1664.58,819.256 1693.31,819.256 1722.05,819.256 1750.78,819.256 1779.51,819.256 1808.25,819.256 1836.98,819.256 1865.72,819.256 
  1894.45,819.256 1923.18,819.256 1951.92,819.256 1980.65,819.256 2009.39,819.256 2038.12,819.256 2066.85,819.256 2095.59,819.256 2124.32,819.256 2153.05,819.256 
  2181.79,819.256 2210.52,819.256 2239.26,819.256 2267.99,819.256 2296.72,819.256 
  "/>
<polyline clip-path="url(#clip132)" style="stroke:#3da44d; stroke-linecap:butt; stroke-linejoin:round; stroke-width:8; stroke-opacity:1; fill:none" points="
  457.752,336.528 486.486,336.528 515.22,336.528 543.954,336.528 572.688,336.528 601.422,336.528 630.156,336.528 658.89,336.528 687.624,336.528 716.358,336.528 
  745.092,336.528 773.826,336.528 802.56,336.528 831.294,336.528 860.027,336.528 888.761,336.528 917.495,336.528 946.229,336.528 974.963,336.528 1003.7,336.528 
  1032.43,336.528 1061.17,336.528 1089.9,336.528 1118.63,336.528 1147.37,336.528 1176.1,336.528 1204.83,336.528 1233.57,336.528 1262.3,336.528 1291.04,336.528 
  1319.77,336.528 1348.5,336.528 1377.24,336.528 1405.97,336.528 1434.71,336.528 1463.44,336.528 1492.17,336.528 1520.91,336.528 1549.64,336.528 1578.38,336.528 
  1607.11,336.528 1635.84,336.528 1664.58,336.528 1693.31,336.528 1722.05,336.528 1750.78,336.528 1779.51,336.528 1808.25,336.528 1836.98,336.528 1865.72,336.528 
  1894.45,336.528 1923.18,336.528 1951.92,336.528 1980.65,336.528 2009.39,336.528 2038.12,336.528 2066.85,336.528 2095.59,336.528 2124.32,336.528 2153.05,336.528 
  2181.79,336.528 2210.52,336.528 2239.26,336.528 2267.99,336.528 2296.72,336.528 
  "/>
<polyline clip-path="url(#clip132)" style="stroke:#c271d2; stroke-linecap:butt; stroke-linejoin:round; stroke-width:8; stroke-opacity:1; fill:none" points="
  457.752,143.437 486.486,143.437 515.22,143.437 543.954,143.437 572.688,143.437 601.422,143.437 630.156,143.437 658.89,143.437 687.624,143.437 716.358,143.437 
  745.092,143.437 773.826,143.437 802.56,143.437 831.294,143.437 860.027,143.437 888.761,143.437 917.495,143.437 946.229,143.437 974.963,143.437 1003.7,143.437 
  1032.43,143.437 1061.17,143.437 1089.9,143.437 1118.63,143.437 1147.37,143.437 1176.1,143.437 1204.83,143.437 1233.57,143.437 1262.3,143.437 1291.04,143.437 
  1319.77,143.437 1348.5,143.437 1377.24,143.437 1405.97,143.437 1434.71,143.437 1463.44,143.437 1492.17,143.437 1520.91,143.437 1549.64,143.437 1578.38,143.437 
  1607.11,143.437 1635.84,143.437 1664.58,143.437 1693.31,143.437 1722.05,143.437 1750.78,143.437 1779.51,143.437 1808.25,143.437 1836.98,143.437 1865.72,143.437 
  1894.45,143.437 1923.18,143.437 1951.92,143.437 1980.65,143.437 2009.39,143.437 2038.12,143.437 2066.85,143.437 2095.59,143.437 2124.32,143.437 2153.05,143.437 
  2181.79,143.437 2210.52,143.437 2239.26,143.437 2267.99,143.437 2296.72,143.437 
  "/>
<polyline clip-path="url(#clip132)" style="stroke:#ac8d18; stroke-linecap:butt; stroke-linejoin:round; stroke-width:8; stroke-opacity:1; fill:none" points="
  457.752,529.619 486.486,529.619 515.22,529.619 543.954,529.619 572.688,529.619 601.422,529.619 630.156,529.619 658.89,529.619 687.624,529.619 716.358,529.619 
  745.092,529.619 773.826,529.619 802.56,529.619 831.294,529.619 860.027,529.619 888.761,529.619 917.495,529.619 946.229,529.619 974.963,529.619 1003.7,529.619 
  1032.43,529.619 1061.17,529.619 1089.9,529.619 1118.63,529.619 1147.37,529.619 1176.1,529.619 1204.83,529.619 1233.57,529.619 1262.3,529.619 1291.04,529.619 
  1319.77,529.619 1348.5,529.619 1377.24,529.619 1405.97,529.619 1434.71,529.619 1463.44,529.619 1492.17,529.619 1520.91,529.619 1549.64,529.619 1578.38,529.619 
  1607.11,529.619 1635.84,529.619 1664.58,529.619 1693.31,529.619 1722.05,529.619 1750.78,529.619 1779.51,529.619 1808.25,529.619 1836.98,529.619 1865.72,529.619 
  1894.45,529.619 1923.18,529.619 1951.92,529.619 1980.65,529.619 2009.39,529.619 2038.12,529.619 2066.85,529.619 2095.59,529.619 2124.32,529.619 2153.05,529.619 
  2181.79,529.619 2210.52,529.619 2239.26,529.619 2267.99,529.619 2296.72,529.619 
  "/>
<polyline clip-path="url(#clip132)" style="stroke:#00a9ad; stroke-linecap:butt; stroke-linejoin:round; stroke-width:8; stroke-opacity:1; fill:none" points="
  457.752,239.983 486.486,239.983 515.22,239.983 543.954,239.983 572.688,239.983 601.422,239.983 630.156,239.983 658.89,239.983 687.624,239.983 716.358,239.983 
  745.092,239.983 773.826,239.983 802.56,239.983 831.294,239.983 860.027,239.983 888.761,239.983 917.495,239.983 946.229,239.983 974.963,239.983 1003.7,239.983 
  1032.43,239.983 1061.17,239.983 1089.9,239.983 1118.63,239.983 1147.37,239.983 1176.1,239.983 1204.83,239.983 1233.57,239.983 1262.3,239.983 1291.04,239.983 
  1319.77,239.983 1348.5,239.983 1377.24,239.983 1405.97,239.983 1434.71,239.983 1463.44,239.983 1492.17,239.983 1520.91,239.983 1549.64,239.983 1578.38,239.983 
  1607.11,239.983 1635.84,239.983 1664.58,239.983 1693.31,239.983 1722.05,239.983 1750.78,239.983 1779.51,239.983 1808.25,239.983 1836.98,239.983 1865.72,239.983 
  1894.45,239.983 1923.18,239.983 1951.92,239.983 1980.65,239.983 2009.39,239.983 2038.12,239.983 2066.85,239.983 2095.59,239.983 2124.32,239.983 2153.05,239.983 
  2181.79,239.983 2210.52,239.983 2239.26,239.983 2267.99,239.983 2296.72,239.983 
  "/>
<polyline clip-path="url(#clip132)" style="stroke:#009af9; stroke-linecap:butt; stroke-linejoin:round; stroke-width:12; stroke-opacity:1; fill:none" points="
  457.752,1265.47 486.486,1384.93 515.22,941.012 543.954,1129.49 572.688,1085.45 601.422,754.648 630.156,713.374 658.89,862.927 687.624,856.444 716.358,761.694 
  745.092,780.705 773.826,961.554 802.56,643.993 831.294,915.984 860.027,870.613 888.761,688.158 917.495,735.104 946.229,753.212 974.963,771.149 1003.7,619.961 
  1032.43,542.406 1061.17,638.428 1089.9,612.827 1118.63,695.929 1147.37,684.541 1176.1,582.293 1204.83,647.059 1233.57,560.133 1262.3,510.598 1291.04,536.758 
  1319.77,496.077 1348.5,584.288 1377.24,585.334 1405.97,519.155 1434.71,484.593 1463.44,480.038 1492.17,503.568 1520.91,459.764 1549.64,496.938 1578.38,538.183 
  1607.11,525.773 1635.84,541.404 1664.58,538.25 1693.31,523.031 1722.05,517.638 1750.78,501.893 1779.51,510.561 1808.25,515.227 1836.98,501.362 1865.72,487.56 
  
  "/>
<polyline clip-path="url(#clip132)" style="stroke:#f05f73; stroke-linecap:butt; stroke-linejoin:round; stroke-width:12; stroke-opacity:1; fill:none" points="
  1865.72,487.56 1894.45,418.202 1923.18,408.523 1951.92,397.504 1980.65,388.244 2009.39,382.082 2038.12,377.462 2066.85,376.183 2095.59,376.617 2124.32,374.6 
  2153.05,373 2181.79,371.431 2210.52,369.982 2239.26,368.975 2267.99,368.173 2296.72,367.468 
  "/>
</svg>
