<?xml version="1.0" encoding="utf-8"?>
<svg xmlns="http://www.w3.org/2000/svg" xmlns:xlink="http://www.w3.org/1999/xlink" width="600" height="400" viewBox="0 0 2400 1600">
<defs>
  <clipPath id="clip160">
    <rect x="0" y="0" width="2400" height="1600"/>
  </clipPath>
</defs>
<path clip-path="url(#clip160)" d="
M0 1600 L2400 1600 L2400 0 L0 0  Z
  " fill="#ffffff" fill-rule="evenodd" fill-opacity="1"/>
<defs>
  <clipPath id="clip161">
    <rect x="480" y="0" width="1681" height="1600"/>
  </clipPath>
</defs>
<path clip-path="url(#clip160)" d="
M350.487 1422.18 L2352.76 1422.18 L2352.76 106.192 L350.487 106.192  Z
  " fill="#eaeaea" fill-rule="evenodd" fill-opacity="1"/>
<defs>
  <clipPath id="clip162">
    <rect x="350" y="106" width="2003" height="1317"/>
  </clipPath>
</defs>
<polyline clip-path="url(#clip162)" style="stroke:#ffffff; stroke-linecap:butt; stroke-linejoin:round; stroke-width:4; stroke-opacity:1; fill:none" points="
  407.155,1422.18 407.155,106.192 
  "/>
<polyline clip-path="url(#clip162)" style="stroke:#ffffff; stroke-linecap:butt; stroke-linejoin:round; stroke-width:4; stroke-opacity:1; fill:none" points="
  552.458,1422.18 552.458,106.192 
  "/>
<polyline clip-path="url(#clip162)" style="stroke:#ffffff; stroke-linecap:butt; stroke-linejoin:round; stroke-width:4; stroke-opacity:1; fill:none" points="
  697.76,1422.18 697.76,106.192 
  "/>
<polyline clip-path="url(#clip162)" style="stroke:#ffffff; stroke-linecap:butt; stroke-linejoin:round; stroke-width:4; stroke-opacity:1; fill:none" points="
  843.063,1422.18 843.063,106.192 
  "/>
<polyline clip-path="url(#clip162)" style="stroke:#ffffff; stroke-linecap:butt; stroke-linejoin:round; stroke-width:4; stroke-opacity:1; fill:none" points="
  988.365,1422.18 988.365,106.192 
  "/>
<polyline clip-path="url(#clip162)" style="stroke:#ffffff; stroke-linecap:butt; stroke-linejoin:round; stroke-width:4; stroke-opacity:1; fill:none" points="
  1133.67,1422.18 1133.67,106.192 
  "/>
<polyline clip-path="url(#clip162)" style="stroke:#ffffff; stroke-linecap:butt; stroke-linejoin:round; stroke-width:4; stroke-opacity:1; fill:none" points="
  1278.97,1422.18 1278.97,106.192 
  "/>
<polyline clip-path="url(#clip162)" style="stroke:#ffffff; stroke-linecap:butt; stroke-linejoin:round; stroke-width:4; stroke-opacity:1; fill:none" points="
  1424.27,1422.18 1424.27,106.192 
  "/>
<polyline clip-path="url(#clip162)" style="stroke:#ffffff; stroke-linecap:butt; stroke-linejoin:round; stroke-width:4; stroke-opacity:1; fill:none" points="
  1569.58,1422.18 1569.58,106.192 
  "/>
<polyline clip-path="url(#clip162)" style="stroke:#ffffff; stroke-linecap:butt; stroke-linejoin:round; stroke-width:4; stroke-opacity:1; fill:none" points="
  1714.88,1422.18 1714.88,106.192 
  "/>
<polyline clip-path="url(#clip162)" style="stroke:#ffffff; stroke-linecap:butt; stroke-linejoin:round; stroke-width:4; stroke-opacity:1; fill:none" points="
  1860.18,1422.18 1860.18,106.192 
  "/>
<polyline clip-path="url(#clip162)" style="stroke:#ffffff; stroke-linecap:butt; stroke-linejoin:round; stroke-width:4; stroke-opacity:1; fill:none" points="
  2005.48,1422.18 2005.48,106.192 
  "/>
<polyline clip-path="url(#clip162)" style="stroke:#ffffff; stroke-linecap:butt; stroke-linejoin:round; stroke-width:4; stroke-opacity:1; fill:none" points="
  2150.79,1422.18 2150.79,106.192 
  "/>
<polyline clip-path="url(#clip162)" style="stroke:#ffffff; stroke-linecap:butt; stroke-linejoin:round; stroke-width:4; stroke-opacity:1; fill:none" points="
  2296.09,1422.18 2296.09,106.192 
  "/>
<polyline clip-path="url(#clip162)" style="stroke:#ffffff; stroke-linecap:butt; stroke-linejoin:round; stroke-width:2; stroke-opacity:1; fill:none" points="
  479.806,1422.18 479.806,106.192 
  "/>
<polyline clip-path="url(#clip162)" style="stroke:#ffffff; stroke-linecap:butt; stroke-linejoin:round; stroke-width:2; stroke-opacity:1; fill:none" points="
  625.109,1422.18 625.109,106.192 
  "/>
<polyline clip-path="url(#clip162)" style="stroke:#ffffff; stroke-linecap:butt; stroke-linejoin:round; stroke-width:2; stroke-opacity:1; fill:none" points="
  770.411,1422.18 770.411,106.192 
  "/>
<polyline clip-path="url(#clip162)" style="stroke:#ffffff; stroke-linecap:butt; stroke-linejoin:round; stroke-width:2; stroke-opacity:1; fill:none" points="
  915.714,1422.18 915.714,106.192 
  "/>
<polyline clip-path="url(#clip162)" style="stroke:#ffffff; stroke-linecap:butt; stroke-linejoin:round; stroke-width:2; stroke-opacity:1; fill:none" points="
  1061.02,1422.18 1061.02,106.192 
  "/>
<polyline clip-path="url(#clip162)" style="stroke:#ffffff; stroke-linecap:butt; stroke-linejoin:round; stroke-width:2; stroke-opacity:1; fill:none" points="
  1206.32,1422.18 1206.32,106.192 
  "/>
<polyline clip-path="url(#clip162)" style="stroke:#ffffff; stroke-linecap:butt; stroke-linejoin:round; stroke-width:2; stroke-opacity:1; fill:none" points="
  1351.62,1422.18 1351.62,106.192 
  "/>
<polyline clip-path="url(#clip162)" style="stroke:#ffffff; stroke-linecap:butt; stroke-linejoin:round; stroke-width:2; stroke-opacity:1; fill:none" points="
  1496.92,1422.18 1496.92,106.192 
  "/>
<polyline clip-path="url(#clip162)" style="stroke:#ffffff; stroke-linecap:butt; stroke-linejoin:round; stroke-width:2; stroke-opacity:1; fill:none" points="
  1642.23,1422.18 1642.23,106.192 
  "/>
<polyline clip-path="url(#clip162)" style="stroke:#ffffff; stroke-linecap:butt; stroke-linejoin:round; stroke-width:2; stroke-opacity:1; fill:none" points="
  1787.53,1422.18 1787.53,106.192 
  "/>
<polyline clip-path="url(#clip162)" style="stroke:#ffffff; stroke-linecap:butt; stroke-linejoin:round; stroke-width:2; stroke-opacity:1; fill:none" points="
  1932.83,1422.18 1932.83,106.192 
  "/>
<polyline clip-path="url(#clip162)" style="stroke:#ffffff; stroke-linecap:butt; stroke-linejoin:round; stroke-width:2; stroke-opacity:1; fill:none" points="
  2078.13,1422.18 2078.13,106.192 
  "/>
<polyline clip-path="url(#clip162)" style="stroke:#ffffff; stroke-linecap:butt; stroke-linejoin:round; stroke-width:2; stroke-opacity:1; fill:none" points="
  2223.44,1422.18 2223.44,106.192 
  "/>
<polyline clip-path="url(#clip160)" style="stroke:#ffffff; stroke-linecap:butt; stroke-linejoin:round; stroke-width:4; stroke-opacity:1; fill:none" points="
  350.487,1422.18 2352.76,1422.18 
  "/>
<polyline clip-path="url(#clip160)" style="stroke:#333333; stroke-linecap:butt; stroke-linejoin:round; stroke-width:4; stroke-opacity:1; fill:none" points="
  407.155,1422.18 407.155,1441.07 
  "/>
<polyline clip-path="url(#clip160)" style="stroke:#333333; stroke-linecap:butt; stroke-linejoin:round; stroke-width:4; stroke-opacity:1; fill:none" points="
  552.458,1422.18 552.458,1441.07 
  "/>
<polyline clip-path="url(#clip160)" style="stroke:#333333; stroke-linecap:butt; stroke-linejoin:round; stroke-width:4; stroke-opacity:1; fill:none" points="
  697.76,1422.18 697.76,1441.07 
  "/>
<polyline clip-path="url(#clip160)" style="stroke:#333333; stroke-linecap:butt; stroke-linejoin:round; stroke-width:4; stroke-opacity:1; fill:none" points="
  843.063,1422.18 843.063,1441.07 
  "/>
<polyline clip-path="url(#clip160)" style="stroke:#333333; stroke-linecap:butt; stroke-linejoin:round; stroke-width:4; stroke-opacity:1; fill:none" points="
  988.365,1422.18 988.365,1441.07 
  "/>
<polyline clip-path="url(#clip160)" style="stroke:#333333; stroke-linecap:butt; stroke-linejoin:round; stroke-width:4; stroke-opacity:1; fill:none" points="
  1133.67,1422.18 1133.67,1441.07 
  "/>
<polyline clip-path="url(#clip160)" style="stroke:#333333; stroke-linecap:butt; stroke-linejoin:round; stroke-width:4; stroke-opacity:1; fill:none" points="
  1278.97,1422.18 1278.97,1441.07 
  "/>
<polyline clip-path="url(#clip160)" style="stroke:#333333; stroke-linecap:butt; stroke-linejoin:round; stroke-width:4; stroke-opacity:1; fill:none" points="
  1424.27,1422.18 1424.27,1441.07 
  "/>
<polyline clip-path="url(#clip160)" style="stroke:#333333; stroke-linecap:butt; stroke-linejoin:round; stroke-width:4; stroke-opacity:1; fill:none" points="
  1569.58,1422.18 1569.58,1441.07 
  "/>
<polyline clip-path="url(#clip160)" style="stroke:#333333; stroke-linecap:butt; stroke-linejoin:round; stroke-width:4; stroke-opacity:1; fill:none" points="
  1714.88,1422.18 1714.88,1441.07 
  "/>
<polyline clip-path="url(#clip160)" style="stroke:#333333; stroke-linecap:butt; stroke-linejoin:round; stroke-width:4; stroke-opacity:1; fill:none" points="
  1860.18,1422.18 1860.18,1441.07 
  "/>
<polyline clip-path="url(#clip160)" style="stroke:#333333; stroke-linecap:butt; stroke-linejoin:round; stroke-width:4; stroke-opacity:1; fill:none" points="
  2005.48,1422.18 2005.48,1441.07 
  "/>
<polyline clip-path="url(#clip160)" style="stroke:#333333; stroke-linecap:butt; stroke-linejoin:round; stroke-width:4; stroke-opacity:1; fill:none" points="
  2150.79,1422.18 2150.79,1441.07 
  "/>
<polyline clip-path="url(#clip160)" style="stroke:#333333; stroke-linecap:butt; stroke-linejoin:round; stroke-width:4; stroke-opacity:1; fill:none" points="
  2296.09,1422.18 2296.09,1441.07 
  "/>
<polyline clip-path="url(#clip160)" style="stroke:#333333; stroke-linecap:butt; stroke-linejoin:round; stroke-width:4; stroke-opacity:1; fill:none" points="
  479.806,1422.18 479.806,1431.63 
  "/>
<polyline clip-path="url(#clip160)" style="stroke:#333333; stroke-linecap:butt; stroke-linejoin:round; stroke-width:4; stroke-opacity:1; fill:none" points="
  625.109,1422.18 625.109,1431.63 
  "/>
<polyline clip-path="url(#clip160)" style="stroke:#333333; stroke-linecap:butt; stroke-linejoin:round; stroke-width:4; stroke-opacity:1; fill:none" points="
  770.411,1422.18 770.411,1431.63 
  "/>
<polyline clip-path="url(#clip160)" style="stroke:#333333; stroke-linecap:butt; stroke-linejoin:round; stroke-width:4; stroke-opacity:1; fill:none" points="
  915.714,1422.18 915.714,1431.63 
  "/>
<polyline clip-path="url(#clip160)" style="stroke:#333333; stroke-linecap:butt; stroke-linejoin:round; stroke-width:4; stroke-opacity:1; fill:none" points="
  1061.02,1422.18 1061.02,1431.63 
  "/>
<polyline clip-path="url(#clip160)" style="stroke:#333333; stroke-linecap:butt; stroke-linejoin:round; stroke-width:4; stroke-opacity:1; fill:none" points="
  1206.32,1422.18 1206.32,1431.63 
  "/>
<polyline clip-path="url(#clip160)" style="stroke:#333333; stroke-linecap:butt; stroke-linejoin:round; stroke-width:4; stroke-opacity:1; fill:none" points="
  1351.62,1422.18 1351.62,1431.63 
  "/>
<polyline clip-path="url(#clip160)" style="stroke:#333333; stroke-linecap:butt; stroke-linejoin:round; stroke-width:4; stroke-opacity:1; fill:none" points="
  1496.92,1422.18 1496.92,1431.63 
  "/>
<polyline clip-path="url(#clip160)" style="stroke:#333333; stroke-linecap:butt; stroke-linejoin:round; stroke-width:4; stroke-opacity:1; fill:none" points="
  1642.23,1422.18 1642.23,1431.63 
  "/>
<polyline clip-path="url(#clip160)" style="stroke:#333333; stroke-linecap:butt; stroke-linejoin:round; stroke-width:4; stroke-opacity:1; fill:none" points="
  1787.53,1422.18 1787.53,1431.63 
  "/>
<polyline clip-path="url(#clip160)" style="stroke:#333333; stroke-linecap:butt; stroke-linejoin:round; stroke-width:4; stroke-opacity:1; fill:none" points="
  1932.83,1422.18 1932.83,1431.63 
  "/>
<polyline clip-path="url(#clip160)" style="stroke:#333333; stroke-linecap:butt; stroke-linejoin:round; stroke-width:4; stroke-opacity:1; fill:none" points="
  2078.13,1422.18 2078.13,1431.63 
  "/>
<polyline clip-path="url(#clip160)" style="stroke:#333333; stroke-linecap:butt; stroke-linejoin:round; stroke-width:4; stroke-opacity:1; fill:none" points="
  2223.44,1422.18 2223.44,1431.63 
  "/>
<path clip-path="url(#clip160)" d="M420.858 1463.13 Q419.504 1460.78 416.503 1460.93 Q413.526 1461.09 408.895 1463.76 Q404.279 1466.43 402.641 1468.94 Q401.026 1471.45 402.38 1473.8 Q403.743 1476.16 406.721 1476 Q409.722 1475.85 414.337 1473.19 Q418.968 1470.52 420.583 1468 Q422.221 1465.49 420.858 1463.13 M423.264 1461.74 Q425.443 1465.51 423.597 1469.23 Q421.774 1472.94 416.091 1476.23 Q410.423 1479.5 406.276 1479.23 Q402.153 1478.96 399.975 1475.19 Q397.796 1471.41 399.618 1467.69 Q401.464 1463.98 407.133 1460.71 Q412.816 1457.43 416.939 1457.69 Q421.085 1457.97 423.264 1461.74 Z" fill="#4c4c4c" fill-rule="evenodd" fill-opacity="1" /><path clip-path="url(#clip160)" d="M544.042 1466.14 L546.906 1471.1 L564.031 1461.21 L559.832 1456.44 L562.599 1454.84 L566.78 1459.58 L568.534 1462.62 L548.642 1474.11 L551.507 1479.07 L548.951 1480.54 L541.486 1467.61 L544.042 1466.14 Z" fill="#4c4c4c" fill-rule="evenodd" fill-opacity="1" /><path clip-path="url(#clip160)" d="M576.69 1481.37 Q575.336 1479.02 572.335 1479.17 Q569.358 1479.33 564.727 1482 Q560.111 1484.66 558.473 1487.17 Q556.858 1489.69 558.212 1492.04 Q559.575 1494.4 562.553 1494.24 Q565.554 1494.09 570.169 1491.43 Q574.8 1488.75 576.415 1486.24 Q578.053 1483.73 576.69 1481.37 M579.096 1479.98 Q581.275 1483.75 579.429 1487.46 Q577.606 1491.18 571.923 1494.46 Q566.255 1497.74 562.108 1497.46 Q557.985 1497.2 555.807 1493.42 Q553.628 1489.65 555.45 1485.93 Q557.296 1482.22 562.965 1478.95 Q568.648 1475.67 572.771 1475.93 Q576.917 1476.2 579.096 1479.98 Z" fill="#4c4c4c" fill-rule="evenodd" fill-opacity="1" /><path clip-path="url(#clip160)" d="M691.202 1469.35 L697.322 1479.95 L694.766 1481.43 L686.537 1467.18 L689.093 1465.7 Q691.88 1466.4 696.606 1467.64 Q701.355 1468.89 702.67 1469.15 Q705.151 1469.66 706.608 1469.58 Q708.089 1469.51 709.187 1468.87 Q710.976 1467.84 711.375 1465.93 Q711.782 1464.03 710.619 1462.01 Q709.794 1460.59 708.378 1459.28 Q706.97 1457.99 704.921 1456.76 L707.988 1454.99 Q709.784 1456.4 711.08 1457.78 Q712.376 1459.15 713.14 1460.48 Q715.154 1463.97 714.608 1467.05 Q714.061 1470.13 711.145 1471.81 Q709.761 1472.61 708.21 1472.81 Q706.682 1473.01 704.208 1472.61 Q703.555 1472.49 700.302 1471.68 Q697.064 1470.86 691.202 1469.35 Z" fill="#4c4c4c" fill-rule="evenodd" fill-opacity="1" /><path clip-path="url(#clip160)" d="M722.644 1482.49 Q721.29 1480.15 718.289 1480.3 Q715.311 1480.45 710.68 1483.13 Q706.065 1485.79 704.426 1488.3 Q702.812 1490.82 704.166 1493.16 Q705.529 1495.52 708.506 1495.37 Q711.507 1495.22 716.123 1492.55 Q720.754 1489.88 722.368 1487.36 Q724.007 1484.86 722.644 1482.49 M725.05 1481.11 Q727.228 1484.88 725.382 1488.59 Q723.56 1492.31 717.876 1495.59 Q712.208 1498.86 708.062 1498.59 Q703.939 1498.33 701.76 1494.55 Q699.581 1490.78 701.404 1487.06 Q703.25 1483.35 708.918 1480.08 Q714.601 1476.79 718.724 1477.06 Q722.871 1477.33 725.05 1481.11 Z" fill="#4c4c4c" fill-rule="evenodd" fill-opacity="1" /><path clip-path="url(#clip160)" d="M849.802 1470.34 Q850.594 1472.79 849.824 1474.86 Q849.062 1476.94 846.897 1478.19 Q843.574 1480.11 840.436 1478.87 Q837.297 1477.64 834.867 1473.43 Q834.051 1472.01 833.468 1470.35 Q832.879 1468.7 832.516 1466.79 L835.447 1465.09 Q835.44 1466.78 835.932 1468.5 Q836.424 1470.22 837.37 1471.86 Q839.02 1474.72 841.007 1475.56 Q843.002 1476.41 845.152 1475.17 Q847.137 1474.02 847.442 1471.98 Q847.771 1469.95 846.339 1467.47 L844.829 1464.85 L847.325 1463.41 L848.904 1466.14 Q850.198 1468.38 851.771 1469.06 Q853.358 1469.73 855.042 1468.76 Q856.771 1467.76 856.977 1465.99 Q857.206 1464.24 855.886 1461.95 Q855.166 1460.71 854.071 1459.43 Q852.975 1458.16 851.414 1456.78 L854.121 1455.21 Q855.6 1456.67 856.709 1458.03 Q857.826 1459.41 858.599 1460.75 Q860.595 1464.21 860.18 1467.13 Q859.779 1470.05 857.103 1471.6 Q855.239 1472.67 853.329 1472.35 Q851.435 1472.02 849.802 1470.34 Z" fill="#4c4c4c" fill-rule="evenodd" fill-opacity="1" /><path clip-path="url(#clip160)" d="M867.894 1482.4 Q866.54 1480.06 863.539 1480.21 Q860.562 1480.36 855.931 1483.04 Q851.315 1485.7 849.677 1488.21 Q848.062 1490.73 849.416 1493.07 Q850.779 1495.43 853.756 1495.28 Q856.758 1495.13 861.373 1492.46 Q866.004 1489.79 867.619 1487.27 Q869.257 1484.76 867.894 1482.4 M870.3 1481.02 Q872.479 1484.79 870.633 1488.5 Q868.81 1492.22 863.127 1495.5 Q857.459 1498.77 853.312 1498.5 Q849.189 1498.24 847.011 1494.46 Q844.832 1490.69 846.654 1486.97 Q848.5 1483.26 854.169 1479.98 Q859.852 1476.7 863.975 1476.97 Q868.121 1477.24 870.3 1481.02 Z" fill="#4c4c4c" fill-rule="evenodd" fill-opacity="1" /><path clip-path="url(#clip160)" d="M1002.79 1465.88 L986.383 1465.13 L990.81 1472.8 L1002.79 1465.88 M1004.98 1463.55 L1007.18 1467.37 L992.555 1475.82 L994.404 1479.02 L991.878 1480.48 L990.029 1477.28 L984.737 1480.33 L982.992 1477.31 L988.285 1474.25 L982.434 1464.12 L985.366 1462.43 L1004.98 1463.55 Z" fill="#4c4c4c" fill-rule="evenodd" fill-opacity="1" /><path clip-path="url(#clip160)" d="M1013.68 1483.25 Q1012.33 1480.9 1009.33 1481.05 Q1006.35 1481.21 1001.72 1483.88 Q997.104 1486.54 995.465 1489.05 Q993.851 1491.57 995.205 1493.91 Q996.568 1496.28 999.545 1496.12 Q1002.55 1495.97 1007.16 1493.31 Q1011.79 1490.63 1013.41 1488.12 Q1015.05 1485.61 1013.68 1483.25 M1016.09 1481.86 Q1018.27 1485.63 1016.42 1489.34 Q1014.6 1493.06 1008.92 1496.34 Q1003.25 1499.62 999.101 1499.34 Q994.978 1499.08 992.799 1495.3 Q990.62 1491.53 992.443 1487.81 Q994.289 1484.1 999.957 1480.83 Q1005.64 1477.55 1009.76 1477.81 Q1013.91 1478.08 1016.09 1481.86 Z" fill="#4c4c4c" fill-rule="evenodd" fill-opacity="1" /><path clip-path="url(#clip160)" d="M1145.44 1455.16 L1152.32 1467.09 L1149.77 1468.56 L1144.49 1459.42 L1138.99 1462.6 Q1139.59 1463.13 1140.08 1463.73 Q1140.58 1464.32 1140.96 1464.98 Q1143.13 1468.74 1142.34 1472.13 Q1141.55 1475.51 1138.03 1477.54 Q1134.41 1479.63 1131.09 1478.54 Q1127.79 1477.44 1125.42 1473.34 Q1124.6 1471.92 1123.99 1470.31 Q1123.39 1468.71 1122.97 1466.87 L1126.02 1465.11 Q1126.07 1466.89 1126.54 1468.54 Q1127.01 1470.19 1127.94 1471.8 Q1129.44 1474.4 1131.69 1475.13 Q1133.93 1475.86 1136.28 1474.51 Q1138.62 1473.15 1139.11 1470.84 Q1139.61 1468.53 1138.1 1465.93 Q1137.4 1464.72 1136.43 1463.65 Q1135.46 1462.61 1134.16 1461.67 L1145.44 1455.16 Z" fill="#4c4c4c" fill-rule="evenodd" fill-opacity="1" /><path clip-path="url(#clip160)" d="M1158.48 1482.37 Q1157.13 1480.03 1154.13 1480.18 Q1151.15 1480.33 1146.52 1483.01 Q1141.9 1485.67 1140.26 1488.18 Q1138.65 1490.7 1140 1493.04 Q1141.37 1495.4 1144.34 1495.25 Q1147.35 1495.1 1151.96 1492.43 Q1156.59 1489.76 1158.21 1487.24 Q1159.84 1484.73 1158.48 1482.37 M1160.89 1480.99 Q1163.07 1484.76 1161.22 1488.47 Q1159.4 1492.19 1153.71 1495.47 Q1148.05 1498.74 1143.9 1498.47 Q1139.78 1498.21 1137.6 1494.43 Q1135.42 1490.66 1137.24 1486.94 Q1139.09 1483.23 1144.76 1479.95 Q1150.44 1476.67 1154.56 1476.94 Q1158.71 1477.21 1160.89 1480.99 Z" fill="#4c4c4c" fill-rule="evenodd" fill-opacity="1" /><path clip-path="url(#clip160)" d="M1284.81 1468.01 Q1283.63 1465.97 1281.53 1465.57 Q1279.45 1465.19 1277.01 1466.6 Q1274.59 1467.99 1273.87 1470 Q1273.16 1472.01 1274.34 1474.05 Q1275.52 1476.1 1277.61 1476.48 Q1279.72 1476.87 1282.14 1475.47 Q1284.57 1474.06 1285.28 1472.05 Q1285.99 1470.06 1284.81 1468.01 M1297.81 1468.55 L1295.04 1470.14 Q1294.92 1468.69 1294.53 1467.35 Q1294.15 1466.03 1293.49 1464.89 Q1291.75 1461.88 1288.8 1461.46 Q1285.86 1461.05 1281.62 1463.19 Q1283.44 1463.33 1284.91 1464.26 Q1286.39 1465.19 1287.32 1466.8 Q1289.27 1470.19 1288.34 1473.33 Q1287.43 1476.48 1283.9 1478.52 Q1280.44 1480.52 1277.17 1479.68 Q1273.9 1478.84 1271.94 1475.44 Q1269.69 1471.55 1271.48 1467.77 Q1273.28 1463.98 1278.95 1460.71 Q1284.27 1457.64 1288.89 1458.34 Q1293.52 1459.03 1295.97 1463.29 Q1296.63 1464.43 1297.08 1465.72 Q1297.53 1467.02 1297.81 1468.55 Z" fill="#4c4c4c" fill-rule="evenodd" fill-opacity="1" /><path clip-path="url(#clip160)" d="M1303.91 1482.6 Q1302.56 1480.25 1299.56 1480.4 Q1296.58 1480.56 1291.95 1483.23 Q1287.34 1485.9 1285.7 1488.41 Q1284.08 1490.92 1285.44 1493.27 Q1286.8 1495.63 1289.78 1495.47 Q1292.78 1495.32 1297.39 1492.66 Q1302.02 1489.99 1303.64 1487.47 Q1305.28 1484.96 1303.91 1482.6 M1306.32 1481.21 Q1308.5 1484.98 1306.65 1488.7 Q1304.83 1492.42 1299.15 1495.7 Q1293.48 1498.97 1289.33 1498.7 Q1285.21 1498.43 1283.03 1494.66 Q1280.85 1490.88 1282.67 1487.16 Q1284.52 1483.45 1290.19 1480.18 Q1295.87 1476.9 1300 1477.16 Q1304.14 1477.44 1306.32 1481.21 Z" fill="#4c4c4c" fill-rule="evenodd" fill-opacity="1" /><path clip-path="url(#clip160)" d="M1435.5 1454.22 L1443.83 1468.65 L1442.54 1469.4 L1416.68 1473.46 L1414.85 1470.29 L1439.16 1466.47 L1432.94 1455.69 L1435.5 1454.22 Z" fill="#4c4c4c" fill-rule="evenodd" fill-opacity="1" /><path clip-path="url(#clip160)" d="M1449 1482.22 Q1447.65 1479.88 1444.64 1480.03 Q1441.67 1480.18 1437.04 1482.86 Q1432.42 1485.52 1430.78 1488.03 Q1429.17 1490.55 1430.52 1492.89 Q1431.88 1495.25 1434.86 1495.1 Q1437.86 1494.95 1442.48 1492.28 Q1447.11 1489.61 1448.72 1487.09 Q1450.36 1484.58 1449 1482.22 M1451.41 1480.84 Q1453.58 1484.61 1451.74 1488.32 Q1449.92 1492.04 1444.23 1495.32 Q1438.56 1498.59 1434.42 1498.32 Q1430.3 1498.06 1428.12 1494.28 Q1425.94 1490.51 1427.76 1486.79 Q1429.61 1483.08 1435.27 1479.8 Q1440.96 1476.52 1445.08 1476.79 Q1449.23 1477.06 1451.41 1480.84 Z" fill="#4c4c4c" fill-rule="evenodd" fill-opacity="1" /><path clip-path="url(#clip160)" d="M1573.46 1468.72 Q1572.21 1466.56 1570.33 1465.98 Q1568.46 1465.41 1566.43 1466.58 Q1564.4 1467.76 1563.95 1469.66 Q1563.52 1471.57 1564.77 1473.74 Q1566.02 1475.9 1567.89 1476.48 Q1569.79 1477.05 1571.8 1475.89 Q1573.83 1474.72 1574.27 1472.8 Q1574.71 1470.9 1573.46 1468.72 M1573 1464.94 Q1572.35 1462.7 1573.05 1460.83 Q1573.77 1458.98 1575.69 1457.87 Q1578.38 1456.31 1581.05 1457.32 Q1583.72 1458.34 1585.65 1461.68 Q1587.59 1465.03 1587.12 1467.85 Q1586.66 1470.66 1583.97 1472.21 Q1582.05 1473.32 1580.08 1473 Q1578.11 1472.69 1576.51 1471.03 Q1577.27 1473.52 1576.48 1475.59 Q1575.71 1477.69 1573.56 1478.93 Q1570.29 1480.81 1567.39 1479.82 Q1564.5 1478.84 1562.36 1475.13 Q1560.22 1471.41 1560.81 1468.41 Q1561.4 1465.41 1564.67 1463.53 Q1566.82 1462.29 1569.02 1462.66 Q1571.22 1463.04 1573 1464.94 M1577.15 1461.06 Q1575.41 1462.06 1575.05 1463.71 Q1574.71 1465.37 1575.85 1467.34 Q1576.97 1469.29 1578.59 1469.83 Q1580.21 1470.38 1581.95 1469.37 Q1583.69 1468.36 1584.03 1466.69 Q1584.37 1465.02 1583.24 1463.07 Q1582.11 1461.1 1580.5 1460.57 Q1578.89 1460.05 1577.15 1461.06 Z" fill="#4c4c4c" fill-rule="evenodd" fill-opacity="1" /><path clip-path="url(#clip160)" d="M1594.55 1482.66 Q1593.2 1480.31 1590.2 1480.46 Q1587.22 1480.62 1582.59 1483.29 Q1577.98 1485.96 1576.34 1488.47 Q1574.72 1490.98 1576.08 1493.33 Q1577.44 1495.69 1580.42 1495.53 Q1583.42 1495.38 1588.03 1492.72 Q1592.66 1490.05 1594.28 1487.53 Q1595.92 1485.02 1594.55 1482.66 M1596.96 1481.27 Q1599.14 1485.04 1597.29 1488.76 Q1595.47 1492.48 1589.79 1495.76 Q1584.12 1499.03 1579.97 1498.76 Q1575.85 1498.49 1573.67 1494.72 Q1571.49 1490.94 1573.31 1487.23 Q1575.16 1483.51 1580.83 1480.24 Q1586.51 1476.96 1590.63 1477.23 Q1594.78 1477.5 1596.96 1481.27 Z" fill="#4c4c4c" fill-rule="evenodd" fill-opacity="1" /><path clip-path="url(#clip160)" d="M1704.95 1468.35 L1707.72 1466.75 Q1707.84 1468.21 1708.23 1469.55 Q1708.62 1470.88 1709.27 1472.01 Q1711.01 1475.02 1713.93 1475.43 Q1716.88 1475.86 1721.13 1473.7 Q1719.34 1473.58 1717.87 1472.64 Q1716.41 1471.7 1715.47 1470.08 Q1713.53 1466.71 1714.42 1463.57 Q1715.34 1460.43 1718.87 1458.39 Q1722.33 1456.4 1725.6 1457.23 Q1728.87 1458.07 1730.83 1461.47 Q1733.08 1465.36 1731.27 1469.14 Q1729.48 1472.91 1723.8 1476.2 Q1718.49 1479.26 1713.86 1478.57 Q1709.25 1477.88 1706.79 1473.62 Q1706.13 1472.48 1705.68 1471.18 Q1705.23 1469.87 1704.95 1468.35 M1717.96 1468.9 Q1719.14 1470.95 1721.22 1471.33 Q1723.32 1471.72 1725.75 1470.32 Q1728.17 1468.92 1728.88 1466.91 Q1729.61 1464.9 1728.42 1462.86 Q1727.24 1460.81 1725.14 1460.43 Q1723.05 1460.05 1720.63 1461.44 Q1718.2 1462.85 1717.48 1464.85 Q1716.78 1466.86 1717.96 1468.9 Z" fill="#4c4c4c" fill-rule="evenodd" fill-opacity="1" /><path clip-path="url(#clip160)" d="M1739.94 1482.81 Q1738.59 1480.46 1735.59 1480.61 Q1732.61 1480.77 1727.98 1483.44 Q1723.36 1486.11 1721.73 1488.62 Q1720.11 1491.13 1721.47 1493.48 Q1722.83 1495.84 1725.81 1495.68 Q1728.81 1495.53 1733.42 1492.87 Q1738.05 1490.2 1739.67 1487.68 Q1741.31 1485.17 1739.94 1482.81 M1742.35 1481.42 Q1744.53 1485.2 1742.68 1488.91 Q1740.86 1492.63 1735.18 1495.91 Q1729.51 1499.18 1725.36 1498.91 Q1721.24 1498.64 1719.06 1494.87 Q1716.88 1491.09 1718.7 1487.38 Q1720.55 1483.66 1726.22 1480.39 Q1731.9 1477.11 1736.02 1477.38 Q1740.17 1477.65 1742.35 1481.42 Z" fill="#4c4c4c" fill-rule="evenodd" fill-opacity="1" /><path clip-path="url(#clip160)" d="M1851.76 1466.14 L1854.63 1471.1 L1871.75 1461.21 L1867.56 1456.44 L1870.32 1454.84 L1874.5 1459.58 L1876.26 1462.62 L1856.37 1474.11 L1859.23 1479.07 L1856.67 1480.54 L1849.21 1467.61 L1851.76 1466.14 Z" fill="#4c4c4c" fill-rule="evenodd" fill-opacity="1" /><path clip-path="url(#clip160)" d="M1884.41 1481.37 Q1883.06 1479.02 1880.06 1479.17 Q1877.08 1479.33 1872.45 1482 Q1867.83 1484.66 1866.2 1487.17 Q1864.58 1489.69 1865.93 1492.04 Q1867.3 1494.4 1870.28 1494.24 Q1873.28 1494.09 1877.89 1491.43 Q1882.52 1488.75 1884.14 1486.24 Q1885.78 1483.73 1884.41 1481.37 M1886.82 1479.98 Q1889 1483.75 1887.15 1487.46 Q1885.33 1491.18 1879.65 1494.46 Q1873.98 1497.74 1869.83 1497.46 Q1865.71 1497.2 1863.53 1493.42 Q1861.35 1489.65 1863.17 1485.93 Q1865.02 1482.22 1870.69 1478.95 Q1876.37 1475.67 1880.49 1475.93 Q1884.64 1476.2 1886.82 1479.98 Z" fill="#4c4c4c" fill-rule="evenodd" fill-opacity="1" /><path clip-path="url(#clip160)" d="M1895.72 1500.96 Q1894.37 1498.61 1891.37 1498.76 Q1888.39 1498.92 1883.76 1501.59 Q1879.14 1504.26 1877.51 1506.76 Q1875.89 1509.28 1877.25 1511.63 Q1878.61 1513.99 1881.59 1513.83 Q1884.59 1513.68 1889.2 1511.02 Q1893.83 1508.34 1895.45 1505.83 Q1897.09 1503.32 1895.72 1500.96 M1898.13 1499.57 Q1900.31 1503.34 1898.46 1507.05 Q1896.64 1510.77 1890.96 1514.05 Q1885.29 1517.33 1881.14 1517.05 Q1877.02 1516.79 1874.84 1513.01 Q1872.66 1509.24 1874.48 1505.52 Q1876.33 1501.81 1882 1498.54 Q1887.68 1495.26 1891.8 1495.52 Q1895.95 1495.8 1898.13 1499.57 Z" fill="#4c4c4c" fill-rule="evenodd" fill-opacity="1" /><path clip-path="url(#clip160)" d="M1997.07 1466.14 L1999.93 1471.1 L2017.06 1461.21 L2012.86 1456.44 L2015.62 1454.84 L2019.81 1459.58 L2021.56 1462.62 L2001.67 1474.11 L2004.53 1479.07 L2001.98 1480.54 L1994.51 1467.61 L1997.07 1466.14 Z" fill="#4c4c4c" fill-rule="evenodd" fill-opacity="1" /><path clip-path="url(#clip160)" d="M2008.38 1485.73 L2011.24 1490.69 L2028.37 1480.8 L2024.17 1476.03 L2026.93 1474.43 L2031.12 1479.18 L2032.87 1482.21 L2012.98 1493.7 L2015.84 1498.66 L2013.29 1500.13 L2005.82 1487.2 L2008.38 1485.73 Z" fill="#4c4c4c" fill-rule="evenodd" fill-opacity="1" /><path clip-path="url(#clip160)" d="M2041.03 1500.96 Q2039.67 1498.61 2036.67 1498.76 Q2033.69 1498.92 2029.06 1501.59 Q2024.45 1504.26 2022.81 1506.76 Q2021.19 1509.28 2022.55 1511.63 Q2023.91 1513.99 2026.89 1513.83 Q2029.89 1513.68 2034.51 1511.02 Q2039.14 1508.34 2040.75 1505.83 Q2042.39 1503.32 2041.03 1500.96 M2043.43 1499.57 Q2045.61 1503.34 2043.76 1507.05 Q2041.94 1510.77 2036.26 1514.05 Q2030.59 1517.33 2026.44 1517.05 Q2022.32 1516.79 2020.14 1513.01 Q2017.96 1509.24 2019.79 1505.52 Q2021.63 1501.81 2027.3 1498.54 Q2032.98 1495.26 2037.11 1495.52 Q2041.25 1495.8 2043.43 1499.57 Z" fill="#4c4c4c" fill-rule="evenodd" fill-opacity="1" /><path clip-path="url(#clip160)" d="M2142.37 1466.14 L2145.23 1471.1 L2162.36 1461.21 L2158.16 1456.44 L2160.93 1454.84 L2165.11 1459.58 L2166.86 1462.62 L2146.97 1474.11 L2149.83 1479.07 L2147.28 1480.54 L2139.81 1467.61 L2142.37 1466.14 Z" fill="#4c4c4c" fill-rule="evenodd" fill-opacity="1" /><path clip-path="url(#clip160)" d="M2154.89 1487.82 L2161.01 1498.42 L2158.45 1499.89 L2150.22 1485.64 L2152.78 1484.16 Q2155.56 1484.86 2160.29 1486.1 Q2165.04 1487.35 2166.35 1487.61 Q2168.84 1488.12 2170.29 1488.04 Q2171.77 1487.97 2172.87 1487.34 Q2174.66 1486.3 2175.06 1484.39 Q2175.47 1482.49 2174.3 1480.48 Q2173.48 1479.05 2172.06 1477.74 Q2170.65 1476.45 2168.61 1475.23 L2171.67 1473.46 Q2173.47 1474.86 2174.76 1476.24 Q2176.06 1477.62 2176.82 1478.94 Q2178.84 1482.43 2178.29 1485.51 Q2177.75 1488.59 2174.83 1490.28 Q2173.45 1491.08 2171.89 1491.27 Q2170.37 1491.47 2167.89 1491.07 Q2167.24 1490.95 2163.99 1490.14 Q2160.75 1489.32 2154.89 1487.82 Z" fill="#4c4c4c" fill-rule="evenodd" fill-opacity="1" /><path clip-path="url(#clip160)" d="M2186.33 1500.96 Q2184.97 1498.61 2181.97 1498.76 Q2179 1498.92 2174.37 1501.59 Q2169.75 1504.26 2168.11 1506.76 Q2166.5 1509.28 2167.85 1511.63 Q2169.21 1513.99 2172.19 1513.83 Q2175.19 1513.68 2179.81 1511.02 Q2184.44 1508.34 2186.05 1505.83 Q2187.69 1503.32 2186.33 1500.96 M2188.73 1499.57 Q2190.91 1503.34 2189.07 1507.05 Q2187.24 1510.77 2181.56 1514.05 Q2175.89 1517.33 2171.75 1517.05 Q2167.62 1516.79 2165.45 1513.01 Q2163.27 1509.24 2165.09 1505.52 Q2166.93 1501.81 2172.6 1498.54 Q2178.29 1495.26 2182.41 1495.52 Q2186.56 1495.8 2188.73 1499.57 Z" fill="#4c4c4c" fill-rule="evenodd" fill-opacity="1" /><path clip-path="url(#clip160)" d="M2287.67 1466.14 L2290.54 1471.1 L2307.66 1461.21 L2303.46 1456.44 L2306.23 1454.84 L2310.41 1459.58 L2312.16 1462.62 L2292.27 1474.11 L2295.14 1479.07 L2292.58 1480.54 L2285.12 1467.61 L2287.67 1466.14 Z" fill="#4c4c4c" fill-rule="evenodd" fill-opacity="1" /><path clip-path="url(#clip160)" d="M2313.54 1488.89 Q2314.33 1491.34 2313.56 1493.41 Q2312.8 1495.49 2310.63 1496.74 Q2307.31 1498.66 2304.17 1497.43 Q2301.03 1496.19 2298.6 1491.98 Q2297.79 1490.57 2297.21 1488.9 Q2296.62 1487.25 2296.25 1485.34 L2299.18 1483.65 Q2299.18 1485.34 2299.67 1487.06 Q2300.16 1488.78 2301.11 1490.41 Q2302.76 1493.27 2304.74 1494.11 Q2306.74 1494.96 2308.89 1493.72 Q2310.87 1492.57 2311.18 1490.53 Q2311.51 1488.5 2310.08 1486.02 L2308.57 1483.4 L2311.06 1481.96 L2312.64 1484.7 Q2313.93 1486.94 2315.51 1487.61 Q2317.1 1488.28 2318.78 1487.31 Q2320.51 1486.31 2320.71 1484.55 Q2320.94 1482.79 2319.62 1480.51 Q2318.9 1479.26 2317.81 1477.99 Q2316.71 1476.71 2315.15 1475.33 L2317.86 1473.77 Q2319.34 1475.22 2320.45 1476.58 Q2321.56 1477.96 2322.34 1479.3 Q2324.33 1482.76 2323.92 1485.69 Q2323.52 1488.6 2320.84 1490.15 Q2318.98 1491.22 2317.07 1490.9 Q2315.17 1490.57 2313.54 1488.89 Z" fill="#4c4c4c" fill-rule="evenodd" fill-opacity="1" /><path clip-path="url(#clip160)" d="M2331.63 1500.96 Q2330.28 1498.61 2327.28 1498.76 Q2324.3 1498.92 2319.67 1501.59 Q2315.05 1504.26 2313.41 1506.76 Q2311.8 1509.28 2313.15 1511.63 Q2314.52 1513.99 2317.49 1513.83 Q2320.49 1513.68 2325.11 1511.02 Q2329.74 1508.34 2331.36 1505.83 Q2332.99 1503.32 2331.63 1500.96 M2334.04 1499.57 Q2336.22 1503.34 2334.37 1507.05 Q2332.55 1510.77 2326.86 1514.05 Q2321.2 1517.33 2317.05 1517.05 Q2312.93 1516.79 2310.75 1513.01 Q2308.57 1509.24 2310.39 1505.52 Q2312.24 1501.81 2317.91 1498.54 Q2323.59 1495.26 2327.71 1495.52 Q2331.86 1495.8 2334.04 1499.57 Z" fill="#4c4c4c" fill-rule="evenodd" fill-opacity="1" /><path clip-path="url(#clip160)" d="M1242.21 1537.87 L1246.89 1537.87 L1246.89 1572.43 L1242.21 1572.43 L1242.21 1537.87 Z" fill="#000000" fill-rule="evenodd" fill-opacity="1" /><path clip-path="url(#clip160)" d="M1260.22 1539.15 L1260.22 1546.51 L1268.99 1546.51 L1268.99 1549.82 L1260.22 1549.82 L1260.22 1563.89 Q1260.22 1567.06 1261.08 1567.97 Q1261.96 1568.87 1264.62 1568.87 L1268.99 1568.87 L1268.99 1572.43 L1264.62 1572.43 Q1259.69 1572.43 1257.81 1570.6 Q1255.94 1568.75 1255.94 1563.89 L1255.94 1549.82 L1252.81 1549.82 L1252.81 1546.51 L1255.94 1546.51 L1255.94 1539.15 L1260.22 1539.15 Z" fill="#000000" fill-rule="evenodd" fill-opacity="1" /><path clip-path="url(#clip160)" d="M1296.77 1558.41 L1296.77 1560.49 L1277.19 1560.49 Q1277.47 1564.89 1279.83 1567.2 Q1282.21 1569.49 1286.45 1569.49 Q1288.9 1569.49 1291.19 1568.89 Q1293.51 1568.29 1295.78 1567.09 L1295.78 1571.11 Q1293.49 1572.09 1291.08 1572.6 Q1288.67 1573.1 1286.19 1573.1 Q1279.99 1573.1 1276.36 1569.49 Q1272.74 1565.88 1272.74 1559.73 Q1272.74 1553.36 1276.17 1549.63 Q1279.62 1545.88 1285.45 1545.88 Q1290.68 1545.88 1293.72 1549.26 Q1296.77 1552.62 1296.77 1558.41 M1292.51 1557.16 Q1292.47 1553.66 1290.55 1551.58 Q1288.65 1549.49 1285.5 1549.49 Q1281.93 1549.49 1279.78 1551.51 Q1277.65 1553.52 1277.33 1557.18 L1292.51 1557.16 Z" fill="#000000" fill-rule="evenodd" fill-opacity="1" /><path clip-path="url(#clip160)" d="M1318.79 1550.49 Q1318.07 1550.07 1317.21 1549.89 Q1316.38 1549.68 1315.36 1549.68 Q1311.75 1549.68 1309.8 1552.04 Q1307.88 1554.38 1307.88 1558.78 L1307.88 1572.43 L1303.6 1572.43 L1303.6 1546.51 L1307.88 1546.51 L1307.88 1550.54 Q1309.23 1548.17 1311.38 1547.04 Q1313.53 1545.88 1316.61 1545.88 Q1317.05 1545.88 1317.58 1545.95 Q1318.11 1546 1318.76 1546.11 L1318.79 1550.49 Z" fill="#000000" fill-rule="evenodd" fill-opacity="1" /><path clip-path="url(#clip160)" d="M1335.04 1559.4 Q1329.87 1559.4 1327.88 1560.58 Q1325.89 1561.76 1325.89 1564.61 Q1325.89 1566.88 1327.37 1568.22 Q1328.88 1569.54 1331.45 1569.54 Q1334.99 1569.54 1337.12 1567.04 Q1339.27 1564.52 1339.27 1560.35 L1339.27 1559.4 L1335.04 1559.4 M1343.53 1557.64 L1343.53 1572.43 L1339.27 1572.43 L1339.27 1568.5 Q1337.81 1570.86 1335.64 1571.99 Q1333.46 1573.1 1330.31 1573.1 Q1326.33 1573.1 1323.97 1570.88 Q1321.63 1568.64 1321.63 1564.89 Q1321.63 1560.51 1324.55 1558.29 Q1327.49 1556.07 1333.3 1556.07 L1339.27 1556.07 L1339.27 1555.65 Q1339.27 1552.71 1337.33 1551.11 Q1335.41 1549.49 1331.91 1549.49 Q1329.69 1549.49 1327.58 1550.03 Q1325.48 1550.56 1323.53 1551.62 L1323.53 1547.69 Q1325.87 1546.79 1328.07 1546.35 Q1330.27 1545.88 1332.35 1545.88 Q1337.98 1545.88 1340.75 1548.8 Q1343.53 1551.72 1343.53 1557.64 Z" fill="#000000" fill-rule="evenodd" fill-opacity="1" /><path clip-path="url(#clip160)" d="M1356.52 1539.15 L1356.52 1546.51 L1365.29 1546.51 L1365.29 1549.82 L1356.52 1549.82 L1356.52 1563.89 Q1356.52 1567.06 1357.37 1567.97 Q1358.25 1568.87 1360.92 1568.87 L1365.29 1568.87 L1365.29 1572.43 L1360.92 1572.43 Q1355.98 1572.43 1354.11 1570.6 Q1352.23 1568.75 1352.23 1563.89 L1352.23 1549.82 L1349.11 1549.82 L1349.11 1546.51 L1352.23 1546.51 L1352.23 1539.15 L1356.52 1539.15 Z" fill="#000000" fill-rule="evenodd" fill-opacity="1" /><path clip-path="url(#clip160)" d="M1370.89 1546.51 L1375.15 1546.51 L1375.15 1572.43 L1370.89 1572.43 L1370.89 1546.51 M1370.89 1536.42 L1375.15 1536.42 L1375.15 1541.81 L1370.89 1541.81 L1370.89 1536.42 Z" fill="#000000" fill-rule="evenodd" fill-opacity="1" /><path clip-path="url(#clip160)" d="M1394.11 1549.49 Q1390.68 1549.49 1388.69 1552.18 Q1386.7 1554.84 1386.7 1559.49 Q1386.7 1564.15 1388.67 1566.83 Q1390.66 1569.49 1394.11 1569.49 Q1397.51 1569.49 1399.5 1566.81 Q1401.49 1564.12 1401.49 1559.49 Q1401.49 1554.89 1399.5 1552.2 Q1397.51 1549.49 1394.11 1549.49 M1394.11 1545.88 Q1399.67 1545.88 1402.84 1549.49 Q1406.01 1553.1 1406.01 1559.49 Q1406.01 1565.86 1402.84 1569.49 Q1399.67 1573.1 1394.11 1573.1 Q1388.53 1573.1 1385.36 1569.49 Q1382.21 1565.86 1382.21 1559.49 Q1382.21 1553.1 1385.36 1549.49 Q1388.53 1545.88 1394.11 1545.88 Z" fill="#000000" fill-rule="evenodd" fill-opacity="1" /><path clip-path="url(#clip160)" d="M1434.62 1556.79 L1434.62 1572.43 L1430.36 1572.43 L1430.36 1556.92 Q1430.36 1553.24 1428.92 1551.41 Q1427.49 1549.59 1424.62 1549.59 Q1421.17 1549.59 1419.18 1551.79 Q1417.19 1553.98 1417.19 1557.78 L1417.19 1572.43 L1412.91 1572.43 L1412.91 1546.51 L1417.19 1546.51 L1417.19 1550.54 Q1418.72 1548.2 1420.78 1547.04 Q1422.86 1545.88 1425.57 1545.88 Q1430.04 1545.88 1432.33 1548.66 Q1434.62 1551.41 1434.62 1556.79 Z" fill="#000000" fill-rule="evenodd" fill-opacity="1" /><path clip-path="url(#clip160)" d="M1459.64 1547.27 L1459.64 1551.3 Q1457.84 1550.37 1455.89 1549.91 Q1453.95 1549.45 1451.86 1549.45 Q1448.69 1549.45 1447.1 1550.42 Q1445.52 1551.39 1445.52 1553.34 Q1445.52 1554.82 1446.66 1555.67 Q1447.79 1556.51 1451.22 1557.27 L1452.67 1557.6 Q1457.21 1558.57 1459.11 1560.35 Q1461.03 1562.11 1461.03 1565.28 Q1461.03 1568.89 1458.16 1571 Q1455.31 1573.1 1450.31 1573.1 Q1448.23 1573.1 1445.96 1572.69 Q1443.72 1572.29 1441.22 1571.48 L1441.22 1567.09 Q1443.58 1568.31 1445.87 1568.94 Q1448.16 1569.54 1450.41 1569.54 Q1453.41 1569.54 1455.04 1568.52 Q1456.66 1567.48 1456.66 1565.6 Q1456.66 1563.87 1455.48 1562.94 Q1454.32 1562.02 1450.36 1561.16 L1448.88 1560.81 Q1444.92 1559.98 1443.16 1558.27 Q1441.4 1556.53 1441.4 1553.52 Q1441.4 1549.86 1443.99 1547.87 Q1446.59 1545.88 1451.35 1545.88 Q1453.72 1545.88 1455.8 1546.23 Q1457.88 1546.58 1459.64 1547.27 Z" fill="#000000" fill-rule="evenodd" fill-opacity="1" /><polyline clip-path="url(#clip162)" style="stroke:#ffffff; stroke-linecap:butt; stroke-linejoin:round; stroke-width:4; stroke-opacity:1; fill:none" points="
  350.487,1219.39 2352.76,1219.39 
  "/>
<polyline clip-path="url(#clip162)" style="stroke:#ffffff; stroke-linecap:butt; stroke-linejoin:round; stroke-width:4; stroke-opacity:1; fill:none" points="
  350.487,902.935 2352.76,902.935 
  "/>
<polyline clip-path="url(#clip162)" style="stroke:#ffffff; stroke-linecap:butt; stroke-linejoin:round; stroke-width:4; stroke-opacity:1; fill:none" points="
  350.487,586.478 2352.76,586.478 
  "/>
<polyline clip-path="url(#clip162)" style="stroke:#ffffff; stroke-linecap:butt; stroke-linejoin:round; stroke-width:4; stroke-opacity:1; fill:none" points="
  350.487,270.02 2352.76,270.02 
  "/>
<polyline clip-path="url(#clip162)" style="stroke:#ffffff; stroke-linecap:butt; stroke-linejoin:round; stroke-width:2; stroke-opacity:1; fill:none" points="
  350.487,1377.62 2352.76,1377.62 
  "/>
<polyline clip-path="url(#clip162)" style="stroke:#ffffff; stroke-linecap:butt; stroke-linejoin:round; stroke-width:2; stroke-opacity:1; fill:none" points="
  350.487,1061.16 2352.76,1061.16 
  "/>
<polyline clip-path="url(#clip162)" style="stroke:#ffffff; stroke-linecap:butt; stroke-linejoin:round; stroke-width:2; stroke-opacity:1; fill:none" points="
  350.487,744.706 2352.76,744.706 
  "/>
<polyline clip-path="url(#clip162)" style="stroke:#ffffff; stroke-linecap:butt; stroke-linejoin:round; stroke-width:2; stroke-opacity:1; fill:none" points="
  350.487,428.249 2352.76,428.249 
  "/>
<polyline clip-path="url(#clip162)" style="stroke:#ffffff; stroke-linecap:butt; stroke-linejoin:round; stroke-width:2; stroke-opacity:1; fill:none" points="
  350.487,111.791 2352.76,111.791 
  "/>
<polyline clip-path="url(#clip160)" style="stroke:#ffffff; stroke-linecap:butt; stroke-linejoin:round; stroke-width:4; stroke-opacity:1; fill:none" points="
  350.487,1422.18 350.487,106.192 
  "/>
<polyline clip-path="url(#clip160)" style="stroke:#333333; stroke-linecap:butt; stroke-linejoin:round; stroke-width:4; stroke-opacity:1; fill:none" points="
  350.487,1219.39 331.59,1219.39 
  "/>
<polyline clip-path="url(#clip160)" style="stroke:#333333; stroke-linecap:butt; stroke-linejoin:round; stroke-width:4; stroke-opacity:1; fill:none" points="
  350.487,902.935 331.59,902.935 
  "/>
<polyline clip-path="url(#clip160)" style="stroke:#333333; stroke-linecap:butt; stroke-linejoin:round; stroke-width:4; stroke-opacity:1; fill:none" points="
  350.487,586.478 331.59,586.478 
  "/>
<polyline clip-path="url(#clip160)" style="stroke:#333333; stroke-linecap:butt; stroke-linejoin:round; stroke-width:4; stroke-opacity:1; fill:none" points="
  350.487,270.02 331.59,270.02 
  "/>
<polyline clip-path="url(#clip160)" style="stroke:#333333; stroke-linecap:butt; stroke-linejoin:round; stroke-width:4; stroke-opacity:1; fill:none" points="
  350.487,1377.62 341.038,1377.62 
  "/>
<polyline clip-path="url(#clip160)" style="stroke:#333333; stroke-linecap:butt; stroke-linejoin:round; stroke-width:4; stroke-opacity:1; fill:none" points="
  350.487,1061.16 341.038,1061.16 
  "/>
<polyline clip-path="url(#clip160)" style="stroke:#333333; stroke-linecap:butt; stroke-linejoin:round; stroke-width:4; stroke-opacity:1; fill:none" points="
  350.487,744.706 341.038,744.706 
  "/>
<polyline clip-path="url(#clip160)" style="stroke:#333333; stroke-linecap:butt; stroke-linejoin:round; stroke-width:4; stroke-opacity:1; fill:none" points="
  350.487,428.249 341.038,428.249 
  "/>
<polyline clip-path="url(#clip160)" style="stroke:#333333; stroke-linecap:butt; stroke-linejoin:round; stroke-width:4; stroke-opacity:1; fill:none" points="
  350.487,111.791 341.038,111.791 
  "/>
<path clip-path="url(#clip160)" d="M194.856 1219.73 L217.113 1219.73 L217.113 1222.68 L194.856 1222.68 L194.856 1219.73 Z" fill="#4c4c4c" fill-rule="evenodd" fill-opacity="1" /><path clip-path="url(#clip160)" d="M225.29 1229.4 L231.019 1229.4 L231.019 1209.63 L224.786 1210.88 L224.786 1207.68 L230.984 1206.43 L234.491 1206.43 L234.491 1229.4 L240.22 1229.4 L240.22 1232.35 L225.29 1232.35 L225.29 1229.4 Z" fill="#4c4c4c" fill-rule="evenodd" fill-opacity="1" /><path clip-path="url(#clip160)" d="M247.911 1229.4 L253.64 1229.4 L253.64 1209.63 L247.408 1210.88 L247.408 1207.68 L253.606 1206.43 L257.112 1206.43 L257.112 1229.4 L262.842 1229.4 L262.842 1232.35 L247.911 1232.35 L247.911 1229.4 Z" fill="#4c4c4c" fill-rule="evenodd" fill-opacity="1" /><path clip-path="url(#clip160)" d="M269.925 1227.94 L273.588 1227.94 L273.588 1232.35 L269.925 1232.35 L269.925 1227.94 Z" fill="#4c4c4c" fill-rule="evenodd" fill-opacity="1" /><path clip-path="url(#clip160)" d="M284.248 1229.4 L296.487 1229.4 L296.487 1232.35 L280.029 1232.35 L280.029 1229.4 Q282.025 1227.34 285.463 1223.86 Q288.918 1220.37 289.803 1219.37 Q291.487 1217.47 292.147 1216.17 Q292.824 1214.85 292.824 1213.59 Q292.824 1211.52 291.366 1210.22 Q289.925 1208.92 287.598 1208.92 Q285.949 1208.92 284.109 1209.49 Q282.286 1210.06 280.203 1211.22 L280.203 1207.68 Q282.321 1206.83 284.161 1206.4 Q286.001 1205.96 287.529 1205.96 Q291.557 1205.96 293.953 1207.98 Q296.348 1209.99 296.348 1213.36 Q296.348 1214.96 295.741 1216.4 Q295.15 1217.82 293.571 1219.77 Q293.137 1220.27 290.81 1222.68 Q288.484 1225.08 284.248 1229.4 Z" fill="#4c4c4c" fill-rule="evenodd" fill-opacity="1" /><path clip-path="url(#clip160)" d="M193.658 903.274 L215.915 903.274 L215.915 906.225 L193.658 906.225 L193.658 903.274 Z" fill="#4c4c4c" fill-rule="evenodd" fill-opacity="1" /><path clip-path="url(#clip160)" d="M224.092 912.944 L229.821 912.944 L229.821 893.17 L223.588 894.42 L223.588 891.225 L229.786 889.975 L233.293 889.975 L233.293 912.944 L239.022 912.944 L239.022 915.895 L224.092 915.895 L224.092 912.944 Z" fill="#4c4c4c" fill-rule="evenodd" fill-opacity="1" /><path clip-path="url(#clip160)" d="M246.713 912.944 L252.442 912.944 L252.442 893.17 L246.21 894.42 L246.21 891.225 L252.408 889.975 L255.915 889.975 L255.915 912.944 L261.644 912.944 L261.644 915.895 L246.713 915.895 L246.713 912.944 Z" fill="#4c4c4c" fill-rule="evenodd" fill-opacity="1" /><path clip-path="url(#clip160)" d="M268.727 911.485 L272.39 911.485 L272.39 915.895 L268.727 915.895 L268.727 911.485 Z" fill="#4c4c4c" fill-rule="evenodd" fill-opacity="1" /><path clip-path="url(#clip160)" d="M287.529 892.284 Q284.821 892.284 283.449 894.958 Q282.095 897.614 282.095 902.961 Q282.095 908.291 283.449 910.965 Q284.821 913.621 287.529 913.621 Q290.255 913.621 291.609 910.965 Q292.98 908.291 292.98 902.961 Q292.98 897.614 291.609 894.958 Q290.255 892.284 287.529 892.284 M287.529 889.506 Q291.887 889.506 294.178 892.961 Q296.487 896.399 296.487 902.961 Q296.487 909.506 294.178 912.961 Q291.887 916.399 287.529 916.399 Q283.171 916.399 280.862 912.961 Q278.571 909.506 278.571 902.961 Q278.571 896.399 280.862 892.961 Q283.171 889.506 287.529 889.506 Z" fill="#4c4c4c" fill-rule="evenodd" fill-opacity="1" /><path clip-path="url(#clip160)" d="M193.727 586.816 L215.984 586.816 L215.984 589.767 L193.727 589.767 L193.727 586.816 Z" fill="#4c4c4c" fill-rule="evenodd" fill-opacity="1" /><path clip-path="url(#clip160)" d="M224.161 596.486 L229.89 596.486 L229.89 576.712 L223.658 577.962 L223.658 574.768 L229.856 573.518 L233.363 573.518 L233.363 596.486 L239.092 596.486 L239.092 599.438 L224.161 599.438 L224.161 596.486 Z" fill="#4c4c4c" fill-rule="evenodd" fill-opacity="1" /><path clip-path="url(#clip160)" d="M253.675 575.827 Q250.967 575.827 249.595 578.5 Q248.241 581.156 248.241 586.504 Q248.241 591.833 249.595 594.507 Q250.967 597.163 253.675 597.163 Q256.401 597.163 257.755 594.507 Q259.126 591.833 259.126 586.504 Q259.126 581.156 257.755 578.5 Q256.401 575.827 253.675 575.827 M253.675 573.049 Q258.033 573.049 260.324 576.504 Q262.633 579.941 262.633 586.504 Q262.633 593.049 260.324 596.504 Q258.033 599.941 253.675 599.941 Q249.317 599.941 247.008 596.504 Q244.717 593.049 244.717 586.504 Q244.717 579.941 247.008 576.504 Q249.317 573.049 253.675 573.049 Z" fill="#4c4c4c" fill-rule="evenodd" fill-opacity="1" /><path clip-path="url(#clip160)" d="M268.796 595.028 L272.46 595.028 L272.46 599.438 L268.796 599.438 L268.796 595.028 Z" fill="#4c4c4c" fill-rule="evenodd" fill-opacity="1" /><path clip-path="url(#clip160)" d="M287.598 587.129 Q285.098 587.129 283.657 588.465 Q282.234 589.802 282.234 592.146 Q282.234 594.49 283.657 595.826 Q285.098 597.163 287.598 597.163 Q290.098 597.163 291.539 595.826 Q292.98 594.472 292.98 592.146 Q292.98 589.802 291.539 588.465 Q290.116 587.129 287.598 587.129 M284.091 585.636 Q281.835 585.08 280.567 583.535 Q279.317 581.99 279.317 579.768 Q279.317 576.66 281.522 574.854 Q283.744 573.049 287.598 573.049 Q291.47 573.049 293.675 574.854 Q295.88 576.66 295.88 579.768 Q295.88 581.99 294.612 583.535 Q293.362 585.08 291.123 585.636 Q293.657 586.226 295.064 587.945 Q296.487 589.663 296.487 592.146 Q296.487 595.913 294.178 597.927 Q291.887 599.941 287.598 599.941 Q283.31 599.941 281.001 597.927 Q278.71 595.913 278.71 592.146 Q278.71 589.663 280.133 587.945 Q281.557 586.226 284.091 585.636 M282.807 580.097 Q282.807 582.111 284.057 583.24 Q285.324 584.368 287.598 584.368 Q289.855 584.368 291.123 583.24 Q292.407 582.111 292.407 580.097 Q292.407 578.083 291.123 576.955 Q289.855 575.827 287.598 575.827 Q285.324 575.827 284.057 576.955 Q282.807 578.083 282.807 580.097 Z" fill="#4c4c4c" fill-rule="evenodd" fill-opacity="1" /><path clip-path="url(#clip160)" d="M193.536 270.359 L215.793 270.359 L215.793 273.31 L193.536 273.31 L193.536 270.359 Z" fill="#4c4c4c" fill-rule="evenodd" fill-opacity="1" /><path clip-path="url(#clip160)" d="M223.97 280.029 L229.699 280.029 L229.699 260.254 L223.467 261.504 L223.467 258.31 L229.665 257.06 L233.172 257.06 L233.172 280.029 L238.901 280.029 L238.901 282.98 L223.97 282.98 L223.97 280.029 Z" fill="#4c4c4c" fill-rule="evenodd" fill-opacity="1" /><path clip-path="url(#clip160)" d="M253.484 259.369 Q250.776 259.369 249.404 262.043 Q248.05 264.699 248.05 270.046 Q248.05 275.376 249.404 278.049 Q250.776 280.706 253.484 280.706 Q256.21 280.706 257.564 278.049 Q258.935 275.376 258.935 270.046 Q258.935 264.699 257.564 262.043 Q256.21 259.369 253.484 259.369 M253.484 256.591 Q257.842 256.591 260.133 260.046 Q262.442 263.484 262.442 270.046 Q262.442 276.591 260.133 280.046 Q257.842 283.483 253.484 283.483 Q249.126 283.483 246.817 280.046 Q244.526 276.591 244.526 270.046 Q244.526 263.484 246.817 260.046 Q249.126 256.591 253.484 256.591 Z" fill="#4c4c4c" fill-rule="evenodd" fill-opacity="1" /><path clip-path="url(#clip160)" d="M268.605 278.57 L272.269 278.57 L272.269 282.98 L268.605 282.98 L268.605 278.57 Z" fill="#4c4c4c" fill-rule="evenodd" fill-opacity="1" /><path clip-path="url(#clip160)" d="M287.841 268.622 Q285.48 268.622 284.091 270.237 Q282.72 271.852 282.72 274.664 Q282.72 277.459 284.091 279.091 Q285.48 280.706 287.841 280.706 Q290.203 280.706 291.574 279.091 Q292.963 277.459 292.963 274.664 Q292.963 271.852 291.574 270.237 Q290.203 268.622 287.841 268.622 M294.803 257.633 L294.803 260.827 Q293.484 260.202 292.13 259.872 Q290.793 259.543 289.473 259.543 Q286.001 259.543 284.161 261.886 Q282.338 264.23 282.078 268.97 Q283.102 267.459 284.647 266.661 Q286.192 265.845 288.05 265.845 Q291.956 265.845 294.213 268.223 Q296.487 270.584 296.487 274.664 Q296.487 278.657 294.126 281.07 Q291.765 283.483 287.841 283.483 Q283.345 283.483 280.966 280.046 Q278.588 276.591 278.588 270.046 Q278.588 263.9 281.505 260.254 Q284.421 256.591 289.334 256.591 Q290.654 256.591 291.991 256.852 Q293.345 257.112 294.803 257.633 Z" fill="#4c4c4c" fill-rule="evenodd" fill-opacity="1" /><path clip-path="url(#clip160)" d="M130.608 973.882 L130.608 944.646 L134.544 944.646 L134.544 956.915 L165.168 956.915 L165.168 961.614 L134.544 961.614 L134.544 973.882 L130.608 973.882 Z" fill="#000000" fill-rule="evenodd" fill-opacity="1" /><path clip-path="url(#clip160)" d="M151.141 926.198 L153.224 926.198 L153.224 945.781 Q157.622 945.503 159.937 943.142 Q162.229 940.758 162.229 936.522 Q162.229 934.068 161.627 931.776 Q161.025 929.461 159.821 927.193 L163.849 927.193 Q164.821 929.485 165.33 931.892 Q165.84 934.299 165.84 936.776 Q165.84 942.98 162.229 946.614 Q158.617 950.225 152.46 950.225 Q146.094 950.225 142.368 946.799 Q138.618 943.35 138.618 937.517 Q138.618 932.285 141.997 929.253 Q145.354 926.198 151.141 926.198 M149.891 930.457 Q146.395 930.503 144.312 932.424 Q142.229 934.322 142.229 937.471 Q142.229 941.035 144.243 943.188 Q146.256 945.318 149.914 945.642 L149.891 930.457 Z" fill="#000000" fill-rule="evenodd" fill-opacity="1" /><path clip-path="url(#clip160)" d="M140.006 902.679 L144.034 902.679 Q143.108 904.485 142.645 906.429 Q142.182 908.374 142.182 910.457 Q142.182 913.628 143.155 915.225 Q144.127 916.799 146.071 916.799 Q147.553 916.799 148.409 915.665 Q149.243 914.531 150.006 911.105 L150.33 909.647 Q151.303 905.11 153.085 903.212 Q154.844 901.29 158.016 901.29 Q161.627 901.29 163.733 904.161 Q165.84 907.008 165.84 912.008 Q165.84 914.091 165.423 916.36 Q165.029 918.605 164.219 921.105 L159.821 921.105 Q161.048 918.744 161.673 916.452 Q162.275 914.161 162.275 911.915 Q162.275 908.906 161.256 907.286 Q160.215 905.665 158.34 905.665 Q156.604 905.665 155.678 906.846 Q154.752 908.003 153.895 911.961 L153.548 913.443 Q152.715 917.401 151.002 919.161 Q149.266 920.92 146.256 920.92 Q142.599 920.92 140.608 918.327 Q138.618 915.735 138.618 910.966 Q138.618 908.605 138.965 906.522 Q139.312 904.438 140.006 902.679 Z" fill="#000000" fill-rule="evenodd" fill-opacity="1" /><path clip-path="url(#clip160)" d="M131.882 890.295 L139.243 890.295 L139.243 881.522 L142.553 881.522 L142.553 890.295 L156.627 890.295 Q159.798 890.295 160.701 889.438 Q161.604 888.559 161.604 885.897 L161.604 881.522 L165.168 881.522 L165.168 885.897 Q165.168 890.827 163.34 892.702 Q161.488 894.577 156.627 894.577 L142.553 894.577 L142.553 897.702 L139.243 897.702 L139.243 894.577 L131.882 894.577 L131.882 890.295 Z" fill="#000000" fill-rule="evenodd" fill-opacity="1" /><path clip-path="url(#clip160)" d="M129.15 860.851 L129.15 856.591 L165.168 856.591 L165.168 860.851 L129.15 860.851 Z" fill="#000000" fill-rule="evenodd" fill-opacity="1" /><path clip-path="url(#clip160)" d="M142.229 837.633 Q142.229 841.059 144.914 843.05 Q147.576 845.041 152.229 845.041 Q156.881 845.041 159.567 843.073 Q162.229 841.082 162.229 837.633 Q162.229 834.23 159.543 832.24 Q156.858 830.249 152.229 830.249 Q147.622 830.249 144.937 832.24 Q142.229 834.23 142.229 837.633 M138.618 837.633 Q138.618 832.078 142.229 828.906 Q145.84 825.735 152.229 825.735 Q158.594 825.735 162.229 828.906 Q165.84 832.078 165.84 837.633 Q165.84 843.212 162.229 846.383 Q158.594 849.531 152.229 849.531 Q145.84 849.531 142.229 846.383 Q138.618 843.212 138.618 837.633 Z" fill="#000000" fill-rule="evenodd" fill-opacity="1" /><path clip-path="url(#clip160)" d="M151.905 801.615 Q147.275 801.615 144.729 803.536 Q142.182 805.434 142.182 808.883 Q142.182 812.309 144.729 814.231 Q147.275 816.129 151.905 816.129 Q156.511 816.129 159.057 814.231 Q161.604 812.309 161.604 808.883 Q161.604 805.434 159.057 803.536 Q156.511 801.615 151.905 801.615 M161.951 797.356 Q168.571 797.356 171.789 800.295 Q175.029 803.235 175.029 809.3 Q175.029 811.545 174.682 813.536 Q174.358 815.527 173.664 817.402 L169.52 817.402 Q170.539 815.527 171.025 813.698 Q171.511 811.869 171.511 809.971 Q171.511 805.781 169.312 803.698 Q167.136 801.615 162.715 801.615 L160.608 801.615 Q162.9 802.934 164.034 804.994 Q165.168 807.055 165.168 809.925 Q165.168 814.693 161.534 817.61 Q157.9 820.527 151.905 820.527 Q145.886 820.527 142.252 817.61 Q138.618 814.693 138.618 809.925 Q138.618 807.055 139.752 804.994 Q140.886 802.934 143.178 801.615 L139.243 801.615 L139.243 797.356 L161.951 797.356 Z" fill="#000000" fill-rule="evenodd" fill-opacity="1" /><path clip-path="url(#clip160)" d="M150.284 790.735 L150.284 778.258 L154.08 778.258 L154.08 790.735 L150.284 790.735 Z" fill="#000000" fill-rule="evenodd" fill-opacity="1" /><path clip-path="url(#clip160)" d="M129.15 771.476 L129.15 767.217 L165.168 767.217 L165.168 771.476 L129.15 771.476 Z" fill="#000000" fill-rule="evenodd" fill-opacity="1" /><path clip-path="url(#clip160)" d="M139.243 758.305 L139.243 754.046 L165.168 754.046 L165.168 758.305 L139.243 758.305 M129.15 758.305 L129.15 754.046 L134.544 754.046 L134.544 758.305 L129.15 758.305 Z" fill="#000000" fill-rule="evenodd" fill-opacity="1" /><path clip-path="url(#clip160)" d="M129.15 745.296 L129.15 741.013 L150.423 741.013 L139.243 728.305 L139.243 722.865 L151.372 736.615 L165.168 722.287 L165.168 727.842 L152.506 741.013 L165.168 741.013 L165.168 745.296 L129.15 745.296 Z" fill="#000000" fill-rule="evenodd" fill-opacity="1" /><path clip-path="url(#clip160)" d="M151.141 697.194 L153.224 697.194 L153.224 716.777 Q157.622 716.5 159.937 714.138 Q162.229 711.754 162.229 707.518 Q162.229 705.064 161.627 702.773 Q161.025 700.458 159.821 698.189 L163.849 698.189 Q164.821 700.481 165.33 702.889 Q165.84 705.296 165.84 707.773 Q165.84 713.976 162.229 717.611 Q158.617 721.222 152.46 721.222 Q146.094 721.222 142.368 717.796 Q138.618 714.347 138.618 708.513 Q138.618 703.282 141.997 700.25 Q145.354 697.194 151.141 697.194 M149.891 701.453 Q146.395 701.5 144.312 703.421 Q142.229 705.319 142.229 708.467 Q142.229 712.032 144.243 714.185 Q146.256 716.314 149.914 716.638 L149.891 701.453 Z" fill="#000000" fill-rule="evenodd" fill-opacity="1" /><path clip-path="url(#clip160)" d="M129.15 690.203 L129.15 685.944 L165.168 685.944 L165.168 690.203 L129.15 690.203 Z" fill="#000000" fill-rule="evenodd" fill-opacity="1" /><path clip-path="url(#clip160)" d="M139.243 677.032 L139.243 672.773 L165.168 672.773 L165.168 677.032 L139.243 677.032 M129.15 677.032 L129.15 672.773 L134.544 672.773 L134.544 677.032 L129.15 677.032 Z" fill="#000000" fill-rule="evenodd" fill-opacity="1" /><path clip-path="url(#clip160)" d="M149.52 642.31 L165.168 642.31 L165.168 646.569 L149.659 646.569 Q145.979 646.569 144.15 648.005 Q142.321 649.44 142.321 652.31 Q142.321 655.759 144.52 657.75 Q146.719 659.741 150.516 659.741 L165.168 659.741 L165.168 664.023 L129.15 664.023 L129.15 659.741 L143.27 659.741 Q140.932 658.213 139.775 656.153 Q138.618 654.069 138.618 651.361 Q138.618 646.893 141.395 644.602 Q144.15 642.31 149.52 642.31 Z" fill="#000000" fill-rule="evenodd" fill-opacity="1" /><path clip-path="url(#clip160)" d="M142.229 623.769 Q142.229 627.194 144.914 629.185 Q147.576 631.176 152.229 631.176 Q156.881 631.176 159.567 629.208 Q162.229 627.218 162.229 623.769 Q162.229 620.366 159.543 618.375 Q156.858 616.384 152.229 616.384 Q147.622 616.384 144.937 618.375 Q142.229 620.366 142.229 623.769 M138.618 623.769 Q138.618 618.213 142.229 615.042 Q145.84 611.87 152.229 611.87 Q158.594 611.87 162.229 615.042 Q165.84 618.213 165.84 623.769 Q165.84 629.347 162.229 632.519 Q158.594 635.667 152.229 635.667 Q145.84 635.667 142.229 632.519 Q138.618 629.347 138.618 623.769 Z" fill="#000000" fill-rule="evenodd" fill-opacity="1" /><path clip-path="url(#clip160)" d="M142.229 594.764 Q142.229 598.19 144.914 600.181 Q147.576 602.171 152.229 602.171 Q156.881 602.171 159.567 600.204 Q162.229 598.213 162.229 594.764 Q162.229 591.361 159.543 589.371 Q156.858 587.38 152.229 587.38 Q147.622 587.38 144.937 589.371 Q142.229 591.361 142.229 594.764 M138.618 594.764 Q138.618 589.209 142.229 586.037 Q145.84 582.866 152.229 582.866 Q158.594 582.866 162.229 586.037 Q165.84 589.209 165.84 594.764 Q165.84 600.343 162.229 603.514 Q158.594 606.662 152.229 606.662 Q145.84 606.662 142.229 603.514 Q138.618 600.343 138.618 594.764 Z" fill="#000000" fill-rule="evenodd" fill-opacity="1" /><path clip-path="url(#clip160)" d="M143.178 558.746 L129.15 558.746 L129.15 554.487 L165.168 554.487 L165.168 558.746 L161.28 558.746 Q163.594 560.088 164.729 562.149 Q165.84 564.186 165.84 567.056 Q165.84 571.755 162.09 574.718 Q158.34 577.658 152.229 577.658 Q146.118 577.658 142.368 574.718 Q138.618 571.755 138.618 567.056 Q138.618 564.186 139.752 562.149 Q140.863 560.088 143.178 558.746 M152.229 573.26 Q156.928 573.26 159.613 571.338 Q162.275 569.394 162.275 566.014 Q162.275 562.635 159.613 560.69 Q156.928 558.746 152.229 558.746 Q147.53 558.746 144.868 560.69 Q142.182 562.635 142.182 566.014 Q142.182 569.394 144.868 571.338 Q147.53 573.26 152.229 573.26 Z" fill="#000000" fill-rule="evenodd" fill-opacity="1" /><path clip-path="url(#clip160)" d="M1239.66 6.81709 L1245.01 6.81709 L1245.01 33.4084 L1260.9 19.4328 L1267.7 19.4328 L1250.51 34.5947 L1268.42 51.84 L1261.47 51.84 L1245.01 36.0125 L1245.01 51.84 L1239.66 51.84 L1239.66 6.81709 Z" fill="#000000" fill-rule="evenodd" fill-opacity="1" /><path clip-path="url(#clip160)" d="M1284.62 23.1654 Q1280.34 23.1654 1277.85 26.5218 Q1275.36 29.8494 1275.36 35.6653 Q1275.36 41.4813 1277.82 44.8377 Q1280.31 48.1653 1284.62 48.1653 Q1288.88 48.1653 1291.36 44.8088 Q1293.85 41.4523 1293.85 35.6653 Q1293.85 29.9072 1291.36 26.5508 Q1288.88 23.1654 1284.62 23.1654 M1284.62 18.6515 Q1291.57 18.6515 1295.53 23.1654 Q1299.5 27.6792 1299.5 35.6653 Q1299.5 43.6225 1295.53 48.1653 Q1291.57 52.6791 1284.62 52.6791 Q1277.65 52.6791 1273.69 48.1653 Q1269.75 43.6225 1269.75 35.6653 Q1269.75 27.6792 1273.69 23.1654 Q1277.65 18.6515 1284.62 18.6515 Z" fill="#000000" fill-rule="evenodd" fill-opacity="1" /><path clip-path="url(#clip160)" d="M1328.98 20.3876 L1328.98 25.4223 Q1326.72 24.2649 1324.29 23.6862 Q1321.86 23.1075 1319.26 23.1075 Q1315.29 23.1075 1313.3 24.3228 Q1311.33 25.5381 1311.33 27.9686 Q1311.33 29.8204 1312.75 30.891 Q1314.17 31.9327 1318.45 32.8876 L1320.27 33.2926 Q1325.94 34.5079 1328.31 36.7359 Q1330.72 38.935 1330.72 42.8991 Q1330.72 47.4129 1327.13 50.046 Q1323.57 52.6791 1317.32 52.6791 Q1314.71 52.6791 1311.88 52.1583 Q1309.07 51.6664 1305.95 50.6537 L1305.95 45.156 Q1308.9 46.6896 1311.76 47.4708 Q1314.63 48.2231 1317.43 48.2231 Q1321.2 48.2231 1323.22 46.95 Q1325.25 45.6479 1325.25 43.3042 Q1325.25 41.134 1323.77 39.9766 Q1322.32 38.8192 1317.38 37.7486 L1315.53 37.3146 Q1310.58 36.273 1308.38 34.1318 Q1306.18 31.9616 1306.18 28.2001 Q1306.18 23.6283 1309.42 21.1399 Q1312.66 18.6515 1318.62 18.6515 Q1321.57 18.6515 1324.18 19.0855 Q1326.78 19.5196 1328.98 20.3876 Z" fill="#000000" fill-rule="evenodd" fill-opacity="1" /><path clip-path="url(#clip160)" d="M1353.92 35.5496 Q1347.47 35.5496 1344.98 37.0253 Q1342.49 38.501 1342.49 42.06 Q1342.49 44.8956 1344.34 46.5738 Q1346.23 48.2231 1349.44 48.2231 Q1353.86 48.2231 1356.53 45.0981 Q1359.22 41.9442 1359.22 36.7359 L1359.22 35.5496 L1353.92 35.5496 M1364.54 33.3505 L1364.54 51.84 L1359.22 51.84 L1359.22 46.921 Q1357.39 49.8724 1354.67 51.2902 Q1351.95 52.6791 1348.02 52.6791 Q1343.04 52.6791 1340.09 49.9014 Q1337.17 47.0947 1337.17 42.4072 Q1337.17 36.9385 1340.81 34.1607 Q1344.49 31.3829 1351.75 31.3829 L1359.22 31.3829 L1359.22 30.8621 Q1359.22 27.1874 1356.79 25.1908 Q1354.38 23.1654 1350.02 23.1654 Q1347.24 23.1654 1344.6 23.8309 Q1341.97 24.4964 1339.54 25.8274 L1339.54 20.9085 Q1342.46 19.78 1345.21 19.2302 Q1347.96 18.6515 1350.57 18.6515 Q1357.6 18.6515 1361.07 22.2973 Q1364.54 25.9431 1364.54 33.3505 Z" fill="#000000" fill-rule="evenodd" fill-opacity="1" /><path clip-path="url(#clip160)" d="M1394.29 24.4096 Q1393.39 23.8888 1392.32 23.6573 Q1391.28 23.3969 1390 23.3969 Q1385.49 23.3969 1383.06 26.3482 Q1380.66 29.2707 1380.66 34.7683 L1380.66 51.84 L1375.3 51.84 L1375.3 19.4328 L1380.66 19.4328 L1380.66 24.4675 Q1382.34 21.5161 1385.03 20.0983 Q1387.72 18.6515 1391.57 18.6515 Q1392.12 18.6515 1392.78 18.7383 Q1393.45 18.7962 1394.26 18.9409 L1394.29 24.4096 Z" fill="#000000" fill-rule="evenodd" fill-opacity="1" /><path clip-path="url(#clip160)" d="M1426.29 34.3054 L1426.29 36.9095 L1401.81 36.9095 Q1402.16 42.4072 1405.11 45.3007 Q1408.09 48.1653 1413.38 48.1653 Q1416.45 48.1653 1419.32 47.4129 Q1422.21 46.6606 1425.04 45.156 L1425.04 50.1907 Q1422.18 51.406 1419.17 52.0425 Q1416.16 52.6791 1413.07 52.6791 Q1405.31 52.6791 1400.77 48.1653 Q1396.25 43.6514 1396.25 35.9547 Q1396.25 27.9975 1400.54 23.339 Q1404.85 18.6515 1412.14 18.6515 Q1418.68 18.6515 1422.47 22.876 Q1426.29 27.0716 1426.29 34.3054 M1420.96 32.7429 Q1420.91 28.3737 1418.5 25.7695 Q1416.13 23.1654 1412.2 23.1654 Q1407.74 23.1654 1405.05 25.6827 Q1402.39 28.2001 1401.98 32.7718 L1420.96 32.7429 Z" fill="#000000" fill-rule="evenodd" fill-opacity="1" /><path clip-path="url(#clip160)" d="M1434.82 6.81709 L1440.18 6.81709 L1440.18 33.4084 L1456.06 19.4328 L1462.86 19.4328 L1445.67 34.5947 L1463.59 51.84 L1456.64 51.84 L1440.18 36.0125 L1440.18 51.84 L1434.82 51.84 L1434.82 6.81709 Z" fill="#000000" fill-rule="evenodd" fill-opacity="1" /><polyline clip-path="url(#clip162)" style="stroke:#e26f46; stroke-linecap:butt; stroke-linejoin:round; stroke-width:8; stroke-opacity:1; fill:none" points="
  436.216,871.289 465.276,871.289 494.337,871.289 523.397,871.289 552.458,871.289 581.518,871.289 610.579,871.289 639.639,871.289 668.7,871.289 697.76,871.289 
  726.821,871.289 755.881,871.289 784.942,871.289 814.002,871.289 843.063,871.289 872.123,871.289 901.184,871.289 930.244,871.289 959.305,871.289 988.365,871.289 
  1017.43,871.289 1046.49,871.289 1075.55,871.289 1104.61,871.289 1133.67,871.289 1162.73,871.289 1191.79,871.289 1220.85,871.289 1249.91,871.289 1278.97,871.289 
  1308.03,871.289 1337.09,871.289 1366.15,871.289 1395.21,871.289 1424.27,871.289 1453.33,871.289 1482.39,871.289 1511.45,871.289 1540.51,871.289 1569.58,871.289 
  1598.64,871.289 1627.7,871.289 1656.76,871.289 1685.82,871.289 1714.88,871.289 1743.94,871.289 1773,871.289 1802.06,871.289 1831.12,871.289 1860.18,871.289 
  1889.24,871.289 1918.3,871.289 1947.36,871.289 1976.42,871.289 2005.48,871.289 2034.54,871.289 2063.6,871.289 2092.66,871.289 2121.72,871.289 2150.79,871.289 
  2179.85,871.289 2208.91,871.289 2237.97,871.289 2267.03,871.289 2296.09,871.289 
  "/>
<polyline clip-path="url(#clip162)" style="stroke:#3da44d; stroke-linecap:butt; stroke-linejoin:round; stroke-width:8; stroke-opacity:1; fill:none" points="
  436.216,396.603 465.276,396.603 494.337,396.603 523.397,396.603 552.458,396.603 581.518,396.603 610.579,396.603 639.639,396.603 668.7,396.603 697.76,396.603 
  726.821,396.603 755.881,396.603 784.942,396.603 814.002,396.603 843.063,396.603 872.123,396.603 901.184,396.603 930.244,396.603 959.305,396.603 988.365,396.603 
  1017.43,396.603 1046.49,396.603 1075.55,396.603 1104.61,396.603 1133.67,396.603 1162.73,396.603 1191.79,396.603 1220.85,396.603 1249.91,396.603 1278.97,396.603 
  1308.03,396.603 1337.09,396.603 1366.15,396.603 1395.21,396.603 1424.27,396.603 1453.33,396.603 1482.39,396.603 1511.45,396.603 1540.51,396.603 1569.58,396.603 
  1598.64,396.603 1627.7,396.603 1656.76,396.603 1685.82,396.603 1714.88,396.603 1743.94,396.603 1773,396.603 1802.06,396.603 1831.12,396.603 1860.18,396.603 
  1889.24,396.603 1918.3,396.603 1947.36,396.603 1976.42,396.603 2005.48,396.603 2034.54,396.603 2063.6,396.603 2092.66,396.603 2121.72,396.603 2150.79,396.603 
  2179.85,396.603 2208.91,396.603 2237.97,396.603 2267.03,396.603 2296.09,396.603 
  "/>
<polyline clip-path="url(#clip162)" style="stroke:#c271d2; stroke-linecap:butt; stroke-linejoin:round; stroke-width:8; stroke-opacity:1; fill:none" points="
  436.216,143.437 465.276,143.437 494.337,143.437 523.397,143.437 552.458,143.437 581.518,143.437 610.579,143.437 639.639,143.437 668.7,143.437 697.76,143.437 
  726.821,143.437 755.881,143.437 784.942,143.437 814.002,143.437 843.063,143.437 872.123,143.437 901.184,143.437 930.244,143.437 959.305,143.437 988.365,143.437 
  1017.43,143.437 1046.49,143.437 1075.55,143.437 1104.61,143.437 1133.67,143.437 1162.73,143.437 1191.79,143.437 1220.85,143.437 1249.91,143.437 1278.97,143.437 
  1308.03,143.437 1337.09,143.437 1366.15,143.437 1395.21,143.437 1424.27,143.437 1453.33,143.437 1482.39,143.437 1511.45,143.437 1540.51,143.437 1569.58,143.437 
  1598.64,143.437 1627.7,143.437 1656.76,143.437 1685.82,143.437 1714.88,143.437 1743.94,143.437 1773,143.437 1802.06,143.437 1831.12,143.437 1860.18,143.437 
  1889.24,143.437 1918.3,143.437 1947.36,143.437 1976.42,143.437 2005.48,143.437 2034.54,143.437 2063.6,143.437 2092.66,143.437 2121.72,143.437 2150.79,143.437 
  2179.85,143.437 2208.91,143.437 2237.97,143.437 2267.03,143.437 2296.09,143.437 
  "/>
<polyline clip-path="url(#clip162)" style="stroke:#ac8d18; stroke-linecap:butt; stroke-linejoin:round; stroke-width:8; stroke-opacity:1; fill:none" points="
  436.216,539.009 465.276,539.009 494.337,539.009 523.397,539.009 552.458,539.009 581.518,539.009 610.579,539.009 639.639,539.009 668.7,539.009 697.76,539.009 
  726.821,539.009 755.881,539.009 784.942,539.009 814.002,539.009 843.063,539.009 872.123,539.009 901.184,539.009 930.244,539.009 959.305,539.009 988.365,539.009 
  1017.43,539.009 1046.49,539.009 1075.55,539.009 1104.61,539.009 1133.67,539.009 1162.73,539.009 1191.79,539.009 1220.85,539.009 1249.91,539.009 1278.97,539.009 
  1308.03,539.009 1337.09,539.009 1366.15,539.009 1395.21,539.009 1424.27,539.009 1453.33,539.009 1482.39,539.009 1511.45,539.009 1540.51,539.009 1569.58,539.009 
  1598.64,539.009 1627.7,539.009 1656.76,539.009 1685.82,539.009 1714.88,539.009 1743.94,539.009 1773,539.009 1802.06,539.009 1831.12,539.009 1860.18,539.009 
  1889.24,539.009 1918.3,539.009 1947.36,539.009 1976.42,539.009 2005.48,539.009 2034.54,539.009 2063.6,539.009 2092.66,539.009 2121.72,539.009 2150.79,539.009 
  2179.85,539.009 2208.91,539.009 2237.97,539.009 2267.03,539.009 2296.09,539.009 
  "/>
<polyline clip-path="url(#clip162)" style="stroke:#00a9ad; stroke-linecap:butt; stroke-linejoin:round; stroke-width:8; stroke-opacity:1; fill:none" points="
  436.216,254.197 465.276,254.197 494.337,254.197 523.397,254.197 552.458,254.197 581.518,254.197 610.579,254.197 639.639,254.197 668.7,254.197 697.76,254.197 
  726.821,254.197 755.881,254.197 784.942,254.197 814.002,254.197 843.063,254.197 872.123,254.197 901.184,254.197 930.244,254.197 959.305,254.197 988.365,254.197 
  1017.43,254.197 1046.49,254.197 1075.55,254.197 1104.61,254.197 1133.67,254.197 1162.73,254.197 1191.79,254.197 1220.85,254.197 1249.91,254.197 1278.97,254.197 
  1308.03,254.197 1337.09,254.197 1366.15,254.197 1395.21,254.197 1424.27,254.197 1453.33,254.197 1482.39,254.197 1511.45,254.197 1540.51,254.197 1569.58,254.197 
  1598.64,254.197 1627.7,254.197 1656.76,254.197 1685.82,254.197 1714.88,254.197 1743.94,254.197 1773,254.197 1802.06,254.197 1831.12,254.197 1860.18,254.197 
  1889.24,254.197 1918.3,254.197 1947.36,254.197 1976.42,254.197 2005.48,254.197 2034.54,254.197 2063.6,254.197 2092.66,254.197 2121.72,254.197 2150.79,254.197 
  2179.85,254.197 2208.91,254.197 2237.97,254.197 2267.03,254.197 2296.09,254.197 
  "/>
<polyline clip-path="url(#clip162)" style="stroke:#009af9; stroke-linecap:butt; stroke-linejoin:round; stroke-width:12; stroke-opacity:1; fill:none" points="
  436.216,1384.93 465.276,1027.48 494.337,953.116 523.397,936.232 552.458,810.761 581.518,807.675 610.579,737.9 639.639,727.444 668.7,744.921 697.76,691.587 
  726.821,730.753 755.881,687.125 784.942,647.181 814.002,607.874 843.063,607.352 872.123,599.243 901.184,597.019 930.244,579.719 959.305,558.887 988.365,553.259 
  1017.43,539.966 1046.49,537.084 1075.55,530.284 1104.61,522.004 1133.67,550.872 1162.73,517.489 1191.79,497.159 1220.85,477.911 1249.91,459.352 1278.97,465.234 
  1308.03,457.988 1337.09,464.648 1366.15,459.532 1395.21,487.329 1424.27,472.998 1453.33,462.089 1482.39,451.675 1511.45,451.431 1540.51,446.451 1569.58,438.241 
  1598.64,441.052 1627.7,433.361 1656.76,435.491 1685.82,436.06 1714.88,430.08 1743.94,428.262 1773,420.892 1802.06,416.595 1831.12,418.496 1860.18,412.093 
  
  "/>
<polyline clip-path="url(#clip162)" style="stroke:#f05f73; stroke-linecap:butt; stroke-linejoin:round; stroke-width:12; stroke-opacity:1; fill:none" points="
  1860.18,412.093 1889.24,366.483 1918.3,360.706 1947.36,358.082 1976.42,356.302 2005.48,354.717 2034.54,353.376 2063.6,352.315 2092.66,351.598 2121.72,351.067 
  2150.79,350.55 2179.85,350.005 2208.91,349.369 2237.97,348.61 2267.03,347.75 2296.09,346.929 
  "/>
</svg>
