<?xml version="1.0" encoding="utf-8"?>
<svg xmlns="http://www.w3.org/2000/svg" xmlns:xlink="http://www.w3.org/1999/xlink" width="600" height="400" viewBox="0 0 2400 1600">
<defs>
  <clipPath id="clip440">
    <rect x="0" y="0" width="2400" height="1600"/>
  </clipPath>
</defs>
<path clip-path="url(#clip440)" d="
M0 1600 L2400 1600 L2400 0 L0 0  Z
  " fill="#ffffff" fill-rule="evenodd" fill-opacity="1"/>
<defs>
  <clipPath id="clip441">
    <rect x="480" y="0" width="1681" height="1600"/>
  </clipPath>
</defs>
<path clip-path="url(#clip440)" d="
M217.873 1444.78 L2352.76 1444.78 L2352.76 106.192 L217.873 106.192  Z
  " fill="#eaeaea" fill-rule="evenodd" fill-opacity="1"/>
<defs>
  <clipPath id="clip442">
    <rect x="217" y="106" width="2136" height="1340"/>
  </clipPath>
</defs>
<polyline clip-path="url(#clip442)" style="stroke:#ffffff; stroke-linecap:butt; stroke-linejoin:round; stroke-width:4; stroke-opacity:1; fill:none" points="
  278.294,1444.78 278.294,106.192 
  "/>
<polyline clip-path="url(#clip442)" style="stroke:#ffffff; stroke-linecap:butt; stroke-linejoin:round; stroke-width:4; stroke-opacity:1; fill:none" points="
  479.698,1444.78 479.698,106.192 
  "/>
<polyline clip-path="url(#clip442)" style="stroke:#ffffff; stroke-linecap:butt; stroke-linejoin:round; stroke-width:4; stroke-opacity:1; fill:none" points="
  681.102,1444.78 681.102,106.192 
  "/>
<polyline clip-path="url(#clip442)" style="stroke:#ffffff; stroke-linecap:butt; stroke-linejoin:round; stroke-width:4; stroke-opacity:1; fill:none" points="
  882.506,1444.78 882.506,106.192 
  "/>
<polyline clip-path="url(#clip442)" style="stroke:#ffffff; stroke-linecap:butt; stroke-linejoin:round; stroke-width:4; stroke-opacity:1; fill:none" points="
  1083.91,1444.78 1083.91,106.192 
  "/>
<polyline clip-path="url(#clip442)" style="stroke:#ffffff; stroke-linecap:butt; stroke-linejoin:round; stroke-width:4; stroke-opacity:1; fill:none" points="
  1285.31,1444.78 1285.31,106.192 
  "/>
<polyline clip-path="url(#clip442)" style="stroke:#ffffff; stroke-linecap:butt; stroke-linejoin:round; stroke-width:4; stroke-opacity:1; fill:none" points="
  1486.72,1444.78 1486.72,106.192 
  "/>
<polyline clip-path="url(#clip442)" style="stroke:#ffffff; stroke-linecap:butt; stroke-linejoin:round; stroke-width:4; stroke-opacity:1; fill:none" points="
  1688.12,1444.78 1688.12,106.192 
  "/>
<polyline clip-path="url(#clip442)" style="stroke:#ffffff; stroke-linecap:butt; stroke-linejoin:round; stroke-width:4; stroke-opacity:1; fill:none" points="
  1889.53,1444.78 1889.53,106.192 
  "/>
<polyline clip-path="url(#clip442)" style="stroke:#ffffff; stroke-linecap:butt; stroke-linejoin:round; stroke-width:4; stroke-opacity:1; fill:none" points="
  2090.93,1444.78 2090.93,106.192 
  "/>
<polyline clip-path="url(#clip442)" style="stroke:#ffffff; stroke-linecap:butt; stroke-linejoin:round; stroke-width:4; stroke-opacity:1; fill:none" points="
  2292.33,1444.78 2292.33,106.192 
  "/>
<polyline clip-path="url(#clip442)" style="stroke:#ffffff; stroke-linecap:butt; stroke-linejoin:round; stroke-width:2; stroke-opacity:1; fill:none" points="
  378.996,1444.78 378.996,106.192 
  "/>
<polyline clip-path="url(#clip442)" style="stroke:#ffffff; stroke-linecap:butt; stroke-linejoin:round; stroke-width:2; stroke-opacity:1; fill:none" points="
  580.4,1444.78 580.4,106.192 
  "/>
<polyline clip-path="url(#clip442)" style="stroke:#ffffff; stroke-linecap:butt; stroke-linejoin:round; stroke-width:2; stroke-opacity:1; fill:none" points="
  781.804,1444.78 781.804,106.192 
  "/>
<polyline clip-path="url(#clip442)" style="stroke:#ffffff; stroke-linecap:butt; stroke-linejoin:round; stroke-width:2; stroke-opacity:1; fill:none" points="
  983.208,1444.78 983.208,106.192 
  "/>
<polyline clip-path="url(#clip442)" style="stroke:#ffffff; stroke-linecap:butt; stroke-linejoin:round; stroke-width:2; stroke-opacity:1; fill:none" points="
  1184.61,1444.78 1184.61,106.192 
  "/>
<polyline clip-path="url(#clip442)" style="stroke:#ffffff; stroke-linecap:butt; stroke-linejoin:round; stroke-width:2; stroke-opacity:1; fill:none" points="
  1386.02,1444.78 1386.02,106.192 
  "/>
<polyline clip-path="url(#clip442)" style="stroke:#ffffff; stroke-linecap:butt; stroke-linejoin:round; stroke-width:2; stroke-opacity:1; fill:none" points="
  1587.42,1444.78 1587.42,106.192 
  "/>
<polyline clip-path="url(#clip442)" style="stroke:#ffffff; stroke-linecap:butt; stroke-linejoin:round; stroke-width:2; stroke-opacity:1; fill:none" points="
  1788.82,1444.78 1788.82,106.192 
  "/>
<polyline clip-path="url(#clip442)" style="stroke:#ffffff; stroke-linecap:butt; stroke-linejoin:round; stroke-width:2; stroke-opacity:1; fill:none" points="
  1990.23,1444.78 1990.23,106.192 
  "/>
<polyline clip-path="url(#clip442)" style="stroke:#ffffff; stroke-linecap:butt; stroke-linejoin:round; stroke-width:2; stroke-opacity:1; fill:none" points="
  2191.63,1444.78 2191.63,106.192 
  "/>
<polyline clip-path="url(#clip440)" style="stroke:#ffffff; stroke-linecap:butt; stroke-linejoin:round; stroke-width:4; stroke-opacity:1; fill:none" points="
  217.873,1444.78 2352.76,1444.78 
  "/>
<polyline clip-path="url(#clip440)" style="stroke:#333333; stroke-linecap:butt; stroke-linejoin:round; stroke-width:4; stroke-opacity:1; fill:none" points="
  278.294,1444.78 278.294,1463.68 
  "/>
<polyline clip-path="url(#clip440)" style="stroke:#333333; stroke-linecap:butt; stroke-linejoin:round; stroke-width:4; stroke-opacity:1; fill:none" points="
  479.698,1444.78 479.698,1463.68 
  "/>
<polyline clip-path="url(#clip440)" style="stroke:#333333; stroke-linecap:butt; stroke-linejoin:round; stroke-width:4; stroke-opacity:1; fill:none" points="
  681.102,1444.78 681.102,1463.68 
  "/>
<polyline clip-path="url(#clip440)" style="stroke:#333333; stroke-linecap:butt; stroke-linejoin:round; stroke-width:4; stroke-opacity:1; fill:none" points="
  882.506,1444.78 882.506,1463.68 
  "/>
<polyline clip-path="url(#clip440)" style="stroke:#333333; stroke-linecap:butt; stroke-linejoin:round; stroke-width:4; stroke-opacity:1; fill:none" points="
  1083.91,1444.78 1083.91,1463.68 
  "/>
<polyline clip-path="url(#clip440)" style="stroke:#333333; stroke-linecap:butt; stroke-linejoin:round; stroke-width:4; stroke-opacity:1; fill:none" points="
  1285.31,1444.78 1285.31,1463.68 
  "/>
<polyline clip-path="url(#clip440)" style="stroke:#333333; stroke-linecap:butt; stroke-linejoin:round; stroke-width:4; stroke-opacity:1; fill:none" points="
  1486.72,1444.78 1486.72,1463.68 
  "/>
<polyline clip-path="url(#clip440)" style="stroke:#333333; stroke-linecap:butt; stroke-linejoin:round; stroke-width:4; stroke-opacity:1; fill:none" points="
  1688.12,1444.78 1688.12,1463.68 
  "/>
<polyline clip-path="url(#clip440)" style="stroke:#333333; stroke-linecap:butt; stroke-linejoin:round; stroke-width:4; stroke-opacity:1; fill:none" points="
  1889.53,1444.78 1889.53,1463.68 
  "/>
<polyline clip-path="url(#clip440)" style="stroke:#333333; stroke-linecap:butt; stroke-linejoin:round; stroke-width:4; stroke-opacity:1; fill:none" points="
  2090.93,1444.78 2090.93,1463.68 
  "/>
<polyline clip-path="url(#clip440)" style="stroke:#333333; stroke-linecap:butt; stroke-linejoin:round; stroke-width:4; stroke-opacity:1; fill:none" points="
  2292.33,1444.78 2292.33,1463.68 
  "/>
<polyline clip-path="url(#clip440)" style="stroke:#333333; stroke-linecap:butt; stroke-linejoin:round; stroke-width:4; stroke-opacity:1; fill:none" points="
  378.996,1444.78 378.996,1454.23 
  "/>
<polyline clip-path="url(#clip440)" style="stroke:#333333; stroke-linecap:butt; stroke-linejoin:round; stroke-width:4; stroke-opacity:1; fill:none" points="
  580.4,1444.78 580.4,1454.23 
  "/>
<polyline clip-path="url(#clip440)" style="stroke:#333333; stroke-linecap:butt; stroke-linejoin:round; stroke-width:4; stroke-opacity:1; fill:none" points="
  781.804,1444.78 781.804,1454.23 
  "/>
<polyline clip-path="url(#clip440)" style="stroke:#333333; stroke-linecap:butt; stroke-linejoin:round; stroke-width:4; stroke-opacity:1; fill:none" points="
  983.208,1444.78 983.208,1454.23 
  "/>
<polyline clip-path="url(#clip440)" style="stroke:#333333; stroke-linecap:butt; stroke-linejoin:round; stroke-width:4; stroke-opacity:1; fill:none" points="
  1184.61,1444.78 1184.61,1454.23 
  "/>
<polyline clip-path="url(#clip440)" style="stroke:#333333; stroke-linecap:butt; stroke-linejoin:round; stroke-width:4; stroke-opacity:1; fill:none" points="
  1386.02,1444.78 1386.02,1454.23 
  "/>
<polyline clip-path="url(#clip440)" style="stroke:#333333; stroke-linecap:butt; stroke-linejoin:round; stroke-width:4; stroke-opacity:1; fill:none" points="
  1587.42,1444.78 1587.42,1454.23 
  "/>
<polyline clip-path="url(#clip440)" style="stroke:#333333; stroke-linecap:butt; stroke-linejoin:round; stroke-width:4; stroke-opacity:1; fill:none" points="
  1788.82,1444.78 1788.82,1454.23 
  "/>
<polyline clip-path="url(#clip440)" style="stroke:#333333; stroke-linecap:butt; stroke-linejoin:round; stroke-width:4; stroke-opacity:1; fill:none" points="
  1990.23,1444.78 1990.23,1454.23 
  "/>
<polyline clip-path="url(#clip440)" style="stroke:#333333; stroke-linecap:butt; stroke-linejoin:round; stroke-width:4; stroke-opacity:1; fill:none" points="
  2191.63,1444.78 2191.63,1454.23 
  "/>
<path clip-path="url(#clip440)" d="M278.294 1482.37 Q275.586 1482.37 274.214 1485.04 Q272.86 1487.7 272.86 1493.05 Q272.86 1498.38 274.214 1501.05 Q275.586 1503.71 278.294 1503.71 Q281.02 1503.71 282.374 1501.05 Q283.745 1498.38 283.745 1493.05 Q283.745 1487.7 282.374 1485.04 Q281.02 1482.37 278.294 1482.37 M278.294 1479.59 Q282.651 1479.59 284.943 1483.05 Q287.252 1486.48 287.252 1493.05 Q287.252 1499.59 284.943 1503.05 Q282.651 1506.48 278.294 1506.48 Q273.936 1506.48 271.627 1503.05 Q269.336 1499.59 269.336 1493.05 Q269.336 1486.48 271.627 1483.05 Q273.936 1479.59 278.294 1479.59 Z" fill="#4c4c4c" fill-rule="evenodd" fill-opacity="1" /><path clip-path="url(#clip440)" d="M460.714 1503.03 L466.443 1503.03 L466.443 1483.25 L460.21 1484.5 L460.21 1481.31 L466.408 1480.06 L469.915 1480.06 L469.915 1503.03 L475.644 1503.03 L475.644 1505.98 L460.714 1505.98 L460.714 1503.03 Z" fill="#4c4c4c" fill-rule="evenodd" fill-opacity="1" /><path clip-path="url(#clip440)" d="M490.227 1482.37 Q487.519 1482.37 486.148 1485.04 Q484.793 1487.7 484.793 1493.05 Q484.793 1498.38 486.148 1501.05 Q487.519 1503.71 490.227 1503.71 Q492.953 1503.71 494.307 1501.05 Q495.679 1498.38 495.679 1493.05 Q495.679 1487.7 494.307 1485.04 Q492.953 1482.37 490.227 1482.37 M490.227 1479.59 Q494.585 1479.59 496.877 1483.05 Q499.186 1486.48 499.186 1493.05 Q499.186 1499.59 496.877 1503.05 Q494.585 1506.48 490.227 1506.48 Q485.87 1506.48 483.561 1503.05 Q481.269 1499.59 481.269 1493.05 Q481.269 1486.48 483.561 1483.05 Q485.87 1479.59 490.227 1479.59 Z" fill="#4c4c4c" fill-rule="evenodd" fill-opacity="1" /><path clip-path="url(#clip440)" d="M665.182 1503.03 L677.421 1503.03 L677.421 1505.98 L660.963 1505.98 L660.963 1503.03 Q662.96 1500.96 666.397 1497.49 Q669.852 1494 670.738 1492.99 Q672.422 1491.1 673.081 1489.8 Q673.758 1488.48 673.758 1487.21 Q673.758 1485.15 672.3 1483.84 Q670.859 1482.54 668.533 1482.54 Q666.883 1482.54 665.043 1483.12 Q663.22 1483.69 661.137 1484.85 L661.137 1481.31 Q663.255 1480.46 665.095 1480.03 Q666.935 1479.59 668.463 1479.59 Q672.491 1479.59 674.887 1481.6 Q677.283 1483.62 677.283 1486.99 Q677.283 1488.58 676.675 1490.03 Q676.085 1491.45 674.505 1493.39 Q674.071 1493.9 671.744 1496.31 Q669.418 1498.71 665.182 1503.03 Z" fill="#4c4c4c" fill-rule="evenodd" fill-opacity="1" /><path clip-path="url(#clip440)" d="M692.283 1482.37 Q689.574 1482.37 688.203 1485.04 Q686.849 1487.7 686.849 1493.05 Q686.849 1498.38 688.203 1501.05 Q689.574 1503.71 692.283 1503.71 Q695.008 1503.71 696.362 1501.05 Q697.734 1498.38 697.734 1493.05 Q697.734 1487.7 696.362 1485.04 Q695.008 1482.37 692.283 1482.37 M692.283 1479.59 Q696.64 1479.59 698.932 1483.05 Q701.241 1486.48 701.241 1493.05 Q701.241 1499.59 698.932 1503.05 Q696.64 1506.48 692.283 1506.48 Q687.925 1506.48 685.616 1503.05 Q683.324 1499.59 683.324 1493.05 Q683.324 1486.48 685.616 1483.05 Q687.925 1479.59 692.283 1479.59 Z" fill="#4c4c4c" fill-rule="evenodd" fill-opacity="1" /><path clip-path="url(#clip440)" d="M874.138 1492 Q876.655 1492.54 878.062 1494.24 Q879.485 1495.95 879.485 1498.45 Q879.485 1502.28 876.846 1504.38 Q874.208 1506.48 869.346 1506.48 Q867.715 1506.48 865.978 1506.15 Q864.26 1505.84 862.419 1505.2 L862.419 1501.81 Q863.878 1502.66 865.614 1503.1 Q867.35 1503.53 869.242 1503.53 Q872.541 1503.53 874.26 1502.23 Q875.996 1500.93 875.996 1498.45 Q875.996 1496.15 874.381 1494.87 Q872.784 1493.57 869.919 1493.57 L866.899 1493.57 L866.899 1490.68 L870.058 1490.68 Q872.645 1490.68 874.017 1489.66 Q875.388 1488.62 875.388 1486.67 Q875.388 1484.68 873.964 1483.62 Q872.558 1482.54 869.919 1482.54 Q868.478 1482.54 866.829 1482.85 Q865.18 1483.17 863.201 1483.83 L863.201 1480.7 Q865.197 1480.15 866.933 1479.87 Q868.687 1479.59 870.232 1479.59 Q874.225 1479.59 876.551 1481.41 Q878.878 1483.22 878.878 1486.31 Q878.878 1488.46 877.645 1489.96 Q876.412 1491.43 874.138 1492 Z" fill="#4c4c4c" fill-rule="evenodd" fill-opacity="1" /><path clip-path="url(#clip440)" d="M893.635 1482.37 Q890.926 1482.37 889.555 1485.04 Q888.201 1487.7 888.201 1493.05 Q888.201 1498.38 889.555 1501.05 Q890.926 1503.71 893.635 1503.71 Q896.36 1503.71 897.714 1501.05 Q899.086 1498.38 899.086 1493.05 Q899.086 1487.7 897.714 1485.04 Q896.36 1482.37 893.635 1482.37 M893.635 1479.59 Q897.992 1479.59 900.284 1483.05 Q902.593 1486.48 902.593 1493.05 Q902.593 1499.59 900.284 1503.05 Q897.992 1506.48 893.635 1506.48 Q889.277 1506.48 886.968 1503.05 Q884.676 1499.59 884.676 1493.05 Q884.676 1486.48 886.968 1483.05 Q889.277 1479.59 893.635 1479.59 Z" fill="#4c4c4c" fill-rule="evenodd" fill-opacity="1" /><path clip-path="url(#clip440)" d="M1075.04 1483.12 L1066.18 1496.95 L1075.04 1496.95 L1075.04 1483.12 M1074.12 1480.06 L1078.53 1480.06 L1078.53 1496.95 L1082.23 1496.95 L1082.23 1499.87 L1078.53 1499.87 L1078.53 1505.98 L1075.04 1505.98 L1075.04 1499.87 L1063.34 1499.87 L1063.34 1496.48 L1074.12 1480.06 Z" fill="#4c4c4c" fill-rule="evenodd" fill-opacity="1" /><path clip-path="url(#clip440)" d="M1095.52 1482.37 Q1092.82 1482.37 1091.44 1485.04 Q1090.09 1487.7 1090.09 1493.05 Q1090.09 1498.38 1091.44 1501.05 Q1092.82 1503.71 1095.52 1503.71 Q1098.25 1503.71 1099.6 1501.05 Q1100.98 1498.38 1100.98 1493.05 Q1100.98 1487.7 1099.6 1485.04 Q1098.25 1482.37 1095.52 1482.37 M1095.52 1479.59 Q1099.88 1479.59 1102.17 1483.05 Q1104.48 1486.48 1104.48 1493.05 Q1104.48 1499.59 1102.17 1503.05 Q1099.88 1506.48 1095.52 1506.48 Q1091.17 1506.48 1088.86 1503.05 Q1086.57 1499.59 1086.57 1493.05 Q1086.57 1486.48 1088.86 1483.05 Q1091.17 1479.59 1095.52 1479.59 Z" fill="#4c4c4c" fill-rule="evenodd" fill-opacity="1" /><path clip-path="url(#clip440)" d="M1266.34 1480.06 L1280.11 1480.06 L1280.11 1483.01 L1269.55 1483.01 L1269.55 1489.37 Q1270.31 1489.1 1271.08 1488.98 Q1271.84 1488.84 1272.61 1488.84 Q1276.95 1488.84 1279.48 1491.22 Q1282.02 1493.6 1282.02 1497.66 Q1282.02 1501.85 1279.41 1504.17 Q1276.81 1506.48 1272.07 1506.48 Q1270.44 1506.48 1268.73 1506.21 Q1267.05 1505.93 1265.24 1505.37 L1265.24 1501.85 Q1266.81 1502.7 1268.47 1503.12 Q1270.14 1503.53 1272 1503.53 Q1275 1503.53 1276.76 1501.95 Q1278.51 1500.37 1278.51 1497.66 Q1278.51 1494.96 1276.76 1493.38 Q1275 1491.8 1272 1491.8 Q1270.59 1491.8 1269.19 1492.11 Q1267.8 1492.42 1266.34 1493.08 L1266.34 1480.06 Z" fill="#4c4c4c" fill-rule="evenodd" fill-opacity="1" /><path clip-path="url(#clip440)" d="M1296.43 1482.37 Q1293.72 1482.37 1292.35 1485.04 Q1290.99 1487.7 1290.99 1493.05 Q1290.99 1498.38 1292.35 1501.05 Q1293.72 1503.71 1296.43 1503.71 Q1299.15 1503.71 1300.51 1501.05 Q1301.88 1498.38 1301.88 1493.05 Q1301.88 1487.7 1300.51 1485.04 Q1299.15 1482.37 1296.43 1482.37 M1296.43 1479.59 Q1300.78 1479.59 1303.07 1483.05 Q1305.38 1486.48 1305.38 1493.05 Q1305.38 1499.59 1303.07 1503.05 Q1300.78 1506.48 1296.43 1506.48 Q1292.07 1506.48 1289.76 1503.05 Q1287.47 1499.59 1287.47 1493.05 Q1287.47 1486.48 1289.76 1483.05 Q1292.07 1479.59 1296.43 1479.59 Z" fill="#4c4c4c" fill-rule="evenodd" fill-opacity="1" /><path clip-path="url(#clip440)" d="M1475.77 1491.62 Q1473.41 1491.62 1472.02 1493.24 Q1470.65 1494.85 1470.65 1497.66 Q1470.65 1500.46 1472.02 1502.09 Q1473.41 1503.71 1475.77 1503.71 Q1478.13 1503.71 1479.5 1502.09 Q1480.89 1500.46 1480.89 1497.66 Q1480.89 1494.85 1479.5 1493.24 Q1478.13 1491.62 1475.77 1491.62 M1482.73 1480.63 L1482.73 1483.83 Q1481.41 1483.2 1480.06 1482.87 Q1478.72 1482.54 1477.4 1482.54 Q1473.93 1482.54 1472.09 1484.89 Q1470.27 1487.23 1470.01 1491.97 Q1471.03 1490.46 1472.58 1489.66 Q1474.12 1488.84 1475.98 1488.84 Q1479.89 1488.84 1482.14 1491.22 Q1484.42 1493.58 1484.42 1497.66 Q1484.42 1501.66 1482.06 1504.07 Q1479.7 1506.48 1475.77 1506.48 Q1471.28 1506.48 1468.9 1503.05 Q1466.52 1499.59 1466.52 1493.05 Q1466.52 1486.9 1469.44 1483.25 Q1472.35 1479.59 1477.27 1479.59 Q1478.58 1479.59 1479.92 1479.85 Q1481.28 1480.11 1482.73 1480.63 Z" fill="#4c4c4c" fill-rule="evenodd" fill-opacity="1" /><path clip-path="url(#clip440)" d="M1497.96 1482.37 Q1495.25 1482.37 1493.88 1485.04 Q1492.53 1487.7 1492.53 1493.05 Q1492.53 1498.38 1493.88 1501.05 Q1495.25 1503.71 1497.96 1503.71 Q1500.69 1503.71 1502.04 1501.05 Q1503.41 1498.38 1503.41 1493.05 Q1503.41 1487.7 1502.04 1485.04 Q1500.69 1482.37 1497.96 1482.37 M1497.96 1479.59 Q1502.32 1479.59 1504.61 1483.05 Q1506.92 1486.48 1506.92 1493.05 Q1506.92 1499.59 1504.61 1503.05 Q1502.32 1506.48 1497.96 1506.48 Q1493.6 1506.48 1491.29 1503.05 Q1489 1499.59 1489 1493.05 Q1489 1486.48 1491.29 1483.05 Q1493.6 1479.59 1497.96 1479.59 Z" fill="#4c4c4c" fill-rule="evenodd" fill-opacity="1" /><path clip-path="url(#clip440)" d="M1668.14 1480.06 L1684.81 1480.06 L1684.81 1481.55 L1675.4 1505.98 L1671.73 1505.98 L1680.59 1483.01 L1668.14 1483.01 L1668.14 1480.06 Z" fill="#4c4c4c" fill-rule="evenodd" fill-opacity="1" /><path clip-path="url(#clip440)" d="M1699.15 1482.37 Q1696.44 1482.37 1695.07 1485.04 Q1693.71 1487.7 1693.71 1493.05 Q1693.71 1498.38 1695.07 1501.05 Q1696.44 1503.71 1699.15 1503.71 Q1701.87 1503.71 1703.23 1501.05 Q1704.6 1498.38 1704.6 1493.05 Q1704.6 1487.7 1703.23 1485.04 Q1701.87 1482.37 1699.15 1482.37 M1699.15 1479.59 Q1703.5 1479.59 1705.8 1483.05 Q1708.1 1486.48 1708.1 1493.05 Q1708.1 1499.59 1705.8 1503.05 Q1703.5 1506.48 1699.15 1506.48 Q1694.79 1506.48 1692.48 1503.05 Q1690.19 1499.59 1690.19 1493.05 Q1690.19 1486.48 1692.48 1483.05 Q1694.79 1479.59 1699.15 1479.59 Z" fill="#4c4c4c" fill-rule="evenodd" fill-opacity="1" /><path clip-path="url(#clip440)" d="M1878.18 1493.67 Q1875.68 1493.67 1874.24 1495.01 Q1872.82 1496.34 1872.82 1498.69 Q1872.82 1501.03 1874.24 1502.37 Q1875.68 1503.71 1878.18 1503.71 Q1880.68 1503.71 1882.12 1502.37 Q1883.56 1501.01 1883.56 1498.69 Q1883.56 1496.34 1882.12 1495.01 Q1880.7 1493.67 1878.18 1493.67 M1874.67 1492.18 Q1872.42 1491.62 1871.15 1490.08 Q1869.9 1488.53 1869.9 1486.31 Q1869.9 1483.2 1872.1 1481.4 Q1874.33 1479.59 1878.18 1479.59 Q1882.05 1479.59 1884.26 1481.4 Q1886.46 1483.2 1886.46 1486.31 Q1886.46 1488.53 1885.19 1490.08 Q1883.94 1491.62 1881.71 1492.18 Q1884.24 1492.77 1885.65 1494.49 Q1887.07 1496.21 1887.07 1498.69 Q1887.07 1502.46 1884.76 1504.47 Q1882.47 1506.48 1878.18 1506.48 Q1873.89 1506.48 1871.58 1504.47 Q1869.29 1502.46 1869.29 1498.69 Q1869.29 1496.21 1870.72 1494.49 Q1872.14 1492.77 1874.67 1492.18 M1873.39 1486.64 Q1873.39 1488.65 1874.64 1489.78 Q1875.91 1490.91 1878.18 1490.91 Q1880.44 1490.91 1881.71 1489.78 Q1882.99 1488.65 1882.99 1486.64 Q1882.99 1484.63 1881.71 1483.5 Q1880.44 1482.37 1878.18 1482.37 Q1875.91 1482.37 1874.64 1483.5 Q1873.39 1484.63 1873.39 1486.64 Z" fill="#4c4c4c" fill-rule="evenodd" fill-opacity="1" /><path clip-path="url(#clip440)" d="M1900.8 1482.37 Q1898.09 1482.37 1896.72 1485.04 Q1895.37 1487.7 1895.37 1493.05 Q1895.37 1498.38 1896.72 1501.05 Q1898.09 1503.71 1900.8 1503.71 Q1903.53 1503.71 1904.88 1501.05 Q1906.25 1498.38 1906.25 1493.05 Q1906.25 1487.7 1904.88 1485.04 Q1903.53 1482.37 1900.8 1482.37 M1900.8 1479.59 Q1905.16 1479.59 1907.45 1483.05 Q1909.76 1486.48 1909.76 1493.05 Q1909.76 1499.59 1907.45 1503.05 Q1905.16 1506.48 1900.8 1506.48 Q1896.44 1506.48 1894.14 1503.05 Q1891.84 1499.59 1891.84 1493.05 Q1891.84 1486.48 1894.14 1483.05 Q1896.44 1479.59 1900.8 1479.59 Z" fill="#4c4c4c" fill-rule="evenodd" fill-opacity="1" /><path clip-path="url(#clip440)" d="M2072.28 1505.44 L2072.28 1502.25 Q2073.6 1502.87 2074.95 1503.2 Q2076.3 1503.53 2077.61 1503.53 Q2081.08 1503.53 2082.9 1501.21 Q2084.74 1498.86 2085 1494.1 Q2083.99 1495.6 2082.45 1496.4 Q2080.9 1497.2 2079.03 1497.2 Q2075.14 1497.2 2072.87 1494.85 Q2070.61 1492.49 2070.61 1488.41 Q2070.61 1484.42 2072.97 1482 Q2075.33 1479.59 2079.26 1479.59 Q2083.75 1479.59 2086.11 1483.05 Q2088.49 1486.48 2088.49 1493.05 Q2088.49 1499.17 2085.57 1502.84 Q2082.68 1506.48 2077.76 1506.48 Q2076.44 1506.48 2075.09 1506.22 Q2073.73 1505.96 2072.28 1505.44 M2079.26 1494.45 Q2081.62 1494.45 2082.99 1492.84 Q2084.38 1491.22 2084.38 1488.41 Q2084.38 1485.62 2082.99 1484 Q2081.62 1482.37 2079.26 1482.37 Q2076.89 1482.37 2075.51 1484 Q2074.13 1485.62 2074.13 1488.41 Q2074.13 1491.22 2075.51 1492.84 Q2076.89 1494.45 2079.26 1494.45 Z" fill="#4c4c4c" fill-rule="evenodd" fill-opacity="1" /><path clip-path="url(#clip440)" d="M2102.29 1482.37 Q2099.59 1482.37 2098.21 1485.04 Q2096.86 1487.7 2096.86 1493.05 Q2096.86 1498.38 2098.21 1501.05 Q2099.59 1503.71 2102.29 1503.71 Q2105.02 1503.71 2106.37 1501.05 Q2107.74 1498.38 2107.74 1493.05 Q2107.74 1487.7 2106.37 1485.04 Q2105.02 1482.37 2102.29 1482.37 M2102.29 1479.59 Q2106.65 1479.59 2108.94 1483.05 Q2111.25 1486.48 2111.25 1493.05 Q2111.25 1499.59 2108.94 1503.05 Q2106.65 1506.48 2102.29 1506.48 Q2097.94 1506.48 2095.63 1503.05 Q2093.34 1499.59 2093.34 1493.05 Q2093.34 1486.48 2095.63 1483.05 Q2097.94 1479.59 2102.29 1479.59 Z" fill="#4c4c4c" fill-rule="evenodd" fill-opacity="1" /><path clip-path="url(#clip440)" d="M2262.04 1503.03 L2267.77 1503.03 L2267.77 1483.25 L2261.54 1484.5 L2261.54 1481.31 L2267.73 1480.06 L2271.24 1480.06 L2271.24 1503.03 L2276.97 1503.03 L2276.97 1505.98 L2262.04 1505.98 L2262.04 1503.03 Z" fill="#4c4c4c" fill-rule="evenodd" fill-opacity="1" /><path clip-path="url(#clip440)" d="M2291.55 1482.37 Q2288.85 1482.37 2287.47 1485.04 Q2286.12 1487.7 2286.12 1493.05 Q2286.12 1498.38 2287.47 1501.05 Q2288.85 1503.71 2291.55 1503.71 Q2294.28 1503.71 2295.63 1501.05 Q2297 1498.38 2297 1493.05 Q2297 1487.7 2295.63 1485.04 Q2294.28 1482.37 2291.55 1482.37 M2291.55 1479.59 Q2295.91 1479.59 2298.2 1483.05 Q2300.51 1486.48 2300.51 1493.05 Q2300.51 1499.59 2298.2 1503.05 Q2295.91 1506.48 2291.55 1506.48 Q2287.2 1506.48 2284.89 1503.05 Q2282.6 1499.59 2282.6 1493.05 Q2282.6 1486.48 2284.89 1483.05 Q2287.2 1479.59 2291.55 1479.59 Z" fill="#4c4c4c" fill-rule="evenodd" fill-opacity="1" /><path clip-path="url(#clip440)" d="M2314.17 1482.37 Q2311.47 1482.37 2310.1 1485.04 Q2308.74 1487.7 2308.74 1493.05 Q2308.74 1498.38 2310.1 1501.05 Q2311.47 1503.71 2314.17 1503.71 Q2316.9 1503.71 2318.25 1501.05 Q2319.63 1498.38 2319.63 1493.05 Q2319.63 1487.7 2318.25 1485.04 Q2316.9 1482.37 2314.17 1482.37 M2314.17 1479.59 Q2318.53 1479.59 2320.82 1483.05 Q2323.13 1486.48 2323.13 1493.05 Q2323.13 1499.59 2320.82 1503.05 Q2318.53 1506.48 2314.17 1506.48 Q2309.82 1506.48 2307.51 1503.05 Q2305.22 1499.59 2305.22 1493.05 Q2305.22 1486.48 2307.51 1483.05 Q2309.82 1479.59 2314.17 1479.59 Z" fill="#4c4c4c" fill-rule="evenodd" fill-opacity="1" /><path clip-path="url(#clip440)" d="M1175.91 1526.57 L1180.58 1526.57 L1180.58 1561.13 L1175.91 1561.13 L1175.91 1526.57 Z" fill="#000000" fill-rule="evenodd" fill-opacity="1" /><path clip-path="url(#clip440)" d="M1193.91 1527.84 L1193.91 1535.21 L1202.69 1535.21 L1202.69 1538.52 L1193.91 1538.52 L1193.91 1552.59 Q1193.91 1555.76 1194.77 1556.66 Q1195.65 1557.57 1198.31 1557.57 L1202.69 1557.57 L1202.69 1561.13 L1198.31 1561.13 Q1193.38 1561.13 1191.51 1559.3 Q1189.63 1557.45 1189.63 1552.59 L1189.63 1538.52 L1186.51 1538.52 L1186.51 1535.21 L1189.63 1535.21 L1189.63 1527.84 L1193.91 1527.84 Z" fill="#000000" fill-rule="evenodd" fill-opacity="1" /><path clip-path="url(#clip440)" d="M1230.47 1547.1 L1230.47 1549.19 L1210.88 1549.19 Q1211.16 1553.59 1213.52 1555.9 Q1215.9 1558.19 1220.14 1558.19 Q1222.59 1558.19 1224.89 1557.59 Q1227.2 1556.99 1229.47 1555.78 L1229.47 1559.81 Q1227.18 1560.78 1224.77 1561.29 Q1222.36 1561.8 1219.89 1561.8 Q1213.68 1561.8 1210.05 1558.19 Q1206.44 1554.58 1206.44 1548.42 Q1206.44 1542.06 1209.86 1538.33 Q1213.31 1534.58 1219.15 1534.58 Q1224.38 1534.58 1227.41 1537.96 Q1230.47 1541.32 1230.47 1547.1 M1226.21 1545.85 Q1226.16 1542.36 1224.24 1540.28 Q1222.34 1538.19 1219.19 1538.19 Q1215.63 1538.19 1213.47 1540.21 Q1211.34 1542.22 1211.02 1545.88 L1226.21 1545.85 Z" fill="#000000" fill-rule="evenodd" fill-opacity="1" /><path clip-path="url(#clip440)" d="M1252.48 1539.19 Q1251.76 1538.77 1250.9 1538.59 Q1250.07 1538.38 1249.05 1538.38 Q1245.44 1538.38 1243.5 1540.74 Q1241.58 1543.08 1241.58 1547.47 L1241.58 1561.13 L1237.29 1561.13 L1237.29 1535.21 L1241.58 1535.21 L1241.58 1539.23 Q1242.92 1536.87 1245.07 1535.74 Q1247.22 1534.58 1250.3 1534.58 Q1250.74 1534.58 1251.28 1534.65 Q1251.81 1534.7 1252.46 1534.81 L1252.48 1539.19 Z" fill="#000000" fill-rule="evenodd" fill-opacity="1" /><path clip-path="url(#clip440)" d="M1268.73 1548.1 Q1263.57 1548.1 1261.58 1549.28 Q1259.59 1550.46 1259.59 1553.31 Q1259.59 1555.58 1261.07 1556.92 Q1262.57 1558.24 1265.14 1558.24 Q1268.68 1558.24 1270.81 1555.74 Q1272.96 1553.22 1272.96 1549.05 L1272.96 1548.1 L1268.73 1548.1 M1277.22 1546.34 L1277.22 1561.13 L1272.96 1561.13 L1272.96 1557.2 Q1271.51 1559.56 1269.33 1560.69 Q1267.15 1561.8 1264.01 1561.8 Q1260.03 1561.8 1257.66 1559.58 Q1255.33 1557.34 1255.33 1553.59 Q1255.33 1549.21 1258.24 1546.99 Q1261.18 1544.77 1266.99 1544.77 L1272.96 1544.77 L1272.96 1544.35 Q1272.96 1541.41 1271.02 1539.81 Q1269.1 1538.19 1265.6 1538.19 Q1263.38 1538.19 1261.28 1538.72 Q1259.17 1539.26 1257.22 1540.32 L1257.22 1536.39 Q1259.56 1535.48 1261.76 1535.04 Q1263.96 1534.58 1266.04 1534.58 Q1271.67 1534.58 1274.45 1537.5 Q1277.22 1540.41 1277.22 1546.34 Z" fill="#000000" fill-rule="evenodd" fill-opacity="1" /><path clip-path="url(#clip440)" d="M1290.21 1527.84 L1290.21 1535.21 L1298.98 1535.21 L1298.98 1538.52 L1290.21 1538.52 L1290.21 1552.59 Q1290.21 1555.76 1291.07 1556.66 Q1291.95 1557.57 1294.61 1557.57 L1298.98 1557.57 L1298.98 1561.13 L1294.61 1561.13 Q1289.68 1561.13 1287.8 1559.3 Q1285.93 1557.45 1285.93 1552.59 L1285.93 1538.52 L1282.8 1538.52 L1282.8 1535.21 L1285.93 1535.21 L1285.93 1527.84 L1290.21 1527.84 Z" fill="#000000" fill-rule="evenodd" fill-opacity="1" /><path clip-path="url(#clip440)" d="M1304.59 1535.21 L1308.84 1535.21 L1308.84 1561.13 L1304.59 1561.13 L1304.59 1535.21 M1304.59 1525.11 L1308.84 1525.11 L1308.84 1530.51 L1304.59 1530.51 L1304.59 1525.11 Z" fill="#000000" fill-rule="evenodd" fill-opacity="1" /><path clip-path="url(#clip440)" d="M1327.8 1538.19 Q1324.38 1538.19 1322.39 1540.88 Q1320.4 1543.54 1320.4 1548.19 Q1320.4 1552.84 1322.36 1555.53 Q1324.35 1558.19 1327.8 1558.19 Q1331.21 1558.19 1333.2 1555.51 Q1335.19 1552.82 1335.19 1548.19 Q1335.19 1543.59 1333.2 1540.9 Q1331.21 1538.19 1327.8 1538.19 M1327.8 1534.58 Q1333.36 1534.58 1336.53 1538.19 Q1339.7 1541.8 1339.7 1548.19 Q1339.7 1554.56 1336.53 1558.19 Q1333.36 1561.8 1327.8 1561.8 Q1322.22 1561.8 1319.05 1558.19 Q1315.9 1554.56 1315.9 1548.19 Q1315.9 1541.8 1319.05 1538.19 Q1322.22 1534.58 1327.8 1534.58 Z" fill="#000000" fill-rule="evenodd" fill-opacity="1" /><path clip-path="url(#clip440)" d="M1368.31 1545.48 L1368.31 1561.13 L1364.05 1561.13 L1364.05 1545.62 Q1364.05 1541.94 1362.62 1540.11 Q1361.18 1538.28 1358.31 1538.28 Q1354.86 1538.28 1352.87 1540.48 Q1350.88 1542.68 1350.88 1546.48 L1350.88 1561.13 L1346.6 1561.13 L1346.6 1535.21 L1350.88 1535.21 L1350.88 1539.23 Q1352.41 1536.9 1354.47 1535.74 Q1356.55 1534.58 1359.26 1534.58 Q1363.73 1534.58 1366.02 1537.36 Q1368.31 1540.11 1368.31 1545.48 Z" fill="#000000" fill-rule="evenodd" fill-opacity="1" /><path clip-path="url(#clip440)" d="M1393.33 1535.97 L1393.33 1540 Q1391.53 1539.07 1389.58 1538.61 Q1387.64 1538.15 1385.56 1538.15 Q1382.39 1538.15 1380.79 1539.12 Q1379.21 1540.09 1379.21 1542.03 Q1379.21 1543.52 1380.35 1544.37 Q1381.48 1545.21 1384.91 1545.97 L1386.37 1546.29 Q1390.9 1547.27 1392.8 1549.05 Q1394.72 1550.81 1394.72 1553.98 Q1394.72 1557.59 1391.85 1559.7 Q1389.01 1561.8 1384.01 1561.8 Q1381.92 1561.8 1379.65 1561.39 Q1377.41 1560.99 1374.91 1560.18 L1374.91 1555.78 Q1377.27 1557.01 1379.56 1557.64 Q1381.85 1558.24 1384.1 1558.24 Q1387.11 1558.24 1388.73 1557.22 Q1390.35 1556.18 1390.35 1554.3 Q1390.35 1552.57 1389.17 1551.64 Q1388.01 1550.72 1384.05 1549.86 L1382.57 1549.51 Q1378.61 1548.68 1376.85 1546.97 Q1375.09 1545.23 1375.09 1542.22 Q1375.09 1538.56 1377.69 1536.57 Q1380.28 1534.58 1385.05 1534.58 Q1387.41 1534.58 1389.49 1534.93 Q1391.58 1535.28 1393.33 1535.97 Z" fill="#000000" fill-rule="evenodd" fill-opacity="1" /><polyline clip-path="url(#clip442)" style="stroke:#ffffff; stroke-linecap:butt; stroke-linejoin:round; stroke-width:4; stroke-opacity:1; fill:none" points="
  217.873,1314.61 2352.76,1314.61 
  "/>
<polyline clip-path="url(#clip442)" style="stroke:#ffffff; stroke-linecap:butt; stroke-linejoin:round; stroke-width:4; stroke-opacity:1; fill:none" points="
  217.873,1060.15 2352.76,1060.15 
  "/>
<polyline clip-path="url(#clip442)" style="stroke:#ffffff; stroke-linecap:butt; stroke-linejoin:round; stroke-width:4; stroke-opacity:1; fill:none" points="
  217.873,805.685 2352.76,805.685 
  "/>
<polyline clip-path="url(#clip442)" style="stroke:#ffffff; stroke-linecap:butt; stroke-linejoin:round; stroke-width:4; stroke-opacity:1; fill:none" points="
  217.873,551.22 2352.76,551.22 
  "/>
<polyline clip-path="url(#clip442)" style="stroke:#ffffff; stroke-linecap:butt; stroke-linejoin:round; stroke-width:4; stroke-opacity:1; fill:none" points="
  217.873,296.756 2352.76,296.756 
  "/>
<polyline clip-path="url(#clip442)" style="stroke:#ffffff; stroke-linecap:butt; stroke-linejoin:round; stroke-width:2; stroke-opacity:1; fill:none" points="
  217.873,1441.85 2352.76,1441.85 
  "/>
<polyline clip-path="url(#clip442)" style="stroke:#ffffff; stroke-linecap:butt; stroke-linejoin:round; stroke-width:2; stroke-opacity:1; fill:none" points="
  217.873,1187.38 2352.76,1187.38 
  "/>
<polyline clip-path="url(#clip442)" style="stroke:#ffffff; stroke-linecap:butt; stroke-linejoin:round; stroke-width:2; stroke-opacity:1; fill:none" points="
  217.873,932.917 2352.76,932.917 
  "/>
<polyline clip-path="url(#clip442)" style="stroke:#ffffff; stroke-linecap:butt; stroke-linejoin:round; stroke-width:2; stroke-opacity:1; fill:none" points="
  217.873,678.453 2352.76,678.453 
  "/>
<polyline clip-path="url(#clip442)" style="stroke:#ffffff; stroke-linecap:butt; stroke-linejoin:round; stroke-width:2; stroke-opacity:1; fill:none" points="
  217.873,423.988 2352.76,423.988 
  "/>
<polyline clip-path="url(#clip442)" style="stroke:#ffffff; stroke-linecap:butt; stroke-linejoin:round; stroke-width:2; stroke-opacity:1; fill:none" points="
  217.873,169.523 2352.76,169.523 
  "/>
<polyline clip-path="url(#clip440)" style="stroke:#ffffff; stroke-linecap:butt; stroke-linejoin:round; stroke-width:4; stroke-opacity:1; fill:none" points="
  217.873,1444.78 217.873,106.192 
  "/>
<polyline clip-path="url(#clip440)" style="stroke:#333333; stroke-linecap:butt; stroke-linejoin:round; stroke-width:4; stroke-opacity:1; fill:none" points="
  217.873,1314.61 198.975,1314.61 
  "/>
<polyline clip-path="url(#clip440)" style="stroke:#333333; stroke-linecap:butt; stroke-linejoin:round; stroke-width:4; stroke-opacity:1; fill:none" points="
  217.873,1060.15 198.975,1060.15 
  "/>
<polyline clip-path="url(#clip440)" style="stroke:#333333; stroke-linecap:butt; stroke-linejoin:round; stroke-width:4; stroke-opacity:1; fill:none" points="
  217.873,805.685 198.975,805.685 
  "/>
<polyline clip-path="url(#clip440)" style="stroke:#333333; stroke-linecap:butt; stroke-linejoin:round; stroke-width:4; stroke-opacity:1; fill:none" points="
  217.873,551.22 198.975,551.22 
  "/>
<polyline clip-path="url(#clip440)" style="stroke:#333333; stroke-linecap:butt; stroke-linejoin:round; stroke-width:4; stroke-opacity:1; fill:none" points="
  217.873,296.756 198.975,296.756 
  "/>
<polyline clip-path="url(#clip440)" style="stroke:#333333; stroke-linecap:butt; stroke-linejoin:round; stroke-width:4; stroke-opacity:1; fill:none" points="
  217.873,1441.85 208.424,1441.85 
  "/>
<polyline clip-path="url(#clip440)" style="stroke:#333333; stroke-linecap:butt; stroke-linejoin:round; stroke-width:4; stroke-opacity:1; fill:none" points="
  217.873,1187.38 208.424,1187.38 
  "/>
<polyline clip-path="url(#clip440)" style="stroke:#333333; stroke-linecap:butt; stroke-linejoin:round; stroke-width:4; stroke-opacity:1; fill:none" points="
  217.873,932.917 208.424,932.917 
  "/>
<polyline clip-path="url(#clip440)" style="stroke:#333333; stroke-linecap:butt; stroke-linejoin:round; stroke-width:4; stroke-opacity:1; fill:none" points="
  217.873,678.453 208.424,678.453 
  "/>
<polyline clip-path="url(#clip440)" style="stroke:#333333; stroke-linecap:butt; stroke-linejoin:round; stroke-width:4; stroke-opacity:1; fill:none" points="
  217.873,423.988 208.424,423.988 
  "/>
<polyline clip-path="url(#clip440)" style="stroke:#333333; stroke-linecap:butt; stroke-linejoin:round; stroke-width:4; stroke-opacity:1; fill:none" points="
  217.873,169.523 208.424,169.523 
  "/>
<path clip-path="url(#clip440)" d="M84.4113 1314.95 L106.668 1314.95 L106.668 1317.9 L84.4113 1317.9 L84.4113 1314.95 Z" fill="#4c4c4c" fill-rule="evenodd" fill-opacity="1" /><path clip-path="url(#clip440)" d="M122.171 1313.22 Q119.81 1313.22 118.421 1314.83 Q117.05 1316.45 117.05 1319.26 Q117.05 1322.05 118.421 1323.69 Q119.81 1325.3 122.171 1325.3 Q124.533 1325.3 125.904 1323.69 Q127.293 1322.05 127.293 1319.26 Q127.293 1316.45 125.904 1314.83 Q124.533 1313.22 122.171 1313.22 M129.133 1302.23 L129.133 1305.42 Q127.814 1304.8 126.46 1304.47 Q125.123 1304.14 123.803 1304.14 Q120.331 1304.14 118.491 1306.48 Q116.668 1308.82 116.408 1313.56 Q117.432 1312.05 118.977 1311.26 Q120.522 1310.44 122.38 1310.44 Q126.286 1310.44 128.543 1312.82 Q130.817 1315.18 130.817 1319.26 Q130.817 1323.25 128.456 1325.66 Q126.095 1328.08 122.171 1328.08 Q117.675 1328.08 115.297 1324.64 Q112.918 1321.19 112.918 1314.64 Q112.918 1308.49 115.835 1304.85 Q118.751 1301.19 123.665 1301.19 Q124.984 1301.19 126.321 1301.45 Q127.675 1301.71 129.133 1302.23 Z" fill="#4c4c4c" fill-rule="evenodd" fill-opacity="1" /><path clip-path="url(#clip440)" d="M136.859 1323.16 L140.522 1323.16 L140.522 1327.57 L136.859 1327.57 L136.859 1323.16 Z" fill="#4c4c4c" fill-rule="evenodd" fill-opacity="1" /><path clip-path="url(#clip440)" d="M148.196 1301.65 L161.963 1301.65 L161.963 1304.61 L151.407 1304.61 L151.407 1310.96 Q152.171 1310.7 152.935 1310.58 Q153.699 1310.44 154.463 1310.44 Q158.803 1310.44 161.338 1312.82 Q163.873 1315.2 163.873 1319.26 Q163.873 1323.44 161.268 1325.77 Q158.664 1328.08 153.925 1328.08 Q152.293 1328.08 150.591 1327.8 Q148.907 1327.52 147.102 1326.97 L147.102 1323.44 Q148.664 1324.29 150.331 1324.71 Q151.998 1325.13 153.855 1325.13 Q156.859 1325.13 158.612 1323.55 Q160.366 1321.97 160.366 1319.26 Q160.366 1316.55 158.612 1314.97 Q156.859 1313.39 153.855 1313.39 Q152.449 1313.39 151.043 1313.7 Q149.654 1314.02 148.196 1314.68 L148.196 1301.65 Z" fill="#4c4c4c" fill-rule="evenodd" fill-opacity="1" /><path clip-path="url(#clip440)" d="M83.3002 1060.49 L105.557 1060.49 L105.557 1063.44 L83.3002 1063.44 L83.3002 1060.49 Z" fill="#4c4c4c" fill-rule="evenodd" fill-opacity="1" /><path clip-path="url(#clip440)" d="M121.06 1058.75 Q118.699 1058.75 117.31 1060.37 Q115.939 1061.98 115.939 1064.79 Q115.939 1067.59 117.31 1069.22 Q118.699 1070.84 121.06 1070.84 Q123.421 1070.84 124.793 1069.22 Q126.182 1067.59 126.182 1064.79 Q126.182 1061.98 124.793 1060.37 Q123.421 1058.75 121.06 1058.75 M128.022 1047.76 L128.022 1050.96 Q126.703 1050.33 125.349 1050 Q124.012 1049.67 122.692 1049.67 Q119.22 1049.67 117.38 1052.02 Q115.557 1054.36 115.297 1059.1 Q116.321 1057.59 117.866 1056.79 Q119.411 1055.97 121.269 1055.97 Q125.175 1055.97 127.432 1058.35 Q129.706 1060.71 129.706 1064.79 Q129.706 1068.79 127.345 1071.2 Q124.984 1073.61 121.06 1073.61 Q116.564 1073.61 114.185 1070.18 Q111.807 1066.72 111.807 1060.18 Q111.807 1054.03 114.724 1050.38 Q117.64 1046.72 122.553 1046.72 Q123.873 1046.72 125.21 1046.98 Q126.564 1047.24 128.022 1047.76 Z" fill="#4c4c4c" fill-rule="evenodd" fill-opacity="1" /><path clip-path="url(#clip440)" d="M135.748 1068.7 L139.411 1068.7 L139.411 1073.11 L135.748 1073.11 L135.748 1068.7 Z" fill="#4c4c4c" fill-rule="evenodd" fill-opacity="1" /><path clip-path="url(#clip440)" d="M156.685 1050.25 L147.831 1064.08 L156.685 1064.08 L156.685 1050.25 M155.765 1047.19 L160.175 1047.19 L160.175 1064.08 L163.873 1064.08 L163.873 1067 L160.175 1067 L160.175 1073.11 L156.685 1073.11 L156.685 1067 L144.984 1067 L144.984 1063.61 L155.765 1047.19 Z" fill="#4c4c4c" fill-rule="evenodd" fill-opacity="1" /><path clip-path="url(#clip440)" d="M84.1508 806.024 L106.408 806.024 L106.408 808.975 L84.1508 808.975 L84.1508 806.024 Z" fill="#4c4c4c" fill-rule="evenodd" fill-opacity="1" /><path clip-path="url(#clip440)" d="M121.911 804.287 Q119.55 804.287 118.161 805.902 Q116.79 807.517 116.79 810.329 Q116.79 813.124 118.161 814.756 Q119.55 816.371 121.911 816.371 Q124.272 816.371 125.644 814.756 Q127.033 813.124 127.033 810.329 Q127.033 807.517 125.644 805.902 Q124.272 804.287 121.911 804.287 M128.873 793.298 L128.873 796.492 Q127.553 795.867 126.199 795.537 Q124.862 795.208 123.543 795.208 Q120.071 795.208 118.231 797.551 Q116.408 799.895 116.147 804.635 Q117.172 803.124 118.717 802.326 Q120.262 801.51 122.119 801.51 Q126.026 801.51 128.283 803.888 Q130.557 806.249 130.557 810.329 Q130.557 814.322 128.196 816.735 Q125.835 819.148 121.911 819.148 Q117.415 819.148 115.036 815.711 Q112.658 812.256 112.658 805.711 Q112.658 799.565 115.574 795.919 Q118.491 792.256 123.404 792.256 Q124.724 792.256 126.06 792.517 Q127.415 792.777 128.873 793.298 Z" fill="#4c4c4c" fill-rule="evenodd" fill-opacity="1" /><path clip-path="url(#clip440)" d="M136.598 814.235 L140.262 814.235 L140.262 818.645 L136.598 818.645 L136.598 814.235 Z" fill="#4c4c4c" fill-rule="evenodd" fill-opacity="1" /><path clip-path="url(#clip440)" d="M158.525 804.669 Q161.043 805.208 162.449 806.909 Q163.873 808.61 163.873 811.11 Q163.873 814.947 161.234 817.048 Q158.595 819.148 153.734 819.148 Q152.102 819.148 150.366 818.819 Q148.647 818.506 146.807 817.864 L146.807 814.478 Q148.265 815.329 150.001 815.763 Q151.737 816.197 153.63 816.197 Q156.928 816.197 158.647 814.895 Q160.383 813.593 160.383 811.11 Q160.383 808.819 158.769 807.534 Q157.171 806.232 154.307 806.232 L151.286 806.232 L151.286 803.35 L154.446 803.35 Q157.032 803.35 158.404 802.326 Q159.775 801.284 159.775 799.34 Q159.775 797.343 158.352 796.284 Q156.946 795.208 154.307 795.208 Q152.866 795.208 151.216 795.52 Q149.567 795.833 147.588 796.492 L147.588 793.367 Q149.585 792.812 151.321 792.534 Q153.074 792.256 154.619 792.256 Q158.612 792.256 160.939 794.079 Q163.265 795.885 163.265 798.975 Q163.265 801.128 162.032 802.621 Q160.8 804.096 158.525 804.669 Z" fill="#4c4c4c" fill-rule="evenodd" fill-opacity="1" /><path clip-path="url(#clip440)" d="M84.8626 551.559 L107.119 551.559 L107.119 554.51 L84.8626 554.51 L84.8626 551.559 Z" fill="#4c4c4c" fill-rule="evenodd" fill-opacity="1" /><path clip-path="url(#clip440)" d="M122.623 549.823 Q120.262 549.823 118.873 551.437 Q117.501 553.052 117.501 555.864 Q117.501 558.659 118.873 560.291 Q120.262 561.906 122.623 561.906 Q124.984 561.906 126.355 560.291 Q127.744 558.659 127.744 555.864 Q127.744 553.052 126.355 551.437 Q124.984 549.823 122.623 549.823 M129.585 538.833 L129.585 542.028 Q128.265 541.403 126.911 541.073 Q125.574 540.743 124.255 540.743 Q120.783 540.743 118.942 543.087 Q117.119 545.43 116.859 550.17 Q117.883 548.66 119.428 547.861 Q120.974 547.045 122.831 547.045 Q126.737 547.045 128.994 549.423 Q131.269 551.785 131.269 555.864 Q131.269 559.857 128.908 562.271 Q126.546 564.684 122.623 564.684 Q118.126 564.684 115.748 561.246 Q113.369 557.791 113.369 551.246 Q113.369 545.101 116.286 541.455 Q119.203 537.792 124.116 537.792 Q125.435 537.792 126.772 538.052 Q128.126 538.312 129.585 538.833 Z" fill="#4c4c4c" fill-rule="evenodd" fill-opacity="1" /><path clip-path="url(#clip440)" d="M137.31 559.771 L140.973 559.771 L140.973 564.18 L137.31 564.18 L137.31 559.771 Z" fill="#4c4c4c" fill-rule="evenodd" fill-opacity="1" /><path clip-path="url(#clip440)" d="M151.633 561.229 L163.873 561.229 L163.873 564.18 L147.414 564.18 L147.414 561.229 Q149.411 559.163 152.848 555.691 Q156.303 552.201 157.189 551.194 Q158.873 549.302 159.532 548 Q160.209 546.68 160.209 545.413 Q160.209 543.347 158.751 542.045 Q157.31 540.743 154.984 540.743 Q153.335 540.743 151.494 541.316 Q149.671 541.889 147.588 543.052 L147.588 539.51 Q149.706 538.66 151.546 538.226 Q153.387 537.792 154.914 537.792 Q158.942 537.792 161.338 539.805 Q163.734 541.819 163.734 545.187 Q163.734 546.785 163.126 548.225 Q162.536 549.649 160.956 551.594 Q160.522 552.097 158.196 554.51 Q155.869 556.906 151.633 561.229 Z" fill="#4c4c4c" fill-rule="evenodd" fill-opacity="1" /><path clip-path="url(#clip440)" d="M84.5849 297.094 L106.842 297.094 L106.842 300.045 L84.5849 300.045 L84.5849 297.094 Z" fill="#4c4c4c" fill-rule="evenodd" fill-opacity="1" /><path clip-path="url(#clip440)" d="M122.345 295.358 Q119.984 295.358 118.595 296.973 Q117.224 298.587 117.224 301.4 Q117.224 304.195 118.595 305.827 Q119.984 307.441 122.345 307.441 Q124.706 307.441 126.078 305.827 Q127.467 304.195 127.467 301.4 Q127.467 298.587 126.078 296.973 Q124.706 295.358 122.345 295.358 M129.307 284.368 L129.307 287.563 Q127.987 286.938 126.633 286.608 Q125.296 286.278 123.977 286.278 Q120.505 286.278 118.665 288.622 Q116.842 290.966 116.581 295.705 Q117.606 294.195 119.151 293.396 Q120.696 292.58 122.553 292.58 Q126.46 292.58 128.717 294.959 Q130.991 297.32 130.991 301.4 Q130.991 305.393 128.63 307.806 Q126.269 310.219 122.345 310.219 Q117.849 310.219 115.47 306.782 Q113.092 303.327 113.092 296.782 Q113.092 290.636 116.008 286.99 Q118.925 283.327 123.838 283.327 Q125.158 283.327 126.494 283.587 Q127.849 283.848 129.307 284.368 Z" fill="#4c4c4c" fill-rule="evenodd" fill-opacity="1" /><path clip-path="url(#clip440)" d="M137.033 305.306 L140.696 305.306 L140.696 309.716 L137.033 309.716 L137.033 305.306 Z" fill="#4c4c4c" fill-rule="evenodd" fill-opacity="1" /><path clip-path="url(#clip440)" d="M148.942 306.764 L154.671 306.764 L154.671 286.99 L148.439 288.24 L148.439 285.046 L154.637 283.796 L158.144 283.796 L158.144 306.764 L163.873 306.764 L163.873 309.716 L148.942 309.716 L148.942 306.764 Z" fill="#4c4c4c" fill-rule="evenodd" fill-opacity="1" /><path clip-path="url(#clip440)" d="M20.3722 985.184 L20.3722 955.948 L24.3073 955.948 L24.3073 968.216 L54.9322 968.216 L54.9322 972.915 L24.3073 972.915 L24.3073 985.184 L20.3722 985.184 Z" fill="#000000" fill-rule="evenodd" fill-opacity="1" /><path clip-path="url(#clip440)" d="M40.9045 937.499 L42.9878 937.499 L42.9878 957.082 Q47.3859 956.804 49.7007 954.443 Q51.9924 952.059 51.9924 947.823 Q51.9924 945.369 51.3905 943.078 Q50.7887 940.763 49.585 938.494 L53.6127 938.494 Q54.5849 940.786 55.0942 943.193 Q55.6035 945.601 55.6035 948.078 Q55.6035 954.281 51.9924 957.916 Q48.3813 961.527 42.2239 961.527 Q35.8582 961.527 32.1314 958.101 Q28.3814 954.652 28.3814 948.818 Q28.3814 943.587 31.761 940.555 Q35.1174 937.499 40.9045 937.499 M39.6545 941.758 Q36.1591 941.805 34.0758 943.726 Q31.9925 945.624 31.9925 948.772 Q31.9925 952.337 34.0063 954.49 Q36.0202 956.619 39.6776 956.943 L39.6545 941.758 Z" fill="#000000" fill-rule="evenodd" fill-opacity="1" /><path clip-path="url(#clip440)" d="M29.7703 913.981 L33.798 913.981 Q32.8721 915.786 32.4091 917.731 Q31.9462 919.675 31.9462 921.758 Q31.9462 924.93 32.9184 926.527 Q33.8906 928.101 35.835 928.101 Q37.3165 928.101 38.173 926.967 Q39.0063 925.832 39.7702 922.406 L40.0943 920.948 Q41.0665 916.411 42.8489 914.513 Q44.6081 912.592 47.7794 912.592 Q51.3905 912.592 53.497 915.462 Q55.6035 918.309 55.6035 923.309 Q55.6035 925.393 55.1868 927.661 Q54.7933 929.906 53.9831 932.406 L49.585 932.406 Q50.8118 930.045 51.4368 927.754 Q52.0387 925.462 52.0387 923.217 Q52.0387 920.207 51.0201 918.587 Q49.9785 916.967 48.1035 916.967 Q46.3674 916.967 45.4415 918.147 Q44.5155 919.305 43.6591 923.263 L43.3118 924.744 Q42.4785 928.703 40.7656 930.462 Q39.0295 932.221 36.0202 932.221 Q32.3628 932.221 30.3721 929.629 Q28.3814 927.036 28.3814 922.268 Q28.3814 919.907 28.7286 917.823 Q29.0758 915.74 29.7703 913.981 Z" fill="#000000" fill-rule="evenodd" fill-opacity="1" /><path clip-path="url(#clip440)" d="M21.6453 901.596 L29.0064 901.596 L29.0064 892.823 L32.3165 892.823 L32.3165 901.596 L46.3905 901.596 Q49.5618 901.596 50.4646 900.74 Q51.3674 899.86 51.3674 897.198 L51.3674 892.823 L54.9322 892.823 L54.9322 897.198 Q54.9322 902.129 53.1035 904.004 Q51.2516 905.879 46.3905 905.879 L32.3165 905.879 L32.3165 909.004 L29.0064 909.004 L29.0064 905.879 L21.6453 905.879 L21.6453 901.596 Z" fill="#000000" fill-rule="evenodd" fill-opacity="1" /><path clip-path="url(#clip440)" d="M18.9138 872.152 L18.9138 867.893 L54.9322 867.893 L54.9322 872.152 L18.9138 872.152 Z" fill="#000000" fill-rule="evenodd" fill-opacity="1" /><path clip-path="url(#clip440)" d="M31.9925 848.935 Q31.9925 852.361 34.6776 854.351 Q37.3397 856.342 41.9924 856.342 Q46.6452 856.342 49.3303 854.374 Q51.9924 852.384 51.9924 848.935 Q51.9924 845.532 49.3072 843.541 Q46.622 841.55 41.9924 841.55 Q37.386 841.55 34.7008 843.541 Q31.9925 845.532 31.9925 848.935 M28.3814 848.935 Q28.3814 843.379 31.9925 840.208 Q35.6036 837.037 41.9924 837.037 Q48.3581 837.037 51.9924 840.208 Q55.6035 843.379 55.6035 848.935 Q55.6035 854.513 51.9924 857.685 Q48.3581 860.833 41.9924 860.833 Q35.6036 860.833 31.9925 857.685 Q28.3814 854.513 28.3814 848.935 Z" fill="#000000" fill-rule="evenodd" fill-opacity="1" /><path clip-path="url(#clip440)" d="M41.6683 812.916 Q37.0387 812.916 34.4925 814.838 Q31.9462 816.736 31.9462 820.185 Q31.9462 823.611 34.4925 825.532 Q37.0387 827.43 41.6683 827.43 Q46.2748 827.43 48.8211 825.532 Q51.3674 823.611 51.3674 820.185 Q51.3674 816.736 48.8211 814.838 Q46.2748 812.916 41.6683 812.916 M51.7146 808.657 Q58.3349 808.657 61.5525 811.597 Q64.7932 814.537 64.7932 820.601 Q64.7932 822.847 64.446 824.838 Q64.1219 826.828 63.4275 828.703 L59.284 828.703 Q60.3025 826.828 60.7886 825 Q61.2747 823.171 61.2747 821.273 Q61.2747 817.083 59.0757 815 Q56.8997 812.916 52.4785 812.916 L50.372 812.916 Q52.6637 814.236 53.7979 816.296 Q54.9322 818.356 54.9322 821.226 Q54.9322 825.995 51.2979 828.912 Q47.6637 831.828 41.6683 831.828 Q35.6499 831.828 32.0156 828.912 Q28.3814 825.995 28.3814 821.226 Q28.3814 818.356 29.5156 816.296 Q30.6499 814.236 32.9415 812.916 L29.0064 812.916 L29.0064 808.657 L51.7146 808.657 Z" fill="#000000" fill-rule="evenodd" fill-opacity="1" /><path clip-path="url(#clip440)" d="M40.048 802.037 L40.048 789.56 L43.8443 789.56 L43.8443 802.037 L40.048 802.037 Z" fill="#000000" fill-rule="evenodd" fill-opacity="1" /><path clip-path="url(#clip440)" d="M18.9138 782.778 L18.9138 778.518 L54.9322 778.518 L54.9322 782.778 L18.9138 782.778 Z" fill="#000000" fill-rule="evenodd" fill-opacity="1" /><path clip-path="url(#clip440)" d="M29.0064 769.606 L29.0064 765.347 L54.9322 765.347 L54.9322 769.606 L29.0064 769.606 M18.9138 769.606 L18.9138 765.347 L24.3073 765.347 L24.3073 769.606 L18.9138 769.606 Z" fill="#000000" fill-rule="evenodd" fill-opacity="1" /><path clip-path="url(#clip440)" d="M18.9138 756.597 L18.9138 752.315 L40.1869 752.315 L29.0064 739.607 L29.0064 734.167 L41.1359 747.917 L54.9322 733.588 L54.9322 739.144 L42.2702 752.315 L54.9322 752.315 L54.9322 756.597 L18.9138 756.597 Z" fill="#000000" fill-rule="evenodd" fill-opacity="1" /><path clip-path="url(#clip440)" d="M40.9045 708.496 L42.9878 708.496 L42.9878 728.079 Q47.3859 727.801 49.7007 725.44 Q51.9924 723.056 51.9924 718.82 Q51.9924 716.366 51.3905 714.074 Q50.7887 711.759 49.585 709.491 L53.6127 709.491 Q54.5849 711.783 55.0942 714.19 Q55.6035 716.597 55.6035 719.074 Q55.6035 725.278 51.9924 728.912 Q48.3813 732.523 42.2239 732.523 Q35.8582 732.523 32.1314 729.097 Q28.3814 725.648 28.3814 719.815 Q28.3814 714.584 31.761 711.551 Q35.1174 708.496 40.9045 708.496 M39.6545 712.755 Q36.1591 712.801 34.0758 714.722 Q31.9925 716.621 31.9925 719.769 Q31.9925 723.333 34.0063 725.486 Q36.0202 727.616 39.6776 727.94 L39.6545 712.755 Z" fill="#000000" fill-rule="evenodd" fill-opacity="1" /><path clip-path="url(#clip440)" d="M18.9138 701.505 L18.9138 697.246 L54.9322 697.246 L54.9322 701.505 L18.9138 701.505 Z" fill="#000000" fill-rule="evenodd" fill-opacity="1" /><path clip-path="url(#clip440)" d="M29.0064 688.334 L29.0064 684.074 L54.9322 684.074 L54.9322 688.334 L29.0064 688.334 M18.9138 688.334 L18.9138 684.074 L24.3073 684.074 L24.3073 688.334 L18.9138 688.334 Z" fill="#000000" fill-rule="evenodd" fill-opacity="1" /><path clip-path="url(#clip440)" d="M39.2841 653.612 L54.9322 653.612 L54.9322 657.871 L39.423 657.871 Q35.7424 657.871 33.9138 659.306 Q32.0851 660.741 32.0851 663.612 Q32.0851 667.061 34.2841 669.051 Q36.4832 671.042 40.2795 671.042 L54.9322 671.042 L54.9322 675.324 L18.9138 675.324 L18.9138 671.042 L33.0341 671.042 Q30.6962 669.514 29.5388 667.454 Q28.3814 665.371 28.3814 662.663 Q28.3814 658.195 31.1591 655.903 Q33.9138 653.612 39.2841 653.612 Z" fill="#000000" fill-rule="evenodd" fill-opacity="1" /><path clip-path="url(#clip440)" d="M31.9925 635.07 Q31.9925 638.496 34.6776 640.487 Q37.3397 642.477 41.9924 642.477 Q46.6452 642.477 49.3303 640.51 Q51.9924 638.519 51.9924 635.07 Q51.9924 631.667 49.3072 629.677 Q46.622 627.686 41.9924 627.686 Q37.386 627.686 34.7008 629.677 Q31.9925 631.667 31.9925 635.07 M28.3814 635.07 Q28.3814 629.515 31.9925 626.343 Q35.6036 623.172 41.9924 623.172 Q48.3581 623.172 51.9924 626.343 Q55.6035 629.515 55.6035 635.07 Q55.6035 640.649 51.9924 643.82 Q48.3581 646.968 41.9924 646.968 Q35.6036 646.968 31.9925 643.82 Q28.3814 640.649 28.3814 635.07 Z" fill="#000000" fill-rule="evenodd" fill-opacity="1" /><path clip-path="url(#clip440)" d="M31.9925 606.066 Q31.9925 609.492 34.6776 611.482 Q37.3397 613.473 41.9924 613.473 Q46.6452 613.473 49.3303 611.505 Q51.9924 609.515 51.9924 606.066 Q51.9924 602.663 49.3072 600.672 Q46.622 598.681 41.9924 598.681 Q37.386 598.681 34.7008 600.672 Q31.9925 602.663 31.9925 606.066 M28.3814 606.066 Q28.3814 600.51 31.9925 597.339 Q35.6036 594.168 41.9924 594.168 Q48.3581 594.168 51.9924 597.339 Q55.6035 600.51 55.6035 606.066 Q55.6035 611.644 51.9924 614.816 Q48.3581 617.964 41.9924 617.964 Q35.6036 617.964 31.9925 614.816 Q28.3814 611.644 28.3814 606.066 Z" fill="#000000" fill-rule="evenodd" fill-opacity="1" /><path clip-path="url(#clip440)" d="M32.9415 570.047 L18.9138 570.047 L18.9138 565.788 L54.9322 565.788 L54.9322 570.047 L51.0433 570.047 Q53.3581 571.39 54.4923 573.45 Q55.6035 575.487 55.6035 578.357 Q55.6035 583.056 51.8535 586.019 Q48.1035 588.959 41.9924 588.959 Q35.8813 588.959 32.1314 586.019 Q28.3814 583.056 28.3814 578.357 Q28.3814 575.487 29.5156 573.45 Q30.6267 571.39 32.9415 570.047 M41.9924 584.561 Q46.6915 584.561 49.3766 582.64 Q52.0387 580.695 52.0387 577.316 Q52.0387 573.936 49.3766 571.992 Q46.6915 570.047 41.9924 570.047 Q37.2934 570.047 34.6313 571.992 Q31.9462 573.936 31.9462 577.316 Q31.9462 580.695 34.6313 582.64 Q37.2934 584.561 41.9924 584.561 Z" fill="#000000" fill-rule="evenodd" fill-opacity="1" /><path clip-path="url(#clip440)" d="M1217.1 25.6538 Q1219.1 22.0659 1221.87 20.3587 Q1224.65 18.6515 1228.41 18.6515 Q1233.48 18.6515 1236.23 22.2105 Q1238.97 25.7406 1238.97 32.2799 L1238.97 51.84 L1233.62 51.84 L1233.62 32.4535 Q1233.62 27.795 1231.97 25.5381 Q1230.32 23.2811 1226.94 23.2811 Q1222.8 23.2811 1220.4 26.03 Q1218 28.7788 1218 33.5241 L1218 51.84 L1212.64 51.84 L1212.64 32.4535 Q1212.64 27.7661 1210.99 25.5381 Q1209.35 23.2811 1205.9 23.2811 Q1201.82 23.2811 1199.42 26.0589 Q1197.02 28.8077 1197.02 33.5241 L1197.02 51.84 L1191.67 51.84 L1191.67 19.4328 L1197.02 19.4328 L1197.02 24.4675 Q1198.84 21.4872 1201.39 20.0693 Q1203.93 18.6515 1207.44 18.6515 Q1210.97 18.6515 1213.43 20.4455 Q1215.91 22.2395 1217.1 25.6538 Z" fill="#000000" fill-rule="evenodd" fill-opacity="1" /><path clip-path="url(#clip440)" d="M1270.25 20.3876 L1270.25 25.4223 Q1268 24.2649 1265.57 23.6862 Q1263.14 23.1075 1260.53 23.1075 Q1256.57 23.1075 1254.57 24.3228 Q1252.6 25.5381 1252.6 27.9686 Q1252.6 29.8204 1254.02 30.891 Q1255.44 31.9327 1259.72 32.8876 L1261.54 33.2926 Q1267.22 34.5079 1269.59 36.7359 Q1271.99 38.935 1271.99 42.8991 Q1271.99 47.4129 1268.4 50.046 Q1264.84 52.6791 1258.59 52.6791 Q1255.99 52.6791 1253.15 52.1583 Q1250.35 51.6664 1247.22 50.6537 L1247.22 45.156 Q1250.17 46.6896 1253.04 47.4708 Q1255.9 48.2231 1258.71 48.2231 Q1262.47 48.2231 1264.5 46.95 Q1266.52 45.6479 1266.52 43.3042 Q1266.52 41.134 1265.05 39.9766 Q1263.6 38.8192 1258.65 37.7486 L1256.8 37.3146 Q1251.85 36.273 1249.65 34.1318 Q1247.45 31.9616 1247.45 28.2001 Q1247.45 23.6283 1250.69 21.1399 Q1253.93 18.6515 1259.89 18.6515 Q1262.85 18.6515 1265.45 19.0855 Q1268.05 19.5196 1270.25 20.3876 Z" fill="#000000" fill-rule="evenodd" fill-opacity="1" /><path clip-path="url(#clip440)" d="M1307.41 32.2799 L1307.41 51.84 L1302.08 51.84 L1302.08 32.4535 Q1302.08 27.8529 1300.29 25.567 Q1298.49 23.2811 1294.91 23.2811 Q1290.59 23.2811 1288.11 26.03 Q1285.62 28.7788 1285.62 33.5241 L1285.62 51.84 L1280.27 51.84 L1280.27 19.4328 L1285.62 19.4328 L1285.62 24.4675 Q1287.53 21.545 1290.1 20.0983 Q1292.71 18.6515 1296.09 18.6515 Q1301.68 18.6515 1304.54 22.1237 Q1307.41 25.567 1307.41 32.2799 Z" fill="#000000" fill-rule="evenodd" fill-opacity="1" /><path clip-path="url(#clip440)" d="M1341.29 35.6653 Q1341.29 29.7915 1338.86 26.464 Q1336.46 23.1075 1332.23 23.1075 Q1328.01 23.1075 1325.58 26.464 Q1323.18 29.7915 1323.18 35.6653 Q1323.18 41.5391 1325.58 44.8956 Q1328.01 48.2231 1332.23 48.2231 Q1336.46 48.2231 1338.86 44.8956 Q1341.29 41.5391 1341.29 35.6653 M1323.18 24.3517 Q1324.85 21.4582 1327.4 20.0693 Q1329.98 18.6515 1333.53 18.6515 Q1339.44 18.6515 1343.11 23.339 Q1346.82 28.0265 1346.82 35.6653 Q1346.82 43.3042 1343.11 47.9916 Q1339.44 52.6791 1333.53 52.6791 Q1329.98 52.6791 1327.4 51.2902 Q1324.85 49.8724 1323.18 46.9789 L1323.18 51.84 L1317.82 51.84 L1317.82 6.81709 L1323.18 6.81709 L1323.18 24.3517 Z" fill="#000000" fill-rule="evenodd" fill-opacity="1" /><path clip-path="url(#clip440)" d="M1378.96 20.677 L1378.96 25.6538 Q1376.71 24.4096 1374.42 23.802 Q1372.16 23.1654 1369.85 23.1654 Q1364.67 23.1654 1361.8 26.464 Q1358.94 29.7336 1358.94 35.6653 Q1358.94 41.597 1361.8 44.8956 Q1364.67 48.1653 1369.85 48.1653 Q1372.16 48.1653 1374.42 47.5576 Q1376.71 46.921 1378.96 45.6768 L1378.96 50.5958 Q1376.73 51.6375 1374.33 52.1583 Q1371.96 52.6791 1369.27 52.6791 Q1361.95 52.6791 1357.64 48.0784 Q1353.33 43.4778 1353.33 35.6653 Q1353.33 27.7371 1357.67 23.1943 Q1362.04 18.6515 1369.62 18.6515 Q1372.08 18.6515 1374.42 19.1724 Q1376.76 19.6642 1378.96 20.677 Z" fill="#000000" fill-rule="evenodd" fill-opacity="1" /><polyline clip-path="url(#clip442)" style="stroke:#e26f46; stroke-linecap:butt; stroke-linejoin:round; stroke-width:8; stroke-opacity:1; fill:none" points="
  318.575,322.202 358.855,322.202 399.136,322.202 439.417,322.202 479.698,322.202 519.979,322.202 560.26,322.202 600.54,322.202 640.821,322.202 681.102,322.202 
  721.383,322.202 761.664,322.202 801.944,322.202 842.225,322.202 882.506,322.202 922.787,322.202 963.068,322.202 1003.35,322.202 1043.63,322.202 1083.91,322.202 
  1124.19,322.202 1164.47,322.202 1204.75,322.202 1245.03,322.202 1285.31,322.202 1325.6,322.202 1365.88,322.202 1406.16,322.202 1446.44,322.202 1486.72,322.202 
  1527,322.202 1567.28,322.202 1607.56,322.202 1647.84,322.202 1688.12,322.202 1728.4,322.202 1768.68,322.202 1808.96,322.202 1849.25,322.202 1889.53,322.202 
  1929.81,322.202 1970.09,322.202 2010.37,322.202 2050.65,322.202 2090.93,322.202 2131.21,322.202 2171.49,322.202 2211.77,322.202 2252.05,322.202 2292.33,322.202 
  
  "/>
<polyline clip-path="url(#clip442)" style="stroke:#3da44d; stroke-linecap:butt; stroke-linejoin:round; stroke-width:8; stroke-opacity:1; fill:none" points="
  318.575,144.077 358.855,144.077 399.136,144.077 439.417,144.077 479.698,144.077 519.979,144.077 560.26,144.077 600.54,144.077 640.821,144.077 681.102,144.077 
  721.383,144.077 761.664,144.077 801.944,144.077 842.225,144.077 882.506,144.077 922.787,144.077 963.068,144.077 1003.35,144.077 1043.63,144.077 1083.91,144.077 
  1124.19,144.077 1164.47,144.077 1204.75,144.077 1245.03,144.077 1285.31,144.077 1325.6,144.077 1365.88,144.077 1406.16,144.077 1446.44,144.077 1486.72,144.077 
  1527,144.077 1567.28,144.077 1607.56,144.077 1647.84,144.077 1688.12,144.077 1728.4,144.077 1768.68,144.077 1808.96,144.077 1849.25,144.077 1889.53,144.077 
  1929.81,144.077 1970.09,144.077 2010.37,144.077 2050.65,144.077 2090.93,144.077 2131.21,144.077 2171.49,144.077 2211.77,144.077 2252.05,144.077 2292.33,144.077 
  
  "/>
<polyline clip-path="url(#clip442)" style="stroke:#c271d2; stroke-linecap:butt; stroke-linejoin:round; stroke-width:8; stroke-opacity:1; fill:none" points="
  318.575,144.077 358.855,144.077 399.136,144.077 439.417,144.077 479.698,144.077 519.979,144.077 560.26,144.077 600.54,144.077 640.821,144.077 681.102,144.077 
  721.383,144.077 761.664,144.077 801.944,144.077 842.225,144.077 882.506,144.077 922.787,144.077 963.068,144.077 1003.35,144.077 1043.63,144.077 1083.91,144.077 
  1124.19,144.077 1164.47,144.077 1204.75,144.077 1245.03,144.077 1285.31,144.077 1325.6,144.077 1365.88,144.077 1406.16,144.077 1446.44,144.077 1486.72,144.077 
  1527,144.077 1567.28,144.077 1607.56,144.077 1647.84,144.077 1688.12,144.077 1728.4,144.077 1768.68,144.077 1808.96,144.077 1849.25,144.077 1889.53,144.077 
  1929.81,144.077 1970.09,144.077 2010.37,144.077 2050.65,144.077 2090.93,144.077 2131.21,144.077 2171.49,144.077 2211.77,144.077 2252.05,144.077 2292.33,144.077 
  
  "/>
<polyline clip-path="url(#clip442)" style="stroke:#ac8d18; stroke-linecap:butt; stroke-linejoin:round; stroke-width:8; stroke-opacity:1; fill:none" points="
  318.575,500.327 358.855,500.327 399.136,500.327 439.417,500.327 479.698,500.327 519.979,500.327 560.26,500.327 600.54,500.327 640.821,500.327 681.102,500.327 
  721.383,500.327 761.664,500.327 801.944,500.327 842.225,500.327 882.506,500.327 922.787,500.327 963.068,500.327 1003.35,500.327 1043.63,500.327 1083.91,500.327 
  1124.19,500.327 1164.47,500.327 1204.75,500.327 1245.03,500.327 1285.31,500.327 1325.6,500.327 1365.88,500.327 1406.16,500.327 1446.44,500.327 1486.72,500.327 
  1527,500.327 1567.28,500.327 1607.56,500.327 1647.84,500.327 1688.12,500.327 1728.4,500.327 1768.68,500.327 1808.96,500.327 1849.25,500.327 1889.53,500.327 
  1929.81,500.327 1970.09,500.327 2010.37,500.327 2050.65,500.327 2090.93,500.327 2131.21,500.327 2171.49,500.327 2211.77,500.327 2252.05,500.327 2292.33,500.327 
  
  "/>
<polyline clip-path="url(#clip442)" style="stroke:#00a9ad; stroke-linecap:butt; stroke-linejoin:round; stroke-width:8; stroke-opacity:1; fill:none" points="
  318.575,144.077 358.855,144.077 399.136,144.077 439.417,144.077 479.698,144.077 519.979,144.077 560.26,144.077 600.54,144.077 640.821,144.077 681.102,144.077 
  721.383,144.077 761.664,144.077 801.944,144.077 842.225,144.077 882.506,144.077 922.787,144.077 963.068,144.077 1003.35,144.077 1043.63,144.077 1083.91,144.077 
  1124.19,144.077 1164.47,144.077 1204.75,144.077 1245.03,144.077 1285.31,144.077 1325.6,144.077 1365.88,144.077 1406.16,144.077 1446.44,144.077 1486.72,144.077 
  1527,144.077 1567.28,144.077 1607.56,144.077 1647.84,144.077 1688.12,144.077 1728.4,144.077 1768.68,144.077 1808.96,144.077 1849.25,144.077 1889.53,144.077 
  1929.81,144.077 1970.09,144.077 2010.37,144.077 2050.65,144.077 2090.93,144.077 2131.21,144.077 2171.49,144.077 2211.77,144.077 2252.05,144.077 2292.33,144.077 
  
  "/>
<polyline clip-path="url(#clip442)" style="stroke:#009af9; stroke-linecap:butt; stroke-linejoin:round; stroke-width:12; stroke-opacity:1; fill:none" points="
  318.575,1406.9 358.855,1301.69 399.136,1198.66 439.417,1187.9 479.698,1159.99 519.979,1110.2 560.26,1103 600.54,1106.02 640.821,1078.2 681.102,1082.38 
  721.383,1057.71 761.664,1055.3 801.944,1057.48 842.225,1053.67 882.506,1051.54 922.787,1036.45 963.068,1026.36 1003.35,1027.61 1043.63,1027.6 1083.91,1031.67 
  1124.19,1019.65 1164.47,1024.18 1204.75,1009.51 1245.03,1007.43 1285.31,1005.55 1325.6,1007.01 1365.88,1006.71 1406.16,1010.76 1446.44,1006.89 1486.72,999.282 
  1527,998.061 1567.28,1000.79 1607.56,1000.71 1647.84,1003.1 1688.12,999.924 1728.4,998.742 1768.68,994.88 1808.96,994.856 1849.25,992.017 1889.53,990.379 
  1929.81,990.079 1970.09,989.866 2010.37,989.026 2050.65,989.248 2090.93,987.401 2131.21,986.666 2171.49,986.023 2211.77,984.663 2252.05,983.424 2292.33,981.891 
  
  "/>
</svg>
