<?xml version="1.0" encoding="utf-8"?>
<svg xmlns="http://www.w3.org/2000/svg" xmlns:xlink="http://www.w3.org/1999/xlink" width="600" height="400" viewBox="0 0 2400 1600">
<defs>
  <clipPath id="clip190">
    <rect x="0" y="0" width="2400" height="1600"/>
  </clipPath>
</defs>
<path clip-path="url(#clip190)" d="
M0 1600 L2400 1600 L2400 0 L0 0  Z
  " fill="#ffffff" fill-rule="evenodd" fill-opacity="1"/>
<defs>
  <clipPath id="clip191">
    <rect x="480" y="0" width="1681" height="1600"/>
  </clipPath>
</defs>
<path clip-path="url(#clip190)" d="
M328.109 1422.18 L2352.76 1422.18 L2352.76 106.192 L328.109 106.192  Z
  " fill="#eaeaea" fill-rule="evenodd" fill-opacity="1"/>
<defs>
  <clipPath id="clip192">
    <rect x="328" y="106" width="2026" height="1317"/>
  </clipPath>
</defs>
<polyline clip-path="url(#clip192)" style="stroke:#ffffff; stroke-linecap:butt; stroke-linejoin:round; stroke-width:4; stroke-opacity:1; fill:none" points="
  385.41,1422.18 385.41,106.192 
  "/>
<polyline clip-path="url(#clip192)" style="stroke:#ffffff; stroke-linecap:butt; stroke-linejoin:round; stroke-width:4; stroke-opacity:1; fill:none" points="
  532.337,1422.18 532.337,106.192 
  "/>
<polyline clip-path="url(#clip192)" style="stroke:#ffffff; stroke-linecap:butt; stroke-linejoin:round; stroke-width:4; stroke-opacity:1; fill:none" points="
  679.263,1422.18 679.263,106.192 
  "/>
<polyline clip-path="url(#clip192)" style="stroke:#ffffff; stroke-linecap:butt; stroke-linejoin:round; stroke-width:4; stroke-opacity:1; fill:none" points="
  826.19,1422.18 826.19,106.192 
  "/>
<polyline clip-path="url(#clip192)" style="stroke:#ffffff; stroke-linecap:butt; stroke-linejoin:round; stroke-width:4; stroke-opacity:1; fill:none" points="
  973.116,1422.18 973.116,106.192 
  "/>
<polyline clip-path="url(#clip192)" style="stroke:#ffffff; stroke-linecap:butt; stroke-linejoin:round; stroke-width:4; stroke-opacity:1; fill:none" points="
  1120.04,1422.18 1120.04,106.192 
  "/>
<polyline clip-path="url(#clip192)" style="stroke:#ffffff; stroke-linecap:butt; stroke-linejoin:round; stroke-width:4; stroke-opacity:1; fill:none" points="
  1266.97,1422.18 1266.97,106.192 
  "/>
<polyline clip-path="url(#clip192)" style="stroke:#ffffff; stroke-linecap:butt; stroke-linejoin:round; stroke-width:4; stroke-opacity:1; fill:none" points="
  1413.9,1422.18 1413.9,106.192 
  "/>
<polyline clip-path="url(#clip192)" style="stroke:#ffffff; stroke-linecap:butt; stroke-linejoin:round; stroke-width:4; stroke-opacity:1; fill:none" points="
  1560.82,1422.18 1560.82,106.192 
  "/>
<polyline clip-path="url(#clip192)" style="stroke:#ffffff; stroke-linecap:butt; stroke-linejoin:round; stroke-width:4; stroke-opacity:1; fill:none" points="
  1707.75,1422.18 1707.75,106.192 
  "/>
<polyline clip-path="url(#clip192)" style="stroke:#ffffff; stroke-linecap:butt; stroke-linejoin:round; stroke-width:4; stroke-opacity:1; fill:none" points="
  1854.68,1422.18 1854.68,106.192 
  "/>
<polyline clip-path="url(#clip192)" style="stroke:#ffffff; stroke-linecap:butt; stroke-linejoin:round; stroke-width:4; stroke-opacity:1; fill:none" points="
  2001.6,1422.18 2001.6,106.192 
  "/>
<polyline clip-path="url(#clip192)" style="stroke:#ffffff; stroke-linecap:butt; stroke-linejoin:round; stroke-width:4; stroke-opacity:1; fill:none" points="
  2148.53,1422.18 2148.53,106.192 
  "/>
<polyline clip-path="url(#clip192)" style="stroke:#ffffff; stroke-linecap:butt; stroke-linejoin:round; stroke-width:4; stroke-opacity:1; fill:none" points="
  2295.45,1422.18 2295.45,106.192 
  "/>
<polyline clip-path="url(#clip192)" style="stroke:#ffffff; stroke-linecap:butt; stroke-linejoin:round; stroke-width:2; stroke-opacity:1; fill:none" points="
  458.873,1422.18 458.873,106.192 
  "/>
<polyline clip-path="url(#clip192)" style="stroke:#ffffff; stroke-linecap:butt; stroke-linejoin:round; stroke-width:2; stroke-opacity:1; fill:none" points="
  605.8,1422.18 605.8,106.192 
  "/>
<polyline clip-path="url(#clip192)" style="stroke:#ffffff; stroke-linecap:butt; stroke-linejoin:round; stroke-width:2; stroke-opacity:1; fill:none" points="
  752.726,1422.18 752.726,106.192 
  "/>
<polyline clip-path="url(#clip192)" style="stroke:#ffffff; stroke-linecap:butt; stroke-linejoin:round; stroke-width:2; stroke-opacity:1; fill:none" points="
  899.653,1422.18 899.653,106.192 
  "/>
<polyline clip-path="url(#clip192)" style="stroke:#ffffff; stroke-linecap:butt; stroke-linejoin:round; stroke-width:2; stroke-opacity:1; fill:none" points="
  1046.58,1422.18 1046.58,106.192 
  "/>
<polyline clip-path="url(#clip192)" style="stroke:#ffffff; stroke-linecap:butt; stroke-linejoin:round; stroke-width:2; stroke-opacity:1; fill:none" points="
  1193.51,1422.18 1193.51,106.192 
  "/>
<polyline clip-path="url(#clip192)" style="stroke:#ffffff; stroke-linecap:butt; stroke-linejoin:round; stroke-width:2; stroke-opacity:1; fill:none" points="
  1340.43,1422.18 1340.43,106.192 
  "/>
<polyline clip-path="url(#clip192)" style="stroke:#ffffff; stroke-linecap:butt; stroke-linejoin:round; stroke-width:2; stroke-opacity:1; fill:none" points="
  1487.36,1422.18 1487.36,106.192 
  "/>
<polyline clip-path="url(#clip192)" style="stroke:#ffffff; stroke-linecap:butt; stroke-linejoin:round; stroke-width:2; stroke-opacity:1; fill:none" points="
  1634.29,1422.18 1634.29,106.192 
  "/>
<polyline clip-path="url(#clip192)" style="stroke:#ffffff; stroke-linecap:butt; stroke-linejoin:round; stroke-width:2; stroke-opacity:1; fill:none" points="
  1781.21,1422.18 1781.21,106.192 
  "/>
<polyline clip-path="url(#clip192)" style="stroke:#ffffff; stroke-linecap:butt; stroke-linejoin:round; stroke-width:2; stroke-opacity:1; fill:none" points="
  1928.14,1422.18 1928.14,106.192 
  "/>
<polyline clip-path="url(#clip192)" style="stroke:#ffffff; stroke-linecap:butt; stroke-linejoin:round; stroke-width:2; stroke-opacity:1; fill:none" points="
  2075.06,1422.18 2075.06,106.192 
  "/>
<polyline clip-path="url(#clip192)" style="stroke:#ffffff; stroke-linecap:butt; stroke-linejoin:round; stroke-width:2; stroke-opacity:1; fill:none" points="
  2221.99,1422.18 2221.99,106.192 
  "/>
<polyline clip-path="url(#clip190)" style="stroke:#ffffff; stroke-linecap:butt; stroke-linejoin:round; stroke-width:4; stroke-opacity:1; fill:none" points="
  328.109,1422.18 2352.76,1422.18 
  "/>
<polyline clip-path="url(#clip190)" style="stroke:#333333; stroke-linecap:butt; stroke-linejoin:round; stroke-width:4; stroke-opacity:1; fill:none" points="
  385.41,1422.18 385.41,1441.07 
  "/>
<polyline clip-path="url(#clip190)" style="stroke:#333333; stroke-linecap:butt; stroke-linejoin:round; stroke-width:4; stroke-opacity:1; fill:none" points="
  532.337,1422.18 532.337,1441.07 
  "/>
<polyline clip-path="url(#clip190)" style="stroke:#333333; stroke-linecap:butt; stroke-linejoin:round; stroke-width:4; stroke-opacity:1; fill:none" points="
  679.263,1422.18 679.263,1441.07 
  "/>
<polyline clip-path="url(#clip190)" style="stroke:#333333; stroke-linecap:butt; stroke-linejoin:round; stroke-width:4; stroke-opacity:1; fill:none" points="
  826.19,1422.18 826.19,1441.07 
  "/>
<polyline clip-path="url(#clip190)" style="stroke:#333333; stroke-linecap:butt; stroke-linejoin:round; stroke-width:4; stroke-opacity:1; fill:none" points="
  973.116,1422.18 973.116,1441.07 
  "/>
<polyline clip-path="url(#clip190)" style="stroke:#333333; stroke-linecap:butt; stroke-linejoin:round; stroke-width:4; stroke-opacity:1; fill:none" points="
  1120.04,1422.18 1120.04,1441.07 
  "/>
<polyline clip-path="url(#clip190)" style="stroke:#333333; stroke-linecap:butt; stroke-linejoin:round; stroke-width:4; stroke-opacity:1; fill:none" points="
  1266.97,1422.18 1266.97,1441.07 
  "/>
<polyline clip-path="url(#clip190)" style="stroke:#333333; stroke-linecap:butt; stroke-linejoin:round; stroke-width:4; stroke-opacity:1; fill:none" points="
  1413.9,1422.18 1413.9,1441.07 
  "/>
<polyline clip-path="url(#clip190)" style="stroke:#333333; stroke-linecap:butt; stroke-linejoin:round; stroke-width:4; stroke-opacity:1; fill:none" points="
  1560.82,1422.18 1560.82,1441.07 
  "/>
<polyline clip-path="url(#clip190)" style="stroke:#333333; stroke-linecap:butt; stroke-linejoin:round; stroke-width:4; stroke-opacity:1; fill:none" points="
  1707.75,1422.18 1707.75,1441.07 
  "/>
<polyline clip-path="url(#clip190)" style="stroke:#333333; stroke-linecap:butt; stroke-linejoin:round; stroke-width:4; stroke-opacity:1; fill:none" points="
  1854.68,1422.18 1854.68,1441.07 
  "/>
<polyline clip-path="url(#clip190)" style="stroke:#333333; stroke-linecap:butt; stroke-linejoin:round; stroke-width:4; stroke-opacity:1; fill:none" points="
  2001.6,1422.18 2001.6,1441.07 
  "/>
<polyline clip-path="url(#clip190)" style="stroke:#333333; stroke-linecap:butt; stroke-linejoin:round; stroke-width:4; stroke-opacity:1; fill:none" points="
  2148.53,1422.18 2148.53,1441.07 
  "/>
<polyline clip-path="url(#clip190)" style="stroke:#333333; stroke-linecap:butt; stroke-linejoin:round; stroke-width:4; stroke-opacity:1; fill:none" points="
  2295.45,1422.18 2295.45,1441.07 
  "/>
<polyline clip-path="url(#clip190)" style="stroke:#333333; stroke-linecap:butt; stroke-linejoin:round; stroke-width:4; stroke-opacity:1; fill:none" points="
  458.873,1422.18 458.873,1431.63 
  "/>
<polyline clip-path="url(#clip190)" style="stroke:#333333; stroke-linecap:butt; stroke-linejoin:round; stroke-width:4; stroke-opacity:1; fill:none" points="
  605.8,1422.18 605.8,1431.63 
  "/>
<polyline clip-path="url(#clip190)" style="stroke:#333333; stroke-linecap:butt; stroke-linejoin:round; stroke-width:4; stroke-opacity:1; fill:none" points="
  752.726,1422.18 752.726,1431.63 
  "/>
<polyline clip-path="url(#clip190)" style="stroke:#333333; stroke-linecap:butt; stroke-linejoin:round; stroke-width:4; stroke-opacity:1; fill:none" points="
  899.653,1422.18 899.653,1431.63 
  "/>
<polyline clip-path="url(#clip190)" style="stroke:#333333; stroke-linecap:butt; stroke-linejoin:round; stroke-width:4; stroke-opacity:1; fill:none" points="
  1046.58,1422.18 1046.58,1431.63 
  "/>
<polyline clip-path="url(#clip190)" style="stroke:#333333; stroke-linecap:butt; stroke-linejoin:round; stroke-width:4; stroke-opacity:1; fill:none" points="
  1193.51,1422.18 1193.51,1431.63 
  "/>
<polyline clip-path="url(#clip190)" style="stroke:#333333; stroke-linecap:butt; stroke-linejoin:round; stroke-width:4; stroke-opacity:1; fill:none" points="
  1340.43,1422.18 1340.43,1431.63 
  "/>
<polyline clip-path="url(#clip190)" style="stroke:#333333; stroke-linecap:butt; stroke-linejoin:round; stroke-width:4; stroke-opacity:1; fill:none" points="
  1487.36,1422.18 1487.36,1431.63 
  "/>
<polyline clip-path="url(#clip190)" style="stroke:#333333; stroke-linecap:butt; stroke-linejoin:round; stroke-width:4; stroke-opacity:1; fill:none" points="
  1634.29,1422.18 1634.29,1431.63 
  "/>
<polyline clip-path="url(#clip190)" style="stroke:#333333; stroke-linecap:butt; stroke-linejoin:round; stroke-width:4; stroke-opacity:1; fill:none" points="
  1781.21,1422.18 1781.21,1431.63 
  "/>
<polyline clip-path="url(#clip190)" style="stroke:#333333; stroke-linecap:butt; stroke-linejoin:round; stroke-width:4; stroke-opacity:1; fill:none" points="
  1928.14,1422.18 1928.14,1431.63 
  "/>
<polyline clip-path="url(#clip190)" style="stroke:#333333; stroke-linecap:butt; stroke-linejoin:round; stroke-width:4; stroke-opacity:1; fill:none" points="
  2075.06,1422.18 2075.06,1431.63 
  "/>
<polyline clip-path="url(#clip190)" style="stroke:#333333; stroke-linecap:butt; stroke-linejoin:round; stroke-width:4; stroke-opacity:1; fill:none" points="
  2221.99,1422.18 2221.99,1431.63 
  "/>
<path clip-path="url(#clip190)" d="M399.113 1463.13 Q397.759 1460.78 394.758 1460.93 Q391.781 1461.09 387.15 1463.76 Q382.534 1466.43 380.896 1468.94 Q379.281 1471.45 380.635 1473.8 Q381.998 1476.16 384.976 1476 Q387.977 1475.85 392.592 1473.19 Q397.223 1470.52 398.838 1468 Q400.476 1465.49 399.113 1463.13 M401.519 1461.74 Q403.698 1465.51 401.852 1469.23 Q400.029 1472.94 394.346 1476.23 Q388.678 1479.5 384.531 1479.23 Q380.408 1478.96 378.23 1475.19 Q376.051 1471.41 377.873 1467.69 Q379.719 1463.98 385.388 1460.71 Q391.071 1457.43 395.194 1457.69 Q399.34 1457.97 401.519 1461.74 Z" fill="#4c4c4c" fill-rule="evenodd" fill-opacity="1" /><path clip-path="url(#clip190)" d="M523.921 1466.14 L526.785 1471.1 L543.91 1461.21 L539.711 1456.44 L542.478 1454.84 L546.659 1459.58 L548.413 1462.62 L528.521 1474.11 L531.386 1479.07 L528.83 1480.54 L521.365 1467.61 L523.921 1466.14 Z" fill="#4c4c4c" fill-rule="evenodd" fill-opacity="1" /><path clip-path="url(#clip190)" d="M556.569 1481.37 Q555.215 1479.02 552.214 1479.17 Q549.237 1479.33 544.606 1482 Q539.99 1484.66 538.352 1487.17 Q536.737 1489.69 538.091 1492.04 Q539.454 1494.4 542.431 1494.24 Q545.433 1494.09 550.048 1491.43 Q554.679 1488.75 556.294 1486.24 Q557.932 1483.73 556.569 1481.37 M558.975 1479.98 Q561.154 1483.75 559.308 1487.46 Q557.485 1491.18 551.802 1494.46 Q546.134 1497.74 541.987 1497.46 Q537.864 1497.2 535.686 1493.42 Q533.507 1489.65 535.329 1485.93 Q537.175 1482.22 542.844 1478.95 Q548.527 1475.67 552.65 1475.93 Q556.796 1476.2 558.975 1479.98 Z" fill="#4c4c4c" fill-rule="evenodd" fill-opacity="1" /><path clip-path="url(#clip190)" d="M672.705 1469.35 L678.825 1479.95 L676.269 1481.43 L668.039 1467.18 L670.595 1465.7 Q673.383 1466.4 678.109 1467.64 Q682.858 1468.89 684.173 1469.15 Q686.654 1469.66 688.111 1469.58 Q689.592 1469.51 690.69 1468.87 Q692.479 1467.84 692.878 1465.93 Q693.285 1464.03 692.122 1462.01 Q691.297 1460.59 689.881 1459.28 Q688.473 1457.99 686.424 1456.76 L689.491 1454.99 Q691.287 1456.4 692.583 1457.78 Q693.879 1459.15 694.643 1460.48 Q696.657 1463.97 696.111 1467.05 Q695.564 1470.13 692.648 1471.81 Q691.264 1472.61 689.713 1472.81 Q688.185 1473.01 685.711 1472.61 Q685.058 1472.49 681.805 1471.68 Q678.567 1470.86 672.705 1469.35 Z" fill="#4c4c4c" fill-rule="evenodd" fill-opacity="1" /><path clip-path="url(#clip190)" d="M704.147 1482.49 Q702.793 1480.15 699.792 1480.3 Q696.814 1480.45 692.183 1483.13 Q687.567 1485.79 685.929 1488.3 Q684.315 1490.82 685.669 1493.16 Q687.032 1495.52 690.009 1495.37 Q693.01 1495.22 697.626 1492.55 Q702.257 1489.88 703.871 1487.36 Q705.51 1484.86 704.147 1482.49 M706.552 1481.11 Q708.731 1484.88 706.885 1488.59 Q705.063 1492.31 699.379 1495.59 Q693.711 1498.86 689.565 1498.59 Q685.442 1498.33 683.263 1494.55 Q681.084 1490.78 682.907 1487.06 Q684.753 1483.35 690.421 1480.08 Q696.104 1476.79 700.227 1477.06 Q704.374 1477.33 706.552 1481.11 Z" fill="#4c4c4c" fill-rule="evenodd" fill-opacity="1" /><path clip-path="url(#clip190)" d="M832.929 1470.34 Q833.721 1472.79 832.951 1474.86 Q832.189 1476.94 830.024 1478.19 Q826.701 1480.11 823.563 1478.87 Q820.424 1477.64 817.993 1473.43 Q817.178 1472.01 816.595 1470.35 Q816.006 1468.7 815.643 1466.79 L818.574 1465.09 Q818.567 1466.78 819.059 1468.5 Q819.551 1470.22 820.497 1471.86 Q822.147 1474.72 824.134 1475.56 Q826.129 1476.41 828.279 1475.17 Q830.264 1474.02 830.569 1471.98 Q830.898 1469.95 829.466 1467.47 L827.956 1464.85 L830.451 1463.41 L832.031 1466.14 Q833.325 1468.38 834.898 1469.06 Q836.485 1469.73 838.169 1468.76 Q839.898 1467.76 840.104 1465.99 Q840.333 1464.24 839.013 1461.95 Q838.293 1460.71 837.198 1459.43 Q836.102 1458.16 834.541 1456.78 L837.248 1455.21 Q838.727 1456.67 839.836 1458.03 Q840.953 1459.41 841.726 1460.75 Q843.722 1464.21 843.307 1467.13 Q842.906 1470.05 840.23 1471.6 Q838.365 1472.67 836.456 1472.35 Q834.562 1472.02 832.929 1470.34 Z" fill="#4c4c4c" fill-rule="evenodd" fill-opacity="1" /><path clip-path="url(#clip190)" d="M851.021 1482.4 Q849.667 1480.06 846.666 1480.21 Q843.688 1480.36 839.058 1483.04 Q834.442 1485.7 832.804 1488.21 Q831.189 1490.73 832.543 1493.07 Q833.906 1495.43 836.883 1495.28 Q839.885 1495.13 844.5 1492.46 Q849.131 1489.79 850.746 1487.27 Q852.384 1484.76 851.021 1482.4 M853.427 1481.02 Q855.606 1484.79 853.76 1488.5 Q851.937 1492.22 846.254 1495.5 Q840.586 1498.77 836.439 1498.5 Q832.316 1498.24 830.138 1494.46 Q827.959 1490.69 829.781 1486.97 Q831.627 1483.26 837.296 1479.98 Q842.979 1476.7 847.102 1476.97 Q851.248 1477.24 853.427 1481.02 Z" fill="#4c4c4c" fill-rule="evenodd" fill-opacity="1" /><path clip-path="url(#clip190)" d="M987.544 1465.88 L971.134 1465.13 L975.561 1472.8 L987.544 1465.88 M989.73 1463.55 L991.935 1467.37 L977.306 1475.82 L979.155 1479.02 L976.629 1480.48 L974.78 1477.28 L969.488 1480.33 L967.743 1477.31 L973.035 1474.25 L967.185 1464.12 L970.117 1462.43 L989.73 1463.55 Z" fill="#4c4c4c" fill-rule="evenodd" fill-opacity="1" /><path clip-path="url(#clip190)" d="M998.434 1483.25 Q997.08 1480.9 994.079 1481.05 Q991.101 1481.21 986.47 1483.88 Q981.854 1486.54 980.216 1489.05 Q978.602 1491.57 979.956 1493.91 Q981.319 1496.28 984.296 1496.12 Q987.297 1495.97 991.913 1493.31 Q996.544 1490.63 998.158 1488.12 Q999.797 1485.61 998.434 1483.25 M1000.84 1481.86 Q1003.02 1485.63 1001.17 1489.34 Q999.35 1493.06 993.666 1496.34 Q987.998 1499.62 983.852 1499.34 Q979.729 1499.08 977.55 1495.3 Q975.371 1491.53 977.194 1487.81 Q979.04 1484.1 984.708 1480.83 Q990.391 1477.55 994.514 1477.81 Q998.661 1478.08 1000.84 1481.86 Z" fill="#4c4c4c" fill-rule="evenodd" fill-opacity="1" /><path clip-path="url(#clip190)" d="M1131.81 1455.16 L1138.7 1467.09 L1136.14 1468.56 L1130.86 1459.42 L1125.36 1462.6 Q1125.97 1463.13 1126.45 1463.73 Q1126.96 1464.32 1127.34 1464.98 Q1129.51 1468.74 1128.72 1472.13 Q1127.92 1475.51 1124.41 1477.54 Q1120.78 1479.63 1117.47 1478.54 Q1114.16 1477.44 1111.79 1473.34 Q1110.98 1471.92 1110.37 1470.31 Q1109.77 1468.71 1109.35 1466.87 L1112.4 1465.11 Q1112.44 1466.89 1112.91 1468.54 Q1113.39 1470.19 1114.32 1471.8 Q1115.82 1474.4 1118.06 1475.13 Q1120.31 1475.86 1122.65 1474.51 Q1125 1473.15 1125.49 1470.84 Q1125.98 1468.53 1124.48 1465.93 Q1123.78 1464.72 1122.8 1463.65 Q1121.84 1462.61 1120.54 1461.67 L1131.81 1455.16 Z" fill="#4c4c4c" fill-rule="evenodd" fill-opacity="1" /><path clip-path="url(#clip190)" d="M1144.86 1482.37 Q1143.5 1480.03 1140.5 1480.18 Q1137.52 1480.33 1132.89 1483.01 Q1128.28 1485.67 1126.64 1488.18 Q1125.02 1490.7 1126.38 1493.04 Q1127.74 1495.4 1130.72 1495.25 Q1133.72 1495.1 1138.34 1492.43 Q1142.97 1489.76 1144.58 1487.24 Q1146.22 1484.73 1144.86 1482.37 M1147.26 1480.99 Q1149.44 1484.76 1147.6 1488.47 Q1145.77 1492.19 1140.09 1495.47 Q1134.42 1498.74 1130.27 1498.47 Q1126.15 1498.21 1123.97 1494.43 Q1121.79 1490.66 1123.62 1486.94 Q1125.46 1483.23 1131.13 1479.95 Q1136.81 1476.67 1140.94 1476.94 Q1145.08 1477.21 1147.26 1480.99 Z" fill="#4c4c4c" fill-rule="evenodd" fill-opacity="1" /><path clip-path="url(#clip190)" d="M1272.81 1468.01 Q1271.63 1465.97 1269.53 1465.57 Q1267.45 1465.19 1265.01 1466.6 Q1262.59 1467.99 1261.87 1470 Q1261.16 1472.01 1262.34 1474.05 Q1263.52 1476.1 1265.61 1476.48 Q1267.71 1476.87 1270.13 1475.47 Q1272.57 1474.06 1273.27 1472.05 Q1273.99 1470.06 1272.81 1468.01 M1285.8 1468.55 L1283.04 1470.14 Q1282.92 1468.69 1282.53 1467.35 Q1282.15 1466.03 1281.49 1464.89 Q1279.75 1461.88 1276.8 1461.46 Q1273.86 1461.05 1269.62 1463.19 Q1271.44 1463.33 1272.91 1464.26 Q1274.39 1465.19 1275.32 1466.8 Q1277.27 1470.19 1276.34 1473.33 Q1275.43 1476.48 1271.9 1478.52 Q1268.44 1480.52 1265.17 1479.68 Q1261.9 1478.84 1259.94 1475.44 Q1257.69 1471.55 1259.48 1467.77 Q1261.28 1463.98 1266.95 1460.71 Q1272.27 1457.64 1276.88 1458.34 Q1281.52 1459.03 1283.97 1463.29 Q1284.63 1464.43 1285.07 1465.72 Q1285.53 1467.02 1285.8 1468.55 Z" fill="#4c4c4c" fill-rule="evenodd" fill-opacity="1" /><path clip-path="url(#clip190)" d="M1291.91 1482.6 Q1290.56 1480.25 1287.56 1480.4 Q1284.58 1480.56 1279.95 1483.23 Q1275.33 1485.9 1273.7 1488.41 Q1272.08 1490.92 1273.44 1493.27 Q1274.8 1495.63 1277.78 1495.47 Q1280.78 1495.32 1285.39 1492.66 Q1290.02 1489.99 1291.64 1487.47 Q1293.28 1484.96 1291.91 1482.6 M1294.32 1481.21 Q1296.5 1484.98 1294.65 1488.7 Q1292.83 1492.42 1287.15 1495.7 Q1281.48 1498.97 1277.33 1498.7 Q1273.21 1498.43 1271.03 1494.66 Q1268.85 1490.88 1270.67 1487.16 Q1272.52 1483.45 1278.19 1480.18 Q1283.87 1476.9 1287.99 1477.16 Q1292.14 1477.44 1294.32 1481.21 Z" fill="#4c4c4c" fill-rule="evenodd" fill-opacity="1" /><path clip-path="url(#clip190)" d="M1425.12 1454.22 L1433.45 1468.65 L1432.16 1469.4 L1406.3 1473.46 L1404.47 1470.29 L1428.79 1466.47 L1422.56 1455.69 L1425.12 1454.22 Z" fill="#4c4c4c" fill-rule="evenodd" fill-opacity="1" /><path clip-path="url(#clip190)" d="M1438.62 1482.22 Q1437.27 1479.88 1434.27 1480.03 Q1431.29 1480.18 1426.66 1482.86 Q1422.04 1485.52 1420.41 1488.03 Q1418.79 1490.55 1420.14 1492.89 Q1421.51 1495.25 1424.49 1495.1 Q1427.49 1494.95 1432.1 1492.28 Q1436.73 1489.61 1438.35 1487.09 Q1439.99 1484.58 1438.62 1482.22 M1441.03 1480.84 Q1443.21 1484.61 1441.36 1488.32 Q1439.54 1492.04 1433.86 1495.32 Q1428.19 1498.59 1424.04 1498.32 Q1419.92 1498.06 1417.74 1494.28 Q1415.56 1490.51 1417.38 1486.79 Q1419.23 1483.08 1424.9 1479.8 Q1430.58 1476.52 1434.7 1476.79 Q1438.85 1477.06 1441.03 1480.84 Z" fill="#4c4c4c" fill-rule="evenodd" fill-opacity="1" /><path clip-path="url(#clip190)" d="M1564.7 1468.72 Q1563.45 1466.56 1561.57 1465.98 Q1559.71 1465.41 1557.68 1466.58 Q1555.65 1467.76 1555.2 1469.66 Q1554.76 1471.57 1556.01 1473.74 Q1557.26 1475.9 1559.14 1476.48 Q1561.03 1477.05 1563.05 1475.89 Q1565.08 1474.72 1565.52 1472.8 Q1565.96 1470.9 1564.7 1468.72 M1564.24 1464.94 Q1563.59 1462.7 1564.3 1460.83 Q1565.01 1458.98 1566.94 1457.87 Q1569.63 1456.31 1572.29 1457.32 Q1574.97 1458.34 1576.9 1461.68 Q1578.83 1465.03 1578.37 1467.85 Q1577.91 1470.66 1575.22 1472.21 Q1573.29 1473.32 1571.32 1473 Q1569.36 1472.69 1567.76 1471.03 Q1568.51 1473.52 1567.73 1475.59 Q1566.95 1477.69 1564.8 1478.93 Q1561.54 1480.81 1558.64 1479.82 Q1555.75 1478.84 1553.61 1475.13 Q1551.46 1471.41 1552.05 1468.41 Q1552.65 1465.41 1555.91 1463.53 Q1558.06 1462.29 1560.26 1462.66 Q1562.46 1463.04 1564.24 1464.94 M1568.4 1461.06 Q1566.65 1462.06 1566.3 1463.71 Q1565.96 1465.37 1567.09 1467.34 Q1568.22 1469.29 1569.83 1469.83 Q1571.45 1470.38 1573.2 1469.37 Q1574.94 1468.36 1575.28 1466.69 Q1575.62 1465.02 1574.49 1463.07 Q1573.35 1461.1 1571.74 1460.57 Q1570.14 1460.05 1568.4 1461.06 Z" fill="#4c4c4c" fill-rule="evenodd" fill-opacity="1" /><path clip-path="url(#clip190)" d="M1585.8 1482.66 Q1584.45 1480.31 1581.45 1480.46 Q1578.47 1480.62 1573.84 1483.29 Q1569.22 1485.96 1567.58 1488.47 Q1565.97 1490.98 1567.32 1493.33 Q1568.69 1495.69 1571.66 1495.53 Q1574.66 1495.38 1579.28 1492.72 Q1583.91 1490.05 1585.53 1487.53 Q1587.16 1485.02 1585.8 1482.66 M1588.21 1481.27 Q1590.39 1485.04 1588.54 1488.76 Q1586.72 1492.48 1581.03 1495.76 Q1575.37 1499.03 1571.22 1498.76 Q1567.1 1498.49 1564.92 1494.72 Q1562.74 1490.94 1564.56 1487.23 Q1566.41 1483.51 1572.08 1480.24 Q1577.76 1476.96 1581.88 1477.23 Q1586.03 1477.5 1588.21 1481.27 Z" fill="#4c4c4c" fill-rule="evenodd" fill-opacity="1" /><path clip-path="url(#clip190)" d="M1697.82 1468.35 L1700.59 1466.75 Q1700.71 1468.21 1701.1 1469.55 Q1701.49 1470.88 1702.14 1472.01 Q1703.88 1475.02 1706.81 1475.43 Q1709.76 1475.86 1714.01 1473.7 Q1712.21 1473.58 1710.74 1472.64 Q1709.28 1471.7 1708.34 1470.08 Q1706.4 1466.71 1707.29 1463.57 Q1708.21 1460.43 1711.74 1458.39 Q1715.2 1456.4 1718.47 1457.23 Q1721.74 1458.07 1723.7 1461.47 Q1725.95 1465.36 1724.14 1469.14 Q1722.35 1472.91 1716.67 1476.2 Q1711.36 1479.26 1706.73 1478.57 Q1702.12 1477.88 1699.67 1473.62 Q1699.01 1472.48 1698.55 1471.18 Q1698.1 1469.87 1697.82 1468.35 M1710.83 1468.9 Q1712.01 1470.95 1714.1 1471.33 Q1716.19 1471.72 1718.62 1470.32 Q1721.04 1468.92 1721.75 1466.91 Q1722.48 1464.9 1721.3 1462.86 Q1720.11 1460.81 1718.01 1460.43 Q1715.92 1460.05 1713.5 1461.44 Q1711.07 1462.85 1710.35 1464.85 Q1709.65 1466.86 1710.83 1468.9 Z" fill="#4c4c4c" fill-rule="evenodd" fill-opacity="1" /><path clip-path="url(#clip190)" d="M1732.81 1482.81 Q1731.46 1480.46 1728.46 1480.61 Q1725.48 1480.77 1720.85 1483.44 Q1716.24 1486.11 1714.6 1488.62 Q1712.98 1491.13 1714.34 1493.48 Q1715.7 1495.84 1718.68 1495.68 Q1721.68 1495.53 1726.29 1492.87 Q1730.92 1490.2 1732.54 1487.68 Q1734.18 1485.17 1732.81 1482.81 M1735.22 1481.42 Q1737.4 1485.2 1735.55 1488.91 Q1733.73 1492.63 1728.05 1495.91 Q1722.38 1499.18 1718.23 1498.91 Q1714.11 1498.64 1711.93 1494.87 Q1709.75 1491.09 1711.57 1487.38 Q1713.42 1483.66 1719.09 1480.39 Q1724.77 1477.11 1728.89 1477.38 Q1733.04 1477.65 1735.22 1481.42 Z" fill="#4c4c4c" fill-rule="evenodd" fill-opacity="1" /><path clip-path="url(#clip190)" d="M1846.26 1466.14 L1849.12 1471.1 L1866.25 1461.21 L1862.05 1456.44 L1864.82 1454.84 L1869 1459.58 L1870.75 1462.62 L1850.86 1474.11 L1853.72 1479.07 L1851.17 1480.54 L1843.7 1467.61 L1846.26 1466.14 Z" fill="#4c4c4c" fill-rule="evenodd" fill-opacity="1" /><path clip-path="url(#clip190)" d="M1878.91 1481.37 Q1877.55 1479.02 1874.55 1479.17 Q1871.57 1479.33 1866.94 1482 Q1862.33 1484.66 1860.69 1487.17 Q1859.08 1489.69 1860.43 1492.04 Q1861.79 1494.4 1864.77 1494.24 Q1867.77 1494.09 1872.39 1491.43 Q1877.02 1488.75 1878.63 1486.24 Q1880.27 1483.73 1878.91 1481.37 M1881.31 1479.98 Q1883.49 1483.75 1881.65 1487.46 Q1879.82 1491.18 1874.14 1494.46 Q1868.47 1497.74 1864.33 1497.46 Q1860.2 1497.2 1858.02 1493.42 Q1855.85 1489.65 1857.67 1485.93 Q1859.51 1482.22 1865.18 1478.95 Q1870.87 1475.67 1874.99 1475.93 Q1879.13 1476.2 1881.31 1479.98 Z" fill="#4c4c4c" fill-rule="evenodd" fill-opacity="1" /><path clip-path="url(#clip190)" d="M1890.22 1500.96 Q1888.86 1498.61 1885.86 1498.76 Q1882.89 1498.92 1878.25 1501.59 Q1873.64 1504.26 1872 1506.76 Q1870.39 1509.28 1871.74 1511.63 Q1873.1 1513.99 1876.08 1513.83 Q1879.08 1513.68 1883.7 1511.02 Q1888.33 1508.34 1889.94 1505.83 Q1891.58 1503.32 1890.22 1500.96 M1892.62 1499.57 Q1894.8 1503.34 1892.96 1507.05 Q1891.13 1510.77 1885.45 1514.05 Q1879.78 1517.33 1875.64 1517.05 Q1871.51 1516.79 1869.33 1513.01 Q1867.16 1509.24 1868.98 1505.52 Q1870.82 1501.81 1876.49 1498.54 Q1882.18 1495.26 1886.3 1495.52 Q1890.45 1495.8 1892.62 1499.57 Z" fill="#4c4c4c" fill-rule="evenodd" fill-opacity="1" /><path clip-path="url(#clip190)" d="M1993.19 1466.14 L1996.05 1471.1 L2013.18 1461.21 L2008.98 1456.44 L2011.74 1454.84 L2015.92 1459.58 L2017.68 1462.62 L1997.79 1474.11 L2000.65 1479.07 L1998.09 1480.54 L1990.63 1467.61 L1993.19 1466.14 Z" fill="#4c4c4c" fill-rule="evenodd" fill-opacity="1" /><path clip-path="url(#clip190)" d="M2004.5 1485.73 L2007.36 1490.69 L2024.49 1480.8 L2020.29 1476.03 L2023.05 1474.43 L2027.23 1479.18 L2028.99 1482.21 L2009.1 1493.7 L2011.96 1498.66 L2009.41 1500.13 L2001.94 1487.2 L2004.5 1485.73 Z" fill="#4c4c4c" fill-rule="evenodd" fill-opacity="1" /><path clip-path="url(#clip190)" d="M2037.14 1500.96 Q2035.79 1498.61 2032.79 1498.76 Q2029.81 1498.92 2025.18 1501.59 Q2020.57 1504.26 2018.93 1506.76 Q2017.31 1509.28 2018.67 1511.63 Q2020.03 1513.99 2023.01 1513.83 Q2026.01 1513.68 2030.62 1511.02 Q2035.25 1508.34 2036.87 1505.83 Q2038.51 1503.32 2037.14 1500.96 M2039.55 1499.57 Q2041.73 1503.34 2039.88 1507.05 Q2038.06 1510.77 2032.38 1514.05 Q2026.71 1517.33 2022.56 1517.05 Q2018.44 1516.79 2016.26 1513.01 Q2014.08 1509.24 2015.9 1505.52 Q2017.75 1501.81 2023.42 1498.54 Q2029.1 1495.26 2033.23 1495.52 Q2037.37 1495.8 2039.55 1499.57 Z" fill="#4c4c4c" fill-rule="evenodd" fill-opacity="1" /><path clip-path="url(#clip190)" d="M2140.11 1466.14 L2142.98 1471.1 L2160.1 1461.21 L2155.9 1456.44 L2158.67 1454.84 L2162.85 1459.58 L2164.6 1462.62 L2144.71 1474.11 L2147.58 1479.07 L2145.02 1480.54 L2137.56 1467.61 L2140.11 1466.14 Z" fill="#4c4c4c" fill-rule="evenodd" fill-opacity="1" /><path clip-path="url(#clip190)" d="M2152.63 1487.82 L2158.75 1498.42 L2156.19 1499.89 L2147.96 1485.64 L2150.52 1484.16 Q2153.31 1484.86 2158.03 1486.1 Q2162.78 1487.35 2164.1 1487.61 Q2166.58 1488.12 2168.04 1488.04 Q2169.52 1487.97 2170.61 1487.34 Q2172.4 1486.3 2172.8 1484.39 Q2173.21 1482.49 2172.05 1480.48 Q2171.22 1479.05 2169.81 1477.74 Q2168.4 1476.45 2166.35 1475.23 L2169.42 1473.46 Q2171.21 1474.86 2172.51 1476.24 Q2173.8 1477.62 2174.57 1478.94 Q2176.58 1482.43 2176.04 1485.51 Q2175.49 1488.59 2172.57 1490.28 Q2171.19 1491.08 2169.64 1491.27 Q2168.11 1491.47 2165.64 1491.07 Q2164.98 1490.95 2161.73 1490.14 Q2158.49 1489.32 2152.63 1487.82 Z" fill="#4c4c4c" fill-rule="evenodd" fill-opacity="1" /><path clip-path="url(#clip190)" d="M2184.07 1500.96 Q2182.72 1498.61 2179.72 1498.76 Q2176.74 1498.92 2172.11 1501.59 Q2167.49 1504.26 2165.85 1506.76 Q2164.24 1509.28 2165.59 1511.63 Q2166.96 1513.99 2169.93 1513.83 Q2172.93 1513.68 2177.55 1511.02 Q2182.18 1508.34 2183.8 1505.83 Q2185.43 1503.32 2184.07 1500.96 M2186.48 1499.57 Q2188.66 1503.34 2186.81 1507.05 Q2184.99 1510.77 2179.3 1514.05 Q2173.64 1517.33 2169.49 1517.05 Q2165.37 1516.79 2163.19 1513.01 Q2161.01 1509.24 2162.83 1505.52 Q2164.68 1501.81 2170.35 1498.54 Q2176.03 1495.26 2180.15 1495.52 Q2184.3 1495.8 2186.48 1499.57 Z" fill="#4c4c4c" fill-rule="evenodd" fill-opacity="1" /><path clip-path="url(#clip190)" d="M2287.04 1466.14 L2289.9 1471.1 L2307.03 1461.21 L2302.83 1456.44 L2305.6 1454.84 L2309.78 1459.58 L2311.53 1462.62 L2291.64 1474.11 L2294.5 1479.07 L2291.95 1480.54 L2284.48 1467.61 L2287.04 1466.14 Z" fill="#4c4c4c" fill-rule="evenodd" fill-opacity="1" /><path clip-path="url(#clip190)" d="M2312.91 1488.89 Q2313.7 1491.34 2312.93 1493.41 Q2312.17 1495.49 2310 1496.74 Q2306.68 1498.66 2303.54 1497.43 Q2300.4 1496.19 2297.97 1491.98 Q2297.15 1490.57 2296.57 1488.9 Q2295.98 1487.25 2295.62 1485.34 L2298.55 1483.65 Q2298.54 1485.34 2299.04 1487.06 Q2299.53 1488.78 2300.47 1490.41 Q2302.12 1493.27 2304.11 1494.11 Q2306.11 1494.96 2308.26 1493.72 Q2310.24 1492.57 2310.55 1490.53 Q2310.87 1488.5 2309.44 1486.02 L2307.93 1483.4 L2310.43 1481.96 L2312.01 1484.7 Q2313.3 1486.94 2314.87 1487.61 Q2316.46 1488.28 2318.15 1487.31 Q2319.88 1486.31 2320.08 1484.55 Q2320.31 1482.79 2318.99 1480.51 Q2318.27 1479.26 2317.17 1477.99 Q2316.08 1476.71 2314.52 1475.33 L2317.22 1473.77 Q2318.7 1475.22 2319.81 1476.58 Q2320.93 1477.96 2321.7 1479.3 Q2323.7 1482.76 2323.28 1485.69 Q2322.88 1488.6 2320.21 1490.15 Q2318.34 1491.22 2316.43 1490.9 Q2314.54 1490.57 2312.91 1488.89 Z" fill="#4c4c4c" fill-rule="evenodd" fill-opacity="1" /><path clip-path="url(#clip190)" d="M2331 1500.96 Q2329.64 1498.61 2326.64 1498.76 Q2323.67 1498.92 2319.03 1501.59 Q2314.42 1504.26 2312.78 1506.76 Q2311.17 1509.28 2312.52 1511.63 Q2313.88 1513.99 2316.86 1513.83 Q2319.86 1513.68 2324.48 1511.02 Q2329.11 1508.34 2330.72 1505.83 Q2332.36 1503.32 2331 1500.96 M2333.4 1499.57 Q2335.58 1503.34 2333.74 1507.05 Q2331.91 1510.77 2326.23 1514.05 Q2320.56 1517.33 2316.42 1517.05 Q2312.29 1516.79 2310.11 1513.01 Q2307.94 1509.24 2309.76 1505.52 Q2311.6 1501.81 2317.27 1498.54 Q2322.96 1495.26 2327.08 1495.52 Q2331.22 1495.8 2333.4 1499.57 Z" fill="#4c4c4c" fill-rule="evenodd" fill-opacity="1" /><path clip-path="url(#clip190)" d="M1231.02 1537.87 L1235.7 1537.87 L1235.7 1572.43 L1231.02 1572.43 L1231.02 1537.87 Z" fill="#000000" fill-rule="evenodd" fill-opacity="1" /><path clip-path="url(#clip190)" d="M1249.03 1539.15 L1249.03 1546.51 L1257.81 1546.51 L1257.81 1549.82 L1249.03 1549.82 L1249.03 1563.89 Q1249.03 1567.06 1249.89 1567.97 Q1250.77 1568.87 1253.43 1568.87 L1257.81 1568.87 L1257.81 1572.43 L1253.43 1572.43 Q1248.5 1572.43 1246.63 1570.6 Q1244.75 1568.75 1244.75 1563.89 L1244.75 1549.82 L1241.63 1549.82 L1241.63 1546.51 L1244.75 1546.51 L1244.75 1539.15 L1249.03 1539.15 Z" fill="#000000" fill-rule="evenodd" fill-opacity="1" /><path clip-path="url(#clip190)" d="M1285.58 1558.41 L1285.58 1560.49 L1266 1560.49 Q1266.28 1564.89 1268.64 1567.2 Q1271.02 1569.49 1275.26 1569.49 Q1277.71 1569.49 1280 1568.89 Q1282.32 1568.29 1284.59 1567.09 L1284.59 1571.11 Q1282.3 1572.09 1279.89 1572.6 Q1277.48 1573.1 1275 1573.1 Q1268.8 1573.1 1265.17 1569.49 Q1261.56 1565.88 1261.56 1559.73 Q1261.56 1553.36 1264.98 1549.63 Q1268.43 1545.88 1274.26 1545.88 Q1279.5 1545.88 1282.53 1549.26 Q1285.58 1552.62 1285.58 1558.41 M1281.32 1557.16 Q1281.28 1553.66 1279.36 1551.58 Q1277.46 1549.49 1274.31 1549.49 Q1270.75 1549.49 1268.59 1551.51 Q1266.46 1553.52 1266.14 1557.18 L1281.32 1557.16 Z" fill="#000000" fill-rule="evenodd" fill-opacity="1" /><path clip-path="url(#clip190)" d="M1307.6 1550.49 Q1306.88 1550.07 1306.02 1549.89 Q1305.19 1549.68 1304.17 1549.68 Q1300.56 1549.68 1298.62 1552.04 Q1296.69 1554.38 1296.69 1558.78 L1296.69 1572.43 L1292.41 1572.43 L1292.41 1546.51 L1296.69 1546.51 L1296.69 1550.54 Q1298.04 1548.17 1300.19 1547.04 Q1302.34 1545.88 1305.42 1545.88 Q1305.86 1545.88 1306.39 1545.95 Q1306.93 1546 1307.57 1546.11 L1307.6 1550.49 Z" fill="#000000" fill-rule="evenodd" fill-opacity="1" /><path clip-path="url(#clip190)" d="M1323.85 1559.4 Q1318.68 1559.4 1316.69 1560.58 Q1314.7 1561.76 1314.7 1564.61 Q1314.7 1566.88 1316.18 1568.22 Q1317.69 1569.54 1320.26 1569.54 Q1323.8 1569.54 1325.93 1567.04 Q1328.08 1564.52 1328.08 1560.35 L1328.08 1559.4 L1323.85 1559.4 M1332.34 1557.64 L1332.34 1572.43 L1328.08 1572.43 L1328.08 1568.5 Q1326.62 1570.86 1324.45 1571.99 Q1322.27 1573.1 1319.12 1573.1 Q1315.14 1573.1 1312.78 1570.88 Q1310.44 1568.64 1310.44 1564.89 Q1310.44 1560.51 1313.36 1558.29 Q1316.3 1556.07 1322.11 1556.07 L1328.08 1556.07 L1328.08 1555.65 Q1328.08 1552.71 1326.14 1551.11 Q1324.22 1549.49 1320.72 1549.49 Q1318.5 1549.49 1316.39 1550.03 Q1314.29 1550.56 1312.34 1551.62 L1312.34 1547.69 Q1314.68 1546.79 1316.88 1546.35 Q1319.08 1545.88 1321.16 1545.88 Q1326.79 1545.88 1329.56 1548.8 Q1332.34 1551.72 1332.34 1557.64 Z" fill="#000000" fill-rule="evenodd" fill-opacity="1" /><path clip-path="url(#clip190)" d="M1345.33 1539.15 L1345.33 1546.51 L1354.1 1546.51 L1354.1 1549.82 L1345.33 1549.82 L1345.33 1563.89 Q1345.33 1567.06 1346.18 1567.97 Q1347.06 1568.87 1349.73 1568.87 L1354.1 1568.87 L1354.1 1572.43 L1349.73 1572.43 Q1344.8 1572.43 1342.92 1570.6 Q1341.05 1568.75 1341.05 1563.89 L1341.05 1549.82 L1337.92 1549.82 L1337.92 1546.51 L1341.05 1546.51 L1341.05 1539.15 L1345.33 1539.15 Z" fill="#000000" fill-rule="evenodd" fill-opacity="1" /><path clip-path="url(#clip190)" d="M1359.7 1546.51 L1363.96 1546.51 L1363.96 1572.43 L1359.7 1572.43 L1359.7 1546.51 M1359.7 1536.42 L1363.96 1536.42 L1363.96 1541.81 L1359.7 1541.81 L1359.7 1536.42 Z" fill="#000000" fill-rule="evenodd" fill-opacity="1" /><path clip-path="url(#clip190)" d="M1382.92 1549.49 Q1379.49 1549.49 1377.5 1552.18 Q1375.51 1554.84 1375.51 1559.49 Q1375.51 1564.15 1377.48 1566.83 Q1379.47 1569.49 1382.92 1569.49 Q1386.32 1569.49 1388.31 1566.81 Q1390.3 1564.12 1390.3 1559.49 Q1390.3 1554.89 1388.31 1552.2 Q1386.32 1549.49 1382.92 1549.49 M1382.92 1545.88 Q1388.48 1545.88 1391.65 1549.49 Q1394.82 1553.1 1394.82 1559.49 Q1394.82 1565.86 1391.65 1569.49 Q1388.48 1573.1 1382.92 1573.1 Q1377.34 1573.1 1374.17 1569.49 Q1371.02 1565.86 1371.02 1559.49 Q1371.02 1553.1 1374.17 1549.49 Q1377.34 1545.88 1382.92 1545.88 Z" fill="#000000" fill-rule="evenodd" fill-opacity="1" /><path clip-path="url(#clip190)" d="M1423.43 1556.79 L1423.43 1572.43 L1419.17 1572.43 L1419.17 1556.92 Q1419.17 1553.24 1417.74 1551.41 Q1416.3 1549.59 1413.43 1549.59 Q1409.98 1549.59 1407.99 1551.79 Q1406 1553.98 1406 1557.78 L1406 1572.43 L1401.72 1572.43 L1401.72 1546.51 L1406 1546.51 L1406 1550.54 Q1407.53 1548.2 1409.59 1547.04 Q1411.67 1545.88 1414.38 1545.88 Q1418.85 1545.88 1421.14 1548.66 Q1423.43 1551.41 1423.43 1556.79 Z" fill="#000000" fill-rule="evenodd" fill-opacity="1" /><path clip-path="url(#clip190)" d="M1448.45 1547.27 L1448.45 1551.3 Q1446.65 1550.37 1444.7 1549.91 Q1442.76 1549.45 1440.67 1549.45 Q1437.5 1549.45 1435.91 1550.42 Q1434.33 1551.39 1434.33 1553.34 Q1434.33 1554.82 1435.47 1555.67 Q1436.6 1556.51 1440.03 1557.27 L1441.49 1557.6 Q1446.02 1558.57 1447.92 1560.35 Q1449.84 1562.11 1449.84 1565.28 Q1449.84 1568.89 1446.97 1571 Q1444.12 1573.1 1439.12 1573.1 Q1437.04 1573.1 1434.77 1572.69 Q1432.53 1572.29 1430.03 1571.48 L1430.03 1567.09 Q1432.39 1568.31 1434.68 1568.94 Q1436.97 1569.54 1439.22 1569.54 Q1442.23 1569.54 1443.85 1568.52 Q1445.47 1567.48 1445.47 1565.6 Q1445.47 1563.87 1444.29 1562.94 Q1443.13 1562.02 1439.17 1561.16 L1437.69 1560.81 Q1433.73 1559.98 1431.97 1558.27 Q1430.21 1556.53 1430.21 1553.52 Q1430.21 1549.86 1432.8 1547.87 Q1435.4 1545.88 1440.17 1545.88 Q1442.53 1545.88 1444.61 1546.23 Q1446.69 1546.58 1448.45 1547.27 Z" fill="#000000" fill-rule="evenodd" fill-opacity="1" /><polyline clip-path="url(#clip192)" style="stroke:#ffffff; stroke-linecap:butt; stroke-linejoin:round; stroke-width:4; stroke-opacity:1; fill:none" points="
  328.109,1330.55 2352.76,1330.55 
  "/>
<polyline clip-path="url(#clip192)" style="stroke:#ffffff; stroke-linecap:butt; stroke-linejoin:round; stroke-width:4; stroke-opacity:1; fill:none" points="
  328.109,1118.57 2352.76,1118.57 
  "/>
<polyline clip-path="url(#clip192)" style="stroke:#ffffff; stroke-linecap:butt; stroke-linejoin:round; stroke-width:4; stroke-opacity:1; fill:none" points="
  328.109,906.582 2352.76,906.582 
  "/>
<polyline clip-path="url(#clip192)" style="stroke:#ffffff; stroke-linecap:butt; stroke-linejoin:round; stroke-width:4; stroke-opacity:1; fill:none" points="
  328.109,694.597 2352.76,694.597 
  "/>
<polyline clip-path="url(#clip192)" style="stroke:#ffffff; stroke-linecap:butt; stroke-linejoin:round; stroke-width:4; stroke-opacity:1; fill:none" points="
  328.109,482.612 2352.76,482.612 
  "/>
<polyline clip-path="url(#clip192)" style="stroke:#ffffff; stroke-linecap:butt; stroke-linejoin:round; stroke-width:4; stroke-opacity:1; fill:none" points="
  328.109,270.628 2352.76,270.628 
  "/>
<polyline clip-path="url(#clip192)" style="stroke:#ffffff; stroke-linecap:butt; stroke-linejoin:round; stroke-width:2; stroke-opacity:1; fill:none" points="
  328.109,1224.56 2352.76,1224.56 
  "/>
<polyline clip-path="url(#clip192)" style="stroke:#ffffff; stroke-linecap:butt; stroke-linejoin:round; stroke-width:2; stroke-opacity:1; fill:none" points="
  328.109,1012.57 2352.76,1012.57 
  "/>
<polyline clip-path="url(#clip192)" style="stroke:#ffffff; stroke-linecap:butt; stroke-linejoin:round; stroke-width:2; stroke-opacity:1; fill:none" points="
  328.109,800.589 2352.76,800.589 
  "/>
<polyline clip-path="url(#clip192)" style="stroke:#ffffff; stroke-linecap:butt; stroke-linejoin:round; stroke-width:2; stroke-opacity:1; fill:none" points="
  328.109,588.605 2352.76,588.605 
  "/>
<polyline clip-path="url(#clip192)" style="stroke:#ffffff; stroke-linecap:butt; stroke-linejoin:round; stroke-width:2; stroke-opacity:1; fill:none" points="
  328.109,376.62 2352.76,376.62 
  "/>
<polyline clip-path="url(#clip192)" style="stroke:#ffffff; stroke-linecap:butt; stroke-linejoin:round; stroke-width:2; stroke-opacity:1; fill:none" points="
  328.109,164.635 2352.76,164.635 
  "/>
<polyline clip-path="url(#clip190)" style="stroke:#ffffff; stroke-linecap:butt; stroke-linejoin:round; stroke-width:4; stroke-opacity:1; fill:none" points="
  328.109,1422.18 328.109,106.192 
  "/>
<polyline clip-path="url(#clip190)" style="stroke:#333333; stroke-linecap:butt; stroke-linejoin:round; stroke-width:4; stroke-opacity:1; fill:none" points="
  328.109,1330.55 309.211,1330.55 
  "/>
<polyline clip-path="url(#clip190)" style="stroke:#333333; stroke-linecap:butt; stroke-linejoin:round; stroke-width:4; stroke-opacity:1; fill:none" points="
  328.109,1118.57 309.211,1118.57 
  "/>
<polyline clip-path="url(#clip190)" style="stroke:#333333; stroke-linecap:butt; stroke-linejoin:round; stroke-width:4; stroke-opacity:1; fill:none" points="
  328.109,906.582 309.211,906.582 
  "/>
<polyline clip-path="url(#clip190)" style="stroke:#333333; stroke-linecap:butt; stroke-linejoin:round; stroke-width:4; stroke-opacity:1; fill:none" points="
  328.109,694.597 309.211,694.597 
  "/>
<polyline clip-path="url(#clip190)" style="stroke:#333333; stroke-linecap:butt; stroke-linejoin:round; stroke-width:4; stroke-opacity:1; fill:none" points="
  328.109,482.612 309.211,482.612 
  "/>
<polyline clip-path="url(#clip190)" style="stroke:#333333; stroke-linecap:butt; stroke-linejoin:round; stroke-width:4; stroke-opacity:1; fill:none" points="
  328.109,270.628 309.211,270.628 
  "/>
<polyline clip-path="url(#clip190)" style="stroke:#333333; stroke-linecap:butt; stroke-linejoin:round; stroke-width:4; stroke-opacity:1; fill:none" points="
  328.109,1224.56 318.66,1224.56 
  "/>
<polyline clip-path="url(#clip190)" style="stroke:#333333; stroke-linecap:butt; stroke-linejoin:round; stroke-width:4; stroke-opacity:1; fill:none" points="
  328.109,1012.57 318.66,1012.57 
  "/>
<polyline clip-path="url(#clip190)" style="stroke:#333333; stroke-linecap:butt; stroke-linejoin:round; stroke-width:4; stroke-opacity:1; fill:none" points="
  328.109,800.589 318.66,800.589 
  "/>
<polyline clip-path="url(#clip190)" style="stroke:#333333; stroke-linecap:butt; stroke-linejoin:round; stroke-width:4; stroke-opacity:1; fill:none" points="
  328.109,588.605 318.66,588.605 
  "/>
<polyline clip-path="url(#clip190)" style="stroke:#333333; stroke-linecap:butt; stroke-linejoin:round; stroke-width:4; stroke-opacity:1; fill:none" points="
  328.109,376.62 318.66,376.62 
  "/>
<polyline clip-path="url(#clip190)" style="stroke:#333333; stroke-linecap:butt; stroke-linejoin:round; stroke-width:4; stroke-opacity:1; fill:none" points="
  328.109,164.635 318.66,164.635 
  "/>
<path clip-path="url(#clip190)" d="M193.779 1330.89 L216.036 1330.89 L216.036 1333.84 L193.779 1333.84 L193.779 1330.89 Z" fill="#4c4c4c" fill-rule="evenodd" fill-opacity="1" /><path clip-path="url(#clip190)" d="M231.54 1329.15 Q229.179 1329.15 227.79 1330.77 Q226.418 1332.38 226.418 1335.2 Q226.418 1337.99 227.79 1339.62 Q229.179 1341.24 231.54 1341.24 Q233.901 1341.24 235.272 1339.62 Q236.661 1337.99 236.661 1335.2 Q236.661 1332.38 235.272 1330.77 Q233.901 1329.15 231.54 1329.15 M238.501 1318.16 L238.501 1321.36 Q237.182 1320.73 235.828 1320.4 Q234.491 1320.07 233.172 1320.07 Q229.699 1320.07 227.859 1322.42 Q226.036 1324.76 225.776 1329.5 Q226.8 1327.99 228.345 1327.19 Q229.89 1326.38 231.748 1326.38 Q235.654 1326.38 237.911 1328.75 Q240.185 1331.12 240.185 1335.2 Q240.185 1339.19 237.824 1341.6 Q235.463 1344.01 231.54 1344.01 Q227.043 1344.01 224.665 1340.58 Q222.286 1337.12 222.286 1330.58 Q222.286 1324.43 225.203 1320.79 Q228.12 1317.12 233.033 1317.12 Q234.352 1317.12 235.689 1317.38 Q237.043 1317.64 238.501 1318.16 Z" fill="#4c4c4c" fill-rule="evenodd" fill-opacity="1" /><path clip-path="url(#clip190)" d="M246.227 1339.1 L249.89 1339.1 L249.89 1343.51 L246.227 1343.51 L246.227 1339.1 Z" fill="#4c4c4c" fill-rule="evenodd" fill-opacity="1" /><path clip-path="url(#clip190)" d="M265.463 1329.15 Q263.102 1329.15 261.713 1330.77 Q260.342 1332.38 260.342 1335.2 Q260.342 1337.99 261.713 1339.62 Q263.102 1341.24 265.463 1341.24 Q267.824 1341.24 269.196 1339.62 Q270.585 1337.99 270.585 1335.2 Q270.585 1332.38 269.196 1330.77 Q267.824 1329.15 265.463 1329.15 M272.425 1318.16 L272.425 1321.36 Q271.105 1320.73 269.751 1320.4 Q268.414 1320.07 267.095 1320.07 Q263.623 1320.07 261.783 1322.42 Q259.96 1324.76 259.699 1329.5 Q260.724 1327.99 262.269 1327.19 Q263.814 1326.38 265.671 1326.38 Q269.578 1326.38 271.835 1328.75 Q274.109 1331.12 274.109 1335.2 Q274.109 1339.19 271.748 1341.6 Q269.387 1344.01 265.463 1344.01 Q260.967 1344.01 258.588 1340.58 Q256.21 1337.12 256.21 1330.58 Q256.21 1324.43 259.126 1320.79 Q262.043 1317.12 266.956 1317.12 Q268.276 1317.12 269.612 1317.38 Q270.967 1317.64 272.425 1318.16 Z" fill="#4c4c4c" fill-rule="evenodd" fill-opacity="1" /><path clip-path="url(#clip190)" d="M194.647 1118.9 L216.904 1118.9 L216.904 1121.86 L194.647 1121.86 L194.647 1118.9 Z" fill="#4c4c4c" fill-rule="evenodd" fill-opacity="1" /><path clip-path="url(#clip190)" d="M232.408 1117.17 Q230.047 1117.17 228.658 1118.78 Q227.286 1120.4 227.286 1123.21 Q227.286 1126.01 228.658 1127.64 Q230.047 1129.25 232.408 1129.25 Q234.769 1129.25 236.14 1127.64 Q237.529 1126.01 237.529 1123.21 Q237.529 1120.4 236.14 1118.78 Q234.769 1117.17 232.408 1117.17 M239.369 1106.18 L239.369 1109.37 Q238.05 1108.75 236.696 1108.42 Q235.359 1108.09 234.04 1108.09 Q230.567 1108.09 228.727 1110.43 Q226.904 1112.78 226.644 1117.52 Q227.668 1116.01 229.213 1115.21 Q230.758 1114.39 232.616 1114.39 Q236.522 1114.39 238.779 1116.77 Q241.053 1119.13 241.053 1123.21 Q241.053 1127.2 238.692 1129.62 Q236.331 1132.03 232.408 1132.03 Q227.911 1132.03 225.533 1128.59 Q223.154 1125.14 223.154 1118.59 Q223.154 1112.45 226.071 1108.8 Q228.988 1105.14 233.901 1105.14 Q235.22 1105.14 236.557 1105.4 Q237.911 1105.66 239.369 1106.18 Z" fill="#4c4c4c" fill-rule="evenodd" fill-opacity="1" /><path clip-path="url(#clip190)" d="M247.095 1127.12 L250.758 1127.12 L250.758 1131.53 L247.095 1131.53 L247.095 1127.12 Z" fill="#4c4c4c" fill-rule="evenodd" fill-opacity="1" /><path clip-path="url(#clip190)" d="M258.432 1105.61 L272.199 1105.61 L272.199 1108.56 L261.644 1108.56 L261.644 1114.91 Q262.408 1114.65 263.171 1114.53 Q263.935 1114.39 264.699 1114.39 Q269.039 1114.39 271.574 1116.77 Q274.109 1119.15 274.109 1123.21 Q274.109 1127.39 271.505 1129.72 Q268.901 1132.03 264.161 1132.03 Q262.529 1132.03 260.828 1131.75 Q259.144 1131.47 257.338 1130.92 L257.338 1127.39 Q258.901 1128.25 260.567 1128.66 Q262.234 1129.08 264.092 1129.08 Q267.095 1129.08 268.848 1127.5 Q270.602 1125.92 270.602 1123.21 Q270.602 1120.5 268.848 1118.92 Q267.095 1117.34 264.092 1117.34 Q262.685 1117.34 261.279 1117.65 Q259.89 1117.97 258.432 1118.63 L258.432 1105.61 Z" fill="#4c4c4c" fill-rule="evenodd" fill-opacity="1" /><path clip-path="url(#clip190)" d="M193.536 906.92 L215.793 906.92 L215.793 909.872 L193.536 909.872 L193.536 906.92 Z" fill="#4c4c4c" fill-rule="evenodd" fill-opacity="1" /><path clip-path="url(#clip190)" d="M231.297 905.184 Q228.935 905.184 227.547 906.799 Q226.175 908.413 226.175 911.226 Q226.175 914.021 227.547 915.653 Q228.935 917.267 231.297 917.267 Q233.658 917.267 235.029 915.653 Q236.418 914.021 236.418 911.226 Q236.418 908.413 235.029 906.799 Q233.658 905.184 231.297 905.184 M238.258 894.195 L238.258 897.389 Q236.939 896.764 235.585 896.434 Q234.248 896.104 232.929 896.104 Q229.456 896.104 227.616 898.448 Q225.793 900.792 225.533 905.531 Q226.557 904.021 228.102 903.222 Q229.647 902.406 231.505 902.406 Q235.411 902.406 237.668 904.785 Q239.942 907.146 239.942 911.226 Q239.942 915.219 237.581 917.632 Q235.22 920.045 231.297 920.045 Q226.8 920.045 224.422 916.608 Q222.043 913.153 222.043 906.608 Q222.043 900.462 224.96 896.816 Q227.876 893.153 232.79 893.153 Q234.109 893.153 235.446 893.413 Q236.8 893.674 238.258 894.195 Z" fill="#4c4c4c" fill-rule="evenodd" fill-opacity="1" /><path clip-path="url(#clip190)" d="M245.984 915.132 L249.647 915.132 L249.647 919.542 L245.984 919.542 L245.984 915.132 Z" fill="#4c4c4c" fill-rule="evenodd" fill-opacity="1" /><path clip-path="url(#clip190)" d="M266.921 896.677 L258.067 910.514 L266.921 910.514 L266.921 896.677 M266.001 893.622 L270.411 893.622 L270.411 910.514 L274.109 910.514 L274.109 913.431 L270.411 913.431 L270.411 919.542 L266.921 919.542 L266.921 913.431 L255.22 913.431 L255.22 910.045 L266.001 893.622 Z" fill="#4c4c4c" fill-rule="evenodd" fill-opacity="1" /><path clip-path="url(#clip190)" d="M194.387 694.936 L216.644 694.936 L216.644 697.887 L194.387 697.887 L194.387 694.936 Z" fill="#4c4c4c" fill-rule="evenodd" fill-opacity="1" /><path clip-path="url(#clip190)" d="M232.147 693.2 Q229.786 693.2 228.397 694.814 Q227.026 696.429 227.026 699.241 Q227.026 702.036 228.397 703.668 Q229.786 705.283 232.147 705.283 Q234.508 705.283 235.88 703.668 Q237.269 702.036 237.269 699.241 Q237.269 696.429 235.88 694.814 Q234.508 693.2 232.147 693.2 M239.109 682.21 L239.109 685.404 Q237.79 684.779 236.435 684.45 Q235.099 684.12 233.779 684.12 Q230.307 684.12 228.467 686.463 Q226.644 688.807 226.383 693.547 Q227.408 692.036 228.953 691.238 Q230.498 690.422 232.356 690.422 Q236.262 690.422 238.519 692.8 Q240.793 695.161 240.793 699.241 Q240.793 703.234 238.432 705.647 Q236.071 708.061 232.147 708.061 Q227.651 708.061 225.272 704.623 Q222.894 701.168 222.894 694.623 Q222.894 688.477 225.811 684.832 Q228.727 681.168 233.64 681.168 Q234.96 681.168 236.297 681.429 Q237.651 681.689 239.109 682.21 Z" fill="#4c4c4c" fill-rule="evenodd" fill-opacity="1" /><path clip-path="url(#clip190)" d="M246.835 703.147 L250.498 703.147 L250.498 707.557 L246.835 707.557 L246.835 703.147 Z" fill="#4c4c4c" fill-rule="evenodd" fill-opacity="1" /><path clip-path="url(#clip190)" d="M268.762 693.581 Q271.279 694.12 272.685 695.821 Q274.109 697.522 274.109 700.022 Q274.109 703.859 271.47 705.96 Q268.831 708.061 263.97 708.061 Q262.338 708.061 260.602 707.731 Q258.883 707.418 257.043 706.776 L257.043 703.39 Q258.501 704.241 260.237 704.675 Q261.974 705.109 263.866 705.109 Q267.164 705.109 268.883 703.807 Q270.619 702.505 270.619 700.022 Q270.619 697.731 269.005 696.446 Q267.408 695.144 264.543 695.144 L261.522 695.144 L261.522 692.262 L264.682 692.262 Q267.269 692.262 268.64 691.238 Q270.012 690.196 270.012 688.252 Q270.012 686.255 268.588 685.196 Q267.182 684.12 264.543 684.12 Q263.102 684.12 261.453 684.432 Q259.803 684.745 257.824 685.404 L257.824 682.279 Q259.821 681.724 261.557 681.446 Q263.31 681.168 264.855 681.168 Q268.848 681.168 271.175 682.991 Q273.501 684.797 273.501 687.887 Q273.501 690.04 272.269 691.533 Q271.036 693.009 268.762 693.581 Z" fill="#4c4c4c" fill-rule="evenodd" fill-opacity="1" /><path clip-path="url(#clip190)" d="M195.099 482.951 L217.356 482.951 L217.356 485.902 L195.099 485.902 L195.099 482.951 Z" fill="#4c4c4c" fill-rule="evenodd" fill-opacity="1" /><path clip-path="url(#clip190)" d="M232.859 481.215 Q230.498 481.215 229.109 482.829 Q227.738 484.444 227.738 487.257 Q227.738 490.052 229.109 491.684 Q230.498 493.298 232.859 493.298 Q235.22 493.298 236.592 491.684 Q237.981 490.052 237.981 487.257 Q237.981 484.444 236.592 482.829 Q235.22 481.215 232.859 481.215 M239.821 470.225 L239.821 473.42 Q238.501 472.795 237.147 472.465 Q235.81 472.135 234.491 472.135 Q231.019 472.135 229.179 474.479 Q227.356 476.823 227.095 481.562 Q228.12 480.052 229.665 479.253 Q231.21 478.437 233.067 478.437 Q236.974 478.437 239.231 480.816 Q241.505 483.177 241.505 487.257 Q241.505 491.25 239.144 493.663 Q236.783 496.076 232.859 496.076 Q228.363 496.076 225.984 492.638 Q223.606 489.184 223.606 482.638 Q223.606 476.493 226.522 472.847 Q229.439 469.184 234.352 469.184 Q235.672 469.184 237.008 469.444 Q238.363 469.705 239.821 470.225 Z" fill="#4c4c4c" fill-rule="evenodd" fill-opacity="1" /><path clip-path="url(#clip190)" d="M247.547 491.163 L251.21 491.163 L251.21 495.572 L247.547 495.572 L247.547 491.163 Z" fill="#4c4c4c" fill-rule="evenodd" fill-opacity="1" /><path clip-path="url(#clip190)" d="M261.869 492.621 L274.109 492.621 L274.109 495.572 L257.651 495.572 L257.651 492.621 Q259.647 490.555 263.085 487.083 Q266.539 483.593 267.425 482.586 Q269.109 480.694 269.769 479.392 Q270.446 478.073 270.446 476.805 Q270.446 474.739 268.987 473.437 Q267.546 472.135 265.22 472.135 Q263.571 472.135 261.73 472.708 Q259.908 473.281 257.824 474.444 L257.824 470.902 Q259.942 470.052 261.783 469.618 Q263.623 469.184 265.151 469.184 Q269.178 469.184 271.574 471.198 Q273.97 473.211 273.97 476.579 Q273.97 478.177 273.362 479.618 Q272.772 481.041 271.192 482.986 Q270.758 483.489 268.432 485.902 Q266.105 488.298 261.869 492.621 Z" fill="#4c4c4c" fill-rule="evenodd" fill-opacity="1" /><path clip-path="url(#clip190)" d="M194.821 270.966 L217.078 270.966 L217.078 273.918 L194.821 273.918 L194.821 270.966 Z" fill="#4c4c4c" fill-rule="evenodd" fill-opacity="1" /><path clip-path="url(#clip190)" d="M232.581 269.23 Q230.22 269.23 228.831 270.845 Q227.46 272.459 227.46 275.272 Q227.46 278.067 228.831 279.699 Q230.22 281.313 232.581 281.313 Q234.942 281.313 236.314 279.699 Q237.703 278.067 237.703 275.272 Q237.703 272.459 236.314 270.845 Q234.942 269.23 232.581 269.23 M239.543 258.241 L239.543 261.435 Q238.224 260.81 236.869 260.48 Q235.533 260.15 234.213 260.15 Q230.741 260.15 228.901 262.494 Q227.078 264.838 226.817 269.577 Q227.842 268.067 229.387 267.268 Q230.932 266.452 232.79 266.452 Q236.696 266.452 238.953 268.831 Q241.227 271.192 241.227 275.272 Q241.227 279.265 238.866 281.678 Q236.505 284.091 232.581 284.091 Q228.085 284.091 225.706 280.654 Q223.328 277.199 223.328 270.654 Q223.328 264.508 226.245 260.862 Q229.161 257.199 234.074 257.199 Q235.394 257.199 236.731 257.459 Q238.085 257.72 239.543 258.241 Z" fill="#4c4c4c" fill-rule="evenodd" fill-opacity="1" /><path clip-path="url(#clip190)" d="M247.269 279.178 L250.932 279.178 L250.932 283.588 L247.269 283.588 L247.269 279.178 Z" fill="#4c4c4c" fill-rule="evenodd" fill-opacity="1" /><path clip-path="url(#clip190)" d="M259.178 280.636 L264.908 280.636 L264.908 260.862 L258.675 262.112 L258.675 258.918 L264.873 257.668 L268.38 257.668 L268.38 280.636 L274.109 280.636 L274.109 283.588 L259.178 283.588 L259.178 280.636 Z" fill="#4c4c4c" fill-rule="evenodd" fill-opacity="1" /><path clip-path="url(#clip190)" d="M130.608 973.882 L130.608 944.646 L134.544 944.646 L134.544 956.915 L165.168 956.915 L165.168 961.614 L134.544 961.614 L134.544 973.882 L130.608 973.882 Z" fill="#000000" fill-rule="evenodd" fill-opacity="1" /><path clip-path="url(#clip190)" d="M151.141 926.198 L153.224 926.198 L153.224 945.781 Q157.622 945.503 159.937 943.142 Q162.229 940.758 162.229 936.522 Q162.229 934.068 161.627 931.776 Q161.025 929.461 159.821 927.193 L163.849 927.193 Q164.821 929.485 165.33 931.892 Q165.84 934.299 165.84 936.776 Q165.84 942.98 162.229 946.614 Q158.617 950.225 152.46 950.225 Q146.094 950.225 142.368 946.799 Q138.618 943.35 138.618 937.517 Q138.618 932.285 141.997 929.253 Q145.354 926.198 151.141 926.198 M149.891 930.457 Q146.395 930.503 144.312 932.424 Q142.229 934.322 142.229 937.471 Q142.229 941.035 144.243 943.188 Q146.256 945.318 149.914 945.642 L149.891 930.457 Z" fill="#000000" fill-rule="evenodd" fill-opacity="1" /><path clip-path="url(#clip190)" d="M140.006 902.679 L144.034 902.679 Q143.108 904.485 142.645 906.429 Q142.182 908.374 142.182 910.457 Q142.182 913.628 143.155 915.225 Q144.127 916.799 146.071 916.799 Q147.553 916.799 148.409 915.665 Q149.243 914.531 150.006 911.105 L150.33 909.647 Q151.303 905.11 153.085 903.212 Q154.844 901.29 158.016 901.29 Q161.627 901.29 163.733 904.161 Q165.84 907.008 165.84 912.008 Q165.84 914.091 165.423 916.36 Q165.029 918.605 164.219 921.105 L159.821 921.105 Q161.048 918.744 161.673 916.452 Q162.275 914.161 162.275 911.915 Q162.275 908.906 161.256 907.286 Q160.215 905.665 158.34 905.665 Q156.604 905.665 155.678 906.846 Q154.752 908.003 153.895 911.961 L153.548 913.443 Q152.715 917.401 151.002 919.161 Q149.266 920.92 146.256 920.92 Q142.599 920.92 140.608 918.327 Q138.618 915.735 138.618 910.966 Q138.618 908.605 138.965 906.522 Q139.312 904.438 140.006 902.679 Z" fill="#000000" fill-rule="evenodd" fill-opacity="1" /><path clip-path="url(#clip190)" d="M131.882 890.295 L139.243 890.295 L139.243 881.522 L142.553 881.522 L142.553 890.295 L156.627 890.295 Q159.798 890.295 160.701 889.438 Q161.604 888.559 161.604 885.897 L161.604 881.522 L165.168 881.522 L165.168 885.897 Q165.168 890.827 163.34 892.702 Q161.488 894.577 156.627 894.577 L142.553 894.577 L142.553 897.702 L139.243 897.702 L139.243 894.577 L131.882 894.577 L131.882 890.295 Z" fill="#000000" fill-rule="evenodd" fill-opacity="1" /><path clip-path="url(#clip190)" d="M129.15 860.851 L129.15 856.591 L165.168 856.591 L165.168 860.851 L129.15 860.851 Z" fill="#000000" fill-rule="evenodd" fill-opacity="1" /><path clip-path="url(#clip190)" d="M142.229 837.633 Q142.229 841.059 144.914 843.05 Q147.576 845.041 152.229 845.041 Q156.881 845.041 159.567 843.073 Q162.229 841.082 162.229 837.633 Q162.229 834.23 159.543 832.24 Q156.858 830.249 152.229 830.249 Q147.622 830.249 144.937 832.24 Q142.229 834.23 142.229 837.633 M138.618 837.633 Q138.618 832.078 142.229 828.906 Q145.84 825.735 152.229 825.735 Q158.594 825.735 162.229 828.906 Q165.84 832.078 165.84 837.633 Q165.84 843.212 162.229 846.383 Q158.594 849.531 152.229 849.531 Q145.84 849.531 142.229 846.383 Q138.618 843.212 138.618 837.633 Z" fill="#000000" fill-rule="evenodd" fill-opacity="1" /><path clip-path="url(#clip190)" d="M151.905 801.615 Q147.275 801.615 144.729 803.536 Q142.182 805.434 142.182 808.883 Q142.182 812.309 144.729 814.231 Q147.275 816.129 151.905 816.129 Q156.511 816.129 159.057 814.231 Q161.604 812.309 161.604 808.883 Q161.604 805.434 159.057 803.536 Q156.511 801.615 151.905 801.615 M161.951 797.356 Q168.571 797.356 171.789 800.295 Q175.029 803.235 175.029 809.3 Q175.029 811.545 174.682 813.536 Q174.358 815.527 173.664 817.402 L169.52 817.402 Q170.539 815.527 171.025 813.698 Q171.511 811.869 171.511 809.971 Q171.511 805.781 169.312 803.698 Q167.136 801.615 162.715 801.615 L160.608 801.615 Q162.9 802.934 164.034 804.994 Q165.168 807.055 165.168 809.925 Q165.168 814.693 161.534 817.61 Q157.9 820.527 151.905 820.527 Q145.886 820.527 142.252 817.61 Q138.618 814.693 138.618 809.925 Q138.618 807.055 139.752 804.994 Q140.886 802.934 143.178 801.615 L139.243 801.615 L139.243 797.356 L161.951 797.356 Z" fill="#000000" fill-rule="evenodd" fill-opacity="1" /><path clip-path="url(#clip190)" d="M150.284 790.735 L150.284 778.258 L154.08 778.258 L154.08 790.735 L150.284 790.735 Z" fill="#000000" fill-rule="evenodd" fill-opacity="1" /><path clip-path="url(#clip190)" d="M129.15 771.476 L129.15 767.217 L165.168 767.217 L165.168 771.476 L129.15 771.476 Z" fill="#000000" fill-rule="evenodd" fill-opacity="1" /><path clip-path="url(#clip190)" d="M139.243 758.305 L139.243 754.046 L165.168 754.046 L165.168 758.305 L139.243 758.305 M129.15 758.305 L129.15 754.046 L134.544 754.046 L134.544 758.305 L129.15 758.305 Z" fill="#000000" fill-rule="evenodd" fill-opacity="1" /><path clip-path="url(#clip190)" d="M129.15 745.296 L129.15 741.013 L150.423 741.013 L139.243 728.305 L139.243 722.865 L151.372 736.615 L165.168 722.287 L165.168 727.842 L152.506 741.013 L165.168 741.013 L165.168 745.296 L129.15 745.296 Z" fill="#000000" fill-rule="evenodd" fill-opacity="1" /><path clip-path="url(#clip190)" d="M151.141 697.194 L153.224 697.194 L153.224 716.777 Q157.622 716.5 159.937 714.138 Q162.229 711.754 162.229 707.518 Q162.229 705.064 161.627 702.773 Q161.025 700.458 159.821 698.189 L163.849 698.189 Q164.821 700.481 165.33 702.889 Q165.84 705.296 165.84 707.773 Q165.84 713.976 162.229 717.611 Q158.617 721.222 152.46 721.222 Q146.094 721.222 142.368 717.796 Q138.618 714.347 138.618 708.513 Q138.618 703.282 141.997 700.25 Q145.354 697.194 151.141 697.194 M149.891 701.453 Q146.395 701.5 144.312 703.421 Q142.229 705.319 142.229 708.467 Q142.229 712.032 144.243 714.185 Q146.256 716.314 149.914 716.638 L149.891 701.453 Z" fill="#000000" fill-rule="evenodd" fill-opacity="1" /><path clip-path="url(#clip190)" d="M129.15 690.203 L129.15 685.944 L165.168 685.944 L165.168 690.203 L129.15 690.203 Z" fill="#000000" fill-rule="evenodd" fill-opacity="1" /><path clip-path="url(#clip190)" d="M139.243 677.032 L139.243 672.773 L165.168 672.773 L165.168 677.032 L139.243 677.032 M129.15 677.032 L129.15 672.773 L134.544 672.773 L134.544 677.032 L129.15 677.032 Z" fill="#000000" fill-rule="evenodd" fill-opacity="1" /><path clip-path="url(#clip190)" d="M149.52 642.31 L165.168 642.31 L165.168 646.569 L149.659 646.569 Q145.979 646.569 144.15 648.005 Q142.321 649.44 142.321 652.31 Q142.321 655.759 144.52 657.75 Q146.719 659.741 150.516 659.741 L165.168 659.741 L165.168 664.023 L129.15 664.023 L129.15 659.741 L143.27 659.741 Q140.932 658.213 139.775 656.153 Q138.618 654.069 138.618 651.361 Q138.618 646.893 141.395 644.602 Q144.15 642.31 149.52 642.31 Z" fill="#000000" fill-rule="evenodd" fill-opacity="1" /><path clip-path="url(#clip190)" d="M142.229 623.769 Q142.229 627.194 144.914 629.185 Q147.576 631.176 152.229 631.176 Q156.881 631.176 159.567 629.208 Q162.229 627.218 162.229 623.769 Q162.229 620.366 159.543 618.375 Q156.858 616.384 152.229 616.384 Q147.622 616.384 144.937 618.375 Q142.229 620.366 142.229 623.769 M138.618 623.769 Q138.618 618.213 142.229 615.042 Q145.84 611.87 152.229 611.87 Q158.594 611.87 162.229 615.042 Q165.84 618.213 165.84 623.769 Q165.84 629.347 162.229 632.519 Q158.594 635.667 152.229 635.667 Q145.84 635.667 142.229 632.519 Q138.618 629.347 138.618 623.769 Z" fill="#000000" fill-rule="evenodd" fill-opacity="1" /><path clip-path="url(#clip190)" d="M142.229 594.764 Q142.229 598.19 144.914 600.181 Q147.576 602.171 152.229 602.171 Q156.881 602.171 159.567 600.204 Q162.229 598.213 162.229 594.764 Q162.229 591.361 159.543 589.371 Q156.858 587.38 152.229 587.38 Q147.622 587.38 144.937 589.371 Q142.229 591.361 142.229 594.764 M138.618 594.764 Q138.618 589.209 142.229 586.037 Q145.84 582.866 152.229 582.866 Q158.594 582.866 162.229 586.037 Q165.84 589.209 165.84 594.764 Q165.84 600.343 162.229 603.514 Q158.594 606.662 152.229 606.662 Q145.84 606.662 142.229 603.514 Q138.618 600.343 138.618 594.764 Z" fill="#000000" fill-rule="evenodd" fill-opacity="1" /><path clip-path="url(#clip190)" d="M143.178 558.746 L129.15 558.746 L129.15 554.487 L165.168 554.487 L165.168 558.746 L161.28 558.746 Q163.594 560.088 164.729 562.149 Q165.84 564.186 165.84 567.056 Q165.84 571.755 162.09 574.718 Q158.34 577.658 152.229 577.658 Q146.118 577.658 142.368 574.718 Q138.618 571.755 138.618 567.056 Q138.618 564.186 139.752 562.149 Q140.863 560.088 143.178 558.746 M152.229 573.26 Q156.928 573.26 159.613 571.338 Q162.275 569.394 162.275 566.014 Q162.275 562.635 159.613 560.69 Q156.928 558.746 152.229 558.746 Q147.53 558.746 144.868 560.69 Q142.182 562.635 142.182 566.014 Q142.182 569.394 144.868 571.338 Q147.53 573.26 152.229 573.26 Z" fill="#000000" fill-rule="evenodd" fill-opacity="1" /><path clip-path="url(#clip190)" d="M1272.22 25.6538 Q1274.21 22.0659 1276.99 20.3587 Q1279.77 18.6515 1283.53 18.6515 Q1288.6 18.6515 1291.34 22.2105 Q1294.09 25.7406 1294.09 32.2799 L1294.09 51.84 L1288.74 51.84 L1288.74 32.4535 Q1288.74 27.795 1287.09 25.5381 Q1285.44 23.2811 1282.06 23.2811 Q1277.92 23.2811 1275.52 26.03 Q1273.12 28.7788 1273.12 33.5241 L1273.12 51.84 L1267.76 51.84 L1267.76 32.4535 Q1267.76 27.7661 1266.11 25.5381 Q1264.46 23.2811 1261.02 23.2811 Q1256.94 23.2811 1254.54 26.0589 Q1252.14 28.8077 1252.14 33.5241 L1252.14 51.84 L1246.78 51.84 L1246.78 19.4328 L1252.14 19.4328 L1252.14 24.4675 Q1253.96 21.4872 1256.51 20.0693 Q1259.05 18.6515 1262.55 18.6515 Q1266.08 18.6515 1268.54 20.4455 Q1271.03 22.2395 1272.22 25.6538 Z" fill="#000000" fill-rule="evenodd" fill-opacity="1" /><path clip-path="url(#clip190)" d="M1325.37 20.3876 L1325.37 25.4223 Q1323.11 24.2649 1320.68 23.6862 Q1318.25 23.1075 1315.65 23.1075 Q1311.69 23.1075 1309.69 24.3228 Q1307.72 25.5381 1307.72 27.9686 Q1307.72 29.8204 1309.14 30.891 Q1310.56 31.9327 1314.84 32.8876 L1316.66 33.2926 Q1322.33 34.5079 1324.71 36.7359 Q1327.11 38.935 1327.11 42.8991 Q1327.11 47.4129 1323.52 50.046 Q1319.96 52.6791 1313.71 52.6791 Q1311.11 52.6791 1308.27 52.1583 Q1305.46 51.6664 1302.34 50.6537 L1302.34 45.156 Q1305.29 46.6896 1308.16 47.4708 Q1311.02 48.2231 1313.83 48.2231 Q1317.59 48.2231 1319.61 46.95 Q1321.64 45.6479 1321.64 43.3042 Q1321.64 41.134 1320.16 39.9766 Q1318.72 38.8192 1313.77 37.7486 L1311.92 37.3146 Q1306.97 36.273 1304.77 34.1318 Q1302.57 31.9616 1302.57 28.2001 Q1302.57 23.6283 1305.81 21.1399 Q1309.05 18.6515 1315.01 18.6515 Q1317.96 18.6515 1320.57 19.0855 Q1323.17 19.5196 1325.37 20.3876 Z" fill="#000000" fill-rule="evenodd" fill-opacity="1" /><path clip-path="url(#clip190)" d="M1362.52 32.2799 L1362.52 51.84 L1357.2 51.84 L1357.2 32.4535 Q1357.2 27.8529 1355.41 25.567 Q1353.61 23.2811 1350.02 23.2811 Q1345.71 23.2811 1343.22 26.03 Q1340.74 28.7788 1340.74 33.5241 L1340.74 51.84 L1335.38 51.84 L1335.38 19.4328 L1340.74 19.4328 L1340.74 24.4675 Q1342.65 21.545 1345.22 20.0983 Q1347.83 18.6515 1351.21 18.6515 Q1356.8 18.6515 1359.66 22.1237 Q1362.52 25.567 1362.52 32.2799 Z" fill="#000000" fill-rule="evenodd" fill-opacity="1" /><path clip-path="url(#clip190)" d="M1396.41 35.6653 Q1396.41 29.7915 1393.98 26.464 Q1391.58 23.1075 1387.35 23.1075 Q1383.13 23.1075 1380.7 26.464 Q1378.29 29.7915 1378.29 35.6653 Q1378.29 41.5391 1380.7 44.8956 Q1383.13 48.2231 1387.35 48.2231 Q1391.58 48.2231 1393.98 44.8956 Q1396.41 41.5391 1396.41 35.6653 M1378.29 24.3517 Q1379.97 21.4582 1382.52 20.0693 Q1385.09 18.6515 1388.65 18.6515 Q1394.56 18.6515 1398.23 23.339 Q1401.93 28.0265 1401.93 35.6653 Q1401.93 43.3042 1398.23 47.9916 Q1394.56 52.6791 1388.65 52.6791 Q1385.09 52.6791 1382.52 51.2902 Q1379.97 49.8724 1378.29 46.9789 L1378.29 51.84 L1372.94 51.84 L1372.94 6.81709 L1378.29 6.81709 L1378.29 24.3517 Z" fill="#000000" fill-rule="evenodd" fill-opacity="1" /><path clip-path="url(#clip190)" d="M1434.08 20.677 L1434.08 25.6538 Q1431.82 24.4096 1429.54 23.802 Q1427.28 23.1654 1424.97 23.1654 Q1419.79 23.1654 1416.92 26.464 Q1414.06 29.7336 1414.06 35.6653 Q1414.06 41.597 1416.92 44.8956 Q1419.79 48.1653 1424.97 48.1653 Q1427.28 48.1653 1429.54 47.5576 Q1431.82 46.921 1434.08 45.6768 L1434.08 50.5958 Q1431.85 51.6375 1429.45 52.1583 Q1427.08 52.6791 1424.39 52.6791 Q1417.07 52.6791 1412.76 48.0784 Q1408.44 43.4778 1408.44 35.6653 Q1408.44 27.7371 1412.78 23.1943 Q1417.15 18.6515 1424.73 18.6515 Q1427.19 18.6515 1429.54 19.1724 Q1431.88 19.6642 1434.08 20.677 Z" fill="#000000" fill-rule="evenodd" fill-opacity="1" /><polyline clip-path="url(#clip192)" style="stroke:#e26f46; stroke-linecap:butt; stroke-linejoin:round; stroke-width:8; stroke-opacity:1; fill:none" points="
  414.795,291.826 444.181,291.826 473.566,291.826 502.951,291.826 532.337,291.826 561.722,291.826 591.107,291.826 620.493,291.826 649.878,291.826 679.263,291.826 
  708.648,291.826 738.034,291.826 767.419,291.826 796.804,291.826 826.19,291.826 855.575,291.826 884.96,291.826 914.346,291.826 943.731,291.826 973.116,291.826 
  1002.5,291.826 1031.89,291.826 1061.27,291.826 1090.66,291.826 1120.04,291.826 1149.43,291.826 1178.81,291.826 1208.2,291.826 1237.58,291.826 1266.97,291.826 
  1296.35,291.826 1325.74,291.826 1355.13,291.826 1384.51,291.826 1413.9,291.826 1443.28,291.826 1472.67,291.826 1502.05,291.826 1531.44,291.826 1560.82,291.826 
  1590.21,291.826 1619.59,291.826 1648.98,291.826 1678.36,291.826 1707.75,291.826 1737.13,291.826 1766.52,291.826 1795.9,291.826 1825.29,291.826 1854.68,291.826 
  1884.06,291.826 1913.45,291.826 1942.83,291.826 1972.22,291.826 2001.6,291.826 2030.99,291.826 2060.37,291.826 2089.76,291.826 2119.14,291.826 2148.53,291.826 
  2177.91,291.826 2207.3,291.826 2236.68,291.826 2266.07,291.826 2295.45,291.826 
  "/>
<polyline clip-path="url(#clip192)" style="stroke:#3da44d; stroke-linecap:butt; stroke-linejoin:round; stroke-width:8; stroke-opacity:1; fill:none" points="
  414.795,143.437 444.181,143.437 473.566,143.437 502.951,143.437 532.337,143.437 561.722,143.437 591.107,143.437 620.493,143.437 649.878,143.437 679.263,143.437 
  708.648,143.437 738.034,143.437 767.419,143.437 796.804,143.437 826.19,143.437 855.575,143.437 884.96,143.437 914.346,143.437 943.731,143.437 973.116,143.437 
  1002.5,143.437 1031.89,143.437 1061.27,143.437 1090.66,143.437 1120.04,143.437 1149.43,143.437 1178.81,143.437 1208.2,143.437 1237.58,143.437 1266.97,143.437 
  1296.35,143.437 1325.74,143.437 1355.13,143.437 1384.51,143.437 1413.9,143.437 1443.28,143.437 1472.67,143.437 1502.05,143.437 1531.44,143.437 1560.82,143.437 
  1590.21,143.437 1619.59,143.437 1648.98,143.437 1678.36,143.437 1707.75,143.437 1737.13,143.437 1766.52,143.437 1795.9,143.437 1825.29,143.437 1854.68,143.437 
  1884.06,143.437 1913.45,143.437 1942.83,143.437 1972.22,143.437 2001.6,143.437 2030.99,143.437 2060.37,143.437 2089.76,143.437 2119.14,143.437 2148.53,143.437 
  2177.91,143.437 2207.3,143.437 2236.68,143.437 2266.07,143.437 2295.45,143.437 
  "/>
<polyline clip-path="url(#clip192)" style="stroke:#c271d2; stroke-linecap:butt; stroke-linejoin:round; stroke-width:8; stroke-opacity:1; fill:none" points="
  414.795,143.437 444.181,143.437 473.566,143.437 502.951,143.437 532.337,143.437 561.722,143.437 591.107,143.437 620.493,143.437 649.878,143.437 679.263,143.437 
  708.648,143.437 738.034,143.437 767.419,143.437 796.804,143.437 826.19,143.437 855.575,143.437 884.96,143.437 914.346,143.437 943.731,143.437 973.116,143.437 
  1002.5,143.437 1031.89,143.437 1061.27,143.437 1090.66,143.437 1120.04,143.437 1149.43,143.437 1178.81,143.437 1208.2,143.437 1237.58,143.437 1266.97,143.437 
  1296.35,143.437 1325.74,143.437 1355.13,143.437 1384.51,143.437 1413.9,143.437 1443.28,143.437 1472.67,143.437 1502.05,143.437 1531.44,143.437 1560.82,143.437 
  1590.21,143.437 1619.59,143.437 1648.98,143.437 1678.36,143.437 1707.75,143.437 1737.13,143.437 1766.52,143.437 1795.9,143.437 1825.29,143.437 1854.68,143.437 
  1884.06,143.437 1913.45,143.437 1942.83,143.437 1972.22,143.437 2001.6,143.437 2030.99,143.437 2060.37,143.437 2089.76,143.437 2119.14,143.437 2148.53,143.437 
  2177.91,143.437 2207.3,143.437 2236.68,143.437 2266.07,143.437 2295.45,143.437 
  "/>
<polyline clip-path="url(#clip192)" style="stroke:#ac8d18; stroke-linecap:butt; stroke-linejoin:round; stroke-width:8; stroke-opacity:1; fill:none" points="
  414.795,440.216 444.181,440.216 473.566,440.216 502.951,440.216 532.337,440.216 561.722,440.216 591.107,440.216 620.493,440.216 649.878,440.216 679.263,440.216 
  708.648,440.216 738.034,440.216 767.419,440.216 796.804,440.216 826.19,440.216 855.575,440.216 884.96,440.216 914.346,440.216 943.731,440.216 973.116,440.216 
  1002.5,440.216 1031.89,440.216 1061.27,440.216 1090.66,440.216 1120.04,440.216 1149.43,440.216 1178.81,440.216 1208.2,440.216 1237.58,440.216 1266.97,440.216 
  1296.35,440.216 1325.74,440.216 1355.13,440.216 1384.51,440.216 1413.9,440.216 1443.28,440.216 1472.67,440.216 1502.05,440.216 1531.44,440.216 1560.82,440.216 
  1590.21,440.216 1619.59,440.216 1648.98,440.216 1678.36,440.216 1707.75,440.216 1737.13,440.216 1766.52,440.216 1795.9,440.216 1825.29,440.216 1854.68,440.216 
  1884.06,440.216 1913.45,440.216 1942.83,440.216 1972.22,440.216 2001.6,440.216 2030.99,440.216 2060.37,440.216 2089.76,440.216 2119.14,440.216 2148.53,440.216 
  2177.91,440.216 2207.3,440.216 2236.68,440.216 2266.07,440.216 2295.45,440.216 
  "/>
<polyline clip-path="url(#clip192)" style="stroke:#00a9ad; stroke-linecap:butt; stroke-linejoin:round; stroke-width:8; stroke-opacity:1; fill:none" points="
  414.795,143.437 444.181,143.437 473.566,143.437 502.951,143.437 532.337,143.437 561.722,143.437 591.107,143.437 620.493,143.437 649.878,143.437 679.263,143.437 
  708.648,143.437 738.034,143.437 767.419,143.437 796.804,143.437 826.19,143.437 855.575,143.437 884.96,143.437 914.346,143.437 943.731,143.437 973.116,143.437 
  1002.5,143.437 1031.89,143.437 1061.27,143.437 1090.66,143.437 1120.04,143.437 1149.43,143.437 1178.81,143.437 1208.2,143.437 1237.58,143.437 1266.97,143.437 
  1296.35,143.437 1325.74,143.437 1355.13,143.437 1384.51,143.437 1413.9,143.437 1443.28,143.437 1472.67,143.437 1502.05,143.437 1531.44,143.437 1560.82,143.437 
  1590.21,143.437 1619.59,143.437 1648.98,143.437 1678.36,143.437 1707.75,143.437 1737.13,143.437 1766.52,143.437 1795.9,143.437 1825.29,143.437 1854.68,143.437 
  1884.06,143.437 1913.45,143.437 1942.83,143.437 1972.22,143.437 2001.6,143.437 2030.99,143.437 2060.37,143.437 2089.76,143.437 2119.14,143.437 2148.53,143.437 
  2177.91,143.437 2207.3,143.437 2236.68,143.437 2266.07,143.437 2295.45,143.437 
  "/>
<polyline clip-path="url(#clip192)" style="stroke:#009af9; stroke-linecap:butt; stroke-linejoin:round; stroke-width:12; stroke-opacity:1; fill:none" points="
  414.795,1384.93 444.181,1212.17 473.566,1139.87 502.951,1072.36 532.337,1040.06 561.722,1027.08 591.107,1003.95 620.493,986.045 649.878,976.495 679.263,970.813 
  708.648,962.302 738.034,948.847 767.419,931.337 796.804,926.282 826.19,924.22 855.575,927.665 884.96,914.911 914.346,909.792 943.731,904.985 973.116,903.2 
  1002.5,895.389 1031.89,889.891 1061.27,887.84 1090.66,882.33 1120.04,878.283 1149.43,882.729 1178.81,880.456 1208.2,875.996 1237.58,870.953 1266.97,867.027 
  1296.35,867.926 1325.74,864.487 1355.13,865.865 1384.51,865.156 1413.9,863.883 1443.28,865.235 1472.67,863.699 1502.05,862.725 1531.44,858.95 1560.82,858.019 
  1590.21,858.024 1619.59,857.222 1648.98,854.493 1678.36,855.378 1707.75,854.679 1737.13,853.339 1766.52,852.122 1795.9,851.264 1825.29,850.792 1854.68,849.915 
  
  "/>
<polyline clip-path="url(#clip192)" style="stroke:#f05f73; stroke-linecap:butt; stroke-linejoin:round; stroke-width:12; stroke-opacity:1; fill:none" points="
  1854.68,849.915 1884.06,840.272 1913.45,834.71 1942.83,829.443 1972.22,824.263 2001.6,819.168 2030.99,814.276 2060.37,809.782 2089.76,805.906 2119.14,802.787 
  2148.53,800.41 2177.91,798.626 2207.3,797.254 2236.68,796.142 2266.07,795.181 2295.45,794.3 
  "/>
</svg>
