<?xml version="1.0" encoding="utf-8"?>
<svg xmlns="http://www.w3.org/2000/svg" xmlns:xlink="http://www.w3.org/1999/xlink" width="600" height="400" viewBox="0 0 2400 1600">
<defs>
  <clipPath id="clip470">
    <rect x="0" y="0" width="2400" height="1600"/>
  </clipPath>
</defs>
<path clip-path="url(#clip470)" d="
M0 1600 L2400 1600 L2400 0 L0 0  Z
  " fill="#ffffff" fill-rule="evenodd" fill-opacity="1"/>
<defs>
  <clipPath id="clip471">
    <rect x="480" y="0" width="1681" height="1600"/>
  </clipPath>
</defs>
<path clip-path="url(#clip470)" d="
M240.494 1444.78 L2352.76 1444.78 L2352.76 106.192 L240.494 106.192  Z
  " fill="#eaeaea" fill-rule="evenodd" fill-opacity="1"/>
<defs>
  <clipPath id="clip472">
    <rect x="240" y="106" width="2113" height="1340"/>
  </clipPath>
</defs>
<polyline clip-path="url(#clip472)" style="stroke:#ffffff; stroke-linecap:butt; stroke-linejoin:round; stroke-width:4; stroke-opacity:1; fill:none" points="
  300.275,1444.78 300.275,106.192 
  "/>
<polyline clip-path="url(#clip472)" style="stroke:#ffffff; stroke-linecap:butt; stroke-linejoin:round; stroke-width:4; stroke-opacity:1; fill:none" points="
  499.545,1444.78 499.545,106.192 
  "/>
<polyline clip-path="url(#clip472)" style="stroke:#ffffff; stroke-linecap:butt; stroke-linejoin:round; stroke-width:4; stroke-opacity:1; fill:none" points="
  698.815,1444.78 698.815,106.192 
  "/>
<polyline clip-path="url(#clip472)" style="stroke:#ffffff; stroke-linecap:butt; stroke-linejoin:round; stroke-width:4; stroke-opacity:1; fill:none" points="
  898.085,1444.78 898.085,106.192 
  "/>
<polyline clip-path="url(#clip472)" style="stroke:#ffffff; stroke-linecap:butt; stroke-linejoin:round; stroke-width:4; stroke-opacity:1; fill:none" points="
  1097.35,1444.78 1097.35,106.192 
  "/>
<polyline clip-path="url(#clip472)" style="stroke:#ffffff; stroke-linecap:butt; stroke-linejoin:round; stroke-width:4; stroke-opacity:1; fill:none" points="
  1296.62,1444.78 1296.62,106.192 
  "/>
<polyline clip-path="url(#clip472)" style="stroke:#ffffff; stroke-linecap:butt; stroke-linejoin:round; stroke-width:4; stroke-opacity:1; fill:none" points="
  1495.89,1444.78 1495.89,106.192 
  "/>
<polyline clip-path="url(#clip472)" style="stroke:#ffffff; stroke-linecap:butt; stroke-linejoin:round; stroke-width:4; stroke-opacity:1; fill:none" points="
  1695.16,1444.78 1695.16,106.192 
  "/>
<polyline clip-path="url(#clip472)" style="stroke:#ffffff; stroke-linecap:butt; stroke-linejoin:round; stroke-width:4; stroke-opacity:1; fill:none" points="
  1894.43,1444.78 1894.43,106.192 
  "/>
<polyline clip-path="url(#clip472)" style="stroke:#ffffff; stroke-linecap:butt; stroke-linejoin:round; stroke-width:4; stroke-opacity:1; fill:none" points="
  2093.7,1444.78 2093.7,106.192 
  "/>
<polyline clip-path="url(#clip472)" style="stroke:#ffffff; stroke-linecap:butt; stroke-linejoin:round; stroke-width:4; stroke-opacity:1; fill:none" points="
  2292.97,1444.78 2292.97,106.192 
  "/>
<polyline clip-path="url(#clip472)" style="stroke:#ffffff; stroke-linecap:butt; stroke-linejoin:round; stroke-width:2; stroke-opacity:1; fill:none" points="
  399.91,1444.78 399.91,106.192 
  "/>
<polyline clip-path="url(#clip472)" style="stroke:#ffffff; stroke-linecap:butt; stroke-linejoin:round; stroke-width:2; stroke-opacity:1; fill:none" points="
  599.18,1444.78 599.18,106.192 
  "/>
<polyline clip-path="url(#clip472)" style="stroke:#ffffff; stroke-linecap:butt; stroke-linejoin:round; stroke-width:2; stroke-opacity:1; fill:none" points="
  798.45,1444.78 798.45,106.192 
  "/>
<polyline clip-path="url(#clip472)" style="stroke:#ffffff; stroke-linecap:butt; stroke-linejoin:round; stroke-width:2; stroke-opacity:1; fill:none" points="
  997.72,1444.78 997.72,106.192 
  "/>
<polyline clip-path="url(#clip472)" style="stroke:#ffffff; stroke-linecap:butt; stroke-linejoin:round; stroke-width:2; stroke-opacity:1; fill:none" points="
  1196.99,1444.78 1196.99,106.192 
  "/>
<polyline clip-path="url(#clip472)" style="stroke:#ffffff; stroke-linecap:butt; stroke-linejoin:round; stroke-width:2; stroke-opacity:1; fill:none" points="
  1396.26,1444.78 1396.26,106.192 
  "/>
<polyline clip-path="url(#clip472)" style="stroke:#ffffff; stroke-linecap:butt; stroke-linejoin:round; stroke-width:2; stroke-opacity:1; fill:none" points="
  1595.53,1444.78 1595.53,106.192 
  "/>
<polyline clip-path="url(#clip472)" style="stroke:#ffffff; stroke-linecap:butt; stroke-linejoin:round; stroke-width:2; stroke-opacity:1; fill:none" points="
  1794.8,1444.78 1794.8,106.192 
  "/>
<polyline clip-path="url(#clip472)" style="stroke:#ffffff; stroke-linecap:butt; stroke-linejoin:round; stroke-width:2; stroke-opacity:1; fill:none" points="
  1994.07,1444.78 1994.07,106.192 
  "/>
<polyline clip-path="url(#clip472)" style="stroke:#ffffff; stroke-linecap:butt; stroke-linejoin:round; stroke-width:2; stroke-opacity:1; fill:none" points="
  2193.34,1444.78 2193.34,106.192 
  "/>
<polyline clip-path="url(#clip470)" style="stroke:#ffffff; stroke-linecap:butt; stroke-linejoin:round; stroke-width:4; stroke-opacity:1; fill:none" points="
  240.494,1444.78 2352.76,1444.78 
  "/>
<polyline clip-path="url(#clip470)" style="stroke:#333333; stroke-linecap:butt; stroke-linejoin:round; stroke-width:4; stroke-opacity:1; fill:none" points="
  300.275,1444.78 300.275,1463.68 
  "/>
<polyline clip-path="url(#clip470)" style="stroke:#333333; stroke-linecap:butt; stroke-linejoin:round; stroke-width:4; stroke-opacity:1; fill:none" points="
  499.545,1444.78 499.545,1463.68 
  "/>
<polyline clip-path="url(#clip470)" style="stroke:#333333; stroke-linecap:butt; stroke-linejoin:round; stroke-width:4; stroke-opacity:1; fill:none" points="
  698.815,1444.78 698.815,1463.68 
  "/>
<polyline clip-path="url(#clip470)" style="stroke:#333333; stroke-linecap:butt; stroke-linejoin:round; stroke-width:4; stroke-opacity:1; fill:none" points="
  898.085,1444.78 898.085,1463.68 
  "/>
<polyline clip-path="url(#clip470)" style="stroke:#333333; stroke-linecap:butt; stroke-linejoin:round; stroke-width:4; stroke-opacity:1; fill:none" points="
  1097.35,1444.78 1097.35,1463.68 
  "/>
<polyline clip-path="url(#clip470)" style="stroke:#333333; stroke-linecap:butt; stroke-linejoin:round; stroke-width:4; stroke-opacity:1; fill:none" points="
  1296.62,1444.78 1296.62,1463.68 
  "/>
<polyline clip-path="url(#clip470)" style="stroke:#333333; stroke-linecap:butt; stroke-linejoin:round; stroke-width:4; stroke-opacity:1; fill:none" points="
  1495.89,1444.78 1495.89,1463.68 
  "/>
<polyline clip-path="url(#clip470)" style="stroke:#333333; stroke-linecap:butt; stroke-linejoin:round; stroke-width:4; stroke-opacity:1; fill:none" points="
  1695.16,1444.78 1695.16,1463.68 
  "/>
<polyline clip-path="url(#clip470)" style="stroke:#333333; stroke-linecap:butt; stroke-linejoin:round; stroke-width:4; stroke-opacity:1; fill:none" points="
  1894.43,1444.78 1894.43,1463.68 
  "/>
<polyline clip-path="url(#clip470)" style="stroke:#333333; stroke-linecap:butt; stroke-linejoin:round; stroke-width:4; stroke-opacity:1; fill:none" points="
  2093.7,1444.78 2093.7,1463.68 
  "/>
<polyline clip-path="url(#clip470)" style="stroke:#333333; stroke-linecap:butt; stroke-linejoin:round; stroke-width:4; stroke-opacity:1; fill:none" points="
  2292.97,1444.78 2292.97,1463.68 
  "/>
<polyline clip-path="url(#clip470)" style="stroke:#333333; stroke-linecap:butt; stroke-linejoin:round; stroke-width:4; stroke-opacity:1; fill:none" points="
  399.91,1444.78 399.91,1454.23 
  "/>
<polyline clip-path="url(#clip470)" style="stroke:#333333; stroke-linecap:butt; stroke-linejoin:round; stroke-width:4; stroke-opacity:1; fill:none" points="
  599.18,1444.78 599.18,1454.23 
  "/>
<polyline clip-path="url(#clip470)" style="stroke:#333333; stroke-linecap:butt; stroke-linejoin:round; stroke-width:4; stroke-opacity:1; fill:none" points="
  798.45,1444.78 798.45,1454.23 
  "/>
<polyline clip-path="url(#clip470)" style="stroke:#333333; stroke-linecap:butt; stroke-linejoin:round; stroke-width:4; stroke-opacity:1; fill:none" points="
  997.72,1444.78 997.72,1454.23 
  "/>
<polyline clip-path="url(#clip470)" style="stroke:#333333; stroke-linecap:butt; stroke-linejoin:round; stroke-width:4; stroke-opacity:1; fill:none" points="
  1196.99,1444.78 1196.99,1454.23 
  "/>
<polyline clip-path="url(#clip470)" style="stroke:#333333; stroke-linecap:butt; stroke-linejoin:round; stroke-width:4; stroke-opacity:1; fill:none" points="
  1396.26,1444.78 1396.26,1454.23 
  "/>
<polyline clip-path="url(#clip470)" style="stroke:#333333; stroke-linecap:butt; stroke-linejoin:round; stroke-width:4; stroke-opacity:1; fill:none" points="
  1595.53,1444.78 1595.53,1454.23 
  "/>
<polyline clip-path="url(#clip470)" style="stroke:#333333; stroke-linecap:butt; stroke-linejoin:round; stroke-width:4; stroke-opacity:1; fill:none" points="
  1794.8,1444.78 1794.8,1454.23 
  "/>
<polyline clip-path="url(#clip470)" style="stroke:#333333; stroke-linecap:butt; stroke-linejoin:round; stroke-width:4; stroke-opacity:1; fill:none" points="
  1994.07,1444.78 1994.07,1454.23 
  "/>
<polyline clip-path="url(#clip470)" style="stroke:#333333; stroke-linecap:butt; stroke-linejoin:round; stroke-width:4; stroke-opacity:1; fill:none" points="
  2193.34,1444.78 2193.34,1454.23 
  "/>
<path clip-path="url(#clip470)" d="M300.275 1482.37 Q297.567 1482.37 296.195 1485.04 Q294.841 1487.7 294.841 1493.05 Q294.841 1498.38 296.195 1501.05 Q297.567 1503.71 300.275 1503.71 Q303.001 1503.71 304.355 1501.05 Q305.726 1498.38 305.726 1493.05 Q305.726 1487.7 304.355 1485.04 Q303.001 1482.37 300.275 1482.37 M300.275 1479.59 Q304.633 1479.59 306.924 1483.05 Q309.233 1486.48 309.233 1493.05 Q309.233 1499.59 306.924 1503.05 Q304.633 1506.48 300.275 1506.48 Q295.917 1506.48 293.608 1503.05 Q291.317 1499.59 291.317 1493.05 Q291.317 1486.48 293.608 1483.05 Q295.917 1479.59 300.275 1479.59 Z" fill="#4c4c4c" fill-rule="evenodd" fill-opacity="1" /><path clip-path="url(#clip470)" d="M480.561 1503.03 L486.29 1503.03 L486.29 1483.25 L480.057 1484.5 L480.057 1481.31 L486.255 1480.06 L489.762 1480.06 L489.762 1503.03 L495.491 1503.03 L495.491 1505.98 L480.561 1505.98 L480.561 1503.03 Z" fill="#4c4c4c" fill-rule="evenodd" fill-opacity="1" /><path clip-path="url(#clip470)" d="M510.074 1482.37 Q507.366 1482.37 505.995 1485.04 Q504.64 1487.7 504.64 1493.05 Q504.64 1498.38 505.995 1501.05 Q507.366 1503.71 510.074 1503.71 Q512.8 1503.71 514.154 1501.05 Q515.526 1498.38 515.526 1493.05 Q515.526 1487.7 514.154 1485.04 Q512.8 1482.37 510.074 1482.37 M510.074 1479.59 Q514.432 1479.59 516.724 1483.05 Q519.033 1486.48 519.033 1493.05 Q519.033 1499.59 516.724 1503.05 Q514.432 1506.48 510.074 1506.48 Q505.717 1506.48 503.408 1503.05 Q501.116 1499.59 501.116 1493.05 Q501.116 1486.48 503.408 1483.05 Q505.717 1479.59 510.074 1479.59 Z" fill="#4c4c4c" fill-rule="evenodd" fill-opacity="1" /><path clip-path="url(#clip470)" d="M682.895 1503.03 L695.134 1503.03 L695.134 1505.98 L678.676 1505.98 L678.676 1503.03 Q680.673 1500.96 684.11 1497.49 Q687.565 1494 688.45 1492.99 Q690.135 1491.1 690.794 1489.8 Q691.471 1488.48 691.471 1487.21 Q691.471 1485.15 690.013 1483.84 Q688.572 1482.54 686.246 1482.54 Q684.596 1482.54 682.756 1483.12 Q680.933 1483.69 678.85 1484.85 L678.85 1481.31 Q680.968 1480.46 682.808 1480.03 Q684.648 1479.59 686.176 1479.59 Q690.204 1479.59 692.6 1481.6 Q694.996 1483.62 694.996 1486.99 Q694.996 1488.58 694.388 1490.03 Q693.798 1491.45 692.218 1493.39 Q691.784 1493.9 689.457 1496.31 Q687.131 1498.71 682.895 1503.03 Z" fill="#4c4c4c" fill-rule="evenodd" fill-opacity="1" /><path clip-path="url(#clip470)" d="M709.996 1482.37 Q707.287 1482.37 705.916 1485.04 Q704.562 1487.7 704.562 1493.05 Q704.562 1498.38 705.916 1501.05 Q707.287 1503.71 709.996 1503.71 Q712.721 1503.71 714.075 1501.05 Q715.447 1498.38 715.447 1493.05 Q715.447 1487.7 714.075 1485.04 Q712.721 1482.37 709.996 1482.37 M709.996 1479.59 Q714.353 1479.59 716.645 1483.05 Q718.954 1486.48 718.954 1493.05 Q718.954 1499.59 716.645 1503.05 Q714.353 1506.48 709.996 1506.48 Q705.638 1506.48 703.329 1503.05 Q701.037 1499.59 701.037 1493.05 Q701.037 1486.48 703.329 1483.05 Q705.638 1479.59 709.996 1479.59 Z" fill="#4c4c4c" fill-rule="evenodd" fill-opacity="1" /><path clip-path="url(#clip470)" d="M889.717 1492 Q892.234 1492.54 893.641 1494.24 Q895.064 1495.95 895.064 1498.45 Q895.064 1502.28 892.425 1504.38 Q889.786 1506.48 884.925 1506.48 Q883.293 1506.48 881.557 1506.15 Q879.839 1505.84 877.998 1505.2 L877.998 1501.81 Q879.457 1502.66 881.193 1503.1 Q882.929 1503.53 884.821 1503.53 Q888.12 1503.53 889.839 1502.23 Q891.575 1500.93 891.575 1498.45 Q891.575 1496.15 889.96 1494.87 Q888.363 1493.57 885.498 1493.57 L882.477 1493.57 L882.477 1490.68 L885.637 1490.68 Q888.224 1490.68 889.595 1489.66 Q890.967 1488.62 890.967 1486.67 Q890.967 1484.68 889.543 1483.62 Q888.137 1482.54 885.498 1482.54 Q884.057 1482.54 882.408 1482.85 Q880.759 1483.17 878.78 1483.83 L878.78 1480.7 Q880.776 1480.15 882.512 1479.87 Q884.266 1479.59 885.811 1479.59 Q889.804 1479.59 892.13 1481.41 Q894.457 1483.22 894.457 1486.31 Q894.457 1488.46 893.224 1489.96 Q891.991 1491.43 889.717 1492 Z" fill="#4c4c4c" fill-rule="evenodd" fill-opacity="1" /><path clip-path="url(#clip470)" d="M909.213 1482.37 Q906.505 1482.37 905.134 1485.04 Q903.779 1487.7 903.779 1493.05 Q903.779 1498.38 905.134 1501.05 Q906.505 1503.71 909.213 1503.71 Q911.939 1503.71 913.293 1501.05 Q914.665 1498.38 914.665 1493.05 Q914.665 1487.7 913.293 1485.04 Q911.939 1482.37 909.213 1482.37 M909.213 1479.59 Q913.571 1479.59 915.863 1483.05 Q918.172 1486.48 918.172 1493.05 Q918.172 1499.59 915.863 1503.05 Q913.571 1506.48 909.213 1506.48 Q904.856 1506.48 902.547 1503.05 Q900.255 1499.59 900.255 1493.05 Q900.255 1486.48 902.547 1483.05 Q904.856 1479.59 909.213 1479.59 Z" fill="#4c4c4c" fill-rule="evenodd" fill-opacity="1" /><path clip-path="url(#clip470)" d="M1088.48 1483.12 L1079.63 1496.95 L1088.48 1496.95 L1088.48 1483.12 M1087.56 1480.06 L1091.97 1480.06 L1091.97 1496.95 L1095.67 1496.95 L1095.67 1499.87 L1091.97 1499.87 L1091.97 1505.98 L1088.48 1505.98 L1088.48 1499.87 L1076.78 1499.87 L1076.78 1496.48 L1087.56 1480.06 Z" fill="#4c4c4c" fill-rule="evenodd" fill-opacity="1" /><path clip-path="url(#clip470)" d="M1108.97 1482.37 Q1106.26 1482.37 1104.89 1485.04 Q1103.54 1487.7 1103.54 1493.05 Q1103.54 1498.38 1104.89 1501.05 Q1106.26 1503.71 1108.97 1503.71 Q1111.7 1503.71 1113.05 1501.05 Q1114.42 1498.38 1114.42 1493.05 Q1114.42 1487.7 1113.05 1485.04 Q1111.7 1482.37 1108.97 1482.37 M1108.97 1479.59 Q1113.33 1479.59 1115.62 1483.05 Q1117.93 1486.48 1117.93 1493.05 Q1117.93 1499.59 1115.62 1503.05 Q1113.33 1506.48 1108.97 1506.48 Q1104.61 1506.48 1102.3 1503.05 Q1100.01 1499.59 1100.01 1493.05 Q1100.01 1486.48 1102.3 1483.05 Q1104.61 1479.59 1108.97 1479.59 Z" fill="#4c4c4c" fill-rule="evenodd" fill-opacity="1" /><path clip-path="url(#clip470)" d="M1277.65 1480.06 L1291.42 1480.06 L1291.42 1483.01 L1280.86 1483.01 L1280.86 1489.37 Q1281.63 1489.1 1282.39 1488.98 Q1283.15 1488.84 1283.92 1488.84 Q1288.26 1488.84 1290.79 1491.22 Q1293.33 1493.6 1293.33 1497.66 Q1293.33 1501.85 1290.72 1504.17 Q1288.12 1506.48 1283.38 1506.48 Q1281.75 1506.48 1280.05 1506.21 Q1278.36 1505.93 1276.56 1505.37 L1276.56 1501.85 Q1278.12 1502.7 1279.78 1503.12 Q1281.45 1503.53 1283.31 1503.53 Q1286.31 1503.53 1288.07 1501.95 Q1289.82 1500.37 1289.82 1497.66 Q1289.82 1494.96 1288.07 1493.38 Q1286.31 1491.8 1283.31 1491.8 Q1281.9 1491.8 1280.5 1492.11 Q1279.11 1492.42 1277.65 1493.08 L1277.65 1480.06 Z" fill="#4c4c4c" fill-rule="evenodd" fill-opacity="1" /><path clip-path="url(#clip470)" d="M1307.74 1482.37 Q1305.03 1482.37 1303.66 1485.04 Q1302.3 1487.7 1302.3 1493.05 Q1302.3 1498.38 1303.66 1501.05 Q1305.03 1503.71 1307.74 1503.71 Q1310.46 1503.71 1311.82 1501.05 Q1313.19 1498.38 1313.19 1493.05 Q1313.19 1487.7 1311.82 1485.04 Q1310.46 1482.37 1307.74 1482.37 M1307.74 1479.59 Q1312.09 1479.59 1314.39 1483.05 Q1316.69 1486.48 1316.69 1493.05 Q1316.69 1499.59 1314.39 1503.05 Q1312.09 1506.48 1307.74 1506.48 Q1303.38 1506.48 1301.07 1503.05 Q1298.78 1499.59 1298.78 1493.05 Q1298.78 1486.48 1301.07 1483.05 Q1303.38 1479.59 1307.74 1479.59 Z" fill="#4c4c4c" fill-rule="evenodd" fill-opacity="1" /><path clip-path="url(#clip470)" d="M1484.95 1491.62 Q1482.59 1491.62 1481.2 1493.24 Q1479.83 1494.85 1479.83 1497.66 Q1479.83 1500.46 1481.2 1502.09 Q1482.59 1503.71 1484.95 1503.71 Q1487.31 1503.71 1488.68 1502.09 Q1490.07 1500.46 1490.07 1497.66 Q1490.07 1494.85 1488.68 1493.24 Q1487.31 1491.62 1484.95 1491.62 M1491.91 1480.63 L1491.91 1483.83 Q1490.59 1483.2 1489.24 1482.87 Q1487.9 1482.54 1486.58 1482.54 Q1483.11 1482.54 1481.27 1484.89 Q1479.45 1487.23 1479.18 1491.97 Q1480.21 1490.46 1481.75 1489.66 Q1483.3 1488.84 1485.16 1488.84 Q1489.06 1488.84 1491.32 1491.22 Q1493.59 1493.58 1493.59 1497.66 Q1493.59 1501.66 1491.23 1504.07 Q1488.87 1506.48 1484.95 1506.48 Q1480.45 1506.48 1478.07 1503.05 Q1475.7 1499.59 1475.7 1493.05 Q1475.7 1486.9 1478.61 1483.25 Q1481.53 1479.59 1486.44 1479.59 Q1487.76 1479.59 1489.1 1479.85 Q1490.45 1480.11 1491.91 1480.63 Z" fill="#4c4c4c" fill-rule="evenodd" fill-opacity="1" /><path clip-path="url(#clip470)" d="M1507.14 1482.37 Q1504.43 1482.37 1503.06 1485.04 Q1501.7 1487.7 1501.7 1493.05 Q1501.7 1498.38 1503.06 1501.05 Q1504.43 1503.71 1507.14 1503.71 Q1509.86 1503.71 1511.22 1501.05 Q1512.59 1498.38 1512.59 1493.05 Q1512.59 1487.7 1511.22 1485.04 Q1509.86 1482.37 1507.14 1482.37 M1507.14 1479.59 Q1511.49 1479.59 1513.79 1483.05 Q1516.09 1486.48 1516.09 1493.05 Q1516.09 1499.59 1513.79 1503.05 Q1511.49 1506.48 1507.14 1506.48 Q1502.78 1506.48 1500.47 1503.05 Q1498.18 1499.59 1498.18 1493.05 Q1498.18 1486.48 1500.47 1483.05 Q1502.78 1479.59 1507.14 1479.59 Z" fill="#4c4c4c" fill-rule="evenodd" fill-opacity="1" /><path clip-path="url(#clip470)" d="M1675.18 1480.06 L1691.85 1480.06 L1691.85 1481.55 L1682.44 1505.98 L1678.78 1505.98 L1687.63 1483.01 L1675.18 1483.01 L1675.18 1480.06 Z" fill="#4c4c4c" fill-rule="evenodd" fill-opacity="1" /><path clip-path="url(#clip470)" d="M1706.19 1482.37 Q1703.48 1482.37 1702.11 1485.04 Q1700.76 1487.7 1700.76 1493.05 Q1700.76 1498.38 1702.11 1501.05 Q1703.48 1503.71 1706.19 1503.71 Q1708.91 1503.71 1710.27 1501.05 Q1711.64 1498.38 1711.64 1493.05 Q1711.64 1487.7 1710.27 1485.04 Q1708.91 1482.37 1706.19 1482.37 M1706.19 1479.59 Q1710.55 1479.59 1712.84 1483.05 Q1715.15 1486.48 1715.15 1493.05 Q1715.15 1499.59 1712.84 1503.05 Q1710.55 1506.48 1706.19 1506.48 Q1701.83 1506.48 1699.52 1503.05 Q1697.23 1499.59 1697.23 1493.05 Q1697.23 1486.48 1699.52 1483.05 Q1701.83 1479.59 1706.19 1479.59 Z" fill="#4c4c4c" fill-rule="evenodd" fill-opacity="1" /><path clip-path="url(#clip470)" d="M1883.09 1493.67 Q1880.59 1493.67 1879.15 1495.01 Q1877.72 1496.34 1877.72 1498.69 Q1877.72 1501.03 1879.15 1502.37 Q1880.59 1503.71 1883.09 1503.71 Q1885.59 1503.71 1887.03 1502.37 Q1888.47 1501.01 1888.47 1498.69 Q1888.47 1496.34 1887.03 1495.01 Q1885.61 1493.67 1883.09 1493.67 M1879.58 1492.18 Q1877.33 1491.62 1876.06 1490.08 Q1874.81 1488.53 1874.81 1486.31 Q1874.81 1483.2 1877.01 1481.4 Q1879.24 1479.59 1883.09 1479.59 Q1886.96 1479.59 1889.17 1481.4 Q1891.37 1483.2 1891.37 1486.31 Q1891.37 1488.53 1890.1 1490.08 Q1888.85 1491.62 1886.61 1492.18 Q1889.15 1492.77 1890.55 1494.49 Q1891.98 1496.21 1891.98 1498.69 Q1891.98 1502.46 1889.67 1504.47 Q1887.38 1506.48 1883.09 1506.48 Q1878.8 1506.48 1876.49 1504.47 Q1874.2 1502.46 1874.2 1498.69 Q1874.2 1496.21 1875.62 1494.49 Q1877.05 1492.77 1879.58 1492.18 M1878.3 1486.64 Q1878.3 1488.65 1879.55 1489.78 Q1880.82 1490.91 1883.09 1490.91 Q1885.35 1490.91 1886.61 1489.78 Q1887.9 1488.65 1887.9 1486.64 Q1887.9 1484.63 1886.61 1483.5 Q1885.35 1482.37 1883.09 1482.37 Q1880.82 1482.37 1879.55 1483.5 Q1878.3 1484.63 1878.3 1486.64 Z" fill="#4c4c4c" fill-rule="evenodd" fill-opacity="1" /><path clip-path="url(#clip470)" d="M1905.71 1482.37 Q1903 1482.37 1901.63 1485.04 Q1900.28 1487.7 1900.28 1493.05 Q1900.28 1498.38 1901.63 1501.05 Q1903 1503.71 1905.71 1503.71 Q1908.44 1503.71 1909.79 1501.05 Q1911.16 1498.38 1911.16 1493.05 Q1911.16 1487.7 1909.79 1485.04 Q1908.44 1482.37 1905.71 1482.37 M1905.71 1479.59 Q1910.07 1479.59 1912.36 1483.05 Q1914.67 1486.48 1914.67 1493.05 Q1914.67 1499.59 1912.36 1503.05 Q1910.07 1506.48 1905.71 1506.48 Q1901.35 1506.48 1899.04 1503.05 Q1896.75 1499.59 1896.75 1493.05 Q1896.75 1486.48 1899.04 1483.05 Q1901.35 1479.59 1905.71 1479.59 Z" fill="#4c4c4c" fill-rule="evenodd" fill-opacity="1" /><path clip-path="url(#clip470)" d="M2075.05 1505.44 L2075.05 1502.25 Q2076.37 1502.87 2077.72 1503.2 Q2079.08 1503.53 2080.38 1503.53 Q2083.85 1503.53 2085.68 1501.21 Q2087.52 1498.86 2087.78 1494.1 Q2086.77 1495.6 2085.22 1496.4 Q2083.68 1497.2 2081.8 1497.2 Q2077.92 1497.2 2075.64 1494.85 Q2073.38 1492.49 2073.38 1488.41 Q2073.38 1484.42 2075.74 1482 Q2078.11 1479.59 2082.03 1479.59 Q2086.53 1479.59 2088.89 1483.05 Q2091.27 1486.48 2091.27 1493.05 Q2091.27 1499.17 2088.35 1502.84 Q2085.45 1506.48 2080.54 1506.48 Q2079.22 1506.48 2077.86 1506.22 Q2076.51 1505.96 2075.05 1505.44 M2082.03 1494.45 Q2084.39 1494.45 2085.76 1492.84 Q2087.15 1491.22 2087.15 1488.41 Q2087.15 1485.62 2085.76 1484 Q2084.39 1482.37 2082.03 1482.37 Q2079.67 1482.37 2078.28 1484 Q2076.91 1485.62 2076.91 1488.41 Q2076.91 1491.22 2078.28 1492.84 Q2079.67 1494.45 2082.03 1494.45 Z" fill="#4c4c4c" fill-rule="evenodd" fill-opacity="1" /><path clip-path="url(#clip470)" d="M2105.07 1482.37 Q2102.36 1482.37 2100.99 1485.04 Q2099.63 1487.7 2099.63 1493.05 Q2099.63 1498.38 2100.99 1501.05 Q2102.36 1503.71 2105.07 1503.71 Q2107.79 1503.71 2109.15 1501.05 Q2110.52 1498.38 2110.52 1493.05 Q2110.52 1487.7 2109.15 1485.04 Q2107.79 1482.37 2105.07 1482.37 M2105.07 1479.59 Q2109.43 1479.59 2111.72 1483.05 Q2114.03 1486.48 2114.03 1493.05 Q2114.03 1499.59 2111.72 1503.05 Q2109.43 1506.48 2105.07 1506.48 Q2100.71 1506.48 2098.4 1503.05 Q2096.11 1499.59 2096.11 1493.05 Q2096.11 1486.48 2098.4 1483.05 Q2100.71 1479.59 2105.07 1479.59 Z" fill="#4c4c4c" fill-rule="evenodd" fill-opacity="1" /><path clip-path="url(#clip470)" d="M2262.68 1503.03 L2268.41 1503.03 L2268.41 1483.25 L2262.18 1484.5 L2262.18 1481.31 L2268.37 1480.06 L2271.88 1480.06 L2271.88 1503.03 L2277.61 1503.03 L2277.61 1505.98 L2262.68 1505.98 L2262.68 1503.03 Z" fill="#4c4c4c" fill-rule="evenodd" fill-opacity="1" /><path clip-path="url(#clip470)" d="M2292.19 1482.37 Q2289.49 1482.37 2288.11 1485.04 Q2286.76 1487.7 2286.76 1493.05 Q2286.76 1498.38 2288.11 1501.05 Q2289.49 1503.71 2292.19 1503.71 Q2294.92 1503.71 2296.27 1501.05 Q2297.65 1498.38 2297.65 1493.05 Q2297.65 1487.7 2296.27 1485.04 Q2294.92 1482.37 2292.19 1482.37 M2292.19 1479.59 Q2296.55 1479.59 2298.84 1483.05 Q2301.15 1486.48 2301.15 1493.05 Q2301.15 1499.59 2298.84 1503.05 Q2296.55 1506.48 2292.19 1506.48 Q2287.84 1506.48 2285.53 1503.05 Q2283.24 1499.59 2283.24 1493.05 Q2283.24 1486.48 2285.53 1483.05 Q2287.84 1479.59 2292.19 1479.59 Z" fill="#4c4c4c" fill-rule="evenodd" fill-opacity="1" /><path clip-path="url(#clip470)" d="M2314.82 1482.37 Q2312.11 1482.37 2310.74 1485.04 Q2309.38 1487.7 2309.38 1493.05 Q2309.38 1498.38 2310.74 1501.05 Q2312.11 1503.71 2314.82 1503.71 Q2317.54 1503.71 2318.89 1501.05 Q2320.27 1498.38 2320.27 1493.05 Q2320.27 1487.7 2318.89 1485.04 Q2317.54 1482.37 2314.82 1482.37 M2314.82 1479.59 Q2319.17 1479.59 2321.46 1483.05 Q2323.77 1486.48 2323.77 1493.05 Q2323.77 1499.59 2321.46 1503.05 Q2319.17 1506.48 2314.82 1506.48 Q2310.46 1506.48 2308.15 1503.05 Q2305.86 1499.59 2305.86 1493.05 Q2305.86 1486.48 2308.15 1483.05 Q2310.46 1479.59 2314.82 1479.59 Z" fill="#4c4c4c" fill-rule="evenodd" fill-opacity="1" /><path clip-path="url(#clip470)" d="M1187.22 1526.57 L1191.89 1526.57 L1191.89 1561.13 L1187.22 1561.13 L1187.22 1526.57 Z" fill="#000000" fill-rule="evenodd" fill-opacity="1" /><path clip-path="url(#clip470)" d="M1205.23 1527.84 L1205.23 1535.21 L1214 1535.21 L1214 1538.52 L1205.23 1538.52 L1205.23 1552.59 Q1205.23 1555.76 1206.08 1556.66 Q1206.96 1557.57 1209.62 1557.57 L1214 1557.57 L1214 1561.13 L1209.62 1561.13 Q1204.69 1561.13 1202.82 1559.3 Q1200.94 1557.45 1200.94 1552.59 L1200.94 1538.52 L1197.82 1538.52 L1197.82 1535.21 L1200.94 1535.21 L1200.94 1527.84 L1205.23 1527.84 Z" fill="#000000" fill-rule="evenodd" fill-opacity="1" /><path clip-path="url(#clip470)" d="M1241.78 1547.1 L1241.78 1549.19 L1222.19 1549.19 Q1222.47 1553.59 1224.83 1555.9 Q1227.22 1558.19 1231.45 1558.19 Q1233.91 1558.19 1236.2 1557.59 Q1238.51 1556.99 1240.78 1555.78 L1240.78 1559.81 Q1238.49 1560.78 1236.08 1561.29 Q1233.67 1561.8 1231.2 1561.8 Q1224.99 1561.8 1221.36 1558.19 Q1217.75 1554.58 1217.75 1548.42 Q1217.75 1542.06 1221.17 1538.33 Q1224.62 1534.58 1230.46 1534.58 Q1235.69 1534.58 1238.72 1537.96 Q1241.78 1541.32 1241.78 1547.1 M1237.52 1545.85 Q1237.47 1542.36 1235.55 1540.28 Q1233.65 1538.19 1230.5 1538.19 Q1226.94 1538.19 1224.79 1540.21 Q1222.66 1542.22 1222.33 1545.88 L1237.52 1545.85 Z" fill="#000000" fill-rule="evenodd" fill-opacity="1" /><path clip-path="url(#clip470)" d="M1263.79 1539.19 Q1263.07 1538.77 1262.22 1538.59 Q1261.38 1538.38 1260.36 1538.38 Q1256.75 1538.38 1254.81 1540.74 Q1252.89 1543.08 1252.89 1547.47 L1252.89 1561.13 L1248.6 1561.13 L1248.6 1535.21 L1252.89 1535.21 L1252.89 1539.23 Q1254.23 1536.87 1256.38 1535.74 Q1258.53 1534.58 1261.61 1534.58 Q1262.05 1534.58 1262.59 1534.65 Q1263.12 1534.7 1263.77 1534.81 L1263.79 1539.19 Z" fill="#000000" fill-rule="evenodd" fill-opacity="1" /><path clip-path="url(#clip470)" d="M1280.04 1548.1 Q1274.88 1548.1 1272.89 1549.28 Q1270.9 1550.46 1270.9 1553.31 Q1270.9 1555.58 1272.38 1556.92 Q1273.88 1558.24 1276.45 1558.24 Q1279.99 1558.24 1282.12 1555.74 Q1284.28 1553.22 1284.28 1549.05 L1284.28 1548.1 L1280.04 1548.1 M1288.53 1546.34 L1288.53 1561.13 L1284.28 1561.13 L1284.28 1557.2 Q1282.82 1559.56 1280.64 1560.69 Q1278.47 1561.8 1275.32 1561.8 Q1271.34 1561.8 1268.97 1559.58 Q1266.64 1557.34 1266.64 1553.59 Q1266.64 1549.21 1269.55 1546.99 Q1272.49 1544.77 1278.3 1544.77 L1284.28 1544.77 L1284.28 1544.35 Q1284.28 1541.41 1282.33 1539.81 Q1280.41 1538.19 1276.91 1538.19 Q1274.69 1538.19 1272.59 1538.72 Q1270.48 1539.26 1268.53 1540.32 L1268.53 1536.39 Q1270.87 1535.48 1273.07 1535.04 Q1275.27 1534.58 1277.35 1534.58 Q1282.98 1534.58 1285.76 1537.5 Q1288.53 1540.41 1288.53 1546.34 Z" fill="#000000" fill-rule="evenodd" fill-opacity="1" /><path clip-path="url(#clip470)" d="M1301.52 1527.84 L1301.52 1535.21 L1310.29 1535.21 L1310.29 1538.52 L1301.52 1538.52 L1301.52 1552.59 Q1301.52 1555.76 1302.38 1556.66 Q1303.26 1557.57 1305.92 1557.57 L1310.29 1557.57 L1310.29 1561.13 L1305.92 1561.13 Q1300.99 1561.13 1299.11 1559.3 Q1297.24 1557.45 1297.24 1552.59 L1297.24 1538.52 L1294.11 1538.52 L1294.11 1535.21 L1297.24 1535.21 L1297.24 1527.84 L1301.52 1527.84 Z" fill="#000000" fill-rule="evenodd" fill-opacity="1" /><path clip-path="url(#clip470)" d="M1315.9 1535.21 L1320.15 1535.21 L1320.15 1561.13 L1315.9 1561.13 L1315.9 1535.21 M1315.9 1525.11 L1320.15 1525.11 L1320.15 1530.51 L1315.9 1530.51 L1315.9 1525.11 Z" fill="#000000" fill-rule="evenodd" fill-opacity="1" /><path clip-path="url(#clip470)" d="M1339.11 1538.19 Q1335.69 1538.19 1333.7 1540.88 Q1331.71 1543.54 1331.71 1548.19 Q1331.71 1552.84 1333.67 1555.53 Q1335.66 1558.19 1339.11 1558.19 Q1342.52 1558.19 1344.51 1555.51 Q1346.5 1552.82 1346.5 1548.19 Q1346.5 1543.59 1344.51 1540.9 Q1342.52 1538.19 1339.11 1538.19 M1339.11 1534.58 Q1344.67 1534.58 1347.84 1538.19 Q1351.01 1541.8 1351.01 1548.19 Q1351.01 1554.56 1347.84 1558.19 Q1344.67 1561.8 1339.11 1561.8 Q1333.53 1561.8 1330.36 1558.19 Q1327.22 1554.56 1327.22 1548.19 Q1327.22 1541.8 1330.36 1538.19 Q1333.53 1534.58 1339.11 1534.58 Z" fill="#000000" fill-rule="evenodd" fill-opacity="1" /><path clip-path="url(#clip470)" d="M1379.62 1545.48 L1379.62 1561.13 L1375.36 1561.13 L1375.36 1545.62 Q1375.36 1541.94 1373.93 1540.11 Q1372.49 1538.28 1369.62 1538.28 Q1366.17 1538.28 1364.18 1540.48 Q1362.19 1542.68 1362.19 1546.48 L1362.19 1561.13 L1357.91 1561.13 L1357.91 1535.21 L1362.19 1535.21 L1362.19 1539.23 Q1363.72 1536.9 1365.78 1535.74 Q1367.86 1534.58 1370.57 1534.58 Q1375.04 1534.58 1377.33 1537.36 Q1379.62 1540.11 1379.62 1545.48 Z" fill="#000000" fill-rule="evenodd" fill-opacity="1" /><path clip-path="url(#clip470)" d="M1404.65 1535.97 L1404.65 1540 Q1402.84 1539.07 1400.9 1538.61 Q1398.95 1538.15 1396.87 1538.15 Q1393.7 1538.15 1392.1 1539.12 Q1390.52 1540.09 1390.52 1542.03 Q1390.52 1543.52 1391.66 1544.37 Q1392.79 1545.21 1396.22 1545.97 L1397.68 1546.29 Q1402.21 1547.27 1404.11 1549.05 Q1406.03 1550.81 1406.03 1553.98 Q1406.03 1557.59 1403.16 1559.7 Q1400.32 1561.8 1395.32 1561.8 Q1393.23 1561.8 1390.96 1561.39 Q1388.72 1560.99 1386.22 1560.18 L1386.22 1555.78 Q1388.58 1557.01 1390.87 1557.64 Q1393.16 1558.24 1395.41 1558.24 Q1398.42 1558.24 1400.04 1557.22 Q1401.66 1556.18 1401.66 1554.3 Q1401.66 1552.57 1400.48 1551.64 Q1399.32 1550.72 1395.36 1549.86 L1393.88 1549.51 Q1389.92 1548.68 1388.16 1546.97 Q1386.4 1545.23 1386.4 1542.22 Q1386.4 1538.56 1389 1536.57 Q1391.59 1534.58 1396.36 1534.58 Q1398.72 1534.58 1400.8 1534.93 Q1402.89 1535.28 1404.65 1535.97 Z" fill="#000000" fill-rule="evenodd" fill-opacity="1" /><polyline clip-path="url(#clip472)" style="stroke:#ffffff; stroke-linecap:butt; stroke-linejoin:round; stroke-width:4; stroke-opacity:1; fill:none" points="
  240.494,1153.14 2352.76,1153.14 
  "/>
<polyline clip-path="url(#clip472)" style="stroke:#ffffff; stroke-linecap:butt; stroke-linejoin:round; stroke-width:4; stroke-opacity:1; fill:none" points="
  240.494,860.658 2352.76,860.658 
  "/>
<polyline clip-path="url(#clip472)" style="stroke:#ffffff; stroke-linecap:butt; stroke-linejoin:round; stroke-width:4; stroke-opacity:1; fill:none" points="
  240.494,568.176 2352.76,568.176 
  "/>
<polyline clip-path="url(#clip472)" style="stroke:#ffffff; stroke-linecap:butt; stroke-linejoin:round; stroke-width:4; stroke-opacity:1; fill:none" points="
  240.494,275.694 2352.76,275.694 
  "/>
<polyline clip-path="url(#clip472)" style="stroke:#ffffff; stroke-linecap:butt; stroke-linejoin:round; stroke-width:2; stroke-opacity:1; fill:none" points="
  240.494,1299.38 2352.76,1299.38 
  "/>
<polyline clip-path="url(#clip472)" style="stroke:#ffffff; stroke-linecap:butt; stroke-linejoin:round; stroke-width:2; stroke-opacity:1; fill:none" points="
  240.494,1006.9 2352.76,1006.9 
  "/>
<polyline clip-path="url(#clip472)" style="stroke:#ffffff; stroke-linecap:butt; stroke-linejoin:round; stroke-width:2; stroke-opacity:1; fill:none" points="
  240.494,714.417 2352.76,714.417 
  "/>
<polyline clip-path="url(#clip472)" style="stroke:#ffffff; stroke-linecap:butt; stroke-linejoin:round; stroke-width:2; stroke-opacity:1; fill:none" points="
  240.494,421.935 2352.76,421.935 
  "/>
<polyline clip-path="url(#clip472)" style="stroke:#ffffff; stroke-linecap:butt; stroke-linejoin:round; stroke-width:2; stroke-opacity:1; fill:none" points="
  240.494,129.453 2352.76,129.453 
  "/>
<polyline clip-path="url(#clip470)" style="stroke:#ffffff; stroke-linecap:butt; stroke-linejoin:round; stroke-width:4; stroke-opacity:1; fill:none" points="
  240.494,1444.78 240.494,106.192 
  "/>
<polyline clip-path="url(#clip470)" style="stroke:#333333; stroke-linecap:butt; stroke-linejoin:round; stroke-width:4; stroke-opacity:1; fill:none" points="
  240.494,1153.14 221.596,1153.14 
  "/>
<polyline clip-path="url(#clip470)" style="stroke:#333333; stroke-linecap:butt; stroke-linejoin:round; stroke-width:4; stroke-opacity:1; fill:none" points="
  240.494,860.658 221.596,860.658 
  "/>
<polyline clip-path="url(#clip470)" style="stroke:#333333; stroke-linecap:butt; stroke-linejoin:round; stroke-width:4; stroke-opacity:1; fill:none" points="
  240.494,568.176 221.596,568.176 
  "/>
<polyline clip-path="url(#clip470)" style="stroke:#333333; stroke-linecap:butt; stroke-linejoin:round; stroke-width:4; stroke-opacity:1; fill:none" points="
  240.494,275.694 221.596,275.694 
  "/>
<polyline clip-path="url(#clip470)" style="stroke:#333333; stroke-linecap:butt; stroke-linejoin:round; stroke-width:4; stroke-opacity:1; fill:none" points="
  240.494,1299.38 231.045,1299.38 
  "/>
<polyline clip-path="url(#clip470)" style="stroke:#333333; stroke-linecap:butt; stroke-linejoin:round; stroke-width:4; stroke-opacity:1; fill:none" points="
  240.494,1006.9 231.045,1006.9 
  "/>
<polyline clip-path="url(#clip470)" style="stroke:#333333; stroke-linecap:butt; stroke-linejoin:round; stroke-width:4; stroke-opacity:1; fill:none" points="
  240.494,714.417 231.045,714.417 
  "/>
<polyline clip-path="url(#clip470)" style="stroke:#333333; stroke-linecap:butt; stroke-linejoin:round; stroke-width:4; stroke-opacity:1; fill:none" points="
  240.494,421.935 231.045,421.935 
  "/>
<polyline clip-path="url(#clip470)" style="stroke:#333333; stroke-linecap:butt; stroke-linejoin:round; stroke-width:4; stroke-opacity:1; fill:none" points="
  240.494,129.453 231.045,129.453 
  "/>
<path clip-path="url(#clip470)" d="M83.3002 1153.48 L105.557 1153.48 L105.557 1156.43 L83.3002 1156.43 L83.3002 1153.48 Z" fill="#4c4c4c" fill-rule="evenodd" fill-opacity="1" /><path clip-path="url(#clip470)" d="M113.734 1163.15 L119.463 1163.15 L119.463 1143.37 L113.231 1144.62 L113.231 1141.43 L119.428 1140.18 L122.935 1140.18 L122.935 1163.15 L128.664 1163.15 L128.664 1166.1 L113.734 1166.1 L113.734 1163.15 Z" fill="#4c4c4c" fill-rule="evenodd" fill-opacity="1" /><path clip-path="url(#clip470)" d="M143.248 1142.49 Q140.539 1142.49 139.168 1145.16 Q137.814 1147.82 137.814 1153.17 Q137.814 1158.5 139.168 1161.17 Q140.539 1163.83 143.248 1163.83 Q145.973 1163.83 147.328 1161.17 Q148.699 1158.5 148.699 1153.17 Q148.699 1147.82 147.328 1145.16 Q145.973 1142.49 143.248 1142.49 M143.248 1139.71 Q147.605 1139.71 149.897 1143.17 Q152.206 1146.6 152.206 1153.17 Q152.206 1159.71 149.897 1163.17 Q147.605 1166.6 143.248 1166.6 Q138.89 1166.6 136.581 1163.17 Q134.289 1159.71 134.289 1153.17 Q134.289 1146.6 136.581 1143.17 Q138.89 1139.71 143.248 1139.71 Z" fill="#4c4c4c" fill-rule="evenodd" fill-opacity="1" /><path clip-path="url(#clip470)" d="M158.369 1161.69 L162.032 1161.69 L162.032 1166.1 L158.369 1166.1 L158.369 1161.69 Z" fill="#4c4c4c" fill-rule="evenodd" fill-opacity="1" /><path clip-path="url(#clip470)" d="M179.307 1143.24 L170.452 1157.07 L179.307 1157.07 L179.307 1143.24 M178.386 1140.18 L182.796 1140.18 L182.796 1157.07 L186.494 1157.07 L186.494 1159.99 L182.796 1159.99 L182.796 1166.1 L179.307 1166.1 L179.307 1159.99 L167.605 1159.99 L167.605 1156.6 L178.386 1140.18 Z" fill="#4c4c4c" fill-rule="evenodd" fill-opacity="1" /><path clip-path="url(#clip470)" d="M84.8626 860.997 L107.119 860.997 L107.119 863.948 L84.8626 863.948 L84.8626 860.997 Z" fill="#4c4c4c" fill-rule="evenodd" fill-opacity="1" /><path clip-path="url(#clip470)" d="M115.297 870.667 L121.026 870.667 L121.026 850.893 L114.793 852.142 L114.793 848.948 L120.991 847.698 L124.498 847.698 L124.498 870.667 L130.227 870.667 L130.227 873.618 L115.297 873.618 L115.297 870.667 Z" fill="#4c4c4c" fill-rule="evenodd" fill-opacity="1" /><path clip-path="url(#clip470)" d="M144.81 850.007 Q142.102 850.007 140.73 852.681 Q139.376 855.337 139.376 860.684 Q139.376 866.014 140.73 868.688 Q142.102 871.344 144.81 871.344 Q147.536 871.344 148.89 868.688 Q150.262 866.014 150.262 860.684 Q150.262 855.337 148.89 852.681 Q147.536 850.007 144.81 850.007 M144.81 847.229 Q149.168 847.229 151.46 850.684 Q153.769 854.122 153.769 860.684 Q153.769 867.229 151.46 870.684 Q149.168 874.122 144.81 874.122 Q140.453 874.122 138.144 870.684 Q135.852 867.229 135.852 860.684 Q135.852 854.122 138.144 850.684 Q140.453 847.229 144.81 847.229 Z" fill="#4c4c4c" fill-rule="evenodd" fill-opacity="1" /><path clip-path="url(#clip470)" d="M159.932 869.208 L163.595 869.208 L163.595 873.618 L159.932 873.618 L159.932 869.208 Z" fill="#4c4c4c" fill-rule="evenodd" fill-opacity="1" /><path clip-path="url(#clip470)" d="M174.255 870.667 L186.494 870.667 L186.494 873.618 L170.036 873.618 L170.036 870.667 Q172.032 868.601 175.47 865.129 Q178.925 861.639 179.81 860.632 Q181.494 858.74 182.154 857.438 Q182.831 856.118 182.831 854.851 Q182.831 852.785 181.373 851.483 Q179.932 850.181 177.605 850.181 Q175.956 850.181 174.116 850.754 Q172.293 851.327 170.209 852.49 L170.209 848.948 Q172.327 848.097 174.168 847.663 Q176.008 847.229 177.536 847.229 Q181.564 847.229 183.959 849.243 Q186.355 851.257 186.355 854.625 Q186.355 856.222 185.748 857.663 Q185.157 859.087 183.577 861.031 Q183.143 861.535 180.817 863.948 Q178.491 866.344 174.255 870.667 Z" fill="#4c4c4c" fill-rule="evenodd" fill-opacity="1" /><path clip-path="url(#clip470)" d="M83.6647 568.514 L105.922 568.514 L105.922 571.466 L83.6647 571.466 L83.6647 568.514 Z" fill="#4c4c4c" fill-rule="evenodd" fill-opacity="1" /><path clip-path="url(#clip470)" d="M114.099 578.185 L119.828 578.185 L119.828 558.41 L113.595 559.66 L113.595 556.466 L119.793 555.216 L123.3 555.216 L123.3 578.185 L129.029 578.185 L129.029 581.136 L114.099 581.136 L114.099 578.185 Z" fill="#4c4c4c" fill-rule="evenodd" fill-opacity="1" /><path clip-path="url(#clip470)" d="M143.612 557.525 Q140.904 557.525 139.532 560.198 Q138.178 562.855 138.178 568.202 Q138.178 573.532 139.532 576.205 Q140.904 578.862 143.612 578.862 Q146.338 578.862 147.692 576.205 Q149.064 573.532 149.064 568.202 Q149.064 562.855 147.692 560.198 Q146.338 557.525 143.612 557.525 M143.612 554.747 Q147.97 554.747 150.262 558.202 Q152.571 561.639 152.571 568.202 Q152.571 574.747 150.262 578.202 Q147.97 581.639 143.612 581.639 Q139.255 581.639 136.946 578.202 Q134.654 574.747 134.654 568.202 Q134.654 561.639 136.946 558.202 Q139.255 554.747 143.612 554.747 Z" fill="#4c4c4c" fill-rule="evenodd" fill-opacity="1" /><path clip-path="url(#clip470)" d="M158.734 576.726 L162.397 576.726 L162.397 581.136 L158.734 581.136 L158.734 576.726 Z" fill="#4c4c4c" fill-rule="evenodd" fill-opacity="1" /><path clip-path="url(#clip470)" d="M177.536 557.525 Q174.827 557.525 173.456 560.198 Q172.102 562.855 172.102 568.202 Q172.102 573.532 173.456 576.205 Q174.827 578.862 177.536 578.862 Q180.261 578.862 181.616 576.205 Q182.987 573.532 182.987 568.202 Q182.987 562.855 181.616 560.198 Q180.261 557.525 177.536 557.525 M177.536 554.747 Q181.893 554.747 184.185 558.202 Q186.494 561.639 186.494 568.202 Q186.494 574.747 184.185 578.202 Q181.893 581.639 177.536 581.639 Q173.178 581.639 170.869 578.202 Q168.577 574.747 168.577 568.202 Q168.577 561.639 170.869 558.202 Q173.178 554.747 177.536 554.747 Z" fill="#4c4c4c" fill-rule="evenodd" fill-opacity="1" /><path clip-path="url(#clip470)" d="M106.356 276.032 L128.612 276.032 L128.612 278.984 L106.356 278.984 L106.356 276.032 Z" fill="#4c4c4c" fill-rule="evenodd" fill-opacity="1" /><path clip-path="url(#clip470)" d="M136.286 288.115 L136.286 284.921 Q137.605 285.546 138.96 285.876 Q140.314 286.206 141.616 286.206 Q145.088 286.206 146.911 283.879 Q148.751 281.536 149.012 276.779 Q148.005 278.272 146.46 279.07 Q144.914 279.869 143.039 279.869 Q139.151 279.869 136.876 277.525 Q134.619 275.164 134.619 271.084 Q134.619 267.091 136.98 264.678 Q139.342 262.265 143.265 262.265 Q147.762 262.265 150.123 265.72 Q152.501 269.157 152.501 275.72 Q152.501 281.848 149.585 285.511 Q146.685 289.157 141.772 289.157 Q140.453 289.157 139.098 288.897 Q137.744 288.636 136.286 288.115 M143.265 277.126 Q145.626 277.126 146.998 275.511 Q148.387 273.897 148.387 271.084 Q148.387 268.289 146.998 266.675 Q145.626 265.043 143.265 265.043 Q140.904 265.043 139.515 266.675 Q138.144 268.289 138.144 271.084 Q138.144 273.897 139.515 275.511 Q140.904 277.126 143.265 277.126 Z" fill="#4c4c4c" fill-rule="evenodd" fill-opacity="1" /><path clip-path="url(#clip470)" d="M158.803 284.244 L162.466 284.244 L162.466 288.654 L158.803 288.654 L158.803 284.244 Z" fill="#4c4c4c" fill-rule="evenodd" fill-opacity="1" /><path clip-path="url(#clip470)" d="M177.605 276.345 Q175.105 276.345 173.664 277.682 Q172.241 279.018 172.241 281.362 Q172.241 283.706 173.664 285.043 Q175.105 286.379 177.605 286.379 Q180.105 286.379 181.546 285.043 Q182.987 283.688 182.987 281.362 Q182.987 279.018 181.546 277.682 Q180.123 276.345 177.605 276.345 M174.098 274.852 Q171.841 274.296 170.574 272.751 Q169.324 271.206 169.324 268.984 Q169.324 265.876 171.529 264.07 Q173.751 262.265 177.605 262.265 Q181.477 262.265 183.682 264.07 Q185.886 265.876 185.886 268.984 Q185.886 271.206 184.619 272.751 Q183.369 274.296 181.129 274.852 Q183.664 275.442 185.07 277.161 Q186.494 278.879 186.494 281.362 Q186.494 285.129 184.185 287.143 Q181.893 289.157 177.605 289.157 Q173.317 289.157 171.008 287.143 Q168.716 285.129 168.716 281.362 Q168.716 278.879 170.14 277.161 Q171.564 275.442 174.098 274.852 M172.814 269.313 Q172.814 271.327 174.064 272.456 Q175.331 273.584 177.605 273.584 Q179.862 273.584 181.129 272.456 Q182.414 271.327 182.414 269.313 Q182.414 267.3 181.129 266.171 Q179.862 265.043 177.605 265.043 Q175.331 265.043 174.064 266.171 Q172.814 267.3 172.814 269.313 Z" fill="#4c4c4c" fill-rule="evenodd" fill-opacity="1" /><path clip-path="url(#clip470)" d="M20.3722 985.184 L20.3722 955.948 L24.3073 955.948 L24.3073 968.216 L54.9322 968.216 L54.9322 972.915 L24.3073 972.915 L24.3073 985.184 L20.3722 985.184 Z" fill="#000000" fill-rule="evenodd" fill-opacity="1" /><path clip-path="url(#clip470)" d="M40.9045 937.499 L42.9878 937.499 L42.9878 957.082 Q47.3859 956.804 49.7007 954.443 Q51.9924 952.059 51.9924 947.823 Q51.9924 945.369 51.3905 943.078 Q50.7887 940.763 49.585 938.494 L53.6127 938.494 Q54.5849 940.786 55.0942 943.193 Q55.6035 945.601 55.6035 948.078 Q55.6035 954.281 51.9924 957.916 Q48.3813 961.527 42.2239 961.527 Q35.8582 961.527 32.1314 958.101 Q28.3814 954.652 28.3814 948.818 Q28.3814 943.587 31.761 940.555 Q35.1174 937.499 40.9045 937.499 M39.6545 941.758 Q36.1591 941.805 34.0758 943.726 Q31.9925 945.624 31.9925 948.772 Q31.9925 952.337 34.0063 954.49 Q36.0202 956.619 39.6776 956.943 L39.6545 941.758 Z" fill="#000000" fill-rule="evenodd" fill-opacity="1" /><path clip-path="url(#clip470)" d="M29.7703 913.981 L33.798 913.981 Q32.8721 915.786 32.4091 917.731 Q31.9462 919.675 31.9462 921.758 Q31.9462 924.93 32.9184 926.527 Q33.8906 928.101 35.835 928.101 Q37.3165 928.101 38.173 926.967 Q39.0063 925.832 39.7702 922.406 L40.0943 920.948 Q41.0665 916.411 42.8489 914.513 Q44.6081 912.592 47.7794 912.592 Q51.3905 912.592 53.497 915.462 Q55.6035 918.309 55.6035 923.309 Q55.6035 925.393 55.1868 927.661 Q54.7933 929.906 53.9831 932.406 L49.585 932.406 Q50.8118 930.045 51.4368 927.754 Q52.0387 925.462 52.0387 923.217 Q52.0387 920.207 51.0201 918.587 Q49.9785 916.967 48.1035 916.967 Q46.3674 916.967 45.4415 918.147 Q44.5155 919.305 43.6591 923.263 L43.3118 924.744 Q42.4785 928.703 40.7656 930.462 Q39.0295 932.221 36.0202 932.221 Q32.3628 932.221 30.3721 929.629 Q28.3814 927.036 28.3814 922.268 Q28.3814 919.907 28.7286 917.823 Q29.0758 915.74 29.7703 913.981 Z" fill="#000000" fill-rule="evenodd" fill-opacity="1" /><path clip-path="url(#clip470)" d="M21.6453 901.596 L29.0064 901.596 L29.0064 892.823 L32.3165 892.823 L32.3165 901.596 L46.3905 901.596 Q49.5618 901.596 50.4646 900.74 Q51.3674 899.86 51.3674 897.198 L51.3674 892.823 L54.9322 892.823 L54.9322 897.198 Q54.9322 902.129 53.1035 904.004 Q51.2516 905.879 46.3905 905.879 L32.3165 905.879 L32.3165 909.004 L29.0064 909.004 L29.0064 905.879 L21.6453 905.879 L21.6453 901.596 Z" fill="#000000" fill-rule="evenodd" fill-opacity="1" /><path clip-path="url(#clip470)" d="M18.9138 872.152 L18.9138 867.893 L54.9322 867.893 L54.9322 872.152 L18.9138 872.152 Z" fill="#000000" fill-rule="evenodd" fill-opacity="1" /><path clip-path="url(#clip470)" d="M31.9925 848.935 Q31.9925 852.361 34.6776 854.351 Q37.3397 856.342 41.9924 856.342 Q46.6452 856.342 49.3303 854.374 Q51.9924 852.384 51.9924 848.935 Q51.9924 845.532 49.3072 843.541 Q46.622 841.55 41.9924 841.55 Q37.386 841.55 34.7008 843.541 Q31.9925 845.532 31.9925 848.935 M28.3814 848.935 Q28.3814 843.379 31.9925 840.208 Q35.6036 837.037 41.9924 837.037 Q48.3581 837.037 51.9924 840.208 Q55.6035 843.379 55.6035 848.935 Q55.6035 854.513 51.9924 857.685 Q48.3581 860.833 41.9924 860.833 Q35.6036 860.833 31.9925 857.685 Q28.3814 854.513 28.3814 848.935 Z" fill="#000000" fill-rule="evenodd" fill-opacity="1" /><path clip-path="url(#clip470)" d="M41.6683 812.916 Q37.0387 812.916 34.4925 814.838 Q31.9462 816.736 31.9462 820.185 Q31.9462 823.611 34.4925 825.532 Q37.0387 827.43 41.6683 827.43 Q46.2748 827.43 48.8211 825.532 Q51.3674 823.611 51.3674 820.185 Q51.3674 816.736 48.8211 814.838 Q46.2748 812.916 41.6683 812.916 M51.7146 808.657 Q58.3349 808.657 61.5525 811.597 Q64.7932 814.537 64.7932 820.601 Q64.7932 822.847 64.446 824.838 Q64.1219 826.828 63.4275 828.703 L59.284 828.703 Q60.3025 826.828 60.7886 825 Q61.2747 823.171 61.2747 821.273 Q61.2747 817.083 59.0757 815 Q56.8997 812.916 52.4785 812.916 L50.372 812.916 Q52.6637 814.236 53.7979 816.296 Q54.9322 818.356 54.9322 821.226 Q54.9322 825.995 51.2979 828.912 Q47.6637 831.828 41.6683 831.828 Q35.6499 831.828 32.0156 828.912 Q28.3814 825.995 28.3814 821.226 Q28.3814 818.356 29.5156 816.296 Q30.6499 814.236 32.9415 812.916 L29.0064 812.916 L29.0064 808.657 L51.7146 808.657 Z" fill="#000000" fill-rule="evenodd" fill-opacity="1" /><path clip-path="url(#clip470)" d="M40.048 802.037 L40.048 789.56 L43.8443 789.56 L43.8443 802.037 L40.048 802.037 Z" fill="#000000" fill-rule="evenodd" fill-opacity="1" /><path clip-path="url(#clip470)" d="M18.9138 782.778 L18.9138 778.518 L54.9322 778.518 L54.9322 782.778 L18.9138 782.778 Z" fill="#000000" fill-rule="evenodd" fill-opacity="1" /><path clip-path="url(#clip470)" d="M29.0064 769.606 L29.0064 765.347 L54.9322 765.347 L54.9322 769.606 L29.0064 769.606 M18.9138 769.606 L18.9138 765.347 L24.3073 765.347 L24.3073 769.606 L18.9138 769.606 Z" fill="#000000" fill-rule="evenodd" fill-opacity="1" /><path clip-path="url(#clip470)" d="M18.9138 756.597 L18.9138 752.315 L40.1869 752.315 L29.0064 739.607 L29.0064 734.167 L41.1359 747.917 L54.9322 733.588 L54.9322 739.144 L42.2702 752.315 L54.9322 752.315 L54.9322 756.597 L18.9138 756.597 Z" fill="#000000" fill-rule="evenodd" fill-opacity="1" /><path clip-path="url(#clip470)" d="M40.9045 708.496 L42.9878 708.496 L42.9878 728.079 Q47.3859 727.801 49.7007 725.44 Q51.9924 723.056 51.9924 718.82 Q51.9924 716.366 51.3905 714.074 Q50.7887 711.759 49.585 709.491 L53.6127 709.491 Q54.5849 711.783 55.0942 714.19 Q55.6035 716.597 55.6035 719.074 Q55.6035 725.278 51.9924 728.912 Q48.3813 732.523 42.2239 732.523 Q35.8582 732.523 32.1314 729.097 Q28.3814 725.648 28.3814 719.815 Q28.3814 714.584 31.761 711.551 Q35.1174 708.496 40.9045 708.496 M39.6545 712.755 Q36.1591 712.801 34.0758 714.722 Q31.9925 716.621 31.9925 719.769 Q31.9925 723.333 34.0063 725.486 Q36.0202 727.616 39.6776 727.94 L39.6545 712.755 Z" fill="#000000" fill-rule="evenodd" fill-opacity="1" /><path clip-path="url(#clip470)" d="M18.9138 701.505 L18.9138 697.246 L54.9322 697.246 L54.9322 701.505 L18.9138 701.505 Z" fill="#000000" fill-rule="evenodd" fill-opacity="1" /><path clip-path="url(#clip470)" d="M29.0064 688.334 L29.0064 684.074 L54.9322 684.074 L54.9322 688.334 L29.0064 688.334 M18.9138 688.334 L18.9138 684.074 L24.3073 684.074 L24.3073 688.334 L18.9138 688.334 Z" fill="#000000" fill-rule="evenodd" fill-opacity="1" /><path clip-path="url(#clip470)" d="M39.2841 653.612 L54.9322 653.612 L54.9322 657.871 L39.423 657.871 Q35.7424 657.871 33.9138 659.306 Q32.0851 660.741 32.0851 663.612 Q32.0851 667.061 34.2841 669.051 Q36.4832 671.042 40.2795 671.042 L54.9322 671.042 L54.9322 675.324 L18.9138 675.324 L18.9138 671.042 L33.0341 671.042 Q30.6962 669.514 29.5388 667.454 Q28.3814 665.371 28.3814 662.663 Q28.3814 658.195 31.1591 655.903 Q33.9138 653.612 39.2841 653.612 Z" fill="#000000" fill-rule="evenodd" fill-opacity="1" /><path clip-path="url(#clip470)" d="M31.9925 635.07 Q31.9925 638.496 34.6776 640.487 Q37.3397 642.477 41.9924 642.477 Q46.6452 642.477 49.3303 640.51 Q51.9924 638.519 51.9924 635.07 Q51.9924 631.667 49.3072 629.677 Q46.622 627.686 41.9924 627.686 Q37.386 627.686 34.7008 629.677 Q31.9925 631.667 31.9925 635.07 M28.3814 635.07 Q28.3814 629.515 31.9925 626.343 Q35.6036 623.172 41.9924 623.172 Q48.3581 623.172 51.9924 626.343 Q55.6035 629.515 55.6035 635.07 Q55.6035 640.649 51.9924 643.82 Q48.3581 646.968 41.9924 646.968 Q35.6036 646.968 31.9925 643.82 Q28.3814 640.649 28.3814 635.07 Z" fill="#000000" fill-rule="evenodd" fill-opacity="1" /><path clip-path="url(#clip470)" d="M31.9925 606.066 Q31.9925 609.492 34.6776 611.482 Q37.3397 613.473 41.9924 613.473 Q46.6452 613.473 49.3303 611.505 Q51.9924 609.515 51.9924 606.066 Q51.9924 602.663 49.3072 600.672 Q46.622 598.681 41.9924 598.681 Q37.386 598.681 34.7008 600.672 Q31.9925 602.663 31.9925 606.066 M28.3814 606.066 Q28.3814 600.51 31.9925 597.339 Q35.6036 594.168 41.9924 594.168 Q48.3581 594.168 51.9924 597.339 Q55.6035 600.51 55.6035 606.066 Q55.6035 611.644 51.9924 614.816 Q48.3581 617.964 41.9924 617.964 Q35.6036 617.964 31.9925 614.816 Q28.3814 611.644 28.3814 606.066 Z" fill="#000000" fill-rule="evenodd" fill-opacity="1" /><path clip-path="url(#clip470)" d="M32.9415 570.047 L18.9138 570.047 L18.9138 565.788 L54.9322 565.788 L54.9322 570.047 L51.0433 570.047 Q53.3581 571.39 54.4923 573.45 Q55.6035 575.487 55.6035 578.357 Q55.6035 583.056 51.8535 586.019 Q48.1035 588.959 41.9924 588.959 Q35.8813 588.959 32.1314 586.019 Q28.3814 583.056 28.3814 578.357 Q28.3814 575.487 29.5156 573.45 Q30.6267 571.39 32.9415 570.047 M41.9924 584.561 Q46.6915 584.561 49.3766 582.64 Q52.0387 580.695 52.0387 577.316 Q52.0387 573.936 49.3766 571.992 Q46.6915 570.047 41.9924 570.047 Q37.2934 570.047 34.6313 571.992 Q31.9462 573.936 31.9462 577.316 Q31.9462 580.695 34.6313 582.64 Q37.2934 584.561 41.9924 584.561 Z" fill="#000000" fill-rule="evenodd" fill-opacity="1" /><path clip-path="url(#clip470)" d="M1220.8 25.6538 Q1222.8 22.0659 1225.58 20.3587 Q1228.35 18.6515 1232.11 18.6515 Q1237.18 18.6515 1239.93 22.2105 Q1242.68 25.7406 1242.68 32.2799 L1242.68 51.84 L1237.32 51.84 L1237.32 32.4535 Q1237.32 27.795 1235.67 25.5381 Q1234.02 23.2811 1230.64 23.2811 Q1226.5 23.2811 1224.1 26.03 Q1221.7 28.7788 1221.7 33.5241 L1221.7 51.84 L1216.34 51.84 L1216.34 32.4535 Q1216.34 27.7661 1214.7 25.5381 Q1213.05 23.2811 1209.6 23.2811 Q1205.52 23.2811 1203.12 26.0589 Q1200.72 28.8077 1200.72 33.5241 L1200.72 51.84 L1195.37 51.84 L1195.37 19.4328 L1200.72 19.4328 L1200.72 24.4675 Q1202.54 21.4872 1205.09 20.0693 Q1207.64 18.6515 1211.14 18.6515 Q1214.67 18.6515 1217.13 20.4455 Q1219.61 22.2395 1220.8 25.6538 Z" fill="#000000" fill-rule="evenodd" fill-opacity="1" /><path clip-path="url(#clip470)" d="M1273.95 20.3876 L1273.95 25.4223 Q1271.7 24.2649 1269.27 23.6862 Q1266.84 23.1075 1264.23 23.1075 Q1260.27 23.1075 1258.27 24.3228 Q1256.3 25.5381 1256.3 27.9686 Q1256.3 29.8204 1257.72 30.891 Q1259.14 31.9327 1263.42 32.8876 L1265.24 33.2926 Q1270.92 34.5079 1273.29 36.7359 Q1275.69 38.935 1275.69 42.8991 Q1275.69 47.4129 1272.1 50.046 Q1268.54 52.6791 1262.29 52.6791 Q1259.69 52.6791 1256.85 52.1583 Q1254.05 51.6664 1250.92 50.6537 L1250.92 45.156 Q1253.87 46.6896 1256.74 47.4708 Q1259.6 48.2231 1262.41 48.2231 Q1266.17 48.2231 1268.2 46.95 Q1270.22 45.6479 1270.22 43.3042 Q1270.22 41.134 1268.75 39.9766 Q1267.3 38.8192 1262.35 37.7486 L1260.5 37.3146 Q1255.55 36.273 1253.35 34.1318 Q1251.15 31.9616 1251.15 28.2001 Q1251.15 23.6283 1254.39 21.1399 Q1257.64 18.6515 1263.6 18.6515 Q1266.55 18.6515 1269.15 19.0855 Q1271.76 19.5196 1273.95 20.3876 Z" fill="#000000" fill-rule="evenodd" fill-opacity="1" /><path clip-path="url(#clip470)" d="M1281.07 19.4328 L1286.4 19.4328 L1293.05 44.722 L1299.68 19.4328 L1305.96 19.4328 L1312.61 44.722 L1319.24 19.4328 L1324.56 19.4328 L1316.08 51.84 L1309.8 51.84 L1302.83 25.2776 L1295.83 51.84 L1289.55 51.84 L1281.07 19.4328 Z" fill="#000000" fill-rule="evenodd" fill-opacity="1" /><path clip-path="url(#clip470)" d="M1360.35 34.3054 L1360.35 36.9095 L1335.88 36.9095 Q1336.22 42.4072 1339.17 45.3007 Q1342.15 48.1653 1347.45 48.1653 Q1350.52 48.1653 1353.38 47.4129 Q1356.27 46.6606 1359.11 45.156 L1359.11 50.1907 Q1356.25 51.406 1353.24 52.0425 Q1350.23 52.6791 1347.13 52.6791 Q1339.38 52.6791 1334.83 48.1653 Q1330.32 43.6514 1330.32 35.9547 Q1330.32 27.9975 1334.6 23.339 Q1338.91 18.6515 1346.21 18.6515 Q1352.74 18.6515 1356.53 22.876 Q1360.35 27.0716 1360.35 34.3054 M1355.03 32.7429 Q1354.97 28.3737 1352.57 25.7695 Q1350.2 23.1654 1346.26 23.1654 Q1341.81 23.1654 1339.12 25.6827 Q1336.45 28.2001 1336.05 32.7718 L1355.03 32.7429 Z" fill="#000000" fill-rule="evenodd" fill-opacity="1" /><path clip-path="url(#clip470)" d="M1392.36 35.6653 Q1392.36 29.7915 1389.93 26.464 Q1387.52 23.1075 1383.3 23.1075 Q1379.08 23.1075 1376.64 26.464 Q1374.24 29.7915 1374.24 35.6653 Q1374.24 41.5391 1376.64 44.8956 Q1379.08 48.2231 1383.3 48.2231 Q1387.52 48.2231 1389.93 44.8956 Q1392.36 41.5391 1392.36 35.6653 M1374.24 24.3517 Q1375.92 21.4582 1378.47 20.0693 Q1381.04 18.6515 1384.6 18.6515 Q1390.5 18.6515 1394.18 23.339 Q1397.88 28.0265 1397.88 35.6653 Q1397.88 43.3042 1394.18 47.9916 Q1390.5 52.6791 1384.6 52.6791 Q1381.04 52.6791 1378.47 51.2902 Q1375.92 49.8724 1374.24 46.9789 L1374.24 51.84 L1368.89 51.84 L1368.89 6.81709 L1374.24 6.81709 L1374.24 24.3517 Z" fill="#000000" fill-rule="evenodd" fill-opacity="1" /><polyline clip-path="url(#clip472)" style="stroke:#e26f46; stroke-linecap:butt; stroke-linejoin:round; stroke-width:8; stroke-opacity:1; fill:none" points="
  340.129,933.779 379.983,933.779 419.837,933.779 459.691,933.779 499.545,933.779 539.399,933.779 579.253,933.779 619.107,933.779 658.961,933.779 698.815,933.779 
  738.669,933.779 778.523,933.779 818.377,933.779 858.231,933.779 898.085,933.779 937.939,933.779 977.793,933.779 1017.65,933.779 1057.5,933.779 1097.35,933.779 
  1137.21,933.779 1177.06,933.779 1216.92,933.779 1256.77,933.779 1296.62,933.779 1336.48,933.779 1376.33,933.779 1416.19,933.779 1456.04,933.779 1495.89,933.779 
  1535.75,933.779 1575.6,933.779 1615.46,933.779 1655.31,933.779 1695.16,933.779 1735.02,933.779 1774.87,933.779 1814.73,933.779 1854.58,933.779 1894.43,933.779 
  1934.29,933.779 1974.14,933.779 2014,933.779 2053.85,933.779 2093.7,933.779 2133.56,933.779 2173.41,933.779 2213.27,933.779 2253.12,933.779 2292.97,933.779 
  
  "/>
<polyline clip-path="url(#clip472)" style="stroke:#3da44d; stroke-linecap:butt; stroke-linejoin:round; stroke-width:8; stroke-opacity:1; fill:none" points="
  340.129,144.077 379.983,144.077 419.837,144.077 459.691,144.077 499.545,144.077 539.399,144.077 579.253,144.077 619.107,144.077 658.961,144.077 698.815,144.077 
  738.669,144.077 778.523,144.077 818.377,144.077 858.231,144.077 898.085,144.077 937.939,144.077 977.793,144.077 1017.65,144.077 1057.5,144.077 1097.35,144.077 
  1137.21,144.077 1177.06,144.077 1216.92,144.077 1256.77,144.077 1296.62,144.077 1336.48,144.077 1376.33,144.077 1416.19,144.077 1456.04,144.077 1495.89,144.077 
  1535.75,144.077 1575.6,144.077 1615.46,144.077 1655.31,144.077 1695.16,144.077 1735.02,144.077 1774.87,144.077 1814.73,144.077 1854.58,144.077 1894.43,144.077 
  1934.29,144.077 1974.14,144.077 2014,144.077 2053.85,144.077 2093.7,144.077 2133.56,144.077 2173.41,144.077 2213.27,144.077 2253.12,144.077 2292.97,144.077 
  
  "/>
<polyline clip-path="url(#clip472)" style="stroke:#c271d2; stroke-linecap:butt; stroke-linejoin:round; stroke-width:8; stroke-opacity:1; fill:none" points="
  340.129,407.311 379.983,407.311 419.837,407.311 459.691,407.311 499.545,407.311 539.399,407.311 579.253,407.311 619.107,407.311 658.961,407.311 698.815,407.311 
  738.669,407.311 778.523,407.311 818.377,407.311 858.231,407.311 898.085,407.311 937.939,407.311 977.793,407.311 1017.65,407.311 1057.5,407.311 1097.35,407.311 
  1137.21,407.311 1177.06,407.311 1216.92,407.311 1256.77,407.311 1296.62,407.311 1336.48,407.311 1376.33,407.311 1416.19,407.311 1456.04,407.311 1495.89,407.311 
  1535.75,407.311 1575.6,407.311 1615.46,407.311 1655.31,407.311 1695.16,407.311 1735.02,407.311 1774.87,407.311 1814.73,407.311 1854.58,407.311 1894.43,407.311 
  1934.29,407.311 1974.14,407.311 2014,407.311 2053.85,407.311 2093.7,407.311 2133.56,407.311 2173.41,407.311 2213.27,407.311 2253.12,407.311 2292.97,407.311 
  
  "/>
<polyline clip-path="url(#clip472)" style="stroke:#ac8d18; stroke-linecap:butt; stroke-linejoin:round; stroke-width:8; stroke-opacity:1; fill:none" points="
  340.129,465.807 379.983,465.807 419.837,465.807 459.691,465.807 499.545,465.807 539.399,465.807 579.253,465.807 619.107,465.807 658.961,465.807 698.815,465.807 
  738.669,465.807 778.523,465.807 818.377,465.807 858.231,465.807 898.085,465.807 937.939,465.807 977.793,465.807 1017.65,465.807 1057.5,465.807 1097.35,465.807 
  1137.21,465.807 1177.06,465.807 1216.92,465.807 1256.77,465.807 1296.62,465.807 1336.48,465.807 1376.33,465.807 1416.19,465.807 1456.04,465.807 1495.89,465.807 
  1535.75,465.807 1575.6,465.807 1615.46,465.807 1655.31,465.807 1695.16,465.807 1735.02,465.807 1774.87,465.807 1814.73,465.807 1854.58,465.807 1894.43,465.807 
  1934.29,465.807 1974.14,465.807 2014,465.807 2053.85,465.807 2093.7,465.807 2133.56,465.807 2173.41,465.807 2213.27,465.807 2253.12,465.807 2292.97,465.807 
  
  "/>
<polyline clip-path="url(#clip472)" style="stroke:#00a9ad; stroke-linecap:butt; stroke-linejoin:round; stroke-width:8; stroke-opacity:1; fill:none" points="
  340.129,363.438 379.983,363.438 419.837,363.438 459.691,363.438 499.545,363.438 539.399,363.438 579.253,363.438 619.107,363.438 658.961,363.438 698.815,363.438 
  738.669,363.438 778.523,363.438 818.377,363.438 858.231,363.438 898.085,363.438 937.939,363.438 977.793,363.438 1017.65,363.438 1057.5,363.438 1097.35,363.438 
  1137.21,363.438 1177.06,363.438 1216.92,363.438 1256.77,363.438 1296.62,363.438 1336.48,363.438 1376.33,363.438 1416.19,363.438 1456.04,363.438 1495.89,363.438 
  1535.75,363.438 1575.6,363.438 1615.46,363.438 1655.31,363.438 1695.16,363.438 1735.02,363.438 1774.87,363.438 1814.73,363.438 1854.58,363.438 1894.43,363.438 
  1934.29,363.438 1974.14,363.438 2014,363.438 2053.85,363.438 2093.7,363.438 2133.56,363.438 2173.41,363.438 2213.27,363.438 2253.12,363.438 2292.97,363.438 
  
  "/>
<polyline clip-path="url(#clip472)" style="stroke:#009af9; stroke-linecap:butt; stroke-linejoin:round; stroke-width:12; stroke-opacity:1; fill:none" points="
  340.129,1406.9 379.983,1167.54 419.837,1060.93 459.691,947.657 499.545,960.008 539.399,863.616 579.253,811.248 619.107,800.835 658.961,776.783 698.815,870.331 
  738.669,747.263 778.523,664.851 818.377,691.355 858.231,670.512 898.085,650.886 937.939,621.948 977.793,639.799 1017.65,670.67 1057.5,607.498 1097.35,596.678 
  1137.21,578.441 1177.06,576.822 1216.92,565.386 1256.77,570.827 1296.62,556.654 1336.48,538.293 1376.33,523.114 1416.19,519.989 1456.04,517.226 1495.89,522.994 
  1535.75,524.686 1575.6,542.377 1615.46,536.56 1655.31,536.782 1695.16,524.818 1735.02,516.319 1774.87,531.767 1814.73,516.074 1854.58,518.136 1894.43,518.072 
  1934.29,521.011 1974.14,512.99 2014,517.959 2053.85,503.969 2093.7,496.526 2133.56,492.052 2173.41,492.329 2213.27,490.346 2253.12,491.049 2292.97,487.502 
  
  "/>
</svg>
