<?xml version="1.0" encoding="utf-8"?>
<svg xmlns="http://www.w3.org/2000/svg" xmlns:xlink="http://www.w3.org/1999/xlink" width="600" height="400" viewBox="0 0 2400 1600">
<defs>
  <clipPath id="clip850">
    <rect x="0" y="0" width="2400" height="1600"/>
  </clipPath>
</defs>
<path clip-path="url(#clip850)" d="
M0 1600 L2400 1600 L2400 0 L0 0  Z
  " fill="#ffffff" fill-rule="evenodd" fill-opacity="1"/>
<defs>
  <clipPath id="clip851">
    <rect x="480" y="0" width="1681" height="1600"/>
  </clipPath>
</defs>
<path clip-path="url(#clip850)" d="
M350.73 1422.18 L2352.76 1422.18 L2352.76 106.192 L350.73 106.192  Z
  " fill="#eaeaea" fill-rule="evenodd" fill-opacity="1"/>
<defs>
  <clipPath id="clip852">
    <rect x="350" y="106" width="2003" height="1317"/>
  </clipPath>
</defs>
<polyline clip-path="url(#clip852)" style="stroke:#ffffff; stroke-linecap:butt; stroke-linejoin:round; stroke-width:4; stroke-opacity:1; fill:none" points="
  407.391,1422.18 407.391,106.192 
  "/>
<polyline clip-path="url(#clip852)" style="stroke:#ffffff; stroke-linecap:butt; stroke-linejoin:round; stroke-width:4; stroke-opacity:1; fill:none" points="
  552.676,1422.18 552.676,106.192 
  "/>
<polyline clip-path="url(#clip852)" style="stroke:#ffffff; stroke-linecap:butt; stroke-linejoin:round; stroke-width:4; stroke-opacity:1; fill:none" points="
  697.961,1422.18 697.961,106.192 
  "/>
<polyline clip-path="url(#clip852)" style="stroke:#ffffff; stroke-linecap:butt; stroke-linejoin:round; stroke-width:4; stroke-opacity:1; fill:none" points="
  843.246,1422.18 843.246,106.192 
  "/>
<polyline clip-path="url(#clip852)" style="stroke:#ffffff; stroke-linecap:butt; stroke-linejoin:round; stroke-width:4; stroke-opacity:1; fill:none" points="
  988.531,1422.18 988.531,106.192 
  "/>
<polyline clip-path="url(#clip852)" style="stroke:#ffffff; stroke-linecap:butt; stroke-linejoin:round; stroke-width:4; stroke-opacity:1; fill:none" points="
  1133.82,1422.18 1133.82,106.192 
  "/>
<polyline clip-path="url(#clip852)" style="stroke:#ffffff; stroke-linecap:butt; stroke-linejoin:round; stroke-width:4; stroke-opacity:1; fill:none" points="
  1279.1,1422.18 1279.1,106.192 
  "/>
<polyline clip-path="url(#clip852)" style="stroke:#ffffff; stroke-linecap:butt; stroke-linejoin:round; stroke-width:4; stroke-opacity:1; fill:none" points="
  1424.39,1422.18 1424.39,106.192 
  "/>
<polyline clip-path="url(#clip852)" style="stroke:#ffffff; stroke-linecap:butt; stroke-linejoin:round; stroke-width:4; stroke-opacity:1; fill:none" points="
  1569.67,1422.18 1569.67,106.192 
  "/>
<polyline clip-path="url(#clip852)" style="stroke:#ffffff; stroke-linecap:butt; stroke-linejoin:round; stroke-width:4; stroke-opacity:1; fill:none" points="
  1714.96,1422.18 1714.96,106.192 
  "/>
<polyline clip-path="url(#clip852)" style="stroke:#ffffff; stroke-linecap:butt; stroke-linejoin:round; stroke-width:4; stroke-opacity:1; fill:none" points="
  1860.24,1422.18 1860.24,106.192 
  "/>
<polyline clip-path="url(#clip852)" style="stroke:#ffffff; stroke-linecap:butt; stroke-linejoin:round; stroke-width:4; stroke-opacity:1; fill:none" points="
  2005.53,1422.18 2005.53,106.192 
  "/>
<polyline clip-path="url(#clip852)" style="stroke:#ffffff; stroke-linecap:butt; stroke-linejoin:round; stroke-width:4; stroke-opacity:1; fill:none" points="
  2150.81,1422.18 2150.81,106.192 
  "/>
<polyline clip-path="url(#clip852)" style="stroke:#ffffff; stroke-linecap:butt; stroke-linejoin:round; stroke-width:4; stroke-opacity:1; fill:none" points="
  2296.09,1422.18 2296.09,106.192 
  "/>
<polyline clip-path="url(#clip852)" style="stroke:#ffffff; stroke-linecap:butt; stroke-linejoin:round; stroke-width:2; stroke-opacity:1; fill:none" points="
  480.034,1422.18 480.034,106.192 
  "/>
<polyline clip-path="url(#clip852)" style="stroke:#ffffff; stroke-linecap:butt; stroke-linejoin:round; stroke-width:2; stroke-opacity:1; fill:none" points="
  625.319,1422.18 625.319,106.192 
  "/>
<polyline clip-path="url(#clip852)" style="stroke:#ffffff; stroke-linecap:butt; stroke-linejoin:round; stroke-width:2; stroke-opacity:1; fill:none" points="
  770.604,1422.18 770.604,106.192 
  "/>
<polyline clip-path="url(#clip852)" style="stroke:#ffffff; stroke-linecap:butt; stroke-linejoin:round; stroke-width:2; stroke-opacity:1; fill:none" points="
  915.888,1422.18 915.888,106.192 
  "/>
<polyline clip-path="url(#clip852)" style="stroke:#ffffff; stroke-linecap:butt; stroke-linejoin:round; stroke-width:2; stroke-opacity:1; fill:none" points="
  1061.17,1422.18 1061.17,106.192 
  "/>
<polyline clip-path="url(#clip852)" style="stroke:#ffffff; stroke-linecap:butt; stroke-linejoin:round; stroke-width:2; stroke-opacity:1; fill:none" points="
  1206.46,1422.18 1206.46,106.192 
  "/>
<polyline clip-path="url(#clip852)" style="stroke:#ffffff; stroke-linecap:butt; stroke-linejoin:round; stroke-width:2; stroke-opacity:1; fill:none" points="
  1351.74,1422.18 1351.74,106.192 
  "/>
<polyline clip-path="url(#clip852)" style="stroke:#ffffff; stroke-linecap:butt; stroke-linejoin:round; stroke-width:2; stroke-opacity:1; fill:none" points="
  1497.03,1422.18 1497.03,106.192 
  "/>
<polyline clip-path="url(#clip852)" style="stroke:#ffffff; stroke-linecap:butt; stroke-linejoin:round; stroke-width:2; stroke-opacity:1; fill:none" points="
  1642.31,1422.18 1642.31,106.192 
  "/>
<polyline clip-path="url(#clip852)" style="stroke:#ffffff; stroke-linecap:butt; stroke-linejoin:round; stroke-width:2; stroke-opacity:1; fill:none" points="
  1787.6,1422.18 1787.6,106.192 
  "/>
<polyline clip-path="url(#clip852)" style="stroke:#ffffff; stroke-linecap:butt; stroke-linejoin:round; stroke-width:2; stroke-opacity:1; fill:none" points="
  1932.88,1422.18 1932.88,106.192 
  "/>
<polyline clip-path="url(#clip852)" style="stroke:#ffffff; stroke-linecap:butt; stroke-linejoin:round; stroke-width:2; stroke-opacity:1; fill:none" points="
  2078.17,1422.18 2078.17,106.192 
  "/>
<polyline clip-path="url(#clip852)" style="stroke:#ffffff; stroke-linecap:butt; stroke-linejoin:round; stroke-width:2; stroke-opacity:1; fill:none" points="
  2223.45,1422.18 2223.45,106.192 
  "/>
<polyline clip-path="url(#clip850)" style="stroke:#ffffff; stroke-linecap:butt; stroke-linejoin:round; stroke-width:4; stroke-opacity:1; fill:none" points="
  350.73,1422.18 2352.76,1422.18 
  "/>
<polyline clip-path="url(#clip850)" style="stroke:#333333; stroke-linecap:butt; stroke-linejoin:round; stroke-width:4; stroke-opacity:1; fill:none" points="
  407.391,1422.18 407.391,1441.07 
  "/>
<polyline clip-path="url(#clip850)" style="stroke:#333333; stroke-linecap:butt; stroke-linejoin:round; stroke-width:4; stroke-opacity:1; fill:none" points="
  552.676,1422.18 552.676,1441.07 
  "/>
<polyline clip-path="url(#clip850)" style="stroke:#333333; stroke-linecap:butt; stroke-linejoin:round; stroke-width:4; stroke-opacity:1; fill:none" points="
  697.961,1422.18 697.961,1441.07 
  "/>
<polyline clip-path="url(#clip850)" style="stroke:#333333; stroke-linecap:butt; stroke-linejoin:round; stroke-width:4; stroke-opacity:1; fill:none" points="
  843.246,1422.18 843.246,1441.07 
  "/>
<polyline clip-path="url(#clip850)" style="stroke:#333333; stroke-linecap:butt; stroke-linejoin:round; stroke-width:4; stroke-opacity:1; fill:none" points="
  988.531,1422.18 988.531,1441.07 
  "/>
<polyline clip-path="url(#clip850)" style="stroke:#333333; stroke-linecap:butt; stroke-linejoin:round; stroke-width:4; stroke-opacity:1; fill:none" points="
  1133.82,1422.18 1133.82,1441.07 
  "/>
<polyline clip-path="url(#clip850)" style="stroke:#333333; stroke-linecap:butt; stroke-linejoin:round; stroke-width:4; stroke-opacity:1; fill:none" points="
  1279.1,1422.18 1279.1,1441.07 
  "/>
<polyline clip-path="url(#clip850)" style="stroke:#333333; stroke-linecap:butt; stroke-linejoin:round; stroke-width:4; stroke-opacity:1; fill:none" points="
  1424.39,1422.18 1424.39,1441.07 
  "/>
<polyline clip-path="url(#clip850)" style="stroke:#333333; stroke-linecap:butt; stroke-linejoin:round; stroke-width:4; stroke-opacity:1; fill:none" points="
  1569.67,1422.18 1569.67,1441.07 
  "/>
<polyline clip-path="url(#clip850)" style="stroke:#333333; stroke-linecap:butt; stroke-linejoin:round; stroke-width:4; stroke-opacity:1; fill:none" points="
  1714.96,1422.18 1714.96,1441.07 
  "/>
<polyline clip-path="url(#clip850)" style="stroke:#333333; stroke-linecap:butt; stroke-linejoin:round; stroke-width:4; stroke-opacity:1; fill:none" points="
  1860.24,1422.18 1860.24,1441.07 
  "/>
<polyline clip-path="url(#clip850)" style="stroke:#333333; stroke-linecap:butt; stroke-linejoin:round; stroke-width:4; stroke-opacity:1; fill:none" points="
  2005.53,1422.18 2005.53,1441.07 
  "/>
<polyline clip-path="url(#clip850)" style="stroke:#333333; stroke-linecap:butt; stroke-linejoin:round; stroke-width:4; stroke-opacity:1; fill:none" points="
  2150.81,1422.18 2150.81,1441.07 
  "/>
<polyline clip-path="url(#clip850)" style="stroke:#333333; stroke-linecap:butt; stroke-linejoin:round; stroke-width:4; stroke-opacity:1; fill:none" points="
  2296.09,1422.18 2296.09,1441.07 
  "/>
<polyline clip-path="url(#clip850)" style="stroke:#333333; stroke-linecap:butt; stroke-linejoin:round; stroke-width:4; stroke-opacity:1; fill:none" points="
  480.034,1422.18 480.034,1431.63 
  "/>
<polyline clip-path="url(#clip850)" style="stroke:#333333; stroke-linecap:butt; stroke-linejoin:round; stroke-width:4; stroke-opacity:1; fill:none" points="
  625.319,1422.18 625.319,1431.63 
  "/>
<polyline clip-path="url(#clip850)" style="stroke:#333333; stroke-linecap:butt; stroke-linejoin:round; stroke-width:4; stroke-opacity:1; fill:none" points="
  770.604,1422.18 770.604,1431.63 
  "/>
<polyline clip-path="url(#clip850)" style="stroke:#333333; stroke-linecap:butt; stroke-linejoin:round; stroke-width:4; stroke-opacity:1; fill:none" points="
  915.888,1422.18 915.888,1431.63 
  "/>
<polyline clip-path="url(#clip850)" style="stroke:#333333; stroke-linecap:butt; stroke-linejoin:round; stroke-width:4; stroke-opacity:1; fill:none" points="
  1061.17,1422.18 1061.17,1431.63 
  "/>
<polyline clip-path="url(#clip850)" style="stroke:#333333; stroke-linecap:butt; stroke-linejoin:round; stroke-width:4; stroke-opacity:1; fill:none" points="
  1206.46,1422.18 1206.46,1431.63 
  "/>
<polyline clip-path="url(#clip850)" style="stroke:#333333; stroke-linecap:butt; stroke-linejoin:round; stroke-width:4; stroke-opacity:1; fill:none" points="
  1351.74,1422.18 1351.74,1431.63 
  "/>
<polyline clip-path="url(#clip850)" style="stroke:#333333; stroke-linecap:butt; stroke-linejoin:round; stroke-width:4; stroke-opacity:1; fill:none" points="
  1497.03,1422.18 1497.03,1431.63 
  "/>
<polyline clip-path="url(#clip850)" style="stroke:#333333; stroke-linecap:butt; stroke-linejoin:round; stroke-width:4; stroke-opacity:1; fill:none" points="
  1642.31,1422.18 1642.31,1431.63 
  "/>
<polyline clip-path="url(#clip850)" style="stroke:#333333; stroke-linecap:butt; stroke-linejoin:round; stroke-width:4; stroke-opacity:1; fill:none" points="
  1787.6,1422.18 1787.6,1431.63 
  "/>
<polyline clip-path="url(#clip850)" style="stroke:#333333; stroke-linecap:butt; stroke-linejoin:round; stroke-width:4; stroke-opacity:1; fill:none" points="
  1932.88,1422.18 1932.88,1431.63 
  "/>
<polyline clip-path="url(#clip850)" style="stroke:#333333; stroke-linecap:butt; stroke-linejoin:round; stroke-width:4; stroke-opacity:1; fill:none" points="
  2078.17,1422.18 2078.17,1431.63 
  "/>
<polyline clip-path="url(#clip850)" style="stroke:#333333; stroke-linecap:butt; stroke-linejoin:round; stroke-width:4; stroke-opacity:1; fill:none" points="
  2223.45,1422.18 2223.45,1431.63 
  "/>
<path clip-path="url(#clip850)" d="M421.095 1463.13 Q419.74 1460.78 416.739 1460.93 Q413.762 1461.09 409.131 1463.76 Q404.515 1466.43 402.877 1468.94 Q401.262 1471.45 402.616 1473.8 Q403.979 1476.16 406.957 1476 Q409.958 1475.85 414.574 1473.19 Q419.204 1470.52 420.819 1468 Q422.457 1465.49 421.095 1463.13 M423.5 1461.74 Q425.679 1465.51 423.833 1469.23 Q422.01 1472.94 416.327 1476.23 Q410.659 1479.5 406.512 1479.23 Q402.39 1478.96 400.211 1475.19 Q398.032 1471.41 399.854 1467.69 Q401.701 1463.98 407.369 1460.71 Q413.052 1457.43 417.175 1457.69 Q421.321 1457.97 423.5 1461.74 Z" fill="#4c4c4c" fill-rule="evenodd" fill-opacity="1" /><path clip-path="url(#clip850)" d="M544.26 1466.14 L547.125 1471.1 L564.25 1461.21 L560.051 1456.44 L562.817 1454.84 L566.999 1459.58 L568.752 1462.62 L548.861 1474.11 L551.725 1479.07 L549.17 1480.54 L541.704 1467.61 L544.26 1466.14 Z" fill="#4c4c4c" fill-rule="evenodd" fill-opacity="1" /><path clip-path="url(#clip850)" d="M576.909 1481.37 Q575.555 1479.02 572.554 1479.17 Q569.576 1479.33 564.945 1482 Q560.33 1484.66 558.691 1487.17 Q557.077 1489.69 558.431 1492.04 Q559.794 1494.4 562.771 1494.24 Q565.772 1494.09 570.388 1491.43 Q575.019 1488.75 576.633 1486.24 Q578.272 1483.73 576.909 1481.37 M579.314 1479.98 Q581.493 1483.75 579.647 1487.46 Q577.825 1491.18 572.141 1494.46 Q566.473 1497.74 562.327 1497.46 Q558.204 1497.2 556.025 1493.42 Q553.846 1489.65 555.669 1485.93 Q557.515 1482.22 563.183 1478.95 Q568.866 1475.67 572.989 1475.93 Q577.136 1476.2 579.314 1479.98 Z" fill="#4c4c4c" fill-rule="evenodd" fill-opacity="1" /><path clip-path="url(#clip850)" d="M691.403 1469.35 L697.523 1479.95 L694.967 1481.43 L686.737 1467.18 L689.293 1465.7 Q692.081 1466.4 696.807 1467.64 Q701.556 1468.89 702.871 1469.15 Q705.352 1469.66 706.809 1469.58 Q708.29 1469.51 709.388 1468.87 Q711.177 1467.84 711.576 1465.93 Q711.983 1464.03 710.82 1462.01 Q709.995 1460.59 708.579 1459.28 Q707.171 1457.99 705.122 1456.76 L708.189 1454.99 Q709.985 1456.4 711.281 1457.78 Q712.577 1459.15 713.341 1460.48 Q715.355 1463.97 714.808 1467.05 Q714.262 1470.13 711.346 1471.81 Q709.962 1472.61 708.411 1472.81 Q706.883 1473.01 704.409 1472.61 Q703.756 1472.49 700.503 1471.68 Q697.265 1470.86 691.403 1469.35 Z" fill="#4c4c4c" fill-rule="evenodd" fill-opacity="1" /><path clip-path="url(#clip850)" d="M722.845 1482.49 Q721.491 1480.15 718.489 1480.3 Q715.512 1480.45 710.881 1483.13 Q706.265 1485.79 704.627 1488.3 Q703.013 1490.82 704.367 1493.16 Q705.73 1495.52 708.707 1495.37 Q711.708 1495.22 716.324 1492.55 Q720.955 1489.88 722.569 1487.36 Q724.208 1484.86 722.845 1482.49 M725.25 1481.11 Q727.429 1484.88 725.583 1488.59 Q723.761 1492.31 718.077 1495.59 Q712.409 1498.86 708.263 1498.59 Q704.14 1498.33 701.961 1494.55 Q699.782 1490.78 701.605 1487.06 Q703.451 1483.35 709.119 1480.08 Q714.802 1476.79 718.925 1477.06 Q723.072 1477.33 725.25 1481.11 Z" fill="#4c4c4c" fill-rule="evenodd" fill-opacity="1" /><path clip-path="url(#clip850)" d="M849.985 1470.34 Q850.777 1472.79 850.007 1474.86 Q849.246 1476.94 847.08 1478.19 Q843.758 1480.11 840.619 1478.87 Q837.48 1477.64 835.05 1473.43 Q834.234 1472.01 833.651 1470.35 Q833.063 1468.7 832.699 1466.79 L835.631 1465.09 Q835.623 1466.78 836.115 1468.5 Q836.608 1470.22 837.554 1471.86 Q839.203 1474.72 841.19 1475.56 Q843.186 1476.41 845.336 1475.17 Q847.32 1474.02 847.626 1471.98 Q847.955 1469.95 846.522 1467.47 L845.012 1464.85 L847.508 1463.41 L849.088 1466.14 Q850.381 1468.38 851.954 1469.06 Q853.542 1469.73 855.226 1468.76 Q856.955 1467.76 857.16 1465.99 Q857.389 1464.24 856.07 1461.95 Q855.349 1460.71 854.254 1459.43 Q853.159 1458.16 851.598 1456.78 L854.304 1455.21 Q855.783 1456.67 856.892 1458.03 Q858.009 1459.41 858.782 1460.75 Q860.778 1464.21 860.363 1467.13 Q859.962 1470.05 857.286 1471.6 Q855.422 1472.67 853.513 1472.35 Q851.618 1472.02 849.985 1470.34 Z" fill="#4c4c4c" fill-rule="evenodd" fill-opacity="1" /><path clip-path="url(#clip850)" d="M868.078 1482.4 Q866.723 1480.06 863.722 1480.21 Q860.745 1480.36 856.114 1483.04 Q851.498 1485.7 849.86 1488.21 Q848.245 1490.73 849.599 1493.07 Q850.962 1495.43 853.94 1495.28 Q856.941 1495.13 861.557 1492.46 Q866.187 1489.79 867.802 1487.27 Q869.44 1484.76 868.078 1482.4 M870.483 1481.02 Q872.662 1484.79 870.816 1488.5 Q868.993 1492.22 863.31 1495.5 Q857.642 1498.77 853.495 1498.5 Q849.373 1498.24 847.194 1494.46 Q845.015 1490.69 846.837 1486.97 Q848.684 1483.26 854.352 1479.98 Q860.035 1476.7 864.158 1476.97 Q868.304 1477.24 870.483 1481.02 Z" fill="#4c4c4c" fill-rule="evenodd" fill-opacity="1" /><path clip-path="url(#clip850)" d="M1002.96 1465.88 L986.549 1465.13 L990.976 1472.8 L1002.96 1465.88 M1005.15 1463.55 L1007.35 1467.37 L992.721 1475.82 L994.57 1479.02 L992.044 1480.48 L990.195 1477.28 L984.903 1480.33 L983.158 1477.31 L988.45 1474.25 L982.6 1464.12 L985.531 1462.43 L1005.15 1463.55 Z" fill="#4c4c4c" fill-rule="evenodd" fill-opacity="1" /><path clip-path="url(#clip850)" d="M1013.85 1483.25 Q1012.49 1480.9 1009.49 1481.05 Q1006.52 1481.21 1001.89 1483.88 Q997.269 1486.54 995.631 1489.05 Q994.016 1491.57 995.37 1493.91 Q996.733 1496.28 999.711 1496.12 Q1002.71 1495.97 1007.33 1493.31 Q1011.96 1490.63 1013.57 1488.12 Q1015.21 1485.61 1013.85 1483.25 M1016.25 1481.86 Q1018.43 1485.63 1016.59 1489.34 Q1014.76 1493.06 1009.08 1496.34 Q1003.41 1499.62 999.266 1499.34 Q995.144 1499.08 992.965 1495.3 Q990.786 1491.53 992.608 1487.81 Q994.455 1484.1 1000.12 1480.83 Q1005.81 1477.55 1009.93 1477.81 Q1014.08 1478.08 1016.25 1481.86 Z" fill="#4c4c4c" fill-rule="evenodd" fill-opacity="1" /><path clip-path="url(#clip850)" d="M1145.59 1455.16 L1152.47 1467.09 L1149.91 1468.56 L1144.64 1459.42 L1139.13 1462.6 Q1139.74 1463.13 1140.23 1463.73 Q1140.73 1464.32 1141.11 1464.98 Q1143.28 1468.74 1142.49 1472.13 Q1141.7 1475.51 1138.18 1477.54 Q1134.56 1479.63 1131.24 1478.54 Q1127.94 1477.44 1125.57 1473.34 Q1124.75 1471.92 1124.14 1470.31 Q1123.54 1468.71 1123.12 1466.87 L1126.17 1465.11 Q1126.21 1466.89 1126.69 1468.54 Q1127.16 1470.19 1128.09 1471.8 Q1129.59 1474.4 1131.84 1475.13 Q1134.08 1475.86 1136.43 1474.51 Q1138.77 1473.15 1139.26 1470.84 Q1139.75 1468.53 1138.25 1465.93 Q1137.55 1464.72 1136.58 1463.65 Q1135.61 1462.61 1134.31 1461.67 L1145.59 1455.16 Z" fill="#4c4c4c" fill-rule="evenodd" fill-opacity="1" /><path clip-path="url(#clip850)" d="M1158.63 1482.37 Q1157.28 1480.03 1154.27 1480.18 Q1151.3 1480.33 1146.67 1483.01 Q1142.05 1485.67 1140.41 1488.18 Q1138.8 1490.7 1140.15 1493.04 Q1141.51 1495.4 1144.49 1495.25 Q1147.49 1495.1 1152.11 1492.43 Q1156.74 1489.76 1158.35 1487.24 Q1159.99 1484.73 1158.63 1482.37 M1161.04 1480.99 Q1163.21 1484.76 1161.37 1488.47 Q1159.55 1492.19 1153.86 1495.47 Q1148.19 1498.74 1144.05 1498.47 Q1139.93 1498.21 1137.75 1494.43 Q1135.57 1490.66 1137.39 1486.94 Q1139.24 1483.23 1144.9 1479.95 Q1150.59 1476.67 1154.71 1476.94 Q1158.86 1477.21 1161.04 1480.99 Z" fill="#4c4c4c" fill-rule="evenodd" fill-opacity="1" /><path clip-path="url(#clip850)" d="M1284.94 1468.01 Q1283.76 1465.97 1281.66 1465.57 Q1279.58 1465.19 1277.14 1466.6 Q1274.72 1467.99 1274 1470 Q1273.29 1472.01 1274.47 1474.05 Q1275.65 1476.1 1277.74 1476.48 Q1279.85 1476.87 1282.27 1475.47 Q1284.7 1474.06 1285.41 1472.05 Q1286.12 1470.06 1284.94 1468.01 M1297.94 1468.55 L1295.17 1470.14 Q1295.05 1468.69 1294.66 1467.35 Q1294.28 1466.03 1293.62 1464.89 Q1291.88 1461.88 1288.93 1461.46 Q1285.99 1461.05 1281.76 1463.19 Q1283.58 1463.33 1285.04 1464.26 Q1286.52 1465.19 1287.45 1466.8 Q1289.4 1470.19 1288.47 1473.33 Q1287.56 1476.48 1284.03 1478.52 Q1280.57 1480.52 1277.3 1479.68 Q1274.03 1478.84 1272.07 1475.44 Q1269.82 1471.55 1271.61 1467.77 Q1273.41 1463.98 1279.08 1460.71 Q1284.4 1457.64 1289.02 1458.34 Q1293.65 1459.03 1296.1 1463.29 Q1296.76 1464.43 1297.21 1465.72 Q1297.66 1467.02 1297.94 1468.55 Z" fill="#4c4c4c" fill-rule="evenodd" fill-opacity="1" /><path clip-path="url(#clip850)" d="M1304.05 1482.6 Q1302.69 1480.25 1299.69 1480.4 Q1296.71 1480.56 1292.08 1483.23 Q1287.47 1485.9 1285.83 1488.41 Q1284.21 1490.92 1285.57 1493.27 Q1286.93 1495.63 1289.91 1495.47 Q1292.91 1495.32 1297.52 1492.66 Q1302.15 1489.99 1303.77 1487.47 Q1305.41 1484.96 1304.05 1482.6 M1306.45 1481.21 Q1308.63 1484.98 1306.78 1488.7 Q1304.96 1492.42 1299.28 1495.7 Q1293.61 1498.97 1289.46 1498.7 Q1285.34 1498.43 1283.16 1494.66 Q1280.98 1490.88 1282.8 1487.16 Q1284.65 1483.45 1290.32 1480.18 Q1296 1476.9 1300.13 1477.16 Q1304.27 1477.44 1306.45 1481.21 Z" fill="#4c4c4c" fill-rule="evenodd" fill-opacity="1" /><path clip-path="url(#clip850)" d="M1435.61 1454.22 L1443.94 1468.65 L1442.65 1469.4 L1416.79 1473.46 L1414.96 1470.29 L1439.28 1466.47 L1433.05 1455.69 L1435.61 1454.22 Z" fill="#4c4c4c" fill-rule="evenodd" fill-opacity="1" /><path clip-path="url(#clip850)" d="M1449.11 1482.22 Q1447.76 1479.88 1444.76 1480.03 Q1441.78 1480.18 1437.15 1482.86 Q1432.53 1485.52 1430.9 1488.03 Q1429.28 1490.55 1430.63 1492.89 Q1432 1495.25 1434.98 1495.1 Q1437.98 1494.95 1442.59 1492.28 Q1447.22 1489.61 1448.84 1487.09 Q1450.48 1484.58 1449.11 1482.22 M1451.52 1480.84 Q1453.7 1484.61 1451.85 1488.32 Q1450.03 1492.04 1444.35 1495.32 Q1438.68 1498.59 1434.53 1498.32 Q1430.41 1498.06 1428.23 1494.28 Q1426.05 1490.51 1427.87 1486.79 Q1429.72 1483.08 1435.39 1479.8 Q1441.07 1476.52 1445.19 1476.79 Q1449.34 1477.06 1451.52 1480.84 Z" fill="#4c4c4c" fill-rule="evenodd" fill-opacity="1" /><path clip-path="url(#clip850)" d="M1573.55 1468.72 Q1572.3 1466.56 1570.42 1465.98 Q1568.55 1465.41 1566.52 1466.58 Q1564.49 1467.76 1564.05 1469.66 Q1563.61 1471.57 1564.86 1473.74 Q1566.11 1475.9 1567.99 1476.48 Q1569.88 1477.05 1571.9 1475.89 Q1573.93 1474.72 1574.36 1472.8 Q1574.81 1470.9 1573.55 1468.72 M1573.09 1464.94 Q1572.44 1462.7 1573.15 1460.83 Q1573.86 1458.98 1575.79 1457.87 Q1578.48 1456.31 1581.14 1457.32 Q1583.82 1458.34 1585.74 1461.68 Q1587.68 1465.03 1587.22 1467.85 Q1586.76 1470.66 1584.07 1472.21 Q1582.14 1473.32 1580.17 1473 Q1578.21 1472.69 1576.61 1471.03 Q1577.36 1473.52 1576.58 1475.59 Q1575.8 1477.69 1573.65 1478.93 Q1570.39 1480.81 1567.49 1479.82 Q1564.6 1478.84 1562.46 1475.13 Q1560.31 1471.41 1560.9 1468.41 Q1561.5 1465.41 1564.76 1463.53 Q1566.91 1462.29 1569.11 1462.66 Q1571.31 1463.04 1573.09 1464.94 M1577.24 1461.06 Q1575.5 1462.06 1575.15 1463.71 Q1574.8 1465.37 1575.94 1467.34 Q1577.07 1469.29 1578.68 1469.83 Q1580.3 1470.38 1582.04 1469.37 Q1583.79 1468.36 1584.12 1466.69 Q1584.47 1465.02 1583.34 1463.07 Q1582.2 1461.1 1580.59 1460.57 Q1578.99 1460.05 1577.24 1461.06 Z" fill="#4c4c4c" fill-rule="evenodd" fill-opacity="1" /><path clip-path="url(#clip850)" d="M1594.65 1482.66 Q1593.3 1480.31 1590.29 1480.46 Q1587.32 1480.62 1582.69 1483.29 Q1578.07 1485.96 1576.43 1488.47 Q1574.82 1490.98 1576.17 1493.33 Q1577.53 1495.69 1580.51 1495.53 Q1583.51 1495.38 1588.13 1492.72 Q1592.76 1490.05 1594.37 1487.53 Q1596.01 1485.02 1594.65 1482.66 M1597.06 1481.27 Q1599.23 1485.04 1597.39 1488.76 Q1595.57 1492.48 1589.88 1495.76 Q1584.21 1499.03 1580.07 1498.76 Q1575.94 1498.49 1573.77 1494.72 Q1571.59 1490.94 1573.41 1487.23 Q1575.26 1483.51 1580.92 1480.24 Q1586.61 1476.96 1590.73 1477.23 Q1594.88 1477.5 1597.06 1481.27 Z" fill="#4c4c4c" fill-rule="evenodd" fill-opacity="1" /><path clip-path="url(#clip850)" d="M1705.03 1468.35 L1707.8 1466.75 Q1707.92 1468.21 1708.31 1469.55 Q1708.7 1470.88 1709.35 1472.01 Q1711.09 1475.02 1714.01 1475.43 Q1716.96 1475.86 1721.21 1473.7 Q1719.42 1473.58 1717.95 1472.64 Q1716.49 1471.7 1715.55 1470.08 Q1713.6 1466.71 1714.5 1463.57 Q1715.41 1460.43 1718.95 1458.39 Q1722.41 1456.4 1725.68 1457.23 Q1728.95 1458.07 1730.91 1461.47 Q1733.16 1465.36 1731.34 1469.14 Q1729.56 1472.91 1723.87 1476.2 Q1718.57 1479.26 1713.94 1478.57 Q1709.33 1477.88 1706.87 1473.62 Q1706.21 1472.48 1705.76 1471.18 Q1705.31 1469.87 1705.03 1468.35 M1718.04 1468.9 Q1719.22 1470.95 1721.3 1471.33 Q1723.4 1471.72 1725.83 1470.32 Q1728.25 1468.92 1728.96 1466.91 Q1729.68 1464.9 1728.5 1462.86 Q1727.32 1460.81 1725.21 1460.43 Q1723.13 1460.05 1720.71 1461.44 Q1718.27 1462.85 1717.56 1464.85 Q1716.86 1466.86 1718.04 1468.9 Z" fill="#4c4c4c" fill-rule="evenodd" fill-opacity="1" /><path clip-path="url(#clip850)" d="M1740.02 1482.81 Q1738.67 1480.46 1735.67 1480.61 Q1732.69 1480.77 1728.06 1483.44 Q1723.44 1486.11 1721.8 1488.62 Q1720.19 1491.13 1721.54 1493.48 Q1722.91 1495.84 1725.88 1495.68 Q1728.88 1495.53 1733.5 1492.87 Q1738.13 1490.2 1739.75 1487.68 Q1741.38 1485.17 1740.02 1482.81 M1742.43 1481.42 Q1744.61 1485.2 1742.76 1488.91 Q1740.94 1492.63 1735.25 1495.91 Q1729.59 1499.18 1725.44 1498.91 Q1721.32 1498.64 1719.14 1494.87 Q1716.96 1491.09 1718.78 1487.38 Q1720.63 1483.66 1726.3 1480.39 Q1731.98 1477.11 1736.1 1477.38 Q1740.25 1477.65 1742.43 1481.42 Z" fill="#4c4c4c" fill-rule="evenodd" fill-opacity="1" /><path clip-path="url(#clip850)" d="M1851.82 1466.14 L1854.69 1471.1 L1871.81 1461.21 L1867.61 1456.44 L1870.38 1454.84 L1874.56 1459.58 L1876.32 1462.62 L1856.42 1474.11 L1859.29 1479.07 L1856.73 1480.54 L1849.27 1467.61 L1851.82 1466.14 Z" fill="#4c4c4c" fill-rule="evenodd" fill-opacity="1" /><path clip-path="url(#clip850)" d="M1884.47 1481.37 Q1883.12 1479.02 1880.12 1479.17 Q1877.14 1479.33 1872.51 1482 Q1867.89 1484.66 1866.26 1487.17 Q1864.64 1489.69 1865.99 1492.04 Q1867.36 1494.4 1870.33 1494.24 Q1873.34 1494.09 1877.95 1491.43 Q1882.58 1488.75 1884.2 1486.24 Q1885.84 1483.73 1884.47 1481.37 M1886.88 1479.98 Q1889.06 1483.75 1887.21 1487.46 Q1885.39 1491.18 1879.71 1494.46 Q1874.04 1497.74 1869.89 1497.46 Q1865.77 1497.2 1863.59 1493.42 Q1861.41 1489.65 1863.23 1485.93 Q1865.08 1482.22 1870.75 1478.95 Q1876.43 1475.67 1880.55 1475.93 Q1884.7 1476.2 1886.88 1479.98 Z" fill="#4c4c4c" fill-rule="evenodd" fill-opacity="1" /><path clip-path="url(#clip850)" d="M1895.78 1500.96 Q1894.43 1498.61 1891.43 1498.76 Q1888.45 1498.92 1883.82 1501.59 Q1879.2 1504.26 1877.57 1506.76 Q1875.95 1509.28 1877.31 1511.63 Q1878.67 1513.99 1881.65 1513.83 Q1884.65 1513.68 1889.26 1511.02 Q1893.89 1508.34 1895.51 1505.83 Q1897.15 1503.32 1895.78 1500.96 M1898.19 1499.57 Q1900.37 1503.34 1898.52 1507.05 Q1896.7 1510.77 1891.02 1514.05 Q1885.35 1517.33 1881.2 1517.05 Q1877.08 1516.79 1874.9 1513.01 Q1872.72 1509.24 1874.54 1505.52 Q1876.39 1501.81 1882.06 1498.54 Q1887.74 1495.26 1891.86 1495.52 Q1896.01 1495.8 1898.19 1499.57 Z" fill="#4c4c4c" fill-rule="evenodd" fill-opacity="1" /><path clip-path="url(#clip850)" d="M1997.11 1466.14 L1999.97 1471.1 L2017.1 1461.21 L2012.9 1456.44 L2015.67 1454.84 L2019.85 1459.58 L2021.6 1462.62 L2001.71 1474.11 L2004.57 1479.07 L2002.02 1480.54 L1994.55 1467.61 L1997.11 1466.14 Z" fill="#4c4c4c" fill-rule="evenodd" fill-opacity="1" /><path clip-path="url(#clip850)" d="M2008.42 1485.73 L2011.28 1490.69 L2028.41 1480.8 L2024.21 1476.03 L2026.98 1474.43 L2031.16 1479.18 L2032.91 1482.21 L2013.02 1493.7 L2015.88 1498.66 L2013.33 1500.13 L2005.86 1487.2 L2008.42 1485.73 Z" fill="#4c4c4c" fill-rule="evenodd" fill-opacity="1" /><path clip-path="url(#clip850)" d="M2041.07 1500.96 Q2039.71 1498.61 2036.71 1498.76 Q2033.74 1498.92 2029.1 1501.59 Q2024.49 1504.26 2022.85 1506.76 Q2021.24 1509.28 2022.59 1511.63 Q2023.95 1513.99 2026.93 1513.83 Q2029.93 1513.68 2034.55 1511.02 Q2039.18 1508.34 2040.79 1505.83 Q2042.43 1503.32 2041.07 1500.96 M2043.47 1499.57 Q2045.65 1503.34 2043.81 1507.05 Q2041.98 1510.77 2036.3 1514.05 Q2030.63 1517.33 2026.49 1517.05 Q2022.36 1516.79 2020.18 1513.01 Q2018.01 1509.24 2019.83 1505.52 Q2021.67 1501.81 2027.34 1498.54 Q2033.03 1495.26 2037.15 1495.52 Q2041.3 1495.8 2043.47 1499.57 Z" fill="#4c4c4c" fill-rule="evenodd" fill-opacity="1" /><path clip-path="url(#clip850)" d="M2142.39 1466.14 L2145.26 1471.1 L2162.38 1461.21 L2158.18 1456.44 L2160.95 1454.84 L2165.13 1459.58 L2166.89 1462.62 L2146.99 1474.11 L2149.86 1479.07 L2147.3 1480.54 L2139.84 1467.61 L2142.39 1466.14 Z" fill="#4c4c4c" fill-rule="evenodd" fill-opacity="1" /><path clip-path="url(#clip850)" d="M2154.91 1487.82 L2161.03 1498.42 L2158.48 1499.89 L2150.25 1485.64 L2152.8 1484.16 Q2155.59 1484.86 2160.32 1486.1 Q2165.06 1487.35 2166.38 1487.61 Q2168.86 1488.12 2170.32 1488.04 Q2171.8 1487.97 2172.9 1487.34 Q2174.69 1486.3 2175.08 1484.39 Q2175.49 1482.49 2174.33 1480.48 Q2173.5 1479.05 2172.09 1477.74 Q2170.68 1476.45 2168.63 1475.23 L2171.7 1473.46 Q2173.49 1474.86 2174.79 1476.24 Q2176.09 1477.62 2176.85 1478.94 Q2178.86 1482.43 2178.32 1485.51 Q2177.77 1488.59 2174.85 1490.28 Q2173.47 1491.08 2171.92 1491.27 Q2170.39 1491.47 2167.92 1491.07 Q2167.26 1490.95 2164.01 1490.14 Q2160.77 1489.32 2154.91 1487.82 Z" fill="#4c4c4c" fill-rule="evenodd" fill-opacity="1" /><path clip-path="url(#clip850)" d="M2186.35 1500.96 Q2185 1498.61 2182 1498.76 Q2179.02 1498.92 2174.39 1501.59 Q2169.77 1504.26 2168.14 1506.76 Q2166.52 1509.28 2167.88 1511.63 Q2169.24 1513.99 2172.22 1513.83 Q2175.22 1513.68 2179.83 1511.02 Q2184.46 1508.34 2186.08 1505.83 Q2187.72 1503.32 2186.35 1500.96 M2188.76 1499.57 Q2190.94 1503.34 2189.09 1507.05 Q2187.27 1510.77 2181.59 1514.05 Q2175.92 1517.33 2171.77 1517.05 Q2167.65 1516.79 2165.47 1513.01 Q2163.29 1509.24 2165.11 1505.52 Q2166.96 1501.81 2172.63 1498.54 Q2178.31 1495.26 2182.43 1495.52 Q2186.58 1495.8 2188.76 1499.57 Z" fill="#4c4c4c" fill-rule="evenodd" fill-opacity="1" /><path clip-path="url(#clip850)" d="M2287.68 1466.14 L2290.54 1471.1 L2307.67 1461.21 L2303.47 1456.44 L2306.24 1454.84 L2310.42 1459.58 L2312.17 1462.62 L2292.28 1474.11 L2295.14 1479.07 L2292.59 1480.54 L2285.12 1467.61 L2287.68 1466.14 Z" fill="#4c4c4c" fill-rule="evenodd" fill-opacity="1" /><path clip-path="url(#clip850)" d="M2313.55 1488.89 Q2314.34 1491.34 2313.57 1493.41 Q2312.81 1495.49 2310.64 1496.74 Q2307.32 1498.66 2304.18 1497.43 Q2301.04 1496.19 2298.61 1491.98 Q2297.79 1490.57 2297.21 1488.9 Q2296.62 1487.25 2296.26 1485.34 L2299.19 1483.65 Q2299.18 1485.34 2299.68 1487.06 Q2300.17 1488.78 2301.11 1490.41 Q2302.76 1493.27 2304.75 1494.11 Q2306.75 1494.96 2308.9 1493.72 Q2310.88 1492.57 2311.19 1490.53 Q2311.52 1488.5 2310.08 1486.02 L2308.57 1483.4 L2311.07 1481.96 L2312.65 1484.7 Q2313.94 1486.94 2315.51 1487.61 Q2317.1 1488.28 2318.79 1487.31 Q2320.52 1486.31 2320.72 1484.55 Q2320.95 1482.79 2319.63 1480.51 Q2318.91 1479.26 2317.81 1477.99 Q2316.72 1476.71 2315.16 1475.33 L2317.86 1473.77 Q2319.34 1475.22 2320.45 1476.58 Q2321.57 1477.96 2322.34 1479.3 Q2324.34 1482.76 2323.92 1485.69 Q2323.52 1488.6 2320.85 1490.15 Q2318.98 1491.22 2317.07 1490.9 Q2315.18 1490.57 2313.55 1488.89 Z" fill="#4c4c4c" fill-rule="evenodd" fill-opacity="1" /><path clip-path="url(#clip850)" d="M2331.64 1500.96 Q2330.28 1498.61 2327.28 1498.76 Q2324.31 1498.92 2319.67 1501.59 Q2315.06 1504.26 2313.42 1506.76 Q2311.81 1509.28 2313.16 1511.63 Q2314.52 1513.99 2317.5 1513.83 Q2320.5 1513.68 2325.12 1511.02 Q2329.75 1508.34 2331.36 1505.83 Q2333 1503.32 2331.64 1500.96 M2334.04 1499.57 Q2336.22 1503.34 2334.38 1507.05 Q2332.55 1510.77 2326.87 1514.05 Q2321.2 1517.33 2317.06 1517.05 Q2312.93 1516.79 2310.75 1513.01 Q2308.58 1509.24 2310.4 1505.52 Q2312.24 1501.81 2317.91 1498.54 Q2323.6 1495.26 2327.72 1495.52 Q2331.86 1495.8 2334.04 1499.57 Z" fill="#4c4c4c" fill-rule="evenodd" fill-opacity="1" /><path clip-path="url(#clip850)" d="M1242.33 1537.87 L1247.01 1537.87 L1247.01 1572.43 L1242.33 1572.43 L1242.33 1537.87 Z" fill="#000000" fill-rule="evenodd" fill-opacity="1" /><path clip-path="url(#clip850)" d="M1260.34 1539.15 L1260.34 1546.51 L1269.12 1546.51 L1269.12 1549.82 L1260.34 1549.82 L1260.34 1563.89 Q1260.34 1567.06 1261.2 1567.97 Q1262.08 1568.87 1264.74 1568.87 L1269.12 1568.87 L1269.12 1572.43 L1264.74 1572.43 Q1259.81 1572.43 1257.94 1570.6 Q1256.06 1568.75 1256.06 1563.89 L1256.06 1549.82 L1252.94 1549.82 L1252.94 1546.51 L1256.06 1546.51 L1256.06 1539.15 L1260.34 1539.15 Z" fill="#000000" fill-rule="evenodd" fill-opacity="1" /><path clip-path="url(#clip850)" d="M1296.89 1558.41 L1296.89 1560.49 L1277.31 1560.49 Q1277.59 1564.89 1279.95 1567.2 Q1282.33 1569.49 1286.57 1569.49 Q1289.02 1569.49 1291.32 1568.89 Q1293.63 1568.29 1295.9 1567.09 L1295.9 1571.11 Q1293.61 1572.09 1291.2 1572.6 Q1288.79 1573.1 1286.32 1573.1 Q1280.11 1573.1 1276.48 1569.49 Q1272.87 1565.88 1272.87 1559.73 Q1272.87 1553.36 1276.29 1549.63 Q1279.74 1545.88 1285.57 1545.88 Q1290.81 1545.88 1293.84 1549.26 Q1296.89 1552.62 1296.89 1558.41 M1292.63 1557.16 Q1292.59 1553.66 1290.67 1551.58 Q1288.77 1549.49 1285.62 1549.49 Q1282.06 1549.49 1279.9 1551.51 Q1277.77 1553.52 1277.45 1557.18 L1292.63 1557.16 Z" fill="#000000" fill-rule="evenodd" fill-opacity="1" /><path clip-path="url(#clip850)" d="M1318.91 1550.49 Q1318.19 1550.07 1317.33 1549.89 Q1316.5 1549.68 1315.48 1549.68 Q1311.87 1549.68 1309.93 1552.04 Q1308 1554.38 1308 1558.78 L1308 1572.43 L1303.72 1572.43 L1303.72 1546.51 L1308 1546.51 L1308 1550.54 Q1309.35 1548.17 1311.5 1547.04 Q1313.65 1545.88 1316.73 1545.88 Q1317.17 1545.88 1317.7 1545.95 Q1318.24 1546 1318.88 1546.11 L1318.91 1550.49 Z" fill="#000000" fill-rule="evenodd" fill-opacity="1" /><path clip-path="url(#clip850)" d="M1335.16 1559.4 Q1330 1559.4 1328 1560.58 Q1326.01 1561.76 1326.01 1564.61 Q1326.01 1566.88 1327.5 1568.22 Q1329 1569.54 1331.57 1569.54 Q1335.11 1569.54 1337.24 1567.04 Q1339.39 1564.52 1339.39 1560.35 L1339.39 1559.4 L1335.16 1559.4 M1343.65 1557.64 L1343.65 1572.43 L1339.39 1572.43 L1339.39 1568.5 Q1337.94 1570.86 1335.76 1571.99 Q1333.58 1573.1 1330.44 1573.1 Q1326.45 1573.1 1324.09 1570.88 Q1321.75 1568.64 1321.75 1564.89 Q1321.75 1560.51 1324.67 1558.29 Q1327.61 1556.07 1333.42 1556.07 L1339.39 1556.07 L1339.39 1555.65 Q1339.39 1552.71 1337.45 1551.11 Q1335.53 1549.49 1332.03 1549.49 Q1329.81 1549.49 1327.7 1550.03 Q1325.6 1550.56 1323.65 1551.62 L1323.65 1547.69 Q1325.99 1546.79 1328.19 1546.35 Q1330.39 1545.88 1332.47 1545.88 Q1338.1 1545.88 1340.88 1548.8 Q1343.65 1551.72 1343.65 1557.64 Z" fill="#000000" fill-rule="evenodd" fill-opacity="1" /><path clip-path="url(#clip850)" d="M1356.64 1539.15 L1356.64 1546.51 L1365.41 1546.51 L1365.41 1549.82 L1356.64 1549.82 L1356.64 1563.89 Q1356.64 1567.06 1357.5 1567.97 Q1358.37 1568.87 1361.04 1568.87 L1365.41 1568.87 L1365.41 1572.43 L1361.04 1572.43 Q1356.11 1572.43 1354.23 1570.6 Q1352.36 1568.75 1352.36 1563.89 L1352.36 1549.82 L1349.23 1549.82 L1349.23 1546.51 L1352.36 1546.51 L1352.36 1539.15 L1356.64 1539.15 Z" fill="#000000" fill-rule="evenodd" fill-opacity="1" /><path clip-path="url(#clip850)" d="M1371.01 1546.51 L1375.27 1546.51 L1375.27 1572.43 L1371.01 1572.43 L1371.01 1546.51 M1371.01 1536.42 L1375.27 1536.42 L1375.27 1541.81 L1371.01 1541.81 L1371.01 1536.42 Z" fill="#000000" fill-rule="evenodd" fill-opacity="1" /><path clip-path="url(#clip850)" d="M1394.23 1549.49 Q1390.81 1549.49 1388.81 1552.18 Q1386.82 1554.84 1386.82 1559.49 Q1386.82 1564.15 1388.79 1566.83 Q1390.78 1569.49 1394.23 1569.49 Q1397.63 1569.49 1399.62 1566.81 Q1401.62 1564.12 1401.62 1559.49 Q1401.62 1554.89 1399.62 1552.2 Q1397.63 1549.49 1394.23 1549.49 M1394.23 1545.88 Q1399.79 1545.88 1402.96 1549.49 Q1406.13 1553.1 1406.13 1559.49 Q1406.13 1565.86 1402.96 1569.49 Q1399.79 1573.1 1394.23 1573.1 Q1388.65 1573.1 1385.48 1569.49 Q1382.33 1565.86 1382.33 1559.49 Q1382.33 1553.1 1385.48 1549.49 Q1388.65 1545.88 1394.23 1545.88 Z" fill="#000000" fill-rule="evenodd" fill-opacity="1" /><path clip-path="url(#clip850)" d="M1434.74 1556.79 L1434.74 1572.43 L1430.48 1572.43 L1430.48 1556.92 Q1430.48 1553.24 1429.05 1551.41 Q1427.61 1549.59 1424.74 1549.59 Q1421.29 1549.59 1419.3 1551.79 Q1417.31 1553.98 1417.31 1557.78 L1417.31 1572.43 L1413.03 1572.43 L1413.03 1546.51 L1417.31 1546.51 L1417.31 1550.54 Q1418.84 1548.2 1420.9 1547.04 Q1422.98 1545.88 1425.69 1545.88 Q1430.16 1545.88 1432.45 1548.66 Q1434.74 1551.41 1434.74 1556.79 Z" fill="#000000" fill-rule="evenodd" fill-opacity="1" /><path clip-path="url(#clip850)" d="M1459.76 1547.27 L1459.76 1551.3 Q1457.96 1550.37 1456.01 1549.91 Q1454.07 1549.45 1451.99 1549.45 Q1448.81 1549.45 1447.22 1550.42 Q1445.64 1551.39 1445.64 1553.34 Q1445.64 1554.82 1446.78 1555.67 Q1447.91 1556.51 1451.34 1557.27 L1452.8 1557.6 Q1457.33 1558.57 1459.23 1560.35 Q1461.15 1562.11 1461.15 1565.28 Q1461.15 1568.89 1458.28 1571 Q1455.43 1573.1 1450.43 1573.1 Q1448.35 1573.1 1446.08 1572.69 Q1443.84 1572.29 1441.34 1571.48 L1441.34 1567.09 Q1443.7 1568.31 1445.99 1568.94 Q1448.28 1569.54 1450.53 1569.54 Q1453.54 1569.54 1455.16 1568.52 Q1456.78 1567.48 1456.78 1565.6 Q1456.78 1563.87 1455.6 1562.94 Q1454.44 1562.02 1450.48 1561.16 L1449 1560.81 Q1445.04 1559.98 1443.28 1558.27 Q1441.52 1556.53 1441.52 1553.52 Q1441.52 1549.86 1444.12 1547.87 Q1446.71 1545.88 1451.48 1545.88 Q1453.84 1545.88 1455.92 1546.23 Q1458 1546.58 1459.76 1547.27 Z" fill="#000000" fill-rule="evenodd" fill-opacity="1" /><polyline clip-path="url(#clip852)" style="stroke:#ffffff; stroke-linecap:butt; stroke-linejoin:round; stroke-width:4; stroke-opacity:1; fill:none" points="
  350.73,1138.07 2352.76,1138.07 
  "/>
<polyline clip-path="url(#clip852)" style="stroke:#ffffff; stroke-linecap:butt; stroke-linejoin:round; stroke-width:4; stroke-opacity:1; fill:none" points="
  350.73,849.773 2352.76,849.773 
  "/>
<polyline clip-path="url(#clip852)" style="stroke:#ffffff; stroke-linecap:butt; stroke-linejoin:round; stroke-width:4; stroke-opacity:1; fill:none" points="
  350.73,561.473 2352.76,561.473 
  "/>
<polyline clip-path="url(#clip852)" style="stroke:#ffffff; stroke-linecap:butt; stroke-linejoin:round; stroke-width:4; stroke-opacity:1; fill:none" points="
  350.73,273.172 2352.76,273.172 
  "/>
<polyline clip-path="url(#clip852)" style="stroke:#ffffff; stroke-linecap:butt; stroke-linejoin:round; stroke-width:2; stroke-opacity:1; fill:none" points="
  350.73,1282.22 2352.76,1282.22 
  "/>
<polyline clip-path="url(#clip852)" style="stroke:#ffffff; stroke-linecap:butt; stroke-linejoin:round; stroke-width:2; stroke-opacity:1; fill:none" points="
  350.73,993.923 2352.76,993.923 
  "/>
<polyline clip-path="url(#clip852)" style="stroke:#ffffff; stroke-linecap:butt; stroke-linejoin:round; stroke-width:2; stroke-opacity:1; fill:none" points="
  350.73,705.623 2352.76,705.623 
  "/>
<polyline clip-path="url(#clip852)" style="stroke:#ffffff; stroke-linecap:butt; stroke-linejoin:round; stroke-width:2; stroke-opacity:1; fill:none" points="
  350.73,417.322 2352.76,417.322 
  "/>
<polyline clip-path="url(#clip852)" style="stroke:#ffffff; stroke-linecap:butt; stroke-linejoin:round; stroke-width:2; stroke-opacity:1; fill:none" points="
  350.73,129.022 2352.76,129.022 
  "/>
<polyline clip-path="url(#clip850)" style="stroke:#ffffff; stroke-linecap:butt; stroke-linejoin:round; stroke-width:4; stroke-opacity:1; fill:none" points="
  350.73,1422.18 350.73,106.192 
  "/>
<polyline clip-path="url(#clip850)" style="stroke:#333333; stroke-linecap:butt; stroke-linejoin:round; stroke-width:4; stroke-opacity:1; fill:none" points="
  350.73,1138.07 331.833,1138.07 
  "/>
<polyline clip-path="url(#clip850)" style="stroke:#333333; stroke-linecap:butt; stroke-linejoin:round; stroke-width:4; stroke-opacity:1; fill:none" points="
  350.73,849.773 331.833,849.773 
  "/>
<polyline clip-path="url(#clip850)" style="stroke:#333333; stroke-linecap:butt; stroke-linejoin:round; stroke-width:4; stroke-opacity:1; fill:none" points="
  350.73,561.473 331.833,561.473 
  "/>
<polyline clip-path="url(#clip850)" style="stroke:#333333; stroke-linecap:butt; stroke-linejoin:round; stroke-width:4; stroke-opacity:1; fill:none" points="
  350.73,273.172 331.833,273.172 
  "/>
<polyline clip-path="url(#clip850)" style="stroke:#333333; stroke-linecap:butt; stroke-linejoin:round; stroke-width:4; stroke-opacity:1; fill:none" points="
  350.73,1282.22 341.281,1282.22 
  "/>
<polyline clip-path="url(#clip850)" style="stroke:#333333; stroke-linecap:butt; stroke-linejoin:round; stroke-width:4; stroke-opacity:1; fill:none" points="
  350.73,993.923 341.281,993.923 
  "/>
<polyline clip-path="url(#clip850)" style="stroke:#333333; stroke-linecap:butt; stroke-linejoin:round; stroke-width:4; stroke-opacity:1; fill:none" points="
  350.73,705.623 341.281,705.623 
  "/>
<polyline clip-path="url(#clip850)" style="stroke:#333333; stroke-linecap:butt; stroke-linejoin:round; stroke-width:4; stroke-opacity:1; fill:none" points="
  350.73,417.322 341.281,417.322 
  "/>
<polyline clip-path="url(#clip850)" style="stroke:#333333; stroke-linecap:butt; stroke-linejoin:round; stroke-width:4; stroke-opacity:1; fill:none" points="
  350.73,129.022 341.281,129.022 
  "/>
<path clip-path="url(#clip850)" d="M193.536 1138.41 L215.793 1138.41 L215.793 1141.36 L193.536 1141.36 L193.536 1138.41 Z" fill="#4c4c4c" fill-rule="evenodd" fill-opacity="1" /><path clip-path="url(#clip850)" d="M223.97 1148.08 L229.699 1148.08 L229.699 1128.31 L223.467 1129.56 L223.467 1126.36 L229.665 1125.11 L233.172 1125.11 L233.172 1148.08 L238.901 1148.08 L238.901 1151.03 L223.97 1151.03 L223.97 1148.08 Z" fill="#4c4c4c" fill-rule="evenodd" fill-opacity="1" /><path clip-path="url(#clip850)" d="M253.484 1127.42 Q250.776 1127.42 249.404 1130.1 Q248.05 1132.75 248.05 1138.1 Q248.05 1143.43 249.404 1146.1 Q250.776 1148.76 253.484 1148.76 Q256.21 1148.76 257.564 1146.1 Q258.935 1143.43 258.935 1138.1 Q258.935 1132.75 257.564 1130.1 Q256.21 1127.42 253.484 1127.42 M253.484 1124.64 Q257.842 1124.64 260.133 1128.1 Q262.442 1131.54 262.442 1138.1 Q262.442 1144.64 260.133 1148.1 Q257.842 1151.54 253.484 1151.54 Q249.126 1151.54 246.817 1148.1 Q244.526 1144.64 244.526 1138.1 Q244.526 1131.54 246.817 1128.1 Q249.126 1124.64 253.484 1124.64 Z" fill="#4c4c4c" fill-rule="evenodd" fill-opacity="1" /><path clip-path="url(#clip850)" d="M268.605 1146.62 L272.269 1146.62 L272.269 1151.03 L268.605 1151.03 L268.605 1146.62 Z" fill="#4c4c4c" fill-rule="evenodd" fill-opacity="1" /><path clip-path="url(#clip850)" d="M289.543 1128.17 L280.689 1142.01 L289.543 1142.01 L289.543 1128.17 M288.623 1125.11 L293.032 1125.11 L293.032 1142.01 L296.73 1142.01 L296.73 1144.92 L293.032 1144.92 L293.032 1151.03 L289.543 1151.03 L289.543 1144.92 L277.841 1144.92 L277.841 1141.54 L288.623 1125.11 Z" fill="#4c4c4c" fill-rule="evenodd" fill-opacity="1" /><path clip-path="url(#clip850)" d="M195.099 850.112 L217.356 850.112 L217.356 853.063 L195.099 853.063 L195.099 850.112 Z" fill="#4c4c4c" fill-rule="evenodd" fill-opacity="1" /><path clip-path="url(#clip850)" d="M225.533 859.782 L231.262 859.782 L231.262 840.007 L225.029 841.257 L225.029 838.063 L231.227 836.813 L234.734 836.813 L234.734 859.782 L240.463 859.782 L240.463 862.733 L225.533 862.733 L225.533 859.782 Z" fill="#4c4c4c" fill-rule="evenodd" fill-opacity="1" /><path clip-path="url(#clip850)" d="M255.046 839.122 Q252.338 839.122 250.967 841.796 Q249.612 844.452 249.612 849.799 Q249.612 855.129 250.967 857.802 Q252.338 860.459 255.046 860.459 Q257.772 860.459 259.126 857.802 Q260.498 855.129 260.498 849.799 Q260.498 844.452 259.126 841.796 Q257.772 839.122 255.046 839.122 M255.046 836.344 Q259.404 836.344 261.696 839.799 Q264.005 843.237 264.005 849.799 Q264.005 856.344 261.696 859.799 Q259.404 863.236 255.046 863.236 Q250.689 863.236 248.38 859.799 Q246.088 856.344 246.088 849.799 Q246.088 843.237 248.38 839.799 Q250.689 836.344 255.046 836.344 Z" fill="#4c4c4c" fill-rule="evenodd" fill-opacity="1" /><path clip-path="url(#clip850)" d="M270.168 858.323 L273.831 858.323 L273.831 862.733 L270.168 862.733 L270.168 858.323 Z" fill="#4c4c4c" fill-rule="evenodd" fill-opacity="1" /><path clip-path="url(#clip850)" d="M284.491 859.782 L296.73 859.782 L296.73 862.733 L280.272 862.733 L280.272 859.782 Q282.269 857.716 285.706 854.243 Q289.161 850.754 290.046 849.747 Q291.73 847.855 292.39 846.553 Q293.067 845.233 293.067 843.966 Q293.067 841.9 291.609 840.598 Q290.168 839.296 287.841 839.296 Q286.192 839.296 284.352 839.869 Q282.529 840.441 280.446 841.605 L280.446 838.063 Q282.564 837.212 284.404 836.778 Q286.244 836.344 287.772 836.344 Q291.8 836.344 294.196 838.358 Q296.591 840.372 296.591 843.74 Q296.591 845.337 295.984 846.778 Q295.393 848.202 293.814 850.146 Q293.38 850.65 291.053 853.063 Q288.727 855.459 284.491 859.782 Z" fill="#4c4c4c" fill-rule="evenodd" fill-opacity="1" /><path clip-path="url(#clip850)" d="M193.901 561.811 L216.158 561.811 L216.158 564.763 L193.901 564.763 L193.901 561.811 Z" fill="#4c4c4c" fill-rule="evenodd" fill-opacity="1" /><path clip-path="url(#clip850)" d="M224.335 571.481 L230.064 571.481 L230.064 551.707 L223.831 552.957 L223.831 549.763 L230.029 548.513 L233.536 548.513 L233.536 571.481 L239.265 571.481 L239.265 574.433 L224.335 574.433 L224.335 571.481 Z" fill="#4c4c4c" fill-rule="evenodd" fill-opacity="1" /><path clip-path="url(#clip850)" d="M253.849 550.822 Q251.14 550.822 249.769 553.495 Q248.415 556.151 248.415 561.499 Q248.415 566.828 249.769 569.502 Q251.14 572.158 253.849 572.158 Q256.574 572.158 257.928 569.502 Q259.3 566.828 259.3 561.499 Q259.3 556.151 257.928 553.495 Q256.574 550.822 253.849 550.822 M253.849 548.044 Q258.206 548.044 260.498 551.499 Q262.807 554.936 262.807 561.499 Q262.807 568.044 260.498 571.499 Q258.206 574.936 253.849 574.936 Q249.491 574.936 247.182 571.499 Q244.89 568.044 244.89 561.499 Q244.89 554.936 247.182 551.499 Q249.491 548.044 253.849 548.044 Z" fill="#4c4c4c" fill-rule="evenodd" fill-opacity="1" /><path clip-path="url(#clip850)" d="M268.97 570.023 L272.633 570.023 L272.633 574.433 L268.97 574.433 L268.97 570.023 Z" fill="#4c4c4c" fill-rule="evenodd" fill-opacity="1" /><path clip-path="url(#clip850)" d="M287.772 550.822 Q285.064 550.822 283.692 553.495 Q282.338 556.151 282.338 561.499 Q282.338 566.828 283.692 569.502 Q285.064 572.158 287.772 572.158 Q290.498 572.158 291.852 569.502 Q293.223 566.828 293.223 561.499 Q293.223 556.151 291.852 553.495 Q290.498 550.822 287.772 550.822 M287.772 548.044 Q292.13 548.044 294.421 551.499 Q296.73 554.936 296.73 561.499 Q296.73 568.044 294.421 571.499 Q292.13 574.936 287.772 574.936 Q283.414 574.936 281.105 571.499 Q278.814 568.044 278.814 561.499 Q278.814 554.936 281.105 551.499 Q283.414 548.044 287.772 548.044 Z" fill="#4c4c4c" fill-rule="evenodd" fill-opacity="1" /><path clip-path="url(#clip850)" d="M216.592 273.511 L238.849 273.511 L238.849 276.462 L216.592 276.462 L216.592 273.511 Z" fill="#4c4c4c" fill-rule="evenodd" fill-opacity="1" /><path clip-path="url(#clip850)" d="M246.522 285.594 L246.522 282.4 Q247.842 283.025 249.196 283.354 Q250.55 283.684 251.852 283.684 Q255.324 283.684 257.147 281.358 Q258.987 279.014 259.248 274.257 Q258.241 275.75 256.696 276.549 Q255.151 277.347 253.276 277.347 Q249.387 277.347 247.112 275.004 Q244.856 272.643 244.856 268.563 Q244.856 264.57 247.217 262.157 Q249.578 259.743 253.501 259.743 Q257.998 259.743 260.359 263.198 Q262.737 266.636 262.737 273.198 Q262.737 279.327 259.821 282.99 Q256.921 286.636 252.008 286.636 Q250.689 286.636 249.335 286.375 Q247.981 286.115 246.522 285.594 M253.501 274.604 Q255.862 274.604 257.234 272.99 Q258.623 271.375 258.623 268.563 Q258.623 265.768 257.234 264.153 Q255.862 262.521 253.501 262.521 Q251.14 262.521 249.751 264.153 Q248.38 265.768 248.38 268.563 Q248.38 271.375 249.751 272.99 Q251.14 274.604 253.501 274.604 Z" fill="#4c4c4c" fill-rule="evenodd" fill-opacity="1" /><path clip-path="url(#clip850)" d="M269.039 281.722 L272.703 281.722 L272.703 286.132 L269.039 286.132 L269.039 281.722 Z" fill="#4c4c4c" fill-rule="evenodd" fill-opacity="1" /><path clip-path="url(#clip850)" d="M287.841 273.823 Q285.341 273.823 283.9 275.16 Q282.477 276.497 282.477 278.841 Q282.477 281.184 283.9 282.521 Q285.341 283.858 287.841 283.858 Q290.341 283.858 291.782 282.521 Q293.223 281.167 293.223 278.841 Q293.223 276.497 291.782 275.16 Q290.359 273.823 287.841 273.823 M284.335 272.33 Q282.078 271.775 280.81 270.229 Q279.56 268.684 279.56 266.462 Q279.56 263.355 281.765 261.549 Q283.987 259.743 287.841 259.743 Q291.713 259.743 293.918 261.549 Q296.123 263.355 296.123 266.462 Q296.123 268.684 294.855 270.229 Q293.605 271.775 291.366 272.33 Q293.9 272.92 295.307 274.639 Q296.73 276.358 296.73 278.841 Q296.73 282.608 294.421 284.622 Q292.13 286.636 287.841 286.636 Q283.553 286.636 281.244 284.622 Q278.953 282.608 278.953 278.841 Q278.953 276.358 280.376 274.639 Q281.8 272.92 284.335 272.33 M283.05 266.792 Q283.05 268.806 284.3 269.934 Q285.567 271.063 287.841 271.063 Q290.098 271.063 291.366 269.934 Q292.65 268.806 292.65 266.792 Q292.65 264.778 291.366 263.65 Q290.098 262.521 287.841 262.521 Q285.567 262.521 284.3 263.65 Q283.05 264.778 283.05 266.792 Z" fill="#4c4c4c" fill-rule="evenodd" fill-opacity="1" /><path clip-path="url(#clip850)" d="M130.608 973.882 L130.608 944.646 L134.544 944.646 L134.544 956.915 L165.168 956.915 L165.168 961.614 L134.544 961.614 L134.544 973.882 L130.608 973.882 Z" fill="#000000" fill-rule="evenodd" fill-opacity="1" /><path clip-path="url(#clip850)" d="M151.141 926.198 L153.224 926.198 L153.224 945.781 Q157.622 945.503 159.937 943.142 Q162.229 940.758 162.229 936.522 Q162.229 934.068 161.627 931.776 Q161.025 929.461 159.821 927.193 L163.849 927.193 Q164.821 929.485 165.33 931.892 Q165.84 934.299 165.84 936.776 Q165.84 942.98 162.229 946.614 Q158.617 950.225 152.46 950.225 Q146.094 950.225 142.368 946.799 Q138.618 943.35 138.618 937.517 Q138.618 932.285 141.997 929.253 Q145.354 926.198 151.141 926.198 M149.891 930.457 Q146.395 930.503 144.312 932.424 Q142.229 934.322 142.229 937.471 Q142.229 941.035 144.243 943.188 Q146.256 945.318 149.914 945.642 L149.891 930.457 Z" fill="#000000" fill-rule="evenodd" fill-opacity="1" /><path clip-path="url(#clip850)" d="M140.006 902.679 L144.034 902.679 Q143.108 904.485 142.645 906.429 Q142.182 908.374 142.182 910.457 Q142.182 913.628 143.155 915.225 Q144.127 916.799 146.071 916.799 Q147.553 916.799 148.409 915.665 Q149.243 914.531 150.006 911.105 L150.33 909.647 Q151.303 905.11 153.085 903.212 Q154.844 901.29 158.016 901.29 Q161.627 901.29 163.733 904.161 Q165.84 907.008 165.84 912.008 Q165.84 914.091 165.423 916.36 Q165.029 918.605 164.219 921.105 L159.821 921.105 Q161.048 918.744 161.673 916.452 Q162.275 914.161 162.275 911.915 Q162.275 908.906 161.256 907.286 Q160.215 905.665 158.34 905.665 Q156.604 905.665 155.678 906.846 Q154.752 908.003 153.895 911.961 L153.548 913.443 Q152.715 917.401 151.002 919.161 Q149.266 920.92 146.256 920.92 Q142.599 920.92 140.608 918.327 Q138.618 915.735 138.618 910.966 Q138.618 908.605 138.965 906.522 Q139.312 904.438 140.006 902.679 Z" fill="#000000" fill-rule="evenodd" fill-opacity="1" /><path clip-path="url(#clip850)" d="M131.882 890.295 L139.243 890.295 L139.243 881.522 L142.553 881.522 L142.553 890.295 L156.627 890.295 Q159.798 890.295 160.701 889.438 Q161.604 888.559 161.604 885.897 L161.604 881.522 L165.168 881.522 L165.168 885.897 Q165.168 890.827 163.34 892.702 Q161.488 894.577 156.627 894.577 L142.553 894.577 L142.553 897.702 L139.243 897.702 L139.243 894.577 L131.882 894.577 L131.882 890.295 Z" fill="#000000" fill-rule="evenodd" fill-opacity="1" /><path clip-path="url(#clip850)" d="M129.15 860.851 L129.15 856.591 L165.168 856.591 L165.168 860.851 L129.15 860.851 Z" fill="#000000" fill-rule="evenodd" fill-opacity="1" /><path clip-path="url(#clip850)" d="M142.229 837.633 Q142.229 841.059 144.914 843.05 Q147.576 845.041 152.229 845.041 Q156.881 845.041 159.567 843.073 Q162.229 841.082 162.229 837.633 Q162.229 834.23 159.543 832.24 Q156.858 830.249 152.229 830.249 Q147.622 830.249 144.937 832.24 Q142.229 834.23 142.229 837.633 M138.618 837.633 Q138.618 832.078 142.229 828.906 Q145.84 825.735 152.229 825.735 Q158.594 825.735 162.229 828.906 Q165.84 832.078 165.84 837.633 Q165.84 843.212 162.229 846.383 Q158.594 849.531 152.229 849.531 Q145.84 849.531 142.229 846.383 Q138.618 843.212 138.618 837.633 Z" fill="#000000" fill-rule="evenodd" fill-opacity="1" /><path clip-path="url(#clip850)" d="M151.905 801.615 Q147.275 801.615 144.729 803.536 Q142.182 805.434 142.182 808.883 Q142.182 812.309 144.729 814.231 Q147.275 816.129 151.905 816.129 Q156.511 816.129 159.057 814.231 Q161.604 812.309 161.604 808.883 Q161.604 805.434 159.057 803.536 Q156.511 801.615 151.905 801.615 M161.951 797.356 Q168.571 797.356 171.789 800.295 Q175.029 803.235 175.029 809.3 Q175.029 811.545 174.682 813.536 Q174.358 815.527 173.664 817.402 L169.52 817.402 Q170.539 815.527 171.025 813.698 Q171.511 811.869 171.511 809.971 Q171.511 805.781 169.312 803.698 Q167.136 801.615 162.715 801.615 L160.608 801.615 Q162.9 802.934 164.034 804.994 Q165.168 807.055 165.168 809.925 Q165.168 814.693 161.534 817.61 Q157.9 820.527 151.905 820.527 Q145.886 820.527 142.252 817.61 Q138.618 814.693 138.618 809.925 Q138.618 807.055 139.752 804.994 Q140.886 802.934 143.178 801.615 L139.243 801.615 L139.243 797.356 L161.951 797.356 Z" fill="#000000" fill-rule="evenodd" fill-opacity="1" /><path clip-path="url(#clip850)" d="M150.284 790.735 L150.284 778.258 L154.08 778.258 L154.08 790.735 L150.284 790.735 Z" fill="#000000" fill-rule="evenodd" fill-opacity="1" /><path clip-path="url(#clip850)" d="M129.15 771.476 L129.15 767.217 L165.168 767.217 L165.168 771.476 L129.15 771.476 Z" fill="#000000" fill-rule="evenodd" fill-opacity="1" /><path clip-path="url(#clip850)" d="M139.243 758.305 L139.243 754.046 L165.168 754.046 L165.168 758.305 L139.243 758.305 M129.15 758.305 L129.15 754.046 L134.544 754.046 L134.544 758.305 L129.15 758.305 Z" fill="#000000" fill-rule="evenodd" fill-opacity="1" /><path clip-path="url(#clip850)" d="M129.15 745.296 L129.15 741.013 L150.423 741.013 L139.243 728.305 L139.243 722.865 L151.372 736.615 L165.168 722.287 L165.168 727.842 L152.506 741.013 L165.168 741.013 L165.168 745.296 L129.15 745.296 Z" fill="#000000" fill-rule="evenodd" fill-opacity="1" /><path clip-path="url(#clip850)" d="M151.141 697.194 L153.224 697.194 L153.224 716.777 Q157.622 716.5 159.937 714.138 Q162.229 711.754 162.229 707.518 Q162.229 705.064 161.627 702.773 Q161.025 700.458 159.821 698.189 L163.849 698.189 Q164.821 700.481 165.33 702.889 Q165.84 705.296 165.84 707.773 Q165.84 713.976 162.229 717.611 Q158.617 721.222 152.46 721.222 Q146.094 721.222 142.368 717.796 Q138.618 714.347 138.618 708.513 Q138.618 703.282 141.997 700.25 Q145.354 697.194 151.141 697.194 M149.891 701.453 Q146.395 701.5 144.312 703.421 Q142.229 705.319 142.229 708.467 Q142.229 712.032 144.243 714.185 Q146.256 716.314 149.914 716.638 L149.891 701.453 Z" fill="#000000" fill-rule="evenodd" fill-opacity="1" /><path clip-path="url(#clip850)" d="M129.15 690.203 L129.15 685.944 L165.168 685.944 L165.168 690.203 L129.15 690.203 Z" fill="#000000" fill-rule="evenodd" fill-opacity="1" /><path clip-path="url(#clip850)" d="M139.243 677.032 L139.243 672.773 L165.168 672.773 L165.168 677.032 L139.243 677.032 M129.15 677.032 L129.15 672.773 L134.544 672.773 L134.544 677.032 L129.15 677.032 Z" fill="#000000" fill-rule="evenodd" fill-opacity="1" /><path clip-path="url(#clip850)" d="M149.52 642.31 L165.168 642.31 L165.168 646.569 L149.659 646.569 Q145.979 646.569 144.15 648.005 Q142.321 649.44 142.321 652.31 Q142.321 655.759 144.52 657.75 Q146.719 659.741 150.516 659.741 L165.168 659.741 L165.168 664.023 L129.15 664.023 L129.15 659.741 L143.27 659.741 Q140.932 658.213 139.775 656.153 Q138.618 654.069 138.618 651.361 Q138.618 646.893 141.395 644.602 Q144.15 642.31 149.52 642.31 Z" fill="#000000" fill-rule="evenodd" fill-opacity="1" /><path clip-path="url(#clip850)" d="M142.229 623.769 Q142.229 627.194 144.914 629.185 Q147.576 631.176 152.229 631.176 Q156.881 631.176 159.567 629.208 Q162.229 627.218 162.229 623.769 Q162.229 620.366 159.543 618.375 Q156.858 616.384 152.229 616.384 Q147.622 616.384 144.937 618.375 Q142.229 620.366 142.229 623.769 M138.618 623.769 Q138.618 618.213 142.229 615.042 Q145.84 611.87 152.229 611.87 Q158.594 611.87 162.229 615.042 Q165.84 618.213 165.84 623.769 Q165.84 629.347 162.229 632.519 Q158.594 635.667 152.229 635.667 Q145.84 635.667 142.229 632.519 Q138.618 629.347 138.618 623.769 Z" fill="#000000" fill-rule="evenodd" fill-opacity="1" /><path clip-path="url(#clip850)" d="M142.229 594.764 Q142.229 598.19 144.914 600.181 Q147.576 602.171 152.229 602.171 Q156.881 602.171 159.567 600.204 Q162.229 598.213 162.229 594.764 Q162.229 591.361 159.543 589.371 Q156.858 587.38 152.229 587.38 Q147.622 587.38 144.937 589.371 Q142.229 591.361 142.229 594.764 M138.618 594.764 Q138.618 589.209 142.229 586.037 Q145.84 582.866 152.229 582.866 Q158.594 582.866 162.229 586.037 Q165.84 589.209 165.84 594.764 Q165.84 600.343 162.229 603.514 Q158.594 606.662 152.229 606.662 Q145.84 606.662 142.229 603.514 Q138.618 600.343 138.618 594.764 Z" fill="#000000" fill-rule="evenodd" fill-opacity="1" /><path clip-path="url(#clip850)" d="M143.178 558.746 L129.15 558.746 L129.15 554.487 L165.168 554.487 L165.168 558.746 L161.28 558.746 Q163.594 560.088 164.729 562.149 Q165.84 564.186 165.84 567.056 Q165.84 571.755 162.09 574.718 Q158.34 577.658 152.229 577.658 Q146.118 577.658 142.368 574.718 Q138.618 571.755 138.618 567.056 Q138.618 564.186 139.752 562.149 Q140.863 560.088 143.178 558.746 M152.229 573.26 Q156.928 573.26 159.613 571.338 Q162.275 569.394 162.275 566.014 Q162.275 562.635 159.613 560.69 Q156.928 558.746 152.229 558.746 Q147.53 558.746 144.868 560.69 Q142.182 562.635 142.182 566.014 Q142.182 569.394 144.868 571.338 Q147.53 573.26 152.229 573.26 Z" fill="#000000" fill-rule="evenodd" fill-opacity="1" /><path clip-path="url(#clip850)" d="M1275.92 25.6538 Q1277.92 22.0659 1280.69 20.3587 Q1283.47 18.6515 1287.23 18.6515 Q1292.3 18.6515 1295.04 22.2105 Q1297.79 25.7406 1297.79 32.2799 L1297.79 51.84 L1292.44 51.84 L1292.44 32.4535 Q1292.44 27.795 1290.79 25.5381 Q1289.14 23.2811 1285.76 23.2811 Q1281.62 23.2811 1279.22 26.03 Q1276.82 28.7788 1276.82 33.5241 L1276.82 51.84 L1271.46 51.84 L1271.46 32.4535 Q1271.46 27.7661 1269.81 25.5381 Q1268.16 23.2811 1264.72 23.2811 Q1260.64 23.2811 1258.24 26.0589 Q1255.84 28.8077 1255.84 33.5241 L1255.84 51.84 L1250.48 51.84 L1250.48 19.4328 L1255.84 19.4328 L1255.84 24.4675 Q1257.66 21.4872 1260.21 20.0693 Q1262.75 18.6515 1266.25 18.6515 Q1269.78 18.6515 1272.24 20.4455 Q1274.73 22.2395 1275.92 25.6538 Z" fill="#000000" fill-rule="evenodd" fill-opacity="1" /><path clip-path="url(#clip850)" d="M1329.07 20.3876 L1329.07 25.4223 Q1326.82 24.2649 1324.39 23.6862 Q1321.95 23.1075 1319.35 23.1075 Q1315.39 23.1075 1313.39 24.3228 Q1311.42 25.5381 1311.42 27.9686 Q1311.42 29.8204 1312.84 30.891 Q1314.26 31.9327 1318.54 32.8876 L1320.36 33.2926 Q1326.03 34.5079 1328.41 36.7359 Q1330.81 38.935 1330.81 42.8991 Q1330.81 47.4129 1327.22 50.046 Q1323.66 52.6791 1317.41 52.6791 Q1314.81 52.6791 1311.97 52.1583 Q1309.17 51.6664 1306.04 50.6537 L1306.04 45.156 Q1308.99 46.6896 1311.86 47.4708 Q1314.72 48.2231 1317.53 48.2231 Q1321.29 48.2231 1323.31 46.95 Q1325.34 45.6479 1325.34 43.3042 Q1325.34 41.134 1323.86 39.9766 Q1322.42 38.8192 1317.47 37.7486 L1315.62 37.3146 Q1310.67 36.273 1308.47 34.1318 Q1306.27 31.9616 1306.27 28.2001 Q1306.27 23.6283 1309.51 21.1399 Q1312.75 18.6515 1318.71 18.6515 Q1321.67 18.6515 1324.27 19.0855 Q1326.87 19.5196 1329.07 20.3876 Z" fill="#000000" fill-rule="evenodd" fill-opacity="1" /><path clip-path="url(#clip850)" d="M1336.19 19.4328 L1341.51 19.4328 L1348.17 44.722 L1354.8 19.4328 L1361.07 19.4328 L1367.73 44.722 L1374.36 19.4328 L1379.68 19.4328 L1371.2 51.84 L1364.92 51.84 L1357.95 25.2776 L1350.95 51.84 L1344.67 51.84 L1336.19 19.4328 Z" fill="#000000" fill-rule="evenodd" fill-opacity="1" /><path clip-path="url(#clip850)" d="M1415.47 34.3054 L1415.47 36.9095 L1390.99 36.9095 Q1391.34 42.4072 1394.29 45.3007 Q1397.27 48.1653 1402.57 48.1653 Q1405.63 48.1653 1408.5 47.4129 Q1411.39 46.6606 1414.23 45.156 L1414.23 50.1907 Q1411.36 51.406 1408.35 52.0425 Q1405.35 52.6791 1402.25 52.6791 Q1394.49 52.6791 1389.95 48.1653 Q1385.44 43.6514 1385.44 35.9547 Q1385.44 27.9975 1389.72 23.339 Q1394.03 18.6515 1401.32 18.6515 Q1407.86 18.6515 1411.65 22.876 Q1415.47 27.0716 1415.47 34.3054 M1410.15 32.7429 Q1410.09 28.3737 1407.69 25.7695 Q1405.32 23.1654 1401.38 23.1654 Q1396.93 23.1654 1394.23 25.6827 Q1391.57 28.2001 1391.17 32.7718 L1410.15 32.7429 Z" fill="#000000" fill-rule="evenodd" fill-opacity="1" /><path clip-path="url(#clip850)" d="M1447.47 35.6653 Q1447.47 29.7915 1445.04 26.464 Q1442.64 23.1075 1438.42 23.1075 Q1434.19 23.1075 1431.76 26.464 Q1429.36 29.7915 1429.36 35.6653 Q1429.36 41.5391 1431.76 44.8956 Q1434.19 48.2231 1438.42 48.2231 Q1442.64 48.2231 1445.04 44.8956 Q1447.47 41.5391 1447.47 35.6653 M1429.36 24.3517 Q1431.04 21.4582 1433.59 20.0693 Q1436.16 18.6515 1439.72 18.6515 Q1445.62 18.6515 1449.3 23.339 Q1453 28.0265 1453 35.6653 Q1453 43.3042 1449.3 47.9916 Q1445.62 52.6791 1439.72 52.6791 Q1436.16 52.6791 1433.59 51.2902 Q1431.04 49.8724 1429.36 46.9789 L1429.36 51.84 L1424.01 51.84 L1424.01 6.81709 L1429.36 6.81709 L1429.36 24.3517 Z" fill="#000000" fill-rule="evenodd" fill-opacity="1" /><polyline clip-path="url(#clip852)" style="stroke:#e26f46; stroke-linecap:butt; stroke-linejoin:round; stroke-width:8; stroke-opacity:1; fill:none" points="
  436.448,921.848 465.505,921.848 494.562,921.848 523.619,921.848 552.676,921.848 581.733,921.848 610.79,921.848 639.847,921.848 668.904,921.848 697.961,921.848 
  727.018,921.848 756.075,921.848 785.132,921.848 814.189,921.848 843.246,921.848 872.303,921.848 901.36,921.848 930.417,921.848 959.474,921.848 988.531,921.848 
  1017.59,921.848 1046.64,921.848 1075.7,921.848 1104.76,921.848 1133.82,921.848 1162.87,921.848 1191.93,921.848 1220.99,921.848 1250.04,921.848 1279.1,921.848 
  1308.16,921.848 1337.21,921.848 1366.27,921.848 1395.33,921.848 1424.39,921.848 1453.44,921.848 1482.5,921.848 1511.56,921.848 1540.61,921.848 1569.67,921.848 
  1598.73,921.848 1627.78,921.848 1656.84,921.848 1685.9,921.848 1714.96,921.848 1744.01,921.848 1773.07,921.848 1802.13,921.848 1831.18,921.848 1860.24,921.848 
  1889.3,921.848 1918.35,921.848 1947.41,921.848 1976.47,921.848 2005.53,921.848 2034.58,921.848 2063.64,921.848 2092.7,921.848 2121.75,921.848 2150.81,921.848 
  2179.87,921.848 2208.92,921.848 2237.98,921.848 2267.04,921.848 2296.09,921.848 
  "/>
<polyline clip-path="url(#clip852)" style="stroke:#3da44d; stroke-linecap:butt; stroke-linejoin:round; stroke-width:8; stroke-opacity:1; fill:none" points="
  436.448,143.437 465.505,143.437 494.562,143.437 523.619,143.437 552.676,143.437 581.733,143.437 610.79,143.437 639.847,143.437 668.904,143.437 697.961,143.437 
  727.018,143.437 756.075,143.437 785.132,143.437 814.189,143.437 843.246,143.437 872.303,143.437 901.36,143.437 930.417,143.437 959.474,143.437 988.531,143.437 
  1017.59,143.437 1046.64,143.437 1075.7,143.437 1104.76,143.437 1133.82,143.437 1162.87,143.437 1191.93,143.437 1220.99,143.437 1250.04,143.437 1279.1,143.437 
  1308.16,143.437 1337.21,143.437 1366.27,143.437 1395.33,143.437 1424.39,143.437 1453.44,143.437 1482.5,143.437 1511.56,143.437 1540.61,143.437 1569.67,143.437 
  1598.73,143.437 1627.78,143.437 1656.84,143.437 1685.9,143.437 1714.96,143.437 1744.01,143.437 1773.07,143.437 1802.13,143.437 1831.18,143.437 1860.24,143.437 
  1889.3,143.437 1918.35,143.437 1947.41,143.437 1976.47,143.437 2005.53,143.437 2034.58,143.437 2063.64,143.437 2092.7,143.437 2121.75,143.437 2150.81,143.437 
  2179.87,143.437 2208.92,143.437 2237.98,143.437 2267.04,143.437 2296.09,143.437 
  "/>
<polyline clip-path="url(#clip852)" style="stroke:#c271d2; stroke-linecap:butt; stroke-linejoin:round; stroke-width:8; stroke-opacity:1; fill:none" points="
  436.448,402.907 465.505,402.907 494.562,402.907 523.619,402.907 552.676,402.907 581.733,402.907 610.79,402.907 639.847,402.907 668.904,402.907 697.961,402.907 
  727.018,402.907 756.075,402.907 785.132,402.907 814.189,402.907 843.246,402.907 872.303,402.907 901.36,402.907 930.417,402.907 959.474,402.907 988.531,402.907 
  1017.59,402.907 1046.64,402.907 1075.7,402.907 1104.76,402.907 1133.82,402.907 1162.87,402.907 1191.93,402.907 1220.99,402.907 1250.04,402.907 1279.1,402.907 
  1308.16,402.907 1337.21,402.907 1366.27,402.907 1395.33,402.907 1424.39,402.907 1453.44,402.907 1482.5,402.907 1511.56,402.907 1540.61,402.907 1569.67,402.907 
  1598.73,402.907 1627.78,402.907 1656.84,402.907 1685.9,402.907 1714.96,402.907 1744.01,402.907 1773.07,402.907 1802.13,402.907 1831.18,402.907 1860.24,402.907 
  1889.3,402.907 1918.35,402.907 1947.41,402.907 1976.47,402.907 2005.53,402.907 2034.58,402.907 2063.64,402.907 2092.7,402.907 2121.75,402.907 2150.81,402.907 
  2179.87,402.907 2208.92,402.907 2237.98,402.907 2267.04,402.907 2296.09,402.907 
  "/>
<polyline clip-path="url(#clip852)" style="stroke:#ac8d18; stroke-linecap:butt; stroke-linejoin:round; stroke-width:8; stroke-opacity:1; fill:none" points="
  436.448,460.567 465.505,460.567 494.562,460.567 523.619,460.567 552.676,460.567 581.733,460.567 610.79,460.567 639.847,460.567 668.904,460.567 697.961,460.567 
  727.018,460.567 756.075,460.567 785.132,460.567 814.189,460.567 843.246,460.567 872.303,460.567 901.36,460.567 930.417,460.567 959.474,460.567 988.531,460.567 
  1017.59,460.567 1046.64,460.567 1075.7,460.567 1104.76,460.567 1133.82,460.567 1162.87,460.567 1191.93,460.567 1220.99,460.567 1250.04,460.567 1279.1,460.567 
  1308.16,460.567 1337.21,460.567 1366.27,460.567 1395.33,460.567 1424.39,460.567 1453.44,460.567 1482.5,460.567 1511.56,460.567 1540.61,460.567 1569.67,460.567 
  1598.73,460.567 1627.78,460.567 1656.84,460.567 1685.9,460.567 1714.96,460.567 1744.01,460.567 1773.07,460.567 1802.13,460.567 1831.18,460.567 1860.24,460.567 
  1889.3,460.567 1918.35,460.567 1947.41,460.567 1976.47,460.567 2005.53,460.567 2034.58,460.567 2063.64,460.567 2092.7,460.567 2121.75,460.567 2150.81,460.567 
  2179.87,460.567 2208.92,460.567 2237.98,460.567 2267.04,460.567 2296.09,460.567 
  "/>
<polyline clip-path="url(#clip852)" style="stroke:#00a9ad; stroke-linecap:butt; stroke-linejoin:round; stroke-width:8; stroke-opacity:1; fill:none" points="
  436.448,359.662 465.505,359.662 494.562,359.662 523.619,359.662 552.676,359.662 581.733,359.662 610.79,359.662 639.847,359.662 668.904,359.662 697.961,359.662 
  727.018,359.662 756.075,359.662 785.132,359.662 814.189,359.662 843.246,359.662 872.303,359.662 901.36,359.662 930.417,359.662 959.474,359.662 988.531,359.662 
  1017.59,359.662 1046.64,359.662 1075.7,359.662 1104.76,359.662 1133.82,359.662 1162.87,359.662 1191.93,359.662 1220.99,359.662 1250.04,359.662 1279.1,359.662 
  1308.16,359.662 1337.21,359.662 1366.27,359.662 1395.33,359.662 1424.39,359.662 1453.44,359.662 1482.5,359.662 1511.56,359.662 1540.61,359.662 1569.67,359.662 
  1598.73,359.662 1627.78,359.662 1656.84,359.662 1685.9,359.662 1714.96,359.662 1744.01,359.662 1773.07,359.662 1802.13,359.662 1831.18,359.662 1860.24,359.662 
  1889.3,359.662 1918.35,359.662 1947.41,359.662 1976.47,359.662 2005.53,359.662 2034.58,359.662 2063.64,359.662 2092.7,359.662 2121.75,359.662 2150.81,359.662 
  2179.87,359.662 2208.92,359.662 2237.98,359.662 2267.04,359.662 2296.09,359.662 
  "/>
<polyline clip-path="url(#clip852)" style="stroke:#009af9; stroke-linecap:butt; stroke-linejoin:round; stroke-width:12; stroke-opacity:1; fill:none" points="
  436.448,1384.93 465.505,1154.92 494.562,1002.37 523.619,915.003 552.676,861.713 581.733,828.81 610.79,797.832 639.847,722.472 668.904,765.098 697.961,720.954 
  727.018,718.796 756.075,697.532 785.132,630.397 814.189,638.998 843.246,611.665 872.303,595.999 901.36,565.561 930.417,577.553 959.474,585.496 988.531,569.689 
  1017.59,556.187 1046.64,543.125 1075.7,543.359 1104.76,543.905 1133.82,531.923 1162.87,522.598 1191.93,523.379 1220.99,515.131 1250.04,507.607 1279.1,523.138 
  1308.16,515.637 1337.21,515.081 1366.27,512.238 1395.33,499.887 1424.39,497.01 1453.44,491.146 1482.5,496.756 1511.56,492.744 1540.61,486.095 1569.67,479.019 
  1598.73,474.896 1627.78,473.927 1656.84,468.556 1685.9,462.845 1714.96,460.859 1744.01,467.118 1773.07,465.199 1802.13,462.474 1831.18,460.729 1860.24,456.233 
  
  "/>
<polyline clip-path="url(#clip852)" style="stroke:#f05f73; stroke-linecap:butt; stroke-linejoin:round; stroke-width:12; stroke-opacity:1; fill:none" points="
  1860.24,456.233 1889.3,419.544 1918.35,412.507 1947.41,407.785 1976.47,404.473 2005.53,402.301 2034.58,400.81 2063.64,399.818 2092.7,399.285 2121.75,399.228 
  2150.81,399.897 2179.87,401.621 2208.92,400.124 2237.98,399.06 2267.04,398.725 2296.09,398.548 
  "/>
</svg>
