<?xml version="1.0" encoding="utf-8"?>
<svg xmlns="http://www.w3.org/2000/svg" xmlns:xlink="http://www.w3.org/1999/xlink" width="600" height="400" viewBox="0 0 2400 1600">
<defs>
  <clipPath id="clip170">
    <rect x="0" y="0" width="2400" height="1600"/>
  </clipPath>
</defs>
<path clip-path="url(#clip170)" d="
M0 1600 L2400 1600 L2400 0 L0 0  Z
  " fill="#ffffff" fill-rule="evenodd" fill-opacity="1"/>
<defs>
  <clipPath id="clip171">
    <rect x="480" y="0" width="1681" height="1600"/>
  </clipPath>
</defs>
<path clip-path="url(#clip170)" d="
M240.129 1444.78 L2352.76 1444.78 L2352.76 106.192 L240.129 106.192  Z
  " fill="#eaeaea" fill-rule="evenodd" fill-opacity="1"/>
<defs>
  <clipPath id="clip172">
    <rect x="240" y="106" width="2114" height="1340"/>
  </clipPath>
</defs>
<polyline clip-path="url(#clip172)" style="stroke:#ffffff; stroke-linecap:butt; stroke-linejoin:round; stroke-width:4; stroke-opacity:1; fill:none" points="
  299.921,1444.78 299.921,106.192 
  "/>
<polyline clip-path="url(#clip172)" style="stroke:#ffffff; stroke-linecap:butt; stroke-linejoin:round; stroke-width:4; stroke-opacity:1; fill:none" points="
  499.225,1444.78 499.225,106.192 
  "/>
<polyline clip-path="url(#clip172)" style="stroke:#ffffff; stroke-linecap:butt; stroke-linejoin:round; stroke-width:4; stroke-opacity:1; fill:none" points="
  698.53,1444.78 698.53,106.192 
  "/>
<polyline clip-path="url(#clip172)" style="stroke:#ffffff; stroke-linecap:butt; stroke-linejoin:round; stroke-width:4; stroke-opacity:1; fill:none" points="
  897.834,1444.78 897.834,106.192 
  "/>
<polyline clip-path="url(#clip172)" style="stroke:#ffffff; stroke-linecap:butt; stroke-linejoin:round; stroke-width:4; stroke-opacity:1; fill:none" points="
  1097.14,1444.78 1097.14,106.192 
  "/>
<polyline clip-path="url(#clip172)" style="stroke:#ffffff; stroke-linecap:butt; stroke-linejoin:round; stroke-width:4; stroke-opacity:1; fill:none" points="
  1296.44,1444.78 1296.44,106.192 
  "/>
<polyline clip-path="url(#clip172)" style="stroke:#ffffff; stroke-linecap:butt; stroke-linejoin:round; stroke-width:4; stroke-opacity:1; fill:none" points="
  1495.75,1444.78 1495.75,106.192 
  "/>
<polyline clip-path="url(#clip172)" style="stroke:#ffffff; stroke-linecap:butt; stroke-linejoin:round; stroke-width:4; stroke-opacity:1; fill:none" points="
  1695.05,1444.78 1695.05,106.192 
  "/>
<polyline clip-path="url(#clip172)" style="stroke:#ffffff; stroke-linecap:butt; stroke-linejoin:round; stroke-width:4; stroke-opacity:1; fill:none" points="
  1894.36,1444.78 1894.36,106.192 
  "/>
<polyline clip-path="url(#clip172)" style="stroke:#ffffff; stroke-linecap:butt; stroke-linejoin:round; stroke-width:4; stroke-opacity:1; fill:none" points="
  2093.66,1444.78 2093.66,106.192 
  "/>
<polyline clip-path="url(#clip172)" style="stroke:#ffffff; stroke-linecap:butt; stroke-linejoin:round; stroke-width:4; stroke-opacity:1; fill:none" points="
  2292.96,1444.78 2292.96,106.192 
  "/>
<polyline clip-path="url(#clip172)" style="stroke:#ffffff; stroke-linecap:butt; stroke-linejoin:round; stroke-width:2; stroke-opacity:1; fill:none" points="
  399.573,1444.78 399.573,106.192 
  "/>
<polyline clip-path="url(#clip172)" style="stroke:#ffffff; stroke-linecap:butt; stroke-linejoin:round; stroke-width:2; stroke-opacity:1; fill:none" points="
  598.877,1444.78 598.877,106.192 
  "/>
<polyline clip-path="url(#clip172)" style="stroke:#ffffff; stroke-linecap:butt; stroke-linejoin:round; stroke-width:2; stroke-opacity:1; fill:none" points="
  798.182,1444.78 798.182,106.192 
  "/>
<polyline clip-path="url(#clip172)" style="stroke:#ffffff; stroke-linecap:butt; stroke-linejoin:round; stroke-width:2; stroke-opacity:1; fill:none" points="
  997.486,1444.78 997.486,106.192 
  "/>
<polyline clip-path="url(#clip172)" style="stroke:#ffffff; stroke-linecap:butt; stroke-linejoin:round; stroke-width:2; stroke-opacity:1; fill:none" points="
  1196.79,1444.78 1196.79,106.192 
  "/>
<polyline clip-path="url(#clip172)" style="stroke:#ffffff; stroke-linecap:butt; stroke-linejoin:round; stroke-width:2; stroke-opacity:1; fill:none" points="
  1396.09,1444.78 1396.09,106.192 
  "/>
<polyline clip-path="url(#clip172)" style="stroke:#ffffff; stroke-linecap:butt; stroke-linejoin:round; stroke-width:2; stroke-opacity:1; fill:none" points="
  1595.4,1444.78 1595.4,106.192 
  "/>
<polyline clip-path="url(#clip172)" style="stroke:#ffffff; stroke-linecap:butt; stroke-linejoin:round; stroke-width:2; stroke-opacity:1; fill:none" points="
  1794.7,1444.78 1794.7,106.192 
  "/>
<polyline clip-path="url(#clip172)" style="stroke:#ffffff; stroke-linecap:butt; stroke-linejoin:round; stroke-width:2; stroke-opacity:1; fill:none" points="
  1994.01,1444.78 1994.01,106.192 
  "/>
<polyline clip-path="url(#clip172)" style="stroke:#ffffff; stroke-linecap:butt; stroke-linejoin:round; stroke-width:2; stroke-opacity:1; fill:none" points="
  2193.31,1444.78 2193.31,106.192 
  "/>
<polyline clip-path="url(#clip170)" style="stroke:#ffffff; stroke-linecap:butt; stroke-linejoin:round; stroke-width:4; stroke-opacity:1; fill:none" points="
  240.129,1444.78 2352.76,1444.78 
  "/>
<polyline clip-path="url(#clip170)" style="stroke:#333333; stroke-linecap:butt; stroke-linejoin:round; stroke-width:4; stroke-opacity:1; fill:none" points="
  299.921,1444.78 299.921,1463.68 
  "/>
<polyline clip-path="url(#clip170)" style="stroke:#333333; stroke-linecap:butt; stroke-linejoin:round; stroke-width:4; stroke-opacity:1; fill:none" points="
  499.225,1444.78 499.225,1463.68 
  "/>
<polyline clip-path="url(#clip170)" style="stroke:#333333; stroke-linecap:butt; stroke-linejoin:round; stroke-width:4; stroke-opacity:1; fill:none" points="
  698.53,1444.78 698.53,1463.68 
  "/>
<polyline clip-path="url(#clip170)" style="stroke:#333333; stroke-linecap:butt; stroke-linejoin:round; stroke-width:4; stroke-opacity:1; fill:none" points="
  897.834,1444.78 897.834,1463.68 
  "/>
<polyline clip-path="url(#clip170)" style="stroke:#333333; stroke-linecap:butt; stroke-linejoin:round; stroke-width:4; stroke-opacity:1; fill:none" points="
  1097.14,1444.78 1097.14,1463.68 
  "/>
<polyline clip-path="url(#clip170)" style="stroke:#333333; stroke-linecap:butt; stroke-linejoin:round; stroke-width:4; stroke-opacity:1; fill:none" points="
  1296.44,1444.78 1296.44,1463.68 
  "/>
<polyline clip-path="url(#clip170)" style="stroke:#333333; stroke-linecap:butt; stroke-linejoin:round; stroke-width:4; stroke-opacity:1; fill:none" points="
  1495.75,1444.78 1495.75,1463.68 
  "/>
<polyline clip-path="url(#clip170)" style="stroke:#333333; stroke-linecap:butt; stroke-linejoin:round; stroke-width:4; stroke-opacity:1; fill:none" points="
  1695.05,1444.78 1695.05,1463.68 
  "/>
<polyline clip-path="url(#clip170)" style="stroke:#333333; stroke-linecap:butt; stroke-linejoin:round; stroke-width:4; stroke-opacity:1; fill:none" points="
  1894.36,1444.78 1894.36,1463.68 
  "/>
<polyline clip-path="url(#clip170)" style="stroke:#333333; stroke-linecap:butt; stroke-linejoin:round; stroke-width:4; stroke-opacity:1; fill:none" points="
  2093.66,1444.78 2093.66,1463.68 
  "/>
<polyline clip-path="url(#clip170)" style="stroke:#333333; stroke-linecap:butt; stroke-linejoin:round; stroke-width:4; stroke-opacity:1; fill:none" points="
  2292.96,1444.78 2292.96,1463.68 
  "/>
<polyline clip-path="url(#clip170)" style="stroke:#333333; stroke-linecap:butt; stroke-linejoin:round; stroke-width:4; stroke-opacity:1; fill:none" points="
  399.573,1444.78 399.573,1454.23 
  "/>
<polyline clip-path="url(#clip170)" style="stroke:#333333; stroke-linecap:butt; stroke-linejoin:round; stroke-width:4; stroke-opacity:1; fill:none" points="
  598.877,1444.78 598.877,1454.23 
  "/>
<polyline clip-path="url(#clip170)" style="stroke:#333333; stroke-linecap:butt; stroke-linejoin:round; stroke-width:4; stroke-opacity:1; fill:none" points="
  798.182,1444.78 798.182,1454.23 
  "/>
<polyline clip-path="url(#clip170)" style="stroke:#333333; stroke-linecap:butt; stroke-linejoin:round; stroke-width:4; stroke-opacity:1; fill:none" points="
  997.486,1444.78 997.486,1454.23 
  "/>
<polyline clip-path="url(#clip170)" style="stroke:#333333; stroke-linecap:butt; stroke-linejoin:round; stroke-width:4; stroke-opacity:1; fill:none" points="
  1196.79,1444.78 1196.79,1454.23 
  "/>
<polyline clip-path="url(#clip170)" style="stroke:#333333; stroke-linecap:butt; stroke-linejoin:round; stroke-width:4; stroke-opacity:1; fill:none" points="
  1396.09,1444.78 1396.09,1454.23 
  "/>
<polyline clip-path="url(#clip170)" style="stroke:#333333; stroke-linecap:butt; stroke-linejoin:round; stroke-width:4; stroke-opacity:1; fill:none" points="
  1595.4,1444.78 1595.4,1454.23 
  "/>
<polyline clip-path="url(#clip170)" style="stroke:#333333; stroke-linecap:butt; stroke-linejoin:round; stroke-width:4; stroke-opacity:1; fill:none" points="
  1794.7,1444.78 1794.7,1454.23 
  "/>
<polyline clip-path="url(#clip170)" style="stroke:#333333; stroke-linecap:butt; stroke-linejoin:round; stroke-width:4; stroke-opacity:1; fill:none" points="
  1994.01,1444.78 1994.01,1454.23 
  "/>
<polyline clip-path="url(#clip170)" style="stroke:#333333; stroke-linecap:butt; stroke-linejoin:round; stroke-width:4; stroke-opacity:1; fill:none" points="
  2193.31,1444.78 2193.31,1454.23 
  "/>
<path clip-path="url(#clip170)" d="M299.921 1482.37 Q297.212 1482.37 295.841 1485.04 Q294.487 1487.7 294.487 1493.05 Q294.487 1498.38 295.841 1501.05 Q297.212 1503.71 299.921 1503.71 Q302.646 1503.71 304.001 1501.05 Q305.372 1498.38 305.372 1493.05 Q305.372 1487.7 304.001 1485.04 Q302.646 1482.37 299.921 1482.37 M299.921 1479.59 Q304.278 1479.59 306.57 1483.05 Q308.879 1486.48 308.879 1493.05 Q308.879 1499.59 306.57 1503.05 Q304.278 1506.48 299.921 1506.48 Q295.563 1506.48 293.254 1503.05 Q290.962 1499.59 290.962 1493.05 Q290.962 1486.48 293.254 1483.05 Q295.563 1479.59 299.921 1479.59 Z" fill="#4c4c4c" fill-rule="evenodd" fill-opacity="1" /><path clip-path="url(#clip170)" d="M480.241 1503.03 L485.97 1503.03 L485.97 1483.25 L479.737 1484.5 L479.737 1481.31 L485.935 1480.06 L489.442 1480.06 L489.442 1503.03 L495.171 1503.03 L495.171 1505.98 L480.241 1505.98 L480.241 1503.03 Z" fill="#4c4c4c" fill-rule="evenodd" fill-opacity="1" /><path clip-path="url(#clip170)" d="M509.755 1482.37 Q507.046 1482.37 505.675 1485.04 Q504.321 1487.7 504.321 1493.05 Q504.321 1498.38 505.675 1501.05 Q507.046 1503.71 509.755 1503.71 Q512.48 1503.71 513.834 1501.05 Q515.206 1498.38 515.206 1493.05 Q515.206 1487.7 513.834 1485.04 Q512.48 1482.37 509.755 1482.37 M509.755 1479.59 Q514.112 1479.59 516.404 1483.05 Q518.713 1486.48 518.713 1493.05 Q518.713 1499.59 516.404 1503.05 Q514.112 1506.48 509.755 1506.48 Q505.397 1506.48 503.088 1503.05 Q500.796 1499.59 500.796 1493.05 Q500.796 1486.48 503.088 1483.05 Q505.397 1479.59 509.755 1479.59 Z" fill="#4c4c4c" fill-rule="evenodd" fill-opacity="1" /><path clip-path="url(#clip170)" d="M682.609 1503.03 L694.849 1503.03 L694.849 1505.98 L678.391 1505.98 L678.391 1503.03 Q680.387 1500.96 683.825 1497.49 Q687.28 1494 688.165 1492.99 Q689.849 1491.1 690.509 1489.8 Q691.186 1488.48 691.186 1487.21 Q691.186 1485.15 689.728 1483.84 Q688.287 1482.54 685.96 1482.54 Q684.311 1482.54 682.471 1483.12 Q680.648 1483.69 678.564 1484.85 L678.564 1481.31 Q680.682 1480.46 682.523 1480.03 Q684.363 1479.59 685.891 1479.59 Q689.918 1479.59 692.314 1481.6 Q694.71 1483.62 694.71 1486.99 Q694.71 1488.58 694.102 1490.03 Q693.512 1491.45 691.932 1493.39 Q691.498 1493.9 689.172 1496.31 Q686.846 1498.71 682.609 1503.03 Z" fill="#4c4c4c" fill-rule="evenodd" fill-opacity="1" /><path clip-path="url(#clip170)" d="M709.71 1482.37 Q707.002 1482.37 705.63 1485.04 Q704.276 1487.7 704.276 1493.05 Q704.276 1498.38 705.63 1501.05 Q707.002 1503.71 709.71 1503.71 Q712.436 1503.71 713.79 1501.05 Q715.161 1498.38 715.161 1493.05 Q715.161 1487.7 713.79 1485.04 Q712.436 1482.37 709.71 1482.37 M709.71 1479.59 Q714.068 1479.59 716.359 1483.05 Q718.668 1486.48 718.668 1493.05 Q718.668 1499.59 716.359 1503.05 Q714.068 1506.48 709.71 1506.48 Q705.352 1506.48 703.043 1503.05 Q700.752 1499.59 700.752 1493.05 Q700.752 1486.48 703.043 1483.05 Q705.352 1479.59 709.71 1479.59 Z" fill="#4c4c4c" fill-rule="evenodd" fill-opacity="1" /><path clip-path="url(#clip170)" d="M889.466 1492 Q891.983 1492.54 893.39 1494.24 Q894.813 1495.95 894.813 1498.45 Q894.813 1502.28 892.174 1504.38 Q889.535 1506.48 884.674 1506.48 Q883.042 1506.48 881.306 1506.15 Q879.587 1505.84 877.747 1505.2 L877.747 1501.81 Q879.206 1502.66 880.942 1503.1 Q882.678 1503.53 884.57 1503.53 Q887.869 1503.53 889.587 1502.23 Q891.324 1500.93 891.324 1498.45 Q891.324 1496.15 889.709 1494.87 Q888.112 1493.57 885.247 1493.57 L882.226 1493.57 L882.226 1490.68 L885.386 1490.68 Q887.973 1490.68 889.344 1489.66 Q890.716 1488.62 890.716 1486.67 Q890.716 1484.68 889.292 1483.62 Q887.886 1482.54 885.247 1482.54 Q883.806 1482.54 882.157 1482.85 Q880.508 1483.17 878.528 1483.83 L878.528 1480.7 Q880.525 1480.15 882.261 1479.87 Q884.015 1479.59 885.56 1479.59 Q889.553 1479.59 891.879 1481.41 Q894.205 1483.22 894.205 1486.31 Q894.205 1488.46 892.973 1489.96 Q891.74 1491.43 889.466 1492 Z" fill="#4c4c4c" fill-rule="evenodd" fill-opacity="1" /><path clip-path="url(#clip170)" d="M908.962 1482.37 Q906.254 1482.37 904.882 1485.04 Q903.528 1487.7 903.528 1493.05 Q903.528 1498.38 904.882 1501.05 Q906.254 1503.71 908.962 1503.71 Q911.688 1503.71 913.042 1501.05 Q914.414 1498.38 914.414 1493.05 Q914.414 1487.7 913.042 1485.04 Q911.688 1482.37 908.962 1482.37 M908.962 1479.59 Q913.32 1479.59 915.612 1483.05 Q917.921 1486.48 917.921 1493.05 Q917.921 1499.59 915.612 1503.05 Q913.32 1506.48 908.962 1506.48 Q904.605 1506.48 902.296 1503.05 Q900.004 1499.59 900.004 1493.05 Q900.004 1486.48 902.296 1483.05 Q904.605 1479.59 908.962 1479.59 Z" fill="#4c4c4c" fill-rule="evenodd" fill-opacity="1" /><path clip-path="url(#clip170)" d="M1088.27 1483.12 L1079.41 1496.95 L1088.27 1496.95 L1088.27 1483.12 M1087.35 1480.06 L1091.76 1480.06 L1091.76 1496.95 L1095.45 1496.95 L1095.45 1499.87 L1091.76 1499.87 L1091.76 1505.98 L1088.27 1505.98 L1088.27 1499.87 L1076.57 1499.87 L1076.57 1496.48 L1087.35 1480.06 Z" fill="#4c4c4c" fill-rule="evenodd" fill-opacity="1" /><path clip-path="url(#clip170)" d="M1108.75 1482.37 Q1106.04 1482.37 1104.67 1485.04 Q1103.32 1487.7 1103.32 1493.05 Q1103.32 1498.38 1104.67 1501.05 Q1106.04 1503.71 1108.75 1503.71 Q1111.48 1503.71 1112.83 1501.05 Q1114.2 1498.38 1114.2 1493.05 Q1114.2 1487.7 1112.83 1485.04 Q1111.48 1482.37 1108.75 1482.37 M1108.75 1479.59 Q1113.11 1479.59 1115.4 1483.05 Q1117.71 1486.48 1117.71 1493.05 Q1117.71 1499.59 1115.4 1503.05 Q1113.11 1506.48 1108.75 1506.48 Q1104.4 1506.48 1102.09 1503.05 Q1099.79 1499.59 1099.79 1493.05 Q1099.79 1486.48 1102.09 1483.05 Q1104.4 1479.59 1108.75 1479.59 Z" fill="#4c4c4c" fill-rule="evenodd" fill-opacity="1" /><path clip-path="url(#clip170)" d="M1277.47 1480.06 L1291.23 1480.06 L1291.23 1483.01 L1280.68 1483.01 L1280.68 1489.37 Q1281.44 1489.1 1282.21 1488.98 Q1282.97 1488.84 1283.73 1488.84 Q1288.07 1488.84 1290.61 1491.22 Q1293.14 1493.6 1293.14 1497.66 Q1293.14 1501.85 1290.54 1504.17 Q1287.94 1506.48 1283.2 1506.48 Q1281.56 1506.48 1279.86 1506.21 Q1278.18 1505.93 1276.37 1505.37 L1276.37 1501.85 Q1277.94 1502.7 1279.6 1503.12 Q1281.27 1503.53 1283.13 1503.53 Q1286.13 1503.53 1287.88 1501.95 Q1289.64 1500.37 1289.64 1497.66 Q1289.64 1494.96 1287.88 1493.38 Q1286.13 1491.8 1283.13 1491.8 Q1281.72 1491.8 1280.31 1492.11 Q1278.93 1492.42 1277.47 1493.08 L1277.47 1480.06 Z" fill="#4c4c4c" fill-rule="evenodd" fill-opacity="1" /><path clip-path="url(#clip170)" d="M1307.55 1482.37 Q1304.85 1482.37 1303.47 1485.04 Q1302.12 1487.7 1302.12 1493.05 Q1302.12 1498.38 1303.47 1501.05 Q1304.85 1503.71 1307.55 1503.71 Q1310.28 1503.71 1311.63 1501.05 Q1313.01 1498.38 1313.01 1493.05 Q1313.01 1487.7 1311.63 1485.04 Q1310.28 1482.37 1307.55 1482.37 M1307.55 1479.59 Q1311.91 1479.59 1314.2 1483.05 Q1316.51 1486.48 1316.51 1493.05 Q1316.51 1499.59 1314.2 1503.05 Q1311.91 1506.48 1307.55 1506.48 Q1303.2 1506.48 1300.89 1503.05 Q1298.6 1499.59 1298.6 1493.05 Q1298.6 1486.48 1300.89 1483.05 Q1303.2 1479.59 1307.55 1479.59 Z" fill="#4c4c4c" fill-rule="evenodd" fill-opacity="1" /><path clip-path="url(#clip170)" d="M1484.8 1491.62 Q1482.44 1491.62 1481.05 1493.24 Q1479.68 1494.85 1479.68 1497.66 Q1479.68 1500.46 1481.05 1502.09 Q1482.44 1503.71 1484.8 1503.71 Q1487.16 1503.71 1488.53 1502.09 Q1489.92 1500.46 1489.92 1497.66 Q1489.92 1494.85 1488.53 1493.24 Q1487.16 1491.62 1484.8 1491.62 M1491.76 1480.63 L1491.76 1483.83 Q1490.44 1483.2 1489.09 1482.87 Q1487.75 1482.54 1486.43 1482.54 Q1482.96 1482.54 1481.12 1484.89 Q1479.3 1487.23 1479.04 1491.97 Q1480.06 1490.46 1481.61 1489.66 Q1483.15 1488.84 1485.01 1488.84 Q1488.92 1488.84 1491.17 1491.22 Q1493.45 1493.58 1493.45 1497.66 Q1493.45 1501.66 1491.09 1504.07 Q1488.72 1506.48 1484.8 1506.48 Q1480.3 1506.48 1477.93 1503.05 Q1475.55 1499.59 1475.55 1493.05 Q1475.55 1486.9 1478.46 1483.25 Q1481.38 1479.59 1486.29 1479.59 Q1487.61 1479.59 1488.95 1479.85 Q1490.3 1480.11 1491.76 1480.63 Z" fill="#4c4c4c" fill-rule="evenodd" fill-opacity="1" /><path clip-path="url(#clip170)" d="M1506.99 1482.37 Q1504.28 1482.37 1502.91 1485.04 Q1501.55 1487.7 1501.55 1493.05 Q1501.55 1498.38 1502.91 1501.05 Q1504.28 1503.71 1506.99 1503.71 Q1509.71 1503.71 1511.07 1501.05 Q1512.44 1498.38 1512.44 1493.05 Q1512.44 1487.7 1511.07 1485.04 Q1509.71 1482.37 1506.99 1482.37 M1506.99 1479.59 Q1511.35 1479.59 1513.64 1483.05 Q1515.95 1486.48 1515.95 1493.05 Q1515.95 1499.59 1513.64 1503.05 Q1511.35 1506.48 1506.99 1506.48 Q1502.63 1506.48 1500.32 1503.05 Q1498.03 1499.59 1498.03 1493.05 Q1498.03 1486.48 1500.32 1483.05 Q1502.63 1479.59 1506.99 1479.59 Z" fill="#4c4c4c" fill-rule="evenodd" fill-opacity="1" /><path clip-path="url(#clip170)" d="M1675.07 1480.06 L1691.74 1480.06 L1691.74 1481.55 L1682.33 1505.98 L1678.66 1505.98 L1687.52 1483.01 L1675.07 1483.01 L1675.07 1480.06 Z" fill="#4c4c4c" fill-rule="evenodd" fill-opacity="1" /><path clip-path="url(#clip170)" d="M1706.08 1482.37 Q1703.37 1482.37 1702 1485.04 Q1700.64 1487.7 1700.64 1493.05 Q1700.64 1498.38 1702 1501.05 Q1703.37 1503.71 1706.08 1503.71 Q1708.8 1503.71 1710.16 1501.05 Q1711.53 1498.38 1711.53 1493.05 Q1711.53 1487.7 1710.16 1485.04 Q1708.8 1482.37 1706.08 1482.37 M1706.08 1479.59 Q1710.43 1479.59 1712.72 1483.05 Q1715.03 1486.48 1715.03 1493.05 Q1715.03 1499.59 1712.72 1503.05 Q1710.43 1506.48 1706.08 1506.48 Q1701.72 1506.48 1699.41 1503.05 Q1697.12 1499.59 1697.12 1493.05 Q1697.12 1486.48 1699.41 1483.05 Q1701.72 1479.59 1706.08 1479.59 Z" fill="#4c4c4c" fill-rule="evenodd" fill-opacity="1" /><path clip-path="url(#clip170)" d="M1883.01 1493.67 Q1880.51 1493.67 1879.07 1495.01 Q1877.65 1496.34 1877.65 1498.69 Q1877.65 1501.03 1879.07 1502.37 Q1880.51 1503.71 1883.01 1503.71 Q1885.51 1503.71 1886.95 1502.37 Q1888.39 1501.01 1888.39 1498.69 Q1888.39 1496.34 1886.95 1495.01 Q1885.53 1493.67 1883.01 1493.67 M1879.5 1492.18 Q1877.25 1491.62 1875.98 1490.08 Q1874.73 1488.53 1874.73 1486.31 Q1874.73 1483.2 1876.93 1481.4 Q1879.16 1479.59 1883.01 1479.59 Q1886.88 1479.59 1889.09 1481.4 Q1891.29 1483.2 1891.29 1486.31 Q1891.29 1488.53 1890.02 1490.08 Q1888.77 1491.62 1886.53 1492.18 Q1889.07 1492.77 1890.48 1494.49 Q1891.9 1496.21 1891.9 1498.69 Q1891.9 1502.46 1889.59 1504.47 Q1887.3 1506.48 1883.01 1506.48 Q1878.72 1506.48 1876.41 1504.47 Q1874.12 1502.46 1874.12 1498.69 Q1874.12 1496.21 1875.55 1494.49 Q1876.97 1492.77 1879.5 1492.18 M1878.22 1486.64 Q1878.22 1488.65 1879.47 1489.78 Q1880.74 1490.91 1883.01 1490.91 Q1885.27 1490.91 1886.53 1489.78 Q1887.82 1488.65 1887.82 1486.64 Q1887.82 1484.63 1886.53 1483.5 Q1885.27 1482.37 1883.01 1482.37 Q1880.74 1482.37 1879.47 1483.5 Q1878.22 1484.63 1878.22 1486.64 Z" fill="#4c4c4c" fill-rule="evenodd" fill-opacity="1" /><path clip-path="url(#clip170)" d="M1905.63 1482.37 Q1902.92 1482.37 1901.55 1485.04 Q1900.2 1487.7 1900.2 1493.05 Q1900.2 1498.38 1901.55 1501.05 Q1902.92 1503.71 1905.63 1503.71 Q1908.36 1503.71 1909.71 1501.05 Q1911.08 1498.38 1911.08 1493.05 Q1911.08 1487.7 1909.71 1485.04 Q1908.36 1482.37 1905.63 1482.37 M1905.63 1479.59 Q1909.99 1479.59 1912.28 1483.05 Q1914.59 1486.48 1914.59 1493.05 Q1914.59 1499.59 1912.28 1503.05 Q1909.99 1506.48 1905.63 1506.48 Q1901.27 1506.48 1898.97 1503.05 Q1896.67 1499.59 1896.67 1493.05 Q1896.67 1486.48 1898.97 1483.05 Q1901.27 1479.59 1905.63 1479.59 Z" fill="#4c4c4c" fill-rule="evenodd" fill-opacity="1" /><path clip-path="url(#clip170)" d="M2075.01 1505.44 L2075.01 1502.25 Q2076.33 1502.87 2077.68 1503.2 Q2079.03 1503.53 2080.34 1503.53 Q2083.81 1503.53 2085.63 1501.21 Q2087.47 1498.86 2087.73 1494.1 Q2086.72 1495.6 2085.18 1496.4 Q2083.63 1497.2 2081.76 1497.2 Q2077.87 1497.2 2075.6 1494.85 Q2073.34 1492.49 2073.34 1488.41 Q2073.34 1484.42 2075.7 1482 Q2078.06 1479.59 2081.98 1479.59 Q2086.48 1479.59 2088.84 1483.05 Q2091.22 1486.48 2091.22 1493.05 Q2091.22 1499.17 2088.3 1502.84 Q2085.41 1506.48 2080.49 1506.48 Q2079.17 1506.48 2077.82 1506.22 Q2076.46 1505.96 2075.01 1505.44 M2081.98 1494.45 Q2084.35 1494.45 2085.72 1492.84 Q2087.11 1491.22 2087.11 1488.41 Q2087.11 1485.62 2085.72 1484 Q2084.35 1482.37 2081.98 1482.37 Q2079.62 1482.37 2078.23 1484 Q2076.86 1485.62 2076.86 1488.41 Q2076.86 1491.22 2078.23 1492.84 Q2079.62 1494.45 2081.98 1494.45 Z" fill="#4c4c4c" fill-rule="evenodd" fill-opacity="1" /><path clip-path="url(#clip170)" d="M2105.02 1482.37 Q2102.31 1482.37 2100.94 1485.04 Q2099.59 1487.7 2099.59 1493.05 Q2099.59 1498.38 2100.94 1501.05 Q2102.31 1503.71 2105.02 1503.71 Q2107.75 1503.71 2109.1 1501.05 Q2110.47 1498.38 2110.47 1493.05 Q2110.47 1487.7 2109.1 1485.04 Q2107.75 1482.37 2105.02 1482.37 M2105.02 1479.59 Q2109.38 1479.59 2111.67 1483.05 Q2113.98 1486.48 2113.98 1493.05 Q2113.98 1499.59 2111.67 1503.05 Q2109.38 1506.48 2105.02 1506.48 Q2100.67 1506.48 2098.36 1503.05 Q2096.06 1499.59 2096.06 1493.05 Q2096.06 1486.48 2098.36 1483.05 Q2100.67 1479.59 2105.02 1479.59 Z" fill="#4c4c4c" fill-rule="evenodd" fill-opacity="1" /><path clip-path="url(#clip170)" d="M2262.67 1503.03 L2268.4 1503.03 L2268.4 1483.25 L2262.17 1484.5 L2262.17 1481.31 L2268.36 1480.06 L2271.87 1480.06 L2271.87 1503.03 L2277.6 1503.03 L2277.6 1505.98 L2262.67 1505.98 L2262.67 1503.03 Z" fill="#4c4c4c" fill-rule="evenodd" fill-opacity="1" /><path clip-path="url(#clip170)" d="M2292.18 1482.37 Q2289.48 1482.37 2288.1 1485.04 Q2286.75 1487.7 2286.75 1493.05 Q2286.75 1498.38 2288.1 1501.05 Q2289.48 1503.71 2292.18 1503.71 Q2294.91 1503.71 2296.26 1501.05 Q2297.63 1498.38 2297.63 1493.05 Q2297.63 1487.7 2296.26 1485.04 Q2294.91 1482.37 2292.18 1482.37 M2292.18 1479.59 Q2296.54 1479.59 2298.83 1483.05 Q2301.14 1486.48 2301.14 1493.05 Q2301.14 1499.59 2298.83 1503.05 Q2296.54 1506.48 2292.18 1506.48 Q2287.83 1506.48 2285.52 1503.05 Q2283.23 1499.59 2283.23 1493.05 Q2283.23 1486.48 2285.52 1483.05 Q2287.83 1479.59 2292.18 1479.59 Z" fill="#4c4c4c" fill-rule="evenodd" fill-opacity="1" /><path clip-path="url(#clip170)" d="M2314.8 1482.37 Q2312.1 1482.37 2310.72 1485.04 Q2309.37 1487.7 2309.37 1493.05 Q2309.37 1498.38 2310.72 1501.05 Q2312.1 1503.71 2314.8 1503.71 Q2317.53 1503.71 2318.88 1501.05 Q2320.26 1498.38 2320.26 1493.05 Q2320.26 1487.7 2318.88 1485.04 Q2317.53 1482.37 2314.8 1482.37 M2314.8 1479.59 Q2319.16 1479.59 2321.45 1483.05 Q2323.76 1486.48 2323.76 1493.05 Q2323.76 1499.59 2321.45 1503.05 Q2319.16 1506.48 2314.8 1506.48 Q2310.45 1506.48 2308.14 1503.05 Q2305.85 1499.59 2305.85 1493.05 Q2305.85 1486.48 2308.14 1483.05 Q2310.45 1479.59 2314.8 1479.59 Z" fill="#4c4c4c" fill-rule="evenodd" fill-opacity="1" /><path clip-path="url(#clip170)" d="M1187.03 1526.57 L1191.71 1526.57 L1191.71 1561.13 L1187.03 1561.13 L1187.03 1526.57 Z" fill="#000000" fill-rule="evenodd" fill-opacity="1" /><path clip-path="url(#clip170)" d="M1205.04 1527.84 L1205.04 1535.21 L1213.82 1535.21 L1213.82 1538.52 L1205.04 1538.52 L1205.04 1552.59 Q1205.04 1555.76 1205.9 1556.66 Q1206.78 1557.57 1209.44 1557.57 L1213.82 1557.57 L1213.82 1561.13 L1209.44 1561.13 Q1204.51 1561.13 1202.64 1559.3 Q1200.76 1557.45 1200.76 1552.59 L1200.76 1538.52 L1197.64 1538.52 L1197.64 1535.21 L1200.76 1535.21 L1200.76 1527.84 L1205.04 1527.84 Z" fill="#000000" fill-rule="evenodd" fill-opacity="1" /><path clip-path="url(#clip170)" d="M1241.59 1547.1 L1241.59 1549.19 L1222.01 1549.19 Q1222.29 1553.59 1224.65 1555.9 Q1227.03 1558.19 1231.27 1558.19 Q1233.72 1558.19 1236.01 1557.59 Q1238.33 1556.99 1240.6 1555.78 L1240.6 1559.81 Q1238.31 1560.78 1235.9 1561.29 Q1233.49 1561.8 1231.01 1561.8 Q1224.81 1561.8 1221.18 1558.19 Q1217.57 1554.58 1217.57 1548.42 Q1217.57 1542.06 1220.99 1538.33 Q1224.44 1534.58 1230.27 1534.58 Q1235.51 1534.58 1238.54 1537.96 Q1241.59 1541.32 1241.59 1547.1 M1237.33 1545.85 Q1237.29 1542.36 1235.37 1540.28 Q1233.47 1538.19 1230.32 1538.19 Q1226.76 1538.19 1224.6 1540.21 Q1222.47 1542.22 1222.15 1545.88 L1237.33 1545.85 Z" fill="#000000" fill-rule="evenodd" fill-opacity="1" /><path clip-path="url(#clip170)" d="M1263.61 1539.19 Q1262.89 1538.77 1262.03 1538.59 Q1261.2 1538.38 1260.18 1538.38 Q1256.57 1538.38 1254.63 1540.74 Q1252.7 1543.08 1252.7 1547.47 L1252.7 1561.13 L1248.42 1561.13 L1248.42 1535.21 L1252.7 1535.21 L1252.7 1539.23 Q1254.05 1536.87 1256.2 1535.74 Q1258.35 1534.58 1261.43 1534.58 Q1261.87 1534.58 1262.4 1534.65 Q1262.94 1534.7 1263.58 1534.81 L1263.61 1539.19 Z" fill="#000000" fill-rule="evenodd" fill-opacity="1" /><path clip-path="url(#clip170)" d="M1279.86 1548.1 Q1274.7 1548.1 1272.7 1549.28 Q1270.71 1550.46 1270.71 1553.31 Q1270.71 1555.58 1272.2 1556.92 Q1273.7 1558.24 1276.27 1558.24 Q1279.81 1558.24 1281.94 1555.74 Q1284.09 1553.22 1284.09 1549.05 L1284.09 1548.1 L1279.86 1548.1 M1288.35 1546.34 L1288.35 1561.13 L1284.09 1561.13 L1284.09 1557.2 Q1282.63 1559.56 1280.46 1560.69 Q1278.28 1561.8 1275.13 1561.8 Q1271.15 1561.8 1268.79 1559.58 Q1266.45 1557.34 1266.45 1553.59 Q1266.45 1549.21 1269.37 1546.99 Q1272.31 1544.77 1278.12 1544.77 L1284.09 1544.77 L1284.09 1544.35 Q1284.09 1541.41 1282.15 1539.81 Q1280.23 1538.19 1276.73 1538.19 Q1274.51 1538.19 1272.4 1538.72 Q1270.3 1539.26 1268.35 1540.32 L1268.35 1536.39 Q1270.69 1535.48 1272.89 1535.04 Q1275.09 1534.58 1277.17 1534.58 Q1282.8 1534.58 1285.57 1537.5 Q1288.35 1540.41 1288.35 1546.34 Z" fill="#000000" fill-rule="evenodd" fill-opacity="1" /><path clip-path="url(#clip170)" d="M1301.34 1527.84 L1301.34 1535.21 L1310.11 1535.21 L1310.11 1538.52 L1301.34 1538.52 L1301.34 1552.59 Q1301.34 1555.76 1302.19 1556.66 Q1303.07 1557.57 1305.74 1557.57 L1310.11 1557.57 L1310.11 1561.13 L1305.74 1561.13 Q1300.81 1561.13 1298.93 1559.3 Q1297.06 1557.45 1297.06 1552.59 L1297.06 1538.52 L1293.93 1538.52 L1293.93 1535.21 L1297.06 1535.21 L1297.06 1527.84 L1301.34 1527.84 Z" fill="#000000" fill-rule="evenodd" fill-opacity="1" /><path clip-path="url(#clip170)" d="M1315.71 1535.21 L1319.97 1535.21 L1319.97 1561.13 L1315.71 1561.13 L1315.71 1535.21 M1315.71 1525.11 L1319.97 1525.11 L1319.97 1530.51 L1315.71 1530.51 L1315.71 1525.11 Z" fill="#000000" fill-rule="evenodd" fill-opacity="1" /><path clip-path="url(#clip170)" d="M1338.93 1538.19 Q1335.5 1538.19 1333.51 1540.88 Q1331.52 1543.54 1331.52 1548.19 Q1331.52 1552.84 1333.49 1555.53 Q1335.48 1558.19 1338.93 1558.19 Q1342.33 1558.19 1344.32 1555.51 Q1346.32 1552.82 1346.32 1548.19 Q1346.32 1543.59 1344.32 1540.9 Q1342.33 1538.19 1338.93 1538.19 M1338.93 1534.58 Q1344.49 1534.58 1347.66 1538.19 Q1350.83 1541.8 1350.83 1548.19 Q1350.83 1554.56 1347.66 1558.19 Q1344.49 1561.8 1338.93 1561.8 Q1333.35 1561.8 1330.18 1558.19 Q1327.03 1554.56 1327.03 1548.19 Q1327.03 1541.8 1330.18 1538.19 Q1333.35 1534.58 1338.93 1534.58 Z" fill="#000000" fill-rule="evenodd" fill-opacity="1" /><path clip-path="url(#clip170)" d="M1379.44 1545.48 L1379.44 1561.13 L1375.18 1561.13 L1375.18 1545.62 Q1375.18 1541.94 1373.75 1540.11 Q1372.31 1538.28 1369.44 1538.28 Q1365.99 1538.28 1364 1540.48 Q1362.01 1542.68 1362.01 1546.48 L1362.01 1561.13 L1357.73 1561.13 L1357.73 1535.21 L1362.01 1535.21 L1362.01 1539.23 Q1363.54 1536.9 1365.6 1535.74 Q1367.68 1534.58 1370.39 1534.58 Q1374.86 1534.58 1377.15 1537.36 Q1379.44 1540.11 1379.44 1545.48 Z" fill="#000000" fill-rule="evenodd" fill-opacity="1" /><path clip-path="url(#clip170)" d="M1404.46 1535.97 L1404.46 1540 Q1402.66 1539.07 1400.71 1538.61 Q1398.77 1538.15 1396.69 1538.15 Q1393.51 1538.15 1391.92 1539.12 Q1390.34 1540.09 1390.34 1542.03 Q1390.34 1543.52 1391.48 1544.37 Q1392.61 1545.21 1396.04 1545.97 L1397.5 1546.29 Q1402.03 1547.27 1403.93 1549.05 Q1405.85 1550.81 1405.85 1553.98 Q1405.85 1557.59 1402.98 1559.7 Q1400.13 1561.8 1395.13 1561.8 Q1393.05 1561.8 1390.78 1561.39 Q1388.54 1560.99 1386.04 1560.18 L1386.04 1555.78 Q1388.4 1557.01 1390.69 1557.64 Q1392.98 1558.24 1395.23 1558.24 Q1398.24 1558.24 1399.86 1557.22 Q1401.48 1556.18 1401.48 1554.3 Q1401.48 1552.57 1400.3 1551.64 Q1399.14 1550.72 1395.18 1549.86 L1393.7 1549.51 Q1389.74 1548.68 1387.98 1546.97 Q1386.22 1545.23 1386.22 1542.22 Q1386.22 1538.56 1388.81 1536.57 Q1391.41 1534.58 1396.18 1534.58 Q1398.54 1534.58 1400.62 1534.93 Q1402.7 1535.28 1404.46 1535.97 Z" fill="#000000" fill-rule="evenodd" fill-opacity="1" /><polyline clip-path="url(#clip172)" style="stroke:#ffffff; stroke-linecap:butt; stroke-linejoin:round; stroke-width:4; stroke-opacity:1; fill:none" points="
  240.129,1317.44 2352.76,1317.44 
  "/>
<polyline clip-path="url(#clip172)" style="stroke:#ffffff; stroke-linecap:butt; stroke-linejoin:round; stroke-width:4; stroke-opacity:1; fill:none" points="
  240.129,1107.16 2352.76,1107.16 
  "/>
<polyline clip-path="url(#clip172)" style="stroke:#ffffff; stroke-linecap:butt; stroke-linejoin:round; stroke-width:4; stroke-opacity:1; fill:none" points="
  240.129,896.881 2352.76,896.881 
  "/>
<polyline clip-path="url(#clip172)" style="stroke:#ffffff; stroke-linecap:butt; stroke-linejoin:round; stroke-width:4; stroke-opacity:1; fill:none" points="
  240.129,686.6 2352.76,686.6 
  "/>
<polyline clip-path="url(#clip172)" style="stroke:#ffffff; stroke-linecap:butt; stroke-linejoin:round; stroke-width:4; stroke-opacity:1; fill:none" points="
  240.129,476.32 2352.76,476.32 
  "/>
<polyline clip-path="url(#clip172)" style="stroke:#ffffff; stroke-linecap:butt; stroke-linejoin:round; stroke-width:4; stroke-opacity:1; fill:none" points="
  240.129,266.039 2352.76,266.039 
  "/>
<polyline clip-path="url(#clip172)" style="stroke:#ffffff; stroke-linecap:butt; stroke-linejoin:round; stroke-width:2; stroke-opacity:1; fill:none" points="
  240.129,1422.58 2352.76,1422.58 
  "/>
<polyline clip-path="url(#clip172)" style="stroke:#ffffff; stroke-linecap:butt; stroke-linejoin:round; stroke-width:2; stroke-opacity:1; fill:none" points="
  240.129,1212.3 2352.76,1212.3 
  "/>
<polyline clip-path="url(#clip172)" style="stroke:#ffffff; stroke-linecap:butt; stroke-linejoin:round; stroke-width:2; stroke-opacity:1; fill:none" points="
  240.129,1002.02 2352.76,1002.02 
  "/>
<polyline clip-path="url(#clip172)" style="stroke:#ffffff; stroke-linecap:butt; stroke-linejoin:round; stroke-width:2; stroke-opacity:1; fill:none" points="
  240.129,791.741 2352.76,791.741 
  "/>
<polyline clip-path="url(#clip172)" style="stroke:#ffffff; stroke-linecap:butt; stroke-linejoin:round; stroke-width:2; stroke-opacity:1; fill:none" points="
  240.129,581.46 2352.76,581.46 
  "/>
<polyline clip-path="url(#clip172)" style="stroke:#ffffff; stroke-linecap:butt; stroke-linejoin:round; stroke-width:2; stroke-opacity:1; fill:none" points="
  240.129,371.18 2352.76,371.18 
  "/>
<polyline clip-path="url(#clip172)" style="stroke:#ffffff; stroke-linecap:butt; stroke-linejoin:round; stroke-width:2; stroke-opacity:1; fill:none" points="
  240.129,160.899 2352.76,160.899 
  "/>
<polyline clip-path="url(#clip170)" style="stroke:#ffffff; stroke-linecap:butt; stroke-linejoin:round; stroke-width:4; stroke-opacity:1; fill:none" points="
  240.129,1444.78 240.129,106.192 
  "/>
<polyline clip-path="url(#clip170)" style="stroke:#333333; stroke-linecap:butt; stroke-linejoin:round; stroke-width:4; stroke-opacity:1; fill:none" points="
  240.129,1317.44 221.232,1317.44 
  "/>
<polyline clip-path="url(#clip170)" style="stroke:#333333; stroke-linecap:butt; stroke-linejoin:round; stroke-width:4; stroke-opacity:1; fill:none" points="
  240.129,1107.16 221.232,1107.16 
  "/>
<polyline clip-path="url(#clip170)" style="stroke:#333333; stroke-linecap:butt; stroke-linejoin:round; stroke-width:4; stroke-opacity:1; fill:none" points="
  240.129,896.881 221.232,896.881 
  "/>
<polyline clip-path="url(#clip170)" style="stroke:#333333; stroke-linecap:butt; stroke-linejoin:round; stroke-width:4; stroke-opacity:1; fill:none" points="
  240.129,686.6 221.232,686.6 
  "/>
<polyline clip-path="url(#clip170)" style="stroke:#333333; stroke-linecap:butt; stroke-linejoin:round; stroke-width:4; stroke-opacity:1; fill:none" points="
  240.129,476.32 221.232,476.32 
  "/>
<polyline clip-path="url(#clip170)" style="stroke:#333333; stroke-linecap:butt; stroke-linejoin:round; stroke-width:4; stroke-opacity:1; fill:none" points="
  240.129,266.039 221.232,266.039 
  "/>
<polyline clip-path="url(#clip170)" style="stroke:#333333; stroke-linecap:butt; stroke-linejoin:round; stroke-width:4; stroke-opacity:1; fill:none" points="
  240.129,1422.58 230.681,1422.58 
  "/>
<polyline clip-path="url(#clip170)" style="stroke:#333333; stroke-linecap:butt; stroke-linejoin:round; stroke-width:4; stroke-opacity:1; fill:none" points="
  240.129,1212.3 230.681,1212.3 
  "/>
<polyline clip-path="url(#clip170)" style="stroke:#333333; stroke-linecap:butt; stroke-linejoin:round; stroke-width:4; stroke-opacity:1; fill:none" points="
  240.129,1002.02 230.681,1002.02 
  "/>
<polyline clip-path="url(#clip170)" style="stroke:#333333; stroke-linecap:butt; stroke-linejoin:round; stroke-width:4; stroke-opacity:1; fill:none" points="
  240.129,791.741 230.681,791.741 
  "/>
<polyline clip-path="url(#clip170)" style="stroke:#333333; stroke-linecap:butt; stroke-linejoin:round; stroke-width:4; stroke-opacity:1; fill:none" points="
  240.129,581.46 230.681,581.46 
  "/>
<polyline clip-path="url(#clip170)" style="stroke:#333333; stroke-linecap:butt; stroke-linejoin:round; stroke-width:4; stroke-opacity:1; fill:none" points="
  240.129,371.18 230.681,371.18 
  "/>
<polyline clip-path="url(#clip170)" style="stroke:#333333; stroke-linecap:butt; stroke-linejoin:round; stroke-width:4; stroke-opacity:1; fill:none" points="
  240.129,160.899 230.681,160.899 
  "/>
<path clip-path="url(#clip170)" d="M84.0467 1317.78 L106.304 1317.78 L106.304 1320.73 L84.0467 1320.73 L84.0467 1317.78 Z" fill="#4c4c4c" fill-rule="evenodd" fill-opacity="1" /><path clip-path="url(#clip170)" d="M113.908 1304.48 L127.675 1304.48 L127.675 1307.43 L117.119 1307.43 L117.119 1313.79 Q117.883 1313.53 118.647 1313.41 Q119.411 1313.27 120.175 1313.27 Q124.515 1313.27 127.05 1315.65 Q129.585 1318.02 129.585 1322.09 Q129.585 1326.27 126.98 1328.6 Q124.376 1330.91 119.637 1330.91 Q118.005 1330.91 116.303 1330.63 Q114.619 1330.35 112.814 1329.79 L112.814 1326.27 Q114.376 1327.12 116.043 1327.54 Q117.71 1327.95 119.567 1327.95 Q122.571 1327.95 124.324 1326.37 Q126.078 1324.79 126.078 1322.09 Q126.078 1319.38 124.324 1317.8 Q122.571 1316.22 119.567 1316.22 Q118.161 1316.22 116.755 1316.53 Q115.366 1316.84 113.908 1317.5 L113.908 1304.48 Z" fill="#4c4c4c" fill-rule="evenodd" fill-opacity="1" /><path clip-path="url(#clip170)" d="M143.994 1318.09 Q141.494 1318.09 140.053 1319.43 Q138.63 1320.77 138.63 1323.11 Q138.63 1325.45 140.053 1326.79 Q141.494 1328.13 143.994 1328.13 Q146.494 1328.13 147.935 1326.79 Q149.376 1325.44 149.376 1323.11 Q149.376 1320.77 147.935 1319.43 Q146.512 1318.09 143.994 1318.09 M140.487 1316.6 Q138.23 1316.04 136.963 1314.5 Q135.713 1312.95 135.713 1310.73 Q135.713 1307.62 137.918 1305.82 Q140.14 1304.01 143.994 1304.01 Q147.866 1304.01 150.071 1305.82 Q152.275 1307.62 152.275 1310.73 Q152.275 1312.95 151.008 1314.5 Q149.758 1316.04 147.519 1316.6 Q150.053 1317.19 151.46 1318.91 Q152.883 1320.63 152.883 1323.11 Q152.883 1326.88 150.574 1328.89 Q148.282 1330.91 143.994 1330.91 Q139.706 1330.91 137.397 1328.89 Q135.105 1326.88 135.105 1323.11 Q135.105 1320.63 136.529 1318.91 Q137.953 1317.19 140.487 1316.6 M139.203 1311.06 Q139.203 1313.08 140.453 1314.2 Q141.72 1315.33 143.994 1315.33 Q146.251 1315.33 147.519 1314.2 Q148.803 1313.08 148.803 1311.06 Q148.803 1309.05 147.519 1307.92 Q146.251 1306.79 143.994 1306.79 Q141.72 1306.79 140.453 1307.92 Q139.203 1309.05 139.203 1311.06 Z" fill="#4c4c4c" fill-rule="evenodd" fill-opacity="1" /><path clip-path="url(#clip170)" d="M159.116 1325.99 L162.779 1325.99 L162.779 1330.4 L159.116 1330.4 L159.116 1325.99 Z" fill="#4c4c4c" fill-rule="evenodd" fill-opacity="1" /><path clip-path="url(#clip170)" d="M170.452 1304.48 L184.22 1304.48 L184.22 1307.43 L173.664 1307.43 L173.664 1313.79 Q174.428 1313.53 175.192 1313.41 Q175.956 1313.27 176.72 1313.27 Q181.06 1313.27 183.595 1315.65 Q186.129 1318.02 186.129 1322.09 Q186.129 1326.27 183.525 1328.6 Q180.921 1330.91 176.182 1330.91 Q174.55 1330.91 172.848 1330.63 Q171.164 1330.35 169.359 1329.79 L169.359 1326.27 Q170.921 1327.12 172.588 1327.54 Q174.255 1327.95 176.112 1327.95 Q179.116 1327.95 180.869 1326.37 Q182.623 1324.79 182.623 1322.09 Q182.623 1319.38 180.869 1317.8 Q179.116 1316.22 176.112 1316.22 Q174.706 1316.22 173.3 1316.53 Q171.911 1316.84 170.452 1317.5 L170.452 1304.48 Z" fill="#4c4c4c" fill-rule="evenodd" fill-opacity="1" /><path clip-path="url(#clip170)" d="M83.3002 1107.5 L105.557 1107.5 L105.557 1110.45 L83.3002 1110.45 L83.3002 1107.5 Z" fill="#4c4c4c" fill-rule="evenodd" fill-opacity="1" /><path clip-path="url(#clip170)" d="M113.161 1094.2 L126.928 1094.2 L126.928 1097.15 L116.373 1097.15 L116.373 1103.51 Q117.137 1103.25 117.901 1103.12 Q118.665 1102.99 119.428 1102.99 Q123.769 1102.99 126.303 1105.36 Q128.838 1107.74 128.838 1111.81 Q128.838 1115.99 126.234 1118.32 Q123.63 1120.62 118.89 1120.62 Q117.258 1120.62 115.557 1120.35 Q113.873 1120.07 112.067 1119.51 L112.067 1115.99 Q113.63 1116.84 115.297 1117.26 Q116.963 1117.67 118.821 1117.67 Q121.824 1117.67 123.578 1116.09 Q125.331 1114.51 125.331 1111.81 Q125.331 1109.1 123.578 1107.52 Q121.824 1105.94 118.821 1105.94 Q117.415 1105.94 116.008 1106.25 Q114.619 1106.56 113.161 1107.22 L113.161 1094.2 Z" fill="#4c4c4c" fill-rule="evenodd" fill-opacity="1" /><path clip-path="url(#clip170)" d="M143.248 1107.81 Q140.748 1107.81 139.307 1109.15 Q137.883 1110.49 137.883 1112.83 Q137.883 1115.17 139.307 1116.51 Q140.748 1117.85 143.248 1117.85 Q145.748 1117.85 147.189 1116.51 Q148.63 1115.16 148.63 1112.83 Q148.63 1110.49 147.189 1109.15 Q145.765 1107.81 143.248 1107.81 M139.741 1106.32 Q137.484 1105.76 136.217 1104.22 Q134.967 1102.67 134.967 1100.45 Q134.967 1097.34 137.171 1095.54 Q139.394 1093.73 143.248 1093.73 Q147.119 1093.73 149.324 1095.54 Q151.529 1097.34 151.529 1100.45 Q151.529 1102.67 150.262 1104.22 Q149.012 1105.76 146.772 1106.32 Q149.307 1106.91 150.713 1108.63 Q152.137 1110.35 152.137 1112.83 Q152.137 1116.6 149.828 1118.61 Q147.536 1120.62 143.248 1120.62 Q138.96 1120.62 136.651 1118.61 Q134.359 1116.6 134.359 1112.83 Q134.359 1110.35 135.783 1108.63 Q137.206 1106.91 139.741 1106.32 M138.456 1100.78 Q138.456 1102.8 139.706 1103.92 Q140.973 1105.05 143.248 1105.05 Q145.505 1105.05 146.772 1103.92 Q148.057 1102.8 148.057 1100.78 Q148.057 1098.77 146.772 1097.64 Q145.505 1096.51 143.248 1096.51 Q140.973 1096.51 139.706 1097.64 Q138.456 1098.77 138.456 1100.78 Z" fill="#4c4c4c" fill-rule="evenodd" fill-opacity="1" /><path clip-path="url(#clip170)" d="M158.369 1115.71 L162.032 1115.71 L162.032 1120.12 L158.369 1120.12 L158.369 1115.71 Z" fill="#4c4c4c" fill-rule="evenodd" fill-opacity="1" /><path clip-path="url(#clip170)" d="M177.171 1096.51 Q174.463 1096.51 173.091 1099.18 Q171.737 1101.84 171.737 1107.19 Q171.737 1112.52 173.091 1115.19 Q174.463 1117.85 177.171 1117.85 Q179.897 1117.85 181.251 1115.19 Q182.623 1112.52 182.623 1107.19 Q182.623 1101.84 181.251 1099.18 Q179.897 1096.51 177.171 1096.51 M177.171 1093.73 Q181.529 1093.73 183.82 1097.19 Q186.129 1100.62 186.129 1107.19 Q186.129 1113.73 183.82 1117.19 Q181.529 1120.62 177.171 1120.62 Q172.814 1120.62 170.505 1117.19 Q168.213 1113.73 168.213 1107.19 Q168.213 1100.62 170.505 1097.19 Q172.814 1093.73 177.171 1093.73 Z" fill="#4c4c4c" fill-rule="evenodd" fill-opacity="1" /><path clip-path="url(#clip170)" d="M84.0467 897.219 L106.304 897.219 L106.304 900.171 L84.0467 900.171 L84.0467 897.219 Z" fill="#4c4c4c" fill-rule="evenodd" fill-opacity="1" /><path clip-path="url(#clip170)" d="M113.908 883.921 L127.675 883.921 L127.675 886.872 L117.119 886.872 L117.119 893.226 Q117.883 892.966 118.647 892.844 Q119.411 892.706 120.175 892.706 Q124.515 892.706 127.05 895.084 Q129.585 897.462 129.585 901.525 Q129.585 905.709 126.98 908.035 Q124.376 910.344 119.637 910.344 Q118.005 910.344 116.303 910.067 Q114.619 909.789 112.814 909.233 L112.814 905.709 Q114.376 906.56 116.043 906.976 Q117.71 907.393 119.567 907.393 Q122.571 907.393 124.324 905.813 Q126.078 904.233 126.078 901.525 Q126.078 898.817 124.324 897.237 Q122.571 895.657 119.567 895.657 Q118.161 895.657 116.755 895.969 Q115.366 896.282 113.908 896.942 L113.908 883.921 Z" fill="#4c4c4c" fill-rule="evenodd" fill-opacity="1" /><path clip-path="url(#clip170)" d="M135.609 883.921 L152.275 883.921 L152.275 885.414 L142.866 909.841 L139.203 909.841 L148.057 886.872 L135.609 886.872 L135.609 883.921 Z" fill="#4c4c4c" fill-rule="evenodd" fill-opacity="1" /><path clip-path="url(#clip170)" d="M159.116 905.431 L162.779 905.431 L162.779 909.841 L159.116 909.841 L159.116 905.431 Z" fill="#4c4c4c" fill-rule="evenodd" fill-opacity="1" /><path clip-path="url(#clip170)" d="M170.452 883.921 L184.22 883.921 L184.22 886.872 L173.664 886.872 L173.664 893.226 Q174.428 892.966 175.192 892.844 Q175.956 892.706 176.72 892.706 Q181.06 892.706 183.595 895.084 Q186.129 897.462 186.129 901.525 Q186.129 905.709 183.525 908.035 Q180.921 910.344 176.182 910.344 Q174.55 910.344 172.848 910.067 Q171.164 909.789 169.359 909.233 L169.359 905.709 Q170.921 906.56 172.588 906.976 Q174.255 907.393 176.112 907.393 Q179.116 907.393 180.869 905.813 Q182.623 904.233 182.623 901.525 Q182.623 898.817 180.869 897.237 Q179.116 895.657 176.112 895.657 Q174.706 895.657 173.3 895.969 Q171.911 896.282 170.452 896.942 L170.452 883.921 Z" fill="#4c4c4c" fill-rule="evenodd" fill-opacity="1" /><path clip-path="url(#clip170)" d="M83.3002 686.939 L105.557 686.939 L105.557 689.89 L83.3002 689.89 L83.3002 686.939 Z" fill="#4c4c4c" fill-rule="evenodd" fill-opacity="1" /><path clip-path="url(#clip170)" d="M113.161 673.64 L126.928 673.64 L126.928 676.592 L116.373 676.592 L116.373 682.946 Q117.137 682.685 117.901 682.564 Q118.665 682.425 119.428 682.425 Q123.769 682.425 126.303 684.804 Q128.838 687.182 128.838 691.244 Q128.838 695.428 126.234 697.755 Q123.63 700.064 118.89 700.064 Q117.258 700.064 115.557 699.786 Q113.873 699.508 112.067 698.953 L112.067 695.428 Q113.63 696.279 115.297 696.696 Q116.963 697.112 118.821 697.112 Q121.824 697.112 123.578 695.533 Q125.331 693.953 125.331 691.244 Q125.331 688.536 123.578 686.956 Q121.824 685.376 118.821 685.376 Q117.415 685.376 116.008 685.689 Q114.619 686.001 113.161 686.661 L113.161 673.64 Z" fill="#4c4c4c" fill-rule="evenodd" fill-opacity="1" /><path clip-path="url(#clip170)" d="M134.862 673.64 L151.529 673.64 L151.529 675.133 L142.119 699.56 L138.456 699.56 L147.31 676.592 L134.862 676.592 L134.862 673.64 Z" fill="#4c4c4c" fill-rule="evenodd" fill-opacity="1" /><path clip-path="url(#clip170)" d="M158.369 695.151 L162.032 695.151 L162.032 699.56 L158.369 699.56 L158.369 695.151 Z" fill="#4c4c4c" fill-rule="evenodd" fill-opacity="1" /><path clip-path="url(#clip170)" d="M177.171 675.949 Q174.463 675.949 173.091 678.623 Q171.737 681.279 171.737 686.626 Q171.737 691.956 173.091 694.63 Q174.463 697.286 177.171 697.286 Q179.897 697.286 181.251 694.63 Q182.623 691.956 182.623 686.626 Q182.623 681.279 181.251 678.623 Q179.897 675.949 177.171 675.949 M177.171 673.172 Q181.529 673.172 183.82 676.626 Q186.129 680.064 186.129 686.626 Q186.129 693.172 183.82 696.626 Q181.529 700.064 177.171 700.064 Q172.814 700.064 170.505 696.626 Q168.213 693.172 168.213 686.626 Q168.213 680.064 170.505 676.626 Q172.814 673.172 177.171 673.172 Z" fill="#4c4c4c" fill-rule="evenodd" fill-opacity="1" /><path clip-path="url(#clip170)" d="M84.0467 476.658 L106.304 476.658 L106.304 479.61 L84.0467 479.61 L84.0467 476.658 Z" fill="#4c4c4c" fill-rule="evenodd" fill-opacity="1" /><path clip-path="url(#clip170)" d="M113.908 463.36 L127.675 463.36 L127.675 466.311 L117.119 466.311 L117.119 472.665 Q117.883 472.405 118.647 472.283 Q119.411 472.145 120.175 472.145 Q124.515 472.145 127.05 474.523 Q129.585 476.901 129.585 480.964 Q129.585 485.148 126.98 487.474 Q124.376 489.783 119.637 489.783 Q118.005 489.783 116.303 489.506 Q114.619 489.228 112.814 488.672 L112.814 485.148 Q114.376 485.999 116.043 486.415 Q117.71 486.832 119.567 486.832 Q122.571 486.832 124.324 485.252 Q126.078 483.672 126.078 480.964 Q126.078 478.256 124.324 476.676 Q122.571 475.096 119.567 475.096 Q118.161 475.096 116.755 475.408 Q115.366 475.721 113.908 476.381 L113.908 463.36 Z" fill="#4c4c4c" fill-rule="evenodd" fill-opacity="1" /><path clip-path="url(#clip170)" d="M144.428 474.922 Q142.067 474.922 140.678 476.537 Q139.307 478.151 139.307 480.964 Q139.307 483.759 140.678 485.391 Q142.067 487.006 144.428 487.006 Q146.789 487.006 148.161 485.391 Q149.55 483.759 149.55 480.964 Q149.55 478.151 148.161 476.537 Q146.789 474.922 144.428 474.922 M151.39 463.933 L151.39 467.127 Q150.071 466.502 148.716 466.172 Q147.38 465.843 146.06 465.843 Q142.588 465.843 140.748 468.186 Q138.925 470.53 138.664 475.27 Q139.689 473.759 141.234 472.961 Q142.779 472.145 144.637 472.145 Q148.543 472.145 150.8 474.523 Q153.074 476.884 153.074 480.964 Q153.074 484.957 150.713 487.37 Q148.352 489.783 144.428 489.783 Q139.932 489.783 137.553 486.346 Q135.175 482.891 135.175 476.346 Q135.175 470.2 138.092 466.554 Q141.008 462.891 145.921 462.891 Q147.241 462.891 148.578 463.152 Q149.932 463.412 151.39 463.933 Z" fill="#4c4c4c" fill-rule="evenodd" fill-opacity="1" /><path clip-path="url(#clip170)" d="M159.116 484.87 L162.779 484.87 L162.779 489.28 L159.116 489.28 L159.116 484.87 Z" fill="#4c4c4c" fill-rule="evenodd" fill-opacity="1" /><path clip-path="url(#clip170)" d="M170.452 463.36 L184.22 463.36 L184.22 466.311 L173.664 466.311 L173.664 472.665 Q174.428 472.405 175.192 472.283 Q175.956 472.145 176.72 472.145 Q181.06 472.145 183.595 474.523 Q186.129 476.901 186.129 480.964 Q186.129 485.148 183.525 487.474 Q180.921 489.783 176.182 489.783 Q174.55 489.783 172.848 489.506 Q171.164 489.228 169.359 488.672 L169.359 485.148 Q170.921 485.999 172.588 486.415 Q174.255 486.832 176.112 486.832 Q179.116 486.832 180.869 485.252 Q182.623 483.672 182.623 480.964 Q182.623 478.256 180.869 476.676 Q179.116 475.096 176.112 475.096 Q174.706 475.096 173.3 475.408 Q171.911 475.721 170.452 476.381 L170.452 463.36 Z" fill="#4c4c4c" fill-rule="evenodd" fill-opacity="1" /><path clip-path="url(#clip170)" d="M83.3002 266.378 L105.557 266.378 L105.557 269.329 L83.3002 269.329 L83.3002 266.378 Z" fill="#4c4c4c" fill-rule="evenodd" fill-opacity="1" /><path clip-path="url(#clip170)" d="M113.161 253.079 L126.928 253.079 L126.928 256.031 L116.373 256.031 L116.373 262.385 Q117.137 262.124 117.901 262.003 Q118.665 261.864 119.428 261.864 Q123.769 261.864 126.303 264.243 Q128.838 266.621 128.838 270.683 Q128.838 274.867 126.234 277.194 Q123.63 279.503 118.89 279.503 Q117.258 279.503 115.557 279.225 Q113.873 278.947 112.067 278.392 L112.067 274.867 Q113.63 275.718 115.297 276.135 Q116.963 276.551 118.821 276.551 Q121.824 276.551 123.578 274.972 Q125.331 273.392 125.331 270.683 Q125.331 267.975 123.578 266.395 Q121.824 264.815 118.821 264.815 Q117.415 264.815 116.008 265.128 Q114.619 265.44 113.161 266.1 L113.161 253.079 Z" fill="#4c4c4c" fill-rule="evenodd" fill-opacity="1" /><path clip-path="url(#clip170)" d="M143.682 264.642 Q141.321 264.642 139.932 266.256 Q138.56 267.871 138.56 270.683 Q138.56 273.479 139.932 275.111 Q141.321 276.725 143.682 276.725 Q146.043 276.725 147.414 275.111 Q148.803 273.479 148.803 270.683 Q148.803 267.871 147.414 266.256 Q146.043 264.642 143.682 264.642 M150.644 253.652 L150.644 256.847 Q149.324 256.222 147.97 255.892 Q146.633 255.562 145.314 255.562 Q141.842 255.562 140.001 257.906 Q138.178 260.249 137.918 264.989 Q138.942 263.479 140.487 262.68 Q142.032 261.864 143.89 261.864 Q147.796 261.864 150.053 264.243 Q152.328 266.604 152.328 270.683 Q152.328 274.676 149.966 277.09 Q147.605 279.503 143.682 279.503 Q139.185 279.503 136.807 276.065 Q134.428 272.611 134.428 266.065 Q134.428 259.92 137.345 256.274 Q140.262 252.611 145.175 252.611 Q146.494 252.611 147.831 252.871 Q149.185 253.131 150.644 253.652 Z" fill="#4c4c4c" fill-rule="evenodd" fill-opacity="1" /><path clip-path="url(#clip170)" d="M158.369 274.59 L162.032 274.59 L162.032 278.999 L158.369 278.999 L158.369 274.59 Z" fill="#4c4c4c" fill-rule="evenodd" fill-opacity="1" /><path clip-path="url(#clip170)" d="M177.171 255.388 Q174.463 255.388 173.091 258.062 Q171.737 260.718 171.737 266.065 Q171.737 271.395 173.091 274.069 Q174.463 276.725 177.171 276.725 Q179.897 276.725 181.251 274.069 Q182.623 271.395 182.623 266.065 Q182.623 260.718 181.251 258.062 Q179.897 255.388 177.171 255.388 M177.171 252.611 Q181.529 252.611 183.82 256.065 Q186.129 259.503 186.129 266.065 Q186.129 272.611 183.82 276.065 Q181.529 279.503 177.171 279.503 Q172.814 279.503 170.505 276.065 Q168.213 272.611 168.213 266.065 Q168.213 259.503 170.505 256.065 Q172.814 252.611 177.171 252.611 Z" fill="#4c4c4c" fill-rule="evenodd" fill-opacity="1" /><path clip-path="url(#clip170)" d="M20.3722 985.184 L20.3722 955.948 L24.3073 955.948 L24.3073 968.216 L54.9322 968.216 L54.9322 972.915 L24.3073 972.915 L24.3073 985.184 L20.3722 985.184 Z" fill="#000000" fill-rule="evenodd" fill-opacity="1" /><path clip-path="url(#clip170)" d="M40.9045 937.499 L42.9878 937.499 L42.9878 957.082 Q47.3859 956.804 49.7007 954.443 Q51.9924 952.059 51.9924 947.823 Q51.9924 945.369 51.3905 943.078 Q50.7887 940.763 49.585 938.494 L53.6127 938.494 Q54.5849 940.786 55.0942 943.193 Q55.6035 945.601 55.6035 948.078 Q55.6035 954.281 51.9924 957.916 Q48.3813 961.527 42.2239 961.527 Q35.8582 961.527 32.1314 958.101 Q28.3814 954.652 28.3814 948.818 Q28.3814 943.587 31.761 940.555 Q35.1174 937.499 40.9045 937.499 M39.6545 941.758 Q36.1591 941.805 34.0758 943.726 Q31.9925 945.624 31.9925 948.772 Q31.9925 952.337 34.0063 954.49 Q36.0202 956.619 39.6776 956.943 L39.6545 941.758 Z" fill="#000000" fill-rule="evenodd" fill-opacity="1" /><path clip-path="url(#clip170)" d="M29.7703 913.981 L33.798 913.981 Q32.8721 915.786 32.4091 917.731 Q31.9462 919.675 31.9462 921.758 Q31.9462 924.93 32.9184 926.527 Q33.8906 928.101 35.835 928.101 Q37.3165 928.101 38.173 926.967 Q39.0063 925.832 39.7702 922.406 L40.0943 920.948 Q41.0665 916.411 42.8489 914.513 Q44.6081 912.592 47.7794 912.592 Q51.3905 912.592 53.497 915.462 Q55.6035 918.309 55.6035 923.309 Q55.6035 925.393 55.1868 927.661 Q54.7933 929.906 53.9831 932.406 L49.585 932.406 Q50.8118 930.045 51.4368 927.754 Q52.0387 925.462 52.0387 923.217 Q52.0387 920.207 51.0201 918.587 Q49.9785 916.967 48.1035 916.967 Q46.3674 916.967 45.4415 918.147 Q44.5155 919.305 43.6591 923.263 L43.3118 924.744 Q42.4785 928.703 40.7656 930.462 Q39.0295 932.221 36.0202 932.221 Q32.3628 932.221 30.3721 929.629 Q28.3814 927.036 28.3814 922.268 Q28.3814 919.907 28.7286 917.823 Q29.0758 915.74 29.7703 913.981 Z" fill="#000000" fill-rule="evenodd" fill-opacity="1" /><path clip-path="url(#clip170)" d="M21.6453 901.596 L29.0064 901.596 L29.0064 892.823 L32.3165 892.823 L32.3165 901.596 L46.3905 901.596 Q49.5618 901.596 50.4646 900.74 Q51.3674 899.86 51.3674 897.198 L51.3674 892.823 L54.9322 892.823 L54.9322 897.198 Q54.9322 902.129 53.1035 904.004 Q51.2516 905.879 46.3905 905.879 L32.3165 905.879 L32.3165 909.004 L29.0064 909.004 L29.0064 905.879 L21.6453 905.879 L21.6453 901.596 Z" fill="#000000" fill-rule="evenodd" fill-opacity="1" /><path clip-path="url(#clip170)" d="M18.9138 872.152 L18.9138 867.893 L54.9322 867.893 L54.9322 872.152 L18.9138 872.152 Z" fill="#000000" fill-rule="evenodd" fill-opacity="1" /><path clip-path="url(#clip170)" d="M31.9925 848.935 Q31.9925 852.361 34.6776 854.351 Q37.3397 856.342 41.9924 856.342 Q46.6452 856.342 49.3303 854.374 Q51.9924 852.384 51.9924 848.935 Q51.9924 845.532 49.3072 843.541 Q46.622 841.55 41.9924 841.55 Q37.386 841.55 34.7008 843.541 Q31.9925 845.532 31.9925 848.935 M28.3814 848.935 Q28.3814 843.379 31.9925 840.208 Q35.6036 837.037 41.9924 837.037 Q48.3581 837.037 51.9924 840.208 Q55.6035 843.379 55.6035 848.935 Q55.6035 854.513 51.9924 857.685 Q48.3581 860.833 41.9924 860.833 Q35.6036 860.833 31.9925 857.685 Q28.3814 854.513 28.3814 848.935 Z" fill="#000000" fill-rule="evenodd" fill-opacity="1" /><path clip-path="url(#clip170)" d="M41.6683 812.916 Q37.0387 812.916 34.4925 814.838 Q31.9462 816.736 31.9462 820.185 Q31.9462 823.611 34.4925 825.532 Q37.0387 827.43 41.6683 827.43 Q46.2748 827.43 48.8211 825.532 Q51.3674 823.611 51.3674 820.185 Q51.3674 816.736 48.8211 814.838 Q46.2748 812.916 41.6683 812.916 M51.7146 808.657 Q58.3349 808.657 61.5525 811.597 Q64.7932 814.537 64.7932 820.601 Q64.7932 822.847 64.446 824.838 Q64.1219 826.828 63.4275 828.703 L59.284 828.703 Q60.3025 826.828 60.7886 825 Q61.2747 823.171 61.2747 821.273 Q61.2747 817.083 59.0757 815 Q56.8997 812.916 52.4785 812.916 L50.372 812.916 Q52.6637 814.236 53.7979 816.296 Q54.9322 818.356 54.9322 821.226 Q54.9322 825.995 51.2979 828.912 Q47.6637 831.828 41.6683 831.828 Q35.6499 831.828 32.0156 828.912 Q28.3814 825.995 28.3814 821.226 Q28.3814 818.356 29.5156 816.296 Q30.6499 814.236 32.9415 812.916 L29.0064 812.916 L29.0064 808.657 L51.7146 808.657 Z" fill="#000000" fill-rule="evenodd" fill-opacity="1" /><path clip-path="url(#clip170)" d="M40.048 802.037 L40.048 789.56 L43.8443 789.56 L43.8443 802.037 L40.048 802.037 Z" fill="#000000" fill-rule="evenodd" fill-opacity="1" /><path clip-path="url(#clip170)" d="M18.9138 782.778 L18.9138 778.518 L54.9322 778.518 L54.9322 782.778 L18.9138 782.778 Z" fill="#000000" fill-rule="evenodd" fill-opacity="1" /><path clip-path="url(#clip170)" d="M29.0064 769.606 L29.0064 765.347 L54.9322 765.347 L54.9322 769.606 L29.0064 769.606 M18.9138 769.606 L18.9138 765.347 L24.3073 765.347 L24.3073 769.606 L18.9138 769.606 Z" fill="#000000" fill-rule="evenodd" fill-opacity="1" /><path clip-path="url(#clip170)" d="M18.9138 756.597 L18.9138 752.315 L40.1869 752.315 L29.0064 739.607 L29.0064 734.167 L41.1359 747.917 L54.9322 733.588 L54.9322 739.144 L42.2702 752.315 L54.9322 752.315 L54.9322 756.597 L18.9138 756.597 Z" fill="#000000" fill-rule="evenodd" fill-opacity="1" /><path clip-path="url(#clip170)" d="M40.9045 708.496 L42.9878 708.496 L42.9878 728.079 Q47.3859 727.801 49.7007 725.44 Q51.9924 723.056 51.9924 718.82 Q51.9924 716.366 51.3905 714.074 Q50.7887 711.759 49.585 709.491 L53.6127 709.491 Q54.5849 711.783 55.0942 714.19 Q55.6035 716.597 55.6035 719.074 Q55.6035 725.278 51.9924 728.912 Q48.3813 732.523 42.2239 732.523 Q35.8582 732.523 32.1314 729.097 Q28.3814 725.648 28.3814 719.815 Q28.3814 714.584 31.761 711.551 Q35.1174 708.496 40.9045 708.496 M39.6545 712.755 Q36.1591 712.801 34.0758 714.722 Q31.9925 716.621 31.9925 719.769 Q31.9925 723.333 34.0063 725.486 Q36.0202 727.616 39.6776 727.94 L39.6545 712.755 Z" fill="#000000" fill-rule="evenodd" fill-opacity="1" /><path clip-path="url(#clip170)" d="M18.9138 701.505 L18.9138 697.246 L54.9322 697.246 L54.9322 701.505 L18.9138 701.505 Z" fill="#000000" fill-rule="evenodd" fill-opacity="1" /><path clip-path="url(#clip170)" d="M29.0064 688.334 L29.0064 684.074 L54.9322 684.074 L54.9322 688.334 L29.0064 688.334 M18.9138 688.334 L18.9138 684.074 L24.3073 684.074 L24.3073 688.334 L18.9138 688.334 Z" fill="#000000" fill-rule="evenodd" fill-opacity="1" /><path clip-path="url(#clip170)" d="M39.2841 653.612 L54.9322 653.612 L54.9322 657.871 L39.423 657.871 Q35.7424 657.871 33.9138 659.306 Q32.0851 660.741 32.0851 663.612 Q32.0851 667.061 34.2841 669.051 Q36.4832 671.042 40.2795 671.042 L54.9322 671.042 L54.9322 675.324 L18.9138 675.324 L18.9138 671.042 L33.0341 671.042 Q30.6962 669.514 29.5388 667.454 Q28.3814 665.371 28.3814 662.663 Q28.3814 658.195 31.1591 655.903 Q33.9138 653.612 39.2841 653.612 Z" fill="#000000" fill-rule="evenodd" fill-opacity="1" /><path clip-path="url(#clip170)" d="M31.9925 635.07 Q31.9925 638.496 34.6776 640.487 Q37.3397 642.477 41.9924 642.477 Q46.6452 642.477 49.3303 640.51 Q51.9924 638.519 51.9924 635.07 Q51.9924 631.667 49.3072 629.677 Q46.622 627.686 41.9924 627.686 Q37.386 627.686 34.7008 629.677 Q31.9925 631.667 31.9925 635.07 M28.3814 635.07 Q28.3814 629.515 31.9925 626.343 Q35.6036 623.172 41.9924 623.172 Q48.3581 623.172 51.9924 626.343 Q55.6035 629.515 55.6035 635.07 Q55.6035 640.649 51.9924 643.82 Q48.3581 646.968 41.9924 646.968 Q35.6036 646.968 31.9925 643.82 Q28.3814 640.649 28.3814 635.07 Z" fill="#000000" fill-rule="evenodd" fill-opacity="1" /><path clip-path="url(#clip170)" d="M31.9925 606.066 Q31.9925 609.492 34.6776 611.482 Q37.3397 613.473 41.9924 613.473 Q46.6452 613.473 49.3303 611.505 Q51.9924 609.515 51.9924 606.066 Q51.9924 602.663 49.3072 600.672 Q46.622 598.681 41.9924 598.681 Q37.386 598.681 34.7008 600.672 Q31.9925 602.663 31.9925 606.066 M28.3814 606.066 Q28.3814 600.51 31.9925 597.339 Q35.6036 594.168 41.9924 594.168 Q48.3581 594.168 51.9924 597.339 Q55.6035 600.51 55.6035 606.066 Q55.6035 611.644 51.9924 614.816 Q48.3581 617.964 41.9924 617.964 Q35.6036 617.964 31.9925 614.816 Q28.3814 611.644 28.3814 606.066 Z" fill="#000000" fill-rule="evenodd" fill-opacity="1" /><path clip-path="url(#clip170)" d="M32.9415 570.047 L18.9138 570.047 L18.9138 565.788 L54.9322 565.788 L54.9322 570.047 L51.0433 570.047 Q53.3581 571.39 54.4923 573.45 Q55.6035 575.487 55.6035 578.357 Q55.6035 583.056 51.8535 586.019 Q48.1035 588.959 41.9924 588.959 Q35.8813 588.959 32.1314 586.019 Q28.3814 583.056 28.3814 578.357 Q28.3814 575.487 29.5156 573.45 Q30.6267 571.39 32.9415 570.047 M41.9924 584.561 Q46.6915 584.561 49.3766 582.64 Q52.0387 580.695 52.0387 577.316 Q52.0387 573.936 49.3766 571.992 Q46.6915 570.047 41.9924 570.047 Q37.2934 570.047 34.6313 571.992 Q31.9462 573.936 31.9462 577.316 Q31.9462 580.695 34.6313 582.64 Q37.2934 584.561 41.9924 584.561 Z" fill="#000000" fill-rule="evenodd" fill-opacity="1" /><path clip-path="url(#clip170)" d="M1234.19 32.2799 L1234.19 51.84 L1228.86 51.84 L1228.86 32.4535 Q1228.86 27.8529 1227.07 25.567 Q1225.28 23.2811 1221.69 23.2811 Q1217.38 23.2811 1214.89 26.03 Q1212.4 28.7788 1212.4 33.5241 L1212.4 51.84 L1207.05 51.84 L1207.05 19.4328 L1212.4 19.4328 L1212.4 24.4675 Q1214.31 21.545 1216.89 20.0983 Q1219.49 18.6515 1222.88 18.6515 Q1228.46 18.6515 1231.32 22.1237 Q1234.19 25.567 1234.19 32.2799 Z" fill="#000000" fill-rule="evenodd" fill-opacity="1" /><path clip-path="url(#clip170)" d="M1272.53 34.3054 L1272.53 36.9095 L1248.05 36.9095 Q1248.4 42.4072 1251.35 45.3007 Q1254.33 48.1653 1259.62 48.1653 Q1262.69 48.1653 1265.55 47.4129 Q1268.45 46.6606 1271.28 45.156 L1271.28 50.1907 Q1268.42 51.406 1265.41 52.0425 Q1262.4 52.6791 1259.3 52.6791 Q1251.55 52.6791 1247.01 48.1653 Q1242.49 43.6514 1242.49 35.9547 Q1242.49 27.9975 1246.78 23.339 Q1251.09 18.6515 1258.38 18.6515 Q1264.92 18.6515 1268.71 22.876 Q1272.53 27.0716 1272.53 34.3054 M1267.2 32.7429 Q1267.15 28.3737 1264.74 25.7695 Q1262.37 23.1654 1258.44 23.1654 Q1253.98 23.1654 1251.29 25.6827 Q1248.63 28.2001 1248.22 32.7718 L1267.2 32.7429 Z" fill="#000000" fill-rule="evenodd" fill-opacity="1" /><path clip-path="url(#clip170)" d="M1286.53 10.2314 L1286.53 19.4328 L1297.5 19.4328 L1297.5 23.5705 L1286.53 23.5705 L1286.53 41.163 Q1286.53 45.1271 1287.6 46.2555 Q1288.7 47.384 1292.03 47.384 L1297.5 47.384 L1297.5 51.84 L1292.03 51.84 Q1285.87 51.84 1283.52 49.5541 Q1281.18 47.2393 1281.18 41.163 L1281.18 23.5705 L1277.27 23.5705 L1277.27 19.4328 L1281.18 19.4328 L1281.18 10.2314 L1286.53 10.2314 Z" fill="#000000" fill-rule="evenodd" fill-opacity="1" /><path clip-path="url(#clip170)" d="M1320.91 6.81709 L1320.91 11.2442 L1315.81 11.2442 Q1312.95 11.2442 1311.82 12.4016 Q1310.72 13.559 1310.72 16.5682 L1310.72 19.4328 L1319.49 19.4328 L1319.49 23.5705 L1310.72 23.5705 L1310.72 51.84 L1305.37 51.84 L1305.37 23.5705 L1300.28 23.5705 L1300.28 19.4328 L1305.37 19.4328 L1305.37 17.1758 Q1305.37 11.765 1307.89 9.30551 Q1310.4 6.81709 1315.87 6.81709 L1320.91 6.81709 Z" fill="#000000" fill-rule="evenodd" fill-opacity="1" /><path clip-path="url(#clip170)" d="M1325.36 6.81709 L1330.69 6.81709 L1330.69 51.84 L1325.36 51.84 L1325.36 6.81709 Z" fill="#000000" fill-rule="evenodd" fill-opacity="1" /><path clip-path="url(#clip170)" d="M1341.83 19.4328 L1347.15 19.4328 L1347.15 51.84 L1341.83 51.84 L1341.83 19.4328 M1341.83 6.81709 L1347.15 6.81709 L1347.15 13.559 L1341.83 13.559 L1341.83 6.81709 Z" fill="#000000" fill-rule="evenodd" fill-opacity="1" /><path clip-path="url(#clip170)" d="M1385.23 19.4328 L1373.51 35.2024 L1385.84 51.84 L1379.56 51.84 L1370.13 39.1086 L1360.69 51.84 L1354.41 51.84 L1367 34.8841 L1355.48 19.4328 L1361.76 19.4328 L1370.36 30.9778 L1378.95 19.4328 L1385.23 19.4328 Z" fill="#000000" fill-rule="evenodd" fill-opacity="1" /><polyline clip-path="url(#clip172)" style="stroke:#e26f46; stroke-linecap:butt; stroke-linejoin:round; stroke-width:8; stroke-opacity:1; fill:none" points="
  339.782,695.012 379.643,695.012 419.503,695.012 459.364,695.012 499.225,695.012 539.086,695.012 578.947,695.012 618.808,695.012 658.669,695.012 698.53,695.012 
  738.39,695.012 778.251,695.012 818.112,695.012 857.973,695.012 897.834,695.012 937.695,695.012 977.556,695.012 1017.42,695.012 1057.28,695.012 1097.14,695.012 
  1137,695.012 1176.86,695.012 1216.72,695.012 1256.58,695.012 1296.44,695.012 1336.3,695.012 1376.16,695.012 1416.03,695.012 1455.89,695.012 1495.75,695.012 
  1535.61,695.012 1575.47,695.012 1615.33,695.012 1655.19,695.012 1695.05,695.012 1734.91,695.012 1774.77,695.012 1814.63,695.012 1854.49,695.012 1894.36,695.012 
  1934.22,695.012 1974.08,695.012 2013.94,695.012 2053.8,695.012 2093.66,695.012 2133.52,695.012 2173.38,695.012 2213.24,695.012 2253.1,695.012 2292.96,695.012 
  
  "/>
<polyline clip-path="url(#clip172)" style="stroke:#3da44d; stroke-linecap:butt; stroke-linejoin:round; stroke-width:8; stroke-opacity:1; fill:none" points="
  339.782,1397.35 379.643,1397.35 419.503,1397.35 459.364,1397.35 499.225,1397.35 539.086,1397.35 578.947,1397.35 618.808,1397.35 658.669,1397.35 698.53,1397.35 
  738.39,1397.35 778.251,1397.35 818.112,1397.35 857.973,1397.35 897.834,1397.35 937.695,1397.35 977.556,1397.35 1017.42,1397.35 1057.28,1397.35 1097.14,1397.35 
  1137,1397.35 1176.86,1397.35 1216.72,1397.35 1256.58,1397.35 1296.44,1397.35 1336.3,1397.35 1376.16,1397.35 1416.03,1397.35 1455.89,1397.35 1495.75,1397.35 
  1535.61,1397.35 1575.47,1397.35 1615.33,1397.35 1655.19,1397.35 1695.05,1397.35 1734.91,1397.35 1774.77,1397.35 1814.63,1397.35 1854.49,1397.35 1894.36,1397.35 
  1934.22,1397.35 1974.08,1397.35 2013.94,1397.35 2053.8,1397.35 2093.66,1397.35 2133.52,1397.35 2173.38,1397.35 2213.24,1397.35 2253.1,1397.35 2292.96,1397.35 
  
  "/>
<polyline clip-path="url(#clip172)" style="stroke:#c271d2; stroke-linecap:butt; stroke-linejoin:round; stroke-width:8; stroke-opacity:1; fill:none" points="
  339.782,144.077 379.643,144.077 419.503,144.077 459.364,144.077 499.225,144.077 539.086,144.077 578.947,144.077 618.808,144.077 658.669,144.077 698.53,144.077 
  738.39,144.077 778.251,144.077 818.112,144.077 857.973,144.077 897.834,144.077 937.695,144.077 977.556,144.077 1017.42,144.077 1057.28,144.077 1097.14,144.077 
  1137,144.077 1176.86,144.077 1216.72,144.077 1256.58,144.077 1296.44,144.077 1336.3,144.077 1376.16,144.077 1416.03,144.077 1455.89,144.077 1495.75,144.077 
  1535.61,144.077 1575.47,144.077 1615.33,144.077 1655.19,144.077 1695.05,144.077 1734.91,144.077 1774.77,144.077 1814.63,144.077 1854.49,144.077 1894.36,144.077 
  1934.22,144.077 1974.08,144.077 2013.94,144.077 2053.8,144.077 2093.66,144.077 2133.52,144.077 2173.38,144.077 2213.24,144.077 2253.1,144.077 2292.96,144.077 
  
  "/>
<polyline clip-path="url(#clip172)" style="stroke:#ac8d18; stroke-linecap:butt; stroke-linejoin:round; stroke-width:8; stroke-opacity:1; fill:none" points="
  339.782,930.526 379.643,930.526 419.503,930.526 459.364,930.526 499.225,930.526 539.086,930.526 578.947,930.526 618.808,930.526 658.669,930.526 698.53,930.526 
  738.39,930.526 778.251,930.526 818.112,930.526 857.973,930.526 897.834,930.526 937.695,930.526 977.556,930.526 1017.42,930.526 1057.28,930.526 1097.14,930.526 
  1137,930.526 1176.86,930.526 1216.72,930.526 1256.58,930.526 1296.44,930.526 1336.3,930.526 1376.16,930.526 1416.03,930.526 1455.89,930.526 1495.75,930.526 
  1535.61,930.526 1575.47,930.526 1615.33,930.526 1655.19,930.526 1695.05,930.526 1734.91,930.526 1774.77,930.526 1814.63,930.526 1854.49,930.526 1894.36,930.526 
  1934.22,930.526 1974.08,930.526 2013.94,930.526 2053.8,930.526 2093.66,930.526 2133.52,930.526 2173.38,930.526 2213.24,930.526 2253.1,930.526 2292.96,930.526 
  
  "/>
<polyline clip-path="url(#clip172)" style="stroke:#00a9ad; stroke-linecap:butt; stroke-linejoin:round; stroke-width:8; stroke-opacity:1; fill:none" points="
  339.782,463.703 379.643,463.703 419.503,463.703 459.364,463.703 499.225,463.703 539.086,463.703 578.947,463.703 618.808,463.703 658.669,463.703 698.53,463.703 
  738.39,463.703 778.251,463.703 818.112,463.703 857.973,463.703 897.834,463.703 937.695,463.703 977.556,463.703 1017.42,463.703 1057.28,463.703 1097.14,463.703 
  1137,463.703 1176.86,463.703 1216.72,463.703 1256.58,463.703 1296.44,463.703 1336.3,463.703 1376.16,463.703 1416.03,463.703 1455.89,463.703 1495.75,463.703 
  1535.61,463.703 1575.47,463.703 1615.33,463.703 1655.19,463.703 1695.05,463.703 1734.91,463.703 1774.77,463.703 1814.63,463.703 1854.49,463.703 1894.36,463.703 
  1934.22,463.703 1974.08,463.703 2013.94,463.703 2053.8,463.703 2093.66,463.703 2133.52,463.703 2173.38,463.703 2213.24,463.703 2253.1,463.703 2292.96,463.703 
  
  "/>
<polyline clip-path="url(#clip172)" style="stroke:#009af9; stroke-linecap:butt; stroke-linejoin:round; stroke-width:12; stroke-opacity:1; fill:none" points="
  339.782,1406.9 379.643,1208.08 419.503,1122 459.364,1038.91 499.225,965.54 539.086,938.849 578.947,1018.36 618.808,923.583 658.669,859.905 698.53,888.837 
  738.39,839.706 778.251,876.925 818.112,890.045 857.973,833.898 897.834,808.716 937.695,876.479 977.556,845 1017.42,824.636 1057.28,792.817 1097.14,799.609 
  1137,784.081 1176.86,764.282 1216.72,754.113 1256.58,745.795 1296.44,750.036 1336.3,737.284 1376.16,739.906 1416.03,726.691 1455.89,722.904 1495.75,724.589 
  1535.61,729.846 1575.47,714.881 1615.33,713.133 1655.19,718.228 1695.05,725.177 1734.91,717.775 1774.77,712.225 1814.63,709.291 1854.49,708.183 1894.36,706.854 
  1934.22,706.542 1974.08,709.596 2013.94,711.046 2053.8,705.379 2093.66,703.385 2133.52,705.017 2173.38,703.18 2213.24,706.819 2253.1,704.459 2292.96,702.362 
  
  "/>
</svg>
