<?xml version="1.0" encoding="utf-8"?>
<svg xmlns="http://www.w3.org/2000/svg" xmlns:xlink="http://www.w3.org/1999/xlink" width="600" height="400" viewBox="0 0 2400 1600">
<defs>
  <clipPath id="clip250">
    <rect x="0" y="0" width="2400" height="1600"/>
  </clipPath>
</defs>
<path clip-path="url(#clip250)" d="
M0 1600 L2400 1600 L2400 0 L0 0  Z
  " fill="#ffffff" fill-rule="evenodd" fill-opacity="1"/>
<defs>
  <clipPath id="clip251">
    <rect x="480" y="0" width="1681" height="1600"/>
  </clipPath>
</defs>
<path clip-path="url(#clip250)" d="
M328.109 1422.18 L2352.76 1422.18 L2352.76 106.192 L328.109 106.192  Z
  " fill="#eaeaea" fill-rule="evenodd" fill-opacity="1"/>
<defs>
  <clipPath id="clip252">
    <rect x="328" y="106" width="2026" height="1317"/>
  </clipPath>
</defs>
<polyline clip-path="url(#clip252)" style="stroke:#ffffff; stroke-linecap:butt; stroke-linejoin:round; stroke-width:4; stroke-opacity:1; fill:none" points="
  385.41,1422.18 385.41,106.192 
  "/>
<polyline clip-path="url(#clip252)" style="stroke:#ffffff; stroke-linecap:butt; stroke-linejoin:round; stroke-width:4; stroke-opacity:1; fill:none" points="
  532.337,1422.18 532.337,106.192 
  "/>
<polyline clip-path="url(#clip252)" style="stroke:#ffffff; stroke-linecap:butt; stroke-linejoin:round; stroke-width:4; stroke-opacity:1; fill:none" points="
  679.263,1422.18 679.263,106.192 
  "/>
<polyline clip-path="url(#clip252)" style="stroke:#ffffff; stroke-linecap:butt; stroke-linejoin:round; stroke-width:4; stroke-opacity:1; fill:none" points="
  826.19,1422.18 826.19,106.192 
  "/>
<polyline clip-path="url(#clip252)" style="stroke:#ffffff; stroke-linecap:butt; stroke-linejoin:round; stroke-width:4; stroke-opacity:1; fill:none" points="
  973.116,1422.18 973.116,106.192 
  "/>
<polyline clip-path="url(#clip252)" style="stroke:#ffffff; stroke-linecap:butt; stroke-linejoin:round; stroke-width:4; stroke-opacity:1; fill:none" points="
  1120.04,1422.18 1120.04,106.192 
  "/>
<polyline clip-path="url(#clip252)" style="stroke:#ffffff; stroke-linecap:butt; stroke-linejoin:round; stroke-width:4; stroke-opacity:1; fill:none" points="
  1266.97,1422.18 1266.97,106.192 
  "/>
<polyline clip-path="url(#clip252)" style="stroke:#ffffff; stroke-linecap:butt; stroke-linejoin:round; stroke-width:4; stroke-opacity:1; fill:none" points="
  1413.9,1422.18 1413.9,106.192 
  "/>
<polyline clip-path="url(#clip252)" style="stroke:#ffffff; stroke-linecap:butt; stroke-linejoin:round; stroke-width:4; stroke-opacity:1; fill:none" points="
  1560.82,1422.18 1560.82,106.192 
  "/>
<polyline clip-path="url(#clip252)" style="stroke:#ffffff; stroke-linecap:butt; stroke-linejoin:round; stroke-width:4; stroke-opacity:1; fill:none" points="
  1707.75,1422.18 1707.75,106.192 
  "/>
<polyline clip-path="url(#clip252)" style="stroke:#ffffff; stroke-linecap:butt; stroke-linejoin:round; stroke-width:4; stroke-opacity:1; fill:none" points="
  1854.68,1422.18 1854.68,106.192 
  "/>
<polyline clip-path="url(#clip252)" style="stroke:#ffffff; stroke-linecap:butt; stroke-linejoin:round; stroke-width:4; stroke-opacity:1; fill:none" points="
  2001.6,1422.18 2001.6,106.192 
  "/>
<polyline clip-path="url(#clip252)" style="stroke:#ffffff; stroke-linecap:butt; stroke-linejoin:round; stroke-width:4; stroke-opacity:1; fill:none" points="
  2148.53,1422.18 2148.53,106.192 
  "/>
<polyline clip-path="url(#clip252)" style="stroke:#ffffff; stroke-linecap:butt; stroke-linejoin:round; stroke-width:4; stroke-opacity:1; fill:none" points="
  2295.45,1422.18 2295.45,106.192 
  "/>
<polyline clip-path="url(#clip252)" style="stroke:#ffffff; stroke-linecap:butt; stroke-linejoin:round; stroke-width:2; stroke-opacity:1; fill:none" points="
  458.873,1422.18 458.873,106.192 
  "/>
<polyline clip-path="url(#clip252)" style="stroke:#ffffff; stroke-linecap:butt; stroke-linejoin:round; stroke-width:2; stroke-opacity:1; fill:none" points="
  605.8,1422.18 605.8,106.192 
  "/>
<polyline clip-path="url(#clip252)" style="stroke:#ffffff; stroke-linecap:butt; stroke-linejoin:round; stroke-width:2; stroke-opacity:1; fill:none" points="
  752.726,1422.18 752.726,106.192 
  "/>
<polyline clip-path="url(#clip252)" style="stroke:#ffffff; stroke-linecap:butt; stroke-linejoin:round; stroke-width:2; stroke-opacity:1; fill:none" points="
  899.653,1422.18 899.653,106.192 
  "/>
<polyline clip-path="url(#clip252)" style="stroke:#ffffff; stroke-linecap:butt; stroke-linejoin:round; stroke-width:2; stroke-opacity:1; fill:none" points="
  1046.58,1422.18 1046.58,106.192 
  "/>
<polyline clip-path="url(#clip252)" style="stroke:#ffffff; stroke-linecap:butt; stroke-linejoin:round; stroke-width:2; stroke-opacity:1; fill:none" points="
  1193.51,1422.18 1193.51,106.192 
  "/>
<polyline clip-path="url(#clip252)" style="stroke:#ffffff; stroke-linecap:butt; stroke-linejoin:round; stroke-width:2; stroke-opacity:1; fill:none" points="
  1340.43,1422.18 1340.43,106.192 
  "/>
<polyline clip-path="url(#clip252)" style="stroke:#ffffff; stroke-linecap:butt; stroke-linejoin:round; stroke-width:2; stroke-opacity:1; fill:none" points="
  1487.36,1422.18 1487.36,106.192 
  "/>
<polyline clip-path="url(#clip252)" style="stroke:#ffffff; stroke-linecap:butt; stroke-linejoin:round; stroke-width:2; stroke-opacity:1; fill:none" points="
  1634.29,1422.18 1634.29,106.192 
  "/>
<polyline clip-path="url(#clip252)" style="stroke:#ffffff; stroke-linecap:butt; stroke-linejoin:round; stroke-width:2; stroke-opacity:1; fill:none" points="
  1781.21,1422.18 1781.21,106.192 
  "/>
<polyline clip-path="url(#clip252)" style="stroke:#ffffff; stroke-linecap:butt; stroke-linejoin:round; stroke-width:2; stroke-opacity:1; fill:none" points="
  1928.14,1422.18 1928.14,106.192 
  "/>
<polyline clip-path="url(#clip252)" style="stroke:#ffffff; stroke-linecap:butt; stroke-linejoin:round; stroke-width:2; stroke-opacity:1; fill:none" points="
  2075.06,1422.18 2075.06,106.192 
  "/>
<polyline clip-path="url(#clip252)" style="stroke:#ffffff; stroke-linecap:butt; stroke-linejoin:round; stroke-width:2; stroke-opacity:1; fill:none" points="
  2221.99,1422.18 2221.99,106.192 
  "/>
<polyline clip-path="url(#clip250)" style="stroke:#ffffff; stroke-linecap:butt; stroke-linejoin:round; stroke-width:4; stroke-opacity:1; fill:none" points="
  328.109,1422.18 2352.76,1422.18 
  "/>
<polyline clip-path="url(#clip250)" style="stroke:#333333; stroke-linecap:butt; stroke-linejoin:round; stroke-width:4; stroke-opacity:1; fill:none" points="
  385.41,1422.18 385.41,1441.07 
  "/>
<polyline clip-path="url(#clip250)" style="stroke:#333333; stroke-linecap:butt; stroke-linejoin:round; stroke-width:4; stroke-opacity:1; fill:none" points="
  532.337,1422.18 532.337,1441.07 
  "/>
<polyline clip-path="url(#clip250)" style="stroke:#333333; stroke-linecap:butt; stroke-linejoin:round; stroke-width:4; stroke-opacity:1; fill:none" points="
  679.263,1422.18 679.263,1441.07 
  "/>
<polyline clip-path="url(#clip250)" style="stroke:#333333; stroke-linecap:butt; stroke-linejoin:round; stroke-width:4; stroke-opacity:1; fill:none" points="
  826.19,1422.18 826.19,1441.07 
  "/>
<polyline clip-path="url(#clip250)" style="stroke:#333333; stroke-linecap:butt; stroke-linejoin:round; stroke-width:4; stroke-opacity:1; fill:none" points="
  973.116,1422.18 973.116,1441.07 
  "/>
<polyline clip-path="url(#clip250)" style="stroke:#333333; stroke-linecap:butt; stroke-linejoin:round; stroke-width:4; stroke-opacity:1; fill:none" points="
  1120.04,1422.18 1120.04,1441.07 
  "/>
<polyline clip-path="url(#clip250)" style="stroke:#333333; stroke-linecap:butt; stroke-linejoin:round; stroke-width:4; stroke-opacity:1; fill:none" points="
  1266.97,1422.18 1266.97,1441.07 
  "/>
<polyline clip-path="url(#clip250)" style="stroke:#333333; stroke-linecap:butt; stroke-linejoin:round; stroke-width:4; stroke-opacity:1; fill:none" points="
  1413.9,1422.18 1413.9,1441.07 
  "/>
<polyline clip-path="url(#clip250)" style="stroke:#333333; stroke-linecap:butt; stroke-linejoin:round; stroke-width:4; stroke-opacity:1; fill:none" points="
  1560.82,1422.18 1560.82,1441.07 
  "/>
<polyline clip-path="url(#clip250)" style="stroke:#333333; stroke-linecap:butt; stroke-linejoin:round; stroke-width:4; stroke-opacity:1; fill:none" points="
  1707.75,1422.18 1707.75,1441.07 
  "/>
<polyline clip-path="url(#clip250)" style="stroke:#333333; stroke-linecap:butt; stroke-linejoin:round; stroke-width:4; stroke-opacity:1; fill:none" points="
  1854.68,1422.18 1854.68,1441.07 
  "/>
<polyline clip-path="url(#clip250)" style="stroke:#333333; stroke-linecap:butt; stroke-linejoin:round; stroke-width:4; stroke-opacity:1; fill:none" points="
  2001.6,1422.18 2001.6,1441.07 
  "/>
<polyline clip-path="url(#clip250)" style="stroke:#333333; stroke-linecap:butt; stroke-linejoin:round; stroke-width:4; stroke-opacity:1; fill:none" points="
  2148.53,1422.18 2148.53,1441.07 
  "/>
<polyline clip-path="url(#clip250)" style="stroke:#333333; stroke-linecap:butt; stroke-linejoin:round; stroke-width:4; stroke-opacity:1; fill:none" points="
  2295.45,1422.18 2295.45,1441.07 
  "/>
<polyline clip-path="url(#clip250)" style="stroke:#333333; stroke-linecap:butt; stroke-linejoin:round; stroke-width:4; stroke-opacity:1; fill:none" points="
  458.873,1422.18 458.873,1431.63 
  "/>
<polyline clip-path="url(#clip250)" style="stroke:#333333; stroke-linecap:butt; stroke-linejoin:round; stroke-width:4; stroke-opacity:1; fill:none" points="
  605.8,1422.18 605.8,1431.63 
  "/>
<polyline clip-path="url(#clip250)" style="stroke:#333333; stroke-linecap:butt; stroke-linejoin:round; stroke-width:4; stroke-opacity:1; fill:none" points="
  752.726,1422.18 752.726,1431.63 
  "/>
<polyline clip-path="url(#clip250)" style="stroke:#333333; stroke-linecap:butt; stroke-linejoin:round; stroke-width:4; stroke-opacity:1; fill:none" points="
  899.653,1422.18 899.653,1431.63 
  "/>
<polyline clip-path="url(#clip250)" style="stroke:#333333; stroke-linecap:butt; stroke-linejoin:round; stroke-width:4; stroke-opacity:1; fill:none" points="
  1046.58,1422.18 1046.58,1431.63 
  "/>
<polyline clip-path="url(#clip250)" style="stroke:#333333; stroke-linecap:butt; stroke-linejoin:round; stroke-width:4; stroke-opacity:1; fill:none" points="
  1193.51,1422.18 1193.51,1431.63 
  "/>
<polyline clip-path="url(#clip250)" style="stroke:#333333; stroke-linecap:butt; stroke-linejoin:round; stroke-width:4; stroke-opacity:1; fill:none" points="
  1340.43,1422.18 1340.43,1431.63 
  "/>
<polyline clip-path="url(#clip250)" style="stroke:#333333; stroke-linecap:butt; stroke-linejoin:round; stroke-width:4; stroke-opacity:1; fill:none" points="
  1487.36,1422.18 1487.36,1431.63 
  "/>
<polyline clip-path="url(#clip250)" style="stroke:#333333; stroke-linecap:butt; stroke-linejoin:round; stroke-width:4; stroke-opacity:1; fill:none" points="
  1634.29,1422.18 1634.29,1431.63 
  "/>
<polyline clip-path="url(#clip250)" style="stroke:#333333; stroke-linecap:butt; stroke-linejoin:round; stroke-width:4; stroke-opacity:1; fill:none" points="
  1781.21,1422.18 1781.21,1431.63 
  "/>
<polyline clip-path="url(#clip250)" style="stroke:#333333; stroke-linecap:butt; stroke-linejoin:round; stroke-width:4; stroke-opacity:1; fill:none" points="
  1928.14,1422.18 1928.14,1431.63 
  "/>
<polyline clip-path="url(#clip250)" style="stroke:#333333; stroke-linecap:butt; stroke-linejoin:round; stroke-width:4; stroke-opacity:1; fill:none" points="
  2075.06,1422.18 2075.06,1431.63 
  "/>
<polyline clip-path="url(#clip250)" style="stroke:#333333; stroke-linecap:butt; stroke-linejoin:round; stroke-width:4; stroke-opacity:1; fill:none" points="
  2221.99,1422.18 2221.99,1431.63 
  "/>
<path clip-path="url(#clip250)" d="M399.113 1463.13 Q397.759 1460.78 394.758 1460.93 Q391.781 1461.09 387.15 1463.76 Q382.534 1466.43 380.896 1468.94 Q379.281 1471.45 380.635 1473.8 Q381.998 1476.16 384.976 1476 Q387.977 1475.85 392.592 1473.19 Q397.223 1470.52 398.838 1468 Q400.476 1465.49 399.113 1463.13 M401.519 1461.74 Q403.698 1465.51 401.852 1469.23 Q400.029 1472.94 394.346 1476.23 Q388.678 1479.5 384.531 1479.23 Q380.408 1478.96 378.23 1475.19 Q376.051 1471.41 377.873 1467.69 Q379.719 1463.98 385.388 1460.71 Q391.071 1457.43 395.194 1457.69 Q399.34 1457.97 401.519 1461.74 Z" fill="#4c4c4c" fill-rule="evenodd" fill-opacity="1" /><path clip-path="url(#clip250)" d="M523.921 1466.14 L526.785 1471.1 L543.91 1461.21 L539.711 1456.44 L542.478 1454.84 L546.659 1459.58 L548.413 1462.62 L528.521 1474.11 L531.386 1479.07 L528.83 1480.54 L521.365 1467.61 L523.921 1466.14 Z" fill="#4c4c4c" fill-rule="evenodd" fill-opacity="1" /><path clip-path="url(#clip250)" d="M556.569 1481.37 Q555.215 1479.02 552.214 1479.17 Q549.237 1479.33 544.606 1482 Q539.99 1484.66 538.352 1487.17 Q536.737 1489.69 538.091 1492.04 Q539.454 1494.4 542.431 1494.24 Q545.433 1494.09 550.048 1491.43 Q554.679 1488.75 556.294 1486.24 Q557.932 1483.73 556.569 1481.37 M558.975 1479.98 Q561.154 1483.75 559.308 1487.46 Q557.485 1491.18 551.802 1494.46 Q546.134 1497.74 541.987 1497.46 Q537.864 1497.2 535.686 1493.42 Q533.507 1489.65 535.329 1485.93 Q537.175 1482.22 542.844 1478.95 Q548.527 1475.67 552.65 1475.93 Q556.796 1476.2 558.975 1479.98 Z" fill="#4c4c4c" fill-rule="evenodd" fill-opacity="1" /><path clip-path="url(#clip250)" d="M672.705 1469.35 L678.825 1479.95 L676.269 1481.43 L668.039 1467.18 L670.595 1465.7 Q673.383 1466.4 678.109 1467.64 Q682.858 1468.89 684.173 1469.15 Q686.654 1469.66 688.111 1469.58 Q689.592 1469.51 690.69 1468.87 Q692.479 1467.84 692.878 1465.93 Q693.285 1464.03 692.122 1462.01 Q691.297 1460.59 689.881 1459.28 Q688.473 1457.99 686.424 1456.76 L689.491 1454.99 Q691.287 1456.4 692.583 1457.78 Q693.879 1459.15 694.643 1460.48 Q696.657 1463.97 696.111 1467.05 Q695.564 1470.13 692.648 1471.81 Q691.264 1472.61 689.713 1472.81 Q688.185 1473.01 685.711 1472.61 Q685.058 1472.49 681.805 1471.68 Q678.567 1470.86 672.705 1469.35 Z" fill="#4c4c4c" fill-rule="evenodd" fill-opacity="1" /><path clip-path="url(#clip250)" d="M704.147 1482.49 Q702.793 1480.15 699.792 1480.3 Q696.814 1480.45 692.183 1483.13 Q687.567 1485.79 685.929 1488.3 Q684.315 1490.82 685.669 1493.16 Q687.032 1495.52 690.009 1495.37 Q693.01 1495.22 697.626 1492.55 Q702.257 1489.88 703.871 1487.36 Q705.51 1484.86 704.147 1482.49 M706.552 1481.11 Q708.731 1484.88 706.885 1488.59 Q705.063 1492.31 699.379 1495.59 Q693.711 1498.86 689.565 1498.59 Q685.442 1498.33 683.263 1494.55 Q681.084 1490.78 682.907 1487.06 Q684.753 1483.35 690.421 1480.08 Q696.104 1476.79 700.227 1477.06 Q704.374 1477.33 706.552 1481.11 Z" fill="#4c4c4c" fill-rule="evenodd" fill-opacity="1" /><path clip-path="url(#clip250)" d="M832.929 1470.34 Q833.721 1472.79 832.951 1474.86 Q832.189 1476.94 830.024 1478.19 Q826.701 1480.11 823.563 1478.87 Q820.424 1477.64 817.993 1473.43 Q817.178 1472.01 816.595 1470.35 Q816.006 1468.7 815.643 1466.79 L818.574 1465.09 Q818.567 1466.78 819.059 1468.5 Q819.551 1470.22 820.497 1471.86 Q822.147 1474.72 824.134 1475.56 Q826.129 1476.41 828.279 1475.17 Q830.264 1474.02 830.569 1471.98 Q830.898 1469.95 829.466 1467.47 L827.956 1464.85 L830.451 1463.41 L832.031 1466.14 Q833.325 1468.38 834.898 1469.06 Q836.485 1469.73 838.169 1468.76 Q839.898 1467.76 840.104 1465.99 Q840.333 1464.24 839.013 1461.95 Q838.293 1460.71 837.198 1459.43 Q836.102 1458.16 834.541 1456.78 L837.248 1455.21 Q838.727 1456.67 839.836 1458.03 Q840.953 1459.41 841.726 1460.75 Q843.722 1464.21 843.307 1467.13 Q842.906 1470.05 840.23 1471.6 Q838.365 1472.67 836.456 1472.35 Q834.562 1472.02 832.929 1470.34 Z" fill="#4c4c4c" fill-rule="evenodd" fill-opacity="1" /><path clip-path="url(#clip250)" d="M851.021 1482.4 Q849.667 1480.06 846.666 1480.21 Q843.688 1480.36 839.058 1483.04 Q834.442 1485.7 832.804 1488.21 Q831.189 1490.73 832.543 1493.07 Q833.906 1495.43 836.883 1495.28 Q839.885 1495.13 844.5 1492.46 Q849.131 1489.79 850.746 1487.27 Q852.384 1484.76 851.021 1482.4 M853.427 1481.02 Q855.606 1484.79 853.76 1488.5 Q851.937 1492.22 846.254 1495.5 Q840.586 1498.77 836.439 1498.5 Q832.316 1498.24 830.138 1494.46 Q827.959 1490.69 829.781 1486.97 Q831.627 1483.26 837.296 1479.98 Q842.979 1476.7 847.102 1476.97 Q851.248 1477.24 853.427 1481.02 Z" fill="#4c4c4c" fill-rule="evenodd" fill-opacity="1" /><path clip-path="url(#clip250)" d="M987.544 1465.88 L971.134 1465.13 L975.561 1472.8 L987.544 1465.88 M989.73 1463.55 L991.935 1467.37 L977.306 1475.82 L979.155 1479.02 L976.629 1480.48 L974.78 1477.28 L969.488 1480.33 L967.743 1477.31 L973.035 1474.25 L967.185 1464.12 L970.117 1462.43 L989.73 1463.55 Z" fill="#4c4c4c" fill-rule="evenodd" fill-opacity="1" /><path clip-path="url(#clip250)" d="M998.434 1483.25 Q997.08 1480.9 994.079 1481.05 Q991.101 1481.21 986.47 1483.88 Q981.854 1486.54 980.216 1489.05 Q978.602 1491.57 979.956 1493.91 Q981.319 1496.28 984.296 1496.12 Q987.297 1495.97 991.913 1493.31 Q996.544 1490.63 998.158 1488.12 Q999.797 1485.61 998.434 1483.25 M1000.84 1481.86 Q1003.02 1485.63 1001.17 1489.34 Q999.35 1493.06 993.666 1496.34 Q987.998 1499.62 983.852 1499.34 Q979.729 1499.08 977.55 1495.3 Q975.371 1491.53 977.194 1487.81 Q979.04 1484.1 984.708 1480.83 Q990.391 1477.55 994.514 1477.81 Q998.661 1478.08 1000.84 1481.86 Z" fill="#4c4c4c" fill-rule="evenodd" fill-opacity="1" /><path clip-path="url(#clip250)" d="M1131.81 1455.16 L1138.7 1467.09 L1136.14 1468.56 L1130.86 1459.42 L1125.36 1462.6 Q1125.97 1463.13 1126.45 1463.73 Q1126.96 1464.32 1127.34 1464.98 Q1129.51 1468.74 1128.72 1472.13 Q1127.92 1475.51 1124.41 1477.54 Q1120.78 1479.63 1117.47 1478.54 Q1114.16 1477.44 1111.79 1473.34 Q1110.98 1471.92 1110.37 1470.31 Q1109.77 1468.71 1109.35 1466.87 L1112.4 1465.11 Q1112.44 1466.89 1112.91 1468.54 Q1113.39 1470.19 1114.32 1471.8 Q1115.82 1474.4 1118.06 1475.13 Q1120.31 1475.86 1122.65 1474.51 Q1125 1473.15 1125.49 1470.84 Q1125.98 1468.53 1124.48 1465.93 Q1123.78 1464.72 1122.8 1463.65 Q1121.84 1462.61 1120.54 1461.67 L1131.81 1455.16 Z" fill="#4c4c4c" fill-rule="evenodd" fill-opacity="1" /><path clip-path="url(#clip250)" d="M1144.86 1482.37 Q1143.5 1480.03 1140.5 1480.18 Q1137.52 1480.33 1132.89 1483.01 Q1128.28 1485.67 1126.64 1488.18 Q1125.02 1490.7 1126.38 1493.04 Q1127.74 1495.4 1130.72 1495.25 Q1133.72 1495.1 1138.34 1492.43 Q1142.97 1489.76 1144.58 1487.24 Q1146.22 1484.73 1144.86 1482.37 M1147.26 1480.99 Q1149.44 1484.76 1147.6 1488.47 Q1145.77 1492.19 1140.09 1495.47 Q1134.42 1498.74 1130.27 1498.47 Q1126.15 1498.21 1123.97 1494.43 Q1121.79 1490.66 1123.62 1486.94 Q1125.46 1483.23 1131.13 1479.95 Q1136.81 1476.67 1140.94 1476.94 Q1145.08 1477.21 1147.26 1480.99 Z" fill="#4c4c4c" fill-rule="evenodd" fill-opacity="1" /><path clip-path="url(#clip250)" d="M1272.81 1468.01 Q1271.63 1465.97 1269.53 1465.57 Q1267.45 1465.19 1265.01 1466.6 Q1262.59 1467.99 1261.87 1470 Q1261.16 1472.01 1262.34 1474.05 Q1263.52 1476.1 1265.61 1476.48 Q1267.71 1476.87 1270.13 1475.47 Q1272.57 1474.06 1273.27 1472.05 Q1273.99 1470.06 1272.81 1468.01 M1285.8 1468.55 L1283.04 1470.14 Q1282.92 1468.69 1282.53 1467.35 Q1282.15 1466.03 1281.49 1464.89 Q1279.75 1461.88 1276.8 1461.46 Q1273.86 1461.05 1269.62 1463.19 Q1271.44 1463.33 1272.91 1464.26 Q1274.39 1465.19 1275.32 1466.8 Q1277.27 1470.19 1276.34 1473.33 Q1275.43 1476.48 1271.9 1478.52 Q1268.44 1480.52 1265.17 1479.68 Q1261.9 1478.84 1259.94 1475.44 Q1257.69 1471.55 1259.48 1467.77 Q1261.28 1463.98 1266.95 1460.71 Q1272.27 1457.64 1276.88 1458.34 Q1281.52 1459.03 1283.97 1463.29 Q1284.63 1464.43 1285.07 1465.72 Q1285.53 1467.02 1285.8 1468.55 Z" fill="#4c4c4c" fill-rule="evenodd" fill-opacity="1" /><path clip-path="url(#clip250)" d="M1291.91 1482.6 Q1290.56 1480.25 1287.56 1480.4 Q1284.58 1480.56 1279.95 1483.23 Q1275.33 1485.9 1273.7 1488.41 Q1272.08 1490.92 1273.44 1493.27 Q1274.8 1495.63 1277.78 1495.47 Q1280.78 1495.32 1285.39 1492.66 Q1290.02 1489.99 1291.64 1487.47 Q1293.28 1484.96 1291.91 1482.6 M1294.32 1481.21 Q1296.5 1484.98 1294.65 1488.7 Q1292.83 1492.42 1287.15 1495.7 Q1281.48 1498.97 1277.33 1498.7 Q1273.21 1498.43 1271.03 1494.66 Q1268.85 1490.88 1270.67 1487.16 Q1272.52 1483.45 1278.19 1480.18 Q1283.87 1476.9 1287.99 1477.16 Q1292.14 1477.44 1294.32 1481.21 Z" fill="#4c4c4c" fill-rule="evenodd" fill-opacity="1" /><path clip-path="url(#clip250)" d="M1425.12 1454.22 L1433.45 1468.65 L1432.16 1469.4 L1406.3 1473.46 L1404.47 1470.29 L1428.79 1466.47 L1422.56 1455.69 L1425.12 1454.22 Z" fill="#4c4c4c" fill-rule="evenodd" fill-opacity="1" /><path clip-path="url(#clip250)" d="M1438.62 1482.22 Q1437.27 1479.88 1434.27 1480.03 Q1431.29 1480.18 1426.66 1482.86 Q1422.04 1485.52 1420.41 1488.03 Q1418.79 1490.55 1420.14 1492.89 Q1421.51 1495.25 1424.49 1495.1 Q1427.49 1494.95 1432.1 1492.28 Q1436.73 1489.61 1438.35 1487.09 Q1439.99 1484.58 1438.62 1482.22 M1441.03 1480.84 Q1443.21 1484.61 1441.36 1488.32 Q1439.54 1492.04 1433.86 1495.32 Q1428.19 1498.59 1424.04 1498.32 Q1419.92 1498.06 1417.74 1494.28 Q1415.56 1490.51 1417.38 1486.79 Q1419.23 1483.08 1424.9 1479.8 Q1430.58 1476.52 1434.7 1476.79 Q1438.85 1477.06 1441.03 1480.84 Z" fill="#4c4c4c" fill-rule="evenodd" fill-opacity="1" /><path clip-path="url(#clip250)" d="M1564.7 1468.72 Q1563.45 1466.56 1561.57 1465.98 Q1559.71 1465.41 1557.68 1466.58 Q1555.65 1467.76 1555.2 1469.66 Q1554.76 1471.57 1556.01 1473.74 Q1557.26 1475.9 1559.14 1476.48 Q1561.03 1477.05 1563.05 1475.89 Q1565.08 1474.72 1565.52 1472.8 Q1565.96 1470.9 1564.7 1468.72 M1564.24 1464.94 Q1563.59 1462.7 1564.3 1460.83 Q1565.01 1458.98 1566.94 1457.87 Q1569.63 1456.31 1572.29 1457.32 Q1574.97 1458.34 1576.9 1461.68 Q1578.83 1465.03 1578.37 1467.85 Q1577.91 1470.66 1575.22 1472.21 Q1573.29 1473.32 1571.32 1473 Q1569.36 1472.69 1567.76 1471.03 Q1568.51 1473.52 1567.73 1475.59 Q1566.95 1477.69 1564.8 1478.93 Q1561.54 1480.81 1558.64 1479.82 Q1555.75 1478.84 1553.61 1475.13 Q1551.46 1471.41 1552.05 1468.41 Q1552.65 1465.41 1555.91 1463.53 Q1558.06 1462.29 1560.26 1462.66 Q1562.46 1463.04 1564.24 1464.94 M1568.4 1461.06 Q1566.65 1462.06 1566.3 1463.71 Q1565.96 1465.37 1567.09 1467.34 Q1568.22 1469.29 1569.83 1469.83 Q1571.45 1470.38 1573.2 1469.37 Q1574.94 1468.36 1575.28 1466.69 Q1575.62 1465.02 1574.49 1463.07 Q1573.35 1461.1 1571.74 1460.57 Q1570.14 1460.05 1568.4 1461.06 Z" fill="#4c4c4c" fill-rule="evenodd" fill-opacity="1" /><path clip-path="url(#clip250)" d="M1585.8 1482.66 Q1584.45 1480.31 1581.45 1480.46 Q1578.47 1480.62 1573.84 1483.29 Q1569.22 1485.96 1567.58 1488.47 Q1565.97 1490.98 1567.32 1493.33 Q1568.69 1495.69 1571.66 1495.53 Q1574.66 1495.38 1579.28 1492.72 Q1583.91 1490.05 1585.53 1487.53 Q1587.16 1485.02 1585.8 1482.66 M1588.21 1481.27 Q1590.39 1485.04 1588.54 1488.76 Q1586.72 1492.48 1581.03 1495.76 Q1575.37 1499.03 1571.22 1498.76 Q1567.1 1498.49 1564.92 1494.72 Q1562.74 1490.94 1564.56 1487.23 Q1566.41 1483.51 1572.08 1480.24 Q1577.76 1476.96 1581.88 1477.23 Q1586.03 1477.5 1588.21 1481.27 Z" fill="#4c4c4c" fill-rule="evenodd" fill-opacity="1" /><path clip-path="url(#clip250)" d="M1697.82 1468.35 L1700.59 1466.75 Q1700.71 1468.21 1701.1 1469.55 Q1701.49 1470.88 1702.14 1472.01 Q1703.88 1475.02 1706.81 1475.43 Q1709.76 1475.86 1714.01 1473.7 Q1712.21 1473.58 1710.74 1472.64 Q1709.28 1471.7 1708.34 1470.08 Q1706.4 1466.71 1707.29 1463.57 Q1708.21 1460.43 1711.74 1458.39 Q1715.2 1456.4 1718.47 1457.23 Q1721.74 1458.07 1723.7 1461.47 Q1725.95 1465.36 1724.14 1469.14 Q1722.35 1472.91 1716.67 1476.2 Q1711.36 1479.26 1706.73 1478.57 Q1702.12 1477.88 1699.67 1473.62 Q1699.01 1472.48 1698.55 1471.18 Q1698.1 1469.87 1697.82 1468.35 M1710.83 1468.9 Q1712.01 1470.95 1714.1 1471.33 Q1716.19 1471.72 1718.62 1470.32 Q1721.04 1468.92 1721.75 1466.91 Q1722.48 1464.9 1721.3 1462.86 Q1720.11 1460.81 1718.01 1460.43 Q1715.92 1460.05 1713.5 1461.44 Q1711.07 1462.85 1710.35 1464.85 Q1709.65 1466.86 1710.83 1468.9 Z" fill="#4c4c4c" fill-rule="evenodd" fill-opacity="1" /><path clip-path="url(#clip250)" d="M1732.81 1482.81 Q1731.46 1480.46 1728.46 1480.61 Q1725.48 1480.77 1720.85 1483.44 Q1716.24 1486.11 1714.6 1488.62 Q1712.98 1491.13 1714.34 1493.48 Q1715.7 1495.84 1718.68 1495.68 Q1721.68 1495.53 1726.29 1492.87 Q1730.92 1490.2 1732.54 1487.68 Q1734.18 1485.17 1732.81 1482.81 M1735.22 1481.42 Q1737.4 1485.2 1735.55 1488.91 Q1733.73 1492.63 1728.05 1495.91 Q1722.38 1499.18 1718.23 1498.91 Q1714.11 1498.64 1711.93 1494.87 Q1709.75 1491.09 1711.57 1487.38 Q1713.42 1483.66 1719.09 1480.39 Q1724.77 1477.11 1728.89 1477.38 Q1733.04 1477.65 1735.22 1481.42 Z" fill="#4c4c4c" fill-rule="evenodd" fill-opacity="1" /><path clip-path="url(#clip250)" d="M1846.26 1466.14 L1849.12 1471.1 L1866.25 1461.21 L1862.05 1456.44 L1864.82 1454.84 L1869 1459.58 L1870.75 1462.62 L1850.86 1474.11 L1853.72 1479.07 L1851.17 1480.54 L1843.7 1467.61 L1846.26 1466.14 Z" fill="#4c4c4c" fill-rule="evenodd" fill-opacity="1" /><path clip-path="url(#clip250)" d="M1878.91 1481.37 Q1877.55 1479.02 1874.55 1479.17 Q1871.57 1479.33 1866.94 1482 Q1862.33 1484.66 1860.69 1487.17 Q1859.08 1489.69 1860.43 1492.04 Q1861.79 1494.4 1864.77 1494.24 Q1867.77 1494.09 1872.39 1491.43 Q1877.02 1488.75 1878.63 1486.24 Q1880.27 1483.73 1878.91 1481.37 M1881.31 1479.98 Q1883.49 1483.75 1881.65 1487.46 Q1879.82 1491.18 1874.14 1494.46 Q1868.47 1497.74 1864.33 1497.46 Q1860.2 1497.2 1858.02 1493.42 Q1855.85 1489.65 1857.67 1485.93 Q1859.51 1482.22 1865.18 1478.95 Q1870.87 1475.67 1874.99 1475.93 Q1879.13 1476.2 1881.31 1479.98 Z" fill="#4c4c4c" fill-rule="evenodd" fill-opacity="1" /><path clip-path="url(#clip250)" d="M1890.22 1500.96 Q1888.86 1498.61 1885.86 1498.76 Q1882.89 1498.92 1878.25 1501.59 Q1873.64 1504.26 1872 1506.76 Q1870.39 1509.28 1871.74 1511.63 Q1873.1 1513.99 1876.08 1513.83 Q1879.08 1513.68 1883.7 1511.02 Q1888.33 1508.34 1889.94 1505.83 Q1891.58 1503.32 1890.22 1500.96 M1892.62 1499.57 Q1894.8 1503.34 1892.96 1507.05 Q1891.13 1510.77 1885.45 1514.05 Q1879.78 1517.33 1875.64 1517.05 Q1871.51 1516.79 1869.33 1513.01 Q1867.16 1509.24 1868.98 1505.52 Q1870.82 1501.81 1876.49 1498.54 Q1882.18 1495.26 1886.3 1495.52 Q1890.45 1495.8 1892.62 1499.57 Z" fill="#4c4c4c" fill-rule="evenodd" fill-opacity="1" /><path clip-path="url(#clip250)" d="M1993.19 1466.14 L1996.05 1471.1 L2013.18 1461.21 L2008.98 1456.44 L2011.74 1454.84 L2015.92 1459.58 L2017.68 1462.62 L1997.79 1474.11 L2000.65 1479.07 L1998.09 1480.54 L1990.63 1467.61 L1993.19 1466.14 Z" fill="#4c4c4c" fill-rule="evenodd" fill-opacity="1" /><path clip-path="url(#clip250)" d="M2004.5 1485.73 L2007.36 1490.69 L2024.49 1480.8 L2020.29 1476.03 L2023.05 1474.43 L2027.23 1479.18 L2028.99 1482.21 L2009.1 1493.7 L2011.96 1498.66 L2009.41 1500.13 L2001.94 1487.2 L2004.5 1485.73 Z" fill="#4c4c4c" fill-rule="evenodd" fill-opacity="1" /><path clip-path="url(#clip250)" d="M2037.14 1500.96 Q2035.79 1498.61 2032.79 1498.76 Q2029.81 1498.92 2025.18 1501.59 Q2020.57 1504.26 2018.93 1506.76 Q2017.31 1509.28 2018.67 1511.63 Q2020.03 1513.99 2023.01 1513.83 Q2026.01 1513.68 2030.62 1511.02 Q2035.25 1508.34 2036.87 1505.83 Q2038.51 1503.32 2037.14 1500.96 M2039.55 1499.57 Q2041.73 1503.34 2039.88 1507.05 Q2038.06 1510.77 2032.38 1514.05 Q2026.71 1517.33 2022.56 1517.05 Q2018.44 1516.79 2016.26 1513.01 Q2014.08 1509.24 2015.9 1505.52 Q2017.75 1501.81 2023.42 1498.54 Q2029.1 1495.26 2033.23 1495.52 Q2037.37 1495.8 2039.55 1499.57 Z" fill="#4c4c4c" fill-rule="evenodd" fill-opacity="1" /><path clip-path="url(#clip250)" d="M2140.11 1466.14 L2142.98 1471.1 L2160.1 1461.21 L2155.9 1456.44 L2158.67 1454.84 L2162.85 1459.58 L2164.6 1462.62 L2144.71 1474.11 L2147.58 1479.07 L2145.02 1480.54 L2137.56 1467.61 L2140.11 1466.14 Z" fill="#4c4c4c" fill-rule="evenodd" fill-opacity="1" /><path clip-path="url(#clip250)" d="M2152.63 1487.82 L2158.75 1498.42 L2156.19 1499.89 L2147.96 1485.64 L2150.52 1484.16 Q2153.31 1484.86 2158.03 1486.1 Q2162.78 1487.35 2164.1 1487.61 Q2166.58 1488.12 2168.04 1488.04 Q2169.52 1487.97 2170.61 1487.34 Q2172.4 1486.3 2172.8 1484.39 Q2173.21 1482.49 2172.05 1480.48 Q2171.22 1479.05 2169.81 1477.74 Q2168.4 1476.45 2166.35 1475.23 L2169.42 1473.46 Q2171.21 1474.86 2172.51 1476.24 Q2173.8 1477.62 2174.57 1478.94 Q2176.58 1482.43 2176.04 1485.51 Q2175.49 1488.59 2172.57 1490.28 Q2171.19 1491.08 2169.64 1491.27 Q2168.11 1491.47 2165.64 1491.07 Q2164.98 1490.95 2161.73 1490.14 Q2158.49 1489.32 2152.63 1487.82 Z" fill="#4c4c4c" fill-rule="evenodd" fill-opacity="1" /><path clip-path="url(#clip250)" d="M2184.07 1500.96 Q2182.72 1498.61 2179.72 1498.76 Q2176.74 1498.92 2172.11 1501.59 Q2167.49 1504.26 2165.85 1506.76 Q2164.24 1509.28 2165.59 1511.63 Q2166.96 1513.99 2169.93 1513.83 Q2172.93 1513.68 2177.55 1511.02 Q2182.18 1508.34 2183.8 1505.83 Q2185.43 1503.32 2184.07 1500.96 M2186.48 1499.57 Q2188.66 1503.34 2186.81 1507.05 Q2184.99 1510.77 2179.3 1514.05 Q2173.64 1517.33 2169.49 1517.05 Q2165.37 1516.79 2163.19 1513.01 Q2161.01 1509.24 2162.83 1505.52 Q2164.68 1501.81 2170.35 1498.54 Q2176.03 1495.26 2180.15 1495.52 Q2184.3 1495.8 2186.48 1499.57 Z" fill="#4c4c4c" fill-rule="evenodd" fill-opacity="1" /><path clip-path="url(#clip250)" d="M2287.04 1466.14 L2289.9 1471.1 L2307.03 1461.21 L2302.83 1456.44 L2305.6 1454.84 L2309.78 1459.58 L2311.53 1462.62 L2291.64 1474.11 L2294.5 1479.07 L2291.95 1480.54 L2284.48 1467.61 L2287.04 1466.14 Z" fill="#4c4c4c" fill-rule="evenodd" fill-opacity="1" /><path clip-path="url(#clip250)" d="M2312.91 1488.89 Q2313.7 1491.34 2312.93 1493.41 Q2312.17 1495.49 2310 1496.74 Q2306.68 1498.66 2303.54 1497.43 Q2300.4 1496.19 2297.97 1491.98 Q2297.15 1490.57 2296.57 1488.9 Q2295.98 1487.25 2295.62 1485.34 L2298.55 1483.65 Q2298.54 1485.34 2299.04 1487.06 Q2299.53 1488.78 2300.47 1490.41 Q2302.12 1493.27 2304.11 1494.11 Q2306.11 1494.96 2308.26 1493.72 Q2310.24 1492.57 2310.55 1490.53 Q2310.87 1488.5 2309.44 1486.02 L2307.93 1483.4 L2310.43 1481.96 L2312.01 1484.7 Q2313.3 1486.94 2314.87 1487.61 Q2316.46 1488.28 2318.15 1487.31 Q2319.88 1486.31 2320.08 1484.55 Q2320.31 1482.79 2318.99 1480.51 Q2318.27 1479.26 2317.17 1477.99 Q2316.08 1476.71 2314.52 1475.33 L2317.22 1473.77 Q2318.7 1475.22 2319.81 1476.58 Q2320.93 1477.96 2321.7 1479.3 Q2323.7 1482.76 2323.28 1485.69 Q2322.88 1488.6 2320.21 1490.15 Q2318.34 1491.22 2316.43 1490.9 Q2314.54 1490.57 2312.91 1488.89 Z" fill="#4c4c4c" fill-rule="evenodd" fill-opacity="1" /><path clip-path="url(#clip250)" d="M2331 1500.96 Q2329.64 1498.61 2326.64 1498.76 Q2323.67 1498.92 2319.03 1501.59 Q2314.42 1504.26 2312.78 1506.76 Q2311.17 1509.28 2312.52 1511.63 Q2313.88 1513.99 2316.86 1513.83 Q2319.86 1513.68 2324.48 1511.02 Q2329.11 1508.34 2330.72 1505.83 Q2332.36 1503.32 2331 1500.96 M2333.4 1499.57 Q2335.58 1503.34 2333.74 1507.05 Q2331.91 1510.77 2326.23 1514.05 Q2320.56 1517.33 2316.42 1517.05 Q2312.29 1516.79 2310.11 1513.01 Q2307.94 1509.24 2309.76 1505.52 Q2311.6 1501.81 2317.27 1498.54 Q2322.96 1495.26 2327.08 1495.52 Q2331.22 1495.8 2333.4 1499.57 Z" fill="#4c4c4c" fill-rule="evenodd" fill-opacity="1" /><path clip-path="url(#clip250)" d="M1231.02 1537.87 L1235.7 1537.87 L1235.7 1572.43 L1231.02 1572.43 L1231.02 1537.87 Z" fill="#000000" fill-rule="evenodd" fill-opacity="1" /><path clip-path="url(#clip250)" d="M1249.03 1539.15 L1249.03 1546.51 L1257.81 1546.51 L1257.81 1549.82 L1249.03 1549.82 L1249.03 1563.89 Q1249.03 1567.06 1249.89 1567.97 Q1250.77 1568.87 1253.43 1568.87 L1257.81 1568.87 L1257.81 1572.43 L1253.43 1572.43 Q1248.5 1572.43 1246.63 1570.6 Q1244.75 1568.75 1244.75 1563.89 L1244.75 1549.82 L1241.63 1549.82 L1241.63 1546.51 L1244.75 1546.51 L1244.75 1539.15 L1249.03 1539.15 Z" fill="#000000" fill-rule="evenodd" fill-opacity="1" /><path clip-path="url(#clip250)" d="M1285.58 1558.41 L1285.58 1560.49 L1266 1560.49 Q1266.28 1564.89 1268.64 1567.2 Q1271.02 1569.49 1275.26 1569.49 Q1277.71 1569.49 1280 1568.89 Q1282.32 1568.29 1284.59 1567.09 L1284.59 1571.11 Q1282.3 1572.09 1279.89 1572.6 Q1277.48 1573.1 1275 1573.1 Q1268.8 1573.1 1265.17 1569.49 Q1261.56 1565.88 1261.56 1559.73 Q1261.56 1553.36 1264.98 1549.63 Q1268.43 1545.88 1274.26 1545.88 Q1279.5 1545.88 1282.53 1549.26 Q1285.58 1552.62 1285.58 1558.41 M1281.32 1557.16 Q1281.28 1553.66 1279.36 1551.58 Q1277.46 1549.49 1274.31 1549.49 Q1270.75 1549.49 1268.59 1551.51 Q1266.46 1553.52 1266.14 1557.18 L1281.32 1557.16 Z" fill="#000000" fill-rule="evenodd" fill-opacity="1" /><path clip-path="url(#clip250)" d="M1307.6 1550.49 Q1306.88 1550.07 1306.02 1549.89 Q1305.19 1549.68 1304.17 1549.68 Q1300.56 1549.68 1298.62 1552.04 Q1296.69 1554.38 1296.69 1558.78 L1296.69 1572.43 L1292.41 1572.43 L1292.41 1546.51 L1296.69 1546.51 L1296.69 1550.54 Q1298.04 1548.17 1300.19 1547.04 Q1302.34 1545.88 1305.42 1545.88 Q1305.86 1545.88 1306.39 1545.95 Q1306.93 1546 1307.57 1546.11 L1307.6 1550.49 Z" fill="#000000" fill-rule="evenodd" fill-opacity="1" /><path clip-path="url(#clip250)" d="M1323.85 1559.4 Q1318.68 1559.4 1316.69 1560.58 Q1314.7 1561.76 1314.7 1564.61 Q1314.7 1566.88 1316.18 1568.22 Q1317.69 1569.54 1320.26 1569.54 Q1323.8 1569.54 1325.93 1567.04 Q1328.08 1564.52 1328.08 1560.35 L1328.08 1559.4 L1323.85 1559.4 M1332.34 1557.64 L1332.34 1572.43 L1328.08 1572.43 L1328.08 1568.5 Q1326.62 1570.86 1324.45 1571.99 Q1322.27 1573.1 1319.12 1573.1 Q1315.14 1573.1 1312.78 1570.88 Q1310.44 1568.64 1310.44 1564.89 Q1310.44 1560.51 1313.36 1558.29 Q1316.3 1556.07 1322.11 1556.07 L1328.08 1556.07 L1328.08 1555.65 Q1328.08 1552.71 1326.14 1551.11 Q1324.22 1549.49 1320.72 1549.49 Q1318.5 1549.49 1316.39 1550.03 Q1314.29 1550.56 1312.34 1551.62 L1312.34 1547.69 Q1314.68 1546.79 1316.88 1546.35 Q1319.08 1545.88 1321.16 1545.88 Q1326.79 1545.88 1329.56 1548.8 Q1332.34 1551.72 1332.34 1557.64 Z" fill="#000000" fill-rule="evenodd" fill-opacity="1" /><path clip-path="url(#clip250)" d="M1345.33 1539.15 L1345.33 1546.51 L1354.1 1546.51 L1354.1 1549.82 L1345.33 1549.82 L1345.33 1563.89 Q1345.33 1567.06 1346.18 1567.97 Q1347.06 1568.87 1349.73 1568.87 L1354.1 1568.87 L1354.1 1572.43 L1349.73 1572.43 Q1344.8 1572.43 1342.92 1570.6 Q1341.05 1568.75 1341.05 1563.89 L1341.05 1549.82 L1337.92 1549.82 L1337.92 1546.51 L1341.05 1546.51 L1341.05 1539.15 L1345.33 1539.15 Z" fill="#000000" fill-rule="evenodd" fill-opacity="1" /><path clip-path="url(#clip250)" d="M1359.7 1546.51 L1363.96 1546.51 L1363.96 1572.43 L1359.7 1572.43 L1359.7 1546.51 M1359.7 1536.42 L1363.96 1536.42 L1363.96 1541.81 L1359.7 1541.81 L1359.7 1536.42 Z" fill="#000000" fill-rule="evenodd" fill-opacity="1" /><path clip-path="url(#clip250)" d="M1382.92 1549.49 Q1379.49 1549.49 1377.5 1552.18 Q1375.51 1554.84 1375.51 1559.49 Q1375.51 1564.15 1377.48 1566.83 Q1379.47 1569.49 1382.92 1569.49 Q1386.32 1569.49 1388.31 1566.81 Q1390.3 1564.12 1390.3 1559.49 Q1390.3 1554.89 1388.31 1552.2 Q1386.32 1549.49 1382.92 1549.49 M1382.92 1545.88 Q1388.48 1545.88 1391.65 1549.49 Q1394.82 1553.1 1394.82 1559.49 Q1394.82 1565.86 1391.65 1569.49 Q1388.48 1573.1 1382.92 1573.1 Q1377.34 1573.1 1374.17 1569.49 Q1371.02 1565.86 1371.02 1559.49 Q1371.02 1553.1 1374.17 1549.49 Q1377.34 1545.88 1382.92 1545.88 Z" fill="#000000" fill-rule="evenodd" fill-opacity="1" /><path clip-path="url(#clip250)" d="M1423.43 1556.79 L1423.43 1572.43 L1419.17 1572.43 L1419.17 1556.92 Q1419.17 1553.24 1417.74 1551.41 Q1416.3 1549.59 1413.43 1549.59 Q1409.98 1549.59 1407.99 1551.79 Q1406 1553.98 1406 1557.78 L1406 1572.43 L1401.72 1572.43 L1401.72 1546.51 L1406 1546.51 L1406 1550.54 Q1407.53 1548.2 1409.59 1547.04 Q1411.67 1545.88 1414.38 1545.88 Q1418.85 1545.88 1421.14 1548.66 Q1423.43 1551.41 1423.43 1556.79 Z" fill="#000000" fill-rule="evenodd" fill-opacity="1" /><path clip-path="url(#clip250)" d="M1448.45 1547.27 L1448.45 1551.3 Q1446.65 1550.37 1444.7 1549.91 Q1442.76 1549.45 1440.67 1549.45 Q1437.5 1549.45 1435.91 1550.42 Q1434.33 1551.39 1434.33 1553.34 Q1434.33 1554.82 1435.47 1555.67 Q1436.6 1556.51 1440.03 1557.27 L1441.49 1557.6 Q1446.02 1558.57 1447.92 1560.35 Q1449.84 1562.11 1449.84 1565.28 Q1449.84 1568.89 1446.97 1571 Q1444.12 1573.1 1439.12 1573.1 Q1437.04 1573.1 1434.77 1572.69 Q1432.53 1572.29 1430.03 1571.48 L1430.03 1567.09 Q1432.39 1568.31 1434.68 1568.94 Q1436.97 1569.54 1439.22 1569.54 Q1442.23 1569.54 1443.85 1568.52 Q1445.47 1567.48 1445.47 1565.6 Q1445.47 1563.87 1444.29 1562.94 Q1443.13 1562.02 1439.17 1561.16 L1437.69 1560.81 Q1433.73 1559.98 1431.97 1558.27 Q1430.21 1556.53 1430.21 1553.52 Q1430.21 1549.86 1432.8 1547.87 Q1435.4 1545.88 1440.17 1545.88 Q1442.53 1545.88 1444.61 1546.23 Q1446.69 1546.58 1448.45 1547.27 Z" fill="#000000" fill-rule="evenodd" fill-opacity="1" /><polyline clip-path="url(#clip252)" style="stroke:#ffffff; stroke-linecap:butt; stroke-linejoin:round; stroke-width:4; stroke-opacity:1; fill:none" points="
  328.109,1403.85 2352.76,1403.85 
  "/>
<polyline clip-path="url(#clip252)" style="stroke:#ffffff; stroke-linecap:butt; stroke-linejoin:round; stroke-width:4; stroke-opacity:1; fill:none" points="
  328.109,1092.63 2352.76,1092.63 
  "/>
<polyline clip-path="url(#clip252)" style="stroke:#ffffff; stroke-linecap:butt; stroke-linejoin:round; stroke-width:4; stroke-opacity:1; fill:none" points="
  328.109,781.422 2352.76,781.422 
  "/>
<polyline clip-path="url(#clip252)" style="stroke:#ffffff; stroke-linecap:butt; stroke-linejoin:round; stroke-width:4; stroke-opacity:1; fill:none" points="
  328.109,470.21 2352.76,470.21 
  "/>
<polyline clip-path="url(#clip252)" style="stroke:#ffffff; stroke-linecap:butt; stroke-linejoin:round; stroke-width:4; stroke-opacity:1; fill:none" points="
  328.109,158.998 2352.76,158.998 
  "/>
<polyline clip-path="url(#clip252)" style="stroke:#ffffff; stroke-linecap:butt; stroke-linejoin:round; stroke-width:2; stroke-opacity:1; fill:none" points="
  328.109,1248.24 2352.76,1248.24 
  "/>
<polyline clip-path="url(#clip252)" style="stroke:#ffffff; stroke-linecap:butt; stroke-linejoin:round; stroke-width:2; stroke-opacity:1; fill:none" points="
  328.109,937.028 2352.76,937.028 
  "/>
<polyline clip-path="url(#clip252)" style="stroke:#ffffff; stroke-linecap:butt; stroke-linejoin:round; stroke-width:2; stroke-opacity:1; fill:none" points="
  328.109,625.816 2352.76,625.816 
  "/>
<polyline clip-path="url(#clip252)" style="stroke:#ffffff; stroke-linecap:butt; stroke-linejoin:round; stroke-width:2; stroke-opacity:1; fill:none" points="
  328.109,314.604 2352.76,314.604 
  "/>
<polyline clip-path="url(#clip250)" style="stroke:#ffffff; stroke-linecap:butt; stroke-linejoin:round; stroke-width:4; stroke-opacity:1; fill:none" points="
  328.109,1422.18 328.109,106.192 
  "/>
<polyline clip-path="url(#clip250)" style="stroke:#333333; stroke-linecap:butt; stroke-linejoin:round; stroke-width:4; stroke-opacity:1; fill:none" points="
  328.109,1403.85 309.211,1403.85 
  "/>
<polyline clip-path="url(#clip250)" style="stroke:#333333; stroke-linecap:butt; stroke-linejoin:round; stroke-width:4; stroke-opacity:1; fill:none" points="
  328.109,1092.63 309.211,1092.63 
  "/>
<polyline clip-path="url(#clip250)" style="stroke:#333333; stroke-linecap:butt; stroke-linejoin:round; stroke-width:4; stroke-opacity:1; fill:none" points="
  328.109,781.422 309.211,781.422 
  "/>
<polyline clip-path="url(#clip250)" style="stroke:#333333; stroke-linecap:butt; stroke-linejoin:round; stroke-width:4; stroke-opacity:1; fill:none" points="
  328.109,470.21 309.211,470.21 
  "/>
<polyline clip-path="url(#clip250)" style="stroke:#333333; stroke-linecap:butt; stroke-linejoin:round; stroke-width:4; stroke-opacity:1; fill:none" points="
  328.109,158.998 309.211,158.998 
  "/>
<polyline clip-path="url(#clip250)" style="stroke:#333333; stroke-linecap:butt; stroke-linejoin:round; stroke-width:4; stroke-opacity:1; fill:none" points="
  328.109,1248.24 318.66,1248.24 
  "/>
<polyline clip-path="url(#clip250)" style="stroke:#333333; stroke-linecap:butt; stroke-linejoin:round; stroke-width:4; stroke-opacity:1; fill:none" points="
  328.109,937.028 318.66,937.028 
  "/>
<polyline clip-path="url(#clip250)" style="stroke:#333333; stroke-linecap:butt; stroke-linejoin:round; stroke-width:4; stroke-opacity:1; fill:none" points="
  328.109,625.816 318.66,625.816 
  "/>
<polyline clip-path="url(#clip250)" style="stroke:#333333; stroke-linecap:butt; stroke-linejoin:round; stroke-width:4; stroke-opacity:1; fill:none" points="
  328.109,314.604 318.66,314.604 
  "/>
<path clip-path="url(#clip250)" d="M193.97 1404.19 L216.227 1404.19 L216.227 1407.14 L193.97 1407.14 L193.97 1404.19 Z" fill="#4c4c4c" fill-rule="evenodd" fill-opacity="1" /><path clip-path="url(#clip250)" d="M231.731 1402.45 Q229.37 1402.45 227.981 1404.06 Q226.609 1405.68 226.609 1408.49 Q226.609 1411.29 227.981 1412.92 Q229.37 1414.53 231.731 1414.53 Q234.092 1414.53 235.463 1412.92 Q236.852 1411.29 236.852 1408.49 Q236.852 1405.68 235.463 1404.06 Q234.092 1402.45 231.731 1402.45 M238.692 1391.46 L238.692 1394.65 Q237.373 1394.03 236.019 1393.7 Q234.682 1393.37 233.363 1393.37 Q229.89 1393.37 228.05 1395.71 Q226.227 1398.06 225.967 1402.8 Q226.991 1401.29 228.536 1400.49 Q230.081 1399.67 231.939 1399.67 Q235.845 1399.67 238.102 1402.05 Q240.376 1404.41 240.376 1408.49 Q240.376 1412.48 238.015 1414.9 Q235.654 1417.31 231.731 1417.31 Q227.234 1417.31 224.856 1413.87 Q222.477 1410.42 222.477 1403.87 Q222.477 1397.73 225.394 1394.08 Q228.31 1390.42 233.224 1390.42 Q234.543 1390.42 235.88 1390.68 Q237.234 1390.94 238.692 1391.46 Z" fill="#4c4c4c" fill-rule="evenodd" fill-opacity="1" /><path clip-path="url(#clip250)" d="M246.418 1412.4 L250.081 1412.4 L250.081 1416.81 L246.418 1416.81 L246.418 1412.4 Z" fill="#4c4c4c" fill-rule="evenodd" fill-opacity="1" /><path clip-path="url(#clip250)" d="M265.22 1404.5 Q262.72 1404.5 261.279 1405.83 Q259.855 1407.17 259.855 1409.51 Q259.855 1411.86 261.279 1413.2 Q262.72 1414.53 265.22 1414.53 Q267.72 1414.53 269.161 1413.2 Q270.602 1411.84 270.602 1409.51 Q270.602 1407.17 269.161 1405.83 Q267.737 1404.5 265.22 1404.5 M261.713 1403 Q259.456 1402.45 258.189 1400.9 Q256.939 1399.36 256.939 1397.14 Q256.939 1394.03 259.144 1392.22 Q261.366 1390.42 265.22 1390.42 Q269.092 1390.42 271.296 1392.22 Q273.501 1394.03 273.501 1397.14 Q273.501 1399.36 272.234 1400.9 Q270.984 1402.45 268.744 1403 Q271.279 1403.59 272.685 1405.31 Q274.109 1407.03 274.109 1409.51 Q274.109 1413.28 271.8 1415.3 Q269.508 1417.31 265.22 1417.31 Q260.932 1417.31 258.623 1415.3 Q256.331 1413.28 256.331 1409.51 Q256.331 1407.03 257.755 1405.31 Q259.178 1403.59 261.713 1403 M260.428 1397.47 Q260.428 1399.48 261.678 1400.61 Q262.946 1401.74 265.22 1401.74 Q267.477 1401.74 268.744 1400.61 Q270.029 1399.48 270.029 1397.47 Q270.029 1395.45 268.744 1394.32 Q267.477 1393.2 265.22 1393.2 Q262.946 1393.2 261.678 1394.32 Q260.428 1395.45 260.428 1397.47 Z" fill="#4c4c4c" fill-rule="evenodd" fill-opacity="1" /><path clip-path="url(#clip250)" d="M193.779 1092.97 L216.036 1092.97 L216.036 1095.92 L193.779 1095.92 L193.779 1092.97 Z" fill="#4c4c4c" fill-rule="evenodd" fill-opacity="1" /><path clip-path="url(#clip250)" d="M231.54 1091.24 Q229.179 1091.24 227.79 1092.85 Q226.418 1094.47 226.418 1097.28 Q226.418 1100.07 227.79 1101.71 Q229.179 1103.32 231.54 1103.32 Q233.901 1103.32 235.272 1101.71 Q236.661 1100.07 236.661 1097.28 Q236.661 1094.47 235.272 1092.85 Q233.901 1091.24 231.54 1091.24 M238.501 1080.25 L238.501 1083.44 Q237.182 1082.82 235.828 1082.49 Q234.491 1082.16 233.172 1082.16 Q229.699 1082.16 227.859 1084.5 Q226.036 1086.84 225.776 1091.58 Q226.8 1090.07 228.345 1089.27 Q229.89 1088.46 231.748 1088.46 Q235.654 1088.46 237.911 1090.84 Q240.185 1093.2 240.185 1097.28 Q240.185 1101.27 237.824 1103.68 Q235.463 1106.1 231.54 1106.1 Q227.043 1106.1 224.665 1102.66 Q222.286 1099.21 222.286 1092.66 Q222.286 1086.51 225.203 1082.87 Q228.12 1079.21 233.033 1079.21 Q234.352 1079.21 235.689 1079.47 Q237.043 1079.73 238.501 1080.25 Z" fill="#4c4c4c" fill-rule="evenodd" fill-opacity="1" /><path clip-path="url(#clip250)" d="M246.227 1101.18 L249.89 1101.18 L249.89 1105.59 L246.227 1105.59 L246.227 1101.18 Z" fill="#4c4c4c" fill-rule="evenodd" fill-opacity="1" /><path clip-path="url(#clip250)" d="M265.463 1091.24 Q263.102 1091.24 261.713 1092.85 Q260.342 1094.47 260.342 1097.28 Q260.342 1100.07 261.713 1101.71 Q263.102 1103.32 265.463 1103.32 Q267.824 1103.32 269.196 1101.71 Q270.585 1100.07 270.585 1097.28 Q270.585 1094.47 269.196 1092.85 Q267.824 1091.24 265.463 1091.24 M272.425 1080.25 L272.425 1083.44 Q271.105 1082.82 269.751 1082.49 Q268.414 1082.16 267.095 1082.16 Q263.623 1082.16 261.783 1084.5 Q259.96 1086.84 259.699 1091.58 Q260.724 1090.07 262.269 1089.27 Q263.814 1088.46 265.671 1088.46 Q269.578 1088.46 271.835 1090.84 Q274.109 1093.2 274.109 1097.28 Q274.109 1101.27 271.748 1103.68 Q269.387 1106.1 265.463 1106.1 Q260.967 1106.1 258.588 1102.66 Q256.21 1099.21 256.21 1092.66 Q256.21 1086.51 259.126 1082.87 Q262.043 1079.21 266.956 1079.21 Q268.276 1079.21 269.612 1079.47 Q270.967 1079.73 272.425 1080.25 Z" fill="#4c4c4c" fill-rule="evenodd" fill-opacity="1" /><path clip-path="url(#clip250)" d="M193.536 781.761 L215.793 781.761 L215.793 784.712 L193.536 784.712 L193.536 781.761 Z" fill="#4c4c4c" fill-rule="evenodd" fill-opacity="1" /><path clip-path="url(#clip250)" d="M231.297 780.025 Q228.935 780.025 227.547 781.639 Q226.175 783.254 226.175 786.066 Q226.175 788.861 227.547 790.493 Q228.935 792.108 231.297 792.108 Q233.658 792.108 235.029 790.493 Q236.418 788.861 236.418 786.066 Q236.418 783.254 235.029 781.639 Q233.658 780.025 231.297 780.025 M238.258 769.035 L238.258 772.229 Q236.939 771.604 235.585 771.275 Q234.248 770.945 232.929 770.945 Q229.456 770.945 227.616 773.288 Q225.793 775.632 225.533 780.372 Q226.557 778.861 228.102 778.063 Q229.647 777.247 231.505 777.247 Q235.411 777.247 237.668 779.625 Q239.942 781.986 239.942 786.066 Q239.942 790.059 237.581 792.472 Q235.22 794.886 231.297 794.886 Q226.8 794.886 224.422 791.448 Q222.043 787.993 222.043 781.448 Q222.043 775.302 224.96 771.657 Q227.876 767.993 232.79 767.993 Q234.109 767.993 235.446 768.254 Q236.8 768.514 238.258 769.035 Z" fill="#4c4c4c" fill-rule="evenodd" fill-opacity="1" /><path clip-path="url(#clip250)" d="M245.984 789.972 L249.647 789.972 L249.647 794.382 L245.984 794.382 L245.984 789.972 Z" fill="#4c4c4c" fill-rule="evenodd" fill-opacity="1" /><path clip-path="url(#clip250)" d="M266.921 771.518 L258.067 785.354 L266.921 785.354 L266.921 771.518 M266.001 768.462 L270.411 768.462 L270.411 785.354 L274.109 785.354 L274.109 788.271 L270.411 788.271 L270.411 794.382 L266.921 794.382 L266.921 788.271 L255.22 788.271 L255.22 784.886 L266.001 768.462 Z" fill="#4c4c4c" fill-rule="evenodd" fill-opacity="1" /><path clip-path="url(#clip250)" d="M195.099 470.548 L217.356 470.548 L217.356 473.5 L195.099 473.5 L195.099 470.548 Z" fill="#4c4c4c" fill-rule="evenodd" fill-opacity="1" /><path clip-path="url(#clip250)" d="M232.859 468.812 Q230.498 468.812 229.109 470.427 Q227.738 472.041 227.738 474.854 Q227.738 477.649 229.109 479.281 Q230.498 480.896 232.859 480.896 Q235.22 480.896 236.592 479.281 Q237.981 477.649 237.981 474.854 Q237.981 472.041 236.592 470.427 Q235.22 468.812 232.859 468.812 M239.821 457.823 L239.821 461.017 Q238.501 460.392 237.147 460.062 Q235.81 459.732 234.491 459.732 Q231.019 459.732 229.179 462.076 Q227.356 464.42 227.095 469.159 Q228.12 467.649 229.665 466.85 Q231.21 466.035 233.067 466.035 Q236.974 466.035 239.231 468.413 Q241.505 470.774 241.505 474.854 Q241.505 478.847 239.144 481.26 Q236.783 483.673 232.859 483.673 Q228.363 483.673 225.984 480.236 Q223.606 476.781 223.606 470.236 Q223.606 464.09 226.522 460.444 Q229.439 456.781 234.352 456.781 Q235.672 456.781 237.008 457.042 Q238.363 457.302 239.821 457.823 Z" fill="#4c4c4c" fill-rule="evenodd" fill-opacity="1" /><path clip-path="url(#clip250)" d="M247.547 478.76 L251.21 478.76 L251.21 483.17 L247.547 483.17 L247.547 478.76 Z" fill="#4c4c4c" fill-rule="evenodd" fill-opacity="1" /><path clip-path="url(#clip250)" d="M261.869 480.218 L274.109 480.218 L274.109 483.17 L257.651 483.17 L257.651 480.218 Q259.647 478.153 263.085 474.68 Q266.539 471.191 267.425 470.184 Q269.109 468.291 269.769 466.989 Q270.446 465.67 270.446 464.403 Q270.446 462.337 268.987 461.035 Q267.546 459.732 265.22 459.732 Q263.571 459.732 261.73 460.305 Q259.908 460.878 257.824 462.041 L257.824 458.5 Q259.942 457.649 261.783 457.215 Q263.623 456.781 265.151 456.781 Q269.178 456.781 271.574 458.795 Q273.97 460.809 273.97 464.177 Q273.97 465.774 273.362 467.215 Q272.772 468.639 271.192 470.583 Q270.758 471.087 268.432 473.5 Q266.105 475.896 261.869 480.218 Z" fill="#4c4c4c" fill-rule="evenodd" fill-opacity="1" /><path clip-path="url(#clip250)" d="M193.901 159.336 L216.158 159.336 L216.158 162.288 L193.901 162.288 L193.901 159.336 Z" fill="#4c4c4c" fill-rule="evenodd" fill-opacity="1" /><path clip-path="url(#clip250)" d="M231.661 157.6 Q229.3 157.6 227.911 159.215 Q226.54 160.829 226.54 163.642 Q226.54 166.437 227.911 168.069 Q229.3 169.683 231.661 169.683 Q234.022 169.683 235.394 168.069 Q236.783 166.437 236.783 163.642 Q236.783 160.829 235.394 159.215 Q234.022 157.6 231.661 157.6 M238.623 146.611 L238.623 149.805 Q237.304 149.18 235.949 148.85 Q234.613 148.52 233.293 148.52 Q229.821 148.52 227.981 150.864 Q226.158 153.208 225.897 157.947 Q226.922 156.437 228.467 155.638 Q230.012 154.822 231.87 154.822 Q235.776 154.822 238.033 157.201 Q240.307 159.562 240.307 163.642 Q240.307 167.635 237.946 170.048 Q235.585 172.461 231.661 172.461 Q227.165 172.461 224.786 169.024 Q222.408 165.569 222.408 159.024 Q222.408 152.878 225.324 149.232 Q228.241 145.569 233.154 145.569 Q234.474 145.569 235.81 145.829 Q237.165 146.09 238.623 146.611 Z" fill="#4c4c4c" fill-rule="evenodd" fill-opacity="1" /><path clip-path="url(#clip250)" d="M246.349 167.548 L250.012 167.548 L250.012 171.958 L246.349 171.958 L246.349 167.548 Z" fill="#4c4c4c" fill-rule="evenodd" fill-opacity="1" /><path clip-path="url(#clip250)" d="M265.151 148.347 Q262.442 148.347 261.071 151.02 Q259.717 153.676 259.717 159.024 Q259.717 164.353 261.071 167.027 Q262.442 169.683 265.151 169.683 Q267.876 169.683 269.23 167.027 Q270.602 164.353 270.602 159.024 Q270.602 153.676 269.23 151.02 Q267.876 148.347 265.151 148.347 M265.151 145.569 Q269.508 145.569 271.8 149.024 Q274.109 152.461 274.109 159.024 Q274.109 165.569 271.8 169.024 Q269.508 172.461 265.151 172.461 Q260.793 172.461 258.484 169.024 Q256.192 165.569 256.192 159.024 Q256.192 152.461 258.484 149.024 Q260.793 145.569 265.151 145.569 Z" fill="#4c4c4c" fill-rule="evenodd" fill-opacity="1" /><path clip-path="url(#clip250)" d="M130.608 973.882 L130.608 944.646 L134.544 944.646 L134.544 956.915 L165.168 956.915 L165.168 961.614 L134.544 961.614 L134.544 973.882 L130.608 973.882 Z" fill="#000000" fill-rule="evenodd" fill-opacity="1" /><path clip-path="url(#clip250)" d="M151.141 926.198 L153.224 926.198 L153.224 945.781 Q157.622 945.503 159.937 943.142 Q162.229 940.758 162.229 936.522 Q162.229 934.068 161.627 931.776 Q161.025 929.461 159.821 927.193 L163.849 927.193 Q164.821 929.485 165.33 931.892 Q165.84 934.299 165.84 936.776 Q165.84 942.98 162.229 946.614 Q158.617 950.225 152.46 950.225 Q146.094 950.225 142.368 946.799 Q138.618 943.35 138.618 937.517 Q138.618 932.285 141.997 929.253 Q145.354 926.198 151.141 926.198 M149.891 930.457 Q146.395 930.503 144.312 932.424 Q142.229 934.322 142.229 937.471 Q142.229 941.035 144.243 943.188 Q146.256 945.318 149.914 945.642 L149.891 930.457 Z" fill="#000000" fill-rule="evenodd" fill-opacity="1" /><path clip-path="url(#clip250)" d="M140.006 902.679 L144.034 902.679 Q143.108 904.485 142.645 906.429 Q142.182 908.374 142.182 910.457 Q142.182 913.628 143.155 915.225 Q144.127 916.799 146.071 916.799 Q147.553 916.799 148.409 915.665 Q149.243 914.531 150.006 911.105 L150.33 909.647 Q151.303 905.11 153.085 903.212 Q154.844 901.29 158.016 901.29 Q161.627 901.29 163.733 904.161 Q165.84 907.008 165.84 912.008 Q165.84 914.091 165.423 916.36 Q165.029 918.605 164.219 921.105 L159.821 921.105 Q161.048 918.744 161.673 916.452 Q162.275 914.161 162.275 911.915 Q162.275 908.906 161.256 907.286 Q160.215 905.665 158.34 905.665 Q156.604 905.665 155.678 906.846 Q154.752 908.003 153.895 911.961 L153.548 913.443 Q152.715 917.401 151.002 919.161 Q149.266 920.92 146.256 920.92 Q142.599 920.92 140.608 918.327 Q138.618 915.735 138.618 910.966 Q138.618 908.605 138.965 906.522 Q139.312 904.438 140.006 902.679 Z" fill="#000000" fill-rule="evenodd" fill-opacity="1" /><path clip-path="url(#clip250)" d="M131.882 890.295 L139.243 890.295 L139.243 881.522 L142.553 881.522 L142.553 890.295 L156.627 890.295 Q159.798 890.295 160.701 889.438 Q161.604 888.559 161.604 885.897 L161.604 881.522 L165.168 881.522 L165.168 885.897 Q165.168 890.827 163.34 892.702 Q161.488 894.577 156.627 894.577 L142.553 894.577 L142.553 897.702 L139.243 897.702 L139.243 894.577 L131.882 894.577 L131.882 890.295 Z" fill="#000000" fill-rule="evenodd" fill-opacity="1" /><path clip-path="url(#clip250)" d="M129.15 860.851 L129.15 856.591 L165.168 856.591 L165.168 860.851 L129.15 860.851 Z" fill="#000000" fill-rule="evenodd" fill-opacity="1" /><path clip-path="url(#clip250)" d="M142.229 837.633 Q142.229 841.059 144.914 843.05 Q147.576 845.041 152.229 845.041 Q156.881 845.041 159.567 843.073 Q162.229 841.082 162.229 837.633 Q162.229 834.23 159.543 832.24 Q156.858 830.249 152.229 830.249 Q147.622 830.249 144.937 832.24 Q142.229 834.23 142.229 837.633 M138.618 837.633 Q138.618 832.078 142.229 828.906 Q145.84 825.735 152.229 825.735 Q158.594 825.735 162.229 828.906 Q165.84 832.078 165.84 837.633 Q165.84 843.212 162.229 846.383 Q158.594 849.531 152.229 849.531 Q145.84 849.531 142.229 846.383 Q138.618 843.212 138.618 837.633 Z" fill="#000000" fill-rule="evenodd" fill-opacity="1" /><path clip-path="url(#clip250)" d="M151.905 801.615 Q147.275 801.615 144.729 803.536 Q142.182 805.434 142.182 808.883 Q142.182 812.309 144.729 814.231 Q147.275 816.129 151.905 816.129 Q156.511 816.129 159.057 814.231 Q161.604 812.309 161.604 808.883 Q161.604 805.434 159.057 803.536 Q156.511 801.615 151.905 801.615 M161.951 797.356 Q168.571 797.356 171.789 800.295 Q175.029 803.235 175.029 809.3 Q175.029 811.545 174.682 813.536 Q174.358 815.527 173.664 817.402 L169.52 817.402 Q170.539 815.527 171.025 813.698 Q171.511 811.869 171.511 809.971 Q171.511 805.781 169.312 803.698 Q167.136 801.615 162.715 801.615 L160.608 801.615 Q162.9 802.934 164.034 804.994 Q165.168 807.055 165.168 809.925 Q165.168 814.693 161.534 817.61 Q157.9 820.527 151.905 820.527 Q145.886 820.527 142.252 817.61 Q138.618 814.693 138.618 809.925 Q138.618 807.055 139.752 804.994 Q140.886 802.934 143.178 801.615 L139.243 801.615 L139.243 797.356 L161.951 797.356 Z" fill="#000000" fill-rule="evenodd" fill-opacity="1" /><path clip-path="url(#clip250)" d="M150.284 790.735 L150.284 778.258 L154.08 778.258 L154.08 790.735 L150.284 790.735 Z" fill="#000000" fill-rule="evenodd" fill-opacity="1" /><path clip-path="url(#clip250)" d="M129.15 771.476 L129.15 767.217 L165.168 767.217 L165.168 771.476 L129.15 771.476 Z" fill="#000000" fill-rule="evenodd" fill-opacity="1" /><path clip-path="url(#clip250)" d="M139.243 758.305 L139.243 754.046 L165.168 754.046 L165.168 758.305 L139.243 758.305 M129.15 758.305 L129.15 754.046 L134.544 754.046 L134.544 758.305 L129.15 758.305 Z" fill="#000000" fill-rule="evenodd" fill-opacity="1" /><path clip-path="url(#clip250)" d="M129.15 745.296 L129.15 741.013 L150.423 741.013 L139.243 728.305 L139.243 722.865 L151.372 736.615 L165.168 722.287 L165.168 727.842 L152.506 741.013 L165.168 741.013 L165.168 745.296 L129.15 745.296 Z" fill="#000000" fill-rule="evenodd" fill-opacity="1" /><path clip-path="url(#clip250)" d="M151.141 697.194 L153.224 697.194 L153.224 716.777 Q157.622 716.5 159.937 714.138 Q162.229 711.754 162.229 707.518 Q162.229 705.064 161.627 702.773 Q161.025 700.458 159.821 698.189 L163.849 698.189 Q164.821 700.481 165.33 702.889 Q165.84 705.296 165.84 707.773 Q165.84 713.976 162.229 717.611 Q158.617 721.222 152.46 721.222 Q146.094 721.222 142.368 717.796 Q138.618 714.347 138.618 708.513 Q138.618 703.282 141.997 700.25 Q145.354 697.194 151.141 697.194 M149.891 701.453 Q146.395 701.5 144.312 703.421 Q142.229 705.319 142.229 708.467 Q142.229 712.032 144.243 714.185 Q146.256 716.314 149.914 716.638 L149.891 701.453 Z" fill="#000000" fill-rule="evenodd" fill-opacity="1" /><path clip-path="url(#clip250)" d="M129.15 690.203 L129.15 685.944 L165.168 685.944 L165.168 690.203 L129.15 690.203 Z" fill="#000000" fill-rule="evenodd" fill-opacity="1" /><path clip-path="url(#clip250)" d="M139.243 677.032 L139.243 672.773 L165.168 672.773 L165.168 677.032 L139.243 677.032 M129.15 677.032 L129.15 672.773 L134.544 672.773 L134.544 677.032 L129.15 677.032 Z" fill="#000000" fill-rule="evenodd" fill-opacity="1" /><path clip-path="url(#clip250)" d="M149.52 642.31 L165.168 642.31 L165.168 646.569 L149.659 646.569 Q145.979 646.569 144.15 648.005 Q142.321 649.44 142.321 652.31 Q142.321 655.759 144.52 657.75 Q146.719 659.741 150.516 659.741 L165.168 659.741 L165.168 664.023 L129.15 664.023 L129.15 659.741 L143.27 659.741 Q140.932 658.213 139.775 656.153 Q138.618 654.069 138.618 651.361 Q138.618 646.893 141.395 644.602 Q144.15 642.31 149.52 642.31 Z" fill="#000000" fill-rule="evenodd" fill-opacity="1" /><path clip-path="url(#clip250)" d="M142.229 623.769 Q142.229 627.194 144.914 629.185 Q147.576 631.176 152.229 631.176 Q156.881 631.176 159.567 629.208 Q162.229 627.218 162.229 623.769 Q162.229 620.366 159.543 618.375 Q156.858 616.384 152.229 616.384 Q147.622 616.384 144.937 618.375 Q142.229 620.366 142.229 623.769 M138.618 623.769 Q138.618 618.213 142.229 615.042 Q145.84 611.87 152.229 611.87 Q158.594 611.87 162.229 615.042 Q165.84 618.213 165.84 623.769 Q165.84 629.347 162.229 632.519 Q158.594 635.667 152.229 635.667 Q145.84 635.667 142.229 632.519 Q138.618 629.347 138.618 623.769 Z" fill="#000000" fill-rule="evenodd" fill-opacity="1" /><path clip-path="url(#clip250)" d="M142.229 594.764 Q142.229 598.19 144.914 600.181 Q147.576 602.171 152.229 602.171 Q156.881 602.171 159.567 600.204 Q162.229 598.213 162.229 594.764 Q162.229 591.361 159.543 589.371 Q156.858 587.38 152.229 587.38 Q147.622 587.38 144.937 589.371 Q142.229 591.361 142.229 594.764 M138.618 594.764 Q138.618 589.209 142.229 586.037 Q145.84 582.866 152.229 582.866 Q158.594 582.866 162.229 586.037 Q165.84 589.209 165.84 594.764 Q165.84 600.343 162.229 603.514 Q158.594 606.662 152.229 606.662 Q145.84 606.662 142.229 603.514 Q138.618 600.343 138.618 594.764 Z" fill="#000000" fill-rule="evenodd" fill-opacity="1" /><path clip-path="url(#clip250)" d="M143.178 558.746 L129.15 558.746 L129.15 554.487 L165.168 554.487 L165.168 558.746 L161.28 558.746 Q163.594 560.088 164.729 562.149 Q165.84 564.186 165.84 567.056 Q165.84 571.755 162.09 574.718 Q158.34 577.658 152.229 577.658 Q146.118 577.658 142.368 574.718 Q138.618 571.755 138.618 567.056 Q138.618 564.186 139.752 562.149 Q140.863 560.088 143.178 558.746 M152.229 573.26 Q156.928 573.26 159.613 571.338 Q162.275 569.394 162.275 566.014 Q162.275 562.635 159.613 560.69 Q156.928 558.746 152.229 558.746 Q147.53 558.746 144.868 560.69 Q142.182 562.635 142.182 566.014 Q142.182 569.394 144.868 571.338 Q147.53 573.26 152.229 573.26 Z" fill="#000000" fill-rule="evenodd" fill-opacity="1" /><path clip-path="url(#clip250)" d="M1301.36 32.2799 L1301.36 51.84 L1296.03 51.84 L1296.03 32.4535 Q1296.03 27.8529 1294.24 25.567 Q1292.44 23.2811 1288.86 23.2811 Q1284.54 23.2811 1282.06 26.03 Q1279.57 28.7788 1279.57 33.5241 L1279.57 51.84 L1274.21 51.84 L1274.21 19.4328 L1279.57 19.4328 L1279.57 24.4675 Q1281.48 21.545 1284.05 20.0983 Q1286.66 18.6515 1290.04 18.6515 Q1295.63 18.6515 1298.49 22.1237 Q1301.36 25.567 1301.36 32.2799 Z" fill="#000000" fill-rule="evenodd" fill-opacity="1" /><path clip-path="url(#clip250)" d="M1311.97 6.81709 L1317.3 6.81709 L1317.3 51.84 L1311.97 51.84 L1311.97 6.81709 Z" fill="#000000" fill-rule="evenodd" fill-opacity="1" /><path clip-path="url(#clip250)" d="M1333.7 10.2314 L1333.7 19.4328 L1344.67 19.4328 L1344.67 23.5705 L1333.7 23.5705 L1333.7 41.163 Q1333.7 45.1271 1334.78 46.2555 Q1335.88 47.384 1339.2 47.384 L1344.67 47.384 L1344.67 51.84 L1339.2 51.84 Q1333.04 51.84 1330.7 49.5541 Q1328.35 47.2393 1328.35 41.163 L1328.35 23.5705 L1324.45 23.5705 L1324.45 19.4328 L1328.35 19.4328 L1328.35 10.2314 L1333.7 10.2314 Z" fill="#000000" fill-rule="evenodd" fill-opacity="1" /><path clip-path="url(#clip250)" d="M1375 20.677 L1375 25.6538 Q1372.74 24.4096 1370.45 23.802 Q1368.2 23.1654 1365.88 23.1654 Q1360.7 23.1654 1357.84 26.464 Q1354.97 29.7336 1354.97 35.6653 Q1354.97 41.597 1357.84 44.8956 Q1360.7 48.1653 1365.88 48.1653 Q1368.2 48.1653 1370.45 47.5576 Q1372.74 46.921 1375 45.6768 L1375 50.5958 Q1372.77 51.6375 1370.37 52.1583 Q1367.99 52.6791 1365.3 52.6791 Q1357.98 52.6791 1353.67 48.0784 Q1349.36 43.4778 1349.36 35.6653 Q1349.36 27.7371 1353.7 23.1943 Q1358.07 18.6515 1365.65 18.6515 Q1368.11 18.6515 1370.45 19.1724 Q1372.8 19.6642 1375 20.677 Z" fill="#000000" fill-rule="evenodd" fill-opacity="1" /><path clip-path="url(#clip250)" d="M1404.91 20.3876 L1404.91 25.4223 Q1402.66 24.2649 1400.23 23.6862 Q1397.8 23.1075 1395.19 23.1075 Q1391.23 23.1075 1389.23 24.3228 Q1387.26 25.5381 1387.26 27.9686 Q1387.26 29.8204 1388.68 30.891 Q1390.1 31.9327 1394.38 32.8876 L1396.2 33.2926 Q1401.88 34.5079 1404.25 36.7359 Q1406.65 38.935 1406.65 42.8991 Q1406.65 47.4129 1403.06 50.046 Q1399.5 52.6791 1393.25 52.6791 Q1390.65 52.6791 1387.81 52.1583 Q1385.01 51.6664 1381.88 50.6537 L1381.88 45.156 Q1384.83 46.6896 1387.7 47.4708 Q1390.56 48.2231 1393.37 48.2231 Q1397.13 48.2231 1399.16 46.95 Q1401.18 45.6479 1401.18 43.3042 Q1401.18 41.134 1399.71 39.9766 Q1398.26 38.8192 1393.31 37.7486 L1391.46 37.3146 Q1386.51 36.273 1384.31 34.1318 Q1382.11 31.9616 1382.11 28.2001 Q1382.11 23.6283 1385.35 21.1399 Q1388.59 18.6515 1394.56 18.6515 Q1397.51 18.6515 1400.11 19.0855 Q1402.72 19.5196 1404.91 20.3876 Z" fill="#000000" fill-rule="evenodd" fill-opacity="1" /><polyline clip-path="url(#clip252)" style="stroke:#e26f46; stroke-linecap:butt; stroke-linejoin:round; stroke-width:8; stroke-opacity:1; fill:none" points="
  414.795,330.164 444.181,330.164 473.566,330.164 502.951,330.164 532.337,330.164 561.722,330.164 591.107,330.164 620.493,330.164 649.878,330.164 679.263,330.164 
  708.648,330.164 738.034,330.164 767.419,330.164 796.804,330.164 826.19,330.164 855.575,330.164 884.96,330.164 914.346,330.164 943.731,330.164 973.116,330.164 
  1002.5,330.164 1031.89,330.164 1061.27,330.164 1090.66,330.164 1120.04,330.164 1149.43,330.164 1178.81,330.164 1208.2,330.164 1237.58,330.164 1266.97,330.164 
  1296.35,330.164 1325.74,330.164 1355.13,330.164 1384.51,330.164 1413.9,330.164 1443.28,330.164 1472.67,330.164 1502.05,330.164 1531.44,330.164 1560.82,330.164 
  1590.21,330.164 1619.59,330.164 1648.98,330.164 1678.36,330.164 1707.75,330.164 1737.13,330.164 1766.52,330.164 1795.9,330.164 1825.29,330.164 1854.68,330.164 
  1884.06,330.164 1913.45,330.164 1942.83,330.164 1972.22,330.164 2001.6,330.164 2030.99,330.164 2060.37,330.164 2089.76,330.164 2119.14,330.164 2148.53,330.164 
  2177.91,330.164 2207.3,330.164 2236.68,330.164 2266.07,330.164 2295.45,330.164 
  "/>
<polyline clip-path="url(#clip252)" style="stroke:#3da44d; stroke-linecap:butt; stroke-linejoin:round; stroke-width:8; stroke-opacity:1; fill:none" points="
  414.795,252.361 444.181,252.361 473.566,252.361 502.951,252.361 532.337,252.361 561.722,252.361 591.107,252.361 620.493,252.361 649.878,252.361 679.263,252.361 
  708.648,252.361 738.034,252.361 767.419,252.361 796.804,252.361 826.19,252.361 855.575,252.361 884.96,252.361 914.346,252.361 943.731,252.361 973.116,252.361 
  1002.5,252.361 1031.89,252.361 1061.27,252.361 1090.66,252.361 1120.04,252.361 1149.43,252.361 1178.81,252.361 1208.2,252.361 1237.58,252.361 1266.97,252.361 
  1296.35,252.361 1325.74,252.361 1355.13,252.361 1384.51,252.361 1413.9,252.361 1443.28,252.361 1472.67,252.361 1502.05,252.361 1531.44,252.361 1560.82,252.361 
  1590.21,252.361 1619.59,252.361 1648.98,252.361 1678.36,252.361 1707.75,252.361 1737.13,252.361 1766.52,252.361 1795.9,252.361 1825.29,252.361 1854.68,252.361 
  1884.06,252.361 1913.45,252.361 1942.83,252.361 1972.22,252.361 2001.6,252.361 2030.99,252.361 2060.37,252.361 2089.76,252.361 2119.14,252.361 2148.53,252.361 
  2177.91,252.361 2207.3,252.361 2236.68,252.361 2266.07,252.361 2295.45,252.361 
  "/>
<polyline clip-path="url(#clip252)" style="stroke:#c271d2; stroke-linecap:butt; stroke-linejoin:round; stroke-width:8; stroke-opacity:1; fill:none" points="
  414.795,143.437 444.181,143.437 473.566,143.437 502.951,143.437 532.337,143.437 561.722,143.437 591.107,143.437 620.493,143.437 649.878,143.437 679.263,143.437 
  708.648,143.437 738.034,143.437 767.419,143.437 796.804,143.437 826.19,143.437 855.575,143.437 884.96,143.437 914.346,143.437 943.731,143.437 973.116,143.437 
  1002.5,143.437 1031.89,143.437 1061.27,143.437 1090.66,143.437 1120.04,143.437 1149.43,143.437 1178.81,143.437 1208.2,143.437 1237.58,143.437 1266.97,143.437 
  1296.35,143.437 1325.74,143.437 1355.13,143.437 1384.51,143.437 1413.9,143.437 1443.28,143.437 1472.67,143.437 1502.05,143.437 1531.44,143.437 1560.82,143.437 
  1590.21,143.437 1619.59,143.437 1648.98,143.437 1678.36,143.437 1707.75,143.437 1737.13,143.437 1766.52,143.437 1795.9,143.437 1825.29,143.437 1854.68,143.437 
  1884.06,143.437 1913.45,143.437 1942.83,143.437 1972.22,143.437 2001.6,143.437 2030.99,143.437 2060.37,143.437 2089.76,143.437 2119.14,143.437 2148.53,143.437 
  2177.91,143.437 2207.3,143.437 2236.68,143.437 2266.07,143.437 2295.45,143.437 
  "/>
<polyline clip-path="url(#clip252)" style="stroke:#ac8d18; stroke-linecap:butt; stroke-linejoin:round; stroke-width:8; stroke-opacity:1; fill:none" points="
  414.795,236.801 444.181,236.801 473.566,236.801 502.951,236.801 532.337,236.801 561.722,236.801 591.107,236.801 620.493,236.801 649.878,236.801 679.263,236.801 
  708.648,236.801 738.034,236.801 767.419,236.801 796.804,236.801 826.19,236.801 855.575,236.801 884.96,236.801 914.346,236.801 943.731,236.801 973.116,236.801 
  1002.5,236.801 1031.89,236.801 1061.27,236.801 1090.66,236.801 1120.04,236.801 1149.43,236.801 1178.81,236.801 1208.2,236.801 1237.58,236.801 1266.97,236.801 
  1296.35,236.801 1325.74,236.801 1355.13,236.801 1384.51,236.801 1413.9,236.801 1443.28,236.801 1472.67,236.801 1502.05,236.801 1531.44,236.801 1560.82,236.801 
  1590.21,236.801 1619.59,236.801 1648.98,236.801 1678.36,236.801 1707.75,236.801 1737.13,236.801 1766.52,236.801 1795.9,236.801 1825.29,236.801 1854.68,236.801 
  1884.06,236.801 1913.45,236.801 1942.83,236.801 1972.22,236.801 2001.6,236.801 2030.99,236.801 2060.37,236.801 2089.76,236.801 2119.14,236.801 2148.53,236.801 
  2177.91,236.801 2207.3,236.801 2236.68,236.801 2266.07,236.801 2295.45,236.801 
  "/>
<polyline clip-path="url(#clip252)" style="stroke:#00a9ad; stroke-linecap:butt; stroke-linejoin:round; stroke-width:8; stroke-opacity:1; fill:none" points="
  414.795,174.558 444.181,174.558 473.566,174.558 502.951,174.558 532.337,174.558 561.722,174.558 591.107,174.558 620.493,174.558 649.878,174.558 679.263,174.558 
  708.648,174.558 738.034,174.558 767.419,174.558 796.804,174.558 826.19,174.558 855.575,174.558 884.96,174.558 914.346,174.558 943.731,174.558 973.116,174.558 
  1002.5,174.558 1031.89,174.558 1061.27,174.558 1090.66,174.558 1120.04,174.558 1149.43,174.558 1178.81,174.558 1208.2,174.558 1237.58,174.558 1266.97,174.558 
  1296.35,174.558 1325.74,174.558 1355.13,174.558 1384.51,174.558 1413.9,174.558 1443.28,174.558 1472.67,174.558 1502.05,174.558 1531.44,174.558 1560.82,174.558 
  1590.21,174.558 1619.59,174.558 1648.98,174.558 1678.36,174.558 1707.75,174.558 1737.13,174.558 1766.52,174.558 1795.9,174.558 1825.29,174.558 1854.68,174.558 
  1884.06,174.558 1913.45,174.558 1942.83,174.558 1972.22,174.558 2001.6,174.558 2030.99,174.558 2060.37,174.558 2089.76,174.558 2119.14,174.558 2148.53,174.558 
  2177.91,174.558 2207.3,174.558 2236.68,174.558 2266.07,174.558 2295.45,174.558 
  "/>
<polyline clip-path="url(#clip252)" style="stroke:#009af9; stroke-linecap:butt; stroke-linejoin:round; stroke-width:12; stroke-opacity:1; fill:none" points="
  414.795,1384.93 444.181,1143.58 473.566,1065.52 502.951,1027.73 532.337,959.725 561.722,944.452 591.107,931.34 620.493,887.208 649.878,859.021 679.263,835.735 
  708.648,835.067 738.034,811.34 767.419,804.439 796.804,794.688 826.19,792.66 855.575,788.745 884.96,777.712 914.346,778.468 943.731,773.83 973.116,761.12 
  1002.5,762.164 1031.89,753.7 1061.27,750.751 1090.66,748.278 1120.04,752.719 1149.43,743.977 1178.81,739.498 1208.2,742.7 1237.58,741.811 1266.97,739.73 
  1296.35,739.9 1325.74,739.085 1355.13,737.508 1384.51,735.833 1413.9,734.832 1443.28,732.497 1472.67,732.923 1502.05,732.169 1531.44,730.512 1560.82,728.417 
  1590.21,725.458 1619.59,726.368 1648.98,726.545 1678.36,724.881 1707.75,725.327 1737.13,727.974 1766.52,728.335 1795.9,728.649 1825.29,728.153 1854.68,730.303 
  
  "/>
<polyline clip-path="url(#clip252)" style="stroke:#f05f73; stroke-linecap:butt; stroke-linejoin:round; stroke-width:12; stroke-opacity:1; fill:none" points="
  1854.68,730.303 1884.06,722.559 1913.45,720.379 1942.83,718.592 1972.22,717.053 2001.6,715.706 2030.99,714.497 2060.37,713.361 2089.76,712.226 2119.14,711.015 
  2148.53,709.641 2177.91,708.016 2207.3,706.055 2236.68,703.696 2266.07,700.846 2295.45,697.033 
  "/>
</svg>
