<?xml version="1.0" encoding="utf-8"?>
<svg xmlns="http://www.w3.org/2000/svg" xmlns:xlink="http://www.w3.org/1999/xlink" width="600" height="400" viewBox="0 0 2400 1600">
<defs>
  <clipPath id="clip500">
    <rect x="0" y="0" width="2400" height="1600"/>
  </clipPath>
</defs>
<path clip-path="url(#clip500)" d="
M0 1600 L2400 1600 L2400 0 L0 0  Z
  " fill="#ffffff" fill-rule="evenodd" fill-opacity="1"/>
<defs>
  <clipPath id="clip501">
    <rect x="480" y="0" width="1681" height="1600"/>
  </clipPath>
</defs>
<path clip-path="url(#clip500)" d="
M240.129 1444.78 L2352.76 1444.78 L2352.76 106.192 L240.129 106.192  Z
  " fill="#eaeaea" fill-rule="evenodd" fill-opacity="1"/>
<defs>
  <clipPath id="clip502">
    <rect x="240" y="106" width="2114" height="1340"/>
  </clipPath>
</defs>
<polyline clip-path="url(#clip502)" style="stroke:#ffffff; stroke-linecap:butt; stroke-linejoin:round; stroke-width:4; stroke-opacity:1; fill:none" points="
  299.921,1444.78 299.921,106.192 
  "/>
<polyline clip-path="url(#clip502)" style="stroke:#ffffff; stroke-linecap:butt; stroke-linejoin:round; stroke-width:4; stroke-opacity:1; fill:none" points="
  499.225,1444.78 499.225,106.192 
  "/>
<polyline clip-path="url(#clip502)" style="stroke:#ffffff; stroke-linecap:butt; stroke-linejoin:round; stroke-width:4; stroke-opacity:1; fill:none" points="
  698.53,1444.78 698.53,106.192 
  "/>
<polyline clip-path="url(#clip502)" style="stroke:#ffffff; stroke-linecap:butt; stroke-linejoin:round; stroke-width:4; stroke-opacity:1; fill:none" points="
  897.834,1444.78 897.834,106.192 
  "/>
<polyline clip-path="url(#clip502)" style="stroke:#ffffff; stroke-linecap:butt; stroke-linejoin:round; stroke-width:4; stroke-opacity:1; fill:none" points="
  1097.14,1444.78 1097.14,106.192 
  "/>
<polyline clip-path="url(#clip502)" style="stroke:#ffffff; stroke-linecap:butt; stroke-linejoin:round; stroke-width:4; stroke-opacity:1; fill:none" points="
  1296.44,1444.78 1296.44,106.192 
  "/>
<polyline clip-path="url(#clip502)" style="stroke:#ffffff; stroke-linecap:butt; stroke-linejoin:round; stroke-width:4; stroke-opacity:1; fill:none" points="
  1495.75,1444.78 1495.75,106.192 
  "/>
<polyline clip-path="url(#clip502)" style="stroke:#ffffff; stroke-linecap:butt; stroke-linejoin:round; stroke-width:4; stroke-opacity:1; fill:none" points="
  1695.05,1444.78 1695.05,106.192 
  "/>
<polyline clip-path="url(#clip502)" style="stroke:#ffffff; stroke-linecap:butt; stroke-linejoin:round; stroke-width:4; stroke-opacity:1; fill:none" points="
  1894.36,1444.78 1894.36,106.192 
  "/>
<polyline clip-path="url(#clip502)" style="stroke:#ffffff; stroke-linecap:butt; stroke-linejoin:round; stroke-width:4; stroke-opacity:1; fill:none" points="
  2093.66,1444.78 2093.66,106.192 
  "/>
<polyline clip-path="url(#clip502)" style="stroke:#ffffff; stroke-linecap:butt; stroke-linejoin:round; stroke-width:4; stroke-opacity:1; fill:none" points="
  2292.96,1444.78 2292.96,106.192 
  "/>
<polyline clip-path="url(#clip502)" style="stroke:#ffffff; stroke-linecap:butt; stroke-linejoin:round; stroke-width:2; stroke-opacity:1; fill:none" points="
  399.573,1444.78 399.573,106.192 
  "/>
<polyline clip-path="url(#clip502)" style="stroke:#ffffff; stroke-linecap:butt; stroke-linejoin:round; stroke-width:2; stroke-opacity:1; fill:none" points="
  598.877,1444.78 598.877,106.192 
  "/>
<polyline clip-path="url(#clip502)" style="stroke:#ffffff; stroke-linecap:butt; stroke-linejoin:round; stroke-width:2; stroke-opacity:1; fill:none" points="
  798.182,1444.78 798.182,106.192 
  "/>
<polyline clip-path="url(#clip502)" style="stroke:#ffffff; stroke-linecap:butt; stroke-linejoin:round; stroke-width:2; stroke-opacity:1; fill:none" points="
  997.486,1444.78 997.486,106.192 
  "/>
<polyline clip-path="url(#clip502)" style="stroke:#ffffff; stroke-linecap:butt; stroke-linejoin:round; stroke-width:2; stroke-opacity:1; fill:none" points="
  1196.79,1444.78 1196.79,106.192 
  "/>
<polyline clip-path="url(#clip502)" style="stroke:#ffffff; stroke-linecap:butt; stroke-linejoin:round; stroke-width:2; stroke-opacity:1; fill:none" points="
  1396.09,1444.78 1396.09,106.192 
  "/>
<polyline clip-path="url(#clip502)" style="stroke:#ffffff; stroke-linecap:butt; stroke-linejoin:round; stroke-width:2; stroke-opacity:1; fill:none" points="
  1595.4,1444.78 1595.4,106.192 
  "/>
<polyline clip-path="url(#clip502)" style="stroke:#ffffff; stroke-linecap:butt; stroke-linejoin:round; stroke-width:2; stroke-opacity:1; fill:none" points="
  1794.7,1444.78 1794.7,106.192 
  "/>
<polyline clip-path="url(#clip502)" style="stroke:#ffffff; stroke-linecap:butt; stroke-linejoin:round; stroke-width:2; stroke-opacity:1; fill:none" points="
  1994.01,1444.78 1994.01,106.192 
  "/>
<polyline clip-path="url(#clip502)" style="stroke:#ffffff; stroke-linecap:butt; stroke-linejoin:round; stroke-width:2; stroke-opacity:1; fill:none" points="
  2193.31,1444.78 2193.31,106.192 
  "/>
<polyline clip-path="url(#clip500)" style="stroke:#ffffff; stroke-linecap:butt; stroke-linejoin:round; stroke-width:4; stroke-opacity:1; fill:none" points="
  240.129,1444.78 2352.76,1444.78 
  "/>
<polyline clip-path="url(#clip500)" style="stroke:#333333; stroke-linecap:butt; stroke-linejoin:round; stroke-width:4; stroke-opacity:1; fill:none" points="
  299.921,1444.78 299.921,1463.68 
  "/>
<polyline clip-path="url(#clip500)" style="stroke:#333333; stroke-linecap:butt; stroke-linejoin:round; stroke-width:4; stroke-opacity:1; fill:none" points="
  499.225,1444.78 499.225,1463.68 
  "/>
<polyline clip-path="url(#clip500)" style="stroke:#333333; stroke-linecap:butt; stroke-linejoin:round; stroke-width:4; stroke-opacity:1; fill:none" points="
  698.53,1444.78 698.53,1463.68 
  "/>
<polyline clip-path="url(#clip500)" style="stroke:#333333; stroke-linecap:butt; stroke-linejoin:round; stroke-width:4; stroke-opacity:1; fill:none" points="
  897.834,1444.78 897.834,1463.68 
  "/>
<polyline clip-path="url(#clip500)" style="stroke:#333333; stroke-linecap:butt; stroke-linejoin:round; stroke-width:4; stroke-opacity:1; fill:none" points="
  1097.14,1444.78 1097.14,1463.68 
  "/>
<polyline clip-path="url(#clip500)" style="stroke:#333333; stroke-linecap:butt; stroke-linejoin:round; stroke-width:4; stroke-opacity:1; fill:none" points="
  1296.44,1444.78 1296.44,1463.68 
  "/>
<polyline clip-path="url(#clip500)" style="stroke:#333333; stroke-linecap:butt; stroke-linejoin:round; stroke-width:4; stroke-opacity:1; fill:none" points="
  1495.75,1444.78 1495.75,1463.68 
  "/>
<polyline clip-path="url(#clip500)" style="stroke:#333333; stroke-linecap:butt; stroke-linejoin:round; stroke-width:4; stroke-opacity:1; fill:none" points="
  1695.05,1444.78 1695.05,1463.68 
  "/>
<polyline clip-path="url(#clip500)" style="stroke:#333333; stroke-linecap:butt; stroke-linejoin:round; stroke-width:4; stroke-opacity:1; fill:none" points="
  1894.36,1444.78 1894.36,1463.68 
  "/>
<polyline clip-path="url(#clip500)" style="stroke:#333333; stroke-linecap:butt; stroke-linejoin:round; stroke-width:4; stroke-opacity:1; fill:none" points="
  2093.66,1444.78 2093.66,1463.68 
  "/>
<polyline clip-path="url(#clip500)" style="stroke:#333333; stroke-linecap:butt; stroke-linejoin:round; stroke-width:4; stroke-opacity:1; fill:none" points="
  2292.96,1444.78 2292.96,1463.68 
  "/>
<polyline clip-path="url(#clip500)" style="stroke:#333333; stroke-linecap:butt; stroke-linejoin:round; stroke-width:4; stroke-opacity:1; fill:none" points="
  399.573,1444.78 399.573,1454.23 
  "/>
<polyline clip-path="url(#clip500)" style="stroke:#333333; stroke-linecap:butt; stroke-linejoin:round; stroke-width:4; stroke-opacity:1; fill:none" points="
  598.877,1444.78 598.877,1454.23 
  "/>
<polyline clip-path="url(#clip500)" style="stroke:#333333; stroke-linecap:butt; stroke-linejoin:round; stroke-width:4; stroke-opacity:1; fill:none" points="
  798.182,1444.78 798.182,1454.23 
  "/>
<polyline clip-path="url(#clip500)" style="stroke:#333333; stroke-linecap:butt; stroke-linejoin:round; stroke-width:4; stroke-opacity:1; fill:none" points="
  997.486,1444.78 997.486,1454.23 
  "/>
<polyline clip-path="url(#clip500)" style="stroke:#333333; stroke-linecap:butt; stroke-linejoin:round; stroke-width:4; stroke-opacity:1; fill:none" points="
  1196.79,1444.78 1196.79,1454.23 
  "/>
<polyline clip-path="url(#clip500)" style="stroke:#333333; stroke-linecap:butt; stroke-linejoin:round; stroke-width:4; stroke-opacity:1; fill:none" points="
  1396.09,1444.78 1396.09,1454.23 
  "/>
<polyline clip-path="url(#clip500)" style="stroke:#333333; stroke-linecap:butt; stroke-linejoin:round; stroke-width:4; stroke-opacity:1; fill:none" points="
  1595.4,1444.78 1595.4,1454.23 
  "/>
<polyline clip-path="url(#clip500)" style="stroke:#333333; stroke-linecap:butt; stroke-linejoin:round; stroke-width:4; stroke-opacity:1; fill:none" points="
  1794.7,1444.78 1794.7,1454.23 
  "/>
<polyline clip-path="url(#clip500)" style="stroke:#333333; stroke-linecap:butt; stroke-linejoin:round; stroke-width:4; stroke-opacity:1; fill:none" points="
  1994.01,1444.78 1994.01,1454.23 
  "/>
<polyline clip-path="url(#clip500)" style="stroke:#333333; stroke-linecap:butt; stroke-linejoin:round; stroke-width:4; stroke-opacity:1; fill:none" points="
  2193.31,1444.78 2193.31,1454.23 
  "/>
<path clip-path="url(#clip500)" d="M299.921 1482.37 Q297.212 1482.37 295.841 1485.04 Q294.487 1487.7 294.487 1493.05 Q294.487 1498.38 295.841 1501.05 Q297.212 1503.71 299.921 1503.71 Q302.646 1503.71 304.001 1501.05 Q305.372 1498.38 305.372 1493.05 Q305.372 1487.7 304.001 1485.04 Q302.646 1482.37 299.921 1482.37 M299.921 1479.59 Q304.278 1479.59 306.57 1483.05 Q308.879 1486.48 308.879 1493.05 Q308.879 1499.59 306.57 1503.05 Q304.278 1506.48 299.921 1506.48 Q295.563 1506.48 293.254 1503.05 Q290.962 1499.59 290.962 1493.05 Q290.962 1486.48 293.254 1483.05 Q295.563 1479.59 299.921 1479.59 Z" fill="#4c4c4c" fill-rule="evenodd" fill-opacity="1" /><path clip-path="url(#clip500)" d="M480.241 1503.03 L485.97 1503.03 L485.97 1483.25 L479.737 1484.5 L479.737 1481.31 L485.935 1480.06 L489.442 1480.06 L489.442 1503.03 L495.171 1503.03 L495.171 1505.98 L480.241 1505.98 L480.241 1503.03 Z" fill="#4c4c4c" fill-rule="evenodd" fill-opacity="1" /><path clip-path="url(#clip500)" d="M509.755 1482.37 Q507.046 1482.37 505.675 1485.04 Q504.321 1487.7 504.321 1493.05 Q504.321 1498.38 505.675 1501.05 Q507.046 1503.71 509.755 1503.71 Q512.48 1503.71 513.834 1501.05 Q515.206 1498.38 515.206 1493.05 Q515.206 1487.7 513.834 1485.04 Q512.48 1482.37 509.755 1482.37 M509.755 1479.59 Q514.112 1479.59 516.404 1483.05 Q518.713 1486.48 518.713 1493.05 Q518.713 1499.59 516.404 1503.05 Q514.112 1506.48 509.755 1506.48 Q505.397 1506.48 503.088 1503.05 Q500.796 1499.59 500.796 1493.05 Q500.796 1486.48 503.088 1483.05 Q505.397 1479.59 509.755 1479.59 Z" fill="#4c4c4c" fill-rule="evenodd" fill-opacity="1" /><path clip-path="url(#clip500)" d="M682.609 1503.03 L694.849 1503.03 L694.849 1505.98 L678.391 1505.98 L678.391 1503.03 Q680.387 1500.96 683.825 1497.49 Q687.28 1494 688.165 1492.99 Q689.849 1491.1 690.509 1489.8 Q691.186 1488.48 691.186 1487.21 Q691.186 1485.15 689.728 1483.84 Q688.287 1482.54 685.96 1482.54 Q684.311 1482.54 682.471 1483.12 Q680.648 1483.69 678.564 1484.85 L678.564 1481.31 Q680.682 1480.46 682.523 1480.03 Q684.363 1479.59 685.891 1479.59 Q689.918 1479.59 692.314 1481.6 Q694.71 1483.62 694.71 1486.99 Q694.71 1488.58 694.102 1490.03 Q693.512 1491.45 691.932 1493.39 Q691.498 1493.9 689.172 1496.31 Q686.846 1498.71 682.609 1503.03 Z" fill="#4c4c4c" fill-rule="evenodd" fill-opacity="1" /><path clip-path="url(#clip500)" d="M709.71 1482.37 Q707.002 1482.37 705.63 1485.04 Q704.276 1487.7 704.276 1493.05 Q704.276 1498.38 705.63 1501.05 Q707.002 1503.71 709.71 1503.71 Q712.436 1503.71 713.79 1501.05 Q715.161 1498.38 715.161 1493.05 Q715.161 1487.7 713.79 1485.04 Q712.436 1482.37 709.71 1482.37 M709.71 1479.59 Q714.068 1479.59 716.359 1483.05 Q718.668 1486.48 718.668 1493.05 Q718.668 1499.59 716.359 1503.05 Q714.068 1506.48 709.71 1506.48 Q705.352 1506.48 703.043 1503.05 Q700.752 1499.59 700.752 1493.05 Q700.752 1486.48 703.043 1483.05 Q705.352 1479.59 709.71 1479.59 Z" fill="#4c4c4c" fill-rule="evenodd" fill-opacity="1" /><path clip-path="url(#clip500)" d="M889.466 1492 Q891.983 1492.54 893.39 1494.24 Q894.813 1495.95 894.813 1498.45 Q894.813 1502.28 892.174 1504.38 Q889.535 1506.48 884.674 1506.48 Q883.042 1506.48 881.306 1506.15 Q879.587 1505.84 877.747 1505.2 L877.747 1501.81 Q879.206 1502.66 880.942 1503.1 Q882.678 1503.53 884.57 1503.53 Q887.869 1503.53 889.587 1502.23 Q891.324 1500.93 891.324 1498.45 Q891.324 1496.15 889.709 1494.87 Q888.112 1493.57 885.247 1493.57 L882.226 1493.57 L882.226 1490.68 L885.386 1490.68 Q887.973 1490.68 889.344 1489.66 Q890.716 1488.62 890.716 1486.67 Q890.716 1484.68 889.292 1483.62 Q887.886 1482.54 885.247 1482.54 Q883.806 1482.54 882.157 1482.85 Q880.508 1483.17 878.528 1483.83 L878.528 1480.7 Q880.525 1480.15 882.261 1479.87 Q884.015 1479.59 885.56 1479.59 Q889.553 1479.59 891.879 1481.41 Q894.205 1483.22 894.205 1486.31 Q894.205 1488.46 892.973 1489.96 Q891.74 1491.43 889.466 1492 Z" fill="#4c4c4c" fill-rule="evenodd" fill-opacity="1" /><path clip-path="url(#clip500)" d="M908.962 1482.37 Q906.254 1482.37 904.882 1485.04 Q903.528 1487.7 903.528 1493.05 Q903.528 1498.38 904.882 1501.05 Q906.254 1503.71 908.962 1503.71 Q911.688 1503.71 913.042 1501.05 Q914.414 1498.38 914.414 1493.05 Q914.414 1487.7 913.042 1485.04 Q911.688 1482.37 908.962 1482.37 M908.962 1479.59 Q913.32 1479.59 915.612 1483.05 Q917.921 1486.48 917.921 1493.05 Q917.921 1499.59 915.612 1503.05 Q913.32 1506.48 908.962 1506.48 Q904.605 1506.48 902.296 1503.05 Q900.004 1499.59 900.004 1493.05 Q900.004 1486.48 902.296 1483.05 Q904.605 1479.59 908.962 1479.59 Z" fill="#4c4c4c" fill-rule="evenodd" fill-opacity="1" /><path clip-path="url(#clip500)" d="M1088.27 1483.12 L1079.41 1496.95 L1088.27 1496.95 L1088.27 1483.12 M1087.35 1480.06 L1091.76 1480.06 L1091.76 1496.95 L1095.45 1496.95 L1095.45 1499.87 L1091.76 1499.87 L1091.76 1505.98 L1088.27 1505.98 L1088.27 1499.87 L1076.57 1499.87 L1076.57 1496.48 L1087.35 1480.06 Z" fill="#4c4c4c" fill-rule="evenodd" fill-opacity="1" /><path clip-path="url(#clip500)" d="M1108.75 1482.37 Q1106.04 1482.37 1104.67 1485.04 Q1103.32 1487.7 1103.32 1493.05 Q1103.32 1498.38 1104.67 1501.05 Q1106.04 1503.71 1108.75 1503.71 Q1111.48 1503.71 1112.83 1501.05 Q1114.2 1498.38 1114.2 1493.05 Q1114.2 1487.7 1112.83 1485.04 Q1111.48 1482.37 1108.75 1482.37 M1108.75 1479.59 Q1113.11 1479.59 1115.4 1483.05 Q1117.71 1486.48 1117.71 1493.05 Q1117.71 1499.59 1115.4 1503.05 Q1113.11 1506.48 1108.75 1506.48 Q1104.4 1506.48 1102.09 1503.05 Q1099.79 1499.59 1099.79 1493.05 Q1099.79 1486.48 1102.09 1483.05 Q1104.4 1479.59 1108.75 1479.59 Z" fill="#4c4c4c" fill-rule="evenodd" fill-opacity="1" /><path clip-path="url(#clip500)" d="M1277.47 1480.06 L1291.23 1480.06 L1291.23 1483.01 L1280.68 1483.01 L1280.68 1489.37 Q1281.44 1489.1 1282.21 1488.98 Q1282.97 1488.84 1283.73 1488.84 Q1288.07 1488.84 1290.61 1491.22 Q1293.14 1493.6 1293.14 1497.66 Q1293.14 1501.85 1290.54 1504.17 Q1287.94 1506.48 1283.2 1506.48 Q1281.56 1506.48 1279.86 1506.21 Q1278.18 1505.93 1276.37 1505.37 L1276.37 1501.85 Q1277.94 1502.7 1279.6 1503.12 Q1281.27 1503.53 1283.13 1503.53 Q1286.13 1503.53 1287.88 1501.95 Q1289.64 1500.37 1289.64 1497.66 Q1289.64 1494.96 1287.88 1493.38 Q1286.13 1491.8 1283.13 1491.8 Q1281.72 1491.8 1280.31 1492.11 Q1278.93 1492.42 1277.47 1493.08 L1277.47 1480.06 Z" fill="#4c4c4c" fill-rule="evenodd" fill-opacity="1" /><path clip-path="url(#clip500)" d="M1307.55 1482.37 Q1304.85 1482.37 1303.47 1485.04 Q1302.12 1487.7 1302.12 1493.05 Q1302.12 1498.38 1303.47 1501.05 Q1304.85 1503.71 1307.55 1503.71 Q1310.28 1503.71 1311.63 1501.05 Q1313.01 1498.38 1313.01 1493.05 Q1313.01 1487.7 1311.63 1485.04 Q1310.28 1482.37 1307.55 1482.37 M1307.55 1479.59 Q1311.91 1479.59 1314.2 1483.05 Q1316.51 1486.48 1316.51 1493.05 Q1316.51 1499.59 1314.2 1503.05 Q1311.91 1506.48 1307.55 1506.48 Q1303.2 1506.48 1300.89 1503.05 Q1298.6 1499.59 1298.6 1493.05 Q1298.6 1486.48 1300.89 1483.05 Q1303.2 1479.59 1307.55 1479.59 Z" fill="#4c4c4c" fill-rule="evenodd" fill-opacity="1" /><path clip-path="url(#clip500)" d="M1484.8 1491.62 Q1482.44 1491.62 1481.05 1493.24 Q1479.68 1494.85 1479.68 1497.66 Q1479.68 1500.46 1481.05 1502.09 Q1482.44 1503.71 1484.8 1503.71 Q1487.16 1503.71 1488.53 1502.09 Q1489.92 1500.46 1489.92 1497.66 Q1489.92 1494.85 1488.53 1493.24 Q1487.16 1491.62 1484.8 1491.62 M1491.76 1480.63 L1491.76 1483.83 Q1490.44 1483.2 1489.09 1482.87 Q1487.75 1482.54 1486.43 1482.54 Q1482.96 1482.54 1481.12 1484.89 Q1479.3 1487.23 1479.04 1491.97 Q1480.06 1490.46 1481.61 1489.66 Q1483.15 1488.84 1485.01 1488.84 Q1488.92 1488.84 1491.17 1491.22 Q1493.45 1493.58 1493.45 1497.66 Q1493.45 1501.66 1491.09 1504.07 Q1488.72 1506.48 1484.8 1506.48 Q1480.3 1506.48 1477.93 1503.05 Q1475.55 1499.59 1475.55 1493.05 Q1475.55 1486.9 1478.46 1483.25 Q1481.38 1479.59 1486.29 1479.59 Q1487.61 1479.59 1488.95 1479.85 Q1490.3 1480.11 1491.76 1480.63 Z" fill="#4c4c4c" fill-rule="evenodd" fill-opacity="1" /><path clip-path="url(#clip500)" d="M1506.99 1482.37 Q1504.28 1482.37 1502.91 1485.04 Q1501.55 1487.7 1501.55 1493.05 Q1501.55 1498.38 1502.91 1501.05 Q1504.28 1503.71 1506.99 1503.71 Q1509.71 1503.71 1511.07 1501.05 Q1512.44 1498.38 1512.44 1493.05 Q1512.44 1487.7 1511.07 1485.04 Q1509.71 1482.37 1506.99 1482.37 M1506.99 1479.59 Q1511.35 1479.59 1513.64 1483.05 Q1515.95 1486.48 1515.95 1493.05 Q1515.95 1499.59 1513.64 1503.05 Q1511.35 1506.48 1506.99 1506.48 Q1502.63 1506.48 1500.32 1503.05 Q1498.03 1499.59 1498.03 1493.05 Q1498.03 1486.48 1500.32 1483.05 Q1502.63 1479.59 1506.99 1479.59 Z" fill="#4c4c4c" fill-rule="evenodd" fill-opacity="1" /><path clip-path="url(#clip500)" d="M1675.07 1480.06 L1691.74 1480.06 L1691.74 1481.55 L1682.33 1505.98 L1678.66 1505.98 L1687.52 1483.01 L1675.07 1483.01 L1675.07 1480.06 Z" fill="#4c4c4c" fill-rule="evenodd" fill-opacity="1" /><path clip-path="url(#clip500)" d="M1706.08 1482.37 Q1703.37 1482.37 1702 1485.04 Q1700.64 1487.7 1700.64 1493.05 Q1700.64 1498.38 1702 1501.05 Q1703.37 1503.71 1706.08 1503.71 Q1708.8 1503.71 1710.16 1501.05 Q1711.53 1498.38 1711.53 1493.05 Q1711.53 1487.7 1710.16 1485.04 Q1708.8 1482.37 1706.08 1482.37 M1706.08 1479.59 Q1710.43 1479.59 1712.72 1483.05 Q1715.03 1486.48 1715.03 1493.05 Q1715.03 1499.59 1712.72 1503.05 Q1710.43 1506.48 1706.08 1506.48 Q1701.72 1506.48 1699.41 1503.05 Q1697.12 1499.59 1697.12 1493.05 Q1697.12 1486.48 1699.41 1483.05 Q1701.72 1479.59 1706.08 1479.59 Z" fill="#4c4c4c" fill-rule="evenodd" fill-opacity="1" /><path clip-path="url(#clip500)" d="M1883.01 1493.67 Q1880.51 1493.67 1879.07 1495.01 Q1877.65 1496.34 1877.65 1498.69 Q1877.65 1501.03 1879.07 1502.37 Q1880.51 1503.71 1883.01 1503.71 Q1885.51 1503.71 1886.95 1502.37 Q1888.39 1501.01 1888.39 1498.69 Q1888.39 1496.34 1886.95 1495.01 Q1885.53 1493.67 1883.01 1493.67 M1879.5 1492.18 Q1877.25 1491.62 1875.98 1490.08 Q1874.73 1488.53 1874.73 1486.31 Q1874.73 1483.2 1876.93 1481.4 Q1879.16 1479.59 1883.01 1479.59 Q1886.88 1479.59 1889.09 1481.4 Q1891.29 1483.2 1891.29 1486.31 Q1891.29 1488.53 1890.02 1490.08 Q1888.77 1491.62 1886.53 1492.18 Q1889.07 1492.77 1890.48 1494.49 Q1891.9 1496.21 1891.9 1498.69 Q1891.9 1502.46 1889.59 1504.47 Q1887.3 1506.48 1883.01 1506.48 Q1878.72 1506.48 1876.41 1504.47 Q1874.12 1502.46 1874.12 1498.69 Q1874.12 1496.21 1875.55 1494.49 Q1876.97 1492.77 1879.5 1492.18 M1878.22 1486.64 Q1878.22 1488.65 1879.47 1489.78 Q1880.74 1490.91 1883.01 1490.91 Q1885.27 1490.91 1886.53 1489.78 Q1887.82 1488.65 1887.82 1486.64 Q1887.82 1484.63 1886.53 1483.5 Q1885.27 1482.37 1883.01 1482.37 Q1880.74 1482.37 1879.47 1483.5 Q1878.22 1484.63 1878.22 1486.64 Z" fill="#4c4c4c" fill-rule="evenodd" fill-opacity="1" /><path clip-path="url(#clip500)" d="M1905.63 1482.37 Q1902.92 1482.37 1901.55 1485.04 Q1900.2 1487.7 1900.2 1493.05 Q1900.2 1498.38 1901.55 1501.05 Q1902.92 1503.71 1905.63 1503.71 Q1908.36 1503.71 1909.71 1501.05 Q1911.08 1498.38 1911.08 1493.05 Q1911.08 1487.7 1909.71 1485.04 Q1908.36 1482.37 1905.63 1482.37 M1905.63 1479.59 Q1909.99 1479.59 1912.28 1483.05 Q1914.59 1486.48 1914.59 1493.05 Q1914.59 1499.59 1912.28 1503.05 Q1909.99 1506.48 1905.63 1506.48 Q1901.27 1506.48 1898.97 1503.05 Q1896.67 1499.59 1896.67 1493.05 Q1896.67 1486.48 1898.97 1483.05 Q1901.27 1479.59 1905.63 1479.59 Z" fill="#4c4c4c" fill-rule="evenodd" fill-opacity="1" /><path clip-path="url(#clip500)" d="M2075.01 1505.44 L2075.01 1502.25 Q2076.33 1502.87 2077.68 1503.2 Q2079.03 1503.53 2080.34 1503.53 Q2083.81 1503.53 2085.63 1501.21 Q2087.47 1498.86 2087.73 1494.1 Q2086.72 1495.6 2085.18 1496.4 Q2083.63 1497.2 2081.76 1497.2 Q2077.87 1497.2 2075.6 1494.85 Q2073.34 1492.49 2073.34 1488.41 Q2073.34 1484.42 2075.7 1482 Q2078.06 1479.59 2081.98 1479.59 Q2086.48 1479.59 2088.84 1483.05 Q2091.22 1486.48 2091.22 1493.05 Q2091.22 1499.17 2088.3 1502.84 Q2085.41 1506.48 2080.49 1506.48 Q2079.17 1506.48 2077.82 1506.22 Q2076.46 1505.96 2075.01 1505.44 M2081.98 1494.45 Q2084.35 1494.45 2085.72 1492.84 Q2087.11 1491.22 2087.11 1488.41 Q2087.11 1485.62 2085.72 1484 Q2084.35 1482.37 2081.98 1482.37 Q2079.62 1482.37 2078.23 1484 Q2076.86 1485.62 2076.86 1488.41 Q2076.86 1491.22 2078.23 1492.84 Q2079.62 1494.45 2081.98 1494.45 Z" fill="#4c4c4c" fill-rule="evenodd" fill-opacity="1" /><path clip-path="url(#clip500)" d="M2105.02 1482.37 Q2102.31 1482.37 2100.94 1485.04 Q2099.59 1487.7 2099.59 1493.05 Q2099.59 1498.38 2100.94 1501.05 Q2102.31 1503.71 2105.02 1503.71 Q2107.75 1503.71 2109.1 1501.05 Q2110.47 1498.38 2110.47 1493.05 Q2110.47 1487.7 2109.1 1485.04 Q2107.75 1482.37 2105.02 1482.37 M2105.02 1479.59 Q2109.38 1479.59 2111.67 1483.05 Q2113.98 1486.48 2113.98 1493.05 Q2113.98 1499.59 2111.67 1503.05 Q2109.38 1506.48 2105.02 1506.48 Q2100.67 1506.48 2098.36 1503.05 Q2096.06 1499.59 2096.06 1493.05 Q2096.06 1486.48 2098.36 1483.05 Q2100.67 1479.59 2105.02 1479.59 Z" fill="#4c4c4c" fill-rule="evenodd" fill-opacity="1" /><path clip-path="url(#clip500)" d="M2262.67 1503.03 L2268.4 1503.03 L2268.4 1483.25 L2262.17 1484.5 L2262.17 1481.31 L2268.36 1480.06 L2271.87 1480.06 L2271.87 1503.03 L2277.6 1503.03 L2277.6 1505.98 L2262.67 1505.98 L2262.67 1503.03 Z" fill="#4c4c4c" fill-rule="evenodd" fill-opacity="1" /><path clip-path="url(#clip500)" d="M2292.18 1482.37 Q2289.48 1482.37 2288.1 1485.04 Q2286.75 1487.7 2286.75 1493.05 Q2286.75 1498.38 2288.1 1501.05 Q2289.48 1503.71 2292.18 1503.71 Q2294.91 1503.71 2296.26 1501.05 Q2297.63 1498.38 2297.63 1493.05 Q2297.63 1487.7 2296.26 1485.04 Q2294.91 1482.37 2292.18 1482.37 M2292.18 1479.59 Q2296.54 1479.59 2298.83 1483.05 Q2301.14 1486.48 2301.14 1493.05 Q2301.14 1499.59 2298.83 1503.05 Q2296.54 1506.48 2292.18 1506.48 Q2287.83 1506.48 2285.52 1503.05 Q2283.23 1499.59 2283.23 1493.05 Q2283.23 1486.48 2285.52 1483.05 Q2287.83 1479.59 2292.18 1479.59 Z" fill="#4c4c4c" fill-rule="evenodd" fill-opacity="1" /><path clip-path="url(#clip500)" d="M2314.8 1482.37 Q2312.1 1482.37 2310.72 1485.04 Q2309.37 1487.7 2309.37 1493.05 Q2309.37 1498.38 2310.72 1501.05 Q2312.1 1503.71 2314.8 1503.71 Q2317.53 1503.71 2318.88 1501.05 Q2320.26 1498.38 2320.26 1493.05 Q2320.26 1487.7 2318.88 1485.04 Q2317.53 1482.37 2314.8 1482.37 M2314.8 1479.59 Q2319.16 1479.59 2321.45 1483.05 Q2323.76 1486.48 2323.76 1493.05 Q2323.76 1499.59 2321.45 1503.05 Q2319.16 1506.48 2314.8 1506.48 Q2310.45 1506.48 2308.14 1503.05 Q2305.85 1499.59 2305.85 1493.05 Q2305.85 1486.48 2308.14 1483.05 Q2310.45 1479.59 2314.8 1479.59 Z" fill="#4c4c4c" fill-rule="evenodd" fill-opacity="1" /><path clip-path="url(#clip500)" d="M1187.03 1526.57 L1191.71 1526.57 L1191.71 1561.13 L1187.03 1561.13 L1187.03 1526.57 Z" fill="#000000" fill-rule="evenodd" fill-opacity="1" /><path clip-path="url(#clip500)" d="M1205.04 1527.84 L1205.04 1535.21 L1213.82 1535.21 L1213.82 1538.52 L1205.04 1538.52 L1205.04 1552.59 Q1205.04 1555.76 1205.9 1556.66 Q1206.78 1557.57 1209.44 1557.57 L1213.82 1557.57 L1213.82 1561.13 L1209.44 1561.13 Q1204.51 1561.13 1202.64 1559.3 Q1200.76 1557.45 1200.76 1552.59 L1200.76 1538.52 L1197.64 1538.52 L1197.64 1535.21 L1200.76 1535.21 L1200.76 1527.84 L1205.04 1527.84 Z" fill="#000000" fill-rule="evenodd" fill-opacity="1" /><path clip-path="url(#clip500)" d="M1241.59 1547.1 L1241.59 1549.19 L1222.01 1549.19 Q1222.29 1553.59 1224.65 1555.9 Q1227.03 1558.19 1231.27 1558.19 Q1233.72 1558.19 1236.01 1557.59 Q1238.33 1556.99 1240.6 1555.78 L1240.6 1559.81 Q1238.31 1560.78 1235.9 1561.29 Q1233.49 1561.8 1231.01 1561.8 Q1224.81 1561.8 1221.18 1558.19 Q1217.57 1554.58 1217.57 1548.42 Q1217.57 1542.06 1220.99 1538.33 Q1224.44 1534.58 1230.27 1534.58 Q1235.51 1534.58 1238.54 1537.96 Q1241.59 1541.32 1241.59 1547.1 M1237.33 1545.85 Q1237.29 1542.36 1235.37 1540.28 Q1233.47 1538.19 1230.32 1538.19 Q1226.76 1538.19 1224.6 1540.21 Q1222.47 1542.22 1222.15 1545.88 L1237.33 1545.85 Z" fill="#000000" fill-rule="evenodd" fill-opacity="1" /><path clip-path="url(#clip500)" d="M1263.61 1539.19 Q1262.89 1538.77 1262.03 1538.59 Q1261.2 1538.38 1260.18 1538.38 Q1256.57 1538.38 1254.63 1540.74 Q1252.7 1543.08 1252.7 1547.47 L1252.7 1561.13 L1248.42 1561.13 L1248.42 1535.21 L1252.7 1535.21 L1252.7 1539.23 Q1254.05 1536.87 1256.2 1535.74 Q1258.35 1534.58 1261.43 1534.58 Q1261.87 1534.58 1262.4 1534.65 Q1262.94 1534.7 1263.58 1534.81 L1263.61 1539.19 Z" fill="#000000" fill-rule="evenodd" fill-opacity="1" /><path clip-path="url(#clip500)" d="M1279.86 1548.1 Q1274.7 1548.1 1272.7 1549.28 Q1270.71 1550.46 1270.71 1553.31 Q1270.71 1555.58 1272.2 1556.92 Q1273.7 1558.24 1276.27 1558.24 Q1279.81 1558.24 1281.94 1555.74 Q1284.09 1553.22 1284.09 1549.05 L1284.09 1548.1 L1279.86 1548.1 M1288.35 1546.34 L1288.35 1561.13 L1284.09 1561.13 L1284.09 1557.2 Q1282.63 1559.56 1280.46 1560.69 Q1278.28 1561.8 1275.13 1561.8 Q1271.15 1561.8 1268.79 1559.58 Q1266.45 1557.34 1266.45 1553.59 Q1266.45 1549.21 1269.37 1546.99 Q1272.31 1544.77 1278.12 1544.77 L1284.09 1544.77 L1284.09 1544.35 Q1284.09 1541.41 1282.15 1539.81 Q1280.23 1538.19 1276.73 1538.19 Q1274.51 1538.19 1272.4 1538.72 Q1270.3 1539.26 1268.35 1540.32 L1268.35 1536.39 Q1270.69 1535.48 1272.89 1535.04 Q1275.09 1534.58 1277.17 1534.58 Q1282.8 1534.58 1285.57 1537.5 Q1288.35 1540.41 1288.35 1546.34 Z" fill="#000000" fill-rule="evenodd" fill-opacity="1" /><path clip-path="url(#clip500)" d="M1301.34 1527.84 L1301.34 1535.21 L1310.11 1535.21 L1310.11 1538.52 L1301.34 1538.52 L1301.34 1552.59 Q1301.34 1555.76 1302.19 1556.66 Q1303.07 1557.57 1305.74 1557.57 L1310.11 1557.57 L1310.11 1561.13 L1305.74 1561.13 Q1300.81 1561.13 1298.93 1559.3 Q1297.06 1557.45 1297.06 1552.59 L1297.06 1538.52 L1293.93 1538.52 L1293.93 1535.21 L1297.06 1535.21 L1297.06 1527.84 L1301.34 1527.84 Z" fill="#000000" fill-rule="evenodd" fill-opacity="1" /><path clip-path="url(#clip500)" d="M1315.71 1535.21 L1319.97 1535.21 L1319.97 1561.13 L1315.71 1561.13 L1315.71 1535.21 M1315.71 1525.11 L1319.97 1525.11 L1319.97 1530.51 L1315.71 1530.51 L1315.71 1525.11 Z" fill="#000000" fill-rule="evenodd" fill-opacity="1" /><path clip-path="url(#clip500)" d="M1338.93 1538.19 Q1335.5 1538.19 1333.51 1540.88 Q1331.52 1543.54 1331.52 1548.19 Q1331.52 1552.84 1333.49 1555.53 Q1335.48 1558.19 1338.93 1558.19 Q1342.33 1558.19 1344.32 1555.51 Q1346.32 1552.82 1346.32 1548.19 Q1346.32 1543.59 1344.32 1540.9 Q1342.33 1538.19 1338.93 1538.19 M1338.93 1534.58 Q1344.49 1534.58 1347.66 1538.19 Q1350.83 1541.8 1350.83 1548.19 Q1350.83 1554.56 1347.66 1558.19 Q1344.49 1561.8 1338.93 1561.8 Q1333.35 1561.8 1330.18 1558.19 Q1327.03 1554.56 1327.03 1548.19 Q1327.03 1541.8 1330.18 1538.19 Q1333.35 1534.58 1338.93 1534.58 Z" fill="#000000" fill-rule="evenodd" fill-opacity="1" /><path clip-path="url(#clip500)" d="M1379.44 1545.48 L1379.44 1561.13 L1375.18 1561.13 L1375.18 1545.62 Q1375.18 1541.94 1373.75 1540.11 Q1372.31 1538.28 1369.44 1538.28 Q1365.99 1538.28 1364 1540.48 Q1362.01 1542.68 1362.01 1546.48 L1362.01 1561.13 L1357.73 1561.13 L1357.73 1535.21 L1362.01 1535.21 L1362.01 1539.23 Q1363.54 1536.9 1365.6 1535.74 Q1367.68 1534.58 1370.39 1534.58 Q1374.86 1534.58 1377.15 1537.36 Q1379.44 1540.11 1379.44 1545.48 Z" fill="#000000" fill-rule="evenodd" fill-opacity="1" /><path clip-path="url(#clip500)" d="M1404.46 1535.97 L1404.46 1540 Q1402.66 1539.07 1400.71 1538.61 Q1398.77 1538.15 1396.69 1538.15 Q1393.51 1538.15 1391.92 1539.12 Q1390.34 1540.09 1390.34 1542.03 Q1390.34 1543.52 1391.48 1544.37 Q1392.61 1545.21 1396.04 1545.97 L1397.5 1546.29 Q1402.03 1547.27 1403.93 1549.05 Q1405.85 1550.81 1405.85 1553.98 Q1405.85 1557.59 1402.98 1559.7 Q1400.13 1561.8 1395.13 1561.8 Q1393.05 1561.8 1390.78 1561.39 Q1388.54 1560.99 1386.04 1560.18 L1386.04 1555.78 Q1388.4 1557.01 1390.69 1557.64 Q1392.98 1558.24 1395.23 1558.24 Q1398.24 1558.24 1399.86 1557.22 Q1401.48 1556.18 1401.48 1554.3 Q1401.48 1552.57 1400.3 1551.64 Q1399.14 1550.72 1395.18 1549.86 L1393.7 1549.51 Q1389.74 1548.68 1387.98 1546.97 Q1386.22 1545.23 1386.22 1542.22 Q1386.22 1538.56 1388.81 1536.57 Q1391.41 1534.58 1396.18 1534.58 Q1398.54 1534.58 1400.62 1534.93 Q1402.7 1535.28 1404.46 1535.97 Z" fill="#000000" fill-rule="evenodd" fill-opacity="1" /><polyline clip-path="url(#clip502)" style="stroke:#ffffff; stroke-linecap:butt; stroke-linejoin:round; stroke-width:4; stroke-opacity:1; fill:none" points="
  240.129,1413.1 2352.76,1413.1 
  "/>
<polyline clip-path="url(#clip502)" style="stroke:#ffffff; stroke-linecap:butt; stroke-linejoin:round; stroke-width:4; stroke-opacity:1; fill:none" points="
  240.129,1098.99 2352.76,1098.99 
  "/>
<polyline clip-path="url(#clip502)" style="stroke:#ffffff; stroke-linecap:butt; stroke-linejoin:round; stroke-width:4; stroke-opacity:1; fill:none" points="
  240.129,784.872 2352.76,784.872 
  "/>
<polyline clip-path="url(#clip502)" style="stroke:#ffffff; stroke-linecap:butt; stroke-linejoin:round; stroke-width:4; stroke-opacity:1; fill:none" points="
  240.129,470.757 2352.76,470.757 
  "/>
<polyline clip-path="url(#clip502)" style="stroke:#ffffff; stroke-linecap:butt; stroke-linejoin:round; stroke-width:4; stroke-opacity:1; fill:none" points="
  240.129,156.641 2352.76,156.641 
  "/>
<polyline clip-path="url(#clip502)" style="stroke:#ffffff; stroke-linecap:butt; stroke-linejoin:round; stroke-width:2; stroke-opacity:1; fill:none" points="
  240.129,1256.04 2352.76,1256.04 
  "/>
<polyline clip-path="url(#clip502)" style="stroke:#ffffff; stroke-linecap:butt; stroke-linejoin:round; stroke-width:2; stroke-opacity:1; fill:none" points="
  240.129,941.93 2352.76,941.93 
  "/>
<polyline clip-path="url(#clip502)" style="stroke:#ffffff; stroke-linecap:butt; stroke-linejoin:round; stroke-width:2; stroke-opacity:1; fill:none" points="
  240.129,627.814 2352.76,627.814 
  "/>
<polyline clip-path="url(#clip502)" style="stroke:#ffffff; stroke-linecap:butt; stroke-linejoin:round; stroke-width:2; stroke-opacity:1; fill:none" points="
  240.129,313.699 2352.76,313.699 
  "/>
<polyline clip-path="url(#clip500)" style="stroke:#ffffff; stroke-linecap:butt; stroke-linejoin:round; stroke-width:4; stroke-opacity:1; fill:none" points="
  240.129,1444.78 240.129,106.192 
  "/>
<polyline clip-path="url(#clip500)" style="stroke:#333333; stroke-linecap:butt; stroke-linejoin:round; stroke-width:4; stroke-opacity:1; fill:none" points="
  240.129,1413.1 221.232,1413.1 
  "/>
<polyline clip-path="url(#clip500)" style="stroke:#333333; stroke-linecap:butt; stroke-linejoin:round; stroke-width:4; stroke-opacity:1; fill:none" points="
  240.129,1098.99 221.232,1098.99 
  "/>
<polyline clip-path="url(#clip500)" style="stroke:#333333; stroke-linecap:butt; stroke-linejoin:round; stroke-width:4; stroke-opacity:1; fill:none" points="
  240.129,784.872 221.232,784.872 
  "/>
<polyline clip-path="url(#clip500)" style="stroke:#333333; stroke-linecap:butt; stroke-linejoin:round; stroke-width:4; stroke-opacity:1; fill:none" points="
  240.129,470.757 221.232,470.757 
  "/>
<polyline clip-path="url(#clip500)" style="stroke:#333333; stroke-linecap:butt; stroke-linejoin:round; stroke-width:4; stroke-opacity:1; fill:none" points="
  240.129,156.641 221.232,156.641 
  "/>
<polyline clip-path="url(#clip500)" style="stroke:#333333; stroke-linecap:butt; stroke-linejoin:round; stroke-width:4; stroke-opacity:1; fill:none" points="
  240.129,1256.04 230.681,1256.04 
  "/>
<polyline clip-path="url(#clip500)" style="stroke:#333333; stroke-linecap:butt; stroke-linejoin:round; stroke-width:4; stroke-opacity:1; fill:none" points="
  240.129,941.93 230.681,941.93 
  "/>
<polyline clip-path="url(#clip500)" style="stroke:#333333; stroke-linecap:butt; stroke-linejoin:round; stroke-width:4; stroke-opacity:1; fill:none" points="
  240.129,627.814 230.681,627.814 
  "/>
<polyline clip-path="url(#clip500)" style="stroke:#333333; stroke-linecap:butt; stroke-linejoin:round; stroke-width:4; stroke-opacity:1; fill:none" points="
  240.129,313.699 230.681,313.699 
  "/>
<path clip-path="url(#clip500)" d="M83.3002 1413.44 L105.557 1413.44 L105.557 1416.39 L83.3002 1416.39 L83.3002 1413.44 Z" fill="#4c4c4c" fill-rule="evenodd" fill-opacity="1" /><path clip-path="url(#clip500)" d="M112.241 1400.14 L128.908 1400.14 L128.908 1401.64 L119.498 1426.06 L115.835 1426.06 L124.689 1403.09 L112.241 1403.09 L112.241 1400.14 Z" fill="#4c4c4c" fill-rule="evenodd" fill-opacity="1" /><path clip-path="url(#clip500)" d="M135.748 1421.65 L139.411 1421.65 L139.411 1426.06 L135.748 1426.06 L135.748 1421.65 Z" fill="#4c4c4c" fill-rule="evenodd" fill-opacity="1" /><path clip-path="url(#clip500)" d="M154.55 1402.45 Q151.841 1402.45 150.47 1405.13 Q149.116 1407.78 149.116 1413.13 Q149.116 1418.46 150.47 1421.13 Q151.841 1423.79 154.55 1423.79 Q157.275 1423.79 158.63 1421.13 Q160.001 1418.46 160.001 1413.13 Q160.001 1407.78 158.63 1405.13 Q157.275 1402.45 154.55 1402.45 M154.55 1399.67 Q158.907 1399.67 161.199 1403.13 Q163.508 1406.57 163.508 1413.13 Q163.508 1419.67 161.199 1423.13 Q158.907 1426.57 154.55 1426.57 Q150.192 1426.57 147.883 1423.13 Q145.591 1419.67 145.591 1413.13 Q145.591 1406.57 147.883 1403.13 Q150.192 1399.67 154.55 1399.67 Z" fill="#4c4c4c" fill-rule="evenodd" fill-opacity="1" /><path clip-path="url(#clip500)" d="M177.171 1402.45 Q174.463 1402.45 173.091 1405.13 Q171.737 1407.78 171.737 1413.13 Q171.737 1418.46 173.091 1421.13 Q174.463 1423.79 177.171 1423.79 Q179.897 1423.79 181.251 1421.13 Q182.623 1418.46 182.623 1413.13 Q182.623 1407.78 181.251 1405.13 Q179.897 1402.45 177.171 1402.45 M177.171 1399.67 Q181.529 1399.67 183.82 1403.13 Q186.129 1406.57 186.129 1413.13 Q186.129 1419.67 183.82 1423.13 Q181.529 1426.57 177.171 1426.57 Q172.814 1426.57 170.505 1423.13 Q168.213 1419.67 168.213 1413.13 Q168.213 1406.57 170.505 1403.13 Q172.814 1399.67 177.171 1399.67 Z" fill="#4c4c4c" fill-rule="evenodd" fill-opacity="1" /><path clip-path="url(#clip500)" d="M84.0467 1099.33 L106.304 1099.33 L106.304 1102.28 L84.0467 1102.28 L84.0467 1099.33 Z" fill="#4c4c4c" fill-rule="evenodd" fill-opacity="1" /><path clip-path="url(#clip500)" d="M121.807 1097.59 Q119.446 1097.59 118.057 1099.2 Q116.685 1100.82 116.685 1103.63 Q116.685 1106.43 118.057 1108.06 Q119.446 1109.67 121.807 1109.67 Q124.168 1109.67 125.54 1108.06 Q126.928 1106.43 126.928 1103.63 Q126.928 1100.82 125.54 1099.2 Q124.168 1097.59 121.807 1097.59 M128.769 1086.6 L128.769 1089.79 Q127.449 1089.17 126.095 1088.84 Q124.758 1088.51 123.439 1088.51 Q119.967 1088.51 118.126 1090.85 Q116.303 1093.2 116.043 1097.94 Q117.067 1096.43 118.612 1095.63 Q120.158 1094.81 122.015 1094.81 Q125.921 1094.81 128.178 1097.19 Q130.453 1099.55 130.453 1103.63 Q130.453 1107.62 128.092 1110.04 Q125.73 1112.45 121.807 1112.45 Q117.31 1112.45 114.932 1109.01 Q112.553 1105.56 112.553 1099.01 Q112.553 1092.87 115.47 1089.22 Q118.387 1085.56 123.3 1085.56 Q124.619 1085.56 125.956 1085.82 Q127.31 1086.08 128.769 1086.6 Z" fill="#4c4c4c" fill-rule="evenodd" fill-opacity="1" /><path clip-path="url(#clip500)" d="M136.494 1107.54 L140.157 1107.54 L140.157 1111.95 L136.494 1111.95 L136.494 1107.54 Z" fill="#4c4c4c" fill-rule="evenodd" fill-opacity="1" /><path clip-path="url(#clip500)" d="M146.911 1086.03 L163.578 1086.03 L163.578 1087.52 L154.168 1111.95 L150.505 1111.95 L159.359 1088.98 L146.911 1088.98 L146.911 1086.03 Z" fill="#4c4c4c" fill-rule="evenodd" fill-opacity="1" /><path clip-path="url(#clip500)" d="M170.452 1086.03 L184.22 1086.03 L184.22 1088.98 L173.664 1088.98 L173.664 1095.33 Q174.428 1095.07 175.192 1094.95 Q175.956 1094.81 176.72 1094.81 Q181.06 1094.81 183.595 1097.19 Q186.129 1099.57 186.129 1103.63 Q186.129 1107.82 183.525 1110.14 Q180.921 1112.45 176.182 1112.45 Q174.55 1112.45 172.848 1112.17 Q171.164 1111.9 169.359 1111.34 L169.359 1107.82 Q170.921 1108.67 172.588 1109.08 Q174.255 1109.5 176.112 1109.5 Q179.116 1109.5 180.869 1107.92 Q182.623 1106.34 182.623 1103.63 Q182.623 1100.92 180.869 1099.34 Q179.116 1097.76 176.112 1097.76 Q174.706 1097.76 173.3 1098.08 Q171.911 1098.39 170.452 1099.05 L170.452 1086.03 Z" fill="#4c4c4c" fill-rule="evenodd" fill-opacity="1" /><path clip-path="url(#clip500)" d="M83.3002 785.21 L105.557 785.21 L105.557 788.162 L83.3002 788.162 L83.3002 785.21 Z" fill="#4c4c4c" fill-rule="evenodd" fill-opacity="1" /><path clip-path="url(#clip500)" d="M121.06 783.474 Q118.699 783.474 117.31 785.089 Q115.939 786.703 115.939 789.516 Q115.939 792.311 117.31 793.943 Q118.699 795.558 121.06 795.558 Q123.421 795.558 124.793 793.943 Q126.182 792.311 126.182 789.516 Q126.182 786.703 124.793 785.089 Q123.421 783.474 121.06 783.474 M128.022 772.485 L128.022 775.679 Q126.703 775.054 125.349 774.724 Q124.012 774.395 122.692 774.395 Q119.22 774.395 117.38 776.738 Q115.557 779.082 115.297 783.822 Q116.321 782.311 117.866 781.513 Q119.411 780.697 121.269 780.697 Q125.175 780.697 127.432 783.075 Q129.706 785.436 129.706 789.516 Q129.706 793.509 127.345 795.922 Q124.984 798.335 121.06 798.335 Q116.564 798.335 114.185 794.898 Q111.807 791.443 111.807 784.898 Q111.807 778.752 114.724 775.106 Q117.64 771.443 122.553 771.443 Q123.873 771.443 125.21 771.704 Q126.564 771.964 128.022 772.485 Z" fill="#4c4c4c" fill-rule="evenodd" fill-opacity="1" /><path clip-path="url(#clip500)" d="M135.748 793.422 L139.411 793.422 L139.411 797.832 L135.748 797.832 L135.748 793.422 Z" fill="#4c4c4c" fill-rule="evenodd" fill-opacity="1" /><path clip-path="url(#clip500)" d="M147.085 771.912 L160.852 771.912 L160.852 774.863 L150.296 774.863 L150.296 781.217 Q151.06 780.957 151.824 780.835 Q152.588 780.697 153.352 780.697 Q157.692 780.697 160.227 783.075 Q162.762 785.454 162.762 789.516 Q162.762 793.7 160.157 796.026 Q157.553 798.335 152.814 798.335 Q151.182 798.335 149.48 798.058 Q147.796 797.78 145.991 797.224 L145.991 793.7 Q147.553 794.551 149.22 794.967 Q150.887 795.384 152.744 795.384 Q155.748 795.384 157.501 793.804 Q159.255 792.224 159.255 789.516 Q159.255 786.808 157.501 785.228 Q155.748 783.648 152.744 783.648 Q151.338 783.648 149.932 783.96 Q148.543 784.273 147.085 784.933 L147.085 771.912 Z" fill="#4c4c4c" fill-rule="evenodd" fill-opacity="1" /><path clip-path="url(#clip500)" d="M177.171 774.221 Q174.463 774.221 173.091 776.895 Q171.737 779.551 171.737 784.898 Q171.737 790.228 173.091 792.901 Q174.463 795.558 177.171 795.558 Q179.897 795.558 181.251 792.901 Q182.623 790.228 182.623 784.898 Q182.623 779.551 181.251 776.895 Q179.897 774.221 177.171 774.221 M177.171 771.443 Q181.529 771.443 183.82 774.898 Q186.129 778.335 186.129 784.898 Q186.129 791.443 183.82 794.898 Q181.529 798.335 177.171 798.335 Q172.814 798.335 170.505 794.898 Q168.213 791.443 168.213 784.898 Q168.213 778.335 170.505 774.898 Q172.814 771.443 177.171 771.443 Z" fill="#4c4c4c" fill-rule="evenodd" fill-opacity="1" /><path clip-path="url(#clip500)" d="M84.0467 471.095 L106.304 471.095 L106.304 474.047 L84.0467 474.047 L84.0467 471.095 Z" fill="#4c4c4c" fill-rule="evenodd" fill-opacity="1" /><path clip-path="url(#clip500)" d="M121.807 469.359 Q119.446 469.359 118.057 470.974 Q116.685 472.588 116.685 475.401 Q116.685 478.196 118.057 479.828 Q119.446 481.442 121.807 481.442 Q124.168 481.442 125.54 479.828 Q126.928 478.196 126.928 475.401 Q126.928 472.588 125.54 470.974 Q124.168 469.359 121.807 469.359 M128.769 458.37 L128.769 461.564 Q127.449 460.939 126.095 460.609 Q124.758 460.279 123.439 460.279 Q119.967 460.279 118.126 462.623 Q116.303 464.967 116.043 469.706 Q117.067 468.196 118.612 467.397 Q120.158 466.581 122.015 466.581 Q125.921 466.581 128.178 468.96 Q130.453 471.321 130.453 475.401 Q130.453 479.394 128.092 481.807 Q125.73 484.22 121.807 484.22 Q117.31 484.22 114.932 480.783 Q112.553 477.328 112.553 470.783 Q112.553 464.637 115.47 460.991 Q118.387 457.328 123.3 457.328 Q124.619 457.328 125.956 457.588 Q127.31 457.849 128.769 458.37 Z" fill="#4c4c4c" fill-rule="evenodd" fill-opacity="1" /><path clip-path="url(#clip500)" d="M136.494 479.307 L140.157 479.307 L140.157 483.717 L136.494 483.717 L136.494 479.307 Z" fill="#4c4c4c" fill-rule="evenodd" fill-opacity="1" /><path clip-path="url(#clip500)" d="M150.817 480.765 L163.057 480.765 L163.057 483.717 L146.598 483.717 L146.598 480.765 Q148.595 478.699 152.032 475.227 Q155.487 471.738 156.373 470.731 Q158.057 468.838 158.716 467.536 Q159.393 466.217 159.393 464.949 Q159.393 462.883 157.935 461.581 Q156.494 460.279 154.168 460.279 Q152.519 460.279 150.678 460.852 Q148.855 461.425 146.772 462.588 L146.772 459.047 Q148.89 458.196 150.73 457.762 Q152.571 457.328 154.098 457.328 Q158.126 457.328 160.522 459.342 Q162.918 461.356 162.918 464.724 Q162.918 466.321 162.31 467.762 Q161.72 469.185 160.14 471.13 Q159.706 471.633 157.38 474.047 Q155.053 476.442 150.817 480.765 Z" fill="#4c4c4c" fill-rule="evenodd" fill-opacity="1" /><path clip-path="url(#clip500)" d="M170.452 457.797 L184.22 457.797 L184.22 460.748 L173.664 460.748 L173.664 467.102 Q174.428 466.842 175.192 466.72 Q175.956 466.581 176.72 466.581 Q181.06 466.581 183.595 468.96 Q186.129 471.338 186.129 475.401 Q186.129 479.585 183.525 481.911 Q180.921 484.22 176.182 484.22 Q174.55 484.22 172.848 483.942 Q171.164 483.665 169.359 483.109 L169.359 479.585 Q170.921 480.435 172.588 480.852 Q174.255 481.269 176.112 481.269 Q179.116 481.269 180.869 479.689 Q182.623 478.109 182.623 475.401 Q182.623 472.692 180.869 471.113 Q179.116 469.533 176.112 469.533 Q174.706 469.533 173.3 469.845 Q171.911 470.158 170.452 470.817 L170.452 457.797 Z" fill="#4c4c4c" fill-rule="evenodd" fill-opacity="1" /><path clip-path="url(#clip500)" d="M83.3002 156.98 L105.557 156.98 L105.557 159.931 L83.3002 159.931 L83.3002 156.98 Z" fill="#4c4c4c" fill-rule="evenodd" fill-opacity="1" /><path clip-path="url(#clip500)" d="M121.06 155.244 Q118.699 155.244 117.31 156.858 Q115.939 158.473 115.939 161.285 Q115.939 164.08 117.31 165.712 Q118.699 167.327 121.06 167.327 Q123.421 167.327 124.793 165.712 Q126.182 164.08 126.182 161.285 Q126.182 158.473 124.793 156.858 Q123.421 155.244 121.06 155.244 M128.022 144.254 L128.022 147.449 Q126.703 146.824 125.349 146.494 Q124.012 146.164 122.692 146.164 Q119.22 146.164 117.38 148.508 Q115.557 150.851 115.297 155.591 Q116.321 154.081 117.866 153.282 Q119.411 152.466 121.269 152.466 Q125.175 152.466 127.432 154.844 Q129.706 157.206 129.706 161.285 Q129.706 165.278 127.345 167.692 Q124.984 170.105 121.06 170.105 Q116.564 170.105 114.185 166.667 Q111.807 163.212 111.807 156.667 Q111.807 150.522 114.724 146.876 Q117.64 143.213 122.553 143.213 Q123.873 143.213 125.21 143.473 Q126.564 143.733 128.022 144.254 Z" fill="#4c4c4c" fill-rule="evenodd" fill-opacity="1" /><path clip-path="url(#clip500)" d="M135.748 165.192 L139.411 165.192 L139.411 169.601 L135.748 169.601 L135.748 165.192 Z" fill="#4c4c4c" fill-rule="evenodd" fill-opacity="1" /><path clip-path="url(#clip500)" d="M154.55 145.99 Q151.841 145.99 150.47 148.664 Q149.116 151.32 149.116 156.667 Q149.116 161.997 150.47 164.671 Q151.841 167.327 154.55 167.327 Q157.275 167.327 158.63 164.671 Q160.001 161.997 160.001 156.667 Q160.001 151.32 158.63 148.664 Q157.275 145.99 154.55 145.99 M154.55 143.213 Q158.907 143.213 161.199 146.667 Q163.508 150.105 163.508 156.667 Q163.508 163.212 161.199 166.667 Q158.907 170.105 154.55 170.105 Q150.192 170.105 147.883 166.667 Q145.591 163.212 145.591 156.667 Q145.591 150.105 147.883 146.667 Q150.192 143.213 154.55 143.213 Z" fill="#4c4c4c" fill-rule="evenodd" fill-opacity="1" /><path clip-path="url(#clip500)" d="M177.171 145.99 Q174.463 145.99 173.091 148.664 Q171.737 151.32 171.737 156.667 Q171.737 161.997 173.091 164.671 Q174.463 167.327 177.171 167.327 Q179.897 167.327 181.251 164.671 Q182.623 161.997 182.623 156.667 Q182.623 151.32 181.251 148.664 Q179.897 145.99 177.171 145.99 M177.171 143.213 Q181.529 143.213 183.82 146.667 Q186.129 150.105 186.129 156.667 Q186.129 163.212 183.82 166.667 Q181.529 170.105 177.171 170.105 Q172.814 170.105 170.505 166.667 Q168.213 163.212 168.213 156.667 Q168.213 150.105 170.505 146.667 Q172.814 143.213 177.171 143.213 Z" fill="#4c4c4c" fill-rule="evenodd" fill-opacity="1" /><path clip-path="url(#clip500)" d="M20.3722 985.184 L20.3722 955.948 L24.3073 955.948 L24.3073 968.216 L54.9322 968.216 L54.9322 972.915 L24.3073 972.915 L24.3073 985.184 L20.3722 985.184 Z" fill="#000000" fill-rule="evenodd" fill-opacity="1" /><path clip-path="url(#clip500)" d="M40.9045 937.499 L42.9878 937.499 L42.9878 957.082 Q47.3859 956.804 49.7007 954.443 Q51.9924 952.059 51.9924 947.823 Q51.9924 945.369 51.3905 943.078 Q50.7887 940.763 49.585 938.494 L53.6127 938.494 Q54.5849 940.786 55.0942 943.193 Q55.6035 945.601 55.6035 948.078 Q55.6035 954.281 51.9924 957.916 Q48.3813 961.527 42.2239 961.527 Q35.8582 961.527 32.1314 958.101 Q28.3814 954.652 28.3814 948.818 Q28.3814 943.587 31.761 940.555 Q35.1174 937.499 40.9045 937.499 M39.6545 941.758 Q36.1591 941.805 34.0758 943.726 Q31.9925 945.624 31.9925 948.772 Q31.9925 952.337 34.0063 954.49 Q36.0202 956.619 39.6776 956.943 L39.6545 941.758 Z" fill="#000000" fill-rule="evenodd" fill-opacity="1" /><path clip-path="url(#clip500)" d="M29.7703 913.981 L33.798 913.981 Q32.8721 915.786 32.4091 917.731 Q31.9462 919.675 31.9462 921.758 Q31.9462 924.93 32.9184 926.527 Q33.8906 928.101 35.835 928.101 Q37.3165 928.101 38.173 926.967 Q39.0063 925.832 39.7702 922.406 L40.0943 920.948 Q41.0665 916.411 42.8489 914.513 Q44.6081 912.592 47.7794 912.592 Q51.3905 912.592 53.497 915.462 Q55.6035 918.309 55.6035 923.309 Q55.6035 925.393 55.1868 927.661 Q54.7933 929.906 53.9831 932.406 L49.585 932.406 Q50.8118 930.045 51.4368 927.754 Q52.0387 925.462 52.0387 923.217 Q52.0387 920.207 51.0201 918.587 Q49.9785 916.967 48.1035 916.967 Q46.3674 916.967 45.4415 918.147 Q44.5155 919.305 43.6591 923.263 L43.3118 924.744 Q42.4785 928.703 40.7656 930.462 Q39.0295 932.221 36.0202 932.221 Q32.3628 932.221 30.3721 929.629 Q28.3814 927.036 28.3814 922.268 Q28.3814 919.907 28.7286 917.823 Q29.0758 915.74 29.7703 913.981 Z" fill="#000000" fill-rule="evenodd" fill-opacity="1" /><path clip-path="url(#clip500)" d="M21.6453 901.596 L29.0064 901.596 L29.0064 892.823 L32.3165 892.823 L32.3165 901.596 L46.3905 901.596 Q49.5618 901.596 50.4646 900.74 Q51.3674 899.86 51.3674 897.198 L51.3674 892.823 L54.9322 892.823 L54.9322 897.198 Q54.9322 902.129 53.1035 904.004 Q51.2516 905.879 46.3905 905.879 L32.3165 905.879 L32.3165 909.004 L29.0064 909.004 L29.0064 905.879 L21.6453 905.879 L21.6453 901.596 Z" fill="#000000" fill-rule="evenodd" fill-opacity="1" /><path clip-path="url(#clip500)" d="M18.9138 872.152 L18.9138 867.893 L54.9322 867.893 L54.9322 872.152 L18.9138 872.152 Z" fill="#000000" fill-rule="evenodd" fill-opacity="1" /><path clip-path="url(#clip500)" d="M31.9925 848.935 Q31.9925 852.361 34.6776 854.351 Q37.3397 856.342 41.9924 856.342 Q46.6452 856.342 49.3303 854.374 Q51.9924 852.384 51.9924 848.935 Q51.9924 845.532 49.3072 843.541 Q46.622 841.55 41.9924 841.55 Q37.386 841.55 34.7008 843.541 Q31.9925 845.532 31.9925 848.935 M28.3814 848.935 Q28.3814 843.379 31.9925 840.208 Q35.6036 837.037 41.9924 837.037 Q48.3581 837.037 51.9924 840.208 Q55.6035 843.379 55.6035 848.935 Q55.6035 854.513 51.9924 857.685 Q48.3581 860.833 41.9924 860.833 Q35.6036 860.833 31.9925 857.685 Q28.3814 854.513 28.3814 848.935 Z" fill="#000000" fill-rule="evenodd" fill-opacity="1" /><path clip-path="url(#clip500)" d="M41.6683 812.916 Q37.0387 812.916 34.4925 814.838 Q31.9462 816.736 31.9462 820.185 Q31.9462 823.611 34.4925 825.532 Q37.0387 827.43 41.6683 827.43 Q46.2748 827.43 48.8211 825.532 Q51.3674 823.611 51.3674 820.185 Q51.3674 816.736 48.8211 814.838 Q46.2748 812.916 41.6683 812.916 M51.7146 808.657 Q58.3349 808.657 61.5525 811.597 Q64.7932 814.537 64.7932 820.601 Q64.7932 822.847 64.446 824.838 Q64.1219 826.828 63.4275 828.703 L59.284 828.703 Q60.3025 826.828 60.7886 825 Q61.2747 823.171 61.2747 821.273 Q61.2747 817.083 59.0757 815 Q56.8997 812.916 52.4785 812.916 L50.372 812.916 Q52.6637 814.236 53.7979 816.296 Q54.9322 818.356 54.9322 821.226 Q54.9322 825.995 51.2979 828.912 Q47.6637 831.828 41.6683 831.828 Q35.6499 831.828 32.0156 828.912 Q28.3814 825.995 28.3814 821.226 Q28.3814 818.356 29.5156 816.296 Q30.6499 814.236 32.9415 812.916 L29.0064 812.916 L29.0064 808.657 L51.7146 808.657 Z" fill="#000000" fill-rule="evenodd" fill-opacity="1" /><path clip-path="url(#clip500)" d="M40.048 802.037 L40.048 789.56 L43.8443 789.56 L43.8443 802.037 L40.048 802.037 Z" fill="#000000" fill-rule="evenodd" fill-opacity="1" /><path clip-path="url(#clip500)" d="M18.9138 782.778 L18.9138 778.518 L54.9322 778.518 L54.9322 782.778 L18.9138 782.778 Z" fill="#000000" fill-rule="evenodd" fill-opacity="1" /><path clip-path="url(#clip500)" d="M29.0064 769.606 L29.0064 765.347 L54.9322 765.347 L54.9322 769.606 L29.0064 769.606 M18.9138 769.606 L18.9138 765.347 L24.3073 765.347 L24.3073 769.606 L18.9138 769.606 Z" fill="#000000" fill-rule="evenodd" fill-opacity="1" /><path clip-path="url(#clip500)" d="M18.9138 756.597 L18.9138 752.315 L40.1869 752.315 L29.0064 739.607 L29.0064 734.167 L41.1359 747.917 L54.9322 733.588 L54.9322 739.144 L42.2702 752.315 L54.9322 752.315 L54.9322 756.597 L18.9138 756.597 Z" fill="#000000" fill-rule="evenodd" fill-opacity="1" /><path clip-path="url(#clip500)" d="M40.9045 708.496 L42.9878 708.496 L42.9878 728.079 Q47.3859 727.801 49.7007 725.44 Q51.9924 723.056 51.9924 718.82 Q51.9924 716.366 51.3905 714.074 Q50.7887 711.759 49.585 709.491 L53.6127 709.491 Q54.5849 711.783 55.0942 714.19 Q55.6035 716.597 55.6035 719.074 Q55.6035 725.278 51.9924 728.912 Q48.3813 732.523 42.2239 732.523 Q35.8582 732.523 32.1314 729.097 Q28.3814 725.648 28.3814 719.815 Q28.3814 714.584 31.761 711.551 Q35.1174 708.496 40.9045 708.496 M39.6545 712.755 Q36.1591 712.801 34.0758 714.722 Q31.9925 716.621 31.9925 719.769 Q31.9925 723.333 34.0063 725.486 Q36.0202 727.616 39.6776 727.94 L39.6545 712.755 Z" fill="#000000" fill-rule="evenodd" fill-opacity="1" /><path clip-path="url(#clip500)" d="M18.9138 701.505 L18.9138 697.246 L54.9322 697.246 L54.9322 701.505 L18.9138 701.505 Z" fill="#000000" fill-rule="evenodd" fill-opacity="1" /><path clip-path="url(#clip500)" d="M29.0064 688.334 L29.0064 684.074 L54.9322 684.074 L54.9322 688.334 L29.0064 688.334 M18.9138 688.334 L18.9138 684.074 L24.3073 684.074 L24.3073 688.334 L18.9138 688.334 Z" fill="#000000" fill-rule="evenodd" fill-opacity="1" /><path clip-path="url(#clip500)" d="M39.2841 653.612 L54.9322 653.612 L54.9322 657.871 L39.423 657.871 Q35.7424 657.871 33.9138 659.306 Q32.0851 660.741 32.0851 663.612 Q32.0851 667.061 34.2841 669.051 Q36.4832 671.042 40.2795 671.042 L54.9322 671.042 L54.9322 675.324 L18.9138 675.324 L18.9138 671.042 L33.0341 671.042 Q30.6962 669.514 29.5388 667.454 Q28.3814 665.371 28.3814 662.663 Q28.3814 658.195 31.1591 655.903 Q33.9138 653.612 39.2841 653.612 Z" fill="#000000" fill-rule="evenodd" fill-opacity="1" /><path clip-path="url(#clip500)" d="M31.9925 635.07 Q31.9925 638.496 34.6776 640.487 Q37.3397 642.477 41.9924 642.477 Q46.6452 642.477 49.3303 640.51 Q51.9924 638.519 51.9924 635.07 Q51.9924 631.667 49.3072 629.677 Q46.622 627.686 41.9924 627.686 Q37.386 627.686 34.7008 629.677 Q31.9925 631.667 31.9925 635.07 M28.3814 635.07 Q28.3814 629.515 31.9925 626.343 Q35.6036 623.172 41.9924 623.172 Q48.3581 623.172 51.9924 626.343 Q55.6035 629.515 55.6035 635.07 Q55.6035 640.649 51.9924 643.82 Q48.3581 646.968 41.9924 646.968 Q35.6036 646.968 31.9925 643.82 Q28.3814 640.649 28.3814 635.07 Z" fill="#000000" fill-rule="evenodd" fill-opacity="1" /><path clip-path="url(#clip500)" d="M31.9925 606.066 Q31.9925 609.492 34.6776 611.482 Q37.3397 613.473 41.9924 613.473 Q46.6452 613.473 49.3303 611.505 Q51.9924 609.515 51.9924 606.066 Q51.9924 602.663 49.3072 600.672 Q46.622 598.681 41.9924 598.681 Q37.386 598.681 34.7008 600.672 Q31.9925 602.663 31.9925 606.066 M28.3814 606.066 Q28.3814 600.51 31.9925 597.339 Q35.6036 594.168 41.9924 594.168 Q48.3581 594.168 51.9924 597.339 Q55.6035 600.51 55.6035 606.066 Q55.6035 611.644 51.9924 614.816 Q48.3581 617.964 41.9924 617.964 Q35.6036 617.964 31.9925 614.816 Q28.3814 611.644 28.3814 606.066 Z" fill="#000000" fill-rule="evenodd" fill-opacity="1" /><path clip-path="url(#clip500)" d="M32.9415 570.047 L18.9138 570.047 L18.9138 565.788 L54.9322 565.788 L54.9322 570.047 L51.0433 570.047 Q53.3581 571.39 54.4923 573.45 Q55.6035 575.487 55.6035 578.357 Q55.6035 583.056 51.8535 586.019 Q48.1035 588.959 41.9924 588.959 Q35.8813 588.959 32.1314 586.019 Q28.3814 583.056 28.3814 578.357 Q28.3814 575.487 29.5156 573.45 Q30.6267 571.39 32.9415 570.047 M41.9924 584.561 Q46.6915 584.561 49.3766 582.64 Q52.0387 580.695 52.0387 577.316 Q52.0387 573.936 49.3766 571.992 Q46.6915 570.047 41.9924 570.047 Q37.2934 570.047 34.6313 571.992 Q31.9462 573.936 31.9462 577.316 Q31.9462 580.695 34.6313 582.64 Q37.2934 584.561 41.9924 584.561 Z" fill="#000000" fill-rule="evenodd" fill-opacity="1" /><path clip-path="url(#clip500)" d="M1257.37 32.2799 L1257.37 51.84 L1252.04 51.84 L1252.04 32.4535 Q1252.04 27.8529 1250.25 25.567 Q1248.45 23.2811 1244.87 23.2811 Q1240.55 23.2811 1238.07 26.03 Q1235.58 28.7788 1235.58 33.5241 L1235.58 51.84 L1230.22 51.84 L1230.22 19.4328 L1235.58 19.4328 L1235.58 24.4675 Q1237.49 21.545 1240.06 20.0983 Q1242.67 18.6515 1246.05 18.6515 Q1251.64 18.6515 1254.5 22.1237 Q1257.37 25.567 1257.37 32.2799 Z" fill="#000000" fill-rule="evenodd" fill-opacity="1" /><path clip-path="url(#clip500)" d="M1267.99 6.81709 L1273.31 6.81709 L1273.31 51.84 L1267.99 51.84 L1267.99 6.81709 Z" fill="#000000" fill-rule="evenodd" fill-opacity="1" /><path clip-path="url(#clip500)" d="M1289.72 10.2314 L1289.72 19.4328 L1300.68 19.4328 L1300.68 23.5705 L1289.72 23.5705 L1289.72 41.163 Q1289.72 45.1271 1290.79 46.2555 Q1291.89 47.384 1295.21 47.384 L1300.68 47.384 L1300.68 51.84 L1295.21 51.84 Q1289.05 51.84 1286.71 49.5541 Q1284.36 47.2393 1284.36 41.163 L1284.36 23.5705 L1280.46 23.5705 L1280.46 19.4328 L1284.36 19.4328 L1284.36 10.2314 L1289.72 10.2314 Z" fill="#000000" fill-rule="evenodd" fill-opacity="1" /><path clip-path="url(#clip500)" d="M1331.01 20.677 L1331.01 25.6538 Q1328.75 24.4096 1326.46 23.802 Q1324.21 23.1654 1321.89 23.1654 Q1316.71 23.1654 1313.85 26.464 Q1310.98 29.7336 1310.98 35.6653 Q1310.98 41.597 1313.85 44.8956 Q1316.71 48.1653 1321.89 48.1653 Q1324.21 48.1653 1326.46 47.5576 Q1328.75 46.921 1331.01 45.6768 L1331.01 50.5958 Q1328.78 51.6375 1326.38 52.1583 Q1324 52.6791 1321.31 52.6791 Q1313.99 52.6791 1309.68 48.0784 Q1305.37 43.4778 1305.37 35.6653 Q1305.37 27.7371 1309.71 23.1943 Q1314.08 18.6515 1321.66 18.6515 Q1324.12 18.6515 1326.46 19.1724 Q1328.81 19.6642 1331.01 20.677 Z" fill="#000000" fill-rule="evenodd" fill-opacity="1" /><path clip-path="url(#clip500)" d="M1360.92 20.3876 L1360.92 25.4223 Q1358.67 24.2649 1356.24 23.6862 Q1353.81 23.1075 1351.2 23.1075 Q1347.24 23.1075 1345.24 24.3228 Q1343.27 25.5381 1343.27 27.9686 Q1343.27 29.8204 1344.69 30.891 Q1346.11 31.9327 1350.39 32.8876 L1352.21 33.2926 Q1357.89 34.5079 1360.26 36.7359 Q1362.66 38.935 1362.66 42.8991 Q1362.66 47.4129 1359.07 50.046 Q1355.51 52.6791 1349.26 52.6791 Q1346.66 52.6791 1343.82 52.1583 Q1341.02 51.6664 1337.89 50.6537 L1337.89 45.156 Q1340.84 46.6896 1343.71 47.4708 Q1346.57 48.2231 1349.38 48.2231 Q1353.14 48.2231 1355.17 46.95 Q1357.19 45.6479 1357.19 43.3042 Q1357.19 41.134 1355.72 39.9766 Q1354.27 38.8192 1349.32 37.7486 L1347.47 37.3146 Q1342.52 36.273 1340.32 34.1318 Q1338.12 31.9616 1338.12 28.2001 Q1338.12 23.6283 1341.36 21.1399 Q1344.61 18.6515 1350.57 18.6515 Q1353.52 18.6515 1356.12 19.0855 Q1358.73 19.5196 1360.92 20.3876 Z" fill="#000000" fill-rule="evenodd" fill-opacity="1" /><polyline clip-path="url(#clip502)" style="stroke:#e26f46; stroke-linecap:butt; stroke-linejoin:round; stroke-width:8; stroke-opacity:1; fill:none" points="
  339.782,294.852 379.643,294.852 419.503,294.852 459.364,294.852 499.225,294.852 539.086,294.852 578.947,294.852 618.808,294.852 658.669,294.852 698.53,294.852 
  738.39,294.852 778.251,294.852 818.112,294.852 857.973,294.852 897.834,294.852 937.695,294.852 977.556,294.852 1017.42,294.852 1057.28,294.852 1097.14,294.852 
  1137,294.852 1176.86,294.852 1216.72,294.852 1256.58,294.852 1296.44,294.852 1336.3,294.852 1376.16,294.852 1416.03,294.852 1455.89,294.852 1495.75,294.852 
  1535.61,294.852 1575.47,294.852 1615.33,294.852 1655.19,294.852 1695.05,294.852 1734.91,294.852 1774.77,294.852 1814.63,294.852 1854.49,294.852 1894.36,294.852 
  1934.22,294.852 1974.08,294.852 2013.94,294.852 2053.8,294.852 2093.66,294.852 2133.52,294.852 2173.38,294.852 2213.24,294.852 2253.1,294.852 2292.96,294.852 
  
  "/>
<polyline clip-path="url(#clip502)" style="stroke:#3da44d; stroke-linecap:butt; stroke-linejoin:round; stroke-width:8; stroke-opacity:1; fill:none" points="
  339.782,232.029 379.643,232.029 419.503,232.029 459.364,232.029 499.225,232.029 539.086,232.029 578.947,232.029 618.808,232.029 658.669,232.029 698.53,232.029 
  738.39,232.029 778.251,232.029 818.112,232.029 857.973,232.029 897.834,232.029 937.695,232.029 977.556,232.029 1017.42,232.029 1057.28,232.029 1097.14,232.029 
  1137,232.029 1176.86,232.029 1216.72,232.029 1256.58,232.029 1296.44,232.029 1336.3,232.029 1376.16,232.029 1416.03,232.029 1455.89,232.029 1495.75,232.029 
  1535.61,232.029 1575.47,232.029 1615.33,232.029 1655.19,232.029 1695.05,232.029 1734.91,232.029 1774.77,232.029 1814.63,232.029 1854.49,232.029 1894.36,232.029 
  1934.22,232.029 1974.08,232.029 2013.94,232.029 2053.8,232.029 2093.66,232.029 2133.52,232.029 2173.38,232.029 2213.24,232.029 2253.1,232.029 2292.96,232.029 
  
  "/>
<polyline clip-path="url(#clip502)" style="stroke:#c271d2; stroke-linecap:butt; stroke-linejoin:round; stroke-width:8; stroke-opacity:1; fill:none" points="
  339.782,144.077 379.643,144.077 419.503,144.077 459.364,144.077 499.225,144.077 539.086,144.077 578.947,144.077 618.808,144.077 658.669,144.077 698.53,144.077 
  738.39,144.077 778.251,144.077 818.112,144.077 857.973,144.077 897.834,144.077 937.695,144.077 977.556,144.077 1017.42,144.077 1057.28,144.077 1097.14,144.077 
  1137,144.077 1176.86,144.077 1216.72,144.077 1256.58,144.077 1296.44,144.077 1336.3,144.077 1376.16,144.077 1416.03,144.077 1455.89,144.077 1495.75,144.077 
  1535.61,144.077 1575.47,144.077 1615.33,144.077 1655.19,144.077 1695.05,144.077 1734.91,144.077 1774.77,144.077 1814.63,144.077 1854.49,144.077 1894.36,144.077 
  1934.22,144.077 1974.08,144.077 2013.94,144.077 2053.8,144.077 2093.66,144.077 2133.52,144.077 2173.38,144.077 2213.24,144.077 2253.1,144.077 2292.96,144.077 
  
  "/>
<polyline clip-path="url(#clip502)" style="stroke:#ac8d18; stroke-linecap:butt; stroke-linejoin:round; stroke-width:8; stroke-opacity:1; fill:none" points="
  339.782,219.464 379.643,219.464 419.503,219.464 459.364,219.464 499.225,219.464 539.086,219.464 578.947,219.464 618.808,219.464 658.669,219.464 698.53,219.464 
  738.39,219.464 778.251,219.464 818.112,219.464 857.973,219.464 897.834,219.464 937.695,219.464 977.556,219.464 1017.42,219.464 1057.28,219.464 1097.14,219.464 
  1137,219.464 1176.86,219.464 1216.72,219.464 1256.58,219.464 1296.44,219.464 1336.3,219.464 1376.16,219.464 1416.03,219.464 1455.89,219.464 1495.75,219.464 
  1535.61,219.464 1575.47,219.464 1615.33,219.464 1655.19,219.464 1695.05,219.464 1734.91,219.464 1774.77,219.464 1814.63,219.464 1854.49,219.464 1894.36,219.464 
  1934.22,219.464 1974.08,219.464 2013.94,219.464 2053.8,219.464 2093.66,219.464 2133.52,219.464 2173.38,219.464 2213.24,219.464 2253.1,219.464 2292.96,219.464 
  
  "/>
<polyline clip-path="url(#clip502)" style="stroke:#00a9ad; stroke-linecap:butt; stroke-linejoin:round; stroke-width:8; stroke-opacity:1; fill:none" points="
  339.782,169.206 379.643,169.206 419.503,169.206 459.364,169.206 499.225,169.206 539.086,169.206 578.947,169.206 618.808,169.206 658.669,169.206 698.53,169.206 
  738.39,169.206 778.251,169.206 818.112,169.206 857.973,169.206 897.834,169.206 937.695,169.206 977.556,169.206 1017.42,169.206 1057.28,169.206 1097.14,169.206 
  1137,169.206 1176.86,169.206 1216.72,169.206 1256.58,169.206 1296.44,169.206 1336.3,169.206 1376.16,169.206 1416.03,169.206 1455.89,169.206 1495.75,169.206 
  1535.61,169.206 1575.47,169.206 1615.33,169.206 1655.19,169.206 1695.05,169.206 1734.91,169.206 1774.77,169.206 1814.63,169.206 1854.49,169.206 1894.36,169.206 
  1934.22,169.206 1974.08,169.206 2013.94,169.206 2053.8,169.206 2093.66,169.206 2133.52,169.206 2173.38,169.206 2213.24,169.206 2253.1,169.206 2292.96,169.206 
  
  "/>
<polyline clip-path="url(#clip502)" style="stroke:#009af9; stroke-linecap:butt; stroke-linejoin:round; stroke-width:12; stroke-opacity:1; fill:none" points="
  339.782,1406.9 379.643,723.155 419.503,586.53 459.364,536.848 499.225,555.658 539.086,543.951 578.947,518.614 618.808,519.691 658.669,500.898 698.53,489.974 
  738.39,494.469 778.251,492.936 818.112,486.1 857.973,466.765 897.834,476.283 937.695,480.353 977.556,465.307 1017.42,466.949 1057.28,464.826 1097.14,468.787 
  1137,466.036 1176.86,467.618 1216.72,464.221 1256.58,465.164 1296.44,462.19 1336.3,470.309 1376.16,472.906 1416.03,470.486 1455.89,465.339 1495.75,462.299 
  1535.61,464.376 1575.47,464.594 1615.33,466.747 1655.19,468.736 1695.05,463.466 1734.91,460.33 1774.77,458.626 1814.63,454.757 1854.49,457.754 1894.36,457.439 
  1934.22,454.8 1974.08,451.265 2013.94,453.839 2053.8,453.319 2093.66,451.362 2133.52,451.963 2173.38,452.984 2213.24,453.569 2253.1,453.428 2292.96,454.209 
  
  "/>
</svg>
