<?xml version="1.0" encoding="utf-8"?>
<svg xmlns="http://www.w3.org/2000/svg" xmlns:xlink="http://www.w3.org/1999/xlink" width="600" height="400" viewBox="0 0 2400 1600">
<defs>
  <clipPath id="clip530">
    <rect x="0" y="0" width="2400" height="1600"/>
  </clipPath>
</defs>
<path clip-path="url(#clip530)" d="
M0 1600 L2400 1600 L2400 0 L0 0  Z
  " fill="#ffffff" fill-rule="evenodd" fill-opacity="1"/>
<defs>
  <clipPath id="clip531">
    <rect x="480" y="0" width="1681" height="1600"/>
  </clipPath>
</defs>
<path clip-path="url(#clip530)" d="
M206.571 1444.78 L2352.76 1444.78 L2352.76 106.192 L206.571 106.192  Z
  " fill="#eaeaea" fill-rule="evenodd" fill-opacity="1"/>
<defs>
  <clipPath id="clip532">
    <rect x="206" y="106" width="2147" height="1340"/>
  </clipPath>
</defs>
<polyline clip-path="url(#clip532)" style="stroke:#ffffff; stroke-linecap:butt; stroke-linejoin:round; stroke-width:4; stroke-opacity:1; fill:none" points="
  267.312,1444.78 267.312,106.192 
  "/>
<polyline clip-path="url(#clip532)" style="stroke:#ffffff; stroke-linecap:butt; stroke-linejoin:round; stroke-width:4; stroke-opacity:1; fill:none" points="
  469.782,1444.78 469.782,106.192 
  "/>
<polyline clip-path="url(#clip532)" style="stroke:#ffffff; stroke-linecap:butt; stroke-linejoin:round; stroke-width:4; stroke-opacity:1; fill:none" points="
  672.252,1444.78 672.252,106.192 
  "/>
<polyline clip-path="url(#clip532)" style="stroke:#ffffff; stroke-linecap:butt; stroke-linejoin:round; stroke-width:4; stroke-opacity:1; fill:none" points="
  874.723,1444.78 874.723,106.192 
  "/>
<polyline clip-path="url(#clip532)" style="stroke:#ffffff; stroke-linecap:butt; stroke-linejoin:round; stroke-width:4; stroke-opacity:1; fill:none" points="
  1077.19,1444.78 1077.19,106.192 
  "/>
<polyline clip-path="url(#clip532)" style="stroke:#ffffff; stroke-linecap:butt; stroke-linejoin:round; stroke-width:4; stroke-opacity:1; fill:none" points="
  1279.66,1444.78 1279.66,106.192 
  "/>
<polyline clip-path="url(#clip532)" style="stroke:#ffffff; stroke-linecap:butt; stroke-linejoin:round; stroke-width:4; stroke-opacity:1; fill:none" points="
  1482.13,1444.78 1482.13,106.192 
  "/>
<polyline clip-path="url(#clip532)" style="stroke:#ffffff; stroke-linecap:butt; stroke-linejoin:round; stroke-width:4; stroke-opacity:1; fill:none" points="
  1684.6,1444.78 1684.6,106.192 
  "/>
<polyline clip-path="url(#clip532)" style="stroke:#ffffff; stroke-linecap:butt; stroke-linejoin:round; stroke-width:4; stroke-opacity:1; fill:none" points="
  1887.07,1444.78 1887.07,106.192 
  "/>
<polyline clip-path="url(#clip532)" style="stroke:#ffffff; stroke-linecap:butt; stroke-linejoin:round; stroke-width:4; stroke-opacity:1; fill:none" points="
  2089.54,1444.78 2089.54,106.192 
  "/>
<polyline clip-path="url(#clip532)" style="stroke:#ffffff; stroke-linecap:butt; stroke-linejoin:round; stroke-width:4; stroke-opacity:1; fill:none" points="
  2292.01,1444.78 2292.01,106.192 
  "/>
<polyline clip-path="url(#clip532)" style="stroke:#ffffff; stroke-linecap:butt; stroke-linejoin:round; stroke-width:2; stroke-opacity:1; fill:none" points="
  368.547,1444.78 368.547,106.192 
  "/>
<polyline clip-path="url(#clip532)" style="stroke:#ffffff; stroke-linecap:butt; stroke-linejoin:round; stroke-width:2; stroke-opacity:1; fill:none" points="
  571.017,1444.78 571.017,106.192 
  "/>
<polyline clip-path="url(#clip532)" style="stroke:#ffffff; stroke-linecap:butt; stroke-linejoin:round; stroke-width:2; stroke-opacity:1; fill:none" points="
  773.487,1444.78 773.487,106.192 
  "/>
<polyline clip-path="url(#clip532)" style="stroke:#ffffff; stroke-linecap:butt; stroke-linejoin:round; stroke-width:2; stroke-opacity:1; fill:none" points="
  975.958,1444.78 975.958,106.192 
  "/>
<polyline clip-path="url(#clip532)" style="stroke:#ffffff; stroke-linecap:butt; stroke-linejoin:round; stroke-width:2; stroke-opacity:1; fill:none" points="
  1178.43,1444.78 1178.43,106.192 
  "/>
<polyline clip-path="url(#clip532)" style="stroke:#ffffff; stroke-linecap:butt; stroke-linejoin:round; stroke-width:2; stroke-opacity:1; fill:none" points="
  1380.9,1444.78 1380.9,106.192 
  "/>
<polyline clip-path="url(#clip532)" style="stroke:#ffffff; stroke-linecap:butt; stroke-linejoin:round; stroke-width:2; stroke-opacity:1; fill:none" points="
  1583.37,1444.78 1583.37,106.192 
  "/>
<polyline clip-path="url(#clip532)" style="stroke:#ffffff; stroke-linecap:butt; stroke-linejoin:round; stroke-width:2; stroke-opacity:1; fill:none" points="
  1785.84,1444.78 1785.84,106.192 
  "/>
<polyline clip-path="url(#clip532)" style="stroke:#ffffff; stroke-linecap:butt; stroke-linejoin:round; stroke-width:2; stroke-opacity:1; fill:none" points="
  1988.31,1444.78 1988.31,106.192 
  "/>
<polyline clip-path="url(#clip532)" style="stroke:#ffffff; stroke-linecap:butt; stroke-linejoin:round; stroke-width:2; stroke-opacity:1; fill:none" points="
  2190.78,1444.78 2190.78,106.192 
  "/>
<polyline clip-path="url(#clip530)" style="stroke:#ffffff; stroke-linecap:butt; stroke-linejoin:round; stroke-width:4; stroke-opacity:1; fill:none" points="
  206.571,1444.78 2352.76,1444.78 
  "/>
<polyline clip-path="url(#clip530)" style="stroke:#333333; stroke-linecap:butt; stroke-linejoin:round; stroke-width:4; stroke-opacity:1; fill:none" points="
  267.312,1444.78 267.312,1463.68 
  "/>
<polyline clip-path="url(#clip530)" style="stroke:#333333; stroke-linecap:butt; stroke-linejoin:round; stroke-width:4; stroke-opacity:1; fill:none" points="
  469.782,1444.78 469.782,1463.68 
  "/>
<polyline clip-path="url(#clip530)" style="stroke:#333333; stroke-linecap:butt; stroke-linejoin:round; stroke-width:4; stroke-opacity:1; fill:none" points="
  672.252,1444.78 672.252,1463.68 
  "/>
<polyline clip-path="url(#clip530)" style="stroke:#333333; stroke-linecap:butt; stroke-linejoin:round; stroke-width:4; stroke-opacity:1; fill:none" points="
  874.723,1444.78 874.723,1463.68 
  "/>
<polyline clip-path="url(#clip530)" style="stroke:#333333; stroke-linecap:butt; stroke-linejoin:round; stroke-width:4; stroke-opacity:1; fill:none" points="
  1077.19,1444.78 1077.19,1463.68 
  "/>
<polyline clip-path="url(#clip530)" style="stroke:#333333; stroke-linecap:butt; stroke-linejoin:round; stroke-width:4; stroke-opacity:1; fill:none" points="
  1279.66,1444.78 1279.66,1463.68 
  "/>
<polyline clip-path="url(#clip530)" style="stroke:#333333; stroke-linecap:butt; stroke-linejoin:round; stroke-width:4; stroke-opacity:1; fill:none" points="
  1482.13,1444.78 1482.13,1463.68 
  "/>
<polyline clip-path="url(#clip530)" style="stroke:#333333; stroke-linecap:butt; stroke-linejoin:round; stroke-width:4; stroke-opacity:1; fill:none" points="
  1684.6,1444.78 1684.6,1463.68 
  "/>
<polyline clip-path="url(#clip530)" style="stroke:#333333; stroke-linecap:butt; stroke-linejoin:round; stroke-width:4; stroke-opacity:1; fill:none" points="
  1887.07,1444.78 1887.07,1463.68 
  "/>
<polyline clip-path="url(#clip530)" style="stroke:#333333; stroke-linecap:butt; stroke-linejoin:round; stroke-width:4; stroke-opacity:1; fill:none" points="
  2089.54,1444.78 2089.54,1463.68 
  "/>
<polyline clip-path="url(#clip530)" style="stroke:#333333; stroke-linecap:butt; stroke-linejoin:round; stroke-width:4; stroke-opacity:1; fill:none" points="
  2292.01,1444.78 2292.01,1463.68 
  "/>
<polyline clip-path="url(#clip530)" style="stroke:#333333; stroke-linecap:butt; stroke-linejoin:round; stroke-width:4; stroke-opacity:1; fill:none" points="
  368.547,1444.78 368.547,1454.23 
  "/>
<polyline clip-path="url(#clip530)" style="stroke:#333333; stroke-linecap:butt; stroke-linejoin:round; stroke-width:4; stroke-opacity:1; fill:none" points="
  571.017,1444.78 571.017,1454.23 
  "/>
<polyline clip-path="url(#clip530)" style="stroke:#333333; stroke-linecap:butt; stroke-linejoin:round; stroke-width:4; stroke-opacity:1; fill:none" points="
  773.487,1444.78 773.487,1454.23 
  "/>
<polyline clip-path="url(#clip530)" style="stroke:#333333; stroke-linecap:butt; stroke-linejoin:round; stroke-width:4; stroke-opacity:1; fill:none" points="
  975.958,1444.78 975.958,1454.23 
  "/>
<polyline clip-path="url(#clip530)" style="stroke:#333333; stroke-linecap:butt; stroke-linejoin:round; stroke-width:4; stroke-opacity:1; fill:none" points="
  1178.43,1444.78 1178.43,1454.23 
  "/>
<polyline clip-path="url(#clip530)" style="stroke:#333333; stroke-linecap:butt; stroke-linejoin:round; stroke-width:4; stroke-opacity:1; fill:none" points="
  1380.9,1444.78 1380.9,1454.23 
  "/>
<polyline clip-path="url(#clip530)" style="stroke:#333333; stroke-linecap:butt; stroke-linejoin:round; stroke-width:4; stroke-opacity:1; fill:none" points="
  1583.37,1444.78 1583.37,1454.23 
  "/>
<polyline clip-path="url(#clip530)" style="stroke:#333333; stroke-linecap:butt; stroke-linejoin:round; stroke-width:4; stroke-opacity:1; fill:none" points="
  1785.84,1444.78 1785.84,1454.23 
  "/>
<polyline clip-path="url(#clip530)" style="stroke:#333333; stroke-linecap:butt; stroke-linejoin:round; stroke-width:4; stroke-opacity:1; fill:none" points="
  1988.31,1444.78 1988.31,1454.23 
  "/>
<polyline clip-path="url(#clip530)" style="stroke:#333333; stroke-linecap:butt; stroke-linejoin:round; stroke-width:4; stroke-opacity:1; fill:none" points="
  2190.78,1444.78 2190.78,1454.23 
  "/>
<path clip-path="url(#clip530)" d="M267.312 1482.37 Q264.603 1482.37 263.232 1485.04 Q261.878 1487.7 261.878 1493.05 Q261.878 1498.38 263.232 1501.05 Q264.603 1503.71 267.312 1503.71 Q270.037 1503.71 271.392 1501.05 Q272.763 1498.38 272.763 1493.05 Q272.763 1487.7 271.392 1485.04 Q270.037 1482.37 267.312 1482.37 M267.312 1479.59 Q271.669 1479.59 273.961 1483.05 Q276.27 1486.48 276.27 1493.05 Q276.27 1499.59 273.961 1503.05 Q271.669 1506.48 267.312 1506.48 Q262.954 1506.48 260.645 1503.05 Q258.353 1499.59 258.353 1493.05 Q258.353 1486.48 260.645 1483.05 Q262.954 1479.59 267.312 1479.59 Z" fill="#4c4c4c" fill-rule="evenodd" fill-opacity="1" /><path clip-path="url(#clip530)" d="M450.798 1503.03 L456.527 1503.03 L456.527 1483.25 L450.294 1484.5 L450.294 1481.31 L456.492 1480.06 L459.999 1480.06 L459.999 1503.03 L465.728 1503.03 L465.728 1505.98 L450.798 1505.98 L450.798 1503.03 Z" fill="#4c4c4c" fill-rule="evenodd" fill-opacity="1" /><path clip-path="url(#clip530)" d="M480.311 1482.37 Q477.603 1482.37 476.232 1485.04 Q474.877 1487.7 474.877 1493.05 Q474.877 1498.38 476.232 1501.05 Q477.603 1503.71 480.311 1503.71 Q483.037 1503.71 484.391 1501.05 Q485.763 1498.38 485.763 1493.05 Q485.763 1487.7 484.391 1485.04 Q483.037 1482.37 480.311 1482.37 M480.311 1479.59 Q484.669 1479.59 486.961 1483.05 Q489.27 1486.48 489.27 1493.05 Q489.27 1499.59 486.961 1503.05 Q484.669 1506.48 480.311 1506.48 Q475.954 1506.48 473.645 1503.05 Q471.353 1499.59 471.353 1493.05 Q471.353 1486.48 473.645 1483.05 Q475.954 1479.59 480.311 1479.59 Z" fill="#4c4c4c" fill-rule="evenodd" fill-opacity="1" /><path clip-path="url(#clip530)" d="M656.332 1503.03 L668.572 1503.03 L668.572 1505.98 L652.114 1505.98 L652.114 1503.03 Q654.11 1500.96 657.548 1497.49 Q661.002 1494 661.888 1492.99 Q663.572 1491.1 664.232 1489.8 Q664.909 1488.48 664.909 1487.21 Q664.909 1485.15 663.45 1483.84 Q662.009 1482.54 659.683 1482.54 Q658.034 1482.54 656.193 1483.12 Q654.37 1483.69 652.287 1484.85 L652.287 1481.31 Q654.405 1480.46 656.245 1480.03 Q658.086 1479.59 659.614 1479.59 Q663.641 1479.59 666.037 1481.6 Q668.433 1483.62 668.433 1486.99 Q668.433 1488.58 667.825 1490.03 Q667.235 1491.45 665.655 1493.39 Q665.221 1493.9 662.895 1496.31 Q660.568 1498.71 656.332 1503.03 Z" fill="#4c4c4c" fill-rule="evenodd" fill-opacity="1" /><path clip-path="url(#clip530)" d="M683.433 1482.37 Q680.725 1482.37 679.353 1485.04 Q677.999 1487.7 677.999 1493.05 Q677.999 1498.38 679.353 1501.05 Q680.725 1503.71 683.433 1503.71 Q686.159 1503.71 687.513 1501.05 Q688.884 1498.38 688.884 1493.05 Q688.884 1487.7 687.513 1485.04 Q686.159 1482.37 683.433 1482.37 M683.433 1479.59 Q687.79 1479.59 690.082 1483.05 Q692.391 1486.48 692.391 1493.05 Q692.391 1499.59 690.082 1503.05 Q687.79 1506.48 683.433 1506.48 Q679.075 1506.48 676.766 1503.05 Q674.475 1499.59 674.475 1493.05 Q674.475 1486.48 676.766 1483.05 Q679.075 1479.59 683.433 1479.59 Z" fill="#4c4c4c" fill-rule="evenodd" fill-opacity="1" /><path clip-path="url(#clip530)" d="M866.355 1492 Q868.872 1492.54 870.278 1494.24 Q871.702 1495.95 871.702 1498.45 Q871.702 1502.28 869.063 1504.38 Q866.424 1506.48 861.563 1506.48 Q859.931 1506.48 858.195 1506.15 Q856.476 1505.84 854.636 1505.2 L854.636 1501.81 Q856.094 1502.66 857.83 1503.1 Q859.566 1503.53 861.459 1503.53 Q864.757 1503.53 866.476 1502.23 Q868.212 1500.93 868.212 1498.45 Q868.212 1496.15 866.598 1494.87 Q865 1493.57 862.136 1493.57 L859.115 1493.57 L859.115 1490.68 L862.275 1490.68 Q864.862 1490.68 866.233 1489.66 Q867.605 1488.62 867.605 1486.67 Q867.605 1484.68 866.181 1483.62 Q864.775 1482.54 862.136 1482.54 Q860.695 1482.54 859.046 1482.85 Q857.396 1483.17 855.417 1483.83 L855.417 1480.7 Q857.414 1480.15 859.15 1479.87 Q860.903 1479.59 862.448 1479.59 Q866.441 1479.59 868.768 1481.41 Q871.094 1483.22 871.094 1486.31 Q871.094 1488.46 869.862 1489.96 Q868.629 1491.43 866.355 1492 Z" fill="#4c4c4c" fill-rule="evenodd" fill-opacity="1" /><path clip-path="url(#clip530)" d="M885.851 1482.37 Q883.143 1482.37 881.771 1485.04 Q880.417 1487.7 880.417 1493.05 Q880.417 1498.38 881.771 1501.05 Q883.143 1503.71 885.851 1503.71 Q888.577 1503.71 889.931 1501.05 Q891.302 1498.38 891.302 1493.05 Q891.302 1487.7 889.931 1485.04 Q888.577 1482.37 885.851 1482.37 M885.851 1479.59 Q890.209 1479.59 892.5 1483.05 Q894.809 1486.48 894.809 1493.05 Q894.809 1499.59 892.5 1503.05 Q890.209 1506.48 885.851 1506.48 Q881.493 1506.48 879.184 1503.05 Q876.893 1499.59 876.893 1493.05 Q876.893 1486.48 879.184 1483.05 Q881.493 1479.59 885.851 1479.59 Z" fill="#4c4c4c" fill-rule="evenodd" fill-opacity="1" /><path clip-path="url(#clip530)" d="M1068.32 1483.12 L1059.47 1496.95 L1068.32 1496.95 L1068.32 1483.12 M1067.4 1480.06 L1071.81 1480.06 L1071.81 1496.95 L1075.51 1496.95 L1075.51 1499.87 L1071.81 1499.87 L1071.81 1505.98 L1068.32 1505.98 L1068.32 1499.87 L1056.62 1499.87 L1056.62 1496.48 L1067.4 1480.06 Z" fill="#4c4c4c" fill-rule="evenodd" fill-opacity="1" /><path clip-path="url(#clip530)" d="M1088.81 1482.37 Q1086.1 1482.37 1084.73 1485.04 Q1083.37 1487.7 1083.37 1493.05 Q1083.37 1498.38 1084.73 1501.05 Q1086.1 1503.71 1088.81 1503.71 Q1091.53 1503.71 1092.89 1501.05 Q1094.26 1498.38 1094.26 1493.05 Q1094.26 1487.7 1092.89 1485.04 Q1091.53 1482.37 1088.81 1482.37 M1088.81 1479.59 Q1093.17 1479.59 1095.46 1483.05 Q1097.77 1486.48 1097.77 1493.05 Q1097.77 1499.59 1095.46 1503.05 Q1093.17 1506.48 1088.81 1506.48 Q1084.45 1506.48 1082.14 1503.05 Q1079.85 1499.59 1079.85 1493.05 Q1079.85 1486.48 1082.14 1483.05 Q1084.45 1479.59 1088.81 1479.59 Z" fill="#4c4c4c" fill-rule="evenodd" fill-opacity="1" /><path clip-path="url(#clip530)" d="M1260.69 1480.06 L1274.45 1480.06 L1274.45 1483.01 L1263.9 1483.01 L1263.9 1489.37 Q1264.66 1489.1 1265.43 1488.98 Q1266.19 1488.84 1266.95 1488.84 Q1271.3 1488.84 1273.83 1491.22 Q1276.36 1493.6 1276.36 1497.66 Q1276.36 1501.85 1273.76 1504.17 Q1271.16 1506.48 1266.42 1506.48 Q1264.78 1506.48 1263.08 1506.21 Q1261.4 1505.93 1259.59 1505.37 L1259.59 1501.85 Q1261.16 1502.7 1262.82 1503.12 Q1264.49 1503.53 1266.35 1503.53 Q1269.35 1503.53 1271.1 1501.95 Q1272.86 1500.37 1272.86 1497.66 Q1272.86 1494.96 1271.1 1493.38 Q1269.35 1491.8 1266.35 1491.8 Q1264.94 1491.8 1263.53 1492.11 Q1262.15 1492.42 1260.69 1493.08 L1260.69 1480.06 Z" fill="#4c4c4c" fill-rule="evenodd" fill-opacity="1" /><path clip-path="url(#clip530)" d="M1290.77 1482.37 Q1288.07 1482.37 1286.69 1485.04 Q1285.34 1487.7 1285.34 1493.05 Q1285.34 1498.38 1286.69 1501.05 Q1288.07 1503.71 1290.77 1503.71 Q1293.5 1503.71 1294.85 1501.05 Q1296.23 1498.38 1296.23 1493.05 Q1296.23 1487.7 1294.85 1485.04 Q1293.5 1482.37 1290.77 1482.37 M1290.77 1479.59 Q1295.13 1479.59 1297.42 1483.05 Q1299.73 1486.48 1299.73 1493.05 Q1299.73 1499.59 1297.42 1503.05 Q1295.13 1506.48 1290.77 1506.48 Q1286.42 1506.48 1284.11 1503.05 Q1281.82 1499.59 1281.82 1493.05 Q1281.82 1486.48 1284.11 1483.05 Q1286.42 1479.59 1290.77 1479.59 Z" fill="#4c4c4c" fill-rule="evenodd" fill-opacity="1" /><path clip-path="url(#clip530)" d="M1471.19 1491.62 Q1468.83 1491.62 1467.44 1493.24 Q1466.07 1494.85 1466.07 1497.66 Q1466.07 1500.46 1467.44 1502.09 Q1468.83 1503.71 1471.19 1503.71 Q1473.55 1503.71 1474.92 1502.09 Q1476.31 1500.46 1476.31 1497.66 Q1476.31 1494.85 1474.92 1493.24 Q1473.55 1491.62 1471.19 1491.62 M1478.15 1480.63 L1478.15 1483.83 Q1476.83 1483.2 1475.48 1482.87 Q1474.14 1482.54 1472.82 1482.54 Q1469.35 1482.54 1467.51 1484.89 Q1465.68 1487.23 1465.42 1491.97 Q1466.45 1490.46 1467.99 1489.66 Q1469.54 1488.84 1471.4 1488.84 Q1475.3 1488.84 1477.56 1491.22 Q1479.83 1493.58 1479.83 1497.66 Q1479.83 1501.66 1477.47 1504.07 Q1475.11 1506.48 1471.19 1506.48 Q1466.69 1506.48 1464.31 1503.05 Q1461.93 1499.59 1461.93 1493.05 Q1461.93 1486.9 1464.85 1483.25 Q1467.77 1479.59 1472.68 1479.59 Q1474 1479.59 1475.34 1479.85 Q1476.69 1480.11 1478.15 1480.63 Z" fill="#4c4c4c" fill-rule="evenodd" fill-opacity="1" /><path clip-path="url(#clip530)" d="M1493.37 1482.37 Q1490.67 1482.37 1489.29 1485.04 Q1487.94 1487.7 1487.94 1493.05 Q1487.94 1498.38 1489.29 1501.05 Q1490.67 1503.71 1493.37 1503.71 Q1496.1 1503.71 1497.45 1501.05 Q1498.83 1498.38 1498.83 1493.05 Q1498.83 1487.7 1497.45 1485.04 Q1496.1 1482.37 1493.37 1482.37 M1493.37 1479.59 Q1497.73 1479.59 1500.02 1483.05 Q1502.33 1486.48 1502.33 1493.05 Q1502.33 1499.59 1500.02 1503.05 Q1497.73 1506.48 1493.37 1506.48 Q1489.02 1506.48 1486.71 1503.05 Q1484.42 1499.59 1484.42 1493.05 Q1484.42 1486.48 1486.71 1483.05 Q1489.02 1479.59 1493.37 1479.59 Z" fill="#4c4c4c" fill-rule="evenodd" fill-opacity="1" /><path clip-path="url(#clip530)" d="M1664.62 1480.06 L1681.29 1480.06 L1681.29 1481.55 L1671.88 1505.98 L1668.22 1505.98 L1677.07 1483.01 L1664.62 1483.01 L1664.62 1480.06 Z" fill="#4c4c4c" fill-rule="evenodd" fill-opacity="1" /><path clip-path="url(#clip530)" d="M1695.63 1482.37 Q1692.92 1482.37 1691.55 1485.04 Q1690.19 1487.7 1690.19 1493.05 Q1690.19 1498.38 1691.55 1501.05 Q1692.92 1503.71 1695.63 1503.71 Q1698.35 1503.71 1699.71 1501.05 Q1701.08 1498.38 1701.08 1493.05 Q1701.08 1487.7 1699.71 1485.04 Q1698.35 1482.37 1695.63 1482.37 M1695.63 1479.59 Q1699.99 1479.59 1702.28 1483.05 Q1704.59 1486.48 1704.59 1493.05 Q1704.59 1499.59 1702.28 1503.05 Q1699.99 1506.48 1695.63 1506.48 Q1691.27 1506.48 1688.96 1503.05 Q1686.67 1499.59 1686.67 1493.05 Q1686.67 1486.48 1688.96 1483.05 Q1691.27 1479.59 1695.63 1479.59 Z" fill="#4c4c4c" fill-rule="evenodd" fill-opacity="1" /><path clip-path="url(#clip530)" d="M1875.73 1493.67 Q1873.23 1493.67 1871.79 1495.01 Q1870.36 1496.34 1870.36 1498.69 Q1870.36 1501.03 1871.79 1502.37 Q1873.23 1503.71 1875.73 1503.71 Q1878.23 1503.71 1879.67 1502.37 Q1881.11 1501.01 1881.11 1498.69 Q1881.11 1496.34 1879.67 1495.01 Q1878.25 1493.67 1875.73 1493.67 M1872.22 1492.18 Q1869.96 1491.62 1868.7 1490.08 Q1867.45 1488.53 1867.45 1486.31 Q1867.45 1483.2 1869.65 1481.4 Q1871.87 1479.59 1875.73 1479.59 Q1879.6 1479.59 1881.81 1481.4 Q1884.01 1483.2 1884.01 1486.31 Q1884.01 1488.53 1882.74 1490.08 Q1881.49 1491.62 1879.25 1492.18 Q1881.79 1492.77 1883.19 1494.49 Q1884.62 1496.21 1884.62 1498.69 Q1884.62 1502.46 1882.31 1504.47 Q1880.02 1506.48 1875.73 1506.48 Q1871.44 1506.48 1869.13 1504.47 Q1866.84 1502.46 1866.84 1498.69 Q1866.84 1496.21 1868.26 1494.49 Q1869.69 1492.77 1872.22 1492.18 M1870.94 1486.64 Q1870.94 1488.65 1872.19 1489.78 Q1873.45 1490.91 1875.73 1490.91 Q1877.99 1490.91 1879.25 1489.78 Q1880.54 1488.65 1880.54 1486.64 Q1880.54 1484.63 1879.25 1483.5 Q1877.99 1482.37 1875.73 1482.37 Q1873.45 1482.37 1872.19 1483.5 Q1870.94 1484.63 1870.94 1486.64 Z" fill="#4c4c4c" fill-rule="evenodd" fill-opacity="1" /><path clip-path="url(#clip530)" d="M1898.35 1482.37 Q1895.64 1482.37 1894.27 1485.04 Q1892.92 1487.7 1892.92 1493.05 Q1892.92 1498.38 1894.27 1501.05 Q1895.64 1503.71 1898.35 1503.71 Q1901.08 1503.71 1902.43 1501.05 Q1903.8 1498.38 1903.8 1493.05 Q1903.8 1487.7 1902.43 1485.04 Q1901.08 1482.37 1898.35 1482.37 M1898.35 1479.59 Q1902.71 1479.59 1905 1483.05 Q1907.31 1486.48 1907.31 1493.05 Q1907.31 1499.59 1905 1503.05 Q1902.71 1506.48 1898.35 1506.48 Q1893.99 1506.48 1891.68 1503.05 Q1889.39 1499.59 1889.39 1493.05 Q1889.39 1486.48 1891.68 1483.05 Q1893.99 1479.59 1898.35 1479.59 Z" fill="#4c4c4c" fill-rule="evenodd" fill-opacity="1" /><path clip-path="url(#clip530)" d="M2070.89 1505.44 L2070.89 1502.25 Q2072.21 1502.87 2073.56 1503.2 Q2074.92 1503.53 2076.22 1503.53 Q2079.69 1503.53 2081.52 1501.21 Q2083.36 1498.86 2083.62 1494.1 Q2082.61 1495.6 2081.06 1496.4 Q2079.52 1497.2 2077.64 1497.2 Q2073.75 1497.2 2071.48 1494.85 Q2069.22 1492.49 2069.22 1488.41 Q2069.22 1484.42 2071.58 1482 Q2073.95 1479.59 2077.87 1479.59 Q2082.37 1479.59 2084.73 1483.05 Q2087.11 1486.48 2087.11 1493.05 Q2087.11 1499.17 2084.19 1502.84 Q2081.29 1506.48 2076.38 1506.48 Q2075.06 1506.48 2073.7 1506.22 Q2072.35 1505.96 2070.89 1505.44 M2077.87 1494.45 Q2080.23 1494.45 2081.6 1492.84 Q2082.99 1491.22 2082.99 1488.41 Q2082.99 1485.62 2081.6 1484 Q2080.23 1482.37 2077.87 1482.37 Q2075.51 1482.37 2074.12 1484 Q2072.75 1485.62 2072.75 1488.41 Q2072.75 1491.22 2074.12 1492.84 Q2075.51 1494.45 2077.87 1494.45 Z" fill="#4c4c4c" fill-rule="evenodd" fill-opacity="1" /><path clip-path="url(#clip530)" d="M2100.91 1482.37 Q2098.2 1482.37 2096.83 1485.04 Q2095.47 1487.7 2095.47 1493.05 Q2095.47 1498.38 2096.83 1501.05 Q2098.2 1503.71 2100.91 1503.71 Q2103.63 1503.71 2104.99 1501.05 Q2106.36 1498.38 2106.36 1493.05 Q2106.36 1487.7 2104.99 1485.04 Q2103.63 1482.37 2100.91 1482.37 M2100.91 1479.59 Q2105.26 1479.59 2107.56 1483.05 Q2109.87 1486.48 2109.87 1493.05 Q2109.87 1499.59 2107.56 1503.05 Q2105.26 1506.48 2100.91 1506.48 Q2096.55 1506.48 2094.24 1503.05 Q2091.95 1499.59 2091.95 1493.05 Q2091.95 1486.48 2094.24 1483.05 Q2096.55 1479.59 2100.91 1479.59 Z" fill="#4c4c4c" fill-rule="evenodd" fill-opacity="1" /><path clip-path="url(#clip530)" d="M2261.72 1503.03 L2267.45 1503.03 L2267.45 1483.25 L2261.22 1484.5 L2261.22 1481.31 L2267.41 1480.06 L2270.92 1480.06 L2270.92 1503.03 L2276.65 1503.03 L2276.65 1505.98 L2261.72 1505.98 L2261.72 1503.03 Z" fill="#4c4c4c" fill-rule="evenodd" fill-opacity="1" /><path clip-path="url(#clip530)" d="M2291.23 1482.37 Q2288.53 1482.37 2287.15 1485.04 Q2285.8 1487.7 2285.8 1493.05 Q2285.8 1498.38 2287.15 1501.05 Q2288.53 1503.71 2291.23 1503.71 Q2293.96 1503.71 2295.31 1501.05 Q2296.68 1498.38 2296.68 1493.05 Q2296.68 1487.7 2295.31 1485.04 Q2293.96 1482.37 2291.23 1482.37 M2291.23 1479.59 Q2295.59 1479.59 2297.88 1483.05 Q2300.19 1486.48 2300.19 1493.05 Q2300.19 1499.59 2297.88 1503.05 Q2295.59 1506.48 2291.23 1506.48 Q2286.88 1506.48 2284.57 1503.05 Q2282.28 1499.59 2282.28 1493.05 Q2282.28 1486.48 2284.57 1483.05 Q2286.88 1479.59 2291.23 1479.59 Z" fill="#4c4c4c" fill-rule="evenodd" fill-opacity="1" /><path clip-path="url(#clip530)" d="M2313.85 1482.37 Q2311.15 1482.37 2309.78 1485.04 Q2308.42 1487.7 2308.42 1493.05 Q2308.42 1498.38 2309.78 1501.05 Q2311.15 1503.71 2313.85 1503.71 Q2316.58 1503.71 2317.93 1501.05 Q2319.31 1498.38 2319.31 1493.05 Q2319.31 1487.7 2317.93 1485.04 Q2316.58 1482.37 2313.85 1482.37 M2313.85 1479.59 Q2318.21 1479.59 2320.5 1483.05 Q2322.81 1486.48 2322.81 1493.05 Q2322.81 1499.59 2320.5 1503.05 Q2318.21 1506.48 2313.85 1506.48 Q2309.5 1506.48 2307.19 1503.05 Q2304.9 1499.59 2304.9 1493.05 Q2304.9 1486.48 2307.19 1483.05 Q2309.5 1479.59 2313.85 1479.59 Z" fill="#4c4c4c" fill-rule="evenodd" fill-opacity="1" /><path clip-path="url(#clip530)" d="M1170.25 1526.57 L1174.93 1526.57 L1174.93 1561.13 L1170.25 1561.13 L1170.25 1526.57 Z" fill="#000000" fill-rule="evenodd" fill-opacity="1" /><path clip-path="url(#clip530)" d="M1188.26 1527.84 L1188.26 1535.21 L1197.04 1535.21 L1197.04 1538.52 L1188.26 1538.52 L1188.26 1552.59 Q1188.26 1555.76 1189.12 1556.66 Q1190 1557.57 1192.66 1557.57 L1197.04 1557.57 L1197.04 1561.13 L1192.66 1561.13 Q1187.73 1561.13 1185.86 1559.3 Q1183.98 1557.45 1183.98 1552.59 L1183.98 1538.52 L1180.86 1538.52 L1180.86 1535.21 L1183.98 1535.21 L1183.98 1527.84 L1188.26 1527.84 Z" fill="#000000" fill-rule="evenodd" fill-opacity="1" /><path clip-path="url(#clip530)" d="M1224.81 1547.1 L1224.81 1549.19 L1205.23 1549.19 Q1205.51 1553.59 1207.87 1555.9 Q1210.25 1558.19 1214.49 1558.19 Q1216.94 1558.19 1219.24 1557.59 Q1221.55 1556.99 1223.82 1555.78 L1223.82 1559.81 Q1221.53 1560.78 1219.12 1561.29 Q1216.71 1561.8 1214.24 1561.8 Q1208.03 1561.8 1204.4 1558.19 Q1200.79 1554.58 1200.79 1548.42 Q1200.79 1542.06 1204.21 1538.33 Q1207.66 1534.58 1213.49 1534.58 Q1218.73 1534.58 1221.76 1537.96 Q1224.81 1541.32 1224.81 1547.1 M1220.55 1545.85 Q1220.51 1542.36 1218.59 1540.28 Q1216.69 1538.19 1213.54 1538.19 Q1209.98 1538.19 1207.82 1540.21 Q1205.69 1542.22 1205.37 1545.88 L1220.55 1545.85 Z" fill="#000000" fill-rule="evenodd" fill-opacity="1" /><path clip-path="url(#clip530)" d="M1246.83 1539.19 Q1246.11 1538.77 1245.25 1538.59 Q1244.42 1538.38 1243.4 1538.38 Q1239.79 1538.38 1237.85 1540.74 Q1235.93 1543.08 1235.93 1547.47 L1235.93 1561.13 L1231.64 1561.13 L1231.64 1535.21 L1235.93 1535.21 L1235.93 1539.23 Q1237.27 1536.87 1239.42 1535.74 Q1241.57 1534.58 1244.65 1534.58 Q1245.09 1534.58 1245.62 1534.65 Q1246.16 1534.7 1246.8 1534.81 L1246.83 1539.19 Z" fill="#000000" fill-rule="evenodd" fill-opacity="1" /><path clip-path="url(#clip530)" d="M1263.08 1548.1 Q1257.92 1548.1 1255.92 1549.28 Q1253.93 1550.46 1253.93 1553.31 Q1253.93 1555.58 1255.42 1556.92 Q1256.92 1558.24 1259.49 1558.24 Q1263.03 1558.24 1265.16 1555.74 Q1267.31 1553.22 1267.31 1549.05 L1267.31 1548.1 L1263.08 1548.1 M1271.57 1546.34 L1271.57 1561.13 L1267.31 1561.13 L1267.31 1557.2 Q1265.86 1559.56 1263.68 1560.69 Q1261.5 1561.8 1258.36 1561.8 Q1254.37 1561.8 1252.01 1559.58 Q1249.67 1557.34 1249.67 1553.59 Q1249.67 1549.21 1252.59 1546.99 Q1255.53 1544.77 1261.34 1544.77 L1267.31 1544.77 L1267.31 1544.35 Q1267.31 1541.41 1265.37 1539.81 Q1263.45 1538.19 1259.95 1538.19 Q1257.73 1538.19 1255.62 1538.72 Q1253.52 1539.26 1251.57 1540.32 L1251.57 1536.39 Q1253.91 1535.48 1256.11 1535.04 Q1258.31 1534.58 1260.39 1534.58 Q1266.02 1534.58 1268.8 1537.5 Q1271.57 1540.41 1271.57 1546.34 Z" fill="#000000" fill-rule="evenodd" fill-opacity="1" /><path clip-path="url(#clip530)" d="M1284.56 1527.84 L1284.56 1535.21 L1293.33 1535.21 L1293.33 1538.52 L1284.56 1538.52 L1284.56 1552.59 Q1284.56 1555.76 1285.42 1556.66 Q1286.3 1557.57 1288.96 1557.57 L1293.33 1557.57 L1293.33 1561.13 L1288.96 1561.13 Q1284.03 1561.13 1282.15 1559.3 Q1280.28 1557.45 1280.28 1552.59 L1280.28 1538.52 L1277.15 1538.52 L1277.15 1535.21 L1280.28 1535.21 L1280.28 1527.84 L1284.56 1527.84 Z" fill="#000000" fill-rule="evenodd" fill-opacity="1" /><path clip-path="url(#clip530)" d="M1298.93 1535.21 L1303.19 1535.21 L1303.19 1561.13 L1298.93 1561.13 L1298.93 1535.21 M1298.93 1525.11 L1303.19 1525.11 L1303.19 1530.51 L1298.93 1530.51 L1298.93 1525.11 Z" fill="#000000" fill-rule="evenodd" fill-opacity="1" /><path clip-path="url(#clip530)" d="M1322.15 1538.19 Q1318.73 1538.19 1316.73 1540.88 Q1314.74 1543.54 1314.74 1548.19 Q1314.74 1552.84 1316.71 1555.53 Q1318.7 1558.19 1322.15 1558.19 Q1325.55 1558.19 1327.54 1555.51 Q1329.54 1552.82 1329.54 1548.19 Q1329.54 1543.59 1327.54 1540.9 Q1325.55 1538.19 1322.15 1538.19 M1322.15 1534.58 Q1327.71 1534.58 1330.88 1538.19 Q1334.05 1541.8 1334.05 1548.19 Q1334.05 1554.56 1330.88 1558.19 Q1327.71 1561.8 1322.15 1561.8 Q1316.57 1561.8 1313.4 1558.19 Q1310.25 1554.56 1310.25 1548.19 Q1310.25 1541.8 1313.4 1538.19 Q1316.57 1534.58 1322.15 1534.58 Z" fill="#000000" fill-rule="evenodd" fill-opacity="1" /><path clip-path="url(#clip530)" d="M1362.66 1545.48 L1362.66 1561.13 L1358.4 1561.13 L1358.4 1545.62 Q1358.4 1541.94 1356.97 1540.11 Q1355.53 1538.28 1352.66 1538.28 Q1349.21 1538.28 1347.22 1540.48 Q1345.23 1542.68 1345.23 1546.48 L1345.23 1561.13 L1340.95 1561.13 L1340.95 1535.21 L1345.23 1535.21 L1345.23 1539.23 Q1346.76 1536.9 1348.82 1535.74 Q1350.9 1534.58 1353.61 1534.58 Q1358.08 1534.58 1360.37 1537.36 Q1362.66 1540.11 1362.66 1545.48 Z" fill="#000000" fill-rule="evenodd" fill-opacity="1" /><path clip-path="url(#clip530)" d="M1387.68 1535.97 L1387.68 1540 Q1385.88 1539.07 1383.93 1538.61 Q1381.99 1538.15 1379.91 1538.15 Q1376.73 1538.15 1375.14 1539.12 Q1373.56 1540.09 1373.56 1542.03 Q1373.56 1543.52 1374.7 1544.37 Q1375.83 1545.21 1379.26 1545.97 L1380.72 1546.29 Q1385.25 1547.27 1387.15 1549.05 Q1389.07 1550.81 1389.07 1553.98 Q1389.07 1557.59 1386.2 1559.7 Q1383.35 1561.8 1378.35 1561.8 Q1376.27 1561.8 1374 1561.39 Q1371.76 1560.99 1369.26 1560.18 L1369.26 1555.78 Q1371.62 1557.01 1373.91 1557.64 Q1376.2 1558.24 1378.45 1558.24 Q1381.46 1558.24 1383.08 1557.22 Q1384.7 1556.18 1384.7 1554.3 Q1384.7 1552.57 1383.52 1551.64 Q1382.36 1550.72 1378.4 1549.86 L1376.92 1549.51 Q1372.96 1548.68 1371.2 1546.97 Q1369.44 1545.23 1369.44 1542.22 Q1369.44 1538.56 1372.04 1536.57 Q1374.63 1534.58 1379.4 1534.58 Q1381.76 1534.58 1383.84 1534.93 Q1385.92 1535.28 1387.68 1535.97 Z" fill="#000000" fill-rule="evenodd" fill-opacity="1" /><polyline clip-path="url(#clip532)" style="stroke:#ffffff; stroke-linecap:butt; stroke-linejoin:round; stroke-width:4; stroke-opacity:1; fill:none" points="
  206.571,1387.68 2352.76,1387.68 
  "/>
<polyline clip-path="url(#clip532)" style="stroke:#ffffff; stroke-linecap:butt; stroke-linejoin:round; stroke-width:4; stroke-opacity:1; fill:none" points="
  206.571,997.835 2352.76,997.835 
  "/>
<polyline clip-path="url(#clip532)" style="stroke:#ffffff; stroke-linecap:butt; stroke-linejoin:round; stroke-width:4; stroke-opacity:1; fill:none" points="
  206.571,607.991 2352.76,607.991 
  "/>
<polyline clip-path="url(#clip532)" style="stroke:#ffffff; stroke-linecap:butt; stroke-linejoin:round; stroke-width:4; stroke-opacity:1; fill:none" points="
  206.571,218.147 2352.76,218.147 
  "/>
<polyline clip-path="url(#clip532)" style="stroke:#ffffff; stroke-linecap:butt; stroke-linejoin:round; stroke-width:2; stroke-opacity:1; fill:none" points="
  206.571,1192.76 2352.76,1192.76 
  "/>
<polyline clip-path="url(#clip532)" style="stroke:#ffffff; stroke-linecap:butt; stroke-linejoin:round; stroke-width:2; stroke-opacity:1; fill:none" points="
  206.571,802.913 2352.76,802.913 
  "/>
<polyline clip-path="url(#clip532)" style="stroke:#ffffff; stroke-linecap:butt; stroke-linejoin:round; stroke-width:2; stroke-opacity:1; fill:none" points="
  206.571,413.069 2352.76,413.069 
  "/>
<polyline clip-path="url(#clip530)" style="stroke:#ffffff; stroke-linecap:butt; stroke-linejoin:round; stroke-width:4; stroke-opacity:1; fill:none" points="
  206.571,1444.78 206.571,106.192 
  "/>
<polyline clip-path="url(#clip530)" style="stroke:#333333; stroke-linecap:butt; stroke-linejoin:round; stroke-width:4; stroke-opacity:1; fill:none" points="
  206.571,1387.68 187.673,1387.68 
  "/>
<polyline clip-path="url(#clip530)" style="stroke:#333333; stroke-linecap:butt; stroke-linejoin:round; stroke-width:4; stroke-opacity:1; fill:none" points="
  206.571,997.835 187.673,997.835 
  "/>
<polyline clip-path="url(#clip530)" style="stroke:#333333; stroke-linecap:butt; stroke-linejoin:round; stroke-width:4; stroke-opacity:1; fill:none" points="
  206.571,607.991 187.673,607.991 
  "/>
<polyline clip-path="url(#clip530)" style="stroke:#333333; stroke-linecap:butt; stroke-linejoin:round; stroke-width:4; stroke-opacity:1; fill:none" points="
  206.571,218.147 187.673,218.147 
  "/>
<polyline clip-path="url(#clip530)" style="stroke:#333333; stroke-linecap:butt; stroke-linejoin:round; stroke-width:4; stroke-opacity:1; fill:none" points="
  206.571,1192.76 197.122,1192.76 
  "/>
<polyline clip-path="url(#clip530)" style="stroke:#333333; stroke-linecap:butt; stroke-linejoin:round; stroke-width:4; stroke-opacity:1; fill:none" points="
  206.571,802.913 197.122,802.913 
  "/>
<polyline clip-path="url(#clip530)" style="stroke:#333333; stroke-linecap:butt; stroke-linejoin:round; stroke-width:4; stroke-opacity:1; fill:none" points="
  206.571,413.069 197.122,413.069 
  "/>
<path clip-path="url(#clip530)" d="M83.5432 1388.02 L105.8 1388.02 L105.8 1390.97 L83.5432 1390.97 L83.5432 1388.02 Z" fill="#4c4c4c" fill-rule="evenodd" fill-opacity="1" /><path clip-path="url(#clip530)" d="M113.977 1397.69 L119.706 1397.69 L119.706 1377.91 L113.474 1379.16 L113.474 1375.97 L119.671 1374.72 L123.178 1374.72 L123.178 1397.69 L128.908 1397.69 L128.908 1400.64 L113.977 1400.64 L113.977 1397.69 Z" fill="#4c4c4c" fill-rule="evenodd" fill-opacity="1" /><path clip-path="url(#clip530)" d="M143.925 1386.28 Q141.564 1386.28 140.175 1387.9 Q138.803 1389.51 138.803 1392.32 Q138.803 1395.12 140.175 1396.75 Q141.564 1398.37 143.925 1398.37 Q146.286 1398.37 147.657 1396.75 Q149.046 1395.12 149.046 1392.32 Q149.046 1389.51 147.657 1387.9 Q146.286 1386.28 143.925 1386.28 M150.887 1375.29 L150.887 1378.49 Q149.567 1377.86 148.213 1377.53 Q146.876 1377.2 145.557 1377.2 Q142.085 1377.2 140.244 1379.55 Q138.421 1381.89 138.161 1386.63 Q139.185 1385.12 140.73 1384.32 Q142.276 1383.5 144.133 1383.5 Q148.039 1383.5 150.296 1385.88 Q152.571 1388.24 152.571 1392.32 Q152.571 1396.32 150.21 1398.73 Q147.848 1401.14 143.925 1401.14 Q139.428 1401.14 137.05 1397.71 Q134.671 1394.25 134.671 1387.71 Q134.671 1381.56 137.588 1377.91 Q140.505 1374.25 145.418 1374.25 Q146.737 1374.25 148.074 1374.51 Q149.428 1374.77 150.887 1375.29 Z" fill="#4c4c4c" fill-rule="evenodd" fill-opacity="1" /><path clip-path="url(#clip530)" d="M84.4113 998.174 L106.668 998.174 L106.668 1001.13 L84.4113 1001.13 L84.4113 998.174 Z" fill="#4c4c4c" fill-rule="evenodd" fill-opacity="1" /><path clip-path="url(#clip530)" d="M114.845 1007.84 L120.574 1007.84 L120.574 988.07 L114.342 989.32 L114.342 986.125 L120.54 984.875 L124.046 984.875 L124.046 1007.84 L129.776 1007.84 L129.776 1010.8 L114.845 1010.8 L114.845 1007.84 Z" fill="#4c4c4c" fill-rule="evenodd" fill-opacity="1" /><path clip-path="url(#clip530)" d="M136.894 984.875 L150.661 984.875 L150.661 987.827 L140.105 987.827 L140.105 994.181 Q140.869 993.92 141.633 993.799 Q142.397 993.66 143.161 993.66 Q147.501 993.66 150.036 996.038 Q152.571 998.417 152.571 1002.48 Q152.571 1006.66 149.966 1008.99 Q147.362 1011.3 142.623 1011.3 Q140.991 1011.3 139.289 1011.02 Q137.605 1010.74 135.8 1010.19 L135.8 1006.66 Q137.362 1007.51 139.029 1007.93 Q140.696 1008.35 142.553 1008.35 Q145.557 1008.35 147.31 1006.77 Q149.064 1005.19 149.064 1002.48 Q149.064 999.771 147.31 998.191 Q145.557 996.611 142.553 996.611 Q141.147 996.611 139.741 996.924 Q138.352 997.236 136.894 997.896 L136.894 984.875 Z" fill="#4c4c4c" fill-rule="evenodd" fill-opacity="1" /><path clip-path="url(#clip530)" d="M83.3002 608.33 L105.557 608.33 L105.557 611.281 L83.3002 611.281 L83.3002 608.33 Z" fill="#4c4c4c" fill-rule="evenodd" fill-opacity="1" /><path clip-path="url(#clip530)" d="M113.734 618 L119.463 618 L119.463 598.226 L113.231 599.476 L113.231 596.281 L119.428 595.031 L122.935 595.031 L122.935 618 L128.664 618 L128.664 620.951 L113.734 620.951 L113.734 618 Z" fill="#4c4c4c" fill-rule="evenodd" fill-opacity="1" /><path clip-path="url(#clip530)" d="M145.383 598.087 L136.529 611.923 L145.383 611.923 L145.383 598.087 M144.463 595.031 L148.873 595.031 L148.873 611.923 L152.571 611.923 L152.571 614.84 L148.873 614.84 L148.873 620.951 L145.383 620.951 L145.383 614.84 L133.682 614.84 L133.682 611.455 L144.463 595.031 Z" fill="#4c4c4c" fill-rule="evenodd" fill-opacity="1" /><path clip-path="url(#clip530)" d="M84.1508 218.486 L106.408 218.486 L106.408 221.437 L84.1508 221.437 L84.1508 218.486 Z" fill="#4c4c4c" fill-rule="evenodd" fill-opacity="1" /><path clip-path="url(#clip530)" d="M114.585 228.156 L120.314 228.156 L120.314 208.381 L114.081 209.631 L114.081 206.437 L120.279 205.187 L123.786 205.187 L123.786 228.156 L129.515 228.156 L129.515 231.107 L114.585 231.107 L114.585 228.156 Z" fill="#4c4c4c" fill-rule="evenodd" fill-opacity="1" /><path clip-path="url(#clip530)" d="M147.223 217.131 Q149.741 217.67 151.147 219.371 Q152.571 221.072 152.571 223.572 Q152.571 227.409 149.932 229.51 Q147.293 231.611 142.432 231.611 Q140.8 231.611 139.064 231.281 Q137.345 230.968 135.505 230.326 L135.505 226.94 Q136.963 227.791 138.699 228.225 Q140.435 228.659 142.328 228.659 Q145.626 228.659 147.345 227.357 Q149.081 226.055 149.081 223.572 Q149.081 221.281 147.466 219.996 Q145.869 218.694 143.005 218.694 L139.984 218.694 L139.984 215.812 L143.144 215.812 Q145.73 215.812 147.102 214.788 Q148.473 213.746 148.473 211.802 Q148.473 209.805 147.05 208.746 Q145.644 207.67 143.005 207.67 Q141.564 207.67 139.914 207.982 Q138.265 208.295 136.286 208.954 L136.286 205.829 Q138.283 205.274 140.019 204.996 Q141.772 204.718 143.317 204.718 Q147.31 204.718 149.637 206.541 Q151.963 208.347 151.963 211.437 Q151.963 213.59 150.73 215.083 Q149.498 216.559 147.223 217.131 Z" fill="#4c4c4c" fill-rule="evenodd" fill-opacity="1" /><path clip-path="url(#clip530)" d="M20.3722 985.184 L20.3722 955.948 L24.3073 955.948 L24.3073 968.216 L54.9322 968.216 L54.9322 972.915 L24.3073 972.915 L24.3073 985.184 L20.3722 985.184 Z" fill="#000000" fill-rule="evenodd" fill-opacity="1" /><path clip-path="url(#clip530)" d="M40.9045 937.499 L42.9878 937.499 L42.9878 957.082 Q47.3859 956.804 49.7007 954.443 Q51.9924 952.059 51.9924 947.823 Q51.9924 945.369 51.3905 943.078 Q50.7887 940.763 49.585 938.494 L53.6127 938.494 Q54.5849 940.786 55.0942 943.193 Q55.6035 945.601 55.6035 948.078 Q55.6035 954.281 51.9924 957.916 Q48.3813 961.527 42.2239 961.527 Q35.8582 961.527 32.1314 958.101 Q28.3814 954.652 28.3814 948.818 Q28.3814 943.587 31.761 940.555 Q35.1174 937.499 40.9045 937.499 M39.6545 941.758 Q36.1591 941.805 34.0758 943.726 Q31.9925 945.624 31.9925 948.772 Q31.9925 952.337 34.0063 954.49 Q36.0202 956.619 39.6776 956.943 L39.6545 941.758 Z" fill="#000000" fill-rule="evenodd" fill-opacity="1" /><path clip-path="url(#clip530)" d="M29.7703 913.981 L33.798 913.981 Q32.8721 915.786 32.4091 917.731 Q31.9462 919.675 31.9462 921.758 Q31.9462 924.93 32.9184 926.527 Q33.8906 928.101 35.835 928.101 Q37.3165 928.101 38.173 926.967 Q39.0063 925.832 39.7702 922.406 L40.0943 920.948 Q41.0665 916.411 42.8489 914.513 Q44.6081 912.592 47.7794 912.592 Q51.3905 912.592 53.497 915.462 Q55.6035 918.309 55.6035 923.309 Q55.6035 925.393 55.1868 927.661 Q54.7933 929.906 53.9831 932.406 L49.585 932.406 Q50.8118 930.045 51.4368 927.754 Q52.0387 925.462 52.0387 923.217 Q52.0387 920.207 51.0201 918.587 Q49.9785 916.967 48.1035 916.967 Q46.3674 916.967 45.4415 918.147 Q44.5155 919.305 43.6591 923.263 L43.3118 924.744 Q42.4785 928.703 40.7656 930.462 Q39.0295 932.221 36.0202 932.221 Q32.3628 932.221 30.3721 929.629 Q28.3814 927.036 28.3814 922.268 Q28.3814 919.907 28.7286 917.823 Q29.0758 915.74 29.7703 913.981 Z" fill="#000000" fill-rule="evenodd" fill-opacity="1" /><path clip-path="url(#clip530)" d="M21.6453 901.596 L29.0064 901.596 L29.0064 892.823 L32.3165 892.823 L32.3165 901.596 L46.3905 901.596 Q49.5618 901.596 50.4646 900.74 Q51.3674 899.86 51.3674 897.198 L51.3674 892.823 L54.9322 892.823 L54.9322 897.198 Q54.9322 902.129 53.1035 904.004 Q51.2516 905.879 46.3905 905.879 L32.3165 905.879 L32.3165 909.004 L29.0064 909.004 L29.0064 905.879 L21.6453 905.879 L21.6453 901.596 Z" fill="#000000" fill-rule="evenodd" fill-opacity="1" /><path clip-path="url(#clip530)" d="M18.9138 872.152 L18.9138 867.893 L54.9322 867.893 L54.9322 872.152 L18.9138 872.152 Z" fill="#000000" fill-rule="evenodd" fill-opacity="1" /><path clip-path="url(#clip530)" d="M31.9925 848.935 Q31.9925 852.361 34.6776 854.351 Q37.3397 856.342 41.9924 856.342 Q46.6452 856.342 49.3303 854.374 Q51.9924 852.384 51.9924 848.935 Q51.9924 845.532 49.3072 843.541 Q46.622 841.55 41.9924 841.55 Q37.386 841.55 34.7008 843.541 Q31.9925 845.532 31.9925 848.935 M28.3814 848.935 Q28.3814 843.379 31.9925 840.208 Q35.6036 837.037 41.9924 837.037 Q48.3581 837.037 51.9924 840.208 Q55.6035 843.379 55.6035 848.935 Q55.6035 854.513 51.9924 857.685 Q48.3581 860.833 41.9924 860.833 Q35.6036 860.833 31.9925 857.685 Q28.3814 854.513 28.3814 848.935 Z" fill="#000000" fill-rule="evenodd" fill-opacity="1" /><path clip-path="url(#clip530)" d="M41.6683 812.916 Q37.0387 812.916 34.4925 814.838 Q31.9462 816.736 31.9462 820.185 Q31.9462 823.611 34.4925 825.532 Q37.0387 827.43 41.6683 827.43 Q46.2748 827.43 48.8211 825.532 Q51.3674 823.611 51.3674 820.185 Q51.3674 816.736 48.8211 814.838 Q46.2748 812.916 41.6683 812.916 M51.7146 808.657 Q58.3349 808.657 61.5525 811.597 Q64.7932 814.537 64.7932 820.601 Q64.7932 822.847 64.446 824.838 Q64.1219 826.828 63.4275 828.703 L59.284 828.703 Q60.3025 826.828 60.7886 825 Q61.2747 823.171 61.2747 821.273 Q61.2747 817.083 59.0757 815 Q56.8997 812.916 52.4785 812.916 L50.372 812.916 Q52.6637 814.236 53.7979 816.296 Q54.9322 818.356 54.9322 821.226 Q54.9322 825.995 51.2979 828.912 Q47.6637 831.828 41.6683 831.828 Q35.6499 831.828 32.0156 828.912 Q28.3814 825.995 28.3814 821.226 Q28.3814 818.356 29.5156 816.296 Q30.6499 814.236 32.9415 812.916 L29.0064 812.916 L29.0064 808.657 L51.7146 808.657 Z" fill="#000000" fill-rule="evenodd" fill-opacity="1" /><path clip-path="url(#clip530)" d="M40.048 802.037 L40.048 789.56 L43.8443 789.56 L43.8443 802.037 L40.048 802.037 Z" fill="#000000" fill-rule="evenodd" fill-opacity="1" /><path clip-path="url(#clip530)" d="M18.9138 782.778 L18.9138 778.518 L54.9322 778.518 L54.9322 782.778 L18.9138 782.778 Z" fill="#000000" fill-rule="evenodd" fill-opacity="1" /><path clip-path="url(#clip530)" d="M29.0064 769.606 L29.0064 765.347 L54.9322 765.347 L54.9322 769.606 L29.0064 769.606 M18.9138 769.606 L18.9138 765.347 L24.3073 765.347 L24.3073 769.606 L18.9138 769.606 Z" fill="#000000" fill-rule="evenodd" fill-opacity="1" /><path clip-path="url(#clip530)" d="M18.9138 756.597 L18.9138 752.315 L40.1869 752.315 L29.0064 739.607 L29.0064 734.167 L41.1359 747.917 L54.9322 733.588 L54.9322 739.144 L42.2702 752.315 L54.9322 752.315 L54.9322 756.597 L18.9138 756.597 Z" fill="#000000" fill-rule="evenodd" fill-opacity="1" /><path clip-path="url(#clip530)" d="M40.9045 708.496 L42.9878 708.496 L42.9878 728.079 Q47.3859 727.801 49.7007 725.44 Q51.9924 723.056 51.9924 718.82 Q51.9924 716.366 51.3905 714.074 Q50.7887 711.759 49.585 709.491 L53.6127 709.491 Q54.5849 711.783 55.0942 714.19 Q55.6035 716.597 55.6035 719.074 Q55.6035 725.278 51.9924 728.912 Q48.3813 732.523 42.2239 732.523 Q35.8582 732.523 32.1314 729.097 Q28.3814 725.648 28.3814 719.815 Q28.3814 714.584 31.761 711.551 Q35.1174 708.496 40.9045 708.496 M39.6545 712.755 Q36.1591 712.801 34.0758 714.722 Q31.9925 716.621 31.9925 719.769 Q31.9925 723.333 34.0063 725.486 Q36.0202 727.616 39.6776 727.94 L39.6545 712.755 Z" fill="#000000" fill-rule="evenodd" fill-opacity="1" /><path clip-path="url(#clip530)" d="M18.9138 701.505 L18.9138 697.246 L54.9322 697.246 L54.9322 701.505 L18.9138 701.505 Z" fill="#000000" fill-rule="evenodd" fill-opacity="1" /><path clip-path="url(#clip530)" d="M29.0064 688.334 L29.0064 684.074 L54.9322 684.074 L54.9322 688.334 L29.0064 688.334 M18.9138 688.334 L18.9138 684.074 L24.3073 684.074 L24.3073 688.334 L18.9138 688.334 Z" fill="#000000" fill-rule="evenodd" fill-opacity="1" /><path clip-path="url(#clip530)" d="M39.2841 653.612 L54.9322 653.612 L54.9322 657.871 L39.423 657.871 Q35.7424 657.871 33.9138 659.306 Q32.0851 660.741 32.0851 663.612 Q32.0851 667.061 34.2841 669.051 Q36.4832 671.042 40.2795 671.042 L54.9322 671.042 L54.9322 675.324 L18.9138 675.324 L18.9138 671.042 L33.0341 671.042 Q30.6962 669.514 29.5388 667.454 Q28.3814 665.371 28.3814 662.663 Q28.3814 658.195 31.1591 655.903 Q33.9138 653.612 39.2841 653.612 Z" fill="#000000" fill-rule="evenodd" fill-opacity="1" /><path clip-path="url(#clip530)" d="M31.9925 635.07 Q31.9925 638.496 34.6776 640.487 Q37.3397 642.477 41.9924 642.477 Q46.6452 642.477 49.3303 640.51 Q51.9924 638.519 51.9924 635.07 Q51.9924 631.667 49.3072 629.677 Q46.622 627.686 41.9924 627.686 Q37.386 627.686 34.7008 629.677 Q31.9925 631.667 31.9925 635.07 M28.3814 635.07 Q28.3814 629.515 31.9925 626.343 Q35.6036 623.172 41.9924 623.172 Q48.3581 623.172 51.9924 626.343 Q55.6035 629.515 55.6035 635.07 Q55.6035 640.649 51.9924 643.82 Q48.3581 646.968 41.9924 646.968 Q35.6036 646.968 31.9925 643.82 Q28.3814 640.649 28.3814 635.07 Z" fill="#000000" fill-rule="evenodd" fill-opacity="1" /><path clip-path="url(#clip530)" d="M31.9925 606.066 Q31.9925 609.492 34.6776 611.482 Q37.3397 613.473 41.9924 613.473 Q46.6452 613.473 49.3303 611.505 Q51.9924 609.515 51.9924 606.066 Q51.9924 602.663 49.3072 600.672 Q46.622 598.681 41.9924 598.681 Q37.386 598.681 34.7008 600.672 Q31.9925 602.663 31.9925 606.066 M28.3814 606.066 Q28.3814 600.51 31.9925 597.339 Q35.6036 594.168 41.9924 594.168 Q48.3581 594.168 51.9924 597.339 Q55.6035 600.51 55.6035 606.066 Q55.6035 611.644 51.9924 614.816 Q48.3581 617.964 41.9924 617.964 Q35.6036 617.964 31.9925 614.816 Q28.3814 611.644 28.3814 606.066 Z" fill="#000000" fill-rule="evenodd" fill-opacity="1" /><path clip-path="url(#clip530)" d="M32.9415 570.047 L18.9138 570.047 L18.9138 565.788 L54.9322 565.788 L54.9322 570.047 L51.0433 570.047 Q53.3581 571.39 54.4923 573.45 Q55.6035 575.487 55.6035 578.357 Q55.6035 583.056 51.8535 586.019 Q48.1035 588.959 41.9924 588.959 Q35.8813 588.959 32.1314 586.019 Q28.3814 583.056 28.3814 578.357 Q28.3814 575.487 29.5156 573.45 Q30.6267 571.39 32.9415 570.047 M41.9924 584.561 Q46.6915 584.561 49.3766 582.64 Q52.0387 580.695 52.0387 577.316 Q52.0387 573.936 49.3766 571.992 Q46.6915 570.047 41.9924 570.047 Q37.2934 570.047 34.6313 571.992 Q31.9462 573.936 31.9462 577.316 Q31.9462 580.695 34.6313 582.64 Q37.2934 584.561 41.9924 584.561 Z" fill="#000000" fill-rule="evenodd" fill-opacity="1" /><path clip-path="url(#clip530)" d="M1198.12 46.9789 L1198.12 64.1663 L1192.77 64.1663 L1192.77 19.4328 L1198.12 19.4328 L1198.12 24.3517 Q1199.8 21.4582 1202.35 20.0693 Q1204.92 18.6515 1208.48 18.6515 Q1214.39 18.6515 1218.06 23.339 Q1221.76 28.0265 1221.76 35.6653 Q1221.76 43.3042 1218.06 47.9916 Q1214.39 52.6791 1208.48 52.6791 Q1204.92 52.6791 1202.35 51.2902 Q1199.8 49.8724 1198.12 46.9789 M1216.24 35.6653 Q1216.24 29.7915 1213.81 26.464 Q1211.41 23.1075 1207.18 23.1075 Q1202.96 23.1075 1200.53 26.464 Q1198.12 29.7915 1198.12 35.6653 Q1198.12 41.5391 1200.53 44.8956 Q1202.96 48.2231 1207.18 48.2231 Q1211.41 48.2231 1213.81 44.8956 Q1216.24 41.5391 1216.24 35.6653 Z" fill="#000000" fill-rule="evenodd" fill-opacity="1" /><path clip-path="url(#clip530)" d="M1230.59 6.81709 L1235.91 6.81709 L1235.91 51.84 L1230.59 51.84 L1230.59 6.81709 Z" fill="#000000" fill-rule="evenodd" fill-opacity="1" /><path clip-path="url(#clip530)" d="M1261.78 35.5496 Q1255.33 35.5496 1252.84 37.0253 Q1250.35 38.501 1250.35 42.06 Q1250.35 44.8956 1252.2 46.5738 Q1254.08 48.2231 1257.3 48.2231 Q1261.72 48.2231 1264.39 45.0981 Q1267.08 41.9442 1267.08 36.7359 L1267.08 35.5496 L1261.78 35.5496 M1272.4 33.3505 L1272.4 51.84 L1267.08 51.84 L1267.08 46.921 Q1265.25 49.8724 1262.53 51.2902 Q1259.81 52.6791 1255.88 52.6791 Q1250.9 52.6791 1247.95 49.9014 Q1245.03 47.0947 1245.03 42.4072 Q1245.03 36.9385 1248.67 34.1607 Q1252.35 31.3829 1259.61 31.3829 L1267.08 31.3829 L1267.08 30.8621 Q1267.08 27.1874 1264.65 25.1908 Q1262.24 23.1654 1257.88 23.1654 Q1255.1 23.1654 1252.46 23.8309 Q1249.83 24.4964 1247.4 25.8274 L1247.4 20.9085 Q1250.32 19.78 1253.07 19.2302 Q1255.82 18.6515 1258.42 18.6515 Q1265.46 18.6515 1268.93 22.2973 Q1272.4 25.9431 1272.4 33.3505 Z" fill="#000000" fill-rule="evenodd" fill-opacity="1" /><path clip-path="url(#clip530)" d="M1310.31 32.2799 L1310.31 51.84 L1304.98 51.84 L1304.98 32.4535 Q1304.98 27.8529 1303.19 25.567 Q1301.39 23.2811 1297.81 23.2811 Q1293.49 23.2811 1291.01 26.03 Q1288.52 28.7788 1288.52 33.5241 L1288.52 51.84 L1283.16 51.84 L1283.16 19.4328 L1288.52 19.4328 L1288.52 24.4675 Q1290.43 21.545 1293 20.0983 Q1295.61 18.6515 1298.99 18.6515 Q1304.58 18.6515 1307.44 22.1237 Q1310.31 25.567 1310.31 32.2799 Z" fill="#000000" fill-rule="evenodd" fill-opacity="1" /><path clip-path="url(#clip530)" d="M1326.19 10.2314 L1326.19 19.4328 L1337.16 19.4328 L1337.16 23.5705 L1326.19 23.5705 L1326.19 41.163 Q1326.19 45.1271 1327.26 46.2555 Q1328.36 47.384 1331.69 47.384 L1337.16 47.384 L1337.16 51.84 L1331.69 51.84 Q1325.53 51.84 1323.18 49.5541 Q1320.84 47.2393 1320.84 41.163 L1320.84 23.5705 L1316.93 23.5705 L1316.93 19.4328 L1320.84 19.4328 L1320.84 10.2314 L1326.19 10.2314 Z" fill="#000000" fill-rule="evenodd" fill-opacity="1" /><path clip-path="url(#clip530)" d="M1364.82 20.3876 L1364.82 25.4223 Q1362.56 24.2649 1360.13 23.6862 Q1357.7 23.1075 1355.1 23.1075 Q1351.13 23.1075 1349.14 24.3228 Q1347.17 25.5381 1347.17 27.9686 Q1347.17 29.8204 1348.59 30.891 Q1350 31.9327 1354.29 32.8876 L1356.11 33.2926 Q1361.78 34.5079 1364.15 36.7359 Q1366.56 38.935 1366.56 42.8991 Q1366.56 47.4129 1362.97 50.046 Q1359.41 52.6791 1353.16 52.6791 Q1350.55 52.6791 1347.72 52.1583 Q1344.91 51.6664 1341.79 50.6537 L1341.79 45.156 Q1344.74 46.6896 1347.6 47.4708 Q1350.47 48.2231 1353.27 48.2231 Q1357.04 48.2231 1359.06 46.95 Q1361.09 45.6479 1361.09 43.3042 Q1361.09 41.134 1359.61 39.9766 Q1358.16 38.8192 1353.22 37.7486 L1351.36 37.3146 Q1346.42 36.273 1344.22 34.1318 Q1342.02 31.9616 1342.02 28.2001 Q1342.02 23.6283 1345.26 21.1399 Q1348.5 18.6515 1354.46 18.6515 Q1357.41 18.6515 1360.02 19.0855 Q1362.62 19.5196 1364.82 20.3876 Z" fill="#000000" fill-rule="evenodd" fill-opacity="1" /><polyline clip-path="url(#clip532)" style="stroke:#e26f46; stroke-linecap:butt; stroke-linejoin:round; stroke-width:8; stroke-opacity:1; fill:none" points="
  307.806,206.452 348.3,206.452 388.794,206.452 429.288,206.452 469.782,206.452 510.276,206.452 550.77,206.452 591.264,206.452 631.758,206.452 672.252,206.452 
  712.746,206.452 753.24,206.452 793.735,206.452 834.229,206.452 874.723,206.452 915.217,206.452 955.711,206.452 996.205,206.452 1036.7,206.452 1077.19,206.452 
  1117.69,206.452 1158.18,206.452 1198.68,206.452 1239.17,206.452 1279.66,206.452 1320.16,206.452 1360.65,206.452 1401.15,206.452 1441.64,206.452 1482.13,206.452 
  1522.63,206.452 1563.12,206.452 1603.62,206.452 1644.11,206.452 1684.6,206.452 1725.1,206.452 1765.59,206.452 1806.09,206.452 1846.58,206.452 1887.07,206.452 
  1927.57,206.452 1968.06,206.452 2008.56,206.452 2049.05,206.452 2089.54,206.452 2130.04,206.452 2170.53,206.452 2211.03,206.452 2251.52,206.452 2292.01,206.452 
  
  "/>
<polyline clip-path="url(#clip532)" style="stroke:#3da44d; stroke-linecap:butt; stroke-linejoin:round; stroke-width:8; stroke-opacity:1; fill:none" points="
  307.806,210.35 348.3,210.35 388.794,210.35 429.288,210.35 469.782,210.35 510.276,210.35 550.77,210.35 591.264,210.35 631.758,210.35 672.252,210.35 
  712.746,210.35 753.24,210.35 793.735,210.35 834.229,210.35 874.723,210.35 915.217,210.35 955.711,210.35 996.205,210.35 1036.7,210.35 1077.19,210.35 
  1117.69,210.35 1158.18,210.35 1198.68,210.35 1239.17,210.35 1279.66,210.35 1320.16,210.35 1360.65,210.35 1401.15,210.35 1441.64,210.35 1482.13,210.35 
  1522.63,210.35 1563.12,210.35 1603.62,210.35 1644.11,210.35 1684.6,210.35 1725.1,210.35 1765.59,210.35 1806.09,210.35 1846.58,210.35 1887.07,210.35 
  1927.57,210.35 1968.06,210.35 2008.56,210.35 2049.05,210.35 2089.54,210.35 2130.04,210.35 2170.53,210.35 2211.03,210.35 2251.52,210.35 2292.01,210.35 
  
  "/>
<polyline clip-path="url(#clip532)" style="stroke:#c271d2; stroke-linecap:butt; stroke-linejoin:round; stroke-width:8; stroke-opacity:1; fill:none" points="
  307.806,225.944 348.3,225.944 388.794,225.944 429.288,225.944 469.782,225.944 510.276,225.944 550.77,225.944 591.264,225.944 631.758,225.944 672.252,225.944 
  712.746,225.944 753.24,225.944 793.735,225.944 834.229,225.944 874.723,225.944 915.217,225.944 955.711,225.944 996.205,225.944 1036.7,225.944 1077.19,225.944 
  1117.69,225.944 1158.18,225.944 1198.68,225.944 1239.17,225.944 1279.66,225.944 1320.16,225.944 1360.65,225.944 1401.15,225.944 1441.64,225.944 1482.13,225.944 
  1522.63,225.944 1563.12,225.944 1603.62,225.944 1644.11,225.944 1684.6,225.944 1725.1,225.944 1765.59,225.944 1806.09,225.944 1846.58,225.944 1887.07,225.944 
  1927.57,225.944 1968.06,225.944 2008.56,225.944 2049.05,225.944 2089.54,225.944 2130.04,225.944 2170.53,225.944 2211.03,225.944 2251.52,225.944 2292.01,225.944 
  
  "/>
<polyline clip-path="url(#clip532)" style="stroke:#ac8d18; stroke-linecap:butt; stroke-linejoin:round; stroke-width:8; stroke-opacity:1; fill:none" points="
  307.806,682.062 348.3,682.062 388.794,682.062 429.288,682.062 469.782,682.062 510.276,682.062 550.77,682.062 591.264,682.062 631.758,682.062 672.252,682.062 
  712.746,682.062 753.24,682.062 793.735,682.062 834.229,682.062 874.723,682.062 915.217,682.062 955.711,682.062 996.205,682.062 1036.7,682.062 1077.19,682.062 
  1117.69,682.062 1158.18,682.062 1198.68,682.062 1239.17,682.062 1279.66,682.062 1320.16,682.062 1360.65,682.062 1401.15,682.062 1441.64,682.062 1482.13,682.062 
  1522.63,682.062 1563.12,682.062 1603.62,682.062 1644.11,682.062 1684.6,682.062 1725.1,682.062 1765.59,682.062 1806.09,682.062 1846.58,682.062 1887.07,682.062 
  1927.57,682.062 1968.06,682.062 2008.56,682.062 2049.05,682.062 2089.54,682.062 2130.04,682.062 2170.53,682.062 2211.03,682.062 2251.52,682.062 2292.01,682.062 
  
  "/>
<polyline clip-path="url(#clip532)" style="stroke:#00a9ad; stroke-linecap:butt; stroke-linejoin:round; stroke-width:8; stroke-opacity:1; fill:none" points="
  307.806,144.077 348.3,144.077 388.794,144.077 429.288,144.077 469.782,144.077 510.276,144.077 550.77,144.077 591.264,144.077 631.758,144.077 672.252,144.077 
  712.746,144.077 753.24,144.077 793.735,144.077 834.229,144.077 874.723,144.077 915.217,144.077 955.711,144.077 996.205,144.077 1036.7,144.077 1077.19,144.077 
  1117.69,144.077 1158.18,144.077 1198.68,144.077 1239.17,144.077 1279.66,144.077 1320.16,144.077 1360.65,144.077 1401.15,144.077 1441.64,144.077 1482.13,144.077 
  1522.63,144.077 1563.12,144.077 1603.62,144.077 1644.11,144.077 1684.6,144.077 1725.1,144.077 1765.59,144.077 1806.09,144.077 1846.58,144.077 1887.07,144.077 
  1927.57,144.077 1968.06,144.077 2008.56,144.077 2049.05,144.077 2089.54,144.077 2130.04,144.077 2170.53,144.077 2211.03,144.077 2251.52,144.077 2292.01,144.077 
  
  "/>
<polyline clip-path="url(#clip532)" style="stroke:#009af9; stroke-linecap:butt; stroke-linejoin:round; stroke-width:12; stroke-opacity:1; fill:none" points="
  307.806,1406.9 348.3,1071.74 388.794,954.02 429.288,959.356 469.782,881.729 510.276,826.436 550.77,832.241 591.264,800.546 631.758,782.952 672.252,764.646 
  712.746,756.075 753.24,739.103 793.735,725.409 834.229,721.148 874.723,711.133 915.217,703.808 955.711,697.425 996.205,692.102 1036.7,683.374 1077.19,696.191 
  1117.69,692.83 1158.18,687.849 1198.68,676.009 1239.17,672.758 1279.66,663.229 1320.16,662.889 1360.65,665.804 1401.15,652.958 1441.64,652.444 1482.13,679.038 
  1522.63,658.185 1563.12,660.211 1603.62,649.51 1644.11,642.917 1684.6,635.107 1725.1,631.113 1765.59,630.634 1806.09,636.982 1846.58,633.813 1887.07,632.362 
  1927.57,633.953 1968.06,628.862 2008.56,624.446 2049.05,626.342 2089.54,628.457 2130.04,630.519 2170.53,631.965 2211.03,628.406 2251.52,626.401 2292.01,623.525 
  
  "/>
</svg>
