<?xml version="1.0" encoding="utf-8"?>
<svg xmlns="http://www.w3.org/2000/svg" xmlns:xlink="http://www.w3.org/1999/xlink" width="600" height="400" viewBox="0 0 2400 1600">
<defs>
  <clipPath id="clip910">
    <rect x="0" y="0" width="2400" height="1600"/>
  </clipPath>
</defs>
<path clip-path="url(#clip910)" d="
M0 1600 L2400 1600 L2400 0 L0 0  Z
  " fill="#ffffff" fill-rule="evenodd" fill-opacity="1"/>
<defs>
  <clipPath id="clip911">
    <rect x="480" y="0" width="1681" height="1600"/>
  </clipPath>
</defs>
<path clip-path="url(#clip910)" d="
M316.807 1422.18 L2352.76 1422.18 L2352.76 106.192 L316.807 106.192  Z
  " fill="#eaeaea" fill-rule="evenodd" fill-opacity="1"/>
<defs>
  <clipPath id="clip912">
    <rect x="316" y="106" width="2037" height="1317"/>
  </clipPath>
</defs>
<polyline clip-path="url(#clip912)" style="stroke:#ffffff; stroke-linecap:butt; stroke-linejoin:round; stroke-width:4; stroke-opacity:1; fill:none" points="
  374.428,1422.18 374.428,106.192 
  "/>
<polyline clip-path="url(#clip912)" style="stroke:#ffffff; stroke-linecap:butt; stroke-linejoin:round; stroke-width:4; stroke-opacity:1; fill:none" points="
  522.175,1422.18 522.175,106.192 
  "/>
<polyline clip-path="url(#clip912)" style="stroke:#ffffff; stroke-linecap:butt; stroke-linejoin:round; stroke-width:4; stroke-opacity:1; fill:none" points="
  669.921,1422.18 669.921,106.192 
  "/>
<polyline clip-path="url(#clip912)" style="stroke:#ffffff; stroke-linecap:butt; stroke-linejoin:round; stroke-width:4; stroke-opacity:1; fill:none" points="
  817.668,1422.18 817.668,106.192 
  "/>
<polyline clip-path="url(#clip912)" style="stroke:#ffffff; stroke-linecap:butt; stroke-linejoin:round; stroke-width:4; stroke-opacity:1; fill:none" points="
  965.415,1422.18 965.415,106.192 
  "/>
<polyline clip-path="url(#clip912)" style="stroke:#ffffff; stroke-linecap:butt; stroke-linejoin:round; stroke-width:4; stroke-opacity:1; fill:none" points="
  1113.16,1422.18 1113.16,106.192 
  "/>
<polyline clip-path="url(#clip912)" style="stroke:#ffffff; stroke-linecap:butt; stroke-linejoin:round; stroke-width:4; stroke-opacity:1; fill:none" points="
  1260.91,1422.18 1260.91,106.192 
  "/>
<polyline clip-path="url(#clip912)" style="stroke:#ffffff; stroke-linecap:butt; stroke-linejoin:round; stroke-width:4; stroke-opacity:1; fill:none" points="
  1408.65,1422.18 1408.65,106.192 
  "/>
<polyline clip-path="url(#clip912)" style="stroke:#ffffff; stroke-linecap:butt; stroke-linejoin:round; stroke-width:4; stroke-opacity:1; fill:none" points="
  1556.4,1422.18 1556.4,106.192 
  "/>
<polyline clip-path="url(#clip912)" style="stroke:#ffffff; stroke-linecap:butt; stroke-linejoin:round; stroke-width:4; stroke-opacity:1; fill:none" points="
  1704.15,1422.18 1704.15,106.192 
  "/>
<polyline clip-path="url(#clip912)" style="stroke:#ffffff; stroke-linecap:butt; stroke-linejoin:round; stroke-width:4; stroke-opacity:1; fill:none" points="
  1851.89,1422.18 1851.89,106.192 
  "/>
<polyline clip-path="url(#clip912)" style="stroke:#ffffff; stroke-linecap:butt; stroke-linejoin:round; stroke-width:4; stroke-opacity:1; fill:none" points="
  1999.64,1422.18 1999.64,106.192 
  "/>
<polyline clip-path="url(#clip912)" style="stroke:#ffffff; stroke-linecap:butt; stroke-linejoin:round; stroke-width:4; stroke-opacity:1; fill:none" points="
  2147.39,1422.18 2147.39,106.192 
  "/>
<polyline clip-path="url(#clip912)" style="stroke:#ffffff; stroke-linecap:butt; stroke-linejoin:round; stroke-width:4; stroke-opacity:1; fill:none" points="
  2295.13,1422.18 2295.13,106.192 
  "/>
<polyline clip-path="url(#clip912)" style="stroke:#ffffff; stroke-linecap:butt; stroke-linejoin:round; stroke-width:2; stroke-opacity:1; fill:none" points="
  448.301,1422.18 448.301,106.192 
  "/>
<polyline clip-path="url(#clip912)" style="stroke:#ffffff; stroke-linecap:butt; stroke-linejoin:round; stroke-width:2; stroke-opacity:1; fill:none" points="
  596.048,1422.18 596.048,106.192 
  "/>
<polyline clip-path="url(#clip912)" style="stroke:#ffffff; stroke-linecap:butt; stroke-linejoin:round; stroke-width:2; stroke-opacity:1; fill:none" points="
  743.795,1422.18 743.795,106.192 
  "/>
<polyline clip-path="url(#clip912)" style="stroke:#ffffff; stroke-linecap:butt; stroke-linejoin:round; stroke-width:2; stroke-opacity:1; fill:none" points="
  891.541,1422.18 891.541,106.192 
  "/>
<polyline clip-path="url(#clip912)" style="stroke:#ffffff; stroke-linecap:butt; stroke-linejoin:round; stroke-width:2; stroke-opacity:1; fill:none" points="
  1039.29,1422.18 1039.29,106.192 
  "/>
<polyline clip-path="url(#clip912)" style="stroke:#ffffff; stroke-linecap:butt; stroke-linejoin:round; stroke-width:2; stroke-opacity:1; fill:none" points="
  1187.03,1422.18 1187.03,106.192 
  "/>
<polyline clip-path="url(#clip912)" style="stroke:#ffffff; stroke-linecap:butt; stroke-linejoin:round; stroke-width:2; stroke-opacity:1; fill:none" points="
  1334.78,1422.18 1334.78,106.192 
  "/>
<polyline clip-path="url(#clip912)" style="stroke:#ffffff; stroke-linecap:butt; stroke-linejoin:round; stroke-width:2; stroke-opacity:1; fill:none" points="
  1482.53,1422.18 1482.53,106.192 
  "/>
<polyline clip-path="url(#clip912)" style="stroke:#ffffff; stroke-linecap:butt; stroke-linejoin:round; stroke-width:2; stroke-opacity:1; fill:none" points="
  1630.27,1422.18 1630.27,106.192 
  "/>
<polyline clip-path="url(#clip912)" style="stroke:#ffffff; stroke-linecap:butt; stroke-linejoin:round; stroke-width:2; stroke-opacity:1; fill:none" points="
  1778.02,1422.18 1778.02,106.192 
  "/>
<polyline clip-path="url(#clip912)" style="stroke:#ffffff; stroke-linecap:butt; stroke-linejoin:round; stroke-width:2; stroke-opacity:1; fill:none" points="
  1925.77,1422.18 1925.77,106.192 
  "/>
<polyline clip-path="url(#clip912)" style="stroke:#ffffff; stroke-linecap:butt; stroke-linejoin:round; stroke-width:2; stroke-opacity:1; fill:none" points="
  2073.51,1422.18 2073.51,106.192 
  "/>
<polyline clip-path="url(#clip912)" style="stroke:#ffffff; stroke-linecap:butt; stroke-linejoin:round; stroke-width:2; stroke-opacity:1; fill:none" points="
  2221.26,1422.18 2221.26,106.192 
  "/>
<polyline clip-path="url(#clip910)" style="stroke:#ffffff; stroke-linecap:butt; stroke-linejoin:round; stroke-width:4; stroke-opacity:1; fill:none" points="
  316.807,1422.18 2352.76,1422.18 
  "/>
<polyline clip-path="url(#clip910)" style="stroke:#333333; stroke-linecap:butt; stroke-linejoin:round; stroke-width:4; stroke-opacity:1; fill:none" points="
  374.428,1422.18 374.428,1441.07 
  "/>
<polyline clip-path="url(#clip910)" style="stroke:#333333; stroke-linecap:butt; stroke-linejoin:round; stroke-width:4; stroke-opacity:1; fill:none" points="
  522.175,1422.18 522.175,1441.07 
  "/>
<polyline clip-path="url(#clip910)" style="stroke:#333333; stroke-linecap:butt; stroke-linejoin:round; stroke-width:4; stroke-opacity:1; fill:none" points="
  669.921,1422.18 669.921,1441.07 
  "/>
<polyline clip-path="url(#clip910)" style="stroke:#333333; stroke-linecap:butt; stroke-linejoin:round; stroke-width:4; stroke-opacity:1; fill:none" points="
  817.668,1422.18 817.668,1441.07 
  "/>
<polyline clip-path="url(#clip910)" style="stroke:#333333; stroke-linecap:butt; stroke-linejoin:round; stroke-width:4; stroke-opacity:1; fill:none" points="
  965.415,1422.18 965.415,1441.07 
  "/>
<polyline clip-path="url(#clip910)" style="stroke:#333333; stroke-linecap:butt; stroke-linejoin:round; stroke-width:4; stroke-opacity:1; fill:none" points="
  1113.16,1422.18 1113.16,1441.07 
  "/>
<polyline clip-path="url(#clip910)" style="stroke:#333333; stroke-linecap:butt; stroke-linejoin:round; stroke-width:4; stroke-opacity:1; fill:none" points="
  1260.91,1422.18 1260.91,1441.07 
  "/>
<polyline clip-path="url(#clip910)" style="stroke:#333333; stroke-linecap:butt; stroke-linejoin:round; stroke-width:4; stroke-opacity:1; fill:none" points="
  1408.65,1422.18 1408.65,1441.07 
  "/>
<polyline clip-path="url(#clip910)" style="stroke:#333333; stroke-linecap:butt; stroke-linejoin:round; stroke-width:4; stroke-opacity:1; fill:none" points="
  1556.4,1422.18 1556.4,1441.07 
  "/>
<polyline clip-path="url(#clip910)" style="stroke:#333333; stroke-linecap:butt; stroke-linejoin:round; stroke-width:4; stroke-opacity:1; fill:none" points="
  1704.15,1422.18 1704.15,1441.07 
  "/>
<polyline clip-path="url(#clip910)" style="stroke:#333333; stroke-linecap:butt; stroke-linejoin:round; stroke-width:4; stroke-opacity:1; fill:none" points="
  1851.89,1422.18 1851.89,1441.07 
  "/>
<polyline clip-path="url(#clip910)" style="stroke:#333333; stroke-linecap:butt; stroke-linejoin:round; stroke-width:4; stroke-opacity:1; fill:none" points="
  1999.64,1422.18 1999.64,1441.07 
  "/>
<polyline clip-path="url(#clip910)" style="stroke:#333333; stroke-linecap:butt; stroke-linejoin:round; stroke-width:4; stroke-opacity:1; fill:none" points="
  2147.39,1422.18 2147.39,1441.07 
  "/>
<polyline clip-path="url(#clip910)" style="stroke:#333333; stroke-linecap:butt; stroke-linejoin:round; stroke-width:4; stroke-opacity:1; fill:none" points="
  2295.13,1422.18 2295.13,1441.07 
  "/>
<polyline clip-path="url(#clip910)" style="stroke:#333333; stroke-linecap:butt; stroke-linejoin:round; stroke-width:4; stroke-opacity:1; fill:none" points="
  448.301,1422.18 448.301,1431.63 
  "/>
<polyline clip-path="url(#clip910)" style="stroke:#333333; stroke-linecap:butt; stroke-linejoin:round; stroke-width:4; stroke-opacity:1; fill:none" points="
  596.048,1422.18 596.048,1431.63 
  "/>
<polyline clip-path="url(#clip910)" style="stroke:#333333; stroke-linecap:butt; stroke-linejoin:round; stroke-width:4; stroke-opacity:1; fill:none" points="
  743.795,1422.18 743.795,1431.63 
  "/>
<polyline clip-path="url(#clip910)" style="stroke:#333333; stroke-linecap:butt; stroke-linejoin:round; stroke-width:4; stroke-opacity:1; fill:none" points="
  891.541,1422.18 891.541,1431.63 
  "/>
<polyline clip-path="url(#clip910)" style="stroke:#333333; stroke-linecap:butt; stroke-linejoin:round; stroke-width:4; stroke-opacity:1; fill:none" points="
  1039.29,1422.18 1039.29,1431.63 
  "/>
<polyline clip-path="url(#clip910)" style="stroke:#333333; stroke-linecap:butt; stroke-linejoin:round; stroke-width:4; stroke-opacity:1; fill:none" points="
  1187.03,1422.18 1187.03,1431.63 
  "/>
<polyline clip-path="url(#clip910)" style="stroke:#333333; stroke-linecap:butt; stroke-linejoin:round; stroke-width:4; stroke-opacity:1; fill:none" points="
  1334.78,1422.18 1334.78,1431.63 
  "/>
<polyline clip-path="url(#clip910)" style="stroke:#333333; stroke-linecap:butt; stroke-linejoin:round; stroke-width:4; stroke-opacity:1; fill:none" points="
  1482.53,1422.18 1482.53,1431.63 
  "/>
<polyline clip-path="url(#clip910)" style="stroke:#333333; stroke-linecap:butt; stroke-linejoin:round; stroke-width:4; stroke-opacity:1; fill:none" points="
  1630.27,1422.18 1630.27,1431.63 
  "/>
<polyline clip-path="url(#clip910)" style="stroke:#333333; stroke-linecap:butt; stroke-linejoin:round; stroke-width:4; stroke-opacity:1; fill:none" points="
  1778.02,1422.18 1778.02,1431.63 
  "/>
<polyline clip-path="url(#clip910)" style="stroke:#333333; stroke-linecap:butt; stroke-linejoin:round; stroke-width:4; stroke-opacity:1; fill:none" points="
  1925.77,1422.18 1925.77,1431.63 
  "/>
<polyline clip-path="url(#clip910)" style="stroke:#333333; stroke-linecap:butt; stroke-linejoin:round; stroke-width:4; stroke-opacity:1; fill:none" points="
  2073.51,1422.18 2073.51,1431.63 
  "/>
<polyline clip-path="url(#clip910)" style="stroke:#333333; stroke-linecap:butt; stroke-linejoin:round; stroke-width:4; stroke-opacity:1; fill:none" points="
  2221.26,1422.18 2221.26,1431.63 
  "/>
<path clip-path="url(#clip910)" d="M388.131 1463.13 Q386.777 1460.78 383.776 1460.93 Q380.798 1461.09 376.168 1463.76 Q371.552 1466.43 369.914 1468.94 Q368.299 1471.45 369.653 1473.8 Q371.016 1476.16 373.993 1476 Q376.995 1475.85 381.61 1473.19 Q386.241 1470.52 387.856 1468 Q389.494 1465.49 388.131 1463.13 M390.537 1461.74 Q392.716 1465.51 390.869 1469.23 Q389.047 1472.94 383.364 1476.23 Q377.696 1479.5 373.549 1479.23 Q369.426 1478.96 367.247 1475.19 Q365.069 1471.41 366.891 1467.69 Q368.737 1463.98 374.405 1460.71 Q380.089 1457.43 384.212 1457.69 Q388.358 1457.97 390.537 1461.74 Z" fill="#4c4c4c" fill-rule="evenodd" fill-opacity="1" /><path clip-path="url(#clip910)" d="M513.759 1466.14 L516.623 1471.1 L533.748 1461.21 L529.549 1456.44 L532.316 1454.84 L536.497 1459.58 L538.251 1462.62 L518.359 1474.11 L521.224 1479.07 L518.668 1480.54 L511.203 1467.61 L513.759 1466.14 Z" fill="#4c4c4c" fill-rule="evenodd" fill-opacity="1" /><path clip-path="url(#clip910)" d="M546.407 1481.37 Q545.053 1479.02 542.052 1479.17 Q539.075 1479.33 534.444 1482 Q529.828 1484.66 528.19 1487.17 Q526.575 1489.69 527.929 1492.04 Q529.292 1494.4 532.27 1494.24 Q535.271 1494.09 539.886 1491.43 Q544.517 1488.75 546.132 1486.24 Q547.77 1483.73 546.407 1481.37 M548.813 1479.98 Q550.992 1483.75 549.146 1487.46 Q547.323 1491.18 541.64 1494.46 Q535.972 1497.74 531.825 1497.46 Q527.702 1497.2 525.524 1493.42 Q523.345 1489.65 525.167 1485.93 Q527.013 1482.22 532.682 1478.95 Q538.365 1475.67 542.488 1475.93 Q546.634 1476.2 548.813 1479.98 Z" fill="#4c4c4c" fill-rule="evenodd" fill-opacity="1" /><path clip-path="url(#clip910)" d="M663.363 1469.35 L669.483 1479.95 L666.927 1481.43 L658.698 1467.18 L661.254 1465.7 Q664.041 1466.4 668.767 1467.64 Q673.516 1468.89 674.831 1469.15 Q677.312 1469.66 678.769 1469.58 Q680.251 1469.51 681.348 1468.87 Q683.137 1467.84 683.536 1465.93 Q683.943 1464.03 682.78 1462.01 Q681.955 1460.59 680.539 1459.28 Q679.131 1457.99 677.082 1456.76 L680.149 1454.99 Q681.945 1456.4 683.241 1457.78 Q684.537 1459.15 685.301 1460.48 Q687.315 1463.97 686.769 1467.05 Q686.223 1470.13 683.306 1471.81 Q681.923 1472.61 680.371 1472.81 Q678.843 1473.01 676.369 1472.61 Q675.716 1472.49 672.463 1471.68 Q669.225 1470.86 663.363 1469.35 Z" fill="#4c4c4c" fill-rule="evenodd" fill-opacity="1" /><path clip-path="url(#clip910)" d="M694.805 1482.49 Q693.451 1480.15 690.45 1480.3 Q687.472 1480.45 682.841 1483.13 Q678.226 1485.79 676.587 1488.3 Q674.973 1490.82 676.327 1493.16 Q677.69 1495.52 680.667 1495.37 Q683.668 1495.22 688.284 1492.55 Q692.915 1489.88 694.53 1487.36 Q696.168 1484.86 694.805 1482.49 M697.211 1481.11 Q699.389 1484.88 697.543 1488.59 Q695.721 1492.31 690.038 1495.59 Q684.369 1498.86 680.223 1498.59 Q676.1 1498.33 673.921 1494.55 Q671.742 1490.78 673.565 1487.06 Q675.411 1483.35 681.079 1480.08 Q686.763 1476.79 690.885 1477.06 Q695.032 1477.33 697.211 1481.11 Z" fill="#4c4c4c" fill-rule="evenodd" fill-opacity="1" /><path clip-path="url(#clip910)" d="M824.407 1470.34 Q825.2 1472.79 824.429 1474.86 Q823.668 1476.94 821.503 1478.19 Q818.18 1480.11 815.041 1478.87 Q811.902 1477.64 809.472 1473.43 Q808.656 1472.01 808.074 1470.35 Q807.485 1468.7 807.121 1466.79 L810.053 1465.09 Q810.045 1466.78 810.537 1468.5 Q811.03 1470.22 811.976 1471.86 Q813.625 1474.72 815.612 1475.56 Q817.608 1476.41 819.758 1475.17 Q821.742 1474.02 822.048 1471.98 Q822.377 1469.95 820.944 1467.47 L819.434 1464.85 L821.93 1463.41 L823.51 1466.14 Q824.803 1468.38 826.376 1469.06 Q827.964 1469.73 829.648 1468.76 Q831.377 1467.76 831.582 1465.99 Q831.811 1464.24 830.492 1461.95 Q829.771 1460.71 828.676 1459.43 Q827.581 1458.16 826.02 1456.78 L828.726 1455.21 Q830.205 1456.67 831.314 1458.03 Q832.431 1459.41 833.204 1460.75 Q835.2 1464.21 834.785 1467.13 Q834.384 1470.05 831.708 1471.6 Q829.844 1472.67 827.935 1472.35 Q826.04 1472.02 824.407 1470.34 Z" fill="#4c4c4c" fill-rule="evenodd" fill-opacity="1" /><path clip-path="url(#clip910)" d="M842.5 1482.4 Q841.145 1480.06 838.144 1480.21 Q835.167 1480.36 830.536 1483.04 Q825.92 1485.7 824.282 1488.21 Q822.667 1490.73 824.022 1493.07 Q825.384 1495.43 828.362 1495.28 Q831.363 1495.13 835.979 1492.46 Q840.61 1489.79 842.224 1487.27 Q843.862 1484.76 842.5 1482.4 M844.905 1481.02 Q847.084 1484.79 845.238 1488.5 Q843.415 1492.22 837.732 1495.5 Q832.064 1498.77 827.917 1498.5 Q823.795 1498.24 821.616 1494.46 Q819.437 1490.69 821.26 1486.97 Q823.106 1483.26 828.774 1479.98 Q834.457 1476.7 838.58 1476.97 Q842.726 1477.24 844.905 1481.02 Z" fill="#4c4c4c" fill-rule="evenodd" fill-opacity="1" /><path clip-path="url(#clip910)" d="M979.843 1465.88 L963.433 1465.13 L967.86 1472.8 L979.843 1465.88 M982.029 1463.55 L984.234 1467.37 L969.605 1475.82 L971.454 1479.02 L968.928 1480.48 L967.079 1477.28 L961.786 1480.33 L960.042 1477.31 L965.334 1474.25 L959.483 1464.12 L962.415 1462.43 L982.029 1463.55 Z" fill="#4c4c4c" fill-rule="evenodd" fill-opacity="1" /><path clip-path="url(#clip910)" d="M990.732 1483.25 Q989.378 1480.9 986.377 1481.05 Q983.4 1481.21 978.769 1483.88 Q974.153 1486.54 972.515 1489.05 Q970.9 1491.57 972.254 1493.91 Q973.617 1496.28 976.595 1496.12 Q979.596 1495.97 984.211 1493.31 Q988.842 1490.63 990.457 1488.12 Q992.095 1485.61 990.732 1483.25 M993.138 1481.86 Q995.317 1485.63 993.471 1489.34 Q991.648 1493.06 985.965 1496.34 Q980.297 1499.62 976.15 1499.34 Q972.027 1499.08 969.849 1495.3 Q967.67 1491.53 969.492 1487.81 Q971.338 1484.1 977.007 1480.83 Q982.69 1477.55 986.813 1477.81 Q990.959 1478.08 993.138 1481.86 Z" fill="#4c4c4c" fill-rule="evenodd" fill-opacity="1" /><path clip-path="url(#clip910)" d="M1124.93 1455.16 L1131.82 1467.09 L1129.26 1468.56 L1123.98 1459.42 L1118.48 1462.6 Q1119.09 1463.13 1119.57 1463.73 Q1120.08 1464.32 1120.46 1464.98 Q1122.63 1468.74 1121.84 1472.13 Q1121.04 1475.51 1117.52 1477.54 Q1113.9 1479.63 1110.58 1478.54 Q1107.28 1477.44 1104.91 1473.34 Q1104.1 1471.92 1103.49 1470.31 Q1102.89 1468.71 1102.46 1466.87 L1105.52 1465.11 Q1105.56 1466.89 1106.03 1468.54 Q1106.51 1470.19 1107.43 1471.8 Q1108.94 1474.4 1111.18 1475.13 Q1113.43 1475.86 1115.77 1474.51 Q1118.12 1473.15 1118.61 1470.84 Q1119.1 1468.53 1117.6 1465.93 Q1116.89 1464.72 1115.92 1463.65 Q1114.96 1462.61 1113.66 1461.67 L1124.93 1455.16 Z" fill="#4c4c4c" fill-rule="evenodd" fill-opacity="1" /><path clip-path="url(#clip910)" d="M1137.98 1482.37 Q1136.62 1480.03 1133.62 1480.18 Q1130.64 1480.33 1126.01 1483.01 Q1121.4 1485.67 1119.76 1488.18 Q1118.14 1490.7 1119.5 1493.04 Q1120.86 1495.4 1123.84 1495.25 Q1126.84 1495.1 1131.45 1492.43 Q1136.09 1489.76 1137.7 1487.24 Q1139.34 1484.73 1137.98 1482.37 M1140.38 1480.99 Q1142.56 1484.76 1140.71 1488.47 Q1138.89 1492.19 1133.21 1495.47 Q1127.54 1498.74 1123.39 1498.47 Q1119.27 1498.21 1117.09 1494.43 Q1114.91 1490.66 1116.74 1486.94 Q1118.58 1483.23 1124.25 1479.95 Q1129.93 1476.67 1134.06 1476.94 Q1138.2 1477.21 1140.38 1480.99 Z" fill="#4c4c4c" fill-rule="evenodd" fill-opacity="1" /><path clip-path="url(#clip910)" d="M1266.75 1468.01 Q1265.56 1465.97 1263.47 1465.57 Q1261.39 1465.19 1258.95 1466.6 Q1256.53 1467.99 1255.8 1470 Q1255.1 1472.01 1256.28 1474.05 Q1257.46 1476.1 1259.55 1476.48 Q1261.65 1476.87 1264.07 1475.47 Q1266.51 1474.06 1267.21 1472.05 Q1267.93 1470.06 1266.75 1468.01 M1279.74 1468.55 L1276.98 1470.14 Q1276.86 1468.69 1276.47 1467.35 Q1276.08 1466.03 1275.42 1464.89 Q1273.69 1461.88 1270.74 1461.46 Q1267.8 1461.05 1263.56 1463.19 Q1265.38 1463.33 1266.85 1464.26 Q1268.33 1465.19 1269.25 1466.8 Q1271.21 1470.19 1270.28 1473.33 Q1269.37 1476.48 1265.84 1478.52 Q1262.38 1480.52 1259.11 1479.68 Q1255.84 1478.84 1253.88 1475.44 Q1251.63 1471.55 1253.41 1467.77 Q1255.22 1463.98 1260.89 1460.71 Q1266.21 1457.64 1270.82 1458.34 Q1275.45 1459.03 1277.91 1463.29 Q1278.57 1464.43 1279.01 1465.72 Q1279.47 1467.02 1279.74 1468.55 Z" fill="#4c4c4c" fill-rule="evenodd" fill-opacity="1" /><path clip-path="url(#clip910)" d="M1285.85 1482.6 Q1284.5 1480.25 1281.5 1480.4 Q1278.52 1480.56 1273.89 1483.23 Q1269.27 1485.9 1267.63 1488.41 Q1266.02 1490.92 1267.37 1493.27 Q1268.74 1495.63 1271.71 1495.47 Q1274.72 1495.32 1279.33 1492.66 Q1283.96 1489.99 1285.58 1487.47 Q1287.22 1484.96 1285.85 1482.6 M1288.26 1481.21 Q1290.44 1484.98 1288.59 1488.7 Q1286.77 1492.42 1281.09 1495.7 Q1275.42 1498.97 1271.27 1498.7 Q1267.15 1498.43 1264.97 1494.66 Q1262.79 1490.88 1264.61 1487.16 Q1266.46 1483.45 1272.13 1480.18 Q1277.81 1476.9 1281.93 1477.16 Q1286.08 1477.44 1288.26 1481.21 Z" fill="#4c4c4c" fill-rule="evenodd" fill-opacity="1" /><path clip-path="url(#clip910)" d="M1419.88 1454.22 L1428.21 1468.65 L1426.92 1469.4 L1401.06 1473.46 L1399.23 1470.29 L1423.55 1466.47 L1417.32 1455.69 L1419.88 1454.22 Z" fill="#4c4c4c" fill-rule="evenodd" fill-opacity="1" /><path clip-path="url(#clip910)" d="M1433.38 1482.22 Q1432.03 1479.88 1429.03 1480.03 Q1426.05 1480.18 1421.42 1482.86 Q1416.8 1485.52 1415.16 1488.03 Q1413.55 1490.55 1414.9 1492.89 Q1416.27 1495.25 1419.24 1495.1 Q1422.25 1494.95 1426.86 1492.28 Q1431.49 1489.61 1433.11 1487.09 Q1434.74 1484.58 1433.38 1482.22 M1435.79 1480.84 Q1437.97 1484.61 1436.12 1488.32 Q1434.3 1492.04 1428.61 1495.32 Q1422.95 1498.59 1418.8 1498.32 Q1414.68 1498.06 1412.5 1494.28 Q1410.32 1490.51 1412.14 1486.79 Q1413.99 1483.08 1419.66 1479.8 Q1425.34 1476.52 1429.46 1476.79 Q1433.61 1477.06 1435.79 1480.84 Z" fill="#4c4c4c" fill-rule="evenodd" fill-opacity="1" /><path clip-path="url(#clip910)" d="M1560.28 1468.72 Q1559.03 1466.56 1557.15 1465.98 Q1555.28 1465.41 1553.25 1466.58 Q1551.22 1467.76 1550.78 1469.66 Q1550.34 1471.57 1551.59 1473.74 Q1552.84 1475.9 1554.72 1476.48 Q1556.61 1477.05 1558.63 1475.89 Q1560.66 1474.72 1561.09 1472.8 Q1561.54 1470.9 1560.28 1468.72 M1559.82 1464.94 Q1559.17 1462.7 1559.88 1460.83 Q1560.59 1458.98 1562.52 1457.87 Q1565.21 1456.31 1567.87 1457.32 Q1570.55 1458.34 1572.48 1461.68 Q1574.41 1465.03 1573.95 1467.85 Q1573.49 1470.66 1570.8 1472.21 Q1568.87 1473.32 1566.9 1473 Q1564.94 1472.69 1563.34 1471.03 Q1564.09 1473.52 1563.31 1475.59 Q1562.53 1477.69 1560.38 1478.93 Q1557.12 1480.81 1554.22 1479.82 Q1551.33 1478.84 1549.19 1475.13 Q1547.04 1471.41 1547.63 1468.41 Q1548.23 1465.41 1551.49 1463.53 Q1553.64 1462.29 1555.84 1462.66 Q1558.04 1463.04 1559.82 1464.94 M1563.98 1461.06 Q1562.23 1462.06 1561.88 1463.71 Q1561.54 1465.37 1562.67 1467.34 Q1563.8 1469.29 1565.41 1469.83 Q1567.03 1470.38 1568.78 1469.37 Q1570.52 1468.36 1570.85 1466.69 Q1571.2 1465.02 1570.07 1463.07 Q1568.93 1461.1 1567.32 1460.57 Q1565.72 1460.05 1563.98 1461.06 Z" fill="#4c4c4c" fill-rule="evenodd" fill-opacity="1" /><path clip-path="url(#clip910)" d="M1581.38 1482.66 Q1580.03 1480.31 1577.03 1480.46 Q1574.05 1480.62 1569.42 1483.29 Q1564.8 1485.96 1563.16 1488.47 Q1561.55 1490.98 1562.9 1493.33 Q1564.27 1495.69 1567.24 1495.53 Q1570.24 1495.38 1574.86 1492.72 Q1579.49 1490.05 1581.11 1487.53 Q1582.74 1485.02 1581.38 1482.66 M1583.79 1481.27 Q1585.96 1485.04 1584.12 1488.76 Q1582.3 1492.48 1576.61 1495.76 Q1570.94 1499.03 1566.8 1498.76 Q1562.68 1498.49 1560.5 1494.72 Q1558.32 1490.94 1560.14 1487.23 Q1561.99 1483.51 1567.65 1480.24 Q1573.34 1476.96 1577.46 1477.23 Q1581.61 1477.5 1583.79 1481.27 Z" fill="#4c4c4c" fill-rule="evenodd" fill-opacity="1" /><path clip-path="url(#clip910)" d="M1694.22 1468.35 L1696.99 1466.75 Q1697.11 1468.21 1697.5 1469.55 Q1697.89 1470.88 1698.54 1472.01 Q1700.28 1475.02 1703.2 1475.43 Q1706.15 1475.86 1710.4 1473.7 Q1708.61 1473.58 1707.14 1472.64 Q1705.68 1471.7 1704.74 1470.08 Q1702.8 1466.71 1703.69 1463.57 Q1704.61 1460.43 1708.14 1458.39 Q1711.6 1456.4 1714.87 1457.23 Q1718.14 1458.07 1720.1 1461.47 Q1722.35 1465.36 1720.54 1469.14 Q1718.75 1472.91 1713.07 1476.2 Q1707.76 1479.26 1703.13 1478.57 Q1698.52 1477.88 1696.06 1473.62 Q1695.4 1472.48 1694.95 1471.18 Q1694.5 1469.87 1694.22 1468.35 M1707.23 1468.9 Q1708.41 1470.95 1710.5 1471.33 Q1712.59 1471.72 1715.02 1470.32 Q1717.44 1468.92 1718.15 1466.91 Q1718.88 1464.9 1717.69 1462.86 Q1716.51 1460.81 1714.41 1460.43 Q1712.32 1460.05 1709.9 1461.44 Q1707.47 1462.85 1706.75 1464.85 Q1706.05 1466.86 1707.23 1468.9 Z" fill="#4c4c4c" fill-rule="evenodd" fill-opacity="1" /><path clip-path="url(#clip910)" d="M1729.21 1482.81 Q1727.86 1480.46 1724.86 1480.61 Q1721.88 1480.77 1717.25 1483.44 Q1712.63 1486.11 1711 1488.62 Q1709.38 1491.13 1710.74 1493.48 Q1712.1 1495.84 1715.08 1495.68 Q1718.08 1495.53 1722.69 1492.87 Q1727.32 1490.2 1728.94 1487.68 Q1730.58 1485.17 1729.21 1482.81 M1731.62 1481.42 Q1733.8 1485.2 1731.95 1488.91 Q1730.13 1492.63 1724.45 1495.91 Q1718.78 1499.18 1714.63 1498.91 Q1710.51 1498.64 1708.33 1494.87 Q1706.15 1491.09 1707.97 1487.38 Q1709.82 1483.66 1715.49 1480.39 Q1721.17 1477.11 1725.29 1477.38 Q1729.44 1477.65 1731.62 1481.42 Z" fill="#4c4c4c" fill-rule="evenodd" fill-opacity="1" /><path clip-path="url(#clip910)" d="M1843.48 1466.14 L1846.34 1471.1 L1863.47 1461.21 L1859.27 1456.44 L1862.04 1454.84 L1866.22 1459.58 L1867.97 1462.62 L1848.08 1474.11 L1850.94 1479.07 L1848.39 1480.54 L1840.92 1467.61 L1843.48 1466.14 Z" fill="#4c4c4c" fill-rule="evenodd" fill-opacity="1" /><path clip-path="url(#clip910)" d="M1876.13 1481.37 Q1874.77 1479.02 1871.77 1479.17 Q1868.79 1479.33 1864.16 1482 Q1859.55 1484.66 1857.91 1487.17 Q1856.3 1489.69 1857.65 1492.04 Q1859.01 1494.4 1861.99 1494.24 Q1864.99 1494.09 1869.61 1491.43 Q1874.24 1488.75 1875.85 1486.24 Q1877.49 1483.73 1876.13 1481.37 M1878.53 1479.98 Q1880.71 1483.75 1878.87 1487.46 Q1877.04 1491.18 1871.36 1494.46 Q1865.69 1497.74 1861.55 1497.46 Q1857.42 1497.2 1855.24 1493.42 Q1853.06 1489.65 1854.89 1485.93 Q1856.73 1482.22 1862.4 1478.95 Q1868.08 1475.67 1872.21 1475.93 Q1876.35 1476.2 1878.53 1479.98 Z" fill="#4c4c4c" fill-rule="evenodd" fill-opacity="1" /><path clip-path="url(#clip910)" d="M1887.44 1500.96 Q1886.08 1498.61 1883.08 1498.76 Q1880.11 1498.92 1875.47 1501.59 Q1870.86 1504.26 1869.22 1506.76 Q1867.61 1509.28 1868.96 1511.63 Q1870.32 1513.99 1873.3 1513.83 Q1876.3 1513.68 1880.92 1511.02 Q1885.55 1508.34 1887.16 1505.83 Q1888.8 1503.32 1887.44 1500.96 M1889.84 1499.57 Q1892.02 1503.34 1890.18 1507.05 Q1888.35 1510.77 1882.67 1514.05 Q1877 1517.33 1872.86 1517.05 Q1868.73 1516.79 1866.55 1513.01 Q1864.38 1509.24 1866.2 1505.52 Q1868.04 1501.81 1873.71 1498.54 Q1879.4 1495.26 1883.52 1495.52 Q1887.66 1495.8 1889.84 1499.57 Z" fill="#4c4c4c" fill-rule="evenodd" fill-opacity="1" /><path clip-path="url(#clip910)" d="M1991.23 1466.14 L1994.09 1471.1 L2011.21 1461.21 L2007.02 1456.44 L2009.78 1454.84 L2013.96 1459.58 L2015.72 1462.62 L1995.83 1474.11 L1998.69 1479.07 L1996.13 1480.54 L1988.67 1467.61 L1991.23 1466.14 Z" fill="#4c4c4c" fill-rule="evenodd" fill-opacity="1" /><path clip-path="url(#clip910)" d="M2002.54 1485.73 L2005.4 1490.69 L2022.53 1480.8 L2018.33 1476.03 L2021.09 1474.43 L2025.27 1479.18 L2027.03 1482.21 L2007.14 1493.7 L2010 1498.66 L2007.45 1500.13 L1999.98 1487.2 L2002.54 1485.73 Z" fill="#4c4c4c" fill-rule="evenodd" fill-opacity="1" /><path clip-path="url(#clip910)" d="M2035.18 1500.96 Q2033.83 1498.61 2030.83 1498.76 Q2027.85 1498.92 2023.22 1501.59 Q2018.61 1504.26 2016.97 1506.76 Q2015.35 1509.28 2016.71 1511.63 Q2018.07 1513.99 2021.05 1513.83 Q2024.05 1513.68 2028.66 1511.02 Q2033.29 1508.34 2034.91 1505.83 Q2036.55 1503.32 2035.18 1500.96 M2037.59 1499.57 Q2039.77 1503.34 2037.92 1507.05 Q2036.1 1510.77 2030.42 1514.05 Q2024.75 1517.33 2020.6 1517.05 Q2016.48 1516.79 2014.3 1513.01 Q2012.12 1509.24 2013.94 1505.52 Q2015.79 1501.81 2021.46 1498.54 Q2027.14 1495.26 2031.27 1495.52 Q2035.41 1495.8 2037.59 1499.57 Z" fill="#4c4c4c" fill-rule="evenodd" fill-opacity="1" /><path clip-path="url(#clip910)" d="M2138.97 1466.14 L2141.84 1471.1 L2158.96 1461.21 L2154.76 1456.44 L2157.53 1454.84 L2161.71 1459.58 L2163.46 1462.62 L2143.57 1474.11 L2146.44 1479.07 L2143.88 1480.54 L2136.42 1467.61 L2138.97 1466.14 Z" fill="#4c4c4c" fill-rule="evenodd" fill-opacity="1" /><path clip-path="url(#clip910)" d="M2151.49 1487.82 L2157.61 1498.42 L2155.05 1499.89 L2146.82 1485.64 L2149.38 1484.16 Q2152.17 1484.86 2156.89 1486.1 Q2161.64 1487.35 2162.96 1487.61 Q2165.44 1488.12 2166.9 1488.04 Q2168.38 1487.97 2169.47 1487.34 Q2171.26 1486.3 2171.66 1484.39 Q2172.07 1482.49 2170.91 1480.48 Q2170.08 1479.05 2168.67 1477.74 Q2167.26 1476.45 2165.21 1475.23 L2168.28 1473.46 Q2170.07 1474.86 2171.37 1476.24 Q2172.66 1477.62 2173.43 1478.94 Q2175.44 1482.43 2174.9 1485.51 Q2174.35 1488.59 2171.43 1490.28 Q2170.05 1491.08 2168.5 1491.27 Q2166.97 1491.47 2164.5 1491.07 Q2163.84 1490.95 2160.59 1490.14 Q2157.35 1489.32 2151.49 1487.82 Z" fill="#4c4c4c" fill-rule="evenodd" fill-opacity="1" /><path clip-path="url(#clip910)" d="M2182.93 1500.96 Q2181.58 1498.61 2178.58 1498.76 Q2175.6 1498.92 2170.97 1501.59 Q2166.35 1504.26 2164.71 1506.76 Q2163.1 1509.28 2164.45 1511.63 Q2165.82 1513.99 2168.79 1513.83 Q2171.79 1513.68 2176.41 1511.02 Q2181.04 1508.34 2182.66 1505.83 Q2184.29 1503.32 2182.93 1500.96 M2185.34 1499.57 Q2187.52 1503.34 2185.67 1507.05 Q2183.85 1510.77 2178.16 1514.05 Q2172.5 1517.33 2168.35 1517.05 Q2164.23 1516.79 2162.05 1513.01 Q2159.87 1509.24 2161.69 1505.52 Q2163.54 1501.81 2169.21 1498.54 Q2174.89 1495.26 2179.01 1495.52 Q2183.16 1495.8 2185.34 1499.57 Z" fill="#4c4c4c" fill-rule="evenodd" fill-opacity="1" /><path clip-path="url(#clip910)" d="M2286.72 1466.14 L2289.58 1471.1 L2306.71 1461.21 L2302.51 1456.44 L2305.28 1454.84 L2309.46 1459.58 L2311.21 1462.62 L2291.32 1474.11 L2294.18 1479.07 L2291.63 1480.54 L2284.16 1467.61 L2286.72 1466.14 Z" fill="#4c4c4c" fill-rule="evenodd" fill-opacity="1" /><path clip-path="url(#clip910)" d="M2312.59 1488.89 Q2313.38 1491.34 2312.61 1493.41 Q2311.85 1495.49 2309.68 1496.74 Q2306.36 1498.66 2303.22 1497.43 Q2300.08 1496.19 2297.65 1491.98 Q2296.83 1490.57 2296.25 1488.9 Q2295.66 1487.25 2295.3 1485.34 L2298.23 1483.65 Q2298.22 1485.34 2298.72 1487.06 Q2299.21 1488.78 2300.15 1490.41 Q2301.8 1493.27 2303.79 1494.11 Q2305.79 1494.96 2307.94 1493.72 Q2309.92 1492.57 2310.23 1490.53 Q2310.56 1488.5 2309.12 1486.02 L2307.61 1483.4 L2310.11 1481.96 L2311.69 1484.7 Q2312.98 1486.94 2314.55 1487.61 Q2316.14 1488.28 2317.83 1487.31 Q2319.56 1486.31 2319.76 1484.55 Q2319.99 1482.79 2318.67 1480.51 Q2317.95 1479.26 2316.85 1477.99 Q2315.76 1476.71 2314.2 1475.33 L2316.9 1473.77 Q2318.38 1475.22 2319.49 1476.58 Q2320.61 1477.96 2321.38 1479.3 Q2323.38 1482.76 2322.96 1485.69 Q2322.56 1488.6 2319.89 1490.15 Q2318.02 1491.22 2316.11 1490.9 Q2314.22 1490.57 2312.59 1488.89 Z" fill="#4c4c4c" fill-rule="evenodd" fill-opacity="1" /><path clip-path="url(#clip910)" d="M2330.68 1500.96 Q2329.32 1498.61 2326.32 1498.76 Q2323.35 1498.92 2318.71 1501.59 Q2314.1 1504.26 2312.46 1506.76 Q2310.85 1509.28 2312.2 1511.63 Q2313.56 1513.99 2316.54 1513.83 Q2319.54 1513.68 2324.16 1511.02 Q2328.79 1508.34 2330.4 1505.83 Q2332.04 1503.32 2330.68 1500.96 M2333.08 1499.57 Q2335.26 1503.34 2333.42 1507.05 Q2331.59 1510.77 2325.91 1514.05 Q2320.24 1517.33 2316.1 1517.05 Q2311.97 1516.79 2309.79 1513.01 Q2307.62 1509.24 2309.44 1505.52 Q2311.28 1501.81 2316.95 1498.54 Q2322.64 1495.26 2326.76 1495.52 Q2330.9 1495.8 2333.08 1499.57 Z" fill="#4c4c4c" fill-rule="evenodd" fill-opacity="1" /><path clip-path="url(#clip910)" d="M1225.37 1537.87 L1230.05 1537.87 L1230.05 1572.43 L1225.37 1572.43 L1225.37 1537.87 Z" fill="#000000" fill-rule="evenodd" fill-opacity="1" /><path clip-path="url(#clip910)" d="M1243.38 1539.15 L1243.38 1546.51 L1252.15 1546.51 L1252.15 1549.82 L1243.38 1549.82 L1243.38 1563.89 Q1243.38 1567.06 1244.24 1567.97 Q1245.12 1568.87 1247.78 1568.87 L1252.15 1568.87 L1252.15 1572.43 L1247.78 1572.43 Q1242.85 1572.43 1240.97 1570.6 Q1239.1 1568.75 1239.1 1563.89 L1239.1 1549.82 L1235.97 1549.82 L1235.97 1546.51 L1239.1 1546.51 L1239.1 1539.15 L1243.38 1539.15 Z" fill="#000000" fill-rule="evenodd" fill-opacity="1" /><path clip-path="url(#clip910)" d="M1279.93 1558.41 L1279.93 1560.49 L1260.35 1560.49 Q1260.63 1564.89 1262.99 1567.2 Q1265.37 1569.49 1269.61 1569.49 Q1272.06 1569.49 1274.35 1568.89 Q1276.67 1568.29 1278.94 1567.09 L1278.94 1571.11 Q1276.65 1572.09 1274.24 1572.6 Q1271.83 1573.1 1269.35 1573.1 Q1263.15 1573.1 1259.52 1569.49 Q1255.9 1565.88 1255.9 1559.73 Q1255.9 1553.36 1259.33 1549.63 Q1262.78 1545.88 1268.61 1545.88 Q1273.84 1545.88 1276.88 1549.26 Q1279.93 1552.62 1279.93 1558.41 M1275.67 1557.16 Q1275.63 1553.66 1273.71 1551.58 Q1271.81 1549.49 1268.66 1549.49 Q1265.09 1549.49 1262.94 1551.51 Q1260.81 1553.52 1260.49 1557.18 L1275.67 1557.16 Z" fill="#000000" fill-rule="evenodd" fill-opacity="1" /><path clip-path="url(#clip910)" d="M1301.95 1550.49 Q1301.23 1550.07 1300.37 1549.89 Q1299.54 1549.68 1298.52 1549.68 Q1294.91 1549.68 1292.96 1552.04 Q1291.04 1554.38 1291.04 1558.78 L1291.04 1572.43 L1286.76 1572.43 L1286.76 1546.51 L1291.04 1546.51 L1291.04 1550.54 Q1292.39 1548.17 1294.54 1547.04 Q1296.69 1545.88 1299.77 1545.88 Q1300.21 1545.88 1300.74 1545.95 Q1301.27 1546 1301.92 1546.11 L1301.95 1550.49 Z" fill="#000000" fill-rule="evenodd" fill-opacity="1" /><path clip-path="url(#clip910)" d="M1318.2 1559.4 Q1313.03 1559.4 1311.04 1560.58 Q1309.05 1561.76 1309.05 1564.61 Q1309.05 1566.88 1310.53 1568.22 Q1312.04 1569.54 1314.61 1569.54 Q1318.15 1569.54 1320.28 1567.04 Q1322.43 1564.52 1322.43 1560.35 L1322.43 1559.4 L1318.2 1559.4 M1326.69 1557.64 L1326.69 1572.43 L1322.43 1572.43 L1322.43 1568.5 Q1320.97 1570.86 1318.8 1571.99 Q1316.62 1573.1 1313.47 1573.1 Q1309.49 1573.1 1307.13 1570.88 Q1304.79 1568.64 1304.79 1564.89 Q1304.79 1560.51 1307.71 1558.29 Q1310.65 1556.07 1316.46 1556.07 L1322.43 1556.07 L1322.43 1555.65 Q1322.43 1552.71 1320.49 1551.11 Q1318.57 1549.49 1315.07 1549.49 Q1312.85 1549.49 1310.74 1550.03 Q1308.64 1550.56 1306.69 1551.62 L1306.69 1547.69 Q1309.03 1546.79 1311.23 1546.35 Q1313.43 1545.88 1315.51 1545.88 Q1321.14 1545.88 1323.91 1548.8 Q1326.69 1551.72 1326.69 1557.64 Z" fill="#000000" fill-rule="evenodd" fill-opacity="1" /><path clip-path="url(#clip910)" d="M1339.68 1539.15 L1339.68 1546.51 L1348.45 1546.51 L1348.45 1549.82 L1339.68 1549.82 L1339.68 1563.89 Q1339.68 1567.06 1340.53 1567.97 Q1341.41 1568.87 1344.08 1568.87 L1348.45 1568.87 L1348.45 1572.43 L1344.08 1572.43 Q1339.14 1572.43 1337.27 1570.6 Q1335.39 1568.75 1335.39 1563.89 L1335.39 1549.82 L1332.27 1549.82 L1332.27 1546.51 L1335.39 1546.51 L1335.39 1539.15 L1339.68 1539.15 Z" fill="#000000" fill-rule="evenodd" fill-opacity="1" /><path clip-path="url(#clip910)" d="M1354.05 1546.51 L1358.31 1546.51 L1358.31 1572.43 L1354.05 1572.43 L1354.05 1546.51 M1354.05 1536.42 L1358.31 1536.42 L1358.31 1541.81 L1354.05 1541.81 L1354.05 1536.42 Z" fill="#000000" fill-rule="evenodd" fill-opacity="1" /><path clip-path="url(#clip910)" d="M1377.27 1549.49 Q1373.84 1549.49 1371.85 1552.18 Q1369.86 1554.84 1369.86 1559.49 Q1369.86 1564.15 1371.83 1566.83 Q1373.82 1569.49 1377.27 1569.49 Q1380.67 1569.49 1382.66 1566.81 Q1384.65 1564.12 1384.65 1559.49 Q1384.65 1554.89 1382.66 1552.2 Q1380.67 1549.49 1377.27 1549.49 M1377.27 1545.88 Q1382.83 1545.88 1386 1549.49 Q1389.17 1553.1 1389.17 1559.49 Q1389.17 1565.86 1386 1569.49 Q1382.83 1573.1 1377.27 1573.1 Q1371.69 1573.1 1368.52 1569.49 Q1365.37 1565.86 1365.37 1559.49 Q1365.37 1553.1 1368.52 1549.49 Q1371.69 1545.88 1377.27 1545.88 Z" fill="#000000" fill-rule="evenodd" fill-opacity="1" /><path clip-path="url(#clip910)" d="M1417.78 1556.79 L1417.78 1572.43 L1413.52 1572.43 L1413.52 1556.92 Q1413.52 1553.24 1412.08 1551.41 Q1410.65 1549.59 1407.78 1549.59 Q1404.33 1549.59 1402.34 1551.79 Q1400.35 1553.98 1400.35 1557.78 L1400.35 1572.43 L1396.07 1572.43 L1396.07 1546.51 L1400.35 1546.51 L1400.35 1550.54 Q1401.88 1548.2 1403.94 1547.04 Q1406.02 1545.88 1408.73 1545.88 Q1413.2 1545.88 1415.49 1548.66 Q1417.78 1551.41 1417.78 1556.79 Z" fill="#000000" fill-rule="evenodd" fill-opacity="1" /><path clip-path="url(#clip910)" d="M1442.8 1547.27 L1442.8 1551.3 Q1441 1550.37 1439.05 1549.91 Q1437.11 1549.45 1435.02 1549.45 Q1431.85 1549.45 1430.26 1550.42 Q1428.68 1551.39 1428.68 1553.34 Q1428.68 1554.82 1429.82 1555.67 Q1430.95 1556.51 1434.38 1557.27 L1435.83 1557.6 Q1440.37 1558.57 1442.27 1560.35 Q1444.19 1562.11 1444.19 1565.28 Q1444.19 1568.89 1441.32 1571 Q1438.47 1573.1 1433.47 1573.1 Q1431.39 1573.1 1429.12 1572.69 Q1426.88 1572.29 1424.38 1571.48 L1424.38 1567.09 Q1426.74 1568.31 1429.03 1568.94 Q1431.32 1569.54 1433.57 1569.54 Q1436.57 1569.54 1438.2 1568.52 Q1439.82 1567.48 1439.82 1565.6 Q1439.82 1563.87 1438.63 1562.94 Q1437.48 1562.02 1433.52 1561.16 L1432.04 1560.81 Q1428.08 1559.98 1426.32 1558.27 Q1424.56 1556.53 1424.56 1553.52 Q1424.56 1549.86 1427.15 1547.87 Q1429.75 1545.88 1434.51 1545.88 Q1436.88 1545.88 1438.96 1546.23 Q1441.04 1546.58 1442.8 1547.27 Z" fill="#000000" fill-rule="evenodd" fill-opacity="1" /><polyline clip-path="url(#clip912)" style="stroke:#ffffff; stroke-linecap:butt; stroke-linejoin:round; stroke-width:4; stroke-opacity:1; fill:none" points="
  316.807,1362.42 2352.76,1362.42 
  "/>
<polyline clip-path="url(#clip912)" style="stroke:#ffffff; stroke-linecap:butt; stroke-linejoin:round; stroke-width:4; stroke-opacity:1; fill:none" points="
  316.807,980.29 2352.76,980.29 
  "/>
<polyline clip-path="url(#clip912)" style="stroke:#ffffff; stroke-linecap:butt; stroke-linejoin:round; stroke-width:4; stroke-opacity:1; fill:none" points="
  316.807,598.165 2352.76,598.165 
  "/>
<polyline clip-path="url(#clip912)" style="stroke:#ffffff; stroke-linecap:butt; stroke-linejoin:round; stroke-width:4; stroke-opacity:1; fill:none" points="
  316.807,216.041 2352.76,216.041 
  "/>
<polyline clip-path="url(#clip912)" style="stroke:#ffffff; stroke-linecap:butt; stroke-linejoin:round; stroke-width:2; stroke-opacity:1; fill:none" points="
  316.807,1171.35 2352.76,1171.35 
  "/>
<polyline clip-path="url(#clip912)" style="stroke:#ffffff; stroke-linecap:butt; stroke-linejoin:round; stroke-width:2; stroke-opacity:1; fill:none" points="
  316.807,789.228 2352.76,789.228 
  "/>
<polyline clip-path="url(#clip912)" style="stroke:#ffffff; stroke-linecap:butt; stroke-linejoin:round; stroke-width:2; stroke-opacity:1; fill:none" points="
  316.807,407.103 2352.76,407.103 
  "/>
<polyline clip-path="url(#clip910)" style="stroke:#ffffff; stroke-linecap:butt; stroke-linejoin:round; stroke-width:4; stroke-opacity:1; fill:none" points="
  316.807,1422.18 316.807,106.192 
  "/>
<polyline clip-path="url(#clip910)" style="stroke:#333333; stroke-linecap:butt; stroke-linejoin:round; stroke-width:4; stroke-opacity:1; fill:none" points="
  316.807,1362.42 297.909,1362.42 
  "/>
<polyline clip-path="url(#clip910)" style="stroke:#333333; stroke-linecap:butt; stroke-linejoin:round; stroke-width:4; stroke-opacity:1; fill:none" points="
  316.807,980.29 297.909,980.29 
  "/>
<polyline clip-path="url(#clip910)" style="stroke:#333333; stroke-linecap:butt; stroke-linejoin:round; stroke-width:4; stroke-opacity:1; fill:none" points="
  316.807,598.165 297.909,598.165 
  "/>
<polyline clip-path="url(#clip910)" style="stroke:#333333; stroke-linecap:butt; stroke-linejoin:round; stroke-width:4; stroke-opacity:1; fill:none" points="
  316.807,216.041 297.909,216.041 
  "/>
<polyline clip-path="url(#clip910)" style="stroke:#333333; stroke-linecap:butt; stroke-linejoin:round; stroke-width:4; stroke-opacity:1; fill:none" points="
  316.807,1171.35 307.358,1171.35 
  "/>
<polyline clip-path="url(#clip910)" style="stroke:#333333; stroke-linecap:butt; stroke-linejoin:round; stroke-width:4; stroke-opacity:1; fill:none" points="
  316.807,789.228 307.358,789.228 
  "/>
<polyline clip-path="url(#clip910)" style="stroke:#333333; stroke-linecap:butt; stroke-linejoin:round; stroke-width:4; stroke-opacity:1; fill:none" points="
  316.807,407.103 307.358,407.103 
  "/>
<path clip-path="url(#clip910)" d="M193.779 1362.75 L216.036 1362.75 L216.036 1365.7 L193.779 1365.7 L193.779 1362.75 Z" fill="#4c4c4c" fill-rule="evenodd" fill-opacity="1" /><path clip-path="url(#clip910)" d="M224.213 1372.42 L229.942 1372.42 L229.942 1352.65 L223.71 1353.9 L223.71 1350.71 L229.908 1349.46 L233.415 1349.46 L233.415 1372.42 L239.144 1372.42 L239.144 1375.38 L224.213 1375.38 L224.213 1372.42 Z" fill="#4c4c4c" fill-rule="evenodd" fill-opacity="1" /><path clip-path="url(#clip910)" d="M254.161 1361.02 Q251.8 1361.02 250.411 1362.63 Q249.04 1364.25 249.04 1367.06 Q249.04 1369.85 250.411 1371.49 Q251.8 1373.1 254.161 1373.1 Q256.522 1373.1 257.894 1371.49 Q259.283 1369.85 259.283 1367.06 Q259.283 1364.25 257.894 1362.63 Q256.522 1361.02 254.161 1361.02 M261.123 1350.03 L261.123 1353.22 Q259.803 1352.6 258.449 1352.27 Q257.112 1351.94 255.793 1351.94 Q252.321 1351.94 250.481 1354.28 Q248.658 1356.63 248.397 1361.36 Q249.421 1359.85 250.967 1359.06 Q252.512 1358.24 254.369 1358.24 Q258.276 1358.24 260.533 1360.62 Q262.807 1362.98 262.807 1367.06 Q262.807 1371.05 260.446 1373.47 Q258.085 1375.88 254.161 1375.88 Q249.665 1375.88 247.286 1372.44 Q244.908 1368.99 244.908 1362.44 Q244.908 1356.3 247.824 1352.65 Q250.741 1348.99 255.654 1348.99 Q256.974 1348.99 258.31 1349.25 Q259.664 1349.51 261.123 1350.03 Z" fill="#4c4c4c" fill-rule="evenodd" fill-opacity="1" /><path clip-path="url(#clip910)" d="M194.647 980.629 L216.904 980.629 L216.904 983.58 L194.647 983.58 L194.647 980.629 Z" fill="#4c4c4c" fill-rule="evenodd" fill-opacity="1" /><path clip-path="url(#clip910)" d="M225.081 990.299 L230.81 990.299 L230.81 970.525 L224.578 971.775 L224.578 968.58 L230.776 967.33 L234.283 967.33 L234.283 990.299 L240.012 990.299 L240.012 993.25 L225.081 993.25 L225.081 990.299 Z" fill="#4c4c4c" fill-rule="evenodd" fill-opacity="1" /><path clip-path="url(#clip910)" d="M247.13 967.33 L260.897 967.33 L260.897 970.282 L250.342 970.282 L250.342 976.636 Q251.106 976.375 251.869 976.254 Q252.633 976.115 253.397 976.115 Q257.737 976.115 260.272 978.493 Q262.807 980.872 262.807 984.934 Q262.807 989.118 260.203 991.445 Q257.599 993.754 252.859 993.754 Q251.227 993.754 249.526 993.476 Q247.842 993.198 246.036 992.643 L246.036 989.118 Q247.599 989.969 249.265 990.386 Q250.932 990.802 252.79 990.802 Q255.793 990.802 257.546 989.223 Q259.3 987.643 259.3 984.934 Q259.3 982.226 257.546 980.646 Q255.793 979.066 252.79 979.066 Q251.383 979.066 249.977 979.379 Q248.588 979.691 247.13 980.351 L247.13 967.33 Z" fill="#4c4c4c" fill-rule="evenodd" fill-opacity="1" /><path clip-path="url(#clip910)" d="M193.536 598.504 L215.793 598.504 L215.793 601.455 L193.536 601.455 L193.536 598.504 Z" fill="#4c4c4c" fill-rule="evenodd" fill-opacity="1" /><path clip-path="url(#clip910)" d="M223.97 608.174 L229.699 608.174 L229.699 588.4 L223.467 589.65 L223.467 586.455 L229.665 585.205 L233.172 585.205 L233.172 608.174 L238.901 608.174 L238.901 611.125 L223.97 611.125 L223.97 608.174 Z" fill="#4c4c4c" fill-rule="evenodd" fill-opacity="1" /><path clip-path="url(#clip910)" d="M255.619 588.261 L246.765 602.098 L255.619 602.098 L255.619 588.261 M254.699 585.205 L259.109 585.205 L259.109 602.098 L262.807 602.098 L262.807 605.014 L259.109 605.014 L259.109 611.125 L255.619 611.125 L255.619 605.014 L243.918 605.014 L243.918 601.629 L254.699 585.205 Z" fill="#4c4c4c" fill-rule="evenodd" fill-opacity="1" /><path clip-path="url(#clip910)" d="M194.387 216.379 L216.644 216.379 L216.644 219.331 L194.387 219.331 L194.387 216.379 Z" fill="#4c4c4c" fill-rule="evenodd" fill-opacity="1" /><path clip-path="url(#clip910)" d="M224.821 226.049 L230.55 226.049 L230.55 206.275 L224.317 207.525 L224.317 204.331 L230.515 203.081 L234.022 203.081 L234.022 226.049 L239.751 226.049 L239.751 229.001 L224.821 229.001 L224.821 226.049 Z" fill="#4c4c4c" fill-rule="evenodd" fill-opacity="1" /><path clip-path="url(#clip910)" d="M257.46 215.025 Q259.977 215.563 261.383 217.265 Q262.807 218.966 262.807 221.466 Q262.807 225.303 260.168 227.403 Q257.529 229.504 252.668 229.504 Q251.036 229.504 249.3 229.174 Q247.581 228.862 245.741 228.219 L245.741 224.834 Q247.199 225.685 248.935 226.119 Q250.671 226.553 252.564 226.553 Q255.862 226.553 257.581 225.251 Q259.317 223.949 259.317 221.466 Q259.317 219.174 257.703 217.89 Q256.105 216.588 253.241 216.588 L250.22 216.588 L250.22 213.706 L253.38 213.706 Q255.967 213.706 257.338 212.681 Q258.71 211.64 258.71 209.695 Q258.71 207.699 257.286 206.64 Q255.88 205.563 253.241 205.563 Q251.8 205.563 250.151 205.876 Q248.501 206.188 246.522 206.848 L246.522 203.723 Q248.519 203.167 250.255 202.89 Q252.008 202.612 253.553 202.612 Q257.546 202.612 259.873 204.435 Q262.199 206.24 262.199 209.331 Q262.199 211.483 260.967 212.976 Q259.734 214.452 257.46 215.025 Z" fill="#4c4c4c" fill-rule="evenodd" fill-opacity="1" /><path clip-path="url(#clip910)" d="M130.608 973.882 L130.608 944.646 L134.544 944.646 L134.544 956.915 L165.168 956.915 L165.168 961.614 L134.544 961.614 L134.544 973.882 L130.608 973.882 Z" fill="#000000" fill-rule="evenodd" fill-opacity="1" /><path clip-path="url(#clip910)" d="M151.141 926.198 L153.224 926.198 L153.224 945.781 Q157.622 945.503 159.937 943.142 Q162.229 940.758 162.229 936.522 Q162.229 934.068 161.627 931.776 Q161.025 929.461 159.821 927.193 L163.849 927.193 Q164.821 929.485 165.33 931.892 Q165.84 934.299 165.84 936.776 Q165.84 942.98 162.229 946.614 Q158.617 950.225 152.46 950.225 Q146.094 950.225 142.368 946.799 Q138.618 943.35 138.618 937.517 Q138.618 932.285 141.997 929.253 Q145.354 926.198 151.141 926.198 M149.891 930.457 Q146.395 930.503 144.312 932.424 Q142.229 934.322 142.229 937.471 Q142.229 941.035 144.243 943.188 Q146.256 945.318 149.914 945.642 L149.891 930.457 Z" fill="#000000" fill-rule="evenodd" fill-opacity="1" /><path clip-path="url(#clip910)" d="M140.006 902.679 L144.034 902.679 Q143.108 904.485 142.645 906.429 Q142.182 908.374 142.182 910.457 Q142.182 913.628 143.155 915.225 Q144.127 916.799 146.071 916.799 Q147.553 916.799 148.409 915.665 Q149.243 914.531 150.006 911.105 L150.33 909.647 Q151.303 905.11 153.085 903.212 Q154.844 901.29 158.016 901.29 Q161.627 901.29 163.733 904.161 Q165.84 907.008 165.84 912.008 Q165.84 914.091 165.423 916.36 Q165.029 918.605 164.219 921.105 L159.821 921.105 Q161.048 918.744 161.673 916.452 Q162.275 914.161 162.275 911.915 Q162.275 908.906 161.256 907.286 Q160.215 905.665 158.34 905.665 Q156.604 905.665 155.678 906.846 Q154.752 908.003 153.895 911.961 L153.548 913.443 Q152.715 917.401 151.002 919.161 Q149.266 920.92 146.256 920.92 Q142.599 920.92 140.608 918.327 Q138.618 915.735 138.618 910.966 Q138.618 908.605 138.965 906.522 Q139.312 904.438 140.006 902.679 Z" fill="#000000" fill-rule="evenodd" fill-opacity="1" /><path clip-path="url(#clip910)" d="M131.882 890.295 L139.243 890.295 L139.243 881.522 L142.553 881.522 L142.553 890.295 L156.627 890.295 Q159.798 890.295 160.701 889.438 Q161.604 888.559 161.604 885.897 L161.604 881.522 L165.168 881.522 L165.168 885.897 Q165.168 890.827 163.34 892.702 Q161.488 894.577 156.627 894.577 L142.553 894.577 L142.553 897.702 L139.243 897.702 L139.243 894.577 L131.882 894.577 L131.882 890.295 Z" fill="#000000" fill-rule="evenodd" fill-opacity="1" /><path clip-path="url(#clip910)" d="M129.15 860.851 L129.15 856.591 L165.168 856.591 L165.168 860.851 L129.15 860.851 Z" fill="#000000" fill-rule="evenodd" fill-opacity="1" /><path clip-path="url(#clip910)" d="M142.229 837.633 Q142.229 841.059 144.914 843.05 Q147.576 845.041 152.229 845.041 Q156.881 845.041 159.567 843.073 Q162.229 841.082 162.229 837.633 Q162.229 834.23 159.543 832.24 Q156.858 830.249 152.229 830.249 Q147.622 830.249 144.937 832.24 Q142.229 834.23 142.229 837.633 M138.618 837.633 Q138.618 832.078 142.229 828.906 Q145.84 825.735 152.229 825.735 Q158.594 825.735 162.229 828.906 Q165.84 832.078 165.84 837.633 Q165.84 843.212 162.229 846.383 Q158.594 849.531 152.229 849.531 Q145.84 849.531 142.229 846.383 Q138.618 843.212 138.618 837.633 Z" fill="#000000" fill-rule="evenodd" fill-opacity="1" /><path clip-path="url(#clip910)" d="M151.905 801.615 Q147.275 801.615 144.729 803.536 Q142.182 805.434 142.182 808.883 Q142.182 812.309 144.729 814.231 Q147.275 816.129 151.905 816.129 Q156.511 816.129 159.057 814.231 Q161.604 812.309 161.604 808.883 Q161.604 805.434 159.057 803.536 Q156.511 801.615 151.905 801.615 M161.951 797.356 Q168.571 797.356 171.789 800.295 Q175.029 803.235 175.029 809.3 Q175.029 811.545 174.682 813.536 Q174.358 815.527 173.664 817.402 L169.52 817.402 Q170.539 815.527 171.025 813.698 Q171.511 811.869 171.511 809.971 Q171.511 805.781 169.312 803.698 Q167.136 801.615 162.715 801.615 L160.608 801.615 Q162.9 802.934 164.034 804.994 Q165.168 807.055 165.168 809.925 Q165.168 814.693 161.534 817.61 Q157.9 820.527 151.905 820.527 Q145.886 820.527 142.252 817.61 Q138.618 814.693 138.618 809.925 Q138.618 807.055 139.752 804.994 Q140.886 802.934 143.178 801.615 L139.243 801.615 L139.243 797.356 L161.951 797.356 Z" fill="#000000" fill-rule="evenodd" fill-opacity="1" /><path clip-path="url(#clip910)" d="M150.284 790.735 L150.284 778.258 L154.08 778.258 L154.08 790.735 L150.284 790.735 Z" fill="#000000" fill-rule="evenodd" fill-opacity="1" /><path clip-path="url(#clip910)" d="M129.15 771.476 L129.15 767.217 L165.168 767.217 L165.168 771.476 L129.15 771.476 Z" fill="#000000" fill-rule="evenodd" fill-opacity="1" /><path clip-path="url(#clip910)" d="M139.243 758.305 L139.243 754.046 L165.168 754.046 L165.168 758.305 L139.243 758.305 M129.15 758.305 L129.15 754.046 L134.544 754.046 L134.544 758.305 L129.15 758.305 Z" fill="#000000" fill-rule="evenodd" fill-opacity="1" /><path clip-path="url(#clip910)" d="M129.15 745.296 L129.15 741.013 L150.423 741.013 L139.243 728.305 L139.243 722.865 L151.372 736.615 L165.168 722.287 L165.168 727.842 L152.506 741.013 L165.168 741.013 L165.168 745.296 L129.15 745.296 Z" fill="#000000" fill-rule="evenodd" fill-opacity="1" /><path clip-path="url(#clip910)" d="M151.141 697.194 L153.224 697.194 L153.224 716.777 Q157.622 716.5 159.937 714.138 Q162.229 711.754 162.229 707.518 Q162.229 705.064 161.627 702.773 Q161.025 700.458 159.821 698.189 L163.849 698.189 Q164.821 700.481 165.33 702.889 Q165.84 705.296 165.84 707.773 Q165.84 713.976 162.229 717.611 Q158.617 721.222 152.46 721.222 Q146.094 721.222 142.368 717.796 Q138.618 714.347 138.618 708.513 Q138.618 703.282 141.997 700.25 Q145.354 697.194 151.141 697.194 M149.891 701.453 Q146.395 701.5 144.312 703.421 Q142.229 705.319 142.229 708.467 Q142.229 712.032 144.243 714.185 Q146.256 716.314 149.914 716.638 L149.891 701.453 Z" fill="#000000" fill-rule="evenodd" fill-opacity="1" /><path clip-path="url(#clip910)" d="M129.15 690.203 L129.15 685.944 L165.168 685.944 L165.168 690.203 L129.15 690.203 Z" fill="#000000" fill-rule="evenodd" fill-opacity="1" /><path clip-path="url(#clip910)" d="M139.243 677.032 L139.243 672.773 L165.168 672.773 L165.168 677.032 L139.243 677.032 M129.15 677.032 L129.15 672.773 L134.544 672.773 L134.544 677.032 L129.15 677.032 Z" fill="#000000" fill-rule="evenodd" fill-opacity="1" /><path clip-path="url(#clip910)" d="M149.52 642.31 L165.168 642.31 L165.168 646.569 L149.659 646.569 Q145.979 646.569 144.15 648.005 Q142.321 649.44 142.321 652.31 Q142.321 655.759 144.52 657.75 Q146.719 659.741 150.516 659.741 L165.168 659.741 L165.168 664.023 L129.15 664.023 L129.15 659.741 L143.27 659.741 Q140.932 658.213 139.775 656.153 Q138.618 654.069 138.618 651.361 Q138.618 646.893 141.395 644.602 Q144.15 642.31 149.52 642.31 Z" fill="#000000" fill-rule="evenodd" fill-opacity="1" /><path clip-path="url(#clip910)" d="M142.229 623.769 Q142.229 627.194 144.914 629.185 Q147.576 631.176 152.229 631.176 Q156.881 631.176 159.567 629.208 Q162.229 627.218 162.229 623.769 Q162.229 620.366 159.543 618.375 Q156.858 616.384 152.229 616.384 Q147.622 616.384 144.937 618.375 Q142.229 620.366 142.229 623.769 M138.618 623.769 Q138.618 618.213 142.229 615.042 Q145.84 611.87 152.229 611.87 Q158.594 611.87 162.229 615.042 Q165.84 618.213 165.84 623.769 Q165.84 629.347 162.229 632.519 Q158.594 635.667 152.229 635.667 Q145.84 635.667 142.229 632.519 Q138.618 629.347 138.618 623.769 Z" fill="#000000" fill-rule="evenodd" fill-opacity="1" /><path clip-path="url(#clip910)" d="M142.229 594.764 Q142.229 598.19 144.914 600.181 Q147.576 602.171 152.229 602.171 Q156.881 602.171 159.567 600.204 Q162.229 598.213 162.229 594.764 Q162.229 591.361 159.543 589.371 Q156.858 587.38 152.229 587.38 Q147.622 587.38 144.937 589.371 Q142.229 591.361 142.229 594.764 M138.618 594.764 Q138.618 589.209 142.229 586.037 Q145.84 582.866 152.229 582.866 Q158.594 582.866 162.229 586.037 Q165.84 589.209 165.84 594.764 Q165.84 600.343 162.229 603.514 Q158.594 606.662 152.229 606.662 Q145.84 606.662 142.229 603.514 Q138.618 600.343 138.618 594.764 Z" fill="#000000" fill-rule="evenodd" fill-opacity="1" /><path clip-path="url(#clip910)" d="M143.178 558.746 L129.15 558.746 L129.15 554.487 L165.168 554.487 L165.168 558.746 L161.28 558.746 Q163.594 560.088 164.729 562.149 Q165.84 564.186 165.84 567.056 Q165.84 571.755 162.09 574.718 Q158.34 577.658 152.229 577.658 Q146.118 577.658 142.368 574.718 Q138.618 571.755 138.618 567.056 Q138.618 564.186 139.752 562.149 Q140.863 560.088 143.178 558.746 M152.229 573.26 Q156.928 573.26 159.613 571.338 Q162.275 569.394 162.275 566.014 Q162.275 562.635 159.613 560.69 Q156.928 558.746 152.229 558.746 Q147.53 558.746 144.868 560.69 Q142.182 562.635 142.182 566.014 Q142.182 569.394 144.868 571.338 Q147.53 573.26 152.229 573.26 Z" fill="#000000" fill-rule="evenodd" fill-opacity="1" /><path clip-path="url(#clip910)" d="M1253.24 46.9789 L1253.24 64.1663 L1247.89 64.1663 L1247.89 19.4328 L1253.24 19.4328 L1253.24 24.3517 Q1254.92 21.4582 1257.47 20.0693 Q1260.04 18.6515 1263.6 18.6515 Q1269.5 18.6515 1273.18 23.339 Q1276.88 28.0265 1276.88 35.6653 Q1276.88 43.3042 1273.18 47.9916 Q1269.5 52.6791 1263.6 52.6791 Q1260.04 52.6791 1257.47 51.2902 Q1254.92 49.8724 1253.24 46.9789 M1271.36 35.6653 Q1271.36 29.7915 1268.93 26.464 Q1266.52 23.1075 1262.3 23.1075 Q1258.07 23.1075 1255.64 26.464 Q1253.24 29.7915 1253.24 35.6653 Q1253.24 41.5391 1255.64 44.8956 Q1258.07 48.2231 1262.3 48.2231 Q1266.52 48.2231 1268.93 44.8956 Q1271.36 41.5391 1271.36 35.6653 Z" fill="#000000" fill-rule="evenodd" fill-opacity="1" /><path clip-path="url(#clip910)" d="M1285.71 6.81709 L1291.03 6.81709 L1291.03 51.84 L1285.71 51.84 L1285.71 6.81709 Z" fill="#000000" fill-rule="evenodd" fill-opacity="1" /><path clip-path="url(#clip910)" d="M1316.9 35.5496 Q1310.45 35.5496 1307.96 37.0253 Q1305.47 38.501 1305.47 42.06 Q1305.47 44.8956 1307.32 46.5738 Q1309.2 48.2231 1312.41 48.2231 Q1316.84 48.2231 1319.5 45.0981 Q1322.19 41.9442 1322.19 36.7359 L1322.19 35.5496 L1316.9 35.5496 M1327.52 33.3505 L1327.52 51.84 L1322.19 51.84 L1322.19 46.921 Q1320.37 49.8724 1317.65 51.2902 Q1314.93 52.6791 1311 52.6791 Q1306.02 52.6791 1303.07 49.9014 Q1300.15 47.0947 1300.15 42.4072 Q1300.15 36.9385 1303.79 34.1607 Q1307.47 31.3829 1314.73 31.3829 L1322.19 31.3829 L1322.19 30.8621 Q1322.19 27.1874 1319.76 25.1908 Q1317.36 23.1654 1312.99 23.1654 Q1310.22 23.1654 1307.58 23.8309 Q1304.95 24.4964 1302.52 25.8274 L1302.52 20.9085 Q1305.44 19.78 1308.19 19.2302 Q1310.94 18.6515 1313.54 18.6515 Q1320.57 18.6515 1324.05 22.2973 Q1327.52 25.9431 1327.52 33.3505 Z" fill="#000000" fill-rule="evenodd" fill-opacity="1" /><path clip-path="url(#clip910)" d="M1365.42 32.2799 L1365.42 51.84 L1360.1 51.84 L1360.1 32.4535 Q1360.1 27.8529 1358.31 25.567 Q1356.51 23.2811 1352.92 23.2811 Q1348.61 23.2811 1346.12 26.03 Q1343.64 28.7788 1343.64 33.5241 L1343.64 51.84 L1338.28 51.84 L1338.28 19.4328 L1343.64 19.4328 L1343.64 24.4675 Q1345.55 21.545 1348.12 20.0983 Q1350.72 18.6515 1354.11 18.6515 Q1359.69 18.6515 1362.56 22.1237 Q1365.42 25.567 1365.42 32.2799 Z" fill="#000000" fill-rule="evenodd" fill-opacity="1" /><path clip-path="url(#clip910)" d="M1381.31 10.2314 L1381.31 19.4328 L1392.28 19.4328 L1392.28 23.5705 L1381.31 23.5705 L1381.31 41.163 Q1381.31 45.1271 1382.38 46.2555 Q1383.48 47.384 1386.81 47.384 L1392.28 47.384 L1392.28 51.84 L1386.81 51.84 Q1380.64 51.84 1378.3 49.5541 Q1375.96 47.2393 1375.96 41.163 L1375.96 23.5705 L1372.05 23.5705 L1372.05 19.4328 L1375.96 19.4328 L1375.96 10.2314 L1381.31 10.2314 Z" fill="#000000" fill-rule="evenodd" fill-opacity="1" /><path clip-path="url(#clip910)" d="M1419.94 20.3876 L1419.94 25.4223 Q1417.68 24.2649 1415.25 23.6862 Q1412.82 23.1075 1410.21 23.1075 Q1406.25 23.1075 1404.25 24.3228 Q1402.29 25.5381 1402.29 27.9686 Q1402.29 29.8204 1403.7 30.891 Q1405.12 31.9327 1409.4 32.8876 L1411.23 33.2926 Q1416.9 34.5079 1419.27 36.7359 Q1421.67 38.935 1421.67 42.8991 Q1421.67 47.4129 1418.09 50.046 Q1414.53 52.6791 1408.28 52.6791 Q1405.67 52.6791 1402.84 52.1583 Q1400.03 51.6664 1396.9 50.6537 L1396.9 45.156 Q1399.86 46.6896 1402.72 47.4708 Q1405.59 48.2231 1408.39 48.2231 Q1412.15 48.2231 1414.18 46.95 Q1416.2 45.6479 1416.2 43.3042 Q1416.2 41.134 1414.73 39.9766 Q1413.28 38.8192 1408.33 37.7486 L1406.48 37.3146 Q1401.53 36.273 1399.34 34.1318 Q1397.14 31.9616 1397.14 28.2001 Q1397.14 23.6283 1400.38 21.1399 Q1403.62 18.6515 1409.58 18.6515 Q1412.53 18.6515 1415.13 19.0855 Q1417.74 19.5196 1419.94 20.3876 Z" fill="#000000" fill-rule="evenodd" fill-opacity="1" /><polyline clip-path="url(#clip912)" style="stroke:#e26f46; stroke-linecap:butt; stroke-linejoin:round; stroke-width:8; stroke-opacity:1; fill:none" points="
  403.977,204.577 433.527,204.577 463.076,204.577 492.625,204.577 522.175,204.577 551.724,204.577 581.273,204.577 610.823,204.577 640.372,204.577 669.921,204.577 
  699.471,204.577 729.02,204.577 758.569,204.577 788.119,204.577 817.668,204.577 847.217,204.577 876.767,204.577 906.316,204.577 935.865,204.577 965.415,204.577 
  994.964,204.577 1024.51,204.577 1054.06,204.577 1083.61,204.577 1113.16,204.577 1142.71,204.577 1172.26,204.577 1201.81,204.577 1231.36,204.577 1260.91,204.577 
  1290.46,204.577 1320.01,204.577 1349.56,204.577 1379.11,204.577 1408.65,204.577 1438.2,204.577 1467.75,204.577 1497.3,204.577 1526.85,204.577 1556.4,204.577 
  1585.95,204.577 1615.5,204.577 1645.05,204.577 1674.6,204.577 1704.15,204.577 1733.7,204.577 1763.25,204.577 1792.8,204.577 1822.35,204.577 1851.89,204.577 
  1881.44,204.577 1910.99,204.577 1940.54,204.577 1970.09,204.577 1999.64,204.577 2029.19,204.577 2058.74,204.577 2088.29,204.577 2117.84,204.577 2147.39,204.577 
  2176.94,204.577 2206.49,204.577 2236.04,204.577 2265.59,204.577 2295.13,204.577 
  "/>
<polyline clip-path="url(#clip912)" style="stroke:#3da44d; stroke-linecap:butt; stroke-linejoin:round; stroke-width:8; stroke-opacity:1; fill:none" points="
  403.977,208.398 433.527,208.398 463.076,208.398 492.625,208.398 522.175,208.398 551.724,208.398 581.273,208.398 610.823,208.398 640.372,208.398 669.921,208.398 
  699.471,208.398 729.02,208.398 758.569,208.398 788.119,208.398 817.668,208.398 847.217,208.398 876.767,208.398 906.316,208.398 935.865,208.398 965.415,208.398 
  994.964,208.398 1024.51,208.398 1054.06,208.398 1083.61,208.398 1113.16,208.398 1142.71,208.398 1172.26,208.398 1201.81,208.398 1231.36,208.398 1260.91,208.398 
  1290.46,208.398 1320.01,208.398 1349.56,208.398 1379.11,208.398 1408.65,208.398 1438.2,208.398 1467.75,208.398 1497.3,208.398 1526.85,208.398 1556.4,208.398 
  1585.95,208.398 1615.5,208.398 1645.05,208.398 1674.6,208.398 1704.15,208.398 1733.7,208.398 1763.25,208.398 1792.8,208.398 1822.35,208.398 1851.89,208.398 
  1881.44,208.398 1910.99,208.398 1940.54,208.398 1970.09,208.398 1999.64,208.398 2029.19,208.398 2058.74,208.398 2088.29,208.398 2117.84,208.398 2147.39,208.398 
  2176.94,208.398 2206.49,208.398 2236.04,208.398 2265.59,208.398 2295.13,208.398 
  "/>
<polyline clip-path="url(#clip912)" style="stroke:#c271d2; stroke-linecap:butt; stroke-linejoin:round; stroke-width:8; stroke-opacity:1; fill:none" points="
  403.977,223.683 433.527,223.683 463.076,223.683 492.625,223.683 522.175,223.683 551.724,223.683 581.273,223.683 610.823,223.683 640.372,223.683 669.921,223.683 
  699.471,223.683 729.02,223.683 758.569,223.683 788.119,223.683 817.668,223.683 847.217,223.683 876.767,223.683 906.316,223.683 935.865,223.683 965.415,223.683 
  994.964,223.683 1024.51,223.683 1054.06,223.683 1083.61,223.683 1113.16,223.683 1142.71,223.683 1172.26,223.683 1201.81,223.683 1231.36,223.683 1260.91,223.683 
  1290.46,223.683 1320.01,223.683 1349.56,223.683 1379.11,223.683 1408.65,223.683 1438.2,223.683 1467.75,223.683 1497.3,223.683 1526.85,223.683 1556.4,223.683 
  1585.95,223.683 1615.5,223.683 1645.05,223.683 1674.6,223.683 1704.15,223.683 1733.7,223.683 1763.25,223.683 1792.8,223.683 1822.35,223.683 1851.89,223.683 
  1881.44,223.683 1910.99,223.683 1940.54,223.683 1970.09,223.683 1999.64,223.683 2029.19,223.683 2058.74,223.683 2088.29,223.683 2117.84,223.683 2147.39,223.683 
  2176.94,223.683 2206.49,223.683 2236.04,223.683 2265.59,223.683 2295.13,223.683 
  "/>
<polyline clip-path="url(#clip912)" style="stroke:#ac8d18; stroke-linecap:butt; stroke-linejoin:round; stroke-width:8; stroke-opacity:1; fill:none" points="
  403.977,670.769 433.527,670.769 463.076,670.769 492.625,670.769 522.175,670.769 551.724,670.769 581.273,670.769 610.823,670.769 640.372,670.769 669.921,670.769 
  699.471,670.769 729.02,670.769 758.569,670.769 788.119,670.769 817.668,670.769 847.217,670.769 876.767,670.769 906.316,670.769 935.865,670.769 965.415,670.769 
  994.964,670.769 1024.51,670.769 1054.06,670.769 1083.61,670.769 1113.16,670.769 1142.71,670.769 1172.26,670.769 1201.81,670.769 1231.36,670.769 1260.91,670.769 
  1290.46,670.769 1320.01,670.769 1349.56,670.769 1379.11,670.769 1408.65,670.769 1438.2,670.769 1467.75,670.769 1497.3,670.769 1526.85,670.769 1556.4,670.769 
  1585.95,670.769 1615.5,670.769 1645.05,670.769 1674.6,670.769 1704.15,670.769 1733.7,670.769 1763.25,670.769 1792.8,670.769 1822.35,670.769 1851.89,670.769 
  1881.44,670.769 1910.99,670.769 1940.54,670.769 1970.09,670.769 1999.64,670.769 2029.19,670.769 2058.74,670.769 2088.29,670.769 2117.84,670.769 2147.39,670.769 
  2176.94,670.769 2206.49,670.769 2236.04,670.769 2265.59,670.769 2295.13,670.769 
  "/>
<polyline clip-path="url(#clip912)" style="stroke:#00a9ad; stroke-linecap:butt; stroke-linejoin:round; stroke-width:8; stroke-opacity:1; fill:none" points="
  403.977,143.437 433.527,143.437 463.076,143.437 492.625,143.437 522.175,143.437 551.724,143.437 581.273,143.437 610.823,143.437 640.372,143.437 669.921,143.437 
  699.471,143.437 729.02,143.437 758.569,143.437 788.119,143.437 817.668,143.437 847.217,143.437 876.767,143.437 906.316,143.437 935.865,143.437 965.415,143.437 
  994.964,143.437 1024.51,143.437 1054.06,143.437 1083.61,143.437 1113.16,143.437 1142.71,143.437 1172.26,143.437 1201.81,143.437 1231.36,143.437 1260.91,143.437 
  1290.46,143.437 1320.01,143.437 1349.56,143.437 1379.11,143.437 1408.65,143.437 1438.2,143.437 1467.75,143.437 1497.3,143.437 1526.85,143.437 1556.4,143.437 
  1585.95,143.437 1615.5,143.437 1645.05,143.437 1674.6,143.437 1704.15,143.437 1733.7,143.437 1763.25,143.437 1792.8,143.437 1822.35,143.437 1851.89,143.437 
  1881.44,143.437 1910.99,143.437 1940.54,143.437 1970.09,143.437 1999.64,143.437 2029.19,143.437 2058.74,143.437 2088.29,143.437 2117.84,143.437 2147.39,143.437 
  2176.94,143.437 2206.49,143.437 2236.04,143.437 2265.59,143.437 2295.13,143.437 
  "/>
<polyline clip-path="url(#clip912)" style="stroke:#009af9; stroke-linecap:butt; stroke-linejoin:round; stroke-width:12; stroke-opacity:1; fill:none" points="
  403.977,1384.93 433.527,1044.19 463.076,895.598 492.625,798.123 522.175,774.343 551.724,737.365 581.273,720.092 610.823,682.327 640.372,709.734 669.921,668.446 
  699.471,654.633 729.02,643.829 758.569,624.153 788.119,616.217 817.668,601.803 847.217,603.072 876.767,590.536 906.316,590.772 935.865,588.047 965.415,580.892 
  994.964,574.726 1024.51,563.091 1054.06,568.443 1083.61,568.814 1113.16,561.23 1142.71,555.297 1172.26,558.072 1201.81,556.436 1231.36,555.931 1260.91,553.346 
  1290.46,547.119 1320.01,545.286 1349.56,541.659 1379.11,541.405 1408.65,543.064 1438.2,541.133 1467.75,545.663 1497.3,543.652 1526.85,541.715 1556.4,540.865 
  1585.95,539.048 1615.5,539.101 1645.05,535.108 1674.6,534.218 1704.15,532.647 1733.7,531.72 1763.25,529.475 1792.8,527.526 1822.35,528.083 1851.89,527.26 
  
  "/>
<polyline clip-path="url(#clip912)" style="stroke:#f05f73; stroke-linecap:butt; stroke-linejoin:round; stroke-width:12; stroke-opacity:1; fill:none" points="
  1851.89,527.26 1881.44,513.91 1910.99,510.575 1940.54,508.478 1970.09,506.762 1999.64,504.979 2029.19,502.972 2058.74,501.201 2088.29,500.263 2117.84,499.8 
  2147.39,499.492 2176.94,499.254 2206.49,499.041 2236.04,498.838 2265.59,498.635 2295.13,498.427 
  "/>
</svg>
