<?xml version="1.0" encoding="utf-8"?>
<svg xmlns="http://www.w3.org/2000/svg" xmlns:xlink="http://www.w3.org/1999/xlink" width="600" height="400" viewBox="0 0 2400 1600">
<defs>
  <clipPath id="clip560">
    <rect x="0" y="0" width="2400" height="1600"/>
  </clipPath>
</defs>
<path clip-path="url(#clip560)" d="
M0 1600 L2400 1600 L2400 0 L0 0  Z
  " fill="#ffffff" fill-rule="evenodd" fill-opacity="1"/>
<defs>
  <clipPath id="clip561">
    <rect x="480" y="0" width="1681" height="1600"/>
  </clipPath>
</defs>
<path clip-path="url(#clip560)" d="
M206.571 1444.78 L2352.76 1444.78 L2352.76 106.192 L206.571 106.192  Z
  " fill="#eaeaea" fill-rule="evenodd" fill-opacity="1"/>
<defs>
  <clipPath id="clip562">
    <rect x="206" y="106" width="2147" height="1340"/>
  </clipPath>
</defs>
<polyline clip-path="url(#clip562)" style="stroke:#ffffff; stroke-linecap:butt; stroke-linejoin:round; stroke-width:4; stroke-opacity:1; fill:none" points="
  267.312,1444.78 267.312,106.192 
  "/>
<polyline clip-path="url(#clip562)" style="stroke:#ffffff; stroke-linecap:butt; stroke-linejoin:round; stroke-width:4; stroke-opacity:1; fill:none" points="
  469.782,1444.78 469.782,106.192 
  "/>
<polyline clip-path="url(#clip562)" style="stroke:#ffffff; stroke-linecap:butt; stroke-linejoin:round; stroke-width:4; stroke-opacity:1; fill:none" points="
  672.252,1444.78 672.252,106.192 
  "/>
<polyline clip-path="url(#clip562)" style="stroke:#ffffff; stroke-linecap:butt; stroke-linejoin:round; stroke-width:4; stroke-opacity:1; fill:none" points="
  874.723,1444.78 874.723,106.192 
  "/>
<polyline clip-path="url(#clip562)" style="stroke:#ffffff; stroke-linecap:butt; stroke-linejoin:round; stroke-width:4; stroke-opacity:1; fill:none" points="
  1077.19,1444.78 1077.19,106.192 
  "/>
<polyline clip-path="url(#clip562)" style="stroke:#ffffff; stroke-linecap:butt; stroke-linejoin:round; stroke-width:4; stroke-opacity:1; fill:none" points="
  1279.66,1444.78 1279.66,106.192 
  "/>
<polyline clip-path="url(#clip562)" style="stroke:#ffffff; stroke-linecap:butt; stroke-linejoin:round; stroke-width:4; stroke-opacity:1; fill:none" points="
  1482.13,1444.78 1482.13,106.192 
  "/>
<polyline clip-path="url(#clip562)" style="stroke:#ffffff; stroke-linecap:butt; stroke-linejoin:round; stroke-width:4; stroke-opacity:1; fill:none" points="
  1684.6,1444.78 1684.6,106.192 
  "/>
<polyline clip-path="url(#clip562)" style="stroke:#ffffff; stroke-linecap:butt; stroke-linejoin:round; stroke-width:4; stroke-opacity:1; fill:none" points="
  1887.07,1444.78 1887.07,106.192 
  "/>
<polyline clip-path="url(#clip562)" style="stroke:#ffffff; stroke-linecap:butt; stroke-linejoin:round; stroke-width:4; stroke-opacity:1; fill:none" points="
  2089.54,1444.78 2089.54,106.192 
  "/>
<polyline clip-path="url(#clip562)" style="stroke:#ffffff; stroke-linecap:butt; stroke-linejoin:round; stroke-width:4; stroke-opacity:1; fill:none" points="
  2292.01,1444.78 2292.01,106.192 
  "/>
<polyline clip-path="url(#clip562)" style="stroke:#ffffff; stroke-linecap:butt; stroke-linejoin:round; stroke-width:2; stroke-opacity:1; fill:none" points="
  368.547,1444.78 368.547,106.192 
  "/>
<polyline clip-path="url(#clip562)" style="stroke:#ffffff; stroke-linecap:butt; stroke-linejoin:round; stroke-width:2; stroke-opacity:1; fill:none" points="
  571.017,1444.78 571.017,106.192 
  "/>
<polyline clip-path="url(#clip562)" style="stroke:#ffffff; stroke-linecap:butt; stroke-linejoin:round; stroke-width:2; stroke-opacity:1; fill:none" points="
  773.487,1444.78 773.487,106.192 
  "/>
<polyline clip-path="url(#clip562)" style="stroke:#ffffff; stroke-linecap:butt; stroke-linejoin:round; stroke-width:2; stroke-opacity:1; fill:none" points="
  975.958,1444.78 975.958,106.192 
  "/>
<polyline clip-path="url(#clip562)" style="stroke:#ffffff; stroke-linecap:butt; stroke-linejoin:round; stroke-width:2; stroke-opacity:1; fill:none" points="
  1178.43,1444.78 1178.43,106.192 
  "/>
<polyline clip-path="url(#clip562)" style="stroke:#ffffff; stroke-linecap:butt; stroke-linejoin:round; stroke-width:2; stroke-opacity:1; fill:none" points="
  1380.9,1444.78 1380.9,106.192 
  "/>
<polyline clip-path="url(#clip562)" style="stroke:#ffffff; stroke-linecap:butt; stroke-linejoin:round; stroke-width:2; stroke-opacity:1; fill:none" points="
  1583.37,1444.78 1583.37,106.192 
  "/>
<polyline clip-path="url(#clip562)" style="stroke:#ffffff; stroke-linecap:butt; stroke-linejoin:round; stroke-width:2; stroke-opacity:1; fill:none" points="
  1785.84,1444.78 1785.84,106.192 
  "/>
<polyline clip-path="url(#clip562)" style="stroke:#ffffff; stroke-linecap:butt; stroke-linejoin:round; stroke-width:2; stroke-opacity:1; fill:none" points="
  1988.31,1444.78 1988.31,106.192 
  "/>
<polyline clip-path="url(#clip562)" style="stroke:#ffffff; stroke-linecap:butt; stroke-linejoin:round; stroke-width:2; stroke-opacity:1; fill:none" points="
  2190.78,1444.78 2190.78,106.192 
  "/>
<polyline clip-path="url(#clip560)" style="stroke:#ffffff; stroke-linecap:butt; stroke-linejoin:round; stroke-width:4; stroke-opacity:1; fill:none" points="
  206.571,1444.78 2352.76,1444.78 
  "/>
<polyline clip-path="url(#clip560)" style="stroke:#333333; stroke-linecap:butt; stroke-linejoin:round; stroke-width:4; stroke-opacity:1; fill:none" points="
  267.312,1444.78 267.312,1463.68 
  "/>
<polyline clip-path="url(#clip560)" style="stroke:#333333; stroke-linecap:butt; stroke-linejoin:round; stroke-width:4; stroke-opacity:1; fill:none" points="
  469.782,1444.78 469.782,1463.68 
  "/>
<polyline clip-path="url(#clip560)" style="stroke:#333333; stroke-linecap:butt; stroke-linejoin:round; stroke-width:4; stroke-opacity:1; fill:none" points="
  672.252,1444.78 672.252,1463.68 
  "/>
<polyline clip-path="url(#clip560)" style="stroke:#333333; stroke-linecap:butt; stroke-linejoin:round; stroke-width:4; stroke-opacity:1; fill:none" points="
  874.723,1444.78 874.723,1463.68 
  "/>
<polyline clip-path="url(#clip560)" style="stroke:#333333; stroke-linecap:butt; stroke-linejoin:round; stroke-width:4; stroke-opacity:1; fill:none" points="
  1077.19,1444.78 1077.19,1463.68 
  "/>
<polyline clip-path="url(#clip560)" style="stroke:#333333; stroke-linecap:butt; stroke-linejoin:round; stroke-width:4; stroke-opacity:1; fill:none" points="
  1279.66,1444.78 1279.66,1463.68 
  "/>
<polyline clip-path="url(#clip560)" style="stroke:#333333; stroke-linecap:butt; stroke-linejoin:round; stroke-width:4; stroke-opacity:1; fill:none" points="
  1482.13,1444.78 1482.13,1463.68 
  "/>
<polyline clip-path="url(#clip560)" style="stroke:#333333; stroke-linecap:butt; stroke-linejoin:round; stroke-width:4; stroke-opacity:1; fill:none" points="
  1684.6,1444.78 1684.6,1463.68 
  "/>
<polyline clip-path="url(#clip560)" style="stroke:#333333; stroke-linecap:butt; stroke-linejoin:round; stroke-width:4; stroke-opacity:1; fill:none" points="
  1887.07,1444.78 1887.07,1463.68 
  "/>
<polyline clip-path="url(#clip560)" style="stroke:#333333; stroke-linecap:butt; stroke-linejoin:round; stroke-width:4; stroke-opacity:1; fill:none" points="
  2089.54,1444.78 2089.54,1463.68 
  "/>
<polyline clip-path="url(#clip560)" style="stroke:#333333; stroke-linecap:butt; stroke-linejoin:round; stroke-width:4; stroke-opacity:1; fill:none" points="
  2292.01,1444.78 2292.01,1463.68 
  "/>
<polyline clip-path="url(#clip560)" style="stroke:#333333; stroke-linecap:butt; stroke-linejoin:round; stroke-width:4; stroke-opacity:1; fill:none" points="
  368.547,1444.78 368.547,1454.23 
  "/>
<polyline clip-path="url(#clip560)" style="stroke:#333333; stroke-linecap:butt; stroke-linejoin:round; stroke-width:4; stroke-opacity:1; fill:none" points="
  571.017,1444.78 571.017,1454.23 
  "/>
<polyline clip-path="url(#clip560)" style="stroke:#333333; stroke-linecap:butt; stroke-linejoin:round; stroke-width:4; stroke-opacity:1; fill:none" points="
  773.487,1444.78 773.487,1454.23 
  "/>
<polyline clip-path="url(#clip560)" style="stroke:#333333; stroke-linecap:butt; stroke-linejoin:round; stroke-width:4; stroke-opacity:1; fill:none" points="
  975.958,1444.78 975.958,1454.23 
  "/>
<polyline clip-path="url(#clip560)" style="stroke:#333333; stroke-linecap:butt; stroke-linejoin:round; stroke-width:4; stroke-opacity:1; fill:none" points="
  1178.43,1444.78 1178.43,1454.23 
  "/>
<polyline clip-path="url(#clip560)" style="stroke:#333333; stroke-linecap:butt; stroke-linejoin:round; stroke-width:4; stroke-opacity:1; fill:none" points="
  1380.9,1444.78 1380.9,1454.23 
  "/>
<polyline clip-path="url(#clip560)" style="stroke:#333333; stroke-linecap:butt; stroke-linejoin:round; stroke-width:4; stroke-opacity:1; fill:none" points="
  1583.37,1444.78 1583.37,1454.23 
  "/>
<polyline clip-path="url(#clip560)" style="stroke:#333333; stroke-linecap:butt; stroke-linejoin:round; stroke-width:4; stroke-opacity:1; fill:none" points="
  1785.84,1444.78 1785.84,1454.23 
  "/>
<polyline clip-path="url(#clip560)" style="stroke:#333333; stroke-linecap:butt; stroke-linejoin:round; stroke-width:4; stroke-opacity:1; fill:none" points="
  1988.31,1444.78 1988.31,1454.23 
  "/>
<polyline clip-path="url(#clip560)" style="stroke:#333333; stroke-linecap:butt; stroke-linejoin:round; stroke-width:4; stroke-opacity:1; fill:none" points="
  2190.78,1444.78 2190.78,1454.23 
  "/>
<path clip-path="url(#clip560)" d="M267.312 1482.37 Q264.603 1482.37 263.232 1485.04 Q261.878 1487.7 261.878 1493.05 Q261.878 1498.38 263.232 1501.05 Q264.603 1503.71 267.312 1503.71 Q270.037 1503.71 271.392 1501.05 Q272.763 1498.38 272.763 1493.05 Q272.763 1487.7 271.392 1485.04 Q270.037 1482.37 267.312 1482.37 M267.312 1479.59 Q271.669 1479.59 273.961 1483.05 Q276.27 1486.48 276.27 1493.05 Q276.27 1499.59 273.961 1503.05 Q271.669 1506.48 267.312 1506.48 Q262.954 1506.48 260.645 1503.05 Q258.353 1499.59 258.353 1493.05 Q258.353 1486.48 260.645 1483.05 Q262.954 1479.59 267.312 1479.59 Z" fill="#4c4c4c" fill-rule="evenodd" fill-opacity="1" /><path clip-path="url(#clip560)" d="M450.798 1503.03 L456.527 1503.03 L456.527 1483.25 L450.294 1484.5 L450.294 1481.31 L456.492 1480.06 L459.999 1480.06 L459.999 1503.03 L465.728 1503.03 L465.728 1505.98 L450.798 1505.98 L450.798 1503.03 Z" fill="#4c4c4c" fill-rule="evenodd" fill-opacity="1" /><path clip-path="url(#clip560)" d="M480.311 1482.37 Q477.603 1482.37 476.232 1485.04 Q474.877 1487.7 474.877 1493.05 Q474.877 1498.38 476.232 1501.05 Q477.603 1503.71 480.311 1503.71 Q483.037 1503.71 484.391 1501.05 Q485.763 1498.38 485.763 1493.05 Q485.763 1487.7 484.391 1485.04 Q483.037 1482.37 480.311 1482.37 M480.311 1479.59 Q484.669 1479.59 486.961 1483.05 Q489.27 1486.48 489.27 1493.05 Q489.27 1499.59 486.961 1503.05 Q484.669 1506.48 480.311 1506.48 Q475.954 1506.48 473.645 1503.05 Q471.353 1499.59 471.353 1493.05 Q471.353 1486.48 473.645 1483.05 Q475.954 1479.59 480.311 1479.59 Z" fill="#4c4c4c" fill-rule="evenodd" fill-opacity="1" /><path clip-path="url(#clip560)" d="M656.332 1503.03 L668.572 1503.03 L668.572 1505.98 L652.114 1505.98 L652.114 1503.03 Q654.11 1500.96 657.548 1497.49 Q661.002 1494 661.888 1492.99 Q663.572 1491.1 664.232 1489.8 Q664.909 1488.48 664.909 1487.21 Q664.909 1485.15 663.45 1483.84 Q662.009 1482.54 659.683 1482.54 Q658.034 1482.54 656.193 1483.12 Q654.37 1483.69 652.287 1484.85 L652.287 1481.31 Q654.405 1480.46 656.245 1480.03 Q658.086 1479.59 659.614 1479.59 Q663.641 1479.59 666.037 1481.6 Q668.433 1483.62 668.433 1486.99 Q668.433 1488.58 667.825 1490.03 Q667.235 1491.45 665.655 1493.39 Q665.221 1493.9 662.895 1496.31 Q660.568 1498.71 656.332 1503.03 Z" fill="#4c4c4c" fill-rule="evenodd" fill-opacity="1" /><path clip-path="url(#clip560)" d="M683.433 1482.37 Q680.725 1482.37 679.353 1485.04 Q677.999 1487.7 677.999 1493.05 Q677.999 1498.38 679.353 1501.05 Q680.725 1503.71 683.433 1503.71 Q686.159 1503.71 687.513 1501.05 Q688.884 1498.38 688.884 1493.05 Q688.884 1487.7 687.513 1485.04 Q686.159 1482.37 683.433 1482.37 M683.433 1479.59 Q687.79 1479.59 690.082 1483.05 Q692.391 1486.48 692.391 1493.05 Q692.391 1499.59 690.082 1503.05 Q687.79 1506.48 683.433 1506.48 Q679.075 1506.48 676.766 1503.05 Q674.475 1499.59 674.475 1493.05 Q674.475 1486.48 676.766 1483.05 Q679.075 1479.59 683.433 1479.59 Z" fill="#4c4c4c" fill-rule="evenodd" fill-opacity="1" /><path clip-path="url(#clip560)" d="M866.355 1492 Q868.872 1492.54 870.278 1494.24 Q871.702 1495.95 871.702 1498.45 Q871.702 1502.28 869.063 1504.38 Q866.424 1506.48 861.563 1506.48 Q859.931 1506.48 858.195 1506.15 Q856.476 1505.84 854.636 1505.2 L854.636 1501.81 Q856.094 1502.66 857.83 1503.1 Q859.566 1503.53 861.459 1503.53 Q864.757 1503.53 866.476 1502.23 Q868.212 1500.93 868.212 1498.45 Q868.212 1496.15 866.598 1494.87 Q865 1493.57 862.136 1493.57 L859.115 1493.57 L859.115 1490.68 L862.275 1490.68 Q864.862 1490.68 866.233 1489.66 Q867.605 1488.62 867.605 1486.67 Q867.605 1484.68 866.181 1483.62 Q864.775 1482.54 862.136 1482.54 Q860.695 1482.54 859.046 1482.85 Q857.396 1483.17 855.417 1483.83 L855.417 1480.7 Q857.414 1480.15 859.15 1479.87 Q860.903 1479.59 862.448 1479.59 Q866.441 1479.59 868.768 1481.41 Q871.094 1483.22 871.094 1486.31 Q871.094 1488.46 869.862 1489.96 Q868.629 1491.43 866.355 1492 Z" fill="#4c4c4c" fill-rule="evenodd" fill-opacity="1" /><path clip-path="url(#clip560)" d="M885.851 1482.37 Q883.143 1482.37 881.771 1485.04 Q880.417 1487.7 880.417 1493.05 Q880.417 1498.38 881.771 1501.05 Q883.143 1503.71 885.851 1503.71 Q888.577 1503.71 889.931 1501.05 Q891.302 1498.38 891.302 1493.05 Q891.302 1487.7 889.931 1485.04 Q888.577 1482.37 885.851 1482.37 M885.851 1479.59 Q890.209 1479.59 892.5 1483.05 Q894.809 1486.48 894.809 1493.05 Q894.809 1499.59 892.5 1503.05 Q890.209 1506.48 885.851 1506.48 Q881.493 1506.48 879.184 1503.05 Q876.893 1499.59 876.893 1493.05 Q876.893 1486.48 879.184 1483.05 Q881.493 1479.59 885.851 1479.59 Z" fill="#4c4c4c" fill-rule="evenodd" fill-opacity="1" /><path clip-path="url(#clip560)" d="M1068.32 1483.12 L1059.47 1496.95 L1068.32 1496.95 L1068.32 1483.12 M1067.4 1480.06 L1071.81 1480.06 L1071.81 1496.95 L1075.51 1496.95 L1075.51 1499.87 L1071.81 1499.87 L1071.81 1505.98 L1068.32 1505.98 L1068.32 1499.87 L1056.62 1499.87 L1056.62 1496.48 L1067.4 1480.06 Z" fill="#4c4c4c" fill-rule="evenodd" fill-opacity="1" /><path clip-path="url(#clip560)" d="M1088.81 1482.37 Q1086.1 1482.37 1084.73 1485.04 Q1083.37 1487.7 1083.37 1493.05 Q1083.37 1498.38 1084.73 1501.05 Q1086.1 1503.71 1088.81 1503.71 Q1091.53 1503.71 1092.89 1501.05 Q1094.26 1498.38 1094.26 1493.05 Q1094.26 1487.7 1092.89 1485.04 Q1091.53 1482.37 1088.81 1482.37 M1088.81 1479.59 Q1093.17 1479.59 1095.46 1483.05 Q1097.77 1486.48 1097.77 1493.05 Q1097.77 1499.59 1095.46 1503.05 Q1093.17 1506.48 1088.81 1506.48 Q1084.45 1506.48 1082.14 1503.05 Q1079.85 1499.59 1079.85 1493.05 Q1079.85 1486.48 1082.14 1483.05 Q1084.45 1479.59 1088.81 1479.59 Z" fill="#4c4c4c" fill-rule="evenodd" fill-opacity="1" /><path clip-path="url(#clip560)" d="M1260.69 1480.06 L1274.45 1480.06 L1274.45 1483.01 L1263.9 1483.01 L1263.9 1489.37 Q1264.66 1489.1 1265.43 1488.98 Q1266.19 1488.84 1266.95 1488.84 Q1271.3 1488.84 1273.83 1491.22 Q1276.36 1493.6 1276.36 1497.66 Q1276.36 1501.85 1273.76 1504.17 Q1271.16 1506.48 1266.42 1506.48 Q1264.78 1506.48 1263.08 1506.21 Q1261.4 1505.93 1259.59 1505.37 L1259.59 1501.85 Q1261.16 1502.7 1262.82 1503.12 Q1264.49 1503.53 1266.35 1503.53 Q1269.35 1503.53 1271.1 1501.95 Q1272.86 1500.37 1272.86 1497.66 Q1272.86 1494.96 1271.1 1493.38 Q1269.35 1491.8 1266.35 1491.8 Q1264.94 1491.8 1263.53 1492.11 Q1262.15 1492.42 1260.69 1493.08 L1260.69 1480.06 Z" fill="#4c4c4c" fill-rule="evenodd" fill-opacity="1" /><path clip-path="url(#clip560)" d="M1290.77 1482.37 Q1288.07 1482.37 1286.69 1485.04 Q1285.34 1487.7 1285.34 1493.05 Q1285.34 1498.38 1286.69 1501.05 Q1288.07 1503.71 1290.77 1503.71 Q1293.5 1503.71 1294.85 1501.05 Q1296.23 1498.38 1296.23 1493.05 Q1296.23 1487.7 1294.85 1485.04 Q1293.5 1482.37 1290.77 1482.37 M1290.77 1479.59 Q1295.13 1479.59 1297.42 1483.05 Q1299.73 1486.48 1299.73 1493.05 Q1299.73 1499.59 1297.42 1503.05 Q1295.13 1506.48 1290.77 1506.48 Q1286.42 1506.48 1284.11 1503.05 Q1281.82 1499.59 1281.82 1493.05 Q1281.82 1486.48 1284.11 1483.05 Q1286.42 1479.59 1290.77 1479.59 Z" fill="#4c4c4c" fill-rule="evenodd" fill-opacity="1" /><path clip-path="url(#clip560)" d="M1471.19 1491.62 Q1468.83 1491.62 1467.44 1493.24 Q1466.07 1494.85 1466.07 1497.66 Q1466.07 1500.46 1467.44 1502.09 Q1468.83 1503.71 1471.19 1503.71 Q1473.55 1503.71 1474.92 1502.09 Q1476.31 1500.46 1476.31 1497.66 Q1476.31 1494.85 1474.92 1493.24 Q1473.55 1491.62 1471.19 1491.62 M1478.15 1480.63 L1478.15 1483.83 Q1476.83 1483.2 1475.48 1482.87 Q1474.14 1482.54 1472.82 1482.54 Q1469.35 1482.54 1467.51 1484.89 Q1465.68 1487.23 1465.42 1491.97 Q1466.45 1490.46 1467.99 1489.66 Q1469.54 1488.84 1471.4 1488.84 Q1475.3 1488.84 1477.56 1491.22 Q1479.83 1493.58 1479.83 1497.66 Q1479.83 1501.66 1477.47 1504.07 Q1475.11 1506.48 1471.19 1506.48 Q1466.69 1506.48 1464.31 1503.05 Q1461.93 1499.59 1461.93 1493.05 Q1461.93 1486.9 1464.85 1483.25 Q1467.77 1479.59 1472.68 1479.59 Q1474 1479.59 1475.34 1479.85 Q1476.69 1480.11 1478.15 1480.63 Z" fill="#4c4c4c" fill-rule="evenodd" fill-opacity="1" /><path clip-path="url(#clip560)" d="M1493.37 1482.37 Q1490.67 1482.37 1489.29 1485.04 Q1487.94 1487.7 1487.94 1493.05 Q1487.94 1498.38 1489.29 1501.05 Q1490.67 1503.71 1493.37 1503.71 Q1496.1 1503.71 1497.45 1501.05 Q1498.83 1498.38 1498.83 1493.05 Q1498.83 1487.7 1497.45 1485.04 Q1496.1 1482.37 1493.37 1482.37 M1493.37 1479.59 Q1497.73 1479.59 1500.02 1483.05 Q1502.33 1486.48 1502.33 1493.05 Q1502.33 1499.59 1500.02 1503.05 Q1497.73 1506.48 1493.37 1506.48 Q1489.02 1506.48 1486.71 1503.05 Q1484.42 1499.59 1484.42 1493.05 Q1484.42 1486.48 1486.71 1483.05 Q1489.02 1479.59 1493.37 1479.59 Z" fill="#4c4c4c" fill-rule="evenodd" fill-opacity="1" /><path clip-path="url(#clip560)" d="M1664.62 1480.06 L1681.29 1480.06 L1681.29 1481.55 L1671.88 1505.98 L1668.22 1505.98 L1677.07 1483.01 L1664.62 1483.01 L1664.62 1480.06 Z" fill="#4c4c4c" fill-rule="evenodd" fill-opacity="1" /><path clip-path="url(#clip560)" d="M1695.63 1482.37 Q1692.92 1482.37 1691.55 1485.04 Q1690.19 1487.7 1690.19 1493.05 Q1690.19 1498.38 1691.55 1501.05 Q1692.92 1503.71 1695.63 1503.71 Q1698.35 1503.71 1699.71 1501.05 Q1701.08 1498.38 1701.08 1493.05 Q1701.08 1487.7 1699.71 1485.04 Q1698.35 1482.37 1695.63 1482.37 M1695.63 1479.59 Q1699.99 1479.59 1702.28 1483.05 Q1704.59 1486.48 1704.59 1493.05 Q1704.59 1499.59 1702.28 1503.05 Q1699.99 1506.48 1695.63 1506.48 Q1691.27 1506.48 1688.96 1503.05 Q1686.67 1499.59 1686.67 1493.05 Q1686.67 1486.48 1688.96 1483.05 Q1691.27 1479.59 1695.63 1479.59 Z" fill="#4c4c4c" fill-rule="evenodd" fill-opacity="1" /><path clip-path="url(#clip560)" d="M1875.73 1493.67 Q1873.23 1493.67 1871.79 1495.01 Q1870.36 1496.34 1870.36 1498.69 Q1870.36 1501.03 1871.79 1502.37 Q1873.23 1503.71 1875.73 1503.71 Q1878.23 1503.71 1879.67 1502.37 Q1881.11 1501.01 1881.11 1498.69 Q1881.11 1496.34 1879.67 1495.01 Q1878.25 1493.67 1875.73 1493.67 M1872.22 1492.18 Q1869.96 1491.62 1868.7 1490.08 Q1867.45 1488.53 1867.45 1486.31 Q1867.45 1483.2 1869.65 1481.4 Q1871.87 1479.59 1875.73 1479.59 Q1879.6 1479.59 1881.81 1481.4 Q1884.01 1483.2 1884.01 1486.31 Q1884.01 1488.53 1882.74 1490.08 Q1881.49 1491.62 1879.25 1492.18 Q1881.79 1492.77 1883.19 1494.49 Q1884.62 1496.21 1884.62 1498.69 Q1884.62 1502.46 1882.31 1504.47 Q1880.02 1506.48 1875.73 1506.48 Q1871.44 1506.48 1869.13 1504.47 Q1866.84 1502.46 1866.84 1498.69 Q1866.84 1496.21 1868.26 1494.49 Q1869.69 1492.77 1872.22 1492.18 M1870.94 1486.64 Q1870.94 1488.65 1872.19 1489.78 Q1873.45 1490.91 1875.73 1490.91 Q1877.99 1490.91 1879.25 1489.78 Q1880.54 1488.65 1880.54 1486.64 Q1880.54 1484.63 1879.25 1483.5 Q1877.99 1482.37 1875.73 1482.37 Q1873.45 1482.37 1872.19 1483.5 Q1870.94 1484.63 1870.94 1486.64 Z" fill="#4c4c4c" fill-rule="evenodd" fill-opacity="1" /><path clip-path="url(#clip560)" d="M1898.35 1482.37 Q1895.64 1482.37 1894.27 1485.04 Q1892.92 1487.7 1892.92 1493.05 Q1892.92 1498.38 1894.27 1501.05 Q1895.64 1503.71 1898.35 1503.71 Q1901.08 1503.71 1902.43 1501.05 Q1903.8 1498.38 1903.8 1493.05 Q1903.8 1487.7 1902.43 1485.04 Q1901.08 1482.37 1898.35 1482.37 M1898.35 1479.59 Q1902.71 1479.59 1905 1483.05 Q1907.31 1486.48 1907.31 1493.05 Q1907.31 1499.59 1905 1503.05 Q1902.71 1506.48 1898.35 1506.48 Q1893.99 1506.48 1891.68 1503.05 Q1889.39 1499.59 1889.39 1493.05 Q1889.39 1486.48 1891.68 1483.05 Q1893.99 1479.59 1898.35 1479.59 Z" fill="#4c4c4c" fill-rule="evenodd" fill-opacity="1" /><path clip-path="url(#clip560)" d="M2070.89 1505.44 L2070.89 1502.25 Q2072.21 1502.87 2073.56 1503.2 Q2074.92 1503.53 2076.22 1503.53 Q2079.69 1503.53 2081.52 1501.21 Q2083.36 1498.86 2083.62 1494.1 Q2082.61 1495.6 2081.06 1496.4 Q2079.52 1497.2 2077.64 1497.2 Q2073.75 1497.2 2071.48 1494.85 Q2069.22 1492.49 2069.22 1488.41 Q2069.22 1484.42 2071.58 1482 Q2073.95 1479.59 2077.87 1479.59 Q2082.37 1479.59 2084.73 1483.05 Q2087.11 1486.48 2087.11 1493.05 Q2087.11 1499.17 2084.19 1502.84 Q2081.29 1506.48 2076.38 1506.48 Q2075.06 1506.48 2073.7 1506.22 Q2072.35 1505.96 2070.89 1505.44 M2077.87 1494.45 Q2080.23 1494.45 2081.6 1492.84 Q2082.99 1491.22 2082.99 1488.41 Q2082.99 1485.62 2081.6 1484 Q2080.23 1482.37 2077.87 1482.37 Q2075.51 1482.37 2074.12 1484 Q2072.75 1485.62 2072.75 1488.41 Q2072.75 1491.22 2074.12 1492.84 Q2075.51 1494.45 2077.87 1494.45 Z" fill="#4c4c4c" fill-rule="evenodd" fill-opacity="1" /><path clip-path="url(#clip560)" d="M2100.91 1482.37 Q2098.2 1482.37 2096.83 1485.04 Q2095.47 1487.7 2095.47 1493.05 Q2095.47 1498.38 2096.83 1501.05 Q2098.2 1503.71 2100.91 1503.71 Q2103.63 1503.71 2104.99 1501.05 Q2106.36 1498.38 2106.36 1493.05 Q2106.36 1487.7 2104.99 1485.04 Q2103.63 1482.37 2100.91 1482.37 M2100.91 1479.59 Q2105.26 1479.59 2107.56 1483.05 Q2109.87 1486.48 2109.87 1493.05 Q2109.87 1499.59 2107.56 1503.05 Q2105.26 1506.48 2100.91 1506.48 Q2096.55 1506.48 2094.24 1503.05 Q2091.95 1499.59 2091.95 1493.05 Q2091.95 1486.48 2094.24 1483.05 Q2096.55 1479.59 2100.91 1479.59 Z" fill="#4c4c4c" fill-rule="evenodd" fill-opacity="1" /><path clip-path="url(#clip560)" d="M2261.72 1503.03 L2267.45 1503.03 L2267.45 1483.25 L2261.22 1484.5 L2261.22 1481.31 L2267.41 1480.06 L2270.92 1480.06 L2270.92 1503.03 L2276.65 1503.03 L2276.65 1505.98 L2261.72 1505.98 L2261.72 1503.03 Z" fill="#4c4c4c" fill-rule="evenodd" fill-opacity="1" /><path clip-path="url(#clip560)" d="M2291.23 1482.37 Q2288.53 1482.37 2287.15 1485.04 Q2285.8 1487.7 2285.8 1493.05 Q2285.8 1498.38 2287.15 1501.05 Q2288.53 1503.71 2291.23 1503.71 Q2293.96 1503.71 2295.31 1501.05 Q2296.68 1498.38 2296.68 1493.05 Q2296.68 1487.7 2295.31 1485.04 Q2293.96 1482.37 2291.23 1482.37 M2291.23 1479.59 Q2295.59 1479.59 2297.88 1483.05 Q2300.19 1486.48 2300.19 1493.05 Q2300.19 1499.59 2297.88 1503.05 Q2295.59 1506.48 2291.23 1506.48 Q2286.88 1506.48 2284.57 1503.05 Q2282.28 1499.59 2282.28 1493.05 Q2282.28 1486.48 2284.57 1483.05 Q2286.88 1479.59 2291.23 1479.59 Z" fill="#4c4c4c" fill-rule="evenodd" fill-opacity="1" /><path clip-path="url(#clip560)" d="M2313.85 1482.37 Q2311.15 1482.37 2309.78 1485.04 Q2308.42 1487.7 2308.42 1493.05 Q2308.42 1498.38 2309.78 1501.05 Q2311.15 1503.71 2313.85 1503.71 Q2316.58 1503.71 2317.93 1501.05 Q2319.31 1498.38 2319.31 1493.05 Q2319.31 1487.7 2317.93 1485.04 Q2316.58 1482.37 2313.85 1482.37 M2313.85 1479.59 Q2318.21 1479.59 2320.5 1483.05 Q2322.81 1486.48 2322.81 1493.05 Q2322.81 1499.59 2320.5 1503.05 Q2318.21 1506.48 2313.85 1506.48 Q2309.5 1506.48 2307.19 1503.05 Q2304.9 1499.59 2304.9 1493.05 Q2304.9 1486.48 2307.19 1483.05 Q2309.5 1479.59 2313.85 1479.59 Z" fill="#4c4c4c" fill-rule="evenodd" fill-opacity="1" /><path clip-path="url(#clip560)" d="M1170.25 1526.57 L1174.93 1526.57 L1174.93 1561.13 L1170.25 1561.13 L1170.25 1526.57 Z" fill="#000000" fill-rule="evenodd" fill-opacity="1" /><path clip-path="url(#clip560)" d="M1188.26 1527.84 L1188.26 1535.21 L1197.04 1535.21 L1197.04 1538.52 L1188.26 1538.52 L1188.26 1552.59 Q1188.26 1555.76 1189.12 1556.66 Q1190 1557.57 1192.66 1557.57 L1197.04 1557.57 L1197.04 1561.13 L1192.66 1561.13 Q1187.73 1561.13 1185.86 1559.3 Q1183.98 1557.45 1183.98 1552.59 L1183.98 1538.52 L1180.86 1538.52 L1180.86 1535.21 L1183.98 1535.21 L1183.98 1527.84 L1188.26 1527.84 Z" fill="#000000" fill-rule="evenodd" fill-opacity="1" /><path clip-path="url(#clip560)" d="M1224.81 1547.1 L1224.81 1549.19 L1205.23 1549.19 Q1205.51 1553.59 1207.87 1555.9 Q1210.25 1558.19 1214.49 1558.19 Q1216.94 1558.19 1219.24 1557.59 Q1221.55 1556.99 1223.82 1555.78 L1223.82 1559.81 Q1221.53 1560.78 1219.12 1561.29 Q1216.71 1561.8 1214.24 1561.8 Q1208.03 1561.8 1204.4 1558.19 Q1200.79 1554.58 1200.79 1548.42 Q1200.79 1542.06 1204.21 1538.33 Q1207.66 1534.58 1213.49 1534.58 Q1218.73 1534.58 1221.76 1537.96 Q1224.81 1541.32 1224.81 1547.1 M1220.55 1545.85 Q1220.51 1542.36 1218.59 1540.28 Q1216.69 1538.19 1213.54 1538.19 Q1209.98 1538.19 1207.82 1540.21 Q1205.69 1542.22 1205.37 1545.88 L1220.55 1545.85 Z" fill="#000000" fill-rule="evenodd" fill-opacity="1" /><path clip-path="url(#clip560)" d="M1246.83 1539.19 Q1246.11 1538.77 1245.25 1538.59 Q1244.42 1538.38 1243.4 1538.38 Q1239.79 1538.38 1237.85 1540.74 Q1235.93 1543.08 1235.93 1547.47 L1235.93 1561.13 L1231.64 1561.13 L1231.64 1535.21 L1235.93 1535.21 L1235.93 1539.23 Q1237.27 1536.87 1239.42 1535.74 Q1241.57 1534.58 1244.65 1534.58 Q1245.09 1534.58 1245.62 1534.65 Q1246.16 1534.7 1246.8 1534.81 L1246.83 1539.19 Z" fill="#000000" fill-rule="evenodd" fill-opacity="1" /><path clip-path="url(#clip560)" d="M1263.08 1548.1 Q1257.92 1548.1 1255.92 1549.28 Q1253.93 1550.46 1253.93 1553.31 Q1253.93 1555.58 1255.42 1556.92 Q1256.92 1558.24 1259.49 1558.24 Q1263.03 1558.24 1265.16 1555.74 Q1267.31 1553.22 1267.31 1549.05 L1267.31 1548.1 L1263.08 1548.1 M1271.57 1546.34 L1271.57 1561.13 L1267.31 1561.13 L1267.31 1557.2 Q1265.86 1559.56 1263.68 1560.69 Q1261.5 1561.8 1258.36 1561.8 Q1254.37 1561.8 1252.01 1559.58 Q1249.67 1557.34 1249.67 1553.59 Q1249.67 1549.21 1252.59 1546.99 Q1255.53 1544.77 1261.34 1544.77 L1267.31 1544.77 L1267.31 1544.35 Q1267.31 1541.41 1265.37 1539.81 Q1263.45 1538.19 1259.95 1538.19 Q1257.73 1538.19 1255.62 1538.72 Q1253.52 1539.26 1251.57 1540.32 L1251.57 1536.39 Q1253.91 1535.48 1256.11 1535.04 Q1258.31 1534.58 1260.39 1534.58 Q1266.02 1534.58 1268.8 1537.5 Q1271.57 1540.41 1271.57 1546.34 Z" fill="#000000" fill-rule="evenodd" fill-opacity="1" /><path clip-path="url(#clip560)" d="M1284.56 1527.84 L1284.56 1535.21 L1293.33 1535.21 L1293.33 1538.52 L1284.56 1538.52 L1284.56 1552.59 Q1284.56 1555.76 1285.42 1556.66 Q1286.3 1557.57 1288.96 1557.57 L1293.33 1557.57 L1293.33 1561.13 L1288.96 1561.13 Q1284.03 1561.13 1282.15 1559.3 Q1280.28 1557.45 1280.28 1552.59 L1280.28 1538.52 L1277.15 1538.52 L1277.15 1535.21 L1280.28 1535.21 L1280.28 1527.84 L1284.56 1527.84 Z" fill="#000000" fill-rule="evenodd" fill-opacity="1" /><path clip-path="url(#clip560)" d="M1298.93 1535.21 L1303.19 1535.21 L1303.19 1561.13 L1298.93 1561.13 L1298.93 1535.21 M1298.93 1525.11 L1303.19 1525.11 L1303.19 1530.51 L1298.93 1530.51 L1298.93 1525.11 Z" fill="#000000" fill-rule="evenodd" fill-opacity="1" /><path clip-path="url(#clip560)" d="M1322.15 1538.19 Q1318.73 1538.19 1316.73 1540.88 Q1314.74 1543.54 1314.74 1548.19 Q1314.74 1552.84 1316.71 1555.53 Q1318.7 1558.19 1322.15 1558.19 Q1325.55 1558.19 1327.54 1555.51 Q1329.54 1552.82 1329.54 1548.19 Q1329.54 1543.59 1327.54 1540.9 Q1325.55 1538.19 1322.15 1538.19 M1322.15 1534.58 Q1327.71 1534.58 1330.88 1538.19 Q1334.05 1541.8 1334.05 1548.19 Q1334.05 1554.56 1330.88 1558.19 Q1327.71 1561.8 1322.15 1561.8 Q1316.57 1561.8 1313.4 1558.19 Q1310.25 1554.56 1310.25 1548.19 Q1310.25 1541.8 1313.4 1538.19 Q1316.57 1534.58 1322.15 1534.58 Z" fill="#000000" fill-rule="evenodd" fill-opacity="1" /><path clip-path="url(#clip560)" d="M1362.66 1545.48 L1362.66 1561.13 L1358.4 1561.13 L1358.4 1545.62 Q1358.4 1541.94 1356.97 1540.11 Q1355.53 1538.28 1352.66 1538.28 Q1349.21 1538.28 1347.22 1540.48 Q1345.23 1542.68 1345.23 1546.48 L1345.23 1561.13 L1340.95 1561.13 L1340.95 1535.21 L1345.23 1535.21 L1345.23 1539.23 Q1346.76 1536.9 1348.82 1535.74 Q1350.9 1534.58 1353.61 1534.58 Q1358.08 1534.58 1360.37 1537.36 Q1362.66 1540.11 1362.66 1545.48 Z" fill="#000000" fill-rule="evenodd" fill-opacity="1" /><path clip-path="url(#clip560)" d="M1387.68 1535.97 L1387.68 1540 Q1385.88 1539.07 1383.93 1538.61 Q1381.99 1538.15 1379.91 1538.15 Q1376.73 1538.15 1375.14 1539.12 Q1373.56 1540.09 1373.56 1542.03 Q1373.56 1543.52 1374.7 1544.37 Q1375.83 1545.21 1379.26 1545.97 L1380.72 1546.29 Q1385.25 1547.27 1387.15 1549.05 Q1389.07 1550.81 1389.07 1553.98 Q1389.07 1557.59 1386.2 1559.7 Q1383.35 1561.8 1378.35 1561.8 Q1376.27 1561.8 1374 1561.39 Q1371.76 1560.99 1369.26 1560.18 L1369.26 1555.78 Q1371.62 1557.01 1373.91 1557.64 Q1376.2 1558.24 1378.45 1558.24 Q1381.46 1558.24 1383.08 1557.22 Q1384.7 1556.18 1384.7 1554.3 Q1384.7 1552.57 1383.52 1551.64 Q1382.36 1550.72 1378.4 1549.86 L1376.92 1549.51 Q1372.96 1548.68 1371.2 1546.97 Q1369.44 1545.23 1369.44 1542.22 Q1369.44 1538.56 1372.04 1536.57 Q1374.63 1534.58 1379.4 1534.58 Q1381.76 1534.58 1383.84 1534.93 Q1385.92 1535.28 1387.68 1535.97 Z" fill="#000000" fill-rule="evenodd" fill-opacity="1" /><polyline clip-path="url(#clip562)" style="stroke:#ffffff; stroke-linecap:butt; stroke-linejoin:round; stroke-width:4; stroke-opacity:1; fill:none" points="
  206.571,1368.02 2352.76,1368.02 
  "/>
<polyline clip-path="url(#clip562)" style="stroke:#ffffff; stroke-linecap:butt; stroke-linejoin:round; stroke-width:4; stroke-opacity:1; fill:none" points="
  206.571,1172.19 2352.76,1172.19 
  "/>
<polyline clip-path="url(#clip562)" style="stroke:#ffffff; stroke-linecap:butt; stroke-linejoin:round; stroke-width:4; stroke-opacity:1; fill:none" points="
  206.571,976.358 2352.76,976.358 
  "/>
<polyline clip-path="url(#clip562)" style="stroke:#ffffff; stroke-linecap:butt; stroke-linejoin:round; stroke-width:4; stroke-opacity:1; fill:none" points="
  206.571,780.527 2352.76,780.527 
  "/>
<polyline clip-path="url(#clip562)" style="stroke:#ffffff; stroke-linecap:butt; stroke-linejoin:round; stroke-width:4; stroke-opacity:1; fill:none" points="
  206.571,584.696 2352.76,584.696 
  "/>
<polyline clip-path="url(#clip562)" style="stroke:#ffffff; stroke-linecap:butt; stroke-linejoin:round; stroke-width:4; stroke-opacity:1; fill:none" points="
  206.571,388.865 2352.76,388.865 
  "/>
<polyline clip-path="url(#clip562)" style="stroke:#ffffff; stroke-linecap:butt; stroke-linejoin:round; stroke-width:4; stroke-opacity:1; fill:none" points="
  206.571,193.034 2352.76,193.034 
  "/>
<polyline clip-path="url(#clip562)" style="stroke:#ffffff; stroke-linecap:butt; stroke-linejoin:round; stroke-width:2; stroke-opacity:1; fill:none" points="
  206.571,1270.1 2352.76,1270.1 
  "/>
<polyline clip-path="url(#clip562)" style="stroke:#ffffff; stroke-linecap:butt; stroke-linejoin:round; stroke-width:2; stroke-opacity:1; fill:none" points="
  206.571,1074.27 2352.76,1074.27 
  "/>
<polyline clip-path="url(#clip562)" style="stroke:#ffffff; stroke-linecap:butt; stroke-linejoin:round; stroke-width:2; stroke-opacity:1; fill:none" points="
  206.571,878.443 2352.76,878.443 
  "/>
<polyline clip-path="url(#clip562)" style="stroke:#ffffff; stroke-linecap:butt; stroke-linejoin:round; stroke-width:2; stroke-opacity:1; fill:none" points="
  206.571,682.612 2352.76,682.612 
  "/>
<polyline clip-path="url(#clip562)" style="stroke:#ffffff; stroke-linecap:butt; stroke-linejoin:round; stroke-width:2; stroke-opacity:1; fill:none" points="
  206.571,486.781 2352.76,486.781 
  "/>
<polyline clip-path="url(#clip562)" style="stroke:#ffffff; stroke-linecap:butt; stroke-linejoin:round; stroke-width:2; stroke-opacity:1; fill:none" points="
  206.571,290.95 2352.76,290.95 
  "/>
<polyline clip-path="url(#clip560)" style="stroke:#ffffff; stroke-linecap:butt; stroke-linejoin:round; stroke-width:4; stroke-opacity:1; fill:none" points="
  206.571,1444.78 206.571,106.192 
  "/>
<polyline clip-path="url(#clip560)" style="stroke:#333333; stroke-linecap:butt; stroke-linejoin:round; stroke-width:4; stroke-opacity:1; fill:none" points="
  206.571,1368.02 187.673,1368.02 
  "/>
<polyline clip-path="url(#clip560)" style="stroke:#333333; stroke-linecap:butt; stroke-linejoin:round; stroke-width:4; stroke-opacity:1; fill:none" points="
  206.571,1172.19 187.673,1172.19 
  "/>
<polyline clip-path="url(#clip560)" style="stroke:#333333; stroke-linecap:butt; stroke-linejoin:round; stroke-width:4; stroke-opacity:1; fill:none" points="
  206.571,976.358 187.673,976.358 
  "/>
<polyline clip-path="url(#clip560)" style="stroke:#333333; stroke-linecap:butt; stroke-linejoin:round; stroke-width:4; stroke-opacity:1; fill:none" points="
  206.571,780.527 187.673,780.527 
  "/>
<polyline clip-path="url(#clip560)" style="stroke:#333333; stroke-linecap:butt; stroke-linejoin:round; stroke-width:4; stroke-opacity:1; fill:none" points="
  206.571,584.696 187.673,584.696 
  "/>
<polyline clip-path="url(#clip560)" style="stroke:#333333; stroke-linecap:butt; stroke-linejoin:round; stroke-width:4; stroke-opacity:1; fill:none" points="
  206.571,388.865 187.673,388.865 
  "/>
<polyline clip-path="url(#clip560)" style="stroke:#333333; stroke-linecap:butt; stroke-linejoin:round; stroke-width:4; stroke-opacity:1; fill:none" points="
  206.571,193.034 187.673,193.034 
  "/>
<polyline clip-path="url(#clip560)" style="stroke:#333333; stroke-linecap:butt; stroke-linejoin:round; stroke-width:4; stroke-opacity:1; fill:none" points="
  206.571,1270.1 197.122,1270.1 
  "/>
<polyline clip-path="url(#clip560)" style="stroke:#333333; stroke-linecap:butt; stroke-linejoin:round; stroke-width:4; stroke-opacity:1; fill:none" points="
  206.571,1074.27 197.122,1074.27 
  "/>
<polyline clip-path="url(#clip560)" style="stroke:#333333; stroke-linecap:butt; stroke-linejoin:round; stroke-width:4; stroke-opacity:1; fill:none" points="
  206.571,878.443 197.122,878.443 
  "/>
<polyline clip-path="url(#clip560)" style="stroke:#333333; stroke-linecap:butt; stroke-linejoin:round; stroke-width:4; stroke-opacity:1; fill:none" points="
  206.571,682.612 197.122,682.612 
  "/>
<polyline clip-path="url(#clip560)" style="stroke:#333333; stroke-linecap:butt; stroke-linejoin:round; stroke-width:4; stroke-opacity:1; fill:none" points="
  206.571,486.781 197.122,486.781 
  "/>
<polyline clip-path="url(#clip560)" style="stroke:#333333; stroke-linecap:butt; stroke-linejoin:round; stroke-width:4; stroke-opacity:1; fill:none" points="
  206.571,290.95 197.122,290.95 
  "/>
<path clip-path="url(#clip560)" d="M83.8036 1368.36 L106.06 1368.36 L106.06 1371.31 L83.8036 1371.31 L83.8036 1368.36 Z" fill="#4c4c4c" fill-rule="evenodd" fill-opacity="1" /><path clip-path="url(#clip560)" d="M116.651 1378.03 L128.89 1378.03 L128.89 1380.98 L112.432 1380.98 L112.432 1378.03 Q114.428 1375.96 117.866 1372.49 Q121.321 1369 122.206 1367.99 Q123.89 1366.1 124.55 1364.8 Q125.227 1363.48 125.227 1362.21 Q125.227 1360.15 123.769 1358.84 Q122.328 1357.54 120.001 1357.54 Q118.352 1357.54 116.512 1358.12 Q114.689 1358.69 112.606 1359.85 L112.606 1356.31 Q114.724 1355.46 116.564 1355.03 Q118.404 1354.59 119.932 1354.59 Q123.96 1354.59 126.355 1356.61 Q128.751 1358.62 128.751 1361.99 Q128.751 1363.58 128.144 1365.03 Q127.553 1366.45 125.974 1368.39 Q125.54 1368.9 123.213 1371.31 Q120.887 1373.71 116.651 1378.03 Z" fill="#4c4c4c" fill-rule="evenodd" fill-opacity="1" /><path clip-path="url(#clip560)" d="M136.355 1380.44 L136.355 1377.25 Q137.675 1377.87 139.029 1378.2 Q140.383 1378.53 141.685 1378.53 Q145.157 1378.53 146.98 1376.21 Q148.821 1373.86 149.081 1369.11 Q148.074 1370.6 146.529 1371.4 Q144.984 1372.2 143.109 1372.2 Q139.22 1372.2 136.946 1369.85 Q134.689 1367.49 134.689 1363.41 Q134.689 1359.42 137.05 1357 Q139.411 1354.59 143.335 1354.59 Q147.831 1354.59 150.192 1358.05 Q152.571 1361.48 152.571 1368.05 Q152.571 1374.17 149.654 1377.84 Q146.755 1381.48 141.842 1381.48 Q140.522 1381.48 139.168 1381.22 Q137.814 1380.96 136.355 1380.44 M143.335 1369.45 Q145.696 1369.45 147.067 1367.84 Q148.456 1366.22 148.456 1363.41 Q148.456 1360.62 147.067 1359 Q145.696 1357.37 143.335 1357.37 Q140.973 1357.37 139.585 1359 Q138.213 1360.62 138.213 1363.41 Q138.213 1366.22 139.585 1367.84 Q140.973 1369.45 143.335 1369.45 Z" fill="#4c4c4c" fill-rule="evenodd" fill-opacity="1" /><path clip-path="url(#clip560)" d="M83.7342 1172.53 L105.991 1172.53 L105.991 1175.48 L83.7342 1175.48 L83.7342 1172.53 Z" fill="#4c4c4c" fill-rule="evenodd" fill-opacity="1" /><path clip-path="url(#clip560)" d="M116.581 1182.2 L128.821 1182.2 L128.821 1185.15 L112.363 1185.15 L112.363 1182.2 Q114.359 1180.13 117.797 1176.66 Q121.251 1173.17 122.137 1172.16 Q123.821 1170.27 124.48 1168.97 Q125.158 1167.65 125.158 1166.38 Q125.158 1164.32 123.699 1163.01 Q122.258 1161.71 119.932 1161.71 Q118.283 1161.71 116.442 1162.28 Q114.619 1162.86 112.536 1164.02 L112.536 1160.48 Q114.654 1159.63 116.494 1159.19 Q118.335 1158.76 119.862 1158.76 Q123.89 1158.76 126.286 1160.77 Q128.682 1162.79 128.682 1166.16 Q128.682 1167.75 128.074 1169.19 Q127.484 1170.62 125.904 1172.56 Q125.47 1173.07 123.144 1175.48 Q120.817 1177.87 116.581 1182.2 Z" fill="#4c4c4c" fill-rule="evenodd" fill-opacity="1" /><path clip-path="url(#clip560)" d="M143.682 1172.84 Q141.182 1172.84 139.741 1174.18 Q138.317 1175.51 138.317 1177.86 Q138.317 1180.2 139.741 1181.54 Q141.182 1182.87 143.682 1182.87 Q146.182 1182.87 147.623 1181.54 Q149.064 1180.18 149.064 1177.86 Q149.064 1175.51 147.623 1174.18 Q146.199 1172.84 143.682 1172.84 M140.175 1171.35 Q137.918 1170.79 136.651 1169.25 Q135.401 1167.7 135.401 1165.48 Q135.401 1162.37 137.605 1160.57 Q139.828 1158.76 143.682 1158.76 Q147.553 1158.76 149.758 1160.57 Q151.963 1162.37 151.963 1165.48 Q151.963 1167.7 150.696 1169.25 Q149.446 1170.79 147.206 1171.35 Q149.741 1171.94 151.147 1173.66 Q152.571 1175.37 152.571 1177.86 Q152.571 1181.62 150.262 1183.64 Q147.97 1185.65 143.682 1185.65 Q139.394 1185.65 137.085 1183.64 Q134.793 1181.62 134.793 1177.86 Q134.793 1175.37 136.217 1173.66 Q137.64 1171.94 140.175 1171.35 M138.89 1165.81 Q138.89 1167.82 140.14 1168.95 Q141.407 1170.08 143.682 1170.08 Q145.939 1170.08 147.206 1168.95 Q148.491 1167.82 148.491 1165.81 Q148.491 1163.8 147.206 1162.67 Q145.939 1161.54 143.682 1161.54 Q141.407 1161.54 140.14 1162.67 Q138.89 1163.8 138.89 1165.81 Z" fill="#4c4c4c" fill-rule="evenodd" fill-opacity="1" /><path clip-path="url(#clip560)" d="M84.3418 976.697 L106.599 976.697 L106.599 979.648 L84.3418 979.648 L84.3418 976.697 Z" fill="#4c4c4c" fill-rule="evenodd" fill-opacity="1" /><path clip-path="url(#clip560)" d="M117.189 986.367 L129.428 986.367 L129.428 989.318 L112.97 989.318 L112.97 986.367 Q114.967 984.301 118.404 980.829 Q121.859 977.339 122.744 976.332 Q124.428 974.44 125.088 973.138 Q125.765 971.818 125.765 970.551 Q125.765 968.485 124.307 967.183 Q122.866 965.881 120.54 965.881 Q118.89 965.881 117.05 966.454 Q115.227 967.027 113.144 968.19 L113.144 964.648 Q115.262 963.797 117.102 963.363 Q118.942 962.929 120.47 962.929 Q124.498 962.929 126.894 964.943 Q129.289 966.957 129.289 970.325 Q129.289 971.922 128.682 973.363 Q128.092 974.787 126.512 976.731 Q126.078 977.235 123.751 979.648 Q121.425 982.044 117.189 986.367 Z" fill="#4c4c4c" fill-rule="evenodd" fill-opacity="1" /><path clip-path="url(#clip560)" d="M135.904 963.398 L152.571 963.398 L152.571 964.891 L143.161 989.318 L139.498 989.318 L148.352 966.35 L135.904 966.35 L135.904 963.398 Z" fill="#4c4c4c" fill-rule="evenodd" fill-opacity="1" /><path clip-path="url(#clip560)" d="M83.5432 780.866 L105.8 780.866 L105.8 783.817 L83.5432 783.817 L83.5432 780.866 Z" fill="#4c4c4c" fill-rule="evenodd" fill-opacity="1" /><path clip-path="url(#clip560)" d="M116.39 790.536 L128.63 790.536 L128.63 793.487 L112.172 793.487 L112.172 790.536 Q114.168 788.47 117.606 784.998 Q121.06 781.508 121.946 780.501 Q123.63 778.609 124.29 777.307 Q124.967 775.987 124.967 774.72 Q124.967 772.654 123.508 771.352 Q122.067 770.05 119.741 770.05 Q118.092 770.05 116.251 770.623 Q114.428 771.196 112.345 772.359 L112.345 768.817 Q114.463 767.967 116.303 767.533 Q118.144 767.098 119.671 767.098 Q123.699 767.098 126.095 769.112 Q128.491 771.126 128.491 774.494 Q128.491 776.091 127.883 777.532 Q127.293 778.956 125.713 780.9 Q125.279 781.404 122.953 783.817 Q120.626 786.213 116.39 790.536 Z" fill="#4c4c4c" fill-rule="evenodd" fill-opacity="1" /><path clip-path="url(#clip560)" d="M143.925 779.13 Q141.564 779.13 140.175 780.744 Q138.803 782.359 138.803 785.171 Q138.803 787.966 140.175 789.598 Q141.564 791.213 143.925 791.213 Q146.286 791.213 147.657 789.598 Q149.046 787.966 149.046 785.171 Q149.046 782.359 147.657 780.744 Q146.286 779.13 143.925 779.13 M150.887 768.14 L150.887 771.335 Q149.567 770.71 148.213 770.38 Q146.876 770.05 145.557 770.05 Q142.085 770.05 140.244 772.394 Q138.421 774.737 138.161 779.477 Q139.185 777.966 140.73 777.168 Q142.276 776.352 144.133 776.352 Q148.039 776.352 150.296 778.73 Q152.571 781.091 152.571 785.171 Q152.571 789.164 150.21 791.578 Q147.848 793.991 143.925 793.991 Q139.428 793.991 137.05 790.553 Q134.671 787.098 134.671 780.553 Q134.671 774.407 137.588 770.762 Q140.505 767.098 145.418 767.098 Q146.737 767.098 148.074 767.359 Q149.428 767.619 150.887 768.14 Z" fill="#4c4c4c" fill-rule="evenodd" fill-opacity="1" /><path clip-path="url(#clip560)" d="M84.4113 585.035 L106.668 585.035 L106.668 587.986 L84.4113 587.986 L84.4113 585.035 Z" fill="#4c4c4c" fill-rule="evenodd" fill-opacity="1" /><path clip-path="url(#clip560)" d="M117.258 594.705 L129.498 594.705 L129.498 597.656 L113.04 597.656 L113.04 594.705 Q115.036 592.639 118.474 589.167 Q121.928 585.677 122.814 584.67 Q124.498 582.778 125.158 581.476 Q125.835 580.156 125.835 578.889 Q125.835 576.823 124.376 575.521 Q122.935 574.219 120.609 574.219 Q118.96 574.219 117.119 574.792 Q115.297 575.365 113.213 576.528 L113.213 572.986 Q115.331 572.136 117.172 571.702 Q119.012 571.268 120.54 571.268 Q124.567 571.268 126.963 573.281 Q129.359 575.295 129.359 578.663 Q129.359 580.261 128.751 581.702 Q128.161 583.125 126.581 585.07 Q126.147 585.573 123.821 587.986 Q121.494 590.382 117.258 594.705 Z" fill="#4c4c4c" fill-rule="evenodd" fill-opacity="1" /><path clip-path="url(#clip560)" d="M136.894 571.736 L150.661 571.736 L150.661 574.688 L140.105 574.688 L140.105 581.042 Q140.869 580.781 141.633 580.66 Q142.397 580.521 143.161 580.521 Q147.501 580.521 150.036 582.899 Q152.571 585.278 152.571 589.34 Q152.571 593.524 149.966 595.851 Q147.362 598.16 142.623 598.16 Q140.991 598.16 139.289 597.882 Q137.605 597.604 135.8 597.049 L135.8 593.524 Q137.362 594.375 139.029 594.792 Q140.696 595.208 142.553 595.208 Q145.557 595.208 147.31 593.629 Q149.064 592.049 149.064 589.34 Q149.064 586.632 147.31 585.052 Q145.557 583.472 142.553 583.472 Q141.147 583.472 139.741 583.785 Q138.352 584.097 136.894 584.757 L136.894 571.736 Z" fill="#4c4c4c" fill-rule="evenodd" fill-opacity="1" /><path clip-path="url(#clip560)" d="M83.3002 389.204 L105.557 389.204 L105.557 392.155 L83.3002 392.155 L83.3002 389.204 Z" fill="#4c4c4c" fill-rule="evenodd" fill-opacity="1" /><path clip-path="url(#clip560)" d="M116.147 398.874 L128.387 398.874 L128.387 401.825 L111.928 401.825 L111.928 398.874 Q113.925 396.808 117.362 393.336 Q120.817 389.846 121.703 388.839 Q123.387 386.947 124.046 385.645 Q124.724 384.325 124.724 383.058 Q124.724 380.992 123.265 379.69 Q121.824 378.388 119.498 378.388 Q117.849 378.388 116.008 378.961 Q114.185 379.534 112.102 380.697 L112.102 377.155 Q114.22 376.305 116.06 375.871 Q117.901 375.437 119.428 375.437 Q123.456 375.437 125.852 377.45 Q128.248 379.464 128.248 382.832 Q128.248 384.43 127.64 385.871 Q127.05 387.294 125.47 389.239 Q125.036 389.742 122.71 392.155 Q120.383 394.551 116.147 398.874 Z" fill="#4c4c4c" fill-rule="evenodd" fill-opacity="1" /><path clip-path="url(#clip560)" d="M145.383 378.961 L136.529 392.798 L145.383 392.798 L145.383 378.961 M144.463 375.905 L148.873 375.905 L148.873 392.798 L152.571 392.798 L152.571 395.714 L148.873 395.714 L148.873 401.825 L145.383 401.825 L145.383 395.714 L133.682 395.714 L133.682 392.329 L144.463 375.905 Z" fill="#4c4c4c" fill-rule="evenodd" fill-opacity="1" /><path clip-path="url(#clip560)" d="M84.1508 193.373 L106.408 193.373 L106.408 196.324 L84.1508 196.324 L84.1508 193.373 Z" fill="#4c4c4c" fill-rule="evenodd" fill-opacity="1" /><path clip-path="url(#clip560)" d="M116.998 203.043 L129.237 203.043 L129.237 205.994 L112.779 205.994 L112.779 203.043 Q114.776 200.977 118.213 197.505 Q121.668 194.015 122.553 193.008 Q124.237 191.116 124.897 189.814 Q125.574 188.495 125.574 187.227 Q125.574 185.161 124.116 183.859 Q122.675 182.557 120.349 182.557 Q118.699 182.557 116.859 183.13 Q115.036 183.703 112.953 184.866 L112.953 181.324 Q115.071 180.474 116.911 180.04 Q118.751 179.606 120.279 179.606 Q124.307 179.606 126.703 181.62 Q129.099 183.633 129.099 187.001 Q129.099 188.599 128.491 190.04 Q127.901 191.463 126.321 193.408 Q125.887 193.911 123.56 196.324 Q121.234 198.72 116.998 203.043 Z" fill="#4c4c4c" fill-rule="evenodd" fill-opacity="1" /><path clip-path="url(#clip560)" d="M147.223 192.019 Q149.741 192.557 151.147 194.258 Q152.571 195.96 152.571 198.46 Q152.571 202.297 149.932 204.397 Q147.293 206.498 142.432 206.498 Q140.8 206.498 139.064 206.168 Q137.345 205.856 135.505 205.213 L135.505 201.828 Q136.963 202.678 138.699 203.112 Q140.435 203.547 142.328 203.547 Q145.626 203.547 147.345 202.244 Q149.081 200.942 149.081 198.46 Q149.081 196.168 147.466 194.883 Q145.869 193.581 143.005 193.581 L139.984 193.581 L139.984 190.699 L143.144 190.699 Q145.73 190.699 147.102 189.675 Q148.473 188.633 148.473 186.689 Q148.473 184.692 147.05 183.633 Q145.644 182.557 143.005 182.557 Q141.564 182.557 139.914 182.87 Q138.265 183.182 136.286 183.842 L136.286 180.717 Q138.283 180.161 140.019 179.883 Q141.772 179.606 143.317 179.606 Q147.31 179.606 149.637 181.429 Q151.963 183.234 151.963 186.324 Q151.963 188.477 150.73 189.97 Q149.498 191.446 147.223 192.019 Z" fill="#4c4c4c" fill-rule="evenodd" fill-opacity="1" /><path clip-path="url(#clip560)" d="M20.3722 985.184 L20.3722 955.948 L24.3073 955.948 L24.3073 968.216 L54.9322 968.216 L54.9322 972.915 L24.3073 972.915 L24.3073 985.184 L20.3722 985.184 Z" fill="#000000" fill-rule="evenodd" fill-opacity="1" /><path clip-path="url(#clip560)" d="M40.9045 937.499 L42.9878 937.499 L42.9878 957.082 Q47.3859 956.804 49.7007 954.443 Q51.9924 952.059 51.9924 947.823 Q51.9924 945.369 51.3905 943.078 Q50.7887 940.763 49.585 938.494 L53.6127 938.494 Q54.5849 940.786 55.0942 943.193 Q55.6035 945.601 55.6035 948.078 Q55.6035 954.281 51.9924 957.916 Q48.3813 961.527 42.2239 961.527 Q35.8582 961.527 32.1314 958.101 Q28.3814 954.652 28.3814 948.818 Q28.3814 943.587 31.761 940.555 Q35.1174 937.499 40.9045 937.499 M39.6545 941.758 Q36.1591 941.805 34.0758 943.726 Q31.9925 945.624 31.9925 948.772 Q31.9925 952.337 34.0063 954.49 Q36.0202 956.619 39.6776 956.943 L39.6545 941.758 Z" fill="#000000" fill-rule="evenodd" fill-opacity="1" /><path clip-path="url(#clip560)" d="M29.7703 913.981 L33.798 913.981 Q32.8721 915.786 32.4091 917.731 Q31.9462 919.675 31.9462 921.758 Q31.9462 924.93 32.9184 926.527 Q33.8906 928.101 35.835 928.101 Q37.3165 928.101 38.173 926.967 Q39.0063 925.832 39.7702 922.406 L40.0943 920.948 Q41.0665 916.411 42.8489 914.513 Q44.6081 912.592 47.7794 912.592 Q51.3905 912.592 53.497 915.462 Q55.6035 918.309 55.6035 923.309 Q55.6035 925.393 55.1868 927.661 Q54.7933 929.906 53.9831 932.406 L49.585 932.406 Q50.8118 930.045 51.4368 927.754 Q52.0387 925.462 52.0387 923.217 Q52.0387 920.207 51.0201 918.587 Q49.9785 916.967 48.1035 916.967 Q46.3674 916.967 45.4415 918.147 Q44.5155 919.305 43.6591 923.263 L43.3118 924.744 Q42.4785 928.703 40.7656 930.462 Q39.0295 932.221 36.0202 932.221 Q32.3628 932.221 30.3721 929.629 Q28.3814 927.036 28.3814 922.268 Q28.3814 919.907 28.7286 917.823 Q29.0758 915.74 29.7703 913.981 Z" fill="#000000" fill-rule="evenodd" fill-opacity="1" /><path clip-path="url(#clip560)" d="M21.6453 901.596 L29.0064 901.596 L29.0064 892.823 L32.3165 892.823 L32.3165 901.596 L46.3905 901.596 Q49.5618 901.596 50.4646 900.74 Q51.3674 899.86 51.3674 897.198 L51.3674 892.823 L54.9322 892.823 L54.9322 897.198 Q54.9322 902.129 53.1035 904.004 Q51.2516 905.879 46.3905 905.879 L32.3165 905.879 L32.3165 909.004 L29.0064 909.004 L29.0064 905.879 L21.6453 905.879 L21.6453 901.596 Z" fill="#000000" fill-rule="evenodd" fill-opacity="1" /><path clip-path="url(#clip560)" d="M18.9138 872.152 L18.9138 867.893 L54.9322 867.893 L54.9322 872.152 L18.9138 872.152 Z" fill="#000000" fill-rule="evenodd" fill-opacity="1" /><path clip-path="url(#clip560)" d="M31.9925 848.935 Q31.9925 852.361 34.6776 854.351 Q37.3397 856.342 41.9924 856.342 Q46.6452 856.342 49.3303 854.374 Q51.9924 852.384 51.9924 848.935 Q51.9924 845.532 49.3072 843.541 Q46.622 841.55 41.9924 841.55 Q37.386 841.55 34.7008 843.541 Q31.9925 845.532 31.9925 848.935 M28.3814 848.935 Q28.3814 843.379 31.9925 840.208 Q35.6036 837.037 41.9924 837.037 Q48.3581 837.037 51.9924 840.208 Q55.6035 843.379 55.6035 848.935 Q55.6035 854.513 51.9924 857.685 Q48.3581 860.833 41.9924 860.833 Q35.6036 860.833 31.9925 857.685 Q28.3814 854.513 28.3814 848.935 Z" fill="#000000" fill-rule="evenodd" fill-opacity="1" /><path clip-path="url(#clip560)" d="M41.6683 812.916 Q37.0387 812.916 34.4925 814.838 Q31.9462 816.736 31.9462 820.185 Q31.9462 823.611 34.4925 825.532 Q37.0387 827.43 41.6683 827.43 Q46.2748 827.43 48.8211 825.532 Q51.3674 823.611 51.3674 820.185 Q51.3674 816.736 48.8211 814.838 Q46.2748 812.916 41.6683 812.916 M51.7146 808.657 Q58.3349 808.657 61.5525 811.597 Q64.7932 814.537 64.7932 820.601 Q64.7932 822.847 64.446 824.838 Q64.1219 826.828 63.4275 828.703 L59.284 828.703 Q60.3025 826.828 60.7886 825 Q61.2747 823.171 61.2747 821.273 Q61.2747 817.083 59.0757 815 Q56.8997 812.916 52.4785 812.916 L50.372 812.916 Q52.6637 814.236 53.7979 816.296 Q54.9322 818.356 54.9322 821.226 Q54.9322 825.995 51.2979 828.912 Q47.6637 831.828 41.6683 831.828 Q35.6499 831.828 32.0156 828.912 Q28.3814 825.995 28.3814 821.226 Q28.3814 818.356 29.5156 816.296 Q30.6499 814.236 32.9415 812.916 L29.0064 812.916 L29.0064 808.657 L51.7146 808.657 Z" fill="#000000" fill-rule="evenodd" fill-opacity="1" /><path clip-path="url(#clip560)" d="M40.048 802.037 L40.048 789.56 L43.8443 789.56 L43.8443 802.037 L40.048 802.037 Z" fill="#000000" fill-rule="evenodd" fill-opacity="1" /><path clip-path="url(#clip560)" d="M18.9138 782.778 L18.9138 778.518 L54.9322 778.518 L54.9322 782.778 L18.9138 782.778 Z" fill="#000000" fill-rule="evenodd" fill-opacity="1" /><path clip-path="url(#clip560)" d="M29.0064 769.606 L29.0064 765.347 L54.9322 765.347 L54.9322 769.606 L29.0064 769.606 M18.9138 769.606 L18.9138 765.347 L24.3073 765.347 L24.3073 769.606 L18.9138 769.606 Z" fill="#000000" fill-rule="evenodd" fill-opacity="1" /><path clip-path="url(#clip560)" d="M18.9138 756.597 L18.9138 752.315 L40.1869 752.315 L29.0064 739.607 L29.0064 734.167 L41.1359 747.917 L54.9322 733.588 L54.9322 739.144 L42.2702 752.315 L54.9322 752.315 L54.9322 756.597 L18.9138 756.597 Z" fill="#000000" fill-rule="evenodd" fill-opacity="1" /><path clip-path="url(#clip560)" d="M40.9045 708.496 L42.9878 708.496 L42.9878 728.079 Q47.3859 727.801 49.7007 725.44 Q51.9924 723.056 51.9924 718.82 Q51.9924 716.366 51.3905 714.074 Q50.7887 711.759 49.585 709.491 L53.6127 709.491 Q54.5849 711.783 55.0942 714.19 Q55.6035 716.597 55.6035 719.074 Q55.6035 725.278 51.9924 728.912 Q48.3813 732.523 42.2239 732.523 Q35.8582 732.523 32.1314 729.097 Q28.3814 725.648 28.3814 719.815 Q28.3814 714.584 31.761 711.551 Q35.1174 708.496 40.9045 708.496 M39.6545 712.755 Q36.1591 712.801 34.0758 714.722 Q31.9925 716.621 31.9925 719.769 Q31.9925 723.333 34.0063 725.486 Q36.0202 727.616 39.6776 727.94 L39.6545 712.755 Z" fill="#000000" fill-rule="evenodd" fill-opacity="1" /><path clip-path="url(#clip560)" d="M18.9138 701.505 L18.9138 697.246 L54.9322 697.246 L54.9322 701.505 L18.9138 701.505 Z" fill="#000000" fill-rule="evenodd" fill-opacity="1" /><path clip-path="url(#clip560)" d="M29.0064 688.334 L29.0064 684.074 L54.9322 684.074 L54.9322 688.334 L29.0064 688.334 M18.9138 688.334 L18.9138 684.074 L24.3073 684.074 L24.3073 688.334 L18.9138 688.334 Z" fill="#000000" fill-rule="evenodd" fill-opacity="1" /><path clip-path="url(#clip560)" d="M39.2841 653.612 L54.9322 653.612 L54.9322 657.871 L39.423 657.871 Q35.7424 657.871 33.9138 659.306 Q32.0851 660.741 32.0851 663.612 Q32.0851 667.061 34.2841 669.051 Q36.4832 671.042 40.2795 671.042 L54.9322 671.042 L54.9322 675.324 L18.9138 675.324 L18.9138 671.042 L33.0341 671.042 Q30.6962 669.514 29.5388 667.454 Q28.3814 665.371 28.3814 662.663 Q28.3814 658.195 31.1591 655.903 Q33.9138 653.612 39.2841 653.612 Z" fill="#000000" fill-rule="evenodd" fill-opacity="1" /><path clip-path="url(#clip560)" d="M31.9925 635.07 Q31.9925 638.496 34.6776 640.487 Q37.3397 642.477 41.9924 642.477 Q46.6452 642.477 49.3303 640.51 Q51.9924 638.519 51.9924 635.07 Q51.9924 631.667 49.3072 629.677 Q46.622 627.686 41.9924 627.686 Q37.386 627.686 34.7008 629.677 Q31.9925 631.667 31.9925 635.07 M28.3814 635.07 Q28.3814 629.515 31.9925 626.343 Q35.6036 623.172 41.9924 623.172 Q48.3581 623.172 51.9924 626.343 Q55.6035 629.515 55.6035 635.07 Q55.6035 640.649 51.9924 643.82 Q48.3581 646.968 41.9924 646.968 Q35.6036 646.968 31.9925 643.82 Q28.3814 640.649 28.3814 635.07 Z" fill="#000000" fill-rule="evenodd" fill-opacity="1" /><path clip-path="url(#clip560)" d="M31.9925 606.066 Q31.9925 609.492 34.6776 611.482 Q37.3397 613.473 41.9924 613.473 Q46.6452 613.473 49.3303 611.505 Q51.9924 609.515 51.9924 606.066 Q51.9924 602.663 49.3072 600.672 Q46.622 598.681 41.9924 598.681 Q37.386 598.681 34.7008 600.672 Q31.9925 602.663 31.9925 606.066 M28.3814 606.066 Q28.3814 600.51 31.9925 597.339 Q35.6036 594.168 41.9924 594.168 Q48.3581 594.168 51.9924 597.339 Q55.6035 600.51 55.6035 606.066 Q55.6035 611.644 51.9924 614.816 Q48.3581 617.964 41.9924 617.964 Q35.6036 617.964 31.9925 614.816 Q28.3814 611.644 28.3814 606.066 Z" fill="#000000" fill-rule="evenodd" fill-opacity="1" /><path clip-path="url(#clip560)" d="M32.9415 570.047 L18.9138 570.047 L18.9138 565.788 L54.9322 565.788 L54.9322 570.047 L51.0433 570.047 Q53.3581 571.39 54.4923 573.45 Q55.6035 575.487 55.6035 578.357 Q55.6035 583.056 51.8535 586.019 Q48.1035 588.959 41.9924 588.959 Q35.8813 588.959 32.1314 586.019 Q28.3814 583.056 28.3814 578.357 Q28.3814 575.487 29.5156 573.45 Q30.6267 571.39 32.9415 570.047 M41.9924 584.561 Q46.6915 584.561 49.3766 582.64 Q52.0387 580.695 52.0387 577.316 Q52.0387 573.936 49.3766 571.992 Q46.6915 570.047 41.9924 570.047 Q37.2934 570.047 34.6313 571.992 Q31.9462 573.936 31.9462 577.316 Q31.9462 580.695 34.6313 582.64 Q37.2934 584.561 41.9924 584.561 Z" fill="#000000" fill-rule="evenodd" fill-opacity="1" /><path clip-path="url(#clip560)" d="M1118.93 46.9789 L1118.93 64.1663 L1113.58 64.1663 L1113.58 19.4328 L1118.93 19.4328 L1118.93 24.3517 Q1120.61 21.4582 1123.15 20.0693 Q1125.73 18.6515 1129.29 18.6515 Q1135.19 18.6515 1138.87 23.339 Q1142.57 28.0265 1142.57 35.6653 Q1142.57 43.3042 1138.87 47.9916 Q1135.19 52.6791 1129.29 52.6791 Q1125.73 52.6791 1123.15 51.2902 Q1120.61 49.8724 1118.93 46.9789 M1137.04 35.6653 Q1137.04 29.7915 1134.61 26.464 Q1132.21 23.1075 1127.99 23.1075 Q1123.76 23.1075 1121.33 26.464 Q1118.93 29.7915 1118.93 35.6653 Q1118.93 41.5391 1121.33 44.8956 Q1123.76 48.2231 1127.99 48.2231 Q1132.21 48.2231 1134.61 44.8956 Q1137.04 41.5391 1137.04 35.6653 Z" fill="#000000" fill-rule="evenodd" fill-opacity="1" /><path clip-path="url(#clip560)" d="M1150.84 39.0507 L1150.84 19.4328 L1156.17 19.4328 L1156.17 38.8482 Q1156.17 43.4488 1157.96 45.7636 Q1159.76 48.0495 1163.34 48.0495 Q1167.66 48.0495 1170.14 45.3007 Q1172.66 42.5519 1172.66 37.8065 L1172.66 19.4328 L1177.99 19.4328 L1177.99 51.84 L1172.66 51.84 L1172.66 46.8632 Q1170.72 49.8145 1168.15 51.2613 Q1165.6 52.6791 1162.22 52.6791 Q1156.63 52.6791 1153.74 49.2069 Q1150.84 45.7347 1150.84 39.0507 M1164.24 18.6515 L1164.24 18.6515 Z" fill="#000000" fill-rule="evenodd" fill-opacity="1" /><path clip-path="url(#clip560)" d="M1214.18 25.6538 Q1216.18 22.0659 1218.96 20.3587 Q1221.74 18.6515 1225.5 18.6515 Q1230.56 18.6515 1233.31 22.2105 Q1236.06 25.7406 1236.06 32.2799 L1236.06 51.84 L1230.71 51.84 L1230.71 32.4535 Q1230.71 27.795 1229.06 25.5381 Q1227.41 23.2811 1224.02 23.2811 Q1219.88 23.2811 1217.48 26.03 Q1215.08 28.7788 1215.08 33.5241 L1215.08 51.84 L1209.73 51.84 L1209.73 32.4535 Q1209.73 27.7661 1208.08 25.5381 Q1206.43 23.2811 1202.99 23.2811 Q1198.91 23.2811 1196.5 26.0589 Q1194.1 28.8077 1194.1 33.5241 L1194.1 51.84 L1188.75 51.84 L1188.75 19.4328 L1194.1 19.4328 L1194.1 24.4675 Q1195.93 21.4872 1198.47 20.0693 Q1201.02 18.6515 1204.52 18.6515 Q1208.05 18.6515 1210.51 20.4455 Q1213 22.2395 1214.18 25.6538 Z" fill="#000000" fill-rule="evenodd" fill-opacity="1" /><path clip-path="url(#clip560)" d="M1267.34 20.3876 L1267.34 25.4223 Q1265.08 24.2649 1262.65 23.6862 Q1260.22 23.1075 1257.61 23.1075 Q1253.65 23.1075 1251.65 24.3228 Q1249.69 25.5381 1249.69 27.9686 Q1249.69 29.8204 1251.1 30.891 Q1252.52 31.9327 1256.8 32.8876 L1258.63 33.2926 Q1264.3 34.5079 1266.67 36.7359 Q1269.07 38.935 1269.07 42.8991 Q1269.07 47.4129 1265.49 50.046 Q1261.93 52.6791 1255.68 52.6791 Q1253.07 52.6791 1250.24 52.1583 Q1247.43 51.6664 1244.3 50.6537 L1244.3 45.156 Q1247.26 46.6896 1250.12 47.4708 Q1252.99 48.2231 1255.79 48.2231 Q1259.55 48.2231 1261.58 46.95 Q1263.6 45.6479 1263.6 43.3042 Q1263.6 41.134 1262.13 39.9766 Q1260.68 38.8192 1255.73 37.7486 L1253.88 37.3146 Q1248.93 36.273 1246.74 34.1318 Q1244.54 31.9616 1244.54 28.2001 Q1244.54 23.6283 1247.78 21.1399 Q1251.02 18.6515 1256.98 18.6515 Q1259.93 18.6515 1262.53 19.0855 Q1265.14 19.5196 1267.34 20.3876 Z" fill="#000000" fill-rule="evenodd" fill-opacity="1" /><path clip-path="url(#clip560)" d="M1300.81 35.6653 Q1300.81 29.7915 1298.38 26.464 Q1295.98 23.1075 1291.76 23.1075 Q1287.53 23.1075 1285.1 26.464 Q1282.7 29.7915 1282.7 35.6653 Q1282.7 41.5391 1285.1 44.8956 Q1287.53 48.2231 1291.76 48.2231 Q1295.98 48.2231 1298.38 44.8956 Q1300.81 41.5391 1300.81 35.6653 M1282.7 24.3517 Q1284.38 21.4582 1286.93 20.0693 Q1289.5 18.6515 1293.06 18.6515 Q1298.96 18.6515 1302.64 23.339 Q1306.34 28.0265 1306.34 35.6653 Q1306.34 43.3042 1302.64 47.9916 Q1298.96 52.6791 1293.06 52.6791 Q1289.5 52.6791 1286.93 51.2902 Q1284.38 49.8724 1282.7 46.9789 L1282.7 51.84 L1277.35 51.84 L1277.35 6.81709 L1282.7 6.81709 L1282.7 24.3517 Z" fill="#000000" fill-rule="evenodd" fill-opacity="1" /><path clip-path="url(#clip560)" d="M1312.48 33.2348 L1328.07 33.2348 L1328.07 37.9801 L1312.48 37.9801 L1312.48 33.2348 Z" fill="#000000" fill-rule="evenodd" fill-opacity="1" /><path clip-path="url(#clip560)" d="M1357.21 20.3876 L1357.21 25.4223 Q1354.95 24.2649 1352.52 23.6862 Q1350.09 23.1075 1347.49 23.1075 Q1343.52 23.1075 1341.53 24.3228 Q1339.56 25.5381 1339.56 27.9686 Q1339.56 29.8204 1340.98 30.891 Q1342.39 31.9327 1346.68 32.8876 L1348.5 33.2926 Q1354.17 34.5079 1356.54 36.7359 Q1358.95 38.935 1358.95 42.8991 Q1358.95 47.4129 1355.36 50.046 Q1351.8 52.6791 1345.55 52.6791 Q1342.94 52.6791 1340.11 52.1583 Q1337.3 51.6664 1334.18 50.6537 L1334.18 45.156 Q1337.13 46.6896 1339.99 47.4708 Q1342.86 48.2231 1345.66 48.2231 Q1349.43 48.2231 1351.45 46.95 Q1353.48 45.6479 1353.48 43.3042 Q1353.48 41.134 1352 39.9766 Q1350.55 38.8192 1345.61 37.7486 L1343.75 37.3146 Q1338.81 36.273 1336.61 34.1318 Q1334.41 31.9616 1334.41 28.2001 Q1334.41 23.6283 1337.65 21.1399 Q1340.89 18.6515 1346.85 18.6515 Q1349.8 18.6515 1352.41 19.0855 Q1355.01 19.5196 1357.21 20.3876 Z" fill="#000000" fill-rule="evenodd" fill-opacity="1" /><path clip-path="url(#clip560)" d="M1372.69 10.2314 L1372.69 19.4328 L1383.66 19.4328 L1383.66 23.5705 L1372.69 23.5705 L1372.69 41.163 Q1372.69 45.1271 1373.76 46.2555 Q1374.86 47.384 1378.19 47.384 L1383.66 47.384 L1383.66 51.84 L1378.19 51.84 Q1372.02 51.84 1369.68 49.5541 Q1367.34 47.2393 1367.34 41.163 L1367.34 23.5705 L1363.43 23.5705 L1363.43 19.4328 L1367.34 19.4328 L1367.34 10.2314 L1372.69 10.2314 Z" fill="#000000" fill-rule="evenodd" fill-opacity="1" /><path clip-path="url(#clip560)" d="M1405.39 35.5496 Q1398.93 35.5496 1396.45 37.0253 Q1393.96 38.501 1393.96 42.06 Q1393.96 44.8956 1395.81 46.5738 Q1397.69 48.2231 1400.9 48.2231 Q1405.33 48.2231 1407.99 45.0981 Q1410.68 41.9442 1410.68 36.7359 L1410.68 35.5496 L1405.39 35.5496 M1416.01 33.3505 L1416.01 51.84 L1410.68 51.84 L1410.68 46.921 Q1408.86 49.8724 1406.14 51.2902 Q1403.42 52.6791 1399.48 52.6791 Q1394.51 52.6791 1391.56 49.9014 Q1388.63 47.0947 1388.63 42.4072 Q1388.63 36.9385 1392.28 34.1607 Q1395.95 31.3829 1403.22 31.3829 L1410.68 31.3829 L1410.68 30.8621 Q1410.68 27.1874 1408.25 25.1908 Q1405.85 23.1654 1401.48 23.1654 Q1398.7 23.1654 1396.07 23.8309 Q1393.44 24.4964 1391.01 25.8274 L1391.01 20.9085 Q1393.93 19.78 1396.68 19.2302 Q1399.43 18.6515 1402.03 18.6515 Q1409.06 18.6515 1412.53 22.2973 Q1416.01 25.9431 1416.01 33.3505 Z" fill="#000000" fill-rule="evenodd" fill-opacity="1" /><path clip-path="url(#clip560)" d="M1445.75 24.4096 Q1444.85 23.8888 1443.78 23.6573 Q1442.74 23.3969 1441.47 23.3969 Q1436.95 23.3969 1434.52 26.3482 Q1432.12 29.2707 1432.12 34.7683 L1432.12 51.84 L1426.77 51.84 L1426.77 19.4328 L1432.12 19.4328 L1432.12 24.4675 Q1433.8 21.5161 1436.49 20.0983 Q1439.18 18.6515 1443.03 18.6515 Q1443.58 18.6515 1444.25 18.7383 Q1444.91 18.7962 1445.72 18.9409 L1445.75 24.4096 Z" fill="#000000" fill-rule="evenodd" fill-opacity="1" /><polyline clip-path="url(#clip562)" style="stroke:#e26f46; stroke-linecap:butt; stroke-linejoin:round; stroke-width:8; stroke-opacity:1; fill:none" points="
  307.806,541.613 348.3,541.613 388.794,541.613 429.288,541.613 469.782,541.613 510.276,541.613 550.77,541.613 591.264,541.613 631.758,541.613 672.252,541.613 
  712.746,541.613 753.24,541.613 793.735,541.613 834.229,541.613 874.723,541.613 915.217,541.613 955.711,541.613 996.205,541.613 1036.7,541.613 1077.19,541.613 
  1117.69,541.613 1158.18,541.613 1198.68,541.613 1239.17,541.613 1279.66,541.613 1320.16,541.613 1360.65,541.613 1401.15,541.613 1441.64,541.613 1482.13,541.613 
  1522.63,541.613 1563.12,541.613 1603.62,541.613 1644.11,541.613 1684.6,541.613 1725.1,541.613 1765.59,541.613 1806.09,541.613 1846.58,541.613 1887.07,541.613 
  1927.57,541.613 1968.06,541.613 2008.56,541.613 2049.05,541.613 2089.54,541.613 2130.04,541.613 2170.53,541.613 2211.03,541.613 2251.52,541.613 2292.01,541.613 
  
  "/>
<polyline clip-path="url(#clip562)" style="stroke:#3da44d; stroke-linecap:butt; stroke-linejoin:round; stroke-width:8; stroke-opacity:1; fill:none" points="
  307.806,412.365 348.3,412.365 388.794,412.365 429.288,412.365 469.782,412.365 510.276,412.365 550.77,412.365 591.264,412.365 631.758,412.365 672.252,412.365 
  712.746,412.365 753.24,412.365 793.735,412.365 834.229,412.365 874.723,412.365 915.217,412.365 955.711,412.365 996.205,412.365 1036.7,412.365 1077.19,412.365 
  1117.69,412.365 1158.18,412.365 1198.68,412.365 1239.17,412.365 1279.66,412.365 1320.16,412.365 1360.65,412.365 1401.15,412.365 1441.64,412.365 1482.13,412.365 
  1522.63,412.365 1563.12,412.365 1603.62,412.365 1644.11,412.365 1684.6,412.365 1725.1,412.365 1765.59,412.365 1806.09,412.365 1846.58,412.365 1887.07,412.365 
  1927.57,412.365 1968.06,412.365 2008.56,412.365 2049.05,412.365 2089.54,412.365 2130.04,412.365 2170.53,412.365 2211.03,412.365 2251.52,412.365 2292.01,412.365 
  
  "/>
<polyline clip-path="url(#clip562)" style="stroke:#c271d2; stroke-linecap:butt; stroke-linejoin:round; stroke-width:8; stroke-opacity:1; fill:none" points="
  307.806,804.027 348.3,804.027 388.794,804.027 429.288,804.027 469.782,804.027 510.276,804.027 550.77,804.027 591.264,804.027 631.758,804.027 672.252,804.027 
  712.746,804.027 753.24,804.027 793.735,804.027 834.229,804.027 874.723,804.027 915.217,804.027 955.711,804.027 996.205,804.027 1036.7,804.027 1077.19,804.027 
  1117.69,804.027 1158.18,804.027 1198.68,804.027 1239.17,804.027 1279.66,804.027 1320.16,804.027 1360.65,804.027 1401.15,804.027 1441.64,804.027 1482.13,804.027 
  1522.63,804.027 1563.12,804.027 1603.62,804.027 1644.11,804.027 1684.6,804.027 1725.1,804.027 1765.59,804.027 1806.09,804.027 1846.58,804.027 1887.07,804.027 
  1927.57,804.027 1968.06,804.027 2008.56,804.027 2049.05,804.027 2089.54,804.027 2130.04,804.027 2170.53,804.027 2211.03,804.027 2251.52,804.027 2292.01,804.027 
  
  "/>
<polyline clip-path="url(#clip562)" style="stroke:#ac8d18; stroke-linecap:butt; stroke-linejoin:round; stroke-width:8; stroke-opacity:1; fill:none" points="
  307.806,792.277 348.3,792.277 388.794,792.277 429.288,792.277 469.782,792.277 510.276,792.277 550.77,792.277 591.264,792.277 631.758,792.277 672.252,792.277 
  712.746,792.277 753.24,792.277 793.735,792.277 834.229,792.277 874.723,792.277 915.217,792.277 955.711,792.277 996.205,792.277 1036.7,792.277 1077.19,792.277 
  1117.69,792.277 1158.18,792.277 1198.68,792.277 1239.17,792.277 1279.66,792.277 1320.16,792.277 1360.65,792.277 1401.15,792.277 1441.64,792.277 1482.13,792.277 
  1522.63,792.277 1563.12,792.277 1603.62,792.277 1644.11,792.277 1684.6,792.277 1725.1,792.277 1765.59,792.277 1806.09,792.277 1846.58,792.277 1887.07,792.277 
  1927.57,792.277 1968.06,792.277 2008.56,792.277 2049.05,792.277 2089.54,792.277 2130.04,792.277 2170.53,792.277 2211.03,792.277 2251.52,792.277 2292.01,792.277 
  
  "/>
<polyline clip-path="url(#clip562)" style="stroke:#00a9ad; stroke-linecap:butt; stroke-linejoin:round; stroke-width:8; stroke-opacity:1; fill:none" points="
  307.806,144.077 348.3,144.077 388.794,144.077 429.288,144.077 469.782,144.077 510.276,144.077 550.77,144.077 591.264,144.077 631.758,144.077 672.252,144.077 
  712.746,144.077 753.24,144.077 793.735,144.077 834.229,144.077 874.723,144.077 915.217,144.077 955.711,144.077 996.205,144.077 1036.7,144.077 1077.19,144.077 
  1117.69,144.077 1158.18,144.077 1198.68,144.077 1239.17,144.077 1279.66,144.077 1320.16,144.077 1360.65,144.077 1401.15,144.077 1441.64,144.077 1482.13,144.077 
  1522.63,144.077 1563.12,144.077 1603.62,144.077 1644.11,144.077 1684.6,144.077 1725.1,144.077 1765.59,144.077 1806.09,144.077 1846.58,144.077 1887.07,144.077 
  1927.57,144.077 1968.06,144.077 2008.56,144.077 2049.05,144.077 2089.54,144.077 2130.04,144.077 2170.53,144.077 2211.03,144.077 2251.52,144.077 2292.01,144.077 
  
  "/>
<polyline clip-path="url(#clip562)" style="stroke:#009af9; stroke-linecap:butt; stroke-linejoin:round; stroke-width:12; stroke-opacity:1; fill:none" points="
  307.806,1406.9 348.3,1190.99 388.794,1103.37 429.288,1037 469.782,1009.56 510.276,966.867 550.77,950.22 591.264,915.477 631.758,897.271 672.252,887.242 
  712.746,895.424 753.24,872.865 793.735,860.658 834.229,854.299 874.723,851.072 915.217,844.471 955.711,844.691 996.205,838.401 1036.7,841.309 1077.19,841.134 
  1117.69,835.028 1158.18,840.837 1198.68,831.6 1239.17,840.411 1279.66,828.712 1320.16,827.959 1360.65,819.776 1401.15,813.153 1441.64,815.223 1482.13,818.54 
  1522.63,818.824 1563.12,816.433 1603.62,814.454 1644.11,818.745 1684.6,811.001 1725.1,807.774 1765.59,807.951 1806.09,808.796 1846.58,810.278 1887.07,803.843 
  1927.57,801.946 1968.06,799.327 2008.56,803.251 2049.05,803.595 2089.54,801.369 2130.04,800.642 2170.53,802.457 2211.03,798.983 2251.52,797.39 2292.01,795.954 
  
  "/>
</svg>
