<?xml version="1.0" encoding="utf-8"?>
<svg xmlns="http://www.w3.org/2000/svg" xmlns:xlink="http://www.w3.org/1999/xlink" width="600" height="400" viewBox="0 0 2400 1600">
<defs>
  <clipPath id="clip620">
    <rect x="0" y="0" width="2400" height="1600"/>
  </clipPath>
</defs>
<path clip-path="url(#clip620)" d="
M0 1600 L2400 1600 L2400 0 L0 0  Z
  " fill="#ffffff" fill-rule="evenodd" fill-opacity="1"/>
<defs>
  <clipPath id="clip621">
    <rect x="480" y="0" width="1681" height="1600"/>
  </clipPath>
</defs>
<path clip-path="url(#clip620)" d="
M240.129 1444.78 L2352.76 1444.78 L2352.76 106.192 L240.129 106.192  Z
  " fill="#eaeaea" fill-rule="evenodd" fill-opacity="1"/>
<defs>
  <clipPath id="clip622">
    <rect x="240" y="106" width="2114" height="1340"/>
  </clipPath>
</defs>
<polyline clip-path="url(#clip622)" style="stroke:#ffffff; stroke-linecap:butt; stroke-linejoin:round; stroke-width:4; stroke-opacity:1; fill:none" points="
  299.921,1444.78 299.921,106.192 
  "/>
<polyline clip-path="url(#clip622)" style="stroke:#ffffff; stroke-linecap:butt; stroke-linejoin:round; stroke-width:4; stroke-opacity:1; fill:none" points="
  499.225,1444.78 499.225,106.192 
  "/>
<polyline clip-path="url(#clip622)" style="stroke:#ffffff; stroke-linecap:butt; stroke-linejoin:round; stroke-width:4; stroke-opacity:1; fill:none" points="
  698.53,1444.78 698.53,106.192 
  "/>
<polyline clip-path="url(#clip622)" style="stroke:#ffffff; stroke-linecap:butt; stroke-linejoin:round; stroke-width:4; stroke-opacity:1; fill:none" points="
  897.834,1444.78 897.834,106.192 
  "/>
<polyline clip-path="url(#clip622)" style="stroke:#ffffff; stroke-linecap:butt; stroke-linejoin:round; stroke-width:4; stroke-opacity:1; fill:none" points="
  1097.14,1444.78 1097.14,106.192 
  "/>
<polyline clip-path="url(#clip622)" style="stroke:#ffffff; stroke-linecap:butt; stroke-linejoin:round; stroke-width:4; stroke-opacity:1; fill:none" points="
  1296.44,1444.78 1296.44,106.192 
  "/>
<polyline clip-path="url(#clip622)" style="stroke:#ffffff; stroke-linecap:butt; stroke-linejoin:round; stroke-width:4; stroke-opacity:1; fill:none" points="
  1495.75,1444.78 1495.75,106.192 
  "/>
<polyline clip-path="url(#clip622)" style="stroke:#ffffff; stroke-linecap:butt; stroke-linejoin:round; stroke-width:4; stroke-opacity:1; fill:none" points="
  1695.05,1444.78 1695.05,106.192 
  "/>
<polyline clip-path="url(#clip622)" style="stroke:#ffffff; stroke-linecap:butt; stroke-linejoin:round; stroke-width:4; stroke-opacity:1; fill:none" points="
  1894.36,1444.78 1894.36,106.192 
  "/>
<polyline clip-path="url(#clip622)" style="stroke:#ffffff; stroke-linecap:butt; stroke-linejoin:round; stroke-width:4; stroke-opacity:1; fill:none" points="
  2093.66,1444.78 2093.66,106.192 
  "/>
<polyline clip-path="url(#clip622)" style="stroke:#ffffff; stroke-linecap:butt; stroke-linejoin:round; stroke-width:4; stroke-opacity:1; fill:none" points="
  2292.96,1444.78 2292.96,106.192 
  "/>
<polyline clip-path="url(#clip622)" style="stroke:#ffffff; stroke-linecap:butt; stroke-linejoin:round; stroke-width:2; stroke-opacity:1; fill:none" points="
  399.573,1444.78 399.573,106.192 
  "/>
<polyline clip-path="url(#clip622)" style="stroke:#ffffff; stroke-linecap:butt; stroke-linejoin:round; stroke-width:2; stroke-opacity:1; fill:none" points="
  598.877,1444.78 598.877,106.192 
  "/>
<polyline clip-path="url(#clip622)" style="stroke:#ffffff; stroke-linecap:butt; stroke-linejoin:round; stroke-width:2; stroke-opacity:1; fill:none" points="
  798.182,1444.78 798.182,106.192 
  "/>
<polyline clip-path="url(#clip622)" style="stroke:#ffffff; stroke-linecap:butt; stroke-linejoin:round; stroke-width:2; stroke-opacity:1; fill:none" points="
  997.486,1444.78 997.486,106.192 
  "/>
<polyline clip-path="url(#clip622)" style="stroke:#ffffff; stroke-linecap:butt; stroke-linejoin:round; stroke-width:2; stroke-opacity:1; fill:none" points="
  1196.79,1444.78 1196.79,106.192 
  "/>
<polyline clip-path="url(#clip622)" style="stroke:#ffffff; stroke-linecap:butt; stroke-linejoin:round; stroke-width:2; stroke-opacity:1; fill:none" points="
  1396.09,1444.78 1396.09,106.192 
  "/>
<polyline clip-path="url(#clip622)" style="stroke:#ffffff; stroke-linecap:butt; stroke-linejoin:round; stroke-width:2; stroke-opacity:1; fill:none" points="
  1595.4,1444.78 1595.4,106.192 
  "/>
<polyline clip-path="url(#clip622)" style="stroke:#ffffff; stroke-linecap:butt; stroke-linejoin:round; stroke-width:2; stroke-opacity:1; fill:none" points="
  1794.7,1444.78 1794.7,106.192 
  "/>
<polyline clip-path="url(#clip622)" style="stroke:#ffffff; stroke-linecap:butt; stroke-linejoin:round; stroke-width:2; stroke-opacity:1; fill:none" points="
  1994.01,1444.78 1994.01,106.192 
  "/>
<polyline clip-path="url(#clip622)" style="stroke:#ffffff; stroke-linecap:butt; stroke-linejoin:round; stroke-width:2; stroke-opacity:1; fill:none" points="
  2193.31,1444.78 2193.31,106.192 
  "/>
<polyline clip-path="url(#clip620)" style="stroke:#ffffff; stroke-linecap:butt; stroke-linejoin:round; stroke-width:4; stroke-opacity:1; fill:none" points="
  240.129,1444.78 2352.76,1444.78 
  "/>
<polyline clip-path="url(#clip620)" style="stroke:#333333; stroke-linecap:butt; stroke-linejoin:round; stroke-width:4; stroke-opacity:1; fill:none" points="
  299.921,1444.78 299.921,1463.68 
  "/>
<polyline clip-path="url(#clip620)" style="stroke:#333333; stroke-linecap:butt; stroke-linejoin:round; stroke-width:4; stroke-opacity:1; fill:none" points="
  499.225,1444.78 499.225,1463.68 
  "/>
<polyline clip-path="url(#clip620)" style="stroke:#333333; stroke-linecap:butt; stroke-linejoin:round; stroke-width:4; stroke-opacity:1; fill:none" points="
  698.53,1444.78 698.53,1463.68 
  "/>
<polyline clip-path="url(#clip620)" style="stroke:#333333; stroke-linecap:butt; stroke-linejoin:round; stroke-width:4; stroke-opacity:1; fill:none" points="
  897.834,1444.78 897.834,1463.68 
  "/>
<polyline clip-path="url(#clip620)" style="stroke:#333333; stroke-linecap:butt; stroke-linejoin:round; stroke-width:4; stroke-opacity:1; fill:none" points="
  1097.14,1444.78 1097.14,1463.68 
  "/>
<polyline clip-path="url(#clip620)" style="stroke:#333333; stroke-linecap:butt; stroke-linejoin:round; stroke-width:4; stroke-opacity:1; fill:none" points="
  1296.44,1444.78 1296.44,1463.68 
  "/>
<polyline clip-path="url(#clip620)" style="stroke:#333333; stroke-linecap:butt; stroke-linejoin:round; stroke-width:4; stroke-opacity:1; fill:none" points="
  1495.75,1444.78 1495.75,1463.68 
  "/>
<polyline clip-path="url(#clip620)" style="stroke:#333333; stroke-linecap:butt; stroke-linejoin:round; stroke-width:4; stroke-opacity:1; fill:none" points="
  1695.05,1444.78 1695.05,1463.68 
  "/>
<polyline clip-path="url(#clip620)" style="stroke:#333333; stroke-linecap:butt; stroke-linejoin:round; stroke-width:4; stroke-opacity:1; fill:none" points="
  1894.36,1444.78 1894.36,1463.68 
  "/>
<polyline clip-path="url(#clip620)" style="stroke:#333333; stroke-linecap:butt; stroke-linejoin:round; stroke-width:4; stroke-opacity:1; fill:none" points="
  2093.66,1444.78 2093.66,1463.68 
  "/>
<polyline clip-path="url(#clip620)" style="stroke:#333333; stroke-linecap:butt; stroke-linejoin:round; stroke-width:4; stroke-opacity:1; fill:none" points="
  2292.96,1444.78 2292.96,1463.68 
  "/>
<polyline clip-path="url(#clip620)" style="stroke:#333333; stroke-linecap:butt; stroke-linejoin:round; stroke-width:4; stroke-opacity:1; fill:none" points="
  399.573,1444.78 399.573,1454.23 
  "/>
<polyline clip-path="url(#clip620)" style="stroke:#333333; stroke-linecap:butt; stroke-linejoin:round; stroke-width:4; stroke-opacity:1; fill:none" points="
  598.877,1444.78 598.877,1454.23 
  "/>
<polyline clip-path="url(#clip620)" style="stroke:#333333; stroke-linecap:butt; stroke-linejoin:round; stroke-width:4; stroke-opacity:1; fill:none" points="
  798.182,1444.78 798.182,1454.23 
  "/>
<polyline clip-path="url(#clip620)" style="stroke:#333333; stroke-linecap:butt; stroke-linejoin:round; stroke-width:4; stroke-opacity:1; fill:none" points="
  997.486,1444.78 997.486,1454.23 
  "/>
<polyline clip-path="url(#clip620)" style="stroke:#333333; stroke-linecap:butt; stroke-linejoin:round; stroke-width:4; stroke-opacity:1; fill:none" points="
  1196.79,1444.78 1196.79,1454.23 
  "/>
<polyline clip-path="url(#clip620)" style="stroke:#333333; stroke-linecap:butt; stroke-linejoin:round; stroke-width:4; stroke-opacity:1; fill:none" points="
  1396.09,1444.78 1396.09,1454.23 
  "/>
<polyline clip-path="url(#clip620)" style="stroke:#333333; stroke-linecap:butt; stroke-linejoin:round; stroke-width:4; stroke-opacity:1; fill:none" points="
  1595.4,1444.78 1595.4,1454.23 
  "/>
<polyline clip-path="url(#clip620)" style="stroke:#333333; stroke-linecap:butt; stroke-linejoin:round; stroke-width:4; stroke-opacity:1; fill:none" points="
  1794.7,1444.78 1794.7,1454.23 
  "/>
<polyline clip-path="url(#clip620)" style="stroke:#333333; stroke-linecap:butt; stroke-linejoin:round; stroke-width:4; stroke-opacity:1; fill:none" points="
  1994.01,1444.78 1994.01,1454.23 
  "/>
<polyline clip-path="url(#clip620)" style="stroke:#333333; stroke-linecap:butt; stroke-linejoin:round; stroke-width:4; stroke-opacity:1; fill:none" points="
  2193.31,1444.78 2193.31,1454.23 
  "/>
<path clip-path="url(#clip620)" d="M299.921 1482.37 Q297.212 1482.37 295.841 1485.04 Q294.487 1487.7 294.487 1493.05 Q294.487 1498.38 295.841 1501.05 Q297.212 1503.71 299.921 1503.71 Q302.646 1503.71 304.001 1501.05 Q305.372 1498.38 305.372 1493.05 Q305.372 1487.7 304.001 1485.04 Q302.646 1482.37 299.921 1482.37 M299.921 1479.59 Q304.278 1479.59 306.57 1483.05 Q308.879 1486.48 308.879 1493.05 Q308.879 1499.59 306.57 1503.05 Q304.278 1506.48 299.921 1506.48 Q295.563 1506.48 293.254 1503.05 Q290.962 1499.59 290.962 1493.05 Q290.962 1486.48 293.254 1483.05 Q295.563 1479.59 299.921 1479.59 Z" fill="#4c4c4c" fill-rule="evenodd" fill-opacity="1" /><path clip-path="url(#clip620)" d="M480.241 1503.03 L485.97 1503.03 L485.97 1483.25 L479.737 1484.5 L479.737 1481.31 L485.935 1480.06 L489.442 1480.06 L489.442 1503.03 L495.171 1503.03 L495.171 1505.98 L480.241 1505.98 L480.241 1503.03 Z" fill="#4c4c4c" fill-rule="evenodd" fill-opacity="1" /><path clip-path="url(#clip620)" d="M509.755 1482.37 Q507.046 1482.37 505.675 1485.04 Q504.321 1487.7 504.321 1493.05 Q504.321 1498.38 505.675 1501.05 Q507.046 1503.71 509.755 1503.71 Q512.48 1503.71 513.834 1501.05 Q515.206 1498.38 515.206 1493.05 Q515.206 1487.7 513.834 1485.04 Q512.48 1482.37 509.755 1482.37 M509.755 1479.59 Q514.112 1479.59 516.404 1483.05 Q518.713 1486.48 518.713 1493.05 Q518.713 1499.59 516.404 1503.05 Q514.112 1506.48 509.755 1506.48 Q505.397 1506.48 503.088 1503.05 Q500.796 1499.59 500.796 1493.05 Q500.796 1486.48 503.088 1483.05 Q505.397 1479.59 509.755 1479.59 Z" fill="#4c4c4c" fill-rule="evenodd" fill-opacity="1" /><path clip-path="url(#clip620)" d="M682.609 1503.03 L694.849 1503.03 L694.849 1505.98 L678.391 1505.98 L678.391 1503.03 Q680.387 1500.96 683.825 1497.49 Q687.28 1494 688.165 1492.99 Q689.849 1491.1 690.509 1489.8 Q691.186 1488.48 691.186 1487.21 Q691.186 1485.15 689.728 1483.84 Q688.287 1482.54 685.96 1482.54 Q684.311 1482.54 682.471 1483.12 Q680.648 1483.69 678.564 1484.85 L678.564 1481.31 Q680.682 1480.46 682.523 1480.03 Q684.363 1479.59 685.891 1479.59 Q689.918 1479.59 692.314 1481.6 Q694.71 1483.62 694.71 1486.99 Q694.71 1488.58 694.102 1490.03 Q693.512 1491.45 691.932 1493.39 Q691.498 1493.9 689.172 1496.31 Q686.846 1498.71 682.609 1503.03 Z" fill="#4c4c4c" fill-rule="evenodd" fill-opacity="1" /><path clip-path="url(#clip620)" d="M709.71 1482.37 Q707.002 1482.37 705.63 1485.04 Q704.276 1487.7 704.276 1493.05 Q704.276 1498.38 705.63 1501.05 Q707.002 1503.71 709.71 1503.71 Q712.436 1503.71 713.79 1501.05 Q715.161 1498.38 715.161 1493.05 Q715.161 1487.7 713.79 1485.04 Q712.436 1482.37 709.71 1482.37 M709.71 1479.59 Q714.068 1479.59 716.359 1483.05 Q718.668 1486.48 718.668 1493.05 Q718.668 1499.59 716.359 1503.05 Q714.068 1506.48 709.71 1506.48 Q705.352 1506.48 703.043 1503.05 Q700.752 1499.59 700.752 1493.05 Q700.752 1486.48 703.043 1483.05 Q705.352 1479.59 709.71 1479.59 Z" fill="#4c4c4c" fill-rule="evenodd" fill-opacity="1" /><path clip-path="url(#clip620)" d="M889.466 1492 Q891.983 1492.54 893.39 1494.24 Q894.813 1495.95 894.813 1498.45 Q894.813 1502.28 892.174 1504.38 Q889.535 1506.48 884.674 1506.48 Q883.042 1506.48 881.306 1506.15 Q879.587 1505.84 877.747 1505.2 L877.747 1501.81 Q879.206 1502.66 880.942 1503.1 Q882.678 1503.53 884.57 1503.53 Q887.869 1503.53 889.587 1502.23 Q891.324 1500.93 891.324 1498.45 Q891.324 1496.15 889.709 1494.87 Q888.112 1493.57 885.247 1493.57 L882.226 1493.57 L882.226 1490.68 L885.386 1490.68 Q887.973 1490.68 889.344 1489.66 Q890.716 1488.62 890.716 1486.67 Q890.716 1484.68 889.292 1483.62 Q887.886 1482.54 885.247 1482.54 Q883.806 1482.54 882.157 1482.85 Q880.508 1483.17 878.528 1483.83 L878.528 1480.7 Q880.525 1480.15 882.261 1479.87 Q884.015 1479.59 885.56 1479.59 Q889.553 1479.59 891.879 1481.41 Q894.205 1483.22 894.205 1486.31 Q894.205 1488.46 892.973 1489.96 Q891.74 1491.43 889.466 1492 Z" fill="#4c4c4c" fill-rule="evenodd" fill-opacity="1" /><path clip-path="url(#clip620)" d="M908.962 1482.37 Q906.254 1482.37 904.882 1485.04 Q903.528 1487.7 903.528 1493.05 Q903.528 1498.38 904.882 1501.05 Q906.254 1503.71 908.962 1503.71 Q911.688 1503.71 913.042 1501.05 Q914.414 1498.38 914.414 1493.05 Q914.414 1487.7 913.042 1485.04 Q911.688 1482.37 908.962 1482.37 M908.962 1479.59 Q913.32 1479.59 915.612 1483.05 Q917.921 1486.48 917.921 1493.05 Q917.921 1499.59 915.612 1503.05 Q913.32 1506.48 908.962 1506.48 Q904.605 1506.48 902.296 1503.05 Q900.004 1499.59 900.004 1493.05 Q900.004 1486.48 902.296 1483.05 Q904.605 1479.59 908.962 1479.59 Z" fill="#4c4c4c" fill-rule="evenodd" fill-opacity="1" /><path clip-path="url(#clip620)" d="M1088.27 1483.12 L1079.41 1496.95 L1088.27 1496.95 L1088.27 1483.12 M1087.35 1480.06 L1091.76 1480.06 L1091.76 1496.95 L1095.45 1496.95 L1095.45 1499.87 L1091.76 1499.87 L1091.76 1505.98 L1088.27 1505.98 L1088.27 1499.87 L1076.57 1499.87 L1076.57 1496.48 L1087.35 1480.06 Z" fill="#4c4c4c" fill-rule="evenodd" fill-opacity="1" /><path clip-path="url(#clip620)" d="M1108.75 1482.37 Q1106.04 1482.37 1104.67 1485.04 Q1103.32 1487.7 1103.32 1493.05 Q1103.32 1498.38 1104.67 1501.05 Q1106.04 1503.71 1108.75 1503.71 Q1111.48 1503.71 1112.83 1501.05 Q1114.2 1498.38 1114.2 1493.05 Q1114.2 1487.7 1112.83 1485.04 Q1111.48 1482.37 1108.75 1482.37 M1108.75 1479.59 Q1113.11 1479.59 1115.4 1483.05 Q1117.71 1486.48 1117.71 1493.05 Q1117.71 1499.59 1115.4 1503.05 Q1113.11 1506.48 1108.75 1506.48 Q1104.4 1506.48 1102.09 1503.05 Q1099.79 1499.59 1099.79 1493.05 Q1099.79 1486.48 1102.09 1483.05 Q1104.4 1479.59 1108.75 1479.59 Z" fill="#4c4c4c" fill-rule="evenodd" fill-opacity="1" /><path clip-path="url(#clip620)" d="M1277.47 1480.06 L1291.23 1480.06 L1291.23 1483.01 L1280.68 1483.01 L1280.68 1489.37 Q1281.44 1489.1 1282.21 1488.98 Q1282.97 1488.84 1283.73 1488.84 Q1288.07 1488.84 1290.61 1491.22 Q1293.14 1493.6 1293.14 1497.66 Q1293.14 1501.85 1290.54 1504.17 Q1287.94 1506.48 1283.2 1506.48 Q1281.56 1506.48 1279.86 1506.21 Q1278.18 1505.93 1276.37 1505.37 L1276.37 1501.85 Q1277.94 1502.7 1279.6 1503.12 Q1281.27 1503.53 1283.13 1503.53 Q1286.13 1503.53 1287.88 1501.95 Q1289.64 1500.37 1289.64 1497.66 Q1289.64 1494.96 1287.88 1493.38 Q1286.13 1491.8 1283.13 1491.8 Q1281.72 1491.8 1280.31 1492.11 Q1278.93 1492.42 1277.47 1493.08 L1277.47 1480.06 Z" fill="#4c4c4c" fill-rule="evenodd" fill-opacity="1" /><path clip-path="url(#clip620)" d="M1307.55 1482.37 Q1304.85 1482.37 1303.47 1485.04 Q1302.12 1487.7 1302.12 1493.05 Q1302.12 1498.38 1303.47 1501.05 Q1304.85 1503.71 1307.55 1503.71 Q1310.28 1503.71 1311.63 1501.05 Q1313.01 1498.38 1313.01 1493.05 Q1313.01 1487.7 1311.63 1485.04 Q1310.28 1482.37 1307.55 1482.37 M1307.55 1479.59 Q1311.91 1479.59 1314.2 1483.05 Q1316.51 1486.48 1316.51 1493.05 Q1316.51 1499.59 1314.2 1503.05 Q1311.91 1506.48 1307.55 1506.48 Q1303.2 1506.48 1300.89 1503.05 Q1298.6 1499.59 1298.6 1493.05 Q1298.6 1486.48 1300.89 1483.05 Q1303.2 1479.59 1307.55 1479.59 Z" fill="#4c4c4c" fill-rule="evenodd" fill-opacity="1" /><path clip-path="url(#clip620)" d="M1484.8 1491.62 Q1482.44 1491.62 1481.05 1493.24 Q1479.68 1494.85 1479.68 1497.66 Q1479.68 1500.46 1481.05 1502.09 Q1482.44 1503.71 1484.8 1503.71 Q1487.16 1503.71 1488.53 1502.09 Q1489.92 1500.46 1489.92 1497.66 Q1489.92 1494.85 1488.53 1493.24 Q1487.16 1491.62 1484.8 1491.62 M1491.76 1480.63 L1491.76 1483.83 Q1490.44 1483.2 1489.09 1482.87 Q1487.75 1482.54 1486.43 1482.54 Q1482.96 1482.54 1481.12 1484.89 Q1479.3 1487.23 1479.04 1491.97 Q1480.06 1490.46 1481.61 1489.66 Q1483.15 1488.84 1485.01 1488.84 Q1488.92 1488.84 1491.17 1491.22 Q1493.45 1493.58 1493.45 1497.66 Q1493.45 1501.66 1491.09 1504.07 Q1488.72 1506.48 1484.8 1506.48 Q1480.3 1506.48 1477.93 1503.05 Q1475.55 1499.59 1475.55 1493.05 Q1475.55 1486.9 1478.46 1483.25 Q1481.38 1479.59 1486.29 1479.59 Q1487.61 1479.59 1488.95 1479.85 Q1490.3 1480.11 1491.76 1480.63 Z" fill="#4c4c4c" fill-rule="evenodd" fill-opacity="1" /><path clip-path="url(#clip620)" d="M1506.99 1482.37 Q1504.28 1482.37 1502.91 1485.04 Q1501.55 1487.7 1501.55 1493.05 Q1501.55 1498.38 1502.91 1501.05 Q1504.28 1503.71 1506.99 1503.71 Q1509.71 1503.71 1511.07 1501.05 Q1512.44 1498.38 1512.44 1493.05 Q1512.44 1487.7 1511.07 1485.04 Q1509.71 1482.37 1506.99 1482.37 M1506.99 1479.59 Q1511.35 1479.59 1513.64 1483.05 Q1515.95 1486.48 1515.95 1493.05 Q1515.95 1499.59 1513.64 1503.05 Q1511.35 1506.48 1506.99 1506.48 Q1502.63 1506.48 1500.32 1503.05 Q1498.03 1499.59 1498.03 1493.05 Q1498.03 1486.48 1500.32 1483.05 Q1502.63 1479.59 1506.99 1479.59 Z" fill="#4c4c4c" fill-rule="evenodd" fill-opacity="1" /><path clip-path="url(#clip620)" d="M1675.07 1480.06 L1691.74 1480.06 L1691.74 1481.55 L1682.33 1505.98 L1678.66 1505.98 L1687.52 1483.01 L1675.07 1483.01 L1675.07 1480.06 Z" fill="#4c4c4c" fill-rule="evenodd" fill-opacity="1" /><path clip-path="url(#clip620)" d="M1706.08 1482.37 Q1703.37 1482.37 1702 1485.04 Q1700.64 1487.7 1700.64 1493.05 Q1700.64 1498.38 1702 1501.05 Q1703.37 1503.71 1706.08 1503.71 Q1708.8 1503.71 1710.16 1501.05 Q1711.53 1498.38 1711.53 1493.05 Q1711.53 1487.7 1710.16 1485.04 Q1708.8 1482.37 1706.08 1482.37 M1706.08 1479.59 Q1710.43 1479.59 1712.72 1483.05 Q1715.03 1486.48 1715.03 1493.05 Q1715.03 1499.59 1712.72 1503.05 Q1710.43 1506.48 1706.08 1506.48 Q1701.72 1506.48 1699.41 1503.05 Q1697.12 1499.59 1697.12 1493.05 Q1697.12 1486.48 1699.41 1483.05 Q1701.72 1479.59 1706.08 1479.59 Z" fill="#4c4c4c" fill-rule="evenodd" fill-opacity="1" /><path clip-path="url(#clip620)" d="M1883.01 1493.67 Q1880.51 1493.67 1879.07 1495.01 Q1877.65 1496.34 1877.65 1498.69 Q1877.65 1501.03 1879.07 1502.37 Q1880.51 1503.71 1883.01 1503.71 Q1885.51 1503.71 1886.95 1502.37 Q1888.39 1501.01 1888.39 1498.69 Q1888.39 1496.34 1886.95 1495.01 Q1885.53 1493.67 1883.01 1493.67 M1879.5 1492.18 Q1877.25 1491.62 1875.98 1490.08 Q1874.73 1488.53 1874.73 1486.31 Q1874.73 1483.2 1876.93 1481.4 Q1879.16 1479.59 1883.01 1479.59 Q1886.88 1479.59 1889.09 1481.4 Q1891.29 1483.2 1891.29 1486.31 Q1891.29 1488.53 1890.02 1490.08 Q1888.77 1491.62 1886.53 1492.18 Q1889.07 1492.77 1890.48 1494.49 Q1891.9 1496.21 1891.9 1498.69 Q1891.9 1502.46 1889.59 1504.47 Q1887.3 1506.48 1883.01 1506.48 Q1878.72 1506.48 1876.41 1504.47 Q1874.12 1502.46 1874.12 1498.69 Q1874.12 1496.21 1875.55 1494.49 Q1876.97 1492.77 1879.5 1492.18 M1878.22 1486.64 Q1878.22 1488.65 1879.47 1489.78 Q1880.74 1490.91 1883.01 1490.91 Q1885.27 1490.91 1886.53 1489.78 Q1887.82 1488.65 1887.82 1486.64 Q1887.82 1484.63 1886.53 1483.5 Q1885.27 1482.37 1883.01 1482.37 Q1880.74 1482.37 1879.47 1483.5 Q1878.22 1484.63 1878.22 1486.64 Z" fill="#4c4c4c" fill-rule="evenodd" fill-opacity="1" /><path clip-path="url(#clip620)" d="M1905.63 1482.37 Q1902.92 1482.37 1901.55 1485.04 Q1900.2 1487.7 1900.2 1493.05 Q1900.2 1498.38 1901.55 1501.05 Q1902.92 1503.71 1905.63 1503.71 Q1908.36 1503.71 1909.71 1501.05 Q1911.08 1498.38 1911.08 1493.05 Q1911.08 1487.7 1909.71 1485.04 Q1908.36 1482.37 1905.63 1482.37 M1905.63 1479.59 Q1909.99 1479.59 1912.28 1483.05 Q1914.59 1486.48 1914.59 1493.05 Q1914.59 1499.59 1912.28 1503.05 Q1909.99 1506.48 1905.63 1506.48 Q1901.27 1506.48 1898.97 1503.05 Q1896.67 1499.59 1896.67 1493.05 Q1896.67 1486.48 1898.97 1483.05 Q1901.27 1479.59 1905.63 1479.59 Z" fill="#4c4c4c" fill-rule="evenodd" fill-opacity="1" /><path clip-path="url(#clip620)" d="M2075.01 1505.44 L2075.01 1502.25 Q2076.33 1502.87 2077.68 1503.2 Q2079.03 1503.53 2080.34 1503.53 Q2083.81 1503.53 2085.63 1501.21 Q2087.47 1498.86 2087.73 1494.1 Q2086.72 1495.6 2085.18 1496.4 Q2083.63 1497.2 2081.76 1497.2 Q2077.87 1497.2 2075.6 1494.85 Q2073.34 1492.49 2073.34 1488.41 Q2073.34 1484.42 2075.7 1482 Q2078.06 1479.59 2081.98 1479.59 Q2086.48 1479.59 2088.84 1483.05 Q2091.22 1486.48 2091.22 1493.05 Q2091.22 1499.17 2088.3 1502.84 Q2085.41 1506.48 2080.49 1506.48 Q2079.17 1506.48 2077.82 1506.22 Q2076.46 1505.96 2075.01 1505.44 M2081.98 1494.45 Q2084.35 1494.45 2085.72 1492.84 Q2087.11 1491.22 2087.11 1488.41 Q2087.11 1485.62 2085.72 1484 Q2084.35 1482.37 2081.98 1482.37 Q2079.62 1482.37 2078.23 1484 Q2076.86 1485.62 2076.86 1488.41 Q2076.86 1491.22 2078.23 1492.84 Q2079.62 1494.45 2081.98 1494.45 Z" fill="#4c4c4c" fill-rule="evenodd" fill-opacity="1" /><path clip-path="url(#clip620)" d="M2105.02 1482.37 Q2102.31 1482.37 2100.94 1485.04 Q2099.59 1487.7 2099.59 1493.05 Q2099.59 1498.38 2100.94 1501.05 Q2102.31 1503.71 2105.02 1503.71 Q2107.75 1503.71 2109.1 1501.05 Q2110.47 1498.38 2110.47 1493.05 Q2110.47 1487.7 2109.1 1485.04 Q2107.75 1482.37 2105.02 1482.37 M2105.02 1479.59 Q2109.38 1479.59 2111.67 1483.05 Q2113.98 1486.48 2113.98 1493.05 Q2113.98 1499.59 2111.67 1503.05 Q2109.38 1506.48 2105.02 1506.48 Q2100.67 1506.48 2098.36 1503.05 Q2096.06 1499.59 2096.06 1493.05 Q2096.06 1486.48 2098.36 1483.05 Q2100.67 1479.59 2105.02 1479.59 Z" fill="#4c4c4c" fill-rule="evenodd" fill-opacity="1" /><path clip-path="url(#clip620)" d="M2262.67 1503.03 L2268.4 1503.03 L2268.4 1483.25 L2262.17 1484.5 L2262.17 1481.31 L2268.36 1480.06 L2271.87 1480.06 L2271.87 1503.03 L2277.6 1503.03 L2277.6 1505.98 L2262.67 1505.98 L2262.67 1503.03 Z" fill="#4c4c4c" fill-rule="evenodd" fill-opacity="1" /><path clip-path="url(#clip620)" d="M2292.18 1482.37 Q2289.48 1482.37 2288.1 1485.04 Q2286.75 1487.7 2286.75 1493.05 Q2286.75 1498.38 2288.1 1501.05 Q2289.48 1503.71 2292.18 1503.71 Q2294.91 1503.71 2296.26 1501.05 Q2297.63 1498.38 2297.63 1493.05 Q2297.63 1487.7 2296.26 1485.04 Q2294.91 1482.37 2292.18 1482.37 M2292.18 1479.59 Q2296.54 1479.59 2298.83 1483.05 Q2301.14 1486.48 2301.14 1493.05 Q2301.14 1499.59 2298.83 1503.05 Q2296.54 1506.48 2292.18 1506.48 Q2287.83 1506.48 2285.52 1503.05 Q2283.23 1499.59 2283.23 1493.05 Q2283.23 1486.48 2285.52 1483.05 Q2287.83 1479.59 2292.18 1479.59 Z" fill="#4c4c4c" fill-rule="evenodd" fill-opacity="1" /><path clip-path="url(#clip620)" d="M2314.8 1482.37 Q2312.1 1482.37 2310.72 1485.04 Q2309.37 1487.7 2309.37 1493.05 Q2309.37 1498.38 2310.72 1501.05 Q2312.1 1503.71 2314.8 1503.71 Q2317.53 1503.71 2318.88 1501.05 Q2320.26 1498.38 2320.26 1493.05 Q2320.26 1487.7 2318.88 1485.04 Q2317.53 1482.37 2314.8 1482.37 M2314.8 1479.59 Q2319.16 1479.59 2321.45 1483.05 Q2323.76 1486.48 2323.76 1493.05 Q2323.76 1499.59 2321.45 1503.05 Q2319.16 1506.48 2314.8 1506.48 Q2310.45 1506.48 2308.14 1503.05 Q2305.85 1499.59 2305.85 1493.05 Q2305.85 1486.48 2308.14 1483.05 Q2310.45 1479.59 2314.8 1479.59 Z" fill="#4c4c4c" fill-rule="evenodd" fill-opacity="1" /><path clip-path="url(#clip620)" d="M1187.03 1526.57 L1191.71 1526.57 L1191.71 1561.13 L1187.03 1561.13 L1187.03 1526.57 Z" fill="#000000" fill-rule="evenodd" fill-opacity="1" /><path clip-path="url(#clip620)" d="M1205.04 1527.84 L1205.04 1535.21 L1213.82 1535.21 L1213.82 1538.52 L1205.04 1538.52 L1205.04 1552.59 Q1205.04 1555.76 1205.9 1556.66 Q1206.78 1557.57 1209.44 1557.57 L1213.82 1557.57 L1213.82 1561.13 L1209.44 1561.13 Q1204.51 1561.13 1202.64 1559.3 Q1200.76 1557.45 1200.76 1552.59 L1200.76 1538.52 L1197.64 1538.52 L1197.64 1535.21 L1200.76 1535.21 L1200.76 1527.84 L1205.04 1527.84 Z" fill="#000000" fill-rule="evenodd" fill-opacity="1" /><path clip-path="url(#clip620)" d="M1241.59 1547.1 L1241.59 1549.19 L1222.01 1549.19 Q1222.29 1553.59 1224.65 1555.9 Q1227.03 1558.19 1231.27 1558.19 Q1233.72 1558.19 1236.01 1557.59 Q1238.33 1556.99 1240.6 1555.78 L1240.6 1559.81 Q1238.31 1560.78 1235.9 1561.29 Q1233.49 1561.8 1231.01 1561.8 Q1224.81 1561.8 1221.18 1558.19 Q1217.57 1554.58 1217.57 1548.42 Q1217.57 1542.06 1220.99 1538.33 Q1224.44 1534.58 1230.27 1534.58 Q1235.51 1534.58 1238.54 1537.96 Q1241.59 1541.32 1241.59 1547.1 M1237.33 1545.85 Q1237.29 1542.36 1235.37 1540.28 Q1233.47 1538.19 1230.32 1538.19 Q1226.76 1538.19 1224.6 1540.21 Q1222.47 1542.22 1222.15 1545.88 L1237.33 1545.85 Z" fill="#000000" fill-rule="evenodd" fill-opacity="1" /><path clip-path="url(#clip620)" d="M1263.61 1539.19 Q1262.89 1538.77 1262.03 1538.59 Q1261.2 1538.38 1260.18 1538.38 Q1256.57 1538.38 1254.63 1540.74 Q1252.7 1543.08 1252.7 1547.47 L1252.7 1561.13 L1248.42 1561.13 L1248.42 1535.21 L1252.7 1535.21 L1252.7 1539.23 Q1254.05 1536.87 1256.2 1535.74 Q1258.35 1534.58 1261.43 1534.58 Q1261.87 1534.58 1262.4 1534.65 Q1262.94 1534.7 1263.58 1534.81 L1263.61 1539.19 Z" fill="#000000" fill-rule="evenodd" fill-opacity="1" /><path clip-path="url(#clip620)" d="M1279.86 1548.1 Q1274.7 1548.1 1272.7 1549.28 Q1270.71 1550.46 1270.71 1553.31 Q1270.71 1555.58 1272.2 1556.92 Q1273.7 1558.24 1276.27 1558.24 Q1279.81 1558.24 1281.94 1555.74 Q1284.09 1553.22 1284.09 1549.05 L1284.09 1548.1 L1279.86 1548.1 M1288.35 1546.34 L1288.35 1561.13 L1284.09 1561.13 L1284.09 1557.2 Q1282.63 1559.56 1280.46 1560.69 Q1278.28 1561.8 1275.13 1561.8 Q1271.15 1561.8 1268.79 1559.58 Q1266.45 1557.34 1266.45 1553.59 Q1266.45 1549.21 1269.37 1546.99 Q1272.31 1544.77 1278.12 1544.77 L1284.09 1544.77 L1284.09 1544.35 Q1284.09 1541.41 1282.15 1539.81 Q1280.23 1538.19 1276.73 1538.19 Q1274.51 1538.19 1272.4 1538.72 Q1270.3 1539.26 1268.35 1540.32 L1268.35 1536.39 Q1270.69 1535.48 1272.89 1535.04 Q1275.09 1534.58 1277.17 1534.58 Q1282.8 1534.58 1285.57 1537.5 Q1288.35 1540.41 1288.35 1546.34 Z" fill="#000000" fill-rule="evenodd" fill-opacity="1" /><path clip-path="url(#clip620)" d="M1301.34 1527.84 L1301.34 1535.21 L1310.11 1535.21 L1310.11 1538.52 L1301.34 1538.52 L1301.34 1552.59 Q1301.34 1555.76 1302.19 1556.66 Q1303.07 1557.57 1305.74 1557.57 L1310.11 1557.57 L1310.11 1561.13 L1305.74 1561.13 Q1300.81 1561.13 1298.93 1559.3 Q1297.06 1557.45 1297.06 1552.59 L1297.06 1538.52 L1293.93 1538.52 L1293.93 1535.21 L1297.06 1535.21 L1297.06 1527.84 L1301.34 1527.84 Z" fill="#000000" fill-rule="evenodd" fill-opacity="1" /><path clip-path="url(#clip620)" d="M1315.71 1535.21 L1319.97 1535.21 L1319.97 1561.13 L1315.71 1561.13 L1315.71 1535.21 M1315.71 1525.11 L1319.97 1525.11 L1319.97 1530.51 L1315.71 1530.51 L1315.71 1525.11 Z" fill="#000000" fill-rule="evenodd" fill-opacity="1" /><path clip-path="url(#clip620)" d="M1338.93 1538.19 Q1335.5 1538.19 1333.51 1540.88 Q1331.52 1543.54 1331.52 1548.19 Q1331.52 1552.84 1333.49 1555.53 Q1335.48 1558.19 1338.93 1558.19 Q1342.33 1558.19 1344.32 1555.51 Q1346.32 1552.82 1346.32 1548.19 Q1346.32 1543.59 1344.32 1540.9 Q1342.33 1538.19 1338.93 1538.19 M1338.93 1534.58 Q1344.49 1534.58 1347.66 1538.19 Q1350.83 1541.8 1350.83 1548.19 Q1350.83 1554.56 1347.66 1558.19 Q1344.49 1561.8 1338.93 1561.8 Q1333.35 1561.8 1330.18 1558.19 Q1327.03 1554.56 1327.03 1548.19 Q1327.03 1541.8 1330.18 1538.19 Q1333.35 1534.58 1338.93 1534.58 Z" fill="#000000" fill-rule="evenodd" fill-opacity="1" /><path clip-path="url(#clip620)" d="M1379.44 1545.48 L1379.44 1561.13 L1375.18 1561.13 L1375.18 1545.62 Q1375.18 1541.94 1373.75 1540.11 Q1372.31 1538.28 1369.44 1538.28 Q1365.99 1538.28 1364 1540.48 Q1362.01 1542.68 1362.01 1546.48 L1362.01 1561.13 L1357.73 1561.13 L1357.73 1535.21 L1362.01 1535.21 L1362.01 1539.23 Q1363.54 1536.9 1365.6 1535.74 Q1367.68 1534.58 1370.39 1534.58 Q1374.86 1534.58 1377.15 1537.36 Q1379.44 1540.11 1379.44 1545.48 Z" fill="#000000" fill-rule="evenodd" fill-opacity="1" /><path clip-path="url(#clip620)" d="M1404.46 1535.97 L1404.46 1540 Q1402.66 1539.07 1400.71 1538.61 Q1398.77 1538.15 1396.69 1538.15 Q1393.51 1538.15 1391.92 1539.12 Q1390.34 1540.09 1390.34 1542.03 Q1390.34 1543.52 1391.48 1544.37 Q1392.61 1545.21 1396.04 1545.97 L1397.5 1546.29 Q1402.03 1547.27 1403.93 1549.05 Q1405.85 1550.81 1405.85 1553.98 Q1405.85 1557.59 1402.98 1559.7 Q1400.13 1561.8 1395.13 1561.8 Q1393.05 1561.8 1390.78 1561.39 Q1388.54 1560.99 1386.04 1560.18 L1386.04 1555.78 Q1388.4 1557.01 1390.69 1557.64 Q1392.98 1558.24 1395.23 1558.24 Q1398.24 1558.24 1399.86 1557.22 Q1401.48 1556.18 1401.48 1554.3 Q1401.48 1552.57 1400.3 1551.64 Q1399.14 1550.72 1395.18 1549.86 L1393.7 1549.51 Q1389.74 1548.68 1387.98 1546.97 Q1386.22 1545.23 1386.22 1542.22 Q1386.22 1538.56 1388.81 1536.57 Q1391.41 1534.58 1396.18 1534.58 Q1398.54 1534.58 1400.62 1534.93 Q1402.7 1535.28 1404.46 1535.97 Z" fill="#000000" fill-rule="evenodd" fill-opacity="1" /><polyline clip-path="url(#clip622)" style="stroke:#ffffff; stroke-linecap:butt; stroke-linejoin:round; stroke-width:4; stroke-opacity:1; fill:none" points="
  240.129,1403.65 2352.76,1403.65 
  "/>
<polyline clip-path="url(#clip622)" style="stroke:#ffffff; stroke-linecap:butt; stroke-linejoin:round; stroke-width:4; stroke-opacity:1; fill:none" points="
  240.129,1186.48 2352.76,1186.48 
  "/>
<polyline clip-path="url(#clip622)" style="stroke:#ffffff; stroke-linecap:butt; stroke-linejoin:round; stroke-width:4; stroke-opacity:1; fill:none" points="
  240.129,969.316 2352.76,969.316 
  "/>
<polyline clip-path="url(#clip622)" style="stroke:#ffffff; stroke-linecap:butt; stroke-linejoin:round; stroke-width:4; stroke-opacity:1; fill:none" points="
  240.129,752.148 2352.76,752.148 
  "/>
<polyline clip-path="url(#clip622)" style="stroke:#ffffff; stroke-linecap:butt; stroke-linejoin:round; stroke-width:4; stroke-opacity:1; fill:none" points="
  240.129,534.98 2352.76,534.98 
  "/>
<polyline clip-path="url(#clip622)" style="stroke:#ffffff; stroke-linecap:butt; stroke-linejoin:round; stroke-width:4; stroke-opacity:1; fill:none" points="
  240.129,317.811 2352.76,317.811 
  "/>
<polyline clip-path="url(#clip622)" style="stroke:#ffffff; stroke-linecap:butt; stroke-linejoin:round; stroke-width:2; stroke-opacity:1; fill:none" points="
  240.129,1295.07 2352.76,1295.07 
  "/>
<polyline clip-path="url(#clip622)" style="stroke:#ffffff; stroke-linecap:butt; stroke-linejoin:round; stroke-width:2; stroke-opacity:1; fill:none" points="
  240.129,1077.9 2352.76,1077.9 
  "/>
<polyline clip-path="url(#clip622)" style="stroke:#ffffff; stroke-linecap:butt; stroke-linejoin:round; stroke-width:2; stroke-opacity:1; fill:none" points="
  240.129,860.732 2352.76,860.732 
  "/>
<polyline clip-path="url(#clip622)" style="stroke:#ffffff; stroke-linecap:butt; stroke-linejoin:round; stroke-width:2; stroke-opacity:1; fill:none" points="
  240.129,643.564 2352.76,643.564 
  "/>
<polyline clip-path="url(#clip622)" style="stroke:#ffffff; stroke-linecap:butt; stroke-linejoin:round; stroke-width:2; stroke-opacity:1; fill:none" points="
  240.129,426.395 2352.76,426.395 
  "/>
<polyline clip-path="url(#clip622)" style="stroke:#ffffff; stroke-linecap:butt; stroke-linejoin:round; stroke-width:2; stroke-opacity:1; fill:none" points="
  240.129,209.227 2352.76,209.227 
  "/>
<polyline clip-path="url(#clip620)" style="stroke:#ffffff; stroke-linecap:butt; stroke-linejoin:round; stroke-width:4; stroke-opacity:1; fill:none" points="
  240.129,1444.78 240.129,106.192 
  "/>
<polyline clip-path="url(#clip620)" style="stroke:#333333; stroke-linecap:butt; stroke-linejoin:round; stroke-width:4; stroke-opacity:1; fill:none" points="
  240.129,1403.65 221.232,1403.65 
  "/>
<polyline clip-path="url(#clip620)" style="stroke:#333333; stroke-linecap:butt; stroke-linejoin:round; stroke-width:4; stroke-opacity:1; fill:none" points="
  240.129,1186.48 221.232,1186.48 
  "/>
<polyline clip-path="url(#clip620)" style="stroke:#333333; stroke-linecap:butt; stroke-linejoin:round; stroke-width:4; stroke-opacity:1; fill:none" points="
  240.129,969.316 221.232,969.316 
  "/>
<polyline clip-path="url(#clip620)" style="stroke:#333333; stroke-linecap:butt; stroke-linejoin:round; stroke-width:4; stroke-opacity:1; fill:none" points="
  240.129,752.148 221.232,752.148 
  "/>
<polyline clip-path="url(#clip620)" style="stroke:#333333; stroke-linecap:butt; stroke-linejoin:round; stroke-width:4; stroke-opacity:1; fill:none" points="
  240.129,534.98 221.232,534.98 
  "/>
<polyline clip-path="url(#clip620)" style="stroke:#333333; stroke-linecap:butt; stroke-linejoin:round; stroke-width:4; stroke-opacity:1; fill:none" points="
  240.129,317.811 221.232,317.811 
  "/>
<polyline clip-path="url(#clip620)" style="stroke:#333333; stroke-linecap:butt; stroke-linejoin:round; stroke-width:4; stroke-opacity:1; fill:none" points="
  240.129,1295.07 230.681,1295.07 
  "/>
<polyline clip-path="url(#clip620)" style="stroke:#333333; stroke-linecap:butt; stroke-linejoin:round; stroke-width:4; stroke-opacity:1; fill:none" points="
  240.129,1077.9 230.681,1077.9 
  "/>
<polyline clip-path="url(#clip620)" style="stroke:#333333; stroke-linecap:butt; stroke-linejoin:round; stroke-width:4; stroke-opacity:1; fill:none" points="
  240.129,860.732 230.681,860.732 
  "/>
<polyline clip-path="url(#clip620)" style="stroke:#333333; stroke-linecap:butt; stroke-linejoin:round; stroke-width:4; stroke-opacity:1; fill:none" points="
  240.129,643.564 230.681,643.564 
  "/>
<polyline clip-path="url(#clip620)" style="stroke:#333333; stroke-linecap:butt; stroke-linejoin:round; stroke-width:4; stroke-opacity:1; fill:none" points="
  240.129,426.395 230.681,426.395 
  "/>
<polyline clip-path="url(#clip620)" style="stroke:#333333; stroke-linecap:butt; stroke-linejoin:round; stroke-width:4; stroke-opacity:1; fill:none" points="
  240.129,209.227 230.681,209.227 
  "/>
<path clip-path="url(#clip620)" d="M83.7863 1403.99 L106.043 1403.99 L106.043 1406.94 L83.7863 1406.94 L83.7863 1403.99 Z" fill="#4c4c4c" fill-rule="evenodd" fill-opacity="1" /><path clip-path="url(#clip620)" d="M114.22 1413.66 L119.949 1413.66 L119.949 1393.89 L113.717 1395.14 L113.717 1391.94 L119.915 1390.69 L123.421 1390.69 L123.421 1413.66 L129.151 1413.66 L129.151 1416.61 L114.22 1416.61 L114.22 1413.66 Z" fill="#4c4c4c" fill-rule="evenodd" fill-opacity="1" /><path clip-path="url(#clip620)" d="M136.842 1413.66 L142.571 1413.66 L142.571 1393.89 L136.338 1395.14 L136.338 1391.94 L142.536 1390.69 L146.043 1390.69 L146.043 1413.66 L151.772 1413.66 L151.772 1416.61 L136.842 1416.61 L136.842 1413.66 Z" fill="#4c4c4c" fill-rule="evenodd" fill-opacity="1" /><path clip-path="url(#clip620)" d="M158.855 1412.2 L162.518 1412.2 L162.518 1416.61 L158.855 1416.61 L158.855 1412.2 Z" fill="#4c4c4c" fill-rule="evenodd" fill-opacity="1" /><path clip-path="url(#clip620)" d="M180.782 1402.64 Q183.3 1403.18 184.706 1404.88 Q186.129 1406.58 186.129 1409.08 Q186.129 1412.91 183.491 1415.02 Q180.852 1417.12 175.991 1417.12 Q174.359 1417.12 172.623 1416.79 Q170.904 1416.47 169.064 1415.83 L169.064 1412.45 Q170.522 1413.3 172.258 1413.73 Q173.994 1414.16 175.886 1414.16 Q179.185 1414.16 180.904 1412.86 Q182.64 1411.56 182.64 1409.08 Q182.64 1406.79 181.025 1405.5 Q179.428 1404.2 176.564 1404.2 L173.543 1404.2 L173.543 1401.32 L176.702 1401.32 Q179.289 1401.32 180.661 1400.29 Q182.032 1399.25 182.032 1397.31 Q182.032 1395.31 180.609 1394.25 Q179.202 1393.18 176.564 1393.18 Q175.123 1393.18 173.473 1393.49 Q171.824 1393.8 169.845 1394.46 L169.845 1391.34 Q171.841 1390.78 173.577 1390.5 Q175.331 1390.22 176.876 1390.22 Q180.869 1390.22 183.195 1392.05 Q185.522 1393.85 185.522 1396.94 Q185.522 1399.1 184.289 1400.59 Q183.057 1402.06 180.782 1402.64 Z" fill="#4c4c4c" fill-rule="evenodd" fill-opacity="1" /><path clip-path="url(#clip620)" d="M84.4981 1186.82 L106.755 1186.82 L106.755 1189.77 L84.4981 1189.77 L84.4981 1186.82 Z" fill="#4c4c4c" fill-rule="evenodd" fill-opacity="1" /><path clip-path="url(#clip620)" d="M114.932 1196.49 L120.661 1196.49 L120.661 1176.72 L114.428 1177.97 L114.428 1174.77 L120.626 1173.52 L124.133 1173.52 L124.133 1196.49 L129.862 1196.49 L129.862 1199.44 L114.932 1199.44 L114.932 1196.49 Z" fill="#4c4c4c" fill-rule="evenodd" fill-opacity="1" /><path clip-path="url(#clip620)" d="M137.553 1196.49 L143.282 1196.49 L143.282 1176.72 L137.05 1177.97 L137.05 1174.77 L143.248 1173.52 L146.755 1173.52 L146.755 1196.49 L152.484 1196.49 L152.484 1199.44 L137.553 1199.44 L137.553 1196.49 Z" fill="#4c4c4c" fill-rule="evenodd" fill-opacity="1" /><path clip-path="url(#clip620)" d="M159.567 1195.03 L163.23 1195.03 L163.23 1199.44 L159.567 1199.44 L159.567 1195.03 Z" fill="#4c4c4c" fill-rule="evenodd" fill-opacity="1" /><path clip-path="url(#clip620)" d="M173.89 1196.49 L186.129 1196.49 L186.129 1199.44 L169.671 1199.44 L169.671 1196.49 Q171.668 1194.43 175.105 1190.95 Q178.56 1187.47 179.445 1186.46 Q181.129 1184.57 181.789 1183.26 Q182.466 1181.94 182.466 1180.68 Q182.466 1178.61 181.008 1177.31 Q179.567 1176.01 177.241 1176.01 Q175.591 1176.01 173.751 1176.58 Q171.928 1177.15 169.845 1178.32 L169.845 1174.77 Q171.963 1173.92 173.803 1173.49 Q175.643 1173.06 177.171 1173.06 Q181.199 1173.06 183.595 1175.07 Q185.991 1177.08 185.991 1180.45 Q185.991 1182.05 185.383 1183.49 Q184.793 1184.91 183.213 1186.86 Q182.779 1187.36 180.452 1189.77 Q178.126 1192.17 173.89 1196.49 Z" fill="#4c4c4c" fill-rule="evenodd" fill-opacity="1" /><path clip-path="url(#clip620)" d="M84.2203 969.655 L106.477 969.655 L106.477 972.606 L84.2203 972.606 L84.2203 969.655 Z" fill="#4c4c4c" fill-rule="evenodd" fill-opacity="1" /><path clip-path="url(#clip620)" d="M114.654 979.325 L120.383 979.325 L120.383 959.551 L114.151 960.801 L114.151 957.606 L120.349 956.356 L123.855 956.356 L123.855 979.325 L129.585 979.325 L129.585 982.276 L114.654 982.276 L114.654 979.325 Z" fill="#4c4c4c" fill-rule="evenodd" fill-opacity="1" /><path clip-path="url(#clip620)" d="M137.276 979.325 L143.005 979.325 L143.005 959.551 L136.772 960.801 L136.772 957.606 L142.97 956.356 L146.477 956.356 L146.477 979.325 L152.206 979.325 L152.206 982.276 L137.276 982.276 L137.276 979.325 Z" fill="#4c4c4c" fill-rule="evenodd" fill-opacity="1" /><path clip-path="url(#clip620)" d="M159.289 977.867 L162.953 977.867 L162.953 982.276 L159.289 982.276 L159.289 977.867 Z" fill="#4c4c4c" fill-rule="evenodd" fill-opacity="1" /><path clip-path="url(#clip620)" d="M171.199 979.325 L176.928 979.325 L176.928 959.551 L170.696 960.801 L170.696 957.606 L176.893 956.356 L180.4 956.356 L180.4 979.325 L186.129 979.325 L186.129 982.276 L171.199 982.276 L171.199 979.325 Z" fill="#4c4c4c" fill-rule="evenodd" fill-opacity="1" /><path clip-path="url(#clip620)" d="M83.3002 752.486 L105.557 752.486 L105.557 755.438 L83.3002 755.438 L83.3002 752.486 Z" fill="#4c4c4c" fill-rule="evenodd" fill-opacity="1" /><path clip-path="url(#clip620)" d="M113.734 762.157 L119.463 762.157 L119.463 742.382 L113.231 743.632 L113.231 740.438 L119.428 739.188 L122.935 739.188 L122.935 762.157 L128.664 762.157 L128.664 765.108 L113.734 765.108 L113.734 762.157 Z" fill="#4c4c4c" fill-rule="evenodd" fill-opacity="1" /><path clip-path="url(#clip620)" d="M136.355 762.157 L142.085 762.157 L142.085 742.382 L135.852 743.632 L135.852 740.438 L142.05 739.188 L145.557 739.188 L145.557 762.157 L151.286 762.157 L151.286 765.108 L136.355 765.108 L136.355 762.157 Z" fill="#4c4c4c" fill-rule="evenodd" fill-opacity="1" /><path clip-path="url(#clip620)" d="M158.369 760.698 L162.032 760.698 L162.032 765.108 L158.369 765.108 L158.369 760.698 Z" fill="#4c4c4c" fill-rule="evenodd" fill-opacity="1" /><path clip-path="url(#clip620)" d="M177.171 741.497 Q174.463 741.497 173.091 744.171 Q171.737 746.827 171.737 752.174 Q171.737 757.504 173.091 760.177 Q174.463 762.834 177.171 762.834 Q179.897 762.834 181.251 760.177 Q182.623 757.504 182.623 752.174 Q182.623 746.827 181.251 744.171 Q179.897 741.497 177.171 741.497 M177.171 738.719 Q181.529 738.719 183.82 742.174 Q186.129 745.611 186.129 752.174 Q186.129 758.719 183.82 762.174 Q181.529 765.611 177.171 765.611 Q172.814 765.611 170.505 762.174 Q168.213 758.719 168.213 752.174 Q168.213 745.611 170.505 742.174 Q172.814 738.719 177.171 738.719 Z" fill="#4c4c4c" fill-rule="evenodd" fill-opacity="1" /><path clip-path="url(#clip620)" d="M83.439 535.318 L105.696 535.318 L105.696 538.27 L83.439 538.27 L83.439 535.318 Z" fill="#4c4c4c" fill-rule="evenodd" fill-opacity="1" /><path clip-path="url(#clip620)" d="M113.873 544.988 L119.602 544.988 L119.602 525.214 L113.369 526.464 L113.369 523.27 L119.567 522.02 L123.074 522.02 L123.074 544.988 L128.803 544.988 L128.803 547.94 L113.873 547.94 L113.873 544.988 Z" fill="#4c4c4c" fill-rule="evenodd" fill-opacity="1" /><path clip-path="url(#clip620)" d="M143.387 524.329 Q140.678 524.329 139.307 527.002 Q137.953 529.658 137.953 535.006 Q137.953 540.335 139.307 543.009 Q140.678 545.665 143.387 545.665 Q146.112 545.665 147.466 543.009 Q148.838 540.335 148.838 535.006 Q148.838 529.658 147.466 527.002 Q146.112 524.329 143.387 524.329 M143.387 521.551 Q147.744 521.551 150.036 525.006 Q152.345 528.443 152.345 535.006 Q152.345 541.551 150.036 545.006 Q147.744 548.443 143.387 548.443 Q139.029 548.443 136.72 545.006 Q134.428 541.551 134.428 535.006 Q134.428 528.443 136.72 525.006 Q139.029 521.551 143.387 521.551 Z" fill="#4c4c4c" fill-rule="evenodd" fill-opacity="1" /><path clip-path="url(#clip620)" d="M158.508 543.53 L162.171 543.53 L162.171 547.94 L158.508 547.94 L158.508 543.53 Z" fill="#4c4c4c" fill-rule="evenodd" fill-opacity="1" /><path clip-path="url(#clip620)" d="M169.914 547.401 L169.914 544.207 Q171.234 544.832 172.588 545.162 Q173.942 545.492 175.244 545.492 Q178.716 545.492 180.539 543.165 Q182.379 540.822 182.64 536.065 Q181.633 537.558 180.088 538.356 Q178.543 539.155 176.668 539.155 Q172.779 539.155 170.505 536.811 Q168.248 534.45 168.248 530.37 Q168.248 526.377 170.609 523.964 Q172.97 521.551 176.893 521.551 Q181.39 521.551 183.751 525.006 Q186.129 528.443 186.129 535.006 Q186.129 541.134 183.213 544.797 Q180.314 548.443 175.4 548.443 Q174.081 548.443 172.727 548.183 Q171.373 547.922 169.914 547.401 M176.893 536.412 Q179.255 536.412 180.626 534.797 Q182.015 533.183 182.015 530.37 Q182.015 527.575 180.626 525.961 Q179.255 524.329 176.893 524.329 Q174.532 524.329 173.143 525.961 Q171.772 527.575 171.772 530.37 Q171.772 533.183 173.143 534.797 Q174.532 536.412 176.893 536.412 Z" fill="#4c4c4c" fill-rule="evenodd" fill-opacity="1" /><path clip-path="url(#clip620)" d="M83.3696 318.15 L105.626 318.15 L105.626 321.101 L83.3696 321.101 L83.3696 318.15 Z" fill="#4c4c4c" fill-rule="evenodd" fill-opacity="1" /><path clip-path="url(#clip620)" d="M113.803 327.82 L119.533 327.82 L119.533 308.046 L113.3 309.296 L113.3 306.101 L119.498 304.851 L123.005 304.851 L123.005 327.82 L128.734 327.82 L128.734 330.771 L113.803 330.771 L113.803 327.82 Z" fill="#4c4c4c" fill-rule="evenodd" fill-opacity="1" /><path clip-path="url(#clip620)" d="M143.317 307.16 Q140.609 307.16 139.237 309.834 Q137.883 312.49 137.883 317.837 Q137.883 323.167 139.237 325.841 Q140.609 328.497 143.317 328.497 Q146.043 328.497 147.397 325.841 Q148.769 323.167 148.769 317.837 Q148.769 312.49 147.397 309.834 Q146.043 307.16 143.317 307.16 M143.317 304.383 Q147.675 304.383 149.966 307.837 Q152.275 311.275 152.275 317.837 Q152.275 324.382 149.966 327.837 Q147.675 331.275 143.317 331.275 Q138.96 331.275 136.651 327.837 Q134.359 324.382 134.359 317.837 Q134.359 311.275 136.651 307.837 Q138.96 304.383 143.317 304.383 Z" fill="#4c4c4c" fill-rule="evenodd" fill-opacity="1" /><path clip-path="url(#clip620)" d="M158.439 326.362 L162.102 326.362 L162.102 330.771 L158.439 330.771 L158.439 326.362 Z" fill="#4c4c4c" fill-rule="evenodd" fill-opacity="1" /><path clip-path="url(#clip620)" d="M177.241 318.462 Q174.741 318.462 173.3 319.799 Q171.876 321.136 171.876 323.48 Q171.876 325.823 173.3 327.16 Q174.741 328.497 177.241 328.497 Q179.741 328.497 181.182 327.16 Q182.623 325.806 182.623 323.48 Q182.623 321.136 181.182 319.799 Q179.758 318.462 177.241 318.462 M173.734 316.969 Q171.477 316.414 170.209 314.869 Q168.959 313.323 168.959 311.101 Q168.959 307.994 171.164 306.188 Q173.386 304.383 177.241 304.383 Q181.112 304.383 183.317 306.188 Q185.522 307.994 185.522 311.101 Q185.522 313.323 184.254 314.869 Q183.004 316.414 180.765 316.969 Q183.3 317.56 184.706 319.278 Q186.129 320.997 186.129 323.48 Q186.129 327.247 183.82 329.261 Q181.529 331.275 177.241 331.275 Q172.952 331.275 170.643 329.261 Q168.352 327.247 168.352 323.48 Q168.352 320.997 169.775 319.278 Q171.199 317.56 173.734 316.969 M172.449 311.431 Q172.449 313.445 173.699 314.573 Q174.966 315.702 177.241 315.702 Q179.498 315.702 180.765 314.573 Q182.05 313.445 182.05 311.431 Q182.05 309.417 180.765 308.289 Q179.498 307.16 177.241 307.16 Q174.966 307.16 173.699 308.289 Q172.449 309.417 172.449 311.431 Z" fill="#4c4c4c" fill-rule="evenodd" fill-opacity="1" /><path clip-path="url(#clip620)" d="M20.3722 985.184 L20.3722 955.948 L24.3073 955.948 L24.3073 968.216 L54.9322 968.216 L54.9322 972.915 L24.3073 972.915 L24.3073 985.184 L20.3722 985.184 Z" fill="#000000" fill-rule="evenodd" fill-opacity="1" /><path clip-path="url(#clip620)" d="M40.9045 937.499 L42.9878 937.499 L42.9878 957.082 Q47.3859 956.804 49.7007 954.443 Q51.9924 952.059 51.9924 947.823 Q51.9924 945.369 51.3905 943.078 Q50.7887 940.763 49.585 938.494 L53.6127 938.494 Q54.5849 940.786 55.0942 943.193 Q55.6035 945.601 55.6035 948.078 Q55.6035 954.281 51.9924 957.916 Q48.3813 961.527 42.2239 961.527 Q35.8582 961.527 32.1314 958.101 Q28.3814 954.652 28.3814 948.818 Q28.3814 943.587 31.761 940.555 Q35.1174 937.499 40.9045 937.499 M39.6545 941.758 Q36.1591 941.805 34.0758 943.726 Q31.9925 945.624 31.9925 948.772 Q31.9925 952.337 34.0063 954.49 Q36.0202 956.619 39.6776 956.943 L39.6545 941.758 Z" fill="#000000" fill-rule="evenodd" fill-opacity="1" /><path clip-path="url(#clip620)" d="M29.7703 913.981 L33.798 913.981 Q32.8721 915.786 32.4091 917.731 Q31.9462 919.675 31.9462 921.758 Q31.9462 924.93 32.9184 926.527 Q33.8906 928.101 35.835 928.101 Q37.3165 928.101 38.173 926.967 Q39.0063 925.832 39.7702 922.406 L40.0943 920.948 Q41.0665 916.411 42.8489 914.513 Q44.6081 912.592 47.7794 912.592 Q51.3905 912.592 53.497 915.462 Q55.6035 918.309 55.6035 923.309 Q55.6035 925.393 55.1868 927.661 Q54.7933 929.906 53.9831 932.406 L49.585 932.406 Q50.8118 930.045 51.4368 927.754 Q52.0387 925.462 52.0387 923.217 Q52.0387 920.207 51.0201 918.587 Q49.9785 916.967 48.1035 916.967 Q46.3674 916.967 45.4415 918.147 Q44.5155 919.305 43.6591 923.263 L43.3118 924.744 Q42.4785 928.703 40.7656 930.462 Q39.0295 932.221 36.0202 932.221 Q32.3628 932.221 30.3721 929.629 Q28.3814 927.036 28.3814 922.268 Q28.3814 919.907 28.7286 917.823 Q29.0758 915.74 29.7703 913.981 Z" fill="#000000" fill-rule="evenodd" fill-opacity="1" /><path clip-path="url(#clip620)" d="M21.6453 901.596 L29.0064 901.596 L29.0064 892.823 L32.3165 892.823 L32.3165 901.596 L46.3905 901.596 Q49.5618 901.596 50.4646 900.74 Q51.3674 899.86 51.3674 897.198 L51.3674 892.823 L54.9322 892.823 L54.9322 897.198 Q54.9322 902.129 53.1035 904.004 Q51.2516 905.879 46.3905 905.879 L32.3165 905.879 L32.3165 909.004 L29.0064 909.004 L29.0064 905.879 L21.6453 905.879 L21.6453 901.596 Z" fill="#000000" fill-rule="evenodd" fill-opacity="1" /><path clip-path="url(#clip620)" d="M18.9138 872.152 L18.9138 867.893 L54.9322 867.893 L54.9322 872.152 L18.9138 872.152 Z" fill="#000000" fill-rule="evenodd" fill-opacity="1" /><path clip-path="url(#clip620)" d="M31.9925 848.935 Q31.9925 852.361 34.6776 854.351 Q37.3397 856.342 41.9924 856.342 Q46.6452 856.342 49.3303 854.374 Q51.9924 852.384 51.9924 848.935 Q51.9924 845.532 49.3072 843.541 Q46.622 841.55 41.9924 841.55 Q37.386 841.55 34.7008 843.541 Q31.9925 845.532 31.9925 848.935 M28.3814 848.935 Q28.3814 843.379 31.9925 840.208 Q35.6036 837.037 41.9924 837.037 Q48.3581 837.037 51.9924 840.208 Q55.6035 843.379 55.6035 848.935 Q55.6035 854.513 51.9924 857.685 Q48.3581 860.833 41.9924 860.833 Q35.6036 860.833 31.9925 857.685 Q28.3814 854.513 28.3814 848.935 Z" fill="#000000" fill-rule="evenodd" fill-opacity="1" /><path clip-path="url(#clip620)" d="M41.6683 812.916 Q37.0387 812.916 34.4925 814.838 Q31.9462 816.736 31.9462 820.185 Q31.9462 823.611 34.4925 825.532 Q37.0387 827.43 41.6683 827.43 Q46.2748 827.43 48.8211 825.532 Q51.3674 823.611 51.3674 820.185 Q51.3674 816.736 48.8211 814.838 Q46.2748 812.916 41.6683 812.916 M51.7146 808.657 Q58.3349 808.657 61.5525 811.597 Q64.7932 814.537 64.7932 820.601 Q64.7932 822.847 64.446 824.838 Q64.1219 826.828 63.4275 828.703 L59.284 828.703 Q60.3025 826.828 60.7886 825 Q61.2747 823.171 61.2747 821.273 Q61.2747 817.083 59.0757 815 Q56.8997 812.916 52.4785 812.916 L50.372 812.916 Q52.6637 814.236 53.7979 816.296 Q54.9322 818.356 54.9322 821.226 Q54.9322 825.995 51.2979 828.912 Q47.6637 831.828 41.6683 831.828 Q35.6499 831.828 32.0156 828.912 Q28.3814 825.995 28.3814 821.226 Q28.3814 818.356 29.5156 816.296 Q30.6499 814.236 32.9415 812.916 L29.0064 812.916 L29.0064 808.657 L51.7146 808.657 Z" fill="#000000" fill-rule="evenodd" fill-opacity="1" /><path clip-path="url(#clip620)" d="M40.048 802.037 L40.048 789.56 L43.8443 789.56 L43.8443 802.037 L40.048 802.037 Z" fill="#000000" fill-rule="evenodd" fill-opacity="1" /><path clip-path="url(#clip620)" d="M18.9138 782.778 L18.9138 778.518 L54.9322 778.518 L54.9322 782.778 L18.9138 782.778 Z" fill="#000000" fill-rule="evenodd" fill-opacity="1" /><path clip-path="url(#clip620)" d="M29.0064 769.606 L29.0064 765.347 L54.9322 765.347 L54.9322 769.606 L29.0064 769.606 M18.9138 769.606 L18.9138 765.347 L24.3073 765.347 L24.3073 769.606 L18.9138 769.606 Z" fill="#000000" fill-rule="evenodd" fill-opacity="1" /><path clip-path="url(#clip620)" d="M18.9138 756.597 L18.9138 752.315 L40.1869 752.315 L29.0064 739.607 L29.0064 734.167 L41.1359 747.917 L54.9322 733.588 L54.9322 739.144 L42.2702 752.315 L54.9322 752.315 L54.9322 756.597 L18.9138 756.597 Z" fill="#000000" fill-rule="evenodd" fill-opacity="1" /><path clip-path="url(#clip620)" d="M40.9045 708.496 L42.9878 708.496 L42.9878 728.079 Q47.3859 727.801 49.7007 725.44 Q51.9924 723.056 51.9924 718.82 Q51.9924 716.366 51.3905 714.074 Q50.7887 711.759 49.585 709.491 L53.6127 709.491 Q54.5849 711.783 55.0942 714.19 Q55.6035 716.597 55.6035 719.074 Q55.6035 725.278 51.9924 728.912 Q48.3813 732.523 42.2239 732.523 Q35.8582 732.523 32.1314 729.097 Q28.3814 725.648 28.3814 719.815 Q28.3814 714.584 31.761 711.551 Q35.1174 708.496 40.9045 708.496 M39.6545 712.755 Q36.1591 712.801 34.0758 714.722 Q31.9925 716.621 31.9925 719.769 Q31.9925 723.333 34.0063 725.486 Q36.0202 727.616 39.6776 727.94 L39.6545 712.755 Z" fill="#000000" fill-rule="evenodd" fill-opacity="1" /><path clip-path="url(#clip620)" d="M18.9138 701.505 L18.9138 697.246 L54.9322 697.246 L54.9322 701.505 L18.9138 701.505 Z" fill="#000000" fill-rule="evenodd" fill-opacity="1" /><path clip-path="url(#clip620)" d="M29.0064 688.334 L29.0064 684.074 L54.9322 684.074 L54.9322 688.334 L29.0064 688.334 M18.9138 688.334 L18.9138 684.074 L24.3073 684.074 L24.3073 688.334 L18.9138 688.334 Z" fill="#000000" fill-rule="evenodd" fill-opacity="1" /><path clip-path="url(#clip620)" d="M39.2841 653.612 L54.9322 653.612 L54.9322 657.871 L39.423 657.871 Q35.7424 657.871 33.9138 659.306 Q32.0851 660.741 32.0851 663.612 Q32.0851 667.061 34.2841 669.051 Q36.4832 671.042 40.2795 671.042 L54.9322 671.042 L54.9322 675.324 L18.9138 675.324 L18.9138 671.042 L33.0341 671.042 Q30.6962 669.514 29.5388 667.454 Q28.3814 665.371 28.3814 662.663 Q28.3814 658.195 31.1591 655.903 Q33.9138 653.612 39.2841 653.612 Z" fill="#000000" fill-rule="evenodd" fill-opacity="1" /><path clip-path="url(#clip620)" d="M31.9925 635.07 Q31.9925 638.496 34.6776 640.487 Q37.3397 642.477 41.9924 642.477 Q46.6452 642.477 49.3303 640.51 Q51.9924 638.519 51.9924 635.07 Q51.9924 631.667 49.3072 629.677 Q46.622 627.686 41.9924 627.686 Q37.386 627.686 34.7008 629.677 Q31.9925 631.667 31.9925 635.07 M28.3814 635.07 Q28.3814 629.515 31.9925 626.343 Q35.6036 623.172 41.9924 623.172 Q48.3581 623.172 51.9924 626.343 Q55.6035 629.515 55.6035 635.07 Q55.6035 640.649 51.9924 643.82 Q48.3581 646.968 41.9924 646.968 Q35.6036 646.968 31.9925 643.82 Q28.3814 640.649 28.3814 635.07 Z" fill="#000000" fill-rule="evenodd" fill-opacity="1" /><path clip-path="url(#clip620)" d="M31.9925 606.066 Q31.9925 609.492 34.6776 611.482 Q37.3397 613.473 41.9924 613.473 Q46.6452 613.473 49.3303 611.505 Q51.9924 609.515 51.9924 606.066 Q51.9924 602.663 49.3072 600.672 Q46.622 598.681 41.9924 598.681 Q37.386 598.681 34.7008 600.672 Q31.9925 602.663 31.9925 606.066 M28.3814 606.066 Q28.3814 600.51 31.9925 597.339 Q35.6036 594.168 41.9924 594.168 Q48.3581 594.168 51.9924 597.339 Q55.6035 600.51 55.6035 606.066 Q55.6035 611.644 51.9924 614.816 Q48.3581 617.964 41.9924 617.964 Q35.6036 617.964 31.9925 614.816 Q28.3814 611.644 28.3814 606.066 Z" fill="#000000" fill-rule="evenodd" fill-opacity="1" /><path clip-path="url(#clip620)" d="M32.9415 570.047 L18.9138 570.047 L18.9138 565.788 L54.9322 565.788 L54.9322 570.047 L51.0433 570.047 Q53.3581 571.39 54.4923 573.45 Q55.6035 575.487 55.6035 578.357 Q55.6035 583.056 51.8535 586.019 Q48.1035 588.959 41.9924 588.959 Q35.8813 588.959 32.1314 586.019 Q28.3814 583.056 28.3814 578.357 Q28.3814 575.487 29.5156 573.45 Q30.6267 571.39 32.9415 570.047 M41.9924 584.561 Q46.6915 584.561 49.3766 582.64 Q52.0387 580.695 52.0387 577.316 Q52.0387 573.936 49.3766 571.992 Q46.6915 570.047 41.9924 570.047 Q37.2934 570.047 34.6313 571.992 Q31.9462 573.936 31.9462 577.316 Q31.9462 580.695 34.6313 582.64 Q37.2934 584.561 41.9924 584.561 Z" fill="#000000" fill-rule="evenodd" fill-opacity="1" /><path clip-path="url(#clip620)" d="M1244.89 24.4096 Q1244 23.8888 1242.93 23.6573 Q1241.89 23.3969 1240.61 23.3969 Q1236.1 23.3969 1233.67 26.3482 Q1231.27 29.2707 1231.27 34.7683 L1231.27 51.84 L1225.91 51.84 L1225.91 19.4328 L1231.27 19.4328 L1231.27 24.4675 Q1232.94 21.5161 1235.64 20.0983 Q1238.33 18.6515 1242.18 18.6515 Q1242.72 18.6515 1243.39 18.7383 Q1244.06 18.7962 1244.87 18.9409 L1244.89 24.4096 Z" fill="#000000" fill-rule="evenodd" fill-opacity="1" /><path clip-path="url(#clip620)" d="M1276.9 34.3054 L1276.9 36.9095 L1252.42 36.9095 Q1252.77 42.4072 1255.72 45.3007 Q1258.7 48.1653 1263.99 48.1653 Q1267.06 48.1653 1269.92 47.4129 Q1272.82 46.6606 1275.65 45.156 L1275.65 50.1907 Q1272.79 51.406 1269.78 52.0425 Q1266.77 52.6791 1263.67 52.6791 Q1255.92 52.6791 1251.38 48.1653 Q1246.86 43.6514 1246.86 35.9547 Q1246.86 27.9975 1251.14 23.339 Q1255.46 18.6515 1262.75 18.6515 Q1269.29 18.6515 1273.08 22.876 Q1276.9 27.0716 1276.9 34.3054 M1271.57 32.7429 Q1271.52 28.3737 1269.11 25.7695 Q1266.74 23.1654 1262.81 23.1654 Q1258.35 23.1654 1255.66 25.6827 Q1253 28.2001 1252.59 32.7718 L1271.57 32.7429 Z" fill="#000000" fill-rule="evenodd" fill-opacity="1" /><path clip-path="url(#clip620)" d="M1290.9 10.2314 L1290.9 19.4328 L1301.87 19.4328 L1301.87 23.5705 L1290.9 23.5705 L1290.9 41.163 Q1290.9 45.1271 1291.97 46.2555 Q1293.07 47.384 1296.4 47.384 L1301.87 47.384 L1301.87 51.84 L1296.4 51.84 Q1290.24 51.84 1287.89 49.5541 Q1285.55 47.2393 1285.55 41.163 L1285.55 23.5705 L1281.64 23.5705 L1281.64 19.4328 L1285.55 19.4328 L1285.55 10.2314 L1290.9 10.2314 Z" fill="#000000" fill-rule="evenodd" fill-opacity="1" /><path clip-path="url(#clip620)" d="M1323.6 35.5496 Q1317.15 35.5496 1314.66 37.0253 Q1312.17 38.501 1312.17 42.06 Q1312.17 44.8956 1314.02 46.5738 Q1315.9 48.2231 1319.11 48.2231 Q1323.54 48.2231 1326.2 45.0981 Q1328.89 41.9442 1328.89 36.7359 L1328.89 35.5496 L1323.6 35.5496 M1334.22 33.3505 L1334.22 51.84 L1328.89 51.84 L1328.89 46.921 Q1327.07 49.8724 1324.35 51.2902 Q1321.63 52.6791 1317.7 52.6791 Q1312.72 52.6791 1309.77 49.9014 Q1306.84 47.0947 1306.84 42.4072 Q1306.84 36.9385 1310.49 34.1607 Q1314.17 31.3829 1321.43 31.3829 L1328.89 31.3829 L1328.89 30.8621 Q1328.89 27.1874 1326.46 25.1908 Q1324.06 23.1654 1319.69 23.1654 Q1316.91 23.1654 1314.28 23.8309 Q1311.65 24.4964 1309.22 25.8274 L1309.22 20.9085 Q1312.14 19.78 1314.89 19.2302 Q1317.64 18.6515 1320.24 18.6515 Q1327.27 18.6515 1330.75 22.2973 Q1334.22 25.9431 1334.22 33.3505 Z" fill="#000000" fill-rule="evenodd" fill-opacity="1" /><path clip-path="url(#clip620)" d="M1345.18 19.4328 L1350.51 19.4328 L1350.51 51.84 L1345.18 51.84 L1345.18 19.4328 M1345.18 6.81709 L1350.51 6.81709 L1350.51 13.559 L1345.18 13.559 L1345.18 6.81709 Z" fill="#000000" fill-rule="evenodd" fill-opacity="1" /><path clip-path="url(#clip620)" d="M1361.65 6.81709 L1366.97 6.81709 L1366.97 51.84 L1361.65 51.84 L1361.65 6.81709 Z" fill="#000000" fill-rule="evenodd" fill-opacity="1" /><polyline clip-path="url(#clip622)" style="stroke:#e26f46; stroke-linecap:butt; stroke-linejoin:round; stroke-width:8; stroke-opacity:1; fill:none" points="
  339.782,839.015 379.643,839.015 419.503,839.015 459.364,839.015 499.225,839.015 539.086,839.015 578.947,839.015 618.808,839.015 658.669,839.015 698.53,839.015 
  738.39,839.015 778.251,839.015 818.112,839.015 857.973,839.015 897.834,839.015 937.695,839.015 977.556,839.015 1017.42,839.015 1057.28,839.015 1097.14,839.015 
  1137,839.015 1176.86,839.015 1216.72,839.015 1256.58,839.015 1296.44,839.015 1336.3,839.015 1376.16,839.015 1416.03,839.015 1455.89,839.015 1495.75,839.015 
  1535.61,839.015 1575.47,839.015 1615.33,839.015 1655.19,839.015 1695.05,839.015 1734.91,839.015 1774.77,839.015 1814.63,839.015 1854.49,839.015 1894.36,839.015 
  1934.22,839.015 1974.08,839.015 2013.94,839.015 2053.8,839.015 2093.66,839.015 2133.52,839.015 2173.38,839.015 2213.24,839.015 2253.1,839.015 2292.96,839.015 
  
  "/>
<polyline clip-path="url(#clip622)" style="stroke:#3da44d; stroke-linecap:butt; stroke-linejoin:round; stroke-width:8; stroke-opacity:1; fill:none" points="
  339.782,339.528 379.643,339.528 419.503,339.528 459.364,339.528 499.225,339.528 539.086,339.528 578.947,339.528 618.808,339.528 658.669,339.528 698.53,339.528 
  738.39,339.528 778.251,339.528 818.112,339.528 857.973,339.528 897.834,339.528 937.695,339.528 977.556,339.528 1017.42,339.528 1057.28,339.528 1097.14,339.528 
  1137,339.528 1176.86,339.528 1216.72,339.528 1256.58,339.528 1296.44,339.528 1336.3,339.528 1376.16,339.528 1416.03,339.528 1455.89,339.528 1495.75,339.528 
  1535.61,339.528 1575.47,339.528 1615.33,339.528 1655.19,339.528 1695.05,339.528 1734.91,339.528 1774.77,339.528 1814.63,339.528 1854.49,339.528 1894.36,339.528 
  1934.22,339.528 1974.08,339.528 2013.94,339.528 2053.8,339.528 2093.66,339.528 2133.52,339.528 2173.38,339.528 2213.24,339.528 2253.1,339.528 2292.96,339.528 
  
  "/>
<polyline clip-path="url(#clip622)" style="stroke:#c271d2; stroke-linecap:butt; stroke-linejoin:round; stroke-width:8; stroke-opacity:1; fill:none" points="
  339.782,144.077 379.643,144.077 419.503,144.077 459.364,144.077 499.225,144.077 539.086,144.077 578.947,144.077 618.808,144.077 658.669,144.077 698.53,144.077 
  738.39,144.077 778.251,144.077 818.112,144.077 857.973,144.077 897.834,144.077 937.695,144.077 977.556,144.077 1017.42,144.077 1057.28,144.077 1097.14,144.077 
  1137,144.077 1176.86,144.077 1216.72,144.077 1256.58,144.077 1296.44,144.077 1336.3,144.077 1376.16,144.077 1416.03,144.077 1455.89,144.077 1495.75,144.077 
  1535.61,144.077 1575.47,144.077 1615.33,144.077 1655.19,144.077 1695.05,144.077 1734.91,144.077 1774.77,144.077 1814.63,144.077 1854.49,144.077 1894.36,144.077 
  1934.22,144.077 1974.08,144.077 2013.94,144.077 2053.8,144.077 2093.66,144.077 2133.52,144.077 2173.38,144.077 2213.24,144.077 2253.1,144.077 2292.96,144.077 
  
  "/>
<polyline clip-path="url(#clip622)" style="stroke:#ac8d18; stroke-linecap:butt; stroke-linejoin:round; stroke-width:8; stroke-opacity:1; fill:none" points="
  339.782,621.847 379.643,621.847 419.503,621.847 459.364,621.847 499.225,621.847 539.086,621.847 578.947,621.847 618.808,621.847 658.669,621.847 698.53,621.847 
  738.39,621.847 778.251,621.847 818.112,621.847 857.973,621.847 897.834,621.847 937.695,621.847 977.556,621.847 1017.42,621.847 1057.28,621.847 1097.14,621.847 
  1137,621.847 1176.86,621.847 1216.72,621.847 1256.58,621.847 1296.44,621.847 1336.3,621.847 1376.16,621.847 1416.03,621.847 1455.89,621.847 1495.75,621.847 
  1535.61,621.847 1575.47,621.847 1615.33,621.847 1655.19,621.847 1695.05,621.847 1734.91,621.847 1774.77,621.847 1814.63,621.847 1854.49,621.847 1894.36,621.847 
  1934.22,621.847 1974.08,621.847 2013.94,621.847 2053.8,621.847 2093.66,621.847 2133.52,621.847 2173.38,621.847 2213.24,621.847 2253.1,621.847 2292.96,621.847 
  
  "/>
<polyline clip-path="url(#clip622)" style="stroke:#00a9ad; stroke-linecap:butt; stroke-linejoin:round; stroke-width:8; stroke-opacity:1; fill:none" points="
  339.782,469.829 379.643,469.829 419.503,469.829 459.364,469.829 499.225,469.829 539.086,469.829 578.947,469.829 618.808,469.829 658.669,469.829 698.53,469.829 
  738.39,469.829 778.251,469.829 818.112,469.829 857.973,469.829 897.834,469.829 937.695,469.829 977.556,469.829 1017.42,469.829 1057.28,469.829 1097.14,469.829 
  1137,469.829 1176.86,469.829 1216.72,469.829 1256.58,469.829 1296.44,469.829 1336.3,469.829 1376.16,469.829 1416.03,469.829 1455.89,469.829 1495.75,469.829 
  1535.61,469.829 1575.47,469.829 1615.33,469.829 1655.19,469.829 1695.05,469.829 1734.91,469.829 1774.77,469.829 1814.63,469.829 1854.49,469.829 1894.36,469.829 
  1934.22,469.829 1974.08,469.829 2013.94,469.829 2053.8,469.829 2093.66,469.829 2133.52,469.829 2173.38,469.829 2213.24,469.829 2253.1,469.829 2292.96,469.829 
  
  "/>
<polyline clip-path="url(#clip622)" style="stroke:#009af9; stroke-linecap:butt; stroke-linejoin:round; stroke-width:12; stroke-opacity:1; fill:none" points="
  339.782,1406.9 379.643,1158.63 419.503,1043.74 459.364,909.812 499.225,843.38 539.086,791.095 578.947,791.252 618.808,735.967 658.669,732.925 698.53,693.303 
  738.39,696.382 778.251,626.658 818.112,641.872 857.973,607.062 897.834,610.31 937.695,605.194 977.556,617.033 1017.42,580.7 1057.28,544.711 1097.14,540.386 
  1137,584.391 1176.86,585.606 1216.72,577.523 1256.58,533.667 1296.44,520.032 1336.3,517.748 1376.16,517.749 1416.03,490.303 1455.89,482.285 1495.75,481.532 
  1535.61,474.347 1575.47,461.333 1615.33,461.57 1655.19,458.141 1695.05,467.428 1734.91,465.397 1774.77,480.908 1814.63,481.048 1854.49,476.104 1894.36,467.084 
  1934.22,475.631 1974.08,485.721 2013.94,482.509 2053.8,480.285 2093.66,472.809 2133.52,461.739 2173.38,466.518 2213.24,461.396 2253.1,456.644 2292.96,455.786 
  
  "/>
</svg>
