<?xml version="1.0" encoding="utf-8"?>
<svg xmlns="http://www.w3.org/2000/svg" xmlns:xlink="http://www.w3.org/1999/xlink" width="600" height="400" viewBox="0 0 2400 1600">
<defs>
  <clipPath id="clip370">
    <rect x="0" y="0" width="2400" height="1600"/>
  </clipPath>
</defs>
<path clip-path="url(#clip370)" d="
M0 1600 L2400 1600 L2400 0 L0 0  Z
  " fill="#ffffff" fill-rule="evenodd" fill-opacity="1"/>
<defs>
  <clipPath id="clip371">
    <rect x="480" y="0" width="1681" height="1600"/>
  </clipPath>
</defs>
<path clip-path="url(#clip370)" d="
M350.366 1422.18 L2352.76 1422.18 L2352.76 106.192 L350.366 106.192  Z
  " fill="#eaeaea" fill-rule="evenodd" fill-opacity="1"/>
<defs>
  <clipPath id="clip372">
    <rect x="350" y="106" width="2003" height="1317"/>
  </clipPath>
</defs>
<polyline clip-path="url(#clip372)" style="stroke:#ffffff; stroke-linecap:butt; stroke-linejoin:round; stroke-width:4; stroke-opacity:1; fill:none" points="
  407.037,1422.18 407.037,106.192 
  "/>
<polyline clip-path="url(#clip372)" style="stroke:#ffffff; stroke-linecap:butt; stroke-linejoin:round; stroke-width:4; stroke-opacity:1; fill:none" points="
  552.348,1422.18 552.348,106.192 
  "/>
<polyline clip-path="url(#clip372)" style="stroke:#ffffff; stroke-linecap:butt; stroke-linejoin:round; stroke-width:4; stroke-opacity:1; fill:none" points="
  697.66,1422.18 697.66,106.192 
  "/>
<polyline clip-path="url(#clip372)" style="stroke:#ffffff; stroke-linecap:butt; stroke-linejoin:round; stroke-width:4; stroke-opacity:1; fill:none" points="
  842.971,1422.18 842.971,106.192 
  "/>
<polyline clip-path="url(#clip372)" style="stroke:#ffffff; stroke-linecap:butt; stroke-linejoin:round; stroke-width:4; stroke-opacity:1; fill:none" points="
  988.282,1422.18 988.282,106.192 
  "/>
<polyline clip-path="url(#clip372)" style="stroke:#ffffff; stroke-linecap:butt; stroke-linejoin:round; stroke-width:4; stroke-opacity:1; fill:none" points="
  1133.59,1422.18 1133.59,106.192 
  "/>
<polyline clip-path="url(#clip372)" style="stroke:#ffffff; stroke-linecap:butt; stroke-linejoin:round; stroke-width:4; stroke-opacity:1; fill:none" points="
  1278.91,1422.18 1278.91,106.192 
  "/>
<polyline clip-path="url(#clip372)" style="stroke:#ffffff; stroke-linecap:butt; stroke-linejoin:round; stroke-width:4; stroke-opacity:1; fill:none" points="
  1424.22,1422.18 1424.22,106.192 
  "/>
<polyline clip-path="url(#clip372)" style="stroke:#ffffff; stroke-linecap:butt; stroke-linejoin:round; stroke-width:4; stroke-opacity:1; fill:none" points="
  1569.53,1422.18 1569.53,106.192 
  "/>
<polyline clip-path="url(#clip372)" style="stroke:#ffffff; stroke-linecap:butt; stroke-linejoin:round; stroke-width:4; stroke-opacity:1; fill:none" points="
  1714.84,1422.18 1714.84,106.192 
  "/>
<polyline clip-path="url(#clip372)" style="stroke:#ffffff; stroke-linecap:butt; stroke-linejoin:round; stroke-width:4; stroke-opacity:1; fill:none" points="
  1860.15,1422.18 1860.15,106.192 
  "/>
<polyline clip-path="url(#clip372)" style="stroke:#ffffff; stroke-linecap:butt; stroke-linejoin:round; stroke-width:4; stroke-opacity:1; fill:none" points="
  2005.46,1422.18 2005.46,106.192 
  "/>
<polyline clip-path="url(#clip372)" style="stroke:#ffffff; stroke-linecap:butt; stroke-linejoin:round; stroke-width:4; stroke-opacity:1; fill:none" points="
  2150.77,1422.18 2150.77,106.192 
  "/>
<polyline clip-path="url(#clip372)" style="stroke:#ffffff; stroke-linecap:butt; stroke-linejoin:round; stroke-width:4; stroke-opacity:1; fill:none" points="
  2296.08,1422.18 2296.08,106.192 
  "/>
<polyline clip-path="url(#clip372)" style="stroke:#ffffff; stroke-linecap:butt; stroke-linejoin:round; stroke-width:2; stroke-opacity:1; fill:none" points="
  479.693,1422.18 479.693,106.192 
  "/>
<polyline clip-path="url(#clip372)" style="stroke:#ffffff; stroke-linecap:butt; stroke-linejoin:round; stroke-width:2; stroke-opacity:1; fill:none" points="
  625.004,1422.18 625.004,106.192 
  "/>
<polyline clip-path="url(#clip372)" style="stroke:#ffffff; stroke-linecap:butt; stroke-linejoin:round; stroke-width:2; stroke-opacity:1; fill:none" points="
  770.315,1422.18 770.315,106.192 
  "/>
<polyline clip-path="url(#clip372)" style="stroke:#ffffff; stroke-linecap:butt; stroke-linejoin:round; stroke-width:2; stroke-opacity:1; fill:none" points="
  915.627,1422.18 915.627,106.192 
  "/>
<polyline clip-path="url(#clip372)" style="stroke:#ffffff; stroke-linecap:butt; stroke-linejoin:round; stroke-width:2; stroke-opacity:1; fill:none" points="
  1060.94,1422.18 1060.94,106.192 
  "/>
<polyline clip-path="url(#clip372)" style="stroke:#ffffff; stroke-linecap:butt; stroke-linejoin:round; stroke-width:2; stroke-opacity:1; fill:none" points="
  1206.25,1422.18 1206.25,106.192 
  "/>
<polyline clip-path="url(#clip372)" style="stroke:#ffffff; stroke-linecap:butt; stroke-linejoin:round; stroke-width:2; stroke-opacity:1; fill:none" points="
  1351.56,1422.18 1351.56,106.192 
  "/>
<polyline clip-path="url(#clip372)" style="stroke:#ffffff; stroke-linecap:butt; stroke-linejoin:round; stroke-width:2; stroke-opacity:1; fill:none" points="
  1496.87,1422.18 1496.87,106.192 
  "/>
<polyline clip-path="url(#clip372)" style="stroke:#ffffff; stroke-linecap:butt; stroke-linejoin:round; stroke-width:2; stroke-opacity:1; fill:none" points="
  1642.18,1422.18 1642.18,106.192 
  "/>
<polyline clip-path="url(#clip372)" style="stroke:#ffffff; stroke-linecap:butt; stroke-linejoin:round; stroke-width:2; stroke-opacity:1; fill:none" points="
  1787.49,1422.18 1787.49,106.192 
  "/>
<polyline clip-path="url(#clip372)" style="stroke:#ffffff; stroke-linecap:butt; stroke-linejoin:round; stroke-width:2; stroke-opacity:1; fill:none" points="
  1932.81,1422.18 1932.81,106.192 
  "/>
<polyline clip-path="url(#clip372)" style="stroke:#ffffff; stroke-linecap:butt; stroke-linejoin:round; stroke-width:2; stroke-opacity:1; fill:none" points="
  2078.12,1422.18 2078.12,106.192 
  "/>
<polyline clip-path="url(#clip372)" style="stroke:#ffffff; stroke-linecap:butt; stroke-linejoin:round; stroke-width:2; stroke-opacity:1; fill:none" points="
  2223.43,1422.18 2223.43,106.192 
  "/>
<polyline clip-path="url(#clip370)" style="stroke:#ffffff; stroke-linecap:butt; stroke-linejoin:round; stroke-width:4; stroke-opacity:1; fill:none" points="
  350.366,1422.18 2352.76,1422.18 
  "/>
<polyline clip-path="url(#clip370)" style="stroke:#333333; stroke-linecap:butt; stroke-linejoin:round; stroke-width:4; stroke-opacity:1; fill:none" points="
  407.037,1422.18 407.037,1441.07 
  "/>
<polyline clip-path="url(#clip370)" style="stroke:#333333; stroke-linecap:butt; stroke-linejoin:round; stroke-width:4; stroke-opacity:1; fill:none" points="
  552.348,1422.18 552.348,1441.07 
  "/>
<polyline clip-path="url(#clip370)" style="stroke:#333333; stroke-linecap:butt; stroke-linejoin:round; stroke-width:4; stroke-opacity:1; fill:none" points="
  697.66,1422.18 697.66,1441.07 
  "/>
<polyline clip-path="url(#clip370)" style="stroke:#333333; stroke-linecap:butt; stroke-linejoin:round; stroke-width:4; stroke-opacity:1; fill:none" points="
  842.971,1422.18 842.971,1441.07 
  "/>
<polyline clip-path="url(#clip370)" style="stroke:#333333; stroke-linecap:butt; stroke-linejoin:round; stroke-width:4; stroke-opacity:1; fill:none" points="
  988.282,1422.18 988.282,1441.07 
  "/>
<polyline clip-path="url(#clip370)" style="stroke:#333333; stroke-linecap:butt; stroke-linejoin:round; stroke-width:4; stroke-opacity:1; fill:none" points="
  1133.59,1422.18 1133.59,1441.07 
  "/>
<polyline clip-path="url(#clip370)" style="stroke:#333333; stroke-linecap:butt; stroke-linejoin:round; stroke-width:4; stroke-opacity:1; fill:none" points="
  1278.91,1422.18 1278.91,1441.07 
  "/>
<polyline clip-path="url(#clip370)" style="stroke:#333333; stroke-linecap:butt; stroke-linejoin:round; stroke-width:4; stroke-opacity:1; fill:none" points="
  1424.22,1422.18 1424.22,1441.07 
  "/>
<polyline clip-path="url(#clip370)" style="stroke:#333333; stroke-linecap:butt; stroke-linejoin:round; stroke-width:4; stroke-opacity:1; fill:none" points="
  1569.53,1422.18 1569.53,1441.07 
  "/>
<polyline clip-path="url(#clip370)" style="stroke:#333333; stroke-linecap:butt; stroke-linejoin:round; stroke-width:4; stroke-opacity:1; fill:none" points="
  1714.84,1422.18 1714.84,1441.07 
  "/>
<polyline clip-path="url(#clip370)" style="stroke:#333333; stroke-linecap:butt; stroke-linejoin:round; stroke-width:4; stroke-opacity:1; fill:none" points="
  1860.15,1422.18 1860.15,1441.07 
  "/>
<polyline clip-path="url(#clip370)" style="stroke:#333333; stroke-linecap:butt; stroke-linejoin:round; stroke-width:4; stroke-opacity:1; fill:none" points="
  2005.46,1422.18 2005.46,1441.07 
  "/>
<polyline clip-path="url(#clip370)" style="stroke:#333333; stroke-linecap:butt; stroke-linejoin:round; stroke-width:4; stroke-opacity:1; fill:none" points="
  2150.77,1422.18 2150.77,1441.07 
  "/>
<polyline clip-path="url(#clip370)" style="stroke:#333333; stroke-linecap:butt; stroke-linejoin:round; stroke-width:4; stroke-opacity:1; fill:none" points="
  2296.08,1422.18 2296.08,1441.07 
  "/>
<polyline clip-path="url(#clip370)" style="stroke:#333333; stroke-linecap:butt; stroke-linejoin:round; stroke-width:4; stroke-opacity:1; fill:none" points="
  479.693,1422.18 479.693,1431.63 
  "/>
<polyline clip-path="url(#clip370)" style="stroke:#333333; stroke-linecap:butt; stroke-linejoin:round; stroke-width:4; stroke-opacity:1; fill:none" points="
  625.004,1422.18 625.004,1431.63 
  "/>
<polyline clip-path="url(#clip370)" style="stroke:#333333; stroke-linecap:butt; stroke-linejoin:round; stroke-width:4; stroke-opacity:1; fill:none" points="
  770.315,1422.18 770.315,1431.63 
  "/>
<polyline clip-path="url(#clip370)" style="stroke:#333333; stroke-linecap:butt; stroke-linejoin:round; stroke-width:4; stroke-opacity:1; fill:none" points="
  915.627,1422.18 915.627,1431.63 
  "/>
<polyline clip-path="url(#clip370)" style="stroke:#333333; stroke-linecap:butt; stroke-linejoin:round; stroke-width:4; stroke-opacity:1; fill:none" points="
  1060.94,1422.18 1060.94,1431.63 
  "/>
<polyline clip-path="url(#clip370)" style="stroke:#333333; stroke-linecap:butt; stroke-linejoin:round; stroke-width:4; stroke-opacity:1; fill:none" points="
  1206.25,1422.18 1206.25,1431.63 
  "/>
<polyline clip-path="url(#clip370)" style="stroke:#333333; stroke-linecap:butt; stroke-linejoin:round; stroke-width:4; stroke-opacity:1; fill:none" points="
  1351.56,1422.18 1351.56,1431.63 
  "/>
<polyline clip-path="url(#clip370)" style="stroke:#333333; stroke-linecap:butt; stroke-linejoin:round; stroke-width:4; stroke-opacity:1; fill:none" points="
  1496.87,1422.18 1496.87,1431.63 
  "/>
<polyline clip-path="url(#clip370)" style="stroke:#333333; stroke-linecap:butt; stroke-linejoin:round; stroke-width:4; stroke-opacity:1; fill:none" points="
  1642.18,1422.18 1642.18,1431.63 
  "/>
<polyline clip-path="url(#clip370)" style="stroke:#333333; stroke-linecap:butt; stroke-linejoin:round; stroke-width:4; stroke-opacity:1; fill:none" points="
  1787.49,1422.18 1787.49,1431.63 
  "/>
<polyline clip-path="url(#clip370)" style="stroke:#333333; stroke-linecap:butt; stroke-linejoin:round; stroke-width:4; stroke-opacity:1; fill:none" points="
  1932.81,1422.18 1932.81,1431.63 
  "/>
<polyline clip-path="url(#clip370)" style="stroke:#333333; stroke-linecap:butt; stroke-linejoin:round; stroke-width:4; stroke-opacity:1; fill:none" points="
  2078.12,1422.18 2078.12,1431.63 
  "/>
<polyline clip-path="url(#clip370)" style="stroke:#333333; stroke-linecap:butt; stroke-linejoin:round; stroke-width:4; stroke-opacity:1; fill:none" points="
  2223.43,1422.18 2223.43,1431.63 
  "/>
<path clip-path="url(#clip370)" d="M420.74 1463.13 Q419.386 1460.78 416.385 1460.93 Q413.408 1461.09 408.777 1463.76 Q404.161 1466.43 402.523 1468.94 Q400.908 1471.45 402.262 1473.8 Q403.625 1476.16 406.602 1476 Q409.604 1475.85 414.219 1473.19 Q418.85 1470.52 420.465 1468 Q422.103 1465.49 420.74 1463.13 M423.146 1461.74 Q425.325 1465.51 423.479 1469.23 Q421.656 1472.94 415.973 1476.23 Q410.305 1479.5 406.158 1479.23 Q402.035 1478.96 399.857 1475.19 Q397.678 1471.41 399.5 1467.69 Q401.346 1463.98 407.015 1460.71 Q412.698 1457.43 416.821 1457.69 Q420.967 1457.97 423.146 1461.74 Z" fill="#4c4c4c" fill-rule="evenodd" fill-opacity="1" /><path clip-path="url(#clip370)" d="M543.932 1466.14 L546.797 1471.1 L563.922 1461.21 L559.723 1456.44 L562.49 1454.84 L566.671 1459.58 L568.425 1462.62 L548.533 1474.11 L551.398 1479.07 L548.842 1480.54 L541.376 1467.61 L543.932 1466.14 Z" fill="#4c4c4c" fill-rule="evenodd" fill-opacity="1" /><path clip-path="url(#clip370)" d="M576.581 1481.37 Q575.227 1479.02 572.226 1479.17 Q569.248 1479.33 564.617 1482 Q560.002 1484.66 558.363 1487.17 Q556.749 1489.69 558.103 1492.04 Q559.466 1494.4 562.443 1494.24 Q565.444 1494.09 570.06 1491.43 Q574.691 1488.75 576.306 1486.24 Q577.944 1483.73 576.581 1481.37 M578.987 1479.98 Q581.165 1483.75 579.319 1487.46 Q577.497 1491.18 571.814 1494.46 Q566.145 1497.74 561.999 1497.46 Q557.876 1497.2 555.697 1493.42 Q553.519 1489.65 555.341 1485.93 Q557.187 1482.22 562.855 1478.95 Q568.539 1475.67 572.661 1475.93 Q576.808 1476.2 578.987 1479.98 Z" fill="#4c4c4c" fill-rule="evenodd" fill-opacity="1" /><path clip-path="url(#clip370)" d="M691.101 1469.35 L697.221 1479.95 L694.665 1481.43 L686.436 1467.18 L688.992 1465.7 Q691.779 1466.4 696.505 1467.64 Q701.255 1468.89 702.569 1469.15 Q705.05 1469.66 706.508 1469.58 Q707.989 1469.51 709.087 1468.87 Q710.876 1467.84 711.274 1465.93 Q711.681 1464.03 710.518 1462.01 Q709.694 1460.59 708.277 1459.28 Q706.87 1457.99 704.821 1456.76 L707.888 1454.99 Q709.683 1456.4 710.98 1457.78 Q712.276 1459.15 713.039 1460.48 Q715.053 1463.97 714.507 1467.05 Q713.961 1470.13 711.044 1471.81 Q709.661 1472.61 708.109 1472.81 Q706.581 1473.01 704.107 1472.61 Q703.454 1472.49 700.201 1471.68 Q696.963 1470.86 691.101 1469.35 Z" fill="#4c4c4c" fill-rule="evenodd" fill-opacity="1" /><path clip-path="url(#clip370)" d="M722.543 1482.49 Q721.189 1480.15 718.188 1480.3 Q715.211 1480.45 710.58 1483.13 Q705.964 1485.79 704.326 1488.3 Q702.711 1490.82 704.065 1493.16 Q705.428 1495.52 708.406 1495.37 Q711.407 1495.22 716.023 1492.55 Q720.653 1489.88 722.268 1487.36 Q723.906 1484.86 722.543 1482.49 M724.949 1481.11 Q727.128 1484.88 725.282 1488.59 Q723.459 1492.31 717.776 1495.59 Q712.108 1498.86 707.961 1498.59 Q703.839 1498.33 701.66 1494.55 Q699.481 1490.78 701.303 1487.06 Q703.149 1483.35 708.818 1480.08 Q714.501 1476.79 718.624 1477.06 Q722.77 1477.33 724.949 1481.11 Z" fill="#4c4c4c" fill-rule="evenodd" fill-opacity="1" /><path clip-path="url(#clip370)" d="M849.71 1470.34 Q850.503 1472.79 849.732 1474.86 Q848.971 1476.94 846.806 1478.19 Q843.483 1480.11 840.344 1478.87 Q837.205 1477.64 834.775 1473.43 Q833.959 1472.01 833.377 1470.35 Q832.788 1468.7 832.424 1466.79 L835.356 1465.09 Q835.348 1466.78 835.84 1468.5 Q836.333 1470.22 837.279 1471.86 Q838.928 1474.72 840.915 1475.56 Q842.911 1476.41 845.061 1475.17 Q847.045 1474.02 847.351 1471.98 Q847.68 1469.95 846.247 1467.47 L844.737 1464.85 L847.233 1463.41 L848.813 1466.14 Q850.106 1468.38 851.679 1469.06 Q853.267 1469.73 854.951 1468.76 Q856.68 1467.76 856.885 1465.99 Q857.114 1464.24 855.795 1461.95 Q855.074 1460.71 853.979 1459.43 Q852.884 1458.16 851.323 1456.78 L854.029 1455.21 Q855.509 1456.67 856.617 1458.03 Q857.734 1459.41 858.507 1460.75 Q860.504 1464.21 860.088 1467.13 Q859.688 1470.05 857.011 1471.6 Q855.147 1472.67 853.238 1472.35 Q851.343 1472.02 849.71 1470.34 Z" fill="#4c4c4c" fill-rule="evenodd" fill-opacity="1" /><path clip-path="url(#clip370)" d="M867.803 1482.4 Q866.449 1480.06 863.447 1480.21 Q860.47 1480.36 855.839 1483.04 Q851.223 1485.7 849.585 1488.21 Q847.97 1490.73 849.325 1493.07 Q850.687 1495.43 853.665 1495.28 Q856.666 1495.13 861.282 1492.46 Q865.913 1489.79 867.527 1487.27 Q869.166 1484.76 867.803 1482.4 M870.208 1481.02 Q872.387 1484.79 870.541 1488.5 Q868.719 1492.22 863.035 1495.5 Q857.367 1498.77 853.221 1498.5 Q849.098 1498.24 846.919 1494.46 Q844.74 1490.69 846.563 1486.97 Q848.409 1483.26 854.077 1479.98 Q859.76 1476.7 863.883 1476.97 Q868.03 1477.24 870.208 1481.02 Z" fill="#4c4c4c" fill-rule="evenodd" fill-opacity="1" /><path clip-path="url(#clip370)" d="M1002.71 1465.88 L986.301 1465.13 L990.728 1472.8 L1002.71 1465.88 M1004.9 1463.55 L1007.1 1467.37 L992.472 1475.82 L994.321 1479.02 L991.796 1480.48 L989.947 1477.28 L984.654 1480.33 L982.909 1477.31 L988.202 1474.25 L982.351 1464.12 L985.283 1462.43 L1004.9 1463.55 Z" fill="#4c4c4c" fill-rule="evenodd" fill-opacity="1" /><path clip-path="url(#clip370)" d="M1013.6 1483.25 Q1012.25 1480.9 1009.24 1481.05 Q1006.27 1481.21 1001.64 1483.88 Q997.021 1486.54 995.382 1489.05 Q993.768 1491.57 995.122 1493.91 Q996.485 1496.28 999.462 1496.12 Q1002.46 1495.97 1007.08 1493.31 Q1011.71 1490.63 1013.32 1488.12 Q1014.96 1485.61 1013.6 1483.25 M1016.01 1481.86 Q1018.18 1485.63 1016.34 1489.34 Q1014.52 1493.06 1008.83 1496.34 Q1003.16 1499.62 999.018 1499.34 Q994.895 1499.08 992.716 1495.3 Q990.538 1491.53 992.36 1487.81 Q994.206 1484.1 999.874 1480.83 Q1005.56 1477.55 1009.68 1477.81 Q1013.83 1478.08 1016.01 1481.86 Z" fill="#4c4c4c" fill-rule="evenodd" fill-opacity="1" /><path clip-path="url(#clip370)" d="M1145.36 1455.16 L1152.25 1467.09 L1149.69 1468.56 L1144.41 1459.42 L1138.91 1462.6 Q1139.52 1463.13 1140.01 1463.73 Q1140.51 1464.32 1140.89 1464.98 Q1143.06 1468.74 1142.27 1472.13 Q1141.48 1475.51 1137.96 1477.54 Q1134.33 1479.63 1131.02 1478.54 Q1127.72 1477.44 1125.35 1473.34 Q1124.53 1471.92 1123.92 1470.31 Q1123.32 1468.71 1122.9 1466.87 L1125.95 1465.11 Q1125.99 1466.89 1126.47 1468.54 Q1126.94 1470.19 1127.87 1471.8 Q1129.37 1474.4 1131.61 1475.13 Q1133.86 1475.86 1136.2 1474.51 Q1138.55 1473.15 1139.04 1470.84 Q1139.53 1468.53 1138.03 1465.93 Q1137.33 1464.72 1136.35 1463.65 Q1135.39 1462.61 1134.09 1461.67 L1145.36 1455.16 Z" fill="#4c4c4c" fill-rule="evenodd" fill-opacity="1" /><path clip-path="url(#clip370)" d="M1158.41 1482.37 Q1157.05 1480.03 1154.05 1480.18 Q1151.08 1480.33 1146.44 1483.01 Q1141.83 1485.67 1140.19 1488.18 Q1138.58 1490.7 1139.93 1493.04 Q1141.29 1495.4 1144.27 1495.25 Q1147.27 1495.1 1151.89 1492.43 Q1156.52 1489.76 1158.13 1487.24 Q1159.77 1484.73 1158.41 1482.37 M1160.81 1480.99 Q1162.99 1484.76 1161.15 1488.47 Q1159.32 1492.19 1153.64 1495.47 Q1147.97 1498.74 1143.83 1498.47 Q1139.7 1498.21 1137.52 1494.43 Q1135.35 1490.66 1137.17 1486.94 Q1139.01 1483.23 1144.68 1479.95 Q1150.37 1476.67 1154.49 1476.94 Q1158.63 1477.21 1160.81 1480.99 Z" fill="#4c4c4c" fill-rule="evenodd" fill-opacity="1" /><path clip-path="url(#clip370)" d="M1284.74 1468.01 Q1283.56 1465.97 1281.47 1465.57 Q1279.38 1465.19 1276.95 1466.6 Q1274.53 1467.99 1273.8 1470 Q1273.1 1472.01 1274.28 1474.05 Q1275.46 1476.1 1277.54 1476.48 Q1279.65 1476.87 1282.07 1475.47 Q1284.51 1474.06 1285.21 1472.05 Q1285.92 1470.06 1284.74 1468.01 M1297.74 1468.55 L1294.97 1470.14 Q1294.86 1468.69 1294.46 1467.35 Q1294.08 1466.03 1293.42 1464.89 Q1291.69 1461.88 1288.74 1461.46 Q1285.79 1461.05 1281.56 1463.19 Q1283.38 1463.33 1284.84 1464.26 Q1286.32 1465.19 1287.25 1466.8 Q1289.21 1470.19 1288.27 1473.33 Q1287.37 1476.48 1283.83 1478.52 Q1280.37 1480.52 1277.1 1479.68 Q1273.83 1478.84 1271.87 1475.44 Q1269.62 1471.55 1271.41 1467.77 Q1273.21 1463.98 1278.88 1460.71 Q1284.2 1457.64 1288.82 1458.34 Q1293.45 1459.03 1295.91 1463.29 Q1296.57 1464.43 1297.01 1465.72 Q1297.46 1467.02 1297.74 1468.55 Z" fill="#4c4c4c" fill-rule="evenodd" fill-opacity="1" /><path clip-path="url(#clip370)" d="M1303.85 1482.6 Q1302.5 1480.25 1299.49 1480.4 Q1296.52 1480.56 1291.89 1483.23 Q1287.27 1485.9 1285.63 1488.41 Q1284.02 1490.92 1285.37 1493.27 Q1286.73 1495.63 1289.71 1495.47 Q1292.71 1495.32 1297.33 1492.66 Q1301.96 1489.99 1303.57 1487.47 Q1305.21 1484.96 1303.85 1482.6 M1306.26 1481.21 Q1308.43 1484.98 1306.59 1488.7 Q1304.77 1492.42 1299.08 1495.7 Q1293.41 1498.97 1289.27 1498.7 Q1285.14 1498.43 1282.97 1494.66 Q1280.79 1490.88 1282.61 1487.16 Q1284.46 1483.45 1290.12 1480.18 Q1295.81 1476.9 1299.93 1477.16 Q1304.08 1477.44 1306.26 1481.21 Z" fill="#4c4c4c" fill-rule="evenodd" fill-opacity="1" /><path clip-path="url(#clip370)" d="M1435.44 1454.22 L1443.77 1468.65 L1442.48 1469.4 L1416.62 1473.46 L1414.79 1470.29 L1439.11 1466.47 L1432.88 1455.69 L1435.44 1454.22 Z" fill="#4c4c4c" fill-rule="evenodd" fill-opacity="1" /><path clip-path="url(#clip370)" d="M1448.94 1482.22 Q1447.59 1479.88 1444.59 1480.03 Q1441.61 1480.18 1436.98 1482.86 Q1432.36 1485.52 1430.73 1488.03 Q1429.11 1490.55 1430.47 1492.89 Q1431.83 1495.25 1434.81 1495.1 Q1437.81 1494.95 1442.42 1492.28 Q1447.05 1489.61 1448.67 1487.09 Q1450.31 1484.58 1448.94 1482.22 M1451.35 1480.84 Q1453.53 1484.61 1451.68 1488.32 Q1449.86 1492.04 1444.18 1495.32 Q1438.51 1498.59 1434.36 1498.32 Q1430.24 1498.06 1428.06 1494.28 Q1425.88 1490.51 1427.7 1486.79 Q1429.55 1483.08 1435.22 1479.8 Q1440.9 1476.52 1445.02 1476.79 Q1449.17 1477.06 1451.35 1480.84 Z" fill="#4c4c4c" fill-rule="evenodd" fill-opacity="1" /><path clip-path="url(#clip370)" d="M1573.41 1468.72 Q1572.16 1466.56 1570.28 1465.98 Q1568.41 1465.41 1566.38 1466.58 Q1564.35 1467.76 1563.91 1469.66 Q1563.47 1471.57 1564.72 1473.74 Q1565.97 1475.9 1567.85 1476.48 Q1569.74 1477.05 1571.75 1475.89 Q1573.78 1474.72 1574.22 1472.8 Q1574.67 1470.9 1573.41 1468.72 M1572.95 1464.94 Q1572.3 1462.7 1573.01 1460.83 Q1573.72 1458.98 1575.64 1457.87 Q1578.33 1456.31 1581 1457.32 Q1583.67 1458.34 1585.6 1461.68 Q1587.54 1465.03 1587.08 1467.85 Q1586.62 1470.66 1583.92 1472.21 Q1582 1473.32 1580.03 1473 Q1578.06 1472.69 1576.46 1471.03 Q1577.22 1473.52 1576.43 1475.59 Q1575.66 1477.69 1573.51 1478.93 Q1570.25 1480.81 1567.35 1479.82 Q1564.46 1478.84 1562.31 1475.13 Q1560.17 1471.41 1560.76 1468.41 Q1561.36 1465.41 1564.62 1463.53 Q1566.77 1462.29 1568.97 1462.66 Q1571.17 1463.04 1572.95 1464.94 M1577.1 1461.06 Q1575.36 1462.06 1575.01 1463.71 Q1574.66 1465.37 1575.8 1467.34 Q1576.93 1469.29 1578.54 1469.83 Q1580.16 1470.38 1581.9 1469.37 Q1583.65 1468.36 1583.98 1466.69 Q1584.32 1465.02 1583.2 1463.07 Q1582.06 1461.1 1580.45 1460.57 Q1578.85 1460.05 1577.1 1461.06 Z" fill="#4c4c4c" fill-rule="evenodd" fill-opacity="1" /><path clip-path="url(#clip370)" d="M1594.51 1482.66 Q1593.15 1480.31 1590.15 1480.46 Q1587.17 1480.62 1582.54 1483.29 Q1577.93 1485.96 1576.29 1488.47 Q1574.67 1490.98 1576.03 1493.33 Q1577.39 1495.69 1580.37 1495.53 Q1583.37 1495.38 1587.99 1492.72 Q1592.62 1490.05 1594.23 1487.53 Q1595.87 1485.02 1594.51 1482.66 M1596.91 1481.27 Q1599.09 1485.04 1597.25 1488.76 Q1595.42 1492.48 1589.74 1495.76 Q1584.07 1499.03 1579.92 1498.76 Q1575.8 1498.49 1573.62 1494.72 Q1571.44 1490.94 1573.27 1487.23 Q1575.11 1483.51 1580.78 1480.24 Q1586.46 1476.96 1590.59 1477.23 Q1594.73 1477.5 1596.91 1481.27 Z" fill="#4c4c4c" fill-rule="evenodd" fill-opacity="1" /><path clip-path="url(#clip370)" d="M1704.91 1468.35 L1707.68 1466.75 Q1707.8 1468.21 1708.19 1469.55 Q1708.58 1470.88 1709.23 1472.01 Q1710.97 1475.02 1713.9 1475.43 Q1716.85 1475.86 1721.1 1473.7 Q1719.3 1473.58 1717.83 1472.64 Q1716.37 1471.7 1715.43 1470.08 Q1713.49 1466.71 1714.38 1463.57 Q1715.3 1460.43 1718.83 1458.39 Q1722.29 1456.4 1725.56 1457.23 Q1728.83 1458.07 1730.79 1461.47 Q1733.04 1465.36 1731.23 1469.14 Q1729.44 1472.91 1723.76 1476.2 Q1718.45 1479.26 1713.82 1478.57 Q1709.21 1477.88 1706.76 1473.62 Q1706.1 1472.48 1705.64 1471.18 Q1705.19 1469.87 1704.91 1468.35 M1717.92 1468.9 Q1719.1 1470.95 1721.19 1471.33 Q1723.28 1471.72 1725.71 1470.32 Q1728.14 1468.92 1728.84 1466.91 Q1729.57 1464.9 1728.39 1462.86 Q1727.21 1460.81 1725.1 1460.43 Q1723.01 1460.05 1720.59 1461.44 Q1718.16 1462.85 1717.44 1464.85 Q1716.74 1466.86 1717.92 1468.9 Z" fill="#4c4c4c" fill-rule="evenodd" fill-opacity="1" /><path clip-path="url(#clip370)" d="M1739.91 1482.81 Q1738.55 1480.46 1735.55 1480.61 Q1732.57 1480.77 1727.94 1483.44 Q1723.33 1486.11 1721.69 1488.62 Q1720.07 1491.13 1721.43 1493.48 Q1722.79 1495.84 1725.77 1495.68 Q1728.77 1495.53 1733.38 1492.87 Q1738.01 1490.2 1739.63 1487.68 Q1741.27 1485.17 1739.91 1482.81 M1742.31 1481.42 Q1744.49 1485.2 1742.64 1488.91 Q1740.82 1492.63 1735.14 1495.91 Q1729.47 1499.18 1725.32 1498.91 Q1721.2 1498.64 1719.02 1494.87 Q1716.84 1491.09 1718.66 1487.38 Q1720.51 1483.66 1726.18 1480.39 Q1731.86 1477.11 1735.99 1477.38 Q1740.13 1477.65 1742.31 1481.42 Z" fill="#4c4c4c" fill-rule="evenodd" fill-opacity="1" /><path clip-path="url(#clip370)" d="M1851.73 1466.14 L1854.6 1471.1 L1871.72 1461.21 L1867.53 1456.44 L1870.29 1454.84 L1874.47 1459.58 L1876.23 1462.62 L1856.34 1474.11 L1859.2 1479.07 L1856.64 1480.54 L1849.18 1467.61 L1851.73 1466.14 Z" fill="#4c4c4c" fill-rule="evenodd" fill-opacity="1" /><path clip-path="url(#clip370)" d="M1884.38 1481.37 Q1883.03 1479.02 1880.03 1479.17 Q1877.05 1479.33 1872.42 1482 Q1867.8 1484.66 1866.17 1487.17 Q1864.55 1489.69 1865.9 1492.04 Q1867.27 1494.4 1870.25 1494.24 Q1873.25 1494.09 1877.86 1491.43 Q1882.49 1488.75 1884.11 1486.24 Q1885.75 1483.73 1884.38 1481.37 M1886.79 1479.98 Q1888.97 1483.75 1887.12 1487.46 Q1885.3 1491.18 1879.62 1494.46 Q1873.95 1497.74 1869.8 1497.46 Q1865.68 1497.2 1863.5 1493.42 Q1861.32 1489.65 1863.14 1485.93 Q1864.99 1482.22 1870.66 1478.95 Q1876.34 1475.67 1880.46 1475.93 Q1884.61 1476.2 1886.79 1479.98 Z" fill="#4c4c4c" fill-rule="evenodd" fill-opacity="1" /><path clip-path="url(#clip370)" d="M1895.69 1500.96 Q1894.34 1498.61 1891.34 1498.76 Q1888.36 1498.92 1883.73 1501.59 Q1879.11 1504.26 1877.48 1506.76 Q1875.86 1509.28 1877.22 1511.63 Q1878.58 1513.99 1881.56 1513.83 Q1884.56 1513.68 1889.17 1511.02 Q1893.8 1508.34 1895.42 1505.83 Q1897.06 1503.32 1895.69 1500.96 M1898.1 1499.57 Q1900.28 1503.34 1898.43 1507.05 Q1896.61 1510.77 1890.93 1514.05 Q1885.26 1517.33 1881.11 1517.05 Q1876.99 1516.79 1874.81 1513.01 Q1872.63 1509.24 1874.45 1505.52 Q1876.3 1501.81 1881.97 1498.54 Q1887.65 1495.26 1891.77 1495.52 Q1895.92 1495.8 1898.1 1499.57 Z" fill="#4c4c4c" fill-rule="evenodd" fill-opacity="1" /><path clip-path="url(#clip370)" d="M1997.05 1466.14 L1999.91 1471.1 L2017.04 1461.21 L2012.84 1456.44 L2015.6 1454.84 L2019.78 1459.58 L2021.54 1462.62 L2001.65 1474.11 L2004.51 1479.07 L2001.96 1480.54 L1994.49 1467.61 L1997.05 1466.14 Z" fill="#4c4c4c" fill-rule="evenodd" fill-opacity="1" /><path clip-path="url(#clip370)" d="M2008.36 1485.73 L2011.22 1490.69 L2028.35 1480.8 L2024.15 1476.03 L2026.91 1474.43 L2031.1 1479.18 L2032.85 1482.21 L2012.96 1493.7 L2015.82 1498.66 L2013.27 1500.13 L2005.8 1487.2 L2008.36 1485.73 Z" fill="#4c4c4c" fill-rule="evenodd" fill-opacity="1" /><path clip-path="url(#clip370)" d="M2041.01 1500.96 Q2039.65 1498.61 2036.65 1498.76 Q2033.67 1498.92 2029.04 1501.59 Q2024.43 1504.26 2022.79 1506.76 Q2021.17 1509.28 2022.53 1511.63 Q2023.89 1513.99 2026.87 1513.83 Q2029.87 1513.68 2034.48 1511.02 Q2039.12 1508.34 2040.73 1505.83 Q2042.37 1503.32 2041.01 1500.96 M2043.41 1499.57 Q2045.59 1503.34 2043.74 1507.05 Q2041.92 1510.77 2036.24 1514.05 Q2030.57 1517.33 2026.42 1517.05 Q2022.3 1516.79 2020.12 1513.01 Q2017.94 1509.24 2019.77 1505.52 Q2021.61 1501.81 2027.28 1498.54 Q2032.96 1495.26 2037.09 1495.52 Q2041.23 1495.8 2043.41 1499.57 Z" fill="#4c4c4c" fill-rule="evenodd" fill-opacity="1" /><path clip-path="url(#clip370)" d="M2142.36 1466.14 L2145.22 1471.1 L2162.35 1461.21 L2158.15 1456.44 L2160.91 1454.84 L2165.1 1459.58 L2166.85 1462.62 L2146.96 1474.11 L2149.82 1479.07 L2147.27 1480.54 L2139.8 1467.61 L2142.36 1466.14 Z" fill="#4c4c4c" fill-rule="evenodd" fill-opacity="1" /><path clip-path="url(#clip370)" d="M2154.87 1487.82 L2160.99 1498.42 L2158.44 1499.89 L2150.21 1485.64 L2152.77 1484.16 Q2155.55 1484.86 2160.28 1486.1 Q2165.03 1487.35 2166.34 1487.61 Q2168.82 1488.12 2170.28 1488.04 Q2171.76 1487.97 2172.86 1487.34 Q2174.65 1486.3 2175.05 1484.39 Q2175.45 1482.49 2174.29 1480.48 Q2173.47 1479.05 2172.05 1477.74 Q2170.64 1476.45 2168.59 1475.23 L2171.66 1473.46 Q2173.46 1474.86 2174.75 1476.24 Q2176.05 1477.62 2176.81 1478.94 Q2178.83 1482.43 2178.28 1485.51 Q2177.73 1488.59 2174.82 1490.28 Q2173.43 1491.08 2171.88 1491.27 Q2170.35 1491.47 2167.88 1491.07 Q2167.23 1490.95 2163.97 1490.14 Q2160.74 1489.32 2154.87 1487.82 Z" fill="#4c4c4c" fill-rule="evenodd" fill-opacity="1" /><path clip-path="url(#clip370)" d="M2186.32 1500.96 Q2184.96 1498.61 2181.96 1498.76 Q2178.98 1498.92 2174.35 1501.59 Q2169.74 1504.26 2168.1 1506.76 Q2166.48 1509.28 2167.84 1511.63 Q2169.2 1513.99 2172.18 1513.83 Q2175.18 1513.68 2179.8 1511.02 Q2184.43 1508.34 2186.04 1505.83 Q2187.68 1503.32 2186.32 1500.96 M2188.72 1499.57 Q2190.9 1503.34 2189.05 1507.05 Q2187.23 1510.77 2181.55 1514.05 Q2175.88 1517.33 2171.73 1517.05 Q2167.61 1516.79 2165.43 1513.01 Q2163.25 1509.24 2165.08 1505.52 Q2166.92 1501.81 2172.59 1498.54 Q2178.27 1495.26 2182.4 1495.52 Q2186.54 1495.8 2188.72 1499.57 Z" fill="#4c4c4c" fill-rule="evenodd" fill-opacity="1" /><path clip-path="url(#clip370)" d="M2287.67 1466.14 L2290.53 1471.1 L2307.66 1461.21 L2303.46 1456.44 L2306.23 1454.84 L2310.41 1459.58 L2312.16 1462.62 L2292.27 1474.11 L2295.13 1479.07 L2292.58 1480.54 L2285.11 1467.61 L2287.67 1466.14 Z" fill="#4c4c4c" fill-rule="evenodd" fill-opacity="1" /><path clip-path="url(#clip370)" d="M2313.54 1488.89 Q2314.33 1491.34 2313.56 1493.41 Q2312.8 1495.49 2310.63 1496.74 Q2307.31 1498.66 2304.17 1497.43 Q2301.03 1496.19 2298.6 1491.98 Q2297.78 1490.57 2297.2 1488.9 Q2296.61 1487.25 2296.25 1485.34 L2299.18 1483.65 Q2299.17 1485.34 2299.67 1487.06 Q2300.16 1488.78 2301.1 1490.41 Q2302.75 1493.27 2304.74 1494.11 Q2306.74 1494.96 2308.89 1493.72 Q2310.87 1492.57 2311.18 1490.53 Q2311.5 1488.5 2310.07 1486.02 L2308.56 1483.4 L2311.06 1481.96 L2312.64 1484.7 Q2313.93 1486.94 2315.5 1487.61 Q2317.09 1488.28 2318.78 1487.31 Q2320.5 1486.31 2320.71 1484.55 Q2320.94 1482.79 2319.62 1480.51 Q2318.9 1479.26 2317.8 1477.99 Q2316.71 1476.71 2315.15 1475.33 L2317.85 1473.77 Q2319.33 1475.22 2320.44 1476.58 Q2321.56 1477.96 2322.33 1479.3 Q2324.33 1482.76 2323.91 1485.69 Q2323.51 1488.6 2320.84 1490.15 Q2318.97 1491.22 2317.06 1490.9 Q2315.17 1490.57 2313.54 1488.89 Z" fill="#4c4c4c" fill-rule="evenodd" fill-opacity="1" /><path clip-path="url(#clip370)" d="M2331.63 1500.96 Q2330.27 1498.61 2327.27 1498.76 Q2324.3 1498.92 2319.66 1501.59 Q2315.05 1504.26 2313.41 1506.76 Q2311.8 1509.28 2313.15 1511.63 Q2314.51 1513.99 2317.49 1513.83 Q2320.49 1513.68 2325.11 1511.02 Q2329.74 1508.34 2331.35 1505.83 Q2332.99 1503.32 2331.63 1500.96 M2334.03 1499.57 Q2336.21 1503.34 2334.37 1507.05 Q2332.54 1510.77 2326.86 1514.05 Q2321.19 1517.33 2317.05 1517.05 Q2312.92 1516.79 2310.74 1513.01 Q2308.57 1509.24 2310.39 1505.52 Q2312.23 1501.81 2317.9 1498.54 Q2323.59 1495.26 2327.71 1495.52 Q2331.85 1495.8 2334.03 1499.57 Z" fill="#4c4c4c" fill-rule="evenodd" fill-opacity="1" /><path clip-path="url(#clip370)" d="M1242.15 1537.87 L1246.83 1537.87 L1246.83 1572.43 L1242.15 1572.43 L1242.15 1537.87 Z" fill="#000000" fill-rule="evenodd" fill-opacity="1" /><path clip-path="url(#clip370)" d="M1260.16 1539.15 L1260.16 1546.51 L1268.93 1546.51 L1268.93 1549.82 L1260.16 1549.82 L1260.16 1563.89 Q1260.16 1567.06 1261.02 1567.97 Q1261.9 1568.87 1264.56 1568.87 L1268.93 1568.87 L1268.93 1572.43 L1264.56 1572.43 Q1259.63 1572.43 1257.75 1570.6 Q1255.88 1568.75 1255.88 1563.89 L1255.88 1549.82 L1252.75 1549.82 L1252.75 1546.51 L1255.88 1546.51 L1255.88 1539.15 L1260.16 1539.15 Z" fill="#000000" fill-rule="evenodd" fill-opacity="1" /><path clip-path="url(#clip370)" d="M1296.71 1558.41 L1296.71 1560.49 L1277.13 1560.49 Q1277.41 1564.89 1279.77 1567.2 Q1282.15 1569.49 1286.39 1569.49 Q1288.84 1569.49 1291.13 1568.89 Q1293.45 1568.29 1295.72 1567.09 L1295.72 1571.11 Q1293.42 1572.09 1291.02 1572.6 Q1288.61 1573.1 1286.13 1573.1 Q1279.93 1573.1 1276.29 1569.49 Q1272.68 1565.88 1272.68 1559.73 Q1272.68 1553.36 1276.11 1549.63 Q1279.56 1545.88 1285.39 1545.88 Q1290.62 1545.88 1293.66 1549.26 Q1296.71 1552.62 1296.71 1558.41 M1292.45 1557.16 Q1292.41 1553.66 1290.48 1551.58 Q1288.59 1549.49 1285.44 1549.49 Q1281.87 1549.49 1279.72 1551.51 Q1277.59 1553.52 1277.27 1557.18 L1292.45 1557.16 Z" fill="#000000" fill-rule="evenodd" fill-opacity="1" /><path clip-path="url(#clip370)" d="M1318.73 1550.49 Q1318.01 1550.07 1317.15 1549.89 Q1316.32 1549.68 1315.3 1549.68 Q1311.69 1549.68 1309.74 1552.04 Q1307.82 1554.38 1307.82 1558.78 L1307.82 1572.43 L1303.54 1572.43 L1303.54 1546.51 L1307.82 1546.51 L1307.82 1550.54 Q1309.17 1548.17 1311.32 1547.04 Q1313.47 1545.88 1316.55 1545.88 Q1316.99 1545.88 1317.52 1545.95 Q1318.05 1546 1318.7 1546.11 L1318.73 1550.49 Z" fill="#000000" fill-rule="evenodd" fill-opacity="1" /><path clip-path="url(#clip370)" d="M1334.98 1559.4 Q1329.81 1559.4 1327.82 1560.58 Q1325.83 1561.76 1325.83 1564.61 Q1325.83 1566.88 1327.31 1568.22 Q1328.82 1569.54 1331.39 1569.54 Q1334.93 1569.54 1337.06 1567.04 Q1339.21 1564.52 1339.21 1560.35 L1339.21 1559.4 L1334.98 1559.4 M1343.47 1557.64 L1343.47 1572.43 L1339.21 1572.43 L1339.21 1568.5 Q1337.75 1570.86 1335.58 1571.99 Q1333.4 1573.1 1330.25 1573.1 Q1326.27 1573.1 1323.91 1570.88 Q1321.57 1568.64 1321.57 1564.89 Q1321.57 1560.51 1324.49 1558.29 Q1327.43 1556.07 1333.24 1556.07 L1339.21 1556.07 L1339.21 1555.65 Q1339.21 1552.71 1337.27 1551.11 Q1335.35 1549.49 1331.85 1549.49 Q1329.63 1549.49 1327.52 1550.03 Q1325.42 1550.56 1323.47 1551.62 L1323.47 1547.69 Q1325.81 1546.79 1328.01 1546.35 Q1330.21 1545.88 1332.29 1545.88 Q1337.92 1545.88 1340.69 1548.8 Q1343.47 1551.72 1343.47 1557.64 Z" fill="#000000" fill-rule="evenodd" fill-opacity="1" /><path clip-path="url(#clip370)" d="M1356.46 1539.15 L1356.46 1546.51 L1365.23 1546.51 L1365.23 1549.82 L1356.46 1549.82 L1356.46 1563.89 Q1356.46 1567.06 1357.31 1567.97 Q1358.19 1568.87 1360.85 1568.87 L1365.23 1568.87 L1365.23 1572.43 L1360.85 1572.43 Q1355.92 1572.43 1354.05 1570.6 Q1352.17 1568.75 1352.17 1563.89 L1352.17 1549.82 L1349.05 1549.82 L1349.05 1546.51 L1352.17 1546.51 L1352.17 1539.15 L1356.46 1539.15 Z" fill="#000000" fill-rule="evenodd" fill-opacity="1" /><path clip-path="url(#clip370)" d="M1370.83 1546.51 L1375.09 1546.51 L1375.09 1572.43 L1370.83 1572.43 L1370.83 1546.51 M1370.83 1536.42 L1375.09 1536.42 L1375.09 1541.81 L1370.83 1541.81 L1370.83 1536.42 Z" fill="#000000" fill-rule="evenodd" fill-opacity="1" /><path clip-path="url(#clip370)" d="M1394.05 1549.49 Q1390.62 1549.49 1388.63 1552.18 Q1386.64 1554.84 1386.64 1559.49 Q1386.64 1564.15 1388.61 1566.83 Q1390.6 1569.49 1394.05 1569.49 Q1397.45 1569.49 1399.44 1566.81 Q1401.43 1564.12 1401.43 1559.49 Q1401.43 1554.89 1399.44 1552.2 Q1397.45 1549.49 1394.05 1549.49 M1394.05 1545.88 Q1399.6 1545.88 1402.78 1549.49 Q1405.95 1553.1 1405.95 1559.49 Q1405.95 1565.86 1402.78 1569.49 Q1399.6 1573.1 1394.05 1573.1 Q1388.47 1573.1 1385.3 1569.49 Q1382.15 1565.86 1382.15 1559.49 Q1382.15 1553.1 1385.3 1549.49 Q1388.47 1545.88 1394.05 1545.88 Z" fill="#000000" fill-rule="evenodd" fill-opacity="1" /><path clip-path="url(#clip370)" d="M1434.56 1556.79 L1434.56 1572.43 L1430.3 1572.43 L1430.3 1556.92 Q1430.3 1553.24 1428.86 1551.41 Q1427.43 1549.59 1424.56 1549.59 Q1421.11 1549.59 1419.12 1551.79 Q1417.13 1553.98 1417.13 1557.78 L1417.13 1572.43 L1412.85 1572.43 L1412.85 1546.51 L1417.13 1546.51 L1417.13 1550.54 Q1418.66 1548.2 1420.72 1547.04 Q1422.8 1545.88 1425.51 1545.88 Q1429.97 1545.88 1432.27 1548.66 Q1434.56 1551.41 1434.56 1556.79 Z" fill="#000000" fill-rule="evenodd" fill-opacity="1" /><path clip-path="url(#clip370)" d="M1459.58 1547.27 L1459.58 1551.3 Q1457.78 1550.37 1455.83 1549.91 Q1453.89 1549.45 1451.8 1549.45 Q1448.63 1549.45 1447.03 1550.42 Q1445.46 1551.39 1445.46 1553.34 Q1445.46 1554.82 1446.6 1555.67 Q1447.73 1556.51 1451.16 1557.27 L1452.61 1557.6 Q1457.15 1558.57 1459.05 1560.35 Q1460.97 1562.11 1460.97 1565.28 Q1460.97 1568.89 1458.1 1571 Q1455.25 1573.1 1450.25 1573.1 Q1448.17 1573.1 1445.9 1572.69 Q1443.66 1572.29 1441.16 1571.48 L1441.16 1567.09 Q1443.52 1568.31 1445.81 1568.94 Q1448.1 1569.54 1450.34 1569.54 Q1453.35 1569.54 1454.97 1568.52 Q1456.59 1567.48 1456.59 1565.6 Q1456.59 1563.87 1455.41 1562.94 Q1454.26 1562.02 1450.3 1561.16 L1448.82 1560.81 Q1444.86 1559.98 1443.1 1558.27 Q1441.34 1556.53 1441.34 1553.52 Q1441.34 1549.86 1443.93 1547.87 Q1446.53 1545.88 1451.29 1545.88 Q1453.66 1545.88 1455.74 1546.23 Q1457.82 1546.58 1459.58 1547.27 Z" fill="#000000" fill-rule="evenodd" fill-opacity="1" /><polyline clip-path="url(#clip372)" style="stroke:#ffffff; stroke-linecap:butt; stroke-linejoin:round; stroke-width:4; stroke-opacity:1; fill:none" points="
  350.366,1299.13 2352.76,1299.13 
  "/>
<polyline clip-path="url(#clip372)" style="stroke:#ffffff; stroke-linecap:butt; stroke-linejoin:round; stroke-width:4; stroke-opacity:1; fill:none" points="
  350.366,1099.87 2352.76,1099.87 
  "/>
<polyline clip-path="url(#clip372)" style="stroke:#ffffff; stroke-linecap:butt; stroke-linejoin:round; stroke-width:4; stroke-opacity:1; fill:none" points="
  350.366,900.614 2352.76,900.614 
  "/>
<polyline clip-path="url(#clip372)" style="stroke:#ffffff; stroke-linecap:butt; stroke-linejoin:round; stroke-width:4; stroke-opacity:1; fill:none" points="
  350.366,701.357 2352.76,701.357 
  "/>
<polyline clip-path="url(#clip372)" style="stroke:#ffffff; stroke-linecap:butt; stroke-linejoin:round; stroke-width:4; stroke-opacity:1; fill:none" points="
  350.366,502.1 2352.76,502.1 
  "/>
<polyline clip-path="url(#clip372)" style="stroke:#ffffff; stroke-linecap:butt; stroke-linejoin:round; stroke-width:4; stroke-opacity:1; fill:none" points="
  350.366,302.843 2352.76,302.843 
  "/>
<polyline clip-path="url(#clip372)" style="stroke:#ffffff; stroke-linecap:butt; stroke-linejoin:round; stroke-width:2; stroke-opacity:1; fill:none" points="
  350.366,1398.76 2352.76,1398.76 
  "/>
<polyline clip-path="url(#clip372)" style="stroke:#ffffff; stroke-linecap:butt; stroke-linejoin:round; stroke-width:2; stroke-opacity:1; fill:none" points="
  350.366,1199.5 2352.76,1199.5 
  "/>
<polyline clip-path="url(#clip372)" style="stroke:#ffffff; stroke-linecap:butt; stroke-linejoin:round; stroke-width:2; stroke-opacity:1; fill:none" points="
  350.366,1000.24 2352.76,1000.24 
  "/>
<polyline clip-path="url(#clip372)" style="stroke:#ffffff; stroke-linecap:butt; stroke-linejoin:round; stroke-width:2; stroke-opacity:1; fill:none" points="
  350.366,800.985 2352.76,800.985 
  "/>
<polyline clip-path="url(#clip372)" style="stroke:#ffffff; stroke-linecap:butt; stroke-linejoin:round; stroke-width:2; stroke-opacity:1; fill:none" points="
  350.366,601.728 2352.76,601.728 
  "/>
<polyline clip-path="url(#clip372)" style="stroke:#ffffff; stroke-linecap:butt; stroke-linejoin:round; stroke-width:2; stroke-opacity:1; fill:none" points="
  350.366,402.471 2352.76,402.471 
  "/>
<polyline clip-path="url(#clip372)" style="stroke:#ffffff; stroke-linecap:butt; stroke-linejoin:round; stroke-width:2; stroke-opacity:1; fill:none" points="
  350.366,203.214 2352.76,203.214 
  "/>
<polyline clip-path="url(#clip370)" style="stroke:#ffffff; stroke-linecap:butt; stroke-linejoin:round; stroke-width:4; stroke-opacity:1; fill:none" points="
  350.366,1422.18 350.366,106.192 
  "/>
<polyline clip-path="url(#clip370)" style="stroke:#333333; stroke-linecap:butt; stroke-linejoin:round; stroke-width:4; stroke-opacity:1; fill:none" points="
  350.366,1299.13 331.468,1299.13 
  "/>
<polyline clip-path="url(#clip370)" style="stroke:#333333; stroke-linecap:butt; stroke-linejoin:round; stroke-width:4; stroke-opacity:1; fill:none" points="
  350.366,1099.87 331.468,1099.87 
  "/>
<polyline clip-path="url(#clip370)" style="stroke:#333333; stroke-linecap:butt; stroke-linejoin:round; stroke-width:4; stroke-opacity:1; fill:none" points="
  350.366,900.614 331.468,900.614 
  "/>
<polyline clip-path="url(#clip370)" style="stroke:#333333; stroke-linecap:butt; stroke-linejoin:round; stroke-width:4; stroke-opacity:1; fill:none" points="
  350.366,701.357 331.468,701.357 
  "/>
<polyline clip-path="url(#clip370)" style="stroke:#333333; stroke-linecap:butt; stroke-linejoin:round; stroke-width:4; stroke-opacity:1; fill:none" points="
  350.366,502.1 331.468,502.1 
  "/>
<polyline clip-path="url(#clip370)" style="stroke:#333333; stroke-linecap:butt; stroke-linejoin:round; stroke-width:4; stroke-opacity:1; fill:none" points="
  350.366,302.843 331.468,302.843 
  "/>
<polyline clip-path="url(#clip370)" style="stroke:#333333; stroke-linecap:butt; stroke-linejoin:round; stroke-width:4; stroke-opacity:1; fill:none" points="
  350.366,1398.76 340.917,1398.76 
  "/>
<polyline clip-path="url(#clip370)" style="stroke:#333333; stroke-linecap:butt; stroke-linejoin:round; stroke-width:4; stroke-opacity:1; fill:none" points="
  350.366,1199.5 340.917,1199.5 
  "/>
<polyline clip-path="url(#clip370)" style="stroke:#333333; stroke-linecap:butt; stroke-linejoin:round; stroke-width:4; stroke-opacity:1; fill:none" points="
  350.366,1000.24 340.917,1000.24 
  "/>
<polyline clip-path="url(#clip370)" style="stroke:#333333; stroke-linecap:butt; stroke-linejoin:round; stroke-width:4; stroke-opacity:1; fill:none" points="
  350.366,800.985 340.917,800.985 
  "/>
<polyline clip-path="url(#clip370)" style="stroke:#333333; stroke-linecap:butt; stroke-linejoin:round; stroke-width:4; stroke-opacity:1; fill:none" points="
  350.366,601.728 340.917,601.728 
  "/>
<polyline clip-path="url(#clip370)" style="stroke:#333333; stroke-linecap:butt; stroke-linejoin:round; stroke-width:4; stroke-opacity:1; fill:none" points="
  350.366,402.471 340.917,402.471 
  "/>
<polyline clip-path="url(#clip370)" style="stroke:#333333; stroke-linecap:butt; stroke-linejoin:round; stroke-width:4; stroke-opacity:1; fill:none" points="
  350.366,203.214 340.917,203.214 
  "/>
<path clip-path="url(#clip370)" d="M194.022 1299.47 L216.279 1299.47 L216.279 1302.42 L194.022 1302.42 L194.022 1299.47 Z" fill="#4c4c4c" fill-rule="evenodd" fill-opacity="1" /><path clip-path="url(#clip370)" d="M224.456 1309.14 L230.185 1309.14 L230.185 1289.36 L223.953 1290.61 L223.953 1287.42 L230.151 1286.17 L233.658 1286.17 L233.658 1309.14 L239.387 1309.14 L239.387 1312.09 L224.456 1312.09 L224.456 1309.14 Z" fill="#4c4c4c" fill-rule="evenodd" fill-opacity="1" /><path clip-path="url(#clip370)" d="M247.078 1309.14 L252.807 1309.14 L252.807 1289.36 L246.574 1290.61 L246.574 1287.42 L252.772 1286.17 L256.279 1286.17 L256.279 1309.14 L262.008 1309.14 L262.008 1312.09 L247.078 1312.09 L247.078 1309.14 Z" fill="#4c4c4c" fill-rule="evenodd" fill-opacity="1" /><path clip-path="url(#clip370)" d="M269.092 1307.68 L272.755 1307.68 L272.755 1312.09 L269.092 1312.09 L269.092 1307.68 Z" fill="#4c4c4c" fill-rule="evenodd" fill-opacity="1" /><path clip-path="url(#clip370)" d="M291.018 1298.11 Q293.536 1298.65 294.942 1300.35 Q296.366 1302.05 296.366 1304.55 Q296.366 1308.39 293.727 1310.49 Q291.088 1312.59 286.227 1312.59 Q284.595 1312.59 282.859 1312.26 Q281.14 1311.95 279.3 1311.31 L279.3 1307.92 Q280.758 1308.77 282.494 1309.21 Q284.23 1309.64 286.123 1309.64 Q289.421 1309.64 291.14 1308.34 Q292.876 1307.04 292.876 1304.55 Q292.876 1302.26 291.262 1300.98 Q289.664 1299.68 286.8 1299.68 L283.779 1299.68 L283.779 1296.79 L286.939 1296.79 Q289.525 1296.79 290.897 1295.77 Q292.268 1294.73 292.268 1292.78 Q292.268 1290.79 290.845 1289.73 Q289.439 1288.65 286.8 1288.65 Q285.359 1288.65 283.71 1288.96 Q282.06 1289.28 280.081 1289.94 L280.081 1286.81 Q282.078 1286.26 283.814 1285.98 Q285.567 1285.7 287.112 1285.7 Q291.105 1285.7 293.432 1287.52 Q295.758 1289.33 295.758 1292.42 Q295.758 1294.57 294.525 1296.06 Q293.293 1297.54 291.018 1298.11 Z" fill="#4c4c4c" fill-rule="evenodd" fill-opacity="1" /><path clip-path="url(#clip370)" d="M194.734 1100.21 L216.991 1100.21 L216.991 1103.16 L194.734 1103.16 L194.734 1100.21 Z" fill="#4c4c4c" fill-rule="evenodd" fill-opacity="1" /><path clip-path="url(#clip370)" d="M225.168 1109.88 L230.897 1109.88 L230.897 1090.11 L224.665 1091.36 L224.665 1088.16 L230.863 1086.91 L234.369 1086.91 L234.369 1109.88 L240.099 1109.88 L240.099 1112.83 L225.168 1112.83 L225.168 1109.88 Z" fill="#4c4c4c" fill-rule="evenodd" fill-opacity="1" /><path clip-path="url(#clip370)" d="M247.79 1109.88 L253.519 1109.88 L253.519 1090.11 L247.286 1091.36 L247.286 1088.16 L253.484 1086.91 L256.991 1086.91 L256.991 1109.88 L262.72 1109.88 L262.72 1112.83 L247.79 1112.83 L247.79 1109.88 Z" fill="#4c4c4c" fill-rule="evenodd" fill-opacity="1" /><path clip-path="url(#clip370)" d="M269.803 1108.42 L273.467 1108.42 L273.467 1112.83 L269.803 1112.83 L269.803 1108.42 Z" fill="#4c4c4c" fill-rule="evenodd" fill-opacity="1" /><path clip-path="url(#clip370)" d="M284.126 1109.88 L296.366 1109.88 L296.366 1112.83 L279.907 1112.83 L279.907 1109.88 Q281.904 1107.81 285.341 1104.34 Q288.796 1100.85 289.682 1099.85 Q291.366 1097.95 292.025 1096.65 Q292.703 1095.33 292.703 1094.06 Q292.703 1092 291.244 1090.7 Q289.803 1089.39 287.477 1089.39 Q285.828 1089.39 283.987 1089.97 Q282.164 1090.54 280.081 1091.7 L280.081 1088.16 Q282.199 1087.31 284.039 1086.88 Q285.88 1086.44 287.407 1086.44 Q291.435 1086.44 293.831 1088.46 Q296.227 1090.47 296.227 1093.84 Q296.227 1095.44 295.619 1096.88 Q295.029 1098.3 293.449 1100.24 Q293.015 1100.75 290.689 1103.16 Q288.362 1105.56 284.126 1109.88 Z" fill="#4c4c4c" fill-rule="evenodd" fill-opacity="1" /><path clip-path="url(#clip370)" d="M194.457 900.953 L216.713 900.953 L216.713 903.904 L194.457 903.904 L194.457 900.953 Z" fill="#4c4c4c" fill-rule="evenodd" fill-opacity="1" /><path clip-path="url(#clip370)" d="M224.89 910.623 L230.62 910.623 L230.62 890.848 L224.387 892.098 L224.387 888.904 L230.585 887.654 L234.092 887.654 L234.092 910.623 L239.821 910.623 L239.821 913.574 L224.89 913.574 L224.89 910.623 Z" fill="#4c4c4c" fill-rule="evenodd" fill-opacity="1" /><path clip-path="url(#clip370)" d="M247.512 910.623 L253.241 910.623 L253.241 890.848 L247.008 892.098 L247.008 888.904 L253.206 887.654 L256.713 887.654 L256.713 910.623 L262.442 910.623 L262.442 913.574 L247.512 913.574 L247.512 910.623 Z" fill="#4c4c4c" fill-rule="evenodd" fill-opacity="1" /><path clip-path="url(#clip370)" d="M269.526 909.164 L273.189 909.164 L273.189 913.574 L269.526 913.574 L269.526 909.164 Z" fill="#4c4c4c" fill-rule="evenodd" fill-opacity="1" /><path clip-path="url(#clip370)" d="M281.435 910.623 L287.164 910.623 L287.164 890.848 L280.932 892.098 L280.932 888.904 L287.13 887.654 L290.637 887.654 L290.637 910.623 L296.366 910.623 L296.366 913.574 L281.435 913.574 L281.435 910.623 Z" fill="#4c4c4c" fill-rule="evenodd" fill-opacity="1" /><path clip-path="url(#clip370)" d="M193.536 701.695 L215.793 701.695 L215.793 704.647 L193.536 704.647 L193.536 701.695 Z" fill="#4c4c4c" fill-rule="evenodd" fill-opacity="1" /><path clip-path="url(#clip370)" d="M223.97 711.366 L229.699 711.366 L229.699 691.591 L223.467 692.841 L223.467 689.647 L229.665 688.397 L233.172 688.397 L233.172 711.366 L238.901 711.366 L238.901 714.317 L223.97 714.317 L223.97 711.366 Z" fill="#4c4c4c" fill-rule="evenodd" fill-opacity="1" /><path clip-path="url(#clip370)" d="M246.592 711.366 L252.321 711.366 L252.321 691.591 L246.088 692.841 L246.088 689.647 L252.286 688.397 L255.793 688.397 L255.793 711.366 L261.522 711.366 L261.522 714.317 L246.592 714.317 L246.592 711.366 Z" fill="#4c4c4c" fill-rule="evenodd" fill-opacity="1" /><path clip-path="url(#clip370)" d="M268.605 709.907 L272.269 709.907 L272.269 714.317 L268.605 714.317 L268.605 709.907 Z" fill="#4c4c4c" fill-rule="evenodd" fill-opacity="1" /><path clip-path="url(#clip370)" d="M287.407 690.706 Q284.699 690.706 283.328 693.38 Q281.973 696.036 281.973 701.383 Q281.973 706.713 283.328 709.386 Q284.699 712.043 287.407 712.043 Q290.133 712.043 291.487 709.386 Q292.859 706.713 292.859 701.383 Q292.859 696.036 291.487 693.38 Q290.133 690.706 287.407 690.706 M287.407 687.928 Q291.765 687.928 294.057 691.383 Q296.366 694.82 296.366 701.383 Q296.366 707.928 294.057 711.383 Q291.765 714.82 287.407 714.82 Q283.05 714.82 280.741 711.383 Q278.449 707.928 278.449 701.383 Q278.449 694.82 280.741 691.383 Q283.05 687.928 287.407 687.928 Z" fill="#4c4c4c" fill-rule="evenodd" fill-opacity="1" /><path clip-path="url(#clip370)" d="M193.675 502.438 L215.932 502.438 L215.932 505.39 L193.675 505.39 L193.675 502.438 Z" fill="#4c4c4c" fill-rule="evenodd" fill-opacity="1" /><path clip-path="url(#clip370)" d="M224.109 512.108 L229.838 512.108 L229.838 492.334 L223.606 493.584 L223.606 490.39 L229.804 489.14 L233.31 489.14 L233.31 512.108 L239.04 512.108 L239.04 515.06 L224.109 515.06 L224.109 512.108 Z" fill="#4c4c4c" fill-rule="evenodd" fill-opacity="1" /><path clip-path="url(#clip370)" d="M253.623 491.449 Q250.915 491.449 249.543 494.122 Q248.189 496.779 248.189 502.126 Q248.189 507.456 249.543 510.129 Q250.915 512.785 253.623 512.785 Q256.349 512.785 257.703 510.129 Q259.074 507.456 259.074 502.126 Q259.074 496.779 257.703 494.122 Q256.349 491.449 253.623 491.449 M253.623 488.671 Q257.98 488.671 260.272 492.126 Q262.581 495.563 262.581 502.126 Q262.581 508.671 260.272 512.126 Q257.98 515.563 253.623 515.563 Q249.265 515.563 246.956 512.126 Q244.665 508.671 244.665 502.126 Q244.665 495.563 246.956 492.126 Q249.265 488.671 253.623 488.671 Z" fill="#4c4c4c" fill-rule="evenodd" fill-opacity="1" /><path clip-path="url(#clip370)" d="M268.744 510.65 L272.407 510.65 L272.407 515.06 L268.744 515.06 L268.744 510.65 Z" fill="#4c4c4c" fill-rule="evenodd" fill-opacity="1" /><path clip-path="url(#clip370)" d="M280.15 514.522 L280.15 511.327 Q281.47 511.952 282.824 512.282 Q284.178 512.612 285.48 512.612 Q288.953 512.612 290.775 510.286 Q292.616 507.942 292.876 503.185 Q291.869 504.678 290.324 505.477 Q288.779 506.275 286.904 506.275 Q283.015 506.275 280.741 503.931 Q278.484 501.57 278.484 497.49 Q278.484 493.497 280.845 491.084 Q283.206 488.671 287.13 488.671 Q291.626 488.671 293.987 492.126 Q296.366 495.563 296.366 502.126 Q296.366 508.254 293.449 511.917 Q290.55 515.563 285.637 515.563 Q284.317 515.563 282.963 515.303 Q281.609 515.042 280.15 514.522 M287.13 503.532 Q289.491 503.532 290.862 501.917 Q292.251 500.303 292.251 497.49 Q292.251 494.695 290.862 493.081 Q289.491 491.449 287.13 491.449 Q284.769 491.449 283.38 493.081 Q282.008 494.695 282.008 497.49 Q282.008 500.303 283.38 501.917 Q284.769 503.532 287.13 503.532 Z" fill="#4c4c4c" fill-rule="evenodd" fill-opacity="1" /><path clip-path="url(#clip370)" d="M193.606 303.181 L215.863 303.181 L215.863 306.133 L193.606 306.133 L193.606 303.181 Z" fill="#4c4c4c" fill-rule="evenodd" fill-opacity="1" /><path clip-path="url(#clip370)" d="M224.04 312.851 L229.769 312.851 L229.769 293.077 L223.536 294.327 L223.536 291.133 L229.734 289.883 L233.241 289.883 L233.241 312.851 L238.97 312.851 L238.97 315.803 L224.04 315.803 L224.04 312.851 Z" fill="#4c4c4c" fill-rule="evenodd" fill-opacity="1" /><path clip-path="url(#clip370)" d="M253.553 292.192 Q250.845 292.192 249.474 294.865 Q248.119 297.522 248.119 302.869 Q248.119 308.199 249.474 310.872 Q250.845 313.528 253.553 313.528 Q256.279 313.528 257.633 310.872 Q259.005 308.199 259.005 302.869 Q259.005 297.522 257.633 294.865 Q256.279 292.192 253.553 292.192 M253.553 289.414 Q257.911 289.414 260.203 292.869 Q262.512 296.306 262.512 302.869 Q262.512 309.414 260.203 312.869 Q257.911 316.306 253.553 316.306 Q249.196 316.306 246.887 312.869 Q244.595 309.414 244.595 302.869 Q244.595 296.306 246.887 292.869 Q249.196 289.414 253.553 289.414 Z" fill="#4c4c4c" fill-rule="evenodd" fill-opacity="1" /><path clip-path="url(#clip370)" d="M268.675 311.393 L272.338 311.393 L272.338 315.803 L268.675 315.803 L268.675 311.393 Z" fill="#4c4c4c" fill-rule="evenodd" fill-opacity="1" /><path clip-path="url(#clip370)" d="M287.477 303.494 Q284.977 303.494 283.536 304.831 Q282.112 306.167 282.112 308.511 Q282.112 310.855 283.536 312.192 Q284.977 313.528 287.477 313.528 Q289.977 313.528 291.418 312.192 Q292.859 310.837 292.859 308.511 Q292.859 306.167 291.418 304.831 Q289.994 303.494 287.477 303.494 M283.97 302.001 Q281.713 301.445 280.446 299.9 Q279.196 298.355 279.196 296.133 Q279.196 293.025 281.4 291.219 Q283.623 289.414 287.477 289.414 Q291.348 289.414 293.553 291.219 Q295.758 293.025 295.758 296.133 Q295.758 298.355 294.491 299.9 Q293.241 301.445 291.001 302.001 Q293.536 302.591 294.942 304.31 Q296.366 306.028 296.366 308.511 Q296.366 312.278 294.057 314.292 Q291.765 316.306 287.477 316.306 Q283.189 316.306 280.88 314.292 Q278.588 312.278 278.588 308.511 Q278.588 306.028 280.012 304.31 Q281.435 302.591 283.97 302.001 M282.685 296.462 Q282.685 298.476 283.935 299.605 Q285.203 300.733 287.477 300.733 Q289.734 300.733 291.001 299.605 Q292.286 298.476 292.286 296.462 Q292.286 294.449 291.001 293.32 Q289.734 292.192 287.477 292.192 Q285.203 292.192 283.935 293.32 Q282.685 294.449 282.685 296.462 Z" fill="#4c4c4c" fill-rule="evenodd" fill-opacity="1" /><path clip-path="url(#clip370)" d="M130.608 973.882 L130.608 944.646 L134.544 944.646 L134.544 956.915 L165.168 956.915 L165.168 961.614 L134.544 961.614 L134.544 973.882 L130.608 973.882 Z" fill="#000000" fill-rule="evenodd" fill-opacity="1" /><path clip-path="url(#clip370)" d="M151.141 926.198 L153.224 926.198 L153.224 945.781 Q157.622 945.503 159.937 943.142 Q162.229 940.758 162.229 936.522 Q162.229 934.068 161.627 931.776 Q161.025 929.461 159.821 927.193 L163.849 927.193 Q164.821 929.485 165.33 931.892 Q165.84 934.299 165.84 936.776 Q165.84 942.98 162.229 946.614 Q158.617 950.225 152.46 950.225 Q146.094 950.225 142.368 946.799 Q138.618 943.35 138.618 937.517 Q138.618 932.285 141.997 929.253 Q145.354 926.198 151.141 926.198 M149.891 930.457 Q146.395 930.503 144.312 932.424 Q142.229 934.322 142.229 937.471 Q142.229 941.035 144.243 943.188 Q146.256 945.318 149.914 945.642 L149.891 930.457 Z" fill="#000000" fill-rule="evenodd" fill-opacity="1" /><path clip-path="url(#clip370)" d="M140.006 902.679 L144.034 902.679 Q143.108 904.485 142.645 906.429 Q142.182 908.374 142.182 910.457 Q142.182 913.628 143.155 915.225 Q144.127 916.799 146.071 916.799 Q147.553 916.799 148.409 915.665 Q149.243 914.531 150.006 911.105 L150.33 909.647 Q151.303 905.11 153.085 903.212 Q154.844 901.29 158.016 901.29 Q161.627 901.29 163.733 904.161 Q165.84 907.008 165.84 912.008 Q165.84 914.091 165.423 916.36 Q165.029 918.605 164.219 921.105 L159.821 921.105 Q161.048 918.744 161.673 916.452 Q162.275 914.161 162.275 911.915 Q162.275 908.906 161.256 907.286 Q160.215 905.665 158.34 905.665 Q156.604 905.665 155.678 906.846 Q154.752 908.003 153.895 911.961 L153.548 913.443 Q152.715 917.401 151.002 919.161 Q149.266 920.92 146.256 920.92 Q142.599 920.92 140.608 918.327 Q138.618 915.735 138.618 910.966 Q138.618 908.605 138.965 906.522 Q139.312 904.438 140.006 902.679 Z" fill="#000000" fill-rule="evenodd" fill-opacity="1" /><path clip-path="url(#clip370)" d="M131.882 890.295 L139.243 890.295 L139.243 881.522 L142.553 881.522 L142.553 890.295 L156.627 890.295 Q159.798 890.295 160.701 889.438 Q161.604 888.559 161.604 885.897 L161.604 881.522 L165.168 881.522 L165.168 885.897 Q165.168 890.827 163.34 892.702 Q161.488 894.577 156.627 894.577 L142.553 894.577 L142.553 897.702 L139.243 897.702 L139.243 894.577 L131.882 894.577 L131.882 890.295 Z" fill="#000000" fill-rule="evenodd" fill-opacity="1" /><path clip-path="url(#clip370)" d="M129.15 860.851 L129.15 856.591 L165.168 856.591 L165.168 860.851 L129.15 860.851 Z" fill="#000000" fill-rule="evenodd" fill-opacity="1" /><path clip-path="url(#clip370)" d="M142.229 837.633 Q142.229 841.059 144.914 843.05 Q147.576 845.041 152.229 845.041 Q156.881 845.041 159.567 843.073 Q162.229 841.082 162.229 837.633 Q162.229 834.23 159.543 832.24 Q156.858 830.249 152.229 830.249 Q147.622 830.249 144.937 832.24 Q142.229 834.23 142.229 837.633 M138.618 837.633 Q138.618 832.078 142.229 828.906 Q145.84 825.735 152.229 825.735 Q158.594 825.735 162.229 828.906 Q165.84 832.078 165.84 837.633 Q165.84 843.212 162.229 846.383 Q158.594 849.531 152.229 849.531 Q145.84 849.531 142.229 846.383 Q138.618 843.212 138.618 837.633 Z" fill="#000000" fill-rule="evenodd" fill-opacity="1" /><path clip-path="url(#clip370)" d="M151.905 801.615 Q147.275 801.615 144.729 803.536 Q142.182 805.434 142.182 808.883 Q142.182 812.309 144.729 814.231 Q147.275 816.129 151.905 816.129 Q156.511 816.129 159.057 814.231 Q161.604 812.309 161.604 808.883 Q161.604 805.434 159.057 803.536 Q156.511 801.615 151.905 801.615 M161.951 797.356 Q168.571 797.356 171.789 800.295 Q175.029 803.235 175.029 809.3 Q175.029 811.545 174.682 813.536 Q174.358 815.527 173.664 817.402 L169.52 817.402 Q170.539 815.527 171.025 813.698 Q171.511 811.869 171.511 809.971 Q171.511 805.781 169.312 803.698 Q167.136 801.615 162.715 801.615 L160.608 801.615 Q162.9 802.934 164.034 804.994 Q165.168 807.055 165.168 809.925 Q165.168 814.693 161.534 817.61 Q157.9 820.527 151.905 820.527 Q145.886 820.527 142.252 817.61 Q138.618 814.693 138.618 809.925 Q138.618 807.055 139.752 804.994 Q140.886 802.934 143.178 801.615 L139.243 801.615 L139.243 797.356 L161.951 797.356 Z" fill="#000000" fill-rule="evenodd" fill-opacity="1" /><path clip-path="url(#clip370)" d="M150.284 790.735 L150.284 778.258 L154.08 778.258 L154.08 790.735 L150.284 790.735 Z" fill="#000000" fill-rule="evenodd" fill-opacity="1" /><path clip-path="url(#clip370)" d="M129.15 771.476 L129.15 767.217 L165.168 767.217 L165.168 771.476 L129.15 771.476 Z" fill="#000000" fill-rule="evenodd" fill-opacity="1" /><path clip-path="url(#clip370)" d="M139.243 758.305 L139.243 754.046 L165.168 754.046 L165.168 758.305 L139.243 758.305 M129.15 758.305 L129.15 754.046 L134.544 754.046 L134.544 758.305 L129.15 758.305 Z" fill="#000000" fill-rule="evenodd" fill-opacity="1" /><path clip-path="url(#clip370)" d="M129.15 745.296 L129.15 741.013 L150.423 741.013 L139.243 728.305 L139.243 722.865 L151.372 736.615 L165.168 722.287 L165.168 727.842 L152.506 741.013 L165.168 741.013 L165.168 745.296 L129.15 745.296 Z" fill="#000000" fill-rule="evenodd" fill-opacity="1" /><path clip-path="url(#clip370)" d="M151.141 697.194 L153.224 697.194 L153.224 716.777 Q157.622 716.5 159.937 714.138 Q162.229 711.754 162.229 707.518 Q162.229 705.064 161.627 702.773 Q161.025 700.458 159.821 698.189 L163.849 698.189 Q164.821 700.481 165.33 702.889 Q165.84 705.296 165.84 707.773 Q165.84 713.976 162.229 717.611 Q158.617 721.222 152.46 721.222 Q146.094 721.222 142.368 717.796 Q138.618 714.347 138.618 708.513 Q138.618 703.282 141.997 700.25 Q145.354 697.194 151.141 697.194 M149.891 701.453 Q146.395 701.5 144.312 703.421 Q142.229 705.319 142.229 708.467 Q142.229 712.032 144.243 714.185 Q146.256 716.314 149.914 716.638 L149.891 701.453 Z" fill="#000000" fill-rule="evenodd" fill-opacity="1" /><path clip-path="url(#clip370)" d="M129.15 690.203 L129.15 685.944 L165.168 685.944 L165.168 690.203 L129.15 690.203 Z" fill="#000000" fill-rule="evenodd" fill-opacity="1" /><path clip-path="url(#clip370)" d="M139.243 677.032 L139.243 672.773 L165.168 672.773 L165.168 677.032 L139.243 677.032 M129.15 677.032 L129.15 672.773 L134.544 672.773 L134.544 677.032 L129.15 677.032 Z" fill="#000000" fill-rule="evenodd" fill-opacity="1" /><path clip-path="url(#clip370)" d="M149.52 642.31 L165.168 642.31 L165.168 646.569 L149.659 646.569 Q145.979 646.569 144.15 648.005 Q142.321 649.44 142.321 652.31 Q142.321 655.759 144.52 657.75 Q146.719 659.741 150.516 659.741 L165.168 659.741 L165.168 664.023 L129.15 664.023 L129.15 659.741 L143.27 659.741 Q140.932 658.213 139.775 656.153 Q138.618 654.069 138.618 651.361 Q138.618 646.893 141.395 644.602 Q144.15 642.31 149.52 642.31 Z" fill="#000000" fill-rule="evenodd" fill-opacity="1" /><path clip-path="url(#clip370)" d="M142.229 623.769 Q142.229 627.194 144.914 629.185 Q147.576 631.176 152.229 631.176 Q156.881 631.176 159.567 629.208 Q162.229 627.218 162.229 623.769 Q162.229 620.366 159.543 618.375 Q156.858 616.384 152.229 616.384 Q147.622 616.384 144.937 618.375 Q142.229 620.366 142.229 623.769 M138.618 623.769 Q138.618 618.213 142.229 615.042 Q145.84 611.87 152.229 611.87 Q158.594 611.87 162.229 615.042 Q165.84 618.213 165.84 623.769 Q165.84 629.347 162.229 632.519 Q158.594 635.667 152.229 635.667 Q145.84 635.667 142.229 632.519 Q138.618 629.347 138.618 623.769 Z" fill="#000000" fill-rule="evenodd" fill-opacity="1" /><path clip-path="url(#clip370)" d="M142.229 594.764 Q142.229 598.19 144.914 600.181 Q147.576 602.171 152.229 602.171 Q156.881 602.171 159.567 600.204 Q162.229 598.213 162.229 594.764 Q162.229 591.361 159.543 589.371 Q156.858 587.38 152.229 587.38 Q147.622 587.38 144.937 589.371 Q142.229 591.361 142.229 594.764 M138.618 594.764 Q138.618 589.209 142.229 586.037 Q145.84 582.866 152.229 582.866 Q158.594 582.866 162.229 586.037 Q165.84 589.209 165.84 594.764 Q165.84 600.343 162.229 603.514 Q158.594 606.662 152.229 606.662 Q145.84 606.662 142.229 603.514 Q138.618 600.343 138.618 594.764 Z" fill="#000000" fill-rule="evenodd" fill-opacity="1" /><path clip-path="url(#clip370)" d="M143.178 558.746 L129.15 558.746 L129.15 554.487 L165.168 554.487 L165.168 558.746 L161.28 558.746 Q163.594 560.088 164.729 562.149 Q165.84 564.186 165.84 567.056 Q165.84 571.755 162.09 574.718 Q158.34 577.658 152.229 577.658 Q146.118 577.658 142.368 574.718 Q138.618 571.755 138.618 567.056 Q138.618 564.186 139.752 562.149 Q140.863 560.088 143.178 558.746 M152.229 573.26 Q156.928 573.26 159.613 571.338 Q162.275 569.394 162.275 566.014 Q162.275 562.635 159.613 560.69 Q156.928 558.746 152.229 558.746 Q147.53 558.746 144.868 560.69 Q142.182 562.635 142.182 566.014 Q142.182 569.394 144.868 571.338 Q147.53 573.26 152.229 573.26 Z" fill="#000000" fill-rule="evenodd" fill-opacity="1" /><path clip-path="url(#clip370)" d="M1300.01 24.4096 Q1299.12 23.8888 1298.05 23.6573 Q1297 23.3969 1295.73 23.3969 Q1291.22 23.3969 1288.79 26.3482 Q1286.38 29.2707 1286.38 34.7683 L1286.38 51.84 L1281.03 51.84 L1281.03 19.4328 L1286.38 19.4328 L1286.38 24.4675 Q1288.06 21.5161 1290.75 20.0983 Q1293.44 18.6515 1297.29 18.6515 Q1297.84 18.6515 1298.51 18.7383 Q1299.17 18.7962 1299.98 18.9409 L1300.01 24.4096 Z" fill="#000000" fill-rule="evenodd" fill-opacity="1" /><path clip-path="url(#clip370)" d="M1332.02 34.3054 L1332.02 36.9095 L1307.54 36.9095 Q1307.88 42.4072 1310.83 45.3007 Q1313.82 48.1653 1319.11 48.1653 Q1322.18 48.1653 1325.04 47.4129 Q1327.94 46.6606 1330.77 45.156 L1330.77 50.1907 Q1327.91 51.406 1324.9 52.0425 Q1321.89 52.6791 1318.79 52.6791 Q1311.04 52.6791 1306.49 48.1653 Q1301.98 43.6514 1301.98 35.9547 Q1301.98 27.9975 1306.26 23.339 Q1310.57 18.6515 1317.87 18.6515 Q1324.41 18.6515 1328.2 22.876 Q1332.02 27.0716 1332.02 34.3054 M1326.69 32.7429 Q1326.63 28.3737 1324.23 25.7695 Q1321.86 23.1654 1317.92 23.1654 Q1313.47 23.1654 1310.78 25.6827 Q1308.11 28.2001 1307.71 32.7718 L1326.69 32.7429 Z" fill="#000000" fill-rule="evenodd" fill-opacity="1" /><path clip-path="url(#clip370)" d="M1346.02 10.2314 L1346.02 19.4328 L1356.99 19.4328 L1356.99 23.5705 L1346.02 23.5705 L1346.02 41.163 Q1346.02 45.1271 1347.09 46.2555 Q1348.19 47.384 1351.52 47.384 L1356.99 47.384 L1356.99 51.84 L1351.52 51.84 Q1345.35 51.84 1343.01 49.5541 Q1340.67 47.2393 1340.67 41.163 L1340.67 23.5705 L1336.76 23.5705 L1336.76 19.4328 L1340.67 19.4328 L1340.67 10.2314 L1346.02 10.2314 Z" fill="#000000" fill-rule="evenodd" fill-opacity="1" /><path clip-path="url(#clip370)" d="M1378.72 35.5496 Q1372.26 35.5496 1369.78 37.0253 Q1367.29 38.501 1367.29 42.06 Q1367.29 44.8956 1369.14 46.5738 Q1371.02 48.2231 1374.23 48.2231 Q1378.66 48.2231 1381.32 45.0981 Q1384.01 41.9442 1384.01 36.7359 L1384.01 35.5496 L1378.72 35.5496 M1389.34 33.3505 L1389.34 51.84 L1384.01 51.84 L1384.01 46.921 Q1382.19 49.8724 1379.47 51.2902 Q1376.75 52.6791 1372.81 52.6791 Q1367.84 52.6791 1364.89 49.9014 Q1361.96 47.0947 1361.96 42.4072 Q1361.96 36.9385 1365.61 34.1607 Q1369.28 31.3829 1376.55 31.3829 L1384.01 31.3829 L1384.01 30.8621 Q1384.01 27.1874 1381.58 25.1908 Q1379.18 23.1654 1374.81 23.1654 Q1372.03 23.1654 1369.4 23.8309 Q1366.77 24.4964 1364.34 25.8274 L1364.34 20.9085 Q1367.26 19.78 1370.01 19.2302 Q1372.76 18.6515 1375.36 18.6515 Q1382.39 18.6515 1385.86 22.2973 Q1389.34 25.9431 1389.34 33.3505 Z" fill="#000000" fill-rule="evenodd" fill-opacity="1" /><path clip-path="url(#clip370)" d="M1400.3 19.4328 L1405.63 19.4328 L1405.63 51.84 L1400.3 51.84 L1400.3 19.4328 M1400.3 6.81709 L1405.63 6.81709 L1405.63 13.559 L1400.3 13.559 L1400.3 6.81709 Z" fill="#000000" fill-rule="evenodd" fill-opacity="1" /><path clip-path="url(#clip370)" d="M1416.77 6.81709 L1422.09 6.81709 L1422.09 51.84 L1416.77 51.84 L1416.77 6.81709 Z" fill="#000000" fill-rule="evenodd" fill-opacity="1" /><polyline clip-path="url(#clip372)" style="stroke:#e26f46; stroke-linecap:butt; stroke-linejoin:round; stroke-width:8; stroke-opacity:1; fill:none" points="
  436.099,781.06 465.162,781.06 494.224,781.06 523.286,781.06 552.348,781.06 581.411,781.06 610.473,781.06 639.535,781.06 668.598,781.06 697.66,781.06 
  726.722,781.06 755.784,781.06 784.847,781.06 813.909,781.06 842.971,781.06 872.033,781.06 901.096,781.06 930.158,781.06 959.22,781.06 988.282,781.06 
  1017.34,781.06 1046.41,781.06 1075.47,781.06 1104.53,781.06 1133.59,781.06 1162.66,781.06 1191.72,781.06 1220.78,781.06 1249.84,781.06 1278.91,781.06 
  1307.97,781.06 1337.03,781.06 1366.09,781.06 1395.15,781.06 1424.22,781.06 1453.28,781.06 1482.34,781.06 1511.4,781.06 1540.47,781.06 1569.53,781.06 
  1598.59,781.06 1627.65,781.06 1656.71,781.06 1685.78,781.06 1714.84,781.06 1743.9,781.06 1772.96,781.06 1802.03,781.06 1831.09,781.06 1860.15,781.06 
  1889.21,781.06 1918.28,781.06 1947.34,781.06 1976.4,781.06 2005.46,781.06 2034.52,781.06 2063.59,781.06 2092.65,781.06 2121.71,781.06 2150.77,781.06 
  2179.84,781.06 2208.9,781.06 2237.96,781.06 2267.02,781.06 2296.08,781.06 
  "/>
<polyline clip-path="url(#clip372)" style="stroke:#3da44d; stroke-linecap:butt; stroke-linejoin:round; stroke-width:8; stroke-opacity:1; fill:none" points="
  436.099,322.768 465.162,322.768 494.224,322.768 523.286,322.768 552.348,322.768 581.411,322.768 610.473,322.768 639.535,322.768 668.598,322.768 697.66,322.768 
  726.722,322.768 755.784,322.768 784.847,322.768 813.909,322.768 842.971,322.768 872.033,322.768 901.096,322.768 930.158,322.768 959.22,322.768 988.282,322.768 
  1017.34,322.768 1046.41,322.768 1075.47,322.768 1104.53,322.768 1133.59,322.768 1162.66,322.768 1191.72,322.768 1220.78,322.768 1249.84,322.768 1278.91,322.768 
  1307.97,322.768 1337.03,322.768 1366.09,322.768 1395.15,322.768 1424.22,322.768 1453.28,322.768 1482.34,322.768 1511.4,322.768 1540.47,322.768 1569.53,322.768 
  1598.59,322.768 1627.65,322.768 1656.71,322.768 1685.78,322.768 1714.84,322.768 1743.9,322.768 1772.96,322.768 1802.03,322.768 1831.09,322.768 1860.15,322.768 
  1889.21,322.768 1918.28,322.768 1947.34,322.768 1976.4,322.768 2005.46,322.768 2034.52,322.768 2063.59,322.768 2092.65,322.768 2121.71,322.768 2150.77,322.768 
  2179.84,322.768 2208.9,322.768 2237.96,322.768 2267.02,322.768 2296.08,322.768 
  "/>
<polyline clip-path="url(#clip372)" style="stroke:#c271d2; stroke-linecap:butt; stroke-linejoin:round; stroke-width:8; stroke-opacity:1; fill:none" points="
  436.099,143.437 465.162,143.437 494.224,143.437 523.286,143.437 552.348,143.437 581.411,143.437 610.473,143.437 639.535,143.437 668.598,143.437 697.66,143.437 
  726.722,143.437 755.784,143.437 784.847,143.437 813.909,143.437 842.971,143.437 872.033,143.437 901.096,143.437 930.158,143.437 959.22,143.437 988.282,143.437 
  1017.34,143.437 1046.41,143.437 1075.47,143.437 1104.53,143.437 1133.59,143.437 1162.66,143.437 1191.72,143.437 1220.78,143.437 1249.84,143.437 1278.91,143.437 
  1307.97,143.437 1337.03,143.437 1366.09,143.437 1395.15,143.437 1424.22,143.437 1453.28,143.437 1482.34,143.437 1511.4,143.437 1540.47,143.437 1569.53,143.437 
  1598.59,143.437 1627.65,143.437 1656.71,143.437 1685.78,143.437 1714.84,143.437 1743.9,143.437 1772.96,143.437 1802.03,143.437 1831.09,143.437 1860.15,143.437 
  1889.21,143.437 1918.28,143.437 1947.34,143.437 1976.4,143.437 2005.46,143.437 2034.52,143.437 2063.59,143.437 2092.65,143.437 2121.71,143.437 2150.77,143.437 
  2179.84,143.437 2208.9,143.437 2237.96,143.437 2267.02,143.437 2296.08,143.437 
  "/>
<polyline clip-path="url(#clip372)" style="stroke:#ac8d18; stroke-linecap:butt; stroke-linejoin:round; stroke-width:8; stroke-opacity:1; fill:none" points="
  436.099,581.803 465.162,581.803 494.224,581.803 523.286,581.803 552.348,581.803 581.411,581.803 610.473,581.803 639.535,581.803 668.598,581.803 697.66,581.803 
  726.722,581.803 755.784,581.803 784.847,581.803 813.909,581.803 842.971,581.803 872.033,581.803 901.096,581.803 930.158,581.803 959.22,581.803 988.282,581.803 
  1017.34,581.803 1046.41,581.803 1075.47,581.803 1104.53,581.803 1133.59,581.803 1162.66,581.803 1191.72,581.803 1220.78,581.803 1249.84,581.803 1278.91,581.803 
  1307.97,581.803 1337.03,581.803 1366.09,581.803 1395.15,581.803 1424.22,581.803 1453.28,581.803 1482.34,581.803 1511.4,581.803 1540.47,581.803 1569.53,581.803 
  1598.59,581.803 1627.65,581.803 1656.71,581.803 1685.78,581.803 1714.84,581.803 1743.9,581.803 1772.96,581.803 1802.03,581.803 1831.09,581.803 1860.15,581.803 
  1889.21,581.803 1918.28,581.803 1947.34,581.803 1976.4,581.803 2005.46,581.803 2034.52,581.803 2063.59,581.803 2092.65,581.803 2121.71,581.803 2150.77,581.803 
  2179.84,581.803 2208.9,581.803 2237.96,581.803 2267.02,581.803 2296.08,581.803 
  "/>
<polyline clip-path="url(#clip372)" style="stroke:#00a9ad; stroke-linecap:butt; stroke-linejoin:round; stroke-width:8; stroke-opacity:1; fill:none" points="
  436.099,442.323 465.162,442.323 494.224,442.323 523.286,442.323 552.348,442.323 581.411,442.323 610.473,442.323 639.535,442.323 668.598,442.323 697.66,442.323 
  726.722,442.323 755.784,442.323 784.847,442.323 813.909,442.323 842.971,442.323 872.033,442.323 901.096,442.323 930.158,442.323 959.22,442.323 988.282,442.323 
  1017.34,442.323 1046.41,442.323 1075.47,442.323 1104.53,442.323 1133.59,442.323 1162.66,442.323 1191.72,442.323 1220.78,442.323 1249.84,442.323 1278.91,442.323 
  1307.97,442.323 1337.03,442.323 1366.09,442.323 1395.15,442.323 1424.22,442.323 1453.28,442.323 1482.34,442.323 1511.4,442.323 1540.47,442.323 1569.53,442.323 
  1598.59,442.323 1627.65,442.323 1656.71,442.323 1685.78,442.323 1714.84,442.323 1743.9,442.323 1772.96,442.323 1802.03,442.323 1831.09,442.323 1860.15,442.323 
  1889.21,442.323 1918.28,442.323 1947.34,442.323 1976.4,442.323 2005.46,442.323 2034.52,442.323 2063.59,442.323 2092.65,442.323 2121.71,442.323 2150.77,442.323 
  2179.84,442.323 2208.9,442.323 2237.96,442.323 2267.02,442.323 2296.08,442.323 
  "/>
<polyline clip-path="url(#clip372)" style="stroke:#009af9; stroke-linecap:butt; stroke-linejoin:round; stroke-width:12; stroke-opacity:1; fill:none" points="
  436.099,1384.93 465.162,1150.51 494.224,1006 523.286,952.626 552.348,891.294 581.411,848.381 610.473,798.109 639.535,772.542 668.598,772.749 697.66,718.126 
  726.722,733.721 755.784,723.458 784.847,691.99 813.909,700.85 842.971,682.775 872.033,671.475 901.096,673.053 930.158,669.51 959.22,649.64 988.282,654.728 
  1017.34,623.311 1046.41,611.856 1075.47,750.944 1104.53,627.611 1133.59,630.451 1162.66,618.709 1191.72,603.454 1220.78,591.093 1249.84,602.007 1278.91,598.816 
  1307.97,600.817 1337.03,595.798 1366.09,588.196 1395.15,588.999 1424.22,583.275 1453.28,576.959 1482.34,569.885 1511.4,561.683 1540.47,565.367 1569.53,563.516 
  1598.59,560.285 1627.65,559.832 1656.71,563.25 1685.78,560.072 1714.84,598.472 1743.9,590.031 1772.96,578.85 1802.03,573.085 1831.09,569.942 1860.15,568.878 
  
  "/>
<polyline clip-path="url(#clip372)" style="stroke:#f05f73; stroke-linecap:butt; stroke-linejoin:round; stroke-width:12; stroke-opacity:1; fill:none" points="
  1860.15,568.878 1889.21,543.321 1918.28,541.845 1947.34,540.36 1976.4,538.86 2005.46,537.456 2034.52,536.057 2063.59,534.653 2092.65,532.819 2121.71,530.633 
  2150.77,528.807 2179.84,527.117 2208.9,525.436 2237.96,523.754 2267.02,522.092 2296.08,520.478 
  "/>
</svg>
