<?xml version="1.0" encoding="utf-8"?>
<svg xmlns="http://www.w3.org/2000/svg" xmlns:xlink="http://www.w3.org/1999/xlink" width="600" height="400" viewBox="0 0 2400 1600">
<defs>
  <clipPath id="clip010">
    <rect x="0" y="0" width="2400" height="1600"/>
  </clipPath>
</defs>
<path clip-path="url(#clip010)" d="
M0 1600 L2400 1600 L2400 0 L0 0  Z
  " fill="#ffffff" fill-rule="evenodd" fill-opacity="1"/>
<defs>
  <clipPath id="clip011">
    <rect x="480" y="0" width="1681" height="1600"/>
  </clipPath>
</defs>
<path clip-path="url(#clip010)" d="
M316.564 1422.18 L2352.76 1422.18 L2352.76 106.192 L316.564 106.192  Z
  " fill="#eaeaea" fill-rule="evenodd" fill-opacity="1"/>
<defs>
  <clipPath id="clip012">
    <rect x="316" y="106" width="2037" height="1317"/>
  </clipPath>
</defs>
<polyline clip-path="url(#clip012)" style="stroke:#ffffff; stroke-linecap:butt; stroke-linejoin:round; stroke-width:4; stroke-opacity:1; fill:none" points="
  374.192,1422.18 374.192,106.192 
  "/>
<polyline clip-path="url(#clip012)" style="stroke:#ffffff; stroke-linecap:butt; stroke-linejoin:round; stroke-width:4; stroke-opacity:1; fill:none" points="
  521.956,1422.18 521.956,106.192 
  "/>
<polyline clip-path="url(#clip012)" style="stroke:#ffffff; stroke-linecap:butt; stroke-linejoin:round; stroke-width:4; stroke-opacity:1; fill:none" points="
  669.72,1422.18 669.72,106.192 
  "/>
<polyline clip-path="url(#clip012)" style="stroke:#ffffff; stroke-linecap:butt; stroke-linejoin:round; stroke-width:4; stroke-opacity:1; fill:none" points="
  817.485,1422.18 817.485,106.192 
  "/>
<polyline clip-path="url(#clip012)" style="stroke:#ffffff; stroke-linecap:butt; stroke-linejoin:round; stroke-width:4; stroke-opacity:1; fill:none" points="
  965.249,1422.18 965.249,106.192 
  "/>
<polyline clip-path="url(#clip012)" style="stroke:#ffffff; stroke-linecap:butt; stroke-linejoin:round; stroke-width:4; stroke-opacity:1; fill:none" points="
  1113.01,1422.18 1113.01,106.192 
  "/>
<polyline clip-path="url(#clip012)" style="stroke:#ffffff; stroke-linecap:butt; stroke-linejoin:round; stroke-width:4; stroke-opacity:1; fill:none" points="
  1260.78,1422.18 1260.78,106.192 
  "/>
<polyline clip-path="url(#clip012)" style="stroke:#ffffff; stroke-linecap:butt; stroke-linejoin:round; stroke-width:4; stroke-opacity:1; fill:none" points="
  1408.54,1422.18 1408.54,106.192 
  "/>
<polyline clip-path="url(#clip012)" style="stroke:#ffffff; stroke-linecap:butt; stroke-linejoin:round; stroke-width:4; stroke-opacity:1; fill:none" points="
  1556.31,1422.18 1556.31,106.192 
  "/>
<polyline clip-path="url(#clip012)" style="stroke:#ffffff; stroke-linecap:butt; stroke-linejoin:round; stroke-width:4; stroke-opacity:1; fill:none" points="
  1704.07,1422.18 1704.07,106.192 
  "/>
<polyline clip-path="url(#clip012)" style="stroke:#ffffff; stroke-linecap:butt; stroke-linejoin:round; stroke-width:4; stroke-opacity:1; fill:none" points="
  1851.83,1422.18 1851.83,106.192 
  "/>
<polyline clip-path="url(#clip012)" style="stroke:#ffffff; stroke-linecap:butt; stroke-linejoin:round; stroke-width:4; stroke-opacity:1; fill:none" points="
  1999.6,1422.18 1999.6,106.192 
  "/>
<polyline clip-path="url(#clip012)" style="stroke:#ffffff; stroke-linecap:butt; stroke-linejoin:round; stroke-width:4; stroke-opacity:1; fill:none" points="
  2147.36,1422.18 2147.36,106.192 
  "/>
<polyline clip-path="url(#clip012)" style="stroke:#ffffff; stroke-linecap:butt; stroke-linejoin:round; stroke-width:4; stroke-opacity:1; fill:none" points="
  2295.13,1422.18 2295.13,106.192 
  "/>
<polyline clip-path="url(#clip012)" style="stroke:#ffffff; stroke-linecap:butt; stroke-linejoin:round; stroke-width:2; stroke-opacity:1; fill:none" points="
  448.074,1422.18 448.074,106.192 
  "/>
<polyline clip-path="url(#clip012)" style="stroke:#ffffff; stroke-linecap:butt; stroke-linejoin:round; stroke-width:2; stroke-opacity:1; fill:none" points="
  595.838,1422.18 595.838,106.192 
  "/>
<polyline clip-path="url(#clip012)" style="stroke:#ffffff; stroke-linecap:butt; stroke-linejoin:round; stroke-width:2; stroke-opacity:1; fill:none" points="
  743.603,1422.18 743.603,106.192 
  "/>
<polyline clip-path="url(#clip012)" style="stroke:#ffffff; stroke-linecap:butt; stroke-linejoin:round; stroke-width:2; stroke-opacity:1; fill:none" points="
  891.367,1422.18 891.367,106.192 
  "/>
<polyline clip-path="url(#clip012)" style="stroke:#ffffff; stroke-linecap:butt; stroke-linejoin:round; stroke-width:2; stroke-opacity:1; fill:none" points="
  1039.13,1422.18 1039.13,106.192 
  "/>
<polyline clip-path="url(#clip012)" style="stroke:#ffffff; stroke-linecap:butt; stroke-linejoin:round; stroke-width:2; stroke-opacity:1; fill:none" points="
  1186.9,1422.18 1186.9,106.192 
  "/>
<polyline clip-path="url(#clip012)" style="stroke:#ffffff; stroke-linecap:butt; stroke-linejoin:round; stroke-width:2; stroke-opacity:1; fill:none" points="
  1334.66,1422.18 1334.66,106.192 
  "/>
<polyline clip-path="url(#clip012)" style="stroke:#ffffff; stroke-linecap:butt; stroke-linejoin:round; stroke-width:2; stroke-opacity:1; fill:none" points="
  1482.42,1422.18 1482.42,106.192 
  "/>
<polyline clip-path="url(#clip012)" style="stroke:#ffffff; stroke-linecap:butt; stroke-linejoin:round; stroke-width:2; stroke-opacity:1; fill:none" points="
  1630.19,1422.18 1630.19,106.192 
  "/>
<polyline clip-path="url(#clip012)" style="stroke:#ffffff; stroke-linecap:butt; stroke-linejoin:round; stroke-width:2; stroke-opacity:1; fill:none" points="
  1777.95,1422.18 1777.95,106.192 
  "/>
<polyline clip-path="url(#clip012)" style="stroke:#ffffff; stroke-linecap:butt; stroke-linejoin:round; stroke-width:2; stroke-opacity:1; fill:none" points="
  1925.72,1422.18 1925.72,106.192 
  "/>
<polyline clip-path="url(#clip012)" style="stroke:#ffffff; stroke-linecap:butt; stroke-linejoin:round; stroke-width:2; stroke-opacity:1; fill:none" points="
  2073.48,1422.18 2073.48,106.192 
  "/>
<polyline clip-path="url(#clip012)" style="stroke:#ffffff; stroke-linecap:butt; stroke-linejoin:round; stroke-width:2; stroke-opacity:1; fill:none" points="
  2221.25,1422.18 2221.25,106.192 
  "/>
<polyline clip-path="url(#clip010)" style="stroke:#ffffff; stroke-linecap:butt; stroke-linejoin:round; stroke-width:4; stroke-opacity:1; fill:none" points="
  316.564,1422.18 2352.76,1422.18 
  "/>
<polyline clip-path="url(#clip010)" style="stroke:#333333; stroke-linecap:butt; stroke-linejoin:round; stroke-width:4; stroke-opacity:1; fill:none" points="
  374.192,1422.18 374.192,1441.07 
  "/>
<polyline clip-path="url(#clip010)" style="stroke:#333333; stroke-linecap:butt; stroke-linejoin:round; stroke-width:4; stroke-opacity:1; fill:none" points="
  521.956,1422.18 521.956,1441.07 
  "/>
<polyline clip-path="url(#clip010)" style="stroke:#333333; stroke-linecap:butt; stroke-linejoin:round; stroke-width:4; stroke-opacity:1; fill:none" points="
  669.72,1422.18 669.72,1441.07 
  "/>
<polyline clip-path="url(#clip010)" style="stroke:#333333; stroke-linecap:butt; stroke-linejoin:round; stroke-width:4; stroke-opacity:1; fill:none" points="
  817.485,1422.18 817.485,1441.07 
  "/>
<polyline clip-path="url(#clip010)" style="stroke:#333333; stroke-linecap:butt; stroke-linejoin:round; stroke-width:4; stroke-opacity:1; fill:none" points="
  965.249,1422.18 965.249,1441.07 
  "/>
<polyline clip-path="url(#clip010)" style="stroke:#333333; stroke-linecap:butt; stroke-linejoin:round; stroke-width:4; stroke-opacity:1; fill:none" points="
  1113.01,1422.18 1113.01,1441.07 
  "/>
<polyline clip-path="url(#clip010)" style="stroke:#333333; stroke-linecap:butt; stroke-linejoin:round; stroke-width:4; stroke-opacity:1; fill:none" points="
  1260.78,1422.18 1260.78,1441.07 
  "/>
<polyline clip-path="url(#clip010)" style="stroke:#333333; stroke-linecap:butt; stroke-linejoin:round; stroke-width:4; stroke-opacity:1; fill:none" points="
  1408.54,1422.18 1408.54,1441.07 
  "/>
<polyline clip-path="url(#clip010)" style="stroke:#333333; stroke-linecap:butt; stroke-linejoin:round; stroke-width:4; stroke-opacity:1; fill:none" points="
  1556.31,1422.18 1556.31,1441.07 
  "/>
<polyline clip-path="url(#clip010)" style="stroke:#333333; stroke-linecap:butt; stroke-linejoin:round; stroke-width:4; stroke-opacity:1; fill:none" points="
  1704.07,1422.18 1704.07,1441.07 
  "/>
<polyline clip-path="url(#clip010)" style="stroke:#333333; stroke-linecap:butt; stroke-linejoin:round; stroke-width:4; stroke-opacity:1; fill:none" points="
  1851.83,1422.18 1851.83,1441.07 
  "/>
<polyline clip-path="url(#clip010)" style="stroke:#333333; stroke-linecap:butt; stroke-linejoin:round; stroke-width:4; stroke-opacity:1; fill:none" points="
  1999.6,1422.18 1999.6,1441.07 
  "/>
<polyline clip-path="url(#clip010)" style="stroke:#333333; stroke-linecap:butt; stroke-linejoin:round; stroke-width:4; stroke-opacity:1; fill:none" points="
  2147.36,1422.18 2147.36,1441.07 
  "/>
<polyline clip-path="url(#clip010)" style="stroke:#333333; stroke-linecap:butt; stroke-linejoin:round; stroke-width:4; stroke-opacity:1; fill:none" points="
  2295.13,1422.18 2295.13,1441.07 
  "/>
<polyline clip-path="url(#clip010)" style="stroke:#333333; stroke-linecap:butt; stroke-linejoin:round; stroke-width:4; stroke-opacity:1; fill:none" points="
  448.074,1422.18 448.074,1431.63 
  "/>
<polyline clip-path="url(#clip010)" style="stroke:#333333; stroke-linecap:butt; stroke-linejoin:round; stroke-width:4; stroke-opacity:1; fill:none" points="
  595.838,1422.18 595.838,1431.63 
  "/>
<polyline clip-path="url(#clip010)" style="stroke:#333333; stroke-linecap:butt; stroke-linejoin:round; stroke-width:4; stroke-opacity:1; fill:none" points="
  743.603,1422.18 743.603,1431.63 
  "/>
<polyline clip-path="url(#clip010)" style="stroke:#333333; stroke-linecap:butt; stroke-linejoin:round; stroke-width:4; stroke-opacity:1; fill:none" points="
  891.367,1422.18 891.367,1431.63 
  "/>
<polyline clip-path="url(#clip010)" style="stroke:#333333; stroke-linecap:butt; stroke-linejoin:round; stroke-width:4; stroke-opacity:1; fill:none" points="
  1039.13,1422.18 1039.13,1431.63 
  "/>
<polyline clip-path="url(#clip010)" style="stroke:#333333; stroke-linecap:butt; stroke-linejoin:round; stroke-width:4; stroke-opacity:1; fill:none" points="
  1186.9,1422.18 1186.9,1431.63 
  "/>
<polyline clip-path="url(#clip010)" style="stroke:#333333; stroke-linecap:butt; stroke-linejoin:round; stroke-width:4; stroke-opacity:1; fill:none" points="
  1334.66,1422.18 1334.66,1431.63 
  "/>
<polyline clip-path="url(#clip010)" style="stroke:#333333; stroke-linecap:butt; stroke-linejoin:round; stroke-width:4; stroke-opacity:1; fill:none" points="
  1482.42,1422.18 1482.42,1431.63 
  "/>
<polyline clip-path="url(#clip010)" style="stroke:#333333; stroke-linecap:butt; stroke-linejoin:round; stroke-width:4; stroke-opacity:1; fill:none" points="
  1630.19,1422.18 1630.19,1431.63 
  "/>
<polyline clip-path="url(#clip010)" style="stroke:#333333; stroke-linecap:butt; stroke-linejoin:round; stroke-width:4; stroke-opacity:1; fill:none" points="
  1777.95,1422.18 1777.95,1431.63 
  "/>
<polyline clip-path="url(#clip010)" style="stroke:#333333; stroke-linecap:butt; stroke-linejoin:round; stroke-width:4; stroke-opacity:1; fill:none" points="
  1925.72,1422.18 1925.72,1431.63 
  "/>
<polyline clip-path="url(#clip010)" style="stroke:#333333; stroke-linecap:butt; stroke-linejoin:round; stroke-width:4; stroke-opacity:1; fill:none" points="
  2073.48,1422.18 2073.48,1431.63 
  "/>
<polyline clip-path="url(#clip010)" style="stroke:#333333; stroke-linecap:butt; stroke-linejoin:round; stroke-width:4; stroke-opacity:1; fill:none" points="
  2221.25,1422.18 2221.25,1431.63 
  "/>
<path clip-path="url(#clip010)" d="M387.895 1463.13 Q386.541 1460.78 383.54 1460.93 Q380.562 1461.09 375.931 1463.76 Q371.316 1466.43 369.677 1468.94 Q368.063 1471.45 369.417 1473.8 Q370.78 1476.16 373.757 1476 Q376.758 1475.85 381.374 1473.19 Q386.005 1470.52 387.62 1468 Q389.258 1465.49 387.895 1463.13 M390.301 1461.74 Q392.479 1465.51 390.633 1469.23 Q388.811 1472.94 383.128 1476.23 Q377.459 1479.5 373.313 1479.23 Q369.19 1478.96 367.011 1475.19 Q364.832 1471.41 366.655 1467.69 Q368.501 1463.98 374.169 1460.71 Q379.853 1457.43 383.975 1457.69 Q388.122 1457.97 390.301 1461.74 Z" fill="#4c4c4c" fill-rule="evenodd" fill-opacity="1" /><path clip-path="url(#clip010)" d="M513.54 1466.14 L516.405 1471.1 L533.53 1461.21 L529.331 1456.44 L532.097 1454.84 L536.279 1459.58 L538.032 1462.62 L518.141 1474.11 L521.005 1479.07 L518.449 1480.54 L510.984 1467.61 L513.54 1466.14 Z" fill="#4c4c4c" fill-rule="evenodd" fill-opacity="1" /><path clip-path="url(#clip010)" d="M546.189 1481.37 Q544.835 1479.02 541.833 1479.17 Q538.856 1479.33 534.225 1482 Q529.609 1484.66 527.971 1487.17 Q526.357 1489.69 527.711 1492.04 Q529.074 1494.4 532.051 1494.24 Q535.052 1494.09 539.668 1491.43 Q544.299 1488.75 545.913 1486.24 Q547.552 1483.73 546.189 1481.37 M548.594 1479.98 Q550.773 1483.75 548.927 1487.46 Q547.105 1491.18 541.421 1494.46 Q535.753 1497.74 531.607 1497.46 Q527.484 1497.2 525.305 1493.42 Q523.126 1489.65 524.949 1485.93 Q526.795 1482.22 532.463 1478.95 Q538.146 1475.67 542.269 1475.93 Q546.416 1476.2 548.594 1479.98 Z" fill="#4c4c4c" fill-rule="evenodd" fill-opacity="1" /><path clip-path="url(#clip010)" d="M663.162 1469.35 L669.282 1479.95 L666.726 1481.43 L658.497 1467.18 L661.053 1465.7 Q663.84 1466.4 668.566 1467.64 Q673.315 1468.89 674.63 1469.15 Q677.111 1469.66 678.568 1469.58 Q680.05 1469.51 681.147 1468.87 Q682.936 1467.84 683.335 1465.93 Q683.742 1464.03 682.579 1462.01 Q681.754 1460.59 680.338 1459.28 Q678.93 1457.99 676.881 1456.76 L679.948 1454.99 Q681.744 1456.4 683.04 1457.78 Q684.336 1459.15 685.1 1460.48 Q687.114 1463.97 686.568 1467.05 Q686.022 1470.13 683.105 1471.81 Q681.722 1472.61 680.17 1472.81 Q678.642 1473.01 676.168 1472.61 Q675.515 1472.49 672.262 1471.68 Q669.024 1470.86 663.162 1469.35 Z" fill="#4c4c4c" fill-rule="evenodd" fill-opacity="1" /><path clip-path="url(#clip010)" d="M694.604 1482.49 Q693.25 1480.15 690.249 1480.3 Q687.271 1480.45 682.641 1483.13 Q678.025 1485.79 676.386 1488.3 Q674.772 1490.82 676.126 1493.16 Q677.489 1495.52 680.466 1495.37 Q683.467 1495.22 688.083 1492.55 Q692.714 1489.88 694.329 1487.36 Q695.967 1484.86 694.604 1482.49 M697.01 1481.11 Q699.189 1484.88 697.342 1488.59 Q695.52 1492.31 689.837 1495.59 Q684.168 1498.86 680.022 1498.59 Q675.899 1498.33 673.72 1494.55 Q671.542 1490.78 673.364 1487.06 Q675.21 1483.35 680.878 1480.08 Q686.562 1476.79 690.684 1477.06 Q694.831 1477.33 697.01 1481.11 Z" fill="#4c4c4c" fill-rule="evenodd" fill-opacity="1" /><path clip-path="url(#clip010)" d="M824.224 1470.34 Q825.016 1472.79 824.246 1474.86 Q823.484 1476.94 821.319 1478.19 Q817.997 1480.11 814.858 1478.87 Q811.719 1477.64 809.289 1473.43 Q808.473 1472.01 807.89 1470.35 Q807.302 1468.7 806.938 1466.79 L809.87 1465.09 Q809.862 1466.78 810.354 1468.5 Q810.846 1470.22 811.792 1471.86 Q813.442 1474.72 815.429 1475.56 Q817.424 1476.41 819.574 1475.17 Q821.559 1474.02 821.864 1471.98 Q822.193 1469.95 820.761 1467.47 L819.251 1464.85 L821.747 1463.41 L823.326 1466.14 Q824.62 1468.38 826.193 1469.06 Q827.781 1469.73 829.464 1468.76 Q831.193 1467.76 831.399 1465.99 Q831.628 1464.24 830.308 1461.95 Q829.588 1460.71 828.493 1459.43 Q827.397 1458.16 825.836 1456.78 L828.543 1455.21 Q830.022 1456.67 831.131 1458.03 Q832.248 1459.41 833.021 1460.75 Q835.017 1464.21 834.602 1467.13 Q834.201 1470.05 831.525 1471.6 Q829.661 1472.67 827.751 1472.35 Q825.857 1472.02 824.224 1470.34 Z" fill="#4c4c4c" fill-rule="evenodd" fill-opacity="1" /><path clip-path="url(#clip010)" d="M842.316 1482.4 Q840.962 1480.06 837.961 1480.21 Q834.984 1480.36 830.353 1483.04 Q825.737 1485.7 824.099 1488.21 Q822.484 1490.73 823.838 1493.07 Q825.201 1495.43 828.179 1495.28 Q831.18 1495.13 835.795 1492.46 Q840.426 1489.79 842.041 1487.27 Q843.679 1484.76 842.316 1482.4 M844.722 1481.02 Q846.901 1484.79 845.055 1488.5 Q843.232 1492.22 837.549 1495.5 Q831.881 1498.77 827.734 1498.5 Q823.611 1498.24 821.433 1494.46 Q819.254 1490.69 821.076 1486.97 Q822.922 1483.26 828.591 1479.98 Q834.274 1476.7 838.397 1476.97 Q842.543 1477.24 844.722 1481.02 Z" fill="#4c4c4c" fill-rule="evenodd" fill-opacity="1" /><path clip-path="url(#clip010)" d="M979.677 1465.88 L963.267 1465.13 L967.694 1472.8 L979.677 1465.88 M981.863 1463.55 L984.068 1467.37 L969.439 1475.82 L971.288 1479.02 L968.762 1480.48 L966.913 1477.28 L961.621 1480.33 L959.876 1477.31 L965.168 1474.25 L959.318 1464.12 L962.25 1462.43 L981.863 1463.55 Z" fill="#4c4c4c" fill-rule="evenodd" fill-opacity="1" /><path clip-path="url(#clip010)" d="M990.567 1483.25 Q989.213 1480.9 986.211 1481.05 Q983.234 1481.21 978.603 1483.88 Q973.987 1486.54 972.349 1489.05 Q970.734 1491.57 972.089 1493.91 Q973.451 1496.28 976.429 1496.12 Q979.43 1495.97 984.046 1493.31 Q988.677 1490.63 990.291 1488.12 Q991.93 1485.61 990.567 1483.25 M992.972 1481.86 Q995.151 1485.63 993.305 1489.34 Q991.483 1493.06 985.799 1496.34 Q980.131 1499.62 975.985 1499.34 Q971.862 1499.08 969.683 1495.3 Q967.504 1491.53 969.327 1487.81 Q971.173 1484.1 976.841 1480.83 Q982.524 1477.55 986.647 1477.81 Q990.794 1478.08 992.972 1481.86 Z" fill="#4c4c4c" fill-rule="evenodd" fill-opacity="1" /><path clip-path="url(#clip010)" d="M1124.78 1455.16 L1131.67 1467.09 L1129.11 1468.56 L1123.83 1459.42 L1118.33 1462.6 Q1118.94 1463.13 1119.43 1463.73 Q1119.93 1464.32 1120.31 1464.98 Q1122.48 1468.74 1121.69 1472.13 Q1120.9 1475.51 1117.38 1477.54 Q1113.75 1479.63 1110.44 1478.54 Q1107.13 1477.44 1104.77 1473.34 Q1103.95 1471.92 1103.34 1470.31 Q1102.74 1468.71 1102.32 1466.87 L1105.37 1465.11 Q1105.41 1466.89 1105.89 1468.54 Q1106.36 1470.19 1107.29 1471.8 Q1108.79 1474.4 1111.03 1475.13 Q1113.28 1475.86 1115.62 1474.51 Q1117.97 1473.15 1118.46 1470.84 Q1118.95 1468.53 1117.45 1465.93 Q1116.75 1464.72 1115.77 1463.65 Q1114.81 1462.61 1113.51 1461.67 L1124.78 1455.16 Z" fill="#4c4c4c" fill-rule="evenodd" fill-opacity="1" /><path clip-path="url(#clip010)" d="M1137.83 1482.37 Q1136.47 1480.03 1133.47 1480.18 Q1130.49 1480.33 1125.86 1483.01 Q1121.25 1485.67 1119.61 1488.18 Q1118 1490.7 1119.35 1493.04 Q1120.71 1495.4 1123.69 1495.25 Q1126.69 1495.1 1131.31 1492.43 Q1135.94 1489.76 1137.55 1487.24 Q1139.19 1484.73 1137.83 1482.37 M1140.23 1480.99 Q1142.41 1484.76 1140.57 1488.47 Q1138.74 1492.19 1133.06 1495.47 Q1127.39 1498.74 1123.25 1498.47 Q1119.12 1498.21 1116.94 1494.43 Q1114.77 1490.66 1116.59 1486.94 Q1118.43 1483.23 1124.1 1479.95 Q1129.79 1476.67 1133.91 1476.94 Q1138.05 1477.21 1140.23 1480.99 Z" fill="#4c4c4c" fill-rule="evenodd" fill-opacity="1" /><path clip-path="url(#clip010)" d="M1266.61 1468.01 Q1265.43 1465.97 1263.34 1465.57 Q1261.26 1465.19 1258.82 1466.6 Q1256.4 1467.99 1255.67 1470 Q1254.97 1472.01 1256.15 1474.05 Q1257.33 1476.1 1259.41 1476.48 Q1261.52 1476.87 1263.94 1475.47 Q1266.38 1474.06 1267.08 1472.05 Q1267.8 1470.06 1266.61 1468.01 M1279.61 1468.55 L1276.85 1470.14 Q1276.73 1468.69 1276.34 1467.35 Q1275.95 1466.03 1275.29 1464.89 Q1273.56 1461.88 1270.61 1461.46 Q1267.67 1461.05 1263.43 1463.19 Q1265.25 1463.33 1266.72 1464.26 Q1268.2 1465.19 1269.12 1466.8 Q1271.08 1470.19 1270.15 1473.33 Q1269.24 1476.48 1265.71 1478.52 Q1262.25 1480.52 1258.98 1479.68 Q1255.71 1478.84 1253.74 1475.44 Q1251.5 1471.55 1253.28 1467.77 Q1255.09 1463.98 1260.76 1460.71 Q1266.08 1457.64 1270.69 1458.34 Q1275.32 1459.03 1277.78 1463.29 Q1278.44 1464.43 1278.88 1465.72 Q1279.33 1467.02 1279.61 1468.55 Z" fill="#4c4c4c" fill-rule="evenodd" fill-opacity="1" /><path clip-path="url(#clip010)" d="M1285.72 1482.6 Q1284.37 1480.25 1281.37 1480.4 Q1278.39 1480.56 1273.76 1483.23 Q1269.14 1485.9 1267.5 1488.41 Q1265.89 1490.92 1267.24 1493.27 Q1268.61 1495.63 1271.58 1495.47 Q1274.59 1495.32 1279.2 1492.66 Q1283.83 1489.99 1285.45 1487.47 Q1287.08 1484.96 1285.72 1482.6 M1288.13 1481.21 Q1290.31 1484.98 1288.46 1488.7 Q1286.64 1492.42 1280.95 1495.7 Q1275.29 1498.97 1271.14 1498.7 Q1267.02 1498.43 1264.84 1494.66 Q1262.66 1490.88 1264.48 1487.16 Q1266.33 1483.45 1272 1480.18 Q1277.68 1476.9 1281.8 1477.16 Q1285.95 1477.44 1288.13 1481.21 Z" fill="#4c4c4c" fill-rule="evenodd" fill-opacity="1" /><path clip-path="url(#clip010)" d="M1419.77 1454.22 L1428.1 1468.65 L1426.81 1469.4 L1400.95 1473.46 L1399.12 1470.29 L1423.43 1466.47 L1417.21 1455.69 L1419.77 1454.22 Z" fill="#4c4c4c" fill-rule="evenodd" fill-opacity="1" /><path clip-path="url(#clip010)" d="M1433.27 1482.22 Q1431.92 1479.88 1428.91 1480.03 Q1425.94 1480.18 1421.31 1482.86 Q1416.69 1485.52 1415.05 1488.03 Q1413.44 1490.55 1414.79 1492.89 Q1416.15 1495.25 1419.13 1495.1 Q1422.13 1494.95 1426.75 1492.28 Q1431.38 1489.61 1432.99 1487.09 Q1434.63 1484.58 1433.27 1482.22 M1435.68 1480.84 Q1437.85 1484.61 1436.01 1488.32 Q1434.19 1492.04 1428.5 1495.32 Q1422.83 1498.59 1418.69 1498.32 Q1414.56 1498.06 1412.39 1494.28 Q1410.21 1490.51 1412.03 1486.79 Q1413.88 1483.08 1419.54 1479.8 Q1425.23 1476.52 1429.35 1476.79 Q1433.5 1477.06 1435.68 1480.84 Z" fill="#4c4c4c" fill-rule="evenodd" fill-opacity="1" /><path clip-path="url(#clip010)" d="M1560.19 1468.72 Q1558.94 1466.56 1557.06 1465.98 Q1555.19 1465.41 1553.16 1466.58 Q1551.13 1467.76 1550.68 1469.66 Q1550.25 1471.57 1551.5 1473.74 Q1552.75 1475.9 1554.62 1476.48 Q1556.52 1477.05 1558.53 1475.89 Q1560.56 1474.72 1561 1472.8 Q1561.45 1470.9 1560.19 1468.72 M1559.73 1464.94 Q1559.08 1462.7 1559.78 1460.83 Q1560.5 1458.98 1562.42 1457.87 Q1565.11 1456.31 1567.78 1457.32 Q1570.45 1458.34 1572.38 1461.68 Q1574.32 1465.03 1573.85 1467.85 Q1573.39 1470.66 1570.7 1472.21 Q1568.78 1473.32 1566.81 1473 Q1564.84 1472.69 1563.24 1471.03 Q1564 1473.52 1563.21 1475.59 Q1562.44 1477.69 1560.29 1478.93 Q1557.02 1480.81 1554.12 1479.82 Q1551.24 1478.84 1549.09 1475.13 Q1546.95 1471.41 1547.54 1468.41 Q1548.13 1465.41 1551.4 1463.53 Q1553.55 1462.29 1555.75 1462.66 Q1557.95 1463.04 1559.73 1464.94 M1563.88 1461.06 Q1562.14 1462.06 1561.78 1463.71 Q1561.44 1465.37 1562.58 1467.34 Q1563.71 1469.29 1565.32 1469.83 Q1566.94 1470.38 1568.68 1469.37 Q1570.42 1468.36 1570.76 1466.69 Q1571.1 1465.02 1569.97 1463.07 Q1568.84 1461.1 1567.23 1460.57 Q1565.62 1460.05 1563.88 1461.06 Z" fill="#4c4c4c" fill-rule="evenodd" fill-opacity="1" /><path clip-path="url(#clip010)" d="M1581.29 1482.66 Q1579.93 1480.31 1576.93 1480.46 Q1573.95 1480.62 1569.32 1483.29 Q1564.71 1485.96 1563.07 1488.47 Q1561.45 1490.98 1562.81 1493.33 Q1564.17 1495.69 1567.15 1495.53 Q1570.15 1495.38 1574.76 1492.72 Q1579.4 1490.05 1581.01 1487.53 Q1582.65 1485.02 1581.29 1482.66 M1583.69 1481.27 Q1585.87 1485.04 1584.02 1488.76 Q1582.2 1492.48 1576.52 1495.76 Q1570.85 1499.03 1566.7 1498.76 Q1562.58 1498.49 1560.4 1494.72 Q1558.22 1490.94 1560.05 1487.23 Q1561.89 1483.51 1567.56 1480.24 Q1573.24 1476.96 1577.37 1477.23 Q1581.51 1477.5 1583.69 1481.27 Z" fill="#4c4c4c" fill-rule="evenodd" fill-opacity="1" /><path clip-path="url(#clip010)" d="M1694.15 1468.35 L1696.91 1466.75 Q1697.03 1468.21 1697.42 1469.55 Q1697.81 1470.88 1698.47 1472.01 Q1700.2 1475.02 1703.13 1475.43 Q1706.08 1475.86 1710.33 1473.7 Q1708.53 1473.58 1707.07 1472.64 Q1705.6 1471.7 1704.66 1470.08 Q1702.72 1466.71 1703.61 1463.57 Q1704.53 1460.43 1708.06 1458.39 Q1711.52 1456.4 1714.79 1457.23 Q1718.06 1458.07 1720.02 1461.47 Q1722.27 1465.36 1720.46 1469.14 Q1718.67 1472.91 1712.99 1476.2 Q1707.68 1479.26 1703.05 1478.57 Q1698.44 1477.88 1695.99 1473.62 Q1695.33 1472.48 1694.88 1471.18 Q1694.42 1469.87 1694.15 1468.35 M1707.15 1468.9 Q1708.33 1470.95 1710.42 1471.33 Q1712.51 1471.72 1714.95 1470.32 Q1717.37 1468.92 1718.07 1466.91 Q1718.8 1464.9 1717.62 1462.86 Q1716.44 1460.81 1714.33 1460.43 Q1712.25 1460.05 1709.82 1461.44 Q1707.39 1462.85 1706.68 1464.85 Q1705.97 1466.86 1707.15 1468.9 Z" fill="#4c4c4c" fill-rule="evenodd" fill-opacity="1" /><path clip-path="url(#clip010)" d="M1729.14 1482.81 Q1727.78 1480.46 1724.78 1480.61 Q1721.8 1480.77 1717.17 1483.44 Q1712.56 1486.11 1710.92 1488.62 Q1709.3 1491.13 1710.66 1493.48 Q1712.02 1495.84 1715 1495.68 Q1718 1495.53 1722.62 1492.87 Q1727.25 1490.2 1728.86 1487.68 Q1730.5 1485.17 1729.14 1482.81 M1731.54 1481.42 Q1733.72 1485.2 1731.87 1488.91 Q1730.05 1492.63 1724.37 1495.91 Q1718.7 1499.18 1714.55 1498.91 Q1710.43 1498.64 1708.25 1494.87 Q1706.07 1491.09 1707.9 1487.38 Q1709.74 1483.66 1715.41 1480.39 Q1721.09 1477.11 1725.22 1477.38 Q1729.36 1477.65 1731.54 1481.42 Z" fill="#4c4c4c" fill-rule="evenodd" fill-opacity="1" /><path clip-path="url(#clip010)" d="M1843.42 1466.14 L1846.28 1471.1 L1863.41 1461.21 L1859.21 1456.44 L1861.98 1454.84 L1866.16 1459.58 L1867.91 1462.62 L1848.02 1474.11 L1850.88 1479.07 L1848.33 1480.54 L1840.86 1467.61 L1843.42 1466.14 Z" fill="#4c4c4c" fill-rule="evenodd" fill-opacity="1" /><path clip-path="url(#clip010)" d="M1876.07 1481.37 Q1874.71 1479.02 1871.71 1479.17 Q1868.73 1479.33 1864.1 1482 Q1859.49 1484.66 1857.85 1487.17 Q1856.24 1489.69 1857.59 1492.04 Q1858.95 1494.4 1861.93 1494.24 Q1864.93 1494.09 1869.55 1491.43 Q1874.18 1488.75 1875.79 1486.24 Q1877.43 1483.73 1876.07 1481.37 M1878.47 1479.98 Q1880.65 1483.75 1878.81 1487.46 Q1876.98 1491.18 1871.3 1494.46 Q1865.63 1497.74 1861.49 1497.46 Q1857.36 1497.2 1855.18 1493.42 Q1853 1489.65 1854.83 1485.93 Q1856.67 1482.22 1862.34 1478.95 Q1868.03 1475.67 1872.15 1475.93 Q1876.29 1476.2 1878.47 1479.98 Z" fill="#4c4c4c" fill-rule="evenodd" fill-opacity="1" /><path clip-path="url(#clip010)" d="M1887.38 1500.96 Q1886.02 1498.61 1883.02 1498.76 Q1880.05 1498.92 1875.41 1501.59 Q1870.8 1504.26 1869.16 1506.76 Q1867.55 1509.28 1868.9 1511.63 Q1870.26 1513.99 1873.24 1513.83 Q1876.24 1513.68 1880.86 1511.02 Q1885.49 1508.34 1887.1 1505.83 Q1888.74 1503.32 1887.38 1500.96 M1889.78 1499.57 Q1891.96 1503.34 1890.12 1507.05 Q1888.29 1510.77 1882.61 1514.05 Q1876.94 1517.33 1872.8 1517.05 Q1868.67 1516.79 1866.49 1513.01 Q1864.32 1509.24 1866.14 1505.52 Q1867.98 1501.81 1873.65 1498.54 Q1879.34 1495.26 1883.46 1495.52 Q1887.61 1495.8 1889.78 1499.57 Z" fill="#4c4c4c" fill-rule="evenodd" fill-opacity="1" /><path clip-path="url(#clip010)" d="M1991.18 1466.14 L1994.05 1471.1 L2011.17 1461.21 L2006.97 1456.44 L2009.74 1454.84 L2013.92 1459.58 L2015.68 1462.62 L1995.78 1474.11 L1998.65 1479.07 L1996.09 1480.54 L1988.63 1467.61 L1991.18 1466.14 Z" fill="#4c4c4c" fill-rule="evenodd" fill-opacity="1" /><path clip-path="url(#clip010)" d="M2002.49 1485.73 L2005.36 1490.69 L2022.48 1480.8 L2018.28 1476.03 L2021.05 1474.43 L2025.23 1479.18 L2026.99 1482.21 L2007.09 1493.7 L2009.96 1498.66 L2007.4 1500.13 L1999.94 1487.2 L2002.49 1485.73 Z" fill="#4c4c4c" fill-rule="evenodd" fill-opacity="1" /><path clip-path="url(#clip010)" d="M2035.14 1500.96 Q2033.79 1498.61 2030.79 1498.76 Q2027.81 1498.92 2023.18 1501.59 Q2018.56 1504.26 2016.92 1506.76 Q2015.31 1509.28 2016.66 1511.63 Q2018.03 1513.99 2021 1513.83 Q2024.01 1513.68 2028.62 1511.02 Q2033.25 1508.34 2034.87 1505.83 Q2036.51 1503.32 2035.14 1500.96 M2037.55 1499.57 Q2039.73 1503.34 2037.88 1507.05 Q2036.06 1510.77 2030.38 1514.05 Q2024.71 1517.33 2020.56 1517.05 Q2016.44 1516.79 2014.26 1513.01 Q2012.08 1509.24 2013.9 1505.52 Q2015.75 1501.81 2021.42 1498.54 Q2027.1 1495.26 2031.22 1495.52 Q2035.37 1495.8 2037.55 1499.57 Z" fill="#4c4c4c" fill-rule="evenodd" fill-opacity="1" /><path clip-path="url(#clip010)" d="M2138.95 1466.14 L2141.81 1471.1 L2158.94 1461.21 L2154.74 1456.44 L2157.5 1454.84 L2161.69 1459.58 L2163.44 1462.62 L2143.55 1474.11 L2146.41 1479.07 L2143.86 1480.54 L2136.39 1467.61 L2138.95 1466.14 Z" fill="#4c4c4c" fill-rule="evenodd" fill-opacity="1" /><path clip-path="url(#clip010)" d="M2151.46 1487.82 L2157.58 1498.42 L2155.03 1499.89 L2146.8 1485.64 L2149.36 1484.16 Q2152.14 1484.86 2156.87 1486.1 Q2161.62 1487.35 2162.93 1487.61 Q2165.41 1488.12 2166.87 1488.04 Q2168.35 1487.97 2169.45 1487.34 Q2171.24 1486.3 2171.64 1484.39 Q2172.04 1482.49 2170.88 1480.48 Q2170.06 1479.05 2168.64 1477.74 Q2167.23 1476.45 2165.18 1475.23 L2168.25 1473.46 Q2170.05 1474.86 2171.34 1476.24 Q2172.64 1477.62 2173.4 1478.94 Q2175.42 1482.43 2174.87 1485.51 Q2174.32 1488.59 2171.41 1490.28 Q2170.02 1491.08 2168.47 1491.27 Q2166.94 1491.47 2164.47 1491.07 Q2163.82 1490.95 2160.56 1490.14 Q2157.33 1489.32 2151.46 1487.82 Z" fill="#4c4c4c" fill-rule="evenodd" fill-opacity="1" /><path clip-path="url(#clip010)" d="M2182.91 1500.96 Q2181.55 1498.61 2178.55 1498.76 Q2175.57 1498.92 2170.94 1501.59 Q2166.33 1504.26 2164.69 1506.76 Q2163.07 1509.28 2164.43 1511.63 Q2165.79 1513.99 2168.77 1513.83 Q2171.77 1513.68 2176.39 1511.02 Q2181.02 1508.34 2182.63 1505.83 Q2184.27 1503.32 2182.91 1500.96 M2185.31 1499.57 Q2187.49 1503.34 2185.65 1507.05 Q2183.82 1510.77 2178.14 1514.05 Q2172.47 1517.33 2168.32 1517.05 Q2164.2 1516.79 2162.02 1513.01 Q2159.84 1509.24 2161.67 1505.52 Q2163.51 1501.81 2169.18 1498.54 Q2174.86 1495.26 2178.99 1495.52 Q2183.13 1495.8 2185.31 1499.57 Z" fill="#4c4c4c" fill-rule="evenodd" fill-opacity="1" /><path clip-path="url(#clip010)" d="M2286.71 1466.14 L2289.58 1471.1 L2306.7 1461.21 L2302.5 1456.44 L2305.27 1454.84 L2309.45 1459.58 L2311.2 1462.62 L2291.31 1474.11 L2294.18 1479.07 L2291.62 1480.54 L2284.16 1467.61 L2286.71 1466.14 Z" fill="#4c4c4c" fill-rule="evenodd" fill-opacity="1" /><path clip-path="url(#clip010)" d="M2312.58 1488.89 Q2313.37 1491.34 2312.6 1493.41 Q2311.84 1495.49 2309.67 1496.74 Q2306.35 1498.66 2303.21 1497.43 Q2300.07 1496.19 2297.64 1491.98 Q2296.83 1490.57 2296.25 1488.9 Q2295.66 1487.25 2295.29 1485.34 L2298.22 1483.65 Q2298.22 1485.34 2298.71 1487.06 Q2299.2 1488.78 2300.15 1490.41 Q2301.8 1493.27 2303.78 1494.11 Q2305.78 1494.96 2307.93 1493.72 Q2309.91 1492.57 2310.22 1490.53 Q2310.55 1488.5 2309.12 1486.02 L2307.61 1483.4 L2310.1 1481.96 L2311.68 1484.7 Q2312.97 1486.94 2314.55 1487.61 Q2316.14 1488.28 2317.82 1487.31 Q2319.55 1486.31 2319.75 1484.55 Q2319.98 1482.79 2318.66 1480.51 Q2317.94 1479.26 2316.85 1477.99 Q2315.75 1476.71 2314.19 1475.33 L2316.9 1473.77 Q2318.38 1475.22 2319.49 1476.58 Q2320.6 1477.96 2321.38 1479.3 Q2323.37 1482.76 2322.96 1485.69 Q2322.56 1488.6 2319.88 1490.15 Q2318.02 1491.22 2316.11 1490.9 Q2314.21 1490.57 2312.58 1488.89 Z" fill="#4c4c4c" fill-rule="evenodd" fill-opacity="1" /><path clip-path="url(#clip010)" d="M2330.67 1500.96 Q2329.32 1498.61 2326.32 1498.76 Q2323.34 1498.92 2318.71 1501.59 Q2314.09 1504.26 2312.45 1506.76 Q2310.84 1509.28 2312.19 1511.63 Q2313.56 1513.99 2316.53 1513.83 Q2319.53 1513.68 2324.15 1511.02 Q2328.78 1508.34 2330.4 1505.83 Q2332.03 1503.32 2330.67 1500.96 M2333.08 1499.57 Q2335.26 1503.34 2333.41 1507.05 Q2331.59 1510.77 2325.9 1514.05 Q2320.24 1517.33 2316.09 1517.05 Q2311.97 1516.79 2309.79 1513.01 Q2307.61 1509.24 2309.43 1505.52 Q2311.28 1501.81 2316.95 1498.54 Q2322.63 1495.26 2326.75 1495.52 Q2330.9 1495.8 2333.08 1499.57 Z" fill="#4c4c4c" fill-rule="evenodd" fill-opacity="1" /><path clip-path="url(#clip010)" d="M1225.25 1537.87 L1229.93 1537.87 L1229.93 1572.43 L1225.25 1572.43 L1225.25 1537.87 Z" fill="#000000" fill-rule="evenodd" fill-opacity="1" /><path clip-path="url(#clip010)" d="M1243.26 1539.15 L1243.26 1546.51 L1252.03 1546.51 L1252.03 1549.82 L1243.26 1549.82 L1243.26 1563.89 Q1243.26 1567.06 1244.12 1567.97 Q1245 1568.87 1247.66 1568.87 L1252.03 1568.87 L1252.03 1572.43 L1247.66 1572.43 Q1242.73 1572.43 1240.85 1570.6 Q1238.98 1568.75 1238.98 1563.89 L1238.98 1549.82 L1235.85 1549.82 L1235.85 1546.51 L1238.98 1546.51 L1238.98 1539.15 L1243.26 1539.15 Z" fill="#000000" fill-rule="evenodd" fill-opacity="1" /><path clip-path="url(#clip010)" d="M1279.81 1558.41 L1279.81 1560.49 L1260.23 1560.49 Q1260.51 1564.89 1262.87 1567.2 Q1265.25 1569.49 1269.49 1569.49 Q1271.94 1569.49 1274.23 1568.89 Q1276.55 1568.29 1278.82 1567.09 L1278.82 1571.11 Q1276.52 1572.09 1274.12 1572.6 Q1271.71 1573.1 1269.23 1573.1 Q1263.03 1573.1 1259.39 1569.49 Q1255.78 1565.88 1255.78 1559.73 Q1255.78 1553.36 1259.21 1549.63 Q1262.66 1545.88 1268.49 1545.88 Q1273.72 1545.88 1276.76 1549.26 Q1279.81 1552.62 1279.81 1558.41 M1275.55 1557.16 Q1275.51 1553.66 1273.58 1551.58 Q1271.69 1549.49 1268.54 1549.49 Q1264.97 1549.49 1262.82 1551.51 Q1260.69 1553.52 1260.37 1557.18 L1275.55 1557.16 Z" fill="#000000" fill-rule="evenodd" fill-opacity="1" /><path clip-path="url(#clip010)" d="M1301.82 1550.49 Q1301.11 1550.07 1300.25 1549.89 Q1299.42 1549.68 1298.4 1549.68 Q1294.79 1549.68 1292.84 1552.04 Q1290.92 1554.38 1290.92 1558.78 L1290.92 1572.43 L1286.64 1572.43 L1286.64 1546.51 L1290.92 1546.51 L1290.92 1550.54 Q1292.26 1548.17 1294.42 1547.04 Q1296.57 1545.88 1299.65 1545.88 Q1300.09 1545.88 1300.62 1545.95 Q1301.15 1546 1301.8 1546.11 L1301.82 1550.49 Z" fill="#000000" fill-rule="evenodd" fill-opacity="1" /><path clip-path="url(#clip010)" d="M1318.07 1559.4 Q1312.91 1559.4 1310.92 1560.58 Q1308.93 1561.76 1308.93 1564.61 Q1308.93 1566.88 1310.41 1568.22 Q1311.92 1569.54 1314.49 1569.54 Q1318.03 1569.54 1320.16 1567.04 Q1322.31 1564.52 1322.31 1560.35 L1322.31 1559.4 L1318.07 1559.4 M1326.57 1557.64 L1326.57 1572.43 L1322.31 1572.43 L1322.31 1568.5 Q1320.85 1570.86 1318.68 1571.99 Q1316.5 1573.1 1313.35 1573.1 Q1309.37 1573.1 1307.01 1570.88 Q1304.67 1568.64 1304.67 1564.89 Q1304.67 1560.51 1307.59 1558.29 Q1310.53 1556.07 1316.34 1556.07 L1322.31 1556.07 L1322.31 1555.65 Q1322.31 1552.71 1320.37 1551.11 Q1318.44 1549.49 1314.95 1549.49 Q1312.73 1549.49 1310.62 1550.03 Q1308.51 1550.56 1306.57 1551.62 L1306.57 1547.69 Q1308.91 1546.79 1311.11 1546.35 Q1313.31 1545.88 1315.39 1545.88 Q1321.01 1545.88 1323.79 1548.8 Q1326.57 1551.72 1326.57 1557.64 Z" fill="#000000" fill-rule="evenodd" fill-opacity="1" /><path clip-path="url(#clip010)" d="M1339.56 1539.15 L1339.56 1546.51 L1348.33 1546.51 L1348.33 1549.82 L1339.56 1549.82 L1339.56 1563.89 Q1339.56 1567.06 1340.41 1567.97 Q1341.29 1568.87 1343.95 1568.87 L1348.33 1568.87 L1348.33 1572.43 L1343.95 1572.43 Q1339.02 1572.43 1337.15 1570.6 Q1335.27 1568.75 1335.27 1563.89 L1335.27 1549.82 L1332.15 1549.82 L1332.15 1546.51 L1335.27 1546.51 L1335.27 1539.15 L1339.56 1539.15 Z" fill="#000000" fill-rule="evenodd" fill-opacity="1" /><path clip-path="url(#clip010)" d="M1353.93 1546.51 L1358.19 1546.51 L1358.19 1572.43 L1353.93 1572.43 L1353.93 1546.51 M1353.93 1536.42 L1358.19 1536.42 L1358.19 1541.81 L1353.93 1541.81 L1353.93 1536.42 Z" fill="#000000" fill-rule="evenodd" fill-opacity="1" /><path clip-path="url(#clip010)" d="M1377.15 1549.49 Q1373.72 1549.49 1371.73 1552.18 Q1369.74 1554.84 1369.74 1559.49 Q1369.74 1564.15 1371.71 1566.83 Q1373.7 1569.49 1377.15 1569.49 Q1380.55 1569.49 1382.54 1566.81 Q1384.53 1564.12 1384.53 1559.49 Q1384.53 1554.89 1382.54 1552.2 Q1380.55 1549.49 1377.15 1549.49 M1377.15 1545.88 Q1382.7 1545.88 1385.87 1549.49 Q1389.05 1553.1 1389.05 1559.49 Q1389.05 1565.86 1385.87 1569.49 Q1382.7 1573.1 1377.15 1573.1 Q1371.57 1573.1 1368.4 1569.49 Q1365.25 1565.86 1365.25 1559.49 Q1365.25 1553.1 1368.4 1549.49 Q1371.57 1545.88 1377.15 1545.88 Z" fill="#000000" fill-rule="evenodd" fill-opacity="1" /><path clip-path="url(#clip010)" d="M1417.66 1556.79 L1417.66 1572.43 L1413.4 1572.43 L1413.4 1556.92 Q1413.4 1553.24 1411.96 1551.41 Q1410.53 1549.59 1407.66 1549.59 Q1404.21 1549.59 1402.22 1551.79 Q1400.23 1553.98 1400.23 1557.78 L1400.23 1572.43 L1395.94 1572.43 L1395.94 1546.51 L1400.23 1546.51 L1400.23 1550.54 Q1401.75 1548.2 1403.81 1547.04 Q1405.9 1545.88 1408.61 1545.88 Q1413.07 1545.88 1415.37 1548.66 Q1417.66 1551.41 1417.66 1556.79 Z" fill="#000000" fill-rule="evenodd" fill-opacity="1" /><path clip-path="url(#clip010)" d="M1442.68 1547.27 L1442.68 1551.3 Q1440.87 1550.37 1438.93 1549.91 Q1436.99 1549.45 1434.9 1549.45 Q1431.73 1549.45 1430.13 1550.42 Q1428.56 1551.39 1428.56 1553.34 Q1428.56 1554.82 1429.69 1555.67 Q1430.83 1556.51 1434.25 1557.27 L1435.71 1557.6 Q1440.25 1558.57 1442.15 1560.35 Q1444.07 1562.11 1444.07 1565.28 Q1444.07 1568.89 1441.2 1571 Q1438.35 1573.1 1433.35 1573.1 Q1431.27 1573.1 1429 1572.69 Q1426.75 1572.29 1424.25 1571.48 L1424.25 1567.09 Q1426.62 1568.31 1428.91 1568.94 Q1431.2 1569.54 1433.44 1569.54 Q1436.45 1569.54 1438.07 1568.52 Q1439.69 1567.48 1439.69 1565.6 Q1439.69 1563.87 1438.51 1562.94 Q1437.36 1562.02 1433.4 1561.16 L1431.92 1560.81 Q1427.96 1559.98 1426.2 1558.27 Q1424.44 1556.53 1424.44 1553.52 Q1424.44 1549.86 1427.03 1547.87 Q1429.62 1545.88 1434.39 1545.88 Q1436.75 1545.88 1438.84 1546.23 Q1440.92 1546.58 1442.68 1547.27 Z" fill="#000000" fill-rule="evenodd" fill-opacity="1" /><polyline clip-path="url(#clip012)" style="stroke:#ffffff; stroke-linecap:butt; stroke-linejoin:round; stroke-width:4; stroke-opacity:1; fill:none" points="
  316.564,1303.92 2352.76,1303.92 
  "/>
<polyline clip-path="url(#clip012)" style="stroke:#ffffff; stroke-linecap:butt; stroke-linejoin:round; stroke-width:4; stroke-opacity:1; fill:none" points="
  316.564,1062.32 2352.76,1062.32 
  "/>
<polyline clip-path="url(#clip012)" style="stroke:#ffffff; stroke-linecap:butt; stroke-linejoin:round; stroke-width:4; stroke-opacity:1; fill:none" points="
  316.564,820.719 2352.76,820.719 
  "/>
<polyline clip-path="url(#clip012)" style="stroke:#ffffff; stroke-linecap:butt; stroke-linejoin:round; stroke-width:4; stroke-opacity:1; fill:none" points="
  316.564,579.12 2352.76,579.12 
  "/>
<polyline clip-path="url(#clip012)" style="stroke:#ffffff; stroke-linecap:butt; stroke-linejoin:round; stroke-width:4; stroke-opacity:1; fill:none" points="
  316.564,337.521 2352.76,337.521 
  "/>
<polyline clip-path="url(#clip012)" style="stroke:#ffffff; stroke-linecap:butt; stroke-linejoin:round; stroke-width:2; stroke-opacity:1; fill:none" points="
  316.564,1183.12 2352.76,1183.12 
  "/>
<polyline clip-path="url(#clip012)" style="stroke:#ffffff; stroke-linecap:butt; stroke-linejoin:round; stroke-width:2; stroke-opacity:1; fill:none" points="
  316.564,941.519 2352.76,941.519 
  "/>
<polyline clip-path="url(#clip012)" style="stroke:#ffffff; stroke-linecap:butt; stroke-linejoin:round; stroke-width:2; stroke-opacity:1; fill:none" points="
  316.564,699.92 2352.76,699.92 
  "/>
<polyline clip-path="url(#clip012)" style="stroke:#ffffff; stroke-linecap:butt; stroke-linejoin:round; stroke-width:2; stroke-opacity:1; fill:none" points="
  316.564,458.321 2352.76,458.321 
  "/>
<polyline clip-path="url(#clip012)" style="stroke:#ffffff; stroke-linecap:butt; stroke-linejoin:round; stroke-width:2; stroke-opacity:1; fill:none" points="
  316.564,216.722 2352.76,216.722 
  "/>
<polyline clip-path="url(#clip010)" style="stroke:#ffffff; stroke-linecap:butt; stroke-linejoin:round; stroke-width:4; stroke-opacity:1; fill:none" points="
  316.564,1422.18 316.564,106.192 
  "/>
<polyline clip-path="url(#clip010)" style="stroke:#333333; stroke-linecap:butt; stroke-linejoin:round; stroke-width:4; stroke-opacity:1; fill:none" points="
  316.564,1303.92 297.666,1303.92 
  "/>
<polyline clip-path="url(#clip010)" style="stroke:#333333; stroke-linecap:butt; stroke-linejoin:round; stroke-width:4; stroke-opacity:1; fill:none" points="
  316.564,1062.32 297.666,1062.32 
  "/>
<polyline clip-path="url(#clip010)" style="stroke:#333333; stroke-linecap:butt; stroke-linejoin:round; stroke-width:4; stroke-opacity:1; fill:none" points="
  316.564,820.719 297.666,820.719 
  "/>
<polyline clip-path="url(#clip010)" style="stroke:#333333; stroke-linecap:butt; stroke-linejoin:round; stroke-width:4; stroke-opacity:1; fill:none" points="
  316.564,579.12 297.666,579.12 
  "/>
<polyline clip-path="url(#clip010)" style="stroke:#333333; stroke-linecap:butt; stroke-linejoin:round; stroke-width:4; stroke-opacity:1; fill:none" points="
  316.564,337.521 297.666,337.521 
  "/>
<polyline clip-path="url(#clip010)" style="stroke:#333333; stroke-linecap:butt; stroke-linejoin:round; stroke-width:4; stroke-opacity:1; fill:none" points="
  316.564,1183.12 307.115,1183.12 
  "/>
<polyline clip-path="url(#clip010)" style="stroke:#333333; stroke-linecap:butt; stroke-linejoin:round; stroke-width:4; stroke-opacity:1; fill:none" points="
  316.564,941.519 307.115,941.519 
  "/>
<polyline clip-path="url(#clip010)" style="stroke:#333333; stroke-linecap:butt; stroke-linejoin:round; stroke-width:4; stroke-opacity:1; fill:none" points="
  316.564,699.92 307.115,699.92 
  "/>
<polyline clip-path="url(#clip010)" style="stroke:#333333; stroke-linecap:butt; stroke-linejoin:round; stroke-width:4; stroke-opacity:1; fill:none" points="
  316.564,458.321 307.115,458.321 
  "/>
<polyline clip-path="url(#clip010)" style="stroke:#333333; stroke-linecap:butt; stroke-linejoin:round; stroke-width:4; stroke-opacity:1; fill:none" points="
  316.564,216.722 307.115,216.722 
  "/>
<path clip-path="url(#clip010)" d="M193.797 1304.26 L216.054 1304.26 L216.054 1307.21 L193.797 1307.21 L193.797 1304.26 Z" fill="#4c4c4c" fill-rule="evenodd" fill-opacity="1" /><path clip-path="url(#clip010)" d="M223.727 1316.34 L223.727 1313.14 Q225.047 1313.77 226.401 1314.1 Q227.755 1314.43 229.057 1314.43 Q232.529 1314.43 234.352 1312.1 Q236.192 1309.76 236.453 1305 Q235.446 1306.5 233.901 1307.29 Q232.356 1308.09 230.481 1308.09 Q226.592 1308.09 224.317 1305.75 Q222.061 1303.39 222.061 1299.31 Q222.061 1295.31 224.422 1292.9 Q226.783 1290.49 230.706 1290.49 Q235.203 1290.49 237.564 1293.94 Q239.942 1297.38 239.942 1303.94 Q239.942 1310.07 237.026 1313.73 Q234.126 1317.38 229.213 1317.38 Q227.894 1317.38 226.54 1317.12 Q225.186 1316.86 223.727 1316.34 M230.706 1305.35 Q233.067 1305.35 234.439 1303.73 Q235.828 1302.12 235.828 1299.31 Q235.828 1296.51 234.439 1294.9 Q233.067 1293.27 230.706 1293.27 Q228.345 1293.27 226.956 1294.9 Q225.585 1296.51 225.585 1299.31 Q225.585 1302.12 226.956 1303.73 Q228.345 1305.35 230.706 1305.35 Z" fill="#4c4c4c" fill-rule="evenodd" fill-opacity="1" /><path clip-path="url(#clip010)" d="M246.349 1316.34 L246.349 1313.14 Q247.668 1313.77 249.022 1314.1 Q250.376 1314.43 251.678 1314.43 Q255.151 1314.43 256.974 1312.1 Q258.814 1309.76 259.074 1305 Q258.067 1306.5 256.522 1307.29 Q254.977 1308.09 253.102 1308.09 Q249.213 1308.09 246.939 1305.75 Q244.682 1303.39 244.682 1299.31 Q244.682 1295.31 247.043 1292.9 Q249.404 1290.49 253.328 1290.49 Q257.824 1290.49 260.185 1293.94 Q262.564 1297.38 262.564 1303.94 Q262.564 1310.07 259.647 1313.73 Q256.748 1317.38 251.835 1317.38 Q250.515 1317.38 249.161 1317.12 Q247.807 1316.86 246.349 1316.34 M253.328 1305.35 Q255.689 1305.35 257.06 1303.73 Q258.449 1302.12 258.449 1299.31 Q258.449 1296.51 257.06 1294.9 Q255.689 1293.27 253.328 1293.27 Q250.967 1293.27 249.578 1294.9 Q248.206 1296.51 248.206 1299.31 Q248.206 1302.12 249.578 1303.73 Q250.967 1305.35 253.328 1305.35 Z" fill="#4c4c4c" fill-rule="evenodd" fill-opacity="1" /><path clip-path="url(#clip010)" d="M193.536 1062.66 L215.793 1062.66 L215.793 1065.61 L193.536 1065.61 L193.536 1062.66 Z" fill="#4c4c4c" fill-rule="evenodd" fill-opacity="1" /><path clip-path="url(#clip010)" d="M223.467 1074.74 L223.467 1071.55 Q224.786 1072.17 226.14 1072.5 Q227.495 1072.83 228.797 1072.83 Q232.269 1072.83 234.092 1070.5 Q235.932 1068.16 236.192 1063.4 Q235.185 1064.9 233.64 1065.69 Q232.095 1066.49 230.22 1066.49 Q226.331 1066.49 224.057 1064.15 Q221.8 1061.79 221.8 1057.71 Q221.8 1053.72 224.161 1051.3 Q226.522 1048.89 230.446 1048.89 Q234.942 1048.89 237.304 1052.34 Q239.682 1055.78 239.682 1062.34 Q239.682 1068.47 236.765 1072.14 Q233.866 1075.78 228.953 1075.78 Q227.633 1075.78 226.279 1075.52 Q224.925 1075.26 223.467 1074.74 M230.446 1063.75 Q232.807 1063.75 234.179 1062.14 Q235.567 1060.52 235.567 1057.71 Q235.567 1054.91 234.179 1053.3 Q232.807 1051.67 230.446 1051.67 Q228.085 1051.67 226.696 1053.3 Q225.324 1054.91 225.324 1057.71 Q225.324 1060.52 226.696 1062.14 Q228.085 1063.75 230.446 1063.75 Z" fill="#4c4c4c" fill-rule="evenodd" fill-opacity="1" /><path clip-path="url(#clip010)" d="M253.918 1060.92 Q251.557 1060.92 250.168 1062.54 Q248.796 1064.15 248.796 1066.96 Q248.796 1069.76 250.168 1071.39 Q251.557 1073 253.918 1073 Q256.279 1073 257.651 1071.39 Q259.039 1069.76 259.039 1066.96 Q259.039 1064.15 257.651 1062.54 Q256.279 1060.92 253.918 1060.92 M260.88 1049.93 L260.88 1053.13 Q259.56 1052.5 258.206 1052.17 Q256.869 1051.84 255.55 1051.84 Q252.078 1051.84 250.237 1054.18 Q248.415 1056.53 248.154 1061.27 Q249.178 1059.76 250.724 1058.96 Q252.269 1058.14 254.126 1058.14 Q258.033 1058.14 260.289 1060.52 Q262.564 1062.88 262.564 1066.96 Q262.564 1070.96 260.203 1073.37 Q257.842 1075.78 253.918 1075.78 Q249.421 1075.78 247.043 1072.34 Q244.665 1068.89 244.665 1062.34 Q244.665 1056.2 247.581 1052.55 Q250.498 1048.89 255.411 1048.89 Q256.73 1048.89 258.067 1049.15 Q259.421 1049.41 260.88 1049.93 Z" fill="#4c4c4c" fill-rule="evenodd" fill-opacity="1" /><path clip-path="url(#clip010)" d="M194.144 821.058 L216.401 821.058 L216.401 824.009 L194.144 824.009 L194.144 821.058 Z" fill="#4c4c4c" fill-rule="evenodd" fill-opacity="1" /><path clip-path="url(#clip010)" d="M224.074 833.141 L224.074 829.947 Q225.394 830.572 226.748 830.902 Q228.102 831.231 229.404 831.231 Q232.876 831.231 234.699 828.905 Q236.54 826.561 236.8 821.804 Q235.793 823.297 234.248 824.096 Q232.703 824.895 230.828 824.895 Q226.939 824.895 224.665 822.551 Q222.408 820.19 222.408 816.11 Q222.408 812.117 224.769 809.704 Q227.13 807.291 231.054 807.291 Q235.55 807.291 237.911 810.745 Q240.29 814.183 240.29 820.745 Q240.29 826.874 237.373 830.537 Q234.474 834.183 229.56 834.183 Q228.241 834.183 226.887 833.922 Q225.533 833.662 224.074 833.141 M231.054 822.152 Q233.415 822.152 234.786 820.537 Q236.175 818.922 236.175 816.11 Q236.175 813.315 234.786 811.7 Q233.415 810.068 231.054 810.068 Q228.692 810.068 227.304 811.7 Q225.932 813.315 225.932 816.11 Q225.932 818.922 227.304 820.537 Q228.692 822.152 231.054 822.152 Z" fill="#4c4c4c" fill-rule="evenodd" fill-opacity="1" /><path clip-path="url(#clip010)" d="M257.217 819.704 Q259.734 820.242 261.14 821.943 Q262.564 823.645 262.564 826.145 Q262.564 829.981 259.925 832.082 Q257.286 834.183 252.425 834.183 Q250.793 834.183 249.057 833.853 Q247.338 833.54 245.498 832.898 L245.498 829.513 Q246.956 830.363 248.692 830.797 Q250.428 831.231 252.321 831.231 Q255.619 831.231 257.338 829.929 Q259.074 828.627 259.074 826.145 Q259.074 823.853 257.46 822.568 Q255.862 821.266 252.998 821.266 L249.977 821.266 L249.977 818.384 L253.137 818.384 Q255.724 818.384 257.095 817.36 Q258.467 816.318 258.467 814.374 Q258.467 812.377 257.043 811.318 Q255.637 810.242 252.998 810.242 Q251.557 810.242 249.908 810.554 Q248.258 810.867 246.279 811.527 L246.279 808.402 Q248.276 807.846 250.012 807.568 Q251.765 807.291 253.31 807.291 Q257.303 807.291 259.63 809.113 Q261.956 810.919 261.956 814.009 Q261.956 816.162 260.724 817.655 Q259.491 819.131 257.217 819.704 Z" fill="#4c4c4c" fill-rule="evenodd" fill-opacity="1" /><path clip-path="url(#clip010)" d="M193.658 579.459 L215.915 579.459 L215.915 582.41 L193.658 582.41 L193.658 579.459 Z" fill="#4c4c4c" fill-rule="evenodd" fill-opacity="1" /><path clip-path="url(#clip010)" d="M223.588 591.542 L223.588 588.348 Q224.908 588.973 226.262 589.303 Q227.616 589.632 228.918 589.632 Q232.39 589.632 234.213 587.306 Q236.054 584.962 236.314 580.205 Q235.307 581.698 233.762 582.497 Q232.217 583.296 230.342 583.296 Q226.453 583.296 224.179 580.952 Q221.922 578.591 221.922 574.511 Q221.922 570.518 224.283 568.105 Q226.644 565.692 230.567 565.692 Q235.064 565.692 237.425 569.146 Q239.803 572.584 239.803 579.146 Q239.803 585.275 236.887 588.938 Q233.988 592.584 229.074 592.584 Q227.755 592.584 226.401 592.323 Q225.047 592.063 223.588 591.542 M230.567 580.553 Q232.929 580.553 234.3 578.938 Q235.689 577.323 235.689 574.511 Q235.689 571.716 234.3 570.101 Q232.929 568.469 230.567 568.469 Q228.206 568.469 226.817 570.101 Q225.446 571.716 225.446 574.511 Q225.446 577.323 226.817 578.938 Q228.206 580.553 230.567 580.553 Z" fill="#4c4c4c" fill-rule="evenodd" fill-opacity="1" /><path clip-path="url(#clip010)" d="M253.606 568.469 Q250.897 568.469 249.526 571.143 Q248.172 573.799 248.172 579.146 Q248.172 584.476 249.526 587.15 Q250.897 589.806 253.606 589.806 Q256.331 589.806 257.685 587.15 Q259.057 584.476 259.057 579.146 Q259.057 573.799 257.685 571.143 Q256.331 568.469 253.606 568.469 M253.606 565.692 Q257.963 565.692 260.255 569.146 Q262.564 572.584 262.564 579.146 Q262.564 585.691 260.255 589.146 Q257.963 592.584 253.606 592.584 Q249.248 592.584 246.939 589.146 Q244.647 585.691 244.647 579.146 Q244.647 572.584 246.939 569.146 Q249.248 565.692 253.606 565.692 Z" fill="#4c4c4c" fill-rule="evenodd" fill-opacity="1" /><path clip-path="url(#clip010)" d="M194.335 337.86 L216.592 337.86 L216.592 340.811 L194.335 340.811 L194.335 337.86 Z" fill="#4c4c4c" fill-rule="evenodd" fill-opacity="1" /><path clip-path="url(#clip010)" d="M231.661 338.172 Q229.161 338.172 227.72 339.509 Q226.297 340.846 226.297 343.19 Q226.297 345.534 227.72 346.87 Q229.161 348.207 231.661 348.207 Q234.161 348.207 235.602 346.87 Q237.043 345.516 237.043 343.19 Q237.043 340.846 235.602 339.509 Q234.179 338.172 231.661 338.172 M228.154 336.679 Q225.897 336.124 224.63 334.579 Q223.38 333.034 223.38 330.811 Q223.38 327.704 225.585 325.898 Q227.807 324.093 231.661 324.093 Q235.533 324.093 237.738 325.898 Q239.942 327.704 239.942 330.811 Q239.942 333.034 238.675 334.579 Q237.425 336.124 235.185 336.679 Q237.72 337.27 239.126 338.988 Q240.55 340.707 240.55 343.19 Q240.55 346.957 238.241 348.971 Q235.949 350.985 231.661 350.985 Q227.373 350.985 225.064 348.971 Q222.772 346.957 222.772 343.19 Q222.772 340.707 224.196 338.988 Q225.62 337.27 228.154 336.679 M226.87 331.141 Q226.87 333.155 228.12 334.284 Q229.387 335.412 231.661 335.412 Q233.918 335.412 235.185 334.284 Q236.47 333.155 236.47 331.141 Q236.47 329.127 235.185 327.999 Q233.918 326.87 231.661 326.87 Q229.387 326.87 228.12 327.999 Q226.87 329.127 226.87 331.141 Z" fill="#4c4c4c" fill-rule="evenodd" fill-opacity="1" /><path clip-path="url(#clip010)" d="M245.897 324.561 L262.564 324.561 L262.564 326.054 L253.154 350.481 L249.491 350.481 L258.345 327.513 L245.897 327.513 L245.897 324.561 Z" fill="#4c4c4c" fill-rule="evenodd" fill-opacity="1" /><path clip-path="url(#clip010)" d="M130.608 973.882 L130.608 944.646 L134.544 944.646 L134.544 956.915 L165.168 956.915 L165.168 961.614 L134.544 961.614 L134.544 973.882 L130.608 973.882 Z" fill="#000000" fill-rule="evenodd" fill-opacity="1" /><path clip-path="url(#clip010)" d="M151.141 926.198 L153.224 926.198 L153.224 945.781 Q157.622 945.503 159.937 943.142 Q162.229 940.758 162.229 936.522 Q162.229 934.068 161.627 931.776 Q161.025 929.461 159.821 927.193 L163.849 927.193 Q164.821 929.485 165.33 931.892 Q165.84 934.299 165.84 936.776 Q165.84 942.98 162.229 946.614 Q158.617 950.225 152.46 950.225 Q146.094 950.225 142.368 946.799 Q138.618 943.35 138.618 937.517 Q138.618 932.285 141.997 929.253 Q145.354 926.198 151.141 926.198 M149.891 930.457 Q146.395 930.503 144.312 932.424 Q142.229 934.322 142.229 937.471 Q142.229 941.035 144.243 943.188 Q146.256 945.318 149.914 945.642 L149.891 930.457 Z" fill="#000000" fill-rule="evenodd" fill-opacity="1" /><path clip-path="url(#clip010)" d="M140.006 902.679 L144.034 902.679 Q143.108 904.485 142.645 906.429 Q142.182 908.374 142.182 910.457 Q142.182 913.628 143.155 915.225 Q144.127 916.799 146.071 916.799 Q147.553 916.799 148.409 915.665 Q149.243 914.531 150.006 911.105 L150.33 909.647 Q151.303 905.11 153.085 903.212 Q154.844 901.29 158.016 901.29 Q161.627 901.29 163.733 904.161 Q165.84 907.008 165.84 912.008 Q165.84 914.091 165.423 916.36 Q165.029 918.605 164.219 921.105 L159.821 921.105 Q161.048 918.744 161.673 916.452 Q162.275 914.161 162.275 911.915 Q162.275 908.906 161.256 907.286 Q160.215 905.665 158.34 905.665 Q156.604 905.665 155.678 906.846 Q154.752 908.003 153.895 911.961 L153.548 913.443 Q152.715 917.401 151.002 919.161 Q149.266 920.92 146.256 920.92 Q142.599 920.92 140.608 918.327 Q138.618 915.735 138.618 910.966 Q138.618 908.605 138.965 906.522 Q139.312 904.438 140.006 902.679 Z" fill="#000000" fill-rule="evenodd" fill-opacity="1" /><path clip-path="url(#clip010)" d="M131.882 890.295 L139.243 890.295 L139.243 881.522 L142.553 881.522 L142.553 890.295 L156.627 890.295 Q159.798 890.295 160.701 889.438 Q161.604 888.559 161.604 885.897 L161.604 881.522 L165.168 881.522 L165.168 885.897 Q165.168 890.827 163.34 892.702 Q161.488 894.577 156.627 894.577 L142.553 894.577 L142.553 897.702 L139.243 897.702 L139.243 894.577 L131.882 894.577 L131.882 890.295 Z" fill="#000000" fill-rule="evenodd" fill-opacity="1" /><path clip-path="url(#clip010)" d="M129.15 860.851 L129.15 856.591 L165.168 856.591 L165.168 860.851 L129.15 860.851 Z" fill="#000000" fill-rule="evenodd" fill-opacity="1" /><path clip-path="url(#clip010)" d="M142.229 837.633 Q142.229 841.059 144.914 843.05 Q147.576 845.041 152.229 845.041 Q156.881 845.041 159.567 843.073 Q162.229 841.082 162.229 837.633 Q162.229 834.23 159.543 832.24 Q156.858 830.249 152.229 830.249 Q147.622 830.249 144.937 832.24 Q142.229 834.23 142.229 837.633 M138.618 837.633 Q138.618 832.078 142.229 828.906 Q145.84 825.735 152.229 825.735 Q158.594 825.735 162.229 828.906 Q165.84 832.078 165.84 837.633 Q165.84 843.212 162.229 846.383 Q158.594 849.531 152.229 849.531 Q145.84 849.531 142.229 846.383 Q138.618 843.212 138.618 837.633 Z" fill="#000000" fill-rule="evenodd" fill-opacity="1" /><path clip-path="url(#clip010)" d="M151.905 801.615 Q147.275 801.615 144.729 803.536 Q142.182 805.434 142.182 808.883 Q142.182 812.309 144.729 814.231 Q147.275 816.129 151.905 816.129 Q156.511 816.129 159.057 814.231 Q161.604 812.309 161.604 808.883 Q161.604 805.434 159.057 803.536 Q156.511 801.615 151.905 801.615 M161.951 797.356 Q168.571 797.356 171.789 800.295 Q175.029 803.235 175.029 809.3 Q175.029 811.545 174.682 813.536 Q174.358 815.527 173.664 817.402 L169.52 817.402 Q170.539 815.527 171.025 813.698 Q171.511 811.869 171.511 809.971 Q171.511 805.781 169.312 803.698 Q167.136 801.615 162.715 801.615 L160.608 801.615 Q162.9 802.934 164.034 804.994 Q165.168 807.055 165.168 809.925 Q165.168 814.693 161.534 817.61 Q157.9 820.527 151.905 820.527 Q145.886 820.527 142.252 817.61 Q138.618 814.693 138.618 809.925 Q138.618 807.055 139.752 804.994 Q140.886 802.934 143.178 801.615 L139.243 801.615 L139.243 797.356 L161.951 797.356 Z" fill="#000000" fill-rule="evenodd" fill-opacity="1" /><path clip-path="url(#clip010)" d="M150.284 790.735 L150.284 778.258 L154.08 778.258 L154.08 790.735 L150.284 790.735 Z" fill="#000000" fill-rule="evenodd" fill-opacity="1" /><path clip-path="url(#clip010)" d="M129.15 771.476 L129.15 767.217 L165.168 767.217 L165.168 771.476 L129.15 771.476 Z" fill="#000000" fill-rule="evenodd" fill-opacity="1" /><path clip-path="url(#clip010)" d="M139.243 758.305 L139.243 754.046 L165.168 754.046 L165.168 758.305 L139.243 758.305 M129.15 758.305 L129.15 754.046 L134.544 754.046 L134.544 758.305 L129.15 758.305 Z" fill="#000000" fill-rule="evenodd" fill-opacity="1" /><path clip-path="url(#clip010)" d="M129.15 745.296 L129.15 741.013 L150.423 741.013 L139.243 728.305 L139.243 722.865 L151.372 736.615 L165.168 722.287 L165.168 727.842 L152.506 741.013 L165.168 741.013 L165.168 745.296 L129.15 745.296 Z" fill="#000000" fill-rule="evenodd" fill-opacity="1" /><path clip-path="url(#clip010)" d="M151.141 697.194 L153.224 697.194 L153.224 716.777 Q157.622 716.5 159.937 714.138 Q162.229 711.754 162.229 707.518 Q162.229 705.064 161.627 702.773 Q161.025 700.458 159.821 698.189 L163.849 698.189 Q164.821 700.481 165.33 702.889 Q165.84 705.296 165.84 707.773 Q165.84 713.976 162.229 717.611 Q158.617 721.222 152.46 721.222 Q146.094 721.222 142.368 717.796 Q138.618 714.347 138.618 708.513 Q138.618 703.282 141.997 700.25 Q145.354 697.194 151.141 697.194 M149.891 701.453 Q146.395 701.5 144.312 703.421 Q142.229 705.319 142.229 708.467 Q142.229 712.032 144.243 714.185 Q146.256 716.314 149.914 716.638 L149.891 701.453 Z" fill="#000000" fill-rule="evenodd" fill-opacity="1" /><path clip-path="url(#clip010)" d="M129.15 690.203 L129.15 685.944 L165.168 685.944 L165.168 690.203 L129.15 690.203 Z" fill="#000000" fill-rule="evenodd" fill-opacity="1" /><path clip-path="url(#clip010)" d="M139.243 677.032 L139.243 672.773 L165.168 672.773 L165.168 677.032 L139.243 677.032 M129.15 677.032 L129.15 672.773 L134.544 672.773 L134.544 677.032 L129.15 677.032 Z" fill="#000000" fill-rule="evenodd" fill-opacity="1" /><path clip-path="url(#clip010)" d="M149.52 642.31 L165.168 642.31 L165.168 646.569 L149.659 646.569 Q145.979 646.569 144.15 648.005 Q142.321 649.44 142.321 652.31 Q142.321 655.759 144.52 657.75 Q146.719 659.741 150.516 659.741 L165.168 659.741 L165.168 664.023 L129.15 664.023 L129.15 659.741 L143.27 659.741 Q140.932 658.213 139.775 656.153 Q138.618 654.069 138.618 651.361 Q138.618 646.893 141.395 644.602 Q144.15 642.31 149.52 642.31 Z" fill="#000000" fill-rule="evenodd" fill-opacity="1" /><path clip-path="url(#clip010)" d="M142.229 623.769 Q142.229 627.194 144.914 629.185 Q147.576 631.176 152.229 631.176 Q156.881 631.176 159.567 629.208 Q162.229 627.218 162.229 623.769 Q162.229 620.366 159.543 618.375 Q156.858 616.384 152.229 616.384 Q147.622 616.384 144.937 618.375 Q142.229 620.366 142.229 623.769 M138.618 623.769 Q138.618 618.213 142.229 615.042 Q145.84 611.87 152.229 611.87 Q158.594 611.87 162.229 615.042 Q165.84 618.213 165.84 623.769 Q165.84 629.347 162.229 632.519 Q158.594 635.667 152.229 635.667 Q145.84 635.667 142.229 632.519 Q138.618 629.347 138.618 623.769 Z" fill="#000000" fill-rule="evenodd" fill-opacity="1" /><path clip-path="url(#clip010)" d="M142.229 594.764 Q142.229 598.19 144.914 600.181 Q147.576 602.171 152.229 602.171 Q156.881 602.171 159.567 600.204 Q162.229 598.213 162.229 594.764 Q162.229 591.361 159.543 589.371 Q156.858 587.38 152.229 587.38 Q147.622 587.38 144.937 589.371 Q142.229 591.361 142.229 594.764 M138.618 594.764 Q138.618 589.209 142.229 586.037 Q145.84 582.866 152.229 582.866 Q158.594 582.866 162.229 586.037 Q165.84 589.209 165.84 594.764 Q165.84 600.343 162.229 603.514 Q158.594 606.662 152.229 606.662 Q145.84 606.662 142.229 603.514 Q138.618 600.343 138.618 594.764 Z" fill="#000000" fill-rule="evenodd" fill-opacity="1" /><path clip-path="url(#clip010)" d="M143.178 558.746 L129.15 558.746 L129.15 554.487 L165.168 554.487 L165.168 558.746 L161.28 558.746 Q163.594 560.088 164.729 562.149 Q165.84 564.186 165.84 567.056 Q165.84 571.755 162.09 574.718 Q158.34 577.658 152.229 577.658 Q146.118 577.658 142.368 574.718 Q138.618 571.755 138.618 567.056 Q138.618 564.186 139.752 562.149 Q140.863 560.088 143.178 558.746 M152.229 573.26 Q156.928 573.26 159.613 571.338 Q162.275 569.394 162.275 566.014 Q162.275 562.635 159.613 560.69 Q156.928 558.746 152.229 558.746 Q147.53 558.746 144.868 560.69 Q142.182 562.635 142.182 566.014 Q142.182 569.394 144.868 571.338 Q147.53 573.26 152.229 573.26 Z" fill="#000000" fill-rule="evenodd" fill-opacity="1" /><path clip-path="url(#clip010)" d="M1261.44 24.4096 Q1260.54 23.8888 1259.47 23.6573 Q1258.43 23.3969 1257.16 23.3969 Q1252.64 23.3969 1250.21 26.3482 Q1247.81 29.2707 1247.81 34.7683 L1247.81 51.84 L1242.46 51.84 L1242.46 19.4328 L1247.81 19.4328 L1247.81 24.4675 Q1249.49 21.5161 1252.18 20.0983 Q1254.87 18.6515 1258.72 18.6515 Q1259.27 18.6515 1259.94 18.7383 Q1260.6 18.7962 1261.41 18.9409 L1261.44 24.4096 Z" fill="#000000" fill-rule="evenodd" fill-opacity="1" /><path clip-path="url(#clip010)" d="M1293.44 34.3054 L1293.44 36.9095 L1268.96 36.9095 Q1269.31 42.4072 1272.26 45.3007 Q1275.24 48.1653 1280.54 48.1653 Q1283.6 48.1653 1286.47 47.4129 Q1289.36 46.6606 1292.2 45.156 L1292.2 50.1907 Q1289.33 51.406 1286.32 52.0425 Q1283.31 52.6791 1280.22 52.6791 Q1272.46 52.6791 1267.92 48.1653 Q1263.41 43.6514 1263.41 35.9547 Q1263.41 27.9975 1267.69 23.339 Q1272 18.6515 1279.29 18.6515 Q1285.83 18.6515 1289.62 22.876 Q1293.44 27.0716 1293.44 34.3054 M1288.12 32.7429 Q1288.06 28.3737 1285.66 25.7695 Q1283.29 23.1654 1279.35 23.1654 Q1274.89 23.1654 1272.2 25.6827 Q1269.54 28.2001 1269.14 32.7718 L1288.12 32.7429 Z" fill="#000000" fill-rule="evenodd" fill-opacity="1" /><path clip-path="url(#clip010)" d="M1301.63 39.0507 L1301.63 19.4328 L1306.95 19.4328 L1306.95 38.8482 Q1306.95 43.4488 1308.75 45.7636 Q1310.54 48.0495 1314.13 48.0495 Q1318.44 48.0495 1320.93 45.3007 Q1323.45 42.5519 1323.45 37.8065 L1323.45 19.4328 L1328.77 19.4328 L1328.77 51.84 L1323.45 51.84 L1323.45 46.8632 Q1321.51 49.8145 1318.93 51.2613 Q1316.39 52.6791 1313 52.6791 Q1307.42 52.6791 1304.52 49.2069 Q1301.63 45.7347 1301.63 39.0507 M1315.03 18.6515 L1315.03 18.6515 Z" fill="#000000" fill-rule="evenodd" fill-opacity="1" /><path clip-path="url(#clip010)" d="M1345 10.2314 L1345 19.4328 L1355.97 19.4328 L1355.97 23.5705 L1345 23.5705 L1345 41.163 Q1345 45.1271 1346.07 46.2555 Q1347.17 47.384 1350.5 47.384 L1355.97 47.384 L1355.97 51.84 L1350.5 51.84 Q1344.34 51.84 1341.99 49.5541 Q1339.65 47.2393 1339.65 41.163 L1339.65 23.5705 L1335.74 23.5705 L1335.74 19.4328 L1339.65 19.4328 L1339.65 10.2314 L1345 10.2314 Z" fill="#000000" fill-rule="evenodd" fill-opacity="1" /><path clip-path="url(#clip010)" d="M1363.78 8.64 L1386.73 8.64 L1386.73 13.559 L1369.14 13.559 L1369.14 24.1492 Q1370.41 23.7152 1371.68 23.5126 Q1372.96 23.2811 1374.23 23.2811 Q1381.46 23.2811 1385.69 27.2452 Q1389.91 31.2093 1389.91 37.9801 Q1389.91 44.9535 1385.57 48.8308 Q1381.23 52.6791 1373.33 52.6791 Q1370.61 52.6791 1367.78 52.2162 Q1364.97 51.7532 1361.96 50.8273 L1361.96 44.9535 Q1364.56 46.3713 1367.34 47.0657 Q1370.12 47.7602 1373.22 47.7602 Q1378.22 47.7602 1381.14 45.1271 Q1384.07 42.494 1384.07 37.9801 Q1384.07 33.4663 1381.14 30.8332 Q1378.22 28.2001 1373.22 28.2001 Q1370.87 28.2001 1368.53 28.7209 Q1366.21 29.2417 1363.78 30.3413 L1363.78 8.64 Z" fill="#000000" fill-rule="evenodd" fill-opacity="1" /><path clip-path="url(#clip010)" d="M1406.46 46.921 L1426.86 46.921 L1426.86 51.84 L1399.43 51.84 L1399.43 46.921 Q1402.76 43.4778 1408.49 37.6908 Q1414.25 31.8748 1415.72 30.1966 Q1418.53 27.0427 1419.63 24.8726 Q1420.76 22.6735 1420.76 20.5612 Q1420.76 17.118 1418.33 14.9478 Q1415.92 12.7777 1412.05 12.7777 Q1409.3 12.7777 1406.23 13.7326 Q1403.19 14.6874 1399.72 16.6261 L1399.72 10.7233 Q1403.25 9.30551 1406.32 8.58213 Q1409.38 7.85875 1411.93 7.85875 Q1418.64 7.85875 1422.64 11.2152 Q1426.63 14.5717 1426.63 20.1851 Q1426.63 22.8471 1425.62 25.2487 Q1424.63 27.6214 1422 30.8621 Q1421.28 31.7012 1417.4 35.7232 Q1413.52 39.7162 1406.46 46.921 Z" fill="#000000" fill-rule="evenodd" fill-opacity="1" /><polyline clip-path="url(#clip012)" style="stroke:#e26f46; stroke-linecap:butt; stroke-linejoin:round; stroke-width:8; stroke-opacity:1; fill:none" points="
  403.745,181.287 433.298,181.287 462.85,181.287 492.403,181.287 521.956,181.287 551.509,181.287 581.062,181.287 610.615,181.287 640.168,181.287 669.72,181.287 
  699.273,181.287 728.826,181.287 758.379,181.287 787.932,181.287 817.485,181.287 847.038,181.287 876.591,181.287 906.143,181.287 935.696,181.287 965.249,181.287 
  994.802,181.287 1024.35,181.287 1053.91,181.287 1083.46,181.287 1113.01,181.287 1142.57,181.287 1172.12,181.287 1201.67,181.287 1231.22,181.287 1260.78,181.287 
  1290.33,181.287 1319.88,181.287 1349.44,181.287 1378.99,181.287 1408.54,181.287 1438.09,181.287 1467.65,181.287 1497.2,181.287 1526.75,181.287 1556.31,181.287 
  1585.86,181.287 1615.41,181.287 1644.96,181.287 1674.52,181.287 1704.07,181.287 1733.62,181.287 1763.18,181.287 1792.73,181.287 1822.28,181.287 1851.83,181.287 
  1881.39,181.287 1910.94,181.287 1940.49,181.287 1970.05,181.287 1999.6,181.287 2029.15,181.287 2058.7,181.287 2088.26,181.287 2117.81,181.287 2147.36,181.287 
  2176.92,181.287 2206.47,181.287 2236.02,181.287 2265.57,181.287 2295.13,181.287 
  "/>
<polyline clip-path="url(#clip012)" style="stroke:#3da44d; stroke-linecap:butt; stroke-linejoin:round; stroke-width:8; stroke-opacity:1; fill:none" points="
  403.745,274.706 433.298,274.706 462.85,274.706 492.403,274.706 521.956,274.706 551.509,274.706 581.062,274.706 610.615,274.706 640.168,274.706 669.72,274.706 
  699.273,274.706 728.826,274.706 758.379,274.706 787.932,274.706 817.485,274.706 847.038,274.706 876.591,274.706 906.143,274.706 935.696,274.706 965.249,274.706 
  994.802,274.706 1024.35,274.706 1053.91,274.706 1083.46,274.706 1113.01,274.706 1142.57,274.706 1172.12,274.706 1201.67,274.706 1231.22,274.706 1260.78,274.706 
  1290.33,274.706 1319.88,274.706 1349.44,274.706 1378.99,274.706 1408.54,274.706 1438.09,274.706 1467.65,274.706 1497.2,274.706 1526.75,274.706 1556.31,274.706 
  1585.86,274.706 1615.41,274.706 1644.96,274.706 1674.52,274.706 1704.07,274.706 1733.62,274.706 1763.18,274.706 1792.73,274.706 1822.28,274.706 1851.83,274.706 
  1881.39,274.706 1910.94,274.706 1940.49,274.706 1970.05,274.706 1999.6,274.706 2029.15,274.706 2058.7,274.706 2088.26,274.706 2117.81,274.706 2147.36,274.706 
  2176.92,274.706 2206.47,274.706 2236.02,274.706 2265.57,274.706 2295.13,274.706 
  "/>
<polyline clip-path="url(#clip012)" style="stroke:#c271d2; stroke-linecap:butt; stroke-linejoin:round; stroke-width:8; stroke-opacity:1; fill:none" points="
  403.745,547.712 433.298,547.712 462.85,547.712 492.403,547.712 521.956,547.712 551.509,547.712 581.062,547.712 610.615,547.712 640.168,547.712 669.72,547.712 
  699.273,547.712 728.826,547.712 758.379,547.712 787.932,547.712 817.485,547.712 847.038,547.712 876.591,547.712 906.143,547.712 935.696,547.712 965.249,547.712 
  994.802,547.712 1024.35,547.712 1053.91,547.712 1083.46,547.712 1113.01,547.712 1142.57,547.712 1172.12,547.712 1201.67,547.712 1231.22,547.712 1260.78,547.712 
  1290.33,547.712 1319.88,547.712 1349.44,547.712 1378.99,547.712 1408.54,547.712 1438.09,547.712 1467.65,547.712 1497.2,547.712 1526.75,547.712 1556.31,547.712 
  1585.86,547.712 1615.41,547.712 1644.96,547.712 1674.52,547.712 1704.07,547.712 1733.62,547.712 1763.18,547.712 1792.73,547.712 1822.28,547.712 1851.83,547.712 
  1881.39,547.712 1910.94,547.712 1940.49,547.712 1970.05,547.712 1999.6,547.712 2029.15,547.712 2058.7,547.712 2088.26,547.712 2117.81,547.712 2147.36,547.712 
  2176.92,547.712 2206.47,547.712 2236.02,547.712 2265.57,547.712 2295.13,547.712 
  "/>
<polyline clip-path="url(#clip012)" style="stroke:#ac8d18; stroke-linecap:butt; stroke-linejoin:round; stroke-width:8; stroke-opacity:1; fill:none" points="
  403.745,152.296 433.298,152.296 462.85,152.296 492.403,152.296 521.956,152.296 551.509,152.296 581.062,152.296 610.615,152.296 640.168,152.296 669.72,152.296 
  699.273,152.296 728.826,152.296 758.379,152.296 787.932,152.296 817.485,152.296 847.038,152.296 876.591,152.296 906.143,152.296 935.696,152.296 965.249,152.296 
  994.802,152.296 1024.35,152.296 1053.91,152.296 1083.46,152.296 1113.01,152.296 1142.57,152.296 1172.12,152.296 1201.67,152.296 1231.22,152.296 1260.78,152.296 
  1290.33,152.296 1319.88,152.296 1349.44,152.296 1378.99,152.296 1408.54,152.296 1438.09,152.296 1467.65,152.296 1497.2,152.296 1526.75,152.296 1556.31,152.296 
  1585.86,152.296 1615.41,152.296 1644.96,152.296 1674.52,152.296 1704.07,152.296 1733.62,152.296 1763.18,152.296 1792.73,152.296 1822.28,152.296 1851.83,152.296 
  1881.39,152.296 1910.94,152.296 1940.49,152.296 1970.05,152.296 1999.6,152.296 2029.15,152.296 2058.7,152.296 2088.26,152.296 2117.81,152.296 2147.36,152.296 
  2176.92,152.296 2206.47,152.296 2236.02,152.296 2265.57,152.296 2295.13,152.296 
  "/>
<polyline clip-path="url(#clip012)" style="stroke:#00a9ad; stroke-linecap:butt; stroke-linejoin:round; stroke-width:8; stroke-opacity:1; fill:none" points="
  403.745,143.437 433.298,143.437 462.85,143.437 492.403,143.437 521.956,143.437 551.509,143.437 581.062,143.437 610.615,143.437 640.168,143.437 669.72,143.437 
  699.273,143.437 728.826,143.437 758.379,143.437 787.932,143.437 817.485,143.437 847.038,143.437 876.591,143.437 906.143,143.437 935.696,143.437 965.249,143.437 
  994.802,143.437 1024.35,143.437 1053.91,143.437 1083.46,143.437 1113.01,143.437 1142.57,143.437 1172.12,143.437 1201.67,143.437 1231.22,143.437 1260.78,143.437 
  1290.33,143.437 1319.88,143.437 1349.44,143.437 1378.99,143.437 1408.54,143.437 1438.09,143.437 1467.65,143.437 1497.2,143.437 1526.75,143.437 1556.31,143.437 
  1585.86,143.437 1615.41,143.437 1644.96,143.437 1674.52,143.437 1704.07,143.437 1733.62,143.437 1763.18,143.437 1792.73,143.437 1822.28,143.437 1851.83,143.437 
  1881.39,143.437 1910.94,143.437 1940.49,143.437 1970.05,143.437 1999.6,143.437 2029.15,143.437 2058.7,143.437 2088.26,143.437 2117.81,143.437 2147.36,143.437 
  2176.92,143.437 2206.47,143.437 2236.02,143.437 2265.57,143.437 2295.13,143.437 
  "/>
<polyline clip-path="url(#clip012)" style="stroke:#009af9; stroke-linecap:butt; stroke-linejoin:round; stroke-width:12; stroke-opacity:1; fill:none" points="
  403.745,867.695 433.298,692.736 462.85,587.816 492.403,573.835 521.956,526.537 551.509,475.611 581.062,1384.93 610.615,505.314 640.168,456.325 669.72,439.166 
  699.273,434.65 728.826,430.951 758.379,412.485 787.932,778.917 817.485,461.991 847.038,416.978 876.591,389.784 906.143,370.165 935.696,370.706 965.249,363.207 
  994.802,559.626 1024.35,427.414 1053.91,385.557 1083.46,371.066 1113.01,355.983 1142.57,353.409 1172.12,343.436 1201.67,448.539 1231.22,393.38 1260.78,372.218 
  1290.33,359.233 1319.88,349.996 1349.44,343.551 1378.99,337.466 1408.54,396.24 1438.09,376.872 1467.65,360.615 1497.2,349.442 1526.75,340.822 1556.31,335.078 
  1585.86,331.787 1615.41,364.79 1644.96,355.853 1674.52,349.929 1704.07,347.068 1733.62,341.993 1763.18,336.54 1792.73,333.778 1822.28,350.992 1851.83,347.293 
  
  "/>
<polyline clip-path="url(#clip012)" style="stroke:#f05f73; stroke-linecap:butt; stroke-linejoin:round; stroke-width:12; stroke-opacity:1; fill:none" points="
  1851.83,347.293 1881.39,328.007 1910.94,331.532 1940.49,333.893 1970.05,335.312 1999.6,336.264 2029.15,337.088 2058.7,337.903 2088.26,338.769 2117.81,339.706 
  2147.36,340.482 2176.92,341.13 2206.47,341.543 2236.02,341.768 2265.57,341.903 2295.13,342.01 
  "/>
</svg>
