<?xml version="1.0" encoding="utf-8"?>
<svg xmlns="http://www.w3.org/2000/svg" xmlns:xlink="http://www.w3.org/1999/xlink" width="600" height="400" viewBox="0 0 2400 1600">
<defs>
  <clipPath id="clip260">
    <rect x="0" y="0" width="2400" height="1600"/>
  </clipPath>
</defs>
<path clip-path="url(#clip260)" d="
M0 1600 L2400 1600 L2400 0 L0 0  Z
  " fill="#ffffff" fill-rule="evenodd" fill-opacity="1"/>
<defs>
  <clipPath id="clip261">
    <rect x="480" y="0" width="1681" height="1600"/>
  </clipPath>
</defs>
<path clip-path="url(#clip260)" d="
M206.328 1444.78 L2352.76 1444.78 L2352.76 106.192 L206.328 106.192  Z
  " fill="#eaeaea" fill-rule="evenodd" fill-opacity="1"/>
<defs>
  <clipPath id="clip262">
    <rect x="206" y="106" width="2147" height="1340"/>
  </clipPath>
</defs>
<polyline clip-path="url(#clip262)" style="stroke:#ffffff; stroke-linecap:butt; stroke-linejoin:round; stroke-width:4; stroke-opacity:1; fill:none" points="
  267.076,1444.78 267.076,106.192 
  "/>
<polyline clip-path="url(#clip262)" style="stroke:#ffffff; stroke-linecap:butt; stroke-linejoin:round; stroke-width:4; stroke-opacity:1; fill:none" points="
  469.569,1444.78 469.569,106.192 
  "/>
<polyline clip-path="url(#clip262)" style="stroke:#ffffff; stroke-linecap:butt; stroke-linejoin:round; stroke-width:4; stroke-opacity:1; fill:none" points="
  672.062,1444.78 672.062,106.192 
  "/>
<polyline clip-path="url(#clip262)" style="stroke:#ffffff; stroke-linecap:butt; stroke-linejoin:round; stroke-width:4; stroke-opacity:1; fill:none" points="
  874.555,1444.78 874.555,106.192 
  "/>
<polyline clip-path="url(#clip262)" style="stroke:#ffffff; stroke-linecap:butt; stroke-linejoin:round; stroke-width:4; stroke-opacity:1; fill:none" points="
  1077.05,1444.78 1077.05,106.192 
  "/>
<polyline clip-path="url(#clip262)" style="stroke:#ffffff; stroke-linecap:butt; stroke-linejoin:round; stroke-width:4; stroke-opacity:1; fill:none" points="
  1279.54,1444.78 1279.54,106.192 
  "/>
<polyline clip-path="url(#clip262)" style="stroke:#ffffff; stroke-linecap:butt; stroke-linejoin:round; stroke-width:4; stroke-opacity:1; fill:none" points="
  1482.03,1444.78 1482.03,106.192 
  "/>
<polyline clip-path="url(#clip262)" style="stroke:#ffffff; stroke-linecap:butt; stroke-linejoin:round; stroke-width:4; stroke-opacity:1; fill:none" points="
  1684.53,1444.78 1684.53,106.192 
  "/>
<polyline clip-path="url(#clip262)" style="stroke:#ffffff; stroke-linecap:butt; stroke-linejoin:round; stroke-width:4; stroke-opacity:1; fill:none" points="
  1887.02,1444.78 1887.02,106.192 
  "/>
<polyline clip-path="url(#clip262)" style="stroke:#ffffff; stroke-linecap:butt; stroke-linejoin:round; stroke-width:4; stroke-opacity:1; fill:none" points="
  2089.51,1444.78 2089.51,106.192 
  "/>
<polyline clip-path="url(#clip262)" style="stroke:#ffffff; stroke-linecap:butt; stroke-linejoin:round; stroke-width:4; stroke-opacity:1; fill:none" points="
  2292.01,1444.78 2292.01,106.192 
  "/>
<polyline clip-path="url(#clip262)" style="stroke:#ffffff; stroke-linecap:butt; stroke-linejoin:round; stroke-width:2; stroke-opacity:1; fill:none" points="
  368.322,1444.78 368.322,106.192 
  "/>
<polyline clip-path="url(#clip262)" style="stroke:#ffffff; stroke-linecap:butt; stroke-linejoin:round; stroke-width:2; stroke-opacity:1; fill:none" points="
  570.815,1444.78 570.815,106.192 
  "/>
<polyline clip-path="url(#clip262)" style="stroke:#ffffff; stroke-linecap:butt; stroke-linejoin:round; stroke-width:2; stroke-opacity:1; fill:none" points="
  773.309,1444.78 773.309,106.192 
  "/>
<polyline clip-path="url(#clip262)" style="stroke:#ffffff; stroke-linecap:butt; stroke-linejoin:round; stroke-width:2; stroke-opacity:1; fill:none" points="
  975.802,1444.78 975.802,106.192 
  "/>
<polyline clip-path="url(#clip262)" style="stroke:#ffffff; stroke-linecap:butt; stroke-linejoin:round; stroke-width:2; stroke-opacity:1; fill:none" points="
  1178.3,1444.78 1178.3,106.192 
  "/>
<polyline clip-path="url(#clip262)" style="stroke:#ffffff; stroke-linecap:butt; stroke-linejoin:round; stroke-width:2; stroke-opacity:1; fill:none" points="
  1380.79,1444.78 1380.79,106.192 
  "/>
<polyline clip-path="url(#clip262)" style="stroke:#ffffff; stroke-linecap:butt; stroke-linejoin:round; stroke-width:2; stroke-opacity:1; fill:none" points="
  1583.28,1444.78 1583.28,106.192 
  "/>
<polyline clip-path="url(#clip262)" style="stroke:#ffffff; stroke-linecap:butt; stroke-linejoin:round; stroke-width:2; stroke-opacity:1; fill:none" points="
  1785.77,1444.78 1785.77,106.192 
  "/>
<polyline clip-path="url(#clip262)" style="stroke:#ffffff; stroke-linecap:butt; stroke-linejoin:round; stroke-width:2; stroke-opacity:1; fill:none" points="
  1988.27,1444.78 1988.27,106.192 
  "/>
<polyline clip-path="url(#clip262)" style="stroke:#ffffff; stroke-linecap:butt; stroke-linejoin:round; stroke-width:2; stroke-opacity:1; fill:none" points="
  2190.76,1444.78 2190.76,106.192 
  "/>
<polyline clip-path="url(#clip260)" style="stroke:#ffffff; stroke-linecap:butt; stroke-linejoin:round; stroke-width:4; stroke-opacity:1; fill:none" points="
  206.328,1444.78 2352.76,1444.78 
  "/>
<polyline clip-path="url(#clip260)" style="stroke:#333333; stroke-linecap:butt; stroke-linejoin:round; stroke-width:4; stroke-opacity:1; fill:none" points="
  267.076,1444.78 267.076,1463.68 
  "/>
<polyline clip-path="url(#clip260)" style="stroke:#333333; stroke-linecap:butt; stroke-linejoin:round; stroke-width:4; stroke-opacity:1; fill:none" points="
  469.569,1444.78 469.569,1463.68 
  "/>
<polyline clip-path="url(#clip260)" style="stroke:#333333; stroke-linecap:butt; stroke-linejoin:round; stroke-width:4; stroke-opacity:1; fill:none" points="
  672.062,1444.78 672.062,1463.68 
  "/>
<polyline clip-path="url(#clip260)" style="stroke:#333333; stroke-linecap:butt; stroke-linejoin:round; stroke-width:4; stroke-opacity:1; fill:none" points="
  874.555,1444.78 874.555,1463.68 
  "/>
<polyline clip-path="url(#clip260)" style="stroke:#333333; stroke-linecap:butt; stroke-linejoin:round; stroke-width:4; stroke-opacity:1; fill:none" points="
  1077.05,1444.78 1077.05,1463.68 
  "/>
<polyline clip-path="url(#clip260)" style="stroke:#333333; stroke-linecap:butt; stroke-linejoin:round; stroke-width:4; stroke-opacity:1; fill:none" points="
  1279.54,1444.78 1279.54,1463.68 
  "/>
<polyline clip-path="url(#clip260)" style="stroke:#333333; stroke-linecap:butt; stroke-linejoin:round; stroke-width:4; stroke-opacity:1; fill:none" points="
  1482.03,1444.78 1482.03,1463.68 
  "/>
<polyline clip-path="url(#clip260)" style="stroke:#333333; stroke-linecap:butt; stroke-linejoin:round; stroke-width:4; stroke-opacity:1; fill:none" points="
  1684.53,1444.78 1684.53,1463.68 
  "/>
<polyline clip-path="url(#clip260)" style="stroke:#333333; stroke-linecap:butt; stroke-linejoin:round; stroke-width:4; stroke-opacity:1; fill:none" points="
  1887.02,1444.78 1887.02,1463.68 
  "/>
<polyline clip-path="url(#clip260)" style="stroke:#333333; stroke-linecap:butt; stroke-linejoin:round; stroke-width:4; stroke-opacity:1; fill:none" points="
  2089.51,1444.78 2089.51,1463.68 
  "/>
<polyline clip-path="url(#clip260)" style="stroke:#333333; stroke-linecap:butt; stroke-linejoin:round; stroke-width:4; stroke-opacity:1; fill:none" points="
  2292.01,1444.78 2292.01,1463.68 
  "/>
<polyline clip-path="url(#clip260)" style="stroke:#333333; stroke-linecap:butt; stroke-linejoin:round; stroke-width:4; stroke-opacity:1; fill:none" points="
  368.322,1444.78 368.322,1454.23 
  "/>
<polyline clip-path="url(#clip260)" style="stroke:#333333; stroke-linecap:butt; stroke-linejoin:round; stroke-width:4; stroke-opacity:1; fill:none" points="
  570.815,1444.78 570.815,1454.23 
  "/>
<polyline clip-path="url(#clip260)" style="stroke:#333333; stroke-linecap:butt; stroke-linejoin:round; stroke-width:4; stroke-opacity:1; fill:none" points="
  773.309,1444.78 773.309,1454.23 
  "/>
<polyline clip-path="url(#clip260)" style="stroke:#333333; stroke-linecap:butt; stroke-linejoin:round; stroke-width:4; stroke-opacity:1; fill:none" points="
  975.802,1444.78 975.802,1454.23 
  "/>
<polyline clip-path="url(#clip260)" style="stroke:#333333; stroke-linecap:butt; stroke-linejoin:round; stroke-width:4; stroke-opacity:1; fill:none" points="
  1178.3,1444.78 1178.3,1454.23 
  "/>
<polyline clip-path="url(#clip260)" style="stroke:#333333; stroke-linecap:butt; stroke-linejoin:round; stroke-width:4; stroke-opacity:1; fill:none" points="
  1380.79,1444.78 1380.79,1454.23 
  "/>
<polyline clip-path="url(#clip260)" style="stroke:#333333; stroke-linecap:butt; stroke-linejoin:round; stroke-width:4; stroke-opacity:1; fill:none" points="
  1583.28,1444.78 1583.28,1454.23 
  "/>
<polyline clip-path="url(#clip260)" style="stroke:#333333; stroke-linecap:butt; stroke-linejoin:round; stroke-width:4; stroke-opacity:1; fill:none" points="
  1785.77,1444.78 1785.77,1454.23 
  "/>
<polyline clip-path="url(#clip260)" style="stroke:#333333; stroke-linecap:butt; stroke-linejoin:round; stroke-width:4; stroke-opacity:1; fill:none" points="
  1988.27,1444.78 1988.27,1454.23 
  "/>
<polyline clip-path="url(#clip260)" style="stroke:#333333; stroke-linecap:butt; stroke-linejoin:round; stroke-width:4; stroke-opacity:1; fill:none" points="
  2190.76,1444.78 2190.76,1454.23 
  "/>
<path clip-path="url(#clip260)" d="M267.076 1482.37 Q264.367 1482.37 262.996 1485.04 Q261.642 1487.7 261.642 1493.05 Q261.642 1498.38 262.996 1501.05 Q264.367 1503.71 267.076 1503.71 Q269.801 1503.71 271.155 1501.05 Q272.527 1498.38 272.527 1493.05 Q272.527 1487.7 271.155 1485.04 Q269.801 1482.37 267.076 1482.37 M267.076 1479.59 Q271.433 1479.59 273.725 1483.05 Q276.034 1486.48 276.034 1493.05 Q276.034 1499.59 273.725 1503.05 Q271.433 1506.48 267.076 1506.48 Q262.718 1506.48 260.409 1503.05 Q258.117 1499.59 258.117 1493.05 Q258.117 1486.48 260.409 1483.05 Q262.718 1479.59 267.076 1479.59 Z" fill="#4c4c4c" fill-rule="evenodd" fill-opacity="1" /><path clip-path="url(#clip260)" d="M450.585 1503.03 L456.314 1503.03 L456.314 1483.25 L450.081 1484.5 L450.081 1481.31 L456.279 1480.06 L459.786 1480.06 L459.786 1503.03 L465.515 1503.03 L465.515 1505.98 L450.585 1505.98 L450.585 1503.03 Z" fill="#4c4c4c" fill-rule="evenodd" fill-opacity="1" /><path clip-path="url(#clip260)" d="M480.098 1482.37 Q477.39 1482.37 476.018 1485.04 Q474.664 1487.7 474.664 1493.05 Q474.664 1498.38 476.018 1501.05 Q477.39 1503.71 480.098 1503.71 Q482.824 1503.71 484.178 1501.05 Q485.55 1498.38 485.55 1493.05 Q485.55 1487.7 484.178 1485.04 Q482.824 1482.37 480.098 1482.37 M480.098 1479.59 Q484.456 1479.59 486.748 1483.05 Q489.057 1486.48 489.057 1493.05 Q489.057 1499.59 486.748 1503.05 Q484.456 1506.48 480.098 1506.48 Q475.741 1506.48 473.432 1503.05 Q471.14 1499.59 471.14 1493.05 Q471.14 1486.48 473.432 1483.05 Q475.741 1479.59 480.098 1479.59 Z" fill="#4c4c4c" fill-rule="evenodd" fill-opacity="1" /><path clip-path="url(#clip260)" d="M656.142 1503.03 L668.381 1503.03 L668.381 1505.98 L651.923 1505.98 L651.923 1503.03 Q653.92 1500.96 657.357 1497.49 Q660.812 1494 661.697 1492.99 Q663.382 1491.1 664.041 1489.8 Q664.718 1488.48 664.718 1487.21 Q664.718 1485.15 663.26 1483.84 Q661.819 1482.54 659.493 1482.54 Q657.843 1482.54 656.003 1483.12 Q654.18 1483.69 652.097 1484.85 L652.097 1481.31 Q654.215 1480.46 656.055 1480.03 Q657.895 1479.59 659.423 1479.59 Q663.451 1479.59 665.847 1481.6 Q668.243 1483.62 668.243 1486.99 Q668.243 1488.58 667.635 1490.03 Q667.045 1491.45 665.465 1493.39 Q665.031 1493.9 662.704 1496.31 Q660.378 1498.71 656.142 1503.03 Z" fill="#4c4c4c" fill-rule="evenodd" fill-opacity="1" /><path clip-path="url(#clip260)" d="M683.243 1482.37 Q680.534 1482.37 679.163 1485.04 Q677.809 1487.7 677.809 1493.05 Q677.809 1498.38 679.163 1501.05 Q680.534 1503.71 683.243 1503.71 Q685.968 1503.71 687.322 1501.05 Q688.694 1498.38 688.694 1493.05 Q688.694 1487.7 687.322 1485.04 Q685.968 1482.37 683.243 1482.37 M683.243 1479.59 Q687.6 1479.59 689.892 1483.05 Q692.201 1486.48 692.201 1493.05 Q692.201 1499.59 689.892 1503.05 Q687.6 1506.48 683.243 1506.48 Q678.885 1506.48 676.576 1503.05 Q674.284 1499.59 674.284 1493.05 Q674.284 1486.48 676.576 1483.05 Q678.885 1479.59 683.243 1479.59 Z" fill="#4c4c4c" fill-rule="evenodd" fill-opacity="1" /><path clip-path="url(#clip260)" d="M866.187 1492 Q868.705 1492.54 870.111 1494.24 Q871.534 1495.95 871.534 1498.45 Q871.534 1502.28 868.896 1504.38 Q866.257 1506.48 861.396 1506.48 Q859.764 1506.48 858.028 1506.15 Q856.309 1505.84 854.469 1505.2 L854.469 1501.81 Q855.927 1502.66 857.663 1503.1 Q859.399 1503.53 861.291 1503.53 Q864.59 1503.53 866.309 1502.23 Q868.045 1500.93 868.045 1498.45 Q868.045 1496.15 866.43 1494.87 Q864.833 1493.57 861.969 1493.57 L858.948 1493.57 L858.948 1490.68 L862.107 1490.68 Q864.694 1490.68 866.066 1489.66 Q867.437 1488.62 867.437 1486.67 Q867.437 1484.68 866.014 1483.62 Q864.607 1482.54 861.969 1482.54 Q860.528 1482.54 858.878 1482.85 Q857.229 1483.17 855.25 1483.83 L855.25 1480.7 Q857.246 1480.15 858.982 1479.87 Q860.736 1479.59 862.281 1479.59 Q866.274 1479.59 868.6 1481.41 Q870.927 1483.22 870.927 1486.31 Q870.927 1488.46 869.694 1489.96 Q868.462 1491.43 866.187 1492 Z" fill="#4c4c4c" fill-rule="evenodd" fill-opacity="1" /><path clip-path="url(#clip260)" d="M885.684 1482.37 Q882.975 1482.37 881.604 1485.04 Q880.25 1487.7 880.25 1493.05 Q880.25 1498.38 881.604 1501.05 Q882.975 1503.71 885.684 1503.71 Q888.409 1503.71 889.764 1501.05 Q891.135 1498.38 891.135 1493.05 Q891.135 1487.7 889.764 1485.04 Q888.409 1482.37 885.684 1482.37 M885.684 1479.59 Q890.041 1479.59 892.333 1483.05 Q894.642 1486.48 894.642 1493.05 Q894.642 1499.59 892.333 1503.05 Q890.041 1506.48 885.684 1506.48 Q881.326 1506.48 879.017 1503.05 Q876.725 1499.59 876.725 1493.05 Q876.725 1486.48 879.017 1483.05 Q881.326 1479.59 885.684 1479.59 Z" fill="#4c4c4c" fill-rule="evenodd" fill-opacity="1" /><path clip-path="url(#clip260)" d="M1068.18 1483.12 L1059.32 1496.95 L1068.18 1496.95 L1068.18 1483.12 M1067.26 1480.06 L1071.67 1480.06 L1071.67 1496.95 L1075.36 1496.95 L1075.36 1499.87 L1071.67 1499.87 L1071.67 1505.98 L1068.18 1505.98 L1068.18 1499.87 L1056.48 1499.87 L1056.48 1496.48 L1067.26 1480.06 Z" fill="#4c4c4c" fill-rule="evenodd" fill-opacity="1" /><path clip-path="url(#clip260)" d="M1088.66 1482.37 Q1085.95 1482.37 1084.58 1485.04 Q1083.23 1487.7 1083.23 1493.05 Q1083.23 1498.38 1084.58 1501.05 Q1085.95 1503.71 1088.66 1503.71 Q1091.39 1503.71 1092.74 1501.05 Q1094.11 1498.38 1094.11 1493.05 Q1094.11 1487.7 1092.74 1485.04 Q1091.39 1482.37 1088.66 1482.37 M1088.66 1479.59 Q1093.02 1479.59 1095.31 1483.05 Q1097.62 1486.48 1097.62 1493.05 Q1097.62 1499.59 1095.31 1503.05 Q1093.02 1506.48 1088.66 1506.48 Q1084.31 1506.48 1082 1503.05 Q1079.7 1499.59 1079.7 1493.05 Q1079.7 1486.48 1082 1483.05 Q1084.31 1479.59 1088.66 1479.59 Z" fill="#4c4c4c" fill-rule="evenodd" fill-opacity="1" /><path clip-path="url(#clip260)" d="M1260.57 1480.06 L1274.33 1480.06 L1274.33 1483.01 L1263.78 1483.01 L1263.78 1489.37 Q1264.54 1489.1 1265.31 1488.98 Q1266.07 1488.84 1266.83 1488.84 Q1271.17 1488.84 1273.71 1491.22 Q1276.24 1493.6 1276.24 1497.66 Q1276.24 1501.85 1273.64 1504.17 Q1271.03 1506.48 1266.3 1506.48 Q1264.66 1506.48 1262.96 1506.21 Q1261.28 1505.93 1259.47 1505.37 L1259.47 1501.85 Q1261.03 1502.7 1262.7 1503.12 Q1264.37 1503.53 1266.23 1503.53 Q1269.23 1503.53 1270.98 1501.95 Q1272.74 1500.37 1272.74 1497.66 Q1272.74 1494.96 1270.98 1493.38 Q1269.23 1491.8 1266.23 1491.8 Q1264.82 1491.8 1263.41 1492.11 Q1262.02 1492.42 1260.57 1493.08 L1260.57 1480.06 Z" fill="#4c4c4c" fill-rule="evenodd" fill-opacity="1" /><path clip-path="url(#clip260)" d="M1290.65 1482.37 Q1287.94 1482.37 1286.57 1485.04 Q1285.22 1487.7 1285.22 1493.05 Q1285.22 1498.38 1286.57 1501.05 Q1287.94 1503.71 1290.65 1503.71 Q1293.38 1503.71 1294.73 1501.05 Q1296.1 1498.38 1296.1 1493.05 Q1296.1 1487.7 1294.73 1485.04 Q1293.38 1482.37 1290.65 1482.37 M1290.65 1479.59 Q1295.01 1479.59 1297.3 1483.05 Q1299.61 1486.48 1299.61 1493.05 Q1299.61 1499.59 1297.3 1503.05 Q1295.01 1506.48 1290.65 1506.48 Q1286.3 1506.48 1283.99 1503.05 Q1281.69 1499.59 1281.69 1493.05 Q1281.69 1486.48 1283.99 1483.05 Q1286.3 1479.59 1290.65 1479.59 Z" fill="#4c4c4c" fill-rule="evenodd" fill-opacity="1" /><path clip-path="url(#clip260)" d="M1471.09 1491.62 Q1468.73 1491.62 1467.34 1493.24 Q1465.97 1494.85 1465.97 1497.66 Q1465.97 1500.46 1467.34 1502.09 Q1468.73 1503.71 1471.09 1503.71 Q1473.45 1503.71 1474.82 1502.09 Q1476.21 1500.46 1476.21 1497.66 Q1476.21 1494.85 1474.82 1493.24 Q1473.45 1491.62 1471.09 1491.62 M1478.05 1480.63 L1478.05 1483.83 Q1476.73 1483.2 1475.38 1482.87 Q1474.04 1482.54 1472.72 1482.54 Q1469.25 1482.54 1467.41 1484.89 Q1465.59 1487.23 1465.32 1491.97 Q1466.35 1490.46 1467.89 1489.66 Q1469.44 1488.84 1471.3 1488.84 Q1475.2 1488.84 1477.46 1491.22 Q1479.73 1493.58 1479.73 1497.66 Q1479.73 1501.66 1477.37 1504.07 Q1475.01 1506.48 1471.09 1506.48 Q1466.59 1506.48 1464.21 1503.05 Q1461.84 1499.59 1461.84 1493.05 Q1461.84 1486.9 1464.75 1483.25 Q1467.67 1479.59 1472.58 1479.59 Q1473.9 1479.59 1475.24 1479.85 Q1476.59 1480.11 1478.05 1480.63 Z" fill="#4c4c4c" fill-rule="evenodd" fill-opacity="1" /><path clip-path="url(#clip260)" d="M1493.28 1482.37 Q1490.57 1482.37 1489.2 1485.04 Q1487.84 1487.7 1487.84 1493.05 Q1487.84 1498.38 1489.2 1501.05 Q1490.57 1503.71 1493.28 1503.71 Q1496 1503.71 1497.36 1501.05 Q1498.73 1498.38 1498.73 1493.05 Q1498.73 1487.7 1497.36 1485.04 Q1496 1482.37 1493.28 1482.37 M1493.28 1479.59 Q1497.63 1479.59 1499.93 1483.05 Q1502.23 1486.48 1502.23 1493.05 Q1502.23 1499.59 1499.93 1503.05 Q1497.63 1506.48 1493.28 1506.48 Q1488.92 1506.48 1486.61 1503.05 Q1484.32 1499.59 1484.32 1493.05 Q1484.32 1486.48 1486.61 1483.05 Q1488.92 1479.59 1493.28 1479.59 Z" fill="#4c4c4c" fill-rule="evenodd" fill-opacity="1" /><path clip-path="url(#clip260)" d="M1664.55 1480.06 L1681.21 1480.06 L1681.21 1481.55 L1671.8 1505.98 L1668.14 1505.98 L1676.99 1483.01 L1664.55 1483.01 L1664.55 1480.06 Z" fill="#4c4c4c" fill-rule="evenodd" fill-opacity="1" /><path clip-path="url(#clip260)" d="M1695.55 1482.37 Q1692.84 1482.37 1691.47 1485.04 Q1690.12 1487.7 1690.12 1493.05 Q1690.12 1498.38 1691.47 1501.05 Q1692.84 1503.71 1695.55 1503.71 Q1698.28 1503.71 1699.63 1501.05 Q1701 1498.38 1701 1493.05 Q1701 1487.7 1699.63 1485.04 Q1698.28 1482.37 1695.55 1482.37 M1695.55 1479.59 Q1699.91 1479.59 1702.2 1483.05 Q1704.51 1486.48 1704.51 1493.05 Q1704.51 1499.59 1702.2 1503.05 Q1699.91 1506.48 1695.55 1506.48 Q1691.19 1506.48 1688.89 1503.05 Q1686.59 1499.59 1686.59 1493.05 Q1686.59 1486.48 1688.89 1483.05 Q1691.19 1479.59 1695.55 1479.59 Z" fill="#4c4c4c" fill-rule="evenodd" fill-opacity="1" /><path clip-path="url(#clip260)" d="M1875.68 1493.67 Q1873.18 1493.67 1871.74 1495.01 Q1870.31 1496.34 1870.31 1498.69 Q1870.31 1501.03 1871.74 1502.37 Q1873.18 1503.71 1875.68 1503.71 Q1878.18 1503.71 1879.62 1502.37 Q1881.06 1501.01 1881.06 1498.69 Q1881.06 1496.34 1879.62 1495.01 Q1878.19 1493.67 1875.68 1493.67 M1872.17 1492.18 Q1869.91 1491.62 1868.64 1490.08 Q1867.39 1488.53 1867.39 1486.31 Q1867.39 1483.2 1869.6 1481.4 Q1871.82 1479.59 1875.68 1479.59 Q1879.55 1479.59 1881.75 1481.4 Q1883.96 1483.2 1883.96 1486.31 Q1883.96 1488.53 1882.69 1490.08 Q1881.44 1491.62 1879.2 1492.18 Q1881.74 1492.77 1883.14 1494.49 Q1884.56 1496.21 1884.56 1498.69 Q1884.56 1502.46 1882.26 1504.47 Q1879.96 1506.48 1875.68 1506.48 Q1871.39 1506.48 1869.08 1504.47 Q1866.79 1502.46 1866.79 1498.69 Q1866.79 1496.21 1868.21 1494.49 Q1869.63 1492.77 1872.17 1492.18 M1870.88 1486.64 Q1870.88 1488.65 1872.13 1489.78 Q1873.4 1490.91 1875.68 1490.91 Q1877.93 1490.91 1879.2 1489.78 Q1880.49 1488.65 1880.49 1486.64 Q1880.49 1484.63 1879.2 1483.5 Q1877.93 1482.37 1875.68 1482.37 Q1873.4 1482.37 1872.13 1483.5 Q1870.88 1484.63 1870.88 1486.64 Z" fill="#4c4c4c" fill-rule="evenodd" fill-opacity="1" /><path clip-path="url(#clip260)" d="M1898.3 1482.37 Q1895.59 1482.37 1894.22 1485.04 Q1892.86 1487.7 1892.86 1493.05 Q1892.86 1498.38 1894.22 1501.05 Q1895.59 1503.71 1898.3 1503.71 Q1901.02 1503.71 1902.38 1501.05 Q1903.75 1498.38 1903.75 1493.05 Q1903.75 1487.7 1902.38 1485.04 Q1901.02 1482.37 1898.3 1482.37 M1898.3 1479.59 Q1902.66 1479.59 1904.95 1483.05 Q1907.26 1486.48 1907.26 1493.05 Q1907.26 1499.59 1904.95 1503.05 Q1902.66 1506.48 1898.3 1506.48 Q1893.94 1506.48 1891.63 1503.05 Q1889.34 1499.59 1889.34 1493.05 Q1889.34 1486.48 1891.63 1483.05 Q1893.94 1479.59 1898.3 1479.59 Z" fill="#4c4c4c" fill-rule="evenodd" fill-opacity="1" /><path clip-path="url(#clip260)" d="M2070.86 1505.44 L2070.86 1502.25 Q2072.18 1502.87 2073.53 1503.2 Q2074.89 1503.53 2076.19 1503.53 Q2079.66 1503.53 2081.49 1501.21 Q2083.33 1498.86 2083.59 1494.1 Q2082.58 1495.6 2081.03 1496.4 Q2079.49 1497.2 2077.61 1497.2 Q2073.72 1497.2 2071.45 1494.85 Q2069.19 1492.49 2069.19 1488.41 Q2069.19 1484.42 2071.55 1482 Q2073.92 1479.59 2077.84 1479.59 Q2082.34 1479.59 2084.7 1483.05 Q2087.08 1486.48 2087.08 1493.05 Q2087.08 1499.17 2084.16 1502.84 Q2081.26 1506.48 2076.35 1506.48 Q2075.03 1506.48 2073.67 1506.22 Q2072.32 1505.96 2070.86 1505.44 M2077.84 1494.45 Q2080.2 1494.45 2081.57 1492.84 Q2082.96 1491.22 2082.96 1488.41 Q2082.96 1485.62 2081.57 1484 Q2080.2 1482.37 2077.84 1482.37 Q2075.48 1482.37 2074.09 1484 Q2072.72 1485.62 2072.72 1488.41 Q2072.72 1491.22 2074.09 1492.84 Q2075.48 1494.45 2077.84 1494.45 Z" fill="#4c4c4c" fill-rule="evenodd" fill-opacity="1" /><path clip-path="url(#clip260)" d="M2100.88 1482.37 Q2098.17 1482.37 2096.8 1485.04 Q2095.44 1487.7 2095.44 1493.05 Q2095.44 1498.38 2096.8 1501.05 Q2098.17 1503.71 2100.88 1503.71 Q2103.6 1503.71 2104.96 1501.05 Q2106.33 1498.38 2106.33 1493.05 Q2106.33 1487.7 2104.96 1485.04 Q2103.6 1482.37 2100.88 1482.37 M2100.88 1479.59 Q2105.24 1479.59 2107.53 1483.05 Q2109.84 1486.48 2109.84 1493.05 Q2109.84 1499.59 2107.53 1503.05 Q2105.24 1506.48 2100.88 1506.48 Q2096.52 1506.48 2094.21 1503.05 Q2091.92 1499.59 2091.92 1493.05 Q2091.92 1486.48 2094.21 1483.05 Q2096.52 1479.59 2100.88 1479.59 Z" fill="#4c4c4c" fill-rule="evenodd" fill-opacity="1" /><path clip-path="url(#clip260)" d="M2261.71 1503.03 L2267.44 1503.03 L2267.44 1483.25 L2261.21 1484.5 L2261.21 1481.31 L2267.41 1480.06 L2270.91 1480.06 L2270.91 1503.03 L2276.64 1503.03 L2276.64 1505.98 L2261.71 1505.98 L2261.71 1503.03 Z" fill="#4c4c4c" fill-rule="evenodd" fill-opacity="1" /><path clip-path="url(#clip260)" d="M2291.23 1482.37 Q2288.52 1482.37 2287.15 1485.04 Q2285.79 1487.7 2285.79 1493.05 Q2285.79 1498.38 2287.15 1501.05 Q2288.52 1503.71 2291.23 1503.71 Q2293.95 1503.71 2295.31 1501.05 Q2296.68 1498.38 2296.68 1493.05 Q2296.68 1487.7 2295.31 1485.04 Q2293.95 1482.37 2291.23 1482.37 M2291.23 1479.59 Q2295.58 1479.59 2297.88 1483.05 Q2300.18 1486.48 2300.18 1493.05 Q2300.18 1499.59 2297.88 1503.05 Q2295.58 1506.48 2291.23 1506.48 Q2286.87 1506.48 2284.56 1503.05 Q2282.27 1499.59 2282.27 1493.05 Q2282.27 1486.48 2284.56 1483.05 Q2286.87 1479.59 2291.23 1479.59 Z" fill="#4c4c4c" fill-rule="evenodd" fill-opacity="1" /><path clip-path="url(#clip260)" d="M2313.85 1482.37 Q2311.14 1482.37 2309.77 1485.04 Q2308.41 1487.7 2308.41 1493.05 Q2308.41 1498.38 2309.77 1501.05 Q2311.14 1503.71 2313.85 1503.71 Q2316.57 1503.71 2317.93 1501.05 Q2319.3 1498.38 2319.3 1493.05 Q2319.3 1487.7 2317.93 1485.04 Q2316.57 1482.37 2313.85 1482.37 M2313.85 1479.59 Q2318.21 1479.59 2320.5 1483.05 Q2322.81 1486.48 2322.81 1493.05 Q2322.81 1499.59 2320.5 1503.05 Q2318.21 1506.48 2313.85 1506.48 Q2309.49 1506.48 2307.18 1503.05 Q2304.89 1499.59 2304.89 1493.05 Q2304.89 1486.48 2307.18 1483.05 Q2309.49 1479.59 2313.85 1479.59 Z" fill="#4c4c4c" fill-rule="evenodd" fill-opacity="1" /><path clip-path="url(#clip260)" d="M1170.13 1526.57 L1174.81 1526.57 L1174.81 1561.13 L1170.13 1561.13 L1170.13 1526.57 Z" fill="#000000" fill-rule="evenodd" fill-opacity="1" /><path clip-path="url(#clip260)" d="M1188.14 1527.84 L1188.14 1535.21 L1196.91 1535.21 L1196.91 1538.52 L1188.14 1538.52 L1188.14 1552.59 Q1188.14 1555.76 1189 1556.66 Q1189.88 1557.57 1192.54 1557.57 L1196.91 1557.57 L1196.91 1561.13 L1192.54 1561.13 Q1187.61 1561.13 1185.73 1559.3 Q1183.86 1557.45 1183.86 1552.59 L1183.86 1538.52 L1180.73 1538.52 L1180.73 1535.21 L1183.86 1535.21 L1183.86 1527.84 L1188.14 1527.84 Z" fill="#000000" fill-rule="evenodd" fill-opacity="1" /><path clip-path="url(#clip260)" d="M1224.69 1547.1 L1224.69 1549.19 L1205.11 1549.19 Q1205.39 1553.59 1207.75 1555.9 Q1210.13 1558.19 1214.37 1558.19 Q1216.82 1558.19 1219.11 1557.59 Q1221.43 1556.99 1223.7 1555.78 L1223.7 1559.81 Q1221.41 1560.78 1219 1561.29 Q1216.59 1561.8 1214.11 1561.8 Q1207.91 1561.8 1204.28 1558.19 Q1200.66 1554.58 1200.66 1548.42 Q1200.66 1542.06 1204.09 1538.33 Q1207.54 1534.58 1213.37 1534.58 Q1218.6 1534.58 1221.64 1537.96 Q1224.69 1541.32 1224.69 1547.1 M1220.43 1545.85 Q1220.39 1542.36 1218.47 1540.28 Q1216.57 1538.19 1213.42 1538.19 Q1209.85 1538.19 1207.7 1540.21 Q1205.57 1542.22 1205.25 1545.88 L1220.43 1545.85 Z" fill="#000000" fill-rule="evenodd" fill-opacity="1" /><path clip-path="url(#clip260)" d="M1246.71 1539.19 Q1245.99 1538.77 1245.13 1538.59 Q1244.3 1538.38 1243.28 1538.38 Q1239.67 1538.38 1237.72 1540.74 Q1235.8 1543.08 1235.8 1547.47 L1235.8 1561.13 L1231.52 1561.13 L1231.52 1535.21 L1235.8 1535.21 L1235.8 1539.23 Q1237.15 1536.87 1239.3 1535.74 Q1241.45 1534.58 1244.53 1534.58 Q1244.97 1534.58 1245.5 1534.65 Q1246.03 1534.7 1246.68 1534.81 L1246.71 1539.19 Z" fill="#000000" fill-rule="evenodd" fill-opacity="1" /><path clip-path="url(#clip260)" d="M1262.96 1548.1 Q1257.79 1548.1 1255.8 1549.28 Q1253.81 1550.46 1253.81 1553.31 Q1253.81 1555.58 1255.29 1556.92 Q1256.8 1558.24 1259.37 1558.24 Q1262.91 1558.24 1265.04 1555.74 Q1267.19 1553.22 1267.19 1549.05 L1267.19 1548.1 L1262.96 1548.1 M1271.45 1546.34 L1271.45 1561.13 L1267.19 1561.13 L1267.19 1557.2 Q1265.73 1559.56 1263.56 1560.69 Q1261.38 1561.8 1258.23 1561.8 Q1254.25 1561.8 1251.89 1559.58 Q1249.55 1557.34 1249.55 1553.59 Q1249.55 1549.21 1252.47 1546.99 Q1255.41 1544.77 1261.22 1544.77 L1267.19 1544.77 L1267.19 1544.35 Q1267.19 1541.41 1265.25 1539.81 Q1263.33 1538.19 1259.83 1538.19 Q1257.61 1538.19 1255.5 1538.72 Q1253.4 1539.26 1251.45 1540.32 L1251.45 1536.39 Q1253.79 1535.48 1255.99 1535.04 Q1258.19 1534.58 1260.27 1534.58 Q1265.9 1534.58 1268.67 1537.5 Q1271.45 1540.41 1271.45 1546.34 Z" fill="#000000" fill-rule="evenodd" fill-opacity="1" /><path clip-path="url(#clip260)" d="M1284.44 1527.84 L1284.44 1535.21 L1293.21 1535.21 L1293.21 1538.52 L1284.44 1538.52 L1284.44 1552.59 Q1284.44 1555.76 1285.29 1556.66 Q1286.17 1557.57 1288.84 1557.57 L1293.21 1557.57 L1293.21 1561.13 L1288.84 1561.13 Q1283.91 1561.13 1282.03 1559.3 Q1280.16 1557.45 1280.16 1552.59 L1280.16 1538.52 L1277.03 1538.52 L1277.03 1535.21 L1280.16 1535.21 L1280.16 1527.84 L1284.44 1527.84 Z" fill="#000000" fill-rule="evenodd" fill-opacity="1" /><path clip-path="url(#clip260)" d="M1298.81 1535.21 L1303.07 1535.21 L1303.07 1561.13 L1298.81 1561.13 L1298.81 1535.21 M1298.81 1525.11 L1303.07 1525.11 L1303.07 1530.51 L1298.81 1530.51 L1298.81 1525.11 Z" fill="#000000" fill-rule="evenodd" fill-opacity="1" /><path clip-path="url(#clip260)" d="M1322.03 1538.19 Q1318.6 1538.19 1316.61 1540.88 Q1314.62 1543.54 1314.62 1548.19 Q1314.62 1552.84 1316.59 1555.53 Q1318.58 1558.19 1322.03 1558.19 Q1325.43 1558.19 1327.42 1555.51 Q1329.41 1552.82 1329.41 1548.19 Q1329.41 1543.59 1327.42 1540.9 Q1325.43 1538.19 1322.03 1538.19 M1322.03 1534.58 Q1327.59 1534.58 1330.76 1538.19 Q1333.93 1541.8 1333.93 1548.19 Q1333.93 1554.56 1330.76 1558.19 Q1327.59 1561.8 1322.03 1561.8 Q1316.45 1561.8 1313.28 1558.19 Q1310.13 1554.56 1310.13 1548.19 Q1310.13 1541.8 1313.28 1538.19 Q1316.45 1534.58 1322.03 1534.58 Z" fill="#000000" fill-rule="evenodd" fill-opacity="1" /><path clip-path="url(#clip260)" d="M1362.54 1545.48 L1362.54 1561.13 L1358.28 1561.13 L1358.28 1545.62 Q1358.28 1541.94 1356.84 1540.11 Q1355.41 1538.28 1352.54 1538.28 Q1349.09 1538.28 1347.1 1540.48 Q1345.11 1542.68 1345.11 1546.48 L1345.11 1561.13 L1340.83 1561.13 L1340.83 1535.21 L1345.11 1535.21 L1345.11 1539.23 Q1346.64 1536.9 1348.7 1535.74 Q1350.78 1534.58 1353.49 1534.58 Q1357.96 1534.58 1360.25 1537.36 Q1362.54 1540.11 1362.54 1545.48 Z" fill="#000000" fill-rule="evenodd" fill-opacity="1" /><path clip-path="url(#clip260)" d="M1387.56 1535.97 L1387.56 1540 Q1385.76 1539.07 1383.81 1538.61 Q1381.87 1538.15 1379.78 1538.15 Q1376.61 1538.15 1375.02 1539.12 Q1373.44 1540.09 1373.44 1542.03 Q1373.44 1543.52 1374.58 1544.37 Q1375.71 1545.21 1379.14 1545.97 L1380.59 1546.29 Q1385.13 1547.27 1387.03 1549.05 Q1388.95 1550.81 1388.95 1553.98 Q1388.95 1557.59 1386.08 1559.7 Q1383.23 1561.8 1378.23 1561.8 Q1376.15 1561.8 1373.88 1561.39 Q1371.64 1560.99 1369.14 1560.18 L1369.14 1555.78 Q1371.5 1557.01 1373.79 1557.64 Q1376.08 1558.24 1378.33 1558.24 Q1381.34 1558.24 1382.96 1557.22 Q1384.58 1556.18 1384.58 1554.3 Q1384.58 1552.57 1383.4 1551.64 Q1382.24 1550.72 1378.28 1549.86 L1376.8 1549.51 Q1372.84 1548.68 1371.08 1546.97 Q1369.32 1545.23 1369.32 1542.22 Q1369.32 1538.56 1371.91 1536.57 Q1374.51 1534.58 1379.27 1534.58 Q1381.64 1534.58 1383.72 1534.93 Q1385.8 1535.28 1387.56 1535.97 Z" fill="#000000" fill-rule="evenodd" fill-opacity="1" /><polyline clip-path="url(#clip262)" style="stroke:#ffffff; stroke-linecap:butt; stroke-linejoin:round; stroke-width:4; stroke-opacity:1; fill:none" points="
  206.328,1237.99 2352.76,1237.99 
  "/>
<polyline clip-path="url(#clip262)" style="stroke:#ffffff; stroke-linecap:butt; stroke-linejoin:round; stroke-width:4; stroke-opacity:1; fill:none" points="
  206.328,942.739 2352.76,942.739 
  "/>
<polyline clip-path="url(#clip262)" style="stroke:#ffffff; stroke-linecap:butt; stroke-linejoin:round; stroke-width:4; stroke-opacity:1; fill:none" points="
  206.328,647.485 2352.76,647.485 
  "/>
<polyline clip-path="url(#clip262)" style="stroke:#ffffff; stroke-linecap:butt; stroke-linejoin:round; stroke-width:4; stroke-opacity:1; fill:none" points="
  206.328,352.231 2352.76,352.231 
  "/>
<polyline clip-path="url(#clip262)" style="stroke:#ffffff; stroke-linecap:butt; stroke-linejoin:round; stroke-width:2; stroke-opacity:1; fill:none" points="
  206.328,1385.62 2352.76,1385.62 
  "/>
<polyline clip-path="url(#clip262)" style="stroke:#ffffff; stroke-linecap:butt; stroke-linejoin:round; stroke-width:2; stroke-opacity:1; fill:none" points="
  206.328,1090.37 2352.76,1090.37 
  "/>
<polyline clip-path="url(#clip262)" style="stroke:#ffffff; stroke-linecap:butt; stroke-linejoin:round; stroke-width:2; stroke-opacity:1; fill:none" points="
  206.328,795.112 2352.76,795.112 
  "/>
<polyline clip-path="url(#clip262)" style="stroke:#ffffff; stroke-linecap:butt; stroke-linejoin:round; stroke-width:2; stroke-opacity:1; fill:none" points="
  206.328,499.858 2352.76,499.858 
  "/>
<polyline clip-path="url(#clip262)" style="stroke:#ffffff; stroke-linecap:butt; stroke-linejoin:round; stroke-width:2; stroke-opacity:1; fill:none" points="
  206.328,204.604 2352.76,204.604 
  "/>
<polyline clip-path="url(#clip260)" style="stroke:#ffffff; stroke-linecap:butt; stroke-linejoin:round; stroke-width:4; stroke-opacity:1; fill:none" points="
  206.328,1444.78 206.328,106.192 
  "/>
<polyline clip-path="url(#clip260)" style="stroke:#333333; stroke-linecap:butt; stroke-linejoin:round; stroke-width:4; stroke-opacity:1; fill:none" points="
  206.328,1237.99 187.43,1237.99 
  "/>
<polyline clip-path="url(#clip260)" style="stroke:#333333; stroke-linecap:butt; stroke-linejoin:round; stroke-width:4; stroke-opacity:1; fill:none" points="
  206.328,942.739 187.43,942.739 
  "/>
<polyline clip-path="url(#clip260)" style="stroke:#333333; stroke-linecap:butt; stroke-linejoin:round; stroke-width:4; stroke-opacity:1; fill:none" points="
  206.328,647.485 187.43,647.485 
  "/>
<polyline clip-path="url(#clip260)" style="stroke:#333333; stroke-linecap:butt; stroke-linejoin:round; stroke-width:4; stroke-opacity:1; fill:none" points="
  206.328,352.231 187.43,352.231 
  "/>
<polyline clip-path="url(#clip260)" style="stroke:#333333; stroke-linecap:butt; stroke-linejoin:round; stroke-width:4; stroke-opacity:1; fill:none" points="
  206.328,1385.62 196.879,1385.62 
  "/>
<polyline clip-path="url(#clip260)" style="stroke:#333333; stroke-linecap:butt; stroke-linejoin:round; stroke-width:4; stroke-opacity:1; fill:none" points="
  206.328,1090.37 196.879,1090.37 
  "/>
<polyline clip-path="url(#clip260)" style="stroke:#333333; stroke-linecap:butt; stroke-linejoin:round; stroke-width:4; stroke-opacity:1; fill:none" points="
  206.328,795.112 196.879,795.112 
  "/>
<polyline clip-path="url(#clip260)" style="stroke:#333333; stroke-linecap:butt; stroke-linejoin:round; stroke-width:4; stroke-opacity:1; fill:none" points="
  206.328,499.858 196.879,499.858 
  "/>
<polyline clip-path="url(#clip260)" style="stroke:#333333; stroke-linecap:butt; stroke-linejoin:round; stroke-width:4; stroke-opacity:1; fill:none" points="
  206.328,204.604 196.879,204.604 
  "/>
<path clip-path="url(#clip260)" d="M84.6196 1238.33 L106.876 1238.33 L106.876 1241.28 L84.6196 1241.28 L84.6196 1238.33 Z" fill="#4c4c4c" fill-rule="evenodd" fill-opacity="1" /><path clip-path="url(#clip260)" d="M114.55 1250.42 L114.55 1247.22 Q115.869 1247.85 117.224 1248.18 Q118.578 1248.51 119.88 1248.51 Q123.352 1248.51 125.175 1246.18 Q127.015 1243.84 127.276 1239.08 Q126.269 1240.57 124.724 1241.37 Q123.178 1242.17 121.303 1242.17 Q117.415 1242.17 115.14 1239.83 Q112.883 1237.46 112.883 1233.38 Q112.883 1229.39 115.244 1226.98 Q117.606 1224.56 121.529 1224.56 Q126.026 1224.56 128.387 1228.02 Q130.765 1231.46 130.765 1238.02 Q130.765 1244.15 127.849 1247.81 Q124.949 1251.46 120.036 1251.46 Q118.717 1251.46 117.362 1251.2 Q116.008 1250.94 114.55 1250.42 M121.529 1239.43 Q123.89 1239.43 125.262 1237.81 Q126.651 1236.2 126.651 1233.38 Q126.651 1230.59 125.262 1228.97 Q123.89 1227.34 121.529 1227.34 Q119.168 1227.34 117.779 1228.97 Q116.408 1230.59 116.408 1233.38 Q116.408 1236.2 117.779 1237.81 Q119.168 1239.43 121.529 1239.43 Z" fill="#4c4c4c" fill-rule="evenodd" fill-opacity="1" /><path clip-path="url(#clip260)" d="M140.088 1248 L152.328 1248 L152.328 1250.95 L135.869 1250.95 L135.869 1248 Q137.866 1245.94 141.303 1242.46 Q144.758 1238.97 145.644 1237.97 Q147.328 1236.08 147.987 1234.77 Q148.664 1233.45 148.664 1232.19 Q148.664 1230.12 147.206 1228.82 Q145.765 1227.52 143.439 1227.52 Q141.789 1227.52 139.949 1228.09 Q138.126 1228.66 136.043 1229.83 L136.043 1226.28 Q138.161 1225.43 140.001 1225 Q141.842 1224.56 143.369 1224.56 Q147.397 1224.56 149.793 1226.58 Q152.189 1228.59 152.189 1231.96 Q152.189 1233.56 151.581 1235 Q150.991 1236.42 149.411 1238.37 Q148.977 1238.87 146.651 1241.28 Q144.324 1243.68 140.088 1248 Z" fill="#4c4c4c" fill-rule="evenodd" fill-opacity="1" /><path clip-path="url(#clip260)" d="M83.4217 943.078 L105.679 943.078 L105.679 946.029 L83.4217 946.029 L83.4217 943.078 Z" fill="#4c4c4c" fill-rule="evenodd" fill-opacity="1" /><path clip-path="url(#clip260)" d="M113.352 955.161 L113.352 951.967 Q114.672 952.592 116.026 952.922 Q117.38 953.251 118.682 953.251 Q122.154 953.251 123.977 950.925 Q125.817 948.581 126.078 943.824 Q125.071 945.317 123.526 946.116 Q121.981 946.915 120.106 946.915 Q116.217 946.915 113.942 944.571 Q111.685 942.21 111.685 938.13 Q111.685 934.137 114.047 931.724 Q116.408 929.311 120.331 929.311 Q124.828 929.311 127.189 932.765 Q129.567 936.203 129.567 942.765 Q129.567 948.894 126.651 952.557 Q123.751 956.203 118.838 956.203 Q117.519 956.203 116.165 955.942 Q114.81 955.682 113.352 955.161 M120.331 944.172 Q122.692 944.172 124.064 942.557 Q125.453 940.942 125.453 938.13 Q125.453 935.335 124.064 933.72 Q122.692 932.088 120.331 932.088 Q117.97 932.088 116.581 933.72 Q115.21 935.335 115.21 938.13 Q115.21 940.942 116.581 942.557 Q117.97 944.172 120.331 944.172 Z" fill="#4c4c4c" fill-rule="evenodd" fill-opacity="1" /><path clip-path="url(#clip260)" d="M143.369 932.088 Q140.661 932.088 139.289 934.762 Q137.935 937.418 137.935 942.765 Q137.935 948.095 139.289 950.769 Q140.661 953.425 143.369 953.425 Q146.095 953.425 147.449 950.769 Q148.821 948.095 148.821 942.765 Q148.821 937.418 147.449 934.762 Q146.095 932.088 143.369 932.088 M143.369 929.311 Q147.727 929.311 150.019 932.765 Q152.328 936.203 152.328 942.765 Q152.328 949.31 150.019 952.765 Q147.727 956.203 143.369 956.203 Q139.012 956.203 136.703 952.765 Q134.411 949.31 134.411 942.765 Q134.411 936.203 136.703 932.765 Q139.012 929.311 143.369 929.311 Z" fill="#4c4c4c" fill-rule="evenodd" fill-opacity="1" /><path clip-path="url(#clip260)" d="M83.4911 647.824 L105.748 647.824 L105.748 650.775 L83.4911 650.775 L83.4911 647.824 Z" fill="#4c4c4c" fill-rule="evenodd" fill-opacity="1" /><path clip-path="url(#clip260)" d="M120.817 648.136 Q118.317 648.136 116.876 649.473 Q115.453 650.81 115.453 653.153 Q115.453 655.497 116.876 656.834 Q118.317 658.171 120.817 658.171 Q123.317 658.171 124.758 656.834 Q126.199 655.48 126.199 653.153 Q126.199 650.81 124.758 649.473 Q123.335 648.136 120.817 648.136 M117.31 646.643 Q115.053 646.088 113.786 644.542 Q112.536 642.997 112.536 640.775 Q112.536 637.667 114.741 635.862 Q116.963 634.056 120.817 634.056 Q124.689 634.056 126.894 635.862 Q129.099 637.667 129.099 640.775 Q129.099 642.997 127.831 644.542 Q126.581 646.088 124.342 646.643 Q126.876 647.233 128.283 648.952 Q129.706 650.671 129.706 653.153 Q129.706 656.921 127.397 658.935 Q125.105 660.949 120.817 660.949 Q116.529 660.949 114.22 658.935 Q111.928 656.921 111.928 653.153 Q111.928 650.671 113.352 648.952 Q114.776 647.233 117.31 646.643 M116.026 641.105 Q116.026 643.119 117.276 644.247 Q118.543 645.376 120.817 645.376 Q123.074 645.376 124.342 644.247 Q125.626 643.119 125.626 641.105 Q125.626 639.091 124.342 637.963 Q123.074 636.834 120.817 636.834 Q118.543 636.834 117.276 637.963 Q116.026 639.091 116.026 641.105 Z" fill="#4c4c4c" fill-rule="evenodd" fill-opacity="1" /><path clip-path="url(#clip260)" d="M143.439 648.136 Q140.939 648.136 139.498 649.473 Q138.074 650.81 138.074 653.153 Q138.074 655.497 139.498 656.834 Q140.939 658.171 143.439 658.171 Q145.939 658.171 147.38 656.834 Q148.821 655.48 148.821 653.153 Q148.821 650.81 147.38 649.473 Q145.956 648.136 143.439 648.136 M139.932 646.643 Q137.675 646.088 136.408 644.542 Q135.158 642.997 135.158 640.775 Q135.158 637.667 137.362 635.862 Q139.585 634.056 143.439 634.056 Q147.31 634.056 149.515 635.862 Q151.72 637.667 151.72 640.775 Q151.72 642.997 150.453 644.542 Q149.203 646.088 146.963 646.643 Q149.498 647.233 150.904 648.952 Q152.328 650.671 152.328 653.153 Q152.328 656.921 150.019 658.935 Q147.727 660.949 143.439 660.949 Q139.151 660.949 136.842 658.935 Q134.55 656.921 134.55 653.153 Q134.55 650.671 135.973 648.952 Q137.397 647.233 139.932 646.643 M138.647 641.105 Q138.647 643.119 139.897 644.247 Q141.164 645.376 143.439 645.376 Q145.696 645.376 146.963 644.247 Q148.248 643.119 148.248 641.105 Q148.248 639.091 146.963 637.963 Q145.696 636.834 143.439 636.834 Q141.164 636.834 139.897 637.963 Q138.647 639.091 138.647 641.105 Z" fill="#4c4c4c" fill-rule="evenodd" fill-opacity="1" /><path clip-path="url(#clip260)" d="M83.3002 352.569 L105.557 352.569 L105.557 355.521 L83.3002 355.521 L83.3002 352.569 Z" fill="#4c4c4c" fill-rule="evenodd" fill-opacity="1" /><path clip-path="url(#clip260)" d="M120.626 352.882 Q118.126 352.882 116.685 354.219 Q115.262 355.556 115.262 357.899 Q115.262 360.243 116.685 361.58 Q118.126 362.917 120.626 362.917 Q123.126 362.917 124.567 361.58 Q126.008 360.226 126.008 357.899 Q126.008 355.556 124.567 354.219 Q123.144 352.882 120.626 352.882 M117.119 351.389 Q114.862 350.833 113.595 349.288 Q112.345 347.743 112.345 345.521 Q112.345 342.413 114.55 340.608 Q116.772 338.802 120.626 338.802 Q124.498 338.802 126.703 340.608 Q128.908 342.413 128.908 345.521 Q128.908 347.743 127.64 349.288 Q126.39 350.833 124.151 351.389 Q126.685 351.979 128.092 353.698 Q129.515 355.417 129.515 357.899 Q129.515 361.667 127.206 363.68 Q124.915 365.694 120.626 365.694 Q116.338 365.694 114.029 363.68 Q111.738 361.667 111.738 357.899 Q111.738 355.417 113.161 353.698 Q114.585 351.979 117.119 351.389 M115.835 345.851 Q115.835 347.865 117.085 348.993 Q118.352 350.122 120.626 350.122 Q122.883 350.122 124.151 348.993 Q125.435 347.865 125.435 345.851 Q125.435 343.837 124.151 342.708 Q122.883 341.58 120.626 341.58 Q118.352 341.58 117.085 342.708 Q115.835 343.837 115.835 345.851 Z" fill="#4c4c4c" fill-rule="evenodd" fill-opacity="1" /><path clip-path="url(#clip260)" d="M143.682 350.833 Q141.321 350.833 139.932 352.448 Q138.56 354.062 138.56 356.875 Q138.56 359.67 139.932 361.302 Q141.321 362.917 143.682 362.917 Q146.043 362.917 147.414 361.302 Q148.803 359.67 148.803 356.875 Q148.803 354.062 147.414 352.448 Q146.043 350.833 143.682 350.833 M150.644 339.844 L150.644 343.038 Q149.324 342.413 147.97 342.083 Q146.633 341.754 145.314 341.754 Q141.842 341.754 140.001 344.097 Q138.178 346.441 137.918 351.181 Q138.942 349.67 140.487 348.872 Q142.032 348.056 143.89 348.056 Q147.796 348.056 150.053 350.434 Q152.328 352.795 152.328 356.875 Q152.328 360.868 149.966 363.281 Q147.605 365.694 143.682 365.694 Q139.185 365.694 136.807 362.257 Q134.428 358.802 134.428 352.257 Q134.428 346.111 137.345 342.465 Q140.262 338.802 145.175 338.802 Q146.494 338.802 147.831 339.063 Q149.185 339.323 150.644 339.844 Z" fill="#4c4c4c" fill-rule="evenodd" fill-opacity="1" /><path clip-path="url(#clip260)" d="M20.3722 985.184 L20.3722 955.948 L24.3073 955.948 L24.3073 968.216 L54.9322 968.216 L54.9322 972.915 L24.3073 972.915 L24.3073 985.184 L20.3722 985.184 Z" fill="#000000" fill-rule="evenodd" fill-opacity="1" /><path clip-path="url(#clip260)" d="M40.9045 937.499 L42.9878 937.499 L42.9878 957.082 Q47.3859 956.804 49.7007 954.443 Q51.9924 952.059 51.9924 947.823 Q51.9924 945.369 51.3905 943.078 Q50.7887 940.763 49.585 938.494 L53.6127 938.494 Q54.5849 940.786 55.0942 943.193 Q55.6035 945.601 55.6035 948.078 Q55.6035 954.281 51.9924 957.916 Q48.3813 961.527 42.2239 961.527 Q35.8582 961.527 32.1314 958.101 Q28.3814 954.652 28.3814 948.818 Q28.3814 943.587 31.761 940.555 Q35.1174 937.499 40.9045 937.499 M39.6545 941.758 Q36.1591 941.805 34.0758 943.726 Q31.9925 945.624 31.9925 948.772 Q31.9925 952.337 34.0063 954.49 Q36.0202 956.619 39.6776 956.943 L39.6545 941.758 Z" fill="#000000" fill-rule="evenodd" fill-opacity="1" /><path clip-path="url(#clip260)" d="M29.7703 913.981 L33.798 913.981 Q32.8721 915.786 32.4091 917.731 Q31.9462 919.675 31.9462 921.758 Q31.9462 924.93 32.9184 926.527 Q33.8906 928.101 35.835 928.101 Q37.3165 928.101 38.173 926.967 Q39.0063 925.832 39.7702 922.406 L40.0943 920.948 Q41.0665 916.411 42.8489 914.513 Q44.6081 912.592 47.7794 912.592 Q51.3905 912.592 53.497 915.462 Q55.6035 918.309 55.6035 923.309 Q55.6035 925.393 55.1868 927.661 Q54.7933 929.906 53.9831 932.406 L49.585 932.406 Q50.8118 930.045 51.4368 927.754 Q52.0387 925.462 52.0387 923.217 Q52.0387 920.207 51.0201 918.587 Q49.9785 916.967 48.1035 916.967 Q46.3674 916.967 45.4415 918.147 Q44.5155 919.305 43.6591 923.263 L43.3118 924.744 Q42.4785 928.703 40.7656 930.462 Q39.0295 932.221 36.0202 932.221 Q32.3628 932.221 30.3721 929.629 Q28.3814 927.036 28.3814 922.268 Q28.3814 919.907 28.7286 917.823 Q29.0758 915.74 29.7703 913.981 Z" fill="#000000" fill-rule="evenodd" fill-opacity="1" /><path clip-path="url(#clip260)" d="M21.6453 901.596 L29.0064 901.596 L29.0064 892.823 L32.3165 892.823 L32.3165 901.596 L46.3905 901.596 Q49.5618 901.596 50.4646 900.74 Q51.3674 899.86 51.3674 897.198 L51.3674 892.823 L54.9322 892.823 L54.9322 897.198 Q54.9322 902.129 53.1035 904.004 Q51.2516 905.879 46.3905 905.879 L32.3165 905.879 L32.3165 909.004 L29.0064 909.004 L29.0064 905.879 L21.6453 905.879 L21.6453 901.596 Z" fill="#000000" fill-rule="evenodd" fill-opacity="1" /><path clip-path="url(#clip260)" d="M18.9138 872.152 L18.9138 867.893 L54.9322 867.893 L54.9322 872.152 L18.9138 872.152 Z" fill="#000000" fill-rule="evenodd" fill-opacity="1" /><path clip-path="url(#clip260)" d="M31.9925 848.935 Q31.9925 852.361 34.6776 854.351 Q37.3397 856.342 41.9924 856.342 Q46.6452 856.342 49.3303 854.374 Q51.9924 852.384 51.9924 848.935 Q51.9924 845.532 49.3072 843.541 Q46.622 841.55 41.9924 841.55 Q37.386 841.55 34.7008 843.541 Q31.9925 845.532 31.9925 848.935 M28.3814 848.935 Q28.3814 843.379 31.9925 840.208 Q35.6036 837.037 41.9924 837.037 Q48.3581 837.037 51.9924 840.208 Q55.6035 843.379 55.6035 848.935 Q55.6035 854.513 51.9924 857.685 Q48.3581 860.833 41.9924 860.833 Q35.6036 860.833 31.9925 857.685 Q28.3814 854.513 28.3814 848.935 Z" fill="#000000" fill-rule="evenodd" fill-opacity="1" /><path clip-path="url(#clip260)" d="M41.6683 812.916 Q37.0387 812.916 34.4925 814.838 Q31.9462 816.736 31.9462 820.185 Q31.9462 823.611 34.4925 825.532 Q37.0387 827.43 41.6683 827.43 Q46.2748 827.43 48.8211 825.532 Q51.3674 823.611 51.3674 820.185 Q51.3674 816.736 48.8211 814.838 Q46.2748 812.916 41.6683 812.916 M51.7146 808.657 Q58.3349 808.657 61.5525 811.597 Q64.7932 814.537 64.7932 820.601 Q64.7932 822.847 64.446 824.838 Q64.1219 826.828 63.4275 828.703 L59.284 828.703 Q60.3025 826.828 60.7886 825 Q61.2747 823.171 61.2747 821.273 Q61.2747 817.083 59.0757 815 Q56.8997 812.916 52.4785 812.916 L50.372 812.916 Q52.6637 814.236 53.7979 816.296 Q54.9322 818.356 54.9322 821.226 Q54.9322 825.995 51.2979 828.912 Q47.6637 831.828 41.6683 831.828 Q35.6499 831.828 32.0156 828.912 Q28.3814 825.995 28.3814 821.226 Q28.3814 818.356 29.5156 816.296 Q30.6499 814.236 32.9415 812.916 L29.0064 812.916 L29.0064 808.657 L51.7146 808.657 Z" fill="#000000" fill-rule="evenodd" fill-opacity="1" /><path clip-path="url(#clip260)" d="M40.048 802.037 L40.048 789.56 L43.8443 789.56 L43.8443 802.037 L40.048 802.037 Z" fill="#000000" fill-rule="evenodd" fill-opacity="1" /><path clip-path="url(#clip260)" d="M18.9138 782.778 L18.9138 778.518 L54.9322 778.518 L54.9322 782.778 L18.9138 782.778 Z" fill="#000000" fill-rule="evenodd" fill-opacity="1" /><path clip-path="url(#clip260)" d="M29.0064 769.606 L29.0064 765.347 L54.9322 765.347 L54.9322 769.606 L29.0064 769.606 M18.9138 769.606 L18.9138 765.347 L24.3073 765.347 L24.3073 769.606 L18.9138 769.606 Z" fill="#000000" fill-rule="evenodd" fill-opacity="1" /><path clip-path="url(#clip260)" d="M18.9138 756.597 L18.9138 752.315 L40.1869 752.315 L29.0064 739.607 L29.0064 734.167 L41.1359 747.917 L54.9322 733.588 L54.9322 739.144 L42.2702 752.315 L54.9322 752.315 L54.9322 756.597 L18.9138 756.597 Z" fill="#000000" fill-rule="evenodd" fill-opacity="1" /><path clip-path="url(#clip260)" d="M40.9045 708.496 L42.9878 708.496 L42.9878 728.079 Q47.3859 727.801 49.7007 725.44 Q51.9924 723.056 51.9924 718.82 Q51.9924 716.366 51.3905 714.074 Q50.7887 711.759 49.585 709.491 L53.6127 709.491 Q54.5849 711.783 55.0942 714.19 Q55.6035 716.597 55.6035 719.074 Q55.6035 725.278 51.9924 728.912 Q48.3813 732.523 42.2239 732.523 Q35.8582 732.523 32.1314 729.097 Q28.3814 725.648 28.3814 719.815 Q28.3814 714.584 31.761 711.551 Q35.1174 708.496 40.9045 708.496 M39.6545 712.755 Q36.1591 712.801 34.0758 714.722 Q31.9925 716.621 31.9925 719.769 Q31.9925 723.333 34.0063 725.486 Q36.0202 727.616 39.6776 727.94 L39.6545 712.755 Z" fill="#000000" fill-rule="evenodd" fill-opacity="1" /><path clip-path="url(#clip260)" d="M18.9138 701.505 L18.9138 697.246 L54.9322 697.246 L54.9322 701.505 L18.9138 701.505 Z" fill="#000000" fill-rule="evenodd" fill-opacity="1" /><path clip-path="url(#clip260)" d="M29.0064 688.334 L29.0064 684.074 L54.9322 684.074 L54.9322 688.334 L29.0064 688.334 M18.9138 688.334 L18.9138 684.074 L24.3073 684.074 L24.3073 688.334 L18.9138 688.334 Z" fill="#000000" fill-rule="evenodd" fill-opacity="1" /><path clip-path="url(#clip260)" d="M39.2841 653.612 L54.9322 653.612 L54.9322 657.871 L39.423 657.871 Q35.7424 657.871 33.9138 659.306 Q32.0851 660.741 32.0851 663.612 Q32.0851 667.061 34.2841 669.051 Q36.4832 671.042 40.2795 671.042 L54.9322 671.042 L54.9322 675.324 L18.9138 675.324 L18.9138 671.042 L33.0341 671.042 Q30.6962 669.514 29.5388 667.454 Q28.3814 665.371 28.3814 662.663 Q28.3814 658.195 31.1591 655.903 Q33.9138 653.612 39.2841 653.612 Z" fill="#000000" fill-rule="evenodd" fill-opacity="1" /><path clip-path="url(#clip260)" d="M31.9925 635.07 Q31.9925 638.496 34.6776 640.487 Q37.3397 642.477 41.9924 642.477 Q46.6452 642.477 49.3303 640.51 Q51.9924 638.519 51.9924 635.07 Q51.9924 631.667 49.3072 629.677 Q46.622 627.686 41.9924 627.686 Q37.386 627.686 34.7008 629.677 Q31.9925 631.667 31.9925 635.07 M28.3814 635.07 Q28.3814 629.515 31.9925 626.343 Q35.6036 623.172 41.9924 623.172 Q48.3581 623.172 51.9924 626.343 Q55.6035 629.515 55.6035 635.07 Q55.6035 640.649 51.9924 643.82 Q48.3581 646.968 41.9924 646.968 Q35.6036 646.968 31.9925 643.82 Q28.3814 640.649 28.3814 635.07 Z" fill="#000000" fill-rule="evenodd" fill-opacity="1" /><path clip-path="url(#clip260)" d="M31.9925 606.066 Q31.9925 609.492 34.6776 611.482 Q37.3397 613.473 41.9924 613.473 Q46.6452 613.473 49.3303 611.505 Q51.9924 609.515 51.9924 606.066 Q51.9924 602.663 49.3072 600.672 Q46.622 598.681 41.9924 598.681 Q37.386 598.681 34.7008 600.672 Q31.9925 602.663 31.9925 606.066 M28.3814 606.066 Q28.3814 600.51 31.9925 597.339 Q35.6036 594.168 41.9924 594.168 Q48.3581 594.168 51.9924 597.339 Q55.6035 600.51 55.6035 606.066 Q55.6035 611.644 51.9924 614.816 Q48.3581 617.964 41.9924 617.964 Q35.6036 617.964 31.9925 614.816 Q28.3814 611.644 28.3814 606.066 Z" fill="#000000" fill-rule="evenodd" fill-opacity="1" /><path clip-path="url(#clip260)" d="M32.9415 570.047 L18.9138 570.047 L18.9138 565.788 L54.9322 565.788 L54.9322 570.047 L51.0433 570.047 Q53.3581 571.39 54.4923 573.45 Q55.6035 575.487 55.6035 578.357 Q55.6035 583.056 51.8535 586.019 Q48.1035 588.959 41.9924 588.959 Q35.8813 588.959 32.1314 586.019 Q28.3814 583.056 28.3814 578.357 Q28.3814 575.487 29.5156 573.45 Q30.6267 571.39 32.9415 570.047 M41.9924 584.561 Q46.6915 584.561 49.3766 582.64 Q52.0387 580.695 52.0387 577.316 Q52.0387 573.936 49.3766 571.992 Q46.6915 570.047 41.9924 570.047 Q37.2934 570.047 34.6313 571.992 Q31.9462 573.936 31.9462 577.316 Q31.9462 580.695 34.6313 582.64 Q37.2934 584.561 41.9924 584.561 Z" fill="#000000" fill-rule="evenodd" fill-opacity="1" /><path clip-path="url(#clip260)" d="M1206.32 24.4096 Q1205.42 23.8888 1204.35 23.6573 Q1203.31 23.3969 1202.04 23.3969 Q1197.53 23.3969 1195.09 26.3482 Q1192.69 29.2707 1192.69 34.7683 L1192.69 51.84 L1187.34 51.84 L1187.34 19.4328 L1192.69 19.4328 L1192.69 24.4675 Q1194.37 21.5161 1197.06 20.0983 Q1199.75 18.6515 1203.6 18.6515 Q1204.15 18.6515 1204.82 18.7383 Q1205.48 18.7962 1206.29 18.9409 L1206.32 24.4096 Z" fill="#000000" fill-rule="evenodd" fill-opacity="1" /><path clip-path="url(#clip260)" d="M1238.32 34.3054 L1238.32 36.9095 L1213.84 36.9095 Q1214.19 42.4072 1217.14 45.3007 Q1220.12 48.1653 1225.42 48.1653 Q1228.49 48.1653 1231.35 47.4129 Q1234.24 46.6606 1237.08 45.156 L1237.08 50.1907 Q1234.22 51.406 1231.21 52.0425 Q1228.2 52.6791 1225.1 52.6791 Q1217.35 52.6791 1212.8 48.1653 Q1208.29 43.6514 1208.29 35.9547 Q1208.29 27.9975 1212.57 23.339 Q1216.88 18.6515 1224.17 18.6515 Q1230.71 18.6515 1234.5 22.876 Q1238.32 27.0716 1238.32 34.3054 M1233 32.7429 Q1232.94 28.3737 1230.54 25.7695 Q1228.17 23.1654 1224.23 23.1654 Q1219.78 23.1654 1217.09 25.6827 Q1214.42 28.2001 1214.02 32.7718 L1233 32.7429 Z" fill="#000000" fill-rule="evenodd" fill-opacity="1" /><path clip-path="url(#clip260)" d="M1246.51 39.0507 L1246.51 19.4328 L1251.84 19.4328 L1251.84 38.8482 Q1251.84 43.4488 1253.63 45.7636 Q1255.42 48.0495 1259.01 48.0495 Q1263.32 48.0495 1265.81 45.3007 Q1268.33 42.5519 1268.33 37.8065 L1268.33 19.4328 L1273.65 19.4328 L1273.65 51.84 L1268.33 51.84 L1268.33 46.8632 Q1266.39 49.8145 1263.82 51.2613 Q1261.27 52.6791 1257.88 52.6791 Q1252.3 52.6791 1249.41 49.2069 Q1246.51 45.7347 1246.51 39.0507 M1259.91 18.6515 L1259.91 18.6515 Z" fill="#000000" fill-rule="evenodd" fill-opacity="1" /><path clip-path="url(#clip260)" d="M1289.89 10.2314 L1289.89 19.4328 L1300.85 19.4328 L1300.85 23.5705 L1289.89 23.5705 L1289.89 41.163 Q1289.89 45.1271 1290.96 46.2555 Q1292.06 47.384 1295.38 47.384 L1300.85 47.384 L1300.85 51.84 L1295.38 51.84 Q1289.22 51.84 1286.88 49.5541 Q1284.53 47.2393 1284.53 41.163 L1284.53 23.5705 L1280.63 23.5705 L1280.63 19.4328 L1284.53 19.4328 L1284.53 10.2314 L1289.89 10.2314 Z" fill="#000000" fill-rule="evenodd" fill-opacity="1" /><path clip-path="url(#clip260)" d="M1308.66 8.64 L1331.61 8.64 L1331.61 13.559 L1314.02 13.559 L1314.02 24.1492 Q1315.29 23.7152 1316.56 23.5126 Q1317.84 23.2811 1319.11 23.2811 Q1326.34 23.2811 1330.57 27.2452 Q1334.79 31.2093 1334.79 37.9801 Q1334.79 44.9535 1330.45 48.8308 Q1326.11 52.6791 1318.21 52.6791 Q1315.49 52.6791 1312.66 52.2162 Q1309.85 51.7532 1306.84 50.8273 L1306.84 44.9535 Q1309.45 46.3713 1312.22 47.0657 Q1315 47.7602 1318.1 47.7602 Q1323.1 47.7602 1326.03 45.1271 Q1328.95 42.494 1328.95 37.9801 Q1328.95 33.4663 1326.03 30.8332 Q1323.1 28.2001 1318.1 28.2001 Q1315.75 28.2001 1313.41 28.7209 Q1311.1 29.2417 1308.66 30.3413 L1308.66 8.64 Z" fill="#000000" fill-rule="evenodd" fill-opacity="1" /><path clip-path="url(#clip260)" d="M1351.34 46.921 L1371.74 46.921 L1371.74 51.84 L1344.31 51.84 L1344.31 46.921 Q1347.64 43.4778 1353.37 37.6908 Q1359.13 31.8748 1360.6 30.1966 Q1363.41 27.0427 1364.51 24.8726 Q1365.64 22.6735 1365.64 20.5612 Q1365.64 17.118 1363.21 14.9478 Q1360.81 12.7777 1356.93 12.7777 Q1354.18 12.7777 1351.11 13.7326 Q1348.07 14.6874 1344.6 16.6261 L1344.6 10.7233 Q1348.13 9.30551 1351.2 8.58213 Q1354.27 7.85875 1356.81 7.85875 Q1363.53 7.85875 1367.52 11.2152 Q1371.51 14.5717 1371.51 20.1851 Q1371.51 22.8471 1370.5 25.2487 Q1369.52 27.6214 1366.88 30.8621 Q1366.16 31.7012 1362.28 35.7232 Q1358.4 39.7162 1351.34 46.921 Z" fill="#000000" fill-rule="evenodd" fill-opacity="1" /><polyline clip-path="url(#clip262)" style="stroke:#e26f46; stroke-linecap:butt; stroke-linejoin:round; stroke-width:8; stroke-opacity:1; fill:none" points="
  307.574,213.461 348.073,213.461 388.571,213.461 429.07,213.461 469.569,213.461 510.067,213.461 550.566,213.461 591.065,213.461 631.563,213.461 672.062,213.461 
  712.561,213.461 753.059,213.461 793.558,213.461 834.057,213.461 874.555,213.461 915.054,213.461 955.553,213.461 996.051,213.461 1036.55,213.461 1077.05,213.461 
  1117.55,213.461 1158.05,213.461 1198.54,213.461 1239.04,213.461 1279.54,213.461 1320.04,213.461 1360.54,213.461 1401.04,213.461 1441.54,213.461 1482.03,213.461 
  1522.53,213.461 1563.03,213.461 1603.53,213.461 1644.03,213.461 1684.53,213.461 1725.03,213.461 1765.53,213.461 1806.02,213.461 1846.52,213.461 1887.02,213.461 
  1927.52,213.461 1968.02,213.461 2008.52,213.461 2049.02,213.461 2089.51,213.461 2130.01,213.461 2170.51,213.461 2211.01,213.461 2251.51,213.461 2292.01,213.461 
  
  "/>
<polyline clip-path="url(#clip262)" style="stroke:#3da44d; stroke-linecap:butt; stroke-linejoin:round; stroke-width:8; stroke-opacity:1; fill:none" points="
  307.574,384.709 348.073,384.709 388.571,384.709 429.07,384.709 469.569,384.709 510.067,384.709 550.566,384.709 591.065,384.709 631.563,384.709 672.062,384.709 
  712.561,384.709 753.059,384.709 793.558,384.709 834.057,384.709 874.555,384.709 915.054,384.709 955.553,384.709 996.051,384.709 1036.55,384.709 1077.05,384.709 
  1117.55,384.709 1158.05,384.709 1198.54,384.709 1239.04,384.709 1279.54,384.709 1320.04,384.709 1360.54,384.709 1401.04,384.709 1441.54,384.709 1482.03,384.709 
  1522.53,384.709 1563.03,384.709 1603.53,384.709 1644.03,384.709 1684.53,384.709 1725.03,384.709 1765.53,384.709 1806.02,384.709 1846.52,384.709 1887.02,384.709 
  1927.52,384.709 1968.02,384.709 2008.52,384.709 2049.02,384.709 2089.51,384.709 2130.01,384.709 2170.51,384.709 2211.01,384.709 2251.51,384.709 2292.01,384.709 
  
  "/>
<polyline clip-path="url(#clip262)" style="stroke:#c271d2; stroke-linecap:butt; stroke-linejoin:round; stroke-width:8; stroke-opacity:1; fill:none" points="
  307.574,885.165 348.073,885.165 388.571,885.165 429.07,885.165 469.569,885.165 510.067,885.165 550.566,885.165 591.065,885.165 631.563,885.165 672.062,885.165 
  712.561,885.165 753.059,885.165 793.558,885.165 834.057,885.165 874.555,885.165 915.054,885.165 955.553,885.165 996.051,885.165 1036.55,885.165 1077.05,885.165 
  1117.55,885.165 1158.05,885.165 1198.54,885.165 1239.04,885.165 1279.54,885.165 1320.04,885.165 1360.54,885.165 1401.04,885.165 1441.54,885.165 1482.03,885.165 
  1522.53,885.165 1563.03,885.165 1603.53,885.165 1644.03,885.165 1684.53,885.165 1725.03,885.165 1765.53,885.165 1806.02,885.165 1846.52,885.165 1887.02,885.165 
  1927.52,885.165 1968.02,885.165 2008.52,885.165 2049.02,885.165 2089.51,885.165 2130.01,885.165 2170.51,885.165 2211.01,885.165 2251.51,885.165 2292.01,885.165 
  
  "/>
<polyline clip-path="url(#clip262)" style="stroke:#ac8d18; stroke-linecap:butt; stroke-linejoin:round; stroke-width:8; stroke-opacity:1; fill:none" points="
  307.574,160.316 348.073,160.316 388.571,160.316 429.07,160.316 469.569,160.316 510.067,160.316 550.566,160.316 591.065,160.316 631.563,160.316 672.062,160.316 
  712.561,160.316 753.059,160.316 793.558,160.316 834.057,160.316 874.555,160.316 915.054,160.316 955.553,160.316 996.051,160.316 1036.55,160.316 1077.05,160.316 
  1117.55,160.316 1158.05,160.316 1198.54,160.316 1239.04,160.316 1279.54,160.316 1320.04,160.316 1360.54,160.316 1401.04,160.316 1441.54,160.316 1482.03,160.316 
  1522.53,160.316 1563.03,160.316 1603.53,160.316 1644.03,160.316 1684.53,160.316 1725.03,160.316 1765.53,160.316 1806.02,160.316 1846.52,160.316 1887.02,160.316 
  1927.52,160.316 1968.02,160.316 2008.52,160.316 2049.02,160.316 2089.51,160.316 2130.01,160.316 2170.51,160.316 2211.01,160.316 2251.51,160.316 2292.01,160.316 
  
  "/>
<polyline clip-path="url(#clip262)" style="stroke:#00a9ad; stroke-linecap:butt; stroke-linejoin:round; stroke-width:8; stroke-opacity:1; fill:none" points="
  307.574,144.077 348.073,144.077 388.571,144.077 429.07,144.077 469.569,144.077 510.067,144.077 550.566,144.077 591.065,144.077 631.563,144.077 672.062,144.077 
  712.561,144.077 753.059,144.077 793.558,144.077 834.057,144.077 874.555,144.077 915.054,144.077 955.553,144.077 996.051,144.077 1036.55,144.077 1077.05,144.077 
  1117.55,144.077 1158.05,144.077 1198.54,144.077 1239.04,144.077 1279.54,144.077 1320.04,144.077 1360.54,144.077 1401.04,144.077 1441.54,144.077 1482.03,144.077 
  1522.53,144.077 1563.03,144.077 1603.53,144.077 1644.03,144.077 1684.53,144.077 1725.03,144.077 1765.53,144.077 1806.02,144.077 1846.52,144.077 1887.02,144.077 
  1927.52,144.077 1968.02,144.077 2008.52,144.077 2049.02,144.077 2089.51,144.077 2130.01,144.077 2170.51,144.077 2211.01,144.077 2251.51,144.077 2292.01,144.077 
  
  "/>
<polyline clip-path="url(#clip262)" style="stroke:#009af9; stroke-linecap:butt; stroke-linejoin:round; stroke-width:12; stroke-opacity:1; fill:none" points="
  307.574,1406.9 348.073,993.49 388.571,945.928 429.07,1013.98 469.569,832.766 510.067,982.966 550.566,615.471 591.065,629.901 631.563,545.065 672.062,507.544 
  712.561,460.973 753.059,508.414 793.558,602.312 834.057,480.664 874.555,560.534 915.054,403.47 955.553,490.952 996.051,382.091 1036.55,376.523 1077.05,386.111 
  1117.55,349.271 1158.05,316.557 1198.54,336.625 1239.04,326.894 1279.54,332.743 1320.04,324.235 1360.54,304.888 1401.04,306.02 1441.54,322.9 1482.03,303.916 
  1522.53,314.067 1563.03,313.587 1603.53,293.157 1644.03,270.971 1684.53,285.901 1725.03,282.396 1765.53,290.166 1806.02,276.572 1846.52,263.591 1887.02,270.051 
  1927.52,265.817 1968.02,274.285 2008.52,286.443 2049.02,270.17 2089.51,269.866 2130.01,250.235 2170.51,264.487 2211.01,252.229 2251.51,240.816 2292.01,243.213 
  
  "/>
</svg>
