<?xml version="1.0" encoding="utf-8"?>
<svg xmlns="http://www.w3.org/2000/svg" xmlns:xlink="http://www.w3.org/1999/xlink" width="600" height="400" viewBox="0 0 2400 1600">
<defs>
  <clipPath id="clip670">
    <rect x="0" y="0" width="2400" height="1600"/>
  </clipPath>
</defs>
<path clip-path="url(#clip670)" d="
M0 1600 L2400 1600 L2400 0 L0 0  Z
  " fill="#ffffff" fill-rule="evenodd" fill-opacity="1"/>
<defs>
  <clipPath id="clip671">
    <rect x="480" y="0" width="1681" height="1600"/>
  </clipPath>
</defs>
<path clip-path="url(#clip670)" d="
M339.428 1422.18 L2352.76 1422.18 L2352.76 106.192 L339.428 106.192  Z
  " fill="#eaeaea" fill-rule="evenodd" fill-opacity="1"/>
<defs>
  <clipPath id="clip672">
    <rect x="339" y="106" width="2014" height="1317"/>
  </clipPath>
</defs>
<polyline clip-path="url(#clip672)" style="stroke:#ffffff; stroke-linecap:butt; stroke-linejoin:round; stroke-width:4; stroke-opacity:1; fill:none" points="
  396.409,1422.18 396.409,106.192 
  "/>
<polyline clip-path="url(#clip672)" style="stroke:#ffffff; stroke-linecap:butt; stroke-linejoin:round; stroke-width:4; stroke-opacity:1; fill:none" points="
  542.514,1422.18 542.514,106.192 
  "/>
<polyline clip-path="url(#clip672)" style="stroke:#ffffff; stroke-linecap:butt; stroke-linejoin:round; stroke-width:4; stroke-opacity:1; fill:none" points="
  688.619,1422.18 688.619,106.192 
  "/>
<polyline clip-path="url(#clip672)" style="stroke:#ffffff; stroke-linecap:butt; stroke-linejoin:round; stroke-width:4; stroke-opacity:1; fill:none" points="
  834.724,1422.18 834.724,106.192 
  "/>
<polyline clip-path="url(#clip672)" style="stroke:#ffffff; stroke-linecap:butt; stroke-linejoin:round; stroke-width:4; stroke-opacity:1; fill:none" points="
  980.829,1422.18 980.829,106.192 
  "/>
<polyline clip-path="url(#clip672)" style="stroke:#ffffff; stroke-linecap:butt; stroke-linejoin:round; stroke-width:4; stroke-opacity:1; fill:none" points="
  1126.93,1422.18 1126.93,106.192 
  "/>
<polyline clip-path="url(#clip672)" style="stroke:#ffffff; stroke-linecap:butt; stroke-linejoin:round; stroke-width:4; stroke-opacity:1; fill:none" points="
  1273.04,1422.18 1273.04,106.192 
  "/>
<polyline clip-path="url(#clip672)" style="stroke:#ffffff; stroke-linecap:butt; stroke-linejoin:round; stroke-width:4; stroke-opacity:1; fill:none" points="
  1419.14,1422.18 1419.14,106.192 
  "/>
<polyline clip-path="url(#clip672)" style="stroke:#ffffff; stroke-linecap:butt; stroke-linejoin:round; stroke-width:4; stroke-opacity:1; fill:none" points="
  1565.25,1422.18 1565.25,106.192 
  "/>
<polyline clip-path="url(#clip672)" style="stroke:#ffffff; stroke-linecap:butt; stroke-linejoin:round; stroke-width:4; stroke-opacity:1; fill:none" points="
  1711.35,1422.18 1711.35,106.192 
  "/>
<polyline clip-path="url(#clip672)" style="stroke:#ffffff; stroke-linecap:butt; stroke-linejoin:round; stroke-width:4; stroke-opacity:1; fill:none" points="
  1857.46,1422.18 1857.46,106.192 
  "/>
<polyline clip-path="url(#clip672)" style="stroke:#ffffff; stroke-linecap:butt; stroke-linejoin:round; stroke-width:4; stroke-opacity:1; fill:none" points="
  2003.56,1422.18 2003.56,106.192 
  "/>
<polyline clip-path="url(#clip672)" style="stroke:#ffffff; stroke-linecap:butt; stroke-linejoin:round; stroke-width:4; stroke-opacity:1; fill:none" points="
  2149.67,1422.18 2149.67,106.192 
  "/>
<polyline clip-path="url(#clip672)" style="stroke:#ffffff; stroke-linecap:butt; stroke-linejoin:round; stroke-width:4; stroke-opacity:1; fill:none" points="
  2295.77,1422.18 2295.77,106.192 
  "/>
<polyline clip-path="url(#clip672)" style="stroke:#ffffff; stroke-linecap:butt; stroke-linejoin:round; stroke-width:2; stroke-opacity:1; fill:none" points="
  469.462,1422.18 469.462,106.192 
  "/>
<polyline clip-path="url(#clip672)" style="stroke:#ffffff; stroke-linecap:butt; stroke-linejoin:round; stroke-width:2; stroke-opacity:1; fill:none" points="
  615.567,1422.18 615.567,106.192 
  "/>
<polyline clip-path="url(#clip672)" style="stroke:#ffffff; stroke-linecap:butt; stroke-linejoin:round; stroke-width:2; stroke-opacity:1; fill:none" points="
  761.672,1422.18 761.672,106.192 
  "/>
<polyline clip-path="url(#clip672)" style="stroke:#ffffff; stroke-linecap:butt; stroke-linejoin:round; stroke-width:2; stroke-opacity:1; fill:none" points="
  907.777,1422.18 907.777,106.192 
  "/>
<polyline clip-path="url(#clip672)" style="stroke:#ffffff; stroke-linecap:butt; stroke-linejoin:round; stroke-width:2; stroke-opacity:1; fill:none" points="
  1053.88,1422.18 1053.88,106.192 
  "/>
<polyline clip-path="url(#clip672)" style="stroke:#ffffff; stroke-linecap:butt; stroke-linejoin:round; stroke-width:2; stroke-opacity:1; fill:none" points="
  1199.99,1422.18 1199.99,106.192 
  "/>
<polyline clip-path="url(#clip672)" style="stroke:#ffffff; stroke-linecap:butt; stroke-linejoin:round; stroke-width:2; stroke-opacity:1; fill:none" points="
  1346.09,1422.18 1346.09,106.192 
  "/>
<polyline clip-path="url(#clip672)" style="stroke:#ffffff; stroke-linecap:butt; stroke-linejoin:round; stroke-width:2; stroke-opacity:1; fill:none" points="
  1492.2,1422.18 1492.2,106.192 
  "/>
<polyline clip-path="url(#clip672)" style="stroke:#ffffff; stroke-linecap:butt; stroke-linejoin:round; stroke-width:2; stroke-opacity:1; fill:none" points="
  1638.3,1422.18 1638.3,106.192 
  "/>
<polyline clip-path="url(#clip672)" style="stroke:#ffffff; stroke-linecap:butt; stroke-linejoin:round; stroke-width:2; stroke-opacity:1; fill:none" points="
  1784.41,1422.18 1784.41,106.192 
  "/>
<polyline clip-path="url(#clip672)" style="stroke:#ffffff; stroke-linecap:butt; stroke-linejoin:round; stroke-width:2; stroke-opacity:1; fill:none" points="
  1930.51,1422.18 1930.51,106.192 
  "/>
<polyline clip-path="url(#clip672)" style="stroke:#ffffff; stroke-linecap:butt; stroke-linejoin:round; stroke-width:2; stroke-opacity:1; fill:none" points="
  2076.62,1422.18 2076.62,106.192 
  "/>
<polyline clip-path="url(#clip672)" style="stroke:#ffffff; stroke-linecap:butt; stroke-linejoin:round; stroke-width:2; stroke-opacity:1; fill:none" points="
  2222.72,1422.18 2222.72,106.192 
  "/>
<polyline clip-path="url(#clip670)" style="stroke:#ffffff; stroke-linecap:butt; stroke-linejoin:round; stroke-width:4; stroke-opacity:1; fill:none" points="
  339.428,1422.18 2352.76,1422.18 
  "/>
<polyline clip-path="url(#clip670)" style="stroke:#333333; stroke-linecap:butt; stroke-linejoin:round; stroke-width:4; stroke-opacity:1; fill:none" points="
  396.409,1422.18 396.409,1441.07 
  "/>
<polyline clip-path="url(#clip670)" style="stroke:#333333; stroke-linecap:butt; stroke-linejoin:round; stroke-width:4; stroke-opacity:1; fill:none" points="
  542.514,1422.18 542.514,1441.07 
  "/>
<polyline clip-path="url(#clip670)" style="stroke:#333333; stroke-linecap:butt; stroke-linejoin:round; stroke-width:4; stroke-opacity:1; fill:none" points="
  688.619,1422.18 688.619,1441.07 
  "/>
<polyline clip-path="url(#clip670)" style="stroke:#333333; stroke-linecap:butt; stroke-linejoin:round; stroke-width:4; stroke-opacity:1; fill:none" points="
  834.724,1422.18 834.724,1441.07 
  "/>
<polyline clip-path="url(#clip670)" style="stroke:#333333; stroke-linecap:butt; stroke-linejoin:round; stroke-width:4; stroke-opacity:1; fill:none" points="
  980.829,1422.18 980.829,1441.07 
  "/>
<polyline clip-path="url(#clip670)" style="stroke:#333333; stroke-linecap:butt; stroke-linejoin:round; stroke-width:4; stroke-opacity:1; fill:none" points="
  1126.93,1422.18 1126.93,1441.07 
  "/>
<polyline clip-path="url(#clip670)" style="stroke:#333333; stroke-linecap:butt; stroke-linejoin:round; stroke-width:4; stroke-opacity:1; fill:none" points="
  1273.04,1422.18 1273.04,1441.07 
  "/>
<polyline clip-path="url(#clip670)" style="stroke:#333333; stroke-linecap:butt; stroke-linejoin:round; stroke-width:4; stroke-opacity:1; fill:none" points="
  1419.14,1422.18 1419.14,1441.07 
  "/>
<polyline clip-path="url(#clip670)" style="stroke:#333333; stroke-linecap:butt; stroke-linejoin:round; stroke-width:4; stroke-opacity:1; fill:none" points="
  1565.25,1422.18 1565.25,1441.07 
  "/>
<polyline clip-path="url(#clip670)" style="stroke:#333333; stroke-linecap:butt; stroke-linejoin:round; stroke-width:4; stroke-opacity:1; fill:none" points="
  1711.35,1422.18 1711.35,1441.07 
  "/>
<polyline clip-path="url(#clip670)" style="stroke:#333333; stroke-linecap:butt; stroke-linejoin:round; stroke-width:4; stroke-opacity:1; fill:none" points="
  1857.46,1422.18 1857.46,1441.07 
  "/>
<polyline clip-path="url(#clip670)" style="stroke:#333333; stroke-linecap:butt; stroke-linejoin:round; stroke-width:4; stroke-opacity:1; fill:none" points="
  2003.56,1422.18 2003.56,1441.07 
  "/>
<polyline clip-path="url(#clip670)" style="stroke:#333333; stroke-linecap:butt; stroke-linejoin:round; stroke-width:4; stroke-opacity:1; fill:none" points="
  2149.67,1422.18 2149.67,1441.07 
  "/>
<polyline clip-path="url(#clip670)" style="stroke:#333333; stroke-linecap:butt; stroke-linejoin:round; stroke-width:4; stroke-opacity:1; fill:none" points="
  2295.77,1422.18 2295.77,1441.07 
  "/>
<polyline clip-path="url(#clip670)" style="stroke:#333333; stroke-linecap:butt; stroke-linejoin:round; stroke-width:4; stroke-opacity:1; fill:none" points="
  469.462,1422.18 469.462,1431.63 
  "/>
<polyline clip-path="url(#clip670)" style="stroke:#333333; stroke-linecap:butt; stroke-linejoin:round; stroke-width:4; stroke-opacity:1; fill:none" points="
  615.567,1422.18 615.567,1431.63 
  "/>
<polyline clip-path="url(#clip670)" style="stroke:#333333; stroke-linecap:butt; stroke-linejoin:round; stroke-width:4; stroke-opacity:1; fill:none" points="
  761.672,1422.18 761.672,1431.63 
  "/>
<polyline clip-path="url(#clip670)" style="stroke:#333333; stroke-linecap:butt; stroke-linejoin:round; stroke-width:4; stroke-opacity:1; fill:none" points="
  907.777,1422.18 907.777,1431.63 
  "/>
<polyline clip-path="url(#clip670)" style="stroke:#333333; stroke-linecap:butt; stroke-linejoin:round; stroke-width:4; stroke-opacity:1; fill:none" points="
  1053.88,1422.18 1053.88,1431.63 
  "/>
<polyline clip-path="url(#clip670)" style="stroke:#333333; stroke-linecap:butt; stroke-linejoin:round; stroke-width:4; stroke-opacity:1; fill:none" points="
  1199.99,1422.18 1199.99,1431.63 
  "/>
<polyline clip-path="url(#clip670)" style="stroke:#333333; stroke-linecap:butt; stroke-linejoin:round; stroke-width:4; stroke-opacity:1; fill:none" points="
  1346.09,1422.18 1346.09,1431.63 
  "/>
<polyline clip-path="url(#clip670)" style="stroke:#333333; stroke-linecap:butt; stroke-linejoin:round; stroke-width:4; stroke-opacity:1; fill:none" points="
  1492.2,1422.18 1492.2,1431.63 
  "/>
<polyline clip-path="url(#clip670)" style="stroke:#333333; stroke-linecap:butt; stroke-linejoin:round; stroke-width:4; stroke-opacity:1; fill:none" points="
  1638.3,1422.18 1638.3,1431.63 
  "/>
<polyline clip-path="url(#clip670)" style="stroke:#333333; stroke-linecap:butt; stroke-linejoin:round; stroke-width:4; stroke-opacity:1; fill:none" points="
  1784.41,1422.18 1784.41,1431.63 
  "/>
<polyline clip-path="url(#clip670)" style="stroke:#333333; stroke-linecap:butt; stroke-linejoin:round; stroke-width:4; stroke-opacity:1; fill:none" points="
  1930.51,1422.18 1930.51,1431.63 
  "/>
<polyline clip-path="url(#clip670)" style="stroke:#333333; stroke-linecap:butt; stroke-linejoin:round; stroke-width:4; stroke-opacity:1; fill:none" points="
  2076.62,1422.18 2076.62,1431.63 
  "/>
<polyline clip-path="url(#clip670)" style="stroke:#333333; stroke-linecap:butt; stroke-linejoin:round; stroke-width:4; stroke-opacity:1; fill:none" points="
  2222.72,1422.18 2222.72,1431.63 
  "/>
<path clip-path="url(#clip670)" d="M410.112 1463.13 Q408.758 1460.78 405.757 1460.93 Q402.78 1461.09 398.149 1463.76 Q393.533 1466.43 391.895 1468.94 Q390.28 1471.45 391.634 1473.8 Q392.997 1476.16 395.975 1476 Q398.976 1475.85 403.591 1473.19 Q408.222 1470.52 409.837 1468 Q411.475 1465.49 410.112 1463.13 M412.518 1461.74 Q414.697 1465.51 412.851 1469.23 Q411.028 1472.94 405.345 1476.23 Q399.677 1479.5 395.53 1479.23 Q391.407 1478.96 389.229 1475.19 Q387.05 1471.41 388.872 1467.69 Q390.718 1463.98 396.387 1460.71 Q402.07 1457.43 406.193 1457.69 Q410.339 1457.97 412.518 1461.74 Z" fill="#4c4c4c" fill-rule="evenodd" fill-opacity="1" /><path clip-path="url(#clip670)" d="M534.098 1466.14 L536.963 1471.1 L554.088 1461.21 L549.889 1456.44 L552.655 1454.84 L556.837 1459.58 L558.59 1462.62 L538.699 1474.11 L541.564 1479.07 L539.008 1480.54 L531.542 1467.61 L534.098 1466.14 Z" fill="#4c4c4c" fill-rule="evenodd" fill-opacity="1" /><path clip-path="url(#clip670)" d="M566.747 1481.37 Q565.393 1479.02 562.392 1479.17 Q559.414 1479.33 554.783 1482 Q550.168 1484.66 548.529 1487.17 Q546.915 1489.69 548.269 1492.04 Q549.632 1494.4 552.609 1494.24 Q555.61 1494.09 560.226 1491.43 Q564.857 1488.75 566.471 1486.24 Q568.11 1483.73 566.747 1481.37 M569.153 1479.98 Q571.331 1483.75 569.485 1487.46 Q567.663 1491.18 561.979 1494.46 Q556.311 1497.74 552.165 1497.46 Q548.042 1497.2 545.863 1493.42 Q543.684 1489.65 545.507 1485.93 Q547.353 1482.22 553.021 1478.95 Q558.704 1475.67 562.827 1475.93 Q566.974 1476.2 569.153 1479.98 Z" fill="#4c4c4c" fill-rule="evenodd" fill-opacity="1" /><path clip-path="url(#clip670)" d="M682.061 1469.35 L688.181 1479.95 L685.625 1481.43 L677.396 1467.18 L679.952 1465.7 Q682.739 1466.4 687.465 1467.64 Q692.214 1468.89 693.529 1469.15 Q696.01 1469.66 697.467 1469.58 Q698.949 1469.51 700.046 1468.87 Q701.835 1467.84 702.234 1465.93 Q702.641 1464.03 701.478 1462.01 Q700.653 1460.59 699.237 1459.28 Q697.829 1457.99 695.78 1456.76 L698.847 1454.99 Q700.643 1456.4 701.939 1457.78 Q703.235 1459.15 703.999 1460.48 Q706.013 1463.97 705.467 1467.05 Q704.921 1470.13 702.004 1471.81 Q700.62 1472.61 699.069 1472.81 Q697.541 1473.01 695.067 1472.61 Q694.414 1472.49 691.161 1471.68 Q687.923 1470.86 682.061 1469.35 Z" fill="#4c4c4c" fill-rule="evenodd" fill-opacity="1" /><path clip-path="url(#clip670)" d="M713.503 1482.49 Q712.149 1480.15 709.148 1480.3 Q706.17 1480.45 701.539 1483.13 Q696.924 1485.79 695.285 1488.3 Q693.671 1490.82 695.025 1493.16 Q696.388 1495.52 699.365 1495.37 Q702.366 1495.22 706.982 1492.55 Q711.613 1489.88 713.228 1487.36 Q714.866 1484.86 713.503 1482.49 M715.909 1481.11 Q718.087 1484.88 716.241 1488.59 Q714.419 1492.31 708.736 1495.59 Q703.067 1498.86 698.921 1498.59 Q694.798 1498.33 692.619 1494.55 Q690.44 1490.78 692.263 1487.06 Q694.109 1483.35 699.777 1480.08 Q705.461 1476.79 709.583 1477.06 Q713.73 1477.33 715.909 1481.11 Z" fill="#4c4c4c" fill-rule="evenodd" fill-opacity="1" /><path clip-path="url(#clip670)" d="M841.463 1470.34 Q842.256 1472.79 841.486 1474.86 Q840.724 1476.94 838.559 1478.19 Q835.236 1480.11 832.097 1478.87 Q828.959 1477.64 826.528 1473.43 Q825.712 1472.01 825.13 1470.35 Q824.541 1468.7 824.177 1466.79 L827.109 1465.09 Q827.102 1466.78 827.594 1468.5 Q828.086 1470.22 829.032 1471.86 Q830.681 1474.72 832.668 1475.56 Q834.664 1476.41 836.814 1475.17 Q838.799 1474.02 839.104 1471.98 Q839.433 1469.95 838.001 1467.47 L836.49 1464.85 L838.986 1463.41 L840.566 1466.14 Q841.859 1468.38 843.432 1469.06 Q845.02 1469.73 846.704 1468.76 Q848.433 1467.76 848.638 1465.99 Q848.867 1464.24 847.548 1461.95 Q846.828 1460.71 845.732 1459.43 Q844.637 1458.16 843.076 1456.78 L845.782 1455.21 Q847.262 1456.67 848.37 1458.03 Q849.488 1459.41 850.26 1460.75 Q852.257 1464.21 851.841 1467.13 Q851.441 1470.05 848.765 1471.6 Q846.9 1472.67 844.991 1472.35 Q843.097 1472.02 841.463 1470.34 Z" fill="#4c4c4c" fill-rule="evenodd" fill-opacity="1" /><path clip-path="url(#clip670)" d="M859.556 1482.4 Q858.202 1480.06 855.201 1480.21 Q852.223 1480.36 847.592 1483.04 Q842.977 1485.7 841.338 1488.21 Q839.724 1490.73 841.078 1493.07 Q842.441 1495.43 845.418 1495.28 Q848.419 1495.13 853.035 1492.46 Q857.666 1489.79 859.28 1487.27 Q860.919 1484.76 859.556 1482.4 M861.962 1481.02 Q864.14 1484.79 862.294 1488.5 Q860.472 1492.22 854.789 1495.5 Q849.12 1498.77 844.974 1498.5 Q840.851 1498.24 838.672 1494.46 Q836.493 1490.69 838.316 1486.97 Q840.162 1483.26 845.83 1479.98 Q851.514 1476.7 855.636 1476.97 Q859.783 1477.24 861.962 1481.02 Z" fill="#4c4c4c" fill-rule="evenodd" fill-opacity="1" /><path clip-path="url(#clip670)" d="M995.258 1465.88 L978.848 1465.13 L983.275 1472.8 L995.258 1465.88 M997.444 1463.55 L999.649 1467.37 L985.019 1475.82 L986.868 1479.02 L984.342 1480.48 L982.494 1477.28 L977.201 1480.33 L975.456 1477.31 L980.749 1474.25 L974.898 1464.12 L977.83 1462.43 L997.444 1463.55 Z" fill="#4c4c4c" fill-rule="evenodd" fill-opacity="1" /><path clip-path="url(#clip670)" d="M1006.15 1483.25 Q1004.79 1480.9 1001.79 1481.05 Q998.814 1481.21 994.184 1483.88 Q989.568 1486.54 987.929 1489.05 Q986.315 1491.57 987.669 1493.91 Q989.032 1496.28 992.009 1496.12 Q995.01 1495.97 999.626 1493.31 Q1004.26 1490.63 1005.87 1488.12 Q1007.51 1485.61 1006.15 1483.25 M1008.55 1481.86 Q1010.73 1485.63 1008.89 1489.34 Q1007.06 1493.06 1001.38 1496.34 Q995.711 1499.62 991.565 1499.34 Q987.442 1499.08 985.263 1495.3 Q983.085 1491.53 984.907 1487.81 Q986.753 1484.1 992.421 1480.83 Q998.105 1477.55 1002.23 1477.81 Q1006.37 1478.08 1008.55 1481.86 Z" fill="#4c4c4c" fill-rule="evenodd" fill-opacity="1" /><path clip-path="url(#clip670)" d="M1138.71 1455.16 L1145.59 1467.09 L1143.03 1468.56 L1137.75 1459.42 L1132.25 1462.6 Q1132.86 1463.13 1133.35 1463.73 Q1133.85 1464.32 1134.23 1464.98 Q1136.4 1468.74 1135.61 1472.13 Q1134.82 1475.51 1131.3 1477.54 Q1127.67 1479.63 1124.36 1478.54 Q1121.06 1477.44 1118.69 1473.34 Q1117.87 1471.92 1117.26 1470.31 Q1116.66 1468.71 1116.24 1466.87 L1119.29 1465.11 Q1119.33 1466.89 1119.81 1468.54 Q1120.28 1470.19 1121.21 1471.8 Q1122.71 1474.4 1124.95 1475.13 Q1127.2 1475.86 1129.54 1474.51 Q1131.89 1473.15 1132.38 1470.84 Q1132.87 1468.53 1131.37 1465.93 Q1130.67 1464.72 1129.69 1463.65 Q1128.73 1462.61 1127.43 1461.67 L1138.71 1455.16 Z" fill="#4c4c4c" fill-rule="evenodd" fill-opacity="1" /><path clip-path="url(#clip670)" d="M1151.75 1482.37 Q1150.39 1480.03 1147.39 1480.18 Q1144.42 1480.33 1139.79 1483.01 Q1135.17 1485.67 1133.53 1488.18 Q1131.92 1490.7 1133.27 1493.04 Q1134.63 1495.4 1137.61 1495.25 Q1140.61 1495.1 1145.23 1492.43 Q1149.86 1489.76 1151.47 1487.24 Q1153.11 1484.73 1151.75 1482.37 M1154.15 1480.99 Q1156.33 1484.76 1154.49 1488.47 Q1152.66 1492.19 1146.98 1495.47 Q1141.31 1498.74 1137.17 1498.47 Q1133.04 1498.21 1130.86 1494.43 Q1128.69 1490.66 1130.51 1486.94 Q1132.35 1483.23 1138.02 1479.95 Q1143.71 1476.67 1147.83 1476.94 Q1151.98 1477.21 1154.15 1480.99 Z" fill="#4c4c4c" fill-rule="evenodd" fill-opacity="1" /><path clip-path="url(#clip670)" d="M1278.88 1468.01 Q1277.7 1465.97 1275.6 1465.57 Q1273.52 1465.19 1271.08 1466.6 Q1268.66 1467.99 1267.94 1470 Q1267.23 1472.01 1268.41 1474.05 Q1269.59 1476.1 1271.68 1476.48 Q1273.78 1476.87 1276.21 1475.47 Q1278.64 1474.06 1279.34 1472.05 Q1280.06 1470.06 1278.88 1468.01 M1291.87 1468.55 L1289.11 1470.14 Q1288.99 1468.69 1288.6 1467.35 Q1288.22 1466.03 1287.56 1464.89 Q1285.82 1461.88 1282.87 1461.46 Q1279.93 1461.05 1275.69 1463.19 Q1277.51 1463.33 1278.98 1464.26 Q1280.46 1465.19 1281.39 1466.8 Q1283.34 1470.19 1282.41 1473.33 Q1281.5 1476.48 1277.97 1478.52 Q1274.51 1480.52 1271.24 1479.68 Q1267.97 1478.84 1266.01 1475.44 Q1263.76 1471.55 1265.55 1467.77 Q1267.35 1463.98 1273.02 1460.71 Q1278.34 1457.64 1282.96 1458.34 Q1287.59 1459.03 1290.04 1463.29 Q1290.7 1464.43 1291.15 1465.72 Q1291.6 1467.02 1291.87 1468.55 Z" fill="#4c4c4c" fill-rule="evenodd" fill-opacity="1" /><path clip-path="url(#clip670)" d="M1297.98 1482.6 Q1296.63 1480.25 1293.63 1480.4 Q1290.65 1480.56 1286.02 1483.23 Q1281.4 1485.9 1279.77 1488.41 Q1278.15 1490.92 1279.51 1493.27 Q1280.87 1495.63 1283.85 1495.47 Q1286.85 1495.32 1291.46 1492.66 Q1296.09 1489.99 1297.71 1487.47 Q1299.35 1484.96 1297.98 1482.6 M1300.39 1481.21 Q1302.57 1484.98 1300.72 1488.7 Q1298.9 1492.42 1293.22 1495.7 Q1287.55 1498.97 1283.4 1498.7 Q1279.28 1498.43 1277.1 1494.66 Q1274.92 1490.88 1276.74 1487.16 Q1278.59 1483.45 1284.26 1480.18 Q1289.94 1476.9 1294.06 1477.16 Q1298.21 1477.44 1300.39 1481.21 Z" fill="#4c4c4c" fill-rule="evenodd" fill-opacity="1" /><path clip-path="url(#clip670)" d="M1430.37 1454.22 L1438.7 1468.65 L1437.41 1469.4 L1411.55 1473.46 L1409.72 1470.29 L1434.04 1466.47 L1427.81 1455.69 L1430.37 1454.22 Z" fill="#4c4c4c" fill-rule="evenodd" fill-opacity="1" /><path clip-path="url(#clip670)" d="M1443.87 1482.22 Q1442.52 1479.88 1439.52 1480.03 Q1436.54 1480.18 1431.91 1482.86 Q1427.29 1485.52 1425.65 1488.03 Q1424.04 1490.55 1425.39 1492.89 Q1426.76 1495.25 1429.73 1495.1 Q1432.74 1494.95 1437.35 1492.28 Q1441.98 1489.61 1443.6 1487.09 Q1445.23 1484.58 1443.87 1482.22 M1446.28 1480.84 Q1448.46 1484.61 1446.61 1488.32 Q1444.79 1492.04 1439.1 1495.32 Q1433.44 1498.59 1429.29 1498.32 Q1425.17 1498.06 1422.99 1494.28 Q1420.81 1490.51 1422.63 1486.79 Q1424.48 1483.08 1430.15 1479.8 Q1435.83 1476.52 1439.95 1476.79 Q1444.1 1477.06 1446.28 1480.84 Z" fill="#4c4c4c" fill-rule="evenodd" fill-opacity="1" /><path clip-path="url(#clip670)" d="M1569.13 1468.72 Q1567.88 1466.56 1566 1465.98 Q1564.13 1465.41 1562.1 1466.58 Q1560.07 1467.76 1559.63 1469.66 Q1559.19 1471.57 1560.44 1473.74 Q1561.69 1475.9 1563.57 1476.48 Q1565.46 1477.05 1567.48 1475.89 Q1569.51 1474.72 1569.94 1472.8 Q1570.39 1470.9 1569.13 1468.72 M1568.67 1464.94 Q1568.02 1462.7 1568.73 1460.83 Q1569.44 1458.98 1571.36 1457.87 Q1574.06 1456.31 1576.72 1457.32 Q1579.4 1458.34 1581.32 1461.68 Q1583.26 1465.03 1582.8 1467.85 Q1582.34 1470.66 1579.65 1472.21 Q1577.72 1473.32 1575.75 1473 Q1573.79 1472.69 1572.19 1471.03 Q1572.94 1473.52 1572.16 1475.59 Q1571.38 1477.69 1569.23 1478.93 Q1565.97 1480.81 1563.07 1479.82 Q1560.18 1478.84 1558.03 1475.13 Q1555.89 1471.41 1556.48 1468.41 Q1557.08 1465.41 1560.34 1463.53 Q1562.49 1462.29 1564.69 1462.66 Q1566.89 1463.04 1568.67 1464.94 M1572.82 1461.06 Q1571.08 1462.06 1570.73 1463.71 Q1570.38 1465.37 1571.52 1467.34 Q1572.65 1469.29 1574.26 1469.83 Q1575.88 1470.38 1577.62 1469.37 Q1579.37 1468.36 1579.7 1466.69 Q1580.05 1465.02 1578.92 1463.07 Q1577.78 1461.1 1576.17 1460.57 Q1574.57 1460.05 1572.82 1461.06 Z" fill="#4c4c4c" fill-rule="evenodd" fill-opacity="1" /><path clip-path="url(#clip670)" d="M1590.23 1482.66 Q1588.87 1480.31 1585.87 1480.46 Q1582.9 1480.62 1578.27 1483.29 Q1573.65 1485.96 1572.01 1488.47 Q1570.4 1490.98 1571.75 1493.33 Q1573.11 1495.69 1576.09 1495.53 Q1579.09 1495.38 1583.71 1492.72 Q1588.34 1490.05 1589.95 1487.53 Q1591.59 1485.02 1590.23 1482.66 M1592.63 1481.27 Q1594.81 1485.04 1592.97 1488.76 Q1591.14 1492.48 1585.46 1495.76 Q1579.79 1499.03 1575.65 1498.76 Q1571.52 1498.49 1569.35 1494.72 Q1567.17 1490.94 1568.99 1487.23 Q1570.83 1483.51 1576.5 1480.24 Q1582.19 1476.96 1586.31 1477.23 Q1590.46 1477.5 1592.63 1481.27 Z" fill="#4c4c4c" fill-rule="evenodd" fill-opacity="1" /><path clip-path="url(#clip670)" d="M1701.43 1468.35 L1704.2 1466.75 Q1704.32 1468.21 1704.71 1469.55 Q1705.1 1470.88 1705.75 1472.01 Q1707.49 1475.02 1710.41 1475.43 Q1713.36 1475.86 1717.61 1473.7 Q1715.81 1473.58 1714.35 1472.64 Q1712.89 1471.7 1711.95 1470.08 Q1710 1466.71 1710.9 1463.57 Q1711.81 1460.43 1715.35 1458.39 Q1718.8 1456.4 1722.08 1457.23 Q1725.35 1458.07 1727.31 1461.47 Q1729.56 1465.36 1727.74 1469.14 Q1725.96 1472.91 1720.27 1476.2 Q1714.97 1479.26 1710.33 1478.57 Q1705.73 1477.88 1703.27 1473.62 Q1702.61 1472.48 1702.16 1471.18 Q1701.71 1469.87 1701.43 1468.35 M1714.44 1468.9 Q1715.62 1470.95 1717.7 1471.33 Q1719.79 1471.72 1722.23 1470.32 Q1724.65 1468.92 1725.35 1466.91 Q1726.08 1464.9 1724.9 1462.86 Q1723.72 1460.81 1721.61 1460.43 Q1719.53 1460.05 1717.11 1461.44 Q1714.67 1462.85 1713.96 1464.85 Q1713.26 1466.86 1714.44 1468.9 Z" fill="#4c4c4c" fill-rule="evenodd" fill-opacity="1" /><path clip-path="url(#clip670)" d="M1736.42 1482.81 Q1735.07 1480.46 1732.07 1480.61 Q1729.09 1480.77 1724.46 1483.44 Q1719.84 1486.11 1718.2 1488.62 Q1716.59 1491.13 1717.94 1493.48 Q1719.31 1495.84 1722.28 1495.68 Q1725.28 1495.53 1729.9 1492.87 Q1734.53 1490.2 1736.15 1487.68 Q1737.78 1485.17 1736.42 1482.81 M1738.83 1481.42 Q1741.01 1485.2 1739.16 1488.91 Q1737.34 1492.63 1731.65 1495.91 Q1725.99 1499.18 1721.84 1498.91 Q1717.72 1498.64 1715.54 1494.87 Q1713.36 1491.09 1715.18 1487.38 Q1717.03 1483.66 1722.69 1480.39 Q1728.38 1477.11 1732.5 1477.38 Q1736.65 1477.65 1738.83 1481.42 Z" fill="#4c4c4c" fill-rule="evenodd" fill-opacity="1" /><path clip-path="url(#clip670)" d="M1849.04 1466.14 L1851.91 1471.1 L1869.03 1461.21 L1864.83 1456.44 L1867.6 1454.84 L1871.78 1459.58 L1873.54 1462.62 L1853.64 1474.11 L1856.51 1479.07 L1853.95 1480.54 L1846.49 1467.61 L1849.04 1466.14 Z" fill="#4c4c4c" fill-rule="evenodd" fill-opacity="1" /><path clip-path="url(#clip670)" d="M1881.69 1481.37 Q1880.34 1479.02 1877.34 1479.17 Q1874.36 1479.33 1869.73 1482 Q1865.11 1484.66 1863.47 1487.17 Q1861.86 1489.69 1863.21 1492.04 Q1864.58 1494.4 1867.55 1494.24 Q1870.56 1494.09 1875.17 1491.43 Q1879.8 1488.75 1881.42 1486.24 Q1883.06 1483.73 1881.69 1481.37 M1884.1 1479.98 Q1886.28 1483.75 1884.43 1487.46 Q1882.61 1491.18 1876.92 1494.46 Q1871.26 1497.74 1867.11 1497.46 Q1862.99 1497.2 1860.81 1493.42 Q1858.63 1489.65 1860.45 1485.93 Q1862.3 1482.22 1867.97 1478.95 Q1873.65 1475.67 1877.77 1475.93 Q1881.92 1476.2 1884.1 1479.98 Z" fill="#4c4c4c" fill-rule="evenodd" fill-opacity="1" /><path clip-path="url(#clip670)" d="M1893 1500.96 Q1891.65 1498.61 1888.65 1498.76 Q1885.67 1498.92 1881.04 1501.59 Q1876.42 1504.26 1874.79 1506.76 Q1873.17 1509.28 1874.52 1511.63 Q1875.89 1513.99 1878.87 1513.83 Q1881.87 1513.68 1886.48 1511.02 Q1891.11 1508.34 1892.73 1505.83 Q1894.37 1503.32 1893 1500.96 M1895.41 1499.57 Q1897.59 1503.34 1895.74 1507.05 Q1893.92 1510.77 1888.24 1514.05 Q1882.57 1517.33 1878.42 1517.05 Q1874.3 1516.79 1872.12 1513.01 Q1869.94 1509.24 1871.76 1505.52 Q1873.61 1501.81 1879.28 1498.54 Q1884.96 1495.26 1889.08 1495.52 Q1893.23 1495.8 1895.41 1499.57 Z" fill="#4c4c4c" fill-rule="evenodd" fill-opacity="1" /><path clip-path="url(#clip670)" d="M1995.15 1466.14 L1998.01 1471.1 L2015.14 1461.21 L2010.94 1456.44 L2013.71 1454.84 L2017.89 1459.58 L2019.64 1462.62 L1999.75 1474.11 L2002.61 1479.07 L2000.06 1480.54 L1992.59 1467.61 L1995.15 1466.14 Z" fill="#4c4c4c" fill-rule="evenodd" fill-opacity="1" /><path clip-path="url(#clip670)" d="M2006.46 1485.73 L2009.32 1490.69 L2026.45 1480.8 L2022.25 1476.03 L2025.02 1474.43 L2029.2 1479.18 L2030.95 1482.21 L2011.06 1493.7 L2013.92 1498.66 L2011.37 1500.13 L2003.9 1487.2 L2006.46 1485.73 Z" fill="#4c4c4c" fill-rule="evenodd" fill-opacity="1" /><path clip-path="url(#clip670)" d="M2039.11 1500.96 Q2037.75 1498.61 2034.75 1498.76 Q2031.78 1498.92 2027.14 1501.59 Q2022.53 1504.26 2020.89 1506.76 Q2019.28 1509.28 2020.63 1511.63 Q2021.99 1513.99 2024.97 1513.83 Q2027.97 1513.68 2032.59 1511.02 Q2037.22 1508.34 2038.83 1505.83 Q2040.47 1503.32 2039.11 1500.96 M2041.51 1499.57 Q2043.69 1503.34 2041.85 1507.05 Q2040.02 1510.77 2034.34 1514.05 Q2028.67 1517.33 2024.53 1517.05 Q2020.4 1516.79 2018.22 1513.01 Q2016.05 1509.24 2017.87 1505.52 Q2019.71 1501.81 2025.38 1498.54 Q2031.07 1495.26 2035.19 1495.52 Q2039.33 1495.8 2041.51 1499.57 Z" fill="#4c4c4c" fill-rule="evenodd" fill-opacity="1" /><path clip-path="url(#clip670)" d="M2141.25 1466.14 L2144.12 1471.1 L2161.24 1461.21 L2157.04 1456.44 L2159.81 1454.84 L2163.99 1459.58 L2165.75 1462.62 L2145.85 1474.11 L2148.72 1479.07 L2146.16 1480.54 L2138.7 1467.61 L2141.25 1466.14 Z" fill="#4c4c4c" fill-rule="evenodd" fill-opacity="1" /><path clip-path="url(#clip670)" d="M2153.77 1487.82 L2159.89 1498.42 L2157.33 1499.89 L2149.11 1485.64 L2151.66 1484.16 Q2154.45 1484.86 2159.18 1486.1 Q2163.92 1487.35 2165.24 1487.61 Q2167.72 1488.12 2169.18 1488.04 Q2170.66 1487.97 2171.76 1487.34 Q2173.55 1486.3 2173.94 1484.39 Q2174.35 1482.49 2173.19 1480.48 Q2172.36 1479.05 2170.95 1477.74 Q2169.54 1476.45 2167.49 1475.23 L2170.56 1473.46 Q2172.35 1474.86 2173.65 1476.24 Q2174.95 1477.62 2175.71 1478.94 Q2177.72 1482.43 2177.18 1485.51 Q2176.63 1488.59 2173.71 1490.28 Q2172.33 1491.08 2170.78 1491.27 Q2169.25 1491.47 2166.78 1491.07 Q2166.12 1490.95 2162.87 1490.14 Q2159.63 1489.32 2153.77 1487.82 Z" fill="#4c4c4c" fill-rule="evenodd" fill-opacity="1" /><path clip-path="url(#clip670)" d="M2185.21 1500.96 Q2183.86 1498.61 2180.86 1498.76 Q2177.88 1498.92 2173.25 1501.59 Q2168.63 1504.26 2167 1506.76 Q2165.38 1509.28 2166.74 1511.63 Q2168.1 1513.99 2171.08 1513.83 Q2174.08 1513.68 2178.69 1511.02 Q2183.32 1508.34 2184.94 1505.83 Q2186.58 1503.32 2185.21 1500.96 M2187.62 1499.57 Q2189.8 1503.34 2187.95 1507.05 Q2186.13 1510.77 2180.45 1514.05 Q2174.78 1517.33 2170.63 1517.05 Q2166.51 1516.79 2164.33 1513.01 Q2162.15 1509.24 2163.97 1505.52 Q2165.82 1501.81 2171.49 1498.54 Q2177.17 1495.26 2181.29 1495.52 Q2185.44 1495.8 2187.62 1499.57 Z" fill="#4c4c4c" fill-rule="evenodd" fill-opacity="1" /><path clip-path="url(#clip670)" d="M2287.36 1466.14 L2290.22 1471.1 L2307.35 1461.21 L2303.15 1456.44 L2305.92 1454.84 L2310.1 1459.58 L2311.85 1462.62 L2291.96 1474.11 L2294.82 1479.07 L2292.27 1480.54 L2284.8 1467.61 L2287.36 1466.14 Z" fill="#4c4c4c" fill-rule="evenodd" fill-opacity="1" /><path clip-path="url(#clip670)" d="M2313.23 1488.89 Q2314.02 1491.34 2313.25 1493.41 Q2312.49 1495.49 2310.32 1496.74 Q2307 1498.66 2303.86 1497.43 Q2300.72 1496.19 2298.29 1491.98 Q2297.47 1490.57 2296.89 1488.9 Q2296.3 1487.25 2295.94 1485.34 L2298.87 1483.65 Q2298.86 1485.34 2299.36 1487.06 Q2299.85 1488.78 2300.79 1490.41 Q2302.44 1493.27 2304.43 1494.11 Q2306.43 1494.96 2308.58 1493.72 Q2310.56 1492.57 2310.87 1490.53 Q2311.2 1488.5 2309.76 1486.02 L2308.25 1483.4 L2310.75 1481.96 L2312.33 1484.7 Q2313.62 1486.94 2315.19 1487.61 Q2316.78 1488.28 2318.47 1487.31 Q2320.2 1486.31 2320.4 1484.55 Q2320.63 1482.79 2319.31 1480.51 Q2318.59 1479.26 2317.49 1477.99 Q2316.4 1476.71 2314.84 1475.33 L2317.54 1473.77 Q2319.02 1475.22 2320.13 1476.58 Q2321.25 1477.96 2322.02 1479.3 Q2324.02 1482.76 2323.6 1485.69 Q2323.2 1488.6 2320.53 1490.15 Q2318.66 1491.22 2316.75 1490.9 Q2314.86 1490.57 2313.23 1488.89 Z" fill="#4c4c4c" fill-rule="evenodd" fill-opacity="1" /><path clip-path="url(#clip670)" d="M2331.32 1500.96 Q2329.96 1498.61 2326.96 1498.76 Q2323.99 1498.92 2319.35 1501.59 Q2314.74 1504.26 2313.1 1506.76 Q2311.49 1509.28 2312.84 1511.63 Q2314.2 1513.99 2317.18 1513.83 Q2320.18 1513.68 2324.8 1511.02 Q2329.43 1508.34 2331.04 1505.83 Q2332.68 1503.32 2331.32 1500.96 M2333.72 1499.57 Q2335.9 1503.34 2334.06 1507.05 Q2332.23 1510.77 2326.55 1514.05 Q2320.88 1517.33 2316.74 1517.05 Q2312.61 1516.79 2310.43 1513.01 Q2308.26 1509.24 2310.08 1505.52 Q2311.92 1501.81 2317.59 1498.54 Q2323.28 1495.26 2327.4 1495.52 Q2331.55 1495.8 2333.72 1499.57 Z" fill="#4c4c4c" fill-rule="evenodd" fill-opacity="1" /><path clip-path="url(#clip670)" d="M1236.68 1537.87 L1241.36 1537.87 L1241.36 1572.43 L1236.68 1572.43 L1236.68 1537.87 Z" fill="#000000" fill-rule="evenodd" fill-opacity="1" /><path clip-path="url(#clip670)" d="M1254.69 1539.15 L1254.69 1546.51 L1263.47 1546.51 L1263.47 1549.82 L1254.69 1549.82 L1254.69 1563.89 Q1254.69 1567.06 1255.55 1567.97 Q1256.43 1568.87 1259.09 1568.87 L1263.47 1568.87 L1263.47 1572.43 L1259.09 1572.43 Q1254.16 1572.43 1252.28 1570.6 Q1250.41 1568.75 1250.41 1563.89 L1250.41 1549.82 L1247.28 1549.82 L1247.28 1546.51 L1250.41 1546.51 L1250.41 1539.15 L1254.69 1539.15 Z" fill="#000000" fill-rule="evenodd" fill-opacity="1" /><path clip-path="url(#clip670)" d="M1291.24 1558.41 L1291.24 1560.49 L1271.66 1560.49 Q1271.94 1564.89 1274.3 1567.2 Q1276.68 1569.49 1280.92 1569.49 Q1283.37 1569.49 1285.66 1568.89 Q1287.98 1568.29 1290.25 1567.09 L1290.25 1571.11 Q1287.96 1572.09 1285.55 1572.6 Q1283.14 1573.1 1280.66 1573.1 Q1274.46 1573.1 1270.83 1569.49 Q1267.22 1565.88 1267.22 1559.73 Q1267.22 1553.36 1270.64 1549.63 Q1274.09 1545.88 1279.92 1545.88 Q1285.15 1545.88 1288.19 1549.26 Q1291.24 1552.62 1291.24 1558.41 M1286.98 1557.16 Q1286.94 1553.66 1285.02 1551.58 Q1283.12 1549.49 1279.97 1549.49 Q1276.4 1549.49 1274.25 1551.51 Q1272.12 1553.52 1271.8 1557.18 L1286.98 1557.16 Z" fill="#000000" fill-rule="evenodd" fill-opacity="1" /><path clip-path="url(#clip670)" d="M1313.26 1550.49 Q1312.54 1550.07 1311.68 1549.89 Q1310.85 1549.68 1309.83 1549.68 Q1306.22 1549.68 1304.28 1552.04 Q1302.35 1554.38 1302.35 1558.78 L1302.35 1572.43 L1298.07 1572.43 L1298.07 1546.51 L1302.35 1546.51 L1302.35 1550.54 Q1303.7 1548.17 1305.85 1547.04 Q1308 1545.88 1311.08 1545.88 Q1311.52 1545.88 1312.05 1545.95 Q1312.59 1546 1313.23 1546.11 L1313.26 1550.49 Z" fill="#000000" fill-rule="evenodd" fill-opacity="1" /><path clip-path="url(#clip670)" d="M1329.51 1559.4 Q1324.34 1559.4 1322.35 1560.58 Q1320.36 1561.76 1320.36 1564.61 Q1320.36 1566.88 1321.84 1568.22 Q1323.35 1569.54 1325.92 1569.54 Q1329.46 1569.54 1331.59 1567.04 Q1333.74 1564.52 1333.74 1560.35 L1333.74 1559.4 L1329.51 1559.4 M1338 1557.64 L1338 1572.43 L1333.74 1572.43 L1333.74 1568.5 Q1332.28 1570.86 1330.11 1571.99 Q1327.93 1573.1 1324.78 1573.1 Q1320.8 1573.1 1318.44 1570.88 Q1316.1 1568.64 1316.1 1564.89 Q1316.1 1560.51 1319.02 1558.29 Q1321.96 1556.07 1327.77 1556.07 L1333.74 1556.07 L1333.74 1555.65 Q1333.74 1552.71 1331.8 1551.11 Q1329.88 1549.49 1326.38 1549.49 Q1324.16 1549.49 1322.05 1550.03 Q1319.95 1550.56 1318 1551.62 L1318 1547.69 Q1320.34 1546.79 1322.54 1546.35 Q1324.74 1545.88 1326.82 1545.88 Q1332.45 1545.88 1335.22 1548.8 Q1338 1551.72 1338 1557.64 Z" fill="#000000" fill-rule="evenodd" fill-opacity="1" /><path clip-path="url(#clip670)" d="M1350.99 1539.15 L1350.99 1546.51 L1359.76 1546.51 L1359.76 1549.82 L1350.99 1549.82 L1350.99 1563.89 Q1350.99 1567.06 1351.84 1567.97 Q1352.72 1568.87 1355.39 1568.87 L1359.76 1568.87 L1359.76 1572.43 L1355.39 1572.43 Q1350.46 1572.43 1348.58 1570.6 Q1346.71 1568.75 1346.71 1563.89 L1346.71 1549.82 L1343.58 1549.82 L1343.58 1546.51 L1346.71 1546.51 L1346.71 1539.15 L1350.99 1539.15 Z" fill="#000000" fill-rule="evenodd" fill-opacity="1" /><path clip-path="url(#clip670)" d="M1365.36 1546.51 L1369.62 1546.51 L1369.62 1572.43 L1365.36 1572.43 L1365.36 1546.51 M1365.36 1536.42 L1369.62 1536.42 L1369.62 1541.81 L1365.36 1541.81 L1365.36 1536.42 Z" fill="#000000" fill-rule="evenodd" fill-opacity="1" /><path clip-path="url(#clip670)" d="M1388.58 1549.49 Q1385.15 1549.49 1383.16 1552.18 Q1381.17 1554.84 1381.17 1559.49 Q1381.17 1564.15 1383.14 1566.83 Q1385.13 1569.49 1388.58 1569.49 Q1391.98 1569.49 1393.97 1566.81 Q1395.96 1564.12 1395.96 1559.49 Q1395.96 1554.89 1393.97 1552.2 Q1391.98 1549.49 1388.58 1549.49 M1388.58 1545.88 Q1394.14 1545.88 1397.31 1549.49 Q1400.48 1553.1 1400.48 1559.49 Q1400.48 1565.86 1397.31 1569.49 Q1394.14 1573.1 1388.58 1573.1 Q1383 1573.1 1379.83 1569.49 Q1376.68 1565.86 1376.68 1559.49 Q1376.68 1553.1 1379.83 1549.49 Q1383 1545.88 1388.58 1545.88 Z" fill="#000000" fill-rule="evenodd" fill-opacity="1" /><path clip-path="url(#clip670)" d="M1429.09 1556.79 L1429.09 1572.43 L1424.83 1572.43 L1424.83 1556.92 Q1424.83 1553.24 1423.39 1551.41 Q1421.96 1549.59 1419.09 1549.59 Q1415.64 1549.59 1413.65 1551.79 Q1411.66 1553.98 1411.66 1557.78 L1411.66 1572.43 L1407.38 1572.43 L1407.38 1546.51 L1411.66 1546.51 L1411.66 1550.54 Q1413.19 1548.2 1415.25 1547.04 Q1417.33 1545.88 1420.04 1545.88 Q1424.51 1545.88 1426.8 1548.66 Q1429.09 1551.41 1429.09 1556.79 Z" fill="#000000" fill-rule="evenodd" fill-opacity="1" /><path clip-path="url(#clip670)" d="M1454.11 1547.27 L1454.11 1551.3 Q1452.31 1550.37 1450.36 1549.91 Q1448.42 1549.45 1446.33 1549.45 Q1443.16 1549.45 1441.57 1550.42 Q1439.99 1551.39 1439.99 1553.34 Q1439.99 1554.82 1441.13 1555.67 Q1442.26 1556.51 1445.69 1557.27 L1447.14 1557.6 Q1451.68 1558.57 1453.58 1560.35 Q1455.5 1562.11 1455.5 1565.28 Q1455.5 1568.89 1452.63 1571 Q1449.78 1573.1 1444.78 1573.1 Q1442.7 1573.1 1440.43 1572.69 Q1438.19 1572.29 1435.69 1571.48 L1435.69 1567.09 Q1438.05 1568.31 1440.34 1568.94 Q1442.63 1569.54 1444.88 1569.54 Q1447.89 1569.54 1449.51 1568.52 Q1451.13 1567.48 1451.13 1565.6 Q1451.13 1563.87 1449.95 1562.94 Q1448.79 1562.02 1444.83 1561.16 L1443.35 1560.81 Q1439.39 1559.98 1437.63 1558.27 Q1435.87 1556.53 1435.87 1553.52 Q1435.87 1549.86 1438.46 1547.87 Q1441.06 1545.88 1445.83 1545.88 Q1448.19 1545.88 1450.27 1546.23 Q1452.35 1546.58 1454.11 1547.27 Z" fill="#000000" fill-rule="evenodd" fill-opacity="1" /><polyline clip-path="url(#clip672)" style="stroke:#ffffff; stroke-linecap:butt; stroke-linejoin:round; stroke-width:4; stroke-opacity:1; fill:none" points="
  339.428,1189.24 2352.76,1189.24 
  "/>
<polyline clip-path="url(#clip672)" style="stroke:#ffffff; stroke-linecap:butt; stroke-linejoin:round; stroke-width:4; stroke-opacity:1; fill:none" points="
  339.428,931.004 2352.76,931.004 
  "/>
<polyline clip-path="url(#clip672)" style="stroke:#ffffff; stroke-linecap:butt; stroke-linejoin:round; stroke-width:4; stroke-opacity:1; fill:none" points="
  339.428,672.768 2352.76,672.768 
  "/>
<polyline clip-path="url(#clip672)" style="stroke:#ffffff; stroke-linecap:butt; stroke-linejoin:round; stroke-width:4; stroke-opacity:1; fill:none" points="
  339.428,414.532 2352.76,414.532 
  "/>
<polyline clip-path="url(#clip672)" style="stroke:#ffffff; stroke-linecap:butt; stroke-linejoin:round; stroke-width:4; stroke-opacity:1; fill:none" points="
  339.428,156.297 2352.76,156.297 
  "/>
<polyline clip-path="url(#clip672)" style="stroke:#ffffff; stroke-linecap:butt; stroke-linejoin:round; stroke-width:2; stroke-opacity:1; fill:none" points="
  339.428,1318.36 2352.76,1318.36 
  "/>
<polyline clip-path="url(#clip672)" style="stroke:#ffffff; stroke-linecap:butt; stroke-linejoin:round; stroke-width:2; stroke-opacity:1; fill:none" points="
  339.428,1060.12 2352.76,1060.12 
  "/>
<polyline clip-path="url(#clip672)" style="stroke:#ffffff; stroke-linecap:butt; stroke-linejoin:round; stroke-width:2; stroke-opacity:1; fill:none" points="
  339.428,801.886 2352.76,801.886 
  "/>
<polyline clip-path="url(#clip672)" style="stroke:#ffffff; stroke-linecap:butt; stroke-linejoin:round; stroke-width:2; stroke-opacity:1; fill:none" points="
  339.428,543.65 2352.76,543.65 
  "/>
<polyline clip-path="url(#clip672)" style="stroke:#ffffff; stroke-linecap:butt; stroke-linejoin:round; stroke-width:2; stroke-opacity:1; fill:none" points="
  339.428,285.415 2352.76,285.415 
  "/>
<polyline clip-path="url(#clip670)" style="stroke:#ffffff; stroke-linecap:butt; stroke-linejoin:round; stroke-width:4; stroke-opacity:1; fill:none" points="
  339.428,1422.18 339.428,106.192 
  "/>
<polyline clip-path="url(#clip670)" style="stroke:#333333; stroke-linecap:butt; stroke-linejoin:round; stroke-width:4; stroke-opacity:1; fill:none" points="
  339.428,1189.24 320.531,1189.24 
  "/>
<polyline clip-path="url(#clip670)" style="stroke:#333333; stroke-linecap:butt; stroke-linejoin:round; stroke-width:4; stroke-opacity:1; fill:none" points="
  339.428,931.004 320.531,931.004 
  "/>
<polyline clip-path="url(#clip670)" style="stroke:#333333; stroke-linecap:butt; stroke-linejoin:round; stroke-width:4; stroke-opacity:1; fill:none" points="
  339.428,672.768 320.531,672.768 
  "/>
<polyline clip-path="url(#clip670)" style="stroke:#333333; stroke-linecap:butt; stroke-linejoin:round; stroke-width:4; stroke-opacity:1; fill:none" points="
  339.428,414.532 320.531,414.532 
  "/>
<polyline clip-path="url(#clip670)" style="stroke:#333333; stroke-linecap:butt; stroke-linejoin:round; stroke-width:4; stroke-opacity:1; fill:none" points="
  339.428,156.297 320.531,156.297 
  "/>
<polyline clip-path="url(#clip670)" style="stroke:#333333; stroke-linecap:butt; stroke-linejoin:round; stroke-width:4; stroke-opacity:1; fill:none" points="
  339.428,1318.36 329.979,1318.36 
  "/>
<polyline clip-path="url(#clip670)" style="stroke:#333333; stroke-linecap:butt; stroke-linejoin:round; stroke-width:4; stroke-opacity:1; fill:none" points="
  339.428,1060.12 329.979,1060.12 
  "/>
<polyline clip-path="url(#clip670)" style="stroke:#333333; stroke-linecap:butt; stroke-linejoin:round; stroke-width:4; stroke-opacity:1; fill:none" points="
  339.428,801.886 329.979,801.886 
  "/>
<polyline clip-path="url(#clip670)" style="stroke:#333333; stroke-linecap:butt; stroke-linejoin:round; stroke-width:4; stroke-opacity:1; fill:none" points="
  339.428,543.65 329.979,543.65 
  "/>
<polyline clip-path="url(#clip670)" style="stroke:#333333; stroke-linecap:butt; stroke-linejoin:round; stroke-width:4; stroke-opacity:1; fill:none" points="
  339.428,285.415 329.979,285.415 
  "/>
<path clip-path="url(#clip670)" d="M193.901 1189.58 L216.158 1189.58 L216.158 1192.53 L193.901 1192.53 L193.901 1189.58 Z" fill="#4c4c4c" fill-rule="evenodd" fill-opacity="1" /><path clip-path="url(#clip670)" d="M224.335 1199.25 L230.064 1199.25 L230.064 1179.47 L223.831 1180.72 L223.831 1177.53 L230.029 1176.28 L233.536 1176.28 L233.536 1199.25 L239.265 1199.25 L239.265 1202.2 L224.335 1202.2 L224.335 1199.25 Z" fill="#4c4c4c" fill-rule="evenodd" fill-opacity="1" /><path clip-path="url(#clip670)" d="M254.283 1187.84 Q251.921 1187.84 250.533 1189.46 Q249.161 1191.07 249.161 1193.88 Q249.161 1196.68 250.533 1198.31 Q251.921 1199.92 254.283 1199.92 Q256.644 1199.92 258.015 1198.31 Q259.404 1196.68 259.404 1193.88 Q259.404 1191.07 258.015 1189.46 Q256.644 1187.84 254.283 1187.84 M261.244 1176.85 L261.244 1180.05 Q259.925 1179.42 258.571 1179.09 Q257.234 1178.76 255.915 1178.76 Q252.442 1178.76 250.602 1181.11 Q248.779 1183.45 248.519 1188.19 Q249.543 1186.68 251.088 1185.88 Q252.633 1185.06 254.491 1185.06 Q258.397 1185.06 260.654 1187.44 Q262.928 1189.8 262.928 1193.88 Q262.928 1197.88 260.567 1200.29 Q258.206 1202.7 254.283 1202.7 Q249.786 1202.7 247.408 1199.27 Q245.029 1195.81 245.029 1189.27 Q245.029 1183.12 247.946 1179.47 Q250.862 1175.81 255.776 1175.81 Q257.095 1175.81 258.432 1176.07 Q259.786 1176.33 261.244 1176.85 Z" fill="#4c4c4c" fill-rule="evenodd" fill-opacity="1" /><path clip-path="url(#clip670)" d="M276.47 1178.59 Q273.762 1178.59 272.39 1181.26 Q271.036 1183.92 271.036 1189.27 Q271.036 1194.6 272.39 1197.27 Q273.762 1199.92 276.47 1199.92 Q279.196 1199.92 280.55 1197.27 Q281.921 1194.6 281.921 1189.27 Q281.921 1183.92 280.55 1181.26 Q279.196 1178.59 276.47 1178.59 M276.47 1175.81 Q280.828 1175.81 283.119 1179.27 Q285.428 1182.7 285.428 1189.27 Q285.428 1195.81 283.119 1199.27 Q280.828 1202.7 276.47 1202.7 Q272.112 1202.7 269.803 1199.27 Q267.512 1195.81 267.512 1189.27 Q267.512 1182.7 269.803 1179.27 Q272.112 1175.81 276.47 1175.81 Z" fill="#4c4c4c" fill-rule="evenodd" fill-opacity="1" /><path clip-path="url(#clip670)" d="M193.97 931.342 L216.227 931.342 L216.227 934.294 L193.97 934.294 L193.97 931.342 Z" fill="#4c4c4c" fill-rule="evenodd" fill-opacity="1" /><path clip-path="url(#clip670)" d="M224.404 941.012 L230.133 941.012 L230.133 921.238 L223.901 922.488 L223.901 919.294 L230.099 918.044 L233.606 918.044 L233.606 941.012 L239.335 941.012 L239.335 943.964 L224.404 943.964 L224.404 941.012 Z" fill="#4c4c4c" fill-rule="evenodd" fill-opacity="1" /><path clip-path="url(#clip670)" d="M246.453 918.044 L260.22 918.044 L260.22 920.995 L249.665 920.995 L249.665 927.349 Q250.428 927.089 251.192 926.967 Q251.956 926.828 252.72 926.828 Q257.06 926.828 259.595 929.207 Q262.13 931.585 262.13 935.648 Q262.13 939.832 259.526 942.158 Q256.921 944.467 252.182 944.467 Q250.55 944.467 248.849 944.189 Q247.165 943.912 245.359 943.356 L245.359 939.832 Q246.922 940.682 248.588 941.099 Q250.255 941.516 252.112 941.516 Q255.116 941.516 256.869 939.936 Q258.623 938.356 258.623 935.648 Q258.623 932.939 256.869 931.359 Q255.116 929.78 252.112 929.78 Q250.706 929.78 249.3 930.092 Q247.911 930.405 246.453 931.064 L246.453 918.044 Z" fill="#4c4c4c" fill-rule="evenodd" fill-opacity="1" /><path clip-path="url(#clip670)" d="M276.539 931.655 Q274.039 931.655 272.598 932.991 Q271.175 934.328 271.175 936.672 Q271.175 939.016 272.598 940.353 Q274.039 941.689 276.539 941.689 Q279.039 941.689 280.48 940.353 Q281.921 938.998 281.921 936.672 Q281.921 934.328 280.48 932.991 Q279.057 931.655 276.539 931.655 M273.032 930.162 Q270.776 929.606 269.508 928.061 Q268.258 926.516 268.258 924.294 Q268.258 921.186 270.463 919.38 Q272.685 917.575 276.539 917.575 Q280.411 917.575 282.616 919.38 Q284.821 921.186 284.821 924.294 Q284.821 926.516 283.553 928.061 Q282.303 929.606 280.064 930.162 Q282.598 930.752 284.005 932.471 Q285.428 934.189 285.428 936.672 Q285.428 940.439 283.119 942.453 Q280.828 944.467 276.539 944.467 Q272.251 944.467 269.942 942.453 Q267.651 940.439 267.651 936.672 Q267.651 934.189 269.074 932.471 Q270.498 930.752 273.032 930.162 M271.748 924.623 Q271.748 926.637 272.998 927.766 Q274.265 928.894 276.539 928.894 Q278.796 928.894 280.064 927.766 Q281.348 926.637 281.348 924.623 Q281.348 922.61 280.064 921.481 Q278.796 920.353 276.539 920.353 Q274.265 920.353 272.998 921.481 Q271.748 922.61 271.748 924.623 Z" fill="#4c4c4c" fill-rule="evenodd" fill-opacity="1" /><path clip-path="url(#clip670)" d="M193.779 673.107 L216.036 673.107 L216.036 676.058 L193.779 676.058 L193.779 673.107 Z" fill="#4c4c4c" fill-rule="evenodd" fill-opacity="1" /><path clip-path="url(#clip670)" d="M224.213 682.777 L229.942 682.777 L229.942 663.002 L223.71 664.252 L223.71 661.058 L229.908 659.808 L233.415 659.808 L233.415 682.777 L239.144 682.777 L239.144 685.728 L224.213 685.728 L224.213 682.777 Z" fill="#4c4c4c" fill-rule="evenodd" fill-opacity="1" /><path clip-path="url(#clip670)" d="M246.262 659.808 L260.029 659.808 L260.029 662.759 L249.474 662.759 L249.474 669.113 Q250.237 668.853 251.001 668.732 Q251.765 668.593 252.529 668.593 Q256.869 668.593 259.404 670.971 Q261.939 673.35 261.939 677.412 Q261.939 681.596 259.335 683.922 Q256.73 686.231 251.991 686.231 Q250.359 686.231 248.658 685.954 Q246.974 685.676 245.168 685.12 L245.168 681.596 Q246.731 682.447 248.397 682.863 Q250.064 683.28 251.921 683.28 Q254.925 683.28 256.678 681.7 Q258.432 680.12 258.432 677.412 Q258.432 674.704 256.678 673.124 Q254.925 671.544 251.921 671.544 Q250.515 671.544 249.109 671.857 Q247.72 672.169 246.262 672.829 L246.262 659.808 Z" fill="#4c4c4c" fill-rule="evenodd" fill-opacity="1" /><path clip-path="url(#clip670)" d="M276.782 671.37 Q274.421 671.37 273.032 672.985 Q271.661 674.6 271.661 677.412 Q271.661 680.207 273.032 681.839 Q274.421 683.454 276.782 683.454 Q279.144 683.454 280.515 681.839 Q281.904 680.207 281.904 677.412 Q281.904 674.6 280.515 672.985 Q279.144 671.37 276.782 671.37 M283.744 660.381 L283.744 663.575 Q282.425 662.95 281.071 662.62 Q279.734 662.291 278.414 662.291 Q274.942 662.291 273.102 664.634 Q271.279 666.978 271.019 671.718 Q272.043 670.207 273.588 669.409 Q275.133 668.593 276.991 668.593 Q280.897 668.593 283.154 670.971 Q285.428 673.332 285.428 677.412 Q285.428 681.405 283.067 683.818 Q280.706 686.231 276.782 686.231 Q272.286 686.231 269.907 682.794 Q267.529 679.339 267.529 672.794 Q267.529 666.648 270.446 663.002 Q273.362 659.339 278.276 659.339 Q279.595 659.339 280.932 659.6 Q282.286 659.86 283.744 660.381 Z" fill="#4c4c4c" fill-rule="evenodd" fill-opacity="1" /><path clip-path="url(#clip670)" d="M193.536 414.871 L215.793 414.871 L215.793 417.822 L193.536 417.822 L193.536 414.871 Z" fill="#4c4c4c" fill-rule="evenodd" fill-opacity="1" /><path clip-path="url(#clip670)" d="M223.97 424.541 L229.699 424.541 L229.699 404.767 L223.467 406.017 L223.467 402.822 L229.665 401.572 L233.172 401.572 L233.172 424.541 L238.901 424.541 L238.901 427.492 L223.97 427.492 L223.97 424.541 Z" fill="#4c4c4c" fill-rule="evenodd" fill-opacity="1" /><path clip-path="url(#clip670)" d="M246.019 401.572 L259.786 401.572 L259.786 404.524 L249.231 404.524 L249.231 410.878 Q249.994 410.617 250.758 410.496 Q251.522 410.357 252.286 410.357 Q256.626 410.357 259.161 412.735 Q261.696 415.114 261.696 419.176 Q261.696 423.36 259.092 425.687 Q256.487 427.996 251.748 427.996 Q250.116 427.996 248.415 427.718 Q246.731 427.44 244.925 426.885 L244.925 423.36 Q246.487 424.211 248.154 424.628 Q249.821 425.044 251.678 425.044 Q254.682 425.044 256.435 423.465 Q258.189 421.885 258.189 419.176 Q258.189 416.468 256.435 414.888 Q254.682 413.308 251.678 413.308 Q250.272 413.308 248.866 413.621 Q247.477 413.933 246.019 414.593 L246.019 401.572 Z" fill="#4c4c4c" fill-rule="evenodd" fill-opacity="1" /><path clip-path="url(#clip670)" d="M278.241 404.628 L269.387 418.465 L278.241 418.465 L278.241 404.628 M277.321 401.572 L281.73 401.572 L281.73 418.465 L285.428 418.465 L285.428 421.381 L281.73 421.381 L281.73 427.492 L278.241 427.492 L278.241 421.381 L266.539 421.381 L266.539 417.996 L277.321 401.572 Z" fill="#4c4c4c" fill-rule="evenodd" fill-opacity="1" /><path clip-path="url(#clip670)" d="M195.099 156.635 L217.356 156.635 L217.356 159.587 L195.099 159.587 L195.099 156.635 Z" fill="#4c4c4c" fill-rule="evenodd" fill-opacity="1" /><path clip-path="url(#clip670)" d="M225.533 166.305 L231.262 166.305 L231.262 146.531 L225.029 147.781 L225.029 144.587 L231.227 143.337 L234.734 143.337 L234.734 166.305 L240.463 166.305 L240.463 169.257 L225.533 169.257 L225.533 166.305 Z" fill="#4c4c4c" fill-rule="evenodd" fill-opacity="1" /><path clip-path="url(#clip670)" d="M247.581 143.337 L261.349 143.337 L261.349 146.288 L250.793 146.288 L250.793 152.642 Q251.557 152.382 252.321 152.26 Q253.085 152.121 253.849 152.121 Q258.189 152.121 260.724 154.5 Q263.258 156.878 263.258 160.941 Q263.258 165.125 260.654 167.451 Q258.05 169.76 253.31 169.76 Q251.678 169.76 249.977 169.482 Q248.293 169.205 246.487 168.649 L246.487 165.125 Q248.05 165.975 249.717 166.392 Q251.383 166.809 253.241 166.809 Q256.244 166.809 257.998 165.229 Q259.751 163.649 259.751 160.941 Q259.751 158.232 257.998 156.653 Q256.244 155.073 253.241 155.073 Q251.835 155.073 250.428 155.385 Q249.04 155.698 247.581 156.357 L247.581 143.337 Z" fill="#4c4c4c" fill-rule="evenodd" fill-opacity="1" /><path clip-path="url(#clip670)" d="M273.189 166.305 L285.428 166.305 L285.428 169.257 L268.97 169.257 L268.97 166.305 Q270.967 164.239 274.404 160.767 Q277.859 157.278 278.744 156.271 Q280.428 154.378 281.088 153.076 Q281.765 151.757 281.765 150.489 Q281.765 148.423 280.307 147.121 Q278.866 145.819 276.539 145.819 Q274.89 145.819 273.05 146.392 Q271.227 146.965 269.144 148.128 L269.144 144.587 Q271.262 143.736 273.102 143.302 Q274.942 142.868 276.47 142.868 Q280.498 142.868 282.894 144.882 Q285.289 146.896 285.289 150.264 Q285.289 151.861 284.682 153.302 Q284.091 154.726 282.512 156.67 Q282.078 157.173 279.751 159.587 Q277.425 161.982 273.189 166.305 Z" fill="#4c4c4c" fill-rule="evenodd" fill-opacity="1" /><path clip-path="url(#clip670)" d="M130.608 973.882 L130.608 944.646 L134.544 944.646 L134.544 956.915 L165.168 956.915 L165.168 961.614 L134.544 961.614 L134.544 973.882 L130.608 973.882 Z" fill="#000000" fill-rule="evenodd" fill-opacity="1" /><path clip-path="url(#clip670)" d="M151.141 926.198 L153.224 926.198 L153.224 945.781 Q157.622 945.503 159.937 943.142 Q162.229 940.758 162.229 936.522 Q162.229 934.068 161.627 931.776 Q161.025 929.461 159.821 927.193 L163.849 927.193 Q164.821 929.485 165.33 931.892 Q165.84 934.299 165.84 936.776 Q165.84 942.98 162.229 946.614 Q158.617 950.225 152.46 950.225 Q146.094 950.225 142.368 946.799 Q138.618 943.35 138.618 937.517 Q138.618 932.285 141.997 929.253 Q145.354 926.198 151.141 926.198 M149.891 930.457 Q146.395 930.503 144.312 932.424 Q142.229 934.322 142.229 937.471 Q142.229 941.035 144.243 943.188 Q146.256 945.318 149.914 945.642 L149.891 930.457 Z" fill="#000000" fill-rule="evenodd" fill-opacity="1" /><path clip-path="url(#clip670)" d="M140.006 902.679 L144.034 902.679 Q143.108 904.485 142.645 906.429 Q142.182 908.374 142.182 910.457 Q142.182 913.628 143.155 915.225 Q144.127 916.799 146.071 916.799 Q147.553 916.799 148.409 915.665 Q149.243 914.531 150.006 911.105 L150.33 909.647 Q151.303 905.11 153.085 903.212 Q154.844 901.29 158.016 901.29 Q161.627 901.29 163.733 904.161 Q165.84 907.008 165.84 912.008 Q165.84 914.091 165.423 916.36 Q165.029 918.605 164.219 921.105 L159.821 921.105 Q161.048 918.744 161.673 916.452 Q162.275 914.161 162.275 911.915 Q162.275 908.906 161.256 907.286 Q160.215 905.665 158.34 905.665 Q156.604 905.665 155.678 906.846 Q154.752 908.003 153.895 911.961 L153.548 913.443 Q152.715 917.401 151.002 919.161 Q149.266 920.92 146.256 920.92 Q142.599 920.92 140.608 918.327 Q138.618 915.735 138.618 910.966 Q138.618 908.605 138.965 906.522 Q139.312 904.438 140.006 902.679 Z" fill="#000000" fill-rule="evenodd" fill-opacity="1" /><path clip-path="url(#clip670)" d="M131.882 890.295 L139.243 890.295 L139.243 881.522 L142.553 881.522 L142.553 890.295 L156.627 890.295 Q159.798 890.295 160.701 889.438 Q161.604 888.559 161.604 885.897 L161.604 881.522 L165.168 881.522 L165.168 885.897 Q165.168 890.827 163.34 892.702 Q161.488 894.577 156.627 894.577 L142.553 894.577 L142.553 897.702 L139.243 897.702 L139.243 894.577 L131.882 894.577 L131.882 890.295 Z" fill="#000000" fill-rule="evenodd" fill-opacity="1" /><path clip-path="url(#clip670)" d="M129.15 860.851 L129.15 856.591 L165.168 856.591 L165.168 860.851 L129.15 860.851 Z" fill="#000000" fill-rule="evenodd" fill-opacity="1" /><path clip-path="url(#clip670)" d="M142.229 837.633 Q142.229 841.059 144.914 843.05 Q147.576 845.041 152.229 845.041 Q156.881 845.041 159.567 843.073 Q162.229 841.082 162.229 837.633 Q162.229 834.23 159.543 832.24 Q156.858 830.249 152.229 830.249 Q147.622 830.249 144.937 832.24 Q142.229 834.23 142.229 837.633 M138.618 837.633 Q138.618 832.078 142.229 828.906 Q145.84 825.735 152.229 825.735 Q158.594 825.735 162.229 828.906 Q165.84 832.078 165.84 837.633 Q165.84 843.212 162.229 846.383 Q158.594 849.531 152.229 849.531 Q145.84 849.531 142.229 846.383 Q138.618 843.212 138.618 837.633 Z" fill="#000000" fill-rule="evenodd" fill-opacity="1" /><path clip-path="url(#clip670)" d="M151.905 801.615 Q147.275 801.615 144.729 803.536 Q142.182 805.434 142.182 808.883 Q142.182 812.309 144.729 814.231 Q147.275 816.129 151.905 816.129 Q156.511 816.129 159.057 814.231 Q161.604 812.309 161.604 808.883 Q161.604 805.434 159.057 803.536 Q156.511 801.615 151.905 801.615 M161.951 797.356 Q168.571 797.356 171.789 800.295 Q175.029 803.235 175.029 809.3 Q175.029 811.545 174.682 813.536 Q174.358 815.527 173.664 817.402 L169.52 817.402 Q170.539 815.527 171.025 813.698 Q171.511 811.869 171.511 809.971 Q171.511 805.781 169.312 803.698 Q167.136 801.615 162.715 801.615 L160.608 801.615 Q162.9 802.934 164.034 804.994 Q165.168 807.055 165.168 809.925 Q165.168 814.693 161.534 817.61 Q157.9 820.527 151.905 820.527 Q145.886 820.527 142.252 817.61 Q138.618 814.693 138.618 809.925 Q138.618 807.055 139.752 804.994 Q140.886 802.934 143.178 801.615 L139.243 801.615 L139.243 797.356 L161.951 797.356 Z" fill="#000000" fill-rule="evenodd" fill-opacity="1" /><path clip-path="url(#clip670)" d="M150.284 790.735 L150.284 778.258 L154.08 778.258 L154.08 790.735 L150.284 790.735 Z" fill="#000000" fill-rule="evenodd" fill-opacity="1" /><path clip-path="url(#clip670)" d="M129.15 771.476 L129.15 767.217 L165.168 767.217 L165.168 771.476 L129.15 771.476 Z" fill="#000000" fill-rule="evenodd" fill-opacity="1" /><path clip-path="url(#clip670)" d="M139.243 758.305 L139.243 754.046 L165.168 754.046 L165.168 758.305 L139.243 758.305 M129.15 758.305 L129.15 754.046 L134.544 754.046 L134.544 758.305 L129.15 758.305 Z" fill="#000000" fill-rule="evenodd" fill-opacity="1" /><path clip-path="url(#clip670)" d="M129.15 745.296 L129.15 741.013 L150.423 741.013 L139.243 728.305 L139.243 722.865 L151.372 736.615 L165.168 722.287 L165.168 727.842 L152.506 741.013 L165.168 741.013 L165.168 745.296 L129.15 745.296 Z" fill="#000000" fill-rule="evenodd" fill-opacity="1" /><path clip-path="url(#clip670)" d="M151.141 697.194 L153.224 697.194 L153.224 716.777 Q157.622 716.5 159.937 714.138 Q162.229 711.754 162.229 707.518 Q162.229 705.064 161.627 702.773 Q161.025 700.458 159.821 698.189 L163.849 698.189 Q164.821 700.481 165.33 702.889 Q165.84 705.296 165.84 707.773 Q165.84 713.976 162.229 717.611 Q158.617 721.222 152.46 721.222 Q146.094 721.222 142.368 717.796 Q138.618 714.347 138.618 708.513 Q138.618 703.282 141.997 700.25 Q145.354 697.194 151.141 697.194 M149.891 701.453 Q146.395 701.5 144.312 703.421 Q142.229 705.319 142.229 708.467 Q142.229 712.032 144.243 714.185 Q146.256 716.314 149.914 716.638 L149.891 701.453 Z" fill="#000000" fill-rule="evenodd" fill-opacity="1" /><path clip-path="url(#clip670)" d="M129.15 690.203 L129.15 685.944 L165.168 685.944 L165.168 690.203 L129.15 690.203 Z" fill="#000000" fill-rule="evenodd" fill-opacity="1" /><path clip-path="url(#clip670)" d="M139.243 677.032 L139.243 672.773 L165.168 672.773 L165.168 677.032 L139.243 677.032 M129.15 677.032 L129.15 672.773 L134.544 672.773 L134.544 677.032 L129.15 677.032 Z" fill="#000000" fill-rule="evenodd" fill-opacity="1" /><path clip-path="url(#clip670)" d="M149.52 642.31 L165.168 642.31 L165.168 646.569 L149.659 646.569 Q145.979 646.569 144.15 648.005 Q142.321 649.44 142.321 652.31 Q142.321 655.759 144.52 657.75 Q146.719 659.741 150.516 659.741 L165.168 659.741 L165.168 664.023 L129.15 664.023 L129.15 659.741 L143.27 659.741 Q140.932 658.213 139.775 656.153 Q138.618 654.069 138.618 651.361 Q138.618 646.893 141.395 644.602 Q144.15 642.31 149.52 642.31 Z" fill="#000000" fill-rule="evenodd" fill-opacity="1" /><path clip-path="url(#clip670)" d="M142.229 623.769 Q142.229 627.194 144.914 629.185 Q147.576 631.176 152.229 631.176 Q156.881 631.176 159.567 629.208 Q162.229 627.218 162.229 623.769 Q162.229 620.366 159.543 618.375 Q156.858 616.384 152.229 616.384 Q147.622 616.384 144.937 618.375 Q142.229 620.366 142.229 623.769 M138.618 623.769 Q138.618 618.213 142.229 615.042 Q145.84 611.87 152.229 611.87 Q158.594 611.87 162.229 615.042 Q165.84 618.213 165.84 623.769 Q165.84 629.347 162.229 632.519 Q158.594 635.667 152.229 635.667 Q145.84 635.667 142.229 632.519 Q138.618 629.347 138.618 623.769 Z" fill="#000000" fill-rule="evenodd" fill-opacity="1" /><path clip-path="url(#clip670)" d="M142.229 594.764 Q142.229 598.19 144.914 600.181 Q147.576 602.171 152.229 602.171 Q156.881 602.171 159.567 600.204 Q162.229 598.213 162.229 594.764 Q162.229 591.361 159.543 589.371 Q156.858 587.38 152.229 587.38 Q147.622 587.38 144.937 589.371 Q142.229 591.361 142.229 594.764 M138.618 594.764 Q138.618 589.209 142.229 586.037 Q145.84 582.866 152.229 582.866 Q158.594 582.866 162.229 586.037 Q165.84 589.209 165.84 594.764 Q165.84 600.343 162.229 603.514 Q158.594 606.662 152.229 606.662 Q145.84 606.662 142.229 603.514 Q138.618 600.343 138.618 594.764 Z" fill="#000000" fill-rule="evenodd" fill-opacity="1" /><path clip-path="url(#clip670)" d="M143.178 558.746 L129.15 558.746 L129.15 554.487 L165.168 554.487 L165.168 558.746 L161.28 558.746 Q163.594 560.088 164.729 562.149 Q165.84 564.186 165.84 567.056 Q165.84 571.755 162.09 574.718 Q158.34 577.658 152.229 577.658 Q146.118 577.658 142.368 574.718 Q138.618 571.755 138.618 567.056 Q138.618 564.186 139.752 562.149 Q140.863 560.088 143.178 558.746 M152.229 573.26 Q156.928 573.26 159.613 571.338 Q162.275 569.394 162.275 566.014 Q162.275 562.635 159.613 560.69 Q156.928 558.746 152.229 558.746 Q147.53 558.746 144.868 560.69 Q142.182 562.635 142.182 566.014 Q142.182 569.394 144.868 571.338 Q147.53 573.26 152.229 573.26 Z" fill="#000000" fill-rule="evenodd" fill-opacity="1" /><path clip-path="url(#clip670)" d="M1251.72 19.4328 L1257.04 19.4328 L1263.7 44.722 L1270.33 19.4328 L1276.6 19.4328 L1283.26 44.722 L1289.89 19.4328 L1295.21 19.4328 L1286.73 51.84 L1280.45 51.84 L1273.48 25.2776 L1266.48 51.84 L1260.2 51.84 L1251.72 19.4328 Z" fill="#000000" fill-rule="evenodd" fill-opacity="1" /><path clip-path="url(#clip670)" d="M1331 34.3054 L1331 36.9095 L1306.52 36.9095 Q1306.87 42.4072 1309.82 45.3007 Q1312.8 48.1653 1318.1 48.1653 Q1321.16 48.1653 1324.03 47.4129 Q1326.92 46.6606 1329.76 45.156 L1329.76 50.1907 Q1326.89 51.406 1323.88 52.0425 Q1320.88 52.6791 1317.78 52.6791 Q1310.02 52.6791 1305.48 48.1653 Q1300.97 43.6514 1300.97 35.9547 Q1300.97 27.9975 1305.25 23.339 Q1309.56 18.6515 1316.85 18.6515 Q1323.39 18.6515 1327.18 22.876 Q1331 27.0716 1331 34.3054 M1325.68 32.7429 Q1325.62 28.3737 1323.22 25.7695 Q1320.85 23.1654 1316.91 23.1654 Q1312.46 23.1654 1309.76 25.6827 Q1307.1 28.2001 1306.7 32.7718 L1325.68 32.7429 Z" fill="#000000" fill-rule="evenodd" fill-opacity="1" /><path clip-path="url(#clip670)" d="M1363 35.6653 Q1363 29.7915 1360.57 26.464 Q1358.17 23.1075 1353.95 23.1075 Q1349.72 23.1075 1347.29 26.464 Q1344.89 29.7915 1344.89 35.6653 Q1344.89 41.5391 1347.29 44.8956 Q1349.72 48.2231 1353.95 48.2231 Q1358.17 48.2231 1360.57 44.8956 Q1363 41.5391 1363 35.6653 M1344.89 24.3517 Q1346.57 21.4582 1349.12 20.0693 Q1351.69 18.6515 1355.25 18.6515 Q1361.15 18.6515 1364.83 23.339 Q1368.53 28.0265 1368.53 35.6653 Q1368.53 43.3042 1364.83 47.9916 Q1361.15 52.6791 1355.25 52.6791 Q1351.69 52.6791 1349.12 51.2902 Q1346.57 49.8724 1344.89 46.9789 L1344.89 51.84 L1339.54 51.84 L1339.54 6.81709 L1344.89 6.81709 L1344.89 24.3517 Z" fill="#000000" fill-rule="evenodd" fill-opacity="1" /><path clip-path="url(#clip670)" d="M1377.15 6.81709 L1382.51 6.81709 L1382.51 33.4084 L1398.39 19.4328 L1405.19 19.4328 L1388 34.5947 L1405.92 51.84 L1398.97 51.84 L1382.51 36.0125 L1382.51 51.84 L1377.15 51.84 L1377.15 6.81709 Z" fill="#000000" fill-rule="evenodd" fill-opacity="1" /><path clip-path="url(#clip670)" d="M1434.94 35.6653 Q1434.94 29.7915 1432.51 26.464 Q1430.1 23.1075 1425.88 23.1075 Q1421.66 23.1075 1419.23 26.464 Q1416.82 29.7915 1416.82 35.6653 Q1416.82 41.5391 1419.23 44.8956 Q1421.66 48.2231 1425.88 48.2231 Q1430.1 48.2231 1432.51 44.8956 Q1434.94 41.5391 1434.94 35.6653 M1416.82 24.3517 Q1418.5 21.4582 1421.05 20.0693 Q1423.62 18.6515 1427.18 18.6515 Q1433.09 18.6515 1436.76 23.339 Q1440.46 28.0265 1440.46 35.6653 Q1440.46 43.3042 1436.76 47.9916 Q1433.09 52.6791 1427.18 52.6791 Q1423.62 52.6791 1421.05 51.2902 Q1418.5 49.8724 1416.82 46.9789 L1416.82 51.84 L1411.47 51.84 L1411.47 6.81709 L1416.82 6.81709 L1416.82 24.3517 Z" fill="#000000" fill-rule="evenodd" fill-opacity="1" /><polyline clip-path="url(#clip672)" style="stroke:#e26f46; stroke-linecap:butt; stroke-linejoin:round; stroke-width:8; stroke-opacity:1; fill:none" points="
  425.63,956.827 454.851,956.827 484.072,956.827 513.293,956.827 542.514,956.827 571.735,956.827 600.956,956.827 630.177,956.827 659.398,956.827 688.619,956.827 
  717.84,956.827 747.061,956.827 776.282,956.827 805.503,956.827 834.724,956.827 863.945,956.827 893.166,956.827 922.387,956.827 951.608,956.827 980.829,956.827 
  1010.05,956.827 1039.27,956.827 1068.49,956.827 1097.71,956.827 1126.93,956.827 1156.16,956.827 1185.38,956.827 1214.6,956.827 1243.82,956.827 1273.04,956.827 
  1302.26,956.827 1331.48,956.827 1360.7,956.827 1389.92,956.827 1419.14,956.827 1448.37,956.827 1477.59,956.827 1506.81,956.827 1536.03,956.827 1565.25,956.827 
  1594.47,956.827 1623.69,956.827 1652.91,956.827 1682.13,956.827 1711.35,956.827 1740.58,956.827 1769.8,956.827 1799.02,956.827 1828.24,956.827 1857.46,956.827 
  1886.68,956.827 1915.9,956.827 1945.12,956.827 1974.34,956.827 2003.56,956.827 2032.79,956.827 2062.01,956.827 2091.23,956.827 2120.45,956.827 2149.67,956.827 
  2178.89,956.827 2208.11,956.827 2237.33,956.827 2266.55,956.827 2295.77,956.827 
  "/>
<polyline clip-path="url(#clip672)" style="stroke:#3da44d; stroke-linecap:butt; stroke-linejoin:round; stroke-width:8; stroke-opacity:1; fill:none" points="
  425.63,586.259 454.851,586.259 484.072,586.259 513.293,586.259 542.514,586.259 571.735,586.259 600.956,586.259 630.177,586.259 659.398,586.259 688.619,586.259 
  717.84,586.259 747.061,586.259 776.282,586.259 805.503,586.259 834.724,586.259 863.945,586.259 893.166,586.259 922.387,586.259 951.608,586.259 980.829,586.259 
  1010.05,586.259 1039.27,586.259 1068.49,586.259 1097.71,586.259 1126.93,586.259 1156.16,586.259 1185.38,586.259 1214.6,586.259 1243.82,586.259 1273.04,586.259 
  1302.26,586.259 1331.48,586.259 1360.7,586.259 1389.92,586.259 1419.14,586.259 1448.37,586.259 1477.59,586.259 1506.81,586.259 1536.03,586.259 1565.25,586.259 
  1594.47,586.259 1623.69,586.259 1652.91,586.259 1682.13,586.259 1711.35,586.259 1740.58,586.259 1769.8,586.259 1799.02,586.259 1828.24,586.259 1857.46,586.259 
  1886.68,586.259 1915.9,586.259 1945.12,586.259 1974.34,586.259 2003.56,586.259 2032.79,586.259 2062.01,586.259 2091.23,586.259 2120.45,586.259 2149.67,586.259 
  2178.89,586.259 2208.11,586.259 2237.33,586.259 2266.55,586.259 2295.77,586.259 
  "/>
<polyline clip-path="url(#clip672)" style="stroke:#c271d2; stroke-linecap:butt; stroke-linejoin:round; stroke-width:8; stroke-opacity:1; fill:none" points="
  425.63,1329.98 454.851,1329.98 484.072,1329.98 513.293,1329.98 542.514,1329.98 571.735,1329.98 600.956,1329.98 630.177,1329.98 659.398,1329.98 688.619,1329.98 
  717.84,1329.98 747.061,1329.98 776.282,1329.98 805.503,1329.98 834.724,1329.98 863.945,1329.98 893.166,1329.98 922.387,1329.98 951.608,1329.98 980.829,1329.98 
  1010.05,1329.98 1039.27,1329.98 1068.49,1329.98 1097.71,1329.98 1126.93,1329.98 1156.16,1329.98 1185.38,1329.98 1214.6,1329.98 1243.82,1329.98 1273.04,1329.98 
  1302.26,1329.98 1331.48,1329.98 1360.7,1329.98 1389.92,1329.98 1419.14,1329.98 1448.37,1329.98 1477.59,1329.98 1506.81,1329.98 1536.03,1329.98 1565.25,1329.98 
  1594.47,1329.98 1623.69,1329.98 1652.91,1329.98 1682.13,1329.98 1711.35,1329.98 1740.58,1329.98 1769.8,1329.98 1799.02,1329.98 1828.24,1329.98 1857.46,1329.98 
  1886.68,1329.98 1915.9,1329.98 1945.12,1329.98 1974.34,1329.98 2003.56,1329.98 2032.79,1329.98 2062.01,1329.98 2091.23,1329.98 2120.45,1329.98 2149.67,1329.98 
  2178.89,1329.98 2208.11,1329.98 2237.33,1329.98 2266.55,1329.98 2295.77,1329.98 
  "/>
<polyline clip-path="url(#clip672)" style="stroke:#ac8d18; stroke-linecap:butt; stroke-linejoin:round; stroke-width:8; stroke-opacity:1; fill:none" points="
  425.63,371.923 454.851,371.923 484.072,371.923 513.293,371.923 542.514,371.923 571.735,371.923 600.956,371.923 630.177,371.923 659.398,371.923 688.619,371.923 
  717.84,371.923 747.061,371.923 776.282,371.923 805.503,371.923 834.724,371.923 863.945,371.923 893.166,371.923 922.387,371.923 951.608,371.923 980.829,371.923 
  1010.05,371.923 1039.27,371.923 1068.49,371.923 1097.71,371.923 1126.93,371.923 1156.16,371.923 1185.38,371.923 1214.6,371.923 1243.82,371.923 1273.04,371.923 
  1302.26,371.923 1331.48,371.923 1360.7,371.923 1389.92,371.923 1419.14,371.923 1448.37,371.923 1477.59,371.923 1506.81,371.923 1536.03,371.923 1565.25,371.923 
  1594.47,371.923 1623.69,371.923 1652.91,371.923 1682.13,371.923 1711.35,371.923 1740.58,371.923 1769.8,371.923 1799.02,371.923 1828.24,371.923 1857.46,371.923 
  1886.68,371.923 1915.9,371.923 1945.12,371.923 1974.34,371.923 2003.56,371.923 2032.79,371.923 2062.01,371.923 2091.23,371.923 2120.45,371.923 2149.67,371.923 
  2178.89,371.923 2208.11,371.923 2237.33,371.923 2266.55,371.923 2295.77,371.923 
  "/>
<polyline clip-path="url(#clip672)" style="stroke:#00a9ad; stroke-linecap:butt; stroke-linejoin:round; stroke-width:8; stroke-opacity:1; fill:none" points="
  425.63,570.765 454.851,570.765 484.072,570.765 513.293,570.765 542.514,570.765 571.735,570.765 600.956,570.765 630.177,570.765 659.398,570.765 688.619,570.765 
  717.84,570.765 747.061,570.765 776.282,570.765 805.503,570.765 834.724,570.765 863.945,570.765 893.166,570.765 922.387,570.765 951.608,570.765 980.829,570.765 
  1010.05,570.765 1039.27,570.765 1068.49,570.765 1097.71,570.765 1126.93,570.765 1156.16,570.765 1185.38,570.765 1214.6,570.765 1243.82,570.765 1273.04,570.765 
  1302.26,570.765 1331.48,570.765 1360.7,570.765 1389.92,570.765 1419.14,570.765 1448.37,570.765 1477.59,570.765 1506.81,570.765 1536.03,570.765 1565.25,570.765 
  1594.47,570.765 1623.69,570.765 1652.91,570.765 1682.13,570.765 1711.35,570.765 1740.58,570.765 1769.8,570.765 1799.02,570.765 1828.24,570.765 1857.46,570.765 
  1886.68,570.765 1915.9,570.765 1945.12,570.765 1974.34,570.765 2003.56,570.765 2032.79,570.765 2062.01,570.765 2091.23,570.765 2120.45,570.765 2149.67,570.765 
  2178.89,570.765 2208.11,570.765 2237.33,570.765 2266.55,570.765 2295.77,570.765 
  "/>
<polyline clip-path="url(#clip672)" style="stroke:#009af9; stroke-linecap:butt; stroke-linejoin:round; stroke-width:12; stroke-opacity:1; fill:none" points="
  425.63,1384.93 454.851,863.152 484.072,1026.25 513.293,700.829 542.514,476.034 571.735,582.139 600.956,481.951 630.177,352.363 659.398,463.511 688.619,396.497 
  717.84,292.745 747.061,306.782 776.282,323.092 805.503,202.494 834.724,254.52 863.945,248.079 893.166,197.313 922.387,190.152 951.608,230.209 980.829,168.912 
  1010.05,165.005 1039.27,201.848 1068.49,165.158 1097.71,156.6 1126.93,187.692 1156.16,164.158 1185.38,143.939 1214.6,186.324 1243.82,156.754 1273.04,147.666 
  1302.26,181.868 1331.48,171.188 1360.7,143.437 1389.92,171.587 1419.14,154.293 1448.37,143.882 1477.59,169.886 1506.81,187.289 1536.03,172.474 1565.25,192.978 
  1594.47,179.446 1623.69,153.68 1652.91,164.942 1682.13,154.873 1711.35,151.201 1740.58,164.479 1769.8,160.798 1799.02,150.355 1828.24,179.012 1857.46,171.769 
  
  "/>
<polyline clip-path="url(#clip672)" style="stroke:#f05f73; stroke-linecap:butt; stroke-linejoin:round; stroke-width:12; stroke-opacity:1; fill:none" points="
  1857.46,171.769 1886.68,276.736 1915.9,327.475 1945.12,354.864 1974.34,372.294 2003.56,383.985 2032.79,393.166 2062.01,400.958 2091.23,406.368 2120.45,410.295 
  2149.67,413.574 2178.89,416.954 2208.11,420.015 2237.33,422.548 2266.55,424.634 2295.77,426.429 
  "/>
</svg>
