<?xml version="1.0" encoding="utf-8"?>
<svg xmlns="http://www.w3.org/2000/svg" xmlns:xlink="http://www.w3.org/1999/xlink" width="600" height="400" viewBox="0 0 2400 1600">
<defs>
  <clipPath id="clip290">
    <rect x="0" y="0" width="2400" height="1600"/>
  </clipPath>
</defs>
<path clip-path="url(#clip290)" d="
M0 1600 L2400 1600 L2400 0 L0 0  Z
  " fill="#ffffff" fill-rule="evenodd" fill-opacity="1"/>
<defs>
  <clipPath id="clip291">
    <rect x="480" y="0" width="1681" height="1600"/>
  </clipPath>
</defs>
<path clip-path="url(#clip290)" d="
M229.192 1444.78 L2352.76 1444.78 L2352.76 106.192 L229.192 106.192  Z
  " fill="#eaeaea" fill-rule="evenodd" fill-opacity="1"/>
<defs>
  <clipPath id="clip292">
    <rect x="229" y="106" width="2125" height="1340"/>
  </clipPath>
</defs>
<polyline clip-path="url(#clip292)" style="stroke:#ffffff; stroke-linecap:butt; stroke-linejoin:round; stroke-width:4; stroke-opacity:1; fill:none" points="
  289.293,1444.78 289.293,106.192 
  "/>
<polyline clip-path="url(#clip292)" style="stroke:#ffffff; stroke-linecap:butt; stroke-linejoin:round; stroke-width:4; stroke-opacity:1; fill:none" points="
  489.629,1444.78 489.629,106.192 
  "/>
<polyline clip-path="url(#clip292)" style="stroke:#ffffff; stroke-linecap:butt; stroke-linejoin:round; stroke-width:4; stroke-opacity:1; fill:none" points="
  689.965,1444.78 689.965,106.192 
  "/>
<polyline clip-path="url(#clip292)" style="stroke:#ffffff; stroke-linecap:butt; stroke-linejoin:round; stroke-width:4; stroke-opacity:1; fill:none" points="
  890.302,1444.78 890.302,106.192 
  "/>
<polyline clip-path="url(#clip292)" style="stroke:#ffffff; stroke-linecap:butt; stroke-linejoin:round; stroke-width:4; stroke-opacity:1; fill:none" points="
  1090.64,1444.78 1090.64,106.192 
  "/>
<polyline clip-path="url(#clip292)" style="stroke:#ffffff; stroke-linecap:butt; stroke-linejoin:round; stroke-width:4; stroke-opacity:1; fill:none" points="
  1290.97,1444.78 1290.97,106.192 
  "/>
<polyline clip-path="url(#clip292)" style="stroke:#ffffff; stroke-linecap:butt; stroke-linejoin:round; stroke-width:4; stroke-opacity:1; fill:none" points="
  1491.31,1444.78 1491.31,106.192 
  "/>
<polyline clip-path="url(#clip292)" style="stroke:#ffffff; stroke-linecap:butt; stroke-linejoin:round; stroke-width:4; stroke-opacity:1; fill:none" points="
  1691.65,1444.78 1691.65,106.192 
  "/>
<polyline clip-path="url(#clip292)" style="stroke:#ffffff; stroke-linecap:butt; stroke-linejoin:round; stroke-width:4; stroke-opacity:1; fill:none" points="
  1891.98,1444.78 1891.98,106.192 
  "/>
<polyline clip-path="url(#clip292)" style="stroke:#ffffff; stroke-linecap:butt; stroke-linejoin:round; stroke-width:4; stroke-opacity:1; fill:none" points="
  2092.32,1444.78 2092.32,106.192 
  "/>
<polyline clip-path="url(#clip292)" style="stroke:#ffffff; stroke-linecap:butt; stroke-linejoin:round; stroke-width:4; stroke-opacity:1; fill:none" points="
  2292.66,1444.78 2292.66,106.192 
  "/>
<polyline clip-path="url(#clip292)" style="stroke:#ffffff; stroke-linecap:butt; stroke-linejoin:round; stroke-width:2; stroke-opacity:1; fill:none" points="
  389.461,1444.78 389.461,106.192 
  "/>
<polyline clip-path="url(#clip292)" style="stroke:#ffffff; stroke-linecap:butt; stroke-linejoin:round; stroke-width:2; stroke-opacity:1; fill:none" points="
  589.797,1444.78 589.797,106.192 
  "/>
<polyline clip-path="url(#clip292)" style="stroke:#ffffff; stroke-linecap:butt; stroke-linejoin:round; stroke-width:2; stroke-opacity:1; fill:none" points="
  790.133,1444.78 790.133,106.192 
  "/>
<polyline clip-path="url(#clip292)" style="stroke:#ffffff; stroke-linecap:butt; stroke-linejoin:round; stroke-width:2; stroke-opacity:1; fill:none" points="
  990.47,1444.78 990.47,106.192 
  "/>
<polyline clip-path="url(#clip292)" style="stroke:#ffffff; stroke-linecap:butt; stroke-linejoin:round; stroke-width:2; stroke-opacity:1; fill:none" points="
  1190.81,1444.78 1190.81,106.192 
  "/>
<polyline clip-path="url(#clip292)" style="stroke:#ffffff; stroke-linecap:butt; stroke-linejoin:round; stroke-width:2; stroke-opacity:1; fill:none" points="
  1391.14,1444.78 1391.14,106.192 
  "/>
<polyline clip-path="url(#clip292)" style="stroke:#ffffff; stroke-linecap:butt; stroke-linejoin:round; stroke-width:2; stroke-opacity:1; fill:none" points="
  1591.48,1444.78 1591.48,106.192 
  "/>
<polyline clip-path="url(#clip292)" style="stroke:#ffffff; stroke-linecap:butt; stroke-linejoin:round; stroke-width:2; stroke-opacity:1; fill:none" points="
  1791.81,1444.78 1791.81,106.192 
  "/>
<polyline clip-path="url(#clip292)" style="stroke:#ffffff; stroke-linecap:butt; stroke-linejoin:round; stroke-width:2; stroke-opacity:1; fill:none" points="
  1992.15,1444.78 1992.15,106.192 
  "/>
<polyline clip-path="url(#clip292)" style="stroke:#ffffff; stroke-linecap:butt; stroke-linejoin:round; stroke-width:2; stroke-opacity:1; fill:none" points="
  2192.49,1444.78 2192.49,106.192 
  "/>
<polyline clip-path="url(#clip290)" style="stroke:#ffffff; stroke-linecap:butt; stroke-linejoin:round; stroke-width:4; stroke-opacity:1; fill:none" points="
  229.192,1444.78 2352.76,1444.78 
  "/>
<polyline clip-path="url(#clip290)" style="stroke:#333333; stroke-linecap:butt; stroke-linejoin:round; stroke-width:4; stroke-opacity:1; fill:none" points="
  289.293,1444.78 289.293,1463.68 
  "/>
<polyline clip-path="url(#clip290)" style="stroke:#333333; stroke-linecap:butt; stroke-linejoin:round; stroke-width:4; stroke-opacity:1; fill:none" points="
  489.629,1444.78 489.629,1463.68 
  "/>
<polyline clip-path="url(#clip290)" style="stroke:#333333; stroke-linecap:butt; stroke-linejoin:round; stroke-width:4; stroke-opacity:1; fill:none" points="
  689.965,1444.78 689.965,1463.68 
  "/>
<polyline clip-path="url(#clip290)" style="stroke:#333333; stroke-linecap:butt; stroke-linejoin:round; stroke-width:4; stroke-opacity:1; fill:none" points="
  890.302,1444.78 890.302,1463.68 
  "/>
<polyline clip-path="url(#clip290)" style="stroke:#333333; stroke-linecap:butt; stroke-linejoin:round; stroke-width:4; stroke-opacity:1; fill:none" points="
  1090.64,1444.78 1090.64,1463.68 
  "/>
<polyline clip-path="url(#clip290)" style="stroke:#333333; stroke-linecap:butt; stroke-linejoin:round; stroke-width:4; stroke-opacity:1; fill:none" points="
  1290.97,1444.78 1290.97,1463.68 
  "/>
<polyline clip-path="url(#clip290)" style="stroke:#333333; stroke-linecap:butt; stroke-linejoin:round; stroke-width:4; stroke-opacity:1; fill:none" points="
  1491.31,1444.78 1491.31,1463.68 
  "/>
<polyline clip-path="url(#clip290)" style="stroke:#333333; stroke-linecap:butt; stroke-linejoin:round; stroke-width:4; stroke-opacity:1; fill:none" points="
  1691.65,1444.78 1691.65,1463.68 
  "/>
<polyline clip-path="url(#clip290)" style="stroke:#333333; stroke-linecap:butt; stroke-linejoin:round; stroke-width:4; stroke-opacity:1; fill:none" points="
  1891.98,1444.78 1891.98,1463.68 
  "/>
<polyline clip-path="url(#clip290)" style="stroke:#333333; stroke-linecap:butt; stroke-linejoin:round; stroke-width:4; stroke-opacity:1; fill:none" points="
  2092.32,1444.78 2092.32,1463.68 
  "/>
<polyline clip-path="url(#clip290)" style="stroke:#333333; stroke-linecap:butt; stroke-linejoin:round; stroke-width:4; stroke-opacity:1; fill:none" points="
  2292.66,1444.78 2292.66,1463.68 
  "/>
<polyline clip-path="url(#clip290)" style="stroke:#333333; stroke-linecap:butt; stroke-linejoin:round; stroke-width:4; stroke-opacity:1; fill:none" points="
  389.461,1444.78 389.461,1454.23 
  "/>
<polyline clip-path="url(#clip290)" style="stroke:#333333; stroke-linecap:butt; stroke-linejoin:round; stroke-width:4; stroke-opacity:1; fill:none" points="
  589.797,1444.78 589.797,1454.23 
  "/>
<polyline clip-path="url(#clip290)" style="stroke:#333333; stroke-linecap:butt; stroke-linejoin:round; stroke-width:4; stroke-opacity:1; fill:none" points="
  790.133,1444.78 790.133,1454.23 
  "/>
<polyline clip-path="url(#clip290)" style="stroke:#333333; stroke-linecap:butt; stroke-linejoin:round; stroke-width:4; stroke-opacity:1; fill:none" points="
  990.47,1444.78 990.47,1454.23 
  "/>
<polyline clip-path="url(#clip290)" style="stroke:#333333; stroke-linecap:butt; stroke-linejoin:round; stroke-width:4; stroke-opacity:1; fill:none" points="
  1190.81,1444.78 1190.81,1454.23 
  "/>
<polyline clip-path="url(#clip290)" style="stroke:#333333; stroke-linecap:butt; stroke-linejoin:round; stroke-width:4; stroke-opacity:1; fill:none" points="
  1391.14,1444.78 1391.14,1454.23 
  "/>
<polyline clip-path="url(#clip290)" style="stroke:#333333; stroke-linecap:butt; stroke-linejoin:round; stroke-width:4; stroke-opacity:1; fill:none" points="
  1591.48,1444.78 1591.48,1454.23 
  "/>
<polyline clip-path="url(#clip290)" style="stroke:#333333; stroke-linecap:butt; stroke-linejoin:round; stroke-width:4; stroke-opacity:1; fill:none" points="
  1791.81,1444.78 1791.81,1454.23 
  "/>
<polyline clip-path="url(#clip290)" style="stroke:#333333; stroke-linecap:butt; stroke-linejoin:round; stroke-width:4; stroke-opacity:1; fill:none" points="
  1992.15,1444.78 1992.15,1454.23 
  "/>
<polyline clip-path="url(#clip290)" style="stroke:#333333; stroke-linecap:butt; stroke-linejoin:round; stroke-width:4; stroke-opacity:1; fill:none" points="
  2192.49,1444.78 2192.49,1454.23 
  "/>
<path clip-path="url(#clip290)" d="M289.293 1482.37 Q286.585 1482.37 285.213 1485.04 Q283.859 1487.7 283.859 1493.05 Q283.859 1498.38 285.213 1501.05 Q286.585 1503.71 289.293 1503.71 Q292.019 1503.71 293.373 1501.05 Q294.744 1498.38 294.744 1493.05 Q294.744 1487.7 293.373 1485.04 Q292.019 1482.37 289.293 1482.37 M289.293 1479.59 Q293.651 1479.59 295.942 1483.05 Q298.251 1486.48 298.251 1493.05 Q298.251 1499.59 295.942 1503.05 Q293.651 1506.48 289.293 1506.48 Q284.935 1506.48 282.626 1503.05 Q280.335 1499.59 280.335 1493.05 Q280.335 1486.48 282.626 1483.05 Q284.935 1479.59 289.293 1479.59 Z" fill="#4c4c4c" fill-rule="evenodd" fill-opacity="1" /><path clip-path="url(#clip290)" d="M470.645 1503.03 L476.374 1503.03 L476.374 1483.25 L470.141 1484.5 L470.141 1481.31 L476.339 1480.06 L479.846 1480.06 L479.846 1503.03 L485.575 1503.03 L485.575 1505.98 L470.645 1505.98 L470.645 1503.03 Z" fill="#4c4c4c" fill-rule="evenodd" fill-opacity="1" /><path clip-path="url(#clip290)" d="M500.159 1482.37 Q497.45 1482.37 496.079 1485.04 Q494.725 1487.7 494.725 1493.05 Q494.725 1498.38 496.079 1501.05 Q497.45 1503.71 500.159 1503.71 Q502.884 1503.71 504.238 1501.05 Q505.61 1498.38 505.61 1493.05 Q505.61 1487.7 504.238 1485.04 Q502.884 1482.37 500.159 1482.37 M500.159 1479.59 Q504.516 1479.59 506.808 1483.05 Q509.117 1486.48 509.117 1493.05 Q509.117 1499.59 506.808 1503.05 Q504.516 1506.48 500.159 1506.48 Q495.801 1506.48 493.492 1503.05 Q491.2 1499.59 491.2 1493.05 Q491.2 1486.48 493.492 1483.05 Q495.801 1479.59 500.159 1479.59 Z" fill="#4c4c4c" fill-rule="evenodd" fill-opacity="1" /><path clip-path="url(#clip290)" d="M674.045 1503.03 L686.285 1503.03 L686.285 1505.98 L669.827 1505.98 L669.827 1503.03 Q671.823 1500.96 675.261 1497.49 Q678.715 1494 679.601 1492.99 Q681.285 1491.1 681.945 1489.8 Q682.622 1488.48 682.622 1487.21 Q682.622 1485.15 681.163 1483.84 Q679.722 1482.54 677.396 1482.54 Q675.747 1482.54 673.906 1483.12 Q672.083 1483.69 670 1484.85 L670 1481.31 Q672.118 1480.46 673.958 1480.03 Q675.799 1479.59 677.326 1479.59 Q681.354 1479.59 683.75 1481.6 Q686.146 1483.62 686.146 1486.99 Q686.146 1488.58 685.538 1490.03 Q684.948 1491.45 683.368 1493.39 Q682.934 1493.9 680.608 1496.31 Q678.281 1498.71 674.045 1503.03 Z" fill="#4c4c4c" fill-rule="evenodd" fill-opacity="1" /><path clip-path="url(#clip290)" d="M701.146 1482.37 Q698.437 1482.37 697.066 1485.04 Q695.712 1487.7 695.712 1493.05 Q695.712 1498.38 697.066 1501.05 Q698.437 1503.71 701.146 1503.71 Q703.871 1503.71 705.226 1501.05 Q706.597 1498.38 706.597 1493.05 Q706.597 1487.7 705.226 1485.04 Q703.871 1482.37 701.146 1482.37 M701.146 1479.59 Q705.503 1479.59 707.795 1483.05 Q710.104 1486.48 710.104 1493.05 Q710.104 1499.59 707.795 1503.05 Q705.503 1506.48 701.146 1506.48 Q696.788 1506.48 694.479 1503.05 Q692.188 1499.59 692.188 1493.05 Q692.188 1486.48 694.479 1483.05 Q696.788 1479.59 701.146 1479.59 Z" fill="#4c4c4c" fill-rule="evenodd" fill-opacity="1" /><path clip-path="url(#clip290)" d="M881.934 1492 Q884.451 1492.54 885.857 1494.24 Q887.281 1495.95 887.281 1498.45 Q887.281 1502.28 884.642 1504.38 Q882.003 1506.48 877.142 1506.48 Q875.51 1506.48 873.774 1506.15 Q872.055 1505.84 870.215 1505.2 L870.215 1501.81 Q871.673 1502.66 873.409 1503.1 Q875.145 1503.53 877.038 1503.53 Q880.336 1503.53 882.055 1502.23 Q883.791 1500.93 883.791 1498.45 Q883.791 1496.15 882.177 1494.87 Q880.579 1493.57 877.715 1493.57 L874.694 1493.57 L874.694 1490.68 L877.854 1490.68 Q880.44 1490.68 881.812 1489.66 Q883.184 1488.62 883.184 1486.67 Q883.184 1484.68 881.76 1483.62 Q880.354 1482.54 877.715 1482.54 Q876.274 1482.54 874.625 1482.85 Q872.975 1483.17 870.996 1483.83 L870.996 1480.7 Q872.993 1480.15 874.729 1479.87 Q876.482 1479.59 878.027 1479.59 Q882.02 1479.59 884.347 1481.41 Q886.673 1483.22 886.673 1486.31 Q886.673 1488.46 885.44 1489.96 Q884.208 1491.43 881.934 1492 Z" fill="#4c4c4c" fill-rule="evenodd" fill-opacity="1" /><path clip-path="url(#clip290)" d="M901.43 1482.37 Q898.722 1482.37 897.35 1485.04 Q895.996 1487.7 895.996 1493.05 Q895.996 1498.38 897.35 1501.05 Q898.722 1503.71 901.43 1503.71 Q904.156 1503.71 905.51 1501.05 Q906.881 1498.38 906.881 1493.05 Q906.881 1487.7 905.51 1485.04 Q904.156 1482.37 901.43 1482.37 M901.43 1479.59 Q905.788 1479.59 908.079 1483.05 Q910.388 1486.48 910.388 1493.05 Q910.388 1499.59 908.079 1503.05 Q905.788 1506.48 901.43 1506.48 Q897.072 1506.48 894.763 1503.05 Q892.472 1499.59 892.472 1493.05 Q892.472 1486.48 894.763 1483.05 Q897.072 1479.59 901.43 1479.59 Z" fill="#4c4c4c" fill-rule="evenodd" fill-opacity="1" /><path clip-path="url(#clip290)" d="M1081.77 1483.12 L1072.91 1496.95 L1081.77 1496.95 L1081.77 1483.12 M1080.85 1480.06 L1085.26 1480.06 L1085.26 1496.95 L1088.95 1496.95 L1088.95 1499.87 L1085.26 1499.87 L1085.26 1505.98 L1081.77 1505.98 L1081.77 1499.87 L1070.06 1499.87 L1070.06 1496.48 L1080.85 1480.06 Z" fill="#4c4c4c" fill-rule="evenodd" fill-opacity="1" /><path clip-path="url(#clip290)" d="M1102.25 1482.37 Q1099.54 1482.37 1098.17 1485.04 Q1096.82 1487.7 1096.82 1493.05 Q1096.82 1498.38 1098.17 1501.05 Q1099.54 1503.71 1102.25 1503.71 Q1104.98 1503.71 1106.33 1501.05 Q1107.7 1498.38 1107.7 1493.05 Q1107.7 1487.7 1106.33 1485.04 Q1104.98 1482.37 1102.25 1482.37 M1102.25 1479.59 Q1106.61 1479.59 1108.9 1483.05 Q1111.21 1486.48 1111.21 1493.05 Q1111.21 1499.59 1108.9 1503.05 Q1106.61 1506.48 1102.25 1506.48 Q1097.89 1506.48 1095.59 1503.05 Q1093.29 1499.59 1093.29 1493.05 Q1093.29 1486.48 1095.59 1483.05 Q1097.89 1479.59 1102.25 1479.59 Z" fill="#4c4c4c" fill-rule="evenodd" fill-opacity="1" /><path clip-path="url(#clip290)" d="M1272 1480.06 L1285.77 1480.06 L1285.77 1483.01 L1275.21 1483.01 L1275.21 1489.37 Q1275.97 1489.1 1276.74 1488.98 Q1277.5 1488.84 1278.27 1488.84 Q1282.61 1488.84 1285.14 1491.22 Q1287.68 1493.6 1287.68 1497.66 Q1287.68 1501.85 1285.07 1504.17 Q1282.47 1506.48 1277.73 1506.48 Q1276.1 1506.48 1274.39 1506.21 Q1272.71 1505.93 1270.9 1505.37 L1270.9 1501.85 Q1272.47 1502.7 1274.13 1503.12 Q1275.8 1503.53 1277.66 1503.53 Q1280.66 1503.53 1282.41 1501.95 Q1284.17 1500.37 1284.17 1497.66 Q1284.17 1494.96 1282.41 1493.38 Q1280.66 1491.8 1277.66 1491.8 Q1276.25 1491.8 1274.85 1492.11 Q1273.46 1492.42 1272 1493.08 L1272 1480.06 Z" fill="#4c4c4c" fill-rule="evenodd" fill-opacity="1" /><path clip-path="url(#clip290)" d="M1302.09 1482.37 Q1299.38 1482.37 1298.01 1485.04 Q1296.65 1487.7 1296.65 1493.05 Q1296.65 1498.38 1298.01 1501.05 Q1299.38 1503.71 1302.09 1503.71 Q1304.81 1503.71 1306.16 1501.05 Q1307.54 1498.38 1307.54 1493.05 Q1307.54 1487.7 1306.16 1485.04 Q1304.81 1482.37 1302.09 1482.37 M1302.09 1479.59 Q1306.44 1479.59 1308.73 1483.05 Q1311.04 1486.48 1311.04 1493.05 Q1311.04 1499.59 1308.73 1503.05 Q1306.44 1506.48 1302.09 1506.48 Q1297.73 1506.48 1295.42 1503.05 Q1293.13 1499.59 1293.13 1493.05 Q1293.13 1486.48 1295.42 1483.05 Q1297.73 1479.59 1302.09 1479.59 Z" fill="#4c4c4c" fill-rule="evenodd" fill-opacity="1" /><path clip-path="url(#clip290)" d="M1480.36 1491.62 Q1478 1491.62 1476.61 1493.24 Q1475.24 1494.85 1475.24 1497.66 Q1475.24 1500.46 1476.61 1502.09 Q1478 1503.71 1480.36 1503.71 Q1482.73 1503.71 1484.1 1502.09 Q1485.49 1500.46 1485.49 1497.66 Q1485.49 1494.85 1484.1 1493.24 Q1482.73 1491.62 1480.36 1491.62 M1487.33 1480.63 L1487.33 1483.83 Q1486.01 1483.2 1484.65 1482.87 Q1483.32 1482.54 1482 1482.54 Q1478.52 1482.54 1476.68 1484.89 Q1474.86 1487.23 1474.6 1491.97 Q1475.62 1490.46 1477.17 1489.66 Q1478.71 1488.84 1480.57 1488.84 Q1484.48 1488.84 1486.74 1491.22 Q1489.01 1493.58 1489.01 1497.66 Q1489.01 1501.66 1486.65 1504.07 Q1484.29 1506.48 1480.36 1506.48 Q1475.87 1506.48 1473.49 1503.05 Q1471.11 1499.59 1471.11 1493.05 Q1471.11 1486.9 1474.03 1483.25 Q1476.94 1479.59 1481.86 1479.59 Q1483.18 1479.59 1484.51 1479.85 Q1485.87 1480.11 1487.33 1480.63 Z" fill="#4c4c4c" fill-rule="evenodd" fill-opacity="1" /><path clip-path="url(#clip290)" d="M1502.55 1482.37 Q1499.84 1482.37 1498.47 1485.04 Q1497.12 1487.7 1497.12 1493.05 Q1497.12 1498.38 1498.47 1501.05 Q1499.84 1503.71 1502.55 1503.71 Q1505.28 1503.71 1506.63 1501.05 Q1508 1498.38 1508 1493.05 Q1508 1487.7 1506.63 1485.04 Q1505.28 1482.37 1502.55 1482.37 M1502.55 1479.59 Q1506.91 1479.59 1509.2 1483.05 Q1511.51 1486.48 1511.51 1493.05 Q1511.51 1499.59 1509.2 1503.05 Q1506.91 1506.48 1502.55 1506.48 Q1498.19 1506.48 1495.88 1503.05 Q1493.59 1499.59 1493.59 1493.05 Q1493.59 1486.48 1495.88 1483.05 Q1498.19 1479.59 1502.55 1479.59 Z" fill="#4c4c4c" fill-rule="evenodd" fill-opacity="1" /><path clip-path="url(#clip290)" d="M1671.66 1480.06 L1688.33 1480.06 L1688.33 1481.55 L1678.92 1505.98 L1675.26 1505.98 L1684.11 1483.01 L1671.66 1483.01 L1671.66 1480.06 Z" fill="#4c4c4c" fill-rule="evenodd" fill-opacity="1" /><path clip-path="url(#clip290)" d="M1702.67 1482.37 Q1699.96 1482.37 1698.59 1485.04 Q1697.24 1487.7 1697.24 1493.05 Q1697.24 1498.38 1698.59 1501.05 Q1699.96 1503.71 1702.67 1503.71 Q1705.4 1503.71 1706.75 1501.05 Q1708.12 1498.38 1708.12 1493.05 Q1708.12 1487.7 1706.75 1485.04 Q1705.4 1482.37 1702.67 1482.37 M1702.67 1479.59 Q1707.03 1479.59 1709.32 1483.05 Q1711.63 1486.48 1711.63 1493.05 Q1711.63 1499.59 1709.32 1503.05 Q1707.03 1506.48 1702.67 1506.48 Q1698.31 1506.48 1696 1503.05 Q1693.71 1499.59 1693.71 1493.05 Q1693.71 1486.48 1696 1483.05 Q1698.31 1479.59 1702.67 1479.59 Z" fill="#4c4c4c" fill-rule="evenodd" fill-opacity="1" /><path clip-path="url(#clip290)" d="M1880.64 1493.67 Q1878.14 1493.67 1876.7 1495.01 Q1875.27 1496.34 1875.27 1498.69 Q1875.27 1501.03 1876.7 1502.37 Q1878.14 1503.71 1880.64 1503.71 Q1883.14 1503.71 1884.58 1502.37 Q1886.02 1501.01 1886.02 1498.69 Q1886.02 1496.34 1884.58 1495.01 Q1883.15 1493.67 1880.64 1493.67 M1877.13 1492.18 Q1874.87 1491.62 1873.61 1490.08 Q1872.36 1488.53 1872.36 1486.31 Q1872.36 1483.2 1874.56 1481.4 Q1876.78 1479.59 1880.64 1479.59 Q1884.51 1479.59 1886.71 1481.4 Q1888.92 1483.2 1888.92 1486.31 Q1888.92 1488.53 1887.65 1490.08 Q1886.4 1491.62 1884.16 1492.18 Q1886.7 1492.77 1888.1 1494.49 Q1889.53 1496.21 1889.53 1498.69 Q1889.53 1502.46 1887.22 1504.47 Q1884.93 1506.48 1880.64 1506.48 Q1876.35 1506.48 1874.04 1504.47 Q1871.75 1502.46 1871.75 1498.69 Q1871.75 1496.21 1873.17 1494.49 Q1874.6 1492.77 1877.13 1492.18 M1875.85 1486.64 Q1875.85 1488.65 1877.1 1489.78 Q1878.36 1490.91 1880.64 1490.91 Q1882.89 1490.91 1884.16 1489.78 Q1885.45 1488.65 1885.45 1486.64 Q1885.45 1484.63 1884.16 1483.5 Q1882.89 1482.37 1880.64 1482.37 Q1878.36 1482.37 1877.1 1483.5 Q1875.85 1484.63 1875.85 1486.64 Z" fill="#4c4c4c" fill-rule="evenodd" fill-opacity="1" /><path clip-path="url(#clip290)" d="M1903.26 1482.37 Q1900.55 1482.37 1899.18 1485.04 Q1897.82 1487.7 1897.82 1493.05 Q1897.82 1498.38 1899.18 1501.05 Q1900.55 1503.71 1903.26 1503.71 Q1905.98 1503.71 1907.34 1501.05 Q1908.71 1498.38 1908.71 1493.05 Q1908.71 1487.7 1907.34 1485.04 Q1905.98 1482.37 1903.26 1482.37 M1903.26 1479.59 Q1907.62 1479.59 1909.91 1483.05 Q1912.22 1486.48 1912.22 1493.05 Q1912.22 1499.59 1909.91 1503.05 Q1907.62 1506.48 1903.26 1506.48 Q1898.9 1506.48 1896.59 1503.05 Q1894.3 1499.59 1894.3 1493.05 Q1894.3 1486.48 1896.59 1483.05 Q1898.9 1479.59 1903.26 1479.59 Z" fill="#4c4c4c" fill-rule="evenodd" fill-opacity="1" /><path clip-path="url(#clip290)" d="M2073.66 1505.44 L2073.66 1502.25 Q2074.98 1502.87 2076.34 1503.2 Q2077.69 1503.53 2078.99 1503.53 Q2082.47 1503.53 2084.29 1501.21 Q2086.13 1498.86 2086.39 1494.1 Q2085.38 1495.6 2083.84 1496.4 Q2082.29 1497.2 2080.42 1497.2 Q2076.53 1497.2 2074.25 1494.85 Q2072 1492.49 2072 1488.41 Q2072 1484.42 2074.36 1482 Q2076.72 1479.59 2080.64 1479.59 Q2085.14 1479.59 2087.5 1483.05 Q2089.88 1486.48 2089.88 1493.05 Q2089.88 1499.17 2086.96 1502.84 Q2084.06 1506.48 2079.15 1506.48 Q2077.83 1506.48 2076.48 1506.22 Q2075.12 1505.96 2073.66 1505.44 M2080.64 1494.45 Q2083 1494.45 2084.38 1492.84 Q2085.77 1491.22 2085.77 1488.41 Q2085.77 1485.62 2084.38 1484 Q2083 1482.37 2080.64 1482.37 Q2078.28 1482.37 2076.89 1484 Q2075.52 1485.62 2075.52 1488.41 Q2075.52 1491.22 2076.89 1492.84 Q2078.28 1494.45 2080.64 1494.45 Z" fill="#4c4c4c" fill-rule="evenodd" fill-opacity="1" /><path clip-path="url(#clip290)" d="M2103.68 1482.37 Q2100.97 1482.37 2099.6 1485.04 Q2098.25 1487.7 2098.25 1493.05 Q2098.25 1498.38 2099.6 1501.05 Q2100.97 1503.71 2103.68 1503.71 Q2106.41 1503.71 2107.76 1501.05 Q2109.13 1498.38 2109.13 1493.05 Q2109.13 1487.7 2107.76 1485.04 Q2106.41 1482.37 2103.68 1482.37 M2103.68 1479.59 Q2108.04 1479.59 2110.33 1483.05 Q2112.64 1486.48 2112.64 1493.05 Q2112.64 1499.59 2110.33 1503.05 Q2108.04 1506.48 2103.68 1506.48 Q2099.32 1506.48 2097.01 1503.05 Q2094.72 1499.59 2094.72 1493.05 Q2094.72 1486.48 2097.01 1483.05 Q2099.32 1479.59 2103.68 1479.59 Z" fill="#4c4c4c" fill-rule="evenodd" fill-opacity="1" /><path clip-path="url(#clip290)" d="M2262.36 1503.03 L2268.09 1503.03 L2268.09 1483.25 L2261.86 1484.5 L2261.86 1481.31 L2268.05 1480.06 L2271.56 1480.06 L2271.56 1503.03 L2277.29 1503.03 L2277.29 1505.98 L2262.36 1505.98 L2262.36 1503.03 Z" fill="#4c4c4c" fill-rule="evenodd" fill-opacity="1" /><path clip-path="url(#clip290)" d="M2291.87 1482.37 Q2289.17 1482.37 2287.79 1485.04 Q2286.44 1487.7 2286.44 1493.05 Q2286.44 1498.38 2287.79 1501.05 Q2289.17 1503.71 2291.87 1503.71 Q2294.6 1503.71 2295.95 1501.05 Q2297.33 1498.38 2297.33 1493.05 Q2297.33 1487.7 2295.95 1485.04 Q2294.6 1482.37 2291.87 1482.37 M2291.87 1479.59 Q2296.23 1479.59 2298.52 1483.05 Q2300.83 1486.48 2300.83 1493.05 Q2300.83 1499.59 2298.52 1503.05 Q2296.23 1506.48 2291.87 1506.48 Q2287.52 1506.48 2285.21 1503.05 Q2282.92 1499.59 2282.92 1493.05 Q2282.92 1486.48 2285.21 1483.05 Q2287.52 1479.59 2291.87 1479.59 Z" fill="#4c4c4c" fill-rule="evenodd" fill-opacity="1" /><path clip-path="url(#clip290)" d="M2314.5 1482.37 Q2311.79 1482.37 2310.42 1485.04 Q2309.06 1487.7 2309.06 1493.05 Q2309.06 1498.38 2310.42 1501.05 Q2311.79 1503.71 2314.5 1503.71 Q2317.22 1503.71 2318.58 1501.05 Q2319.95 1498.38 2319.95 1493.05 Q2319.95 1487.7 2318.58 1485.04 Q2317.22 1482.37 2314.5 1482.37 M2314.5 1479.59 Q2318.85 1479.59 2321.14 1483.05 Q2323.45 1486.48 2323.45 1493.05 Q2323.45 1499.59 2321.14 1503.05 Q2318.85 1506.48 2314.5 1506.48 Q2310.14 1506.48 2307.83 1503.05 Q2305.54 1499.59 2305.54 1493.05 Q2305.54 1486.48 2307.83 1483.05 Q2310.14 1479.59 2314.5 1479.59 Z" fill="#4c4c4c" fill-rule="evenodd" fill-opacity="1" /><path clip-path="url(#clip290)" d="M1181.56 1526.57 L1186.24 1526.57 L1186.24 1561.13 L1181.56 1561.13 L1181.56 1526.57 Z" fill="#000000" fill-rule="evenodd" fill-opacity="1" /><path clip-path="url(#clip290)" d="M1199.57 1527.84 L1199.57 1535.21 L1208.35 1535.21 L1208.35 1538.52 L1199.57 1538.52 L1199.57 1552.59 Q1199.57 1555.76 1200.43 1556.66 Q1201.31 1557.57 1203.97 1557.57 L1208.35 1557.57 L1208.35 1561.13 L1203.97 1561.13 Q1199.04 1561.13 1197.17 1559.3 Q1195.29 1557.45 1195.29 1552.59 L1195.29 1538.52 L1192.17 1538.52 L1192.17 1535.21 L1195.29 1535.21 L1195.29 1527.84 L1199.57 1527.84 Z" fill="#000000" fill-rule="evenodd" fill-opacity="1" /><path clip-path="url(#clip290)" d="M1236.12 1547.1 L1236.12 1549.19 L1216.54 1549.19 Q1216.82 1553.59 1219.18 1555.9 Q1221.56 1558.19 1225.8 1558.19 Q1228.25 1558.19 1230.55 1557.59 Q1232.86 1556.99 1235.13 1555.78 L1235.13 1559.81 Q1232.84 1560.78 1230.43 1561.29 Q1228.02 1561.8 1225.55 1561.8 Q1219.34 1561.8 1215.71 1558.19 Q1212.1 1554.58 1212.1 1548.42 Q1212.1 1542.06 1215.52 1538.33 Q1218.97 1534.58 1224.81 1534.58 Q1230.04 1534.58 1233.07 1537.96 Q1236.12 1541.32 1236.12 1547.1 M1231.87 1545.85 Q1231.82 1542.36 1229.9 1540.28 Q1228 1538.19 1224.85 1538.19 Q1221.29 1538.19 1219.13 1540.21 Q1217 1542.22 1216.68 1545.88 L1231.87 1545.85 Z" fill="#000000" fill-rule="evenodd" fill-opacity="1" /><path clip-path="url(#clip290)" d="M1258.14 1539.19 Q1257.42 1538.77 1256.56 1538.59 Q1255.73 1538.38 1254.71 1538.38 Q1251.1 1538.38 1249.16 1540.74 Q1247.24 1543.08 1247.24 1547.47 L1247.24 1561.13 L1242.95 1561.13 L1242.95 1535.21 L1247.24 1535.21 L1247.24 1539.23 Q1248.58 1536.87 1250.73 1535.74 Q1252.88 1534.58 1255.96 1534.58 Q1256.4 1534.58 1256.93 1534.65 Q1257.47 1534.7 1258.12 1534.81 L1258.14 1539.19 Z" fill="#000000" fill-rule="evenodd" fill-opacity="1" /><path clip-path="url(#clip290)" d="M1274.39 1548.1 Q1269.23 1548.1 1267.24 1549.28 Q1265.24 1550.46 1265.24 1553.31 Q1265.24 1555.58 1266.73 1556.92 Q1268.23 1558.24 1270.8 1558.24 Q1274.34 1558.24 1276.47 1555.74 Q1278.62 1553.22 1278.62 1549.05 L1278.62 1548.1 L1274.39 1548.1 M1282.88 1546.34 L1282.88 1561.13 L1278.62 1561.13 L1278.62 1557.2 Q1277.17 1559.56 1274.99 1560.69 Q1272.81 1561.8 1269.67 1561.8 Q1265.68 1561.8 1263.32 1559.58 Q1260.99 1557.34 1260.99 1553.59 Q1260.99 1549.21 1263.9 1546.99 Q1266.84 1544.77 1272.65 1544.77 L1278.62 1544.77 L1278.62 1544.35 Q1278.62 1541.41 1276.68 1539.81 Q1274.76 1538.19 1271.26 1538.19 Q1269.04 1538.19 1266.93 1538.72 Q1264.83 1539.26 1262.88 1540.32 L1262.88 1536.39 Q1265.22 1535.48 1267.42 1535.04 Q1269.62 1534.58 1271.7 1534.58 Q1277.33 1534.58 1280.11 1537.5 Q1282.88 1540.41 1282.88 1546.34 Z" fill="#000000" fill-rule="evenodd" fill-opacity="1" /><path clip-path="url(#clip290)" d="M1295.87 1527.84 L1295.87 1535.21 L1304.64 1535.21 L1304.64 1538.52 L1295.87 1538.52 L1295.87 1552.59 Q1295.87 1555.76 1296.73 1556.66 Q1297.61 1557.57 1300.27 1557.57 L1304.64 1557.57 L1304.64 1561.13 L1300.27 1561.13 Q1295.34 1561.13 1293.46 1559.3 Q1291.59 1557.45 1291.59 1552.59 L1291.59 1538.52 L1288.46 1538.52 L1288.46 1535.21 L1291.59 1535.21 L1291.59 1527.84 L1295.87 1527.84 Z" fill="#000000" fill-rule="evenodd" fill-opacity="1" /><path clip-path="url(#clip290)" d="M1310.24 1535.21 L1314.5 1535.21 L1314.5 1561.13 L1310.24 1561.13 L1310.24 1535.21 M1310.24 1525.11 L1314.5 1525.11 L1314.5 1530.51 L1310.24 1530.51 L1310.24 1525.11 Z" fill="#000000" fill-rule="evenodd" fill-opacity="1" /><path clip-path="url(#clip290)" d="M1333.46 1538.19 Q1330.04 1538.19 1328.05 1540.88 Q1326.05 1543.54 1326.05 1548.19 Q1326.05 1552.84 1328.02 1555.53 Q1330.01 1558.19 1333.46 1558.19 Q1336.86 1558.19 1338.86 1555.51 Q1340.85 1552.82 1340.85 1548.19 Q1340.85 1543.59 1338.86 1540.9 Q1336.86 1538.19 1333.46 1538.19 M1333.46 1534.58 Q1339.02 1534.58 1342.19 1538.19 Q1345.36 1541.8 1345.36 1548.19 Q1345.36 1554.56 1342.19 1558.19 Q1339.02 1561.8 1333.46 1561.8 Q1327.88 1561.8 1324.71 1558.19 Q1321.56 1554.56 1321.56 1548.19 Q1321.56 1541.8 1324.71 1538.19 Q1327.88 1534.58 1333.46 1534.58 Z" fill="#000000" fill-rule="evenodd" fill-opacity="1" /><path clip-path="url(#clip290)" d="M1373.97 1545.48 L1373.97 1561.13 L1369.71 1561.13 L1369.71 1545.62 Q1369.71 1541.94 1368.28 1540.11 Q1366.84 1538.28 1363.97 1538.28 Q1360.52 1538.28 1358.53 1540.48 Q1356.54 1542.68 1356.54 1546.48 L1356.54 1561.13 L1352.26 1561.13 L1352.26 1535.21 L1356.54 1535.21 L1356.54 1539.23 Q1358.07 1536.9 1360.13 1535.74 Q1362.21 1534.58 1364.92 1534.58 Q1369.39 1534.58 1371.68 1537.36 Q1373.97 1540.11 1373.97 1545.48 Z" fill="#000000" fill-rule="evenodd" fill-opacity="1" /><path clip-path="url(#clip290)" d="M1398.99 1535.97 L1398.99 1540 Q1397.19 1539.07 1395.24 1538.61 Q1393.3 1538.15 1391.22 1538.15 Q1388.05 1538.15 1386.45 1539.12 Q1384.87 1540.09 1384.87 1542.03 Q1384.87 1543.52 1386.01 1544.37 Q1387.14 1545.21 1390.57 1545.97 L1392.03 1546.29 Q1396.56 1547.27 1398.46 1549.05 Q1400.38 1550.81 1400.38 1553.98 Q1400.38 1557.59 1397.51 1559.7 Q1394.67 1561.8 1389.67 1561.8 Q1387.58 1561.8 1385.31 1561.39 Q1383.07 1560.99 1380.57 1560.18 L1380.57 1555.78 Q1382.93 1557.01 1385.22 1557.64 Q1387.51 1558.24 1389.76 1558.24 Q1392.77 1558.24 1394.39 1557.22 Q1396.01 1556.18 1396.01 1554.3 Q1396.01 1552.57 1394.83 1551.64 Q1393.67 1550.72 1389.71 1549.86 L1388.23 1549.51 Q1384.27 1548.68 1382.51 1546.97 Q1380.75 1545.23 1380.75 1542.22 Q1380.75 1538.56 1383.35 1536.57 Q1385.94 1534.58 1390.71 1534.58 Q1393.07 1534.58 1395.15 1534.93 Q1397.23 1535.28 1398.99 1535.97 Z" fill="#000000" fill-rule="evenodd" fill-opacity="1" /><polyline clip-path="url(#clip292)" style="stroke:#ffffff; stroke-linecap:butt; stroke-linejoin:round; stroke-width:4; stroke-opacity:1; fill:none" points="
  229.192,1287.47 2352.76,1287.47 
  "/>
<polyline clip-path="url(#clip292)" style="stroke:#ffffff; stroke-linecap:butt; stroke-linejoin:round; stroke-width:4; stroke-opacity:1; fill:none" points="
  229.192,1012.94 2352.76,1012.94 
  "/>
<polyline clip-path="url(#clip292)" style="stroke:#ffffff; stroke-linecap:butt; stroke-linejoin:round; stroke-width:4; stroke-opacity:1; fill:none" points="
  229.192,738.42 2352.76,738.42 
  "/>
<polyline clip-path="url(#clip292)" style="stroke:#ffffff; stroke-linecap:butt; stroke-linejoin:round; stroke-width:4; stroke-opacity:1; fill:none" points="
  229.192,463.897 2352.76,463.897 
  "/>
<polyline clip-path="url(#clip292)" style="stroke:#ffffff; stroke-linecap:butt; stroke-linejoin:round; stroke-width:4; stroke-opacity:1; fill:none" points="
  229.192,189.373 2352.76,189.373 
  "/>
<polyline clip-path="url(#clip292)" style="stroke:#ffffff; stroke-linecap:butt; stroke-linejoin:round; stroke-width:2; stroke-opacity:1; fill:none" points="
  229.192,1424.73 2352.76,1424.73 
  "/>
<polyline clip-path="url(#clip292)" style="stroke:#ffffff; stroke-linecap:butt; stroke-linejoin:round; stroke-width:2; stroke-opacity:1; fill:none" points="
  229.192,1150.21 2352.76,1150.21 
  "/>
<polyline clip-path="url(#clip292)" style="stroke:#ffffff; stroke-linecap:butt; stroke-linejoin:round; stroke-width:2; stroke-opacity:1; fill:none" points="
  229.192,875.682 2352.76,875.682 
  "/>
<polyline clip-path="url(#clip292)" style="stroke:#ffffff; stroke-linecap:butt; stroke-linejoin:round; stroke-width:2; stroke-opacity:1; fill:none" points="
  229.192,601.158 2352.76,601.158 
  "/>
<polyline clip-path="url(#clip292)" style="stroke:#ffffff; stroke-linecap:butt; stroke-linejoin:round; stroke-width:2; stroke-opacity:1; fill:none" points="
  229.192,326.635 2352.76,326.635 
  "/>
<polyline clip-path="url(#clip290)" style="stroke:#ffffff; stroke-linecap:butt; stroke-linejoin:round; stroke-width:4; stroke-opacity:1; fill:none" points="
  229.192,1444.78 229.192,106.192 
  "/>
<polyline clip-path="url(#clip290)" style="stroke:#333333; stroke-linecap:butt; stroke-linejoin:round; stroke-width:4; stroke-opacity:1; fill:none" points="
  229.192,1287.47 210.294,1287.47 
  "/>
<polyline clip-path="url(#clip290)" style="stroke:#333333; stroke-linecap:butt; stroke-linejoin:round; stroke-width:4; stroke-opacity:1; fill:none" points="
  229.192,1012.94 210.294,1012.94 
  "/>
<polyline clip-path="url(#clip290)" style="stroke:#333333; stroke-linecap:butt; stroke-linejoin:round; stroke-width:4; stroke-opacity:1; fill:none" points="
  229.192,738.42 210.294,738.42 
  "/>
<polyline clip-path="url(#clip290)" style="stroke:#333333; stroke-linecap:butt; stroke-linejoin:round; stroke-width:4; stroke-opacity:1; fill:none" points="
  229.192,463.897 210.294,463.897 
  "/>
<polyline clip-path="url(#clip290)" style="stroke:#333333; stroke-linecap:butt; stroke-linejoin:round; stroke-width:4; stroke-opacity:1; fill:none" points="
  229.192,189.373 210.294,189.373 
  "/>
<polyline clip-path="url(#clip290)" style="stroke:#333333; stroke-linecap:butt; stroke-linejoin:round; stroke-width:4; stroke-opacity:1; fill:none" points="
  229.192,1424.73 219.743,1424.73 
  "/>
<polyline clip-path="url(#clip290)" style="stroke:#333333; stroke-linecap:butt; stroke-linejoin:round; stroke-width:4; stroke-opacity:1; fill:none" points="
  229.192,1150.21 219.743,1150.21 
  "/>
<polyline clip-path="url(#clip290)" style="stroke:#333333; stroke-linecap:butt; stroke-linejoin:round; stroke-width:4; stroke-opacity:1; fill:none" points="
  229.192,875.682 219.743,875.682 
  "/>
<polyline clip-path="url(#clip290)" style="stroke:#333333; stroke-linecap:butt; stroke-linejoin:round; stroke-width:4; stroke-opacity:1; fill:none" points="
  229.192,601.158 219.743,601.158 
  "/>
<polyline clip-path="url(#clip290)" style="stroke:#333333; stroke-linecap:butt; stroke-linejoin:round; stroke-width:4; stroke-opacity:1; fill:none" points="
  229.192,326.635 219.743,326.635 
  "/>
<path clip-path="url(#clip290)" d="M84.8626 1287.81 L107.119 1287.81 L107.119 1290.76 L84.8626 1290.76 L84.8626 1287.81 Z" fill="#4c4c4c" fill-rule="evenodd" fill-opacity="1" /><path clip-path="url(#clip290)" d="M115.297 1297.48 L121.026 1297.48 L121.026 1277.7 L114.793 1278.95 L114.793 1275.76 L120.991 1274.51 L124.498 1274.51 L124.498 1297.48 L130.227 1297.48 L130.227 1300.43 L115.297 1300.43 L115.297 1297.48 Z" fill="#4c4c4c" fill-rule="evenodd" fill-opacity="1" /><path clip-path="url(#clip290)" d="M145.244 1286.07 Q142.883 1286.07 141.494 1287.68 Q140.123 1289.3 140.123 1292.11 Q140.123 1294.91 141.494 1296.54 Q142.883 1298.15 145.244 1298.15 Q147.605 1298.15 148.977 1296.54 Q150.366 1294.91 150.366 1292.11 Q150.366 1289.3 148.977 1287.68 Q147.605 1286.07 145.244 1286.07 M152.206 1275.08 L152.206 1278.27 Q150.887 1277.65 149.532 1277.32 Q148.196 1276.99 146.876 1276.99 Q143.404 1276.99 141.564 1279.33 Q139.741 1281.68 139.48 1286.42 Q140.505 1284.91 142.05 1284.11 Q143.595 1283.29 145.453 1283.29 Q149.359 1283.29 151.616 1285.67 Q153.89 1288.03 153.89 1292.11 Q153.89 1296.1 151.529 1298.52 Q149.168 1300.93 145.244 1300.93 Q140.748 1300.93 138.369 1297.49 Q135.991 1294.04 135.991 1287.49 Q135.991 1281.35 138.907 1277.7 Q141.824 1274.04 146.737 1274.04 Q148.057 1274.04 149.394 1274.3 Q150.748 1274.56 152.206 1275.08 Z" fill="#4c4c4c" fill-rule="evenodd" fill-opacity="1" /><path clip-path="url(#clip290)" d="M162.953 1297.48 L175.192 1297.48 L175.192 1300.43 L158.734 1300.43 L158.734 1297.48 Q160.73 1295.41 164.168 1291.94 Q167.623 1288.45 168.508 1287.44 Q170.192 1285.55 170.852 1284.25 Q171.529 1282.93 171.529 1281.66 Q171.529 1279.59 170.071 1278.29 Q168.63 1276.99 166.303 1276.99 Q164.654 1276.99 162.814 1277.56 Q160.991 1278.14 158.907 1279.3 L158.907 1275.76 Q161.025 1274.91 162.866 1274.47 Q164.706 1274.04 166.234 1274.04 Q170.261 1274.04 172.657 1276.05 Q175.053 1278.07 175.053 1281.43 Q175.053 1283.03 174.446 1284.47 Q173.855 1285.9 172.275 1287.84 Q171.841 1288.34 169.515 1290.76 Q167.189 1293.15 162.953 1297.48 Z" fill="#4c4c4c" fill-rule="evenodd" fill-opacity="1" /><path clip-path="url(#clip290)" d="M83.6647 1013.28 L105.922 1013.28 L105.922 1016.23 L83.6647 1016.23 L83.6647 1013.28 Z" fill="#4c4c4c" fill-rule="evenodd" fill-opacity="1" /><path clip-path="url(#clip290)" d="M114.099 1022.95 L119.828 1022.95 L119.828 1003.18 L113.595 1004.43 L113.595 1001.23 L119.793 999.984 L123.3 999.984 L123.3 1022.95 L129.029 1022.95 L129.029 1025.9 L114.099 1025.9 L114.099 1022.95 Z" fill="#4c4c4c" fill-rule="evenodd" fill-opacity="1" /><path clip-path="url(#clip290)" d="M144.046 1011.55 Q141.685 1011.55 140.296 1013.16 Q138.925 1014.78 138.925 1017.59 Q138.925 1020.38 140.296 1022.01 Q141.685 1023.63 144.046 1023.63 Q146.407 1023.63 147.779 1022.01 Q149.168 1020.38 149.168 1017.59 Q149.168 1014.78 147.779 1013.16 Q146.407 1011.55 144.046 1011.55 M151.008 1000.56 L151.008 1003.75 Q149.689 1003.13 148.335 1002.8 Q146.998 1002.47 145.678 1002.47 Q142.206 1002.47 140.366 1004.81 Q138.543 1007.15 138.283 1011.89 Q139.307 1010.38 140.852 1009.58 Q142.397 1008.77 144.255 1008.77 Q148.161 1008.77 150.418 1011.15 Q152.692 1013.51 152.692 1017.59 Q152.692 1021.58 150.331 1023.99 Q147.97 1026.41 144.046 1026.41 Q139.55 1026.41 137.171 1022.97 Q134.793 1019.51 134.793 1012.97 Q134.793 1006.82 137.71 1003.18 Q140.626 999.515 145.539 999.515 Q146.859 999.515 148.196 999.775 Q149.55 1000.04 151.008 1000.56 Z" fill="#4c4c4c" fill-rule="evenodd" fill-opacity="1" /><path clip-path="url(#clip290)" d="M166.234 1002.29 Q163.525 1002.29 162.154 1004.97 Q160.8 1007.62 160.8 1012.97 Q160.8 1018.3 162.154 1020.97 Q163.525 1023.63 166.234 1023.63 Q168.959 1023.63 170.314 1020.97 Q171.685 1018.3 171.685 1012.97 Q171.685 1007.62 170.314 1004.97 Q168.959 1002.29 166.234 1002.29 M166.234 999.515 Q170.591 999.515 172.883 1002.97 Q175.192 1006.41 175.192 1012.97 Q175.192 1019.51 172.883 1022.97 Q170.591 1026.41 166.234 1026.41 Q161.876 1026.41 159.567 1022.97 Q157.275 1019.51 157.275 1012.97 Q157.275 1006.41 159.567 1002.97 Q161.876 999.515 166.234 999.515 Z" fill="#4c4c4c" fill-rule="evenodd" fill-opacity="1" /><path clip-path="url(#clip290)" d="M83.7342 738.759 L105.991 738.759 L105.991 741.71 L83.7342 741.71 L83.7342 738.759 Z" fill="#4c4c4c" fill-rule="evenodd" fill-opacity="1" /><path clip-path="url(#clip290)" d="M114.168 748.429 L119.897 748.429 L119.897 728.654 L113.665 729.904 L113.665 726.71 L119.862 725.46 L123.369 725.46 L123.369 748.429 L129.099 748.429 L129.099 751.38 L114.168 751.38 L114.168 748.429 Z" fill="#4c4c4c" fill-rule="evenodd" fill-opacity="1" /><path clip-path="url(#clip290)" d="M136.217 725.46 L149.984 725.46 L149.984 728.411 L139.428 728.411 L139.428 734.766 Q140.192 734.505 140.956 734.384 Q141.72 734.245 142.484 734.245 Q146.824 734.245 149.359 736.623 Q151.894 739.002 151.894 743.064 Q151.894 747.248 149.289 749.574 Q146.685 751.884 141.946 751.884 Q140.314 751.884 138.612 751.606 Q136.928 751.328 135.123 750.772 L135.123 747.248 Q136.685 748.099 138.352 748.515 Q140.019 748.932 141.876 748.932 Q144.88 748.932 146.633 747.352 Q148.387 745.772 148.387 743.064 Q148.387 740.356 146.633 738.776 Q144.88 737.196 141.876 737.196 Q140.47 737.196 139.064 737.509 Q137.675 737.821 136.217 738.481 L136.217 725.46 Z" fill="#4c4c4c" fill-rule="evenodd" fill-opacity="1" /><path clip-path="url(#clip290)" d="M166.303 739.071 Q163.803 739.071 162.362 740.408 Q160.939 741.745 160.939 744.088 Q160.939 746.432 162.362 747.769 Q163.803 749.106 166.303 749.106 Q168.803 749.106 170.244 747.769 Q171.685 746.415 171.685 744.088 Q171.685 741.745 170.244 740.408 Q168.821 739.071 166.303 739.071 M162.796 737.578 Q160.539 737.022 159.272 735.477 Q158.022 733.932 158.022 731.71 Q158.022 728.602 160.227 726.797 Q162.449 724.991 166.303 724.991 Q170.175 724.991 172.38 726.797 Q174.584 728.602 174.584 731.71 Q174.584 733.932 173.317 735.477 Q172.067 737.022 169.827 737.578 Q172.362 738.168 173.768 739.887 Q175.192 741.606 175.192 744.088 Q175.192 747.856 172.883 749.87 Q170.591 751.884 166.303 751.884 Q162.015 751.884 159.706 749.87 Q157.414 747.856 157.414 744.088 Q157.414 741.606 158.838 739.887 Q160.262 738.168 162.796 737.578 M161.512 732.04 Q161.512 734.054 162.762 735.182 Q164.029 736.311 166.303 736.311 Q168.56 736.311 169.827 735.182 Q171.112 734.054 171.112 732.04 Q171.112 730.026 169.827 728.898 Q168.56 727.769 166.303 727.769 Q164.029 727.769 162.762 728.898 Q161.512 730.026 161.512 732.04 Z" fill="#4c4c4c" fill-rule="evenodd" fill-opacity="1" /><path clip-path="url(#clip290)" d="M83.5432 464.235 L105.8 464.235 L105.8 467.186 L83.5432 467.186 L83.5432 464.235 Z" fill="#4c4c4c" fill-rule="evenodd" fill-opacity="1" /><path clip-path="url(#clip290)" d="M113.977 473.905 L119.706 473.905 L119.706 454.131 L113.474 455.381 L113.474 452.187 L119.671 450.937 L123.178 450.937 L123.178 473.905 L128.908 473.905 L128.908 476.857 L113.977 476.857 L113.977 473.905 Z" fill="#4c4c4c" fill-rule="evenodd" fill-opacity="1" /><path clip-path="url(#clip290)" d="M136.026 450.937 L149.793 450.937 L149.793 453.888 L139.237 453.888 L139.237 460.242 Q140.001 459.982 140.765 459.86 Q141.529 459.721 142.293 459.721 Q146.633 459.721 149.168 462.1 Q151.703 464.478 151.703 468.541 Q151.703 472.725 149.098 475.051 Q146.494 477.36 141.755 477.36 Q140.123 477.36 138.421 477.082 Q136.737 476.804 134.932 476.249 L134.932 472.725 Q136.494 473.575 138.161 473.992 Q139.828 474.409 141.685 474.409 Q144.689 474.409 146.442 472.829 Q148.196 471.249 148.196 468.541 Q148.196 465.832 146.442 464.252 Q144.689 462.673 141.685 462.673 Q140.279 462.673 138.873 462.985 Q137.484 463.298 136.026 463.957 L136.026 450.937 Z" fill="#4c4c4c" fill-rule="evenodd" fill-opacity="1" /><path clip-path="url(#clip290)" d="M166.546 462.499 Q164.185 462.499 162.796 464.114 Q161.425 465.728 161.425 468.541 Q161.425 471.336 162.796 472.968 Q164.185 474.582 166.546 474.582 Q168.907 474.582 170.279 472.968 Q171.668 471.336 171.668 468.541 Q171.668 465.728 170.279 464.114 Q168.907 462.499 166.546 462.499 M173.508 451.509 L173.508 454.704 Q172.189 454.079 170.834 453.749 Q169.498 453.419 168.178 453.419 Q164.706 453.419 162.866 455.763 Q161.043 458.107 160.782 462.846 Q161.807 461.336 163.352 460.537 Q164.897 459.721 166.755 459.721 Q170.661 459.721 172.918 462.1 Q175.192 464.461 175.192 468.541 Q175.192 472.534 172.831 474.947 Q170.47 477.36 166.546 477.36 Q162.05 477.36 159.671 473.923 Q157.293 470.468 157.293 463.923 Q157.293 457.777 160.209 454.131 Q163.126 450.468 168.039 450.468 Q169.359 450.468 170.696 450.728 Q172.05 450.989 173.508 451.509 Z" fill="#4c4c4c" fill-rule="evenodd" fill-opacity="1" /><path clip-path="url(#clip290)" d="M83.3002 189.712 L105.557 189.712 L105.557 192.663 L83.3002 192.663 L83.3002 189.712 Z" fill="#4c4c4c" fill-rule="evenodd" fill-opacity="1" /><path clip-path="url(#clip290)" d="M113.734 199.382 L119.463 199.382 L119.463 179.607 L113.231 180.857 L113.231 177.663 L119.428 176.413 L122.935 176.413 L122.935 199.382 L128.664 199.382 L128.664 202.333 L113.734 202.333 L113.734 199.382 Z" fill="#4c4c4c" fill-rule="evenodd" fill-opacity="1" /><path clip-path="url(#clip290)" d="M135.783 176.413 L149.55 176.413 L149.55 179.364 L138.994 179.364 L138.994 185.719 Q139.758 185.458 140.522 185.337 Q141.286 185.198 142.05 185.198 Q146.39 185.198 148.925 187.576 Q151.46 189.955 151.46 194.017 Q151.46 198.201 148.855 200.528 Q146.251 202.837 141.512 202.837 Q139.88 202.837 138.178 202.559 Q136.494 202.281 134.689 201.725 L134.689 198.201 Q136.251 199.052 137.918 199.468 Q139.585 199.885 141.442 199.885 Q144.446 199.885 146.199 198.305 Q147.953 196.725 147.953 194.017 Q147.953 191.309 146.199 189.729 Q144.446 188.149 141.442 188.149 Q140.036 188.149 138.63 188.462 Q137.241 188.774 135.783 189.434 L135.783 176.413 Z" fill="#4c4c4c" fill-rule="evenodd" fill-opacity="1" /><path clip-path="url(#clip290)" d="M168.005 179.469 L159.15 193.305 L168.005 193.305 L168.005 179.469 M167.084 176.413 L171.494 176.413 L171.494 193.305 L175.192 193.305 L175.192 196.222 L171.494 196.222 L171.494 202.333 L168.005 202.333 L168.005 196.222 L156.303 196.222 L156.303 192.837 L167.084 176.413 Z" fill="#4c4c4c" fill-rule="evenodd" fill-opacity="1" /><path clip-path="url(#clip290)" d="M20.3722 985.184 L20.3722 955.948 L24.3073 955.948 L24.3073 968.216 L54.9322 968.216 L54.9322 972.915 L24.3073 972.915 L24.3073 985.184 L20.3722 985.184 Z" fill="#000000" fill-rule="evenodd" fill-opacity="1" /><path clip-path="url(#clip290)" d="M40.9045 937.499 L42.9878 937.499 L42.9878 957.082 Q47.3859 956.804 49.7007 954.443 Q51.9924 952.059 51.9924 947.823 Q51.9924 945.369 51.3905 943.078 Q50.7887 940.763 49.585 938.494 L53.6127 938.494 Q54.5849 940.786 55.0942 943.193 Q55.6035 945.601 55.6035 948.078 Q55.6035 954.281 51.9924 957.916 Q48.3813 961.527 42.2239 961.527 Q35.8582 961.527 32.1314 958.101 Q28.3814 954.652 28.3814 948.818 Q28.3814 943.587 31.761 940.555 Q35.1174 937.499 40.9045 937.499 M39.6545 941.758 Q36.1591 941.805 34.0758 943.726 Q31.9925 945.624 31.9925 948.772 Q31.9925 952.337 34.0063 954.49 Q36.0202 956.619 39.6776 956.943 L39.6545 941.758 Z" fill="#000000" fill-rule="evenodd" fill-opacity="1" /><path clip-path="url(#clip290)" d="M29.7703 913.981 L33.798 913.981 Q32.8721 915.786 32.4091 917.731 Q31.9462 919.675 31.9462 921.758 Q31.9462 924.93 32.9184 926.527 Q33.8906 928.101 35.835 928.101 Q37.3165 928.101 38.173 926.967 Q39.0063 925.832 39.7702 922.406 L40.0943 920.948 Q41.0665 916.411 42.8489 914.513 Q44.6081 912.592 47.7794 912.592 Q51.3905 912.592 53.497 915.462 Q55.6035 918.309 55.6035 923.309 Q55.6035 925.393 55.1868 927.661 Q54.7933 929.906 53.9831 932.406 L49.585 932.406 Q50.8118 930.045 51.4368 927.754 Q52.0387 925.462 52.0387 923.217 Q52.0387 920.207 51.0201 918.587 Q49.9785 916.967 48.1035 916.967 Q46.3674 916.967 45.4415 918.147 Q44.5155 919.305 43.6591 923.263 L43.3118 924.744 Q42.4785 928.703 40.7656 930.462 Q39.0295 932.221 36.0202 932.221 Q32.3628 932.221 30.3721 929.629 Q28.3814 927.036 28.3814 922.268 Q28.3814 919.907 28.7286 917.823 Q29.0758 915.74 29.7703 913.981 Z" fill="#000000" fill-rule="evenodd" fill-opacity="1" /><path clip-path="url(#clip290)" d="M21.6453 901.596 L29.0064 901.596 L29.0064 892.823 L32.3165 892.823 L32.3165 901.596 L46.3905 901.596 Q49.5618 901.596 50.4646 900.74 Q51.3674 899.86 51.3674 897.198 L51.3674 892.823 L54.9322 892.823 L54.9322 897.198 Q54.9322 902.129 53.1035 904.004 Q51.2516 905.879 46.3905 905.879 L32.3165 905.879 L32.3165 909.004 L29.0064 909.004 L29.0064 905.879 L21.6453 905.879 L21.6453 901.596 Z" fill="#000000" fill-rule="evenodd" fill-opacity="1" /><path clip-path="url(#clip290)" d="M18.9138 872.152 L18.9138 867.893 L54.9322 867.893 L54.9322 872.152 L18.9138 872.152 Z" fill="#000000" fill-rule="evenodd" fill-opacity="1" /><path clip-path="url(#clip290)" d="M31.9925 848.935 Q31.9925 852.361 34.6776 854.351 Q37.3397 856.342 41.9924 856.342 Q46.6452 856.342 49.3303 854.374 Q51.9924 852.384 51.9924 848.935 Q51.9924 845.532 49.3072 843.541 Q46.622 841.55 41.9924 841.55 Q37.386 841.55 34.7008 843.541 Q31.9925 845.532 31.9925 848.935 M28.3814 848.935 Q28.3814 843.379 31.9925 840.208 Q35.6036 837.037 41.9924 837.037 Q48.3581 837.037 51.9924 840.208 Q55.6035 843.379 55.6035 848.935 Q55.6035 854.513 51.9924 857.685 Q48.3581 860.833 41.9924 860.833 Q35.6036 860.833 31.9925 857.685 Q28.3814 854.513 28.3814 848.935 Z" fill="#000000" fill-rule="evenodd" fill-opacity="1" /><path clip-path="url(#clip290)" d="M41.6683 812.916 Q37.0387 812.916 34.4925 814.838 Q31.9462 816.736 31.9462 820.185 Q31.9462 823.611 34.4925 825.532 Q37.0387 827.43 41.6683 827.43 Q46.2748 827.43 48.8211 825.532 Q51.3674 823.611 51.3674 820.185 Q51.3674 816.736 48.8211 814.838 Q46.2748 812.916 41.6683 812.916 M51.7146 808.657 Q58.3349 808.657 61.5525 811.597 Q64.7932 814.537 64.7932 820.601 Q64.7932 822.847 64.446 824.838 Q64.1219 826.828 63.4275 828.703 L59.284 828.703 Q60.3025 826.828 60.7886 825 Q61.2747 823.171 61.2747 821.273 Q61.2747 817.083 59.0757 815 Q56.8997 812.916 52.4785 812.916 L50.372 812.916 Q52.6637 814.236 53.7979 816.296 Q54.9322 818.356 54.9322 821.226 Q54.9322 825.995 51.2979 828.912 Q47.6637 831.828 41.6683 831.828 Q35.6499 831.828 32.0156 828.912 Q28.3814 825.995 28.3814 821.226 Q28.3814 818.356 29.5156 816.296 Q30.6499 814.236 32.9415 812.916 L29.0064 812.916 L29.0064 808.657 L51.7146 808.657 Z" fill="#000000" fill-rule="evenodd" fill-opacity="1" /><path clip-path="url(#clip290)" d="M40.048 802.037 L40.048 789.56 L43.8443 789.56 L43.8443 802.037 L40.048 802.037 Z" fill="#000000" fill-rule="evenodd" fill-opacity="1" /><path clip-path="url(#clip290)" d="M18.9138 782.778 L18.9138 778.518 L54.9322 778.518 L54.9322 782.778 L18.9138 782.778 Z" fill="#000000" fill-rule="evenodd" fill-opacity="1" /><path clip-path="url(#clip290)" d="M29.0064 769.606 L29.0064 765.347 L54.9322 765.347 L54.9322 769.606 L29.0064 769.606 M18.9138 769.606 L18.9138 765.347 L24.3073 765.347 L24.3073 769.606 L18.9138 769.606 Z" fill="#000000" fill-rule="evenodd" fill-opacity="1" /><path clip-path="url(#clip290)" d="M18.9138 756.597 L18.9138 752.315 L40.1869 752.315 L29.0064 739.607 L29.0064 734.167 L41.1359 747.917 L54.9322 733.588 L54.9322 739.144 L42.2702 752.315 L54.9322 752.315 L54.9322 756.597 L18.9138 756.597 Z" fill="#000000" fill-rule="evenodd" fill-opacity="1" /><path clip-path="url(#clip290)" d="M40.9045 708.496 L42.9878 708.496 L42.9878 728.079 Q47.3859 727.801 49.7007 725.44 Q51.9924 723.056 51.9924 718.82 Q51.9924 716.366 51.3905 714.074 Q50.7887 711.759 49.585 709.491 L53.6127 709.491 Q54.5849 711.783 55.0942 714.19 Q55.6035 716.597 55.6035 719.074 Q55.6035 725.278 51.9924 728.912 Q48.3813 732.523 42.2239 732.523 Q35.8582 732.523 32.1314 729.097 Q28.3814 725.648 28.3814 719.815 Q28.3814 714.584 31.761 711.551 Q35.1174 708.496 40.9045 708.496 M39.6545 712.755 Q36.1591 712.801 34.0758 714.722 Q31.9925 716.621 31.9925 719.769 Q31.9925 723.333 34.0063 725.486 Q36.0202 727.616 39.6776 727.94 L39.6545 712.755 Z" fill="#000000" fill-rule="evenodd" fill-opacity="1" /><path clip-path="url(#clip290)" d="M18.9138 701.505 L18.9138 697.246 L54.9322 697.246 L54.9322 701.505 L18.9138 701.505 Z" fill="#000000" fill-rule="evenodd" fill-opacity="1" /><path clip-path="url(#clip290)" d="M29.0064 688.334 L29.0064 684.074 L54.9322 684.074 L54.9322 688.334 L29.0064 688.334 M18.9138 688.334 L18.9138 684.074 L24.3073 684.074 L24.3073 688.334 L18.9138 688.334 Z" fill="#000000" fill-rule="evenodd" fill-opacity="1" /><path clip-path="url(#clip290)" d="M39.2841 653.612 L54.9322 653.612 L54.9322 657.871 L39.423 657.871 Q35.7424 657.871 33.9138 659.306 Q32.0851 660.741 32.0851 663.612 Q32.0851 667.061 34.2841 669.051 Q36.4832 671.042 40.2795 671.042 L54.9322 671.042 L54.9322 675.324 L18.9138 675.324 L18.9138 671.042 L33.0341 671.042 Q30.6962 669.514 29.5388 667.454 Q28.3814 665.371 28.3814 662.663 Q28.3814 658.195 31.1591 655.903 Q33.9138 653.612 39.2841 653.612 Z" fill="#000000" fill-rule="evenodd" fill-opacity="1" /><path clip-path="url(#clip290)" d="M31.9925 635.07 Q31.9925 638.496 34.6776 640.487 Q37.3397 642.477 41.9924 642.477 Q46.6452 642.477 49.3303 640.51 Q51.9924 638.519 51.9924 635.07 Q51.9924 631.667 49.3072 629.677 Q46.622 627.686 41.9924 627.686 Q37.386 627.686 34.7008 629.677 Q31.9925 631.667 31.9925 635.07 M28.3814 635.07 Q28.3814 629.515 31.9925 626.343 Q35.6036 623.172 41.9924 623.172 Q48.3581 623.172 51.9924 626.343 Q55.6035 629.515 55.6035 635.07 Q55.6035 640.649 51.9924 643.82 Q48.3581 646.968 41.9924 646.968 Q35.6036 646.968 31.9925 643.82 Q28.3814 640.649 28.3814 635.07 Z" fill="#000000" fill-rule="evenodd" fill-opacity="1" /><path clip-path="url(#clip290)" d="M31.9925 606.066 Q31.9925 609.492 34.6776 611.482 Q37.3397 613.473 41.9924 613.473 Q46.6452 613.473 49.3303 611.505 Q51.9924 609.515 51.9924 606.066 Q51.9924 602.663 49.3072 600.672 Q46.622 598.681 41.9924 598.681 Q37.386 598.681 34.7008 600.672 Q31.9925 602.663 31.9925 606.066 M28.3814 606.066 Q28.3814 600.51 31.9925 597.339 Q35.6036 594.168 41.9924 594.168 Q48.3581 594.168 51.9924 597.339 Q55.6035 600.51 55.6035 606.066 Q55.6035 611.644 51.9924 614.816 Q48.3581 617.964 41.9924 617.964 Q35.6036 617.964 31.9925 614.816 Q28.3814 611.644 28.3814 606.066 Z" fill="#000000" fill-rule="evenodd" fill-opacity="1" /><path clip-path="url(#clip290)" d="M32.9415 570.047 L18.9138 570.047 L18.9138 565.788 L54.9322 565.788 L54.9322 570.047 L51.0433 570.047 Q53.3581 571.39 54.4923 573.45 Q55.6035 575.487 55.6035 578.357 Q55.6035 583.056 51.8535 586.019 Q48.1035 588.959 41.9924 588.959 Q35.8813 588.959 32.1314 586.019 Q28.3814 583.056 28.3814 578.357 Q28.3814 575.487 29.5156 573.45 Q30.6267 571.39 32.9415 570.047 M41.9924 584.561 Q46.6915 584.561 49.3766 582.64 Q52.0387 580.695 52.0387 577.316 Q52.0387 573.936 49.3766 571.992 Q46.6915 570.047 41.9924 570.047 Q37.2934 570.047 34.6313 571.992 Q31.9462 573.936 31.9462 577.316 Q31.9462 580.695 34.6313 582.64 Q37.2934 584.561 41.9924 584.561 Z" fill="#000000" fill-rule="evenodd" fill-opacity="1" /><path clip-path="url(#clip290)" d="M1196.6 19.4328 L1201.93 19.4328 L1208.58 44.722 L1215.21 19.4328 L1221.49 19.4328 L1228.14 44.722 L1234.77 19.4328 L1240.09 19.4328 L1231.61 51.84 L1225.33 51.84 L1218.36 25.2776 L1211.36 51.84 L1205.08 51.84 L1196.6 19.4328 Z" fill="#000000" fill-rule="evenodd" fill-opacity="1" /><path clip-path="url(#clip290)" d="M1275.88 34.3054 L1275.88 36.9095 L1251.41 36.9095 Q1251.75 42.4072 1254.7 45.3007 Q1257.68 48.1653 1262.98 48.1653 Q1266.05 48.1653 1268.91 47.4129 Q1271.8 46.6606 1274.64 45.156 L1274.64 50.1907 Q1271.78 51.406 1268.77 52.0425 Q1265.76 52.6791 1262.66 52.6791 Q1254.91 52.6791 1250.36 48.1653 Q1245.85 43.6514 1245.85 35.9547 Q1245.85 27.9975 1250.13 23.339 Q1254.44 18.6515 1261.74 18.6515 Q1268.27 18.6515 1272.06 22.876 Q1275.88 27.0716 1275.88 34.3054 M1270.56 32.7429 Q1270.5 28.3737 1268.1 25.7695 Q1265.73 23.1654 1261.79 23.1654 Q1257.34 23.1654 1254.65 25.6827 Q1251.98 28.2001 1251.58 32.7718 L1270.56 32.7429 Z" fill="#000000" fill-rule="evenodd" fill-opacity="1" /><path clip-path="url(#clip290)" d="M1307.89 35.6653 Q1307.89 29.7915 1305.46 26.464 Q1303.05 23.1075 1298.83 23.1075 Q1294.61 23.1075 1292.17 26.464 Q1289.77 29.7915 1289.77 35.6653 Q1289.77 41.5391 1292.17 44.8956 Q1294.61 48.2231 1298.83 48.2231 Q1303.05 48.2231 1305.46 44.8956 Q1307.89 41.5391 1307.89 35.6653 M1289.77 24.3517 Q1291.45 21.4582 1294 20.0693 Q1296.57 18.6515 1300.13 18.6515 Q1306.03 18.6515 1309.71 23.339 Q1313.41 28.0265 1313.41 35.6653 Q1313.41 43.3042 1309.71 47.9916 Q1306.03 52.6791 1300.13 52.6791 Q1296.57 52.6791 1294 51.2902 Q1291.45 49.8724 1289.77 46.9789 L1289.77 51.84 L1284.42 51.84 L1284.42 6.81709 L1289.77 6.81709 L1289.77 24.3517 Z" fill="#000000" fill-rule="evenodd" fill-opacity="1" /><path clip-path="url(#clip290)" d="M1322.04 6.81709 L1327.39 6.81709 L1327.39 33.4084 L1343.27 19.4328 L1350.07 19.4328 L1332.89 34.5947 L1350.8 51.84 L1343.85 51.84 L1327.39 36.0125 L1327.39 51.84 L1322.04 51.84 L1322.04 6.81709 Z" fill="#000000" fill-rule="evenodd" fill-opacity="1" /><path clip-path="url(#clip290)" d="M1379.82 35.6653 Q1379.82 29.7915 1377.39 26.464 Q1374.99 23.1075 1370.76 23.1075 Q1366.54 23.1075 1364.11 26.464 Q1361.71 29.7915 1361.71 35.6653 Q1361.71 41.5391 1364.11 44.8956 Q1366.54 48.2231 1370.76 48.2231 Q1374.99 48.2231 1377.39 44.8956 Q1379.82 41.5391 1379.82 35.6653 M1361.71 24.3517 Q1363.38 21.4582 1365.93 20.0693 Q1368.51 18.6515 1372.06 18.6515 Q1377.97 18.6515 1381.64 23.339 Q1385.35 28.0265 1385.35 35.6653 Q1385.35 43.3042 1381.64 47.9916 Q1377.97 52.6791 1372.06 52.6791 Q1368.51 52.6791 1365.93 51.2902 Q1363.38 49.8724 1361.71 46.9789 L1361.71 51.84 L1356.35 51.84 L1356.35 6.81709 L1361.71 6.81709 L1361.71 24.3517 Z" fill="#000000" fill-rule="evenodd" fill-opacity="1" /><polyline clip-path="url(#clip292)" style="stroke:#e26f46; stroke-linecap:butt; stroke-linejoin:round; stroke-width:8; stroke-opacity:1; fill:none" points="
  329.36,765.872 369.427,765.872 409.495,765.872 449.562,765.872 489.629,765.872 529.696,765.872 569.764,765.872 609.831,765.872 649.898,765.872 689.965,765.872 
  730.033,765.872 770.1,765.872 810.167,765.872 850.234,765.872 890.302,765.872 930.369,765.872 970.436,765.872 1010.5,765.872 1050.57,765.872 1090.64,765.872 
  1130.7,765.872 1170.77,765.872 1210.84,765.872 1250.91,765.872 1290.97,765.872 1331.04,765.872 1371.11,765.872 1411.18,765.872 1451.24,765.872 1491.31,765.872 
  1531.38,765.872 1571.44,765.872 1611.51,765.872 1651.58,765.872 1691.65,765.872 1731.71,765.872 1771.78,765.872 1811.85,765.872 1851.92,765.872 1891.98,765.872 
  1932.05,765.872 1972.12,765.872 2012.18,765.872 2052.25,765.872 2092.32,765.872 2132.39,765.872 2172.45,765.872 2212.52,765.872 2252.59,765.872 2292.66,765.872 
  
  "/>
<polyline clip-path="url(#clip292)" style="stroke:#3da44d; stroke-linecap:butt; stroke-linejoin:round; stroke-width:8; stroke-opacity:1; fill:none" points="
  329.36,371.931 369.427,371.931 409.495,371.931 449.562,371.931 489.629,371.931 529.696,371.931 569.764,371.931 609.831,371.931 649.898,371.931 689.965,371.931 
  730.033,371.931 770.1,371.931 810.167,371.931 850.234,371.931 890.302,371.931 930.369,371.931 970.436,371.931 1010.5,371.931 1050.57,371.931 1090.64,371.931 
  1130.7,371.931 1170.77,371.931 1210.84,371.931 1250.91,371.931 1290.97,371.931 1331.04,371.931 1371.11,371.931 1411.18,371.931 1451.24,371.931 1491.31,371.931 
  1531.38,371.931 1571.44,371.931 1611.51,371.931 1651.58,371.931 1691.65,371.931 1731.71,371.931 1771.78,371.931 1811.85,371.931 1851.92,371.931 1891.98,371.931 
  1932.05,371.931 1972.12,371.931 2012.18,371.931 2052.25,371.931 2092.32,371.931 2132.39,371.931 2172.45,371.931 2212.52,371.931 2252.59,371.931 2292.66,371.931 
  
  "/>
<polyline clip-path="url(#clip292)" style="stroke:#c271d2; stroke-linecap:butt; stroke-linejoin:round; stroke-width:8; stroke-opacity:1; fill:none" points="
  329.36,1162.56 369.427,1162.56 409.495,1162.56 449.562,1162.56 489.629,1162.56 529.696,1162.56 569.764,1162.56 609.831,1162.56 649.898,1162.56 689.965,1162.56 
  730.033,1162.56 770.1,1162.56 810.167,1162.56 850.234,1162.56 890.302,1162.56 930.369,1162.56 970.436,1162.56 1010.5,1162.56 1050.57,1162.56 1090.64,1162.56 
  1130.7,1162.56 1170.77,1162.56 1210.84,1162.56 1250.91,1162.56 1290.97,1162.56 1331.04,1162.56 1371.11,1162.56 1411.18,1162.56 1451.24,1162.56 1491.31,1162.56 
  1531.38,1162.56 1571.44,1162.56 1611.51,1162.56 1651.58,1162.56 1691.65,1162.56 1731.71,1162.56 1771.78,1162.56 1811.85,1162.56 1851.92,1162.56 1891.98,1162.56 
  1932.05,1162.56 1972.12,1162.56 2012.18,1162.56 2052.25,1162.56 2092.32,1162.56 2132.39,1162.56 2172.45,1162.56 2212.52,1162.56 2252.59,1162.56 2292.66,1162.56 
  
  "/>
<polyline clip-path="url(#clip292)" style="stroke:#ac8d18; stroke-linecap:butt; stroke-linejoin:round; stroke-width:8; stroke-opacity:1; fill:none" points="
  329.36,144.077 369.427,144.077 409.495,144.077 449.562,144.077 489.629,144.077 529.696,144.077 569.764,144.077 609.831,144.077 649.898,144.077 689.965,144.077 
  730.033,144.077 770.1,144.077 810.167,144.077 850.234,144.077 890.302,144.077 930.369,144.077 970.436,144.077 1010.5,144.077 1050.57,144.077 1090.64,144.077 
  1130.7,144.077 1170.77,144.077 1210.84,144.077 1250.91,144.077 1290.97,144.077 1331.04,144.077 1371.11,144.077 1411.18,144.077 1451.24,144.077 1491.31,144.077 
  1531.38,144.077 1571.44,144.077 1611.51,144.077 1651.58,144.077 1691.65,144.077 1731.71,144.077 1771.78,144.077 1811.85,144.077 1851.92,144.077 1891.98,144.077 
  1932.05,144.077 1972.12,144.077 2012.18,144.077 2052.25,144.077 2092.32,144.077 2132.39,144.077 2172.45,144.077 2212.52,144.077 2252.59,144.077 2292.66,144.077 
  
  "/>
<polyline clip-path="url(#clip292)" style="stroke:#00a9ad; stroke-linecap:butt; stroke-linejoin:round; stroke-width:8; stroke-opacity:1; fill:none" points="
  329.36,355.46 369.427,355.46 409.495,355.46 449.562,355.46 489.629,355.46 529.696,355.46 569.764,355.46 609.831,355.46 649.898,355.46 689.965,355.46 
  730.033,355.46 770.1,355.46 810.167,355.46 850.234,355.46 890.302,355.46 930.369,355.46 970.436,355.46 1010.5,355.46 1050.57,355.46 1090.64,355.46 
  1130.7,355.46 1170.77,355.46 1210.84,355.46 1250.91,355.46 1290.97,355.46 1331.04,355.46 1371.11,355.46 1411.18,355.46 1451.24,355.46 1491.31,355.46 
  1531.38,355.46 1571.44,355.46 1611.51,355.46 1651.58,355.46 1691.65,355.46 1731.71,355.46 1771.78,355.46 1811.85,355.46 1851.92,355.46 1891.98,355.46 
  1932.05,355.46 1972.12,355.46 2012.18,355.46 2052.25,355.46 2092.32,355.46 2132.39,355.46 2172.45,355.46 2212.52,355.46 2252.59,355.46 2292.66,355.46 
  
  "/>
<polyline clip-path="url(#clip292)" style="stroke:#009af9; stroke-linecap:butt; stroke-linejoin:round; stroke-width:12; stroke-opacity:1; fill:none" points="
  329.36,1406.9 369.427,790.798 409.495,514.965 449.562,1288.62 489.629,740.075 529.696,475.395 569.764,769.556 609.831,352.039 649.898,336.05 689.965,234.977 
  730.033,341.205 770.1,784.466 810.167,333.311 850.234,286.519 890.302,303.666 930.369,351.092 970.436,237.602 1010.5,344.816 1050.57,391.527 1090.64,318.035 
  1130.7,337.259 1170.77,531.418 1210.84,349.602 1250.91,328.864 1290.97,210.403 1331.04,233.962 1371.11,264.99 1411.18,176.784 1451.24,222.585 1491.31,197.177 
  1531.38,272.393 1571.44,355.501 1611.51,338.215 1651.58,293.704 1691.65,318.048 1731.71,359.016 1771.78,360.966 1811.85,342.163 1851.92,275.589 1891.98,211.108 
  1932.05,214.132 1972.12,214.649 2012.18,256.232 2052.25,290.773 2092.32,288.89 2132.39,223.833 2172.45,232.524 2212.52,250.473 2252.59,255.781 2292.66,236.983 
  
  "/>
</svg>
