<?xml version="1.0" encoding="utf-8"?>
<svg xmlns="http://www.w3.org/2000/svg" xmlns:xlink="http://www.w3.org/1999/xlink" width="600" height="400" viewBox="0 0 2400 1600">
<defs>
  <clipPath id="clip040">
    <rect x="0" y="0" width="2400" height="1600"/>
  </clipPath>
</defs>
<path clip-path="url(#clip040)" d="
M0 1600 L2400 1600 L2400 0 L0 0  Z
  " fill="#ffffff" fill-rule="evenodd" fill-opacity="1"/>
<defs>
  <clipPath id="clip041">
    <rect x="480" y="0" width="1681" height="1600"/>
  </clipPath>
</defs>
<path clip-path="url(#clip040)" d="
M339.428 1422.18 L2352.76 1422.18 L2352.76 106.192 L339.428 106.192  Z
  " fill="#eaeaea" fill-rule="evenodd" fill-opacity="1"/>
<defs>
  <clipPath id="clip042">
    <rect x="339" y="106" width="2014" height="1317"/>
  </clipPath>
</defs>
<polyline clip-path="url(#clip042)" style="stroke:#ffffff; stroke-linecap:butt; stroke-linejoin:round; stroke-width:4; stroke-opacity:1; fill:none" points="
  396.409,1422.18 396.409,106.192 
  "/>
<polyline clip-path="url(#clip042)" style="stroke:#ffffff; stroke-linecap:butt; stroke-linejoin:round; stroke-width:4; stroke-opacity:1; fill:none" points="
  542.514,1422.18 542.514,106.192 
  "/>
<polyline clip-path="url(#clip042)" style="stroke:#ffffff; stroke-linecap:butt; stroke-linejoin:round; stroke-width:4; stroke-opacity:1; fill:none" points="
  688.619,1422.18 688.619,106.192 
  "/>
<polyline clip-path="url(#clip042)" style="stroke:#ffffff; stroke-linecap:butt; stroke-linejoin:round; stroke-width:4; stroke-opacity:1; fill:none" points="
  834.724,1422.18 834.724,106.192 
  "/>
<polyline clip-path="url(#clip042)" style="stroke:#ffffff; stroke-linecap:butt; stroke-linejoin:round; stroke-width:4; stroke-opacity:1; fill:none" points="
  980.829,1422.18 980.829,106.192 
  "/>
<polyline clip-path="url(#clip042)" style="stroke:#ffffff; stroke-linecap:butt; stroke-linejoin:round; stroke-width:4; stroke-opacity:1; fill:none" points="
  1126.93,1422.18 1126.93,106.192 
  "/>
<polyline clip-path="url(#clip042)" style="stroke:#ffffff; stroke-linecap:butt; stroke-linejoin:round; stroke-width:4; stroke-opacity:1; fill:none" points="
  1273.04,1422.18 1273.04,106.192 
  "/>
<polyline clip-path="url(#clip042)" style="stroke:#ffffff; stroke-linecap:butt; stroke-linejoin:round; stroke-width:4; stroke-opacity:1; fill:none" points="
  1419.14,1422.18 1419.14,106.192 
  "/>
<polyline clip-path="url(#clip042)" style="stroke:#ffffff; stroke-linecap:butt; stroke-linejoin:round; stroke-width:4; stroke-opacity:1; fill:none" points="
  1565.25,1422.18 1565.25,106.192 
  "/>
<polyline clip-path="url(#clip042)" style="stroke:#ffffff; stroke-linecap:butt; stroke-linejoin:round; stroke-width:4; stroke-opacity:1; fill:none" points="
  1711.35,1422.18 1711.35,106.192 
  "/>
<polyline clip-path="url(#clip042)" style="stroke:#ffffff; stroke-linecap:butt; stroke-linejoin:round; stroke-width:4; stroke-opacity:1; fill:none" points="
  1857.46,1422.18 1857.46,106.192 
  "/>
<polyline clip-path="url(#clip042)" style="stroke:#ffffff; stroke-linecap:butt; stroke-linejoin:round; stroke-width:4; stroke-opacity:1; fill:none" points="
  2003.56,1422.18 2003.56,106.192 
  "/>
<polyline clip-path="url(#clip042)" style="stroke:#ffffff; stroke-linecap:butt; stroke-linejoin:round; stroke-width:4; stroke-opacity:1; fill:none" points="
  2149.67,1422.18 2149.67,106.192 
  "/>
<polyline clip-path="url(#clip042)" style="stroke:#ffffff; stroke-linecap:butt; stroke-linejoin:round; stroke-width:4; stroke-opacity:1; fill:none" points="
  2295.77,1422.18 2295.77,106.192 
  "/>
<polyline clip-path="url(#clip042)" style="stroke:#ffffff; stroke-linecap:butt; stroke-linejoin:round; stroke-width:2; stroke-opacity:1; fill:none" points="
  469.462,1422.18 469.462,106.192 
  "/>
<polyline clip-path="url(#clip042)" style="stroke:#ffffff; stroke-linecap:butt; stroke-linejoin:round; stroke-width:2; stroke-opacity:1; fill:none" points="
  615.567,1422.18 615.567,106.192 
  "/>
<polyline clip-path="url(#clip042)" style="stroke:#ffffff; stroke-linecap:butt; stroke-linejoin:round; stroke-width:2; stroke-opacity:1; fill:none" points="
  761.672,1422.18 761.672,106.192 
  "/>
<polyline clip-path="url(#clip042)" style="stroke:#ffffff; stroke-linecap:butt; stroke-linejoin:round; stroke-width:2; stroke-opacity:1; fill:none" points="
  907.777,1422.18 907.777,106.192 
  "/>
<polyline clip-path="url(#clip042)" style="stroke:#ffffff; stroke-linecap:butt; stroke-linejoin:round; stroke-width:2; stroke-opacity:1; fill:none" points="
  1053.88,1422.18 1053.88,106.192 
  "/>
<polyline clip-path="url(#clip042)" style="stroke:#ffffff; stroke-linecap:butt; stroke-linejoin:round; stroke-width:2; stroke-opacity:1; fill:none" points="
  1199.99,1422.18 1199.99,106.192 
  "/>
<polyline clip-path="url(#clip042)" style="stroke:#ffffff; stroke-linecap:butt; stroke-linejoin:round; stroke-width:2; stroke-opacity:1; fill:none" points="
  1346.09,1422.18 1346.09,106.192 
  "/>
<polyline clip-path="url(#clip042)" style="stroke:#ffffff; stroke-linecap:butt; stroke-linejoin:round; stroke-width:2; stroke-opacity:1; fill:none" points="
  1492.2,1422.18 1492.2,106.192 
  "/>
<polyline clip-path="url(#clip042)" style="stroke:#ffffff; stroke-linecap:butt; stroke-linejoin:round; stroke-width:2; stroke-opacity:1; fill:none" points="
  1638.3,1422.18 1638.3,106.192 
  "/>
<polyline clip-path="url(#clip042)" style="stroke:#ffffff; stroke-linecap:butt; stroke-linejoin:round; stroke-width:2; stroke-opacity:1; fill:none" points="
  1784.41,1422.18 1784.41,106.192 
  "/>
<polyline clip-path="url(#clip042)" style="stroke:#ffffff; stroke-linecap:butt; stroke-linejoin:round; stroke-width:2; stroke-opacity:1; fill:none" points="
  1930.51,1422.18 1930.51,106.192 
  "/>
<polyline clip-path="url(#clip042)" style="stroke:#ffffff; stroke-linecap:butt; stroke-linejoin:round; stroke-width:2; stroke-opacity:1; fill:none" points="
  2076.62,1422.18 2076.62,106.192 
  "/>
<polyline clip-path="url(#clip042)" style="stroke:#ffffff; stroke-linecap:butt; stroke-linejoin:round; stroke-width:2; stroke-opacity:1; fill:none" points="
  2222.72,1422.18 2222.72,106.192 
  "/>
<polyline clip-path="url(#clip040)" style="stroke:#ffffff; stroke-linecap:butt; stroke-linejoin:round; stroke-width:4; stroke-opacity:1; fill:none" points="
  339.428,1422.18 2352.76,1422.18 
  "/>
<polyline clip-path="url(#clip040)" style="stroke:#333333; stroke-linecap:butt; stroke-linejoin:round; stroke-width:4; stroke-opacity:1; fill:none" points="
  396.409,1422.18 396.409,1441.07 
  "/>
<polyline clip-path="url(#clip040)" style="stroke:#333333; stroke-linecap:butt; stroke-linejoin:round; stroke-width:4; stroke-opacity:1; fill:none" points="
  542.514,1422.18 542.514,1441.07 
  "/>
<polyline clip-path="url(#clip040)" style="stroke:#333333; stroke-linecap:butt; stroke-linejoin:round; stroke-width:4; stroke-opacity:1; fill:none" points="
  688.619,1422.18 688.619,1441.07 
  "/>
<polyline clip-path="url(#clip040)" style="stroke:#333333; stroke-linecap:butt; stroke-linejoin:round; stroke-width:4; stroke-opacity:1; fill:none" points="
  834.724,1422.18 834.724,1441.07 
  "/>
<polyline clip-path="url(#clip040)" style="stroke:#333333; stroke-linecap:butt; stroke-linejoin:round; stroke-width:4; stroke-opacity:1; fill:none" points="
  980.829,1422.18 980.829,1441.07 
  "/>
<polyline clip-path="url(#clip040)" style="stroke:#333333; stroke-linecap:butt; stroke-linejoin:round; stroke-width:4; stroke-opacity:1; fill:none" points="
  1126.93,1422.18 1126.93,1441.07 
  "/>
<polyline clip-path="url(#clip040)" style="stroke:#333333; stroke-linecap:butt; stroke-linejoin:round; stroke-width:4; stroke-opacity:1; fill:none" points="
  1273.04,1422.18 1273.04,1441.07 
  "/>
<polyline clip-path="url(#clip040)" style="stroke:#333333; stroke-linecap:butt; stroke-linejoin:round; stroke-width:4; stroke-opacity:1; fill:none" points="
  1419.14,1422.18 1419.14,1441.07 
  "/>
<polyline clip-path="url(#clip040)" style="stroke:#333333; stroke-linecap:butt; stroke-linejoin:round; stroke-width:4; stroke-opacity:1; fill:none" points="
  1565.25,1422.18 1565.25,1441.07 
  "/>
<polyline clip-path="url(#clip040)" style="stroke:#333333; stroke-linecap:butt; stroke-linejoin:round; stroke-width:4; stroke-opacity:1; fill:none" points="
  1711.35,1422.18 1711.35,1441.07 
  "/>
<polyline clip-path="url(#clip040)" style="stroke:#333333; stroke-linecap:butt; stroke-linejoin:round; stroke-width:4; stroke-opacity:1; fill:none" points="
  1857.46,1422.18 1857.46,1441.07 
  "/>
<polyline clip-path="url(#clip040)" style="stroke:#333333; stroke-linecap:butt; stroke-linejoin:round; stroke-width:4; stroke-opacity:1; fill:none" points="
  2003.56,1422.18 2003.56,1441.07 
  "/>
<polyline clip-path="url(#clip040)" style="stroke:#333333; stroke-linecap:butt; stroke-linejoin:round; stroke-width:4; stroke-opacity:1; fill:none" points="
  2149.67,1422.18 2149.67,1441.07 
  "/>
<polyline clip-path="url(#clip040)" style="stroke:#333333; stroke-linecap:butt; stroke-linejoin:round; stroke-width:4; stroke-opacity:1; fill:none" points="
  2295.77,1422.18 2295.77,1441.07 
  "/>
<polyline clip-path="url(#clip040)" style="stroke:#333333; stroke-linecap:butt; stroke-linejoin:round; stroke-width:4; stroke-opacity:1; fill:none" points="
  469.462,1422.18 469.462,1431.63 
  "/>
<polyline clip-path="url(#clip040)" style="stroke:#333333; stroke-linecap:butt; stroke-linejoin:round; stroke-width:4; stroke-opacity:1; fill:none" points="
  615.567,1422.18 615.567,1431.63 
  "/>
<polyline clip-path="url(#clip040)" style="stroke:#333333; stroke-linecap:butt; stroke-linejoin:round; stroke-width:4; stroke-opacity:1; fill:none" points="
  761.672,1422.18 761.672,1431.63 
  "/>
<polyline clip-path="url(#clip040)" style="stroke:#333333; stroke-linecap:butt; stroke-linejoin:round; stroke-width:4; stroke-opacity:1; fill:none" points="
  907.777,1422.18 907.777,1431.63 
  "/>
<polyline clip-path="url(#clip040)" style="stroke:#333333; stroke-linecap:butt; stroke-linejoin:round; stroke-width:4; stroke-opacity:1; fill:none" points="
  1053.88,1422.18 1053.88,1431.63 
  "/>
<polyline clip-path="url(#clip040)" style="stroke:#333333; stroke-linecap:butt; stroke-linejoin:round; stroke-width:4; stroke-opacity:1; fill:none" points="
  1199.99,1422.18 1199.99,1431.63 
  "/>
<polyline clip-path="url(#clip040)" style="stroke:#333333; stroke-linecap:butt; stroke-linejoin:round; stroke-width:4; stroke-opacity:1; fill:none" points="
  1346.09,1422.18 1346.09,1431.63 
  "/>
<polyline clip-path="url(#clip040)" style="stroke:#333333; stroke-linecap:butt; stroke-linejoin:round; stroke-width:4; stroke-opacity:1; fill:none" points="
  1492.2,1422.18 1492.2,1431.63 
  "/>
<polyline clip-path="url(#clip040)" style="stroke:#333333; stroke-linecap:butt; stroke-linejoin:round; stroke-width:4; stroke-opacity:1; fill:none" points="
  1638.3,1422.18 1638.3,1431.63 
  "/>
<polyline clip-path="url(#clip040)" style="stroke:#333333; stroke-linecap:butt; stroke-linejoin:round; stroke-width:4; stroke-opacity:1; fill:none" points="
  1784.41,1422.18 1784.41,1431.63 
  "/>
<polyline clip-path="url(#clip040)" style="stroke:#333333; stroke-linecap:butt; stroke-linejoin:round; stroke-width:4; stroke-opacity:1; fill:none" points="
  1930.51,1422.18 1930.51,1431.63 
  "/>
<polyline clip-path="url(#clip040)" style="stroke:#333333; stroke-linecap:butt; stroke-linejoin:round; stroke-width:4; stroke-opacity:1; fill:none" points="
  2076.62,1422.18 2076.62,1431.63 
  "/>
<polyline clip-path="url(#clip040)" style="stroke:#333333; stroke-linecap:butt; stroke-linejoin:round; stroke-width:4; stroke-opacity:1; fill:none" points="
  2222.72,1422.18 2222.72,1431.63 
  "/>
<path clip-path="url(#clip040)" d="M410.112 1463.13 Q408.758 1460.78 405.757 1460.93 Q402.78 1461.09 398.149 1463.76 Q393.533 1466.43 391.895 1468.94 Q390.28 1471.45 391.634 1473.8 Q392.997 1476.16 395.975 1476 Q398.976 1475.85 403.591 1473.19 Q408.222 1470.52 409.837 1468 Q411.475 1465.49 410.112 1463.13 M412.518 1461.74 Q414.697 1465.51 412.851 1469.23 Q411.028 1472.94 405.345 1476.23 Q399.677 1479.5 395.53 1479.23 Q391.407 1478.96 389.229 1475.19 Q387.05 1471.41 388.872 1467.69 Q390.718 1463.98 396.387 1460.71 Q402.07 1457.43 406.193 1457.69 Q410.339 1457.97 412.518 1461.74 Z" fill="#4c4c4c" fill-rule="evenodd" fill-opacity="1" /><path clip-path="url(#clip040)" d="M534.098 1466.14 L536.963 1471.1 L554.088 1461.21 L549.889 1456.44 L552.655 1454.84 L556.837 1459.58 L558.59 1462.62 L538.699 1474.11 L541.564 1479.07 L539.008 1480.54 L531.542 1467.61 L534.098 1466.14 Z" fill="#4c4c4c" fill-rule="evenodd" fill-opacity="1" /><path clip-path="url(#clip040)" d="M566.747 1481.37 Q565.393 1479.02 562.392 1479.17 Q559.414 1479.33 554.783 1482 Q550.168 1484.66 548.529 1487.17 Q546.915 1489.69 548.269 1492.04 Q549.632 1494.4 552.609 1494.24 Q555.61 1494.09 560.226 1491.43 Q564.857 1488.75 566.471 1486.24 Q568.11 1483.73 566.747 1481.37 M569.153 1479.98 Q571.331 1483.75 569.485 1487.46 Q567.663 1491.18 561.979 1494.46 Q556.311 1497.74 552.165 1497.46 Q548.042 1497.2 545.863 1493.42 Q543.684 1489.65 545.507 1485.93 Q547.353 1482.22 553.021 1478.95 Q558.704 1475.67 562.827 1475.93 Q566.974 1476.2 569.153 1479.98 Z" fill="#4c4c4c" fill-rule="evenodd" fill-opacity="1" /><path clip-path="url(#clip040)" d="M682.061 1469.35 L688.181 1479.95 L685.625 1481.43 L677.396 1467.18 L679.952 1465.7 Q682.739 1466.4 687.465 1467.64 Q692.214 1468.89 693.529 1469.15 Q696.01 1469.66 697.467 1469.58 Q698.949 1469.51 700.046 1468.87 Q701.835 1467.84 702.234 1465.93 Q702.641 1464.03 701.478 1462.01 Q700.653 1460.59 699.237 1459.28 Q697.829 1457.99 695.78 1456.76 L698.847 1454.99 Q700.643 1456.4 701.939 1457.78 Q703.235 1459.15 703.999 1460.48 Q706.013 1463.97 705.467 1467.05 Q704.921 1470.13 702.004 1471.81 Q700.62 1472.61 699.069 1472.81 Q697.541 1473.01 695.067 1472.61 Q694.414 1472.49 691.161 1471.68 Q687.923 1470.86 682.061 1469.35 Z" fill="#4c4c4c" fill-rule="evenodd" fill-opacity="1" /><path clip-path="url(#clip040)" d="M713.503 1482.49 Q712.149 1480.15 709.148 1480.3 Q706.17 1480.45 701.539 1483.13 Q696.924 1485.79 695.285 1488.3 Q693.671 1490.82 695.025 1493.16 Q696.388 1495.52 699.365 1495.37 Q702.366 1495.22 706.982 1492.55 Q711.613 1489.88 713.228 1487.36 Q714.866 1484.86 713.503 1482.49 M715.909 1481.11 Q718.087 1484.88 716.241 1488.59 Q714.419 1492.31 708.736 1495.59 Q703.067 1498.86 698.921 1498.59 Q694.798 1498.33 692.619 1494.55 Q690.44 1490.78 692.263 1487.06 Q694.109 1483.35 699.777 1480.08 Q705.461 1476.79 709.583 1477.06 Q713.73 1477.33 715.909 1481.11 Z" fill="#4c4c4c" fill-rule="evenodd" fill-opacity="1" /><path clip-path="url(#clip040)" d="M841.463 1470.34 Q842.256 1472.79 841.486 1474.86 Q840.724 1476.94 838.559 1478.19 Q835.236 1480.11 832.097 1478.87 Q828.959 1477.64 826.528 1473.43 Q825.712 1472.01 825.13 1470.35 Q824.541 1468.7 824.177 1466.79 L827.109 1465.09 Q827.102 1466.78 827.594 1468.5 Q828.086 1470.22 829.032 1471.86 Q830.681 1474.72 832.668 1475.56 Q834.664 1476.41 836.814 1475.17 Q838.799 1474.02 839.104 1471.98 Q839.433 1469.95 838.001 1467.47 L836.49 1464.85 L838.986 1463.41 L840.566 1466.14 Q841.859 1468.38 843.432 1469.06 Q845.02 1469.73 846.704 1468.76 Q848.433 1467.76 848.638 1465.99 Q848.867 1464.24 847.548 1461.95 Q846.828 1460.71 845.732 1459.43 Q844.637 1458.16 843.076 1456.78 L845.782 1455.21 Q847.262 1456.67 848.37 1458.03 Q849.488 1459.41 850.26 1460.75 Q852.257 1464.21 851.841 1467.13 Q851.441 1470.05 848.765 1471.6 Q846.9 1472.67 844.991 1472.35 Q843.097 1472.02 841.463 1470.34 Z" fill="#4c4c4c" fill-rule="evenodd" fill-opacity="1" /><path clip-path="url(#clip040)" d="M859.556 1482.4 Q858.202 1480.06 855.201 1480.21 Q852.223 1480.36 847.592 1483.04 Q842.977 1485.7 841.338 1488.21 Q839.724 1490.73 841.078 1493.07 Q842.441 1495.43 845.418 1495.28 Q848.419 1495.13 853.035 1492.46 Q857.666 1489.79 859.28 1487.27 Q860.919 1484.76 859.556 1482.4 M861.962 1481.02 Q864.14 1484.79 862.294 1488.5 Q860.472 1492.22 854.789 1495.5 Q849.12 1498.77 844.974 1498.5 Q840.851 1498.24 838.672 1494.46 Q836.493 1490.69 838.316 1486.97 Q840.162 1483.26 845.83 1479.98 Q851.514 1476.7 855.636 1476.97 Q859.783 1477.24 861.962 1481.02 Z" fill="#4c4c4c" fill-rule="evenodd" fill-opacity="1" /><path clip-path="url(#clip040)" d="M995.258 1465.88 L978.848 1465.13 L983.275 1472.8 L995.258 1465.88 M997.444 1463.55 L999.649 1467.37 L985.019 1475.82 L986.868 1479.02 L984.342 1480.48 L982.494 1477.28 L977.201 1480.33 L975.456 1477.31 L980.749 1474.25 L974.898 1464.12 L977.83 1462.43 L997.444 1463.55 Z" fill="#4c4c4c" fill-rule="evenodd" fill-opacity="1" /><path clip-path="url(#clip040)" d="M1006.15 1483.25 Q1004.79 1480.9 1001.79 1481.05 Q998.814 1481.21 994.184 1483.88 Q989.568 1486.54 987.929 1489.05 Q986.315 1491.57 987.669 1493.91 Q989.032 1496.28 992.009 1496.12 Q995.01 1495.97 999.626 1493.31 Q1004.26 1490.63 1005.87 1488.12 Q1007.51 1485.61 1006.15 1483.25 M1008.55 1481.86 Q1010.73 1485.63 1008.89 1489.34 Q1007.06 1493.06 1001.38 1496.34 Q995.711 1499.62 991.565 1499.34 Q987.442 1499.08 985.263 1495.3 Q983.085 1491.53 984.907 1487.81 Q986.753 1484.1 992.421 1480.83 Q998.105 1477.55 1002.23 1477.81 Q1006.37 1478.08 1008.55 1481.86 Z" fill="#4c4c4c" fill-rule="evenodd" fill-opacity="1" /><path clip-path="url(#clip040)" d="M1138.71 1455.16 L1145.59 1467.09 L1143.03 1468.56 L1137.75 1459.42 L1132.25 1462.6 Q1132.86 1463.13 1133.35 1463.73 Q1133.85 1464.32 1134.23 1464.98 Q1136.4 1468.74 1135.61 1472.13 Q1134.82 1475.51 1131.3 1477.54 Q1127.67 1479.63 1124.36 1478.54 Q1121.06 1477.44 1118.69 1473.34 Q1117.87 1471.92 1117.26 1470.31 Q1116.66 1468.71 1116.24 1466.87 L1119.29 1465.11 Q1119.33 1466.89 1119.81 1468.54 Q1120.28 1470.19 1121.21 1471.8 Q1122.71 1474.4 1124.95 1475.13 Q1127.2 1475.86 1129.54 1474.51 Q1131.89 1473.15 1132.38 1470.84 Q1132.87 1468.53 1131.37 1465.93 Q1130.67 1464.72 1129.69 1463.65 Q1128.73 1462.61 1127.43 1461.67 L1138.71 1455.16 Z" fill="#4c4c4c" fill-rule="evenodd" fill-opacity="1" /><path clip-path="url(#clip040)" d="M1151.75 1482.37 Q1150.39 1480.03 1147.39 1480.18 Q1144.42 1480.33 1139.79 1483.01 Q1135.17 1485.67 1133.53 1488.18 Q1131.92 1490.7 1133.27 1493.04 Q1134.63 1495.4 1137.61 1495.25 Q1140.61 1495.1 1145.23 1492.43 Q1149.86 1489.76 1151.47 1487.24 Q1153.11 1484.73 1151.75 1482.37 M1154.15 1480.99 Q1156.33 1484.76 1154.49 1488.47 Q1152.66 1492.19 1146.98 1495.47 Q1141.31 1498.74 1137.17 1498.47 Q1133.04 1498.21 1130.86 1494.43 Q1128.69 1490.66 1130.51 1486.94 Q1132.35 1483.23 1138.02 1479.95 Q1143.71 1476.67 1147.83 1476.94 Q1151.98 1477.21 1154.15 1480.99 Z" fill="#4c4c4c" fill-rule="evenodd" fill-opacity="1" /><path clip-path="url(#clip040)" d="M1278.88 1468.01 Q1277.7 1465.97 1275.6 1465.57 Q1273.52 1465.19 1271.08 1466.6 Q1268.66 1467.99 1267.94 1470 Q1267.23 1472.01 1268.41 1474.05 Q1269.59 1476.1 1271.68 1476.48 Q1273.78 1476.87 1276.21 1475.47 Q1278.64 1474.06 1279.34 1472.05 Q1280.06 1470.06 1278.88 1468.01 M1291.87 1468.55 L1289.11 1470.14 Q1288.99 1468.69 1288.6 1467.35 Q1288.22 1466.03 1287.56 1464.89 Q1285.82 1461.88 1282.87 1461.46 Q1279.93 1461.05 1275.69 1463.19 Q1277.51 1463.33 1278.98 1464.26 Q1280.46 1465.19 1281.39 1466.8 Q1283.34 1470.19 1282.41 1473.33 Q1281.5 1476.48 1277.97 1478.52 Q1274.51 1480.52 1271.24 1479.68 Q1267.97 1478.84 1266.01 1475.44 Q1263.76 1471.55 1265.55 1467.77 Q1267.35 1463.98 1273.02 1460.71 Q1278.34 1457.64 1282.96 1458.34 Q1287.59 1459.03 1290.04 1463.29 Q1290.7 1464.43 1291.15 1465.72 Q1291.6 1467.02 1291.87 1468.55 Z" fill="#4c4c4c" fill-rule="evenodd" fill-opacity="1" /><path clip-path="url(#clip040)" d="M1297.98 1482.6 Q1296.63 1480.25 1293.63 1480.4 Q1290.65 1480.56 1286.02 1483.23 Q1281.4 1485.9 1279.77 1488.41 Q1278.15 1490.92 1279.51 1493.27 Q1280.87 1495.63 1283.85 1495.47 Q1286.85 1495.32 1291.46 1492.66 Q1296.09 1489.99 1297.71 1487.47 Q1299.35 1484.96 1297.98 1482.6 M1300.39 1481.21 Q1302.57 1484.98 1300.72 1488.7 Q1298.9 1492.42 1293.22 1495.7 Q1287.55 1498.97 1283.4 1498.7 Q1279.28 1498.43 1277.1 1494.66 Q1274.92 1490.88 1276.74 1487.16 Q1278.59 1483.45 1284.26 1480.18 Q1289.94 1476.9 1294.06 1477.16 Q1298.21 1477.44 1300.39 1481.21 Z" fill="#4c4c4c" fill-rule="evenodd" fill-opacity="1" /><path clip-path="url(#clip040)" d="M1430.37 1454.22 L1438.7 1468.65 L1437.41 1469.4 L1411.55 1473.46 L1409.72 1470.29 L1434.04 1466.47 L1427.81 1455.69 L1430.37 1454.22 Z" fill="#4c4c4c" fill-rule="evenodd" fill-opacity="1" /><path clip-path="url(#clip040)" d="M1443.87 1482.22 Q1442.52 1479.88 1439.52 1480.03 Q1436.54 1480.18 1431.91 1482.86 Q1427.29 1485.52 1425.65 1488.03 Q1424.04 1490.55 1425.39 1492.89 Q1426.76 1495.25 1429.73 1495.1 Q1432.74 1494.95 1437.35 1492.28 Q1441.98 1489.61 1443.6 1487.09 Q1445.23 1484.58 1443.87 1482.22 M1446.28 1480.84 Q1448.46 1484.61 1446.61 1488.32 Q1444.79 1492.04 1439.1 1495.32 Q1433.44 1498.59 1429.29 1498.32 Q1425.17 1498.06 1422.99 1494.28 Q1420.81 1490.51 1422.63 1486.79 Q1424.48 1483.08 1430.15 1479.8 Q1435.83 1476.52 1439.95 1476.79 Q1444.1 1477.06 1446.28 1480.84 Z" fill="#4c4c4c" fill-rule="evenodd" fill-opacity="1" /><path clip-path="url(#clip040)" d="M1569.13 1468.72 Q1567.88 1466.56 1566 1465.98 Q1564.13 1465.41 1562.1 1466.58 Q1560.07 1467.76 1559.63 1469.66 Q1559.19 1471.57 1560.44 1473.74 Q1561.69 1475.9 1563.57 1476.48 Q1565.46 1477.05 1567.48 1475.89 Q1569.51 1474.72 1569.94 1472.8 Q1570.39 1470.9 1569.13 1468.72 M1568.67 1464.94 Q1568.02 1462.7 1568.73 1460.83 Q1569.44 1458.98 1571.36 1457.87 Q1574.06 1456.31 1576.72 1457.32 Q1579.4 1458.34 1581.32 1461.68 Q1583.26 1465.03 1582.8 1467.85 Q1582.34 1470.66 1579.65 1472.21 Q1577.72 1473.32 1575.75 1473 Q1573.79 1472.69 1572.19 1471.03 Q1572.94 1473.52 1572.16 1475.59 Q1571.38 1477.69 1569.23 1478.93 Q1565.97 1480.81 1563.07 1479.82 Q1560.18 1478.84 1558.03 1475.13 Q1555.89 1471.41 1556.48 1468.41 Q1557.08 1465.41 1560.34 1463.53 Q1562.49 1462.29 1564.69 1462.66 Q1566.89 1463.04 1568.67 1464.94 M1572.82 1461.06 Q1571.08 1462.06 1570.73 1463.71 Q1570.38 1465.37 1571.52 1467.34 Q1572.65 1469.29 1574.26 1469.83 Q1575.88 1470.38 1577.62 1469.37 Q1579.37 1468.36 1579.7 1466.69 Q1580.05 1465.02 1578.92 1463.07 Q1577.78 1461.1 1576.17 1460.57 Q1574.57 1460.05 1572.82 1461.06 Z" fill="#4c4c4c" fill-rule="evenodd" fill-opacity="1" /><path clip-path="url(#clip040)" d="M1590.23 1482.66 Q1588.87 1480.31 1585.87 1480.46 Q1582.9 1480.62 1578.27 1483.29 Q1573.65 1485.96 1572.01 1488.47 Q1570.4 1490.98 1571.75 1493.33 Q1573.11 1495.69 1576.09 1495.53 Q1579.09 1495.38 1583.71 1492.72 Q1588.34 1490.05 1589.95 1487.53 Q1591.59 1485.02 1590.23 1482.66 M1592.63 1481.27 Q1594.81 1485.04 1592.97 1488.76 Q1591.14 1492.48 1585.46 1495.76 Q1579.79 1499.03 1575.65 1498.76 Q1571.52 1498.49 1569.35 1494.72 Q1567.17 1490.94 1568.99 1487.23 Q1570.83 1483.51 1576.5 1480.24 Q1582.19 1476.96 1586.31 1477.23 Q1590.46 1477.5 1592.63 1481.27 Z" fill="#4c4c4c" fill-rule="evenodd" fill-opacity="1" /><path clip-path="url(#clip040)" d="M1701.43 1468.35 L1704.2 1466.75 Q1704.32 1468.21 1704.71 1469.55 Q1705.1 1470.88 1705.75 1472.01 Q1707.49 1475.02 1710.41 1475.43 Q1713.36 1475.86 1717.61 1473.7 Q1715.81 1473.58 1714.35 1472.64 Q1712.89 1471.7 1711.95 1470.08 Q1710 1466.71 1710.9 1463.57 Q1711.81 1460.43 1715.35 1458.39 Q1718.8 1456.4 1722.08 1457.23 Q1725.35 1458.07 1727.31 1461.47 Q1729.56 1465.36 1727.74 1469.14 Q1725.96 1472.91 1720.27 1476.2 Q1714.97 1479.26 1710.33 1478.57 Q1705.73 1477.88 1703.27 1473.62 Q1702.61 1472.48 1702.16 1471.18 Q1701.71 1469.87 1701.43 1468.35 M1714.44 1468.9 Q1715.62 1470.95 1717.7 1471.33 Q1719.79 1471.72 1722.23 1470.32 Q1724.65 1468.92 1725.35 1466.91 Q1726.08 1464.9 1724.9 1462.86 Q1723.72 1460.81 1721.61 1460.43 Q1719.53 1460.05 1717.11 1461.44 Q1714.67 1462.85 1713.96 1464.85 Q1713.26 1466.86 1714.44 1468.9 Z" fill="#4c4c4c" fill-rule="evenodd" fill-opacity="1" /><path clip-path="url(#clip040)" d="M1736.42 1482.81 Q1735.07 1480.46 1732.07 1480.61 Q1729.09 1480.77 1724.46 1483.44 Q1719.84 1486.11 1718.2 1488.62 Q1716.59 1491.13 1717.94 1493.48 Q1719.31 1495.84 1722.28 1495.68 Q1725.28 1495.53 1729.9 1492.87 Q1734.53 1490.2 1736.15 1487.68 Q1737.78 1485.17 1736.42 1482.81 M1738.83 1481.42 Q1741.01 1485.2 1739.16 1488.91 Q1737.34 1492.63 1731.65 1495.91 Q1725.99 1499.18 1721.84 1498.91 Q1717.72 1498.64 1715.54 1494.87 Q1713.36 1491.09 1715.18 1487.38 Q1717.03 1483.66 1722.69 1480.39 Q1728.38 1477.11 1732.5 1477.38 Q1736.65 1477.65 1738.83 1481.42 Z" fill="#4c4c4c" fill-rule="evenodd" fill-opacity="1" /><path clip-path="url(#clip040)" d="M1849.04 1466.14 L1851.91 1471.1 L1869.03 1461.21 L1864.83 1456.44 L1867.6 1454.84 L1871.78 1459.58 L1873.54 1462.62 L1853.64 1474.11 L1856.51 1479.07 L1853.95 1480.54 L1846.49 1467.61 L1849.04 1466.14 Z" fill="#4c4c4c" fill-rule="evenodd" fill-opacity="1" /><path clip-path="url(#clip040)" d="M1881.69 1481.37 Q1880.34 1479.02 1877.34 1479.17 Q1874.36 1479.33 1869.73 1482 Q1865.11 1484.66 1863.47 1487.17 Q1861.86 1489.69 1863.21 1492.04 Q1864.58 1494.4 1867.55 1494.24 Q1870.56 1494.09 1875.17 1491.43 Q1879.8 1488.75 1881.42 1486.24 Q1883.06 1483.73 1881.69 1481.37 M1884.1 1479.98 Q1886.28 1483.75 1884.43 1487.46 Q1882.61 1491.18 1876.92 1494.46 Q1871.26 1497.74 1867.11 1497.46 Q1862.99 1497.2 1860.81 1493.42 Q1858.63 1489.65 1860.45 1485.93 Q1862.3 1482.22 1867.97 1478.95 Q1873.65 1475.67 1877.77 1475.93 Q1881.92 1476.2 1884.1 1479.98 Z" fill="#4c4c4c" fill-rule="evenodd" fill-opacity="1" /><path clip-path="url(#clip040)" d="M1893 1500.96 Q1891.65 1498.61 1888.65 1498.76 Q1885.67 1498.92 1881.04 1501.59 Q1876.42 1504.26 1874.79 1506.76 Q1873.17 1509.28 1874.52 1511.63 Q1875.89 1513.99 1878.87 1513.83 Q1881.87 1513.68 1886.48 1511.02 Q1891.11 1508.34 1892.73 1505.83 Q1894.37 1503.32 1893 1500.96 M1895.41 1499.57 Q1897.59 1503.34 1895.74 1507.05 Q1893.92 1510.77 1888.24 1514.05 Q1882.57 1517.33 1878.42 1517.05 Q1874.3 1516.79 1872.12 1513.01 Q1869.94 1509.24 1871.76 1505.52 Q1873.61 1501.81 1879.28 1498.54 Q1884.96 1495.26 1889.08 1495.52 Q1893.23 1495.8 1895.41 1499.57 Z" fill="#4c4c4c" fill-rule="evenodd" fill-opacity="1" /><path clip-path="url(#clip040)" d="M1995.15 1466.14 L1998.01 1471.1 L2015.14 1461.21 L2010.94 1456.44 L2013.71 1454.84 L2017.89 1459.58 L2019.64 1462.62 L1999.75 1474.11 L2002.61 1479.07 L2000.06 1480.54 L1992.59 1467.61 L1995.15 1466.14 Z" fill="#4c4c4c" fill-rule="evenodd" fill-opacity="1" /><path clip-path="url(#clip040)" d="M2006.46 1485.73 L2009.32 1490.69 L2026.45 1480.8 L2022.25 1476.03 L2025.02 1474.43 L2029.2 1479.18 L2030.95 1482.21 L2011.06 1493.7 L2013.92 1498.66 L2011.37 1500.13 L2003.9 1487.2 L2006.46 1485.73 Z" fill="#4c4c4c" fill-rule="evenodd" fill-opacity="1" /><path clip-path="url(#clip040)" d="M2039.11 1500.96 Q2037.75 1498.61 2034.75 1498.76 Q2031.78 1498.92 2027.14 1501.59 Q2022.53 1504.26 2020.89 1506.76 Q2019.28 1509.28 2020.63 1511.63 Q2021.99 1513.99 2024.97 1513.83 Q2027.97 1513.68 2032.59 1511.02 Q2037.22 1508.34 2038.83 1505.83 Q2040.47 1503.32 2039.11 1500.96 M2041.51 1499.57 Q2043.69 1503.34 2041.85 1507.05 Q2040.02 1510.77 2034.34 1514.05 Q2028.67 1517.33 2024.53 1517.05 Q2020.4 1516.79 2018.22 1513.01 Q2016.05 1509.24 2017.87 1505.52 Q2019.71 1501.81 2025.38 1498.54 Q2031.07 1495.26 2035.19 1495.52 Q2039.33 1495.8 2041.51 1499.57 Z" fill="#4c4c4c" fill-rule="evenodd" fill-opacity="1" /><path clip-path="url(#clip040)" d="M2141.25 1466.14 L2144.12 1471.1 L2161.24 1461.21 L2157.04 1456.44 L2159.81 1454.84 L2163.99 1459.58 L2165.75 1462.62 L2145.85 1474.11 L2148.72 1479.07 L2146.16 1480.54 L2138.7 1467.61 L2141.25 1466.14 Z" fill="#4c4c4c" fill-rule="evenodd" fill-opacity="1" /><path clip-path="url(#clip040)" d="M2153.77 1487.82 L2159.89 1498.42 L2157.33 1499.89 L2149.11 1485.64 L2151.66 1484.16 Q2154.45 1484.86 2159.18 1486.1 Q2163.92 1487.35 2165.24 1487.61 Q2167.72 1488.12 2169.18 1488.04 Q2170.66 1487.97 2171.76 1487.34 Q2173.55 1486.3 2173.94 1484.39 Q2174.35 1482.49 2173.19 1480.48 Q2172.36 1479.05 2170.95 1477.74 Q2169.54 1476.45 2167.49 1475.23 L2170.56 1473.46 Q2172.35 1474.86 2173.65 1476.24 Q2174.95 1477.62 2175.71 1478.94 Q2177.72 1482.43 2177.18 1485.51 Q2176.63 1488.59 2173.71 1490.28 Q2172.33 1491.08 2170.78 1491.27 Q2169.25 1491.47 2166.78 1491.07 Q2166.12 1490.95 2162.87 1490.14 Q2159.63 1489.32 2153.77 1487.82 Z" fill="#4c4c4c" fill-rule="evenodd" fill-opacity="1" /><path clip-path="url(#clip040)" d="M2185.21 1500.96 Q2183.86 1498.61 2180.86 1498.76 Q2177.88 1498.92 2173.25 1501.59 Q2168.63 1504.26 2167 1506.76 Q2165.38 1509.28 2166.74 1511.63 Q2168.1 1513.99 2171.08 1513.83 Q2174.08 1513.68 2178.69 1511.02 Q2183.32 1508.34 2184.94 1505.83 Q2186.58 1503.32 2185.21 1500.96 M2187.62 1499.57 Q2189.8 1503.34 2187.95 1507.05 Q2186.13 1510.77 2180.45 1514.05 Q2174.78 1517.33 2170.63 1517.05 Q2166.51 1516.79 2164.33 1513.01 Q2162.15 1509.24 2163.97 1505.52 Q2165.82 1501.81 2171.49 1498.54 Q2177.17 1495.26 2181.29 1495.52 Q2185.44 1495.8 2187.62 1499.57 Z" fill="#4c4c4c" fill-rule="evenodd" fill-opacity="1" /><path clip-path="url(#clip040)" d="M2287.36 1466.14 L2290.22 1471.1 L2307.35 1461.21 L2303.15 1456.44 L2305.92 1454.84 L2310.1 1459.58 L2311.85 1462.62 L2291.96 1474.11 L2294.82 1479.07 L2292.27 1480.54 L2284.8 1467.61 L2287.36 1466.14 Z" fill="#4c4c4c" fill-rule="evenodd" fill-opacity="1" /><path clip-path="url(#clip040)" d="M2313.23 1488.89 Q2314.02 1491.34 2313.25 1493.41 Q2312.49 1495.49 2310.32 1496.74 Q2307 1498.66 2303.86 1497.43 Q2300.72 1496.19 2298.29 1491.98 Q2297.47 1490.57 2296.89 1488.9 Q2296.3 1487.25 2295.94 1485.34 L2298.87 1483.65 Q2298.86 1485.34 2299.36 1487.06 Q2299.85 1488.78 2300.79 1490.41 Q2302.44 1493.27 2304.43 1494.11 Q2306.43 1494.96 2308.58 1493.72 Q2310.56 1492.57 2310.87 1490.53 Q2311.2 1488.5 2309.76 1486.02 L2308.25 1483.4 L2310.75 1481.96 L2312.33 1484.7 Q2313.62 1486.94 2315.19 1487.61 Q2316.78 1488.28 2318.47 1487.31 Q2320.2 1486.31 2320.4 1484.55 Q2320.63 1482.79 2319.31 1480.51 Q2318.59 1479.26 2317.49 1477.99 Q2316.4 1476.71 2314.84 1475.33 L2317.54 1473.77 Q2319.02 1475.22 2320.13 1476.58 Q2321.25 1477.96 2322.02 1479.3 Q2324.02 1482.76 2323.6 1485.69 Q2323.2 1488.6 2320.53 1490.15 Q2318.66 1491.22 2316.75 1490.9 Q2314.86 1490.57 2313.23 1488.89 Z" fill="#4c4c4c" fill-rule="evenodd" fill-opacity="1" /><path clip-path="url(#clip040)" d="M2331.32 1500.96 Q2329.96 1498.61 2326.96 1498.76 Q2323.99 1498.92 2319.35 1501.59 Q2314.74 1504.26 2313.1 1506.76 Q2311.49 1509.28 2312.84 1511.63 Q2314.2 1513.99 2317.18 1513.83 Q2320.18 1513.68 2324.8 1511.02 Q2329.43 1508.34 2331.04 1505.83 Q2332.68 1503.32 2331.32 1500.96 M2333.72 1499.57 Q2335.9 1503.34 2334.06 1507.05 Q2332.23 1510.77 2326.55 1514.05 Q2320.88 1517.33 2316.74 1517.05 Q2312.61 1516.79 2310.43 1513.01 Q2308.26 1509.24 2310.08 1505.52 Q2311.92 1501.81 2317.59 1498.54 Q2323.28 1495.26 2327.4 1495.52 Q2331.55 1495.8 2333.72 1499.57 Z" fill="#4c4c4c" fill-rule="evenodd" fill-opacity="1" /><path clip-path="url(#clip040)" d="M1236.68 1537.87 L1241.36 1537.87 L1241.36 1572.43 L1236.68 1572.43 L1236.68 1537.87 Z" fill="#000000" fill-rule="evenodd" fill-opacity="1" /><path clip-path="url(#clip040)" d="M1254.69 1539.15 L1254.69 1546.51 L1263.47 1546.51 L1263.47 1549.82 L1254.69 1549.82 L1254.69 1563.89 Q1254.69 1567.06 1255.55 1567.97 Q1256.43 1568.87 1259.09 1568.87 L1263.47 1568.87 L1263.47 1572.43 L1259.09 1572.43 Q1254.16 1572.43 1252.28 1570.6 Q1250.41 1568.75 1250.41 1563.89 L1250.41 1549.82 L1247.28 1549.82 L1247.28 1546.51 L1250.41 1546.51 L1250.41 1539.15 L1254.69 1539.15 Z" fill="#000000" fill-rule="evenodd" fill-opacity="1" /><path clip-path="url(#clip040)" d="M1291.24 1558.41 L1291.24 1560.49 L1271.66 1560.49 Q1271.94 1564.89 1274.3 1567.2 Q1276.68 1569.49 1280.92 1569.49 Q1283.37 1569.49 1285.66 1568.89 Q1287.98 1568.29 1290.25 1567.09 L1290.25 1571.11 Q1287.96 1572.09 1285.55 1572.6 Q1283.14 1573.1 1280.66 1573.1 Q1274.46 1573.1 1270.83 1569.49 Q1267.22 1565.88 1267.22 1559.73 Q1267.22 1553.36 1270.64 1549.63 Q1274.09 1545.88 1279.92 1545.88 Q1285.15 1545.88 1288.19 1549.26 Q1291.24 1552.62 1291.24 1558.41 M1286.98 1557.16 Q1286.94 1553.66 1285.02 1551.58 Q1283.12 1549.49 1279.97 1549.49 Q1276.4 1549.49 1274.25 1551.51 Q1272.12 1553.52 1271.8 1557.18 L1286.98 1557.16 Z" fill="#000000" fill-rule="evenodd" fill-opacity="1" /><path clip-path="url(#clip040)" d="M1313.26 1550.49 Q1312.54 1550.07 1311.68 1549.89 Q1310.85 1549.68 1309.83 1549.68 Q1306.22 1549.68 1304.28 1552.04 Q1302.35 1554.38 1302.35 1558.78 L1302.35 1572.43 L1298.07 1572.43 L1298.07 1546.51 L1302.35 1546.51 L1302.35 1550.54 Q1303.7 1548.17 1305.85 1547.04 Q1308 1545.88 1311.08 1545.88 Q1311.52 1545.88 1312.05 1545.95 Q1312.59 1546 1313.23 1546.11 L1313.26 1550.49 Z" fill="#000000" fill-rule="evenodd" fill-opacity="1" /><path clip-path="url(#clip040)" d="M1329.51 1559.4 Q1324.34 1559.4 1322.35 1560.58 Q1320.36 1561.76 1320.36 1564.61 Q1320.36 1566.88 1321.84 1568.22 Q1323.35 1569.54 1325.92 1569.54 Q1329.46 1569.54 1331.59 1567.04 Q1333.74 1564.52 1333.74 1560.35 L1333.74 1559.4 L1329.51 1559.4 M1338 1557.64 L1338 1572.43 L1333.74 1572.43 L1333.74 1568.5 Q1332.28 1570.86 1330.11 1571.99 Q1327.93 1573.1 1324.78 1573.1 Q1320.8 1573.1 1318.44 1570.88 Q1316.1 1568.64 1316.1 1564.89 Q1316.1 1560.51 1319.02 1558.29 Q1321.96 1556.07 1327.77 1556.07 L1333.74 1556.07 L1333.74 1555.65 Q1333.74 1552.71 1331.8 1551.11 Q1329.88 1549.49 1326.38 1549.49 Q1324.16 1549.49 1322.05 1550.03 Q1319.95 1550.56 1318 1551.62 L1318 1547.69 Q1320.34 1546.79 1322.54 1546.35 Q1324.74 1545.88 1326.82 1545.88 Q1332.45 1545.88 1335.22 1548.8 Q1338 1551.72 1338 1557.64 Z" fill="#000000" fill-rule="evenodd" fill-opacity="1" /><path clip-path="url(#clip040)" d="M1350.99 1539.15 L1350.99 1546.51 L1359.76 1546.51 L1359.76 1549.82 L1350.99 1549.82 L1350.99 1563.89 Q1350.99 1567.06 1351.84 1567.97 Q1352.72 1568.87 1355.39 1568.87 L1359.76 1568.87 L1359.76 1572.43 L1355.39 1572.43 Q1350.46 1572.43 1348.58 1570.6 Q1346.71 1568.75 1346.71 1563.89 L1346.71 1549.82 L1343.58 1549.82 L1343.58 1546.51 L1346.71 1546.51 L1346.71 1539.15 L1350.99 1539.15 Z" fill="#000000" fill-rule="evenodd" fill-opacity="1" /><path clip-path="url(#clip040)" d="M1365.36 1546.51 L1369.62 1546.51 L1369.62 1572.43 L1365.36 1572.43 L1365.36 1546.51 M1365.36 1536.42 L1369.62 1536.42 L1369.62 1541.81 L1365.36 1541.81 L1365.36 1536.42 Z" fill="#000000" fill-rule="evenodd" fill-opacity="1" /><path clip-path="url(#clip040)" d="M1388.58 1549.49 Q1385.15 1549.49 1383.16 1552.18 Q1381.17 1554.84 1381.17 1559.49 Q1381.17 1564.15 1383.14 1566.83 Q1385.13 1569.49 1388.58 1569.49 Q1391.98 1569.49 1393.97 1566.81 Q1395.96 1564.12 1395.96 1559.49 Q1395.96 1554.89 1393.97 1552.2 Q1391.98 1549.49 1388.58 1549.49 M1388.58 1545.88 Q1394.14 1545.88 1397.31 1549.49 Q1400.48 1553.1 1400.48 1559.49 Q1400.48 1565.86 1397.31 1569.49 Q1394.14 1573.1 1388.58 1573.1 Q1383 1573.1 1379.83 1569.49 Q1376.68 1565.86 1376.68 1559.49 Q1376.68 1553.1 1379.83 1549.49 Q1383 1545.88 1388.58 1545.88 Z" fill="#000000" fill-rule="evenodd" fill-opacity="1" /><path clip-path="url(#clip040)" d="M1429.09 1556.79 L1429.09 1572.43 L1424.83 1572.43 L1424.83 1556.92 Q1424.83 1553.24 1423.39 1551.41 Q1421.96 1549.59 1419.09 1549.59 Q1415.64 1549.59 1413.65 1551.79 Q1411.66 1553.98 1411.66 1557.78 L1411.66 1572.43 L1407.38 1572.43 L1407.38 1546.51 L1411.66 1546.51 L1411.66 1550.54 Q1413.19 1548.2 1415.25 1547.04 Q1417.33 1545.88 1420.04 1545.88 Q1424.51 1545.88 1426.8 1548.66 Q1429.09 1551.41 1429.09 1556.79 Z" fill="#000000" fill-rule="evenodd" fill-opacity="1" /><path clip-path="url(#clip040)" d="M1454.11 1547.27 L1454.11 1551.3 Q1452.31 1550.37 1450.36 1549.91 Q1448.42 1549.45 1446.33 1549.45 Q1443.16 1549.45 1441.57 1550.42 Q1439.99 1551.39 1439.99 1553.34 Q1439.99 1554.82 1441.13 1555.67 Q1442.26 1556.51 1445.69 1557.27 L1447.14 1557.6 Q1451.68 1558.57 1453.58 1560.35 Q1455.5 1562.11 1455.5 1565.28 Q1455.5 1568.89 1452.63 1571 Q1449.78 1573.1 1444.78 1573.1 Q1442.7 1573.1 1440.43 1572.69 Q1438.19 1572.29 1435.69 1571.48 L1435.69 1567.09 Q1438.05 1568.31 1440.34 1568.94 Q1442.63 1569.54 1444.88 1569.54 Q1447.89 1569.54 1449.51 1568.52 Q1451.13 1567.48 1451.13 1565.6 Q1451.13 1563.87 1449.95 1562.94 Q1448.79 1562.02 1444.83 1561.16 L1443.35 1560.81 Q1439.39 1559.98 1437.63 1558.27 Q1435.87 1556.53 1435.87 1553.52 Q1435.87 1549.86 1438.46 1547.87 Q1441.06 1545.88 1445.83 1545.88 Q1448.19 1545.88 1450.27 1546.23 Q1452.35 1546.58 1454.11 1547.27 Z" fill="#000000" fill-rule="evenodd" fill-opacity="1" /><polyline clip-path="url(#clip042)" style="stroke:#ffffff; stroke-linecap:butt; stroke-linejoin:round; stroke-width:4; stroke-opacity:1; fill:none" points="
  339.428,1226.35 2352.76,1226.35 
  "/>
<polyline clip-path="url(#clip042)" style="stroke:#ffffff; stroke-linecap:butt; stroke-linejoin:round; stroke-width:4; stroke-opacity:1; fill:none" points="
  339.428,935.387 2352.76,935.387 
  "/>
<polyline clip-path="url(#clip042)" style="stroke:#ffffff; stroke-linecap:butt; stroke-linejoin:round; stroke-width:4; stroke-opacity:1; fill:none" points="
  339.428,644.42 2352.76,644.42 
  "/>
<polyline clip-path="url(#clip042)" style="stroke:#ffffff; stroke-linecap:butt; stroke-linejoin:round; stroke-width:4; stroke-opacity:1; fill:none" points="
  339.428,353.452 2352.76,353.452 
  "/>
<polyline clip-path="url(#clip042)" style="stroke:#ffffff; stroke-linecap:butt; stroke-linejoin:round; stroke-width:2; stroke-opacity:1; fill:none" points="
  339.428,1371.84 2352.76,1371.84 
  "/>
<polyline clip-path="url(#clip042)" style="stroke:#ffffff; stroke-linecap:butt; stroke-linejoin:round; stroke-width:2; stroke-opacity:1; fill:none" points="
  339.428,1080.87 2352.76,1080.87 
  "/>
<polyline clip-path="url(#clip042)" style="stroke:#ffffff; stroke-linecap:butt; stroke-linejoin:round; stroke-width:2; stroke-opacity:1; fill:none" points="
  339.428,789.903 2352.76,789.903 
  "/>
<polyline clip-path="url(#clip042)" style="stroke:#ffffff; stroke-linecap:butt; stroke-linejoin:round; stroke-width:2; stroke-opacity:1; fill:none" points="
  339.428,498.936 2352.76,498.936 
  "/>
<polyline clip-path="url(#clip042)" style="stroke:#ffffff; stroke-linecap:butt; stroke-linejoin:round; stroke-width:2; stroke-opacity:1; fill:none" points="
  339.428,207.968 2352.76,207.968 
  "/>
<polyline clip-path="url(#clip040)" style="stroke:#ffffff; stroke-linecap:butt; stroke-linejoin:round; stroke-width:4; stroke-opacity:1; fill:none" points="
  339.428,1422.18 339.428,106.192 
  "/>
<polyline clip-path="url(#clip040)" style="stroke:#333333; stroke-linecap:butt; stroke-linejoin:round; stroke-width:4; stroke-opacity:1; fill:none" points="
  339.428,1226.35 320.531,1226.35 
  "/>
<polyline clip-path="url(#clip040)" style="stroke:#333333; stroke-linecap:butt; stroke-linejoin:round; stroke-width:4; stroke-opacity:1; fill:none" points="
  339.428,935.387 320.531,935.387 
  "/>
<polyline clip-path="url(#clip040)" style="stroke:#333333; stroke-linecap:butt; stroke-linejoin:round; stroke-width:4; stroke-opacity:1; fill:none" points="
  339.428,644.42 320.531,644.42 
  "/>
<polyline clip-path="url(#clip040)" style="stroke:#333333; stroke-linecap:butt; stroke-linejoin:round; stroke-width:4; stroke-opacity:1; fill:none" points="
  339.428,353.452 320.531,353.452 
  "/>
<polyline clip-path="url(#clip040)" style="stroke:#333333; stroke-linecap:butt; stroke-linejoin:round; stroke-width:4; stroke-opacity:1; fill:none" points="
  339.428,1371.84 329.979,1371.84 
  "/>
<polyline clip-path="url(#clip040)" style="stroke:#333333; stroke-linecap:butt; stroke-linejoin:round; stroke-width:4; stroke-opacity:1; fill:none" points="
  339.428,1080.87 329.979,1080.87 
  "/>
<polyline clip-path="url(#clip040)" style="stroke:#333333; stroke-linecap:butt; stroke-linejoin:round; stroke-width:4; stroke-opacity:1; fill:none" points="
  339.428,789.903 329.979,789.903 
  "/>
<polyline clip-path="url(#clip040)" style="stroke:#333333; stroke-linecap:butt; stroke-linejoin:round; stroke-width:4; stroke-opacity:1; fill:none" points="
  339.428,498.936 329.979,498.936 
  "/>
<polyline clip-path="url(#clip040)" style="stroke:#333333; stroke-linecap:butt; stroke-linejoin:round; stroke-width:4; stroke-opacity:1; fill:none" points="
  339.428,207.968 329.979,207.968 
  "/>
<path clip-path="url(#clip040)" d="M193.901 1226.69 L216.158 1226.69 L216.158 1229.64 L193.901 1229.64 L193.901 1226.69 Z" fill="#4c4c4c" fill-rule="evenodd" fill-opacity="1" /><path clip-path="url(#clip040)" d="M224.335 1236.36 L230.064 1236.36 L230.064 1216.59 L223.831 1217.84 L223.831 1214.64 L230.029 1213.39 L233.536 1213.39 L233.536 1236.36 L239.265 1236.36 L239.265 1239.31 L224.335 1239.31 L224.335 1236.36 Z" fill="#4c4c4c" fill-rule="evenodd" fill-opacity="1" /><path clip-path="url(#clip040)" d="M254.283 1224.96 Q251.921 1224.96 250.533 1226.57 Q249.161 1228.19 249.161 1231 Q249.161 1233.79 250.533 1235.43 Q251.921 1237.04 254.283 1237.04 Q256.644 1237.04 258.015 1235.43 Q259.404 1233.79 259.404 1231 Q259.404 1228.19 258.015 1226.57 Q256.644 1224.96 254.283 1224.96 M261.244 1213.97 L261.244 1217.16 Q259.925 1216.54 258.571 1216.21 Q257.234 1215.88 255.915 1215.88 Q252.442 1215.88 250.602 1218.22 Q248.779 1220.56 248.519 1225.3 Q249.543 1223.79 251.088 1223 Q252.633 1222.18 254.491 1222.18 Q258.397 1222.18 260.654 1224.56 Q262.928 1226.92 262.928 1231 Q262.928 1234.99 260.567 1237.4 Q258.206 1239.82 254.283 1239.82 Q249.786 1239.82 247.408 1236.38 Q245.029 1232.93 245.029 1226.38 Q245.029 1220.23 247.946 1216.59 Q250.862 1212.93 255.776 1212.93 Q257.095 1212.93 258.432 1213.19 Q259.786 1213.45 261.244 1213.97 Z" fill="#4c4c4c" fill-rule="evenodd" fill-opacity="1" /><path clip-path="url(#clip040)" d="M276.47 1215.7 Q273.762 1215.7 272.39 1218.38 Q271.036 1221.03 271.036 1226.38 Q271.036 1231.71 272.39 1234.38 Q273.762 1237.04 276.47 1237.04 Q279.196 1237.04 280.55 1234.38 Q281.921 1231.71 281.921 1226.38 Q281.921 1221.03 280.55 1218.38 Q279.196 1215.7 276.47 1215.7 M276.47 1212.93 Q280.828 1212.93 283.119 1216.38 Q285.428 1219.82 285.428 1226.38 Q285.428 1232.93 283.119 1236.38 Q280.828 1239.82 276.47 1239.82 Q272.112 1239.82 269.803 1236.38 Q267.512 1232.93 267.512 1226.38 Q267.512 1219.82 269.803 1216.38 Q272.112 1212.93 276.47 1212.93 Z" fill="#4c4c4c" fill-rule="evenodd" fill-opacity="1" /><path clip-path="url(#clip040)" d="M193.97 935.726 L216.227 935.726 L216.227 938.677 L193.97 938.677 L193.97 935.726 Z" fill="#4c4c4c" fill-rule="evenodd" fill-opacity="1" /><path clip-path="url(#clip040)" d="M224.404 945.396 L230.133 945.396 L230.133 925.622 L223.901 926.872 L223.901 923.677 L230.099 922.427 L233.606 922.427 L233.606 945.396 L239.335 945.396 L239.335 948.347 L224.404 948.347 L224.404 945.396 Z" fill="#4c4c4c" fill-rule="evenodd" fill-opacity="1" /><path clip-path="url(#clip040)" d="M246.453 922.427 L260.22 922.427 L260.22 925.379 L249.665 925.379 L249.665 931.733 Q250.428 931.472 251.192 931.351 Q251.956 931.212 252.72 931.212 Q257.06 931.212 259.595 933.59 Q262.13 935.969 262.13 940.031 Q262.13 944.215 259.526 946.542 Q256.921 948.851 252.182 948.851 Q250.55 948.851 248.849 948.573 Q247.165 948.295 245.359 947.739 L245.359 944.215 Q246.922 945.066 248.588 945.483 Q250.255 945.899 252.112 945.899 Q255.116 945.899 256.869 944.319 Q258.623 942.74 258.623 940.031 Q258.623 937.323 256.869 935.743 Q255.116 934.163 252.112 934.163 Q250.706 934.163 249.3 934.476 Q247.911 934.788 246.453 935.448 L246.453 922.427 Z" fill="#4c4c4c" fill-rule="evenodd" fill-opacity="1" /><path clip-path="url(#clip040)" d="M276.539 936.038 Q274.039 936.038 272.598 937.375 Q271.175 938.712 271.175 941.056 Q271.175 943.399 272.598 944.736 Q274.039 946.073 276.539 946.073 Q279.039 946.073 280.48 944.736 Q281.921 943.382 281.921 941.056 Q281.921 938.712 280.48 937.375 Q279.057 936.038 276.539 936.038 M273.032 934.545 Q270.776 933.99 269.508 932.444 Q268.258 930.899 268.258 928.677 Q268.258 925.569 270.463 923.764 Q272.685 921.958 276.539 921.958 Q280.411 921.958 282.616 923.764 Q284.821 925.569 284.821 928.677 Q284.821 930.899 283.553 932.444 Q282.303 933.99 280.064 934.545 Q282.598 935.135 284.005 936.854 Q285.428 938.573 285.428 941.056 Q285.428 944.823 283.119 946.837 Q280.828 948.851 276.539 948.851 Q272.251 948.851 269.942 946.837 Q267.651 944.823 267.651 941.056 Q267.651 938.573 269.074 936.854 Q270.498 935.135 273.032 934.545 M271.748 929.007 Q271.748 931.021 272.998 932.149 Q274.265 933.278 276.539 933.278 Q278.796 933.278 280.064 932.149 Q281.348 931.021 281.348 929.007 Q281.348 926.993 280.064 925.865 Q278.796 924.736 276.539 924.736 Q274.265 924.736 272.998 925.865 Q271.748 926.993 271.748 929.007 Z" fill="#4c4c4c" fill-rule="evenodd" fill-opacity="1" /><path clip-path="url(#clip040)" d="M193.779 644.758 L216.036 644.758 L216.036 647.709 L193.779 647.709 L193.779 644.758 Z" fill="#4c4c4c" fill-rule="evenodd" fill-opacity="1" /><path clip-path="url(#clip040)" d="M224.213 654.428 L229.942 654.428 L229.942 634.654 L223.71 635.904 L223.71 632.71 L229.908 631.46 L233.415 631.46 L233.415 654.428 L239.144 654.428 L239.144 657.38 L224.213 657.38 L224.213 654.428 Z" fill="#4c4c4c" fill-rule="evenodd" fill-opacity="1" /><path clip-path="url(#clip040)" d="M246.262 631.46 L260.029 631.46 L260.029 634.411 L249.474 634.411 L249.474 640.765 Q250.237 640.505 251.001 640.383 Q251.765 640.244 252.529 640.244 Q256.869 640.244 259.404 642.623 Q261.939 645.001 261.939 649.064 Q261.939 653.248 259.335 655.574 Q256.73 657.883 251.991 657.883 Q250.359 657.883 248.658 657.605 Q246.974 657.327 245.168 656.772 L245.168 653.248 Q246.731 654.098 248.397 654.515 Q250.064 654.932 251.921 654.932 Q254.925 654.932 256.678 653.352 Q258.432 651.772 258.432 649.064 Q258.432 646.355 256.678 644.775 Q254.925 643.196 251.921 643.196 Q250.515 643.196 249.109 643.508 Q247.72 643.821 246.262 644.48 L246.262 631.46 Z" fill="#4c4c4c" fill-rule="evenodd" fill-opacity="1" /><path clip-path="url(#clip040)" d="M276.782 643.022 Q274.421 643.022 273.032 644.637 Q271.661 646.251 271.661 649.064 Q271.661 651.859 273.032 653.491 Q274.421 655.105 276.782 655.105 Q279.144 655.105 280.515 653.491 Q281.904 651.859 281.904 649.064 Q281.904 646.251 280.515 644.637 Q279.144 643.022 276.782 643.022 M283.744 632.032 L283.744 635.227 Q282.425 634.602 281.071 634.272 Q279.734 633.942 278.414 633.942 Q274.942 633.942 273.102 636.286 Q271.279 638.63 271.019 643.369 Q272.043 641.859 273.588 641.06 Q275.133 640.244 276.991 640.244 Q280.897 640.244 283.154 642.623 Q285.428 644.984 285.428 649.064 Q285.428 653.057 283.067 655.47 Q280.706 657.883 276.782 657.883 Q272.286 657.883 269.907 654.446 Q267.529 650.991 267.529 644.446 Q267.529 638.3 270.446 634.654 Q273.362 630.991 278.276 630.991 Q279.595 630.991 280.932 631.251 Q282.286 631.512 283.744 632.032 Z" fill="#4c4c4c" fill-rule="evenodd" fill-opacity="1" /><path clip-path="url(#clip040)" d="M193.536 353.791 L215.793 353.791 L215.793 356.742 L193.536 356.742 L193.536 353.791 Z" fill="#4c4c4c" fill-rule="evenodd" fill-opacity="1" /><path clip-path="url(#clip040)" d="M223.97 363.461 L229.699 363.461 L229.699 343.686 L223.467 344.936 L223.467 341.742 L229.665 340.492 L233.172 340.492 L233.172 363.461 L238.901 363.461 L238.901 366.412 L223.97 366.412 L223.97 363.461 Z" fill="#4c4c4c" fill-rule="evenodd" fill-opacity="1" /><path clip-path="url(#clip040)" d="M246.019 340.492 L259.786 340.492 L259.786 343.443 L249.231 343.443 L249.231 349.798 Q249.994 349.537 250.758 349.416 Q251.522 349.277 252.286 349.277 Q256.626 349.277 259.161 351.655 Q261.696 354.034 261.696 358.096 Q261.696 362.28 259.092 364.606 Q256.487 366.915 251.748 366.915 Q250.116 366.915 248.415 366.638 Q246.731 366.36 244.925 365.804 L244.925 362.28 Q246.487 363.131 248.154 363.547 Q249.821 363.964 251.678 363.964 Q254.682 363.964 256.435 362.384 Q258.189 360.804 258.189 358.096 Q258.189 355.388 256.435 353.808 Q254.682 352.228 251.678 352.228 Q250.272 352.228 248.866 352.541 Q247.477 352.853 246.019 353.513 L246.019 340.492 Z" fill="#4c4c4c" fill-rule="evenodd" fill-opacity="1" /><path clip-path="url(#clip040)" d="M278.241 343.548 L269.387 357.384 L278.241 357.384 L278.241 343.548 M277.321 340.492 L281.73 340.492 L281.73 357.384 L285.428 357.384 L285.428 360.301 L281.73 360.301 L281.73 366.412 L278.241 366.412 L278.241 360.301 L266.539 360.301 L266.539 356.916 L277.321 340.492 Z" fill="#4c4c4c" fill-rule="evenodd" fill-opacity="1" /><path clip-path="url(#clip040)" d="M130.608 973.882 L130.608 944.646 L134.544 944.646 L134.544 956.915 L165.168 956.915 L165.168 961.614 L134.544 961.614 L134.544 973.882 L130.608 973.882 Z" fill="#000000" fill-rule="evenodd" fill-opacity="1" /><path clip-path="url(#clip040)" d="M151.141 926.198 L153.224 926.198 L153.224 945.781 Q157.622 945.503 159.937 943.142 Q162.229 940.758 162.229 936.522 Q162.229 934.068 161.627 931.776 Q161.025 929.461 159.821 927.193 L163.849 927.193 Q164.821 929.485 165.33 931.892 Q165.84 934.299 165.84 936.776 Q165.84 942.98 162.229 946.614 Q158.617 950.225 152.46 950.225 Q146.094 950.225 142.368 946.799 Q138.618 943.35 138.618 937.517 Q138.618 932.285 141.997 929.253 Q145.354 926.198 151.141 926.198 M149.891 930.457 Q146.395 930.503 144.312 932.424 Q142.229 934.322 142.229 937.471 Q142.229 941.035 144.243 943.188 Q146.256 945.318 149.914 945.642 L149.891 930.457 Z" fill="#000000" fill-rule="evenodd" fill-opacity="1" /><path clip-path="url(#clip040)" d="M140.006 902.679 L144.034 902.679 Q143.108 904.485 142.645 906.429 Q142.182 908.374 142.182 910.457 Q142.182 913.628 143.155 915.225 Q144.127 916.799 146.071 916.799 Q147.553 916.799 148.409 915.665 Q149.243 914.531 150.006 911.105 L150.33 909.647 Q151.303 905.11 153.085 903.212 Q154.844 901.29 158.016 901.29 Q161.627 901.29 163.733 904.161 Q165.84 907.008 165.84 912.008 Q165.84 914.091 165.423 916.36 Q165.029 918.605 164.219 921.105 L159.821 921.105 Q161.048 918.744 161.673 916.452 Q162.275 914.161 162.275 911.915 Q162.275 908.906 161.256 907.286 Q160.215 905.665 158.34 905.665 Q156.604 905.665 155.678 906.846 Q154.752 908.003 153.895 911.961 L153.548 913.443 Q152.715 917.401 151.002 919.161 Q149.266 920.92 146.256 920.92 Q142.599 920.92 140.608 918.327 Q138.618 915.735 138.618 910.966 Q138.618 908.605 138.965 906.522 Q139.312 904.438 140.006 902.679 Z" fill="#000000" fill-rule="evenodd" fill-opacity="1" /><path clip-path="url(#clip040)" d="M131.882 890.295 L139.243 890.295 L139.243 881.522 L142.553 881.522 L142.553 890.295 L156.627 890.295 Q159.798 890.295 160.701 889.438 Q161.604 888.559 161.604 885.897 L161.604 881.522 L165.168 881.522 L165.168 885.897 Q165.168 890.827 163.34 892.702 Q161.488 894.577 156.627 894.577 L142.553 894.577 L142.553 897.702 L139.243 897.702 L139.243 894.577 L131.882 894.577 L131.882 890.295 Z" fill="#000000" fill-rule="evenodd" fill-opacity="1" /><path clip-path="url(#clip040)" d="M129.15 860.851 L129.15 856.591 L165.168 856.591 L165.168 860.851 L129.15 860.851 Z" fill="#000000" fill-rule="evenodd" fill-opacity="1" /><path clip-path="url(#clip040)" d="M142.229 837.633 Q142.229 841.059 144.914 843.05 Q147.576 845.041 152.229 845.041 Q156.881 845.041 159.567 843.073 Q162.229 841.082 162.229 837.633 Q162.229 834.23 159.543 832.24 Q156.858 830.249 152.229 830.249 Q147.622 830.249 144.937 832.24 Q142.229 834.23 142.229 837.633 M138.618 837.633 Q138.618 832.078 142.229 828.906 Q145.84 825.735 152.229 825.735 Q158.594 825.735 162.229 828.906 Q165.84 832.078 165.84 837.633 Q165.84 843.212 162.229 846.383 Q158.594 849.531 152.229 849.531 Q145.84 849.531 142.229 846.383 Q138.618 843.212 138.618 837.633 Z" fill="#000000" fill-rule="evenodd" fill-opacity="1" /><path clip-path="url(#clip040)" d="M151.905 801.615 Q147.275 801.615 144.729 803.536 Q142.182 805.434 142.182 808.883 Q142.182 812.309 144.729 814.231 Q147.275 816.129 151.905 816.129 Q156.511 816.129 159.057 814.231 Q161.604 812.309 161.604 808.883 Q161.604 805.434 159.057 803.536 Q156.511 801.615 151.905 801.615 M161.951 797.356 Q168.571 797.356 171.789 800.295 Q175.029 803.235 175.029 809.3 Q175.029 811.545 174.682 813.536 Q174.358 815.527 173.664 817.402 L169.52 817.402 Q170.539 815.527 171.025 813.698 Q171.511 811.869 171.511 809.971 Q171.511 805.781 169.312 803.698 Q167.136 801.615 162.715 801.615 L160.608 801.615 Q162.9 802.934 164.034 804.994 Q165.168 807.055 165.168 809.925 Q165.168 814.693 161.534 817.61 Q157.9 820.527 151.905 820.527 Q145.886 820.527 142.252 817.61 Q138.618 814.693 138.618 809.925 Q138.618 807.055 139.752 804.994 Q140.886 802.934 143.178 801.615 L139.243 801.615 L139.243 797.356 L161.951 797.356 Z" fill="#000000" fill-rule="evenodd" fill-opacity="1" /><path clip-path="url(#clip040)" d="M150.284 790.735 L150.284 778.258 L154.08 778.258 L154.08 790.735 L150.284 790.735 Z" fill="#000000" fill-rule="evenodd" fill-opacity="1" /><path clip-path="url(#clip040)" d="M129.15 771.476 L129.15 767.217 L165.168 767.217 L165.168 771.476 L129.15 771.476 Z" fill="#000000" fill-rule="evenodd" fill-opacity="1" /><path clip-path="url(#clip040)" d="M139.243 758.305 L139.243 754.046 L165.168 754.046 L165.168 758.305 L139.243 758.305 M129.15 758.305 L129.15 754.046 L134.544 754.046 L134.544 758.305 L129.15 758.305 Z" fill="#000000" fill-rule="evenodd" fill-opacity="1" /><path clip-path="url(#clip040)" d="M129.15 745.296 L129.15 741.013 L150.423 741.013 L139.243 728.305 L139.243 722.865 L151.372 736.615 L165.168 722.287 L165.168 727.842 L152.506 741.013 L165.168 741.013 L165.168 745.296 L129.15 745.296 Z" fill="#000000" fill-rule="evenodd" fill-opacity="1" /><path clip-path="url(#clip040)" d="M151.141 697.194 L153.224 697.194 L153.224 716.777 Q157.622 716.5 159.937 714.138 Q162.229 711.754 162.229 707.518 Q162.229 705.064 161.627 702.773 Q161.025 700.458 159.821 698.189 L163.849 698.189 Q164.821 700.481 165.33 702.889 Q165.84 705.296 165.84 707.773 Q165.84 713.976 162.229 717.611 Q158.617 721.222 152.46 721.222 Q146.094 721.222 142.368 717.796 Q138.618 714.347 138.618 708.513 Q138.618 703.282 141.997 700.25 Q145.354 697.194 151.141 697.194 M149.891 701.453 Q146.395 701.5 144.312 703.421 Q142.229 705.319 142.229 708.467 Q142.229 712.032 144.243 714.185 Q146.256 716.314 149.914 716.638 L149.891 701.453 Z" fill="#000000" fill-rule="evenodd" fill-opacity="1" /><path clip-path="url(#clip040)" d="M129.15 690.203 L129.15 685.944 L165.168 685.944 L165.168 690.203 L129.15 690.203 Z" fill="#000000" fill-rule="evenodd" fill-opacity="1" /><path clip-path="url(#clip040)" d="M139.243 677.032 L139.243 672.773 L165.168 672.773 L165.168 677.032 L139.243 677.032 M129.15 677.032 L129.15 672.773 L134.544 672.773 L134.544 677.032 L129.15 677.032 Z" fill="#000000" fill-rule="evenodd" fill-opacity="1" /><path clip-path="url(#clip040)" d="M149.52 642.31 L165.168 642.31 L165.168 646.569 L149.659 646.569 Q145.979 646.569 144.15 648.005 Q142.321 649.44 142.321 652.31 Q142.321 655.759 144.52 657.75 Q146.719 659.741 150.516 659.741 L165.168 659.741 L165.168 664.023 L129.15 664.023 L129.15 659.741 L143.27 659.741 Q140.932 658.213 139.775 656.153 Q138.618 654.069 138.618 651.361 Q138.618 646.893 141.395 644.602 Q144.15 642.31 149.52 642.31 Z" fill="#000000" fill-rule="evenodd" fill-opacity="1" /><path clip-path="url(#clip040)" d="M142.229 623.769 Q142.229 627.194 144.914 629.185 Q147.576 631.176 152.229 631.176 Q156.881 631.176 159.567 629.208 Q162.229 627.218 162.229 623.769 Q162.229 620.366 159.543 618.375 Q156.858 616.384 152.229 616.384 Q147.622 616.384 144.937 618.375 Q142.229 620.366 142.229 623.769 M138.618 623.769 Q138.618 618.213 142.229 615.042 Q145.84 611.87 152.229 611.87 Q158.594 611.87 162.229 615.042 Q165.84 618.213 165.84 623.769 Q165.84 629.347 162.229 632.519 Q158.594 635.667 152.229 635.667 Q145.84 635.667 142.229 632.519 Q138.618 629.347 138.618 623.769 Z" fill="#000000" fill-rule="evenodd" fill-opacity="1" /><path clip-path="url(#clip040)" d="M142.229 594.764 Q142.229 598.19 144.914 600.181 Q147.576 602.171 152.229 602.171 Q156.881 602.171 159.567 600.204 Q162.229 598.213 162.229 594.764 Q162.229 591.361 159.543 589.371 Q156.858 587.38 152.229 587.38 Q147.622 587.38 144.937 589.371 Q142.229 591.361 142.229 594.764 M138.618 594.764 Q138.618 589.209 142.229 586.037 Q145.84 582.866 152.229 582.866 Q158.594 582.866 162.229 586.037 Q165.84 589.209 165.84 594.764 Q165.84 600.343 162.229 603.514 Q158.594 606.662 152.229 606.662 Q145.84 606.662 142.229 603.514 Q138.618 600.343 138.618 594.764 Z" fill="#000000" fill-rule="evenodd" fill-opacity="1" /><path clip-path="url(#clip040)" d="M143.178 558.746 L129.15 558.746 L129.15 554.487 L165.168 554.487 L165.168 558.746 L161.28 558.746 Q163.594 560.088 164.729 562.149 Q165.84 564.186 165.84 567.056 Q165.84 571.755 162.09 574.718 Q158.34 577.658 152.229 577.658 Q146.118 577.658 142.368 574.718 Q138.618 571.755 138.618 567.056 Q138.618 564.186 139.752 562.149 Q140.863 560.088 143.178 558.746 M152.229 573.26 Q156.928 573.26 159.613 571.338 Q162.275 569.394 162.275 566.014 Q162.275 562.635 159.613 560.69 Q156.928 558.746 152.229 558.746 Q147.53 558.746 144.868 560.69 Q142.182 562.635 142.182 566.014 Q142.182 569.394 144.868 571.338 Q147.53 573.26 152.229 573.26 Z" fill="#000000" fill-rule="evenodd" fill-opacity="1" /><path clip-path="url(#clip040)" d="M1251.72 19.4328 L1257.04 19.4328 L1263.7 44.722 L1270.33 19.4328 L1276.6 19.4328 L1283.26 44.722 L1289.89 19.4328 L1295.21 19.4328 L1286.73 51.84 L1280.45 51.84 L1273.48 25.2776 L1266.48 51.84 L1260.2 51.84 L1251.72 19.4328 Z" fill="#000000" fill-rule="evenodd" fill-opacity="1" /><path clip-path="url(#clip040)" d="M1331 34.3054 L1331 36.9095 L1306.52 36.9095 Q1306.87 42.4072 1309.82 45.3007 Q1312.8 48.1653 1318.1 48.1653 Q1321.16 48.1653 1324.03 47.4129 Q1326.92 46.6606 1329.76 45.156 L1329.76 50.1907 Q1326.89 51.406 1323.88 52.0425 Q1320.88 52.6791 1317.78 52.6791 Q1310.02 52.6791 1305.48 48.1653 Q1300.97 43.6514 1300.97 35.9547 Q1300.97 27.9975 1305.25 23.339 Q1309.56 18.6515 1316.85 18.6515 Q1323.39 18.6515 1327.18 22.876 Q1331 27.0716 1331 34.3054 M1325.68 32.7429 Q1325.62 28.3737 1323.22 25.7695 Q1320.85 23.1654 1316.91 23.1654 Q1312.46 23.1654 1309.76 25.6827 Q1307.1 28.2001 1306.7 32.7718 L1325.68 32.7429 Z" fill="#000000" fill-rule="evenodd" fill-opacity="1" /><path clip-path="url(#clip040)" d="M1363 35.6653 Q1363 29.7915 1360.57 26.464 Q1358.17 23.1075 1353.95 23.1075 Q1349.72 23.1075 1347.29 26.464 Q1344.89 29.7915 1344.89 35.6653 Q1344.89 41.5391 1347.29 44.8956 Q1349.72 48.2231 1353.95 48.2231 Q1358.17 48.2231 1360.57 44.8956 Q1363 41.5391 1363 35.6653 M1344.89 24.3517 Q1346.57 21.4582 1349.12 20.0693 Q1351.69 18.6515 1355.25 18.6515 Q1361.15 18.6515 1364.83 23.339 Q1368.53 28.0265 1368.53 35.6653 Q1368.53 43.3042 1364.83 47.9916 Q1361.15 52.6791 1355.25 52.6791 Q1351.69 52.6791 1349.12 51.2902 Q1346.57 49.8724 1344.89 46.9789 L1344.89 51.84 L1339.54 51.84 L1339.54 6.81709 L1344.89 6.81709 L1344.89 24.3517 Z" fill="#000000" fill-rule="evenodd" fill-opacity="1" /><path clip-path="url(#clip040)" d="M1377.15 6.81709 L1382.51 6.81709 L1382.51 33.4084 L1398.39 19.4328 L1405.19 19.4328 L1388 34.5947 L1405.92 51.84 L1398.97 51.84 L1382.51 36.0125 L1382.51 51.84 L1377.15 51.84 L1377.15 6.81709 Z" fill="#000000" fill-rule="evenodd" fill-opacity="1" /><path clip-path="url(#clip040)" d="M1434.94 35.6653 Q1434.94 29.7915 1432.51 26.464 Q1430.1 23.1075 1425.88 23.1075 Q1421.66 23.1075 1419.23 26.464 Q1416.82 29.7915 1416.82 35.6653 Q1416.82 41.5391 1419.23 44.8956 Q1421.66 48.2231 1425.88 48.2231 Q1430.1 48.2231 1432.51 44.8956 Q1434.94 41.5391 1434.94 35.6653 M1416.82 24.3517 Q1418.5 21.4582 1421.05 20.0693 Q1423.62 18.6515 1427.18 18.6515 Q1433.09 18.6515 1436.76 23.339 Q1440.46 28.0265 1440.46 35.6653 Q1440.46 43.3042 1436.76 47.9916 Q1433.09 52.6791 1427.18 52.6791 Q1423.62 52.6791 1421.05 51.2902 Q1418.5 49.8724 1416.82 46.9789 L1416.82 51.84 L1411.47 51.84 L1411.47 6.81709 L1416.82 6.81709 L1416.82 24.3517 Z" fill="#000000" fill-rule="evenodd" fill-opacity="1" /><polyline clip-path="url(#clip042)" style="stroke:#e26f46; stroke-linecap:butt; stroke-linejoin:round; stroke-width:8; stroke-opacity:1; fill:none" points="
  425.63,964.484 454.851,964.484 484.072,964.484 513.293,964.484 542.514,964.484 571.735,964.484 600.956,964.484 630.177,964.484 659.398,964.484 688.619,964.484 
  717.84,964.484 747.061,964.484 776.282,964.484 805.503,964.484 834.724,964.484 863.945,964.484 893.166,964.484 922.387,964.484 951.608,964.484 980.829,964.484 
  1010.05,964.484 1039.27,964.484 1068.49,964.484 1097.71,964.484 1126.93,964.484 1156.16,964.484 1185.38,964.484 1214.6,964.484 1243.82,964.484 1273.04,964.484 
  1302.26,964.484 1331.48,964.484 1360.7,964.484 1389.92,964.484 1419.14,964.484 1448.37,964.484 1477.59,964.484 1506.81,964.484 1536.03,964.484 1565.25,964.484 
  1594.47,964.484 1623.69,964.484 1652.91,964.484 1682.13,964.484 1711.35,964.484 1740.58,964.484 1769.8,964.484 1799.02,964.484 1828.24,964.484 1857.46,964.484 
  1886.68,964.484 1915.9,964.484 1945.12,964.484 1974.34,964.484 2003.56,964.484 2032.79,964.484 2062.01,964.484 2091.23,964.484 2120.45,964.484 2149.67,964.484 
  2178.89,964.484 2208.11,964.484 2237.33,964.484 2266.55,964.484 2295.77,964.484 
  "/>
<polyline clip-path="url(#clip042)" style="stroke:#3da44d; stroke-linecap:butt; stroke-linejoin:round; stroke-width:8; stroke-opacity:1; fill:none" points="
  425.63,546.945 454.851,546.945 484.072,546.945 513.293,546.945 542.514,546.945 571.735,546.945 600.956,546.945 630.177,546.945 659.398,546.945 688.619,546.945 
  717.84,546.945 747.061,546.945 776.282,546.945 805.503,546.945 834.724,546.945 863.945,546.945 893.166,546.945 922.387,546.945 951.608,546.945 980.829,546.945 
  1010.05,546.945 1039.27,546.945 1068.49,546.945 1097.71,546.945 1126.93,546.945 1156.16,546.945 1185.38,546.945 1214.6,546.945 1243.82,546.945 1273.04,546.945 
  1302.26,546.945 1331.48,546.945 1360.7,546.945 1389.92,546.945 1419.14,546.945 1448.37,546.945 1477.59,546.945 1506.81,546.945 1536.03,546.945 1565.25,546.945 
  1594.47,546.945 1623.69,546.945 1652.91,546.945 1682.13,546.945 1711.35,546.945 1740.58,546.945 1769.8,546.945 1799.02,546.945 1828.24,546.945 1857.46,546.945 
  1886.68,546.945 1915.9,546.945 1945.12,546.945 1974.34,546.945 2003.56,546.945 2032.79,546.945 2062.01,546.945 2091.23,546.945 2120.45,546.945 2149.67,546.945 
  2178.89,546.945 2208.11,546.945 2237.33,546.945 2266.55,546.945 2295.77,546.945 
  "/>
<polyline clip-path="url(#clip042)" style="stroke:#c271d2; stroke-linecap:butt; stroke-linejoin:round; stroke-width:8; stroke-opacity:1; fill:none" points="
  425.63,1384.93 454.851,1384.93 484.072,1384.93 513.293,1384.93 542.514,1384.93 571.735,1384.93 600.956,1384.93 630.177,1384.93 659.398,1384.93 688.619,1384.93 
  717.84,1384.93 747.061,1384.93 776.282,1384.93 805.503,1384.93 834.724,1384.93 863.945,1384.93 893.166,1384.93 922.387,1384.93 951.608,1384.93 980.829,1384.93 
  1010.05,1384.93 1039.27,1384.93 1068.49,1384.93 1097.71,1384.93 1126.93,1384.93 1156.16,1384.93 1185.38,1384.93 1214.6,1384.93 1243.82,1384.93 1273.04,1384.93 
  1302.26,1384.93 1331.48,1384.93 1360.7,1384.93 1389.92,1384.93 1419.14,1384.93 1448.37,1384.93 1477.59,1384.93 1506.81,1384.93 1536.03,1384.93 1565.25,1384.93 
  1594.47,1384.93 1623.69,1384.93 1652.91,1384.93 1682.13,1384.93 1711.35,1384.93 1740.58,1384.93 1769.8,1384.93 1799.02,1384.93 1828.24,1384.93 1857.46,1384.93 
  1886.68,1384.93 1915.9,1384.93 1945.12,1384.93 1974.34,1384.93 2003.56,1384.93 2032.79,1384.93 2062.01,1384.93 2091.23,1384.93 2120.45,1384.93 2149.67,1384.93 
  2178.89,1384.93 2208.11,1384.93 2237.33,1384.93 2266.55,1384.93 2295.77,1384.93 
  "/>
<polyline clip-path="url(#clip042)" style="stroke:#ac8d18; stroke-linecap:butt; stroke-linejoin:round; stroke-width:8; stroke-opacity:1; fill:none" points="
  425.63,305.442 454.851,305.442 484.072,305.442 513.293,305.442 542.514,305.442 571.735,305.442 600.956,305.442 630.177,305.442 659.398,305.442 688.619,305.442 
  717.84,305.442 747.061,305.442 776.282,305.442 805.503,305.442 834.724,305.442 863.945,305.442 893.166,305.442 922.387,305.442 951.608,305.442 980.829,305.442 
  1010.05,305.442 1039.27,305.442 1068.49,305.442 1097.71,305.442 1126.93,305.442 1156.16,305.442 1185.38,305.442 1214.6,305.442 1243.82,305.442 1273.04,305.442 
  1302.26,305.442 1331.48,305.442 1360.7,305.442 1389.92,305.442 1419.14,305.442 1448.37,305.442 1477.59,305.442 1506.81,305.442 1536.03,305.442 1565.25,305.442 
  1594.47,305.442 1623.69,305.442 1652.91,305.442 1682.13,305.442 1711.35,305.442 1740.58,305.442 1769.8,305.442 1799.02,305.442 1828.24,305.442 1857.46,305.442 
  1886.68,305.442 1915.9,305.442 1945.12,305.442 1974.34,305.442 2003.56,305.442 2032.79,305.442 2062.01,305.442 2091.23,305.442 2120.45,305.442 2149.67,305.442 
  2178.89,305.442 2208.11,305.442 2237.33,305.442 2266.55,305.442 2295.77,305.442 
  "/>
<polyline clip-path="url(#clip042)" style="stroke:#00a9ad; stroke-linecap:butt; stroke-linejoin:round; stroke-width:8; stroke-opacity:1; fill:none" points="
  425.63,529.487 454.851,529.487 484.072,529.487 513.293,529.487 542.514,529.487 571.735,529.487 600.956,529.487 630.177,529.487 659.398,529.487 688.619,529.487 
  717.84,529.487 747.061,529.487 776.282,529.487 805.503,529.487 834.724,529.487 863.945,529.487 893.166,529.487 922.387,529.487 951.608,529.487 980.829,529.487 
  1010.05,529.487 1039.27,529.487 1068.49,529.487 1097.71,529.487 1126.93,529.487 1156.16,529.487 1185.38,529.487 1214.6,529.487 1243.82,529.487 1273.04,529.487 
  1302.26,529.487 1331.48,529.487 1360.7,529.487 1389.92,529.487 1419.14,529.487 1448.37,529.487 1477.59,529.487 1506.81,529.487 1536.03,529.487 1565.25,529.487 
  1594.47,529.487 1623.69,529.487 1652.91,529.487 1682.13,529.487 1711.35,529.487 1740.58,529.487 1769.8,529.487 1799.02,529.487 1828.24,529.487 1857.46,529.487 
  1886.68,529.487 1915.9,529.487 1945.12,529.487 1974.34,529.487 2003.56,529.487 2032.79,529.487 2062.01,529.487 2091.23,529.487 2120.45,529.487 2149.67,529.487 
  2178.89,529.487 2208.11,529.487 2237.33,529.487 2266.55,529.487 2295.77,529.487 
  "/>
<polyline clip-path="url(#clip042)" style="stroke:#009af9; stroke-linecap:butt; stroke-linejoin:round; stroke-width:12; stroke-opacity:1; fill:none" points="
  425.63,1149.48 454.851,862.286 484.072,926.271 513.293,616.475 542.514,483.716 571.735,559.495 600.956,440.391 630.177,365.747 659.398,451.419 688.619,373.943 
  717.84,303.789 747.061,351.955 776.282,326.309 805.503,252.808 834.724,296.58 863.945,272.701 893.166,232.396 922.387,227.562 951.608,254.791 980.829,205.788 
  1010.05,197.441 1039.27,220.057 1068.49,189.076 1097.71,174.652 1126.93,186.759 1156.16,175.121 1185.38,166.681 1214.6,180.907 1243.82,170.739 1273.04,157.329 
  1302.26,174.244 1331.48,163.831 1360.7,147.036 1389.92,161.41 1419.14,146.404 1448.37,143.437 1477.59,158.92 1506.81,160.522 1536.03,150.282 1565.25,163.203 
  1594.47,155.462 1623.69,146.303 1652.91,155.231 1682.13,152.94 1711.35,147.216 1740.58,155.238 1769.8,154.901 1799.02,145.516 1828.24,156.303 1857.46,150.274 
  
  "/>
<polyline clip-path="url(#clip042)" style="stroke:#f05f73; stroke-linecap:butt; stroke-linejoin:round; stroke-width:12; stroke-opacity:1; fill:none" points="
  1857.46,150.274 1886.68,202.653 1915.9,225.958 1945.12,239.49 1974.34,249.058 2003.56,256.81 2032.79,262.952 2062.01,267.901 2091.23,272.189 2120.45,276.073 
  2149.67,279.006 2178.89,281.485 2208.11,284.212 2237.33,286.927 2266.55,289.157 2295.77,290.976 
  "/>
</svg>
